<?xml version="1.0" encoding="UTF-8" standalone="no"?>
<!DOCTYPE svg PUBLIC "-//W3C//DTD SVG 1.1//EN"
 "http://www.w3.org/Graphics/SVG/1.1/DTD/svg11.dtd">
<!-- Generated by graphviz version 2.43.0 (0)
 -->
<!-- Title: PrintElem2DTens Pages: 1 -->
<svg width="220pt" height="101pt"
 viewBox="0.00 0.00 220.00 101.00" xmlns="http://www.w3.org/2000/svg" xmlns:xlink="http://www.w3.org/1999/xlink">
<g id="graph0" class="graph" transform="scale(1 1) rotate(0) translate(4 97)">
<title>PrintElem2DTens</title>
<!-- Node1 -->
<g id="Node000001" class="node">
<title>Node1</title>
<g id="a_Node000001"><a xlink:title=" ">
<polygon fill="#999999" stroke="#666666" points="212,-56 113,-56 113,-37 212,-37 212,-56"/>
<text text-anchor="middle" x="162.5" y="-44" font-family="Helvetica,sans-Serif" font-size="10.00">PrintElem2DTens</text>
</a>
</g>
</g>
<!-- Node2 -->
<g id="Node000002" class="node">
<title>Node2</title>
<g id="a_Node000002"><a xlink:href="active__strain_8c.html#a8d29d9ab05757f681cfca55ef83ccf69" target="_top" xlink:title=" ">
<polygon fill="white" stroke="#666666" points="74,-93 3,-93 3,-74 74,-74 74,-93"/>
<text text-anchor="middle" x="38.5" y="-81" font-family="Helvetica,sans-Serif" font-size="10.00">PrintElemC</text>
</a>
</g>
</g>
<!-- Node1&#45;&gt;Node2 -->
<g id="edge1_Node000001_Node000002" class="edge">
<title>Node1&#45;&gt;Node2</title>
<g id="a_edge1_Node000001_Node000002"><a xlink:title=" ">
<path fill="none" stroke="#63b8ff" d="M120.4,-58.96C104.36,-63.83 86.25,-69.32 71.24,-73.88"/>
<polygon fill="#63b8ff" stroke="#63b8ff" points="121.53,-62.28 130.08,-56.03 119.5,-55.58 121.53,-62.28"/>
</a>
</g>
</g>
<!-- Node3 -->
<g id="Node000003" class="node">
<title>Node3</title>
<g id="a_Node000003"><a xlink:href="active__strain_8c.html#a3ca12ac6314d968e8bcbd55f107b66b1" target="_top" xlink:title=" ">
<polygon fill="white" stroke="#666666" points="77,-56 0,-56 0,-37 77,-37 77,-56"/>
<text text-anchor="middle" x="38.5" y="-44" font-family="Helvetica,sans-Serif" font-size="10.00">PrintElemCe</text>
</a>
</g>
</g>
<!-- Node1&#45;&gt;Node3 -->
<g id="edge2_Node000001_Node000003" class="edge">
<title>Node1&#45;&gt;Node3</title>
<g id="a_edge2_Node000001_Node000003"><a xlink:title=" ">
<path fill="none" stroke="#63b8ff" d="M102.84,-46.5C94.18,-46.5 85.46,-46.5 77.38,-46.5"/>
<polygon fill="#63b8ff" stroke="#63b8ff" points="102.93,-50 112.93,-46.5 102.93,-43 102.93,-50"/>
</a>
</g>
</g>
<!-- Node4 -->
<g id="Node000004" class="node">
<title>Node4</title>
<g id="a_Node000004"><a xlink:href="active__strain_8c.html#a51a8f8809aa55869215bcf99b40a0553" target="_top" xlink:title=" ">
<polygon fill="white" stroke="#666666" points="76.5,-19 0.5,-19 0.5,0 76.5,0 76.5,-19"/>
<text text-anchor="middle" x="38.5" y="-7" font-family="Helvetica,sans-Serif" font-size="10.00">PrintElemSe</text>
</a>
</g>
</g>
<!-- Node1&#45;&gt;Node4 -->
<g id="edge3_Node000001_Node000004" class="edge">
<title>Node1&#45;&gt;Node4</title>
<g id="a_edge3_Node000001_Node000004"><a xlink:title=" ">
<path fill="none" stroke="#63b8ff" d="M120.4,-34.04C104.36,-29.17 86.25,-23.68 71.24,-19.12"/>
<polygon fill="#63b8ff" stroke="#63b8ff" points="119.5,-37.42 130.08,-36.97 121.53,-30.72 119.5,-37.42"/>
</a>
</g>
</g>
</g>
</svg>
