<?xml version="1.0" encoding="UTF-8" standalone="no"?>
<!DOCTYPE svg PUBLIC "-//W3C//DTD SVG 1.1//EN"
 "http://www.w3.org/Graphics/SVG/1.1/DTD/svg11.dtd">
<!-- Generated by graphviz version 2.43.0 (0)
 -->
<!-- Title: ComputeMetricTensor Pages: 1 -->
<svg width="811pt" height="103pt"
 viewBox="0.00 0.00 811.00 103.00" xmlns="http://www.w3.org/2000/svg" xmlns:xlink="http://www.w3.org/1999/xlink">
<g id="graph0" class="graph" transform="scale(1 1) rotate(0) translate(4 99)">
<title>ComputeMetricTensor</title>
<!-- Node1 -->
<g id="Node000001" class="node">
<title>Node1</title>
<g id="a_Node000001"><a xlink:title=" ">
<polygon fill="#999999" stroke="#666666" points="803,-57 680,-57 680,-38 803,-38 803,-57"/>
<text text-anchor="middle" x="741.5" y="-45" font-family="Helvetica,sans-Serif" font-size="10.00">ComputeMetricTensor</text>
</a>
</g>
</g>
<!-- Node2 -->
<g id="Node000002" class="node">
<title>Node2</title>
<g id="a_Node000002"><a xlink:href="active__strain_8c.html#a993ef27fda81bb402cba4aa14fa9b51a" target="_top" xlink:title="Build current covariant/contravariant basis vectors for one element.">
<polygon fill="white" stroke="#666666" points="644,-57 560,-57 560,-38 644,-38 644,-57"/>
<text text-anchor="middle" x="602" y="-45" font-family="Helvetica,sans-Serif" font-size="10.00">ElemUpdateG</text>
</a>
</g>
</g>
<!-- Node1&#45;&gt;Node2 -->
<g id="edge1_Node000001_Node000002" class="edge">
<title>Node1&#45;&gt;Node2</title>
<g id="a_edge1_Node000001_Node000002"><a xlink:title=" ">
<path fill="none" stroke="#63b8ff" d="M669.55,-47.5C660.81,-47.5 652.12,-47.5 644.05,-47.5"/>
<polygon fill="#63b8ff" stroke="#63b8ff" points="669.79,-51 679.79,-47.5 669.79,-44 669.79,-51"/>
</a>
</g>
</g>
<!-- Node3 -->
<g id="Node000003" class="node">
<title>Node3</title>
<g id="a_Node000003"><a xlink:href="active__strain_8c.html#a693fb698122674ff7df6dd47ac75167c" target="_top" xlink:title="Run per&#45;element precomputations before global internal&#45;force assembly.">
<polygon fill="white" stroke="#666666" points="515,-95 418,-95 418,-76 515,-76 515,-95"/>
<text text-anchor="middle" x="466.5" y="-83" font-family="Helvetica,sans-Serif" font-size="10.00">FInternalPreCalc</text>
</a>
</g>
</g>
<!-- Node2&#45;&gt;Node3 -->
<g id="edge2_Node000002_Node000003" class="edge">
<title>Node2&#45;&gt;Node3</title>
<g id="a_edge2_Node000002_Node000003"><a xlink:title=" ">
<path fill="none" stroke="#63b8ff" d="M557.47,-59.89C539.19,-65.09 518.25,-71.05 501.18,-75.91"/>
<polygon fill="#63b8ff" stroke="#63b8ff" points="558.65,-63.19 567.31,-57.09 556.74,-56.46 558.65,-63.19"/>
</a>
</g>
</g>
<!-- Node7 -->
<g id="Node000007" class="node">
<title>Node7</title>
<g id="a_Node000007"><a xlink:href="cuda__processes_8c.html#a627a27228923fbc3e63f0f4e1c5aa765" target="_top" xlink:title=" ">
<polygon fill="white" stroke="#666666" points="186,-57 77,-57 77,-38 186,-38 186,-57"/>
<text text-anchor="middle" x="131.5" y="-45" font-family="Helvetica,sans-Serif" font-size="10.00">RunCudaProcesses</text>
</a>
</g>
</g>
<!-- Node2&#45;&gt;Node7 -->
<g id="edge6_Node000002_Node000007" class="edge">
<title>Node2&#45;&gt;Node7</title>
<g id="a_edge6_Node000002_Node000007"><a xlink:title=" ">
<path fill="none" stroke="#63b8ff" d="M549.68,-47.5C460.33,-47.5 277.09,-47.5 186.15,-47.5"/>
<polygon fill="#63b8ff" stroke="#63b8ff" points="549.83,-51 559.83,-47.5 549.83,-44 549.83,-51"/>
</a>
</g>
</g>
<!-- Node8 -->
<g id="Node000008" class="node">
<title>Node8</title>
<g id="a_Node000008"><a xlink:href="dmplex__geom_8c.html#aa2b24de348fff4079de659ff63ba9b85" target="_top" xlink:title="Synchronise remote coordinates and evaluate the geometry kernel for all local cells.">
<polygon fill="white" stroke="#666666" points="524,-19 409,-19 409,0 524,0 524,-19"/>
<text text-anchor="middle" x="466.5" y="-7" font-family="Helvetica,sans-Serif" font-size="10.00">RunLocalGeometry_</text>
</a>
</g>
</g>
<!-- Node2&#45;&gt;Node8 -->
<g id="edge8_Node000002_Node000008" class="edge">
<title>Node2&#45;&gt;Node8</title>
<g id="a_edge8_Node000002_Node000008"><a xlink:title=" ">
<path fill="none" stroke="#63b8ff" d="M557.47,-35.11C539.19,-29.91 518.25,-23.95 501.18,-19.09"/>
<polygon fill="#63b8ff" stroke="#63b8ff" points="556.74,-38.54 567.31,-37.91 558.65,-31.81 556.74,-38.54"/>
</a>
</g>
</g>
<!-- Node4 -->
<g id="Node000004" class="node">
<title>Node4</title>
<g id="a_Node000004"><a xlink:href="active__strain_8c.html#a3bac899c10052c346d2afe9eccbac71d" target="_top" xlink:title="Assemble global internal force vector for active&#45;strain mechanics.">
<polygon fill="white" stroke="#666666" points="335.5,-95 259.5,-95 259.5,-76 335.5,-76 335.5,-95"/>
<text text-anchor="middle" x="297.5" y="-83" font-family="Helvetica,sans-Serif" font-size="10.00">FInternalAct</text>
</a>
</g>
</g>
<!-- Node3&#45;&gt;Node4 -->
<g id="edge3_Node000003_Node000004" class="edge">
<title>Node3&#45;&gt;Node4</title>
<g id="a_edge3_Node000003_Node000004"><a xlink:title=" ">
<path fill="none" stroke="#63b8ff" d="M407.33,-85.5C383.57,-85.5 356.8,-85.5 335.75,-85.5"/>
<polygon fill="#63b8ff" stroke="#63b8ff" points="407.64,-89 417.64,-85.5 407.64,-82 407.64,-89"/>
</a>
</g>
</g>
<!-- Node5 -->
<g id="Node000005" class="node">
<title>Node5</title>
<g id="a_Node000005"><a xlink:href="main_8c.html#a9a070a6f408cadb404b0ee7fbc74c576" target="_top" xlink:title=" ">
<polygon fill="white" stroke="#666666" points="183.5,-94 79.5,-94 79.5,-75 183.5,-75 183.5,-94"/>
<text text-anchor="middle" x="131.5" y="-82" font-family="Helvetica,sans-Serif" font-size="10.00">FormFunctionFEM</text>
</a>
</g>
</g>
<!-- Node4&#45;&gt;Node5 -->
<g id="edge4_Node000004_Node000005" class="edge">
<title>Node4&#45;&gt;Node5</title>
<g id="a_edge4_Node000004_Node000005"><a xlink:title=" ">
<path fill="none" stroke="#63b8ff" d="M249.2,-85.21C228.65,-85.09 204.52,-84.94 183.55,-84.81"/>
<polygon fill="#63b8ff" stroke="#63b8ff" points="249.26,-88.71 259.29,-85.27 249.31,-81.71 249.26,-88.71"/>
</a>
</g>
</g>
<!-- Node6 -->
<g id="Node000006" class="node">
<title>Node6</title>
<g id="a_Node000006"><a xlink:href="main_8c.html#a3c04138a5bfe5d72780bb7e82a18e627" target="_top" xlink:title=" ">
<polygon fill="white" stroke="#666666" points="41,-57 0,-57 0,-38 41,-38 41,-57"/>
<text text-anchor="middle" x="20.5" y="-45" font-family="Helvetica,sans-Serif" font-size="10.00">main</text>
</a>
</g>
</g>
<!-- Node5&#45;&gt;Node6 -->
<g id="edge5_Node000005_Node000006" class="edge">
<title>Node5&#45;&gt;Node6</title>
<g id="a_edge5_Node000005_Node000006"><a xlink:title=" ">
<path fill="none" stroke="#63b8ff" d="M92.39,-71.7C87.22,-69.96 81.98,-68.19 77,-66.5 65.04,-62.44 51.65,-57.86 41.01,-54.21"/>
<polygon fill="#63b8ff" stroke="#63b8ff" points="91.58,-75.12 102.17,-75 93.81,-68.49 91.58,-75.12"/>
</a>
</g>
</g>
<!-- Node7&#45;&gt;Node6 -->
<g id="edge7_Node000007_Node000006" class="edge">
<title>Node7&#45;&gt;Node6</title>
<g id="a_edge7_Node000007_Node000006"><a xlink:title=" ">
<path fill="none" stroke="#63b8ff" d="M66.79,-47.5C57.49,-47.5 48.57,-47.5 41.14,-47.5"/>
<polygon fill="#63b8ff" stroke="#63b8ff" points="66.96,-51 76.96,-47.5 66.96,-44 66.96,-51"/>
</a>
</g>
</g>
<!-- Node9 -->
<g id="Node000009" class="node">
<title>Node9</title>
<g id="a_Node000009"><a xlink:href="dmplex__geom_8c.html#ac4ecb4d172bee5f7c59a9fdf2680bb51" target="_top" xlink:title="Benchmark: run the full distributed DMPlex geometry pipeline for all bodies.">
<polygon fill="white" stroke="#666666" points="373,-19 222,-19 222,0 373,0 373,-19"/>
<text text-anchor="middle" x="297.5" y="-7" font-family="Helvetica,sans-Serif" font-size="10.00">RunDMPlexGeomProcesses</text>
</a>
</g>
</g>
<!-- Node8&#45;&gt;Node9 -->
<g id="edge9_Node000008_Node000009" class="edge">
<title>Node8&#45;&gt;Node9</title>
<g id="a_edge9_Node000008_Node000009"><a xlink:title=" ">
<path fill="none" stroke="#63b8ff" d="M398.78,-9.5C390.32,-9.5 381.62,-9.5 373.04,-9.5"/>
<polygon fill="#63b8ff" stroke="#63b8ff" points="398.96,-13 408.96,-9.5 398.96,-6 398.96,-13"/>
</a>
</g>
</g>
<!-- Node9&#45;&gt;Node6 -->
<g id="edge10_Node000009_Node000006" class="edge">
<title>Node9&#45;&gt;Node6</title>
<g id="a_edge10_Node000009_Node000006"><a xlink:title=" ">
<path fill="none" stroke="#63b8ff" d="M211.69,-12.03C170.66,-14.47 120.9,-19.23 77,-28.5 64.84,-31.07 51.67,-35.5 41.21,-39.44"/>
<polygon fill="#63b8ff" stroke="#63b8ff" points="212.13,-15.51 221.92,-11.45 211.74,-8.52 212.13,-15.51"/>
</a>
</g>
</g>
</g>
</svg>
