<?xml version="1.0" encoding="UTF-8" standalone="no"?>
<!DOCTYPE svg PUBLIC "-//W3C//DTD SVG 1.1//EN"
 "http://www.w3.org/Graphics/SVG/1.1/DTD/svg11.dtd">
<!-- Generated by graphviz version 2.43.0 (0)
 -->
<!-- Title: ElemUpdateGeom0Subdiv Pages: 1 -->
<svg width="542pt" height="187pt"
 viewBox="0.00 0.00 542.00 187.00" xmlns="http://www.w3.org/2000/svg" xmlns:xlink="http://www.w3.org/1999/xlink">
<g id="graph0" class="graph" transform="scale(1 1) rotate(0) translate(4 183)">
<title>ElemUpdateGeom0Subdiv</title>
<!-- Node1 -->
<g id="Node000001" class="node">
<title>Node1</title>
<g id="a_Node000001"><a xlink:title="Update reference midsurface geometry cache for one element.">
<polygon fill="#999999" stroke="#666666" points="145,-105 0,-105 0,-86 145,-86 145,-105"/>
<text text-anchor="middle" x="72.5" y="-93" font-family="Helvetica,sans-Serif" font-size="10.00">ElemUpdateGeom0Subdiv</text>
</a>
</g>
</g>
<!-- Node2 -->
<g id="Node000002" class="node">
<title>Node2</title>
<g id="a_Node000002"><a xlink:href="active__strain_8c.html#a9ef026a24ded6fec7243fd82f49394c3" target="_top" xlink:title=" ">
<polygon fill="white" stroke="#666666" points="345,-110.5 181,-110.5 181,-80.5 345,-80.5 345,-110.5"/>
<text text-anchor="start" x="189" y="-98.5" font-family="Helvetica,sans-Serif" font-size="10.00">ElemUpdateGeomSubdivFrom</text>
<text text-anchor="middle" x="263" y="-87.5" font-family="Helvetica,sans-Serif" font-size="10.00">Coords_</text>
</a>
</g>
</g>
<!-- Node1&#45;&gt;Node2 -->
<g id="edge1_Node000001_Node000002" class="edge">
<title>Node1&#45;&gt;Node2</title>
<g id="a_edge1_Node000001_Node000002"><a xlink:title=" ">
<path fill="none" stroke="#63b8ff" d="M145.03,-95.5C153.42,-95.5 162.06,-95.5 170.66,-95.5"/>
<polygon fill="#63b8ff" stroke="#63b8ff" points="170.73,-99 180.73,-95.5 170.73,-92 170.73,-99"/>
</a>
</g>
</g>
<!-- Node3 -->
<g id="Node000003" class="node">
<title>Node3</title>
<g id="a_Node000003"><a xlink:href="math_8c.html#a7ef9263b0a3a10c2cd00bb4dc0059d70" target="_top" xlink:title=" ">
<polygon fill="white" stroke="#666666" points="482.5,-179 432.5,-179 432.5,-160 482.5,-160 482.5,-179"/>
<text text-anchor="middle" x="457.5" y="-167" font-family="Helvetica,sans-Serif" font-size="10.00">AMULT</text>
</a>
</g>
</g>
<!-- Node2&#45;&gt;Node3 -->
<g id="edge2_Node000002_Node000003" class="edge">
<title>Node2&#45;&gt;Node3</title>
<g id="a_edge2_Node000002_Node000003"><a xlink:title=" ">
<path fill="none" stroke="#63b8ff" d="M291.19,-110.55C314.46,-122.94 349.16,-140.23 381,-151.5 394.23,-156.18 409.19,-160.04 422.29,-162.96"/>
<polygon fill="#63b8ff" stroke="#63b8ff" points="421.81,-166.43 432.32,-165.1 423.27,-159.59 421.81,-166.43"/>
</a>
</g>
</g>
<!-- Node4 -->
<g id="Node000004" class="node">
<title>Node4</title>
<g id="a_Node000004"><a xlink:href="math_8c.html#a9d60990d26296194c921d537ea26f3c7" target="_top" xlink:title=" ">
<polygon fill="white" stroke="#666666" points="482.5,-142 432.5,-142 432.5,-123 482.5,-123 482.5,-142"/>
<text text-anchor="middle" x="457.5" y="-130" font-family="Helvetica,sans-Serif" font-size="10.00">CROSS</text>
</a>
</g>
</g>
<!-- Node2&#45;&gt;Node4 -->
<g id="edge3_Node000002_Node000004" class="edge">
<title>Node2&#45;&gt;Node4</title>
<g id="a_edge3_Node000002_Node000004"><a xlink:title=" ">
<path fill="none" stroke="#63b8ff" d="M342.3,-110.55C370.15,-115.9 400.09,-121.66 422.32,-125.93"/>
<polygon fill="#63b8ff" stroke="#63b8ff" points="421.79,-129.39 432.27,-127.84 423.11,-122.52 421.79,-129.39"/>
</a>
</g>
</g>
<!-- Node5 -->
<g id="Node000005" class="node">
<title>Node5</title>
<g id="a_Node000005"><a xlink:href="math_8c.html#a870a70f4845a041458d9bdb0dd7aabd3" target="_top" xlink:title=" ">
<polygon fill="white" stroke="#666666" points="476.5,-105 438.5,-105 438.5,-86 476.5,-86 476.5,-105"/>
<text text-anchor="middle" x="457.5" y="-93" font-family="Helvetica,sans-Serif" font-size="10.00">DOT</text>
</a>
</g>
</g>
<!-- Node2&#45;&gt;Node5 -->
<g id="edge4_Node000002_Node000005" class="edge">
<title>Node2&#45;&gt;Node5</title>
<g id="a_edge4_Node000002_Node000005"><a xlink:title=" ">
<path fill="none" stroke="#63b8ff" d="M345.08,-95.5C374.61,-95.5 406.1,-95.5 428.04,-95.5"/>
<polygon fill="#63b8ff" stroke="#63b8ff" points="428.29,-99 438.29,-95.5 428.29,-92 428.29,-99"/>
</a>
</g>
</g>
<!-- Node6 -->
<g id="Node000006" class="node">
<title>Node6</title>
<g id="a_Node000006"><a xlink:href="active__strain_8c.html#af8eb71852e7e9e1290f27656e66736fe" target="_top" xlink:title=" ">
<polygon fill="white" stroke="#666666" points="534,-67.5 381,-67.5 381,-37.5 534,-37.5 534,-67.5"/>
<text text-anchor="start" x="389" y="-55.5" font-family="Helvetica,sans-Serif" font-size="10.00">SubdivGeomEnsureIrregular</text>
<text text-anchor="middle" x="457.5" y="-44.5" font-family="Helvetica,sans-Serif" font-size="10.00">Arrays_</text>
</a>
</g>
</g>
<!-- Node2&#45;&gt;Node6 -->
<g id="edge5_Node000002_Node000006" class="edge">
<title>Node2&#45;&gt;Node6</title>
<g id="a_edge5_Node000002_Node000006"><a xlink:title=" ">
<path fill="none" stroke="#63b8ff" d="M331.33,-80.46C346.86,-76.99 363.5,-73.27 379.41,-69.72"/>
<polygon fill="#63b8ff" stroke="#63b8ff" points="380.21,-73.13 389.21,-67.53 378.69,-66.3 380.21,-73.13"/>
</a>
</g>
</g>
<!-- Node7 -->
<g id="Node000007" class="node">
<title>Node7</title>
<g id="a_Node000007"><a xlink:href="math_8c.html#ac616709995f2ae60c4308ffa328337d7" target="_top" xlink:title=" ">
<polygon fill="white" stroke="#666666" points="478,-19 437,-19 437,0 478,0 478,-19"/>
<text text-anchor="middle" x="457.5" y="-7" font-family="Helvetica,sans-Serif" font-size="10.00">UNIT</text>
</a>
</g>
</g>
<!-- Node2&#45;&gt;Node7 -->
<g id="edge6_Node000002_Node000007" class="edge">
<title>Node2&#45;&gt;Node7</title>
<g id="a_edge6_Node000002_Node000007"><a xlink:title=" ">
<path fill="none" stroke="#63b8ff" d="M285.94,-80.49C308.78,-65.46 346.05,-42.59 381,-28.5 395.58,-22.62 412.51,-18.16 426.63,-15.04"/>
<polygon fill="#63b8ff" stroke="#63b8ff" points="427.72,-18.39 436.8,-12.92 426.29,-11.54 427.72,-18.39"/>
</a>
</g>
</g>
</g>
</svg>
