<?xml version="1.0" encoding="UTF-8" standalone="no"?>
<!DOCTYPE svg PUBLIC "-//W3C//DTD SVG 1.1//EN"
 "http://www.w3.org/Graphics/SVG/1.1/DTD/svg11.dtd">
<!-- Generated by graphviz version 2.43.0 (0)
 -->
<!-- Title: active_strain.c Pages: 1 -->
<!--zoomable 313 -->

<svg id="main" version="1.1" xmlns="http://www.w3.org/2000/svg" xmlns:xlink="http://www.w3.org/1999/xlink" xml:space="preserve" onload="init(evt)">
<style type="text/css"><![CDATA[
.node, .edge {opacity: 0.7;}
.node.selected, .edge.selected {opacity: 1;}
.edge:hover path { stroke: red; }
.edge:hover polygon { stroke: red; fill: red; }
]]></style>

<defs>
  <circle id="rim" cx="0" cy="0" r="7"/>
  <circle id="rim2" cx="0" cy="0" r="3.5"/>
  <g id="zoomPlus">
    <use xlink:href="#rim" fill="#404040"><set attributeName="fill" to="#808080" begin="zoomplus.mouseover" end="zoomplus.mouseout"/></use>
    <path d="M-4,0h8M0,-4v8" fill="none" stroke="white" stroke-width="1.5" pointer-events="none"/>
  </g>
  <g id="zoomMin">
    <use xlink:href="#rim" fill="#404040"><set attributeName="fill" to="#808080" begin="zoomminus.mouseover" end="zoomminus.mouseout"/></use>
    <path d="M-4,0h8" fill="none" stroke="white" stroke-width="1.5" pointer-events="none"/>
  </g>
  <g id="arrowUp" transform="translate(30 24)">
    <use xlink:href="#rim"/>
    <path pointer-events="none" fill="none" stroke="white" stroke-width="1.5" d="M0,-3.0v7 M-2.5,-0.5L0,-3.0L2.5,-0.5"/>
  </g>
  <g id="arrowRight" transform="rotate(90) translate(36 -43)">
    <use xlink:href="#rim"/>
    <path pointer-events="none" fill="none" stroke="white" stroke-width="1.5" d="M0,-3.0v7 M-2.5,-0.5L0,-3.0L2.5,-0.5"/>
  </g>
  <g id="arrowDown" transform="rotate(180) translate(-30 -48)">
    <use xlink:href="#rim"/>
    <path pointer-events="none" fill="none" stroke="white" stroke-width="1.5" d="M0,-3.0v7 M-2.5,-0.5L0,-3.0L2.5,-0.5"/>
  </g>
  <g id="arrowLeft" transform="rotate(270) translate(-36 17)">
    <use xlink:href="#rim"/>
    <path pointer-events="none" fill="none" stroke="white" stroke-width="1.5" d="M0,-3.0v7 M-2.5,-0.5L0,-3.0L2.5,-0.5"/>
  </g>
  <g id="resetDef">
    <use xlink:href="#rim2" fill="#404040"><set attributeName="fill" to="#808080" begin="reset.mouseover" end="reset.mouseout"/></use>
  </g>
</defs>
<script type="application/ecmascript">
var viewWidth = 859;
var viewHeight = 313;
var sectionId = 'dynsection-0';
</script>
<script type="application/ecmascript" xlink:href="svg.min.js"/>
<svg id="graph" class="graph">
<g id="viewport">
<title>active_strain.c</title>
<!-- Node1 -->
<g id="Node000001" class="node">
<title>Node1</title>
<g id="a_Node000001"><a xlink:title="Implementation of muscle activation on shell elements using the active&#45;strain approach.">
<polygon fill="#999999" stroke="#666666" points="483.96,-305 395.96,-305 395.96,-286 483.96,-286 483.96,-305"/>
<text text-anchor="middle" x="439.96" y="-293" font-family="Helvetica,sans-Serif" font-size="10.00">active_strain.c</text>
</a>
</g>
</g>
<!-- Node2 -->
<g id="Node000002" class="node">
<title>Node2</title>
<g id="a_Node000002"><a xlink:href="math_8h.html" target="_top" xlink:title=" ">
<polygon fill="white" stroke="#666666" points="246.46,-74 195.46,-74 195.46,-55 246.46,-55 246.46,-74"/>
<text text-anchor="middle" x="220.96" y="-62" font-family="Helvetica,sans-Serif" font-size="10.00">math.h</text>
</a>
</g>
</g>
<!-- Node1&#45;&gt;Node2 -->
<g id="edge1_Node000001_Node000002" class="edge">
<title>Node1&#45;&gt;Node2</title>
<g id="a_edge1_Node000001_Node000002"><a xlink:title=" ">
<path fill="none" stroke="#63b8ff" d="M395.71,-293.15C292.01,-289.54 40.13,-277.94 14.96,-250 -49.33,-178.62 112.72,-106.11 186.57,-77.84"/>
<polygon fill="#63b8ff" stroke="#63b8ff" points="188.25,-80.95 196.38,-74.15 185.79,-74.4 188.25,-80.95"/>
</a>
</g>
</g>
<!-- Node3 -->
<g id="Node000003" class="node">
<title>Node3</title>
<g id="a_Node000003"><a xlink:title=" ">
<polygon fill="#e0e0e0" stroke="#999999" points="370.96,-19 302.96,-19 302.96,0 370.96,0 370.96,-19"/>
<text text-anchor="middle" x="336.96" y="-7" font-family="Helvetica,sans-Serif" font-size="10.00">petscsys.h</text>
</a>
</g>
</g>
<!-- Node1&#45;&gt;Node3 -->
<g id="edge22_Node000001_Node000003" class="edge">
<title>Node1&#45;&gt;Node3</title>
<g id="a_edge22_Node000001_Node000003"><a xlink:title=" ">
<path fill="none" stroke="#63b8ff" d="M484.24,-293.49C519.48,-290.29 567.61,-280.14 596.96,-250 620.8,-225.52 615.96,-209.67 615.96,-175.5 615.96,-175.5 615.96,-175.5 615.96,-118.5 615.96,-83.39 598.68,-73.7 568.96,-55 511.27,-18.71 430.72,-10.78 381.3,-9.69"/>
<polygon fill="#63b8ff" stroke="#63b8ff" points="381.29,-6.19 371.24,-9.55 381.19,-13.19 381.29,-6.19"/>
</a>
</g>
</g>
<!-- Node4 -->
<g id="Node000004" class="node">
<title>Node4</title>
<g id="a_Node000004"><a xlink:title=" ">
<polygon fill="#e0e0e0" stroke="#999999" points="195.96,-244.5 127.96,-244.5 127.96,-225.5 195.96,-225.5 195.96,-244.5"/>
<text text-anchor="middle" x="161.96" y="-232.5" font-family="Helvetica,sans-Serif" font-size="10.00">petsctao.h</text>
</a>
</g>
</g>
<!-- Node1&#45;&gt;Node4 -->
<g id="edge4_Node000001_Node000004" class="edge">
<title>Node1&#45;&gt;Node4</title>
<g id="a_edge4_Node000001_Node000004"><a xlink:title=" ">
<path fill="none" stroke="#63b8ff" d="M395.85,-287.87C348.34,-280.33 270.73,-266.86 204.96,-250 202.01,-249.24 198.97,-248.4 195.94,-247.5"/>
<polygon fill="#63b8ff" stroke="#63b8ff" points="196.95,-244.15 186.36,-244.54 194.88,-250.84 196.95,-244.15"/>
</a>
</g>
</g>
<!-- Node5 -->
<g id="Node000005" class="node">
<title>Node5</title>
<g id="a_Node000005"><a xlink:title=" ">
<polygon fill="#e0e0e0" stroke="#999999" points="297.96,-244.5 213.96,-244.5 213.96,-225.5 297.96,-225.5 297.96,-244.5"/>
<text text-anchor="middle" x="255.96" y="-232.5" font-family="Helvetica,sans-Serif" font-size="10.00">petscviewer.h</text>
</a>
</g>
</g>
<!-- Node1&#45;&gt;Node5 -->
<g id="edge5_Node000001_Node000005" class="edge">
<title>Node1&#45;&gt;Node5</title>
<g id="a_edge5_Node000001_Node000005"><a xlink:title=" ">
<path fill="none" stroke="#63b8ff" d="M413.21,-285.99C381.32,-275.86 327.89,-258.87 292.29,-247.55"/>
<polygon fill="#63b8ff" stroke="#63b8ff" points="293.34,-244.21 282.75,-244.52 291.22,-250.88 293.34,-244.21"/>
</a>
</g>
</g>
<!-- Node6 -->
<g id="Node000006" class="node">
<title>Node6</title>
<g id="a_Node000006"><a xlink:href="variables_8h.html" target="_top" xlink:title=" ">
<polygon fill="white" stroke="#666666" points="399.46,-184 328.46,-184 328.46,-165 399.46,-165 399.46,-184"/>
<text text-anchor="middle" x="363.96" y="-172" font-family="Helvetica,sans-Serif" font-size="10.00">variables.h</text>
</a>
</g>
</g>
<!-- Node1&#45;&gt;Node6 -->
<g id="edge6_Node000001_Node000006" class="edge">
<title>Node1&#45;&gt;Node6</title>
<g id="a_edge6_Node000001_Node000006"><a xlink:title=" ">
<path fill="none" stroke="#63b8ff" d="M439.56,-285.97C438.5,-271.34 434.69,-241.01 420.96,-220 412.89,-207.64 400.21,-197.25 388.85,-189.62"/>
<polygon fill="#63b8ff" stroke="#63b8ff" points="390.47,-186.51 380.15,-184.12 386.73,-192.42 390.47,-186.51"/>
</a>
</g>
</g>
<!-- Node13 -->
<g id="Node000013" class="node">
<title>Node13</title>
<g id="a_Node000013"><a xlink:href="manufactured__active__strain_8h.html" target="_top" xlink:title=" ">
<polygon fill="white" stroke="#666666" points="587.96,-250 467.96,-250 467.96,-220 587.96,-220 587.96,-250"/>
<text text-anchor="start" x="475.96" y="-238" font-family="Helvetica,sans-Serif" font-size="10.00">manufactured_active</text>
<text text-anchor="middle" x="527.96" y="-227" font-family="Helvetica,sans-Serif" font-size="10.00">_strain.h</text>
</a>
</g>
</g>
<!-- Node1&#45;&gt;Node13 -->
<g id="edge16_Node000001_Node000013" class="edge">
<title>Node1&#45;&gt;Node13</title>
<g id="a_edge16_Node000001_Node000013"><a xlink:title=" ">
<path fill="none" stroke="#63b8ff" d="M452.95,-285.87C464.78,-278 482.69,-266.09 498.05,-255.89"/>
<polygon fill="#63b8ff" stroke="#63b8ff" points="500.34,-258.57 506.73,-250.11 496.46,-252.74 500.34,-258.57"/>
</a>
</g>
</g>
<!-- Node14 -->
<g id="Node000014" class="node">
<title>Node14</title>
<g id="a_Node000014"><a xlink:href="cuda__bridge_8h.html" target="_top" xlink:title=" ">
<polygon fill="white" stroke="#666666" points="109.46,-244.5 24.46,-244.5 24.46,-225.5 109.46,-225.5 109.46,-244.5"/>
<text text-anchor="middle" x="66.96" y="-232.5" font-family="Helvetica,sans-Serif" font-size="10.00">cuda_bridge.h</text>
</a>
</g>
</g>
<!-- Node1&#45;&gt;Node14 -->
<g id="edge18_Node000001_Node000014" class="edge">
<title>Node1&#45;&gt;Node14</title>
<g id="a_edge18_Node000001_Node000014"><a xlink:title=" ">
<path fill="none" stroke="#63b8ff" d="M395.79,-290.15C333.63,-283.62 216.97,-269.9 118.96,-250 114.79,-249.15 110.45,-248.16 106.14,-247.11"/>
<polygon fill="#63b8ff" stroke="#63b8ff" points="106.79,-243.66 96.23,-244.57 105.05,-250.44 106.79,-243.66"/>
</a>
</g>
</g>
<!-- Node15 -->
<g id="Node000015" class="node">
<title>Node15</title>
<g id="a_Node000015"><a xlink:href="dmplex__geom_8h.html" target="_top" xlink:title=" ">
<polygon fill="white" stroke="#666666" points="411.46,-244.5 316.46,-244.5 316.46,-225.5 411.46,-225.5 411.46,-244.5"/>
<text text-anchor="middle" x="363.96" y="-232.5" font-family="Helvetica,sans-Serif" font-size="10.00">dmplex_geom.h</text>
</a>
</g>
</g>
<!-- Node1&#45;&gt;Node15 -->
<g id="edge20_Node000001_Node000015" class="edge">
<title>Node1&#45;&gt;Node15</title>
<g id="a_edge20_Node000001_Node000015"><a xlink:title=" ">
<path fill="none" stroke="#63b8ff" d="M428.75,-285.87C416.85,-276.71 397.82,-262.06 383.46,-251.01"/>
<polygon fill="#63b8ff" stroke="#63b8ff" points="385.28,-247.99 375.22,-244.67 381.01,-253.54 385.28,-247.99"/>
</a>
</g>
</g>
<!-- Node16 -->
<g id="Node000016" class="node">
<title>Node16</title>
<g id="a_Node000016"><a xlink:title=" ">
<polygon fill="#e0e0e0" stroke="#999999" points="697.46,-244.5 644.46,-244.5 644.46,-225.5 697.46,-225.5 697.46,-244.5"/>
<text text-anchor="middle" x="670.96" y="-232.5" font-family="Helvetica,sans-Serif" font-size="10.00">stdlib.h</text>
</a>
</g>
</g>
<!-- Node1&#45;&gt;Node16 -->
<g id="edge23_Node000001_Node000016" class="edge">
<title>Node1&#45;&gt;Node16</title>
<g id="a_edge23_Node000001_Node000016"><a xlink:title=" ">
<path fill="none" stroke="#63b8ff" d="M481.78,-285.95C520.48,-277.75 579.49,-264.49 629.96,-250 632.43,-249.29 634.97,-248.52 637.51,-247.72"/>
<polygon fill="#63b8ff" stroke="#63b8ff" points="638.82,-250.98 647.24,-244.55 636.65,-244.32 638.82,-250.98"/>
</a>
</g>
</g>
<!-- Node17 -->
<g id="Node000017" class="node">
<title>Node17</title>
<g id="a_Node000017"><a xlink:title=" ">
<polygon fill="#e0e0e0" stroke="#999999" points="768.46,-244.5 715.46,-244.5 715.46,-225.5 768.46,-225.5 768.46,-244.5"/>
<text text-anchor="middle" x="741.96" y="-232.5" font-family="Helvetica,sans-Serif" font-size="10.00">string.h</text>
</a>
</g>
</g>
<!-- Node1&#45;&gt;Node17 -->
<g id="edge24_Node000001_Node000017" class="edge">
<title>Node1&#45;&gt;Node17</title>
<g id="a_edge24_Node000001_Node000017"><a xlink:title=" ">
<path fill="none" stroke="#63b8ff" d="M484.07,-290.1C537.53,-284.09 630.03,-271.53 706.96,-250 708.9,-249.46 710.88,-248.84 712.86,-248.18"/>
<polygon fill="#63b8ff" stroke="#63b8ff" points="714.42,-251.34 722.6,-244.61 712,-244.77 714.42,-251.34"/>
</a>
</g>
</g>
<!-- Node18 -->
<g id="Node000018" class="node">
<title>Node18</title>
<g id="a_Node000018"><a xlink:title=" ">
<polygon fill="#e0e0e0" stroke="#999999" points="850.96,-244.5 786.96,-244.5 786.96,-225.5 850.96,-225.5 850.96,-244.5"/>
<text text-anchor="middle" x="818.96" y="-232.5" font-family="Helvetica,sans-Serif" font-size="10.00">sys/stat.h</text>
</a>
</g>
</g>
<!-- Node1&#45;&gt;Node18 -->
<g id="edge25_Node000001_Node000018" class="edge">
<title>Node1&#45;&gt;Node18</title>
<g id="a_edge25_Node000001_Node000018"><a xlink:title=" ">
<path fill="none" stroke="#63b8ff" d="M484.22,-291.48C549.27,-286.42 674.23,-274.29 777.96,-250 780.94,-249.3 784.01,-248.47 787.06,-247.57"/>
<polygon fill="#63b8ff" stroke="#63b8ff" points="788.18,-250.89 796.64,-244.52 786.05,-244.22 788.18,-250.89"/>
</a>
</g>
</g>
<!-- Node2&#45;&gt;Node2 -->
<g id="edge2_Node000002_Node000002" class="edge">
<title>Node2&#45;&gt;Node2</title>
<g id="a_edge2_Node000002_Node000002"><a xlink:title=" ">
<path fill="none" stroke="#63b8ff" d="M241.55,-74.07C253.41,-76.02 264.46,-72.83 264.46,-64.5 264.46,-58.64 259,-55.33 251.63,-54.55"/>
<polygon fill="#63b8ff" stroke="#63b8ff" points="251.41,-51.06 241.55,-54.93 251.67,-58.05 251.41,-51.06"/>
</a>
</g>
</g>
<!-- Node2&#45;&gt;Node3 -->
<g id="edge3_Node000002_Node000003" class="edge">
<title>Node2&#45;&gt;Node3</title>
<g id="a_edge3_Node000002_Node000003"><a xlink:title=" ">
<path fill="none" stroke="#63b8ff" d="M239.6,-54.98C258.26,-46.46 287.21,-33.23 308.7,-23.41"/>
<polygon fill="#63b8ff" stroke="#63b8ff" points="310.34,-26.51 317.99,-19.17 307.43,-20.14 310.34,-26.51"/>
</a>
</g>
</g>
<!-- Node6&#45;&gt;Node2 -->
<g id="edge8_Node000006_Node000002" class="edge">
<title>Node6&#45;&gt;Node2</title>
<g id="a_edge8_Node000006_Node000002"><a xlink:title=" ">
<path fill="none" stroke="#63b8ff" d="M328.4,-169.22C283.77,-163.03 211.12,-149.97 194.96,-129 184,-114.78 194.96,-95.29 205.82,-81.67"/>
<polygon fill="#63b8ff" stroke="#63b8ff" points="208.52,-83.91 212.38,-74.05 203.21,-79.35 208.52,-83.91"/>
</a>
</g>
</g>
<!-- Node7 -->
<g id="Node000007" class="node">
<title>Node7</title>
<g id="a_Node000007"><a xlink:title=" ">
<polygon fill="#e0e0e0" stroke="#999999" points="587.96,-129 513.96,-129 513.96,-110 587.96,-110 587.96,-129"/>
<text text-anchor="middle" x="550.96" y="-117" font-family="Helvetica,sans-Serif" font-size="10.00">petscsnes.h</text>
</a>
</g>
</g>
<!-- Node6&#45;&gt;Node7 -->
<g id="edge7_Node000006_Node000007" class="edge">
<title>Node6&#45;&gt;Node7</title>
<g id="a_edge7_Node000006_Node000007"><a xlink:title=" ">
<path fill="none" stroke="#63b8ff" d="M394.01,-164.98C425.67,-156.01 475.73,-141.82 510.77,-131.89"/>
<polygon fill="#63b8ff" stroke="#63b8ff" points="512.01,-135.18 520.68,-129.08 510.11,-128.44 512.01,-135.18"/>
</a>
</g>
</g>
<!-- Node8 -->
<g id="Node000008" class="node">
<title>Node8</title>
<g id="a_Node000008"><a xlink:title=" ">
<polygon fill="#e0e0e0" stroke="#999999" points="273.46,-129 204.46,-129 204.46,-110 273.46,-110 273.46,-129"/>
<text text-anchor="middle" x="238.96" y="-117" font-family="Helvetica,sans-Serif" font-size="10.00">petscvec.h</text>
</a>
</g>
</g>
<!-- Node6&#45;&gt;Node8 -->
<g id="edge9_Node000006_Node000008" class="edge">
<title>Node6&#45;&gt;Node8</title>
<g id="a_edge9_Node000006_Node000008"><a xlink:title=" ">
<path fill="none" stroke="#63b8ff" d="M343.88,-164.98C323.59,-156.38 292.01,-142.99 268.79,-133.15"/>
<polygon fill="#63b8ff" stroke="#63b8ff" points="269.98,-129.85 259.41,-129.17 267.25,-136.3 269.98,-129.85"/>
</a>
</g>
</g>
<!-- Node9 -->
<g id="Node000009" class="node">
<title>Node9</title>
<g id="a_Node000009"><a xlink:href="act__variables_8h.html" target="_top" xlink:title="Data containers for active&#45;strain kinematics, stress, and material data.">
<polygon fill="white" stroke="#666666" points="382.46,-129 291.46,-129 291.46,-110 382.46,-110 382.46,-129"/>
<text text-anchor="middle" x="336.96" y="-117" font-family="Helvetica,sans-Serif" font-size="10.00">act_variables.h</text>
</a>
</g>
</g>
<!-- Node6&#45;&gt;Node9 -->
<g id="edge10_Node000006_Node000009" class="edge">
<title>Node6&#45;&gt;Node9</title>
<g id="a_edge10_Node000006_Node000009"><a xlink:title=" ">
<path fill="none" stroke="#63b8ff" d="M359.5,-164.75C355.85,-157.57 350.55,-147.18 346.01,-138.27"/>
<polygon fill="#63b8ff" stroke="#63b8ff" points="349,-136.41 341.34,-129.09 342.76,-139.59 349,-136.41"/>
</a>
</g>
</g>
<!-- Node10 -->
<g id="Node000010" class="node">
<title>Node10</title>
<g id="a_Node000010"><a xlink:href="dmplex__types_8h.html" target="_top" xlink:title="Persistent DMPlex geometry context for Loop subdivision surfaces.">
<polygon fill="white" stroke="#666666" points="495.46,-129 400.46,-129 400.46,-110 495.46,-110 495.46,-129"/>
<text text-anchor="middle" x="447.96" y="-117" font-family="Helvetica,sans-Serif" font-size="10.00">dmplex_types.h</text>
</a>
</g>
</g>
<!-- Node6&#45;&gt;Node10 -->
<g id="edge13_Node000006_Node000010" class="edge">
<title>Node6&#45;&gt;Node10</title>
<g id="a_edge13_Node000006_Node000010"><a xlink:title=" ">
<path fill="none" stroke="#63b8ff" d="M377.46,-164.98C390.36,-156.84 410.06,-144.41 425.36,-134.76"/>
<polygon fill="#63b8ff" stroke="#63b8ff" points="427.63,-137.47 434.22,-129.17 423.9,-131.55 427.63,-137.47"/>
</a>
</g>
</g>
<!-- Node9&#45;&gt;Node2 -->
<g id="edge12_Node000009_Node000002" class="edge">
<title>Node9&#45;&gt;Node2</title>
<g id="a_edge12_Node000009_Node000002"><a xlink:title=" ">
<path fill="none" stroke="#63b8ff" d="M318.32,-109.98C299.66,-101.46 270.71,-88.23 249.22,-78.41"/>
<polygon fill="#63b8ff" stroke="#63b8ff" points="250.49,-75.14 239.94,-74.17 247.58,-81.51 250.49,-75.14"/>
</a>
</g>
</g>
<!-- Node9&#45;&gt;Node3 -->
<g id="edge11_Node000009_Node000003" class="edge">
<title>Node9&#45;&gt;Node3</title>
<g id="a_edge11_Node000009_Node000003"><a xlink:title=" ">
<path fill="none" stroke="#63b8ff" d="M336.96,-109.66C336.96,-92.17 336.96,-52.8 336.96,-29.27"/>
<polygon fill="#63b8ff" stroke="#63b8ff" points="340.46,-29.16 336.96,-19.16 333.46,-29.16 340.46,-29.16"/>
</a>
</g>
</g>
<!-- Node11 -->
<g id="Node000011" class="node">
<title>Node11</title>
<g id="a_Node000011"><a xlink:title=" ">
<polygon fill="#e0e0e0" stroke="#999999" points="559.46,-74 470.46,-74 470.46,-55 559.46,-55 559.46,-74"/>
<text text-anchor="middle" x="514.96" y="-62" font-family="Helvetica,sans-Serif" font-size="10.00">petscdmplex.h</text>
</a>
</g>
</g>
<!-- Node10&#45;&gt;Node11 -->
<g id="edge14_Node000010_Node000011" class="edge">
<title>Node10&#45;&gt;Node11</title>
<g id="a_edge14_Node000010_Node000011"><a xlink:title=" ">
<path fill="none" stroke="#63b8ff" d="M458.73,-109.98C468.73,-102.07 483.85,-90.11 495.89,-80.58"/>
<polygon fill="#63b8ff" stroke="#63b8ff" points="498.33,-83.12 504,-74.17 493.99,-77.63 498.33,-83.12"/>
</a>
</g>
</g>
<!-- Node12 -->
<g id="Node000012" class="node">
<title>Node12</title>
<g id="a_Node000012"><a xlink:title=" ">
<polygon fill="#e0e0e0" stroke="#999999" points="451.96,-74 391.96,-74 391.96,-55 451.96,-55 451.96,-74"/>
<text text-anchor="middle" x="421.96" y="-62" font-family="Helvetica,sans-Serif" font-size="10.00">petscsf.h</text>
</a>
</g>
</g>
<!-- Node10&#45;&gt;Node12 -->
<g id="edge15_Node000010_Node000012" class="edge">
<title>Node10&#45;&gt;Node12</title>
<g id="a_edge15_Node000010_Node000012"><a xlink:title=" ">
<path fill="none" stroke="#63b8ff" d="M443.67,-109.75C440.15,-102.57 435.05,-92.18 430.68,-83.27"/>
<polygon fill="#63b8ff" stroke="#63b8ff" points="433.72,-81.53 426.18,-74.09 427.44,-84.61 433.72,-81.53"/>
</a>
</g>
</g>
<!-- Node13&#45;&gt;Node6 -->
<g id="edge17_Node000013_Node000006" class="edge">
<title>Node13&#45;&gt;Node6</title>
<g id="a_edge17_Node000013_Node000006"><a xlink:title=" ">
<path fill="none" stroke="#63b8ff" d="M488.68,-219.99C460.95,-210.1 424.18,-196.98 397.76,-187.56"/>
<polygon fill="#63b8ff" stroke="#63b8ff" points="398.78,-184.2 388.18,-184.14 396.42,-190.8 398.78,-184.2"/>
</a>
</g>
</g>
<!-- Node14&#45;&gt;Node6 -->
<g id="edge19_Node000014_Node000006" class="edge">
<title>Node14&#45;&gt;Node6</title>
<g id="a_edge19_Node000014_Node000006"><a xlink:title=" ">
<path fill="none" stroke="#63b8ff" d="M97.1,-225.43C104.24,-223.53 111.85,-221.6 118.96,-220 187.87,-204.49 268.61,-190.66 318.02,-182.67"/>
<polygon fill="#63b8ff" stroke="#63b8ff" points="318.75,-186.1 328.07,-181.06 317.64,-179.19 318.75,-186.1"/>
</a>
</g>
</g>
<!-- Node15&#45;&gt;Node6 -->
<g id="edge21_Node000015_Node000006" class="edge">
<title>Node15&#45;&gt;Node6</title>
<g id="a_edge21_Node000015_Node000006"><a xlink:title=" ">
<path fill="none" stroke="#63b8ff" d="M363.96,-225.37C363.96,-217.25 363.96,-204.81 363.96,-194.39"/>
<polygon fill="#63b8ff" stroke="#63b8ff" points="367.46,-194.17 363.96,-184.17 360.46,-194.17 367.46,-194.17"/>
</a>
</g>
</g>
</g>
</svg>

<g id="navigator" transform="translate(0 0)" fill="#404254">
  <rect fill="#f2f5e9" fill-opacity="0.5" stroke="#606060" stroke-width=".5" x="0" y="0" width="60" height="60"/>
  <use id="zoomplus" xlink:href="#zoomPlus" x="17" y="9" onmousedown="handleZoom(evt,'in')"/>
  <use id="zoomminus" xlink:href="#zoomMin" x="42" y="9" onmousedown="handleZoom(evt,'out')"/>
  <use id="reset" xlink:href="#resetDef" x="30" y="36" onmousedown="handleReset()"/>
   <use id="arrowup" xlink:href="#arrowUp" x="0" y="0" onmousedown="handlePan(0,-1)"/>
  <use id="arrowright" xlink:href="#arrowRight" x="0" y="0" onmousedown="handlePan(1,0)"/>
  <use id="arrowdown" xlink:href="#arrowDown" x="0" y="0" onmousedown="handlePan(0,1)"/>
  <use id="arrowleft" xlink:href="#arrowLeft" x="0" y="0" onmousedown="handlePan(-1,0)"/>
</g>
<svg viewBox="0 0 15 15" width="100%" height="30px" preserveAspectRatio="xMaxYMin meet">
 <g id="arrow_out" transform="scale(0.3 0.3)">
  <a xlink:href="active__strain_8c__incl_org.svg" target="_base">
   <rect id="button" ry="5" rx="5" y="6" x="6" height="38" width="38"
        fill="#f2f5e9" fill-opacity="0.5" stroke="#606060" stroke-width="1.0"/>
   <path id="arrow"
     d="M 11.500037,31.436501 C 11.940474,20.09759 22.043105,11.32322 32.158766,21.979434 L 37.068811,17.246167 C 37.068811,17.246167 37.088388,32 37.088388,32 L 22.160133,31.978069 C 22.160133,31.978069 26.997745,27.140456 26.997745,27.140456 C 18.528582,18.264221 13.291696,25.230495 11.500037,31.436501 z"
     style="fill:#404040;"/>
  </a>
 </g>
</svg>

<style type='text/css'>
<![CDATA[
[data-mouse-over-selected='false'] { opacity: 0.7; }
[data-mouse-over-selected='true']  { opacity: 1.0; }
]]>
</style>
<script type="application/ecmascript"><![CDATA[
document.addEventListener('DOMContentLoaded', (event) => {
  highlightEdges();
  highlightAdjacentNodes();
});
]]></script>
</svg>
