<?xml version="1.0" encoding="UTF-8" standalone="no"?>
<!DOCTYPE svg PUBLIC "-//W3C//DTD SVG 1.1//EN"
 "http://www.w3.org/Graphics/SVG/1.1/DTD/svg11.dtd">
<!-- Generated by graphviz version 2.43.0 (0)
 -->
<!-- Title: ElemUpdateGeomSubdiv Pages: 1 -->
<!--zoomable 178 -->

<svg id="main" version="1.1" xmlns="http://www.w3.org/2000/svg" xmlns:xlink="http://www.w3.org/1999/xlink" xml:space="preserve" onload="init(evt)">
<style type="text/css"><![CDATA[
.node, .edge {opacity: 0.7;}
.node.selected, .edge.selected {opacity: 1;}
.edge:hover path { stroke: red; }
.edge:hover polygon { stroke: red; fill: red; }
]]></style>

<defs>
  <circle id="rim" cx="0" cy="0" r="7"/>
  <circle id="rim2" cx="0" cy="0" r="3.5"/>
  <g id="zoomPlus">
    <use xlink:href="#rim" fill="#404040"><set attributeName="fill" to="#808080" begin="zoomplus.mouseover" end="zoomplus.mouseout"/></use>
    <path d="M-4,0h8M0,-4v8" fill="none" stroke="white" stroke-width="1.5" pointer-events="none"/>
  </g>
  <g id="zoomMin">
    <use xlink:href="#rim" fill="#404040"><set attributeName="fill" to="#808080" begin="zoomminus.mouseover" end="zoomminus.mouseout"/></use>
    <path d="M-4,0h8" fill="none" stroke="white" stroke-width="1.5" pointer-events="none"/>
  </g>
  <g id="arrowUp" transform="translate(30 24)">
    <use xlink:href="#rim"/>
    <path pointer-events="none" fill="none" stroke="white" stroke-width="1.5" d="M0,-3.0v7 M-2.5,-0.5L0,-3.0L2.5,-0.5"/>
  </g>
  <g id="arrowRight" transform="rotate(90) translate(36 -43)">
    <use xlink:href="#rim"/>
    <path pointer-events="none" fill="none" stroke="white" stroke-width="1.5" d="M0,-3.0v7 M-2.5,-0.5L0,-3.0L2.5,-0.5"/>
  </g>
  <g id="arrowDown" transform="rotate(180) translate(-30 -48)">
    <use xlink:href="#rim"/>
    <path pointer-events="none" fill="none" stroke="white" stroke-width="1.5" d="M0,-3.0v7 M-2.5,-0.5L0,-3.0L2.5,-0.5"/>
  </g>
  <g id="arrowLeft" transform="rotate(270) translate(-36 17)">
    <use xlink:href="#rim"/>
    <path pointer-events="none" fill="none" stroke="white" stroke-width="1.5" d="M0,-3.0v7 M-2.5,-0.5L0,-3.0L2.5,-0.5"/>
  </g>
  <g id="resetDef">
    <use xlink:href="#rim2" fill="#404040"><set attributeName="fill" to="#808080" begin="reset.mouseover" end="reset.mouseout"/></use>
  </g>
</defs>
<script type="application/ecmascript">
var viewWidth = 918;
var viewHeight = 178;
var sectionId = 'dynsection-11';
</script>
<script type="application/ecmascript" xlink:href="svg.min.js"/>
<svg id="graph" class="graph">
<g id="viewport">
<title>ElemUpdateGeomSubdiv</title>
<!-- Node1 -->
<g id="Node000001" class="node">
<title>Node1</title>
<g id="a_Node000001"><a xlink:title="Update current midsurface geometry cache for one element.">
<polygon fill="#999999" stroke="#666666" points="910,-76 771,-76 771,-57 910,-57 910,-76"/>
<text text-anchor="middle" x="840.5" y="-64" font-family="Helvetica,sans-Serif" font-size="10.00">ElemUpdateGeomSubdiv</text>
</a>
</g>
</g>
<!-- Node2 -->
<g id="Node000002" class="node">
<title>Node2</title>
<g id="a_Node000002"><a xlink:href="dmplex__geom_8c.html#af7fb8fc68c27b224f0458d0c42911fe6" target="_top" xlink:title="Per&#45;SNES&#45;iteration geometry update.">
<polygon fill="white" stroke="#666666" points="735,-133 590,-133 590,-114 735,-114 735,-133"/>
<text text-anchor="middle" x="662.5" y="-121" font-family="Helvetica,sans-Serif" font-size="10.00">FEM_DMPlexGeomUpdate</text>
</a>
</g>
</g>
<!-- Node1&#45;&gt;Node2 -->
<g id="edge1_Node000001_Node000002" class="edge">
<title>Node1&#45;&gt;Node2</title>
<g id="a_edge1_Node000001_Node000002"><a xlink:title=" ">
<path fill="none" stroke="#63b8ff" d="M800.42,-79.16C767.98,-89.66 722.53,-104.38 693.05,-113.93"/>
<polygon fill="#63b8ff" stroke="#63b8ff" points="801.61,-82.45 810.04,-76.04 799.45,-75.79 801.61,-82.45"/>
</a>
</g>
</g>
<!-- Node8 -->
<g id="Node000008" class="node">
<title>Node8</title>
<g id="a_Node000008"><a xlink:href="cuda__processes_8c.html#a627a27228923fbc3e63f0f4e1c5aa765" target="_top" xlink:title=" ">
<polygon fill="white" stroke="#666666" points="362,-95 253,-95 253,-76 362,-76 362,-95"/>
<text text-anchor="middle" x="307.5" y="-83" font-family="Helvetica,sans-Serif" font-size="10.00">RunCudaProcesses</text>
</a>
</g>
</g>
<!-- Node1&#45;&gt;Node8 -->
<g id="edge7_Node000001_Node000008" class="edge">
<title>Node1&#45;&gt;Node8</title>
<g id="a_edge7_Node000001_Node000008"><a xlink:title=" ">
<path fill="none" stroke="#63b8ff" d="M760.58,-69.32C651.11,-73.24 456.08,-80.22 362.08,-83.58"/>
<polygon fill="#63b8ff" stroke="#63b8ff" points="761.03,-72.81 770.9,-68.95 760.78,-65.81 761.03,-72.81"/>
</a>
</g>
</g>
<!-- Node9 -->
<g id="Node000009" class="node">
<title>Node9</title>
<g id="a_Node000009"><a xlink:href="kokkos__processes_8c.html#a3f18ca1bc94cfbc69753dccb70a43699" target="_top" xlink:title=" ">
<polygon fill="white" stroke="#666666" points="196,-57 77,-57 77,-38 196,-38 196,-57"/>
<text text-anchor="middle" x="136.5" y="-45" font-family="Helvetica,sans-Serif" font-size="10.00">RunKokkosProcesses</text>
</a>
</g>
</g>
<!-- Node1&#45;&gt;Node9 -->
<g id="edge9_Node000001_Node000009" class="edge">
<title>Node1&#45;&gt;Node9</title>
<g id="a_edge9_Node000001_Node000009"><a xlink:title=" ">
<path fill="none" stroke="#63b8ff" d="M760.53,-64.36C618.33,-60.51 322.32,-52.5 196.33,-49.09"/>
<polygon fill="#63b8ff" stroke="#63b8ff" points="760.82,-67.87 770.91,-64.64 761.01,-60.87 760.82,-67.87"/>
</a>
</g>
</g>
<!-- Node10 -->
<g id="Node000010" class="node">
<title>Node10</title>
<g id="a_Node000010"><a xlink:href="dmplex__geom_8c.html#aa2b24de348fff4079de659ff63ba9b85" target="_top" xlink:title="Synchronise remote coordinates and evaluate the geometry kernel for all local cells.">
<polygon fill="white" stroke="#666666" points="720,-19 605,-19 605,0 720,0 720,-19"/>
<text text-anchor="middle" x="662.5" y="-7" font-family="Helvetica,sans-Serif" font-size="10.00">RunLocalGeometry_</text>
</a>
</g>
</g>
<!-- Node1&#45;&gt;Node10 -->
<g id="edge11_Node000001_Node000010" class="edge">
<title>Node1&#45;&gt;Node10</title>
<g id="a_edge11_Node000001_Node000010"><a xlink:title=" ">
<path fill="none" stroke="#63b8ff" d="M800.42,-53.84C767.98,-43.34 722.53,-28.62 693.05,-19.07"/>
<polygon fill="#63b8ff" stroke="#63b8ff" points="799.45,-57.21 810.04,-56.96 801.61,-50.55 799.45,-57.21"/>
</a>
</g>
</g>
<!-- Node3 -->
<g id="Node000003" class="node">
<title>Node3</title>
<g id="a_Node000003"><a xlink:href="active__strain_8c.html#a693fb698122674ff7df6dd47ac75167c" target="_top" xlink:title="Run per&#45;element precomputations before global internal&#45;force assembly.">
<polygon fill="white" stroke="#666666" points="535,-170 438,-170 438,-151 535,-151 535,-170"/>
<text text-anchor="middle" x="486.5" y="-158" font-family="Helvetica,sans-Serif" font-size="10.00">FInternalPreCalc</text>
</a>
</g>
</g>
<!-- Node2&#45;&gt;Node3 -->
<g id="edge2_Node000002_Node000003" class="edge">
<title>Node2&#45;&gt;Node3</title>
<g id="a_edge2_Node000002_Node000003"><a xlink:title=" ">
<path fill="none" stroke="#63b8ff" d="M606.7,-135.15C582.8,-140.23 555.13,-146.12 532.46,-150.94"/>
<polygon fill="#63b8ff" stroke="#63b8ff" points="607.64,-138.53 616.69,-133.03 606.18,-131.68 607.64,-138.53"/>
</a>
</g>
</g>
<!-- Node7 -->
<g id="Node000007" class="node">
<title>Node7</title>
<g id="a_Node000007"><a xlink:href="dmplex__geom_8c.html#af897ef006be5d3cc2be53b272a4f5a61" target="_top" xlink:title="Drop&#45;in geometry call: setup + update + destroy in one shot.">
<polygon fill="white" stroke="#666666" points="554,-133 419,-133 419,-114 554,-114 554,-133"/>
<text text-anchor="middle" x="486.5" y="-121" font-family="Helvetica,sans-Serif" font-size="10.00">RunDMPlexGeomSubdiv</text>
</a>
</g>
</g>
<!-- Node2&#45;&gt;Node7 -->
<g id="edge6_Node000002_Node000007" class="edge">
<title>Node2&#45;&gt;Node7</title>
<g id="a_edge6_Node000002_Node000007"><a xlink:title=" ">
<path fill="none" stroke="#63b8ff" d="M579.94,-123.5C571.34,-123.5 562.67,-123.5 554.27,-123.5"/>
<polygon fill="#63b8ff" stroke="#63b8ff" points="579.97,-127 589.97,-123.5 579.97,-120 579.97,-127"/>
</a>
</g>
</g>
<!-- Node4 -->
<g id="Node000004" class="node">
<title>Node4</title>
<g id="a_Node000004"><a xlink:href="active__strain_8c.html#a3bac899c10052c346d2afe9eccbac71d" target="_top" xlink:title="Assemble global internal force vector for active&#45;strain mechanics.">
<polygon fill="white" stroke="#666666" points="345.5,-160 269.5,-160 269.5,-141 345.5,-141 345.5,-160"/>
<text text-anchor="middle" x="307.5" y="-148" font-family="Helvetica,sans-Serif" font-size="10.00">FInternalAct</text>
</a>
</g>
</g>
<!-- Node3&#45;&gt;Node4 -->
<g id="edge3_Node000003_Node000004" class="edge">
<title>Node3&#45;&gt;Node4</title>
<g id="a_edge3_Node000003_Node000004"><a xlink:title=" ">
<path fill="none" stroke="#63b8ff" d="M427.53,-157.22C400.64,-155.71 369.47,-153.94 345.77,-152.61"/>
<polygon fill="#63b8ff" stroke="#63b8ff" points="427.42,-160.72 437.6,-157.79 427.81,-153.74 427.42,-160.72"/>
</a>
</g>
</g>
<!-- Node5 -->
<g id="Node000005" class="node">
<title>Node5</title>
<g id="a_Node000005"><a xlink:href="main_8c.html#a9a070a6f408cadb404b0ee7fbc74c576" target="_top" xlink:title=" ">
<polygon fill="white" stroke="#666666" points="188.5,-151 84.5,-151 84.5,-132 188.5,-132 188.5,-151"/>
<text text-anchor="middle" x="136.5" y="-139" font-family="Helvetica,sans-Serif" font-size="10.00">FormFunctionFEM</text>
</a>
</g>
</g>
<!-- Node4&#45;&gt;Node5 -->
<g id="edge4_Node000004_Node000005" class="edge">
<title>Node4&#45;&gt;Node5</title>
<g id="a_edge4_Node000004_Node000005"><a xlink:title=" ">
<path fill="none" stroke="#63b8ff" d="M259.31,-147.99C237.3,-146.81 211.08,-145.42 188.6,-144.22"/>
<polygon fill="#63b8ff" stroke="#63b8ff" points="259.24,-151.49 269.41,-148.52 259.61,-144.5 259.24,-151.49"/>
</a>
</g>
</g>
<!-- Node6 -->
<g id="Node000006" class="node">
<title>Node6</title>
<g id="a_Node000006"><a xlink:href="main_8c.html#a3c04138a5bfe5d72780bb7e82a18e627" target="_top" xlink:title=" ">
<polygon fill="white" stroke="#666666" points="41,-76 0,-76 0,-57 41,-57 41,-76"/>
<text text-anchor="middle" x="20.5" y="-64" font-family="Helvetica,sans-Serif" font-size="10.00">main</text>
</a>
</g>
</g>
<!-- Node5&#45;&gt;Node6 -->
<g id="edge5_Node000005_Node000006" class="edge">
<title>Node5&#45;&gt;Node6</title>
<g id="a_edge5_Node000005_Node000006"><a xlink:title=" ">
<path fill="none" stroke="#63b8ff" d="M112.16,-126.14C89.32,-111.12 55.26,-88.71 36.05,-76.07"/>
<polygon fill="#63b8ff" stroke="#63b8ff" points="110.32,-129.12 120.6,-131.7 114.17,-123.27 110.32,-129.12"/>
</a>
</g>
</g>
<!-- Node8&#45;&gt;Node6 -->
<g id="edge8_Node000008_Node000006" class="edge">
<title>Node8&#45;&gt;Node6</title>
<g id="a_edge8_Node000008_Node000006"><a xlink:title=" ">
<path fill="none" stroke="#63b8ff" d="M242.82,-81.25C178.29,-76.95 82.3,-70.55 41.26,-67.82"/>
<polygon fill="#63b8ff" stroke="#63b8ff" points="242.68,-84.75 252.89,-81.93 243.15,-77.77 242.68,-84.75"/>
</a>
</g>
</g>
<!-- Node9&#45;&gt;Node6 -->
<g id="edge10_Node000009_Node000006" class="edge">
<title>Node9&#45;&gt;Node6</title>
<g id="a_edge10_Node000009_Node000006"><a xlink:title=" ">
<path fill="none" stroke="#63b8ff" d="M68.24,-58.71C58.4,-60.35 48.99,-61.92 41.22,-63.21"/>
<polygon fill="#63b8ff" stroke="#63b8ff" points="68.88,-62.15 78.17,-57.06 67.73,-55.25 68.88,-62.15"/>
</a>
</g>
</g>
<!-- Node11 -->
<g id="Node000011" class="node">
<title>Node11</title>
<g id="a_Node000011"><a xlink:href="dmplex__geom_8c.html#ac4ecb4d172bee5f7c59a9fdf2680bb51" target="_top" xlink:title="Benchmark: run the full distributed DMPlex geometry pipeline for all bodies.">
<polygon fill="white" stroke="#666666" points="383,-19 232,-19 232,0 383,0 383,-19"/>
<text text-anchor="middle" x="307.5" y="-7" font-family="Helvetica,sans-Serif" font-size="10.00">RunDMPlexGeomProcesses</text>
</a>
</g>
</g>
<!-- Node10&#45;&gt;Node11 -->
<g id="edge12_Node000010_Node000011" class="edge">
<title>Node10&#45;&gt;Node11</title>
<g id="a_edge12_Node000010_Node000011"><a xlink:title=" ">
<path fill="none" stroke="#63b8ff" d="M594.62,-9.5C534.33,-9.5 445.8,-9.5 383.22,-9.5"/>
<polygon fill="#63b8ff" stroke="#63b8ff" points="594.78,-13 604.78,-9.5 594.78,-6 594.78,-13"/>
</a>
</g>
</g>
<!-- Node11&#45;&gt;Node6 -->
<g id="edge13_Node000011_Node000006" class="edge">
<title>Node11&#45;&gt;Node6</title>
<g id="a_edge13_Node000011_Node000006"><a xlink:title=" ">
<path fill="none" stroke="#63b8ff" d="M221.71,-6.24C177.44,-7.07 123.05,-12.13 77,-28.5 59.61,-34.68 42.55,-47.71 32.03,-56.77"/>
<polygon fill="#63b8ff" stroke="#63b8ff" points="221.91,-9.73 231.87,-6.12 221.83,-2.74 221.91,-9.73"/>
</a>
</g>
</g>
</g>
</svg>

<g id="navigator" transform="translate(0 0)" fill="#404254">
  <rect fill="#f2f5e9" fill-opacity="0.5" stroke="#606060" stroke-width=".5" x="0" y="0" width="60" height="60"/>
  <use id="zoomplus" xlink:href="#zoomPlus" x="17" y="9" onmousedown="handleZoom(evt,'in')"/>
  <use id="zoomminus" xlink:href="#zoomMin" x="42" y="9" onmousedown="handleZoom(evt,'out')"/>
  <use id="reset" xlink:href="#resetDef" x="30" y="36" onmousedown="handleReset()"/>
   <use id="arrowup" xlink:href="#arrowUp" x="0" y="0" onmousedown="handlePan(0,-1)"/>
  <use id="arrowright" xlink:href="#arrowRight" x="0" y="0" onmousedown="handlePan(1,0)"/>
  <use id="arrowdown" xlink:href="#arrowDown" x="0" y="0" onmousedown="handlePan(0,1)"/>
  <use id="arrowleft" xlink:href="#arrowLeft" x="0" y="0" onmousedown="handlePan(-1,0)"/>
</g>
<svg viewBox="0 0 15 15" width="100%" height="30px" preserveAspectRatio="xMaxYMin meet">
 <g id="arrow_out" transform="scale(0.3 0.3)">
  <a xlink:href="active__strain_8h_a04fa5da4f55d0663ad5ec7a3534de0af_icgraph_org.svg" target="_base">
   <rect id="button" ry="5" rx="5" y="6" x="6" height="38" width="38"
        fill="#f2f5e9" fill-opacity="0.5" stroke="#606060" stroke-width="1.0"/>
   <path id="arrow"
     d="M 11.500037,31.436501 C 11.940474,20.09759 22.043105,11.32322 32.158766,21.979434 L 37.068811,17.246167 C 37.068811,17.246167 37.088388,32 37.088388,32 L 22.160133,31.978069 C 22.160133,31.978069 26.997745,27.140456 26.997745,27.140456 C 18.528582,18.264221 13.291696,25.230495 11.500037,31.436501 z"
     style="fill:#404040;"/>
  </a>
 </g>
</svg>

<style type='text/css'>
<![CDATA[
[data-mouse-over-selected='false'] { opacity: 0.7; }
[data-mouse-over-selected='true']  { opacity: 1.0; }
]]>
</style>
<script type="application/ecmascript"><![CDATA[
document.addEventListener('DOMContentLoaded', (event) => {
  highlightEdges();
  highlightAdjacentNodes();
});
]]></script>
</svg>
