<?xml version="1.0" encoding="UTF-8" standalone="no"?>
<!DOCTYPE svg PUBLIC "-//W3C//DTD SVG 1.1//EN"
 "http://www.w3.org/Graphics/SVG/1.1/DTD/svg11.dtd">
<!-- Generated by graphviz version 2.43.0 (0)
 -->
<!-- Title: ElemCGDefTens Pages: 1 -->
<svg width="326pt" height="64pt"
 viewBox="0.00 0.00 326.00 64.00" xmlns="http://www.w3.org/2000/svg" xmlns:xlink="http://www.w3.org/1999/xlink">
<g id="graph0" class="graph" transform="scale(1 1) rotate(0) translate(4 60)">
<title>ElemCGDefTens</title>
<!-- Node1 -->
<g id="Node000001" class="node">
<title>Node1</title>
<g id="a_Node000001"><a xlink:title="Compute right Cauchy&#45;Green tensor and its inverse for one element.">
<polygon fill="#999999" stroke="#666666" points="95,-37 0,-37 0,-18 95,-18 95,-37"/>
<text text-anchor="middle" x="47.5" y="-25" font-family="Helvetica,sans-Serif" font-size="10.00">ElemCGDefTens</text>
</a>
</g>
</g>
<!-- Node2 -->
<g id="Node000002" class="node">
<title>Node2</title>
<g id="a_Node000002"><a xlink:href="math_8c.html#a832ef37ebeba5c46cadc9c452be4141a" target="_top" xlink:title=" ">
<polygon fill="white" stroke="#666666" points="217,-56 131,-56 131,-37 217,-37 217,-56"/>
<text text-anchor="middle" x="174" y="-44" font-family="Helvetica,sans-Serif" font-size="10.00">LowerIndices2</text>
</a>
</g>
</g>
<!-- Node1&#45;&gt;Node2 -->
<g id="edge1_Node000001_Node000002" class="edge">
<title>Node1&#45;&gt;Node2</title>
<g id="a_edge1_Node000001_Node000002"><a xlink:title=" ">
<path fill="none" stroke="#63b8ff" d="M95.21,-34.63C103.64,-35.92 112.48,-37.26 121.05,-38.57"/>
<polygon fill="#63b8ff" stroke="#63b8ff" points="120.53,-42.03 130.95,-40.08 121.59,-35.11 120.53,-42.03"/>
</a>
</g>
</g>
<!-- Node4 -->
<g id="Node000004" class="node">
<title>Node4</title>
<g id="a_Node000004"><a xlink:href="math_8c.html#a48112c11cc4a642f67482882a3fdb324" target="_top" xlink:title=" ">
<polygon fill="white" stroke="#666666" points="216,-19 132,-19 132,0 216,0 216,-19"/>
<text text-anchor="middle" x="174" y="-7" font-family="Helvetica,sans-Serif" font-size="10.00">RaiseIndices2</text>
</a>
</g>
</g>
<!-- Node1&#45;&gt;Node4 -->
<g id="edge3_Node000001_Node000004" class="edge">
<title>Node1&#45;&gt;Node4</title>
<g id="a_edge3_Node000001_Node000004"><a xlink:title=" ">
<path fill="none" stroke="#63b8ff" d="M95.21,-20.75C103.84,-19.5 112.9,-18.19 121.65,-16.92"/>
<polygon fill="#63b8ff" stroke="#63b8ff" points="122.36,-20.36 131.76,-15.46 121.36,-13.43 122.36,-20.36"/>
</a>
</g>
</g>
<!-- Node3 -->
<g id="Node000003" class="node">
<title>Node3</title>
<g id="a_Node000003"><a xlink:href="math_8c.html#acc306f8ca980a4b39cd6b29af1e2f92f" target="_top" xlink:title=" ">
<polygon fill="white" stroke="#666666" points="318,-37 253,-37 253,-18 318,-18 318,-37"/>
<text text-anchor="middle" x="285.5" y="-25" font-family="Helvetica,sans-Serif" font-size="10.00">MATMULT</text>
</a>
</g>
</g>
<!-- Node2&#45;&gt;Node3 -->
<g id="edge2_Node000002_Node000003" class="edge">
<title>Node2&#45;&gt;Node3</title>
<g id="a_edge2_Node000002_Node000003"><a xlink:title=" ">
<path fill="none" stroke="#63b8ff" d="M217.02,-39.21C225.51,-37.74 234.43,-36.19 242.91,-34.72"/>
<polygon fill="#63b8ff" stroke="#63b8ff" points="243.71,-38.13 252.97,-32.97 242.51,-31.23 243.71,-38.13"/>
</a>
</g>
</g>
<!-- Node4&#45;&gt;Node3 -->
<g id="edge4_Node000004_Node000003" class="edge">
<title>Node4&#45;&gt;Node3</title>
<g id="a_edge4_Node000004_Node000003"><a xlink:title=" ">
<path fill="none" stroke="#63b8ff" d="M216.09,-16.25C224.81,-17.69 234.03,-19.2 242.77,-20.64"/>
<polygon fill="#63b8ff" stroke="#63b8ff" points="242.33,-24.12 252.77,-22.28 243.47,-17.21 242.33,-24.12"/>
</a>
</g>
</g>
</g>
</svg>
