<?xml version="1.0" encoding="UTF-8" standalone="no"?>
<!DOCTYPE svg PUBLIC "-//W3C//DTD SVG 1.1//EN"
 "http://www.w3.org/Graphics/SVG/1.1/DTD/svg11.dtd">
<!-- Generated by graphviz version 2.43.0 (0)
 -->
<!-- Title: ElemUpdateG0 Pages: 1 -->
<svg width="184pt" height="64pt"
 viewBox="0.00 0.00 184.00 64.00" xmlns="http://www.w3.org/2000/svg" xmlns:xlink="http://www.w3.org/1999/xlink">
<g id="graph0" class="graph" transform="scale(1 1) rotate(0) translate(4 60)">
<title>ElemUpdateG0</title>
<!-- Node1 -->
<g id="Node000001" class="node">
<title>Node1</title>
<g id="a_Node000001"><a xlink:title="Build reference covariant/contravariant basis vectors for one element.">
<polygon fill="#999999" stroke="#666666" points="90,-37 0,-37 0,-18 90,-18 90,-37"/>
<text text-anchor="middle" x="45" y="-25" font-family="Helvetica,sans-Serif" font-size="10.00">ElemUpdateG0</text>
</a>
</g>
</g>
<!-- Node2 -->
<g id="Node000002" class="node">
<title>Node2</title>
<g id="a_Node000002"><a xlink:href="math_8c.html#a9d60990d26296194c921d537ea26f3c7" target="_top" xlink:title=" ">
<polygon fill="white" stroke="#666666" points="176,-56 126,-56 126,-37 176,-37 176,-56"/>
<text text-anchor="middle" x="151" y="-44" font-family="Helvetica,sans-Serif" font-size="10.00">CROSS</text>
</a>
</g>
</g>
<!-- Node1&#45;&gt;Node2 -->
<g id="edge1_Node000001_Node000002" class="edge">
<title>Node1&#45;&gt;Node2</title>
<g id="a_edge1_Node000001_Node000002"><a xlink:title=" ">
<path fill="none" stroke="#63b8ff" d="M90.11,-35.56C98.75,-37.14 107.69,-38.77 115.94,-40.28"/>
<polygon fill="#63b8ff" stroke="#63b8ff" points="115.48,-43.75 125.95,-42.11 116.74,-36.87 115.48,-43.75"/>
</a>
</g>
</g>
<!-- Node3 -->
<g id="Node000003" class="node">
<title>Node3</title>
<g id="a_Node000003"><a xlink:href="math_8c.html#ac616709995f2ae60c4308ffa328337d7" target="_top" xlink:title=" ">
<polygon fill="white" stroke="#666666" points="171.5,-19 130.5,-19 130.5,0 171.5,0 171.5,-19"/>
<text text-anchor="middle" x="151" y="-7" font-family="Helvetica,sans-Serif" font-size="10.00">UNIT</text>
</a>
</g>
</g>
<!-- Node1&#45;&gt;Node3 -->
<g id="edge2_Node000001_Node000003" class="edge">
<title>Node1&#45;&gt;Node3</title>
<g id="a_edge2_Node000001_Node000003"><a xlink:title=" ">
<path fill="none" stroke="#63b8ff" d="M90.11,-19.87C100.32,-18.1 110.96,-16.26 120.38,-14.63"/>
<polygon fill="#63b8ff" stroke="#63b8ff" points="121.16,-18.04 130.41,-12.89 119.96,-11.15 121.16,-18.04"/>
</a>
</g>
</g>
</g>
</svg>
