<?xml version="1.0" encoding="UTF-8" standalone="no"?>
<!DOCTYPE svg PUBLIC "-//W3C//DTD SVG 1.1//EN"
 "http://www.w3.org/Graphics/SVG/1.1/DTD/svg11.dtd">
<!-- Generated by graphviz version 2.43.0 (0)
 -->
<!-- Title: ElemActDefGrad Pages: 1 -->
<svg width="335pt" height="177pt"
 viewBox="0.00 0.00 335.00 177.00" xmlns="http://www.w3.org/2000/svg" xmlns:xlink="http://www.w3.org/1999/xlink">

<svg id="main" version="1.1" xmlns="http://www.w3.org/2000/svg" xmlns:xlink="http://www.w3.org/1999/xlink" xml:space="preserve" onload="init(evt)">
<style type="text/css"><![CDATA[
.node, .edge {opacity: 0.7;}
.node.selected, .edge.selected {opacity: 1;}
.edge:hover path { stroke: red; }
.edge:hover polygon { stroke: red; fill: red; }
]]></style>
<script type="application/ecmascript" xlink:href="svg.min.js"/>
<svg id="graph" class="graph">
<g id="graph0" class="graph" transform="scale(1 1) rotate(0) translate(4 173)">
<title>ElemActDefGrad</title>
<!-- Node1 -->
<g id="Node000001" class="node">
<title>Node1</title>
<g id="a_Node000001"><a xlink:title="Compute active deformation gradient for one element.">
<polygon fill="#999999" stroke="#666666" points="98,-94 0,-94 0,-75 98,-75 98,-94"/>
<text text-anchor="middle" x="49" y="-82" font-family="Helvetica,sans-Serif" font-size="10.00">ElemActDefGrad</text>
</a>
</g>
</g>
<!-- Node2 -->
<g id="Node000002" class="node">
<title>Node2</title>
<g id="a_Node000002"><a xlink:href="active__strain_8c.html#a10582f130c0a0d6bb1514569bb154352" target="_top" xlink:title="Return the active&#45;strain gamma at the current time step.">
<polygon fill="white" stroke="#666666" points="226,-169 134,-169 134,-150 226,-150 226,-169"/>
<text text-anchor="middle" x="180" y="-157" font-family="Helvetica,sans-Serif" font-size="10.00">GammaOfTime</text>
</a>
</g>
</g>
<!-- Node1&#45;&gt;Node2 -->
<g id="edge1_Node000001_Node000002" class="edge">
<title>Node1&#45;&gt;Node2</title>
<g id="a_edge1_Node000001_Node000002"><a xlink:title=" ">
<path fill="none" stroke="#63b8ff" d="M62.27,-94.08C78.18,-106.19 107.07,-127.2 134,-141.5 136.9,-143.04 139.96,-144.53 143.06,-145.94"/>
<polygon fill="#63b8ff" stroke="#63b8ff" points="141.82,-149.22 152.39,-149.96 144.59,-142.79 141.82,-149.22"/>
</a>
</g>
</g>
<!-- Node3 -->
<g id="Node000003" class="node">
<title>Node3</title>
<g id="a_Node000003"><a xlink:href="math_8c.html#a3f73e4cd9eab76eeee084eabf2b98ec9" target="_top" xlink:title=" ">
<polygon fill="white" stroke="#666666" points="197,-132 163,-132 163,-113 197,-113 197,-132"/>
<text text-anchor="middle" x="180" y="-120" font-family="Helvetica,sans-Serif" font-size="10.00">INV</text>
</a>
</g>
</g>
<!-- Node1&#45;&gt;Node3 -->
<g id="edge2_Node000001_Node000003" class="edge">
<title>Node1&#45;&gt;Node3</title>
<g id="a_edge2_Node000001_Node000003"><a xlink:title=" ">
<path fill="none" stroke="#63b8ff" d="M82.55,-94.09C104.42,-100.53 132.83,-108.9 153.15,-114.88"/>
<polygon fill="#63b8ff" stroke="#63b8ff" points="152.37,-118.31 162.96,-117.77 154.35,-111.59 152.37,-118.31"/>
</a>
</g>
</g>
<!-- Node4 -->
<g id="Node000004" class="node">
<title>Node4</title>
<g id="a_Node000004"><a xlink:href="math_8c.html#acc306f8ca980a4b39cd6b29af1e2f92f" target="_top" xlink:title=" ">
<polygon fill="white" stroke="#666666" points="327,-75 262,-75 262,-56 327,-56 327,-75"/>
<text text-anchor="middle" x="294.5" y="-63" font-family="Helvetica,sans-Serif" font-size="10.00">MATMULT</text>
</a>
</g>
</g>
<!-- Node1&#45;&gt;Node4 -->
<g id="edge3_Node000001_Node000004" class="edge">
<title>Node1&#45;&gt;Node4</title>
<g id="a_edge3_Node000001_Node000004"><a xlink:title=" ">
<path fill="none" stroke="#63b8ff" d="M98.11,-80.75C142.92,-77.25 209.06,-72.09 251.72,-68.76"/>
<polygon fill="#63b8ff" stroke="#63b8ff" points="252.07,-72.24 261.76,-67.98 251.52,-65.26 252.07,-72.24"/>
</a>
</g>
</g>
<!-- Node5 -->
<g id="Node000005" class="node">
<title>Node5</title>
<g id="a_Node000005"><a xlink:href="math_8c.html#a48112c11cc4a642f67482882a3fdb324" target="_top" xlink:title=" ">
<polygon fill="white" stroke="#666666" points="222,-56 138,-56 138,-37 222,-37 222,-56"/>
<text text-anchor="middle" x="180" y="-44" font-family="Helvetica,sans-Serif" font-size="10.00">RaiseIndices2</text>
</a>
</g>
</g>
<!-- Node1&#45;&gt;Node5 -->
<g id="edge4_Node000001_Node000005" class="edge">
<title>Node1&#45;&gt;Node5</title>
<g id="a_edge4_Node000001_Node000005"><a xlink:title=" ">
<path fill="none" stroke="#63b8ff" d="M82.55,-74.91C98.9,-70.1 118.91,-64.2 136.46,-59.03"/>
<polygon fill="#63b8ff" stroke="#63b8ff" points="137.85,-62.27 146.46,-56.09 135.88,-55.55 137.85,-62.27"/>
</a>
</g>
</g>
<!-- Node6 -->
<g id="Node000006" class="node">
<title>Node6</title>
<g id="a_Node000006"><a xlink:href="math_8c.html#af0179b195a2871aea7107cba32d42211" target="_top" xlink:title=" ">
<polygon fill="white" stroke="#666666" points="205,-19 155,-19 155,0 205,0 205,-19"/>
<text text-anchor="middle" x="180" y="-7" font-family="Helvetica,sans-Serif" font-size="10.00">TRANS</text>
</a>
</g>
</g>
<!-- Node1&#45;&gt;Node6 -->
<g id="edge6_Node000001_Node000006" class="edge">
<title>Node1&#45;&gt;Node6</title>
<g id="a_edge6_Node000001_Node000006"><a xlink:title=" ">
<path fill="none" stroke="#63b8ff" d="M62.62,-74.98C78.66,-63.16 107.45,-42.79 134,-28.5 137.7,-26.51 141.65,-24.58 145.61,-22.76"/>
<polygon fill="#63b8ff" stroke="#63b8ff" points="147.03,-25.96 154.79,-18.74 144.22,-19.55 147.03,-25.96"/>
</a>
</g>
</g>
<!-- Node5&#45;&gt;Node4 -->
<g id="edge5_Node000005_Node000004" class="edge">
<title>Node5&#45;&gt;Node4</title>
<g id="a_edge5_Node000005_Node000004"><a xlink:title=" ">
<path fill="none" stroke="#63b8ff" d="M222.25,-53.47C231.83,-55.08 242.04,-56.81 251.64,-58.43"/>
<polygon fill="#63b8ff" stroke="#63b8ff" points="251.33,-61.93 261.77,-60.14 252.49,-55.02 251.33,-61.93"/>
</a>
</g>
</g>
</g>
</svg>
</svg>

<style type='text/css'>
<![CDATA[
[data-mouse-over-selected='false'] { opacity: 0.7; }
[data-mouse-over-selected='true']  { opacity: 1.0; }
]]>
</style>
<script type="application/ecmascript"><![CDATA[
document.addEventListener('DOMContentLoaded', (event) => {
  highlightEdges();
  highlightAdjacentNodes();
});
]]></script>
</svg>
