<?xml version="1.0" encoding="UTF-8" standalone="no"?>
<!DOCTYPE svg PUBLIC "-//W3C//DTD SVG 1.1//EN"
 "http://www.w3.org/Graphics/SVG/1.1/DTD/svg11.dtd">
<!-- Generated by graphviz version 2.43.0 (0)
 -->
<!-- Title: FInternalPreCalc Pages: 1 -->
<!--zoomable 673 -->

<svg id="main" version="1.1" xmlns="http://www.w3.org/2000/svg" xmlns:xlink="http://www.w3.org/1999/xlink" xml:space="preserve" onload="init(evt)">
<style type="text/css"><![CDATA[
.node, .edge {opacity: 0.7;}
.node.selected, .edge.selected {opacity: 1;}
.edge:hover path { stroke: red; }
.edge:hover polygon { stroke: red; fill: red; }
]]></style>

<defs>
  <circle id="rim" cx="0" cy="0" r="7"/>
  <circle id="rim2" cx="0" cy="0" r="3.5"/>
  <g id="zoomPlus">
    <use xlink:href="#rim" fill="#404040"><set attributeName="fill" to="#808080" begin="zoomplus.mouseover" end="zoomplus.mouseout"/></use>
    <path d="M-4,0h8M0,-4v8" fill="none" stroke="white" stroke-width="1.5" pointer-events="none"/>
  </g>
  <g id="zoomMin">
    <use xlink:href="#rim" fill="#404040"><set attributeName="fill" to="#808080" begin="zoomminus.mouseover" end="zoomminus.mouseout"/></use>
    <path d="M-4,0h8" fill="none" stroke="white" stroke-width="1.5" pointer-events="none"/>
  </g>
  <g id="arrowUp" transform="translate(30 24)">
    <use xlink:href="#rim"/>
    <path pointer-events="none" fill="none" stroke="white" stroke-width="1.5" d="M0,-3.0v7 M-2.5,-0.5L0,-3.0L2.5,-0.5"/>
  </g>
  <g id="arrowRight" transform="rotate(90) translate(36 -43)">
    <use xlink:href="#rim"/>
    <path pointer-events="none" fill="none" stroke="white" stroke-width="1.5" d="M0,-3.0v7 M-2.5,-0.5L0,-3.0L2.5,-0.5"/>
  </g>
  <g id="arrowDown" transform="rotate(180) translate(-30 -48)">
    <use xlink:href="#rim"/>
    <path pointer-events="none" fill="none" stroke="white" stroke-width="1.5" d="M0,-3.0v7 M-2.5,-0.5L0,-3.0L2.5,-0.5"/>
  </g>
  <g id="arrowLeft" transform="rotate(270) translate(-36 17)">
    <use xlink:href="#rim"/>
    <path pointer-events="none" fill="none" stroke="white" stroke-width="1.5" d="M0,-3.0v7 M-2.5,-0.5L0,-3.0L2.5,-0.5"/>
  </g>
  <g id="resetDef">
    <use xlink:href="#rim2" fill="#404040"><set attributeName="fill" to="#808080" begin="reset.mouseover" end="reset.mouseout"/></use>
  </g>
</defs>
<script type="application/ecmascript">
var viewWidth = 891;
var viewHeight = 673;
var sectionId = 'dynsection-60';
</script>
<script type="application/ecmascript" xlink:href="svg.min.js"/>
<svg id="graph" class="graph">
<g id="viewport">
<title>FInternalPreCalc</title>
<!-- Node1 -->
<g id="Node000001" class="node">
<title>Node1</title>
<g id="a_Node000001"><a xlink:title="Run per&#45;element precomputations before global internal&#45;force assembly.">
<polygon fill="#999999" stroke="#666666" points="97,-401 0,-401 0,-382 97,-382 97,-401"/>
<text text-anchor="middle" x="48.5" y="-389" font-family="Helvetica,sans-Serif" font-size="10.00">FInternalPreCalc</text>
</a>
</g>
</g>
<!-- Node2 -->
<g id="Node000002" class="node">
<title>Node2</title>
<g id="a_Node000002"><a xlink:href="active__strain_8c.html#ade5fbd2ac288952d9b05edaa3cfab167" target="_top" xlink:title="Compute active deformation gradient for one element.">
<polygon fill="white" stroke="#666666" points="453,-627 355,-627 355,-608 453,-608 453,-627"/>
<text text-anchor="middle" x="404" y="-615" font-family="Helvetica,sans-Serif" font-size="10.00">ElemActDefGrad</text>
</a>
</g>
</g>
<!-- Node1&#45;&gt;Node2 -->
<g id="edge1_Node000001_Node000002" class="edge">
<title>Node1&#45;&gt;Node2</title>
<g id="a_edge1_Node000001_Node000002"><a xlink:title=" ">
<path fill="none" stroke="#63b8ff" d="M54.9,-401.02C66.81,-421.37 97.17,-469.78 133,-500.5 202.61,-560.18 227.87,-568.06 314,-599.5 323.76,-603.06 334.4,-605.99 344.81,-608.36"/>
<polygon fill="#63b8ff" stroke="#63b8ff" points="344.18,-611.81 354.69,-610.47 345.65,-604.96 344.18,-611.81"/>
</a>
</g>
</g>
<!-- Node8 -->
<g id="Node000008" class="node">
<title>Node8</title>
<g id="a_Node000008"><a xlink:href="active__strain_8c.html#a3017cdcf59a9d394ac18948cec6e94cf" target="_top" xlink:title="Solve local thickness equation (C33) for one element.">
<polygon fill="white" stroke="#666666" points="249,-401 162,-401 162,-382 249,-382 249,-401"/>
<text text-anchor="middle" x="205.5" y="-389" font-family="Helvetica,sans-Serif" font-size="10.00">ElemC33Solve</text>
</a>
</g>
</g>
<!-- Node1&#45;&gt;Node8 -->
<g id="edge8_Node000001_Node000008" class="edge">
<title>Node1&#45;&gt;Node8</title>
<g id="a_edge8_Node000001_Node000008"><a xlink:title=" ">
<path fill="none" stroke="#63b8ff" d="M97.27,-391.5C114.52,-391.5 134.09,-391.5 151.74,-391.5"/>
<polygon fill="#63b8ff" stroke="#63b8ff" points="151.88,-395 161.88,-391.5 151.88,-388 151.88,-395"/>
</a>
</g>
</g>
<!-- Node17 -->
<g id="Node000017" class="node">
<title>Node17</title>
<g id="a_Node000017"><a xlink:href="active__strain_8c.html#ab28c3cc7b872159806c167f8162346ea" target="_top" xlink:title="Compute right Cauchy&#45;Green tensor and its inverse for one element.">
<polygon fill="white" stroke="#666666" points="451.5,-590 356.5,-590 356.5,-571 451.5,-571 451.5,-590"/>
<text text-anchor="middle" x="404" y="-578" font-family="Helvetica,sans-Serif" font-size="10.00">ElemCGDefTens</text>
</a>
</g>
</g>
<!-- Node1&#45;&gt;Node17 -->
<g id="edge24_Node000001_Node000017" class="edge">
<title>Node1&#45;&gt;Node17</title>
<g id="a_edge24_Node000001_Node000017"><a xlink:title=" ">
<path fill="none" stroke="#63b8ff" d="M64.27,-401.18C103.71,-426.8 215.24,-497.68 314,-545.5 330.71,-553.59 349.79,-561.29 366,-567.4"/>
<polygon fill="#63b8ff" stroke="#63b8ff" points="365.07,-570.79 375.67,-570.98 367.51,-564.22 365.07,-570.79"/>
</a>
</g>
</g>
<!-- Node18 -->
<g id="Node000018" class="node">
<title>Node18</title>
<g id="a_Node000018"><a xlink:href="active__strain_8c.html#a993ef27fda81bb402cba4aa14fa9b51a" target="_top" xlink:title="Build current covariant/contravariant basis vectors for one element.">
<polygon fill="white" stroke="#666666" points="446,-215 362,-215 362,-196 446,-196 446,-215"/>
<text text-anchor="middle" x="404" y="-203" font-family="Helvetica,sans-Serif" font-size="10.00">ElemUpdateG</text>
</a>
</g>
</g>
<!-- Node1&#45;&gt;Node18 -->
<g id="edge27_Node000001_Node000018" class="edge">
<title>Node1&#45;&gt;Node18</title>
<g id="a_edge27_Node000001_Node000018"><a xlink:title=" ">
<path fill="none" stroke="#63b8ff" d="M61.31,-381.84C97.01,-353.14 207.88,-267.72 314,-224.5 325.89,-219.66 339.2,-215.97 351.84,-213.2"/>
<polygon fill="#63b8ff" stroke="#63b8ff" points="352.68,-216.6 361.78,-211.17 351.28,-209.74 352.68,-216.6"/>
</a>
</g>
</g>
<!-- Node27 -->
<g id="Node000027" class="node">
<title>Node27</title>
<g id="a_Node000027"><a xlink:href="dmplex__geom_8c.html#af7fb8fc68c27b224f0458d0c42911fe6" target="_top" xlink:title="Per&#45;SNES&#45;iteration geometry update.">
<polygon fill="white" stroke="#666666" points="278,-167 133,-167 133,-148 278,-148 278,-167"/>
<text text-anchor="middle" x="205.5" y="-155" font-family="Helvetica,sans-Serif" font-size="10.00">FEM_DMPlexGeomUpdate</text>
</a>
</g>
</g>
<!-- Node1&#45;&gt;Node27 -->
<g id="edge38_Node000001_Node000027" class="edge">
<title>Node1&#45;&gt;Node27</title>
<g id="a_edge38_Node000001_Node000027"><a xlink:title=" ">
<path fill="none" stroke="#63b8ff" d="M55.96,-381.74C79.6,-346.06 161.59,-222.27 192.55,-175.55"/>
<polygon fill="#63b8ff" stroke="#63b8ff" points="195.58,-177.31 198.18,-167.04 189.74,-173.44 195.58,-177.31"/>
</a>
</g>
</g>
<!-- Node3 -->
<g id="Node000003" class="node">
<title>Node3</title>
<g id="a_Node000003"><a xlink:href="active__strain_8c.html#a10582f130c0a0d6bb1514569bb154352" target="_top" xlink:title="Return the active&#45;strain gamma at the current time step.">
<polygon fill="white" stroke="#666666" points="658,-628 566,-628 566,-609 658,-609 658,-628"/>
<text text-anchor="middle" x="612" y="-616" font-family="Helvetica,sans-Serif" font-size="10.00">GammaOfTime</text>
</a>
</g>
</g>
<!-- Node2&#45;&gt;Node3 -->
<g id="edge2_Node000002_Node000003" class="edge">
<title>Node2&#45;&gt;Node3</title>
<g id="a_edge2_Node000002_Node000003"><a xlink:title=" ">
<path fill="none" stroke="#63b8ff" d="M453.04,-617.73C483.72,-617.88 523.6,-618.08 555.62,-618.23"/>
<polygon fill="#63b8ff" stroke="#63b8ff" points="555.7,-621.73 565.71,-618.28 555.73,-614.73 555.7,-621.73"/>
</a>
</g>
</g>
<!-- Node4 -->
<g id="Node000004" class="node">
<title>Node4</title>
<g id="a_Node000004"><a xlink:href="math_8c.html#a3f73e4cd9eab76eeee084eabf2b98ec9" target="_top" xlink:title=" ">
<polygon fill="white" stroke="#666666" points="629,-439 595,-439 595,-420 629,-420 629,-439"/>
<text text-anchor="middle" x="612" y="-427" font-family="Helvetica,sans-Serif" font-size="10.00">INV</text>
</a>
</g>
</g>
<!-- Node2&#45;&gt;Node4 -->
<g id="edge3_Node000002_Node000004" class="edge">
<title>Node2&#45;&gt;Node4</title>
<g id="a_edge3_Node000002_Node000004"><a xlink:title=" ">
<path fill="none" stroke="#63b8ff" d="M453.08,-616.94C467.7,-614.54 482.84,-609.48 494,-599.5 532.97,-564.64 499.19,-529.74 530,-487.5 544.45,-467.69 567.73,-452.04 585.63,-442.01"/>
<polygon fill="#63b8ff" stroke="#63b8ff" points="587.77,-444.83 594.94,-437.03 584.47,-438.66 587.77,-444.83"/>
</a>
</g>
</g>
<!-- Node5 -->
<g id="Node000005" class="node">
<title>Node5</title>
<g id="a_Node000005"><a xlink:href="math_8c.html#acc306f8ca980a4b39cd6b29af1e2f92f" target="_top" xlink:title=" ">
<polygon fill="white" stroke="#666666" points="839,-552 774,-552 774,-533 839,-533 839,-552"/>
<text text-anchor="middle" x="806.5" y="-540" font-family="Helvetica,sans-Serif" font-size="10.00">MATMULT</text>
</a>
</g>
</g>
<!-- Node2&#45;&gt;Node5 -->
<g id="edge4_Node000002_Node000005" class="edge">
<title>Node2&#45;&gt;Node5</title>
<g id="a_edge4_Node000002_Node000005"><a xlink:title=" ">
<path fill="none" stroke="#63b8ff" d="M453.31,-608.45C532.69,-593.59 689.35,-564.25 764.02,-550.27"/>
<polygon fill="#63b8ff" stroke="#63b8ff" points="764.81,-553.68 774,-548.4 763.53,-546.8 764.81,-553.68"/>
</a>
</g>
</g>
<!-- Node6 -->
<g id="Node000006" class="node">
<title>Node6</title>
<g id="a_Node000006"><a xlink:href="math_8c.html#a48112c11cc4a642f67482882a3fdb324" target="_top" xlink:title=" ">
<polygon fill="white" stroke="#666666" points="654,-552 570,-552 570,-533 654,-533 654,-552"/>
<text text-anchor="middle" x="612" y="-540" font-family="Helvetica,sans-Serif" font-size="10.00">RaiseIndices2</text>
</a>
</g>
</g>
<!-- Node2&#45;&gt;Node6 -->
<g id="edge5_Node000002_Node000006" class="edge">
<title>Node2&#45;&gt;Node6</title>
<g id="a_edge5_Node000002_Node000006"><a xlink:title=" ">
<path fill="none" stroke="#63b8ff" d="M453.25,-612.64C466.93,-609.98 481.5,-605.86 494,-599.5 513.34,-589.66 511.11,-577.19 530,-566.5 539.29,-561.24 549.84,-557.04 560.18,-553.71"/>
<polygon fill="#63b8ff" stroke="#63b8ff" points="561.41,-556.99 569.99,-550.78 559.41,-550.29 561.41,-556.99"/>
</a>
</g>
</g>
<!-- Node7 -->
<g id="Node000007" class="node">
<title>Node7</title>
<g id="a_Node000007"><a xlink:href="math_8c.html#af0179b195a2871aea7107cba32d42211" target="_top" xlink:title=" ">
<polygon fill="white" stroke="#666666" points="637,-665 587,-665 587,-646 637,-646 637,-665"/>
<text text-anchor="middle" x="612" y="-653" font-family="Helvetica,sans-Serif" font-size="10.00">TRANS</text>
</a>
</g>
</g>
<!-- Node2&#45;&gt;Node7 -->
<g id="edge7_Node000002_Node000007" class="edge">
<title>Node2&#45;&gt;Node7</title>
<g id="a_edge7_Node000002_Node000007"><a xlink:title=" ">
<path fill="none" stroke="#63b8ff" d="M453.04,-626.36C491.07,-633.38 543.24,-643 577.04,-649.24"/>
<polygon fill="#63b8ff" stroke="#63b8ff" points="576.43,-652.68 586.9,-651.05 577.7,-645.8 576.43,-652.68"/>
</a>
</g>
</g>
<!-- Node6&#45;&gt;Node5 -->
<g id="edge6_Node000006_Node000005" class="edge">
<title>Node6&#45;&gt;Node5</title>
<g id="a_edge6_Node000006_Node000005"><a xlink:title=" ">
<path fill="none" stroke="#63b8ff" d="M654.3,-542.5C686.59,-542.5 731.31,-542.5 763.73,-542.5"/>
<polygon fill="#63b8ff" stroke="#63b8ff" points="763.79,-546 773.79,-542.5 763.79,-539 763.79,-546"/>
</a>
</g>
</g>
<!-- Node8&#45;&gt;Node4 -->
<g id="edge19_Node000008_Node000004" class="edge">
<title>Node8&#45;&gt;Node4</title>
<g id="a_edge19_Node000008_Node000004"><a xlink:title=" ">
<path fill="none" stroke="#63b8ff" d="M249.46,-393.37C305.75,-396.08 407.48,-401.85 494,-411.5 525.35,-415 561.17,-420.77 584.83,-424.83"/>
<polygon fill="#63b8ff" stroke="#63b8ff" points="584.33,-428.3 594.78,-426.57 585.53,-421.4 584.33,-428.3"/>
</a>
</g>
</g>
<!-- Node8&#45;&gt;Node6 -->
<g id="edge23_Node000008_Node000006" class="edge">
<title>Node8&#45;&gt;Node6</title>
<g id="a_edge23_Node000008_Node000006"><a xlink:title=" ">
<path fill="none" stroke="#63b8ff" d="M211.66,-401.31C224.91,-425.37 262.73,-487.27 314,-513.5 392.48,-553.65 497.84,-553.24 559.68,-548.45"/>
<polygon fill="#63b8ff" stroke="#63b8ff" points="560.29,-551.91 569.96,-547.58 559.71,-544.93 560.29,-551.91"/>
</a>
</g>
</g>
<!-- Node9 -->
<g id="Node000009" class="node">
<title>Node9</title>
<g id="a_Node000009"><a xlink:href="active__strain_8c.html#adca02351c999668546fc922e1806d090" target="_top" xlink:title="Compute elastic right Cauchy&#45;Green tensor for one element.">
<polygon fill="white" stroke="#666666" points="461.5,-476 346.5,-476 346.5,-457 461.5,-457 461.5,-476"/>
<text text-anchor="middle" x="404" y="-464" font-family="Helvetica,sans-Serif" font-size="10.00">ElemElasCGDefTens</text>
</a>
</g>
</g>
<!-- Node8&#45;&gt;Node9 -->
<g id="edge9_Node000008_Node000009" class="edge">
<title>Node8&#45;&gt;Node9</title>
<g id="a_edge9_Node000008_Node000009"><a xlink:title=" ">
<path fill="none" stroke="#63b8ff" d="M221.18,-401.05C241.31,-413.73 278.99,-435.98 314,-448.5 321.2,-451.08 328.87,-453.32 336.57,-455.27"/>
<polygon fill="#63b8ff" stroke="#63b8ff" points="335.77,-458.68 346.31,-457.58 337.38,-451.87 335.77,-458.68"/>
</a>
</g>
</g>
<!-- Node10 -->
<g id="Node000010" class="node">
<title>Node10</title>
<g id="a_Node000010"><a xlink:href="math_8c.html#a832ef37ebeba5c46cadc9c452be4141a" target="_top" xlink:title=" ">
<polygon fill="white" stroke="#666666" points="655,-515 569,-515 569,-496 655,-496 655,-515"/>
<text text-anchor="middle" x="612" y="-503" font-family="Helvetica,sans-Serif" font-size="10.00">LowerIndices2</text>
</a>
</g>
</g>
<!-- Node8&#45;&gt;Node10 -->
<g id="edge20_Node000008_Node000010" class="edge">
<title>Node8&#45;&gt;Node10</title>
<g id="a_edge20_Node000008_Node000010"><a xlink:title=" ">
<path fill="none" stroke="#63b8ff" d="M213.81,-401.2C229.54,-421.22 268.88,-466.8 314,-485.5 394.33,-518.79 497.37,-516.96 558.57,-511.79"/>
<polygon fill="#63b8ff" stroke="#63b8ff" points="559.11,-515.26 568.75,-510.87 558.48,-508.29 559.11,-515.26"/>
</a>
</g>
</g>
<!-- Node11 -->
<g id="Node000011" class="node">
<title>Node11</title>
<g id="a_Node000011"><a xlink:href="active__strain_8c.html#a4456f61d7effcb0451f1890e5bab63c6" target="_top" xlink:title="Compute elastic second Piola&#45;Kirchhoff stress for one element.">
<polygon fill="white" stroke="#666666" points="450,-363 358,-363 358,-344 450,-344 450,-363"/>
<text text-anchor="middle" x="404" y="-351" font-family="Helvetica,sans-Serif" font-size="10.00">ElemElasStress</text>
</a>
</g>
</g>
<!-- Node8&#45;&gt;Node11 -->
<g id="edge13_Node000008_Node000011" class="edge">
<title>Node8&#45;&gt;Node11</title>
<g id="a_edge13_Node000008_Node000011"><a xlink:title=" ">
<path fill="none" stroke="#63b8ff" d="M249.14,-383.25C278.06,-377.66 316.58,-370.21 347.84,-364.17"/>
<polygon fill="#63b8ff" stroke="#63b8ff" points="348.56,-367.59 357.71,-362.26 347.23,-360.72 348.56,-367.59"/>
</a>
</g>
</g>
<!-- Node13 -->
<g id="Node000013" class="node">
<title>Node13</title>
<g id="a_Node000013"><a xlink:href="active__strain_8c.html#af11cd9885b42c34a06fcbb8c5f4b21b1" target="_top" xlink:title="Compute elastic tangent tensor for one element.">
<polygon fill="white" stroke="#666666" points="463.5,-326 344.5,-326 344.5,-307 463.5,-307 463.5,-326"/>
<text text-anchor="middle" x="404" y="-314" font-family="Helvetica,sans-Serif" font-size="10.00">ElemElsTangMatTens</text>
</a>
</g>
</g>
<!-- Node8&#45;&gt;Node13 -->
<g id="edge15_Node000008_Node000013" class="edge">
<title>Node8&#45;&gt;Node13</title>
<g id="a_edge15_Node000008_Node000013"><a xlink:title=" ">
<path fill="none" stroke="#63b8ff" d="M221.57,-381.97C241.84,-369.56 279.35,-347.96 314,-335.5 321.32,-332.87 329.11,-330.55 336.93,-328.51"/>
<polygon fill="#63b8ff" stroke="#63b8ff" points="337.93,-331.87 346.81,-326.09 336.26,-325.07 337.93,-331.87"/>
</a>
</g>
</g>
<!-- Node14 -->
<g id="Node000014" class="node">
<title>Node14</title>
<g id="a_Node000014"><a xlink:href="active__strain_8c.html#aeb76bfd4ce638c289f76c957e51e9749" target="_top" xlink:title="Assemble total (active + elastic) stress for one element.">
<polygon fill="white" stroke="#666666" points="447,-252 361,-252 361,-233 447,-233 447,-252"/>
<text text-anchor="middle" x="404" y="-240" font-family="Helvetica,sans-Serif" font-size="10.00">ElemTotStress</text>
</a>
</g>
</g>
<!-- Node8&#45;&gt;Node14 -->
<g id="edge17_Node000008_Node000014" class="edge">
<title>Node8&#45;&gt;Node14</title>
<g id="a_edge17_Node000008_Node000014"><a xlink:title=" ">
<path fill="none" stroke="#63b8ff" d="M213.12,-381.96C232.21,-354.71 287.71,-277.44 314,-261.5 325.09,-254.78 338.21,-250.41 350.93,-247.58"/>
<polygon fill="#63b8ff" stroke="#63b8ff" points="351.84,-250.97 360.99,-245.63 350.51,-244.1 351.84,-250.97"/>
</a>
</g>
</g>
<!-- Node15 -->
<g id="Node000015" class="node">
<title>Node15</title>
<g id="a_Node000015"><a xlink:href="active__strain_8c.html#a6158bac3c35b481951a8c48563dc59ef" target="_top" xlink:title="Compute total tangent tensor for one element.">
<polygon fill="white" stroke="#666666" points="463.5,-439 344.5,-439 344.5,-420 463.5,-420 463.5,-439"/>
<text text-anchor="middle" x="404" y="-427" font-family="Helvetica,sans-Serif" font-size="10.00">ElemTotTangMatTens</text>
</a>
</g>
</g>
<!-- Node8&#45;&gt;Node15 -->
<g id="edge18_Node000008_Node000015" class="edge">
<title>Node8&#45;&gt;Node15</title>
<g id="a_edge18_Node000008_Node000015"><a xlink:title=" ">
<path fill="none" stroke="#63b8ff" d="M249.14,-399.75C276.82,-405.1 313.29,-412.15 343.78,-418.05"/>
<polygon fill="#63b8ff" stroke="#63b8ff" points="343.38,-421.54 353.86,-420 344.71,-414.66 343.38,-421.54"/>
</a>
</g>
</g>
<!-- Node16 -->
<g id="Node000016" class="node">
<title>Node16</title>
<g id="a_Node000016"><a xlink:href="active__strain_8c.html#a9e8e9e018293087ec6b0ce58ce922403" target="_top" xlink:title="Update through&#45;thickness C33 contribution for one element.">
<polygon fill="white" stroke="#666666" points="444.5,-289 363.5,-289 363.5,-270 444.5,-270 444.5,-289"/>
<text text-anchor="middle" x="404" y="-277" font-family="Helvetica,sans-Serif" font-size="10.00">ModElemC33</text>
</a>
</g>
</g>
<!-- Node8&#45;&gt;Node16 -->
<g id="edge21_Node000008_Node000016" class="edge">
<title>Node8&#45;&gt;Node16</title>
<g id="a_edge21_Node000008_Node000016"><a xlink:title=" ">
<path fill="none" stroke="#63b8ff" d="M214.56,-381.83C231.1,-362.68 270.92,-319.94 314,-298.5 326.17,-292.44 340.22,-288.31 353.51,-285.49"/>
<polygon fill="#63b8ff" stroke="#63b8ff" points="354.31,-288.9 363.47,-283.59 352.99,-282.03 354.31,-288.9"/>
</a>
</g>
</g>
<!-- Node9&#45;&gt;Node4 -->
<g id="edge10_Node000009_Node000004" class="edge">
<title>Node9&#45;&gt;Node4</title>
<g id="a_edge10_Node000009_Node000004"><a xlink:title=" ">
<path fill="none" stroke="#63b8ff" d="M458.05,-456.97C498.75,-449.66 553.18,-439.89 584.93,-434.18"/>
<polygon fill="#63b8ff" stroke="#63b8ff" points="585.55,-437.63 594.78,-432.41 584.32,-430.74 585.55,-437.63"/>
</a>
</g>
</g>
<!-- Node9&#45;&gt;Node10 -->
<g id="edge11_Node000009_Node000010" class="edge">
<title>Node9&#45;&gt;Node10</title>
<g id="a_edge11_Node000009_Node000010"><a xlink:title=" ">
<path fill="none" stroke="#63b8ff" d="M455.39,-476.04C486.78,-481.98 527.07,-489.61 558.79,-495.62"/>
<polygon fill="#63b8ff" stroke="#63b8ff" points="558.29,-499.08 568.77,-497.5 559.59,-492.2 558.29,-499.08"/>
</a>
</g>
</g>
<!-- Node10&#45;&gt;Node5 -->
<g id="edge12_Node000010_Node000005" class="edge">
<title>Node10&#45;&gt;Node5</title>
<g id="a_edge12_Node000010_Node000005"><a xlink:title=" ">
<path fill="none" stroke="#63b8ff" d="M655.24,-513.62C687.5,-519.82 731.72,-528.32 763.84,-534.49"/>
<polygon fill="#63b8ff" stroke="#63b8ff" points="763.33,-537.96 773.81,-536.41 764.65,-531.08 763.33,-537.96"/>
</a>
</g>
</g>
<!-- Node12 -->
<g id="Node000012" class="node">
<title>Node12</title>
<g id="a_Node000012"><a xlink:href="math_8c.html#afc32b59c39265b9a2844b86d0e568fd3" target="_top" xlink:title=" ">
<polygon fill="white" stroke="#666666" points="639,-328 585,-328 585,-309 639,-309 639,-328"/>
<text text-anchor="middle" x="612" y="-316" font-family="Helvetica,sans-Serif" font-size="10.00">DET3x3</text>
</a>
</g>
</g>
<!-- Node11&#45;&gt;Node12 -->
<g id="edge14_Node000011_Node000012" class="edge">
<title>Node11&#45;&gt;Node12</title>
<g id="a_edge14_Node000011_Node000012"><a xlink:title=" ">
<path fill="none" stroke="#63b8ff" d="M450.21,-345.82C487.56,-339.47 539.9,-330.58 574.6,-324.68"/>
<polygon fill="#63b8ff" stroke="#63b8ff" points="575.49,-328.08 584.76,-322.96 574.32,-321.18 575.49,-328.08"/>
</a>
</g>
</g>
<!-- Node13&#45;&gt;Node12 -->
<g id="edge16_Node000013_Node000012" class="edge">
<title>Node13&#45;&gt;Node12</title>
<g id="a_edge16_Node000013_Node000012"><a xlink:title=" ">
<path fill="none" stroke="#63b8ff" d="M463.76,-317.07C499.5,-317.42 544.02,-317.85 574.69,-318.15"/>
<polygon fill="#63b8ff" stroke="#63b8ff" points="574.9,-321.65 584.93,-318.25 574.96,-314.65 574.9,-321.65"/>
</a>
</g>
</g>
<!-- Node16&#45;&gt;Node12 -->
<g id="edge22_Node000016_Node000012" class="edge">
<title>Node16&#45;&gt;Node12</title>
<g id="a_edge22_Node000016_Node000012"><a xlink:title=" ">
<path fill="none" stroke="#63b8ff" d="M444.72,-287.02C482.28,-294.13 538.18,-304.71 574.61,-311.61"/>
<polygon fill="#63b8ff" stroke="#63b8ff" points="574.32,-315.12 584.79,-313.54 575.62,-308.24 574.32,-315.12"/>
</a>
</g>
</g>
<!-- Node17&#45;&gt;Node6 -->
<g id="edge26_Node000017_Node000006" class="edge">
<title>Node17&#45;&gt;Node6</title>
<g id="a_edge26_Node000017_Node000006"><a xlink:title=" ">
<path fill="none" stroke="#63b8ff" d="M451.74,-571.88C483.91,-565.94 526.64,-558.06 559.73,-551.96"/>
<polygon fill="#63b8ff" stroke="#63b8ff" points="560.48,-555.38 569.67,-550.12 559.21,-548.5 560.48,-555.38"/>
</a>
</g>
</g>
<!-- Node17&#45;&gt;Node10 -->
<g id="edge25_Node000017_Node000010" class="edge">
<title>Node17&#45;&gt;Node10</title>
<g id="a_edge25_Node000017_Node000010"><a xlink:title=" ">
<path fill="none" stroke="#63b8ff" d="M423.61,-570.81C447.64,-558.61 491.03,-537.67 530,-524.5 539.24,-521.38 549.25,-518.58 558.97,-516.15"/>
<polygon fill="#63b8ff" stroke="#63b8ff" points="560.04,-519.5 568.95,-513.76 558.41,-512.69 560.04,-519.5"/>
</a>
</g>
</g>
<!-- Node18&#45;&gt;Node4 -->
<g id="edge36_Node000018_Node000004" class="edge">
<title>Node18&#45;&gt;Node4</title>
<g id="a_edge36_Node000018_Node000004"><a xlink:title=" ">
<path fill="none" stroke="#63b8ff" d="M446.26,-205.6C462.88,-207.68 481.12,-212.83 494,-224.5 533.05,-259.9 504.03,-291.63 530,-337.5 546.73,-367.05 574.07,-395.5 592.3,-412.75"/>
<polygon fill="#63b8ff" stroke="#63b8ff" points="590.25,-415.62 599.96,-419.85 595,-410.48 590.25,-415.62"/>
</a>
</g>
</g>
<!-- Node19 -->
<g id="Node000019" class="node">
<title>Node19</title>
<g id="a_Node000019"><a xlink:href="math_8c.html#a7ef9263b0a3a10c2cd00bb4dc0059d70" target="_top" xlink:title=" ">
<polygon fill="white" stroke="#666666" points="831.5,-105 781.5,-105 781.5,-86 831.5,-86 831.5,-105"/>
<text text-anchor="middle" x="806.5" y="-93" font-family="Helvetica,sans-Serif" font-size="10.00">AMULT</text>
</a>
</g>
</g>
<!-- Node18&#45;&gt;Node19 -->
<g id="edge28_Node000018_Node000019" class="edge">
<title>Node18&#45;&gt;Node19</title>
<g id="a_edge28_Node000018_Node000019"><a xlink:title=" ">
<path fill="none" stroke="#63b8ff" d="M443.79,-195.87C459.81,-191.14 478.28,-184.67 494,-176.5 511.75,-167.28 511.73,-157.63 530,-149.5 572.92,-130.41 707.42,-109.45 771.24,-100.26"/>
<polygon fill="#63b8ff" stroke="#63b8ff" points="771.8,-103.72 781.21,-98.84 770.82,-96.79 771.8,-103.72"/>
</a>
</g>
</g>
<!-- Node20 -->
<g id="Node000020" class="node">
<title>Node20</title>
<g id="a_Node000020"><a xlink:href="active__strain_8c.html#a8ffbd5ab9cf4de7388a8a1b66bf48821" target="_top" xlink:title=" ">
<polygon fill="white" stroke="#666666" points="670,-215 554,-215 554,-196 670,-196 670,-215"/>
<text text-anchor="middle" x="612" y="-203" font-family="Helvetica,sans-Serif" font-size="10.00">Compute_a3_alpha_</text>
</a>
</g>
</g>
<!-- Node18&#45;&gt;Node20 -->
<g id="edge29_Node000018_Node000020" class="edge">
<title>Node18&#45;&gt;Node20</title>
<g id="a_edge29_Node000018_Node000020"><a xlink:title=" ">
<path fill="none" stroke="#63b8ff" d="M446.19,-205.5C474.06,-205.5 511.5,-205.5 543.65,-205.5"/>
<polygon fill="#63b8ff" stroke="#63b8ff" points="543.89,-209 553.89,-205.5 543.89,-202 543.89,-209"/>
</a>
</g>
</g>
<!-- Node22 -->
<g id="Node000022" class="node">
<title>Node22</title>
<g id="a_Node000022"><a xlink:href="math_8c.html#ae18926821a703a2c5b281bd890b7e6a0" target="_top" xlink:title=" ">
<polygon fill="white" stroke="#666666" points="827,-253 786,-253 786,-234 827,-234 827,-253"/>
<text text-anchor="middle" x="806.5" y="-241" font-family="Helvetica,sans-Serif" font-size="10.00">PLUS</text>
</a>
</g>
</g>
<!-- Node18&#45;&gt;Node22 -->
<g id="edge37_Node000018_Node000022" class="edge">
<title>Node18&#45;&gt;Node22</title>
<g id="a_edge37_Node000018_Node000022"><a xlink:title=" ">
<path fill="none" stroke="#63b8ff" d="M446.27,-212.64C470.58,-216.63 501.96,-221.41 530,-224.5 619.02,-234.32 724.81,-239.92 775.5,-242.24"/>
<polygon fill="#63b8ff" stroke="#63b8ff" points="775.59,-245.75 785.74,-242.69 775.91,-238.75 775.59,-245.75"/>
</a>
</g>
</g>
<!-- Node24 -->
<g id="Node000024" class="node">
<title>Node24</title>
<g id="a_Node000024"><a xlink:href="active__strain_8c.html#a798e3f12cc0e3f71dbc664e886f8893a" target="_top" xlink:title=" ">
<polygon fill="white" stroke="#666666" points="689,-291 535,-291 535,-272 689,-272 689,-291"/>
<text text-anchor="middle" x="612" y="-279" font-family="Helvetica,sans-Serif" font-size="10.00">ComputeContravariantBasis</text>
</a>
</g>
</g>
<!-- Node18&#45;&gt;Node24 -->
<g id="edge33_Node000018_Node000024" class="edge">
<title>Node18&#45;&gt;Node24</title>
<g id="a_edge33_Node000018_Node000024"><a xlink:title=" ">
<path fill="none" stroke="#63b8ff" d="M446.42,-209.68C461.97,-212.42 479.4,-216.97 494,-224.5 513.29,-234.45 511.11,-246.81 530,-257.5 537.97,-262.01 546.87,-265.75 555.77,-268.82"/>
<polygon fill="#63b8ff" stroke="#63b8ff" points="554.79,-272.18 565.38,-271.9 556.93,-265.52 554.79,-272.18"/>
</a>
</g>
</g>
<!-- Node25 -->
<g id="Node000025" class="node">
<title>Node25</title>
<g id="a_Node000025"><a xlink:href="active__strain_8c.html#af6f59806c4a71e53ae3ffb4ed5ac56ec" target="_top" xlink:title=" ">
<polygon fill="white" stroke="#666666" points="673.5,-178 550.5,-178 550.5,-159 673.5,-159 673.5,-178"/>
<text text-anchor="middle" x="612" y="-166" font-family="Helvetica,sans-Serif" font-size="10.00">ComputeMetricTensor</text>
</a>
</g>
</g>
<!-- Node18&#45;&gt;Node25 -->
<g id="edge34_Node000018_Node000025" class="edge">
<title>Node18&#45;&gt;Node25</title>
<g id="a_edge34_Node000018_Node000025"><a xlink:title=" ">
<path fill="none" stroke="#63b8ff" d="M446.19,-198.1C475.24,-192.88 514.7,-185.8 547.72,-179.87"/>
<polygon fill="#63b8ff" stroke="#63b8ff" points="548.52,-183.28 557.75,-178.07 547.28,-176.39 548.52,-183.28"/>
</a>
</g>
</g>
<!-- Node21 -->
<g id="Node000021" class="node">
<title>Node21</title>
<g id="a_Node000021"><a xlink:href="math_8c.html#a9d60990d26296194c921d537ea26f3c7" target="_top" xlink:title=" ">
<polygon fill="white" stroke="#666666" points="831.5,-179 781.5,-179 781.5,-160 831.5,-160 831.5,-179"/>
<text text-anchor="middle" x="806.5" y="-167" font-family="Helvetica,sans-Serif" font-size="10.00">CROSS</text>
</a>
</g>
</g>
<!-- Node20&#45;&gt;Node21 -->
<g id="edge30_Node000020_Node000021" class="edge">
<title>Node20&#45;&gt;Node21</title>
<g id="a_edge30_Node000020_Node000021"><a xlink:title=" ">
<path fill="none" stroke="#63b8ff" d="M663.83,-195.99C697.81,-189.64 741.58,-181.45 771.42,-175.87"/>
<polygon fill="#63b8ff" stroke="#63b8ff" points="772.17,-179.29 781.36,-174.01 770.89,-172.41 772.17,-179.29"/>
</a>
</g>
</g>
<!-- Node20&#45;&gt;Node22 -->
<g id="edge31_Node000020_Node000022" class="edge">
<title>Node20&#45;&gt;Node22</title>
<g id="a_edge31_Node000020_Node000022"><a xlink:title=" ">
<path fill="none" stroke="#63b8ff" d="M661.58,-215.09C697.44,-222.17 745.13,-231.58 775.58,-237.59"/>
<polygon fill="#63b8ff" stroke="#63b8ff" points="775.09,-241.06 785.58,-239.57 776.45,-234.2 775.09,-241.06"/>
</a>
</g>
</g>
<!-- Node23 -->
<g id="Node000023" class="node">
<title>Node23</title>
<g id="a_Node000023"><a xlink:href="math_8c.html#aa52f6593cf3e5453c8c6c94343d3fb37" target="_top" xlink:title=" ">
<polygon fill="white" stroke="#666666" points="825.5,-216 787.5,-216 787.5,-197 825.5,-197 825.5,-216"/>
<text text-anchor="middle" x="806.5" y="-204" font-family="Helvetica,sans-Serif" font-size="10.00">SIZE</text>
</a>
</g>
</g>
<!-- Node20&#45;&gt;Node23 -->
<g id="edge32_Node000020_Node000023" class="edge">
<title>Node20&#45;&gt;Node23</title>
<g id="a_edge32_Node000020_Node000023"><a xlink:title=" ">
<path fill="none" stroke="#63b8ff" d="M670.24,-205.8C705.46,-205.98 749.07,-206.21 777.09,-206.35"/>
<polygon fill="#63b8ff" stroke="#63b8ff" points="777.34,-209.85 787.36,-206.41 777.38,-202.85 777.34,-209.85"/>
</a>
</g>
</g>
<!-- Node26 -->
<g id="Node000026" class="node">
<title>Node26</title>
<g id="a_Node000026"><a xlink:href="math_8c.html#a870a70f4845a041458d9bdb0dd7aabd3" target="_top" xlink:title=" ">
<polygon fill="white" stroke="#666666" points="825.5,-142 787.5,-142 787.5,-123 825.5,-123 825.5,-142"/>
<text text-anchor="middle" x="806.5" y="-130" font-family="Helvetica,sans-Serif" font-size="10.00">DOT</text>
</a>
</g>
</g>
<!-- Node25&#45;&gt;Node26 -->
<g id="edge35_Node000025_Node000026" class="edge">
<title>Node25&#45;&gt;Node26</title>
<g id="a_edge35_Node000025_Node000026"><a xlink:title=" ">
<path fill="none" stroke="#63b8ff" d="M663.83,-158.99C700.14,-152.2 747.64,-143.32 777.36,-137.76"/>
<polygon fill="#63b8ff" stroke="#63b8ff" points="778.27,-141.15 787.46,-135.87 776.98,-134.27 778.27,-141.15"/>
</a>
</g>
</g>
<!-- Node28 -->
<g id="Node000028" class="node">
<title>Node28</title>
<g id="a_Node000028"><a xlink:href="active__strain_8c.html#a04fa5da4f55d0663ad5ec7a3534de0af" target="_top" xlink:title="Update current midsurface geometry cache for one element.">
<polygon fill="white" stroke="#666666" points="473.5,-108 334.5,-108 334.5,-89 473.5,-89 473.5,-108"/>
<text text-anchor="middle" x="404" y="-96" font-family="Helvetica,sans-Serif" font-size="10.00">ElemUpdateGeomSubdiv</text>
</a>
</g>
</g>
<!-- Node27&#45;&gt;Node28 -->
<g id="edge39_Node000027_Node000028" class="edge">
<title>Node27&#45;&gt;Node28</title>
<g id="a_edge39_Node000027_Node000028"><a xlink:title=" ">
<path fill="none" stroke="#63b8ff" d="M238.51,-147.89C272.01,-137.83 324.74,-122 361.44,-110.98"/>
<polygon fill="#63b8ff" stroke="#63b8ff" points="362.76,-114.24 371.33,-108.01 360.75,-107.53 362.76,-114.24"/>
</a>
</g>
</g>
<!-- Node32 -->
<g id="Node000032" class="node">
<title>Node32</title>
<g id="a_Node000032"><a xlink:href="dmplex__geom_8c.html#a0e285c5152466ed0d16f3ccb265e2c99" target="_top" xlink:title="Broadcast updated vertex coordinates from owning ranks to all ranks that need them.">
<polygon fill="white" stroke="#666666" points="494,-167 314,-167 314,-148 494,-148 494,-167"/>
<text text-anchor="middle" x="404" y="-155" font-family="Helvetica,sans-Serif" font-size="10.00">UpdatePatchRemoteCoordinates_</text>
</a>
</g>
</g>
<!-- Node27&#45;&gt;Node32 -->
<g id="edge46_Node000027_Node000032" class="edge">
<title>Node27&#45;&gt;Node32</title>
<g id="a_edge46_Node000027_Node000032"><a xlink:title=" ">
<path fill="none" stroke="#63b8ff" d="M278.28,-157.5C286.55,-157.5 295.09,-157.5 303.65,-157.5"/>
<polygon fill="#63b8ff" stroke="#63b8ff" points="303.68,-161 313.68,-157.5 303.68,-154 303.68,-161"/>
</a>
</g>
</g>
<!-- Node29 -->
<g id="Node000029" class="node">
<title>Node29</title>
<g id="a_Node000029"><a xlink:href="active__strain_8c.html#a9ef026a24ded6fec7243fd82f49394c3" target="_top" xlink:title=" ">
<polygon fill="white" stroke="#666666" points="694,-102.5 530,-102.5 530,-72.5 694,-72.5 694,-102.5"/>
<text text-anchor="start" x="538" y="-90.5" font-family="Helvetica,sans-Serif" font-size="10.00">ElemUpdateGeomSubdivFrom</text>
<text text-anchor="middle" x="612" y="-79.5" font-family="Helvetica,sans-Serif" font-size="10.00">Coords_</text>
</a>
</g>
</g>
<!-- Node28&#45;&gt;Node29 -->
<g id="edge40_Node000028_Node000029" class="edge">
<title>Node28&#45;&gt;Node29</title>
<g id="a_edge40_Node000028_Node000029"><a xlink:title=" ">
<path fill="none" stroke="#63b8ff" d="M473.6,-94.84C488.38,-94.05 504.24,-93.2 519.73,-92.37"/>
<polygon fill="#63b8ff" stroke="#63b8ff" points="520.05,-95.86 529.85,-91.83 519.67,-88.87 520.05,-95.86"/>
</a>
</g>
</g>
<!-- Node29&#45;&gt;Node19 -->
<g id="edge41_Node000029_Node000019" class="edge">
<title>Node29&#45;&gt;Node19</title>
<g id="a_edge41_Node000029_Node000019"><a xlink:title=" ">
<path fill="none" stroke="#63b8ff" d="M694.08,-90.87C720.98,-91.99 749.5,-93.17 770.95,-94.06"/>
<polygon fill="#63b8ff" stroke="#63b8ff" points="771.04,-97.57 781.17,-94.49 771.33,-90.58 771.04,-97.57"/>
</a>
</g>
</g>
<!-- Node29&#45;&gt;Node21 -->
<g id="edge42_Node000029_Node000021" class="edge">
<title>Node29&#45;&gt;Node21</title>
<g id="a_edge42_Node000029_Node000021"><a xlink:title=" ">
<path fill="none" stroke="#63b8ff" d="M636.81,-102.6C659.88,-116.67 696.23,-137.39 730,-150.5 743.12,-155.59 758.07,-159.69 771.18,-162.75"/>
<polygon fill="#63b8ff" stroke="#63b8ff" points="770.7,-166.23 781.23,-164.99 772.22,-159.4 770.7,-166.23"/>
</a>
</g>
</g>
<!-- Node29&#45;&gt;Node26 -->
<g id="edge43_Node000029_Node000026" class="edge">
<title>Node29&#45;&gt;Node26</title>
<g id="a_edge43_Node000029_Node000026"><a xlink:title=" ">
<path fill="none" stroke="#63b8ff" d="M677.37,-102.55C711.37,-110.5 751.37,-119.85 777.51,-125.96"/>
<polygon fill="#63b8ff" stroke="#63b8ff" points="776.94,-129.42 787.48,-128.29 778.54,-122.6 776.94,-129.42"/>
</a>
</g>
</g>
<!-- Node30 -->
<g id="Node000030" class="node">
<title>Node30</title>
<g id="a_Node000030"><a xlink:href="active__strain_8c.html#af8eb71852e7e9e1290f27656e66736fe" target="_top" xlink:title=" ">
<polygon fill="white" stroke="#666666" points="883,-67.5 730,-67.5 730,-37.5 883,-37.5 883,-67.5"/>
<text text-anchor="start" x="738" y="-55.5" font-family="Helvetica,sans-Serif" font-size="10.00">SubdivGeomEnsureIrregular</text>
<text text-anchor="middle" x="806.5" y="-44.5" font-family="Helvetica,sans-Serif" font-size="10.00">Arrays_</text>
</a>
</g>
</g>
<!-- Node29&#45;&gt;Node30 -->
<g id="edge44_Node000029_Node000030" class="edge">
<title>Node29&#45;&gt;Node30</title>
<g id="a_edge44_Node000029_Node000030"><a xlink:title=" ">
<path fill="none" stroke="#63b8ff" d="M694.08,-72.76C702.57,-71.21 711.23,-69.64 719.77,-68.09"/>
<polygon fill="#63b8ff" stroke="#63b8ff" points="720.52,-71.51 729.73,-66.28 719.27,-64.62 720.52,-71.51"/>
</a>
</g>
</g>
<!-- Node31 -->
<g id="Node000031" class="node">
<title>Node31</title>
<g id="a_Node000031"><a xlink:href="math_8c.html#ac616709995f2ae60c4308ffa328337d7" target="_top" xlink:title=" ">
<polygon fill="white" stroke="#666666" points="827,-19 786,-19 786,0 827,0 827,-19"/>
<text text-anchor="middle" x="806.5" y="-7" font-family="Helvetica,sans-Serif" font-size="10.00">UNIT</text>
</a>
</g>
</g>
<!-- Node29&#45;&gt;Node31 -->
<g id="edge45_Node000029_Node000031" class="edge">
<title>Node29&#45;&gt;Node31</title>
<g id="a_edge45_Node000029_Node000031"><a xlink:title=" ">
<path fill="none" stroke="#63b8ff" d="M638.74,-72.44C661.96,-59.36 697.39,-40.66 730,-28.5 744.74,-23.01 761.67,-18.58 775.76,-15.39"/>
<polygon fill="#63b8ff" stroke="#63b8ff" points="776.87,-18.73 785.9,-13.19 775.39,-11.89 776.87,-18.73"/>
</a>
</g>
</g>
</g>
</svg>

<g id="navigator" transform="translate(0 0)" fill="#404254">
  <rect fill="#f2f5e9" fill-opacity="0.5" stroke="#606060" stroke-width=".5" x="0" y="0" width="60" height="60"/>
  <use id="zoomplus" xlink:href="#zoomPlus" x="17" y="9" onmousedown="handleZoom(evt,'in')"/>
  <use id="zoomminus" xlink:href="#zoomMin" x="42" y="9" onmousedown="handleZoom(evt,'out')"/>
  <use id="reset" xlink:href="#resetDef" x="30" y="36" onmousedown="handleReset()"/>
   <use id="arrowup" xlink:href="#arrowUp" x="0" y="0" onmousedown="handlePan(0,-1)"/>
  <use id="arrowright" xlink:href="#arrowRight" x="0" y="0" onmousedown="handlePan(1,0)"/>
  <use id="arrowdown" xlink:href="#arrowDown" x="0" y="0" onmousedown="handlePan(0,1)"/>
  <use id="arrowleft" xlink:href="#arrowLeft" x="0" y="0" onmousedown="handlePan(-1,0)"/>
</g>
<svg viewBox="0 0 15 15" width="100%" height="30px" preserveAspectRatio="xMaxYMin meet">
 <g id="arrow_out" transform="scale(0.3 0.3)">
  <a xlink:href="active__strain_8c_a693fb698122674ff7df6dd47ac75167c_cgraph_org.svg" target="_base">
   <rect id="button" ry="5" rx="5" y="6" x="6" height="38" width="38"
        fill="#f2f5e9" fill-opacity="0.5" stroke="#606060" stroke-width="1.0"/>
   <path id="arrow"
     d="M 11.500037,31.436501 C 11.940474,20.09759 22.043105,11.32322 32.158766,21.979434 L 37.068811,17.246167 C 37.068811,17.246167 37.088388,32 37.088388,32 L 22.160133,31.978069 C 22.160133,31.978069 26.997745,27.140456 26.997745,27.140456 C 18.528582,18.264221 13.291696,25.230495 11.500037,31.436501 z"
     style="fill:#404040;"/>
  </a>
 </g>
</svg>

<style type='text/css'>
<![CDATA[
[data-mouse-over-selected='false'] { opacity: 0.7; }
[data-mouse-over-selected='true']  { opacity: 1.0; }
]]>
</style>
<script type="application/ecmascript"><![CDATA[
document.addEventListener('DOMContentLoaded', (event) => {
  highlightEdges();
  highlightAdjacentNodes();
});
]]></script>
</svg>
