<?xml version="1.0" encoding="UTF-8" standalone="no"?>
<!DOCTYPE svg PUBLIC "-//W3C//DTD SVG 1.1//EN"
 "http://www.w3.org/Graphics/SVG/1.1/DTD/svg11.dtd">
<!-- Generated by graphviz version 2.43.0 (0)
 -->
<!-- Title: ElemC33Solve Pages: 1 -->
<svg width="473pt" height="303pt"
 viewBox="0.00 0.00 473.00 302.75" xmlns="http://www.w3.org/2000/svg" xmlns:xlink="http://www.w3.org/1999/xlink">
<g id="graph0" class="graph" transform="scale(1 1) rotate(0) translate(4 298.75)">
<title>ElemC33Solve</title>
<!-- Node1 -->
<g id="Node000001" class="node">
<title>Node1</title>
<g id="a_Node000001"><a xlink:title="Solve local thickness equation (C33) for one element.">
<polygon fill="#999999" stroke="#666666" points="87,-152.73 0,-152.73 0,-133.73 87,-133.73 87,-152.73"/>
<text text-anchor="middle" x="43.5" y="-140.73" font-family="Helvetica,sans-Serif" font-size="10.00">ElemC33Solve</text>
</a>
</g>
</g>
<!-- Node2 -->
<g id="Node000002" class="node">
<title>Node2</title>
<g id="a_Node000002"><a xlink:href="active__strain_8c.html#adca02351c999668546fc922e1806d090" target="_top" xlink:title="Compute elastic right Cauchy&#45;Green tensor for one element.">
<polygon fill="white" stroke="#666666" points="240,-265.73 125,-265.73 125,-246.73 240,-246.73 240,-265.73"/>
<text text-anchor="middle" x="182.5" y="-253.73" font-family="Helvetica,sans-Serif" font-size="10.00">ElemElasCGDefTens</text>
</a>
</g>
</g>
<!-- Node1&#45;&gt;Node2 -->
<g id="edge1_Node000001_Node000002" class="edge">
<title>Node1&#45;&gt;Node2</title>
<g id="a_edge1_Node000001_Node000002"><a xlink:title=" ">
<path fill="none" stroke="#63b8ff" d="M50.72,-152.84C62.73,-170.7 90.77,-209.29 123,-232.23 128.59,-236.21 134.93,-239.68 141.33,-242.65"/>
<polygon fill="#63b8ff" stroke="#63b8ff" points="140.1,-245.92 150.67,-246.64 142.85,-239.49 140.1,-245.92"/>
</a>
</g>
</g>
<!-- Node3 -->
<g id="Node000003" class="node">
<title>Node3</title>
<g id="a_Node000003"><a xlink:href="math_8c.html#a3f73e4cd9eab76eeee084eabf2b98ec9" target="_top" xlink:title=" ">
<polygon fill="white" stroke="#666666" points="338,-284.73 304,-284.73 304,-265.73 338,-265.73 338,-284.73"/>
<text text-anchor="middle" x="321" y="-272.73" font-family="Helvetica,sans-Serif" font-size="10.00">INV</text>
</a>
</g>
</g>
<!-- Node1&#45;&gt;Node3 -->
<g id="edge11_Node000001_Node000003" class="edge">
<title>Node1&#45;&gt;Node3</title>
<g id="a_edge11_Node000001_Node000003"><a xlink:title=" ">
<path fill="none" stroke="#63b8ff" d="M46.75,-152.89C53.31,-178.48 75.03,-247.95 123,-275.23 177.31,-306.12 254.42,-292.93 294.14,-282.84"/>
<polygon fill="#63b8ff" stroke="#63b8ff" points="295.09,-286.2 303.85,-280.24 293.28,-279.44 295.09,-286.2"/>
</a>
</g>
</g>
<!-- Node4 -->
<g id="Node000004" class="node">
<title>Node4</title>
<g id="a_Node000004"><a xlink:href="math_8c.html#a832ef37ebeba5c46cadc9c452be4141a" target="_top" xlink:title=" ">
<polygon fill="white" stroke="#666666" points="364,-227.73 278,-227.73 278,-208.73 364,-208.73 364,-227.73"/>
<text text-anchor="middle" x="321" y="-215.73" font-family="Helvetica,sans-Serif" font-size="10.00">LowerIndices2</text>
</a>
</g>
</g>
<!-- Node1&#45;&gt;Node4 -->
<g id="edge12_Node000001_Node000004" class="edge">
<title>Node1&#45;&gt;Node4</title>
<g id="a_edge12_Node000001_Node000004"><a xlink:title=" ">
<path fill="none" stroke="#63b8ff" d="M54.15,-152.76C68.04,-165.8 95.09,-188.8 123,-199.23 169.78,-216.73 226.94,-220.48 267.62,-220.46"/>
<polygon fill="#63b8ff" stroke="#63b8ff" points="267.88,-223.96 277.85,-220.37 267.82,-216.96 267.88,-223.96"/>
</a>
</g>
</g>
<!-- Node6 -->
<g id="Node000006" class="node">
<title>Node6</title>
<g id="a_Node000006"><a xlink:href="active__strain_8c.html#a4456f61d7effcb0451f1890e5bab63c6" target="_top" xlink:title="Compute elastic second Piola&#45;Kirchhoff stress for one element.">
<polygon fill="white" stroke="#666666" points="228.5,-189.73 136.5,-189.73 136.5,-170.73 228.5,-170.73 228.5,-189.73"/>
<text text-anchor="middle" x="182.5" y="-177.73" font-family="Helvetica,sans-Serif" font-size="10.00">ElemElasStress</text>
</a>
</g>
</g>
<!-- Node1&#45;&gt;Node6 -->
<g id="edge5_Node000001_Node000006" class="edge">
<title>Node1&#45;&gt;Node6</title>
<g id="a_edge5_Node000001_Node000006"><a xlink:title=" ">
<path fill="none" stroke="#63b8ff" d="M79.78,-152.76C96.91,-157.39 117.69,-163 135.99,-167.94"/>
<polygon fill="#63b8ff" stroke="#63b8ff" points="135.3,-171.38 145.86,-170.61 137.12,-164.62 135.3,-171.38"/>
</a>
</g>
</g>
<!-- Node8 -->
<g id="Node000008" class="node">
<title>Node8</title>
<g id="a_Node000008"><a xlink:href="active__strain_8c.html#af11cd9885b42c34a06fcbb8c5f4b21b1" target="_top" xlink:title="Compute elastic tangent tensor for one element.">
<polygon fill="white" stroke="#666666" points="242,-152.73 123,-152.73 123,-133.73 242,-133.73 242,-152.73"/>
<text text-anchor="middle" x="182.5" y="-140.73" font-family="Helvetica,sans-Serif" font-size="10.00">ElemElsTangMatTens</text>
</a>
</g>
</g>
<!-- Node1&#45;&gt;Node8 -->
<g id="edge7_Node000001_Node000008" class="edge">
<title>Node1&#45;&gt;Node8</title>
<g id="a_edge7_Node000001_Node000008"><a xlink:title=" ">
<path fill="none" stroke="#63b8ff" d="M87.1,-143.23C95.23,-143.23 103.93,-143.23 112.64,-143.23"/>
<polygon fill="#63b8ff" stroke="#63b8ff" points="112.83,-146.73 122.83,-143.23 112.83,-139.73 112.83,-146.73"/>
</a>
</g>
</g>
<!-- Node9 -->
<g id="Node000009" class="node">
<title>Node9</title>
<g id="a_Node000009"><a xlink:href="active__strain_8c.html#aeb76bfd4ce638c289f76c957e51e9749" target="_top" xlink:title="Assemble total (active + elastic) stress for one element.">
<polygon fill="white" stroke="#666666" points="225.5,-115.73 139.5,-115.73 139.5,-96.73 225.5,-96.73 225.5,-115.73"/>
<text text-anchor="middle" x="182.5" y="-103.73" font-family="Helvetica,sans-Serif" font-size="10.00">ElemTotStress</text>
</a>
</g>
</g>
<!-- Node1&#45;&gt;Node9 -->
<g id="edge9_Node000001_Node000009" class="edge">
<title>Node1&#45;&gt;Node9</title>
<g id="a_edge9_Node000001_Node000009"><a xlink:title=" ">
<path fill="none" stroke="#63b8ff" d="M79.78,-133.71C96.91,-129.08 117.69,-123.47 135.99,-118.53"/>
<polygon fill="#63b8ff" stroke="#63b8ff" points="137.12,-121.85 145.86,-115.86 135.3,-115.09 137.12,-121.85"/>
</a>
</g>
</g>
<!-- Node10 -->
<g id="Node000010" class="node">
<title>Node10</title>
<g id="a_Node000010"><a xlink:href="active__strain_8c.html#a6158bac3c35b481951a8c48563dc59ef" target="_top" xlink:title="Compute total tangent tensor for one element.">
<polygon fill="white" stroke="#666666" points="242,-78.73 123,-78.73 123,-59.73 242,-59.73 242,-78.73"/>
<text text-anchor="middle" x="182.5" y="-66.73" font-family="Helvetica,sans-Serif" font-size="10.00">ElemTotTangMatTens</text>
</a>
</g>
</g>
<!-- Node1&#45;&gt;Node10 -->
<g id="edge10_Node000001_Node000010" class="edge">
<title>Node1&#45;&gt;Node10</title>
<g id="a_edge10_Node000001_Node000010"><a xlink:title=" ">
<path fill="none" stroke="#63b8ff" d="M55.78,-133.69C70.45,-121.68 97.24,-101.08 123,-88.23 127.31,-86.08 131.92,-84.1 136.59,-82.29"/>
<polygon fill="#63b8ff" stroke="#63b8ff" points="137.96,-85.52 146.18,-78.83 135.58,-78.94 137.96,-85.52"/>
</a>
</g>
</g>
<!-- Node11 -->
<g id="Node000011" class="node">
<title>Node11</title>
<g id="a_Node000011"><a xlink:href="active__strain_8c.html#a9e8e9e018293087ec6b0ce58ce922403" target="_top" xlink:title="Update through&#45;thickness C33 contribution for one element.">
<polygon fill="white" stroke="#666666" points="223,-41.73 142,-41.73 142,-22.73 223,-22.73 223,-41.73"/>
<text text-anchor="middle" x="182.5" y="-29.73" font-family="Helvetica,sans-Serif" font-size="10.00">ModElemC33</text>
</a>
</g>
</g>
<!-- Node1&#45;&gt;Node11 -->
<g id="edge13_Node000001_Node000011" class="edge">
<title>Node1&#45;&gt;Node11</title>
<g id="a_edge13_Node000001_Node000011"><a xlink:title=" ">
<path fill="none" stroke="#63b8ff" d="M50.12,-133.64C61.52,-115.03 89.14,-73.87 123,-51.23 126.07,-49.19 129.37,-47.34 132.79,-45.69"/>
<polygon fill="#63b8ff" stroke="#63b8ff" points="134.21,-48.89 142.04,-41.74 131.46,-42.45 134.21,-48.89"/>
</a>
</g>
</g>
<!-- Node12 -->
<g id="Node000012" class="node">
<title>Node12</title>
<g id="a_Node000012"><a xlink:href="math_8c.html#a48112c11cc4a642f67482882a3fdb324" target="_top" xlink:title=" ">
<polygon fill="white" stroke="#666666" points="363,-59.73 279,-59.73 279,-40.73 363,-40.73 363,-59.73"/>
<text text-anchor="middle" x="321" y="-47.73" font-family="Helvetica,sans-Serif" font-size="10.00">RaiseIndices2</text>
</a>
</g>
</g>
<!-- Node1&#45;&gt;Node12 -->
<g id="edge15_Node000001_Node000012" class="edge">
<title>Node1&#45;&gt;Node12</title>
<g id="a_edge15_Node000001_Node000012"><a xlink:title=" ">
<path fill="none" stroke="#63b8ff" d="M46.8,-133.72C53.48,-108.5 75.47,-40.06 123,-13.23 178.74,18.22 256.07,-14.62 295.19,-35.6"/>
<polygon fill="#63b8ff" stroke="#63b8ff" points="293.84,-38.85 304.28,-40.64 297.23,-32.73 293.84,-38.85"/>
</a>
</g>
</g>
<!-- Node2&#45;&gt;Node3 -->
<g id="edge2_Node000002_Node000003" class="edge">
<title>Node2&#45;&gt;Node3</title>
<g id="a_edge2_Node000002_Node000003"><a xlink:title=" ">
<path fill="none" stroke="#63b8ff" d="M240.2,-264.13C258.71,-266.7 278.38,-269.44 293.57,-271.56"/>
<polygon fill="#63b8ff" stroke="#63b8ff" points="293.36,-275.06 303.75,-272.97 294.33,-268.13 293.36,-275.06"/>
</a>
</g>
</g>
<!-- Node2&#45;&gt;Node4 -->
<g id="edge3_Node000002_Node000004" class="edge">
<title>Node2&#45;&gt;Node4</title>
<g id="a_edge3_Node000002_Node000004"><a xlink:title=" ">
<path fill="none" stroke="#63b8ff" d="M217.94,-246.65C235.48,-241.76 257.01,-235.77 275.76,-230.55"/>
<polygon fill="#63b8ff" stroke="#63b8ff" points="276.87,-233.87 285.57,-227.82 274.99,-227.13 276.87,-233.87"/>
</a>
</g>
</g>
<!-- Node5 -->
<g id="Node000005" class="node">
<title>Node5</title>
<g id="a_Node000005"><a xlink:href="math_8c.html#acc306f8ca980a4b39cd6b29af1e2f92f" target="_top" xlink:title=" ">
<polygon fill="white" stroke="#666666" points="465,-115.73 400,-115.73 400,-96.73 465,-96.73 465,-115.73"/>
<text text-anchor="middle" x="432.5" y="-103.73" font-family="Helvetica,sans-Serif" font-size="10.00">MATMULT</text>
</a>
</g>
</g>
<!-- Node4&#45;&gt;Node5 -->
<g id="edge4_Node000004_Node000005" class="edge">
<title>Node4&#45;&gt;Node5</title>
<g id="a_edge4_Node000004_Node000005"><a xlink:title=" ">
<path fill="none" stroke="#63b8ff" d="M331.34,-208.69C349.92,-189.67 391.76,-146.88 415.06,-123.05"/>
<polygon fill="#63b8ff" stroke="#63b8ff" points="417.7,-125.36 422.19,-115.76 412.69,-120.46 417.7,-125.36"/>
</a>
</g>
</g>
<!-- Node7 -->
<g id="Node000007" class="node">
<title>Node7</title>
<g id="a_Node000007"><a xlink:href="math_8c.html#afc32b59c39265b9a2844b86d0e568fd3" target="_top" xlink:title=" ">
<polygon fill="white" stroke="#666666" points="348,-152.73 294,-152.73 294,-133.73 348,-133.73 348,-152.73"/>
<text text-anchor="middle" x="321" y="-140.73" font-family="Helvetica,sans-Serif" font-size="10.00">DET3x3</text>
</a>
</g>
</g>
<!-- Node6&#45;&gt;Node7 -->
<g id="edge6_Node000006_Node000007" class="edge">
<title>Node6&#45;&gt;Node7</title>
<g id="a_edge6_Node000006_Node000007"><a xlink:title=" ">
<path fill="none" stroke="#63b8ff" d="M218.65,-170.71C238.65,-165.28 263.66,-158.51 283.83,-153.04"/>
<polygon fill="#63b8ff" stroke="#63b8ff" points="284.85,-156.39 293.59,-150.39 283.02,-149.63 284.85,-156.39"/>
</a>
</g>
</g>
<!-- Node8&#45;&gt;Node7 -->
<g id="edge8_Node000008_Node000007" class="edge">
<title>Node8&#45;&gt;Node7</title>
<g id="a_edge8_Node000008_Node000007"><a xlink:title=" ">
<path fill="none" stroke="#63b8ff" d="M242.18,-143.23C256.29,-143.23 270.96,-143.23 283.71,-143.23"/>
<polygon fill="#63b8ff" stroke="#63b8ff" points="283.91,-146.73 293.91,-143.23 283.91,-139.73 283.91,-146.73"/>
</a>
</g>
</g>
<!-- Node11&#45;&gt;Node7 -->
<g id="edge14_Node000011_Node000007" class="edge">
<title>Node11&#45;&gt;Node7</title>
<g id="a_edge14_Node000011_Node000007"><a xlink:title=" ">
<path fill="none" stroke="#63b8ff" d="M223.28,-41.84C229.83,-44.34 236.32,-47.43 242,-51.23 271.26,-70.86 295.75,-104.42 309.1,-125.13"/>
<polygon fill="#63b8ff" stroke="#63b8ff" points="306.16,-127.02 314.43,-133.64 312.09,-123.31 306.16,-127.02"/>
</a>
</g>
</g>
<!-- Node12&#45;&gt;Node5 -->
<g id="edge16_Node000012_Node000005" class="edge">
<title>Node12&#45;&gt;Node5</title>
<g id="a_edge16_Node000012_Node000005"><a xlink:title=" ">
<path fill="none" stroke="#63b8ff" d="M341.07,-59.99C358.35,-68.82 384.01,-81.95 403.59,-91.96"/>
<polygon fill="#63b8ff" stroke="#63b8ff" points="402.15,-95.15 412.65,-96.59 405.34,-88.92 402.15,-95.15"/>
</a>
</g>
</g>
</g>
</svg>
