<?xml version="1.0" encoding="UTF-8" standalone="no"?>
<!DOCTYPE svg PUBLIC "-//W3C//DTD SVG 1.1//EN"
 "http://www.w3.org/Graphics/SVG/1.1/DTD/svg11.dtd">
<!-- Generated by graphviz version 2.43.0 (0)
 -->
<!-- Title: ElemUpdateGeom0Subdiv Pages: 1 -->
<svg width="590pt" height="168pt"
 viewBox="0.00 0.00 590.00 168.35" xmlns="http://www.w3.org/2000/svg" xmlns:xlink="http://www.w3.org/1999/xlink">
<g id="graph0" class="graph" transform="scale(1 1) rotate(0) translate(4 164.35)">
<title>ElemUpdateGeom0Subdiv</title>
<!-- Node1 -->
<g id="Node000001" class="node">
<title>Node1</title>
<g id="a_Node000001"><a xlink:title="Update reference midsurface geometry cache for one element.">
<polygon fill="#999999" stroke="#666666" points="582,-76 437,-76 437,-57 582,-57 582,-76"/>
<text text-anchor="middle" x="509.5" y="-64" font-family="Helvetica,sans-Serif" font-size="10.00">ElemUpdateGeom0Subdiv</text>
</a>
</g>
</g>
<!-- Node2 -->
<g id="Node000002" class="node">
<title>Node2</title>
<g id="a_Node000002"><a xlink:href="dmplex__geom_8c.html#aeca513213e67a07a712cc41e8c6412ea" target="_top" xlink:title="One&#45;time DMPlex geometry setup.">
<polygon fill="white" stroke="#666666" points="401,-133 264,-133 264,-114 401,-114 401,-133"/>
<text text-anchor="middle" x="332.5" y="-121" font-family="Helvetica,sans-Serif" font-size="10.00">FEM_DMPlexGeomSetup</text>
</a>
</g>
</g>
<!-- Node1&#45;&gt;Node2 -->
<g id="edge1_Node000001_Node000002" class="edge">
<title>Node1&#45;&gt;Node2</title>
<g id="a_edge1_Node000001_Node000002"><a xlink:title=" ">
<path fill="none" stroke="#63b8ff" d="M469.64,-79.16C437.39,-89.66 392.2,-104.38 362.89,-113.93"/>
<polygon fill="#63b8ff" stroke="#63b8ff" points="470.78,-82.47 479.21,-76.04 468.62,-75.81 470.78,-82.47"/>
</a>
</g>
</g>
<!-- Node5 -->
<g id="Node000005" class="node">
<title>Node5</title>
<g id="a_Node000005"><a xlink:href="cuda__processes_8c.html#a627a27228923fbc3e63f0f4e1c5aa765" target="_top" xlink:title=" ">
<polygon fill="white" stroke="#666666" points="207,-95 98,-95 98,-76 207,-76 207,-95"/>
<text text-anchor="middle" x="152.5" y="-83" font-family="Helvetica,sans-Serif" font-size="10.00">RunCudaProcesses</text>
</a>
</g>
</g>
<!-- Node1&#45;&gt;Node5 -->
<g id="edge4_Node000001_Node000005" class="edge">
<title>Node1&#45;&gt;Node5</title>
<g id="a_edge4_Node000001_Node000005"><a xlink:title=" ">
<path fill="none" stroke="#63b8ff" d="M426.48,-70.89C358.97,-74.5 265.22,-79.52 207.02,-82.64"/>
<polygon fill="#63b8ff" stroke="#63b8ff" points="426.86,-74.37 436.66,-70.34 426.49,-67.38 426.86,-74.37"/>
</a>
</g>
</g>
<!-- Node6 -->
<g id="Node000006" class="node">
<title>Node6</title>
<g id="a_Node000006"><a xlink:href="kokkos__processes_8c.html#a3f18ca1bc94cfbc69753dccb70a43699" target="_top" xlink:title=" ">
<polygon fill="white" stroke="#666666" points="392,-57 273,-57 273,-38 392,-38 392,-57"/>
<text text-anchor="middle" x="332.5" y="-45" font-family="Helvetica,sans-Serif" font-size="10.00">RunKokkosProcesses</text>
</a>
</g>
</g>
<!-- Node1&#45;&gt;Node6 -->
<g id="edge6_Node000001_Node000006" class="edge">
<title>Node1&#45;&gt;Node6</title>
<g id="a_edge6_Node000001_Node000006"><a xlink:title=" ">
<path fill="none" stroke="#63b8ff" d="M426.67,-57.62C415.06,-56.35 403.31,-55.08 392.26,-53.88"/>
<polygon fill="#63b8ff" stroke="#63b8ff" points="426.5,-61.12 436.82,-58.72 427.25,-54.16 426.5,-61.12"/>
</a>
</g>
</g>
<!-- Node7 -->
<g id="Node000007" class="node">
<title>Node7</title>
<g id="a_Node000007"><a xlink:href="dmplex__geom_8c.html#aa2b24de348fff4079de659ff63ba9b85" target="_top" xlink:title="Synchronise remote coordinates and evaluate the geometry kernel for all local cells.">
<polygon fill="white" stroke="#666666" points="390,-20 275,-20 275,-1 390,-1 390,-20"/>
<text text-anchor="middle" x="332.5" y="-8" font-family="Helvetica,sans-Serif" font-size="10.00">RunLocalGeometry_</text>
</a>
</g>
</g>
<!-- Node1&#45;&gt;Node7 -->
<g id="edge8_Node000001_Node000007" class="edge">
<title>Node1&#45;&gt;Node7</title>
<g id="a_edge8_Node000001_Node000007"><a xlink:title=" ">
<path fill="none" stroke="#63b8ff" d="M473.63,-53.39C452.71,-45.71 425.49,-36.08 401,-28.5 391.5,-25.56 381.16,-22.66 371.49,-20.07"/>
<polygon fill="#63b8ff" stroke="#63b8ff" points="472.47,-56.69 483.06,-56.87 474.89,-50.12 472.47,-56.69"/>
</a>
</g>
</g>
<!-- Node3 -->
<g id="Node000003" class="node">
<title>Node3</title>
<g id="a_Node000003"><a xlink:href="main_8c.html#a3c04138a5bfe5d72780bb7e82a18e627" target="_top" xlink:title=" ">
<polygon fill="white" stroke="#666666" points="41,-76 0,-76 0,-57 41,-57 41,-76"/>
<text text-anchor="middle" x="20.5" y="-64" font-family="Helvetica,sans-Serif" font-size="10.00">main</text>
</a>
</g>
</g>
<!-- Node2&#45;&gt;Node3 -->
<g id="edge2_Node000002_Node000003" class="edge">
<title>Node2&#45;&gt;Node3</title>
<g id="a_edge2_Node000002_Node000003"><a xlink:title=" ">
<path fill="none" stroke="#63b8ff" d="M297.55,-136.41C246.61,-153.54 148.75,-177.67 77,-141.5 49.52,-127.65 32.26,-93.04 25.18,-76.12"/>
<polygon fill="#63b8ff" stroke="#63b8ff" points="298.79,-139.68 307.08,-133.09 296.49,-133.07 298.79,-139.68"/>
</a>
</g>
</g>
<!-- Node4 -->
<g id="Node000004" class="node">
<title>Node4</title>
<g id="a_Node000004"><a xlink:href="dmplex__geom_8c.html#af897ef006be5d3cc2be53b272a4f5a61" target="_top" xlink:title="Drop&#45;in geometry call: setup + update + destroy in one shot.">
<polygon fill="white" stroke="#666666" points="220,-132 85,-132 85,-113 220,-113 220,-132"/>
<text text-anchor="middle" x="152.5" y="-120" font-family="Helvetica,sans-Serif" font-size="10.00">RunDMPlexGeomSubdiv</text>
</a>
</g>
</g>
<!-- Node2&#45;&gt;Node4 -->
<g id="edge3_Node000002_Node000004" class="edge">
<title>Node2&#45;&gt;Node4</title>
<g id="a_edge3_Node000002_Node000004"><a xlink:title=" ">
<path fill="none" stroke="#63b8ff" d="M253.75,-123.06C242.54,-123 231.08,-122.94 220.12,-122.87"/>
<polygon fill="#63b8ff" stroke="#63b8ff" points="253.93,-126.56 263.95,-123.12 253.97,-119.56 253.93,-126.56"/>
</a>
</g>
</g>
<!-- Node5&#45;&gt;Node3 -->
<g id="edge5_Node000005_Node000003" class="edge">
<title>Node5&#45;&gt;Node3</title>
<g id="a_edge5_Node000005_Node000003"><a xlink:title=" ">
<path fill="none" stroke="#63b8ff" d="M87.94,-76.21C70.99,-73.73 53.91,-71.24 41.31,-69.4"/>
<polygon fill="#63b8ff" stroke="#63b8ff" points="87.47,-79.68 97.87,-77.66 88.48,-72.75 87.47,-79.68"/>
</a>
</g>
</g>
<!-- Node6&#45;&gt;Node3 -->
<g id="edge7_Node000006_Node000003" class="edge">
<title>Node6&#45;&gt;Node3</title>
<g id="a_edge7_Node000006_Node000003"><a xlink:title=" ">
<path fill="none" stroke="#63b8ff" d="M262.6,-51.72C191.45,-56.08 84.85,-62.62 41.2,-65.29"/>
<polygon fill="#63b8ff" stroke="#63b8ff" points="263.06,-55.2 272.83,-51.1 262.63,-48.21 263.06,-55.2"/>
</a>
</g>
</g>
<!-- Node8 -->
<g id="Node000008" class="node">
<title>Node8</title>
<g id="a_Node000008"><a xlink:href="dmplex__geom_8c.html#ac4ecb4d172bee5f7c59a9fdf2680bb51" target="_top" xlink:title="Benchmark: run the full distributed DMPlex geometry pipeline for all bodies.">
<polygon fill="white" stroke="#666666" points="228,-19 77,-19 77,0 228,0 228,-19"/>
<text text-anchor="middle" x="152.5" y="-7" font-family="Helvetica,sans-Serif" font-size="10.00">RunDMPlexGeomProcesses</text>
</a>
</g>
</g>
<!-- Node7&#45;&gt;Node8 -->
<g id="edge9_Node000007_Node000008" class="edge">
<title>Node7&#45;&gt;Node8</title>
<g id="a_edge9_Node000007_Node000008"><a xlink:title=" ">
<path fill="none" stroke="#63b8ff" d="M264.48,-10.12C252.66,-10.06 240.3,-9.99 228.3,-9.92"/>
<polygon fill="#63b8ff" stroke="#63b8ff" points="264.67,-13.62 274.69,-10.18 264.71,-6.62 264.67,-13.62"/>
</a>
</g>
</g>
<!-- Node8&#45;&gt;Node3 -->
<g id="edge10_Node000008_Node000003" class="edge">
<title>Node8&#45;&gt;Node3</title>
<g id="a_edge10_Node000008_Node000003"><a xlink:title=" ">
<path fill="none" stroke="#63b8ff" d="M106.66,-22.14C96.73,-25.43 86.38,-29.26 77,-33.5 62.29,-40.14 46.57,-49.75 35.63,-56.89"/>
<polygon fill="#63b8ff" stroke="#63b8ff" points="107.94,-25.41 116.4,-19.03 105.8,-18.74 107.94,-25.41"/>
</a>
</g>
</g>
</g>
</svg>
