<?xml version="1.0" encoding="UTF-8" standalone="no"?>
<!DOCTYPE svg PUBLIC "-//W3C//DTD SVG 1.1//EN"
 "http://www.w3.org/Graphics/SVG/1.1/DTD/svg11.dtd">
<!-- Generated by graphviz version 2.43.0 (0)
 -->
<!-- Title: FInternalAct Pages: 1 -->
<!--zoomable 679 -->

<svg id="main" version="1.1" xmlns="http://www.w3.org/2000/svg" xmlns:xlink="http://www.w3.org/1999/xlink" xml:space="preserve" onload="init(evt)">
<style type="text/css"><![CDATA[
.node, .edge {opacity: 0.7;}
.node.selected, .edge.selected {opacity: 1;}
.edge:hover path { stroke: red; }
.edge:hover polygon { stroke: red; fill: red; }
]]></style>

<defs>
  <circle id="rim" cx="0" cy="0" r="7"/>
  <circle id="rim2" cx="0" cy="0" r="3.5"/>
  <g id="zoomPlus">
    <use xlink:href="#rim" fill="#404040"><set attributeName="fill" to="#808080" begin="zoomplus.mouseover" end="zoomplus.mouseout"/></use>
    <path d="M-4,0h8M0,-4v8" fill="none" stroke="white" stroke-width="1.5" pointer-events="none"/>
  </g>
  <g id="zoomMin">
    <use xlink:href="#rim" fill="#404040"><set attributeName="fill" to="#808080" begin="zoomminus.mouseover" end="zoomminus.mouseout"/></use>
    <path d="M-4,0h8" fill="none" stroke="white" stroke-width="1.5" pointer-events="none"/>
  </g>
  <g id="arrowUp" transform="translate(30 24)">
    <use xlink:href="#rim"/>
    <path pointer-events="none" fill="none" stroke="white" stroke-width="1.5" d="M0,-3.0v7 M-2.5,-0.5L0,-3.0L2.5,-0.5"/>
  </g>
  <g id="arrowRight" transform="rotate(90) translate(36 -43)">
    <use xlink:href="#rim"/>
    <path pointer-events="none" fill="none" stroke="white" stroke-width="1.5" d="M0,-3.0v7 M-2.5,-0.5L0,-3.0L2.5,-0.5"/>
  </g>
  <g id="arrowDown" transform="rotate(180) translate(-30 -48)">
    <use xlink:href="#rim"/>
    <path pointer-events="none" fill="none" stroke="white" stroke-width="1.5" d="M0,-3.0v7 M-2.5,-0.5L0,-3.0L2.5,-0.5"/>
  </g>
  <g id="arrowLeft" transform="rotate(270) translate(-36 17)">
    <use xlink:href="#rim"/>
    <path pointer-events="none" fill="none" stroke="white" stroke-width="1.5" d="M0,-3.0v7 M-2.5,-0.5L0,-3.0L2.5,-0.5"/>
  </g>
  <g id="resetDef">
    <use xlink:href="#rim2" fill="#404040"><set attributeName="fill" to="#808080" begin="reset.mouseover" end="reset.mouseout"/></use>
  </g>
</defs>
<script type="application/ecmascript">
var viewWidth = 1003;
var viewHeight = 679;
var sectionId = 'dynsection-35';
</script>
<script type="application/ecmascript" xlink:href="svg.min.js"/>
<svg id="graph" class="graph">
<g id="viewport">
<title>FInternalAct</title>
<!-- Node1 -->
<g id="Node000001" class="node">
<title>Node1</title>
<g id="a_Node000001"><a xlink:title="Assemble global internal force vector for active&#45;strain mechanics.">
<polygon fill="#999999" stroke="#666666" points="76,-183.5 0,-183.5 0,-164.5 76,-164.5 76,-183.5"/>
<text text-anchor="middle" x="38" y="-171.5" font-family="Helvetica,sans-Serif" font-size="10.00">FInternalAct</text>
</a>
</g>
</g>
<!-- Node2 -->
<g id="Node000002" class="node">
<title>Node2</title>
<g id="a_Node000002"><a xlink:href="active__strain_8c.html#ace13f65688712f8ea397a734d66954ad" target="_top" xlink:title="Assemble element internal force vector into Fb_out.">
<polygon fill="white" stroke="#666666" points="763.5,-145.5 684.5,-145.5 684.5,-126.5 763.5,-126.5 763.5,-145.5"/>
<text text-anchor="middle" x="724" y="-133.5" font-family="Helvetica,sans-Serif" font-size="10.00">ElemUpdFint</text>
</a>
</g>
</g>
<!-- Node1&#45;&gt;Node2 -->
<g id="edge1_Node000001_Node000002" class="edge">
<title>Node1&#45;&gt;Node2</title>
<g id="a_edge1_Node000001_Node000002"><a xlink:title=" ">
<path fill="none" stroke="#63b8ff" d="M76.17,-169.98C117.38,-165.67 185.87,-158.9 245,-155 401.68,-144.67 587.65,-139.23 674.19,-137.1"/>
<polygon fill="#63b8ff" stroke="#63b8ff" points="674.33,-140.6 684.24,-136.85 674.16,-133.6 674.33,-140.6"/>
</a>
</g>
</g>
<!-- Node6 -->
<g id="Node000006" class="node">
<title>Node6</title>
<g id="a_Node000006"><a xlink:href="active__strain_8c.html#a693fb698122674ff7df6dd47ac75167c" target="_top" xlink:title="Run per&#45;element precomputations before global internal&#45;force assembly.">
<polygon fill="white" stroke="#666666" points="209,-322.5 112,-322.5 112,-303.5 209,-303.5 209,-322.5"/>
<text text-anchor="middle" x="160.5" y="-310.5" font-family="Helvetica,sans-Serif" font-size="10.00">FInternalPreCalc</text>
</a>
</g>
</g>
<!-- Node1&#45;&gt;Node6 -->
<g id="edge5_Node000001_Node000006" class="edge">
<title>Node1&#45;&gt;Node6</title>
<g id="a_edge5_Node000001_Node000006"><a xlink:title=" ">
<path fill="none" stroke="#63b8ff" d="M47.28,-183.55C67.32,-206.67 118.64,-265.87 144.35,-295.52"/>
<polygon fill="#63b8ff" stroke="#63b8ff" points="141.96,-298.12 151.16,-303.38 147.25,-293.53 141.96,-298.12"/>
</a>
</g>
</g>
<!-- Node3 -->
<g id="Node000003" class="node">
<title>Node3</title>
<g id="a_Node000003"><a xlink:href="math_8c.html#a7ef9263b0a3a10c2cd00bb4dc0059d70" target="_top" xlink:title=" ">
<polygon fill="white" stroke="#666666" points="943.5,-107.5 893.5,-107.5 893.5,-88.5 943.5,-88.5 943.5,-107.5"/>
<text text-anchor="middle" x="918.5" y="-95.5" font-family="Helvetica,sans-Serif" font-size="10.00">AMULT</text>
</a>
</g>
</g>
<!-- Node2&#45;&gt;Node3 -->
<g id="edge2_Node000002_Node000003" class="edge">
<title>Node2&#45;&gt;Node3</title>
<g id="a_edge2_Node000002_Node000003"><a xlink:title=" ">
<path fill="none" stroke="#63b8ff" d="M763.96,-128.31C798.95,-121.4 849.83,-111.36 883.29,-104.75"/>
<polygon fill="#63b8ff" stroke="#63b8ff" points="884.36,-108.11 893.49,-102.74 883.01,-101.24 884.36,-108.11"/>
</a>
</g>
</g>
<!-- Node4 -->
<g id="Node000004" class="node">
<title>Node4</title>
<g id="a_Node000004"><a xlink:href="math_8c.html#a870a70f4845a041458d9bdb0dd7aabd3" target="_top" xlink:title=" ">
<polygon fill="white" stroke="#666666" points="937.5,-145.5 899.5,-145.5 899.5,-126.5 937.5,-126.5 937.5,-145.5"/>
<text text-anchor="middle" x="918.5" y="-133.5" font-family="Helvetica,sans-Serif" font-size="10.00">DOT</text>
</a>
</g>
</g>
<!-- Node2&#45;&gt;Node4 -->
<g id="edge3_Node000002_Node000004" class="edge">
<title>Node2&#45;&gt;Node4</title>
<g id="a_edge3_Node000002_Node000004"><a xlink:title=" ">
<path fill="none" stroke="#63b8ff" d="M763.96,-136C801.07,-136 856.05,-136 889.16,-136"/>
<polygon fill="#63b8ff" stroke="#63b8ff" points="889.5,-139.5 899.5,-136 889.5,-132.5 889.5,-139.5"/>
</a>
</g>
</g>
<!-- Node5 -->
<g id="Node000005" class="node">
<title>Node5</title>
<g id="a_Node000005"><a xlink:href="math_8c.html#ae18926821a703a2c5b281bd890b7e6a0" target="_top" xlink:title=" ">
<polygon fill="white" stroke="#666666" points="939,-257.5 898,-257.5 898,-238.5 939,-238.5 939,-257.5"/>
<text text-anchor="middle" x="918.5" y="-245.5" font-family="Helvetica,sans-Serif" font-size="10.00">PLUS</text>
</a>
</g>
</g>
<!-- Node2&#45;&gt;Node5 -->
<g id="edge4_Node000002_Node000005" class="edge">
<title>Node2&#45;&gt;Node5</title>
<g id="a_edge4_Node000002_Node000005"><a xlink:title=" ">
<path fill="none" stroke="#63b8ff" d="M763.76,-138.44C778.04,-140.85 793.71,-145.43 806,-154 830.27,-170.93 820.01,-190.21 842,-210 855.42,-222.08 873.38,-231.33 888.42,-237.67"/>
<polygon fill="#63b8ff" stroke="#63b8ff" points="887.22,-240.96 897.8,-241.42 889.82,-234.46 887.22,-240.96"/>
</a>
</g>
</g>
<!-- Node7 -->
<g id="Node000007" class="node">
<title>Node7</title>
<g id="a_Node000007"><a xlink:href="active__strain_8c.html#ade5fbd2ac288952d9b05edaa3cfab167" target="_top" xlink:title="Compute active deformation gradient for one element.">
<polygon fill="white" stroke="#666666" points="565,-633.5 467,-633.5 467,-614.5 565,-614.5 565,-633.5"/>
<text text-anchor="middle" x="516" y="-621.5" font-family="Helvetica,sans-Serif" font-size="10.00">ElemActDefGrad</text>
</a>
</g>
</g>
<!-- Node6&#45;&gt;Node7 -->
<g id="edge6_Node000006_Node000007" class="edge">
<title>Node6&#45;&gt;Node7</title>
<g id="a_edge6_Node000006_Node000007"><a xlink:title=" ">
<path fill="none" stroke="#63b8ff" d="M164.62,-322.51C173.55,-348.65 201.47,-422.79 245,-470 311.43,-542.05 419.47,-589.37 476.67,-610.79"/>
<polygon fill="#63b8ff" stroke="#63b8ff" points="475.81,-614.21 486.4,-614.37 478.22,-607.64 475.81,-614.21"/>
</a>
</g>
</g>
<!-- Node13 -->
<g id="Node000013" class="node">
<title>Node13</title>
<g id="a_Node000013"><a xlink:href="active__strain_8c.html#a3017cdcf59a9d394ac18948cec6e94cf" target="_top" xlink:title="Solve local thickness equation (C33) for one element.">
<polygon fill="white" stroke="#666666" points="361,-388.5 274,-388.5 274,-369.5 361,-369.5 361,-388.5"/>
<text text-anchor="middle" x="317.5" y="-376.5" font-family="Helvetica,sans-Serif" font-size="10.00">ElemC33Solve</text>
</a>
</g>
</g>
<!-- Node6&#45;&gt;Node13 -->
<g id="edge13_Node000006_Node000013" class="edge">
<title>Node6&#45;&gt;Node13</title>
<g id="a_edge13_Node000006_Node000013"><a xlink:title=" ">
<path fill="none" stroke="#63b8ff" d="M184.04,-322.6C210.52,-333.87 254.63,-352.65 284.61,-365.42"/>
<polygon fill="#63b8ff" stroke="#63b8ff" points="283.61,-368.8 294.19,-369.5 286.36,-362.36 283.61,-368.8"/>
</a>
</g>
</g>
<!-- Node22 -->
<g id="Node000022" class="node">
<title>Node22</title>
<g id="a_Node000022"><a xlink:href="active__strain_8c.html#ab28c3cc7b872159806c167f8162346ea" target="_top" xlink:title="Compute right Cauchy&#45;Green tensor and its inverse for one element.">
<polygon fill="white" stroke="#666666" points="563.5,-557.5 468.5,-557.5 468.5,-538.5 563.5,-538.5 563.5,-557.5"/>
<text text-anchor="middle" x="516" y="-545.5" font-family="Helvetica,sans-Serif" font-size="10.00">ElemCGDefTens</text>
</a>
</g>
</g>
<!-- Node6&#45;&gt;Node22 -->
<g id="edge29_Node000006_Node000022" class="edge">
<title>Node6&#45;&gt;Node22</title>
<g id="a_edge29_Node000006_Node000022"><a xlink:title=" ">
<path fill="none" stroke="#63b8ff" d="M169.83,-322.96C200.01,-358.25 308.04,-478.05 426,-530 436.05,-534.43 447.22,-537.78 458.16,-540.31"/>
<polygon fill="#63b8ff" stroke="#63b8ff" points="457.6,-543.77 468.1,-542.41 459.05,-536.92 457.6,-543.77"/>
</a>
</g>
</g>
<!-- Node23 -->
<g id="Node000023" class="node">
<title>Node23</title>
<g id="a_Node000023"><a xlink:href="active__strain_8c.html#a993ef27fda81bb402cba4aa14fa9b51a" target="_top" xlink:title="Build current covariant/contravariant basis vectors for one element.">
<polygon fill="white" stroke="#666666" points="558,-220.5 474,-220.5 474,-201.5 558,-201.5 558,-220.5"/>
<text text-anchor="middle" x="516" y="-208.5" font-family="Helvetica,sans-Serif" font-size="10.00">ElemUpdateG</text>
</a>
</g>
</g>
<!-- Node6&#45;&gt;Node23 -->
<g id="edge32_Node000006_Node000023" class="edge">
<title>Node6&#45;&gt;Node23</title>
<g id="a_edge32_Node000006_Node000023"><a xlink:title=" ">
<path fill="none" stroke="#63b8ff" d="M188.25,-303.44C235.69,-286.74 337.85,-251.84 426,-229 438.04,-225.88 451.12,-222.97 463.44,-220.44"/>
<polygon fill="#63b8ff" stroke="#63b8ff" points="464.46,-223.81 473.58,-218.41 463.09,-216.95 464.46,-223.81"/>
</a>
</g>
</g>
<!-- Node29 -->
<g id="Node000029" class="node">
<title>Node29</title>
<g id="a_Node000029"><a xlink:href="dmplex__geom_8c.html#af7fb8fc68c27b224f0458d0c42911fe6" target="_top" xlink:title="Per&#45;SNES&#45;iteration geometry update.">
<polygon fill="white" stroke="#666666" points="390,-183.5 245,-183.5 245,-164.5 390,-164.5 390,-183.5"/>
<text text-anchor="middle" x="317.5" y="-171.5" font-family="Helvetica,sans-Serif" font-size="10.00">FEM_DMPlexGeomUpdate</text>
</a>
</g>
</g>
<!-- Node6&#45;&gt;Node29 -->
<g id="edge43_Node000006_Node000029" class="edge">
<title>Node6&#45;&gt;Node29</title>
<g id="a_edge43_Node000006_Node000029"><a xlink:title=" ">
<path fill="none" stroke="#63b8ff" d="M172.15,-303.45C198.26,-280.04 265.65,-219.6 298.27,-190.35"/>
<polygon fill="#63b8ff" stroke="#63b8ff" points="300.66,-192.9 305.77,-183.62 295.99,-187.69 300.66,-192.9"/>
</a>
</g>
</g>
<!-- Node8 -->
<g id="Node000008" class="node">
<title>Node8</title>
<g id="a_Node000008"><a xlink:href="active__strain_8c.html#a10582f130c0a0d6bb1514569bb154352" target="_top" xlink:title="Return the active&#45;strain gamma at the current time step.">
<polygon fill="white" stroke="#666666" points="770,-633.5 678,-633.5 678,-614.5 770,-614.5 770,-633.5"/>
<text text-anchor="middle" x="724" y="-621.5" font-family="Helvetica,sans-Serif" font-size="10.00">GammaOfTime</text>
</a>
</g>
</g>
<!-- Node7&#45;&gt;Node8 -->
<g id="edge7_Node000007_Node000008" class="edge">
<title>Node7&#45;&gt;Node8</title>
<g id="a_edge7_Node000007_Node000008"><a xlink:title=" ">
<path fill="none" stroke="#63b8ff" d="M565.04,-624C595.72,-624 635.6,-624 667.62,-624"/>
<polygon fill="#63b8ff" stroke="#63b8ff" points="667.71,-627.5 677.71,-624 667.71,-620.5 667.71,-627.5"/>
</a>
</g>
</g>
<!-- Node9 -->
<g id="Node000009" class="node">
<title>Node9</title>
<g id="a_Node000009"><a xlink:href="math_8c.html#a3f73e4cd9eab76eeee084eabf2b98ec9" target="_top" xlink:title=" ">
<polygon fill="white" stroke="#666666" points="741,-388.5 707,-388.5 707,-369.5 741,-369.5 741,-388.5"/>
<text text-anchor="middle" x="724" y="-376.5" font-family="Helvetica,sans-Serif" font-size="10.00">INV</text>
</a>
</g>
</g>
<!-- Node7&#45;&gt;Node9 -->
<g id="edge8_Node000007_Node000009" class="edge">
<title>Node7&#45;&gt;Node9</title>
<g id="a_edge8_Node000007_Node000009"><a xlink:title=" ">
<path fill="none" stroke="#63b8ff" d="M540.69,-614.35C560.78,-605.03 588.96,-589.08 606,-567 637.69,-525.95 614.36,-499.88 642,-456 657.55,-431.31 682.79,-409.06 700.96,-394.9"/>
<polygon fill="#63b8ff" stroke="#63b8ff" points="703.38,-397.45 709.24,-388.62 699.16,-391.87 703.38,-397.45"/>
</a>
</g>
</g>
<!-- Node10 -->
<g id="Node000010" class="node">
<title>Node10</title>
<g id="a_Node000010"><a xlink:href="math_8c.html#acc306f8ca980a4b39cd6b29af1e2f92f" target="_top" xlink:title=" ">
<polygon fill="white" stroke="#666666" points="951,-557.5 886,-557.5 886,-538.5 951,-538.5 951,-557.5"/>
<text text-anchor="middle" x="918.5" y="-545.5" font-family="Helvetica,sans-Serif" font-size="10.00">MATMULT</text>
</a>
</g>
</g>
<!-- Node7&#45;&gt;Node10 -->
<g id="edge9_Node000007_Node000010" class="edge">
<title>Node7&#45;&gt;Node10</title>
<g id="a_edge9_Node000007_Node000010"><a xlink:title=" ">
<path fill="none" stroke="#63b8ff" d="M565.31,-614.83C644.69,-599.77 801.35,-570.04 876.02,-555.87"/>
<polygon fill="#63b8ff" stroke="#63b8ff" points="876.83,-559.28 886,-553.98 875.52,-552.4 876.83,-559.28"/>
</a>
</g>
</g>
<!-- Node11 -->
<g id="Node000011" class="node">
<title>Node11</title>
<g id="a_Node000011"><a xlink:href="math_8c.html#a48112c11cc4a642f67482882a3fdb324" target="_top" xlink:title=" ">
<polygon fill="white" stroke="#666666" points="766,-557.5 682,-557.5 682,-538.5 766,-538.5 766,-557.5"/>
<text text-anchor="middle" x="724" y="-545.5" font-family="Helvetica,sans-Serif" font-size="10.00">RaiseIndices2</text>
</a>
</g>
</g>
<!-- Node7&#45;&gt;Node11 -->
<g id="edge10_Node000007_Node000011" class="edge">
<title>Node7&#45;&gt;Node11</title>
<g id="a_edge10_Node000007_Node000011"><a xlink:title=" ">
<path fill="none" stroke="#63b8ff" d="M565.39,-614.67C578.94,-611.08 593.39,-606.28 606,-600 624.14,-590.96 623.97,-581.26 642,-572 651.39,-567.18 661.91,-563.17 672.17,-559.9"/>
<polygon fill="#63b8ff" stroke="#63b8ff" points="673.32,-563.21 681.89,-556.98 671.31,-556.5 673.32,-563.21"/>
</a>
</g>
</g>
<!-- Node12 -->
<g id="Node000012" class="node">
<title>Node12</title>
<g id="a_Node000012"><a xlink:href="math_8c.html#af0179b195a2871aea7107cba32d42211" target="_top" xlink:title=" ">
<polygon fill="white" stroke="#666666" points="749,-670.5 699,-670.5 699,-651.5 749,-651.5 749,-670.5"/>
<text text-anchor="middle" x="724" y="-658.5" font-family="Helvetica,sans-Serif" font-size="10.00">TRANS</text>
</a>
</g>
</g>
<!-- Node7&#45;&gt;Node12 -->
<g id="edge12_Node000007_Node000012" class="edge">
<title>Node7&#45;&gt;Node12</title>
<g id="a_edge12_Node000007_Node000012"><a xlink:title=" ">
<path fill="none" stroke="#63b8ff" d="M565.04,-632.63C603.07,-639.46 655.24,-648.83 689.04,-654.9"/>
<polygon fill="#63b8ff" stroke="#63b8ff" points="688.44,-658.35 698.9,-656.67 689.68,-651.46 688.44,-658.35"/>
</a>
</g>
</g>
<!-- Node11&#45;&gt;Node10 -->
<g id="edge11_Node000011_Node000010" class="edge">
<title>Node11&#45;&gt;Node10</title>
<g id="a_edge11_Node000011_Node000010"><a xlink:title=" ">
<path fill="none" stroke="#63b8ff" d="M766.3,-548C798.59,-548 843.31,-548 875.73,-548"/>
<polygon fill="#63b8ff" stroke="#63b8ff" points="875.79,-551.5 885.79,-548 875.79,-544.5 875.79,-551.5"/>
</a>
</g>
</g>
<!-- Node13&#45;&gt;Node9 -->
<g id="edge24_Node000013_Node000009" class="edge">
<title>Node13&#45;&gt;Node9</title>
<g id="a_edge24_Node000013_Node000009"><a xlink:title=" ">
<path fill="none" stroke="#63b8ff" d="M361.02,-379C444.61,-379 628.11,-379 696.56,-379"/>
<polygon fill="#63b8ff" stroke="#63b8ff" points="696.89,-382.5 706.89,-379 696.89,-375.5 696.89,-382.5"/>
</a>
</g>
</g>
<!-- Node13&#45;&gt;Node11 -->
<g id="edge28_Node000013_Node000011" class="edge">
<title>Node13&#45;&gt;Node11</title>
<g id="a_edge28_Node000013_Node000011"><a xlink:title=" ">
<path fill="none" stroke="#63b8ff" d="M320.51,-388.8C327.78,-421.4 356.08,-526.44 426,-567 466.44,-590.46 598.15,-571.25 671.86,-557.98"/>
<polygon fill="#63b8ff" stroke="#63b8ff" points="672.65,-561.39 681.86,-556.15 671.39,-554.51 672.65,-561.39"/>
</a>
</g>
</g>
<!-- Node14 -->
<g id="Node000014" class="node">
<title>Node14</title>
<g id="a_Node000014"><a xlink:href="active__strain_8c.html#adca02351c999668546fc922e1806d090" target="_top" xlink:title="Compute elastic right Cauchy&#45;Green tensor for one element.">
<polygon fill="white" stroke="#666666" points="573.5,-407.5 458.5,-407.5 458.5,-388.5 573.5,-388.5 573.5,-407.5"/>
<text text-anchor="middle" x="516" y="-395.5" font-family="Helvetica,sans-Serif" font-size="10.00">ElemElasCGDefTens</text>
</a>
</g>
</g>
<!-- Node13&#45;&gt;Node14 -->
<g id="edge14_Node000013_Node000014" class="edge">
<title>Node13&#45;&gt;Node14</title>
<g id="a_edge14_Node000013_Node000014"><a xlink:title=" ">
<path fill="none" stroke="#63b8ff" d="M361.14,-383.12C386.58,-385.58 419.45,-388.76 448.27,-391.55"/>
<polygon fill="#63b8ff" stroke="#63b8ff" points="447.98,-395.04 458.27,-392.51 448.65,-388.07 447.98,-395.04"/>
</a>
</g>
</g>
<!-- Node15 -->
<g id="Node000015" class="node">
<title>Node15</title>
<g id="a_Node000015"><a xlink:href="math_8c.html#a832ef37ebeba5c46cadc9c452be4141a" target="_top" xlink:title=" ">
<polygon fill="white" stroke="#666666" points="767,-483.5 681,-483.5 681,-464.5 767,-464.5 767,-483.5"/>
<text text-anchor="middle" x="724" y="-471.5" font-family="Helvetica,sans-Serif" font-size="10.00">LowerIndices2</text>
</a>
</g>
</g>
<!-- Node13&#45;&gt;Node15 -->
<g id="edge25_Node000013_Node000015" class="edge">
<title>Node13&#45;&gt;Node15</title>
<g id="a_edge25_Node000013_Node000015"><a xlink:title=" ">
<path fill="none" stroke="#63b8ff" d="M342.51,-388.66C364.08,-397.05 396.77,-409.08 426,-417 510.55,-439.92 611.05,-457.17 670.79,-466.41"/>
<polygon fill="#63b8ff" stroke="#63b8ff" points="670.32,-469.88 680.74,-467.94 671.38,-462.96 670.32,-469.88"/>
</a>
</g>
</g>
<!-- Node16 -->
<g id="Node000016" class="node">
<title>Node16</title>
<g id="a_Node000016"><a xlink:href="active__strain_8c.html#a4456f61d7effcb0451f1890e5bab63c6" target="_top" xlink:title="Compute elastic second Piola&#45;Kirchhoff stress for one element.">
<polygon fill="white" stroke="#666666" points="562,-257.5 470,-257.5 470,-238.5 562,-238.5 562,-257.5"/>
<text text-anchor="middle" x="516" y="-245.5" font-family="Helvetica,sans-Serif" font-size="10.00">ElemElasStress</text>
</a>
</g>
</g>
<!-- Node13&#45;&gt;Node16 -->
<g id="edge18_Node000013_Node000016" class="edge">
<title>Node13&#45;&gt;Node16</title>
<g id="a_edge18_Node000013_Node000016"><a xlink:title=" ">
<path fill="none" stroke="#63b8ff" d="M324.66,-369.24C339.26,-346.97 378.37,-292.33 426,-266 436.24,-260.34 448.03,-256.45 459.61,-253.77"/>
<polygon fill="#63b8ff" stroke="#63b8ff" points="460.58,-257.15 469.68,-251.73 459.18,-250.29 460.58,-257.15"/>
</a>
</g>
</g>
<!-- Node18 -->
<g id="Node000018" class="node">
<title>Node18</title>
<g id="a_Node000018"><a xlink:href="active__strain_8c.html#af11cd9885b42c34a06fcbb8c5f4b21b1" target="_top" xlink:title="Compute elastic tangent tensor for one element.">
<polygon fill="white" stroke="#666666" points="575.5,-331.5 456.5,-331.5 456.5,-312.5 575.5,-312.5 575.5,-331.5"/>
<text text-anchor="middle" x="516" y="-319.5" font-family="Helvetica,sans-Serif" font-size="10.00">ElemElsTangMatTens</text>
</a>
</g>
</g>
<!-- Node13&#45;&gt;Node18 -->
<g id="edge20_Node000013_Node000018" class="edge">
<title>Node13&#45;&gt;Node18</title>
<g id="a_edge20_Node000013_Node000018"><a xlink:title=" ">
<path fill="none" stroke="#63b8ff" d="M348.54,-369.48C370.05,-362.73 399.74,-353.57 426,-346 439.86,-342.01 454.99,-337.85 468.78,-334.14"/>
<polygon fill="#63b8ff" stroke="#63b8ff" points="469.79,-337.49 478.55,-331.53 467.98,-330.73 469.79,-337.49"/>
</a>
</g>
</g>
<!-- Node19 -->
<g id="Node000019" class="node">
<title>Node19</title>
<g id="a_Node000019"><a xlink:href="active__strain_8c.html#aeb76bfd4ce638c289f76c957e51e9749" target="_top" xlink:title="Assemble total (active + elastic) stress for one element.">
<polygon fill="white" stroke="#666666" points="559,-520.5 473,-520.5 473,-501.5 559,-501.5 559,-520.5"/>
<text text-anchor="middle" x="516" y="-508.5" font-family="Helvetica,sans-Serif" font-size="10.00">ElemTotStress</text>
</a>
</g>
</g>
<!-- Node13&#45;&gt;Node19 -->
<g id="edge22_Node000013_Node000019" class="edge">
<title>Node13&#45;&gt;Node19</title>
<g id="a_edge22_Node000013_Node000019"><a xlink:title=" ">
<path fill="none" stroke="#63b8ff" d="M324.42,-388.51C338.8,-410.76 377.97,-466.31 426,-493 437.2,-499.22 450.26,-503.31 462.87,-505.99"/>
<polygon fill="#63b8ff" stroke="#63b8ff" points="462.37,-509.45 472.84,-507.85 463.65,-502.57 462.37,-509.45"/>
</a>
</g>
</g>
<!-- Node20 -->
<g id="Node000020" class="node">
<title>Node20</title>
<g id="a_Node000020"><a xlink:href="active__strain_8c.html#a6158bac3c35b481951a8c48563dc59ef" target="_top" xlink:title="Compute total tangent tensor for one element.">
<polygon fill="white" stroke="#666666" points="575.5,-483.5 456.5,-483.5 456.5,-464.5 575.5,-464.5 575.5,-483.5"/>
<text text-anchor="middle" x="516" y="-471.5" font-family="Helvetica,sans-Serif" font-size="10.00">ElemTotTangMatTens</text>
</a>
</g>
</g>
<!-- Node13&#45;&gt;Node20 -->
<g id="edge23_Node000013_Node000020" class="edge">
<title>Node13&#45;&gt;Node20</title>
<g id="a_edge23_Node000013_Node000020"><a xlink:title=" ">
<path fill="none" stroke="#63b8ff" d="M330.32,-388.68C349.36,-403.81 388.48,-433.09 426,-450 436.16,-454.58 447.39,-458.45 458.34,-461.65"/>
<polygon fill="#63b8ff" stroke="#63b8ff" points="457.72,-465.11 468.29,-464.4 459.58,-458.36 457.72,-465.11"/>
</a>
</g>
</g>
<!-- Node21 -->
<g id="Node000021" class="node">
<title>Node21</title>
<g id="a_Node000021"><a xlink:href="active__strain_8c.html#a9e8e9e018293087ec6b0ce58ce922403" target="_top" xlink:title="Update through&#45;thickness C33 contribution for one element.">
<polygon fill="white" stroke="#666666" points="556.5,-294.5 475.5,-294.5 475.5,-275.5 556.5,-275.5 556.5,-294.5"/>
<text text-anchor="middle" x="516" y="-282.5" font-family="Helvetica,sans-Serif" font-size="10.00">ModElemC33</text>
</a>
</g>
</g>
<!-- Node13&#45;&gt;Node21 -->
<g id="edge26_Node000013_Node000021" class="edge">
<title>Node13&#45;&gt;Node21</title>
<g id="a_edge26_Node000013_Node000021"><a xlink:title=" ">
<path fill="none" stroke="#63b8ff" d="M329.21,-369.29C347.6,-353.16 386.97,-320.95 426,-304 438.36,-298.63 452.36,-294.73 465.53,-291.92"/>
<polygon fill="#63b8ff" stroke="#63b8ff" points="466.27,-295.34 475.41,-289.97 464.92,-288.47 466.27,-295.34"/>
</a>
</g>
</g>
<!-- Node14&#45;&gt;Node9 -->
<g id="edge15_Node000014_Node000009" class="edge">
<title>Node14&#45;&gt;Node9</title>
<g id="a_edge15_Node000014_Node000009"><a xlink:title=" ">
<path fill="none" stroke="#63b8ff" d="M573.56,-392.78C613.84,-389.07 666.09,-384.25 696.94,-381.4"/>
<polygon fill="#63b8ff" stroke="#63b8ff" points="697.27,-384.89 706.9,-380.48 696.62,-377.92 697.27,-384.89"/>
</a>
</g>
</g>
<!-- Node14&#45;&gt;Node15 -->
<g id="edge16_Node000014_Node000015" class="edge">
<title>Node14&#45;&gt;Node15</title>
<g id="a_edge16_Node000014_Node000015"><a xlink:title=" ">
<path fill="none" stroke="#63b8ff" d="M557.72,-407.57C573.02,-411.53 590.46,-416.49 606,-422 637.12,-433.04 671.51,-448.77 694.91,-460.04"/>
<polygon fill="#63b8ff" stroke="#63b8ff" points="693.39,-463.19 703.91,-464.42 696.45,-456.9 693.39,-463.19"/>
</a>
</g>
</g>
<!-- Node15&#45;&gt;Node10 -->
<g id="edge17_Node000015_Node000010" class="edge">
<title>Node15&#45;&gt;Node10</title>
<g id="a_edge17_Node000015_Node000010"><a xlink:title=" ">
<path fill="none" stroke="#63b8ff" d="M749.77,-483.52C783.61,-496.53 844.45,-519.92 882.81,-534.66"/>
<polygon fill="#63b8ff" stroke="#63b8ff" points="881.93,-538.08 892.52,-538.4 884.44,-531.54 881.93,-538.08"/>
</a>
</g>
</g>
<!-- Node17 -->
<g id="Node000017" class="node">
<title>Node17</title>
<g id="a_Node000017"><a xlink:href="math_8c.html#afc32b59c39265b9a2844b86d0e568fd3" target="_top" xlink:title=" ">
<polygon fill="white" stroke="#666666" points="751,-332.5 697,-332.5 697,-313.5 751,-313.5 751,-332.5"/>
<text text-anchor="middle" x="724" y="-320.5" font-family="Helvetica,sans-Serif" font-size="10.00">DET3x3</text>
</a>
</g>
</g>
<!-- Node16&#45;&gt;Node17 -->
<g id="edge19_Node000016_Node000017" class="edge">
<title>Node16&#45;&gt;Node17</title>
<g id="a_edge19_Node000016_Node000017"><a xlink:title=" ">
<path fill="none" stroke="#63b8ff" d="M562.38,-251.61C577,-254.19 592.81,-258.58 606,-266 626.56,-277.57 621.55,-293.24 642,-305 655.46,-312.75 671.96,-317.16 686.54,-319.67"/>
<polygon fill="#63b8ff" stroke="#63b8ff" points="686.34,-323.18 696.75,-321.19 687.37,-316.26 686.34,-323.18"/>
</a>
</g>
</g>
<!-- Node18&#45;&gt;Node17 -->
<g id="edge21_Node000018_Node000017" class="edge">
<title>Node18&#45;&gt;Node17</title>
<g id="a_edge21_Node000018_Node000017"><a xlink:title=" ">
<path fill="none" stroke="#63b8ff" d="M575.76,-322.29C611.5,-322.46 656.02,-322.67 686.69,-322.82"/>
<polygon fill="#63b8ff" stroke="#63b8ff" points="686.91,-326.32 696.93,-322.87 686.95,-319.32 686.91,-326.32"/>
</a>
</g>
</g>
<!-- Node21&#45;&gt;Node17 -->
<g id="edge27_Node000021_Node000017" class="edge">
<title>Node21&#45;&gt;Node17</title>
<g id="a_edge27_Node000021_Node000017"><a xlink:title=" ">
<path fill="none" stroke="#63b8ff" d="M556.72,-292.33C594.28,-299.26 650.18,-309.57 686.61,-316.29"/>
<polygon fill="#63b8ff" stroke="#63b8ff" points="686.32,-319.79 696.79,-318.17 687.59,-312.91 686.32,-319.79"/>
</a>
</g>
</g>
<!-- Node22&#45;&gt;Node11 -->
<g id="edge31_Node000022_Node000011" class="edge">
<title>Node22&#45;&gt;Node11</title>
<g id="a_edge31_Node000022_Node000011"><a xlink:title=" ">
<path fill="none" stroke="#63b8ff" d="M563.74,-548C595.77,-548 638.27,-548 671.31,-548"/>
<polygon fill="#63b8ff" stroke="#63b8ff" points="671.67,-551.5 681.67,-548 671.67,-544.5 671.67,-551.5"/>
</a>
</g>
</g>
<!-- Node22&#45;&gt;Node15 -->
<g id="edge30_Node000022_Node000015" class="edge">
<title>Node22&#45;&gt;Node15</title>
<g id="a_edge30_Node000022_Node000015"><a xlink:title=" ">
<path fill="none" stroke="#63b8ff" d="M563.76,-540.79C577.55,-538.06 592.55,-534.5 606,-530 638.85,-519.01 674.46,-501.01 697.65,-488.39"/>
<polygon fill="#63b8ff" stroke="#63b8ff" points="699.43,-491.41 706.5,-483.51 696.05,-485.28 699.43,-491.41"/>
</a>
</g>
</g>
<!-- Node23&#45;&gt;Node3 -->
<g id="edge33_Node000023_Node000003" class="edge">
<title>Node23&#45;&gt;Node3</title>
<g id="a_edge33_Node000023_Node000003"><a xlink:title=" ">
<path fill="none" stroke="#63b8ff" d="M558.4,-209.87C574.66,-207.58 592.59,-202.55 606,-192 635.05,-169.13 611.4,-137.76 642,-117 715.61,-67.06 827.24,-79.53 883.11,-90.18"/>
<polygon fill="#63b8ff" stroke="#63b8ff" points="882.7,-93.66 893.19,-92.2 884.07,-86.8 882.7,-93.66"/>
</a>
</g>
</g>
<!-- Node23&#45;&gt;Node5 -->
<g id="edge42_Node000023_Node000005" class="edge">
<title>Node23&#45;&gt;Node5</title>
<g id="a_edge42_Node000023_Node000005"><a xlink:title=" ">
<path fill="none" stroke="#63b8ff" d="M558.02,-217.24C582.38,-220.78 613.9,-225.07 642,-228 731.1,-237.28 836.85,-243.67 887.52,-246.44"/>
<polygon fill="#63b8ff" stroke="#63b8ff" points="887.58,-249.95 897.75,-246.99 887.96,-242.96 887.58,-249.95"/>
</a>
</g>
</g>
<!-- Node23&#45;&gt;Node9 -->
<g id="edge41_Node000023_Node000009" class="edge">
<title>Node23&#45;&gt;Node9</title>
<g id="a_edge41_Node000023_Node000009"><a xlink:title=" ">
<path fill="none" stroke="#63b8ff" d="M558.23,-210.59C574.84,-212.47 593.09,-217.42 606,-229 645.24,-264.19 607.03,-302.56 642,-342 656.4,-358.25 679.38,-367.8 697.19,-373.12"/>
<polygon fill="#63b8ff" stroke="#63b8ff" points="696.41,-376.53 706.97,-375.78 698.24,-369.78 696.41,-376.53"/>
</a>
</g>
</g>
<!-- Node24 -->
<g id="Node000024" class="node">
<title>Node24</title>
<g id="a_Node000024"><a xlink:href="active__strain_8c.html#a8ffbd5ab9cf4de7388a8a1b66bf48821" target="_top" xlink:title=" ">
<polygon fill="white" stroke="#666666" points="782,-295.5 666,-295.5 666,-276.5 782,-276.5 782,-295.5"/>
<text text-anchor="middle" x="724" y="-283.5" font-family="Helvetica,sans-Serif" font-size="10.00">Compute_a3_alpha_</text>
</a>
</g>
</g>
<!-- Node23&#45;&gt;Node24 -->
<g id="edge34_Node000023_Node000024" class="edge">
<title>Node23&#45;&gt;Node24</title>
<g id="a_edge34_Node000023_Node000024"><a xlink:title=" ">
<path fill="none" stroke="#63b8ff" d="M558.42,-214.64C573.96,-217.2 591.39,-221.56 606,-229 625.34,-238.84 623.11,-251.31 642,-262 649.97,-266.51 658.87,-270.25 667.77,-273.32"/>
<polygon fill="#63b8ff" stroke="#63b8ff" points="666.79,-276.68 677.38,-276.4 668.93,-270.02 666.79,-276.68"/>
</a>
</g>
</g>
<!-- Node27 -->
<g id="Node000027" class="node">
<title>Node27</title>
<g id="a_Node000027"><a xlink:href="active__strain_8c.html#a798e3f12cc0e3f71dbc664e886f8893a" target="_top" xlink:title=" ">
<polygon fill="white" stroke="#666666" points="801,-219.5 647,-219.5 647,-200.5 801,-200.5 801,-219.5"/>
<text text-anchor="middle" x="724" y="-207.5" font-family="Helvetica,sans-Serif" font-size="10.00">ComputeContravariantBasis</text>
</a>
</g>
</g>
<!-- Node23&#45;&gt;Node27 -->
<g id="edge38_Node000023_Node000027" class="edge">
<title>Node23&#45;&gt;Node27</title>
<g id="a_edge38_Node000023_Node000027"><a xlink:title=" ">
<path fill="none" stroke="#63b8ff" d="M558.19,-210.8C580.68,-210.69 609.41,-210.55 636.56,-210.42"/>
<polygon fill="#63b8ff" stroke="#63b8ff" points="636.89,-213.92 646.87,-210.37 636.85,-206.92 636.89,-213.92"/>
</a>
</g>
</g>
<!-- Node28 -->
<g id="Node000028" class="node">
<title>Node28</title>
<g id="a_Node000028"><a xlink:href="active__strain_8c.html#af6f59806c4a71e53ae3ffb4ed5ac56ec" target="_top" xlink:title=" ">
<polygon fill="white" stroke="#666666" points="785.5,-182.5 662.5,-182.5 662.5,-163.5 785.5,-163.5 785.5,-182.5"/>
<text text-anchor="middle" x="724" y="-170.5" font-family="Helvetica,sans-Serif" font-size="10.00">ComputeMetricTensor</text>
</a>
</g>
</g>
<!-- Node23&#45;&gt;Node28 -->
<g id="edge39_Node000023_Node000028" class="edge">
<title>Node23&#45;&gt;Node28</title>
<g id="a_edge39_Node000023_Node000028"><a xlink:title=" ">
<path fill="none" stroke="#63b8ff" d="M558.19,-203.4C587.67,-197.96 627.86,-190.55 661.17,-184.41"/>
<polygon fill="#63b8ff" stroke="#63b8ff" points="662.07,-187.8 671.27,-182.54 660.8,-180.92 662.07,-187.8"/>
</a>
</g>
</g>
<!-- Node24&#45;&gt;Node5 -->
<g id="edge36_Node000024_Node000005" class="edge">
<title>Node24&#45;&gt;Node5</title>
<g id="a_edge36_Node000024_Node000005"><a xlink:title=" ">
<path fill="none" stroke="#63b8ff" d="M773.58,-276.41C809.44,-269.33 857.13,-259.92 887.58,-253.91"/>
<polygon fill="#63b8ff" stroke="#63b8ff" points="888.45,-257.3 897.58,-251.93 887.09,-250.44 888.45,-257.3"/>
</a>
</g>
</g>
<!-- Node25 -->
<g id="Node000025" class="node">
<title>Node25</title>
<g id="a_Node000025"><a xlink:href="math_8c.html#a9d60990d26296194c921d537ea26f3c7" target="_top" xlink:title=" ">
<polygon fill="white" stroke="#666666" points="943.5,-201.5 893.5,-201.5 893.5,-182.5 943.5,-182.5 943.5,-201.5"/>
<text text-anchor="middle" x="918.5" y="-189.5" font-family="Helvetica,sans-Serif" font-size="10.00">CROSS</text>
</a>
</g>
</g>
<!-- Node24&#45;&gt;Node25 -->
<g id="edge35_Node000024_Node000025" class="edge">
<title>Node24&#45;&gt;Node25</title>
<g id="a_edge35_Node000024_Node000025"><a xlink:title=" ">
<path fill="none" stroke="#63b8ff" d="M744.52,-276.47C778.53,-259.86 848.82,-225.54 888.53,-206.14"/>
<polygon fill="#63b8ff" stroke="#63b8ff" points="890.48,-209.09 897.93,-201.56 887.41,-202.8 890.48,-209.09"/>
</a>
</g>
</g>
<!-- Node26 -->
<g id="Node000026" class="node">
<title>Node26</title>
<g id="a_Node000026"><a xlink:href="math_8c.html#aa52f6593cf3e5453c8c6c94343d3fb37" target="_top" xlink:title=" ">
<polygon fill="white" stroke="#666666" points="937.5,-295.5 899.5,-295.5 899.5,-276.5 937.5,-276.5 937.5,-295.5"/>
<text text-anchor="middle" x="918.5" y="-283.5" font-family="Helvetica,sans-Serif" font-size="10.00">SIZE</text>
</a>
</g>
</g>
<!-- Node24&#45;&gt;Node26 -->
<g id="edge37_Node000024_Node000026" class="edge">
<title>Node24&#45;&gt;Node26</title>
<g id="a_edge37_Node000024_Node000026"><a xlink:title=" ">
<path fill="none" stroke="#63b8ff" d="M782.24,-286C817.46,-286 861.07,-286 889.09,-286"/>
<polygon fill="#63b8ff" stroke="#63b8ff" points="889.36,-289.5 899.36,-286 889.36,-282.5 889.36,-289.5"/>
</a>
</g>
</g>
<!-- Node28&#45;&gt;Node4 -->
<g id="edge40_Node000028_Node000004" class="edge">
<title>Node28&#45;&gt;Node4</title>
<g id="a_edge40_Node000028_Node000004"><a xlink:title=" ">
<path fill="none" stroke="#63b8ff" d="M774.57,-163.47C811.05,-156.46 859.32,-147.18 889.38,-141.4"/>
<polygon fill="#63b8ff" stroke="#63b8ff" points="890.05,-144.84 899.21,-139.52 888.73,-137.97 890.05,-144.84"/>
</a>
</g>
</g>
<!-- Node30 -->
<g id="Node000030" class="node">
<title>Node30</title>
<g id="a_Node000030"><a xlink:href="active__strain_8c.html#a04fa5da4f55d0663ad5ec7a3534de0af" target="_top" xlink:title="Update current midsurface geometry cache for one element.">
<polygon fill="white" stroke="#666666" points="585.5,-86.5 446.5,-86.5 446.5,-67.5 585.5,-67.5 585.5,-86.5"/>
<text text-anchor="middle" x="516" y="-74.5" font-family="Helvetica,sans-Serif" font-size="10.00">ElemUpdateGeomSubdiv</text>
</a>
</g>
</g>
<!-- Node29&#45;&gt;Node30 -->
<g id="edge44_Node000029_Node000030" class="edge">
<title>Node29&#45;&gt;Node30</title>
<g id="a_edge44_Node000029_Node000030"><a xlink:title=" ">
<path fill="none" stroke="#63b8ff" d="M338.06,-164.34C372.93,-147.13 445.96,-111.08 486.45,-91.1"/>
<polygon fill="#63b8ff" stroke="#63b8ff" points="488.1,-94.18 495.52,-86.62 485,-87.9 488.1,-94.18"/>
</a>
</g>
</g>
<!-- Node34 -->
<g id="Node000034" class="node">
<title>Node34</title>
<g id="a_Node000034"><a xlink:href="dmplex__geom_8c.html#a0e285c5152466ed0d16f3ccb265e2c99" target="_top" xlink:title="Broadcast updated vertex coordinates from owning ranks to all ranks that need them.">
<polygon fill="white" stroke="#666666" points="606,-183.5 426,-183.5 426,-164.5 606,-164.5 606,-183.5"/>
<text text-anchor="middle" x="516" y="-171.5" font-family="Helvetica,sans-Serif" font-size="10.00">UpdatePatchRemoteCoordinates_</text>
</a>
</g>
</g>
<!-- Node29&#45;&gt;Node34 -->
<g id="edge51_Node000029_Node000034" class="edge">
<title>Node29&#45;&gt;Node34</title>
<g id="a_edge51_Node000029_Node000034"><a xlink:title=" ">
<path fill="none" stroke="#63b8ff" d="M390.28,-174C398.55,-174 407.09,-174 415.65,-174"/>
<polygon fill="#63b8ff" stroke="#63b8ff" points="415.68,-177.5 425.68,-174 415.68,-170.5 415.68,-177.5"/>
</a>
</g>
</g>
<!-- Node31 -->
<g id="Node000031" class="node">
<title>Node31</title>
<g id="a_Node000031"><a xlink:href="active__strain_8c.html#a9ef026a24ded6fec7243fd82f49394c3" target="_top" xlink:title=" ">
<polygon fill="white" stroke="#666666" points="806,-70 642,-70 642,-40 806,-40 806,-70"/>
<text text-anchor="start" x="650" y="-58" font-family="Helvetica,sans-Serif" font-size="10.00">ElemUpdateGeomSubdivFrom</text>
<text text-anchor="middle" x="724" y="-47" font-family="Helvetica,sans-Serif" font-size="10.00">Coords_</text>
</a>
</g>
</g>
<!-- Node30&#45;&gt;Node31 -->
<g id="edge45_Node000030_Node000031" class="edge">
<title>Node30&#45;&gt;Node31</title>
<g id="a_edge45_Node000030_Node000031"><a xlink:title=" ">
<path fill="none" stroke="#63b8ff" d="M585.6,-69.67C600.38,-68.1 616.24,-66.4 631.73,-64.75"/>
<polygon fill="#63b8ff" stroke="#63b8ff" points="632.27,-68.21 641.85,-63.67 631.53,-61.25 632.27,-68.21"/>
</a>
</g>
</g>
<!-- Node31&#45;&gt;Node3 -->
<g id="edge46_Node000031_Node000003" class="edge">
<title>Node31&#45;&gt;Node3</title>
<g id="a_edge46_Node000031_Node000003"><a xlink:title=" ">
<path fill="none" stroke="#63b8ff" d="M792.33,-70.04C823.2,-76.94 858.45,-84.81 883.66,-90.44"/>
<polygon fill="#63b8ff" stroke="#63b8ff" points="882.95,-93.87 893.47,-92.63 884.48,-87.04 882.95,-93.87"/>
</a>
</g>
</g>
<!-- Node31&#45;&gt;Node4 -->
<g id="edge48_Node000031_Node000004" class="edge">
<title>Node31&#45;&gt;Node4</title>
<g id="a_edge48_Node000031_Node000004"><a xlink:title=" ">
<path fill="none" stroke="#63b8ff" d="M749.81,-70C772.99,-83.51 808.89,-103.17 842,-116 857.36,-121.95 875.15,-126.76 889.6,-130.17"/>
<polygon fill="#63b8ff" stroke="#63b8ff" points="888.92,-133.61 899.45,-132.4 890.47,-126.78 888.92,-133.61"/>
</a>
</g>
</g>
<!-- Node31&#45;&gt;Node25 -->
<g id="edge47_Node000031_Node000025" class="edge">
<title>Node31&#45;&gt;Node25</title>
<g id="a_edge47_Node000031_Node000025"><a xlink:title=" ">
<path fill="none" stroke="#63b8ff" d="M746.65,-70.24C763.36,-82.32 786.8,-99.95 806,-117 823.16,-132.24 823.5,-140.43 842,-154 854.98,-163.52 870.7,-171.86 884.42,-178.28"/>
<polygon fill="#63b8ff" stroke="#63b8ff" points="883,-181.47 893.55,-182.41 885.88,-175.1 883,-181.47"/>
</a>
</g>
</g>
<!-- Node32 -->
<g id="Node000032" class="node">
<title>Node32</title>
<g id="a_Node000032"><a xlink:href="active__strain_8c.html#af8eb71852e7e9e1290f27656e66736fe" target="_top" xlink:title=" ">
<polygon fill="white" stroke="#666666" points="995,-30 842,-30 842,0 995,0 995,-30"/>
<text text-anchor="start" x="850" y="-18" font-family="Helvetica,sans-Serif" font-size="10.00">SubdivGeomEnsureIrregular</text>
<text text-anchor="middle" x="918.5" y="-7" font-family="Helvetica,sans-Serif" font-size="10.00">Arrays_</text>
</a>
</g>
</g>
<!-- Node31&#45;&gt;Node32 -->
<g id="edge49_Node000031_Node000032" class="edge">
<title>Node31&#45;&gt;Node32</title>
<g id="a_edge49_Node000031_Node000032"><a xlink:title=" ">
<path fill="none" stroke="#63b8ff" d="M797.23,-39.99C809.6,-37.42 822.54,-34.73 835.16,-32.11"/>
<polygon fill="#63b8ff" stroke="#63b8ff" points="836.11,-35.49 845.19,-30.03 834.68,-28.63 836.11,-35.49"/>
</a>
</g>
</g>
<!-- Node33 -->
<g id="Node000033" class="node">
<title>Node33</title>
<g id="a_Node000033"><a xlink:href="math_8c.html#ac616709995f2ae60c4308ffa328337d7" target="_top" xlink:title=" ">
<polygon fill="white" stroke="#666666" points="939,-67.5 898,-67.5 898,-48.5 939,-48.5 939,-67.5"/>
<text text-anchor="middle" x="918.5" y="-55.5" font-family="Helvetica,sans-Serif" font-size="10.00">UNIT</text>
</a>
</g>
</g>
<!-- Node31&#45;&gt;Node33 -->
<g id="edge50_Node000031_Node000033" class="edge">
<title>Node31&#45;&gt;Node33</title>
<g id="a_edge50_Node000031_Node000033"><a xlink:title=" ">
<path fill="none" stroke="#63b8ff" d="M806.08,-56.26C834.91,-56.71 865.61,-57.19 887.46,-57.53"/>
<polygon fill="#63b8ff" stroke="#63b8ff" points="887.68,-61.04 897.73,-57.69 887.79,-54.04 887.68,-61.04"/>
</a>
</g>
</g>
</g>
</svg>

<g id="navigator" transform="translate(0 0)" fill="#404254">
  <rect fill="#f2f5e9" fill-opacity="0.5" stroke="#606060" stroke-width=".5" x="0" y="0" width="60" height="60"/>
  <use id="zoomplus" xlink:href="#zoomPlus" x="17" y="9" onmousedown="handleZoom(evt,'in')"/>
  <use id="zoomminus" xlink:href="#zoomMin" x="42" y="9" onmousedown="handleZoom(evt,'out')"/>
  <use id="reset" xlink:href="#resetDef" x="30" y="36" onmousedown="handleReset()"/>
   <use id="arrowup" xlink:href="#arrowUp" x="0" y="0" onmousedown="handlePan(0,-1)"/>
  <use id="arrowright" xlink:href="#arrowRight" x="0" y="0" onmousedown="handlePan(1,0)"/>
  <use id="arrowdown" xlink:href="#arrowDown" x="0" y="0" onmousedown="handlePan(0,1)"/>
  <use id="arrowleft" xlink:href="#arrowLeft" x="0" y="0" onmousedown="handlePan(-1,0)"/>
</g>
<svg viewBox="0 0 15 15" width="100%" height="30px" preserveAspectRatio="xMaxYMin meet">
 <g id="arrow_out" transform="scale(0.3 0.3)">
  <a xlink:href="active__strain_8h_a3bac899c10052c346d2afe9eccbac71d_cgraph_org.svg" target="_base">
   <rect id="button" ry="5" rx="5" y="6" x="6" height="38" width="38"
        fill="#f2f5e9" fill-opacity="0.5" stroke="#606060" stroke-width="1.0"/>
   <path id="arrow"
     d="M 11.500037,31.436501 C 11.940474,20.09759 22.043105,11.32322 32.158766,21.979434 L 37.068811,17.246167 C 37.068811,17.246167 37.088388,32 37.088388,32 L 22.160133,31.978069 C 22.160133,31.978069 26.997745,27.140456 26.997745,27.140456 C 18.528582,18.264221 13.291696,25.230495 11.500037,31.436501 z"
     style="fill:#404040;"/>
  </a>
 </g>
</svg>

<style type='text/css'>
<![CDATA[
[data-mouse-over-selected='false'] { opacity: 0.7; }
[data-mouse-over-selected='true']  { opacity: 1.0; }
]]>
</style>
<script type="application/ecmascript"><![CDATA[
document.addEventListener('DOMContentLoaded', (event) => {
  highlightEdges();
  highlightAdjacentNodes();
});
]]></script>
</svg>
