<?xml version="1.0" encoding="UTF-8" standalone="no"?>
<!DOCTYPE svg PUBLIC "-//W3C//DTD SVG 1.1//EN"
 "http://www.w3.org/Graphics/SVG/1.1/DTD/svg11.dtd">
<!-- Generated by graphviz version 2.43.0 (0)
 -->
<!-- Title: ElemUpdateG Pages: 1 -->
<svg width="368pt" height="214pt"
 viewBox="0.00 0.00 368.00 214.00" xmlns="http://www.w3.org/2000/svg" xmlns:xlink="http://www.w3.org/1999/xlink">
<g id="graph0" class="graph" transform="scale(1 1) rotate(0) translate(4 210)">
<title>ElemUpdateG</title>
<!-- Node1 -->
<g id="Node000001" class="node">
<title>Node1</title>
<g id="a_Node000001"><a xlink:title="Build current covariant/contravariant basis vectors for one element.">
<polygon fill="#999999" stroke="#666666" points="84,-112 0,-112 0,-93 84,-93 84,-112"/>
<text text-anchor="middle" x="42" y="-100" font-family="Helvetica,sans-Serif" font-size="10.00">ElemUpdateG</text>
</a>
</g>
</g>
<!-- Node2 -->
<g id="Node000002" class="node">
<title>Node2</title>
<g id="a_Node000002"><a xlink:href="math_8c.html#a7ef9263b0a3a10c2cd00bb4dc0059d70" target="_top" xlink:title=" ">
<polygon fill="white" stroke="#666666" points="222,-206 172,-206 172,-187 222,-187 222,-206"/>
<text text-anchor="middle" x="197" y="-194" font-family="Helvetica,sans-Serif" font-size="10.00">AMULT</text>
</a>
</g>
</g>
<!-- Node1&#45;&gt;Node2 -->
<g id="edge1_Node000001_Node000002" class="edge">
<title>Node1&#45;&gt;Node2</title>
<g id="a_edge1_Node000001_Node000002"><a xlink:title=" ">
<path fill="none" stroke="#63b8ff" d="M49.87,-112.12C62.06,-128.43 89.11,-161.39 120,-178.5 132.76,-185.57 148.22,-189.87 161.85,-192.49"/>
<polygon fill="#63b8ff" stroke="#63b8ff" points="161.4,-195.96 171.85,-194.18 162.57,-189.06 161.4,-195.96"/>
</a>
</g>
</g>
<!-- Node3 -->
<g id="Node000003" class="node">
<title>Node3</title>
<g id="a_Node000003"><a xlink:href="active__strain_8c.html#a8ffbd5ab9cf4de7388a8a1b66bf48821" target="_top" xlink:title=" ">
<polygon fill="white" stroke="#666666" points="255,-169 139,-169 139,-150 255,-150 255,-169"/>
<text text-anchor="middle" x="197" y="-157" font-family="Helvetica,sans-Serif" font-size="10.00">Compute_a3_alpha_</text>
</a>
</g>
</g>
<!-- Node1&#45;&gt;Node3 -->
<g id="edge2_Node000001_Node000003" class="edge">
<title>Node1&#45;&gt;Node3</title>
<g id="a_edge2_Node000001_Node000003"><a xlink:title=" ">
<path fill="none" stroke="#63b8ff" d="M63.69,-112.03C79.06,-118.95 100.64,-128.31 120,-135.5 130.73,-139.48 142.45,-143.39 153.41,-146.87"/>
<polygon fill="#63b8ff" stroke="#63b8ff" points="152.63,-150.29 163.21,-149.92 154.71,-143.61 152.63,-150.29"/>
</a>
</g>
</g>
<!-- Node5 -->
<g id="Node000005" class="node">
<title>Node5</title>
<g id="a_Node000005"><a xlink:href="math_8c.html#ae18926821a703a2c5b281bd890b7e6a0" target="_top" xlink:title=" ">
<polygon fill="white" stroke="#666666" points="355.5,-131 314.5,-131 314.5,-112 355.5,-112 355.5,-131"/>
<text text-anchor="middle" x="335" y="-119" font-family="Helvetica,sans-Serif" font-size="10.00">PLUS</text>
</a>
</g>
</g>
<!-- Node1&#45;&gt;Node5 -->
<g id="edge10_Node000001_Node000005" class="edge">
<title>Node1&#45;&gt;Node5</title>
<g id="a_edge10_Node000001_Node000005"><a xlink:title=" ">
<path fill="none" stroke="#63b8ff" d="M84.08,-105.18C143.46,-109.06 251.89,-116.14 304.2,-119.55"/>
<polygon fill="#63b8ff" stroke="#63b8ff" points="304.27,-123.07 314.48,-120.23 304.73,-116.08 304.27,-123.07"/>
</a>
</g>
</g>
<!-- Node7 -->
<g id="Node000007" class="node">
<title>Node7</title>
<g id="a_Node000007"><a xlink:href="active__strain_8c.html#a798e3f12cc0e3f71dbc664e886f8893a" target="_top" xlink:title=" ">
<polygon fill="white" stroke="#666666" points="274,-93 120,-93 120,-74 274,-74 274,-93"/>
<text text-anchor="middle" x="197" y="-81" font-family="Helvetica,sans-Serif" font-size="10.00">ComputeContravariantBasis</text>
</a>
</g>
</g>
<!-- Node1&#45;&gt;Node7 -->
<g id="edge6_Node000001_Node000007" class="edge">
<title>Node1&#45;&gt;Node7</title>
<g id="a_edge6_Node000001_Node000007"><a xlink:title=" ">
<path fill="none" stroke="#63b8ff" d="M84,-97.41C92.04,-96.41 100.75,-95.33 109.64,-94.22"/>
<polygon fill="#63b8ff" stroke="#63b8ff" points="110.24,-97.68 119.73,-92.97 109.38,-90.73 110.24,-97.68"/>
</a>
</g>
</g>
<!-- Node8 -->
<g id="Node000008" class="node">
<title>Node8</title>
<g id="a_Node000008"><a xlink:href="active__strain_8c.html#af6f59806c4a71e53ae3ffb4ed5ac56ec" target="_top" xlink:title=" ">
<polygon fill="white" stroke="#666666" points="258.5,-56 135.5,-56 135.5,-37 258.5,-37 258.5,-56"/>
<text text-anchor="middle" x="197" y="-44" font-family="Helvetica,sans-Serif" font-size="10.00">ComputeMetricTensor</text>
</a>
</g>
</g>
<!-- Node1&#45;&gt;Node8 -->
<g id="edge7_Node000001_Node000008" class="edge">
<title>Node1&#45;&gt;Node8</title>
<g id="a_edge7_Node000001_Node000008"><a xlink:title=" ">
<path fill="none" stroke="#63b8ff" d="M59.64,-92.91C74.92,-84.45 98.4,-72.27 120,-64.5 125.94,-62.36 132.24,-60.4 138.57,-58.63"/>
<polygon fill="#63b8ff" stroke="#63b8ff" points="139.72,-61.95 148.49,-56.01 137.92,-55.18 139.72,-61.95"/>
</a>
</g>
</g>
<!-- Node10 -->
<g id="Node000010" class="node">
<title>Node10</title>
<g id="a_Node000010"><a xlink:href="math_8c.html#a3f73e4cd9eab76eeee084eabf2b98ec9" target="_top" xlink:title=" ">
<polygon fill="white" stroke="#666666" points="214,-19 180,-19 180,0 214,0 214,-19"/>
<text text-anchor="middle" x="197" y="-7" font-family="Helvetica,sans-Serif" font-size="10.00">INV</text>
</a>
</g>
</g>
<!-- Node1&#45;&gt;Node10 -->
<g id="edge9_Node000001_Node000010" class="edge">
<title>Node1&#45;&gt;Node10</title>
<g id="a_edge9_Node000001_Node000010"><a xlink:title=" ">
<path fill="none" stroke="#63b8ff" d="M50.1,-92.75C62.43,-76.58 89.42,-44.3 120,-27.5 135.3,-19.09 154.43,-14.59 169.68,-12.19"/>
<polygon fill="#63b8ff" stroke="#63b8ff" points="170.54,-15.6 179.97,-10.79 169.59,-8.67 170.54,-15.6"/>
</a>
</g>
</g>
<!-- Node4 -->
<g id="Node000004" class="node">
<title>Node4</title>
<g id="a_Node000004"><a xlink:href="math_8c.html#a9d60990d26296194c921d537ea26f3c7" target="_top" xlink:title=" ">
<polygon fill="white" stroke="#666666" points="360,-205 310,-205 310,-186 360,-186 360,-205"/>
<text text-anchor="middle" x="335" y="-193" font-family="Helvetica,sans-Serif" font-size="10.00">CROSS</text>
</a>
</g>
</g>
<!-- Node3&#45;&gt;Node4 -->
<g id="edge3_Node000003_Node000004" class="edge">
<title>Node3&#45;&gt;Node4</title>
<g id="a_edge3_Node000003_Node000004"><a xlink:title=" ">
<path fill="none" stroke="#63b8ff" d="M237.11,-169.03C248.98,-171.99 262.04,-175.31 274,-178.5 282.5,-180.77 291.64,-183.3 300.17,-185.72"/>
<polygon fill="#63b8ff" stroke="#63b8ff" points="299.24,-189.09 309.82,-188.46 301.16,-182.36 299.24,-189.09"/>
</a>
</g>
</g>
<!-- Node3&#45;&gt;Node5 -->
<g id="edge4_Node000003_Node000005" class="edge">
<title>Node3&#45;&gt;Node5</title>
<g id="a_edge4_Node000003_Node000005"><a xlink:title=" ">
<path fill="none" stroke="#63b8ff" d="M232.32,-149.91C254.63,-143.68 283.42,-135.63 304.67,-129.69"/>
<polygon fill="#63b8ff" stroke="#63b8ff" points="305.74,-133.03 314.43,-126.97 303.86,-126.29 305.74,-133.03"/>
</a>
</g>
</g>
<!-- Node6 -->
<g id="Node000006" class="node">
<title>Node6</title>
<g id="a_Node000006"><a xlink:href="math_8c.html#aa52f6593cf3e5453c8c6c94343d3fb37" target="_top" xlink:title=" ">
<polygon fill="white" stroke="#666666" points="354,-168 316,-168 316,-149 354,-149 354,-168"/>
<text text-anchor="middle" x="335" y="-156" font-family="Helvetica,sans-Serif" font-size="10.00">SIZE</text>
</a>
</g>
</g>
<!-- Node3&#45;&gt;Node6 -->
<g id="edge5_Node000003_Node000006" class="edge">
<title>Node3&#45;&gt;Node6</title>
<g id="a_edge5_Node000003_Node000006"><a xlink:title=" ">
<path fill="none" stroke="#63b8ff" d="M255.28,-159.08C272.64,-158.95 290.95,-158.82 305.54,-158.71"/>
<polygon fill="#63b8ff" stroke="#63b8ff" points="305.92,-162.21 315.89,-158.63 305.86,-155.21 305.92,-162.21"/>
</a>
</g>
</g>
<!-- Node9 -->
<g id="Node000009" class="node">
<title>Node9</title>
<g id="a_Node000009"><a xlink:href="math_8c.html#a870a70f4845a041458d9bdb0dd7aabd3" target="_top" xlink:title=" ">
<polygon fill="white" stroke="#666666" points="354,-56 316,-56 316,-37 354,-37 354,-56"/>
<text text-anchor="middle" x="335" y="-44" font-family="Helvetica,sans-Serif" font-size="10.00">DOT</text>
</a>
</g>
</g>
<!-- Node8&#45;&gt;Node9 -->
<g id="edge8_Node000008_Node000009" class="edge">
<title>Node8&#45;&gt;Node9</title>
<g id="a_edge8_Node000008_Node000009"><a xlink:title=" ">
<path fill="none" stroke="#63b8ff" d="M258.84,-46.5C275.14,-46.5 291.99,-46.5 305.59,-46.5"/>
<polygon fill="#63b8ff" stroke="#63b8ff" points="305.73,-50 315.73,-46.5 305.73,-43 305.73,-50"/>
</a>
</g>
</g>
</g>
</svg>
