<?xml version="1.0" encoding="UTF-8" standalone="no"?>
<!DOCTYPE svg PUBLIC "-//W3C//DTD SVG 1.1//EN"
 "http://www.w3.org/Graphics/SVG/1.1/DTD/svg11.dtd">
<!-- Generated by graphviz version 2.43.0 (0)
 -->
<!-- Title: SubdivGeomEnsureIrregularArrays_ Pages: 1 -->
<svg width="1022pt" height="251pt"
 viewBox="0.00 0.00 1022.00 251.33" xmlns="http://www.w3.org/2000/svg" xmlns:xlink="http://www.w3.org/1999/xlink">
<g id="graph0" class="graph" transform="scale(1 1) rotate(0) translate(4 247.33)">
<title>SubdivGeomEnsureIrregularArrays_</title>
<!-- Node1 -->
<g id="Node000001" class="node">
<title>Node1</title>
<g id="a_Node000001"><a xlink:title=" ">
<polygon fill="#999999" stroke="#666666" points="1014,-162.5 861,-162.5 861,-132.5 1014,-132.5 1014,-162.5"/>
<text text-anchor="start" x="869" y="-150.5" font-family="Helvetica,sans-Serif" font-size="10.00">SubdivGeomEnsureIrregular</text>
<text text-anchor="middle" x="937.5" y="-139.5" font-family="Helvetica,sans-Serif" font-size="10.00">Arrays_</text>
</a>
</g>
</g>
<!-- Node2 -->
<g id="Node000002" class="node">
<title>Node2</title>
<g id="a_Node000002"><a xlink:href="active__strain_8c.html#a9ef026a24ded6fec7243fd82f49394c3" target="_top" xlink:title=" ">
<polygon fill="white" stroke="#666666" points="825,-138.5 661,-138.5 661,-108.5 825,-108.5 825,-138.5"/>
<text text-anchor="start" x="669" y="-126.5" font-family="Helvetica,sans-Serif" font-size="10.00">ElemUpdateGeomSubdivFrom</text>
<text text-anchor="middle" x="743" y="-115.5" font-family="Helvetica,sans-Serif" font-size="10.00">Coords_</text>
</a>
</g>
</g>
<!-- Node1&#45;&gt;Node2 -->
<g id="edge1_Node000001_Node000002" class="edge">
<title>Node1&#45;&gt;Node2</title>
<g id="a_edge1_Node000001_Node000002"><a xlink:title=" ">
<path fill="none" stroke="#63b8ff" d="M850.93,-136.83C842.32,-135.76 833.59,-134.67 825.03,-133.6"/>
<polygon fill="#63b8ff" stroke="#63b8ff" points="850.62,-140.32 860.97,-138.08 851.48,-133.37 850.62,-140.32"/>
</a>
</g>
</g>
<!-- Node16 -->
<g id="Node000016" class="node">
<title>Node16</title>
<g id="a_Node000016"><a xlink:href="active__strain_8c.html#a12d870e5382d879992dcc9f9a921318f" target="_top" xlink:title=" ">
<polygon fill="white" stroke="#666666" points="819,-202.5 667,-202.5 667,-172.5 819,-172.5 819,-202.5"/>
<text text-anchor="start" x="675" y="-190.5" font-family="Helvetica,sans-Serif" font-size="10.00">EnsureAllGeometryIrregular</text>
<text text-anchor="middle" x="743" y="-179.5" font-family="Helvetica,sans-Serif" font-size="10.00">Arrays_</text>
</a>
</g>
</g>
<!-- Node1&#45;&gt;Node16 -->
<g id="edge21_Node000001_Node000016" class="edge">
<title>Node1&#45;&gt;Node16</title>
<g id="a_edge21_Node000001_Node000016"><a xlink:title=" ">
<path fill="none" stroke="#63b8ff" d="M854.24,-164.59C841.63,-167.21 828.69,-169.9 816.31,-172.47"/>
<polygon fill="#63b8ff" stroke="#63b8ff" points="855.19,-167.97 864.27,-162.51 853.77,-161.12 855.19,-167.97"/>
</a>
</g>
</g>
<!-- Node3 -->
<g id="Node000003" class="node">
<title>Node3</title>
<g id="a_Node000003"><a xlink:href="active__strain_8c.html#ac93e65e44aa9af3d11c2165016210d87" target="_top" xlink:title="Update reference midsurface geometry cache for one element.">
<polygon fill="white" stroke="#666666" points="625,-133 480,-133 480,-114 625,-114 625,-133"/>
<text text-anchor="middle" x="552.5" y="-121" font-family="Helvetica,sans-Serif" font-size="10.00">ElemUpdateGeom0Subdiv</text>
</a>
</g>
</g>
<!-- Node2&#45;&gt;Node3 -->
<g id="edge2_Node000002_Node000003" class="edge">
<title>Node2&#45;&gt;Node3</title>
<g id="a_edge2_Node000002_Node000003"><a xlink:title=" ">
<path fill="none" stroke="#63b8ff" d="M650.9,-123.5C642.29,-123.5 633.65,-123.5 625.26,-123.5"/>
<polygon fill="#63b8ff" stroke="#63b8ff" points="650.97,-127 660.97,-123.5 650.97,-120 650.97,-127"/>
</a>
</g>
</g>
<!-- Node11 -->
<g id="Node000011" class="node">
<title>Node11</title>
<g id="a_Node000011"><a xlink:href="active__strain_8c.html#a04fa5da4f55d0663ad5ec7a3534de0af" target="_top" xlink:title="Update current midsurface geometry cache for one element.">
<polygon fill="white" stroke="#666666" points="622,-96 483,-96 483,-77 622,-77 622,-96"/>
<text text-anchor="middle" x="552.5" y="-84" font-family="Helvetica,sans-Serif" font-size="10.00">ElemUpdateGeomSubdiv</text>
</a>
</g>
</g>
<!-- Node2&#45;&gt;Node11 -->
<g id="edge13_Node000002_Node000011" class="edge">
<title>Node2&#45;&gt;Node11</title>
<g id="a_edge13_Node000002_Node000011"><a xlink:title=" ">
<path fill="none" stroke="#63b8ff" d="M655.48,-106.52C637.1,-102.91 618.33,-99.22 601.98,-96.02"/>
<polygon fill="#63b8ff" stroke="#63b8ff" points="654.84,-109.96 665.33,-108.45 656.19,-103.09 654.84,-109.96"/>
</a>
</g>
</g>
<!-- Node4 -->
<g id="Node000004" class="node">
<title>Node4</title>
<g id="a_Node000004"><a xlink:href="dmplex__geom_8c.html#aeca513213e67a07a712cc41e8c6412ea" target="_top" xlink:title="One&#45;time DMPlex geometry setup.">
<polygon fill="white" stroke="#666666" points="440,-171 303,-171 303,-152 440,-152 440,-171"/>
<text text-anchor="middle" x="371.5" y="-159" font-family="Helvetica,sans-Serif" font-size="10.00">FEM_DMPlexGeomSetup</text>
</a>
</g>
</g>
<!-- Node3&#45;&gt;Node4 -->
<g id="edge3_Node000003_Node000004" class="edge">
<title>Node3&#45;&gt;Node4</title>
<g id="a_edge3_Node000003_Node000004"><a xlink:title=" ">
<path fill="none" stroke="#63b8ff" d="M496.48,-135.18C471.09,-140.57 441.34,-146.89 417.34,-151.98"/>
<polygon fill="#63b8ff" stroke="#63b8ff" points="497.28,-138.59 506.33,-133.09 495.82,-131.74 497.28,-138.59"/>
</a>
</g>
</g>
<!-- Node7 -->
<g id="Node000007" class="node">
<title>Node7</title>
<g id="a_Node000007"><a xlink:href="cuda__processes_8c.html#a627a27228923fbc3e63f0f4e1c5aa765" target="_top" xlink:title=" ">
<polygon fill="white" stroke="#666666" points="426,-59 317,-59 317,-40 426,-40 426,-59"/>
<text text-anchor="middle" x="371.5" y="-47" font-family="Helvetica,sans-Serif" font-size="10.00">RunCudaProcesses</text>
</a>
</g>
</g>
<!-- Node3&#45;&gt;Node7 -->
<g id="edge6_Node000003_Node000007" class="edge">
<title>Node3&#45;&gt;Node7</title>
<g id="a_edge6_Node000003_Node000007"><a xlink:title=" ">
<path fill="none" stroke="#63b8ff" d="M492.2,-110.5C487.96,-108.74 483.85,-106.75 480,-104.5 460.2,-92.91 463.88,-78.96 444,-67.5 438.12,-64.11 431.61,-61.36 424.99,-59.11"/>
<polygon fill="#63b8ff" stroke="#63b8ff" points="491.05,-113.8 501.64,-113.99 493.47,-107.23 491.05,-113.8"/>
</a>
</g>
</g>
<!-- Node8 -->
<g id="Node000008" class="node">
<title>Node8</title>
<g id="a_Node000008"><a xlink:href="kokkos__processes_8c.html#a3f18ca1bc94cfbc69753dccb70a43699" target="_top" xlink:title=" ">
<polygon fill="white" stroke="#666666" points="431,-133 312,-133 312,-114 431,-114 431,-133"/>
<text text-anchor="middle" x="371.5" y="-121" font-family="Helvetica,sans-Serif" font-size="10.00">RunKokkosProcesses</text>
</a>
</g>
</g>
<!-- Node3&#45;&gt;Node8 -->
<g id="edge8_Node000003_Node000008" class="edge">
<title>Node3&#45;&gt;Node8</title>
<g id="a_edge8_Node000003_Node000008"><a xlink:title=" ">
<path fill="none" stroke="#63b8ff" d="M469.67,-123.5C456.72,-123.5 443.55,-123.5 431.27,-123.5"/>
<polygon fill="#63b8ff" stroke="#63b8ff" points="469.98,-127 479.98,-123.5 469.98,-120 469.98,-127"/>
</a>
</g>
</g>
<!-- Node9 -->
<g id="Node000009" class="node">
<title>Node9</title>
<g id="a_Node000009"><a xlink:href="dmplex__geom_8c.html#aa2b24de348fff4079de659ff63ba9b85" target="_top" xlink:title="Synchronise remote coordinates and evaluate the geometry kernel for all local cells.">
<polygon fill="white" stroke="#666666" points="429,-96 314,-96 314,-77 429,-77 429,-96"/>
<text text-anchor="middle" x="371.5" y="-84" font-family="Helvetica,sans-Serif" font-size="10.00">RunLocalGeometry_</text>
</a>
</g>
</g>
<!-- Node3&#45;&gt;Node9 -->
<g id="edge10_Node000003_Node000009" class="edge">
<title>Node3&#45;&gt;Node9</title>
<g id="a_edge10_Node000003_Node000009"><a xlink:title=" ">
<path fill="none" stroke="#63b8ff" d="M495.46,-111.92C470.8,-106.82 442.17,-100.9 418.75,-96.06"/>
<polygon fill="#63b8ff" stroke="#63b8ff" points="494.9,-115.37 505.4,-113.97 496.32,-108.52 494.9,-115.37"/>
</a>
</g>
</g>
<!-- Node5 -->
<g id="Node000005" class="node">
<title>Node5</title>
<g id="a_Node000005"><a xlink:href="main_8c.html#a3c04138a5bfe5d72780bb7e82a18e627" target="_top" xlink:title=" ">
<polygon fill="white" stroke="#666666" points="58.5,-133 17.5,-133 17.5,-114 58.5,-114 58.5,-133"/>
<text text-anchor="middle" x="38" y="-121" font-family="Helvetica,sans-Serif" font-size="10.00">main</text>
</a>
</g>
</g>
<!-- Node4&#45;&gt;Node5 -->
<g id="edge4_Node000004_Node000005" class="edge">
<title>Node4&#45;&gt;Node5</title>
<g id="a_edge4_Node000004_Node000005"><a xlink:title=" ">
<path fill="none" stroke="#63b8ff" d="M330.24,-173.73C278.31,-187.41 185.89,-204.58 112,-179.5 85.08,-170.36 60.3,-146.86 47.7,-133.38"/>
<polygon fill="#63b8ff" stroke="#63b8ff" points="331.34,-177.06 340.06,-171.06 329.5,-170.31 331.34,-177.06"/>
</a>
</g>
</g>
<!-- Node6 -->
<g id="Node000006" class="node">
<title>Node6</title>
<g id="a_Node000006"><a xlink:href="dmplex__geom_8c.html#af897ef006be5d3cc2be53b272a4f5a61" target="_top" xlink:title="Drop&#45;in geometry call: setup + update + destroy in one shot.">
<polygon fill="white" stroke="#666666" points="255,-171 120,-171 120,-152 255,-152 255,-171"/>
<text text-anchor="middle" x="187.5" y="-159" font-family="Helvetica,sans-Serif" font-size="10.00">RunDMPlexGeomSubdiv</text>
</a>
</g>
</g>
<!-- Node4&#45;&gt;Node6 -->
<g id="edge5_Node000004_Node000006" class="edge">
<title>Node4&#45;&gt;Node6</title>
<g id="a_edge5_Node000004_Node000006"><a xlink:title=" ">
<path fill="none" stroke="#63b8ff" d="M292.64,-161.5C280.21,-161.5 267.44,-161.5 255.3,-161.5"/>
<polygon fill="#63b8ff" stroke="#63b8ff" points="292.99,-165 302.99,-161.5 292.99,-158 292.99,-165"/>
</a>
</g>
</g>
<!-- Node7&#45;&gt;Node5 -->
<g id="edge7_Node000007_Node000005" class="edge">
<title>Node7&#45;&gt;Node5</title>
<g id="a_edge7_Node000007_Node000005"><a xlink:title=" ">
<path fill="none" stroke="#63b8ff" d="M306.75,-43.47C253.03,-40.76 175.07,-42.45 112,-66.5 85.26,-76.7 60.41,-100.27 47.75,-113.69"/>
<polygon fill="#63b8ff" stroke="#63b8ff" points="306.64,-46.97 316.82,-44.05 307.04,-39.98 306.64,-46.97"/>
</a>
</g>
</g>
<!-- Node8&#45;&gt;Node5 -->
<g id="edge9_Node000008_Node000005" class="edge">
<title>Node8&#45;&gt;Node5</title>
<g id="a_edge9_Node000008_Node000005"><a xlink:title=" ">
<path fill="none" stroke="#63b8ff" d="M301.94,-123.5C225.28,-123.5 105.73,-123.5 58.83,-123.5"/>
<polygon fill="#63b8ff" stroke="#63b8ff" points="302,-127 312,-123.5 302,-120 302,-127"/>
</a>
</g>
</g>
<!-- Node10 -->
<g id="Node000010" class="node">
<title>Node10</title>
<g id="a_Node000010"><a xlink:href="dmplex__geom_8c.html#ac4ecb4d172bee5f7c59a9fdf2680bb51" target="_top" xlink:title="Benchmark: run the full distributed DMPlex geometry pipeline for all bodies.">
<polygon fill="white" stroke="#666666" points="263,-95 112,-95 112,-76 263,-76 263,-95"/>
<text text-anchor="middle" x="187.5" y="-83" font-family="Helvetica,sans-Serif" font-size="10.00">RunDMPlexGeomProcesses</text>
</a>
</g>
</g>
<!-- Node9&#45;&gt;Node10 -->
<g id="edge11_Node000009_Node000010" class="edge">
<title>Node9&#45;&gt;Node10</title>
<g id="a_edge11_Node000009_Node000010"><a xlink:title=" ">
<path fill="none" stroke="#63b8ff" d="M303.54,-86.13C290.39,-86.06 276.52,-85.98 263.13,-85.91"/>
<polygon fill="#63b8ff" stroke="#63b8ff" points="303.89,-89.63 313.91,-86.19 303.93,-82.63 303.89,-89.63"/>
</a>
</g>
</g>
<!-- Node10&#45;&gt;Node5 -->
<g id="edge12_Node000010_Node000005" class="edge">
<title>Node10&#45;&gt;Node5</title>
<g id="a_edge12_Node000010_Node000005"><a xlink:title=" ">
<path fill="none" stroke="#63b8ff" d="M139.49,-97.61C112.13,-104.66 79.09,-113.17 58.56,-118.46"/>
<polygon fill="#63b8ff" stroke="#63b8ff" points="140.47,-100.97 149.28,-95.09 138.72,-94.19 140.47,-100.97"/>
</a>
</g>
</g>
<!-- Node11&#45;&gt;Node7 -->
<g id="edge18_Node000011_Node000007" class="edge">
<title>Node11&#45;&gt;Node7</title>
<g id="a_edge18_Node000011_Node000007"><a xlink:title=" ">
<path fill="none" stroke="#63b8ff" d="M495.46,-74.92C470.8,-69.82 442.17,-63.9 418.75,-59.06"/>
<polygon fill="#63b8ff" stroke="#63b8ff" points="494.9,-78.37 505.4,-76.97 496.32,-71.52 494.9,-78.37"/>
</a>
</g>
</g>
<!-- Node11&#45;&gt;Node8 -->
<g id="edge19_Node000011_Node000008" class="edge">
<title>Node11&#45;&gt;Node8</title>
<g id="a_edge19_Node000011_Node000008"><a xlink:title=" ">
<path fill="none" stroke="#63b8ff" d="M495.46,-98.08C470.8,-103.18 442.17,-109.1 418.75,-113.94"/>
<polygon fill="#63b8ff" stroke="#63b8ff" points="496.32,-101.48 505.4,-96.03 494.9,-94.63 496.32,-101.48"/>
</a>
</g>
</g>
<!-- Node11&#45;&gt;Node9 -->
<g id="edge20_Node000011_Node000009" class="edge">
<title>Node11&#45;&gt;Node9</title>
<g id="a_edge20_Node000011_Node000009"><a xlink:title=" ">
<path fill="none" stroke="#63b8ff" d="M472.72,-86.5C458.04,-86.5 442.96,-86.5 429.11,-86.5"/>
<polygon fill="#63b8ff" stroke="#63b8ff" points="472.81,-90 482.81,-86.5 472.81,-83 472.81,-90"/>
</a>
</g>
</g>
<!-- Node12 -->
<g id="Node000012" class="node">
<title>Node12</title>
<g id="a_Node000012"><a xlink:href="dmplex__geom_8c.html#af7fb8fc68c27b224f0458d0c42911fe6" target="_top" xlink:title="Per&#45;SNES&#45;iteration geometry update.">
<polygon fill="white" stroke="#666666" points="444,-22 299,-22 299,-3 444,-3 444,-22"/>
<text text-anchor="middle" x="371.5" y="-10" font-family="Helvetica,sans-Serif" font-size="10.00">FEM_DMPlexGeomUpdate</text>
</a>
</g>
</g>
<!-- Node11&#45;&gt;Node12 -->
<g id="edge14_Node000011_Node000012" class="edge">
<title>Node11&#45;&gt;Node12</title>
<g id="a_edge14_Node000011_Node000012"><a xlink:title=" ">
<path fill="none" stroke="#63b8ff" d="M527.31,-71.81C506.01,-59.38 473.81,-41.84 444,-30.5 435.51,-27.27 426.22,-24.45 417.24,-22.05"/>
<polygon fill="#63b8ff" stroke="#63b8ff" points="525.62,-74.87 536.01,-76.95 529.18,-68.85 525.62,-74.87"/>
</a>
</g>
</g>
<!-- Node12&#45;&gt;Node6 -->
<g id="edge17_Node000012_Node000006" class="edge">
<title>Node12&#45;&gt;Node6</title>
<g id="a_edge17_Node000012_Node000006"><a xlink:title=" ">
<path fill="none" stroke="#63b8ff" d="M303.92,-26.96C302.21,-28.05 300.57,-29.23 299,-30.5 270.86,-53.24 285.85,-75.46 263,-103.5 246.33,-123.96 221.16,-141.62 204.78,-151.92"/>
<polygon fill="#63b8ff" stroke="#63b8ff" points="305.76,-29.94 312.91,-22.12 302.44,-23.78 305.76,-29.94"/>
</a>
</g>
</g>
<!-- Node13 -->
<g id="Node000013" class="node">
<title>Node13</title>
<g id="a_Node000013"><a xlink:href="active__strain_8c.html#a693fb698122674ff7df6dd47ac75167c" target="_top" xlink:title="Run per&#45;element precomputations before global internal&#45;force assembly.">
<polygon fill="white" stroke="#666666" points="236,-19 139,-19 139,0 236,0 236,-19"/>
<text text-anchor="middle" x="187.5" y="-7" font-family="Helvetica,sans-Serif" font-size="10.00">FInternalPreCalc</text>
</a>
</g>
</g>
<!-- Node12&#45;&gt;Node13 -->
<g id="edge15_Node000012_Node000013" class="edge">
<title>Node12&#45;&gt;Node13</title>
<g id="a_edge15_Node000012_Node000013"><a xlink:title=" ">
<path fill="none" stroke="#63b8ff" d="M288.61,-11.15C270.61,-10.85 252.13,-10.55 236.03,-10.28"/>
<polygon fill="#63b8ff" stroke="#63b8ff" points="288.77,-14.65 298.83,-11.32 288.89,-7.65 288.77,-14.65"/>
</a>
</g>
</g>
<!-- Node14 -->
<g id="Node000014" class="node">
<title>Node14</title>
<g id="a_Node000014"><a xlink:href="active__strain_8c.html#a3bac899c10052c346d2afe9eccbac71d" target="_top" xlink:title="Assemble global internal force vector for active&#45;strain mechanics.">
<polygon fill="#fff0f0" stroke="red" points="76,-19 0,-19 0,0 76,0 76,-19"/>
<text text-anchor="middle" x="38" y="-7" font-family="Helvetica,sans-Serif" font-size="10.00">FInternalAct</text>
</a>
</g>
</g>
<!-- Node13&#45;&gt;Node14 -->
<g id="edge16_Node000013_Node000014" class="edge">
<title>Node13&#45;&gt;Node14</title>
<g id="a_edge16_Node000013_Node000014"><a xlink:title=" ">
<path fill="none" stroke="#63b8ff" d="M128.47,-9.5C110.94,-9.5 92.17,-9.5 76.38,-9.5"/>
<polygon fill="#63b8ff" stroke="#63b8ff" points="128.61,-13 138.61,-9.5 128.61,-6 128.61,-13"/>
</a>
</g>
</g>
<!-- Node17 -->
<g id="Node000017" class="node">
<title>Node17</title>
<g id="a_Node000017"><a xlink:href="active__strain_8c.html#add9b2ea1963ddf3467e90047c8d5412b" target="_top" xlink:title="Initialize active&#45;strain module (options, storage, and quadrature).">
<polygon fill="white" stroke="#666666" points="611,-230 494,-230 494,-211 611,-211 611,-230"/>
<text text-anchor="middle" x="552.5" y="-218" font-family="Helvetica,sans-Serif" font-size="10.00">InitActStrainProblem</text>
</a>
</g>
</g>
<!-- Node16&#45;&gt;Node17 -->
<g id="edge22_Node000016_Node000017" class="edge">
<title>Node16&#45;&gt;Node17</title>
<g id="a_edge22_Node000016_Node000017"><a xlink:title=" ">
<path fill="none" stroke="#63b8ff" d="M656.71,-202.43C640.14,-205.33 623.2,-208.3 607.96,-210.97"/>
<polygon fill="#63b8ff" stroke="#63b8ff" points="657.71,-205.81 666.96,-200.64 656.5,-198.91 657.71,-205.81"/>
</a>
</g>
</g>
<!-- Node17&#45;&gt;Node5 -->
<g id="edge23_Node000017_Node000005" class="edge">
<title>Node17&#45;&gt;Node5</title>
<g id="a_edge23_Node000017_Node000005"><a xlink:title=" ">
<path fill="none" stroke="#63b8ff" d="M490.11,-231.55C401.97,-244.45 236.45,-257.39 112,-200.5 80,-185.87 55.11,-150.21 44.54,-133.04"/>
<polygon fill="#63b8ff" stroke="#63b8ff" points="490.85,-234.98 500.21,-230.03 489.8,-228.06 490.85,-234.98"/>
</a>
</g>
</g>
</g>
</svg>
