<?xml version="1.0" encoding="UTF-8" standalone="no"?>
<!DOCTYPE svg PUBLIC "-//W3C//DTD SVG 1.1//EN"
 "http://www.w3.org/Graphics/SVG/1.1/DTD/svg11.dtd">
<!-- Generated by graphviz version 2.43.0 (0)
 -->
<!-- Title: InitActStrainProblem Pages: 1 -->
<!--zoomable 284 -->

<svg id="main" version="1.1" xmlns="http://www.w3.org/2000/svg" xmlns:xlink="http://www.w3.org/1999/xlink" xml:space="preserve" onload="init(evt)">
<style type="text/css"><![CDATA[
.node, .edge {opacity: 0.7;}
.node.selected, .edge.selected {opacity: 1;}
.edge:hover path { stroke: red; }
.edge:hover polygon { stroke: red; fill: red; }
]]></style>

<defs>
  <circle id="rim" cx="0" cy="0" r="7"/>
  <circle id="rim2" cx="0" cy="0" r="3.5"/>
  <g id="zoomPlus">
    <use xlink:href="#rim" fill="#404040"><set attributeName="fill" to="#808080" begin="zoomplus.mouseover" end="zoomplus.mouseout"/></use>
    <path d="M-4,0h8M0,-4v8" fill="none" stroke="white" stroke-width="1.5" pointer-events="none"/>
  </g>
  <g id="zoomMin">
    <use xlink:href="#rim" fill="#404040"><set attributeName="fill" to="#808080" begin="zoomminus.mouseover" end="zoomminus.mouseout"/></use>
    <path d="M-4,0h8" fill="none" stroke="white" stroke-width="1.5" pointer-events="none"/>
  </g>
  <g id="arrowUp" transform="translate(30 24)">
    <use xlink:href="#rim"/>
    <path pointer-events="none" fill="none" stroke="white" stroke-width="1.5" d="M0,-3.0v7 M-2.5,-0.5L0,-3.0L2.5,-0.5"/>
  </g>
  <g id="arrowRight" transform="rotate(90) translate(36 -43)">
    <use xlink:href="#rim"/>
    <path pointer-events="none" fill="none" stroke="white" stroke-width="1.5" d="M0,-3.0v7 M-2.5,-0.5L0,-3.0L2.5,-0.5"/>
  </g>
  <g id="arrowDown" transform="rotate(180) translate(-30 -48)">
    <use xlink:href="#rim"/>
    <path pointer-events="none" fill="none" stroke="white" stroke-width="1.5" d="M0,-3.0v7 M-2.5,-0.5L0,-3.0L2.5,-0.5"/>
  </g>
  <g id="arrowLeft" transform="rotate(270) translate(-36 17)">
    <use xlink:href="#rim"/>
    <path pointer-events="none" fill="none" stroke="white" stroke-width="1.5" d="M0,-3.0v7 M-2.5,-0.5L0,-3.0L2.5,-0.5"/>
  </g>
  <g id="resetDef">
    <use xlink:href="#rim2" fill="#404040"><set attributeName="fill" to="#808080" begin="reset.mouseover" end="reset.mouseout"/></use>
  </g>
</defs>
<script type="application/ecmascript">
var viewWidth = 749;
var viewHeight = 284;
var sectionId = 'dynsection-6';
</script>
<script type="application/ecmascript" xlink:href="svg.min.js"/>
<svg id="graph" class="graph">
<g id="viewport">
<title>InitActStrainProblem</title>
<!-- Node1 -->
<g id="Node000001" class="node">
<title>Node1</title>
<g id="a_Node000001"><a xlink:title="Initialize active&#45;strain module (options, storage, and quadrature).">
<polygon fill="#999999" stroke="#666666" points="117,-163 0,-163 0,-144 117,-144 117,-163"/>
<text text-anchor="middle" x="58.5" y="-151" font-family="Helvetica,sans-Serif" font-size="10.00">InitActStrainProblem</text>
</a>
</g>
</g>
<!-- Node2 -->
<g id="Node000002" class="node">
<title>Node2</title>
<g id="a_Node000002"><a xlink:href="active__strain_8c.html#a2ba52270256ef880245fbbb008ee271c" target="_top" xlink:title="Allocate active&#45;strain arrays for all elements and quadrature points.">
<polygon fill="white" stroke="#666666" points="281,-276 186,-276 186,-257 281,-257 281,-276"/>
<text text-anchor="middle" x="233.5" y="-264" font-family="Helvetica,sans-Serif" font-size="10.00">ActDataAllocate</text>
</a>
</g>
</g>
<!-- Node1&#45;&gt;Node2 -->
<g id="edge1_Node000001_Node000002" class="edge">
<title>Node1&#45;&gt;Node2</title>
<g id="a_edge1_Node000001_Node000002"><a xlink:title=" ">
<path fill="none" stroke="#63b8ff" d="M66.23,-163.23C80.1,-182.49 113.86,-225.54 153,-247.5 160.13,-251.5 168.07,-254.66 176.1,-257.16"/>
<polygon fill="#63b8ff" stroke="#63b8ff" points="175.32,-260.57 185.89,-259.89 177.2,-253.83 175.32,-260.57"/>
</a>
</g>
</g>
<!-- Node3 -->
<g id="Node000003" class="node">
<title>Node3</title>
<g id="a_Node000003"><a xlink:href="active__strain_8c.html#a12d870e5382d879992dcc9f9a921318f" target="_top" xlink:title=" ">
<polygon fill="white" stroke="#666666" points="309.5,-238.5 157.5,-238.5 157.5,-208.5 309.5,-208.5 309.5,-238.5"/>
<text text-anchor="start" x="165.5" y="-226.5" font-family="Helvetica,sans-Serif" font-size="10.00">EnsureAllGeometryIrregular</text>
<text text-anchor="middle" x="233.5" y="-215.5" font-family="Helvetica,sans-Serif" font-size="10.00">Arrays_</text>
</a>
</g>
</g>
<!-- Node1&#45;&gt;Node3 -->
<g id="edge2_Node000001_Node000003" class="edge">
<title>Node1&#45;&gt;Node3</title>
<g id="a_edge2_Node000001_Node000003"><a xlink:title=" ">
<path fill="none" stroke="#63b8ff" d="M76.69,-163.02C95.16,-173 125.56,-188.69 153,-199.5 158.03,-201.48 163.29,-203.4 168.61,-205.22"/>
<polygon fill="#63b8ff" stroke="#63b8ff" points="167.61,-208.58 178.21,-208.41 169.82,-201.94 167.61,-208.58"/>
</a>
</g>
</g>
<!-- Node5 -->
<g id="Node000005" class="node">
<title>Node5</title>
<g id="a_Node000005"><a xlink:href="manufactured__active__strain__b_8c.html#a230f4c56a367c6039fcc25cfcb31702e" target="_top" xlink:title=" ">
<polygon fill="white" stroke="#666666" points="314,-190.5 153,-190.5 153,-160.5 314,-160.5 314,-190.5"/>
<text text-anchor="start" x="161" y="-178.5" font-family="Helvetica,sans-Serif" font-size="10.00">GetManufacturedActiveStrain</text>
<text text-anchor="middle" x="233.5" y="-167.5" font-family="Helvetica,sans-Serif" font-size="10.00">Options</text>
</a>
</g>
</g>
<!-- Node1&#45;&gt;Node5 -->
<g id="edge4_Node000001_Node000005" class="edge">
<title>Node1&#45;&gt;Node5</title>
<g id="a_edge4_Node000001_Node000005"><a xlink:title=" ">
<path fill="none" stroke="#63b8ff" d="M117.11,-160.83C125.46,-161.89 134.22,-163 143.03,-164.12"/>
<polygon fill="#63b8ff" stroke="#63b8ff" points="142.6,-167.6 152.96,-165.39 143.49,-160.65 142.6,-167.6"/>
</a>
</g>
</g>
<!-- Node6 -->
<g id="Node000006" class="node">
<title>Node6</title>
<g id="a_Node000006"><a xlink:href="active__strain_8c.html#a1d8c737461476d2bf1d4b1ab94ec2077" target="_top" xlink:title="Read active&#45;strain runtime options from PETSc command&#45;line parameters.">
<polygon fill="white" stroke="#666666" points="287.5,-142 179.5,-142 179.5,-123 287.5,-123 287.5,-142"/>
<text text-anchor="middle" x="233.5" y="-130" font-family="Helvetica,sans-Serif" font-size="10.00">GetUserActParams</text>
</a>
</g>
</g>
<!-- Node1&#45;&gt;Node6 -->
<g id="edge5_Node000001_Node000006" class="edge">
<title>Node1&#45;&gt;Node6</title>
<g id="a_edge5_Node000001_Node000006"><a xlink:title=" ">
<path fill="none" stroke="#63b8ff" d="M117.11,-146.51C133.71,-144.49 151.92,-142.28 168.87,-140.22"/>
<polygon fill="#63b8ff" stroke="#63b8ff" points="169.73,-143.65 179.23,-138.97 168.89,-136.7 169.73,-143.65"/>
</a>
</g>
</g>
<!-- Node7 -->
<g id="Node000007" class="node">
<title>Node7</title>
<g id="a_Node000007"><a xlink:href="manufactured__active__strain_8c.html#a9a638a5c199d0216bf97dad8dba443f0" target="_top" xlink:title=" ">
<polygon fill="white" stroke="#666666" points="312.5,-104.5 154.5,-104.5 154.5,-74.5 312.5,-74.5 312.5,-104.5"/>
<text text-anchor="start" x="162.5" y="-92.5" font-family="Helvetica,sans-Serif" font-size="10.00">ManufacturedKinematicsAnd</text>
<text text-anchor="middle" x="233.5" y="-81.5" font-family="Helvetica,sans-Serif" font-size="10.00">FExternalSetInitial</text>
</a>
</g>
</g>
<!-- Node1&#45;&gt;Node7 -->
<g id="edge6_Node000001_Node000007" class="edge">
<title>Node1&#45;&gt;Node7</title>
<g id="a_edge6_Node000001_Node000007"><a xlink:title=" ">
<path fill="none" stroke="#63b8ff" d="M80.82,-143.96C99.63,-135.7 127.89,-123.67 153,-114.5 159.3,-112.2 165.93,-109.91 172.55,-107.71"/>
<polygon fill="#63b8ff" stroke="#63b8ff" points="173.81,-110.98 182.23,-104.55 171.63,-104.33 173.81,-110.98"/>
</a>
</g>
</g>
<!-- Node14 -->
<g id="Node000014" class="node">
<title>Node14</title>
<g id="a_Node000014"><a xlink:href="active__strain_8c.html#ad2627bc8964201d5d67458f310898629" target="_top" xlink:title="Set 1D Gauss&#45;Legendre points and weights for active&#45;strain integration.">
<polygon fill="white" stroke="#666666" points="299.5,-56 167.5,-56 167.5,-37 299.5,-37 299.5,-56"/>
<text text-anchor="middle" x="233.5" y="-44" font-family="Helvetica,sans-Serif" font-size="10.00">SetGaussianQuadrature</text>
</a>
</g>
</g>
<!-- Node1&#45;&gt;Node14 -->
<g id="edge13_Node000001_Node000014" class="edge">
<title>Node1&#45;&gt;Node14</title>
<g id="a_edge13_Node000001_Node000014"><a xlink:title=" ">
<path fill="none" stroke="#63b8ff" d="M66.82,-143.85C81.22,-125.57 115.14,-85.93 153,-65.5 157.3,-63.18 161.88,-61.14 166.59,-59.35"/>
<polygon fill="#63b8ff" stroke="#63b8ff" points="168.06,-62.54 176.39,-56 165.8,-55.92 168.06,-62.54"/>
</a>
</g>
</g>
<!-- Node4 -->
<g id="Node000004" class="node">
<title>Node4</title>
<g id="a_Node000004"><a xlink:href="active__strain_8c.html#af8eb71852e7e9e1290f27656e66736fe" target="_top" xlink:title=" ">
<polygon fill="white" stroke="#666666" points="514.5,-238.5 361.5,-238.5 361.5,-208.5 514.5,-208.5 514.5,-238.5"/>
<text text-anchor="start" x="369.5" y="-226.5" font-family="Helvetica,sans-Serif" font-size="10.00">SubdivGeomEnsureIrregular</text>
<text text-anchor="middle" x="438" y="-215.5" font-family="Helvetica,sans-Serif" font-size="10.00">Arrays_</text>
</a>
</g>
</g>
<!-- Node3&#45;&gt;Node4 -->
<g id="edge3_Node000003_Node000004" class="edge">
<title>Node3&#45;&gt;Node4</title>
<g id="a_edge3_Node000003_Node000004"><a xlink:title=" ">
<path fill="none" stroke="#63b8ff" d="M309.62,-223.5C323.2,-223.5 337.46,-223.5 351.32,-223.5"/>
<polygon fill="#63b8ff" stroke="#63b8ff" points="351.33,-227 361.33,-223.5 351.33,-220 351.33,-227"/>
</a>
</g>
</g>
<!-- Node8 -->
<g id="Node000008" class="node">
<title>Node8</title>
<g id="a_Node000008"><a xlink:href="manufactured__active__strain_8c.html#a76dced439e9210fc76cb2f1c40e37440" target="_top" xlink:title=" ">
<polygon fill="white" stroke="#666666" points="526,-104.5 350,-104.5 350,-74.5 526,-74.5 526,-104.5"/>
<text text-anchor="start" x="358" y="-92.5" font-family="Helvetica,sans-Serif" font-size="10.00">GenerateManufacturedFExternal</text>
<text text-anchor="middle" x="438" y="-81.5" font-family="Helvetica,sans-Serif" font-size="10.00">AndKinematics</text>
</a>
</g>
</g>
<!-- Node7&#45;&gt;Node8 -->
<g id="edge7_Node000007_Node000008" class="edge">
<title>Node7&#45;&gt;Node8</title>
<g id="a_edge7_Node000007_Node000008"><a xlink:title=" ">
<path fill="none" stroke="#63b8ff" d="M312.5,-89.5C321.41,-89.5 330.56,-89.5 339.68,-89.5"/>
<polygon fill="#63b8ff" stroke="#63b8ff" points="339.94,-93 349.94,-89.5 339.94,-86 339.94,-93"/>
</a>
</g>
</g>
<!-- Node9 -->
<g id="Node000009" class="node">
<title>Node9</title>
<g id="a_Node000009"><a xlink:href="main_8c.html#a406cf6152471e0614dca5a045fdfd99f" target="_top" xlink:title=" ">
<polygon fill="white" stroke="#666666" points="684.5,-179 618.5,-179 618.5,-160 684.5,-160 684.5,-179"/>
<text text-anchor="middle" x="651.5" y="-167" font-family="Helvetica,sans-Serif" font-size="10.00">FDynamic</text>
</a>
</g>
</g>
<!-- Node8&#45;&gt;Node9 -->
<g id="edge8_Node000008_Node000009" class="edge">
<title>Node8&#45;&gt;Node9</title>
<g id="a_edge8_Node000008_Node000009"><a xlink:title=" ">
<path fill="none" stroke="#63b8ff" d="M464.04,-104.63C488.3,-118.67 526.53,-139.2 562,-151.5 576.8,-156.63 593.54,-160.5 608.44,-163.31"/>
<polygon fill="#63b8ff" stroke="#63b8ff" points="607.95,-166.78 618.41,-165.09 609.18,-159.89 607.95,-166.78"/>
</a>
</g>
</g>
<!-- Node10 -->
<g id="Node000010" class="node">
<title>Node10</title>
<g id="a_Node000010"><a xlink:href="manufactured__active__strain_8c.html#a69b43cbc313808cb126e5163114b9813" target="_top" xlink:title=" ">
<polygon fill="white" stroke="#666666" points="741,-142 562,-142 562,-123 741,-123 741,-142"/>
<text text-anchor="middle" x="651.5" y="-130" font-family="Helvetica,sans-Serif" font-size="10.00">ManufacturedExactLocationsSet_</text>
</a>
</g>
</g>
<!-- Node8&#45;&gt;Node10 -->
<g id="edge9_Node000008_Node000010" class="edge">
<title>Node8&#45;&gt;Node10</title>
<g id="a_edge9_Node000008_Node000010"><a xlink:title=" ">
<path fill="none" stroke="#63b8ff" d="M512.97,-104.54C539.46,-109.92 568.88,-115.91 593.69,-120.95"/>
<polygon fill="#63b8ff" stroke="#63b8ff" points="593.17,-124.42 603.66,-122.98 594.56,-117.56 593.17,-124.42"/>
</a>
</g>
</g>
<!-- Node11 -->
<g id="Node000011" class="node">
<title>Node11</title>
<g id="a_Node000011"><a xlink:href="manufactured__active__strain_8c.html#a2787f3690156c71eea4db92cd0c3cd52" target="_top" xlink:title=" ">
<polygon fill="white" stroke="#666666" points="726.5,-104.5 576.5,-104.5 576.5,-74.5 726.5,-74.5 726.5,-104.5"/>
<text text-anchor="start" x="584.5" y="-92.5" font-family="Helvetica,sans-Serif" font-size="10.00">ManufacturedExactVelocity</text>
<text text-anchor="middle" x="651.5" y="-81.5" font-family="Helvetica,sans-Serif" font-size="10.00">AccelerationSet_</text>
</a>
</g>
</g>
<!-- Node8&#45;&gt;Node11 -->
<g id="edge10_Node000008_Node000011" class="edge">
<title>Node8&#45;&gt;Node11</title>
<g id="a_edge10_Node000008_Node000011"><a xlink:title=" ">
<path fill="none" stroke="#63b8ff" d="M526.25,-89.5C539.36,-89.5 552.86,-89.5 565.91,-89.5"/>
<polygon fill="#63b8ff" stroke="#63b8ff" points="566.26,-93 576.26,-89.5 566.26,-86 566.26,-93"/>
</a>
</g>
</g>
<!-- Node12 -->
<g id="Node000012" class="node">
<title>Node12</title>
<g id="a_Node000012"><a xlink:href="manufactured__active__strain_8c.html#a2333d5074081e67344aeccdac7802989" target="_top" xlink:title=" ">
<polygon fill="white" stroke="#666666" points="736,-56 567,-56 567,-37 736,-37 736,-56"/>
<text text-anchor="middle" x="651.5" y="-44" font-family="Helvetica,sans-Serif" font-size="10.00">ManufacturedForceVectorsOut_</text>
</a>
</g>
</g>
<!-- Node8&#45;&gt;Node12 -->
<g id="edge11_Node000008_Node000012" class="edge">
<title>Node8&#45;&gt;Node12</title>
<g id="a_edge11_Node000008_Node000012"><a xlink:title=" ">
<path fill="none" stroke="#63b8ff" d="M512.97,-74.46C539.46,-69.08 568.88,-63.09 593.69,-58.05"/>
<polygon fill="#63b8ff" stroke="#63b8ff" points="594.56,-61.44 603.66,-56.02 593.17,-54.58 594.56,-61.44"/>
</a>
</g>
</g>
<!-- Node13 -->
<g id="Node000013" class="node">
<title>Node13</title>
<g id="a_Node000013"><a xlink:href="io_8c.html#a6ef830a0883e3f31ad5b52a2b20bdbb2" target="_top" xlink:title=" ">
<polygon fill="white" stroke="#666666" points="676.5,-19 626.5,-19 626.5,0 676.5,0 676.5,-19"/>
<text text-anchor="middle" x="651.5" y="-7" font-family="Helvetica,sans-Serif" font-size="10.00">Output</text>
</a>
</g>
</g>
<!-- Node8&#45;&gt;Node13 -->
<g id="edge12_Node000008_Node000013" class="edge">
<title>Node8&#45;&gt;Node13</title>
<g id="a_edge12_Node000008_Node000013"><a xlink:title=" ">
<path fill="none" stroke="#63b8ff" d="M464.04,-74.37C488.3,-60.33 526.53,-39.8 562,-27.5 579.54,-21.42 599.79,-17.11 616.49,-14.24"/>
<polygon fill="#63b8ff" stroke="#63b8ff" points="617.07,-17.69 626.38,-12.63 615.94,-10.78 617.07,-17.69"/>
</a>
</g>
</g>
</g>
</svg>

<g id="navigator" transform="translate(0 0)" fill="#404254">
  <rect fill="#f2f5e9" fill-opacity="0.5" stroke="#606060" stroke-width=".5" x="0" y="0" width="60" height="60"/>
  <use id="zoomplus" xlink:href="#zoomPlus" x="17" y="9" onmousedown="handleZoom(evt,'in')"/>
  <use id="zoomminus" xlink:href="#zoomMin" x="42" y="9" onmousedown="handleZoom(evt,'out')"/>
  <use id="reset" xlink:href="#resetDef" x="30" y="36" onmousedown="handleReset()"/>
   <use id="arrowup" xlink:href="#arrowUp" x="0" y="0" onmousedown="handlePan(0,-1)"/>
  <use id="arrowright" xlink:href="#arrowRight" x="0" y="0" onmousedown="handlePan(1,0)"/>
  <use id="arrowdown" xlink:href="#arrowDown" x="0" y="0" onmousedown="handlePan(0,1)"/>
  <use id="arrowleft" xlink:href="#arrowLeft" x="0" y="0" onmousedown="handlePan(-1,0)"/>
</g>
<svg viewBox="0 0 15 15" width="100%" height="30px" preserveAspectRatio="xMaxYMin meet">
 <g id="arrow_out" transform="scale(0.3 0.3)">
  <a xlink:href="active__strain_8h_add9b2ea1963ddf3467e90047c8d5412b_cgraph_org.svg" target="_base">
   <rect id="button" ry="5" rx="5" y="6" x="6" height="38" width="38"
        fill="#f2f5e9" fill-opacity="0.5" stroke="#606060" stroke-width="1.0"/>
   <path id="arrow"
     d="M 11.500037,31.436501 C 11.940474,20.09759 22.043105,11.32322 32.158766,21.979434 L 37.068811,17.246167 C 37.068811,17.246167 37.088388,32 37.088388,32 L 22.160133,31.978069 C 22.160133,31.978069 26.997745,27.140456 26.997745,27.140456 C 18.528582,18.264221 13.291696,25.230495 11.500037,31.436501 z"
     style="fill:#404040;"/>
  </a>
 </g>
</svg>

<style type='text/css'>
<![CDATA[
[data-mouse-over-selected='false'] { opacity: 0.7; }
[data-mouse-over-selected='true']  { opacity: 1.0; }
]]>
</style>
<script type="application/ecmascript"><![CDATA[
document.addEventListener('DOMContentLoaded', (event) => {
  highlightEdges();
  highlightAdjacentNodes();
});
]]></script>
</svg>
