<?xml version="1.0" encoding="UTF-8" standalone="no"?>
<!DOCTYPE svg PUBLIC "-//W3C//DTD SVG 1.1//EN"
 "http://www.w3.org/Graphics/SVG/1.1/DTD/svg11.dtd">
<!-- Generated by graphviz version 2.43.0 (0)
 -->
<!-- Title: PrintCmpnts_ Pages: 1 -->
<svg width="437pt" height="64pt"
 viewBox="0.00 0.00 437.00 64.00" xmlns="http://www.w3.org/2000/svg" xmlns:xlink="http://www.w3.org/1999/xlink">

<svg id="main" version="1.1" xmlns="http://www.w3.org/2000/svg" xmlns:xlink="http://www.w3.org/1999/xlink" xml:space="preserve" onload="init(evt)">
<style type="text/css"><![CDATA[
.node, .edge {opacity: 0.7;}
.node.selected, .edge.selected {opacity: 1;}
.edge:hover path { stroke: red; }
.edge:hover polygon { stroke: red; fill: red; }
]]></style>
<script type="application/ecmascript" xlink:href="svg.min.js"/>
<svg id="graph" class="graph">
<g id="graph0" class="graph" transform="scale(1 1) rotate(0) translate(4 60)">
<title>PrintCmpnts_</title>
<!-- Node1 -->
<g id="Node000001" class="node">
<title>Node1</title>
<g id="a_Node000001"><a xlink:title=" ">
<polygon fill="#999999" stroke="#666666" points="429,-37 347,-37 347,-18 429,-18 429,-37"/>
<text text-anchor="middle" x="388" y="-25" font-family="Helvetica,sans-Serif" font-size="10.00">PrintCmpnts_</text>
</a>
</g>
</g>
<!-- Node2 -->
<g id="Node000002" class="node">
<title>Node2</title>
<g id="a_Node000002"><a xlink:href="active__strain_8c.html#a8da5ed84f877d22453f56a9215ea350d" target="_top" xlink:title=" ">
<polygon fill="white" stroke="#666666" points="289.5,-56 212.5,-56 212.5,-37 289.5,-37 289.5,-56"/>
<text text-anchor="middle" x="251" y="-44" font-family="Helvetica,sans-Serif" font-size="10.00">PrintElemG_</text>
</a>
</g>
</g>
<!-- Node1&#45;&gt;Node2 -->
<g id="edge1_Node000001_Node000002" class="edge">
<title>Node1&#45;&gt;Node2</title>
<g id="a_edge1_Node000001_Node000002"><a xlink:title=" ">
<path fill="none" stroke="#63b8ff" d="M336.88,-34.55C321.33,-36.74 304.47,-39.12 289.9,-41.17"/>
<polygon fill="#63b8ff" stroke="#63b8ff" points="337.45,-38.01 346.86,-33.15 336.47,-31.08 337.45,-38.01"/>
</a>
</g>
</g>
<!-- Node3 -->
<g id="Node000003" class="node">
<title>Node3</title>
<g id="a_Node000003"><a xlink:href="active__strain_8c.html#a6f7955c76a804c97cebf32b6557f3cc8" target="_top" xlink:title=" ">
<polygon fill="white" stroke="#666666" points="311,-19 191,-19 191,0 311,0 311,-19"/>
<text text-anchor="middle" x="251" y="-7" font-family="Helvetica,sans-Serif" font-size="10.00">PrintSubdivGeomQP_</text>
</a>
</g>
</g>
<!-- Node1&#45;&gt;Node3 -->
<g id="edge2_Node000001_Node000003" class="edge">
<title>Node1&#45;&gt;Node3</title>
<g id="a_edge2_Node000001_Node000003"><a xlink:title=" ">
<path fill="none" stroke="#63b8ff" d="M336.89,-20.82C328.53,-19.7 319.79,-18.54 311.23,-17.4"/>
<polygon fill="#63b8ff" stroke="#63b8ff" points="336.49,-24.3 346.86,-22.15 337.41,-17.36 336.49,-24.3"/>
</a>
</g>
</g>
<!-- Node4 -->
<g id="Node000004" class="node">
<title>Node4</title>
<g id="a_Node000004"><a xlink:href="active__strain_8c.html#a528d90dd31bbdb88736ec7f3f9fa8d42" target="_top" xlink:title=" ">
<polygon fill="white" stroke="#666666" points="155,-19 0,-19 0,0 155,0 155,-19"/>
<text text-anchor="middle" x="77.5" y="-7" font-family="Helvetica,sans-Serif" font-size="10.00">DebugPrintGeomForElement</text>
</a>
</g>
</g>
<!-- Node3&#45;&gt;Node4 -->
<g id="edge3_Node000003_Node000004" class="edge">
<title>Node3&#45;&gt;Node4</title>
<g id="a_edge3_Node000003_Node000004"><a xlink:title=" ">
<path fill="none" stroke="#63b8ff" d="M180.82,-9.5C172.39,-9.5 163.73,-9.5 155.2,-9.5"/>
<polygon fill="#63b8ff" stroke="#63b8ff" points="180.98,-13 190.98,-9.5 180.98,-6 180.98,-13"/>
</a>
</g>
</g>
</g>
</svg>
</svg>

<style type='text/css'>
<![CDATA[
[data-mouse-over-selected='false'] { opacity: 0.7; }
[data-mouse-over-selected='true']  { opacity: 1.0; }
]]>
</style>
<script type="application/ecmascript"><![CDATA[
document.addEventListener('DOMContentLoaded', (event) => {
  highlightEdges();
  highlightAdjacentNodes();
});
]]></script>
</svg>
