<?xml version="1.0" encoding="UTF-8" standalone="no"?>
<!DOCTYPE svg PUBLIC "-//W3C//DTD SVG 1.1//EN"
 "http://www.w3.org/Graphics/SVG/1.1/DTD/svg11.dtd">
<!-- Generated by graphviz version 2.43.0 (0)
 -->
<!-- Title: ModifyGhostFree Pages: 1 -->
<svg width="193pt" height="175pt"
 viewBox="0.00 0.00 193.00 175.00" xmlns="http://www.w3.org/2000/svg" xmlns:xlink="http://www.w3.org/1999/xlink">
<g id="graph0" class="graph" transform="scale(1 1) rotate(0) translate(4 171)">
<title>ModifyGhostFree</title>
<!-- Node1 -->
<g id="Node000001" class="node">
<title>Node1</title>
<g id="a_Node000001"><a xlink:title=" ">
<polygon fill="#999999" stroke="#666666" points="99,-93 0,-93 0,-74 99,-74 99,-93"/>
<text text-anchor="middle" x="49.5" y="-81" font-family="Helvetica,sans-Serif" font-size="10.00">ModifyGhostFree</text>
</a>
</g>
</g>
<!-- Node2 -->
<g id="Node000002" class="node">
<title>Node2</title>
<g id="a_Node000002"><a xlink:href="math_8c.html#a9d60990d26296194c921d537ea26f3c7" target="_top" xlink:title=" ">
<polygon fill="white" stroke="#666666" points="185,-167 135,-167 135,-148 185,-148 185,-167"/>
<text text-anchor="middle" x="160" y="-155" font-family="Helvetica,sans-Serif" font-size="10.00">CROSS</text>
</a>
</g>
</g>
<!-- Node1&#45;&gt;Node2 -->
<g id="edge1_Node000001_Node000002" class="edge">
<title>Node1&#45;&gt;Node2</title>
<g id="a_edge1_Node000001_Node000002"><a xlink:title=" ">
<path fill="none" stroke="#63b8ff" d="M64.68,-93.17C82.96,-105.64 114.94,-127.45 136.54,-142.18"/>
<polygon fill="#63b8ff" stroke="#63b8ff" points="134.58,-145.08 144.81,-147.82 138.52,-139.3 134.58,-145.08"/>
</a>
</g>
</g>
<!-- Node3 -->
<g id="Node000003" class="node">
<title>Node3</title>
<g id="a_Node000003"><a xlink:href="math_8c.html#a870a70f4845a041458d9bdb0dd7aabd3" target="_top" xlink:title=" ">
<polygon fill="white" stroke="#666666" points="179,-130 141,-130 141,-111 179,-111 179,-130"/>
<text text-anchor="middle" x="160" y="-118" font-family="Helvetica,sans-Serif" font-size="10.00">DOT</text>
</a>
</g>
</g>
<!-- Node1&#45;&gt;Node3 -->
<g id="edge2_Node000001_Node000003" class="edge">
<title>Node1&#45;&gt;Node3</title>
<g id="a_edge2_Node000001_Node000003"><a xlink:title=" ">
<path fill="none" stroke="#63b8ff" d="M78.44,-93.03C94.66,-98.56 115.03,-105.51 131.22,-111.03"/>
<polygon fill="#63b8ff" stroke="#63b8ff" points="130.1,-114.34 140.69,-114.26 132.36,-107.72 130.1,-114.34"/>
</a>
</g>
</g>
<!-- Node4 -->
<g id="Node000004" class="node">
<title>Node4</title>
<g id="a_Node000004"><a xlink:href="math_8c.html#a9d08a9d2fd8e8932e92b8ab054b19269" target="_top" xlink:title=" ">
<polygon fill="white" stroke="#666666" points="185,-93 135,-93 135,-74 185,-74 185,-93"/>
<text text-anchor="middle" x="160" y="-81" font-family="Helvetica,sans-Serif" font-size="10.00">MINUS</text>
</a>
</g>
</g>
<!-- Node1&#45;&gt;Node4 -->
<g id="edge3_Node000001_Node000004" class="edge">
<title>Node1&#45;&gt;Node4</title>
<g id="a_edge3_Node000001_Node000004"><a xlink:title=" ">
<path fill="none" stroke="#63b8ff" d="M99.04,-83.5C107.67,-83.5 116.49,-83.5 124.63,-83.5"/>
<polygon fill="#63b8ff" stroke="#63b8ff" points="124.85,-87 134.85,-83.5 124.85,-80 124.85,-87"/>
</a>
</g>
</g>
<!-- Node5 -->
<g id="Node000005" class="node">
<title>Node5</title>
<g id="a_Node000005"><a xlink:href="math_8c.html#aa52f6593cf3e5453c8c6c94343d3fb37" target="_top" xlink:title=" ">
<polygon fill="white" stroke="#666666" points="179,-56 141,-56 141,-37 179,-37 179,-56"/>
<text text-anchor="middle" x="160" y="-44" font-family="Helvetica,sans-Serif" font-size="10.00">SIZE</text>
</a>
</g>
</g>
<!-- Node1&#45;&gt;Node5 -->
<g id="edge4_Node000001_Node000005" class="edge">
<title>Node1&#45;&gt;Node5</title>
<g id="a_edge4_Node000001_Node000005"><a xlink:title=" ">
<path fill="none" stroke="#63b8ff" d="M78.44,-73.97C94.66,-68.44 115.03,-61.49 131.22,-55.97"/>
<polygon fill="#63b8ff" stroke="#63b8ff" points="132.36,-59.28 140.69,-52.74 130.1,-52.66 132.36,-59.28"/>
</a>
</g>
</g>
<!-- Node6 -->
<g id="Node000006" class="node">
<title>Node6</title>
<g id="a_Node000006"><a xlink:href="math_8c.html#ac616709995f2ae60c4308ffa328337d7" target="_top" xlink:title=" ">
<polygon fill="white" stroke="#666666" points="180.5,-19 139.5,-19 139.5,0 180.5,0 180.5,-19"/>
<text text-anchor="middle" x="160" y="-7" font-family="Helvetica,sans-Serif" font-size="10.00">UNIT</text>
</a>
</g>
</g>
<!-- Node1&#45;&gt;Node6 -->
<g id="edge5_Node000001_Node000006" class="edge">
<title>Node1&#45;&gt;Node6</title>
<g id="a_edge5_Node000001_Node000006"><a xlink:title=" ">
<path fill="none" stroke="#63b8ff" d="M64.68,-73.83C82.96,-61.36 114.94,-39.55 136.54,-24.82"/>
<polygon fill="#63b8ff" stroke="#63b8ff" points="138.52,-27.7 144.81,-19.18 134.58,-21.92 138.52,-27.7"/>
</a>
</g>
</g>
</g>
</svg>
