<?xml version="1.0" encoding="UTF-8" standalone="no"?>
<!DOCTYPE svg PUBLIC "-//W3C//DTD SVG 1.1//EN"
 "http://www.w3.org/Graphics/SVG/1.1/DTD/svg11.dtd">
<!-- Generated by graphviz version 2.43.0 (0)
 -->
<!-- Title: Fbending Pages: 1 -->
<!--zoomable 478 -->

<svg id="main" version="1.1" xmlns="http://www.w3.org/2000/svg" xmlns:xlink="http://www.w3.org/1999/xlink" xml:space="preserve" onload="init(evt)">
<style type="text/css"><![CDATA[
.node, .edge {opacity: 0.7;}
.node.selected, .edge.selected {opacity: 1;}
.edge:hover path { stroke: red; }
.edge:hover polygon { stroke: red; fill: red; }
]]></style>

<defs>
  <circle id="rim" cx="0" cy="0" r="7"/>
  <circle id="rim2" cx="0" cy="0" r="3.5"/>
  <g id="zoomPlus">
    <use xlink:href="#rim" fill="#404040"><set attributeName="fill" to="#808080" begin="zoomplus.mouseover" end="zoomplus.mouseout"/></use>
    <path d="M-4,0h8M0,-4v8" fill="none" stroke="white" stroke-width="1.5" pointer-events="none"/>
  </g>
  <g id="zoomMin">
    <use xlink:href="#rim" fill="#404040"><set attributeName="fill" to="#808080" begin="zoomminus.mouseover" end="zoomminus.mouseout"/></use>
    <path d="M-4,0h8" fill="none" stroke="white" stroke-width="1.5" pointer-events="none"/>
  </g>
  <g id="arrowUp" transform="translate(30 24)">
    <use xlink:href="#rim"/>
    <path pointer-events="none" fill="none" stroke="white" stroke-width="1.5" d="M0,-3.0v7 M-2.5,-0.5L0,-3.0L2.5,-0.5"/>
  </g>
  <g id="arrowRight" transform="rotate(90) translate(36 -43)">
    <use xlink:href="#rim"/>
    <path pointer-events="none" fill="none" stroke="white" stroke-width="1.5" d="M0,-3.0v7 M-2.5,-0.5L0,-3.0L2.5,-0.5"/>
  </g>
  <g id="arrowDown" transform="rotate(180) translate(-30 -48)">
    <use xlink:href="#rim"/>
    <path pointer-events="none" fill="none" stroke="white" stroke-width="1.5" d="M0,-3.0v7 M-2.5,-0.5L0,-3.0L2.5,-0.5"/>
  </g>
  <g id="arrowLeft" transform="rotate(270) translate(-36 17)">
    <use xlink:href="#rim"/>
    <path pointer-events="none" fill="none" stroke="white" stroke-width="1.5" d="M0,-3.0v7 M-2.5,-0.5L0,-3.0L2.5,-0.5"/>
  </g>
  <g id="resetDef">
    <use xlink:href="#rim2" fill="#404040"><set attributeName="fill" to="#808080" begin="reset.mouseover" end="reset.mouseout"/></use>
  </g>
</defs>
<script type="application/ecmascript">
var viewWidth = 328;
var viewHeight = 478;
var sectionId = 'dynsection-19';
</script>
<script type="application/ecmascript" xlink:href="svg.min.js"/>
<svg id="graph" class="graph">
<g id="viewport">
<title>Fbending</title>
<!-- Node1 -->
<g id="Node000001" class="node">
<title>Node1</title>
<g id="a_Node000001"><a xlink:title=" ">
<polygon fill="#999999" stroke="#666666" points="62,-243.28 0,-243.28 0,-224.28 62,-224.28 62,-243.28"/>
<text text-anchor="middle" x="31" y="-231.28" font-family="Helvetica,sans-Serif" font-size="10.00">Fbending</text>
</a>
</g>
</g>
<!-- Node2 -->
<g id="Node000002" class="node">
<title>Node2</title>
<g id="a_Node000002"><a xlink:href="math_8c.html#a7ef9263b0a3a10c2cd00bb4dc0059d70" target="_top" xlink:title=" ">
<polygon fill="white" stroke="#666666" points="191,-470.28 141,-470.28 141,-451.28 191,-451.28 191,-470.28"/>
<text text-anchor="middle" x="166" y="-458.28" font-family="Helvetica,sans-Serif" font-size="10.00">AMULT</text>
</a>
</g>
</g>
<!-- Node1&#45;&gt;Node2 -->
<g id="edge1_Node000001_Node000002" class="edge">
<title>Node1&#45;&gt;Node2</title>
<g id="a_edge1_Node000001_Node000002"><a xlink:title=" ">
<path fill="none" stroke="#63b8ff" d="M32.27,-243.33C33.67,-275.28 42.5,-379.61 98,-436.78 106.72,-445.76 119.03,-451.39 130.73,-454.92"/>
<polygon fill="#63b8ff" stroke="#63b8ff" points="130.18,-458.39 140.74,-457.5 131.94,-451.61 130.18,-458.39"/>
</a>
</g>
</g>
<!-- Node3 -->
<g id="Node000003" class="node">
<title>Node3</title>
<g id="a_Node000003"><a xlink:href="material_8c.html#af81ecf5fbfd52082e0abd3184f12c14f" target="_top" xlink:title=" ">
<polygon fill="white" stroke="#666666" points="219,-356.28 113,-356.28 113,-337.28 219,-337.28 219,-356.28"/>
<text text-anchor="middle" x="166" y="-344.28" font-family="Helvetica,sans-Serif" font-size="10.00">BendingNonLinear</text>
</a>
</g>
</g>
<!-- Node1&#45;&gt;Node3 -->
<g id="edge2_Node000001_Node000003" class="edge">
<title>Node1&#45;&gt;Node3</title>
<g id="a_edge2_Node000001_Node000003"><a xlink:title=" ">
<path fill="none" stroke="#63b8ff" d="M36.75,-243.56C46.04,-261.71 68.34,-300.77 98,-322.78 103.6,-326.93 109.99,-330.42 116.54,-333.34"/>
<polygon fill="#63b8ff" stroke="#63b8ff" points="115.61,-336.73 126.19,-337.21 118.22,-330.24 115.61,-336.73"/>
</a>
</g>
</g>
<!-- Node4 -->
<g id="Node000004" class="node">
<title>Node4</title>
<g id="a_Node000004"><a xlink:href="math_8c.html#a9d60990d26296194c921d537ea26f3c7" target="_top" xlink:title=" ">
<polygon fill="white" stroke="#666666" points="320,-280.28 270,-280.28 270,-261.28 320,-261.28 320,-280.28"/>
<text text-anchor="middle" x="295" y="-268.28" font-family="Helvetica,sans-Serif" font-size="10.00">CROSS</text>
</a>
</g>
</g>
<!-- Node1&#45;&gt;Node4 -->
<g id="edge13_Node000001_Node000004" class="edge">
<title>Node1&#45;&gt;Node4</title>
<g id="a_edge13_Node000001_Node000004"><a xlink:title=" ">
<path fill="none" stroke="#63b8ff" d="M39.65,-243.64C50.79,-257.08 72.89,-280.56 98,-289.78 152.29,-309.7 220.41,-295 260.38,-282.73"/>
<polygon fill="#63b8ff" stroke="#63b8ff" points="261.45,-286.06 269.91,-279.69 259.32,-279.39 261.45,-286.06"/>
</a>
</g>
</g>
<!-- Node5 -->
<g id="Node000005" class="node">
<title>Node5</title>
<g id="a_Node000005"><a xlink:href="math_8c.html#a870a70f4845a041458d9bdb0dd7aabd3" target="_top" xlink:title=" ">
<polygon fill="white" stroke="#666666" points="314,-317.28 276,-317.28 276,-298.28 314,-298.28 314,-317.28"/>
<text text-anchor="middle" x="295" y="-305.28" font-family="Helvetica,sans-Serif" font-size="10.00">DOT</text>
</a>
</g>
</g>
<!-- Node1&#45;&gt;Node5 -->
<g id="edge14_Node000001_Node000005" class="edge">
<title>Node1&#45;&gt;Node5</title>
<g id="a_edge14_Node000001_Node000005"><a xlink:title=" ">
<path fill="none" stroke="#63b8ff" d="M33.37,-243.37C37.58,-268.8 52.88,-337.89 98,-365.78 149.42,-397.55 178.47,-389.66 234,-365.78 255.37,-356.58 253.03,-343.69 270,-327.78 271.25,-326.6 272.56,-325.41 273.89,-324.23"/>
<polygon fill="#63b8ff" stroke="#63b8ff" points="276.23,-326.84 281.55,-317.68 271.68,-321.52 276.23,-326.84"/>
</a>
</g>
</g>
<!-- Node6 -->
<g id="Node000006" class="node">
<title>Node6</title>
<g id="a_Node000006"><a xlink:href="math_8c.html#a3f73e4cd9eab76eeee084eabf2b98ec9" target="_top" xlink:title=" ">
<polygon fill="white" stroke="#666666" points="312,-206.28 278,-206.28 278,-187.28 312,-187.28 312,-206.28"/>
<text text-anchor="middle" x="295" y="-194.28" font-family="Helvetica,sans-Serif" font-size="10.00">INV</text>
</a>
</g>
</g>
<!-- Node1&#45;&gt;Node6 -->
<g id="edge15_Node000001_Node000006" class="edge">
<title>Node1&#45;&gt;Node6</title>
<g id="a_edge15_Node000001_Node000006"><a xlink:title=" ">
<path fill="none" stroke="#63b8ff" d="M35.2,-224.19C42.55,-203.95 62.76,-157.2 98,-138.78 151.56,-110.77 178.47,-114.89 234,-138.78 255.37,-147.97 253.03,-160.86 270,-176.78 271.25,-177.95 272.56,-179.14 273.89,-180.32"/>
<polygon fill="#63b8ff" stroke="#63b8ff" points="271.68,-183.03 281.55,-186.87 276.23,-177.71 271.68,-183.03"/>
</a>
</g>
</g>
<!-- Node7 -->
<g id="Node000007" class="node">
<title>Node7</title>
<g id="a_Node000007"><a xlink:href="math_8c.html#a9d08a9d2fd8e8932e92b8ab054b19269" target="_top" xlink:title=" ">
<polygon fill="white" stroke="#666666" points="320,-168.28 270,-168.28 270,-149.28 320,-149.28 320,-168.28"/>
<text text-anchor="middle" x="295" y="-156.28" font-family="Helvetica,sans-Serif" font-size="10.00">MINUS</text>
</a>
</g>
</g>
<!-- Node1&#45;&gt;Node7 -->
<g id="edge23_Node000001_Node000007" class="edge">
<title>Node1&#45;&gt;Node7</title>
<g id="a_edge23_Node000001_Node000007"><a xlink:title=" ">
<path fill="none" stroke="#63b8ff" d="M31.51,-224.14C30.36,-190.02 31.66,-74.33 98,-25.78 146.78,9.92 183.23,7.02 234,-25.78 273.06,-51 286.95,-108.43 291.69,-138.91"/>
<polygon fill="#63b8ff" stroke="#63b8ff" points="288.27,-139.72 293.09,-149.15 295.2,-138.77 288.27,-139.72"/>
</a>
</g>
</g>
<!-- Node9 -->
<g id="Node000009" class="node">
<title>Node9</title>
<g id="a_Node000009"><a xlink:href="math_8c.html#aa52f6593cf3e5453c8c6c94343d3fb37" target="_top" xlink:title=" ">
<polygon fill="white" stroke="#666666" points="314,-355.28 276,-355.28 276,-336.28 314,-336.28 314,-355.28"/>
<text text-anchor="middle" x="295" y="-343.28" font-family="Helvetica,sans-Serif" font-size="10.00">SIZE</text>
</a>
</g>
</g>
<!-- Node1&#45;&gt;Node9 -->
<g id="edge25_Node000001_Node000009" class="edge">
<title>Node1&#45;&gt;Node9</title>
<g id="a_edge25_Node000001_Node000009"><a xlink:title=" ">
<path fill="none" stroke="#63b8ff" d="M32.61,-243.36C34.98,-271.75 46.28,-355.5 98,-389.78 148.38,-423.17 176.56,-408.58 234,-389.78 238.56,-388.28 258.02,-373.72 273.56,-361.75"/>
<polygon fill="#63b8ff" stroke="#63b8ff" points="275.91,-364.35 281.67,-355.46 271.62,-358.82 275.91,-364.35"/>
</a>
</g>
</g>
<!-- Node10 -->
<g id="Node000010" class="node">
<title>Node10</title>
<g id="a_Node000010"><a xlink:href="math_8c.html#ac616709995f2ae60c4308ffa328337d7" target="_top" xlink:title=" ">
<polygon fill="white" stroke="#666666" points="315.5,-243.28 274.5,-243.28 274.5,-224.28 315.5,-224.28 315.5,-243.28"/>
<text text-anchor="middle" x="295" y="-231.28" font-family="Helvetica,sans-Serif" font-size="10.00">UNIT</text>
</a>
</g>
</g>
<!-- Node1&#45;&gt;Node10 -->
<g id="edge38_Node000001_Node000010" class="edge">
<title>Node1&#45;&gt;Node10</title>
<g id="a_edge38_Node000001_Node000010"><a xlink:title=" ">
<path fill="none" stroke="#63b8ff" d="M58.6,-224.27C70.49,-220.51 84.78,-216.64 98,-214.78 157.85,-206.33 174.26,-205.54 234,-214.78 244.26,-216.36 255.17,-219.39 264.83,-222.56"/>
<polygon fill="#63b8ff" stroke="#63b8ff" points="263.77,-225.9 274.37,-225.88 266.07,-219.29 263.77,-225.9"/>
</a>
</g>
</g>
<!-- Node11 -->
<g id="Node000011" class="node">
<title>Node11</title>
<g id="a_Node000011"><a xlink:href="material_8c.html#a3243950933f3559f19edcb5421360526" target="_top" xlink:title=" ">
<polygon fill="white" stroke="#666666" points="234,-54.28 98,-54.28 98,-35.28 234,-35.28 234,-54.28"/>
<text text-anchor="middle" x="166" y="-42.28" font-family="Helvetica,sans-Serif" font-size="10.00">CalcCurvStressStrainxyz</text>
</a>
</g>
</g>
<!-- Node1&#45;&gt;Node11 -->
<g id="edge10_Node000001_Node000011" class="edge">
<title>Node1&#45;&gt;Node11</title>
<g id="a_edge10_Node000001_Node000011"><a xlink:title=" ">
<path fill="none" stroke="#63b8ff" d="M32.77,-223.94C35.61,-194.73 48.08,-107.67 98,-62.78 99.29,-61.61 100.65,-60.52 102.07,-59.5"/>
<polygon fill="#63b8ff" stroke="#63b8ff" points="103.88,-62.5 110.7,-54.39 100.32,-56.47 103.88,-62.5"/>
</a>
</g>
</g>
<!-- Node12 -->
<g id="Node000012" class="node">
<title>Node12</title>
<g id="a_Node000012"><a xlink:href="material_8c.html#aa93862cca1fe83c736219df7d4a91374" target="_top" xlink:title=" ">
<polygon fill="white" stroke="#666666" points="225.5,-280.28 106.5,-280.28 106.5,-261.28 225.5,-261.28 225.5,-280.28"/>
<text text-anchor="middle" x="166" y="-268.28" font-family="Helvetica,sans-Serif" font-size="10.00">MembraneNonLinear</text>
</a>
</g>
</g>
<!-- Node1&#45;&gt;Node12 -->
<g id="edge16_Node000001_Node000012" class="edge">
<title>Node1&#45;&gt;Node12</title>
<g id="a_edge16_Node000001_Node000012"><a xlink:title=" ">
<path fill="none" stroke="#63b8ff" d="M62.2,-242.59C73.43,-245.84 86.28,-249.52 98,-252.78 104.94,-254.71 112.3,-256.72 119.49,-258.67"/>
<polygon fill="#63b8ff" stroke="#63b8ff" points="118.59,-262.05 129.15,-261.27 120.41,-255.29 118.59,-262.05"/>
</a>
</g>
</g>
<!-- Node13 -->
<g id="Node000013" class="node">
<title>Node13</title>
<g id="a_Node000013"><a xlink:href="math_8c.html#ae18926821a703a2c5b281bd890b7e6a0" target="_top" xlink:title=" ">
<polygon fill="white" stroke="#666666" points="186.5,-91.28 145.5,-91.28 145.5,-72.28 186.5,-72.28 186.5,-91.28"/>
<text text-anchor="middle" x="166" y="-79.28" font-family="Helvetica,sans-Serif" font-size="10.00">PLUS</text>
</a>
</g>
</g>
<!-- Node1&#45;&gt;Node13 -->
<g id="edge24_Node000001_Node000013" class="edge">
<title>Node1&#45;&gt;Node13</title>
<g id="a_edge24_Node000001_Node000013"><a xlink:title=" ">
<path fill="none" stroke="#63b8ff" d="M34.31,-224.24C40.5,-200.71 59.63,-139.38 98,-105.78 108.56,-96.53 122.95,-90.76 135.68,-87.2"/>
<polygon fill="#63b8ff" stroke="#63b8ff" points="136.56,-90.59 145.43,-84.81 134.89,-83.8 136.56,-90.59"/>
</a>
</g>
</g>
<!-- Node14 -->
<g id="Node000014" class="node">
<title>Node14</title>
<g id="a_Node000014"><a xlink:href="material_8c.html#a431e1e9b5ceabfa4edc2920b70296b35" target="_top" xlink:title=" ">
<polygon fill="white" stroke="#666666" points="204.5,-243.28 127.5,-243.28 127.5,-224.28 204.5,-224.28 204.5,-243.28"/>
<text text-anchor="middle" x="166" y="-231.28" font-family="Helvetica,sans-Serif" font-size="10.00">StressLinear</text>
</a>
</g>
</g>
<!-- Node1&#45;&gt;Node14 -->
<g id="edge26_Node000001_Node000014" class="edge">
<title>Node1&#45;&gt;Node14</title>
<g id="a_edge26_Node000001_Node000014"><a xlink:title=" ">
<path fill="none" stroke="#63b8ff" d="M62.18,-233.78C78.4,-233.78 98.78,-233.78 117.11,-233.78"/>
<polygon fill="#63b8ff" stroke="#63b8ff" points="117.33,-237.28 127.33,-233.78 117.33,-230.28 117.33,-237.28"/>
</a>
</g>
</g>
<!-- Node15 -->
<g id="Node000015" class="node">
<title>Node15</title>
<g id="a_Node000015"><a xlink:href="material_8c.html#aad0d0c11a159f8021feb99ddee475d31" target="_top" xlink:title=" ">
<polygon fill="white" stroke="#666666" points="223,-167.28 109,-167.28 109,-148.28 223,-148.28 223,-167.28"/>
<text text-anchor="middle" x="166" y="-155.28" font-family="Helvetica,sans-Serif" font-size="10.00">StressManufactured</text>
</a>
</g>
</g>
<!-- Node1&#45;&gt;Node15 -->
<g id="edge32_Node000001_Node000015" class="edge">
<title>Node1&#45;&gt;Node15</title>
<g id="a_edge32_Node000001_Node000015"><a xlink:title=" ">
<path fill="none" stroke="#63b8ff" d="M42,-224.18C54.32,-212.78 76.3,-193.79 98,-181.78 105.54,-177.6 113.94,-173.92 122.17,-170.78"/>
<polygon fill="#63b8ff" stroke="#63b8ff" points="123.49,-174.02 131.7,-167.33 121.11,-167.44 123.49,-174.02"/>
</a>
</g>
</g>
<!-- Node3&#45;&gt;Node4 -->
<g id="edge3_Node000003_Node000004" class="edge">
<title>Node3&#45;&gt;Node4</title>
<g id="a_edge3_Node000003_Node000004"><a xlink:title=" ">
<path fill="none" stroke="#63b8ff" d="M201.93,-337.2C212.63,-333.5 224.16,-328.71 234,-322.78 252.58,-311.56 253.48,-303.85 270,-289.78 271,-288.92 272.03,-288.06 273.08,-287.19"/>
<polygon fill="#63b8ff" stroke="#63b8ff" points="275.58,-289.67 281.16,-280.66 271.18,-284.23 275.58,-289.67"/>
</a>
</g>
</g>
<!-- Node3&#45;&gt;Node5 -->
<g id="edge4_Node000003_Node000005" class="edge">
<title>Node3&#45;&gt;Node5</title>
<g id="a_edge4_Node000003_Node000005"><a xlink:title=" ">
<path fill="none" stroke="#63b8ff" d="M198.07,-337.23C218.83,-330.86 245.91,-322.54 266.01,-316.37"/>
<polygon fill="#63b8ff" stroke="#63b8ff" points="267.27,-319.64 275.81,-313.36 265.22,-312.95 267.27,-319.64"/>
</a>
</g>
</g>
<!-- Node3&#45;&gt;Node6 -->
<g id="edge5_Node000003_Node000006" class="edge">
<title>Node3&#45;&gt;Node6</title>
<g id="a_edge5_Node000003_Node000006"><a xlink:title=" ">
<path fill="none" stroke="#63b8ff" d="M181.63,-337.1C196.36,-326.77 218.99,-309.25 234,-289.78 256.57,-260.49 246.54,-243.35 270,-214.78 270.39,-214.3 270.8,-213.82 271.22,-213.36"/>
<polygon fill="#63b8ff" stroke="#63b8ff" points="273.79,-215.75 278.82,-206.42 269.07,-210.58 273.79,-215.75"/>
</a>
</g>
</g>
<!-- Node3&#45;&gt;Node7 -->
<g id="edge6_Node000003_Node000007" class="edge">
<title>Node3&#45;&gt;Node7</title>
<g id="a_edge6_Node000003_Node000007"><a xlink:title=" ">
<path fill="none" stroke="#63b8ff" d="M182.76,-337.13C197.94,-327.07 220.52,-309.97 234,-289.78 263.02,-246.28 240.22,-220.75 270,-177.78 270.53,-177.01 271.1,-176.26 271.7,-175.53"/>
<polygon fill="#63b8ff" stroke="#63b8ff" points="274.28,-177.9 279,-168.41 269.4,-172.89 274.28,-177.9"/>
</a>
</g>
</g>
<!-- Node8 -->
<g id="Node000008" class="node">
<title>Node8</title>
<g id="a_Node000008"><a xlink:href="math_8c.html#ae6a53927765c25c58815e47fea096a67" target="_top" xlink:title=" ">
<polygon fill="white" stroke="#666666" points="315.5,-392.28 274.5,-392.28 274.5,-373.28 315.5,-373.28 315.5,-392.28"/>
<text text-anchor="middle" x="295" y="-380.28" font-family="Helvetica,sans-Serif" font-size="10.00">SIGN</text>
</a>
</g>
</g>
<!-- Node3&#45;&gt;Node8 -->
<g id="edge7_Node000003_Node000008" class="edge">
<title>Node3&#45;&gt;Node8</title>
<g id="a_edge7_Node000003_Node000008"><a xlink:title=" ">
<path fill="none" stroke="#63b8ff" d="M200.7,-356.33C220.63,-361.98 245.63,-369.06 264.74,-374.48"/>
<polygon fill="#63b8ff" stroke="#63b8ff" points="263.82,-377.86 274.4,-377.22 265.73,-371.12 263.82,-377.86"/>
</a>
</g>
</g>
<!-- Node3&#45;&gt;Node9 -->
<g id="edge8_Node000003_Node000009" class="edge">
<title>Node3&#45;&gt;Node9</title>
<g id="a_edge8_Node000003_Node000009"><a xlink:title=" ">
<path fill="none" stroke="#63b8ff" d="M219.02,-346.37C234.91,-346.24 251.8,-346.11 265.51,-346"/>
<polygon fill="#63b8ff" stroke="#63b8ff" points="265.78,-349.5 275.75,-345.92 265.72,-342.5 265.78,-349.5"/>
</a>
</g>
</g>
<!-- Node3&#45;&gt;Node10 -->
<g id="edge9_Node000003_Node000010" class="edge">
<title>Node3&#45;&gt;Node10</title>
<g id="a_edge9_Node000003_Node000010"><a xlink:title=" ">
<path fill="none" stroke="#63b8ff" d="M179.16,-337.02C192.81,-325.92 215.49,-307.09 234,-289.78 250.76,-274.1 252.97,-268.15 270,-252.78 270.98,-251.89 271.99,-251.01 273.02,-250.12"/>
<polygon fill="#63b8ff" stroke="#63b8ff" points="275.53,-252.58 281.04,-243.53 271.09,-247.17 275.53,-252.58"/>
</a>
</g>
</g>
<!-- Node11&#45;&gt;Node6 -->
<g id="edge11_Node000011_Node000006" class="edge">
<title>Node11&#45;&gt;Node6</title>
<g id="a_edge11_Node000011_Node000006"><a xlink:title=" ">
<path fill="none" stroke="#63b8ff" d="M221.85,-54.31C226.29,-56.58 230.43,-59.36 234,-62.78 272.38,-99.52 240.4,-132.65 270,-176.78 270.73,-177.86 271.54,-178.93 272.4,-179.96"/>
<polygon fill="#63b8ff" stroke="#63b8ff" points="270.15,-182.65 279.74,-187.15 275.05,-177.66 270.15,-182.65"/>
</a>
</g>
</g>
<!-- Node11&#45;&gt;Node7 -->
<g id="edge12_Node000011_Node000007" class="edge">
<title>Node11&#45;&gt;Node7</title>
<g id="a_edge12_Node000011_Node000007"><a xlink:title=" ">
<path fill="none" stroke="#63b8ff" d="M218.61,-54.3C224.09,-56.55 229.35,-59.34 234,-62.78 260.61,-82.47 278.18,-117.81 287.08,-139.68"/>
<polygon fill="#63b8ff" stroke="#63b8ff" points="283.89,-141.14 290.76,-149.2 290.42,-138.62 283.89,-141.14"/>
</a>
</g>
</g>
<!-- Node12&#45;&gt;Node4 -->
<g id="edge17_Node000012_Node000004" class="edge">
<title>Node12&#45;&gt;Node4</title>
<g id="a_edge17_Node000012_Node000004"><a xlink:title=" ">
<path fill="none" stroke="#63b8ff" d="M225.67,-270.78C237.37,-270.78 249.28,-270.78 259.82,-270.78"/>
<polygon fill="#63b8ff" stroke="#63b8ff" points="259.84,-274.28 269.84,-270.78 259.84,-267.28 259.84,-274.28"/>
</a>
</g>
</g>
<!-- Node12&#45;&gt;Node5 -->
<g id="edge18_Node000012_Node000005" class="edge">
<title>Node12&#45;&gt;Node5</title>
<g id="a_edge18_Node000012_Node000005"><a xlink:title=" ">
<path fill="none" stroke="#63b8ff" d="M199.71,-280.3C220.26,-286.29 246.5,-293.94 266.08,-299.64"/>
<polygon fill="#63b8ff" stroke="#63b8ff" points="265.34,-303.07 275.92,-302.51 267.3,-296.35 265.34,-303.07"/>
</a>
</g>
</g>
<!-- Node12&#45;&gt;Node6 -->
<g id="edge19_Node000012_Node000006" class="edge">
<title>Node12&#45;&gt;Node6</title>
<g id="a_edge19_Node000012_Node000006"><a xlink:title=" ">
<path fill="none" stroke="#63b8ff" d="M215.53,-261.18C221.97,-258.93 228.31,-256.17 234,-252.78 253.98,-240.87 252.63,-230.25 270,-214.78 270.82,-214.05 271.66,-213.32 272.52,-212.59"/>
<polygon fill="#63b8ff" stroke="#63b8ff" points="274.81,-215.24 280.48,-206.29 270.47,-209.76 274.81,-215.24"/>
</a>
</g>
</g>
<!-- Node12&#45;&gt;Node7 -->
<g id="edge20_Node000012_Node000007" class="edge">
<title>Node12&#45;&gt;Node7</title>
<g id="a_edge20_Node000012_Node000007"><a xlink:title=" ">
<path fill="none" stroke="#63b8ff" d="M220.35,-261.15C225.27,-258.91 229.92,-256.16 234,-252.78 262.45,-229.16 246.91,-206.66 270,-177.78 270.58,-177.05 271.19,-176.33 271.83,-175.63"/>
<polygon fill="#63b8ff" stroke="#63b8ff" points="274.39,-178.03 279.33,-168.66 269.62,-172.91 274.39,-178.03"/>
</a>
</g>
</g>
<!-- Node12&#45;&gt;Node9 -->
<g id="edge21_Node000012_Node000009" class="edge">
<title>Node12&#45;&gt;Node9</title>
<g id="a_edge21_Node000012_Node000009"><a xlink:title=" ">
<path fill="none" stroke="#63b8ff" d="M183.34,-280.43C205.06,-293.25 243.64,-316.04 269.02,-331.02"/>
<polygon fill="#63b8ff" stroke="#63b8ff" points="267.33,-334.09 277.72,-336.16 270.89,-328.06 267.33,-334.09"/>
</a>
</g>
</g>
<!-- Node12&#45;&gt;Node10 -->
<g id="edge22_Node000012_Node000010" class="edge">
<title>Node12&#45;&gt;Node10</title>
<g id="a_edge22_Node000012_Node000010"><a xlink:title=" ">
<path fill="none" stroke="#63b8ff" d="M203.59,-261.26C213.49,-258.6 224.17,-255.65 234,-252.78 244.04,-249.84 254.96,-246.44 264.7,-243.34"/>
<polygon fill="#63b8ff" stroke="#63b8ff" points="265.89,-246.63 274.34,-240.24 263.75,-239.97 265.89,-246.63"/>
</a>
</g>
</g>
<!-- Node14&#45;&gt;Node4 -->
<g id="edge27_Node000014_Node000004" class="edge">
<title>Node14&#45;&gt;Node4</title>
<g id="a_edge27_Node000014_Node000004"><a xlink:title=" ">
<path fill="none" stroke="#63b8ff" d="M201.11,-243.34C211.67,-246.33 223.32,-249.66 234,-252.78 242.48,-255.25 251.62,-257.97 260.14,-260.52"/>
<polygon fill="#63b8ff" stroke="#63b8ff" points="259.21,-263.89 269.79,-263.42 261.23,-257.19 259.21,-263.89"/>
</a>
</g>
</g>
<!-- Node14&#45;&gt;Node5 -->
<g id="edge28_Node000014_Node000005" class="edge">
<title>Node14&#45;&gt;Node5</title>
<g id="a_edge28_Node000014_Node000005"><a xlink:title=" ">
<path fill="none" stroke="#63b8ff" d="M204.58,-240.74C214.58,-243.56 225.07,-247.45 234,-252.78 253.71,-264.53 252.77,-274.62 270,-289.78 270.82,-290.5 271.67,-291.22 272.53,-291.94"/>
<polygon fill="#63b8ff" stroke="#63b8ff" points="270.49,-294.79 280.51,-298.23 274.82,-289.29 270.49,-294.79"/>
</a>
</g>
</g>
<!-- Node14&#45;&gt;Node6 -->
<g id="edge29_Node000014_Node000006" class="edge">
<title>Node14&#45;&gt;Node6</title>
<g id="a_edge29_Node000014_Node000006"><a xlink:title=" ">
<path fill="none" stroke="#63b8ff" d="M199.71,-224.25C220.89,-218.08 248.1,-210.15 267.84,-204.4"/>
<polygon fill="#63b8ff" stroke="#63b8ff" points="269.06,-207.69 277.69,-201.53 267.11,-200.97 269.06,-207.69"/>
</a>
</g>
</g>
<!-- Node14&#45;&gt;Node7 -->
<g id="edge30_Node000014_Node000007" class="edge">
<title>Node14&#45;&gt;Node7</title>
<g id="a_edge30_Node000014_Node000007"><a xlink:title=" ">
<path fill="none" stroke="#63b8ff" d="M183.34,-224.12C205.06,-211.3 243.64,-188.52 269.02,-173.53"/>
<polygon fill="#63b8ff" stroke="#63b8ff" points="270.89,-176.49 277.72,-168.39 267.33,-170.46 270.89,-176.49"/>
</a>
</g>
</g>
<!-- Node14&#45;&gt;Node10 -->
<g id="edge31_Node000014_Node000010" class="edge">
<title>Node14&#45;&gt;Node10</title>
<g id="a_edge31_Node000014_Node000010"><a xlink:title=" ">
<path fill="none" stroke="#63b8ff" d="M204.76,-233.78C223.65,-233.78 246.2,-233.78 263.91,-233.78"/>
<polygon fill="#63b8ff" stroke="#63b8ff" points="264.23,-237.28 274.23,-233.78 264.23,-230.28 264.23,-237.28"/>
</a>
</g>
</g>
<!-- Node15&#45;&gt;Node4 -->
<g id="edge33_Node000015_Node000004" class="edge">
<title>Node15&#45;&gt;Node4</title>
<g id="a_edge33_Node000015_Node000004"><a xlink:title=" ">
<path fill="none" stroke="#63b8ff" d="M179.2,-167.49C192.89,-178.55 215.6,-197.33 234,-214.78 250.88,-230.78 252.63,-237.3 270,-252.78 270.82,-253.5 271.66,-254.23 272.52,-254.96"/>
<polygon fill="#63b8ff" stroke="#63b8ff" points="270.47,-257.8 280.48,-261.26 274.81,-252.31 270.47,-257.8"/>
</a>
</g>
</g>
<!-- Node15&#45;&gt;Node5 -->
<g id="edge34_Node000015_Node000005" class="edge">
<title>Node15&#45;&gt;Node5</title>
<g id="a_edge34_Node000015_Node000005"><a xlink:title=" ">
<path fill="none" stroke="#63b8ff" d="M181.63,-167.45C196.36,-177.78 218.99,-195.3 234,-214.78 256.57,-244.06 246.54,-261.2 270,-289.78 270.39,-290.25 270.8,-290.73 271.22,-291.19"/>
<polygon fill="#63b8ff" stroke="#63b8ff" points="269.07,-293.97 278.82,-298.13 273.79,-288.8 269.07,-293.97"/>
</a>
</g>
</g>
<!-- Node15&#45;&gt;Node6 -->
<g id="edge35_Node000015_Node000006" class="edge">
<title>Node15&#45;&gt;Node6</title>
<g id="a_edge35_Node000015_Node000006"><a xlink:title=" ">
<path fill="none" stroke="#63b8ff" d="M198.07,-167.32C219.58,-173.92 247.88,-182.61 268.16,-188.84"/>
<polygon fill="#63b8ff" stroke="#63b8ff" points="267.36,-192.26 277.95,-191.85 269.42,-185.57 267.36,-192.26"/>
</a>
</g>
</g>
<!-- Node15&#45;&gt;Node7 -->
<g id="edge36_Node000015_Node000007" class="edge">
<title>Node15&#45;&gt;Node7</title>
<g id="a_edge36_Node000015_Node000007"><a xlink:title=" ">
<path fill="none" stroke="#63b8ff" d="M223.07,-158.22C235.46,-158.31 248.23,-158.42 259.46,-158.5"/>
<polygon fill="#63b8ff" stroke="#63b8ff" points="259.67,-162.01 269.7,-158.58 259.72,-155.01 259.67,-162.01"/>
</a>
</g>
</g>
<!-- Node15&#45;&gt;Node10 -->
<g id="edge37_Node000015_Node000010" class="edge">
<title>Node15&#45;&gt;Node10</title>
<g id="a_edge37_Node000015_Node000010"><a xlink:title=" ">
<path fill="none" stroke="#63b8ff" d="M201.93,-167.35C212.63,-171.05 224.16,-175.84 234,-181.78 252.58,-192.99 253.48,-200.7 270,-214.78 271,-215.63 272.03,-216.49 273.08,-217.36"/>
<polygon fill="#63b8ff" stroke="#63b8ff" points="271.18,-220.33 281.16,-223.89 275.58,-214.88 271.18,-220.33"/>
</a>
</g>
</g>
</g>
</svg>

<g id="navigator" transform="translate(0 0)" fill="#404254">
  <rect fill="#f2f5e9" fill-opacity="0.5" stroke="#606060" stroke-width=".5" x="0" y="0" width="60" height="60"/>
  <use id="zoomplus" xlink:href="#zoomPlus" x="17" y="9" onmousedown="handleZoom(evt,'in')"/>
  <use id="zoomminus" xlink:href="#zoomMin" x="42" y="9" onmousedown="handleZoom(evt,'out')"/>
  <use id="reset" xlink:href="#resetDef" x="30" y="36" onmousedown="handleReset()"/>
   <use id="arrowup" xlink:href="#arrowUp" x="0" y="0" onmousedown="handlePan(0,-1)"/>
  <use id="arrowright" xlink:href="#arrowRight" x="0" y="0" onmousedown="handlePan(1,0)"/>
  <use id="arrowdown" xlink:href="#arrowDown" x="0" y="0" onmousedown="handlePan(0,1)"/>
  <use id="arrowleft" xlink:href="#arrowLeft" x="0" y="0" onmousedown="handlePan(-1,0)"/>
</g>
<svg viewBox="0 0 15 15" width="100%" height="30px" preserveAspectRatio="xMaxYMin meet">
 <g id="arrow_out" transform="scale(0.3 0.3)">
  <a xlink:href="bending_8c_a2b66770553fce4724cfb65b0f79e83b1_cgraph_org.svg" target="_base">
   <rect id="button" ry="5" rx="5" y="6" x="6" height="38" width="38"
        fill="#f2f5e9" fill-opacity="0.5" stroke="#606060" stroke-width="1.0"/>
   <path id="arrow"
     d="M 11.500037,31.436501 C 11.940474,20.09759 22.043105,11.32322 32.158766,21.979434 L 37.068811,17.246167 C 37.068811,17.246167 37.088388,32 37.088388,32 L 22.160133,31.978069 C 22.160133,31.978069 26.997745,27.140456 26.997745,27.140456 C 18.528582,18.264221 13.291696,25.230495 11.500037,31.436501 z"
     style="fill:#404040;"/>
  </a>
 </g>
</svg>

<style type='text/css'>
<![CDATA[
[data-mouse-over-selected='false'] { opacity: 0.7; }
[data-mouse-over-selected='true']  { opacity: 1.0; }
]]>
</style>
<script type="application/ecmascript"><![CDATA[
document.addEventListener('DOMContentLoaded', (event) => {
  highlightEdges();
  highlightAdjacentNodes();
});
]]></script>
</svg>
