<?xml version="1.0" encoding="UTF-8" standalone="no"?>
<!DOCTYPE svg PUBLIC "-//W3C//DTD SVG 1.1//EN"
 "http://www.w3.org/Graphics/SVG/1.1/DTD/svg11.dtd">
<!-- Generated by graphviz version 2.43.0 (0)
 -->
<!-- Title: BendingNonLinear Pages: 1 -->
<svg width="200pt" height="249pt"
 viewBox="0.00 0.00 200.00 249.00" xmlns="http://www.w3.org/2000/svg" xmlns:xlink="http://www.w3.org/1999/xlink">
<g id="graph0" class="graph" transform="scale(1 1) rotate(0) translate(4 245)">
<title>BendingNonLinear</title>
<!-- Node1 -->
<g id="Node000001" class="node">
<title>Node1</title>
<g id="a_Node000001"><a xlink:title=" ">
<polygon fill="#999999" stroke="#666666" points="106,-130 0,-130 0,-111 106,-111 106,-130"/>
<text text-anchor="middle" x="53" y="-118" font-family="Helvetica,sans-Serif" font-size="10.00">BendingNonLinear</text>
</a>
</g>
</g>
<!-- Node2 -->
<g id="Node000002" class="node">
<title>Node2</title>
<g id="a_Node000002"><a xlink:href="math_8c.html#a9d60990d26296194c921d537ea26f3c7" target="_top" xlink:title=" ">
<polygon fill="white" stroke="#666666" points="192,-241 142,-241 142,-222 192,-222 192,-241"/>
<text text-anchor="middle" x="167" y="-229" font-family="Helvetica,sans-Serif" font-size="10.00">CROSS</text>
</a>
</g>
</g>
<!-- Node1&#45;&gt;Node2 -->
<g id="edge1_Node000001_Node000002" class="edge">
<title>Node1&#45;&gt;Node2</title>
<g id="a_edge1_Node000001_Node000002"><a xlink:title=" ">
<path fill="none" stroke="#63b8ff" d="M62.25,-130.25C77.27,-147.78 110.48,-185.39 142,-213.5 142.82,-214.23 143.66,-214.96 144.52,-215.68"/>
<polygon fill="#63b8ff" stroke="#63b8ff" points="142.47,-218.52 152.48,-221.99 146.81,-213.03 142.47,-218.52"/>
</a>
</g>
</g>
<!-- Node3 -->
<g id="Node000003" class="node">
<title>Node3</title>
<g id="a_Node000003"><a xlink:href="math_8c.html#a870a70f4845a041458d9bdb0dd7aabd3" target="_top" xlink:title=" ">
<polygon fill="white" stroke="#666666" points="186,-204 148,-204 148,-185 186,-185 186,-204"/>
<text text-anchor="middle" x="167" y="-192" font-family="Helvetica,sans-Serif" font-size="10.00">DOT</text>
</a>
</g>
</g>
<!-- Node1&#45;&gt;Node3 -->
<g id="edge2_Node000001_Node000003" class="edge">
<title>Node1&#45;&gt;Node3</title>
<g id="a_edge2_Node000001_Node000003"><a xlink:title=" ">
<path fill="none" stroke="#63b8ff" d="M68.64,-130.17C87.51,-142.64 120.52,-164.45 142.82,-179.18"/>
<polygon fill="#63b8ff" stroke="#63b8ff" points="141.08,-182.23 151.35,-184.82 144.94,-176.39 141.08,-182.23"/>
</a>
</g>
</g>
<!-- Node4 -->
<g id="Node000004" class="node">
<title>Node4</title>
<g id="a_Node000004"><a xlink:href="math_8c.html#a3f73e4cd9eab76eeee084eabf2b98ec9" target="_top" xlink:title=" ">
<polygon fill="white" stroke="#666666" points="184,-167 150,-167 150,-148 184,-148 184,-167"/>
<text text-anchor="middle" x="167" y="-155" font-family="Helvetica,sans-Serif" font-size="10.00">INV</text>
</a>
</g>
</g>
<!-- Node1&#45;&gt;Node4 -->
<g id="edge3_Node000001_Node000004" class="edge">
<title>Node1&#45;&gt;Node4</title>
<g id="a_edge3_Node000001_Node000004"><a xlink:title=" ">
<path fill="none" stroke="#63b8ff" d="M82.84,-130.03C100.45,-135.84 122.78,-143.22 139.86,-148.87"/>
<polygon fill="#63b8ff" stroke="#63b8ff" points="139.14,-152.31 149.74,-152.13 141.34,-145.67 139.14,-152.31"/>
</a>
</g>
</g>
<!-- Node5 -->
<g id="Node000005" class="node">
<title>Node5</title>
<g id="a_Node000005"><a xlink:href="math_8c.html#a9d08a9d2fd8e8932e92b8ab054b19269" target="_top" xlink:title=" ">
<polygon fill="white" stroke="#666666" points="192,-130 142,-130 142,-111 192,-111 192,-130"/>
<text text-anchor="middle" x="167" y="-118" font-family="Helvetica,sans-Serif" font-size="10.00">MINUS</text>
</a>
</g>
</g>
<!-- Node1&#45;&gt;Node5 -->
<g id="edge4_Node000001_Node000005" class="edge">
<title>Node1&#45;&gt;Node5</title>
<g id="a_edge4_Node000001_Node000005"><a xlink:title=" ">
<path fill="none" stroke="#63b8ff" d="M106.07,-120.5C114.72,-120.5 123.51,-120.5 131.59,-120.5"/>
<polygon fill="#63b8ff" stroke="#63b8ff" points="131.73,-124 141.73,-120.5 131.73,-117 131.73,-124"/>
</a>
</g>
</g>
<!-- Node6 -->
<g id="Node000006" class="node">
<title>Node6</title>
<g id="a_Node000006"><a xlink:href="math_8c.html#ae6a53927765c25c58815e47fea096a67" target="_top" xlink:title=" ">
<polygon fill="white" stroke="#666666" points="187.5,-93 146.5,-93 146.5,-74 187.5,-74 187.5,-93"/>
<text text-anchor="middle" x="167" y="-81" font-family="Helvetica,sans-Serif" font-size="10.00">SIGN</text>
</a>
</g>
</g>
<!-- Node1&#45;&gt;Node6 -->
<g id="edge5_Node000001_Node000006" class="edge">
<title>Node1&#45;&gt;Node6</title>
<g id="a_edge5_Node000001_Node000006"><a xlink:title=" ">
<path fill="none" stroke="#63b8ff" d="M82.84,-110.97C99.37,-105.51 120.07,-98.67 136.68,-93.19"/>
<polygon fill="#63b8ff" stroke="#63b8ff" points="138.03,-96.43 146.42,-89.97 135.83,-89.78 138.03,-96.43"/>
</a>
</g>
</g>
<!-- Node7 -->
<g id="Node000007" class="node">
<title>Node7</title>
<g id="a_Node000007"><a xlink:href="math_8c.html#aa52f6593cf3e5453c8c6c94343d3fb37" target="_top" xlink:title=" ">
<polygon fill="white" stroke="#666666" points="186,-56 148,-56 148,-37 186,-37 186,-56"/>
<text text-anchor="middle" x="167" y="-44" font-family="Helvetica,sans-Serif" font-size="10.00">SIZE</text>
</a>
</g>
</g>
<!-- Node1&#45;&gt;Node7 -->
<g id="edge6_Node000001_Node000007" class="edge">
<title>Node1&#45;&gt;Node7</title>
<g id="a_edge6_Node000001_Node000007"><a xlink:title=" ">
<path fill="none" stroke="#63b8ff" d="M68.64,-110.83C87.51,-98.36 120.52,-76.55 142.82,-61.82"/>
<polygon fill="#63b8ff" stroke="#63b8ff" points="144.94,-64.61 151.35,-56.18 141.08,-58.77 144.94,-64.61"/>
</a>
</g>
</g>
<!-- Node8 -->
<g id="Node000008" class="node">
<title>Node8</title>
<g id="a_Node000008"><a xlink:href="math_8c.html#ac616709995f2ae60c4308ffa328337d7" target="_top" xlink:title=" ">
<polygon fill="white" stroke="#666666" points="187.5,-19 146.5,-19 146.5,0 187.5,0 187.5,-19"/>
<text text-anchor="middle" x="167" y="-7" font-family="Helvetica,sans-Serif" font-size="10.00">UNIT</text>
</a>
</g>
</g>
<!-- Node1&#45;&gt;Node8 -->
<g id="edge7_Node000001_Node000008" class="edge">
<title>Node1&#45;&gt;Node8</title>
<g id="a_edge7_Node000001_Node000008"><a xlink:title=" ">
<path fill="none" stroke="#63b8ff" d="M62.34,-110.95C77.52,-93.76 110.95,-56.77 142,-28.5 142.97,-27.61 143.98,-26.72 145.01,-25.83"/>
<polygon fill="#63b8ff" stroke="#63b8ff" points="147.53,-28.3 153.03,-19.24 143.08,-22.89 147.53,-28.3"/>
</a>
</g>
</g>
</g>
</svg>
