<?xml version="1.0" encoding="UTF-8" standalone="no"?>
<!DOCTYPE svg PUBLIC "-//W3C//DTD SVG 1.1//EN"
 "http://www.w3.org/Graphics/SVG/1.1/DTD/svg11.dtd">
<!-- Generated by graphviz version 2.43.0 (0)
 -->
<!-- Title: INV Pages: 1 -->
<svg width="715pt" height="347pt"
 viewBox="0.00 0.00 715.00 347.14" xmlns="http://www.w3.org/2000/svg" xmlns:xlink="http://www.w3.org/1999/xlink">
<g id="graph0" class="graph" transform="scale(1 1) rotate(0) translate(4 343.14)">
<title>INV</title>
<!-- Node1 -->
<g id="Node000001" class="node">
<title>Node1</title>
<g id="a_Node000001"><a xlink:title=" ">
<polygon fill="#999999" stroke="#666666" points="707,-160.14 673,-160.14 673,-141.14 707,-141.14 707,-160.14"/>
<text text-anchor="middle" x="690" y="-148.14" font-family="Helvetica,sans-Serif" font-size="10.00">INV</text>
</a>
</g>
</g>
<!-- Node2 -->
<g id="Node000002" class="node">
<title>Node2</title>
<g id="a_Node000002"><a xlink:href="bending_8c.html#a2b66770553fce4724cfb65b0f79e83b1" target="_top" xlink:title=" ">
<polygon fill="white" stroke="#666666" points="637,-179.14 575,-179.14 575,-160.14 637,-160.14 637,-179.14"/>
<text text-anchor="middle" x="606" y="-167.14" font-family="Helvetica,sans-Serif" font-size="10.00">Fbending</text>
</a>
</g>
</g>
<!-- Node1&#45;&gt;Node2 -->
<g id="edge1_Node000001_Node000002" class="edge">
<title>Node1&#45;&gt;Node2</title>
<g id="a_edge1_Node000001_Node000002"><a xlink:title=" ">
<path fill="none" stroke="#63b8ff" d="M663,-156.67C654.76,-158.57 645.6,-160.7 637.11,-162.67"/>
<polygon fill="#63b8ff" stroke="#63b8ff" points="663.85,-160.06 672.8,-154.4 662.27,-153.24 663.85,-160.06"/>
</a>
</g>
</g>
<!-- Node16 -->
<g id="Node000016" class="node">
<title>Node16</title>
<g id="a_Node000016"><a xlink:href="bending_8c.html#a9f48607d5ce7f351c5960f63455779c4" target="_top" xlink:title=" ">
<polygon fill="white" stroke="#666666" points="626.5,-142.14 585.5,-142.14 585.5,-123.14 626.5,-123.14 626.5,-142.14"/>
<text text-anchor="middle" x="606" y="-130.14" font-family="Helvetica,sans-Serif" font-size="10.00">Kve0</text>
</a>
</g>
</g>
<!-- Node1&#45;&gt;Node16 -->
<g id="edge21_Node000001_Node000016" class="edge">
<title>Node1&#45;&gt;Node16</title>
<g id="a_edge21_Node000001_Node000016"><a xlink:title=" ">
<path fill="none" stroke="#63b8ff" d="M662.7,-144.87C650.99,-142.3 637.44,-139.32 626.64,-136.95"/>
<polygon fill="#63b8ff" stroke="#63b8ff" points="662.28,-148.36 672.8,-147.09 663.78,-141.52 662.28,-148.36"/>
</a>
</g>
</g>
<!-- Node3 -->
<g id="Node000003" class="node">
<title>Node3</title>
<g id="a_Node000003"><a xlink:href="main_8c.html#a59ccabe25c63661e6e66b44209b0f162" target="_top" xlink:title=" ">
<polygon fill="white" stroke="#666666" points="538.5,-263.14 478.5,-263.14 478.5,-244.14 538.5,-244.14 538.5,-263.14"/>
<text text-anchor="middle" x="508.5" y="-251.14" font-family="Helvetica,sans-Serif" font-size="10.00">FInternal</text>
</a>
</g>
</g>
<!-- Node2&#45;&gt;Node3 -->
<g id="edge2_Node000002_Node000003" class="edge">
<title>Node2&#45;&gt;Node3</title>
<g id="a_edge2_Node000002_Node000003"><a xlink:title=" ">
<path fill="none" stroke="#63b8ff" d="M586.34,-186.06C566.67,-203.35 536.37,-230.01 520.33,-244.12"/>
<polygon fill="#63b8ff" stroke="#63b8ff" points="588.85,-188.51 594.04,-179.28 584.22,-183.25 588.85,-188.51"/>
</a>
</g>
</g>
<!-- Node4 -->
<g id="Node000004" class="node">
<title>Node4</title>
<g id="a_Node000004"><a xlink:href="main_8c.html#aac0575d69dba68d64a6c0f65c2d8f635" target="_top" xlink:title=" ">
<polygon fill="white" stroke="#666666" points="429,-339.14 375,-339.14 375,-320.14 429,-320.14 429,-339.14"/>
<text text-anchor="middle" x="402" y="-327.14" font-family="Helvetica,sans-Serif" font-size="10.00">Contact</text>
</a>
</g>
</g>
<!-- Node3&#45;&gt;Node4 -->
<g id="edge3_Node000003_Node000004" class="edge">
<title>Node3&#45;&gt;Node4</title>
<g id="a_edge3_Node000003_Node000004"><a xlink:title=" ">
<path fill="none" stroke="#63b8ff" d="M488.52,-269.7C475.69,-280.31 458.19,-294.29 442,-305.64 434.84,-310.66 426.63,-315.8 419.6,-320.03"/>
<polygon fill="#63b8ff" stroke="#63b8ff" points="490.79,-272.37 496.22,-263.28 486.3,-266.99 490.79,-272.37"/>
</a>
</g>
</g>
<!-- Node5 -->
<g id="Node000005" class="node">
<title>Node5</title>
<g id="a_Node000005"><a xlink:href="main_8c.html#a9a070a6f408cadb404b0ee7fbc74c576" target="_top" xlink:title=" ">
<polygon fill="white" stroke="#666666" points="181,-300.14 77,-300.14 77,-281.14 181,-281.14 181,-300.14"/>
<text text-anchor="middle" x="129" y="-288.14" font-family="Helvetica,sans-Serif" font-size="10.00">FormFunctionFEM</text>
</a>
</g>
</g>
<!-- Node3&#45;&gt;Node5 -->
<g id="edge4_Node000003_Node000005" class="edge">
<title>Node3&#45;&gt;Node5</title>
<g id="a_edge4_Node000003_Node000005"><a xlink:title=" ">
<path fill="none" stroke="#63b8ff" d="M468.4,-262.19C459.74,-263.87 450.59,-265.46 442,-266.64 350.64,-279.18 243.26,-285.64 181.27,-288.57"/>
<polygon fill="#63b8ff" stroke="#63b8ff" points="469.16,-265.61 478.28,-260.22 467.79,-258.75 469.16,-265.61"/>
</a>
</g>
</g>
<!-- Node7 -->
<g id="Node000007" class="node">
<title>Node7</title>
<g id="a_Node000007"><a xlink:href="main_8c.html#ad3a8e8f5b2e1871122784b2cd3dc1c8c" target="_top" xlink:title=" ">
<polygon fill="white" stroke="#666666" points="156.5,-262.14 101.5,-262.14 101.5,-243.14 156.5,-243.14 156.5,-262.14"/>
<text text-anchor="middle" x="129" y="-250.14" font-family="Helvetica,sans-Serif" font-size="10.00">FormRK</text>
</a>
</g>
</g>
<!-- Node3&#45;&gt;Node7 -->
<g id="edge6_Node000003_Node000007" class="edge">
<title>Node3&#45;&gt;Node7</title>
<g id="a_edge6_Node000003_Node000007"><a xlink:title=" ">
<path fill="none" stroke="#63b8ff" d="M467.94,-253.54C390.82,-253.33 222.21,-252.89 156.74,-252.71"/>
<polygon fill="#63b8ff" stroke="#63b8ff" points="468.18,-257.04 478.19,-253.56 468.2,-250.04 468.18,-257.04"/>
</a>
</g>
</g>
<!-- Node8 -->
<g id="Node000008" class="node">
<title>Node8</title>
<g id="a_Node000008"><a xlink:href="inverse_8c.html#a8ccb34384a9c46d52bb413dcd177c67b" target="_top" xlink:title=" ">
<polygon fill="white" stroke="#666666" points="442,-150.14 362,-150.14 362,-131.14 442,-131.14 442,-150.14"/>
<text text-anchor="middle" x="402" y="-138.14" font-family="Helvetica,sans-Serif" font-size="10.00">ResidualCalc</text>
</a>
</g>
</g>
<!-- Node3&#45;&gt;Node8 -->
<g id="edge8_Node000003_Node000008" class="edge">
<title>Node3&#45;&gt;Node8</title>
<g id="a_edge8_Node000003_Node000008"><a xlink:title=" ">
<path fill="none" stroke="#63b8ff" d="M491.78,-236.65C469.54,-212.59 429.61,-169.41 411.89,-150.25"/>
<polygon fill="#63b8ff" stroke="#63b8ff" points="489.23,-239.04 498.59,-244.01 494.37,-234.29 489.23,-239.04"/>
</a>
</g>
</g>
<!-- Node6 -->
<g id="Node000006" class="node">
<title>Node6</title>
<g id="a_Node000006"><a xlink:href="main_8c.html#a3c04138a5bfe5d72780bb7e82a18e627" target="_top" xlink:title=" ">
<polygon fill="white" stroke="#666666" points="41,-206.14 0,-206.14 0,-187.14 41,-187.14 41,-206.14"/>
<text text-anchor="middle" x="20.5" y="-194.14" font-family="Helvetica,sans-Serif" font-size="10.00">main</text>
</a>
</g>
</g>
<!-- Node5&#45;&gt;Node6 -->
<g id="edge5_Node000005_Node000006" class="edge">
<title>Node5&#45;&gt;Node6</title>
<g id="a_edge5_Node000005_Node000006"><a xlink:title=" ">
<path fill="none" stroke="#63b8ff" d="M84.86,-276.7C82.1,-275.17 79.45,-273.49 77,-271.64 52.93,-253.52 34.54,-222.14 26.28,-206.33"/>
<polygon fill="#63b8ff" stroke="#63b8ff" points="83.4,-279.88 93.92,-281.09 86.45,-273.58 83.4,-279.88"/>
</a>
</g>
</g>
<!-- Node7&#45;&gt;Node6 -->
<g id="edge7_Node000007_Node000006" class="edge">
<title>Node7&#45;&gt;Node6</title>
<g id="a_edge7_Node000007_Node000006"><a xlink:title=" ">
<path fill="none" stroke="#63b8ff" d="M91.69,-241.15C86.67,-239.18 81.64,-237 77,-234.64 61.17,-226.61 44.58,-214.72 33.7,-206.38"/>
<polygon fill="#63b8ff" stroke="#63b8ff" points="90.65,-244.5 101.25,-244.67 93.07,-237.93 90.65,-244.5"/>
</a>
</g>
</g>
<!-- Node9 -->
<g id="Node000009" class="node">
<title>Node9</title>
<g id="a_Node000009"><a xlink:href="mlp_8c.html#a95587eada79194109e216fe2d1536aa5" target="_top" xlink:title=" ">
<polygon fill="white" stroke="#666666" points="307,-225.14 236,-225.14 236,-206.14 307,-206.14 307,-225.14"/>
<text text-anchor="middle" x="271.5" y="-213.14" font-family="Helvetica,sans-Serif" font-size="10.00">compute_R</text>
</a>
</g>
</g>
<!-- Node8&#45;&gt;Node9 -->
<g id="edge9_Node000008_Node000009" class="edge">
<title>Node8&#45;&gt;Node9</title>
<g id="a_edge9_Node000008_Node000009"><a xlink:title=" ">
<path fill="none" stroke="#63b8ff" d="M382.88,-157.12C368.37,-169.62 347.02,-186.51 326,-197.64 319.85,-200.9 313,-203.73 306.3,-206.13"/>
<polygon fill="#63b8ff" stroke="#63b8ff" points="385.39,-159.57 390.58,-150.34 380.77,-154.32 385.39,-159.57"/>
</a>
</g>
</g>
<!-- Node11 -->
<g id="Node000011" class="node">
<title>Node11</title>
<g id="a_Node000011"><a xlink:href="inverse_8c.html#a5a46d0c408c2a4905101ca00ed320825" target="_top" xlink:title=" ">
<polygon fill="white" stroke="#666666" points="312,-188.14 231,-188.14 231,-169.14 312,-169.14 312,-188.14"/>
<text text-anchor="middle" x="271.5" y="-176.14" font-family="Helvetica,sans-Serif" font-size="10.00">FungJacobian</text>
</a>
</g>
</g>
<!-- Node8&#45;&gt;Node11 -->
<g id="edge11_Node000008_Node000011" class="edge">
<title>Node8&#45;&gt;Node11</title>
<g id="a_edge11_Node000008_Node000011"><a xlink:title=" ">
<path fill="none" stroke="#63b8ff" d="M358.61,-153.18C341.13,-158.35 321.2,-164.24 304.92,-169.06"/>
<polygon fill="#63b8ff" stroke="#63b8ff" points="359.98,-156.42 368.57,-150.23 357.99,-149.71 359.98,-156.42"/>
</a>
</g>
</g>
<!-- Node12 -->
<g id="Node000012" class="node">
<title>Node12</title>
<g id="a_Node000012"><a xlink:href="inverse_8c.html#a63c0a7ac76584f0dab82764698b5d878" target="_top" xlink:title=" ">
<polygon fill="white" stroke="#666666" points="160,-131.14 98,-131.14 98,-112.14 160,-112.14 160,-131.14"/>
<text text-anchor="middle" x="129" y="-119.14" font-family="Helvetica,sans-Serif" font-size="10.00">InvSolver</text>
</a>
</g>
</g>
<!-- Node8&#45;&gt;Node12 -->
<g id="edge18_Node000008_Node000012" class="edge">
<title>Node8&#45;&gt;Node12</title>
<g id="a_edge18_Node000008_Node000012"><a xlink:title=" ">
<path fill="none" stroke="#63b8ff" d="M351.87,-137.2C296.07,-133.29 206.76,-127.02 160.3,-123.77"/>
<polygon fill="#63b8ff" stroke="#63b8ff" points="351.66,-140.69 361.88,-137.9 352.15,-133.71 351.66,-140.69"/>
</a>
</g>
</g>
<!-- Node13 -->
<g id="Node000013" class="node">
<title>Node13</title>
<g id="a_Node000013"><a xlink:href="inverse_8c.html#a6dcb60291ae68ad8fa0ccea39658279a" target="_top" xlink:title=" ">
<polygon fill="white" stroke="#666666" points="320.5,-112.14 222.5,-112.14 222.5,-93.14 320.5,-93.14 320.5,-112.14"/>
<text text-anchor="middle" x="271.5" y="-100.14" font-family="Helvetica,sans-Serif" font-size="10.00">FungUniJacobian</text>
</a>
</g>
</g>
<!-- Node8&#45;&gt;Node13 -->
<g id="edge14_Node000008_Node000013" class="edge">
<title>Node8&#45;&gt;Node13</title>
<g id="a_edge14_Node000008_Node000013"><a xlink:title=" ">
<path fill="none" stroke="#63b8ff" d="M358.61,-128.11C341.13,-122.94 321.2,-117.04 304.92,-112.23"/>
<polygon fill="#63b8ff" stroke="#63b8ff" points="357.99,-131.57 368.57,-131.05 359.98,-124.86 357.99,-131.57"/>
</a>
</g>
</g>
<!-- Node14 -->
<g id="Node000014" class="node">
<title>Node14</title>
<g id="a_Node000014"><a xlink:href="inverse_8c.html#ad779d411aa186efcdfb8e192c52d04b0" target="_top" xlink:title=" ">
<polygon fill="white" stroke="#666666" points="326,-75.14 217,-75.14 217,-56.14 326,-56.14 326,-75.14"/>
<text text-anchor="middle" x="271.5" y="-63.14" font-family="Helvetica,sans-Serif" font-size="10.00">grad_R_wrt_E_field</text>
</a>
</g>
</g>
<!-- Node8&#45;&gt;Node14 -->
<g id="edge16_Node000008_Node000014" class="edge">
<title>Node8&#45;&gt;Node14</title>
<g id="a_edge16_Node000008_Node000014"><a xlink:title=" ">
<path fill="none" stroke="#63b8ff" d="M382.88,-124.17C368.37,-111.66 347.02,-94.78 326,-83.64 319.85,-80.39 313,-77.55 306.3,-75.15"/>
<polygon fill="#63b8ff" stroke="#63b8ff" points="380.77,-126.97 390.58,-130.94 385.39,-121.71 380.77,-126.97"/>
</a>
</g>
</g>
<!-- Node15 -->
<g id="Node000015" class="node">
<title>Node15</title>
<g id="a_Node000015"><a xlink:href="inverse_8c.html#a9c6b1db7cc8e3f7771140e7920429ab3" target="_top" xlink:title=" ">
<polygon fill="white" stroke="#666666" points="300.5,-38.14 242.5,-38.14 242.5,-19.14 300.5,-19.14 300.5,-38.14"/>
<text text-anchor="middle" x="271.5" y="-26.14" font-family="Helvetica,sans-Serif" font-size="10.00">Jacobian</text>
</a>
</g>
</g>
<!-- Node8&#45;&gt;Node15 -->
<g id="edge19_Node000008_Node000015" class="edge">
<title>Node8&#45;&gt;Node15</title>
<g id="a_edge19_Node000008_Node000015"><a xlink:title=" ">
<path fill="none" stroke="#63b8ff" d="M390.74,-122.18C378.12,-101.05 354.77,-66.79 326,-46.64 318.45,-41.36 309.24,-37.53 300.59,-34.8"/>
<polygon fill="#63b8ff" stroke="#63b8ff" points="387.73,-123.96 395.77,-130.86 393.79,-120.45 387.73,-123.96"/>
</a>
</g>
</g>
<!-- Node10 -->
<g id="Node000010" class="node">
<title>Node10</title>
<g id="a_Node000010"><a xlink:href="mlp_8c.html#a2aeef94f6b174527c5b7983c25229818" target="_top" xlink:title=" ">
<polygon fill="white" stroke="#666666" points="175,-225.14 83,-225.14 83,-206.14 175,-206.14 175,-225.14"/>
<text text-anchor="middle" x="129" y="-213.14" font-family="Helvetica,sans-Serif" font-size="10.00">backward_pass</text>
</a>
</g>
</g>
<!-- Node9&#45;&gt;Node10 -->
<g id="edge10_Node000009_Node000010" class="edge">
<title>Node9&#45;&gt;Node10</title>
<g id="a_edge10_Node000009_Node000010"><a xlink:title=" ">
<path fill="none" stroke="#63b8ff" d="M225.53,-215.64C209.45,-215.64 191.32,-215.64 175.21,-215.64"/>
<polygon fill="#63b8ff" stroke="#63b8ff" points="225.77,-219.14 235.77,-215.64 225.77,-212.14 225.77,-219.14"/>
</a>
</g>
</g>
<!-- Node11&#45;&gt;Node12 -->
<g id="edge12_Node000011_Node000012" class="edge">
<title>Node11&#45;&gt;Node12</title>
<g id="a_edge12_Node000011_Node000012"><a xlink:title=" ">
<path fill="none" stroke="#63b8ff" d="M237.62,-165.3C211.85,-154.85 176.62,-140.56 153.59,-131.21"/>
<polygon fill="#63b8ff" stroke="#63b8ff" points="236.4,-168.59 246.98,-169.1 239.03,-162.1 236.4,-168.59"/>
</a>
</g>
</g>
<!-- Node12&#45;&gt;Node6 -->
<g id="edge13_Node000012_Node000006" class="edge">
<title>Node12&#45;&gt;Node6</title>
<g id="a_edge13_Node000012_Node000006"><a xlink:title=" ">
<path fill="none" stroke="#63b8ff" d="M105.62,-137.4C84.3,-152.42 52.88,-174.54 35.09,-187.07"/>
<polygon fill="#63b8ff" stroke="#63b8ff" points="107.92,-140.07 114.08,-131.45 103.89,-134.34 107.92,-140.07"/>
</a>
</g>
</g>
<!-- Node13&#45;&gt;Node12 -->
<g id="edge15_Node000013_Node000012" class="edge">
<title>Node13&#45;&gt;Node12</title>
<g id="a_edge15_Node000013_Node000012"><a xlink:title=" ">
<path fill="none" stroke="#63b8ff" d="M211.88,-110.57C194.18,-112.96 175.47,-115.49 160.41,-117.53"/>
<polygon fill="#63b8ff" stroke="#63b8ff" points="212.71,-113.99 222.15,-109.18 211.77,-107.05 212.71,-113.99"/>
</a>
</g>
</g>
<!-- Node14&#45;&gt;Node12 -->
<g id="edge17_Node000014_Node000012" class="edge">
<title>Node14&#45;&gt;Node12</title>
<g id="a_edge17_Node000014_Node000012"><a xlink:title=" ">
<path fill="none" stroke="#63b8ff" d="M231,-78.5C226.26,-80.17 221.51,-81.9 217,-83.64 193.93,-92.54 168.03,-104.06 150.53,-112.07"/>
<polygon fill="#63b8ff" stroke="#63b8ff" points="232.31,-81.75 240.62,-75.18 230.03,-75.13 232.31,-81.75"/>
</a>
</g>
</g>
<!-- Node15&#45;&gt;Node12 -->
<g id="edge20_Node000015_Node000012" class="edge">
<title>Node15&#45;&gt;Node12</title>
<g id="a_edge20_Node000015_Node000012"><a xlink:title=" ">
<path fill="none" stroke="#63b8ff" d="M232.71,-39.29C227.29,-41.41 221.9,-43.85 217,-46.64 184.77,-65.01 153.45,-96.28 138.73,-112.01"/>
<polygon fill="#63b8ff" stroke="#63b8ff" points="234.16,-42.49 242.41,-35.84 231.81,-35.9 234.16,-42.49"/>
</a>
</g>
</g>
<!-- Node17 -->
<g id="Node000017" class="node">
<title>Node17</title>
<g id="a_Node000017"><a xlink:href="bending_8c.html#a2cd7ef6a41a0e3d6757965f9336e457a" target="_top" xlink:title=" ">
<polygon fill="white" stroke="#666666" points="539,-142.14 478,-142.14 478,-123.14 539,-123.14 539,-142.14"/>
<text text-anchor="middle" x="508.5" y="-130.14" font-family="Helvetica,sans-Serif" font-size="10.00">InitGhost</text>
</a>
</g>
</g>
<!-- Node16&#45;&gt;Node17 -->
<g id="edge22_Node000016_Node000017" class="edge">
<title>Node16&#45;&gt;Node17</title>
<g id="a_edge22_Node000016_Node000017"><a xlink:title=" ">
<path fill="none" stroke="#63b8ff" d="M575.19,-132.64C563.68,-132.64 550.55,-132.64 539.06,-132.64"/>
<polygon fill="#63b8ff" stroke="#63b8ff" points="575.21,-136.14 585.21,-132.64 575.21,-129.14 575.21,-136.14"/>
</a>
</g>
</g>
<!-- Node18 -->
<g id="Node000018" class="node">
<title>Node18</title>
<g id="a_Node000018"><a xlink:href="main_8c.html#a636a8f7f82b7bc4dabb749e9c7fe75a9" target="_top" xlink:title=" ">
<polygon fill="white" stroke="#666666" points="418,-57.14 386,-57.14 386,-38.14 418,-38.14 418,-57.14"/>
<text text-anchor="middle" x="402" y="-45.14" font-family="Helvetica,sans-Serif" font-size="10.00">Init</text>
</a>
</g>
</g>
<!-- Node17&#45;&gt;Node18 -->
<g id="edge23_Node000017_Node000018" class="edge">
<title>Node17&#45;&gt;Node18</title>
<g id="a_edge23_Node000017_Node000018"><a xlink:title=" ">
<path fill="none" stroke="#63b8ff" d="M487.66,-116.5C466.16,-99.01 432.56,-71.69 414.85,-57.28"/>
<polygon fill="#63b8ff" stroke="#63b8ff" points="485.55,-119.3 495.51,-122.89 489.96,-113.87 485.55,-119.3"/>
</a>
</g>
</g>
<!-- Node18&#45;&gt;Node6 -->
<g id="edge24_Node000018_Node000006" class="edge">
<title>Node18&#45;&gt;Node6</title>
<g id="a_edge24_Node000018_Node000006"><a xlink:title=" ">
<path fill="none" stroke="#63b8ff" d="M378.47,-32.7C364.12,-24.09 344.75,-14.12 326,-9.64 278.88,1.61 263.38,4.36 217,-9.64 145.49,-31.23 128.4,-48.44 77,-102.64 51.96,-129.04 33.26,-168.72 25.48,-186.91"/>
<polygon fill="#63b8ff" stroke="#63b8ff" points="376.78,-35.77 387.12,-38.08 380.48,-29.83 376.78,-35.77"/>
</a>
</g>
</g>
</g>
</svg>
