<?xml version="1.0" encoding="UTF-8" standalone="no"?>
<!DOCTYPE svg PUBLIC "-//W3C//DTD SVG 1.1//EN"
 "http://www.w3.org/Graphics/SVG/1.1/DTD/svg11.dtd">
<!-- Generated by graphviz version 2.43.0 (0)
 -->
<!-- Title: Patch Pages: 1 -->
<svg width="347pt" height="64pt"
 viewBox="0.00 0.00 347.00 64.00" xmlns="http://www.w3.org/2000/svg" xmlns:xlink="http://www.w3.org/1999/xlink">
<g id="graph0" class="graph" transform="scale(1 1) rotate(0) translate(4 60)">
<title>Patch</title>
<!-- Node1 -->
<g id="Node000001" class="node">
<title>Node1</title>
<g id="a_Node000001"><a xlink:title=" ">
<polygon fill="#999999" stroke="#666666" points="339,-38 296,-38 296,-19 339,-19 339,-38"/>
<text text-anchor="middle" x="317.5" y="-26" font-family="Helvetica,sans-Serif" font-size="10.00">Patch</text>
</a>
</g>
</g>
<!-- Node2 -->
<g id="Node000002" class="node">
<title>Node2</title>
<g id="a_Node000002"><a xlink:href="lv__geometry_8c.html#aac85a6b370a9743adfb663de8acddbe1" target="_top" xlink:title=" ">
<polygon fill="white" stroke="#666666" points="163,-56 77,-56 77,-37 163,-37 163,-56"/>
<text text-anchor="middle" x="120" y="-44" font-family="Helvetica,sans-Serif" font-size="10.00">CreateLVMesh</text>
</a>
</g>
</g>
<!-- Node1&#45;&gt;Node2 -->
<g id="edge1_Node000001_Node000002" class="edge">
<title>Node1&#45;&gt;Node2</title>
<g id="a_edge1_Node000001_Node000002"><a xlink:title=" ">
<path fill="none" stroke="#63b8ff" d="M285.97,-31.31C252.95,-34.35 200.08,-39.22 163.12,-42.62"/>
<polygon fill="#63b8ff" stroke="#63b8ff" points="286.31,-34.79 295.95,-30.39 285.67,-27.82 286.31,-34.79"/>
</a>
</g>
</g>
<!-- Node4 -->
<g id="Node000004" class="node">
<title>Node4</title>
<g id="a_Node000004"><a xlink:href="bending_8c.html#a2cd7ef6a41a0e3d6757965f9336e457a" target="_top" xlink:title=" ">
<polygon fill="white" stroke="#666666" points="260,-19 199,-19 199,0 260,0 260,-19"/>
<text text-anchor="middle" x="229.5" y="-7" font-family="Helvetica,sans-Serif" font-size="10.00">InitGhost</text>
</a>
</g>
</g>
<!-- Node1&#45;&gt;Node4 -->
<g id="edge3_Node000001_Node000004" class="edge">
<title>Node1&#45;&gt;Node4</title>
<g id="a_edge3_Node000001_Node000004"><a xlink:title=" ">
<path fill="none" stroke="#63b8ff" d="M285.65,-21.68C277.37,-19.86 268.44,-17.88 260.23,-16.07"/>
<polygon fill="#63b8ff" stroke="#63b8ff" points="285.16,-25.16 295.68,-23.9 286.67,-18.33 285.16,-25.16"/>
</a>
</g>
</g>
<!-- Node3 -->
<g id="Node000003" class="node">
<title>Node3</title>
<g id="a_Node000003"><a xlink:href="main_8c.html#a3c04138a5bfe5d72780bb7e82a18e627" target="_top" xlink:title=" ">
<polygon fill="white" stroke="#666666" points="41,-37 0,-37 0,-18 41,-18 41,-37"/>
<text text-anchor="middle" x="20.5" y="-25" font-family="Helvetica,sans-Serif" font-size="10.00">main</text>
</a>
</g>
</g>
<!-- Node2&#45;&gt;Node3 -->
<g id="edge2_Node000002_Node000003" class="edge">
<title>Node2&#45;&gt;Node3</title>
<g id="a_edge2_Node000002_Node000003"><a xlink:title=" ">
<path fill="none" stroke="#63b8ff" d="M66.82,-36.33C57.62,-34.54 48.58,-32.78 41.03,-31.31"/>
<polygon fill="#63b8ff" stroke="#63b8ff" points="66.32,-39.8 76.8,-38.28 67.66,-32.93 66.32,-39.8"/>
</a>
</g>
</g>
<!-- Node5 -->
<g id="Node000005" class="node">
<title>Node5</title>
<g id="a_Node000005"><a xlink:href="main_8c.html#a636a8f7f82b7bc4dabb749e9c7fe75a9" target="_top" xlink:title=" ">
<polygon fill="white" stroke="#666666" points="136,-19 104,-19 104,0 136,0 136,-19"/>
<text text-anchor="middle" x="120" y="-7" font-family="Helvetica,sans-Serif" font-size="10.00">Init</text>
</a>
</g>
</g>
<!-- Node4&#45;&gt;Node5 -->
<g id="edge4_Node000004_Node000005" class="edge">
<title>Node4&#45;&gt;Node5</title>
<g id="a_edge4_Node000004_Node000005"><a xlink:title=" ">
<path fill="none" stroke="#63b8ff" d="M188.66,-9.5C170.32,-9.5 149.65,-9.5 136.04,-9.5"/>
<polygon fill="#63b8ff" stroke="#63b8ff" points="188.84,-13 198.84,-9.5 188.84,-6 188.84,-13"/>
</a>
</g>
</g>
<!-- Node5&#45;&gt;Node3 -->
<g id="edge5_Node000005_Node000003" class="edge">
<title>Node5&#45;&gt;Node3</title>
<g id="a_edge5_Node000005_Node000003"><a xlink:title=" ">
<path fill="none" stroke="#63b8ff" d="M93.81,-14.15C77.48,-17.17 56.5,-21.04 41.35,-23.84"/>
<polygon fill="#63b8ff" stroke="#63b8ff" points="94.57,-17.57 103.77,-12.31 93.3,-10.69 94.57,-17.57"/>
</a>
</g>
</g>
</g>
</svg>
