<?xml version="1.0" encoding="UTF-8" standalone="no"?>
<!DOCTYPE svg PUBLIC "-//W3C//DTD SVG 1.1//EN"
 "http://www.w3.org/Graphics/SVG/1.1/DTD/svg11.dtd">
<!-- Generated by graphviz version 2.43.0 (0)
 -->
<!-- Title: InitGhost Pages: 1 -->
<svg width="425pt" height="253pt"
 viewBox="0.00 0.00 425.00 253.00" xmlns="http://www.w3.org/2000/svg" xmlns:xlink="http://www.w3.org/1999/xlink">

<svg id="main" version="1.1" xmlns="http://www.w3.org/2000/svg" xmlns:xlink="http://www.w3.org/1999/xlink" xml:space="preserve" onload="init(evt)">
<style type="text/css"><![CDATA[
.node, .edge {opacity: 0.7;}
.node.selected, .edge.selected {opacity: 1;}
.edge:hover path { stroke: red; }
.edge:hover polygon { stroke: red; fill: red; }
]]></style>
<script type="application/ecmascript" xlink:href="svg.min.js"/>
<svg id="graph" class="graph">
<g id="graph0" class="graph" transform="scale(1 1) rotate(0) translate(4 249)">
<title>InitGhost</title>
<!-- Node1 -->
<g id="Node000001" class="node">
<title>Node1</title>
<g id="a_Node000001"><a xlink:title=" ">
<polygon fill="#999999" stroke="#666666" points="61,-149 0,-149 0,-130 61,-130 61,-149"/>
<text text-anchor="middle" x="30.5" y="-137" font-family="Helvetica,sans-Serif" font-size="10.00">InitGhost</text>
</a>
</g>
</g>
<!-- Node2 -->
<g id="Node000002" class="node">
<title>Node2</title>
<g id="a_Node000002"><a xlink:href="bending_8c.html#ace73fac6bb01de30690642de6bcba1d4" target="_top" xlink:title=" ">
<polygon fill="white" stroke="#666666" points="150.5,-242 105.5,-242 105.5,-223 150.5,-223 150.5,-242"/>
<text text-anchor="middle" x="128" y="-230" font-family="Helvetica,sans-Serif" font-size="10.00">Ghost</text>
</a>
</g>
</g>
<!-- Node1&#45;&gt;Node2 -->
<g id="edge1_Node000001_Node000002" class="edge">
<title>Node1&#45;&gt;Node2</title>
<g id="a_edge1_Node000001_Node000002"><a xlink:title=" ">
<path fill="none" stroke="#63b8ff" d="M38.34,-149.12C49.44,-164.27 72.6,-194.09 97,-214.5 98.14,-215.45 99.33,-216.38 100.55,-217.29"/>
<polygon fill="#63b8ff" stroke="#63b8ff" points="98.67,-220.24 108.93,-222.9 102.57,-214.43 98.67,-220.24"/>
</a>
</g>
</g>
<!-- Node3 -->
<g id="Node000003" class="node">
<title>Node3</title>
<g id="a_Node000003"><a xlink:href="bcs_8c.html#a66bea6d23d803ebc455e934629a0c7be" target="_top" xlink:title=" ">
<polygon fill="white" stroke="#666666" points="159,-205 97,-205 97,-186 159,-186 159,-205"/>
<text text-anchor="middle" x="128" y="-193" font-family="Helvetica,sans-Serif" font-size="10.00">GhostLoc</text>
</a>
</g>
</g>
<!-- Node1&#45;&gt;Node3 -->
<g id="edge2_Node000001_Node000003" class="edge">
<title>Node1&#45;&gt;Node3</title>
<g id="a_edge2_Node000001_Node000003"><a xlink:title=" ">
<path fill="none" stroke="#63b8ff" d="M48.13,-149.25C62.92,-157.93 84.77,-170.74 101.72,-180.68"/>
<polygon fill="#63b8ff" stroke="#63b8ff" points="100.16,-183.82 110.56,-185.86 103.7,-177.78 100.16,-183.82"/>
</a>
</g>
</g>
<!-- Node4 -->
<g id="Node000004" class="node">
<title>Node4</title>
<g id="a_Node000004"><a xlink:href="bending_8c.html#a9578756c3e89fa4ff5097ef9bdfee25e" target="_top" xlink:title=" ">
<polygon fill="white" stroke="#666666" points="149.5,-168 106.5,-168 106.5,-149 149.5,-149 149.5,-168"/>
<text text-anchor="middle" x="128" y="-156" font-family="Helvetica,sans-Serif" font-size="10.00">IrrVer</text>
</a>
</g>
</g>
<!-- Node1&#45;&gt;Node4 -->
<g id="edge3_Node000001_Node000004" class="edge">
<title>Node1&#45;&gt;Node4</title>
<g id="a_edge3_Node000001_Node000004"><a xlink:title=" ">
<path fill="none" stroke="#63b8ff" d="M61.19,-145.41C72.43,-147.64 85.23,-150.19 96.53,-152.44"/>
<polygon fill="#63b8ff" stroke="#63b8ff" points="95.92,-155.88 106.41,-154.4 97.28,-149.02 95.92,-155.88"/>
</a>
</g>
</g>
<!-- Node5 -->
<g id="Node000005" class="node">
<title>Node5</title>
<g id="a_Node000005"><a xlink:href="bending_8c.html#a9f48607d5ce7f351c5960f63455779c4" target="_top" xlink:title=" ">
<polygon fill="white" stroke="#666666" points="148.5,-131 107.5,-131 107.5,-112 148.5,-112 148.5,-131"/>
<text text-anchor="middle" x="128" y="-119" font-family="Helvetica,sans-Serif" font-size="10.00">Kve0</text>
</a>
</g>
</g>
<!-- Node1&#45;&gt;Node5 -->
<g id="edge4_Node000001_Node000005" class="edge">
<title>Node1&#45;&gt;Node5</title>
<g id="a_edge4_Node000001_Node000005"><a xlink:title=" ">
<path fill="none" stroke="#63b8ff" d="M61.19,-133.9C72.68,-131.74 85.8,-129.27 97.29,-127.1"/>
<polygon fill="#63b8ff" stroke="#63b8ff" points="98.11,-130.51 107.29,-125.22 96.81,-123.63 98.11,-130.51"/>
</a>
</g>
</g>
<!-- Node13 -->
<g id="Node000013" class="node">
<title>Node13</title>
<g id="a_Node000013"><a xlink:href="bending_8c.html#a0107f44526163528de27b208877f2bda" target="_top" xlink:title=" ">
<polygon fill="white" stroke="#666666" points="149.5,-94 106.5,-94 106.5,-75 149.5,-75 149.5,-94"/>
<text text-anchor="middle" x="128" y="-82" font-family="Helvetica,sans-Serif" font-size="10.00">Patch</text>
</a>
</g>
</g>
<!-- Node1&#45;&gt;Node13 -->
<g id="edge14_Node000001_Node000013" class="edge">
<title>Node1&#45;&gt;Node13</title>
<g id="a_edge14_Node000001_Node000013"><a xlink:title=" ">
<path fill="none" stroke="#63b8ff" d="M48.13,-129.92C62.83,-121.45 84.5,-108.98 101.41,-99.24"/>
<polygon fill="#63b8ff" stroke="#63b8ff" points="103.32,-102.18 110.24,-94.16 99.82,-96.11 103.32,-102.18"/>
</a>
</g>
</g>
<!-- Node14 -->
<g id="Node000014" class="node">
<title>Node14</title>
<g id="a_Node000014"><a xlink:href="bending_8c.html#a907be03803f4a1d456a7a1650461f7eb" target="_top" xlink:title=" ">
<polygon fill="white" stroke="#666666" points="157.5,-57 98.5,-57 98.5,-38 157.5,-38 157.5,-57"/>
<text text-anchor="middle" x="128" y="-45" font-family="Helvetica,sans-Serif" font-size="10.00">PatchLoc</text>
</a>
</g>
</g>
<!-- Node1&#45;&gt;Node14 -->
<g id="edge15_Node000001_Node000014" class="edge">
<title>Node1&#45;&gt;Node14</title>
<g id="a_edge15_Node000001_Node000014"><a xlink:title=" ">
<path fill="none" stroke="#63b8ff" d="M38.55,-129.77C49.76,-114.76 72.85,-85.57 97,-65.5 98.14,-64.55 99.33,-63.62 100.56,-62.72"/>
<polygon fill="#63b8ff" stroke="#63b8ff" points="102.57,-65.58 108.94,-57.11 98.68,-59.76 102.57,-65.58"/>
</a>
</g>
</g>
<!-- Node6 -->
<g id="Node000006" class="node">
<title>Node6</title>
<g id="a_Node000006"><a xlink:href="math_8c.html#a7ef9263b0a3a10c2cd00bb4dc0059d70" target="_top" xlink:title=" ">
<polygon fill="white" stroke="#666666" points="288,-245 238,-245 238,-226 288,-226 288,-245"/>
<text text-anchor="middle" x="263" y="-233" font-family="Helvetica,sans-Serif" font-size="10.00">AMULT</text>
</a>
</g>
</g>
<!-- Node5&#45;&gt;Node6 -->
<g id="edge5_Node000005_Node000006" class="edge">
<title>Node5&#45;&gt;Node6</title>
<g id="a_edge5_Node000005_Node000006"><a xlink:title=" ">
<path fill="none" stroke="#63b8ff" d="M148.61,-131.06C152.36,-133.46 156.03,-136.29 159,-139.5 183.31,-165.75 168.23,-187.76 195,-211.5 204.22,-219.68 216.43,-225.13 227.9,-228.73"/>
<polygon fill="#63b8ff" stroke="#63b8ff" points="227.13,-232.15 237.7,-231.45 229,-225.41 227.13,-232.15"/>
</a>
</g>
</g>
<!-- Node7 -->
<g id="Node000007" class="node">
<title>Node7</title>
<g id="a_Node000007"><a xlink:href="material_8c.html#a3243950933f3559f19edcb5421360526" target="_top" xlink:title=" ">
<polygon fill="white" stroke="#666666" points="331,-169 195,-169 195,-150 331,-150 331,-169"/>
<text text-anchor="middle" x="263" y="-157" font-family="Helvetica,sans-Serif" font-size="10.00">CalcCurvStressStrainxyz</text>
</a>
</g>
</g>
<!-- Node5&#45;&gt;Node7 -->
<g id="edge6_Node000005_Node000007" class="edge">
<title>Node5&#45;&gt;Node7</title>
<g id="a_edge6_Node000005_Node000007"><a xlink:title=" ">
<path fill="none" stroke="#63b8ff" d="M148.62,-127.11C167.02,-132.36 195.16,-140.4 218.8,-147.16"/>
<polygon fill="#63b8ff" stroke="#63b8ff" points="218.04,-150.58 228.62,-149.96 219.96,-143.85 218.04,-150.58"/>
</a>
</g>
</g>
<!-- Node8 -->
<g id="Node000008" class="node">
<title>Node8</title>
<g id="a_Node000008"><a xlink:href="math_8c.html#a3f73e4cd9eab76eeee084eabf2b98ec9" target="_top" xlink:title=" ">
<polygon fill="white" stroke="#666666" points="409,-187 375,-187 375,-168 409,-168 409,-187"/>
<text text-anchor="middle" x="392" y="-175" font-family="Helvetica,sans-Serif" font-size="10.00">INV</text>
</a>
</g>
</g>
<!-- Node5&#45;&gt;Node8 -->
<g id="edge11_Node000005_Node000008" class="edge">
<title>Node5&#45;&gt;Node8</title>
<g id="a_edge11_Node000005_Node000008"><a xlink:title=" ">
<path fill="none" stroke="#63b8ff" d="M147.01,-131.17C151.1,-133.67 155.32,-136.51 159,-139.5 177.3,-154.39 173.39,-169.04 195,-178.5 251.42,-203.2 326.02,-192.48 364.91,-184.07"/>
<polygon fill="#63b8ff" stroke="#63b8ff" points="365.91,-187.43 374.88,-181.79 364.35,-180.61 365.91,-187.43"/>
</a>
</g>
</g>
<!-- Node9 -->
<g id="Node000009" class="node">
<title>Node9</title>
<g id="a_Node000009"><a xlink:href="math_8c.html#a9d08a9d2fd8e8932e92b8ab054b19269" target="_top" xlink:title=" ">
<polygon fill="white" stroke="#666666" points="417,-150 367,-150 367,-131 417,-131 417,-150"/>
<text text-anchor="middle" x="392" y="-138" font-family="Helvetica,sans-Serif" font-size="10.00">MINUS</text>
</a>
</g>
</g>
<!-- Node5&#45;&gt;Node9 -->
<g id="edge12_Node000005_Node000009" class="edge">
<title>Node5&#45;&gt;Node9</title>
<g id="a_edge12_Node000005_Node000009"><a xlink:title=" ">
<path fill="none" stroke="#63b8ff" d="M148.69,-122.93C193.08,-126.15 301.37,-134 356.92,-138.03"/>
<polygon fill="#63b8ff" stroke="#63b8ff" points="356.74,-141.52 366.97,-138.76 357.25,-134.54 356.74,-141.52"/>
</a>
</g>
</g>
<!-- Node10 -->
<g id="Node000010" class="node">
<title>Node10</title>
<g id="a_Node000010"><a xlink:href="math_8c.html#a9d60990d26296194c921d537ea26f3c7" target="_top" xlink:title=" ">
<polygon fill="white" stroke="#666666" points="288,-93 238,-93 238,-74 288,-74 288,-93"/>
<text text-anchor="middle" x="263" y="-81" font-family="Helvetica,sans-Serif" font-size="10.00">CROSS</text>
</a>
</g>
</g>
<!-- Node5&#45;&gt;Node10 -->
<g id="edge9_Node000005_Node000010" class="edge">
<title>Node5&#45;&gt;Node10</title>
<g id="a_edge9_Node000005_Node000010"><a xlink:title=" ">
<path fill="none" stroke="#63b8ff" d="M148.62,-115.89C169.46,-109.94 202.77,-100.42 227.91,-93.24"/>
<polygon fill="#63b8ff" stroke="#63b8ff" points="229.13,-96.53 237.78,-90.42 227.2,-89.8 229.13,-96.53"/>
</a>
</g>
</g>
<!-- Node11 -->
<g id="Node000011" class="node">
<title>Node11</title>
<g id="a_Node000011"><a xlink:href="math_8c.html#a870a70f4845a041458d9bdb0dd7aabd3" target="_top" xlink:title=" ">
<polygon fill="white" stroke="#666666" points="282,-56 244,-56 244,-37 282,-37 282,-56"/>
<text text-anchor="middle" x="263" y="-44" font-family="Helvetica,sans-Serif" font-size="10.00">DOT</text>
</a>
</g>
</g>
<!-- Node5&#45;&gt;Node11 -->
<g id="edge10_Node000005_Node000011" class="edge">
<title>Node5&#45;&gt;Node11</title>
<g id="a_edge10_Node000005_Node000011"><a xlink:title=" ">
<path fill="none" stroke="#63b8ff" d="M145.7,-111.95C150.18,-109.12 154.91,-105.87 159,-102.5 176.96,-87.72 175.02,-76.41 195,-64.5 206.8,-57.47 221.39,-53.13 233.93,-50.48"/>
<polygon fill="#63b8ff" stroke="#63b8ff" points="234.7,-53.9 243.89,-48.63 233.42,-47.01 234.7,-53.9"/>
</a>
</g>
</g>
<!-- Node12 -->
<g id="Node000012" class="node">
<title>Node12</title>
<g id="a_Node000012"><a xlink:href="math_8c.html#ac616709995f2ae60c4308ffa328337d7" target="_top" xlink:title=" ">
<polygon fill="white" stroke="#666666" points="283.5,-19 242.5,-19 242.5,0 283.5,0 283.5,-19"/>
<text text-anchor="middle" x="263" y="-7" font-family="Helvetica,sans-Serif" font-size="10.00">UNIT</text>
</a>
</g>
</g>
<!-- Node5&#45;&gt;Node12 -->
<g id="edge13_Node000005_Node000012" class="edge">
<title>Node5&#45;&gt;Node12</title>
<g id="a_edge13_Node000005_Node000012"><a xlink:title=" ">
<path fill="none" stroke="#63b8ff" d="M147.71,-111.93C151.77,-109.26 155.8,-106.09 159,-102.5 183.57,-74.87 166.55,-51.12 195,-27.5 205.43,-18.85 219.63,-14.32 232.27,-11.97"/>
<polygon fill="#63b8ff" stroke="#63b8ff" points="233.04,-15.39 242.41,-10.46 232.01,-8.47 233.04,-15.39"/>
</a>
</g>
</g>
<!-- Node7&#45;&gt;Node8 -->
<g id="edge7_Node000007_Node000008" class="edge">
<title>Node7&#45;&gt;Node8</title>
<g id="a_edge7_Node000007_Node000008"><a xlink:title=" ">
<path fill="none" stroke="#63b8ff" d="M331.22,-169.03C342.98,-170.69 354.56,-172.34 364.36,-173.72"/>
<polygon fill="#63b8ff" stroke="#63b8ff" points="364.18,-177.23 374.58,-175.17 365.17,-170.3 364.18,-177.23"/>
</a>
</g>
</g>
<!-- Node7&#45;&gt;Node9 -->
<g id="edge8_Node000007_Node000009" class="edge">
<title>Node7&#45;&gt;Node9</title>
<g id="a_edge8_Node000007_Node000009"><a xlink:title=" ">
<path fill="none" stroke="#63b8ff" d="M327.87,-149.94C337.91,-148.44 347.93,-146.94 356.93,-145.6"/>
<polygon fill="#63b8ff" stroke="#63b8ff" points="357.61,-149.03 366.98,-144.09 356.57,-142.11 357.61,-149.03"/>
</a>
</g>
</g>
</g>
</svg>
</svg>

<style type='text/css'>
<![CDATA[
[data-mouse-over-selected='false'] { opacity: 0.7; }
[data-mouse-over-selected='true']  { opacity: 1.0; }
]]>
</style>
<script type="application/ecmascript"><![CDATA[
document.addEventListener('DOMContentLoaded', (event) => {
  highlightEdges();
  highlightAdjacentNodes();
});
]]></script>
</svg>
