<?xml version="1.0" encoding="UTF-8" standalone="no"?>
<!DOCTYPE svg PUBLIC "-//W3C//DTD SVG 1.1//EN"
 "http://www.w3.org/Graphics/SVG/1.1/DTD/svg11.dtd">
<!-- Generated by graphviz version 2.43.0 (0)
 -->
<!-- Title: GlobalGhost Pages: 1 -->
<!--zoomable 290 -->

<svg id="main" version="1.1" xmlns="http://www.w3.org/2000/svg" xmlns:xlink="http://www.w3.org/1999/xlink" xml:space="preserve" onload="init(evt)">
<style type="text/css"><![CDATA[
.node, .edge {opacity: 0.7;}
.node.selected, .edge.selected {opacity: 1;}
.edge:hover path { stroke: red; }
.edge:hover polygon { stroke: red; fill: red; }
]]></style>

<defs>
  <circle id="rim" cx="0" cy="0" r="7"/>
  <circle id="rim2" cx="0" cy="0" r="3.5"/>
  <g id="zoomPlus">
    <use xlink:href="#rim" fill="#404040"><set attributeName="fill" to="#808080" begin="zoomplus.mouseover" end="zoomplus.mouseout"/></use>
    <path d="M-4,0h8M0,-4v8" fill="none" stroke="white" stroke-width="1.5" pointer-events="none"/>
  </g>
  <g id="zoomMin">
    <use xlink:href="#rim" fill="#404040"><set attributeName="fill" to="#808080" begin="zoomminus.mouseover" end="zoomminus.mouseout"/></use>
    <path d="M-4,0h8" fill="none" stroke="white" stroke-width="1.5" pointer-events="none"/>
  </g>
  <g id="arrowUp" transform="translate(30 24)">
    <use xlink:href="#rim"/>
    <path pointer-events="none" fill="none" stroke="white" stroke-width="1.5" d="M0,-3.0v7 M-2.5,-0.5L0,-3.0L2.5,-0.5"/>
  </g>
  <g id="arrowRight" transform="rotate(90) translate(36 -43)">
    <use xlink:href="#rim"/>
    <path pointer-events="none" fill="none" stroke="white" stroke-width="1.5" d="M0,-3.0v7 M-2.5,-0.5L0,-3.0L2.5,-0.5"/>
  </g>
  <g id="arrowDown" transform="rotate(180) translate(-30 -48)">
    <use xlink:href="#rim"/>
    <path pointer-events="none" fill="none" stroke="white" stroke-width="1.5" d="M0,-3.0v7 M-2.5,-0.5L0,-3.0L2.5,-0.5"/>
  </g>
  <g id="arrowLeft" transform="rotate(270) translate(-36 17)">
    <use xlink:href="#rim"/>
    <path pointer-events="none" fill="none" stroke="white" stroke-width="1.5" d="M0,-3.0v7 M-2.5,-0.5L0,-3.0L2.5,-0.5"/>
  </g>
  <g id="resetDef">
    <use xlink:href="#rim2" fill="#404040"><set attributeName="fill" to="#808080" begin="reset.mouseover" end="reset.mouseout"/></use>
  </g>
</defs>
<script type="application/ecmascript">
var viewWidth = 663;
var viewHeight = 290;
var sectionId = 'dynsection-30';
</script>
<script type="application/ecmascript" xlink:href="svg.min.js"/>
<svg id="graph" class="graph">
<g id="viewport">
<title>GlobalGhost</title>
<!-- Node1 -->
<g id="Node000001" class="node">
<title>Node1</title>
<g id="a_Node000001"><a xlink:title=" ">
<polygon fill="#999999" stroke="#666666" points="655,-244 578,-244 578,-225 655,-225 655,-244"/>
<text text-anchor="middle" x="616.5" y="-232" font-family="Helvetica,sans-Serif" font-size="10.00">GlobalGhost</text>
</a>
</g>
</g>
<!-- Node2 -->
<g id="Node000002" class="node">
<title>Node2</title>
<g id="a_Node000002"><a xlink:href="muscle__activation_8c.html#a6775d705d7242ce0339ce632abbfa4b4" target="_top" xlink:title=" ">
<polygon fill="white" stroke="#666666" points="542,-281 381,-281 381,-262 542,-262 542,-281"/>
<text text-anchor="middle" x="461.5" y="-269" font-family="Helvetica,sans-Serif" font-size="10.00">form_interm_state_func_grad</text>
</a>
</g>
</g>
<!-- Node1&#45;&gt;Node2 -->
<g id="edge1_Node000001_Node000002" class="edge">
<title>Node1&#45;&gt;Node2</title>
<g id="a_edge1_Node000001_Node000002"><a xlink:title=" ">
<path fill="none" stroke="#63b8ff" d="M569.59,-246.6C560.46,-248.94 550.94,-251.33 542,-253.5 530.31,-256.33 517.62,-259.27 505.88,-261.93"/>
<polygon fill="#63b8ff" stroke="#63b8ff" points="570.48,-249.98 579.29,-244.09 568.73,-243.2 570.48,-249.98"/>
</a>
</g>
</g>
<!-- Node5 -->
<g id="Node000005" class="node">
<title>Node5</title>
<g id="a_Node000005"><a xlink:href="main_8c.html#a9a070a6f408cadb404b0ee7fbc74c576" target="_top" xlink:title=" ">
<polygon fill="white" stroke="#666666" points="513.5,-244 409.5,-244 409.5,-225 513.5,-225 513.5,-244"/>
<text text-anchor="middle" x="461.5" y="-232" font-family="Helvetica,sans-Serif" font-size="10.00">FormFunctionFEM</text>
</a>
</g>
</g>
<!-- Node1&#45;&gt;Node5 -->
<g id="edge4_Node000001_Node000005" class="edge">
<title>Node1&#45;&gt;Node5</title>
<g id="a_edge4_Node000001_Node000005"><a xlink:title=" ">
<path fill="none" stroke="#63b8ff" d="M567.38,-234.5C550.31,-234.5 531.05,-234.5 513.74,-234.5"/>
<polygon fill="#63b8ff" stroke="#63b8ff" points="567.68,-238 577.68,-234.5 567.68,-231 567.68,-238"/>
</a>
</g>
</g>
<!-- Node7 -->
<g id="Node000007" class="node">
<title>Node7</title>
<g id="a_Node000007"><a xlink:href="inverse_8c.html#a8ccb34384a9c46d52bb413dcd177c67b" target="_top" xlink:title=" ">
<polygon fill="white" stroke="#666666" points="501.5,-131 421.5,-131 421.5,-112 501.5,-112 501.5,-131"/>
<text text-anchor="middle" x="461.5" y="-119" font-family="Helvetica,sans-Serif" font-size="10.00">ResidualCalc</text>
</a>
</g>
</g>
<!-- Node1&#45;&gt;Node7 -->
<g id="edge6_Node000001_Node000007" class="edge">
<title>Node1&#45;&gt;Node7</title>
<g id="a_edge6_Node000001_Node000007"><a xlink:title=" ">
<path fill="none" stroke="#63b8ff" d="M594.16,-218.74C561.96,-194.96 501.91,-150.6 475.51,-131.11"/>
<polygon fill="#63b8ff" stroke="#63b8ff" points="592.33,-221.74 602.46,-224.87 596.49,-216.11 592.33,-221.74"/>
</a>
</g>
</g>
<!-- Node3 -->
<g id="Node000003" class="node">
<title>Node3</title>
<g id="a_Node000003"><a xlink:href="muscle__activation_8c.html#a98fd1f2632f8a9dafbcd477adbf354a0" target="_top" xlink:title=" ">
<polygon fill="white" stroke="#666666" points="343.5,-282 237.5,-282 237.5,-263 343.5,-263 343.5,-282"/>
<text text-anchor="middle" x="290.5" y="-270" font-family="Helvetica,sans-Serif" font-size="10.00">find_intmd_coords</text>
</a>
</g>
</g>
<!-- Node2&#45;&gt;Node3 -->
<g id="edge2_Node000002_Node000003" class="edge">
<title>Node2&#45;&gt;Node3</title>
<g id="a_edge2_Node000002_Node000003"><a xlink:title=" ">
<path fill="none" stroke="#63b8ff" d="M370.84,-272.03C361.54,-272.09 352.32,-272.14 343.64,-272.19"/>
<polygon fill="#63b8ff" stroke="#63b8ff" points="370.97,-275.53 380.95,-271.97 370.93,-268.53 370.97,-275.53"/>
</a>
</g>
</g>
<!-- Node4 -->
<g id="Node000004" class="node">
<title>Node4</title>
<g id="a_Node000004"><a xlink:href="muscle__activation_8c.html#aad998374ae4f3ca2c8f14b4c4b2aaafd" target="_top" xlink:title=" ">
<polygon fill="white" stroke="#666666" points="200,-282 77,-282 77,-263 200,-263 200,-282"/>
<text text-anchor="middle" x="138.5" y="-270" font-family="Helvetica,sans-Serif" font-size="10.00">InitMuscleActProblem</text>
</a>
</g>
</g>
<!-- Node3&#45;&gt;Node4 -->
<g id="edge3_Node000003_Node000004" class="edge">
<title>Node3&#45;&gt;Node4</title>
<g id="a_edge3_Node000003_Node000004"><a xlink:title=" ">
<path fill="none" stroke="#63b8ff" d="M227.44,-272.5C218.44,-272.5 209.18,-272.5 200.21,-272.5"/>
<polygon fill="#63b8ff" stroke="#63b8ff" points="227.46,-276 237.46,-272.5 227.46,-269 227.46,-276"/>
</a>
</g>
</g>
<!-- Node6 -->
<g id="Node000006" class="node">
<title>Node6</title>
<g id="a_Node000006"><a xlink:href="main_8c.html#a3c04138a5bfe5d72780bb7e82a18e627" target="_top" xlink:title=" ">
<polygon fill="white" stroke="#666666" points="41,-168 0,-168 0,-149 41,-149 41,-168"/>
<text text-anchor="middle" x="20.5" y="-156" font-family="Helvetica,sans-Serif" font-size="10.00">main</text>
</a>
</g>
</g>
<!-- Node5&#45;&gt;Node6 -->
<g id="edge5_Node000005_Node000006" class="edge">
<title>Node5&#45;&gt;Node6</title>
<g id="a_edge5_Node000005_Node000006"><a xlink:title=" ">
<path fill="none" stroke="#63b8ff" d="M399.15,-244.73C320.65,-254.93 182.24,-263.02 77,-215.5 54.59,-205.38 36.51,-181.78 27.58,-168.33"/>
<polygon fill="#63b8ff" stroke="#63b8ff" points="399.91,-248.16 409.35,-243.35 398.98,-241.22 399.91,-248.16"/>
</a>
</g>
</g>
<!-- Node8 -->
<g id="Node000008" class="node">
<title>Node8</title>
<g id="a_Node000008"><a xlink:href="mlp_8c.html#a95587eada79194109e216fe2d1536aa5" target="_top" xlink:title=" ">
<polygon fill="white" stroke="#666666" points="326,-206 255,-206 255,-187 326,-187 326,-206"/>
<text text-anchor="middle" x="290.5" y="-194" font-family="Helvetica,sans-Serif" font-size="10.00">compute_R</text>
</a>
</g>
</g>
<!-- Node7&#45;&gt;Node8 -->
<g id="edge7_Node000007_Node000008" class="edge">
<title>Node7&#45;&gt;Node8</title>
<g id="a_edge7_Node000007_Node000008"><a xlink:title=" ">
<path fill="none" stroke="#63b8ff" d="M433.98,-135.86C410.87,-148.06 376.25,-165.6 345,-178.5 337.75,-181.49 329.81,-184.37 322.32,-186.92"/>
<polygon fill="#63b8ff" stroke="#63b8ff" points="435.65,-138.93 442.84,-131.14 432.37,-132.75 435.65,-138.93"/>
</a>
</g>
</g>
<!-- Node10 -->
<g id="Node000010" class="node">
<title>Node10</title>
<g id="a_Node000010"><a xlink:href="inverse_8c.html#a5a46d0c408c2a4905101ca00ed320825" target="_top" xlink:title=" ">
<polygon fill="white" stroke="#666666" points="331,-169 250,-169 250,-150 331,-150 331,-169"/>
<text text-anchor="middle" x="290.5" y="-157" font-family="Helvetica,sans-Serif" font-size="10.00">FungJacobian</text>
</a>
</g>
</g>
<!-- Node7&#45;&gt;Node10 -->
<g id="edge9_Node000007_Node000010" class="edge">
<title>Node7&#45;&gt;Node10</title>
<g id="a_edge9_Node000007_Node000010"><a xlink:title=" ">
<path fill="none" stroke="#63b8ff" d="M411.44,-132.53C385.89,-138.28 355.07,-145.21 331.07,-150.6"/>
<polygon fill="#63b8ff" stroke="#63b8ff" points="412.31,-135.92 421.3,-130.31 410.78,-129.09 412.31,-135.92"/>
</a>
</g>
</g>
<!-- Node11 -->
<g id="Node000011" class="node">
<title>Node11</title>
<g id="a_Node000011"><a xlink:href="inverse_8c.html#a63c0a7ac76584f0dab82764698b5d878" target="_top" xlink:title=" ">
<polygon fill="white" stroke="#666666" points="169.5,-112 107.5,-112 107.5,-93 169.5,-93 169.5,-112"/>
<text text-anchor="middle" x="138.5" y="-100" font-family="Helvetica,sans-Serif" font-size="10.00">InvSolver</text>
</a>
</g>
</g>
<!-- Node7&#45;&gt;Node11 -->
<g id="edge16_Node000007_Node000011" class="edge">
<title>Node7&#45;&gt;Node11</title>
<g id="a_edge16_Node000007_Node000011"><a xlink:title=" ">
<path fill="none" stroke="#63b8ff" d="M411.11,-118.58C343.76,-114.59 225.17,-107.57 169.7,-104.29"/>
<polygon fill="#63b8ff" stroke="#63b8ff" points="411.27,-122.09 421.46,-119.19 411.68,-115.1 411.27,-122.09"/>
</a>
</g>
</g>
<!-- Node12 -->
<g id="Node000012" class="node">
<title>Node12</title>
<g id="a_Node000012"><a xlink:href="inverse_8c.html#a6dcb60291ae68ad8fa0ccea39658279a" target="_top" xlink:title=" ">
<polygon fill="white" stroke="#666666" points="339.5,-93 241.5,-93 241.5,-74 339.5,-74 339.5,-93"/>
<text text-anchor="middle" x="290.5" y="-81" font-family="Helvetica,sans-Serif" font-size="10.00">FungUniJacobian</text>
</a>
</g>
</g>
<!-- Node7&#45;&gt;Node12 -->
<g id="edge12_Node000007_Node000012" class="edge">
<title>Node7&#45;&gt;Node12</title>
<g id="a_edge12_Node000007_Node000012"><a xlink:title=" ">
<path fill="none" stroke="#63b8ff" d="M411.48,-110.48C386.97,-104.97 357.59,-98.36 334.04,-93.06"/>
<polygon fill="#63b8ff" stroke="#63b8ff" points="410.78,-113.91 421.3,-112.69 412.31,-107.08 410.78,-113.91"/>
</a>
</g>
</g>
<!-- Node13 -->
<g id="Node000013" class="node">
<title>Node13</title>
<g id="a_Node000013"><a xlink:href="inverse_8c.html#ad779d411aa186efcdfb8e192c52d04b0" target="_top" xlink:title=" ">
<polygon fill="white" stroke="#666666" points="345,-56 236,-56 236,-37 345,-37 345,-56"/>
<text text-anchor="middle" x="290.5" y="-44" font-family="Helvetica,sans-Serif" font-size="10.00">grad_R_wrt_E_field</text>
</a>
</g>
</g>
<!-- Node7&#45;&gt;Node13 -->
<g id="edge14_Node000007_Node000013" class="edge">
<title>Node7&#45;&gt;Node13</title>
<g id="a_edge14_Node000007_Node000013"><a xlink:title=" ">
<path fill="none" stroke="#63b8ff" d="M433.49,-107.35C410.32,-95.48 375.9,-78.43 345,-65.5 337.09,-62.19 328.38,-58.93 320.32,-56.08"/>
<polygon fill="#63b8ff" stroke="#63b8ff" points="431.89,-110.47 442.38,-111.94 435.1,-104.25 431.89,-110.47"/>
</a>
</g>
</g>
<!-- Node14 -->
<g id="Node000014" class="node">
<title>Node14</title>
<g id="a_Node000014"><a xlink:href="inverse_8c.html#a9c6b1db7cc8e3f7771140e7920429ab3" target="_top" xlink:title=" ">
<polygon fill="white" stroke="#666666" points="319.5,-19 261.5,-19 261.5,0 319.5,0 319.5,-19"/>
<text text-anchor="middle" x="290.5" y="-7" font-family="Helvetica,sans-Serif" font-size="10.00">Jacobian</text>
</a>
</g>
</g>
<!-- Node7&#45;&gt;Node14 -->
<g id="edge17_Node000007_Node000014" class="edge">
<title>Node7&#45;&gt;Node14</title>
<g id="a_edge17_Node000007_Node000014"><a xlink:title=" ">
<path fill="none" stroke="#63b8ff" d="M443.94,-104.72C422.71,-84.03 383.95,-48.97 345,-27.5 337.1,-23.15 327.97,-19.6 319.52,-16.84"/>
<polygon fill="#63b8ff" stroke="#63b8ff" points="441.62,-107.35 451.19,-111.89 446.54,-102.37 441.62,-107.35"/>
</a>
</g>
</g>
<!-- Node9 -->
<g id="Node000009" class="node">
<title>Node9</title>
<g id="a_Node000009"><a xlink:href="mlp_8c.html#a2aeef94f6b174527c5b7983c25229818" target="_top" xlink:title=" ">
<polygon fill="white" stroke="#666666" points="184.5,-206 92.5,-206 92.5,-187 184.5,-187 184.5,-206"/>
<text text-anchor="middle" x="138.5" y="-194" font-family="Helvetica,sans-Serif" font-size="10.00">backward_pass</text>
</a>
</g>
</g>
<!-- Node8&#45;&gt;Node9 -->
<g id="edge8_Node000008_Node000009" class="edge">
<title>Node8&#45;&gt;Node9</title>
<g id="a_edge8_Node000008_Node000009"><a xlink:title=" ">
<path fill="none" stroke="#63b8ff" d="M244.54,-196.5C225.6,-196.5 203.59,-196.5 184.63,-196.5"/>
<polygon fill="#63b8ff" stroke="#63b8ff" points="244.71,-200 254.71,-196.5 244.71,-193 244.71,-200"/>
</a>
</g>
</g>
<!-- Node10&#45;&gt;Node11 -->
<g id="edge10_Node000010_Node000011" class="edge">
<title>Node10&#45;&gt;Node11</title>
<g id="a_edge10_Node000010_Node000011"><a xlink:title=" ">
<path fill="none" stroke="#63b8ff" d="M254.76,-146.3C227.21,-135.83 189.38,-121.45 164.69,-112.07"/>
<polygon fill="#63b8ff" stroke="#63b8ff" points="253.8,-149.68 264.39,-149.96 256.29,-143.14 253.8,-149.68"/>
</a>
</g>
</g>
<!-- Node11&#45;&gt;Node6 -->
<g id="edge11_Node000011_Node000006" class="edge">
<title>Node11&#45;&gt;Node6</title>
<g id="a_edge11_Node000011_Node000006"><a xlink:title=" ">
<path fill="none" stroke="#63b8ff" d="M108.45,-116.53C87.44,-126.67 59.63,-140.09 41.18,-149"/>
<polygon fill="#63b8ff" stroke="#63b8ff" points="110.08,-119.63 117.56,-112.13 107.03,-113.32 110.08,-119.63"/>
</a>
</g>
</g>
<!-- Node12&#45;&gt;Node11 -->
<g id="edge13_Node000012_Node000011" class="edge">
<title>Node12&#45;&gt;Node11</title>
<g id="a_edge13_Node000012_Node000011"><a xlink:title=" ">
<path fill="none" stroke="#63b8ff" d="M231.11,-90.9C210.16,-93.55 187.39,-96.43 169.79,-98.66"/>
<polygon fill="#63b8ff" stroke="#63b8ff" points="231.73,-94.35 241.21,-89.62 230.85,-87.4 231.73,-94.35"/>
</a>
</g>
</g>
<!-- Node13&#45;&gt;Node11 -->
<g id="edge15_Node000013_Node000011" class="edge">
<title>Node13&#45;&gt;Node11</title>
<g id="a_edge15_Node000013_Node000011"><a xlink:title=" ">
<path fill="none" stroke="#63b8ff" d="M252.47,-59.51C246.94,-61.5 241.32,-63.54 236,-65.5 211.43,-74.57 183.49,-85.33 164.03,-92.9"/>
<polygon fill="#63b8ff" stroke="#63b8ff" points="253.99,-62.69 262.24,-56.04 251.64,-56.1 253.99,-62.69"/>
</a>
</g>
</g>
<!-- Node14&#45;&gt;Node11 -->
<g id="edge18_Node000014_Node000011" class="edge">
<title>Node14&#45;&gt;Node11</title>
<g id="a_edge18_Node000014_Node000011"><a xlink:title=" ">
<path fill="none" stroke="#63b8ff" d="M251.66,-20.44C246.28,-22.51 240.91,-24.86 236,-27.5 201.23,-46.16 166.04,-77.3 149.4,-92.93"/>
<polygon fill="#63b8ff" stroke="#63b8ff" points="253.01,-23.68 261.27,-17.04 250.67,-17.08 253.01,-23.68"/>
</a>
</g>
</g>
</g>
</svg>

<g id="navigator" transform="translate(0 0)" fill="#404254">
  <rect fill="#f2f5e9" fill-opacity="0.5" stroke="#606060" stroke-width=".5" x="0" y="0" width="60" height="60"/>
  <use id="zoomplus" xlink:href="#zoomPlus" x="17" y="9" onmousedown="handleZoom(evt,'in')"/>
  <use id="zoomminus" xlink:href="#zoomMin" x="42" y="9" onmousedown="handleZoom(evt,'out')"/>
  <use id="reset" xlink:href="#resetDef" x="30" y="36" onmousedown="handleReset()"/>
   <use id="arrowup" xlink:href="#arrowUp" x="0" y="0" onmousedown="handlePan(0,-1)"/>
  <use id="arrowright" xlink:href="#arrowRight" x="0" y="0" onmousedown="handlePan(1,0)"/>
  <use id="arrowdown" xlink:href="#arrowDown" x="0" y="0" onmousedown="handlePan(0,1)"/>
  <use id="arrowleft" xlink:href="#arrowLeft" x="0" y="0" onmousedown="handlePan(-1,0)"/>
</g>
<svg viewBox="0 0 15 15" width="100%" height="30px" preserveAspectRatio="xMaxYMin meet">
 <g id="arrow_out" transform="scale(0.3 0.3)">
  <a xlink:href="bending_8c_a4a1f5973a55922b27065f712220d8152_icgraph_org.svg" target="_base">
   <rect id="button" ry="5" rx="5" y="6" x="6" height="38" width="38"
        fill="#f2f5e9" fill-opacity="0.5" stroke="#606060" stroke-width="1.0"/>
   <path id="arrow"
     d="M 11.500037,31.436501 C 11.940474,20.09759 22.043105,11.32322 32.158766,21.979434 L 37.068811,17.246167 C 37.068811,17.246167 37.088388,32 37.088388,32 L 22.160133,31.978069 C 22.160133,31.978069 26.997745,27.140456 26.997745,27.140456 C 18.528582,18.264221 13.291696,25.230495 11.500037,31.436501 z"
     style="fill:#404040;"/>
  </a>
 </g>
</svg>

<style type='text/css'>
<![CDATA[
[data-mouse-over-selected='false'] { opacity: 0.7; }
[data-mouse-over-selected='true']  { opacity: 1.0; }
]]>
</style>
<script type="application/ecmascript"><![CDATA[
document.addEventListener('DOMContentLoaded', (event) => {
  highlightEdges();
  highlightAdjacentNodes();
});
]]></script>
</svg>
