<?xml version="1.0" encoding="UTF-8" standalone="no"?>
<!DOCTYPE svg PUBLIC "-//W3C//DTD SVG 1.1//EN"
 "http://www.w3.org/Graphics/SVG/1.1/DTD/svg11.dtd">
<!-- Generated by graphviz version 2.43.0 (0)
 -->
<!-- Title: nearestcellFEM Pages: 1 -->
<svg width="501pt" height="177pt"
 viewBox="0.00 0.00 501.00 177.00" xmlns="http://www.w3.org/2000/svg" xmlns:xlink="http://www.w3.org/1999/xlink">
<g id="graph0" class="graph" transform="scale(1 1) rotate(0) translate(4 173)">
<title>nearestcellFEM</title>
<!-- Node1 -->
<g id="Node000001" class="node">
<title>Node1</title>
<g id="a_Node000001"><a xlink:title=" ">
<polygon fill="#999999" stroke="#666666" points="92,-94 0,-94 0,-75 92,-75 92,-94"/>
<text text-anchor="middle" x="46" y="-82" font-family="Helvetica,sans-Serif" font-size="10.00">nearestcellFEM</text>
</a>
</g>
</g>
<!-- Node2 -->
<g id="Node000002" class="node">
<title>Node2</title>
<g id="a_Node000002"><a xlink:href="contact_8c.html#a6792e9026d762c1ea211d1b713da8d88" target="_top" xlink:title=" ">
<polygon fill="white" stroke="#666666" points="225,-132 129,-132 129,-113 225,-113 225,-132"/>
<text text-anchor="middle" x="177" y="-120" font-family="Helvetica,sans-Serif" font-size="10.00">BoundingSphere</text>
</a>
</g>
</g>
<!-- Node1&#45;&gt;Node2 -->
<g id="edge1_Node000001_Node000002" class="edge">
<title>Node1&#45;&gt;Node2</title>
<g id="a_edge1_Node000001_Node000002"><a xlink:title=" ">
<path fill="none" stroke="#63b8ff" d="M79.55,-94.09C95.9,-98.9 115.91,-104.8 133.46,-109.97"/>
<polygon fill="#63b8ff" stroke="#63b8ff" points="132.88,-113.45 143.46,-112.91 134.85,-106.73 132.88,-113.45"/>
</a>
</g>
</g>
<!-- Node4 -->
<g id="Node000004" class="node">
<title>Node4</title>
<g id="a_Node000004"><a xlink:href="math_8c.html#a9d08a9d2fd8e8932e92b8ab054b19269" target="_top" xlink:title=" ">
<polygon fill="white" stroke="#666666" points="340.5,-169 290.5,-169 290.5,-150 340.5,-150 340.5,-169"/>
<text text-anchor="middle" x="315.5" y="-157" font-family="Helvetica,sans-Serif" font-size="10.00">MINUS</text>
</a>
</g>
</g>
<!-- Node1&#45;&gt;Node4 -->
<g id="edge8_Node000001_Node000004" class="edge">
<title>Node1&#45;&gt;Node4</title>
<g id="a_edge8_Node000001_Node000004"><a xlink:title=" ">
<path fill="none" stroke="#63b8ff" d="M56.98,-94.19C71.35,-107.46 99.3,-130.87 128,-141.5 178.61,-160.24 241.95,-162.25 280.26,-161.35"/>
<polygon fill="#63b8ff" stroke="#63b8ff" points="280.49,-164.84 290.38,-161.02 280.27,-157.84 280.49,-164.84"/>
</a>
</g>
</g>
<!-- Node5 -->
<g id="Node000005" class="node">
<title>Node5</title>
<g id="a_Node000005"><a xlink:href="math_8c.html#aa52f6593cf3e5453c8c6c94343d3fb37" target="_top" xlink:title=" ">
<polygon fill="white" stroke="#666666" points="334.5,-94 296.5,-94 296.5,-75 334.5,-75 334.5,-94"/>
<text text-anchor="middle" x="315.5" y="-82" font-family="Helvetica,sans-Serif" font-size="10.00">SIZE</text>
</a>
</g>
</g>
<!-- Node1&#45;&gt;Node5 -->
<g id="edge9_Node000001_Node000005" class="edge">
<title>Node1&#45;&gt;Node5</title>
<g id="a_edge9_Node000001_Node000005"><a xlink:title=" ">
<path fill="none" stroke="#63b8ff" d="M92.08,-84.5C147.49,-84.5 239.86,-84.5 286.19,-84.5"/>
<polygon fill="#63b8ff" stroke="#63b8ff" points="286.4,-88 296.4,-84.5 286.4,-81 286.4,-88"/>
</a>
</g>
</g>
<!-- Node6 -->
<g id="Node000006" class="node">
<title>Node6</title>
<g id="a_Node000006"><a xlink:href="contact_8c.html#ab5f38c2f58ddb00cd3ae80f923d110cf" target="_top" xlink:title=" ">
<polygon fill="white" stroke="#666666" points="226,-56 128,-56 128,-37 226,-37 226,-56"/>
<text text-anchor="middle" x="177" y="-44" font-family="Helvetica,sans-Serif" font-size="10.00">ISPointInTriangle</text>
</a>
</g>
</g>
<!-- Node1&#45;&gt;Node6 -->
<g id="edge5_Node000001_Node000006" class="edge">
<title>Node1&#45;&gt;Node6</title>
<g id="a_edge5_Node000001_Node000006"><a xlink:title=" ">
<path fill="none" stroke="#63b8ff" d="M79.55,-74.91C95.9,-70.1 115.91,-64.2 133.46,-59.03"/>
<polygon fill="#63b8ff" stroke="#63b8ff" points="134.85,-62.27 143.46,-56.09 132.88,-55.55 134.85,-62.27"/>
</a>
</g>
</g>
<!-- Node9 -->
<g id="Node000009" class="node">
<title>Node9</title>
<g id="a_Node000009"><a xlink:href="math_8c.html#ac616709995f2ae60c4308ffa328337d7" target="_top" xlink:title=" ">
<polygon fill="white" stroke="#666666" points="197.5,-19 156.5,-19 156.5,0 197.5,0 197.5,-19"/>
<text text-anchor="middle" x="177" y="-7" font-family="Helvetica,sans-Serif" font-size="10.00">UNIT</text>
</a>
</g>
</g>
<!-- Node1&#45;&gt;Node9 -->
<g id="edge10_Node000001_Node000009" class="edge">
<title>Node1&#45;&gt;Node9</title>
<g id="a_edge10_Node000001_Node000009"><a xlink:title=" ">
<path fill="none" stroke="#63b8ff" d="M58.73,-74.79C73.95,-62.54 101.7,-41.39 128,-27.5 133.89,-24.39 140.43,-21.56 146.75,-19.11"/>
<polygon fill="#63b8ff" stroke="#63b8ff" points="148.17,-22.32 156.36,-15.6 145.77,-15.75 148.17,-22.32"/>
</a>
</g>
</g>
<!-- Node3 -->
<g id="Node000003" class="node">
<title>Node3</title>
<g id="a_Node000003"><a xlink:href="math_8c.html#a9d60990d26296194c921d537ea26f3c7" target="_top" xlink:title=" ">
<polygon fill="white" stroke="#666666" points="340.5,-132 290.5,-132 290.5,-113 340.5,-113 340.5,-132"/>
<text text-anchor="middle" x="315.5" y="-120" font-family="Helvetica,sans-Serif" font-size="10.00">CROSS</text>
</a>
</g>
</g>
<!-- Node2&#45;&gt;Node3 -->
<g id="edge2_Node000002_Node000003" class="edge">
<title>Node2&#45;&gt;Node3</title>
<g id="a_edge2_Node000002_Node000003"><a xlink:title=" ">
<path fill="none" stroke="#63b8ff" d="M225.36,-122.5C243.3,-122.5 263.37,-122.5 279.91,-122.5"/>
<polygon fill="#63b8ff" stroke="#63b8ff" points="280.22,-126 290.22,-122.5 280.22,-119 280.22,-126"/>
</a>
</g>
</g>
<!-- Node2&#45;&gt;Node4 -->
<g id="edge3_Node000002_Node000004" class="edge">
<title>Node2&#45;&gt;Node4</title>
<g id="a_edge3_Node000002_Node000004"><a xlink:title=" ">
<path fill="none" stroke="#63b8ff" d="M213.15,-132.03C233.83,-137.63 259.86,-144.69 280.36,-150.25"/>
<polygon fill="#63b8ff" stroke="#63b8ff" points="279.65,-153.68 290.22,-152.92 281.49,-146.92 279.65,-153.68"/>
</a>
</g>
</g>
<!-- Node2&#45;&gt;Node5 -->
<g id="edge4_Node000002_Node000005" class="edge">
<title>Node2&#45;&gt;Node5</title>
<g id="a_edge4_Node000002_Node000005"><a xlink:title=" ">
<path fill="none" stroke="#63b8ff" d="M212.44,-112.91C235.39,-106.52 265.14,-98.24 286.6,-92.27"/>
<polygon fill="#63b8ff" stroke="#63b8ff" points="287.71,-95.59 296.4,-89.54 285.83,-88.85 287.71,-95.59"/>
</a>
</g>
</g>
<!-- Node7 -->
<g id="Node000007" class="node">
<title>Node7</title>
<g id="a_Node000007"><a xlink:href="contact_8c.html#a65a12b9220bf4d302a8067fd742f0673" target="_top" xlink:title=" ">
<polygon fill="white" stroke="#666666" points="369,-56 262,-56 262,-37 369,-37 369,-56"/>
<text text-anchor="middle" x="315.5" y="-44" font-family="Helvetica,sans-Serif" font-size="10.00">ISInsideTriangle2D</text>
</a>
</g>
</g>
<!-- Node6&#45;&gt;Node7 -->
<g id="edge6_Node000006_Node000007" class="edge">
<title>Node6&#45;&gt;Node7</title>
<g id="a_edge6_Node000006_Node000007"><a xlink:title=" ">
<path fill="none" stroke="#63b8ff" d="M226.12,-46.5C234.4,-46.5 243.11,-46.5 251.7,-46.5"/>
<polygon fill="#63b8ff" stroke="#63b8ff" points="251.7,-50 261.7,-46.5 251.7,-43 251.7,-50"/>
</a>
</g>
</g>
<!-- Node8 -->
<g id="Node000008" class="node">
<title>Node8</title>
<g id="a_Node000008"><a xlink:href="contact_8c.html#aa7076cdb89c42f86b92221e477af8e1a" target="_top" xlink:title=" ">
<polygon fill="white" stroke="#666666" points="493,-56 405,-56 405,-37 493,-37 493,-56"/>
<text text-anchor="middle" x="449" y="-44" font-family="Helvetica,sans-Serif" font-size="10.00">ISSameSide2D</text>
</a>
</g>
</g>
<!-- Node7&#45;&gt;Node8 -->
<g id="edge7_Node000007_Node000008" class="edge">
<title>Node7&#45;&gt;Node8</title>
<g id="a_edge7_Node000007_Node000008"><a xlink:title=" ">
<path fill="none" stroke="#63b8ff" d="M369.23,-46.5C377.66,-46.5 386.39,-46.5 394.83,-46.5"/>
<polygon fill="#63b8ff" stroke="#63b8ff" points="394.95,-50 404.95,-46.5 394.95,-43 394.95,-50"/>
</a>
</g>
</g>
</g>
</svg>
