<?xml version="1.0" encoding="UTF-8" standalone="no"?>
<!DOCTYPE svg PUBLIC "-//W3C//DTD SVG 1.1//EN"
 "http://www.w3.org/Graphics/SVG/1.1/DTD/svg11.dtd">
<!-- Generated by graphviz version 2.43.0 (0)
 -->
<!-- Title: Fcontact Pages: 1 -->
<svg width="697pt" height="213pt"
 viewBox="0.00 0.00 697.00 213.00" xmlns="http://www.w3.org/2000/svg" xmlns:xlink="http://www.w3.org/1999/xlink">
<g id="graph0" class="graph" transform="scale(1 1) rotate(0) translate(4 209)">
<title>Fcontact</title>
<!-- Node1 -->
<g id="Node000001" class="node">
<title>Node1</title>
<g id="a_Node000001"><a xlink:title=" ">
<polygon fill="#999999" stroke="#666666" points="59,-149 0,-149 0,-130 59,-130 59,-149"/>
<text text-anchor="middle" x="29.5" y="-137" font-family="Helvetica,sans-Serif" font-size="10.00">Fcontact</text>
</a>
</g>
</g>
<!-- Node2 -->
<g id="Node000002" class="node">
<title>Node2</title>
<g id="a_Node000002"><a xlink:href="contact_8c.html#a0173ae94a0fbdb205657fab39e4ac283" target="_top" xlink:title=" ">
<polygon fill="white" stroke="#666666" points="160,-149 95,-149 95,-130 160,-130 160,-149"/>
<text text-anchor="middle" x="127.5" y="-137" font-family="Helvetica,sans-Serif" font-size="10.00">Fcontactij</text>
</a>
</g>
</g>
<!-- Node1&#45;&gt;Node2 -->
<g id="edge1_Node000001_Node000002" class="edge">
<title>Node1&#45;&gt;Node2</title>
<g id="a_edge1_Node000001_Node000002"><a xlink:title=" ">
<path fill="none" stroke="#63b8ff" d="M59.04,-139.5C67.15,-139.5 76.14,-139.5 84.85,-139.5"/>
<polygon fill="#63b8ff" stroke="#63b8ff" points="84.88,-143 94.88,-139.5 84.88,-136 84.88,-143"/>
</a>
</g>
</g>
<!-- Node3 -->
<g id="Node000003" class="node">
<title>Node3</title>
<g id="a_Node000003"><a xlink:href="external_8c.html#a22b3c63a6ce5f1e1b42620161af0ffed" target="_top" xlink:title=" ">
<polygon fill="white" stroke="#666666" points="269.5,-205 214.5,-205 214.5,-186 269.5,-186 269.5,-205"/>
<text text-anchor="middle" x="242" y="-193" font-family="Helvetica,sans-Serif" font-size="10.00">EdgeFix</text>
</a>
</g>
</g>
<!-- Node2&#45;&gt;Node3 -->
<g id="edge2_Node000002_Node000003" class="edge">
<title>Node2&#45;&gt;Node3</title>
<g id="a_edge2_Node000002_Node000003"><a xlink:title=" ">
<path fill="none" stroke="#63b8ff" d="M144.01,-149.01C157.49,-157.08 177.69,-168.73 196,-177.5 199.21,-179.04 202.59,-180.56 205.99,-182.02"/>
<polygon fill="#63b8ff" stroke="#63b8ff" points="204.94,-185.38 215.52,-185.99 207.63,-178.92 204.94,-185.38"/>
</a>
</g>
</g>
<!-- Node4 -->
<g id="Node000004" class="node">
<title>Node4</title>
<g id="a_Node000004"><a xlink:href="contact_8c.html#aecc25fa839846bfc3dfd097458c0d495" target="_top" xlink:title=" ">
<polygon fill="white" stroke="#666666" points="265.5,-168 218.5,-168 218.5,-149 265.5,-149 265.5,-168"/>
<text text-anchor="middle" x="242" y="-156" font-family="Helvetica,sans-Serif" font-size="10.00">initlist</text>
</a>
</g>
</g>
<!-- Node2&#45;&gt;Node4 -->
<g id="edge3_Node000002_Node000004" class="edge">
<title>Node2&#45;&gt;Node4</title>
<g id="a_edge3_Node000002_Node000004"><a xlink:title=" ">
<path fill="none" stroke="#63b8ff" d="M160.14,-144.84C175.13,-147.38 193.04,-150.4 208.18,-152.96"/>
<polygon fill="#63b8ff" stroke="#63b8ff" points="207.71,-156.43 218.16,-154.64 208.88,-149.53 207.71,-156.43"/>
</a>
</g>
</g>
<!-- Node5 -->
<g id="Node000005" class="node">
<title>Node5</title>
<g id="a_Node000005"><a xlink:href="contact_8c.html#af045b58df4ca4babe828ab4d56b7fec1" target="_top" xlink:title=" ">
<polygon fill="white" stroke="#666666" points="276,-131 208,-131 208,-112 276,-112 276,-131"/>
<text text-anchor="middle" x="242" y="-119" font-family="Helvetica,sans-Serif" font-size="10.00">insertnode</text>
</a>
</g>
</g>
<!-- Node2&#45;&gt;Node5 -->
<g id="edge4_Node000002_Node000005" class="edge">
<title>Node2&#45;&gt;Node5</title>
<g id="a_edge4_Node000002_Node000005"><a xlink:title=" ">
<path fill="none" stroke="#63b8ff" d="M160.14,-134.44C171.71,-132.59 185.02,-130.46 197.46,-128.47"/>
<polygon fill="#63b8ff" stroke="#63b8ff" points="198.32,-131.87 207.64,-126.84 197.21,-124.96 198.32,-131.87"/>
</a>
</g>
</g>
<!-- Node6 -->
<g id="Node000006" class="node">
<title>Node6</title>
<g id="a_Node000006"><a xlink:href="contact_8c.html#a8c8e2f1cd589cf69a8dae9aa35f03ad9" target="_top" xlink:title=" ">
<polygon fill="white" stroke="#666666" points="288,-94 196,-94 196,-75 288,-75 288,-94"/>
<text text-anchor="middle" x="242" y="-82" font-family="Helvetica,sans-Serif" font-size="10.00">nearestcellFEM</text>
</a>
</g>
</g>
<!-- Node2&#45;&gt;Node6 -->
<g id="edge5_Node000002_Node000006" class="edge">
<title>Node2&#45;&gt;Node6</title>
<g id="a_edge5_Node000002_Node000006"><a xlink:title=" ">
<path fill="none" stroke="#63b8ff" d="M145.48,-129.89C159,-122.38 178.5,-111.84 196,-103.5 199.79,-101.69 203.8,-99.88 207.79,-98.12"/>
<polygon fill="#63b8ff" stroke="#63b8ff" points="209.2,-101.33 217,-94.16 206.43,-94.89 209.2,-101.33"/>
</a>
</g>
</g>
<!-- Node7 -->
<g id="Node000007" class="node">
<title>Node7</title>
<g id="a_Node000007"><a xlink:href="contact_8c.html#a6792e9026d762c1ea211d1b713da8d88" target="_top" xlink:title=" ">
<polygon fill="white" stroke="#666666" points="421,-132 325,-132 325,-113 421,-113 421,-132"/>
<text text-anchor="middle" x="373" y="-120" font-family="Helvetica,sans-Serif" font-size="10.00">BoundingSphere</text>
</a>
</g>
</g>
<!-- Node6&#45;&gt;Node7 -->
<g id="edge6_Node000006_Node000007" class="edge">
<title>Node6&#45;&gt;Node7</title>
<g id="a_edge6_Node000006_Node000007"><a xlink:title=" ">
<path fill="none" stroke="#63b8ff" d="M275.55,-94.09C291.9,-98.9 311.91,-104.8 329.46,-109.97"/>
<polygon fill="#63b8ff" stroke="#63b8ff" points="328.88,-113.45 339.46,-112.91 330.85,-106.73 328.88,-113.45"/>
</a>
</g>
</g>
<!-- Node9 -->
<g id="Node000009" class="node">
<title>Node9</title>
<g id="a_Node000009"><a xlink:href="math_8c.html#a9d08a9d2fd8e8932e92b8ab054b19269" target="_top" xlink:title=" ">
<polygon fill="white" stroke="#666666" points="536.5,-169 486.5,-169 486.5,-150 536.5,-150 536.5,-169"/>
<text text-anchor="middle" x="511.5" y="-157" font-family="Helvetica,sans-Serif" font-size="10.00">MINUS</text>
</a>
</g>
</g>
<!-- Node6&#45;&gt;Node9 -->
<g id="edge13_Node000006_Node000009" class="edge">
<title>Node6&#45;&gt;Node9</title>
<g id="a_edge13_Node000006_Node000009"><a xlink:title=" ">
<path fill="none" stroke="#63b8ff" d="M270.6,-94.03C276.58,-96.66 282.7,-99.83 288,-103.5 307.12,-116.75 303.1,-131.29 324,-141.5 372.76,-165.31 437.16,-165.74 476.12,-163.14"/>
<polygon fill="#63b8ff" stroke="#63b8ff" points="476.7,-166.6 486.4,-162.34 476.16,-159.63 476.7,-166.6"/>
</a>
</g>
</g>
<!-- Node10 -->
<g id="Node000010" class="node">
<title>Node10</title>
<g id="a_Node000010"><a xlink:href="math_8c.html#aa52f6593cf3e5453c8c6c94343d3fb37" target="_top" xlink:title=" ">
<polygon fill="white" stroke="#666666" points="530.5,-94 492.5,-94 492.5,-75 530.5,-75 530.5,-94"/>
<text text-anchor="middle" x="511.5" y="-82" font-family="Helvetica,sans-Serif" font-size="10.00">SIZE</text>
</a>
</g>
</g>
<!-- Node6&#45;&gt;Node10 -->
<g id="edge14_Node000006_Node000010" class="edge">
<title>Node6&#45;&gt;Node10</title>
<g id="a_edge14_Node000006_Node000010"><a xlink:title=" ">
<path fill="none" stroke="#63b8ff" d="M288.08,-84.5C343.49,-84.5 435.86,-84.5 482.19,-84.5"/>
<polygon fill="#63b8ff" stroke="#63b8ff" points="482.4,-88 492.4,-84.5 482.4,-81 482.4,-88"/>
</a>
</g>
</g>
<!-- Node11 -->
<g id="Node000011" class="node">
<title>Node11</title>
<g id="a_Node000011"><a xlink:href="contact_8c.html#ab5f38c2f58ddb00cd3ae80f923d110cf" target="_top" xlink:title=" ">
<polygon fill="white" stroke="#666666" points="422,-56 324,-56 324,-37 422,-37 422,-56"/>
<text text-anchor="middle" x="373" y="-44" font-family="Helvetica,sans-Serif" font-size="10.00">ISPointInTriangle</text>
</a>
</g>
</g>
<!-- Node6&#45;&gt;Node11 -->
<g id="edge10_Node000006_Node000011" class="edge">
<title>Node6&#45;&gt;Node11</title>
<g id="a_edge10_Node000006_Node000011"><a xlink:title=" ">
<path fill="none" stroke="#63b8ff" d="M275.55,-74.91C291.9,-70.1 311.91,-64.2 329.46,-59.03"/>
<polygon fill="#63b8ff" stroke="#63b8ff" points="330.85,-62.27 339.46,-56.09 328.88,-55.55 330.85,-62.27"/>
</a>
</g>
</g>
<!-- Node14 -->
<g id="Node000014" class="node">
<title>Node14</title>
<g id="a_Node000014"><a xlink:href="math_8c.html#ac616709995f2ae60c4308ffa328337d7" target="_top" xlink:title=" ">
<polygon fill="white" stroke="#666666" points="393.5,-19 352.5,-19 352.5,0 393.5,0 393.5,-19"/>
<text text-anchor="middle" x="373" y="-7" font-family="Helvetica,sans-Serif" font-size="10.00">UNIT</text>
</a>
</g>
</g>
<!-- Node6&#45;&gt;Node14 -->
<g id="edge15_Node000006_Node000014" class="edge">
<title>Node6&#45;&gt;Node14</title>
<g id="a_edge15_Node000006_Node000014"><a xlink:title=" ">
<path fill="none" stroke="#63b8ff" d="M254.73,-74.79C269.95,-62.54 297.7,-41.39 324,-27.5 329.89,-24.39 336.43,-21.56 342.75,-19.11"/>
<polygon fill="#63b8ff" stroke="#63b8ff" points="344.17,-22.32 352.36,-15.6 341.77,-15.75 344.17,-22.32"/>
</a>
</g>
</g>
<!-- Node8 -->
<g id="Node000008" class="node">
<title>Node8</title>
<g id="a_Node000008"><a xlink:href="math_8c.html#a9d60990d26296194c921d537ea26f3c7" target="_top" xlink:title=" ">
<polygon fill="white" stroke="#666666" points="536.5,-132 486.5,-132 486.5,-113 536.5,-113 536.5,-132"/>
<text text-anchor="middle" x="511.5" y="-120" font-family="Helvetica,sans-Serif" font-size="10.00">CROSS</text>
</a>
</g>
</g>
<!-- Node7&#45;&gt;Node8 -->
<g id="edge7_Node000007_Node000008" class="edge">
<title>Node7&#45;&gt;Node8</title>
<g id="a_edge7_Node000007_Node000008"><a xlink:title=" ">
<path fill="none" stroke="#63b8ff" d="M421.36,-122.5C439.3,-122.5 459.37,-122.5 475.91,-122.5"/>
<polygon fill="#63b8ff" stroke="#63b8ff" points="476.22,-126 486.22,-122.5 476.22,-119 476.22,-126"/>
</a>
</g>
</g>
<!-- Node7&#45;&gt;Node9 -->
<g id="edge8_Node000007_Node000009" class="edge">
<title>Node7&#45;&gt;Node9</title>
<g id="a_edge8_Node000007_Node000009"><a xlink:title=" ">
<path fill="none" stroke="#63b8ff" d="M409.15,-132.03C429.83,-137.63 455.86,-144.69 476.36,-150.25"/>
<polygon fill="#63b8ff" stroke="#63b8ff" points="475.65,-153.68 486.22,-152.92 477.49,-146.92 475.65,-153.68"/>
</a>
</g>
</g>
<!-- Node7&#45;&gt;Node10 -->
<g id="edge9_Node000007_Node000010" class="edge">
<title>Node7&#45;&gt;Node10</title>
<g id="a_edge9_Node000007_Node000010"><a xlink:title=" ">
<path fill="none" stroke="#63b8ff" d="M408.44,-112.91C431.39,-106.52 461.14,-98.24 482.6,-92.27"/>
<polygon fill="#63b8ff" stroke="#63b8ff" points="483.71,-95.59 492.4,-89.54 481.83,-88.85 483.71,-95.59"/>
</a>
</g>
</g>
<!-- Node12 -->
<g id="Node000012" class="node">
<title>Node12</title>
<g id="a_Node000012"><a xlink:href="contact_8c.html#a65a12b9220bf4d302a8067fd742f0673" target="_top" xlink:title=" ">
<polygon fill="white" stroke="#666666" points="565,-56 458,-56 458,-37 565,-37 565,-56"/>
<text text-anchor="middle" x="511.5" y="-44" font-family="Helvetica,sans-Serif" font-size="10.00">ISInsideTriangle2D</text>
</a>
</g>
</g>
<!-- Node11&#45;&gt;Node12 -->
<g id="edge11_Node000011_Node000012" class="edge">
<title>Node11&#45;&gt;Node12</title>
<g id="a_edge11_Node000011_Node000012"><a xlink:title=" ">
<path fill="none" stroke="#63b8ff" d="M422.12,-46.5C430.4,-46.5 439.11,-46.5 447.7,-46.5"/>
<polygon fill="#63b8ff" stroke="#63b8ff" points="447.7,-50 457.7,-46.5 447.7,-43 447.7,-50"/>
</a>
</g>
</g>
<!-- Node13 -->
<g id="Node000013" class="node">
<title>Node13</title>
<g id="a_Node000013"><a xlink:href="contact_8c.html#aa7076cdb89c42f86b92221e477af8e1a" target="_top" xlink:title=" ">
<polygon fill="white" stroke="#666666" points="689,-56 601,-56 601,-37 689,-37 689,-56"/>
<text text-anchor="middle" x="645" y="-44" font-family="Helvetica,sans-Serif" font-size="10.00">ISSameSide2D</text>
</a>
</g>
</g>
<!-- Node12&#45;&gt;Node13 -->
<g id="edge12_Node000012_Node000013" class="edge">
<title>Node12&#45;&gt;Node13</title>
<g id="a_edge12_Node000012_Node000013"><a xlink:title=" ">
<path fill="none" stroke="#63b8ff" d="M565.23,-46.5C573.66,-46.5 582.39,-46.5 590.83,-46.5"/>
<polygon fill="#63b8ff" stroke="#63b8ff" points="590.95,-50 600.95,-46.5 590.95,-43 590.95,-50"/>
</a>
</g>
</g>
</g>
</svg>
