<?xml version="1.0" encoding="UTF-8" standalone="no"?>
<!DOCTYPE svg PUBLIC "-//W3C//DTD SVG 1.1//EN"
 "http://www.w3.org/Graphics/SVG/1.1/DTD/svg11.dtd">
<!-- Generated by graphviz version 2.43.0 (0)
 -->
<!-- Title: Fcontactij Pages: 1 -->
<svg width="602pt" height="213pt"
 viewBox="0.00 0.00 602.00 213.00" xmlns="http://www.w3.org/2000/svg" xmlns:xlink="http://www.w3.org/1999/xlink">
<g id="graph0" class="graph" transform="scale(1 1) rotate(0) translate(4 209)">
<title>Fcontactij</title>
<!-- Node1 -->
<g id="Node000001" class="node">
<title>Node1</title>
<g id="a_Node000001"><a xlink:title=" ">
<polygon fill="#999999" stroke="#666666" points="65,-149 0,-149 0,-130 65,-130 65,-149"/>
<text text-anchor="middle" x="32.5" y="-137" font-family="Helvetica,sans-Serif" font-size="10.00">Fcontactij</text>
</a>
</g>
</g>
<!-- Node2 -->
<g id="Node000002" class="node">
<title>Node2</title>
<g id="a_Node000002"><a xlink:href="external_8c.html#a22b3c63a6ce5f1e1b42620161af0ffed" target="_top" xlink:title=" ">
<polygon fill="white" stroke="#666666" points="174.5,-205 119.5,-205 119.5,-186 174.5,-186 174.5,-205"/>
<text text-anchor="middle" x="147" y="-193" font-family="Helvetica,sans-Serif" font-size="10.00">EdgeFix</text>
</a>
</g>
</g>
<!-- Node1&#45;&gt;Node2 -->
<g id="edge1_Node000001_Node000002" class="edge">
<title>Node1&#45;&gt;Node2</title>
<g id="a_edge1_Node000001_Node000002"><a xlink:title=" ">
<path fill="none" stroke="#63b8ff" d="M49.01,-149.01C62.49,-157.08 82.69,-168.73 101,-177.5 104.21,-179.04 107.59,-180.56 110.99,-182.02"/>
<polygon fill="#63b8ff" stroke="#63b8ff" points="109.94,-185.38 120.52,-185.99 112.63,-178.92 109.94,-185.38"/>
</a>
</g>
</g>
<!-- Node3 -->
<g id="Node000003" class="node">
<title>Node3</title>
<g id="a_Node000003"><a xlink:href="contact_8c.html#aecc25fa839846bfc3dfd097458c0d495" target="_top" xlink:title=" ">
<polygon fill="white" stroke="#666666" points="170.5,-168 123.5,-168 123.5,-149 170.5,-149 170.5,-168"/>
<text text-anchor="middle" x="147" y="-156" font-family="Helvetica,sans-Serif" font-size="10.00">initlist</text>
</a>
</g>
</g>
<!-- Node1&#45;&gt;Node3 -->
<g id="edge2_Node000001_Node000003" class="edge">
<title>Node1&#45;&gt;Node3</title>
<g id="a_edge2_Node000001_Node000003"><a xlink:title=" ">
<path fill="none" stroke="#63b8ff" d="M65.14,-144.84C80.13,-147.38 98.04,-150.4 113.18,-152.96"/>
<polygon fill="#63b8ff" stroke="#63b8ff" points="112.71,-156.43 123.16,-154.64 113.88,-149.53 112.71,-156.43"/>
</a>
</g>
</g>
<!-- Node4 -->
<g id="Node000004" class="node">
<title>Node4</title>
<g id="a_Node000004"><a xlink:href="contact_8c.html#af045b58df4ca4babe828ab4d56b7fec1" target="_top" xlink:title=" ">
<polygon fill="white" stroke="#666666" points="181,-131 113,-131 113,-112 181,-112 181,-131"/>
<text text-anchor="middle" x="147" y="-119" font-family="Helvetica,sans-Serif" font-size="10.00">insertnode</text>
</a>
</g>
</g>
<!-- Node1&#45;&gt;Node4 -->
<g id="edge3_Node000001_Node000004" class="edge">
<title>Node1&#45;&gt;Node4</title>
<g id="a_edge3_Node000001_Node000004"><a xlink:title=" ">
<path fill="none" stroke="#63b8ff" d="M65.14,-134.44C76.71,-132.59 90.02,-130.46 102.46,-128.47"/>
<polygon fill="#63b8ff" stroke="#63b8ff" points="103.32,-131.87 112.64,-126.84 102.21,-124.96 103.32,-131.87"/>
</a>
</g>
</g>
<!-- Node5 -->
<g id="Node000005" class="node">
<title>Node5</title>
<g id="a_Node000005"><a xlink:href="contact_8c.html#a8c8e2f1cd589cf69a8dae9aa35f03ad9" target="_top" xlink:title=" ">
<polygon fill="white" stroke="#666666" points="193,-94 101,-94 101,-75 193,-75 193,-94"/>
<text text-anchor="middle" x="147" y="-82" font-family="Helvetica,sans-Serif" font-size="10.00">nearestcellFEM</text>
</a>
</g>
</g>
<!-- Node1&#45;&gt;Node5 -->
<g id="edge4_Node000001_Node000005" class="edge">
<title>Node1&#45;&gt;Node5</title>
<g id="a_edge4_Node000001_Node000005"><a xlink:title=" ">
<path fill="none" stroke="#63b8ff" d="M50.48,-129.89C64,-122.38 83.5,-111.84 101,-103.5 104.79,-101.69 108.8,-99.88 112.79,-98.12"/>
<polygon fill="#63b8ff" stroke="#63b8ff" points="114.2,-101.33 122,-94.16 111.43,-94.89 114.2,-101.33"/>
</a>
</g>
</g>
<!-- Node6 -->
<g id="Node000006" class="node">
<title>Node6</title>
<g id="a_Node000006"><a xlink:href="contact_8c.html#a6792e9026d762c1ea211d1b713da8d88" target="_top" xlink:title=" ">
<polygon fill="white" stroke="#666666" points="326,-132 230,-132 230,-113 326,-113 326,-132"/>
<text text-anchor="middle" x="278" y="-120" font-family="Helvetica,sans-Serif" font-size="10.00">BoundingSphere</text>
</a>
</g>
</g>
<!-- Node5&#45;&gt;Node6 -->
<g id="edge5_Node000005_Node000006" class="edge">
<title>Node5&#45;&gt;Node6</title>
<g id="a_edge5_Node000005_Node000006"><a xlink:title=" ">
<path fill="none" stroke="#63b8ff" d="M180.55,-94.09C196.9,-98.9 216.91,-104.8 234.46,-109.97"/>
<polygon fill="#63b8ff" stroke="#63b8ff" points="233.88,-113.45 244.46,-112.91 235.85,-106.73 233.88,-113.45"/>
</a>
</g>
</g>
<!-- Node8 -->
<g id="Node000008" class="node">
<title>Node8</title>
<g id="a_Node000008"><a xlink:href="math_8c.html#a9d08a9d2fd8e8932e92b8ab054b19269" target="_top" xlink:title=" ">
<polygon fill="white" stroke="#666666" points="441.5,-169 391.5,-169 391.5,-150 441.5,-150 441.5,-169"/>
<text text-anchor="middle" x="416.5" y="-157" font-family="Helvetica,sans-Serif" font-size="10.00">MINUS</text>
</a>
</g>
</g>
<!-- Node5&#45;&gt;Node8 -->
<g id="edge12_Node000005_Node000008" class="edge">
<title>Node5&#45;&gt;Node8</title>
<g id="a_edge12_Node000005_Node000008"><a xlink:title=" ">
<path fill="none" stroke="#63b8ff" d="M175.6,-94.03C181.58,-96.66 187.7,-99.83 193,-103.5 212.12,-116.75 208.1,-131.29 229,-141.5 277.76,-165.31 342.16,-165.74 381.12,-163.14"/>
<polygon fill="#63b8ff" stroke="#63b8ff" points="381.7,-166.6 391.4,-162.34 381.16,-159.63 381.7,-166.6"/>
</a>
</g>
</g>
<!-- Node9 -->
<g id="Node000009" class="node">
<title>Node9</title>
<g id="a_Node000009"><a xlink:href="math_8c.html#aa52f6593cf3e5453c8c6c94343d3fb37" target="_top" xlink:title=" ">
<polygon fill="white" stroke="#666666" points="435.5,-94 397.5,-94 397.5,-75 435.5,-75 435.5,-94"/>
<text text-anchor="middle" x="416.5" y="-82" font-family="Helvetica,sans-Serif" font-size="10.00">SIZE</text>
</a>
</g>
</g>
<!-- Node5&#45;&gt;Node9 -->
<g id="edge13_Node000005_Node000009" class="edge">
<title>Node5&#45;&gt;Node9</title>
<g id="a_edge13_Node000005_Node000009"><a xlink:title=" ">
<path fill="none" stroke="#63b8ff" d="M193.08,-84.5C248.49,-84.5 340.86,-84.5 387.19,-84.5"/>
<polygon fill="#63b8ff" stroke="#63b8ff" points="387.4,-88 397.4,-84.5 387.4,-81 387.4,-88"/>
</a>
</g>
</g>
<!-- Node10 -->
<g id="Node000010" class="node">
<title>Node10</title>
<g id="a_Node000010"><a xlink:href="contact_8c.html#ab5f38c2f58ddb00cd3ae80f923d110cf" target="_top" xlink:title=" ">
<polygon fill="white" stroke="#666666" points="327,-56 229,-56 229,-37 327,-37 327,-56"/>
<text text-anchor="middle" x="278" y="-44" font-family="Helvetica,sans-Serif" font-size="10.00">ISPointInTriangle</text>
</a>
</g>
</g>
<!-- Node5&#45;&gt;Node10 -->
<g id="edge9_Node000005_Node000010" class="edge">
<title>Node5&#45;&gt;Node10</title>
<g id="a_edge9_Node000005_Node000010"><a xlink:title=" ">
<path fill="none" stroke="#63b8ff" d="M180.55,-74.91C196.9,-70.1 216.91,-64.2 234.46,-59.03"/>
<polygon fill="#63b8ff" stroke="#63b8ff" points="235.85,-62.27 244.46,-56.09 233.88,-55.55 235.85,-62.27"/>
</a>
</g>
</g>
<!-- Node13 -->
<g id="Node000013" class="node">
<title>Node13</title>
<g id="a_Node000013"><a xlink:href="math_8c.html#ac616709995f2ae60c4308ffa328337d7" target="_top" xlink:title=" ">
<polygon fill="white" stroke="#666666" points="298.5,-19 257.5,-19 257.5,0 298.5,0 298.5,-19"/>
<text text-anchor="middle" x="278" y="-7" font-family="Helvetica,sans-Serif" font-size="10.00">UNIT</text>
</a>
</g>
</g>
<!-- Node5&#45;&gt;Node13 -->
<g id="edge14_Node000005_Node000013" class="edge">
<title>Node5&#45;&gt;Node13</title>
<g id="a_edge14_Node000005_Node000013"><a xlink:title=" ">
<path fill="none" stroke="#63b8ff" d="M159.73,-74.79C174.95,-62.54 202.7,-41.39 229,-27.5 234.89,-24.39 241.43,-21.56 247.75,-19.11"/>
<polygon fill="#63b8ff" stroke="#63b8ff" points="249.17,-22.32 257.36,-15.6 246.77,-15.75 249.17,-22.32"/>
</a>
</g>
</g>
<!-- Node7 -->
<g id="Node000007" class="node">
<title>Node7</title>
<g id="a_Node000007"><a xlink:href="math_8c.html#a9d60990d26296194c921d537ea26f3c7" target="_top" xlink:title=" ">
<polygon fill="white" stroke="#666666" points="441.5,-132 391.5,-132 391.5,-113 441.5,-113 441.5,-132"/>
<text text-anchor="middle" x="416.5" y="-120" font-family="Helvetica,sans-Serif" font-size="10.00">CROSS</text>
</a>
</g>
</g>
<!-- Node6&#45;&gt;Node7 -->
<g id="edge6_Node000006_Node000007" class="edge">
<title>Node6&#45;&gt;Node7</title>
<g id="a_edge6_Node000006_Node000007"><a xlink:title=" ">
<path fill="none" stroke="#63b8ff" d="M326.36,-122.5C344.3,-122.5 364.37,-122.5 380.91,-122.5"/>
<polygon fill="#63b8ff" stroke="#63b8ff" points="381.22,-126 391.22,-122.5 381.22,-119 381.22,-126"/>
</a>
</g>
</g>
<!-- Node6&#45;&gt;Node8 -->
<g id="edge7_Node000006_Node000008" class="edge">
<title>Node6&#45;&gt;Node8</title>
<g id="a_edge7_Node000006_Node000008"><a xlink:title=" ">
<path fill="none" stroke="#63b8ff" d="M314.15,-132.03C334.83,-137.63 360.86,-144.69 381.36,-150.25"/>
<polygon fill="#63b8ff" stroke="#63b8ff" points="380.65,-153.68 391.22,-152.92 382.49,-146.92 380.65,-153.68"/>
</a>
</g>
</g>
<!-- Node6&#45;&gt;Node9 -->
<g id="edge8_Node000006_Node000009" class="edge">
<title>Node6&#45;&gt;Node9</title>
<g id="a_edge8_Node000006_Node000009"><a xlink:title=" ">
<path fill="none" stroke="#63b8ff" d="M313.44,-112.91C336.39,-106.52 366.14,-98.24 387.6,-92.27"/>
<polygon fill="#63b8ff" stroke="#63b8ff" points="388.71,-95.59 397.4,-89.54 386.83,-88.85 388.71,-95.59"/>
</a>
</g>
</g>
<!-- Node11 -->
<g id="Node000011" class="node">
<title>Node11</title>
<g id="a_Node000011"><a xlink:href="contact_8c.html#a65a12b9220bf4d302a8067fd742f0673" target="_top" xlink:title=" ">
<polygon fill="white" stroke="#666666" points="470,-56 363,-56 363,-37 470,-37 470,-56"/>
<text text-anchor="middle" x="416.5" y="-44" font-family="Helvetica,sans-Serif" font-size="10.00">ISInsideTriangle2D</text>
</a>
</g>
</g>
<!-- Node10&#45;&gt;Node11 -->
<g id="edge10_Node000010_Node000011" class="edge">
<title>Node10&#45;&gt;Node11</title>
<g id="a_edge10_Node000010_Node000011"><a xlink:title=" ">
<path fill="none" stroke="#63b8ff" d="M327.12,-46.5C335.4,-46.5 344.11,-46.5 352.7,-46.5"/>
<polygon fill="#63b8ff" stroke="#63b8ff" points="352.7,-50 362.7,-46.5 352.7,-43 352.7,-50"/>
</a>
</g>
</g>
<!-- Node12 -->
<g id="Node000012" class="node">
<title>Node12</title>
<g id="a_Node000012"><a xlink:href="contact_8c.html#aa7076cdb89c42f86b92221e477af8e1a" target="_top" xlink:title=" ">
<polygon fill="white" stroke="#666666" points="594,-56 506,-56 506,-37 594,-37 594,-56"/>
<text text-anchor="middle" x="550" y="-44" font-family="Helvetica,sans-Serif" font-size="10.00">ISSameSide2D</text>
</a>
</g>
</g>
<!-- Node11&#45;&gt;Node12 -->
<g id="edge11_Node000011_Node000012" class="edge">
<title>Node11&#45;&gt;Node12</title>
<g id="a_edge11_Node000011_Node000012"><a xlink:title=" ">
<path fill="none" stroke="#63b8ff" d="M470.23,-46.5C478.66,-46.5 487.39,-46.5 495.83,-46.5"/>
<polygon fill="#63b8ff" stroke="#63b8ff" points="495.95,-50 505.95,-46.5 495.95,-43 495.95,-50"/>
</a>
</g>
</g>
</g>
</svg>
