<?xml version="1.0" encoding="UTF-8" standalone="no"?>
<!DOCTYPE svg PUBLIC "-//W3C//DTD SVG 1.1//EN"
 "http://www.w3.org/Graphics/SVG/1.1/DTD/svg11.dtd">
<!-- Generated by graphviz version 2.43.0 (0)
 -->
<!-- Title: RunCudaProcesses Pages: 1 -->
<!--zoomable 672 -->

<svg id="main" version="1.1" xmlns="http://www.w3.org/2000/svg" xmlns:xlink="http://www.w3.org/1999/xlink" xml:space="preserve" onload="init(evt)">
<style type="text/css"><![CDATA[
.node, .edge {opacity: 0.7;}
.node.selected, .edge.selected {opacity: 1;}
.edge:hover path { stroke: red; }
.edge:hover polygon { stroke: red; fill: red; }
]]></style>

<defs>
  <circle id="rim" cx="0" cy="0" r="7"/>
  <circle id="rim2" cx="0" cy="0" r="3.5"/>
  <g id="zoomPlus">
    <use xlink:href="#rim" fill="#404040"><set attributeName="fill" to="#808080" begin="zoomplus.mouseover" end="zoomplus.mouseout"/></use>
    <path d="M-4,0h8M0,-4v8" fill="none" stroke="white" stroke-width="1.5" pointer-events="none"/>
  </g>
  <g id="zoomMin">
    <use xlink:href="#rim" fill="#404040"><set attributeName="fill" to="#808080" begin="zoomminus.mouseover" end="zoomminus.mouseout"/></use>
    <path d="M-4,0h8" fill="none" stroke="white" stroke-width="1.5" pointer-events="none"/>
  </g>
  <g id="arrowUp" transform="translate(30 24)">
    <use xlink:href="#rim"/>
    <path pointer-events="none" fill="none" stroke="white" stroke-width="1.5" d="M0,-3.0v7 M-2.5,-0.5L0,-3.0L2.5,-0.5"/>
  </g>
  <g id="arrowRight" transform="rotate(90) translate(36 -43)">
    <use xlink:href="#rim"/>
    <path pointer-events="none" fill="none" stroke="white" stroke-width="1.5" d="M0,-3.0v7 M-2.5,-0.5L0,-3.0L2.5,-0.5"/>
  </g>
  <g id="arrowDown" transform="rotate(180) translate(-30 -48)">
    <use xlink:href="#rim"/>
    <path pointer-events="none" fill="none" stroke="white" stroke-width="1.5" d="M0,-3.0v7 M-2.5,-0.5L0,-3.0L2.5,-0.5"/>
  </g>
  <g id="arrowLeft" transform="rotate(270) translate(-36 17)">
    <use xlink:href="#rim"/>
    <path pointer-events="none" fill="none" stroke="white" stroke-width="1.5" d="M0,-3.0v7 M-2.5,-0.5L0,-3.0L2.5,-0.5"/>
  </g>
  <g id="resetDef">
    <use xlink:href="#rim2" fill="#404040"><set attributeName="fill" to="#808080" begin="reset.mouseover" end="reset.mouseout"/></use>
  </g>
</defs>
<script type="application/ecmascript">
var viewWidth = 725;
var viewHeight = 672;
var sectionId = 'dynsection-12';
</script>
<script type="application/ecmascript" xlink:href="svg.min.js"/>
<svg id="graph" class="graph">
<g id="viewport">
<title>RunCudaProcesses</title>
<!-- Node1 -->
<g id="Node000001" class="node">
<title>Node1</title>
<g id="a_Node000001"><a xlink:title=" ">
<polygon fill="#999999" stroke="#666666" points="109,-245 0,-245 0,-226 109,-226 109,-245"/>
<text text-anchor="middle" x="54.5" y="-233" font-family="Helvetica,sans-Serif" font-size="10.00">RunCudaProcesses</text>
</a>
</g>
</g>
<!-- Node2 -->
<g id="Node000002" class="node">
<title>Node2</title>
<g id="a_Node000002"><a xlink:href="cuda__processes_8c.html#ad85a0b8608328bedaea54436e8b2c940" target="_top" xlink:title=" ">
<polygon fill="white" stroke="#666666" points="284,-627 162,-627 162,-608 284,-608 284,-627"/>
<text text-anchor="middle" x="223" y="-615" font-family="Helvetica,sans-Serif" font-size="10.00">CompareMetricState_</text>
</a>
</g>
</g>
<!-- Node1&#45;&gt;Node2 -->
<g id="edge1_Node000001_Node000002" class="edge">
<title>Node1&#45;&gt;Node2</title>
<g id="a_edge1_Node000001_Node000002"><a xlink:title=" ">
<path fill="none" stroke="#63b8ff" d="M58.31,-245.25C68.22,-279.11 103.19,-394.51 145,-484.5 164.84,-527.2 193.91,-574.22 210.06,-599.32"/>
<polygon fill="#63b8ff" stroke="#63b8ff" points="207.2,-601.33 215.58,-607.82 213.07,-597.52 207.2,-601.33"/>
</a>
</g>
</g>
<!-- Node5 -->
<g id="Node000005" class="node">
<title>Node5</title>
<g id="a_Node000005"><a xlink:href="active__strain_8c.html#a993ef27fda81bb402cba4aa14fa9b51a" target="_top" xlink:title="Build current covariant/contravariant basis vectors for one element.">
<polygon fill="white" stroke="#666666" points="265,-475 181,-475 181,-456 265,-456 265,-475"/>
<text text-anchor="middle" x="223" y="-463" font-family="Helvetica,sans-Serif" font-size="10.00">ElemUpdateG</text>
</a>
</g>
</g>
<!-- Node1&#45;&gt;Node5 -->
<g id="edge4_Node000001_Node000005" class="edge">
<title>Node1&#45;&gt;Node5</title>
<g id="a_edge4_Node000001_Node000005"><a xlink:title=" ">
<path fill="none" stroke="#63b8ff" d="M58.95,-245.1C69.05,-272.27 100.62,-351.16 145,-404.5 160.09,-422.64 181.37,-438.99 197.73,-450.19"/>
<polygon fill="#63b8ff" stroke="#63b8ff" points="195.98,-453.23 206.24,-455.86 199.86,-447.4 195.98,-453.23"/>
</a>
</g>
</g>
<!-- Node15 -->
<g id="Node000015" class="node">
<title>Node15</title>
<g id="a_Node000015"><a xlink:href="active__strain_8c.html#ac93e65e44aa9af3d11c2165016210d87" target="_top" xlink:title="Update reference midsurface geometry cache for one element.">
<polygon fill="white" stroke="#666666" points="295.5,-358 150.5,-358 150.5,-339 295.5,-339 295.5,-358"/>
<text text-anchor="middle" x="223" y="-346" font-family="Helvetica,sans-Serif" font-size="10.00">ElemUpdateGeom0Subdiv</text>
</a>
</g>
</g>
<!-- Node1&#45;&gt;Node15 -->
<g id="edge15_Node000001_Node000015" class="edge">
<title>Node1&#45;&gt;Node15</title>
<g id="a_edge15_Node000001_Node000015"><a xlink:title=" ">
<path fill="none" stroke="#63b8ff" d="M62.51,-245.05C76.3,-263.17 108.78,-302.67 145,-324.5 152.33,-328.92 160.54,-332.59 168.8,-335.63"/>
<polygon fill="#63b8ff" stroke="#63b8ff" points="167.88,-339.01 178.47,-338.9 170.13,-332.38 167.88,-339.01"/>
</a>
</g>
</g>
<!-- Node19 -->
<g id="Node000019" class="node">
<title>Node19</title>
<g id="a_Node000019"><a xlink:href="active__strain_8c.html#a04fa5da4f55d0663ad5ec7a3534de0af" target="_top" xlink:title="Update current midsurface geometry cache for one element.">
<polygon fill="white" stroke="#666666" points="292.5,-395 153.5,-395 153.5,-376 292.5,-376 292.5,-395"/>
<text text-anchor="middle" x="223" y="-383" font-family="Helvetica,sans-Serif" font-size="10.00">ElemUpdateGeomSubdiv</text>
</a>
</g>
</g>
<!-- Node1&#45;&gt;Node19 -->
<g id="edge22_Node000001_Node000019" class="edge">
<title>Node1&#45;&gt;Node19</title>
<g id="a_edge22_Node000001_Node000019"><a xlink:title=" ">
<path fill="none" stroke="#63b8ff" d="M59.17,-245.3C68.97,-270.04 98.23,-335.34 145,-367.5 147.26,-369.05 149.63,-370.47 152.08,-371.77"/>
<polygon fill="#63b8ff" stroke="#63b8ff" points="150.73,-375 161.28,-375.95 153.63,-368.63 150.73,-375"/>
</a>
</g>
</g>
<!-- Node20 -->
<g id="Node000020" class="node">
<title>Node20</title>
<g id="a_Node000020"><a xlink:href="cuda__wrapper_8cpp.html#af58a317c68baf828e294afef2d80de72" target="_top" xlink:title=" ">
<polygon fill="white" stroke="#666666" points="487.5,-204 377.5,-204 377.5,-185 487.5,-185 487.5,-204"/>
<text text-anchor="middle" x="432.5" y="-192" font-family="Helvetica,sans-Serif" font-size="10.00">InitCudaWorkspace</text>
</a>
</g>
</g>
<!-- Node1&#45;&gt;Node20 -->
<g id="edge24_Node000001_Node000020" class="edge">
<title>Node1&#45;&gt;Node20</title>
<g id="a_edge24_Node000001_Node000020"><a xlink:title=" ">
<path fill="none" stroke="#63b8ff" d="M66.36,-225.81C82.27,-212.32 113.46,-188.55 145,-179.5 185.15,-167.97 295.7,-177.99 367.15,-186.27"/>
<polygon fill="#63b8ff" stroke="#63b8ff" points="367.05,-189.78 377.39,-187.48 367.87,-182.83 367.05,-189.78"/>
</a>
</g>
</g>
<!-- Node22 -->
<g id="Node000022" class="node">
<title>Node22</title>
<g id="a_Node000022"><a xlink:href="cuda__wrapper_8cpp.html#a5b5d23de31ae3759d7867e98dd6ea9e9" target="_top" xlink:title=" ">
<polygon fill="white" stroke="#666666" points="300.5,-208 145.5,-208 145.5,-189 300.5,-189 300.5,-208"/>
<text text-anchor="middle" x="223" y="-196" font-family="Helvetica,sans-Serif" font-size="10.00">PrepareCudaHostWorkspace</text>
</a>
</g>
</g>
<!-- Node1&#45;&gt;Node22 -->
<g id="edge26_Node000001_Node000022" class="edge">
<title>Node1&#45;&gt;Node22</title>
<g id="a_edge26_Node000001_Node000022"><a xlink:title=" ">
<path fill="none" stroke="#63b8ff" d="M98.38,-225.97C119.95,-221.18 146.29,-215.32 169.11,-210.25"/>
<polygon fill="#63b8ff" stroke="#63b8ff" points="169.98,-213.65 178.98,-208.06 168.46,-206.81 169.98,-213.65"/>
</a>
</g>
</g>
<!-- Node24 -->
<g id="Node000024" class="node">
<title>Node24</title>
<g id="a_Node000024"><a xlink:href="cuda__processes_8c.html#a5da8c5693bb28379655330d446b00ce6" target="_top" xlink:title=" ">
<polygon fill="white" stroke="#666666" points="301,-282 145,-282 145,-263 301,-263 301,-282"/>
<text text-anchor="middle" x="223" y="-270" font-family="Helvetica,sans-Serif" font-size="10.00">PrintCudaPreprocessTiming_</text>
</a>
</g>
</g>
<!-- Node1&#45;&gt;Node24 -->
<g id="edge29_Node000001_Node000024" class="edge">
<title>Node1&#45;&gt;Node24</title>
<g id="a_edge29_Node000001_Node000024"><a xlink:title=" ">
<path fill="none" stroke="#63b8ff" d="M98.38,-245.03C119.95,-249.82 146.29,-255.68 169.11,-260.75"/>
<polygon fill="#63b8ff" stroke="#63b8ff" points="168.46,-264.19 178.98,-262.94 169.98,-257.35 168.46,-264.19"/>
</a>
</g>
</g>
<!-- Node25 -->
<g id="Node000025" class="node">
<title>Node25</title>
<g id="a_Node000025"><a xlink:href="cuda__processes_8c.html#a69d5a7f865df7dfdb85a91a02700cd1e" target="_top" xlink:title=" ">
<polygon fill="white" stroke="#666666" points="481.5,-315 383.5,-315 383.5,-296 481.5,-296 481.5,-315"/>
<text text-anchor="middle" x="432.5" y="-303" font-family="Helvetica,sans-Serif" font-size="10.00">TimingSpeedup_</text>
</a>
</g>
</g>
<!-- Node1&#45;&gt;Node25 -->
<g id="edge45_Node000001_Node000025" class="edge">
<title>Node1&#45;&gt;Node25</title>
<g id="a_edge45_Node000001_Node000025"><a xlink:title=" ">
<path fill="none" stroke="#63b8ff" d="M66.69,-245.21C82.76,-258.48 113.87,-281.73 145,-291.5 221.09,-315.37 314.09,-314.85 373.07,-311.12"/>
<polygon fill="#63b8ff" stroke="#63b8ff" points="373.58,-314.6 383.32,-310.42 373.1,-307.61 373.58,-314.6"/>
</a>
</g>
</g>
<!-- Node26 -->
<g id="Node000026" class="node">
<title>Node26</title>
<g id="a_Node000026"><a xlink:href="cuda__processes_8c.html#ac1b80672cb073c982636f120df7b53cb" target="_top" xlink:title=" ">
<polygon fill="white" stroke="#666666" points="295,-245 151,-245 151,-226 295,-226 295,-245"/>
<text text-anchor="middle" x="223" y="-233" font-family="Helvetica,sans-Serif" font-size="10.00">PrintMetricSampleValues_</text>
</a>
</g>
</g>
<!-- Node1&#45;&gt;Node26 -->
<g id="edge31_Node000001_Node000026" class="edge">
<title>Node1&#45;&gt;Node26</title>
<g id="a_edge31_Node000001_Node000026"><a xlink:title=" ">
<path fill="none" stroke="#63b8ff" d="M109.1,-235.5C119.18,-235.5 129.94,-235.5 140.65,-235.5"/>
<polygon fill="#63b8ff" stroke="#63b8ff" points="140.88,-239 150.88,-235.5 140.88,-232 140.88,-239"/>
</a>
</g>
</g>
<!-- Node28 -->
<g id="Node000028" class="node">
<title>Node28</title>
<g id="a_Node000028"><a xlink:href="cuda__wrapper_8cpp.html#ab291e6a68fd618e7ab67e4a9d5cbf578" target="_top" xlink:title=" ">
<polygon fill="white" stroke="#666666" points="299.5,-132 146.5,-132 146.5,-113 299.5,-113 299.5,-132"/>
<text text-anchor="middle" x="223" y="-120" font-family="Helvetica,sans-Serif" font-size="10.00">RunCudaMetricTensorKernel</text>
</a>
</g>
</g>
<!-- Node1&#45;&gt;Node28 -->
<g id="edge33_Node000001_Node000028" class="edge">
<title>Node1&#45;&gt;Node28</title>
<g id="a_edge33_Node000001_Node000028"><a xlink:title=" ">
<path fill="none" stroke="#63b8ff" d="M62.51,-225.95C76.3,-207.83 108.78,-168.33 145,-146.5 152.33,-142.08 160.54,-138.41 168.8,-135.37"/>
<polygon fill="#63b8ff" stroke="#63b8ff" points="170.13,-138.62 178.47,-132.1 167.88,-131.99 170.13,-138.62"/>
</a>
</g>
</g>
<!-- Node33 -->
<g id="Node000033" class="node">
<title>Node33</title>
<g id="a_Node000033"><a xlink:href="cuda__wrapper_8cpp.html#af0503da10b116484b9252c38eaa89a05" target="_top" xlink:title=" ">
<polygon fill="white" stroke="#666666" points="299.5,-95 146.5,-95 146.5,-76 299.5,-76 299.5,-95"/>
<text text-anchor="middle" x="223" y="-83" font-family="Helvetica,sans-Serif" font-size="10.00">RunCudaSubdivGeomKernel</text>
</a>
</g>
</g>
<!-- Node1&#45;&gt;Node33 -->
<g id="edge39_Node000001_Node000033" class="edge">
<title>Node1&#45;&gt;Node33</title>
<g id="a_edge39_Node000001_Node000033"><a xlink:title=" ">
<path fill="none" stroke="#63b8ff" d="M59.17,-225.7C68.97,-200.96 98.23,-135.66 145,-103.5 147.26,-101.95 149.63,-100.53 152.08,-99.23"/>
<polygon fill="#63b8ff" stroke="#63b8ff" points="153.63,-102.37 161.28,-95.05 150.73,-96 153.63,-102.37"/>
</a>
</g>
</g>
<!-- Node35 -->
<g id="Node000035" class="node">
<title>Node35</title>
<g id="a_Node000035"><a xlink:href="cuda__processes_8c.html#ad80dd972d9ad9e4abd5d5bbbc3cc4902" target="_top" xlink:title=" ">
<polygon fill="white" stroke="#666666" points="284.5,-58 161.5,-58 161.5,-39 284.5,-39 284.5,-58"/>
<text text-anchor="middle" x="223" y="-46" font-family="Helvetica,sans-Serif" font-size="10.00">SnapshotMetricState_</text>
</a>
</g>
</g>
<!-- Node1&#45;&gt;Node35 -->
<g id="edge44_Node000001_Node000035" class="edge">
<title>Node1&#45;&gt;Node35</title>
<g id="a_edge44_Node000001_Node000035"><a xlink:title=" ">
<path fill="none" stroke="#63b8ff" d="M57.68,-225.63C64.69,-196.34 89.52,-109.27 145,-66.5 147.22,-64.79 149.57,-63.24 152.02,-61.83"/>
<polygon fill="#63b8ff" stroke="#63b8ff" points="153.81,-64.86 161.27,-57.34 150.75,-58.56 153.81,-64.86"/>
</a>
</g>
</g>
<!-- Node36 -->
<g id="Node000036" class="node">
<title>Node36</title>
<g id="a_Node000036"><a xlink:href="active__strain_8c.html#ae75ba552d85f95e09ab4db1ea2344159" target="_top" xlink:title="Apply an element callback to all mesh elements.">
<polygon fill="white" stroke="#666666" points="272,-21 174,-21 174,-2 272,-2 272,-21"/>
<text text-anchor="middle" x="223" y="-9" font-family="Helvetica,sans-Serif" font-size="10.00">UpdateElements</text>
</a>
</g>
</g>
<!-- Node1&#45;&gt;Node36 -->
<g id="edge46_Node000001_Node000036" class="edge">
<title>Node1&#45;&gt;Node36</title>
<g id="a_edge46_Node000001_Node000036"><a xlink:title=" ">
<path fill="none" stroke="#63b8ff" d="M56.64,-225.94C61.07,-193.02 80.33,-83.46 145,-29.5 150.58,-24.84 157.15,-21.34 164.05,-18.72"/>
<polygon fill="#63b8ff" stroke="#63b8ff" points="165.16,-22.04 173.61,-15.66 163.02,-15.38 165.16,-22.04"/>
</a>
</g>
</g>
<!-- Node3 -->
<g id="Node000003" class="node">
<title>Node3</title>
<g id="a_Node000003"><a xlink:href="cuda__processes_8c.html#aff94089ec8ee45582e5a2dab21c142bf" target="_top" xlink:title=" ">
<polygon fill="white" stroke="#666666" points="481.5,-664 383.5,-664 383.5,-645 481.5,-645 481.5,-664"/>
<text text-anchor="middle" x="432.5" y="-652" font-family="Helvetica,sans-Serif" font-size="10.00">MaxCmpntsDiff_</text>
</a>
</g>
</g>
<!-- Node2&#45;&gt;Node3 -->
<g id="edge2_Node000002_Node000003" class="edge">
<title>Node2&#45;&gt;Node3</title>
<g id="a_edge2_Node000002_Node000003"><a xlink:title=" ">
<path fill="none" stroke="#63b8ff" d="M277.44,-627.03C306.78,-632.26 343.21,-638.76 373.28,-644.12"/>
<polygon fill="#63b8ff" stroke="#63b8ff" points="372.75,-647.58 383.21,-645.89 373.98,-640.69 372.75,-647.58"/>
</a>
</g>
</g>
<!-- Node4 -->
<g id="Node000004" class="node">
<title>Node4</title>
<g id="a_Node000004"><a xlink:href="cuda__processes_8c.html#a14e842f17dda7fb5ebeaf4086ceac1cd" target="_top" xlink:title=" ">
<polygon fill="white" stroke="#666666" points="475,-627 390,-627 390,-608 475,-608 475,-627"/>
<text text-anchor="middle" x="432.5" y="-615" font-family="Helvetica,sans-Serif" font-size="10.00">MaxMat3Diff_</text>
</a>
</g>
</g>
<!-- Node2&#45;&gt;Node4 -->
<g id="edge3_Node000002_Node000004" class="edge">
<title>Node2&#45;&gt;Node4</title>
<g id="a_edge3_Node000002_Node000004"><a xlink:title=" ">
<path fill="none" stroke="#63b8ff" d="M284.02,-617.5C314.19,-617.5 350.39,-617.5 379.38,-617.5"/>
<polygon fill="#63b8ff" stroke="#63b8ff" points="379.71,-621 389.71,-617.5 379.71,-614 379.71,-621"/>
</a>
</g>
</g>
<!-- Node6 -->
<g id="Node000006" class="node">
<title>Node6</title>
<g id="a_Node000006"><a xlink:href="math_8c.html#a7ef9263b0a3a10c2cd00bb4dc0059d70" target="_top" xlink:title=" ">
<polygon fill="white" stroke="#666666" points="665.5,-476 615.5,-476 615.5,-457 665.5,-457 665.5,-476"/>
<text text-anchor="middle" x="640.5" y="-464" font-family="Helvetica,sans-Serif" font-size="10.00">AMULT</text>
</a>
</g>
</g>
<!-- Node5&#45;&gt;Node6 -->
<g id="edge5_Node000005_Node000006" class="edge">
<title>Node5&#45;&gt;Node6</title>
<g id="a_edge5_Node000005_Node000006"><a xlink:title=" ">
<path fill="none" stroke="#63b8ff" d="M265.12,-474.11C286.46,-478.14 313.01,-482.5 337,-484.5 421.59,-491.56 443.38,-491.29 528,-484.5 554.15,-482.4 583.43,-477.58 605.42,-473.45"/>
<polygon fill="#63b8ff" stroke="#63b8ff" points="606.12,-476.88 615.27,-471.56 604.79,-470.01 606.12,-476.88"/>
</a>
</g>
</g>
<!-- Node7 -->
<g id="Node000007" class="node">
<title>Node7</title>
<g id="a_Node000007"><a xlink:href="active__strain_8c.html#a8ffbd5ab9cf4de7388a8a1b66bf48821" target="_top" xlink:title=" ">
<polygon fill="white" stroke="#666666" points="490.5,-551 374.5,-551 374.5,-532 490.5,-532 490.5,-551"/>
<text text-anchor="middle" x="432.5" y="-539" font-family="Helvetica,sans-Serif" font-size="10.00">Compute_a3_alpha_</text>
</a>
</g>
</g>
<!-- Node5&#45;&gt;Node7 -->
<g id="edge6_Node000005_Node000007" class="edge">
<title>Node5&#45;&gt;Node7</title>
<g id="a_edge6_Node000005_Node000007"><a xlink:title=" ">
<path fill="none" stroke="#63b8ff" d="M241.97,-475.02C263.92,-486.34 302.39,-505.26 337,-517.5 349.72,-522 363.67,-526.02 376.87,-529.43"/>
<polygon fill="#63b8ff" stroke="#63b8ff" points="376.22,-532.88 386.77,-531.91 377.92,-526.09 376.22,-532.88"/>
</a>
</g>
</g>
<!-- Node9 -->
<g id="Node000009" class="node">
<title>Node9</title>
<g id="a_Node000009"><a xlink:href="math_8c.html#ae18926821a703a2c5b281bd890b7e6a0" target="_top" xlink:title=" ">
<polygon fill="white" stroke="#666666" points="661,-588 620,-588 620,-569 661,-569 661,-588"/>
<text text-anchor="middle" x="640.5" y="-576" font-family="Helvetica,sans-Serif" font-size="10.00">PLUS</text>
</a>
</g>
</g>
<!-- Node5&#45;&gt;Node9 -->
<g id="edge14_Node000005_Node000009" class="edge">
<title>Node5&#45;&gt;Node9</title>
<g id="a_edge14_Node000005_Node000009"><a xlink:title=" ">
<path fill="none" stroke="#63b8ff" d="M231.51,-475.03C248.04,-495.16 289.86,-541.71 337,-560.5 430.7,-597.84 553.71,-589.35 609.58,-582.73"/>
<polygon fill="#63b8ff" stroke="#63b8ff" points="610.35,-586.16 619.83,-581.44 609.48,-579.21 610.35,-586.16"/>
</a>
</g>
</g>
<!-- Node11 -->
<g id="Node000011" class="node">
<title>Node11</title>
<g id="a_Node000011"><a xlink:href="active__strain_8c.html#a798e3f12cc0e3f71dbc664e886f8893a" target="_top" xlink:title=" ">
<polygon fill="white" stroke="#666666" points="509.5,-475 355.5,-475 355.5,-456 509.5,-456 509.5,-475"/>
<text text-anchor="middle" x="432.5" y="-463" font-family="Helvetica,sans-Serif" font-size="10.00">ComputeContravariantBasis</text>
</a>
</g>
</g>
<!-- Node5&#45;&gt;Node11 -->
<g id="edge10_Node000005_Node000011" class="edge">
<title>Node5&#45;&gt;Node11</title>
<g id="a_edge10_Node000005_Node000011"><a xlink:title=" ">
<path fill="none" stroke="#63b8ff" d="M265.49,-465.5C288.35,-465.5 317.6,-465.5 345.17,-465.5"/>
<polygon fill="#63b8ff" stroke="#63b8ff" points="345.23,-469 355.23,-465.5 345.23,-462 345.23,-469"/>
</a>
</g>
</g>
<!-- Node12 -->
<g id="Node000012" class="node">
<title>Node12</title>
<g id="a_Node000012"><a xlink:href="active__strain_8c.html#af6f59806c4a71e53ae3ffb4ed5ac56ec" target="_top" xlink:title=" ">
<polygon fill="white" stroke="#666666" points="494,-438 371,-438 371,-419 494,-419 494,-438"/>
<text text-anchor="middle" x="432.5" y="-426" font-family="Helvetica,sans-Serif" font-size="10.00">ComputeMetricTensor</text>
</a>
</g>
</g>
<!-- Node5&#45;&gt;Node12 -->
<g id="edge11_Node000005_Node000012" class="edge">
<title>Node5&#45;&gt;Node12</title>
<g id="a_edge11_Node000005_Node000012"><a xlink:title=" ">
<path fill="none" stroke="#63b8ff" d="M265.49,-458.1C294.75,-452.88 334.5,-445.8 367.76,-439.87"/>
<polygon fill="#63b8ff" stroke="#63b8ff" points="368.63,-443.27 377.86,-438.07 367.4,-436.37 368.63,-443.27"/>
</a>
</g>
</g>
<!-- Node14 -->
<g id="Node000014" class="node">
<title>Node14</title>
<g id="a_Node000014"><a xlink:href="math_8c.html#a3f73e4cd9eab76eeee084eabf2b98ec9" target="_top" xlink:title=" ">
<polygon fill="white" stroke="#666666" points="449.5,-401 415.5,-401 415.5,-382 449.5,-382 449.5,-401"/>
<text text-anchor="middle" x="432.5" y="-389" font-family="Helvetica,sans-Serif" font-size="10.00">INV</text>
</a>
</g>
</g>
<!-- Node5&#45;&gt;Node14 -->
<g id="edge13_Node000005_Node000014" class="edge">
<title>Node5&#45;&gt;Node14</title>
<g id="a_edge13_Node000005_Node000014"><a xlink:title=" ">
<path fill="none" stroke="#63b8ff" d="M240.28,-455.92C261.75,-443.69 301.03,-422.65 337,-410.5 359.5,-402.9 386.1,-397.89 405.34,-394.93"/>
<polygon fill="#63b8ff" stroke="#63b8ff" points="406.07,-398.36 415.46,-393.46 405.06,-391.43 406.07,-398.36"/>
</a>
</g>
</g>
<!-- Node8 -->
<g id="Node000008" class="node">
<title>Node8</title>
<g id="a_Node000008"><a xlink:href="math_8c.html#a9d60990d26296194c921d537ea26f3c7" target="_top" xlink:title=" ">
<polygon fill="white" stroke="#666666" points="665.5,-514 615.5,-514 615.5,-495 665.5,-495 665.5,-514"/>
<text text-anchor="middle" x="640.5" y="-502" font-family="Helvetica,sans-Serif" font-size="10.00">CROSS</text>
</a>
</g>
</g>
<!-- Node7&#45;&gt;Node8 -->
<g id="edge7_Node000007_Node000008" class="edge">
<title>Node7&#45;&gt;Node8</title>
<g id="a_edge7_Node000007_Node000008"><a xlink:title=" ">
<path fill="none" stroke="#63b8ff" d="M486.55,-531.97C523.98,-525.25 573.03,-516.44 605.37,-510.63"/>
<polygon fill="#63b8ff" stroke="#63b8ff" points="606.02,-514.07 615.24,-508.86 604.78,-507.18 606.02,-514.07"/>
</a>
</g>
</g>
<!-- Node7&#45;&gt;Node9 -->
<g id="edge8_Node000007_Node000009" class="edge">
<title>Node7&#45;&gt;Node9</title>
<g id="a_edge8_Node000007_Node000009"><a xlink:title=" ">
<path fill="none" stroke="#63b8ff" d="M486.55,-551.03C525.75,-558.07 577.69,-567.4 609.83,-573.17"/>
<polygon fill="#63b8ff" stroke="#63b8ff" points="609.46,-576.66 619.93,-574.98 610.7,-569.77 609.46,-576.66"/>
</a>
</g>
</g>
<!-- Node10 -->
<g id="Node000010" class="node">
<title>Node10</title>
<g id="a_Node000010"><a xlink:href="math_8c.html#aa52f6593cf3e5453c8c6c94343d3fb37" target="_top" xlink:title=" ">
<polygon fill="white" stroke="#666666" points="659.5,-551 621.5,-551 621.5,-532 659.5,-532 659.5,-551"/>
<text text-anchor="middle" x="640.5" y="-539" font-family="Helvetica,sans-Serif" font-size="10.00">SIZE</text>
</a>
</g>
</g>
<!-- Node7&#45;&gt;Node10 -->
<g id="edge9_Node000007_Node000010" class="edge">
<title>Node7&#45;&gt;Node10</title>
<g id="a_edge9_Node000007_Node000010"><a xlink:title=" ">
<path fill="none" stroke="#63b8ff" d="M490.61,-541.5C529.81,-541.5 580.15,-541.5 611.1,-541.5"/>
<polygon fill="#63b8ff" stroke="#63b8ff" points="611.19,-545 621.19,-541.5 611.19,-538 611.19,-545"/>
</a>
</g>
</g>
<!-- Node13 -->
<g id="Node000013" class="node">
<title>Node13</title>
<g id="a_Node000013"><a xlink:href="math_8c.html#a870a70f4845a041458d9bdb0dd7aabd3" target="_top" xlink:title=" ">
<polygon fill="white" stroke="#666666" points="659.5,-429 621.5,-429 621.5,-410 659.5,-410 659.5,-429"/>
<text text-anchor="middle" x="640.5" y="-417" font-family="Helvetica,sans-Serif" font-size="10.00">DOT</text>
</a>
</g>
</g>
<!-- Node12&#45;&gt;Node13 -->
<g id="edge12_Node000012_Node000013" class="edge">
<title>Node12&#45;&gt;Node13</title>
<g id="a_edge12_Node000012_Node000013"><a xlink:title=" ">
<path fill="none" stroke="#63b8ff" d="M494.19,-425.85C532.88,-424.16 581.2,-422.05 611.21,-420.74"/>
<polygon fill="#63b8ff" stroke="#63b8ff" points="611.55,-424.22 621.39,-420.29 611.24,-417.23 611.55,-424.22"/>
</a>
</g>
</g>
<!-- Node16 -->
<g id="Node000016" class="node">
<title>Node16</title>
<g id="a_Node000016"><a xlink:href="active__strain_8c.html#a9ef026a24ded6fec7243fd82f49394c3" target="_top" xlink:title=" ">
<polygon fill="white" stroke="#666666" points="514.5,-363.5 350.5,-363.5 350.5,-333.5 514.5,-333.5 514.5,-363.5"/>
<text text-anchor="start" x="358.5" y="-351.5" font-family="Helvetica,sans-Serif" font-size="10.00">ElemUpdateGeomSubdivFrom</text>
<text text-anchor="middle" x="432.5" y="-340.5" font-family="Helvetica,sans-Serif" font-size="10.00">Coords_</text>
</a>
</g>
</g>
<!-- Node15&#45;&gt;Node16 -->
<g id="edge16_Node000015_Node000016" class="edge">
<title>Node15&#45;&gt;Node16</title>
<g id="a_edge16_Node000015_Node000016"><a xlink:title=" ">
<path fill="none" stroke="#63b8ff" d="M295.7,-348.5C309.98,-348.5 325.15,-348.5 339.99,-348.5"/>
<polygon fill="#63b8ff" stroke="#63b8ff" points="340.19,-352 350.19,-348.5 340.19,-345 340.19,-352"/>
</a>
</g>
</g>
<!-- Node16&#45;&gt;Node6 -->
<g id="edge17_Node000016_Node000006" class="edge">
<title>Node16&#45;&gt;Node6</title>
<g id="a_edge17_Node000016_Node000006"><a xlink:title=" ">
<path fill="none" stroke="#63b8ff" d="M511.77,-363.61C517.55,-366.38 523.05,-369.64 528,-373.5 554.05,-393.79 538.96,-416.97 564,-438.5 575.77,-448.62 591.54,-455.23 605.62,-459.47"/>
<polygon fill="#63b8ff" stroke="#63b8ff" points="604.92,-462.91 615.49,-462.15 606.76,-456.15 604.92,-462.91"/>
</a>
</g>
</g>
<!-- Node16&#45;&gt;Node8 -->
<g id="edge18_Node000016_Node000008" class="edge">
<title>Node16&#45;&gt;Node8</title>
<g id="a_edge18_Node000016_Node000008"><a xlink:title=" ">
<path fill="none" stroke="#63b8ff" d="M514.45,-363.59C519.35,-366.37 523.94,-369.65 528,-373.5 565.93,-409.49 525.86,-449.74 564,-485.5 575.03,-495.84 590.83,-500.77 605.13,-503.05"/>
<polygon fill="#63b8ff" stroke="#63b8ff" points="604.84,-506.54 615.19,-504.27 605.69,-499.59 604.84,-506.54"/>
</a>
</g>
</g>
<!-- Node16&#45;&gt;Node13 -->
<g id="edge19_Node000016_Node000013" class="edge">
<title>Node16&#45;&gt;Node13</title>
<g id="a_edge19_Node000016_Node000013"><a xlink:title=" ">
<path fill="none" stroke="#63b8ff" d="M496.77,-363.53C507.3,-366.51 518.04,-369.86 528,-373.5 544.62,-379.57 547.73,-383.55 564,-390.5 579.58,-397.16 597.26,-403.99 611.58,-409.34"/>
<polygon fill="#63b8ff" stroke="#63b8ff" points="610.75,-412.77 621.35,-412.96 613.19,-406.2 610.75,-412.77"/>
</a>
</g>
</g>
<!-- Node17 -->
<g id="Node000017" class="node">
<title>Node17</title>
<g id="a_Node000017"><a xlink:href="active__strain_8c.html#af8eb71852e7e9e1290f27656e66736fe" target="_top" xlink:title=" ">
<polygon fill="white" stroke="#666666" points="717,-381.5 564,-381.5 564,-351.5 717,-351.5 717,-381.5"/>
<text text-anchor="start" x="572" y="-369.5" font-family="Helvetica,sans-Serif" font-size="10.00">SubdivGeomEnsureIrregular</text>
<text text-anchor="middle" x="640.5" y="-358.5" font-family="Helvetica,sans-Serif" font-size="10.00">Arrays_</text>
</a>
</g>
</g>
<!-- Node16&#45;&gt;Node17 -->
<g id="edge20_Node000016_Node000017" class="edge">
<title>Node16&#45;&gt;Node17</title>
<g id="a_edge20_Node000016_Node000017"><a xlink:title=" ">
<path fill="none" stroke="#63b8ff" d="M514.62,-355.59C527.41,-356.71 540.68,-357.87 553.58,-358.99"/>
<polygon fill="#63b8ff" stroke="#63b8ff" points="553.56,-362.5 563.83,-359.89 554.17,-355.53 553.56,-362.5"/>
</a>
</g>
</g>
<!-- Node18 -->
<g id="Node000018" class="node">
<title>Node18</title>
<g id="a_Node000018"><a xlink:href="math_8c.html#ac616709995f2ae60c4308ffa328337d7" target="_top" xlink:title=" ">
<polygon fill="white" stroke="#666666" points="661,-333 620,-333 620,-314 661,-314 661,-333"/>
<text text-anchor="middle" x="640.5" y="-321" font-family="Helvetica,sans-Serif" font-size="10.00">UNIT</text>
</a>
</g>
</g>
<!-- Node16&#45;&gt;Node18 -->
<g id="edge21_Node000016_Node000018" class="edge">
<title>Node16&#45;&gt;Node18</title>
<g id="a_edge21_Node000016_Node000018"><a xlink:title=" ">
<path fill="none" stroke="#63b8ff" d="M514.62,-338.66C547.97,-334.61 584.52,-330.17 609.41,-327.15"/>
<polygon fill="#63b8ff" stroke="#63b8ff" points="610.14,-330.59 619.65,-325.91 609.3,-323.64 610.14,-330.59"/>
</a>
</g>
</g>
<!-- Node19&#45;&gt;Node16 -->
<g id="edge23_Node000019_Node000016" class="edge">
<title>Node19&#45;&gt;Node16</title>
<g id="a_edge23_Node000019_Node000016"><a xlink:title=" ">
<path fill="none" stroke="#63b8ff" d="M277.44,-375.97C296.61,-372.55 318.82,-368.59 340.29,-364.76"/>
<polygon fill="#63b8ff" stroke="#63b8ff" points="341.2,-368.16 350.43,-362.96 339.97,-361.27 341.2,-368.16"/>
</a>
</g>
</g>
<!-- Node21 -->
<g id="Node000021" class="node">
<title>Node21</title>
<g id="a_Node000021"><a xlink:href="cuda__wrapper_8cpp.html#af5d59f1f3f208d21777faed2e8763f3f" target="_top" xlink:title=" ">
<polygon fill="white" stroke="#666666" points="706.5,-204 574.5,-204 574.5,-185 706.5,-185 706.5,-204"/>
<text text-anchor="middle" x="640.5" y="-192" font-family="Helvetica,sans-Serif" font-size="10.00">InitCudaWorkspaceImpl</text>
</a>
</g>
</g>
<!-- Node20&#45;&gt;Node21 -->
<g id="edge25_Node000020_Node000021" class="edge">
<title>Node20&#45;&gt;Node21</title>
<g id="a_edge25_Node000020_Node000021"><a xlink:title=" ">
<path fill="none" stroke="#63b8ff" d="M487.62,-194.5C510.99,-194.5 538.72,-194.5 564.05,-194.5"/>
<polygon fill="#63b8ff" stroke="#63b8ff" points="564.37,-198 574.37,-194.5 564.37,-191 564.37,-198"/>
</a>
</g>
</g>
<!-- Node22&#45;&gt;Node20 -->
<g id="edge27_Node000022_Node000020" class="edge">
<title>Node22&#45;&gt;Node20</title>
<g id="a_edge27_Node000022_Node000020"><a xlink:title=" ">
<path fill="none" stroke="#63b8ff" d="M300.68,-197.02C322.6,-196.6 346.26,-196.14 367.35,-195.74"/>
<polygon fill="#63b8ff" stroke="#63b8ff" points="367.55,-199.23 377.48,-195.54 367.42,-192.23 367.55,-199.23"/>
</a>
</g>
</g>
<!-- Node23 -->
<g id="Node000023" class="node">
<title>Node23</title>
<g id="a_Node000023"><a xlink:href="cuda__wrapper_8cpp.html#afbeb0c3bba48ea9eaf049937e95aff2c" target="_top" xlink:title=" ">
<polygon fill="white" stroke="#666666" points="485.5,-241 379.5,-241 379.5,-222 485.5,-222 485.5,-241"/>
<text text-anchor="middle" x="432.5" y="-229" font-family="Helvetica,sans-Serif" font-size="10.00">ResizeHostBuffer_</text>
</a>
</g>
</g>
<!-- Node22&#45;&gt;Node23 -->
<g id="edge28_Node000022_Node000023" class="edge">
<title>Node22&#45;&gt;Node23</title>
<g id="a_edge28_Node000022_Node000023"><a xlink:title=" ">
<path fill="none" stroke="#63b8ff" d="M283.74,-208C310.49,-212.26 342.04,-217.27 369.1,-221.58"/>
<polygon fill="#63b8ff" stroke="#63b8ff" points="368.8,-225.07 379.23,-223.19 369.9,-218.16 368.8,-225.07"/>
</a>
</g>
</g>
<!-- Node24&#45;&gt;Node25 -->
<g id="edge30_Node000024_Node000025" class="edge">
<title>Node24&#45;&gt;Node25</title>
<g id="a_edge30_Node000024_Node000025"><a xlink:title=" ">
<path fill="none" stroke="#63b8ff" d="M283.74,-282C311.89,-286.48 345.35,-291.8 373.3,-296.24"/>
<polygon fill="#63b8ff" stroke="#63b8ff" points="372.9,-299.72 383.33,-297.84 374,-292.81 372.9,-299.72"/>
</a>
</g>
</g>
<!-- Node27 -->
<g id="Node000027" class="node">
<title>Node27</title>
<g id="a_Node000027"><a xlink:href="cuda__processes_8c.html#ab154e1a88a9bac3b02bed6bda26f49f8" target="_top" xlink:title=" ">
<polygon fill="white" stroke="#666666" points="491.5,-278 373.5,-278 373.5,-259 491.5,-259 491.5,-278"/>
<text text-anchor="middle" x="432.5" y="-266" font-family="Helvetica,sans-Serif" font-size="10.00">PrintMat3WithLabel_</text>
</a>
</g>
</g>
<!-- Node26&#45;&gt;Node27 -->
<g id="edge32_Node000026_Node000027" class="edge">
<title>Node26&#45;&gt;Node27</title>
<g id="a_edge32_Node000026_Node000027"><a xlink:title=" ">
<path fill="none" stroke="#63b8ff" d="M283.74,-245C308.58,-248.95 337.55,-253.56 363.22,-257.64"/>
<polygon fill="#63b8ff" stroke="#63b8ff" points="362.83,-261.12 373.25,-259.24 363.93,-254.21 362.83,-261.12"/>
</a>
</g>
</g>
<!-- Node28&#45;&gt;Node20 -->
<g id="edge35_Node000028_Node000020" class="edge">
<title>Node28&#45;&gt;Node20</title>
<g id="a_edge35_Node000028_Node000020"><a xlink:title=" ">
<path fill="none" stroke="#63b8ff" d="M264.72,-132.08C276.78,-135.74 289.76,-140.5 301,-146.5 319.13,-156.17 318.4,-166.78 337,-175.5 346.42,-179.91 356.83,-183.3 367.2,-185.91"/>
<polygon fill="#63b8ff" stroke="#63b8ff" points="366.57,-189.35 377.1,-188.17 368.13,-182.53 366.57,-189.35"/>
</a>
</g>
</g>
<!-- Node29 -->
<g id="Node000029" class="node">
<title>Node29</title>
<g id="a_Node000029"><a xlink:href="cuda__wrapper_8cpp.html#a08e5a5b43a752e588032bd4b9bb3c2ff" target="_top" xlink:title=" ">
<polygon fill="white" stroke="#666666" points="494.5,-93 370.5,-93 370.5,-74 494.5,-74 494.5,-93"/>
<text text-anchor="middle" x="432.5" y="-81" font-family="Helvetica,sans-Serif" font-size="10.00">CheckHostBufferSize_</text>
</a>
</g>
</g>
<!-- Node28&#45;&gt;Node29 -->
<g id="edge34_Node000028_Node000029" class="edge">
<title>Node28&#45;&gt;Node29</title>
<g id="a_edge34_Node000028_Node000029"><a xlink:title=" ">
<path fill="none" stroke="#63b8ff" d="M274.76,-112.96C303.76,-107.51 340.3,-100.64 370.81,-94.91"/>
<polygon fill="#63b8ff" stroke="#63b8ff" points="371.72,-98.3 380.9,-93.01 370.43,-91.42 371.72,-98.3"/>
</a>
</g>
</g>
<!-- Node30 -->
<g id="Node000030" class="node">
<title>Node30</title>
<g id="a_Node000030"><a xlink:href="cuda__wrapper_8cpp.html#a08033f9e5084bfef1c9f7294fd253158" target="_top" xlink:title=" ">
<polygon fill="white" stroke="#666666" points="528,-167 337,-167 337,-148 528,-148 528,-167"/>
<text text-anchor="middle" x="432.5" y="-155" font-family="Helvetica,sans-Serif" font-size="10.00">LaunchCudaMetricTensorKernelImpl</text>
</a>
</g>
</g>
<!-- Node28&#45;&gt;Node30 -->
<g id="edge36_Node000028_Node000030" class="edge">
<title>Node28&#45;&gt;Node30</title>
<g id="a_edge36_Node000028_Node000030"><a xlink:title=" ">
<path fill="none" stroke="#63b8ff" d="M280.43,-132.02C306.61,-136.43 337.92,-141.72 365.22,-146.32"/>
<polygon fill="#63b8ff" stroke="#63b8ff" points="364.64,-149.77 375.09,-147.98 365.81,-142.87 364.64,-149.77"/>
</a>
</g>
</g>
<!-- Node31 -->
<g id="Node000031" class="node">
<title>Node31</title>
<g id="a_Node000031"><a xlink:href="cuda__wrapper_8cpp.html#a9c9845f25a1735c579da80c54cf0c699" target="_top" xlink:title=" ">
<polygon fill="white" stroke="#666666" points="473.5,-130 391.5,-130 391.5,-111 473.5,-111 473.5,-130"/>
<text text-anchor="middle" x="432.5" y="-118" font-family="Helvetica,sans-Serif" font-size="10.00">PackCmpnts_</text>
</a>
</g>
</g>
<!-- Node28&#45;&gt;Node31 -->
<g id="edge37_Node000028_Node000031" class="edge">
<title>Node28&#45;&gt;Node31</title>
<g id="a_edge37_Node000028_Node000031"><a xlink:title=" ">
<path fill="none" stroke="#63b8ff" d="M299.79,-121.77C326.94,-121.51 356.85,-121.22 381.3,-120.98"/>
<polygon fill="#63b8ff" stroke="#63b8ff" points="381.45,-124.48 391.41,-120.89 381.38,-117.48 381.45,-124.48"/>
</a>
</g>
</g>
<!-- Node32 -->
<g id="Node000032" class="node">
<title>Node32</title>
<g id="a_Node000032"><a xlink:href="cuda__wrapper_8cpp.html#a3408505d02557cc51ea4eb661b4fc384" target="_top" xlink:title=" ">
<polygon fill="white" stroke="#666666" points="480.5,-56 384.5,-56 384.5,-37 480.5,-37 480.5,-56"/>
<text text-anchor="middle" x="432.5" y="-44" font-family="Helvetica,sans-Serif" font-size="10.00">UnpackCmpnts_</text>
</a>
</g>
</g>
<!-- Node28&#45;&gt;Node32 -->
<g id="edge38_Node000028_Node000032" class="edge">
<title>Node28&#45;&gt;Node32</title>
<g id="a_edge38_Node000028_Node000032"><a xlink:title=" ">
<path fill="none" stroke="#63b8ff" d="M279.81,-112.88C287.21,-110.43 294.48,-107.35 301,-103.5 321.31,-91.5 316.38,-75.95 337,-64.5 348.29,-58.23 361.38,-54.11 374.16,-51.4"/>
<polygon fill="#63b8ff" stroke="#63b8ff" points="375.1,-54.79 384.3,-49.53 373.83,-47.91 375.1,-54.79"/>
</a>
</g>
</g>
<!-- Node33&#45;&gt;Node20 -->
<g id="edge41_Node000033_Node000020" class="edge">
<title>Node33&#45;&gt;Node20</title>
<g id="a_edge41_Node000033_Node000020"><a xlink:title=" ">
<path fill="none" stroke="#63b8ff" d="M286.74,-95.05C291.85,-97.32 296.69,-100.1 301,-103.5 329.08,-125.67 308.58,-153.77 337,-175.5 345.85,-182.27 356.5,-186.8 367.4,-189.81"/>
<polygon fill="#63b8ff" stroke="#63b8ff" points="366.91,-193.29 377.45,-192.15 368.5,-186.47 366.91,-193.29"/>
</a>
</g>
</g>
<!-- Node33&#45;&gt;Node29 -->
<g id="edge40_Node000033_Node000029" class="edge">
<title>Node33&#45;&gt;Node29</title>
<g id="a_edge40_Node000033_Node000029"><a xlink:title=" ">
<path fill="none" stroke="#63b8ff" d="M299.79,-84.77C319.51,-84.58 340.68,-84.38 360.16,-84.19"/>
<polygon fill="#63b8ff" stroke="#63b8ff" points="360.21,-87.69 370.18,-84.09 360.14,-80.69 360.21,-87.69"/>
</a>
</g>
</g>
<!-- Node33&#45;&gt;Node32 -->
<g id="edge43_Node000033_Node000032" class="edge">
<title>Node33&#45;&gt;Node32</title>
<g id="a_edge43_Node000033_Node000032"><a xlink:title=" ">
<path fill="none" stroke="#63b8ff" d="M274.76,-75.96C304.97,-70.28 343.36,-63.07 374.59,-57.2"/>
<polygon fill="#63b8ff" stroke="#63b8ff" points="375.28,-60.63 384.46,-55.34 373.99,-53.75 375.28,-60.63"/>
</a>
</g>
</g>
<!-- Node34 -->
<g id="Node000034" class="node">
<title>Node34</title>
<g id="a_Node000034"><a xlink:href="cuda__wrapper_8cpp.html#aee4f68e1609ec0fc8d2842511110fccc" target="_top" xlink:title=" ">
<polygon fill="white" stroke="#666666" points="528,-19 337,-19 337,0 528,0 528,-19"/>
<text text-anchor="middle" x="432.5" y="-7" font-family="Helvetica,sans-Serif" font-size="10.00">LaunchCudaSubdivGeomKernelImpl</text>
</a>
</g>
</g>
<!-- Node33&#45;&gt;Node34 -->
<g id="edge42_Node000033_Node000034" class="edge">
<title>Node33&#45;&gt;Node34</title>
<g id="a_edge42_Node000033_Node000034"><a xlink:title=" ">
<path fill="none" stroke="#63b8ff" d="M279.81,-75.88C287.21,-73.43 294.48,-70.35 301,-66.5 321.31,-54.5 316.38,-38.95 337,-27.5 340.26,-25.69 343.67,-24.06 347.17,-22.59"/>
<polygon fill="#63b8ff" stroke="#63b8ff" points="348.5,-25.83 356.65,-19.07 346.06,-19.27 348.5,-25.83"/>
</a>
</g>
</g>
</g>
</svg>

<g id="navigator" transform="translate(0 0)" fill="#404254">
  <rect fill="#f2f5e9" fill-opacity="0.5" stroke="#606060" stroke-width=".5" x="0" y="0" width="60" height="60"/>
  <use id="zoomplus" xlink:href="#zoomPlus" x="17" y="9" onmousedown="handleZoom(evt,'in')"/>
  <use id="zoomminus" xlink:href="#zoomMin" x="42" y="9" onmousedown="handleZoom(evt,'out')"/>
  <use id="reset" xlink:href="#resetDef" x="30" y="36" onmousedown="handleReset()"/>
   <use id="arrowup" xlink:href="#arrowUp" x="0" y="0" onmousedown="handlePan(0,-1)"/>
  <use id="arrowright" xlink:href="#arrowRight" x="0" y="0" onmousedown="handlePan(1,0)"/>
  <use id="arrowdown" xlink:href="#arrowDown" x="0" y="0" onmousedown="handlePan(0,1)"/>
  <use id="arrowleft" xlink:href="#arrowLeft" x="0" y="0" onmousedown="handlePan(-1,0)"/>
</g>
<svg viewBox="0 0 15 15" width="100%" height="30px" preserveAspectRatio="xMaxYMin meet">
 <g id="arrow_out" transform="scale(0.3 0.3)">
  <a xlink:href="cuda__processes_8c_a627a27228923fbc3e63f0f4e1c5aa765_cgraph_org.svg" target="_base">
   <rect id="button" ry="5" rx="5" y="6" x="6" height="38" width="38"
        fill="#f2f5e9" fill-opacity="0.5" stroke="#606060" stroke-width="1.0"/>
   <path id="arrow"
     d="M 11.500037,31.436501 C 11.940474,20.09759 22.043105,11.32322 32.158766,21.979434 L 37.068811,17.246167 C 37.068811,17.246167 37.088388,32 37.088388,32 L 22.160133,31.978069 C 22.160133,31.978069 26.997745,27.140456 26.997745,27.140456 C 18.528582,18.264221 13.291696,25.230495 11.500037,31.436501 z"
     style="fill:#404040;"/>
  </a>
 </g>
</svg>

<style type='text/css'>
<![CDATA[
[data-mouse-over-selected='false'] { opacity: 0.7; }
[data-mouse-over-selected='true']  { opacity: 1.0; }
]]>
</style>
<script type="application/ecmascript"><![CDATA[
document.addEventListener('DOMContentLoaded', (event) => {
  highlightEdges();
  highlightAdjacentNodes();
});
]]></script>
</svg>
