<?xml version="1.0" encoding="UTF-8" standalone="no"?>
<!DOCTYPE svg PUBLIC "-//W3C//DTD SVG 1.1//EN"
 "http://www.w3.org/Graphics/SVG/1.1/DTD/svg11.dtd">
<!-- Generated by graphviz version 2.43.0 (0)
 -->
<!-- Title: RunCudaMetricTensorKernel Pages: 1 -->
<svg width="556pt" height="175pt"
 viewBox="0.00 0.00 556.00 175.00" xmlns="http://www.w3.org/2000/svg" xmlns:xlink="http://www.w3.org/1999/xlink">
<g id="graph0" class="graph" transform="scale(1 1) rotate(0) translate(4 171)">
<title>RunCudaMetricTensorKernel</title>
<!-- Node1 -->
<g id="Node000001" class="node">
<title>Node1</title>
<g id="a_Node000001"><a xlink:title=" ">
<polygon fill="#999999" stroke="#666666" points="153,-93 0,-93 0,-74 153,-74 153,-93"/>
<text text-anchor="middle" x="76.5" y="-81" font-family="Helvetica,sans-Serif" font-size="10.00">RunCudaMetricTensorKernel</text>
</a>
</g>
</g>
<!-- Node2 -->
<g id="Node000002" class="node">
<title>Node2</title>
<g id="a_Node000002"><a xlink:href="cuda__wrapper_8cpp.html#a08e5a5b43a752e588032bd4b9bb3c2ff" target="_top" xlink:title=" ">
<polygon fill="white" stroke="#666666" points="346.5,-167 222.5,-167 222.5,-148 346.5,-148 346.5,-167"/>
<text text-anchor="middle" x="284.5" y="-155" font-family="Helvetica,sans-Serif" font-size="10.00">CheckHostBufferSize_</text>
</a>
</g>
</g>
<!-- Node1&#45;&gt;Node2 -->
<g id="edge1_Node000001_Node000002" class="edge">
<title>Node1&#45;&gt;Node2</title>
<g id="a_edge1_Node000001_Node000002"><a xlink:title=" ">
<path fill="none" stroke="#63b8ff" d="M93.14,-93.12C114.18,-105.63 153.1,-127.33 189,-139.5 196.53,-142.05 204.54,-144.28 212.57,-146.21"/>
<polygon fill="#63b8ff" stroke="#63b8ff" points="211.83,-149.64 222.36,-148.43 213.38,-142.81 211.83,-149.64"/>
</a>
</g>
</g>
<!-- Node3 -->
<g id="Node000003" class="node">
<title>Node3</title>
<g id="a_Node000003"><a xlink:href="cuda__wrapper_8cpp.html#af58a317c68baf828e294afef2d80de72" target="_top" xlink:title=" ">
<polygon fill="white" stroke="#666666" points="339.5,-130 229.5,-130 229.5,-111 339.5,-111 339.5,-130"/>
<text text-anchor="middle" x="284.5" y="-118" font-family="Helvetica,sans-Serif" font-size="10.00">InitCudaWorkspace</text>
</a>
</g>
</g>
<!-- Node1&#45;&gt;Node3 -->
<g id="edge2_Node000001_Node000003" class="edge">
<title>Node1&#45;&gt;Node3</title>
<g id="a_edge2_Node000001_Node000003"><a xlink:title=" ">
<path fill="none" stroke="#63b8ff" d="M130.55,-93.03C157.96,-97.95 191.59,-103.99 220.33,-109.15"/>
<polygon fill="#63b8ff" stroke="#63b8ff" points="219.81,-112.62 230.27,-110.94 221.05,-105.73 219.81,-112.62"/>
</a>
</g>
</g>
<!-- Node5 -->
<g id="Node000005" class="node">
<title>Node5</title>
<g id="a_Node000005"><a xlink:href="cuda__wrapper_8cpp.html#a08033f9e5084bfef1c9f7294fd253158" target="_top" xlink:title=" ">
<polygon fill="white" stroke="#666666" points="380,-93 189,-93 189,-74 380,-74 380,-93"/>
<text text-anchor="middle" x="284.5" y="-81" font-family="Helvetica,sans-Serif" font-size="10.00">LaunchCudaMetricTensorKernelImpl</text>
</a>
</g>
</g>
<!-- Node1&#45;&gt;Node5 -->
<g id="edge4_Node000001_Node000005" class="edge">
<title>Node1&#45;&gt;Node5</title>
<g id="a_edge4_Node000001_Node000005"><a xlink:title=" ">
<path fill="none" stroke="#63b8ff" d="M153.04,-83.5C161.37,-83.5 169.97,-83.5 178.58,-83.5"/>
<polygon fill="#63b8ff" stroke="#63b8ff" points="178.68,-87 188.68,-83.5 178.68,-80 178.68,-87"/>
</a>
</g>
</g>
<!-- Node6 -->
<g id="Node000006" class="node">
<title>Node6</title>
<g id="a_Node000006"><a xlink:href="cuda__wrapper_8cpp.html#a9c9845f25a1735c579da80c54cf0c699" target="_top" xlink:title=" ">
<polygon fill="white" stroke="#666666" points="325.5,-56 243.5,-56 243.5,-37 325.5,-37 325.5,-56"/>
<text text-anchor="middle" x="284.5" y="-44" font-family="Helvetica,sans-Serif" font-size="10.00">PackCmpnts_</text>
</a>
</g>
</g>
<!-- Node1&#45;&gt;Node6 -->
<g id="edge5_Node000001_Node000006" class="edge">
<title>Node1&#45;&gt;Node6</title>
<g id="a_edge5_Node000001_Node000006"><a xlink:title=" ">
<path fill="none" stroke="#63b8ff" d="M130.55,-73.97C162.15,-68.3 202.02,-61.14 233.13,-55.55"/>
<polygon fill="#63b8ff" stroke="#63b8ff" points="234.09,-58.93 243.32,-53.72 232.86,-52.04 234.09,-58.93"/>
</a>
</g>
</g>
<!-- Node7 -->
<g id="Node000007" class="node">
<title>Node7</title>
<g id="a_Node000007"><a xlink:href="cuda__wrapper_8cpp.html#a3408505d02557cc51ea4eb661b4fc384" target="_top" xlink:title=" ">
<polygon fill="white" stroke="#666666" points="332.5,-19 236.5,-19 236.5,0 332.5,0 332.5,-19"/>
<text text-anchor="middle" x="284.5" y="-7" font-family="Helvetica,sans-Serif" font-size="10.00">UnpackCmpnts_</text>
</a>
</g>
</g>
<!-- Node1&#45;&gt;Node7 -->
<g id="edge6_Node000001_Node000007" class="edge">
<title>Node1&#45;&gt;Node7</title>
<g id="a_edge6_Node000001_Node000007"><a xlink:title=" ">
<path fill="none" stroke="#63b8ff" d="M93.55,-73.91C114.71,-61.67 153.45,-40.61 189,-28.5 200.87,-24.45 213.9,-21.15 226.38,-18.5"/>
<polygon fill="#63b8ff" stroke="#63b8ff" points="227.13,-21.92 236.24,-16.51 225.74,-15.06 227.13,-21.92"/>
</a>
</g>
</g>
<!-- Node4 -->
<g id="Node000004" class="node">
<title>Node4</title>
<g id="a_Node000004"><a xlink:href="cuda__wrapper_8cpp.html#af5d59f1f3f208d21777faed2e8763f3f" target="_top" xlink:title=" ">
<polygon fill="white" stroke="#666666" points="548,-130 416,-130 416,-111 548,-111 548,-130"/>
<text text-anchor="middle" x="482" y="-118" font-family="Helvetica,sans-Serif" font-size="10.00">InitCudaWorkspaceImpl</text>
</a>
</g>
</g>
<!-- Node3&#45;&gt;Node4 -->
<g id="edge3_Node000003_Node000004" class="edge">
<title>Node3&#45;&gt;Node4</title>
<g id="a_edge3_Node000003_Node000004"><a xlink:title=" ">
<path fill="none" stroke="#63b8ff" d="M339.7,-120.5C360.18,-120.5 383.87,-120.5 405.92,-120.5"/>
<polygon fill="#63b8ff" stroke="#63b8ff" points="405.93,-124 415.93,-120.5 405.93,-117 405.93,-124"/>
</a>
</g>
</g>
</g>
</svg>
