<?xml version="1.0" encoding="UTF-8" standalone="no"?>
<!DOCTYPE svg PUBLIC "-//W3C//DTD SVG 1.1//EN"
 "http://www.w3.org/Graphics/SVG/1.1/DTD/svg11.dtd">
<!-- Generated by graphviz version 2.43.0 (0)
 -->
<!-- Title: RunCudaElementCoordKernel Pages: 1 -->
<svg width="569pt" height="101pt"
 viewBox="0.00 0.00 569.00 101.00" xmlns="http://www.w3.org/2000/svg" xmlns:xlink="http://www.w3.org/1999/xlink">
<g id="graph0" class="graph" transform="scale(1 1) rotate(0) translate(4 97)">
<title>RunCudaElementCoordKernel</title>
<!-- Node1 -->
<g id="Node000001" class="node">
<title>Node1</title>
<g id="a_Node000001"><a xlink:title=" ">
<polygon fill="#999999" stroke="#666666" points="160,-56 0,-56 0,-37 160,-37 160,-56"/>
<text text-anchor="middle" x="80" y="-44" font-family="Helvetica,sans-Serif" font-size="10.00">RunCudaElementCoordKernel</text>
</a>
</g>
</g>
<!-- Node2 -->
<g id="Node000002" class="node">
<title>Node2</title>
<g id="a_Node000002"><a xlink:href="cuda__wrapper_8cpp.html#a08e5a5b43a752e588032bd4b9bb3c2ff" target="_top" xlink:title=" ">
<polygon fill="white" stroke="#666666" points="356.5,-93 232.5,-93 232.5,-74 356.5,-74 356.5,-93"/>
<text text-anchor="middle" x="294.5" y="-81" font-family="Helvetica,sans-Serif" font-size="10.00">CheckHostBufferSize_</text>
</a>
</g>
</g>
<!-- Node1&#45;&gt;Node2 -->
<g id="edge1_Node000001_Node000002" class="edge">
<title>Node1&#45;&gt;Node2</title>
<g id="a_edge1_Node000001_Node000002"><a xlink:title=" ">
<path fill="none" stroke="#63b8ff" d="M135.72,-56.03C164.12,-60.97 198.99,-67.04 228.72,-72.22"/>
<polygon fill="#63b8ff" stroke="#63b8ff" points="228.14,-75.67 238.59,-73.94 229.34,-68.78 228.14,-75.67"/>
</a>
</g>
</g>
<!-- Node3 -->
<g id="Node000003" class="node">
<title>Node3</title>
<g id="a_Node000003"><a xlink:href="cuda__wrapper_8cpp.html#af58a317c68baf828e294afef2d80de72" target="_top" xlink:title=" ">
<polygon fill="white" stroke="#666666" points="349.5,-56 239.5,-56 239.5,-37 349.5,-37 349.5,-56"/>
<text text-anchor="middle" x="294.5" y="-44" font-family="Helvetica,sans-Serif" font-size="10.00">InitCudaWorkspace</text>
</a>
</g>
</g>
<!-- Node1&#45;&gt;Node3 -->
<g id="edge2_Node000001_Node000003" class="edge">
<title>Node1&#45;&gt;Node3</title>
<g id="a_edge2_Node000001_Node000003"><a xlink:title=" ">
<path fill="none" stroke="#63b8ff" d="M160.13,-46.5C182.95,-46.5 207.55,-46.5 229.34,-46.5"/>
<polygon fill="#63b8ff" stroke="#63b8ff" points="229.47,-50 239.47,-46.5 229.47,-43 229.47,-50"/>
</a>
</g>
</g>
<!-- Node5 -->
<g id="Node000005" class="node">
<title>Node5</title>
<g id="a_Node000005"><a xlink:href="cuda__wrapper_8cpp.html#ad539cbc1f76deb219dffc2ef6199e25c" target="_top" xlink:title=" ">
<polygon fill="white" stroke="#666666" points="393,-19 196,-19 196,0 393,0 393,-19"/>
<text text-anchor="middle" x="294.5" y="-7" font-family="Helvetica,sans-Serif" font-size="10.00">LaunchCudaElementCoordKernelImpl</text>
</a>
</g>
</g>
<!-- Node1&#45;&gt;Node5 -->
<g id="edge4_Node000001_Node000005" class="edge">
<title>Node1&#45;&gt;Node5</title>
<g id="a_edge4_Node000001_Node000005"><a xlink:title=" ">
<path fill="none" stroke="#63b8ff" d="M135.72,-36.97C164.12,-32.03 198.99,-25.96 228.72,-20.78"/>
<polygon fill="#63b8ff" stroke="#63b8ff" points="229.34,-24.22 238.59,-19.06 228.14,-17.33 229.34,-24.22"/>
</a>
</g>
</g>
<!-- Node4 -->
<g id="Node000004" class="node">
<title>Node4</title>
<g id="a_Node000004"><a xlink:href="cuda__wrapper_8cpp.html#af5d59f1f3f208d21777faed2e8763f3f" target="_top" xlink:title=" ">
<polygon fill="white" stroke="#666666" points="561,-56 429,-56 429,-37 561,-37 561,-56"/>
<text text-anchor="middle" x="495" y="-44" font-family="Helvetica,sans-Serif" font-size="10.00">InitCudaWorkspaceImpl</text>
</a>
</g>
</g>
<!-- Node3&#45;&gt;Node4 -->
<g id="edge3_Node000003_Node000004" class="edge">
<title>Node3&#45;&gt;Node4</title>
<g id="a_edge3_Node000003_Node000004"><a xlink:title=" ">
<path fill="none" stroke="#63b8ff" d="M349.74,-46.5C371.04,-46.5 395.85,-46.5 418.82,-46.5"/>
<polygon fill="#63b8ff" stroke="#63b8ff" points="418.88,-50 428.88,-46.5 418.88,-43 418.88,-50"/>
</a>
</g>
</g>
</g>
</svg>
