<?xml version="1.0" encoding="UTF-8" standalone="no"?>
<!DOCTYPE svg PUBLIC "-//W3C//DTD SVG 1.1//EN"
 "http://www.w3.org/Graphics/SVG/1.1/DTD/svg11.dtd">
<!-- Generated by graphviz version 2.43.0 (0)
 -->
<!-- Title: PrepareCudaHostWorkspace Pages: 1 -->
<svg width="477pt" height="64pt"
 viewBox="0.00 0.00 477.00 64.00" xmlns="http://www.w3.org/2000/svg" xmlns:xlink="http://www.w3.org/1999/xlink">
<g id="graph0" class="graph" transform="scale(1 1) rotate(0) translate(4 60)">
<title>PrepareCudaHostWorkspace</title>
<!-- Node1 -->
<g id="Node000001" class="node">
<title>Node1</title>
<g id="a_Node000001"><a xlink:title=" ">
<polygon fill="#999999" stroke="#666666" points="155,-37 0,-37 0,-18 155,-18 155,-37"/>
<text text-anchor="middle" x="77.5" y="-25" font-family="Helvetica,sans-Serif" font-size="10.00">PrepareCudaHostWorkspace</text>
</a>
</g>
</g>
<!-- Node2 -->
<g id="Node000002" class="node">
<title>Node2</title>
<g id="a_Node000002"><a xlink:href="cuda__wrapper_8cpp.html#af58a317c68baf828e294afef2d80de72" target="_top" xlink:title=" ">
<polygon fill="white" stroke="#666666" points="301,-56 191,-56 191,-37 301,-37 301,-56"/>
<text text-anchor="middle" x="246" y="-44" font-family="Helvetica,sans-Serif" font-size="10.00">InitCudaWorkspace</text>
</a>
</g>
</g>
<!-- Node1&#45;&gt;Node2 -->
<g id="edge1_Node000001_Node000002" class="edge">
<title>Node1&#45;&gt;Node2</title>
<g id="a_edge1_Node000001_Node000002"><a xlink:title=" ">
<path fill="none" stroke="#63b8ff" d="M155.41,-36.28C163.89,-37.24 172.46,-38.22 180.77,-39.17"/>
<polygon fill="#63b8ff" stroke="#63b8ff" points="180.4,-42.65 190.74,-40.31 181.2,-35.7 180.4,-42.65"/>
</a>
</g>
</g>
<!-- Node4 -->
<g id="Node000004" class="node">
<title>Node4</title>
<g id="a_Node000004"><a xlink:href="cuda__wrapper_8cpp.html#afbeb0c3bba48ea9eaf049937e95aff2c" target="_top" xlink:title=" ">
<polygon fill="white" stroke="#666666" points="299,-19 193,-19 193,0 299,0 299,-19"/>
<text text-anchor="middle" x="246" y="-7" font-family="Helvetica,sans-Serif" font-size="10.00">ResizeHostBuffer_</text>
</a>
</g>
</g>
<!-- Node1&#45;&gt;Node4 -->
<g id="edge3_Node000001_Node000004" class="edge">
<title>Node1&#45;&gt;Node4</title>
<g id="a_edge3_Node000001_Node000004"><a xlink:title=" ">
<path fill="none" stroke="#63b8ff" d="M155.41,-19.18C164.48,-18.21 173.64,-17.21 182.47,-16.26"/>
<polygon fill="#63b8ff" stroke="#63b8ff" points="183.1,-19.71 192.66,-15.16 182.35,-12.75 183.1,-19.71"/>
</a>
</g>
</g>
<!-- Node3 -->
<g id="Node000003" class="node">
<title>Node3</title>
<g id="a_Node000003"><a xlink:href="cuda__wrapper_8cpp.html#af5d59f1f3f208d21777faed2e8763f3f" target="_top" xlink:title=" ">
<polygon fill="white" stroke="#666666" points="469,-56 337,-56 337,-37 469,-37 469,-56"/>
<text text-anchor="middle" x="403" y="-44" font-family="Helvetica,sans-Serif" font-size="10.00">InitCudaWorkspaceImpl</text>
</a>
</g>
</g>
<!-- Node2&#45;&gt;Node3 -->
<g id="edge2_Node000002_Node000003" class="edge">
<title>Node2&#45;&gt;Node3</title>
<g id="a_edge2_Node000002_Node000003"><a xlink:title=" ">
<path fill="none" stroke="#63b8ff" d="M301.21,-46.5C309.49,-46.5 318.17,-46.5 326.8,-46.5"/>
<polygon fill="#63b8ff" stroke="#63b8ff" points="326.9,-50 336.9,-46.5 326.9,-43 326.9,-50"/>
</a>
</g>
</g>
</g>
</svg>
