<?xml version="1.0" encoding="UTF-8" standalone="no"?>
<!DOCTYPE svg PUBLIC "-//W3C//DTD SVG 1.1//EN"
 "http://www.w3.org/Graphics/SVG/1.1/DTD/svg11.dtd">
<!-- Generated by graphviz version 2.43.0 (0)
 -->
<!-- Title: RunCudaSubdivGeomKernel Pages: 1 -->
<svg width="556pt" height="138pt"
 viewBox="0.00 0.00 556.00 138.00" xmlns="http://www.w3.org/2000/svg" xmlns:xlink="http://www.w3.org/1999/xlink">
<g id="graph0" class="graph" transform="scale(1 1) rotate(0) translate(4 134)">
<title>RunCudaSubdivGeomKernel</title>
<!-- Node1 -->
<g id="Node000001" class="node">
<title>Node1</title>
<g id="a_Node000001"><a xlink:title=" ">
<polygon fill="#999999" stroke="#666666" points="153,-74 0,-74 0,-55 153,-55 153,-74"/>
<text text-anchor="middle" x="76.5" y="-62" font-family="Helvetica,sans-Serif" font-size="10.00">RunCudaSubdivGeomKernel</text>
</a>
</g>
</g>
<!-- Node2 -->
<g id="Node000002" class="node">
<title>Node2</title>
<g id="a_Node000002"><a xlink:href="cuda__wrapper_8cpp.html#a08e5a5b43a752e588032bd4b9bb3c2ff" target="_top" xlink:title=" ">
<polygon fill="white" stroke="#666666" points="346.5,-130 222.5,-130 222.5,-111 346.5,-111 346.5,-130"/>
<text text-anchor="middle" x="284.5" y="-118" font-family="Helvetica,sans-Serif" font-size="10.00">CheckHostBufferSize_</text>
</a>
</g>
</g>
<!-- Node1&#45;&gt;Node2 -->
<g id="edge1_Node000001_Node000002" class="edge">
<title>Node1&#45;&gt;Node2</title>
<g id="a_edge1_Node000001_Node000002"><a xlink:title=" ">
<path fill="none" stroke="#63b8ff" d="M102.43,-74.12C124.83,-82.49 158.75,-94.51 189,-102.5 197.83,-104.83 207.21,-106.99 216.49,-108.94"/>
<polygon fill="#63b8ff" stroke="#63b8ff" points="215.99,-112.42 226.49,-110.98 217.39,-105.56 215.99,-112.42"/>
</a>
</g>
</g>
<!-- Node3 -->
<g id="Node000003" class="node">
<title>Node3</title>
<g id="a_Node000003"><a xlink:href="cuda__wrapper_8cpp.html#af58a317c68baf828e294afef2d80de72" target="_top" xlink:title=" ">
<polygon fill="white" stroke="#666666" points="339.5,-93 229.5,-93 229.5,-74 339.5,-74 339.5,-93"/>
<text text-anchor="middle" x="284.5" y="-81" font-family="Helvetica,sans-Serif" font-size="10.00">InitCudaWorkspace</text>
</a>
</g>
</g>
<!-- Node1&#45;&gt;Node3 -->
<g id="edge2_Node000001_Node000003" class="edge">
<title>Node1&#45;&gt;Node3</title>
<g id="a_edge2_Node000001_Node000003"><a xlink:title=" ">
<path fill="none" stroke="#63b8ff" d="M153.04,-71.47C174.75,-73.47 198.21,-75.63 219.18,-77.57"/>
<polygon fill="#63b8ff" stroke="#63b8ff" points="218.97,-81.06 229.25,-78.5 219.61,-74.09 218.97,-81.06"/>
</a>
</g>
</g>
<!-- Node5 -->
<g id="Node000005" class="node">
<title>Node5</title>
<g id="a_Node000005"><a xlink:href="cuda__wrapper_8cpp.html#aee4f68e1609ec0fc8d2842511110fccc" target="_top" xlink:title=" ">
<polygon fill="white" stroke="#666666" points="380,-56 189,-56 189,-37 380,-37 380,-56"/>
<text text-anchor="middle" x="284.5" y="-44" font-family="Helvetica,sans-Serif" font-size="10.00">LaunchCudaSubdivGeomKernelImpl</text>
</a>
</g>
</g>
<!-- Node1&#45;&gt;Node5 -->
<g id="edge4_Node000001_Node000005" class="edge">
<title>Node1&#45;&gt;Node5</title>
<g id="a_edge4_Node000001_Node000005"><a xlink:title=" ">
<path fill="none" stroke="#63b8ff" d="M153.04,-57.9C161.37,-57.17 169.97,-56.42 178.58,-55.67"/>
<polygon fill="#63b8ff" stroke="#63b8ff" points="179.03,-59.14 188.68,-54.78 178.42,-52.17 179.03,-59.14"/>
</a>
</g>
</g>
<!-- Node6 -->
<g id="Node000006" class="node">
<title>Node6</title>
<g id="a_Node000006"><a xlink:href="cuda__wrapper_8cpp.html#a3408505d02557cc51ea4eb661b4fc384" target="_top" xlink:title=" ">
<polygon fill="white" stroke="#666666" points="332.5,-19 236.5,-19 236.5,0 332.5,0 332.5,-19"/>
<text text-anchor="middle" x="284.5" y="-7" font-family="Helvetica,sans-Serif" font-size="10.00">UnpackCmpnts_</text>
</a>
</g>
</g>
<!-- Node1&#45;&gt;Node6 -->
<g id="edge5_Node000001_Node000006" class="edge">
<title>Node1&#45;&gt;Node6</title>
<g id="a_edge5_Node000001_Node000006"><a xlink:title=" ">
<path fill="none" stroke="#63b8ff" d="M104.28,-54.9C126.71,-47.1 159.67,-36.16 189,-28.5 200.89,-25.4 213.74,-22.51 226.01,-19.97"/>
<polygon fill="#63b8ff" stroke="#63b8ff" points="227.04,-23.33 236.15,-17.92 225.66,-16.47 227.04,-23.33"/>
</a>
</g>
</g>
<!-- Node4 -->
<g id="Node000004" class="node">
<title>Node4</title>
<g id="a_Node000004"><a xlink:href="cuda__wrapper_8cpp.html#af5d59f1f3f208d21777faed2e8763f3f" target="_top" xlink:title=" ">
<polygon fill="white" stroke="#666666" points="548,-93 416,-93 416,-74 548,-74 548,-93"/>
<text text-anchor="middle" x="482" y="-81" font-family="Helvetica,sans-Serif" font-size="10.00">InitCudaWorkspaceImpl</text>
</a>
</g>
</g>
<!-- Node3&#45;&gt;Node4 -->
<g id="edge3_Node000003_Node000004" class="edge">
<title>Node3&#45;&gt;Node4</title>
<g id="a_edge3_Node000003_Node000004"><a xlink:title=" ">
<path fill="none" stroke="#63b8ff" d="M339.7,-83.5C360.18,-83.5 383.87,-83.5 405.92,-83.5"/>
<polygon fill="#63b8ff" stroke="#63b8ff" points="405.93,-87 415.93,-83.5 405.93,-80 405.93,-87"/>
</a>
</g>
</g>
</g>
</svg>
