<?xml version="1.0" encoding="UTF-8" standalone="no"?>
<!DOCTYPE svg PUBLIC "-//W3C//DTD SVG 1.1//EN"
 "http://www.w3.org/Graphics/SVG/1.1/DTD/svg11.dtd">
<!-- Generated by graphviz version 2.43.0 (0)
 -->
<!-- Title: TimingSpeedup_ Pages: 1 -->
<svg width="520pt" height="46pt"
 viewBox="0.00 0.00 520.00 46.00" xmlns="http://www.w3.org/2000/svg" xmlns:xlink="http://www.w3.org/1999/xlink">
<g id="graph0" class="graph" transform="scale(1 1) rotate(0) translate(4 42)">
<title>TimingSpeedup_</title>
<!-- Node1 -->
<g id="Node000001" class="node">
<title>Node1</title>
<g id="a_Node000001"><a xlink:title=" ">
<polygon fill="#999999" stroke="#666666" points="512,-19 414,-19 414,0 512,0 512,-19"/>
<text text-anchor="middle" x="463" y="-7" font-family="Helvetica,sans-Serif" font-size="10.00">TimingSpeedup_</text>
</a>
</g>
</g>
<!-- Node2 -->
<g id="Node000002" class="node">
<title>Node2</title>
<g id="a_Node000002"><a xlink:href="cuda__processes_8c.html#a5da8c5693bb28379655330d446b00ce6" target="_top" xlink:title=" ">
<polygon fill="white" stroke="#666666" points="378,-38 222,-38 222,-19 378,-19 378,-38"/>
<text text-anchor="middle" x="300" y="-26" font-family="Helvetica,sans-Serif" font-size="10.00">PrintCudaPreprocessTiming_</text>
</a>
</g>
</g>
<!-- Node1&#45;&gt;Node2 -->
<g id="edge1_Node000001_Node000002" class="edge">
<title>Node1&#45;&gt;Node2</title>
<g id="a_edge1_Node000001_Node000002"><a xlink:title=" ">
<path fill="none" stroke="#63b8ff" d="M403.75,-16.37C395.44,-17.35 386.78,-18.38 378.18,-19.39"/>
<polygon fill="#63b8ff" stroke="#63b8ff" points="404.17,-19.85 413.69,-15.2 403.35,-12.9 404.17,-19.85"/>
</a>
</g>
</g>
<!-- Node3 -->
<g id="Node000003" class="node">
<title>Node3</title>
<g id="a_Node000003"><a xlink:href="cuda__processes_8c.html#a627a27228923fbc3e63f0f4e1c5aa765" target="_top" xlink:title=" ">
<polygon fill="white" stroke="#666666" points="186,-19 77,-19 77,0 186,0 186,-19"/>
<text text-anchor="middle" x="131.5" y="-7" font-family="Helvetica,sans-Serif" font-size="10.00">RunCudaProcesses</text>
</a>
</g>
</g>
<!-- Node1&#45;&gt;Node3 -->
<g id="edge4_Node000001_Node000003" class="edge">
<title>Node1&#45;&gt;Node3</title>
<g id="a_edge4_Node000001_Node000003"><a xlink:title=" ">
<path fill="none" stroke="#63b8ff" d="M403.4,-9.5C341.81,-9.5 245.74,-9.5 186.09,-9.5"/>
<polygon fill="#63b8ff" stroke="#63b8ff" points="403.74,-13 413.73,-9.5 403.73,-6 403.74,-13"/>
</a>
</g>
</g>
<!-- Node2&#45;&gt;Node3 -->
<g id="edge2_Node000002_Node000003" class="edge">
<title>Node2&#45;&gt;Node3</title>
<g id="a_edge2_Node000002_Node000003"><a xlink:title=" ">
<path fill="none" stroke="#63b8ff" d="M211.55,-18.52C203,-17.54 194.5,-16.58 186.43,-15.65"/>
<polygon fill="#63b8ff" stroke="#63b8ff" points="211.27,-22.01 221.6,-19.67 212.06,-15.06 211.27,-22.01"/>
</a>
</g>
</g>
<!-- Node4 -->
<g id="Node000004" class="node">
<title>Node4</title>
<g id="a_Node000004"><a xlink:href="main_8c.html#a3c04138a5bfe5d72780bb7e82a18e627" target="_top" xlink:title=" ">
<polygon fill="white" stroke="#666666" points="41,-19 0,-19 0,0 41,0 41,-19"/>
<text text-anchor="middle" x="20.5" y="-7" font-family="Helvetica,sans-Serif" font-size="10.00">main</text>
</a>
</g>
</g>
<!-- Node3&#45;&gt;Node4 -->
<g id="edge3_Node000003_Node000004" class="edge">
<title>Node3&#45;&gt;Node4</title>
<g id="a_edge3_Node000003_Node000004"><a xlink:title=" ">
<path fill="none" stroke="#63b8ff" d="M66.79,-9.5C57.49,-9.5 48.57,-9.5 41.14,-9.5"/>
<polygon fill="#63b8ff" stroke="#63b8ff" points="66.96,-13 76.96,-9.5 66.96,-6 66.96,-13"/>
</a>
</g>
</g>
</g>
</svg>
