<?xml version="1.0" encoding="UTF-8" standalone="no"?>
<!DOCTYPE svg PUBLIC "-//W3C//DTD SVG 1.1//EN"
 "http://www.w3.org/Graphics/SVG/1.1/DTD/svg11.dtd">
<!-- Generated by graphviz version 2.43.0 (0)
 -->
<!-- Title: CheckHostBufferSize_ Pages: 1 -->
<svg width="550pt" height="101pt"
 viewBox="0.00 0.00 550.00 101.00" xmlns="http://www.w3.org/2000/svg" xmlns:xlink="http://www.w3.org/1999/xlink">
<g id="graph0" class="graph" transform="scale(1 1) rotate(0) translate(4 97)">
<title>CheckHostBufferSize_</title>
<!-- Node1 -->
<g id="Node000001" class="node">
<title>Node1</title>
<g id="a_Node000001"><a xlink:title=" ">
<polygon fill="#999999" stroke="#666666" points="542,-56 418,-56 418,-37 542,-37 542,-56"/>
<text text-anchor="middle" x="480" y="-44" font-family="Helvetica,sans-Serif" font-size="10.00">CheckHostBufferSize_</text>
</a>
</g>
</g>
<!-- Node2 -->
<g id="Node000002" class="node">
<title>Node2</title>
<g id="a_Node000002"><a xlink:href="cuda__wrapper_8cpp.html#a483d07d861992ff5192a3dfd0bf632b4" target="_top" xlink:title=" ">
<polygon fill="white" stroke="#666666" points="382,-93 222,-93 222,-74 382,-74 382,-93"/>
<text text-anchor="middle" x="302" y="-81" font-family="Helvetica,sans-Serif" font-size="10.00">RunCudaElementCoordKernel</text>
</a>
</g>
</g>
<!-- Node1&#45;&gt;Node2 -->
<g id="edge1_Node000001_Node000002" class="edge">
<title>Node1&#45;&gt;Node2</title>
<g id="a_edge1_Node000001_Node000002"><a xlink:title=" ">
<path fill="none" stroke="#63b8ff" d="M423.57,-58.15C399.4,-63.23 371.4,-69.12 348.48,-73.94"/>
<polygon fill="#63b8ff" stroke="#63b8ff" points="424.61,-61.51 433.68,-56.03 423.17,-54.66 424.61,-61.51"/>
</a>
</g>
</g>
<!-- Node3 -->
<g id="Node000003" class="node">
<title>Node3</title>
<g id="a_Node000003"><a xlink:href="cuda__wrapper_8cpp.html#ab291e6a68fd618e7ab67e4a9d5cbf578" target="_top" xlink:title=" ">
<polygon fill="white" stroke="#666666" points="378.5,-56 225.5,-56 225.5,-37 378.5,-37 378.5,-56"/>
<text text-anchor="middle" x="302" y="-44" font-family="Helvetica,sans-Serif" font-size="10.00">RunCudaMetricTensorKernel</text>
</a>
</g>
</g>
<!-- Node1&#45;&gt;Node3 -->
<g id="edge2_Node000001_Node000003" class="edge">
<title>Node1&#45;&gt;Node3</title>
<g id="a_edge2_Node000001_Node000003"><a xlink:title=" ">
<path fill="none" stroke="#63b8ff" d="M407.66,-46.5C398.06,-46.5 388.2,-46.5 378.53,-46.5"/>
<polygon fill="#63b8ff" stroke="#63b8ff" points="407.94,-50 417.94,-46.5 407.94,-43 407.94,-50"/>
</a>
</g>
</g>
<!-- Node6 -->
<g id="Node000006" class="node">
<title>Node6</title>
<g id="a_Node000006"><a xlink:href="cuda__wrapper_8cpp.html#af0503da10b116484b9252c38eaa89a05" target="_top" xlink:title=" ">
<polygon fill="white" stroke="#666666" points="378.5,-19 225.5,-19 225.5,0 378.5,0 378.5,-19"/>
<text text-anchor="middle" x="302" y="-7" font-family="Helvetica,sans-Serif" font-size="10.00">RunCudaSubdivGeomKernel</text>
</a>
</g>
</g>
<!-- Node1&#45;&gt;Node6 -->
<g id="edge5_Node000001_Node000006" class="edge">
<title>Node1&#45;&gt;Node6</title>
<g id="a_edge5_Node000001_Node000006"><a xlink:title=" ">
<path fill="none" stroke="#63b8ff" d="M423.57,-34.85C399.4,-29.77 371.4,-23.88 348.48,-19.06"/>
<polygon fill="#63b8ff" stroke="#63b8ff" points="423.17,-38.34 433.68,-36.97 424.61,-31.49 423.17,-38.34"/>
</a>
</g>
</g>
<!-- Node4 -->
<g id="Node000004" class="node">
<title>Node4</title>
<g id="a_Node000004"><a xlink:href="cuda__processes_8c.html#a627a27228923fbc3e63f0f4e1c5aa765" target="_top" xlink:title=" ">
<polygon fill="white" stroke="#666666" points="186,-37 77,-37 77,-18 186,-18 186,-37"/>
<text text-anchor="middle" x="131.5" y="-25" font-family="Helvetica,sans-Serif" font-size="10.00">RunCudaProcesses</text>
</a>
</g>
</g>
<!-- Node3&#45;&gt;Node4 -->
<g id="edge3_Node000003_Node000004" class="edge">
<title>Node3&#45;&gt;Node4</title>
<g id="a_edge3_Node000003_Node000004"><a xlink:title=" ">
<path fill="none" stroke="#63b8ff" d="M214.96,-36.8C205.2,-35.7 195.46,-34.6 186.29,-33.56"/>
<polygon fill="#63b8ff" stroke="#63b8ff" points="214.8,-40.3 225.13,-37.94 215.58,-33.35 214.8,-40.3"/>
</a>
</g>
</g>
<!-- Node5 -->
<g id="Node000005" class="node">
<title>Node5</title>
<g id="a_Node000005"><a xlink:href="main_8c.html#a3c04138a5bfe5d72780bb7e82a18e627" target="_top" xlink:title=" ">
<polygon fill="white" stroke="#666666" points="41,-37 0,-37 0,-18 41,-18 41,-37"/>
<text text-anchor="middle" x="20.5" y="-25" font-family="Helvetica,sans-Serif" font-size="10.00">main</text>
</a>
</g>
</g>
<!-- Node4&#45;&gt;Node5 -->
<g id="edge4_Node000004_Node000005" class="edge">
<title>Node4&#45;&gt;Node5</title>
<g id="a_edge4_Node000004_Node000005"><a xlink:title=" ">
<path fill="none" stroke="#63b8ff" d="M66.79,-27.5C57.49,-27.5 48.57,-27.5 41.14,-27.5"/>
<polygon fill="#63b8ff" stroke="#63b8ff" points="66.96,-31 76.96,-27.5 66.96,-24 66.96,-31"/>
</a>
</g>
</g>
<!-- Node6&#45;&gt;Node4 -->
<g id="edge6_Node000006_Node000004" class="edge">
<title>Node6&#45;&gt;Node4</title>
<g id="a_edge6_Node000006_Node000004"><a xlink:title=" ">
<path fill="none" stroke="#63b8ff" d="M214.96,-18.69C205.2,-19.73 195.46,-20.77 186.29,-21.75"/>
<polygon fill="#63b8ff" stroke="#63b8ff" points="215.56,-22.15 225.13,-17.6 214.81,-15.19 215.56,-22.15"/>
</a>
</g>
</g>
</g>
</svg>
