<?xml version="1.0" encoding="UTF-8" standalone="no"?>
<!DOCTYPE svg PUBLIC "-//W3C//DTD SVG 1.1//EN"
 "http://www.w3.org/Graphics/SVG/1.1/DTD/svg11.dtd">
<!-- Generated by graphviz version 2.43.0 (0)
 -->
<!-- Title: DestroyCudaWorkspace Pages: 1 -->
<svg width="481pt" height="64pt"
 viewBox="0.00 0.00 481.00 64.00" xmlns="http://www.w3.org/2000/svg" xmlns:xlink="http://www.w3.org/1999/xlink">
<g id="graph0" class="graph" transform="scale(1 1) rotate(0) translate(4 60)">
<title>DestroyCudaWorkspace</title>
<!-- Node1 -->
<g id="Node000001" class="node">
<title>Node1</title>
<g id="a_Node000001"><a xlink:title=" ">
<polygon fill="#999999" stroke="#666666" points="133,-37 0,-37 0,-18 133,-18 133,-37"/>
<text text-anchor="middle" x="66.5" y="-25" font-family="Helvetica,sans-Serif" font-size="10.00">DestroyCudaWorkspace</text>
</a>
</g>
</g>
<!-- Node2 -->
<g id="Node000002" class="node">
<title>Node2</title>
<g id="a_Node000002"><a xlink:href="cuda__wrapper_8cpp.html#a5c7fed81035e28c02fbcf4121e806152" target="_top" xlink:title=" ">
<polygon fill="white" stroke="#666666" points="320.5,-56 172.5,-56 172.5,-37 320.5,-37 320.5,-56"/>
<text text-anchor="middle" x="246.5" y="-44" font-family="Helvetica,sans-Serif" font-size="10.00">ClearCudaHostWorkspace_</text>
</a>
</g>
</g>
<!-- Node1&#45;&gt;Node2 -->
<g id="edge1_Node000001_Node000002" class="edge">
<title>Node1&#45;&gt;Node2</title>
<g id="a_edge1_Node000001_Node000002"><a xlink:title=" ">
<path fill="none" stroke="#63b8ff" d="M133.02,-34.49C142.51,-35.51 152.39,-36.56 162.17,-37.61"/>
<polygon fill="#63b8ff" stroke="#63b8ff" points="162,-41.11 172.31,-38.69 162.74,-34.15 162,-41.11"/>
</a>
</g>
</g>
<!-- Node4 -->
<g id="Node000004" class="node">
<title>Node4</title>
<g id="a_Node000004"><a xlink:href="cuda__wrapper_8cpp.html#af86dc1061822ed2e46121397481877ac" target="_top" xlink:title=" ">
<polygon fill="white" stroke="#666666" points="324,-19 169,-19 169,0 324,0 324,-19"/>
<text text-anchor="middle" x="246.5" y="-7" font-family="Helvetica,sans-Serif" font-size="10.00">DestroyCudaWorkspaceImpl</text>
</a>
</g>
</g>
<!-- Node1&#45;&gt;Node4 -->
<g id="edge3_Node000001_Node000004" class="edge">
<title>Node1&#45;&gt;Node4</title>
<g id="a_edge3_Node000001_Node000004"><a xlink:title=" ">
<path fill="none" stroke="#63b8ff" d="M133.02,-20.87C141.43,-20.02 150.14,-19.14 158.82,-18.27"/>
<polygon fill="#63b8ff" stroke="#63b8ff" points="159.37,-21.73 168.97,-17.24 158.67,-14.76 159.37,-21.73"/>
</a>
</g>
</g>
<!-- Node3 -->
<g id="Node000003" class="node">
<title>Node3</title>
<g id="a_Node000003"><a xlink:href="cuda__wrapper_8cpp.html#a8ed7f3b582b539fb1733f501be4be1c2" target="_top" xlink:title=" ">
<polygon fill="white" stroke="#666666" points="473,-56 360,-56 360,-37 473,-37 473,-56"/>
<text text-anchor="middle" x="416.5" y="-44" font-family="Helvetica,sans-Serif" font-size="10.00">ReleaseHostBuffer_</text>
</a>
</g>
</g>
<!-- Node2&#45;&gt;Node3 -->
<g id="edge2_Node000002_Node000003" class="edge">
<title>Node2&#45;&gt;Node3</title>
<g id="a_edge2_Node000002_Node000003"><a xlink:title=" ">
<path fill="none" stroke="#63b8ff" d="M320.7,-46.5C330.37,-46.5 340.24,-46.5 349.78,-46.5"/>
<polygon fill="#63b8ff" stroke="#63b8ff" points="349.98,-50 359.98,-46.5 349.98,-43 349.98,-50"/>
</a>
</g>
</g>
</g>
</svg>
