<?xml version="1.0" encoding="UTF-8" standalone="no"?>
<!DOCTYPE svg PUBLIC "-//W3C//DTD SVG 1.1//EN"
 "http://www.w3.org/Graphics/SVG/1.1/DTD/svg11.dtd">
<!-- Generated by graphviz version 2.43.0 (0)
 -->
<!-- Title: cuda_bridge.h Pages: 1 -->
<svg width="498pt" height="82pt"
 viewBox="0.00 0.00 498.00 82.00" xmlns="http://www.w3.org/2000/svg" xmlns:xlink="http://www.w3.org/1999/xlink">
<g id="graph0" class="graph" transform="scale(1 1) rotate(0) translate(4 78)">
<title>cuda_bridge.h</title>
<!-- Node1 -->
<g id="Node000001" class="node">
<title>Node1</title>
<g id="a_Node000001"><a xlink:title=" ">
<polygon fill="#999999" stroke="#666666" points="305.5,-74 220.5,-74 220.5,-55 305.5,-55 305.5,-74"/>
<text text-anchor="middle" x="263" y="-62" font-family="Helvetica,sans-Serif" font-size="10.00">cuda_bridge.h</text>
</a>
</g>
</g>
<!-- Node2 -->
<g id="Node000002" class="node">
<title>Node2</title>
<g id="a_Node000002"><a xlink:href="active__strain_8c.html" target="_top" xlink:title="Implementation of muscle activation on shell elements using the active&#45;strain approach.">
<polygon fill="white" stroke="#666666" points="88,-19 0,-19 0,0 88,0 88,-19"/>
<text text-anchor="middle" x="44" y="-7" font-family="Helvetica,sans-Serif" font-size="10.00">active_strain.c</text>
</a>
</g>
</g>
<!-- Node1&#45;&gt;Node2 -->
<g id="edge1_Node000001_Node000002" class="edge">
<title>Node1&#45;&gt;Node2</title>
<g id="a_edge1_Node000001_Node000002"><a xlink:title=" ">
<path fill="none" stroke="#63b8ff" d="M218.07,-52.63C177.05,-42.7 117.21,-28.22 79.46,-19.08"/>
<polygon fill="#63b8ff" stroke="#63b8ff" points="217.27,-56.03 227.81,-54.98 218.92,-49.23 217.27,-56.03"/>
</a>
</g>
</g>
<!-- Node3 -->
<g id="Node000003" class="node">
<title>Node3</title>
<g id="a_Node000003"><a xlink:href="cuda__processes_8c.html" target="_top" xlink:title=" ">
<polygon fill="white" stroke="#666666" points="208,-19 106,-19 106,0 208,0 208,-19"/>
<text text-anchor="middle" x="157" y="-7" font-family="Helvetica,sans-Serif" font-size="10.00">cuda_processes.c</text>
</a>
</g>
</g>
<!-- Node1&#45;&gt;Node3 -->
<g id="edge2_Node000001_Node000003" class="edge">
<title>Node1&#45;&gt;Node3</title>
<g id="a_edge2_Node000001_Node000003"><a xlink:title=" ">
<path fill="none" stroke="#63b8ff" d="M237,-50.5C217.5,-40.75 191.35,-27.68 174.34,-19.17"/>
<polygon fill="#63b8ff" stroke="#63b8ff" points="235.46,-53.64 245.97,-54.98 238.59,-47.38 235.46,-53.64"/>
</a>
</g>
</g>
<!-- Node4 -->
<g id="Node000004" class="node">
<title>Node4</title>
<g id="a_Node000004"><a xlink:href="cuda__stub_8c.html" target="_top" xlink:title=" ">
<polygon fill="white" stroke="#666666" points="300,-19 226,-19 226,0 300,0 300,-19"/>
<text text-anchor="middle" x="263" y="-7" font-family="Helvetica,sans-Serif" font-size="10.00">cuda_stub.c</text>
</a>
</g>
</g>
<!-- Node1&#45;&gt;Node4 -->
<g id="edge3_Node000001_Node000004" class="edge">
<title>Node1&#45;&gt;Node4</title>
<g id="a_edge3_Node000001_Node000004"><a xlink:title=" ">
<path fill="none" stroke="#63b8ff" d="M263,-44.66C263,-35.93 263,-25.99 263,-19.09"/>
<polygon fill="#63b8ff" stroke="#63b8ff" points="259.5,-44.75 263,-54.75 266.5,-44.75 259.5,-44.75"/>
</a>
</g>
</g>
<!-- Node5 -->
<g id="Node000005" class="node">
<title>Node5</title>
<g id="a_Node000005"><a xlink:href="cuda__wrapper_8cpp.html" target="_top" xlink:title=" ">
<polygon fill="white" stroke="#666666" points="422,-19 318,-19 318,0 422,0 422,-19"/>
<text text-anchor="middle" x="370" y="-7" font-family="Helvetica,sans-Serif" font-size="10.00">cuda_wrapper.cpp</text>
</a>
</g>
</g>
<!-- Node1&#45;&gt;Node5 -->
<g id="edge4_Node000001_Node000005" class="edge">
<title>Node1&#45;&gt;Node5</title>
<g id="a_edge4_Node000001_Node000005"><a xlink:title=" ">
<path fill="none" stroke="#63b8ff" d="M289.24,-50.5C308.93,-40.75 335.32,-27.68 352.5,-19.17"/>
<polygon fill="#63b8ff" stroke="#63b8ff" points="287.6,-47.41 280.19,-54.98 290.71,-53.68 287.6,-47.41"/>
</a>
</g>
</g>
<!-- Node6 -->
<g id="Node000006" class="node">
<title>Node6</title>
<g id="a_Node000006"><a xlink:href="main_8c.html" target="_top" xlink:title=" ">
<polygon fill="white" stroke="#666666" points="490,-19 440,-19 440,0 490,0 490,-19"/>
<text text-anchor="middle" x="465" y="-7" font-family="Helvetica,sans-Serif" font-size="10.00">main.c</text>
</a>
</g>
</g>
<!-- Node1&#45;&gt;Node6 -->
<g id="edge5_Node000001_Node000006" class="edge">
<title>Node1&#45;&gt;Node6</title>
<g id="a_edge5_Node000001_Node000006"><a xlink:title=" ">
<path fill="none" stroke="#63b8ff" d="M305.37,-52.38C346.11,-41.69 406.34,-25.89 439.96,-17.07"/>
<polygon fill="#63b8ff" stroke="#63b8ff" points="304.24,-49.06 295.45,-54.98 306.02,-55.83 304.24,-49.06"/>
</a>
</g>
</g>
</g>
</svg>
