<?xml version="1.0" encoding="UTF-8" standalone="no"?>
<!DOCTYPE svg PUBLIC "-//W3C//DTD SVG 1.1//EN"
 "http://www.w3.org/Graphics/SVG/1.1/DTD/svg11.dtd">
<!-- Generated by graphviz version 2.43.0 (0)
 -->
<!-- Title: DestroyCudaWorkspaceImpl Pages: 1 -->
<svg width="558pt" height="27pt"
 viewBox="0.00 0.00 558.00 27.00" xmlns="http://www.w3.org/2000/svg" xmlns:xlink="http://www.w3.org/1999/xlink">
<g id="graph0" class="graph" transform="scale(1 1) rotate(0) translate(4 23)">
<title>DestroyCudaWorkspaceImpl</title>
<!-- Node1 -->
<g id="Node000001" class="node">
<title>Node1</title>
<g id="a_Node000001"><a xlink:title=" ">
<polygon fill="#999999" stroke="#666666" points="550,-19 395,-19 395,0 550,0 550,-19"/>
<text text-anchor="middle" x="472.5" y="-7" font-family="Helvetica,sans-Serif" font-size="10.00">DestroyCudaWorkspaceImpl</text>
</a>
</g>
</g>
<!-- Node2 -->
<g id="Node000002" class="node">
<title>Node2</title>
<g id="a_Node000002"><a xlink:href="cuda__wrapper_8cpp.html#aa4206262d6cba1bafdadf7bc0741d916" target="_top" xlink:title=" ">
<polygon fill="white" stroke="#666666" points="359,-19 226,-19 226,0 359,0 359,-19"/>
<text text-anchor="middle" x="292.5" y="-7" font-family="Helvetica,sans-Serif" font-size="10.00">DestroyCudaWorkspace</text>
</a>
</g>
</g>
<!-- Node1&#45;&gt;Node2 -->
<g id="edge1_Node000001_Node000002" class="edge">
<title>Node1&#45;&gt;Node2</title>
<g id="a_edge1_Node000001_Node000002"><a xlink:title=" ">
<path fill="none" stroke="#63b8ff" d="M384.83,-9.5C376.15,-9.5 367.45,-9.5 359.05,-9.5"/>
<polygon fill="#63b8ff" stroke="#63b8ff" points="384.98,-13 394.98,-9.5 384.98,-6 384.98,-13"/>
</a>
</g>
</g>
<!-- Node3 -->
<g id="Node000003" class="node">
<title>Node3</title>
<g id="a_Node000003"><a xlink:href="main_8c.html#a5708a379fc3617fea5407b19a4832fab" target="_top" xlink:title=" ">
<polygon fill="white" stroke="#666666" points="190,-19 77,-19 77,0 190,0 190,-19"/>
<text text-anchor="middle" x="133.5" y="-7" font-family="Helvetica,sans-Serif" font-size="10.00">CleanupAndFinalize</text>
</a>
</g>
</g>
<!-- Node2&#45;&gt;Node3 -->
<g id="edge2_Node000002_Node000003" class="edge">
<title>Node2&#45;&gt;Node3</title>
<g id="a_edge2_Node000002_Node000003"><a xlink:title=" ">
<path fill="none" stroke="#63b8ff" d="M215.55,-9.5C207.09,-9.5 198.59,-9.5 190.45,-9.5"/>
<polygon fill="#63b8ff" stroke="#63b8ff" points="215.83,-13 225.83,-9.5 215.83,-6 215.83,-13"/>
</a>
</g>
</g>
<!-- Node4 -->
<g id="Node000004" class="node">
<title>Node4</title>
<g id="a_Node000004"><a xlink:href="main_8c.html#a3c04138a5bfe5d72780bb7e82a18e627" target="_top" xlink:title=" ">
<polygon fill="white" stroke="#666666" points="41,-19 0,-19 0,0 41,0 41,-19"/>
<text text-anchor="middle" x="20.5" y="-7" font-family="Helvetica,sans-Serif" font-size="10.00">main</text>
</a>
</g>
</g>
<!-- Node3&#45;&gt;Node4 -->
<g id="edge3_Node000003_Node000004" class="edge">
<title>Node3&#45;&gt;Node4</title>
<g id="a_edge3_Node000003_Node000004"><a xlink:title=" ">
<path fill="none" stroke="#63b8ff" d="M66.58,-9.5C57.37,-9.5 48.56,-9.5 41.21,-9.5"/>
<polygon fill="#63b8ff" stroke="#63b8ff" points="66.67,-13 76.67,-9.5 66.67,-6 66.67,-13"/>
</a>
</g>
</g>
</g>
</svg>
