<?xml version="1.0" encoding="UTF-8" standalone="no"?>
<!DOCTYPE svg PUBLIC "-//W3C//DTD SVG 1.1//EN"
 "http://www.w3.org/Graphics/SVG/1.1/DTD/svg11.dtd">
<!-- Generated by graphviz version 2.43.0 (0)
 -->
<!-- Title: InitCudaWorkspaceImpl Pages: 1 -->
<svg width="704pt" height="177pt"
 viewBox="0.00 0.00 704.00 177.00" xmlns="http://www.w3.org/2000/svg" xmlns:xlink="http://www.w3.org/1999/xlink">
<g id="graph0" class="graph" transform="scale(1 1) rotate(0) translate(4 173)">
<title>InitCudaWorkspaceImpl</title>
<!-- Node1 -->
<g id="Node000001" class="node">
<title>Node1</title>
<g id="a_Node000001"><a xlink:title=" ">
<polygon fill="#999999" stroke="#666666" points="696,-93 564,-93 564,-74 696,-74 696,-93"/>
<text text-anchor="middle" x="630" y="-81" font-family="Helvetica,sans-Serif" font-size="10.00">InitCudaWorkspaceImpl</text>
</a>
</g>
</g>
<!-- Node2 -->
<g id="Node000002" class="node">
<title>Node2</title>
<g id="a_Node000002"><a xlink:href="cuda__wrapper_8cpp.html#af58a317c68baf828e294afef2d80de72" target="_top" xlink:title=" ">
<polygon fill="white" stroke="#666666" points="528,-93 418,-93 418,-74 528,-74 528,-93"/>
<text text-anchor="middle" x="473" y="-81" font-family="Helvetica,sans-Serif" font-size="10.00">InitCudaWorkspace</text>
</a>
</g>
</g>
<!-- Node1&#45;&gt;Node2 -->
<g id="edge1_Node000001_Node000002" class="edge">
<title>Node1&#45;&gt;Node2</title>
<g id="a_edge1_Node000001_Node000002"><a xlink:title=" ">
<path fill="none" stroke="#63b8ff" d="M553.46,-83.5C545.01,-83.5 536.54,-83.5 528.43,-83.5"/>
<polygon fill="#63b8ff" stroke="#63b8ff" points="553.72,-87 563.72,-83.5 553.72,-80 553.72,-87"/>
</a>
</g>
</g>
<!-- Node3 -->
<g id="Node000003" class="node">
<title>Node3</title>
<g id="a_Node000003"><a xlink:href="cuda__wrapper_8cpp.html#a5b5d23de31ae3759d7867e98dd6ea9e9" target="_top" xlink:title=" ">
<polygon fill="white" stroke="#666666" points="379.5,-169 224.5,-169 224.5,-150 379.5,-150 379.5,-169"/>
<text text-anchor="middle" x="302" y="-157" font-family="Helvetica,sans-Serif" font-size="10.00">PrepareCudaHostWorkspace</text>
</a>
</g>
</g>
<!-- Node2&#45;&gt;Node3 -->
<g id="edge2_Node000002_Node000003" class="edge">
<title>Node2&#45;&gt;Node3</title>
<g id="a_edge2_Node000002_Node000003"><a xlink:title=" ">
<path fill="none" stroke="#63b8ff" d="M449.36,-98.53C431.61,-109.83 405.96,-125.1 382,-135.5 368.85,-141.21 353.92,-146.12 340.61,-149.98"/>
<polygon fill="#63b8ff" stroke="#63b8ff" points="451.38,-101.39 457.88,-93.03 447.58,-95.51 451.38,-101.39"/>
</a>
</g>
</g>
<!-- Node4 -->
<g id="Node000004" class="node">
<title>Node4</title>
<g id="a_Node000004"><a xlink:href="cuda__processes_8c.html#a627a27228923fbc3e63f0f4e1c5aa765" target="_top" xlink:title=" ">
<polygon fill="white" stroke="#666666" points="186,-93 77,-93 77,-74 186,-74 186,-93"/>
<text text-anchor="middle" x="131.5" y="-81" font-family="Helvetica,sans-Serif" font-size="10.00">RunCudaProcesses</text>
</a>
</g>
</g>
<!-- Node2&#45;&gt;Node4 -->
<g id="edge8_Node000002_Node000004" class="edge">
<title>Node2&#45;&gt;Node4</title>
<g id="a_edge8_Node000002_Node000004"><a xlink:title=" ">
<path fill="none" stroke="#63b8ff" d="M425.64,-95.21C411.7,-98.21 396.31,-101.01 382,-102.5 311.27,-109.88 292.72,-109.92 222,-102.5 204.31,-100.64 184.96,-96.77 168.8,-93.01"/>
<polygon fill="#63b8ff" stroke="#63b8ff" points="426.5,-98.61 435.49,-93.01 424.97,-91.77 426.5,-98.61"/>
</a>
</g>
</g>
<!-- Node6 -->
<g id="Node000006" class="node">
<title>Node6</title>
<g id="a_Node000006"><a xlink:href="cuda__wrapper_8cpp.html#a483d07d861992ff5192a3dfd0bf632b4" target="_top" xlink:title=" ">
<polygon fill="white" stroke="#666666" points="382,-93 222,-93 222,-74 382,-74 382,-93"/>
<text text-anchor="middle" x="302" y="-81" font-family="Helvetica,sans-Serif" font-size="10.00">RunCudaElementCoordKernel</text>
</a>
</g>
</g>
<!-- Node2&#45;&gt;Node6 -->
<g id="edge5_Node000002_Node000006" class="edge">
<title>Node2&#45;&gt;Node6</title>
<g id="a_edge5_Node000002_Node000006"><a xlink:title=" ">
<path fill="none" stroke="#63b8ff" d="M407.35,-83.5C399.13,-83.5 390.64,-83.5 382.22,-83.5"/>
<polygon fill="#63b8ff" stroke="#63b8ff" points="407.6,-87 417.6,-83.5 407.6,-80 407.6,-87"/>
</a>
</g>
</g>
<!-- Node7 -->
<g id="Node000007" class="node">
<title>Node7</title>
<g id="a_Node000007"><a xlink:href="cuda__wrapper_8cpp.html#ab291e6a68fd618e7ab67e4a9d5cbf578" target="_top" xlink:title=" ">
<polygon fill="white" stroke="#666666" points="378.5,-56 225.5,-56 225.5,-37 378.5,-37 378.5,-56"/>
<text text-anchor="middle" x="302" y="-44" font-family="Helvetica,sans-Serif" font-size="10.00">RunCudaMetricTensorKernel</text>
</a>
</g>
</g>
<!-- Node2&#45;&gt;Node7 -->
<g id="edge6_Node000002_Node000007" class="edge">
<title>Node2&#45;&gt;Node7</title>
<g id="a_edge6_Node000002_Node000007"><a xlink:title=" ">
<path fill="none" stroke="#63b8ff" d="M418.47,-71.78C395.32,-66.71 368.58,-60.86 346.67,-56.06"/>
<polygon fill="#63b8ff" stroke="#63b8ff" points="417.96,-75.25 428.48,-73.97 419.46,-68.41 417.96,-75.25"/>
</a>
</g>
</g>
<!-- Node8 -->
<g id="Node000008" class="node">
<title>Node8</title>
<g id="a_Node000008"><a xlink:href="cuda__wrapper_8cpp.html#af0503da10b116484b9252c38eaa89a05" target="_top" xlink:title=" ">
<polygon fill="white" stroke="#666666" points="378.5,-19 225.5,-19 225.5,0 378.5,0 378.5,-19"/>
<text text-anchor="middle" x="302" y="-7" font-family="Helvetica,sans-Serif" font-size="10.00">RunCudaSubdivGeomKernel</text>
</a>
</g>
</g>
<!-- Node2&#45;&gt;Node8 -->
<g id="edge9_Node000002_Node000008" class="edge">
<title>Node2&#45;&gt;Node8</title>
<g id="a_edge9_Node000002_Node000008"><a xlink:title=" ">
<path fill="none" stroke="#63b8ff" d="M450.89,-67.97C433.27,-55.66 407.07,-38.87 382,-28.5 372.88,-24.72 362.83,-21.59 353.06,-19.04"/>
<polygon fill="#63b8ff" stroke="#63b8ff" points="449.1,-70.99 459.28,-73.94 453.16,-65.28 449.1,-70.99"/>
</a>
</g>
</g>
<!-- Node3&#45;&gt;Node4 -->
<g id="edge3_Node000003_Node000004" class="edge">
<title>Node3&#45;&gt;Node4</title>
<g id="a_edge3_Node000003_Node000004"><a xlink:title=" ">
<path fill="none" stroke="#63b8ff" d="M253.8,-147.11C243.17,-143.79 232.06,-139.88 222,-135.5 193.99,-123.3 163.71,-104.38 146.53,-93.03"/>
<polygon fill="#63b8ff" stroke="#63b8ff" points="252.8,-150.47 263.39,-150 254.82,-143.76 252.8,-150.47"/>
</a>
</g>
</g>
<!-- Node5 -->
<g id="Node000005" class="node">
<title>Node5</title>
<g id="a_Node000005"><a xlink:href="main_8c.html#a3c04138a5bfe5d72780bb7e82a18e627" target="_top" xlink:title=" ">
<polygon fill="white" stroke="#666666" points="41,-93 0,-93 0,-74 41,-74 41,-93"/>
<text text-anchor="middle" x="20.5" y="-81" font-family="Helvetica,sans-Serif" font-size="10.00">main</text>
</a>
</g>
</g>
<!-- Node4&#45;&gt;Node5 -->
<g id="edge4_Node000004_Node000005" class="edge">
<title>Node4&#45;&gt;Node5</title>
<g id="a_edge4_Node000004_Node000005"><a xlink:title=" ">
<path fill="none" stroke="#63b8ff" d="M66.79,-83.5C57.49,-83.5 48.57,-83.5 41.14,-83.5"/>
<polygon fill="#63b8ff" stroke="#63b8ff" points="66.96,-87 76.96,-83.5 66.96,-80 66.96,-87"/>
</a>
</g>
</g>
<!-- Node7&#45;&gt;Node4 -->
<g id="edge7_Node000007_Node000004" class="edge">
<title>Node7&#45;&gt;Node4</title>
<g id="a_edge7_Node000007_Node000004"><a xlink:title=" ">
<path fill="none" stroke="#63b8ff" d="M247.63,-58.22C224.55,-63.29 197.89,-69.14 176.04,-73.94"/>
<polygon fill="#63b8ff" stroke="#63b8ff" points="248.59,-61.59 257.61,-56.03 247.09,-54.75 248.59,-61.59"/>
</a>
</g>
</g>
<!-- Node8&#45;&gt;Node4 -->
<g id="edge10_Node000008_Node000004" class="edge">
<title>Node8&#45;&gt;Node4</title>
<g id="a_edge10_Node000008_Node000004"><a xlink:title=" ">
<path fill="none" stroke="#63b8ff" d="M241.27,-21.73C234.67,-23.71 228.13,-25.96 222,-28.5 192.69,-40.67 161.88,-61.7 145.14,-73.93"/>
<polygon fill="#63b8ff" stroke="#63b8ff" points="242.25,-25.09 250.93,-19.02 240.36,-18.35 242.25,-25.09"/>
</a>
</g>
</g>
</g>
</svg>
