<?xml version="1.0" encoding="UTF-8" standalone="no"?>
<!DOCTYPE svg PUBLIC "-//W3C//DTD SVG 1.1//EN"
 "http://www.w3.org/Graphics/SVG/1.1/DTD/svg11.dtd">
<!-- Generated by graphviz version 2.43.0 (0)
 -->
<!-- Title: cuda_processes.c Pages: 1 -->
<svg width="555pt" height="302pt"
 viewBox="0.00 0.00 555.00 302.00" xmlns="http://www.w3.org/2000/svg" xmlns:xlink="http://www.w3.org/1999/xlink">
<g id="graph0" class="graph" transform="scale(1 1) rotate(0) translate(4 298)">
<title>cuda_processes.c</title>
<!-- Node1 -->
<g id="Node000001" class="node">
<title>Node1</title>
<g id="a_Node000001"><a xlink:title=" ">
<polygon fill="#999999" stroke="#666666" points="234,-294 132,-294 132,-275 234,-275 234,-294"/>
<text text-anchor="middle" x="183" y="-282" font-family="Helvetica,sans-Serif" font-size="10.00">cuda_processes.c</text>
</a>
</g>
</g>
<!-- Node2 -->
<g id="Node000002" class="node">
<title>Node2</title>
<g id="a_Node000002"><a xlink:title=" ">
<polygon fill="#e0e0e0" stroke="#999999" points="56,-239 0,-239 0,-220 56,-220 56,-239"/>
<text text-anchor="middle" x="28" y="-227" font-family="Helvetica,sans-Serif" font-size="10.00">stddef.h</text>
</a>
</g>
</g>
<!-- Node1&#45;&gt;Node2 -->
<g id="edge1_Node000001_Node000002" class="edge">
<title>Node1&#45;&gt;Node2</title>
<g id="a_edge1_Node000001_Node000002"><a xlink:title=" ">
<path fill="none" stroke="#63b8ff" d="M158.1,-274.98C132.3,-266.16 91.78,-252.31 62.82,-242.41"/>
<polygon fill="#63b8ff" stroke="#63b8ff" points="63.69,-239.01 53.1,-239.08 61.43,-245.63 63.69,-239.01"/>
</a>
</g>
</g>
<!-- Node3 -->
<g id="Node000003" class="node">
<title>Node3</title>
<g id="a_Node000003"><a xlink:href="cuda__processes_8h.html" target="_top" xlink:title=" ">
<polygon fill="white" stroke="#666666" points="177.5,-239 74.5,-239 74.5,-220 177.5,-220 177.5,-239"/>
<text text-anchor="middle" x="126" y="-227" font-family="Helvetica,sans-Serif" font-size="10.00">cuda_processes.h</text>
</a>
</g>
</g>
<!-- Node1&#45;&gt;Node3 -->
<g id="edge2_Node000001_Node000003" class="edge">
<title>Node1&#45;&gt;Node3</title>
<g id="a_edge2_Node000001_Node000003"><a xlink:title=" ">
<path fill="none" stroke="#63b8ff" d="M173.84,-274.98C165.5,-267.23 152.97,-255.58 142.82,-246.14"/>
<polygon fill="#63b8ff" stroke="#63b8ff" points="145.03,-243.42 135.32,-239.17 140.26,-248.54 145.03,-243.42"/>
</a>
</g>
</g>
<!-- Node13 -->
<g id="Node000013" class="node">
<title>Node13</title>
<g id="a_Node000013"><a xlink:href="active__strain_8h.html" target="_top" xlink:title=" ">
<polygon fill="white" stroke="#666666" points="284.5,-239 195.5,-239 195.5,-220 284.5,-220 284.5,-239"/>
<text text-anchor="middle" x="240" y="-227" font-family="Helvetica,sans-Serif" font-size="10.00">active_strain.h</text>
</a>
</g>
</g>
<!-- Node1&#45;&gt;Node13 -->
<g id="edge15_Node000001_Node000013" class="edge">
<title>Node1&#45;&gt;Node13</title>
<g id="a_edge15_Node000001_Node000013"><a xlink:title=" ">
<path fill="none" stroke="#63b8ff" d="M192.16,-274.98C200.5,-267.23 213.03,-255.58 223.18,-246.14"/>
<polygon fill="#63b8ff" stroke="#63b8ff" points="225.74,-248.54 230.68,-239.17 220.97,-243.42 225.74,-248.54"/>
</a>
</g>
</g>
<!-- Node14 -->
<g id="Node000014" class="node">
<title>Node14</title>
<g id="a_Node000014"><a xlink:href="cuda__bridge_8h.html" target="_top" xlink:title=" ">
<polygon fill="white" stroke="#666666" points="387.5,-239 302.5,-239 302.5,-220 387.5,-220 387.5,-239"/>
<text text-anchor="middle" x="345" y="-227" font-family="Helvetica,sans-Serif" font-size="10.00">cuda_bridge.h</text>
</a>
</g>
</g>
<!-- Node1&#45;&gt;Node14 -->
<g id="edge16_Node000001_Node000014" class="edge">
<title>Node1&#45;&gt;Node14</title>
<g id="a_edge16_Node000001_Node000014"><a xlink:title=" ">
<path fill="none" stroke="#63b8ff" d="M209.03,-274.98C236.11,-266.13 278.71,-252.19 309.01,-242.28"/>
<polygon fill="#63b8ff" stroke="#63b8ff" points="310.35,-245.52 318.77,-239.08 308.18,-238.87 310.35,-245.52"/>
</a>
</g>
</g>
<!-- Node4 -->
<g id="Node000004" class="node">
<title>Node4</title>
<g id="a_Node000004"><a xlink:href="variables_8h.html" target="_top" xlink:title=" ">
<polygon fill="white" stroke="#666666" points="270.5,-184 199.5,-184 199.5,-165 270.5,-165 270.5,-184"/>
<text text-anchor="middle" x="235" y="-172" font-family="Helvetica,sans-Serif" font-size="10.00">variables.h</text>
</a>
</g>
</g>
<!-- Node3&#45;&gt;Node4 -->
<g id="edge3_Node000003_Node000004" class="edge">
<title>Node3&#45;&gt;Node4</title>
<g id="a_edge3_Node000003_Node000004"><a xlink:title=" ">
<path fill="none" stroke="#63b8ff" d="M143.51,-219.98C160.97,-211.5 188.01,-198.35 208.17,-188.54"/>
<polygon fill="#63b8ff" stroke="#63b8ff" points="209.71,-191.69 217.17,-184.17 206.64,-185.4 209.71,-191.69"/>
</a>
</g>
</g>
<!-- Node5 -->
<g id="Node000005" class="node">
<title>Node5</title>
<g id="a_Node000005"><a xlink:title=" ">
<polygon fill="#e0e0e0" stroke="#999999" points="144,-129 70,-129 70,-110 144,-110 144,-129"/>
<text text-anchor="middle" x="107" y="-117" font-family="Helvetica,sans-Serif" font-size="10.00">petscsnes.h</text>
</a>
</g>
</g>
<!-- Node4&#45;&gt;Node5 -->
<g id="edge4_Node000004_Node000005" class="edge">
<title>Node4&#45;&gt;Node5</title>
<g id="a_edge4_Node000004_Node000005"><a xlink:title=" ">
<path fill="none" stroke="#63b8ff" d="M214.43,-164.98C193.57,-156.34 161.03,-142.87 137.23,-133.02"/>
<polygon fill="#63b8ff" stroke="#63b8ff" points="138.52,-129.76 127.94,-129.17 135.84,-136.23 138.52,-129.76"/>
</a>
</g>
</g>
<!-- Node6 -->
<g id="Node000006" class="node">
<title>Node6</title>
<g id="a_Node000006"><a xlink:href="math_8h.html" target="_top" xlink:title=" ">
<polygon fill="white" stroke="#666666" points="286.5,-74 235.5,-74 235.5,-55 286.5,-55 286.5,-74"/>
<text text-anchor="middle" x="261" y="-62" font-family="Helvetica,sans-Serif" font-size="10.00">math.h</text>
</a>
</g>
</g>
<!-- Node4&#45;&gt;Node6 -->
<g id="edge5_Node000004_Node000006" class="edge">
<title>Node4&#45;&gt;Node6</title>
<g id="a_edge5_Node000004_Node000006"><a xlink:title=" ">
<path fill="none" stroke="#63b8ff" d="M221.47,-164.83C204.69,-152.94 179.64,-130.69 191,-110 198.77,-95.85 213.17,-85.56 226.89,-78.46"/>
<polygon fill="#63b8ff" stroke="#63b8ff" points="228.66,-81.49 236.19,-74.05 225.66,-75.17 228.66,-81.49"/>
</a>
</g>
</g>
<!-- Node8 -->
<g id="Node000008" class="node">
<title>Node8</title>
<g id="a_Node000008"><a xlink:title=" ">
<polygon fill="#e0e0e0" stroke="#999999" points="269.5,-129 200.5,-129 200.5,-110 269.5,-110 269.5,-129"/>
<text text-anchor="middle" x="235" y="-117" font-family="Helvetica,sans-Serif" font-size="10.00">petscvec.h</text>
</a>
</g>
</g>
<!-- Node4&#45;&gt;Node8 -->
<g id="edge8_Node000004_Node000008" class="edge">
<title>Node4&#45;&gt;Node8</title>
<g id="a_edge8_Node000004_Node000008"><a xlink:title=" ">
<path fill="none" stroke="#63b8ff" d="M235,-164.75C235,-157.8 235,-147.85 235,-139.13"/>
<polygon fill="#63b8ff" stroke="#63b8ff" points="238.5,-139.09 235,-129.09 231.5,-139.09 238.5,-139.09"/>
</a>
</g>
</g>
<!-- Node9 -->
<g id="Node000009" class="node">
<title>Node9</title>
<g id="a_Node000009"><a xlink:href="act__variables_8h.html" target="_top" xlink:title="Data containers for active&#45;strain kinematics, stress, and material data.">
<polygon fill="white" stroke="#666666" points="378.5,-129 287.5,-129 287.5,-110 378.5,-110 378.5,-129"/>
<text text-anchor="middle" x="333" y="-117" font-family="Helvetica,sans-Serif" font-size="10.00">act_variables.h</text>
</a>
</g>
</g>
<!-- Node4&#45;&gt;Node9 -->
<g id="edge9_Node000004_Node000009" class="edge">
<title>Node4&#45;&gt;Node9</title>
<g id="a_edge9_Node000004_Node000009"><a xlink:title=" ">
<path fill="none" stroke="#63b8ff" d="M250.75,-164.98C266.23,-156.61 290.09,-143.7 308.14,-133.95"/>
<polygon fill="#63b8ff" stroke="#63b8ff" points="309.84,-137.01 316.97,-129.17 306.51,-130.85 309.84,-137.01"/>
</a>
</g>
</g>
<!-- Node10 -->
<g id="Node000010" class="node">
<title>Node10</title>
<g id="a_Node000010"><a xlink:href="dmplex__types_8h.html" target="_top" xlink:title="Persistent DMPlex geometry context for Loop subdivision surfaces.">
<polygon fill="white" stroke="#666666" points="491.5,-129 396.5,-129 396.5,-110 491.5,-110 491.5,-129"/>
<text text-anchor="middle" x="444" y="-117" font-family="Helvetica,sans-Serif" font-size="10.00">dmplex_types.h</text>
</a>
</g>
</g>
<!-- Node4&#45;&gt;Node10 -->
<g id="edge12_Node000004_Node000010" class="edge">
<title>Node4&#45;&gt;Node10</title>
<g id="a_edge12_Node000004_Node000010"><a xlink:title=" ">
<path fill="none" stroke="#63b8ff" d="M268.58,-164.98C304.35,-155.91 361.12,-141.52 400.34,-131.57"/>
<polygon fill="#63b8ff" stroke="#63b8ff" points="401.32,-134.93 410.16,-129.08 399.6,-128.15 401.32,-134.93"/>
</a>
</g>
</g>
<!-- Node6&#45;&gt;Node6 -->
<g id="edge6_Node000006_Node000006" class="edge">
<title>Node6&#45;&gt;Node6</title>
<g id="a_edge6_Node000006_Node000006"><a xlink:title=" ">
<path fill="none" stroke="#63b8ff" d="M281.59,-74.07C293.45,-76.02 304.5,-72.83 304.5,-64.5 304.5,-58.64 299.04,-55.33 291.67,-54.55"/>
<polygon fill="#63b8ff" stroke="#63b8ff" points="291.45,-51.06 281.59,-54.93 291.71,-58.05 291.45,-51.06"/>
</a>
</g>
</g>
<!-- Node7 -->
<g id="Node000007" class="node">
<title>Node7</title>
<g id="a_Node000007"><a xlink:title=" ">
<polygon fill="#e0e0e0" stroke="#999999" points="331,-19 263,-19 263,0 331,0 331,-19"/>
<text text-anchor="middle" x="297" y="-7" font-family="Helvetica,sans-Serif" font-size="10.00">petscsys.h</text>
</a>
</g>
</g>
<!-- Node6&#45;&gt;Node7 -->
<g id="edge7_Node000006_Node000007" class="edge">
<title>Node6&#45;&gt;Node7</title>
<g id="a_edge7_Node000006_Node000007"><a xlink:title=" ">
<path fill="none" stroke="#63b8ff" d="M266.94,-54.75C271.98,-47.34 279.34,-36.5 285.51,-27.41"/>
<polygon fill="#63b8ff" stroke="#63b8ff" points="288.44,-29.33 291.17,-19.09 282.65,-25.39 288.44,-29.33"/>
</a>
</g>
</g>
<!-- Node9&#45;&gt;Node6 -->
<g id="edge11_Node000009_Node000006" class="edge">
<title>Node9&#45;&gt;Node6</title>
<g id="a_edge11_Node000009_Node000006"><a xlink:title=" ">
<path fill="none" stroke="#63b8ff" d="M321.43,-109.98C310.58,-102 294.12,-89.88 281.12,-80.31"/>
<polygon fill="#63b8ff" stroke="#63b8ff" points="282.91,-77.28 272.78,-74.17 278.76,-82.92 282.91,-77.28"/>
</a>
</g>
</g>
<!-- Node9&#45;&gt;Node7 -->
<g id="edge10_Node000009_Node000007" class="edge">
<title>Node9&#45;&gt;Node7</title>
<g id="a_edge10_Node000009_Node000007"><a xlink:title=" ">
<path fill="none" stroke="#63b8ff" d="M330.39,-109.84C326.67,-97.58 319.57,-74.5 313,-55 310.08,-46.35 306.68,-36.81 303.76,-28.79"/>
<polygon fill="#63b8ff" stroke="#63b8ff" points="307.02,-27.51 300.29,-19.33 300.45,-29.92 307.02,-27.51"/>
</a>
</g>
</g>
<!-- Node11 -->
<g id="Node000011" class="node">
<title>Node11</title>
<g id="a_Node000011"><a xlink:title=" ">
<polygon fill="#e0e0e0" stroke="#999999" points="469.5,-74 380.5,-74 380.5,-55 469.5,-55 469.5,-74"/>
<text text-anchor="middle" x="425" y="-62" font-family="Helvetica,sans-Serif" font-size="10.00">petscdmplex.h</text>
</a>
</g>
</g>
<!-- Node10&#45;&gt;Node11 -->
<g id="edge13_Node000010_Node000011" class="edge">
<title>Node10&#45;&gt;Node11</title>
<g id="a_edge13_Node000010_Node000011"><a xlink:title=" ">
<path fill="none" stroke="#63b8ff" d="M440.86,-109.75C438.32,-102.65 434.64,-92.4 431.47,-83.56"/>
<polygon fill="#63b8ff" stroke="#63b8ff" points="434.75,-82.32 428.08,-74.09 428.16,-84.68 434.75,-82.32"/>
</a>
</g>
</g>
<!-- Node12 -->
<g id="Node000012" class="node">
<title>Node12</title>
<g id="a_Node000012"><a xlink:title=" ">
<polygon fill="#e0e0e0" stroke="#999999" points="547,-74 487,-74 487,-55 547,-55 547,-74"/>
<text text-anchor="middle" x="517" y="-62" font-family="Helvetica,sans-Serif" font-size="10.00">petscsf.h</text>
</a>
</g>
</g>
<!-- Node10&#45;&gt;Node12 -->
<g id="edge14_Node000010_Node000012" class="edge">
<title>Node10&#45;&gt;Node12</title>
<g id="a_edge14_Node000010_Node000012"><a xlink:title=" ">
<path fill="none" stroke="#63b8ff" d="M455.73,-109.98C466.73,-102 483.42,-89.88 496.6,-80.31"/>
<polygon fill="#63b8ff" stroke="#63b8ff" points="499.02,-82.88 505.06,-74.17 494.91,-77.21 499.02,-82.88"/>
</a>
</g>
</g>
<!-- Node14&#45;&gt;Node4 -->
<g id="edge17_Node000014_Node000004" class="edge">
<title>Node14&#45;&gt;Node4</title>
<g id="a_edge17_Node000014_Node000004"><a xlink:title=" ">
<path fill="none" stroke="#63b8ff" d="M327.33,-219.98C309.71,-211.5 282.42,-198.35 262.07,-188.54"/>
<polygon fill="#63b8ff" stroke="#63b8ff" points="263.52,-185.36 252.99,-184.17 260.48,-191.66 263.52,-185.36"/>
</a>
</g>
</g>
</g>
</svg>
