<?xml version="1.0" encoding="UTF-8" standalone="no"?>
<!DOCTYPE svg PUBLIC "-//W3C//DTD SVG 1.1//EN"
 "http://www.w3.org/Graphics/SVG/1.1/DTD/svg11.dtd">
<!-- Generated by graphviz version 2.43.0 (0)
 -->
<!-- Title: RunDMPlexGeomSubdiv Pages: 1 -->
<svg width="932pt" height="384pt"
 viewBox="0.00 0.00 932.00 384.00" xmlns="http://www.w3.org/2000/svg" xmlns:xlink="http://www.w3.org/1999/xlink">
<g id="graph0" class="graph" transform="scale(1 1) rotate(0) translate(4 380)">
<title>RunDMPlexGeomSubdiv</title>
<!-- Node1 -->
<g id="Node000001" class="node">
<title>Node1</title>
<g id="a_Node000001"><a xlink:title="Drop&#45;in geometry call: setup + update + destroy in one shot.">
<polygon fill="#999999" stroke="#666666" points="135,-197 0,-197 0,-178 135,-178 135,-197"/>
<text text-anchor="middle" x="67.5" y="-185" font-family="Helvetica,sans-Serif" font-size="10.00">RunDMPlexGeomSubdiv</text>
</a>
</g>
</g>
<!-- Node2 -->
<g id="Node000002" class="node">
<title>Node2</title>
<g id="a_Node000002"><a xlink:href="dmplex__geom_8c.html#acd9d927472d6fc4a438b9c505e2f27c7" target="_top" xlink:title="Free all memory owned by the DMPlex geometry context.">
<polygon fill="white" stroke="#666666" points="319,-339 171,-339 171,-320 319,-320 319,-339"/>
<text text-anchor="middle" x="245" y="-327" font-family="Helvetica,sans-Serif" font-size="10.00">FEM_DMPlexGeomDestroy</text>
</a>
</g>
</g>
<!-- Node1&#45;&gt;Node2 -->
<g id="edge1_Node000001_Node000002" class="edge">
<title>Node1&#45;&gt;Node2</title>
<g id="a_edge1_Node000001_Node000002"><a xlink:title=" ">
<path fill="none" stroke="#63b8ff" d="M80.29,-197.04C109.74,-220.87 186.84,-283.25 223.74,-313.11"/>
<polygon fill="#63b8ff" stroke="#63b8ff" points="221.82,-316.06 231.8,-319.63 226.23,-310.62 221.82,-316.06"/>
</a>
</g>
</g>
<!-- Node5 -->
<g id="Node000005" class="node">
<title>Node5</title>
<g id="a_Node000005"><a xlink:href="dmplex__geom_8c.html#aeca513213e67a07a712cc41e8c6412ea" target="_top" xlink:title="One&#45;time setup of the distributed DMPlex geometry context.">
<polygon fill="white" stroke="#666666" points="313.5,-197 176.5,-197 176.5,-178 313.5,-178 313.5,-197"/>
<text text-anchor="middle" x="245" y="-185" font-family="Helvetica,sans-Serif" font-size="10.00">FEM_DMPlexGeomSetup</text>
</a>
</g>
</g>
<!-- Node1&#45;&gt;Node5 -->
<g id="edge4_Node000001_Node000005" class="edge">
<title>Node1&#45;&gt;Node5</title>
<g id="a_edge4_Node000001_Node000005"><a xlink:title=" ">
<path fill="none" stroke="#63b8ff" d="M135.1,-187.5C145.21,-187.5 155.72,-187.5 166.04,-187.5"/>
<polygon fill="#63b8ff" stroke="#63b8ff" points="166.28,-191 176.28,-187.5 166.28,-184 166.28,-191"/>
</a>
</g>
</g>
<!-- Node19 -->
<g id="Node000019" class="node">
<title>Node19</title>
<g id="a_Node000019"><a xlink:href="dmplex__geom_8c.html#af7fb8fc68c27b224f0458d0c42911fe6" target="_top" xlink:title="Per&#45;Newton&#45;step geometry update.">
<polygon fill="white" stroke="#666666" points="317.5,-105 172.5,-105 172.5,-86 317.5,-86 317.5,-105"/>
<text text-anchor="middle" x="245" y="-93" font-family="Helvetica,sans-Serif" font-size="10.00">FEM_DMPlexGeomUpdate</text>
</a>
</g>
</g>
<!-- Node1&#45;&gt;Node19 -->
<g id="edge18_Node000001_Node000019" class="edge">
<title>Node1&#45;&gt;Node19</title>
<g id="a_edge18_Node000001_Node000019"><a xlink:title=" ">
<path fill="none" stroke="#63b8ff" d="M86.95,-177.83C117.97,-161.57 180.72,-128.67 216.8,-109.76"/>
<polygon fill="#63b8ff" stroke="#63b8ff" points="218.57,-112.78 225.8,-105.04 215.32,-106.59 218.57,-112.78"/>
</a>
</g>
</g>
<!-- Node3 -->
<g id="Node000003" class="node">
<title>Node3</title>
<g id="a_Node000003"><a xlink:href="dmplex__geom_8c.html#a7e60d333a6f6667a8a2f4fdb3651a3f4" target="_top" xlink:title="Free all heap memory owned by a DMPlexPatchExchange and zero the struct.">
<polygon fill="white" stroke="#666666" points="530.5,-376 359.5,-376 359.5,-357 530.5,-357 530.5,-376"/>
<text text-anchor="middle" x="445" y="-364" font-family="Helvetica,sans-Serif" font-size="10.00">DMPlexPatchExchangeDestroy_</text>
</a>
</g>
</g>
<!-- Node2&#45;&gt;Node3 -->
<g id="edge2_Node000002_Node000003" class="edge">
<title>Node2&#45;&gt;Node3</title>
<g id="a_edge2_Node000002_Node000003"><a xlink:title=" ">
<path fill="none" stroke="#63b8ff" d="M296.99,-339.03C323.22,-343.93 355.37,-349.94 382.92,-355.09"/>
<polygon fill="#63b8ff" stroke="#63b8ff" points="382.37,-358.54 392.84,-356.94 383.65,-351.66 382.37,-358.54"/>
</a>
</g>
</g>
<!-- Node4 -->
<g id="Node000004" class="node">
<title>Node4</title>
<g id="a_Node000004"><a xlink:href="dmplex__geom_8c.html#a8661deca8813ac6ed08fa660b602fefe" target="_top" xlink:title="Free all heap memory owned by a DMPlexPatchLayout and zero the struct.">
<polygon fill="white" stroke="#666666" points="523.5,-339 366.5,-339 366.5,-320 523.5,-320 523.5,-339"/>
<text text-anchor="middle" x="445" y="-327" font-family="Helvetica,sans-Serif" font-size="10.00">DMPlexPatchLayoutDestroy_</text>
</a>
</g>
</g>
<!-- Node2&#45;&gt;Node4 -->
<g id="edge3_Node000002_Node000004" class="edge">
<title>Node2&#45;&gt;Node4</title>
<g id="a_edge3_Node000002_Node000004"><a xlink:title=" ">
<path fill="none" stroke="#63b8ff" d="M319.17,-329.5C331.21,-329.5 343.81,-329.5 356.17,-329.5"/>
<polygon fill="#63b8ff" stroke="#63b8ff" points="356.49,-333 366.49,-329.5 356.49,-326 356.49,-333"/>
</a>
</g>
</g>
<!-- Node6 -->
<g id="Node000006" class="node">
<title>Node6</title>
<g id="a_Node000006"><a xlink:href="dmplex__geom_8c.html#a25a289b6847656028b83d98388767fc5" target="_top" xlink:title="Build a global table mapping each original vertex index to its owning MPI rank.">
<polygon fill="white" stroke="#666666" points="516.5,-301.5 373.5,-301.5 373.5,-271.5 516.5,-271.5 516.5,-301.5"/>
<text text-anchor="start" x="381.5" y="-289.5" font-family="Helvetica,sans-Serif" font-size="10.00">BuildOriginalVertexOwner</text>
<text text-anchor="middle" x="445" y="-278.5" font-family="Helvetica,sans-Serif" font-size="10.00">Table_</text>
</a>
</g>
</g>
<!-- Node5&#45;&gt;Node6 -->
<g id="edge5_Node000005_Node000006" class="edge">
<title>Node5&#45;&gt;Node6</title>
<g id="a_edge5_Node000005_Node000006"><a xlink:title=" ">
<path fill="none" stroke="#63b8ff" d="M257.29,-197.23C276.25,-213.1 316.22,-244.57 355,-262.5 359.31,-264.49 363.82,-266.35 368.42,-268.07"/>
<polygon fill="#63b8ff" stroke="#63b8ff" points="367.37,-271.41 377.97,-271.41 369.69,-264.8 367.37,-271.41"/>
</a>
</g>
</g>
<!-- Node7 -->
<g id="Node000007" class="node">
<title>Node7</title>
<g id="a_Node000007"><a xlink:href="dmplex__geom_8c.html#a661af262a984dd056c4489c06984eac8" target="_top" xlink:title="Build the DMPlexPatchExchange SF for cross&#45;rank coordinate fetching.">
<polygon fill="white" stroke="#666666" points="531.5,-253 358.5,-253 358.5,-234 531.5,-234 531.5,-253"/>
<text text-anchor="middle" x="445" y="-241" font-family="Helvetica,sans-Serif" font-size="10.00">BuildPatchCoordinateExchange_</text>
</a>
</g>
</g>
<!-- Node5&#45;&gt;Node7 -->
<g id="edge6_Node000005_Node000007" class="edge">
<title>Node5&#45;&gt;Node7</title>
<g id="a_edge6_Node000005_Node000007"><a xlink:title=" ">
<path fill="none" stroke="#63b8ff" d="M270.38,-197.07C292.27,-205.4 325.43,-217.4 355,-225.5 363.2,-227.75 371.89,-229.84 380.5,-231.76"/>
<polygon fill="#63b8ff" stroke="#63b8ff" points="380.03,-235.24 390.54,-233.92 381.5,-228.39 380.03,-235.24"/>
</a>
</g>
</g>
<!-- Node8 -->
<g id="Node000008" class="node">
<title>Node8</title>
<g id="a_Node000008"><a xlink:href="dmplex__geom_8c.html#ab02736f3446add6db615133986b8a51c" target="_top" xlink:title="Distribute the serial DMPlex and return per&#45;rank original&#45;index arrays.">
<polygon fill="white" stroke="#666666" points="518,-216 372,-216 372,-197 518,-197 518,-216"/>
<text text-anchor="middle" x="445" y="-204" font-family="Helvetica,sans-Serif" font-size="10.00">CreateDistributedDMPlex_</text>
</a>
</g>
</g>
<!-- Node5&#45;&gt;Node8 -->
<g id="edge7_Node000005_Node000008" class="edge">
<title>Node5&#45;&gt;Node8</title>
<g id="a_edge7_Node000005_Node000008"><a xlink:title=" ">
<path fill="none" stroke="#63b8ff" d="M313.59,-193.99C329.03,-195.47 345.6,-197.06 361.58,-198.59"/>
<polygon fill="#63b8ff" stroke="#63b8ff" points="361.69,-202.12 371.98,-199.59 362.36,-195.15 361.69,-202.12"/>
</a>
</g>
</g>
<!-- Node10 -->
<g id="Node000010" class="node">
<title>Node10</title>
<g id="a_Node000010"><a xlink:href="dmplex__geom_8c.html#aa4423d1b5775f32ebd063753442784a2" target="_top" xlink:title="Copy Loop subdivision patch stencil data from IBMNodes to a local layout.">
<polygon fill="white" stroke="#666666" points="520.5,-179 369.5,-179 369.5,-160 520.5,-160 520.5,-179"/>
<text text-anchor="middle" x="445" y="-167" font-family="Helvetica,sans-Serif" font-size="10.00">DMPlexPatchLayoutCreate_</text>
</a>
</g>
</g>
<!-- Node5&#45;&gt;Node10 -->
<g id="edge9_Node000005_Node000010" class="edge">
<title>Node5&#45;&gt;Node10</title>
<g id="a_edge9_Node000005_Node000010"><a xlink:title=" ">
<path fill="none" stroke="#63b8ff" d="M313.59,-181.36C328.15,-180.03 343.73,-178.62 358.86,-177.24"/>
<polygon fill="#63b8ff" stroke="#63b8ff" points="359.61,-180.69 369.25,-176.3 358.97,-173.72 359.61,-180.69"/>
</a>
</g>
</g>
<!-- Node11 -->
<g id="Node000011" class="node">
<title>Node11</title>
<g id="a_Node000011"><a xlink:href="active__strain_8c.html#ac93e65e44aa9af3d11c2165016210d87" target="_top" xlink:title="Update reference midsurface geometry cache for one element.">
<polygon fill="white" stroke="#666666" points="517.5,-142 372.5,-142 372.5,-123 517.5,-123 517.5,-142"/>
<text text-anchor="middle" x="445" y="-130" font-family="Helvetica,sans-Serif" font-size="10.00">ElemUpdateGeom0Subdiv</text>
</a>
</g>
</g>
<!-- Node5&#45;&gt;Node11 -->
<g id="edge10_Node000005_Node000011" class="edge">
<title>Node5&#45;&gt;Node11</title>
<g id="a_edge10_Node000005_Node000011"><a xlink:title=" ">
<path fill="none" stroke="#63b8ff" d="M272.19,-177.96C294.12,-170.19 326.34,-159.27 355,-151.5 364.61,-148.9 374.88,-146.42 384.9,-144.17"/>
<polygon fill="#63b8ff" stroke="#63b8ff" points="385.79,-147.56 394.81,-142 384.29,-140.73 385.79,-147.56"/>
</a>
</g>
</g>
<!-- Node18 -->
<g id="Node000018" class="node">
<title>Node18</title>
<g id="a_Node000018"><a xlink:href="dmplex__geom_8c.html#a0e285c5152466ed0d16f3ccb265e2c99" target="_top" xlink:title="Broadcast updated vertex coordinates from owning ranks to all ranks that need them.">
<polygon fill="white" stroke="#666666" points="535,-105 355,-105 355,-86 535,-86 535,-105"/>
<text text-anchor="middle" x="445" y="-93" font-family="Helvetica,sans-Serif" font-size="10.00">UpdatePatchRemoteCoordinates_</text>
</a>
</g>
</g>
<!-- Node5&#45;&gt;Node18 -->
<g id="edge17_Node000005_Node000018" class="edge">
<title>Node5&#45;&gt;Node18</title>
<g id="a_edge17_Node000005_Node000018"><a xlink:title=" ">
<path fill="none" stroke="#63b8ff" d="M257.24,-177.81C276.12,-162.06 315.99,-131.01 355,-114.5 361.16,-111.89 367.71,-109.63 374.37,-107.67"/>
<polygon fill="#63b8ff" stroke="#63b8ff" points="375.42,-111.01 384.15,-105 373.58,-104.25 375.42,-111.01"/>
</a>
</g>
</g>
<!-- Node9 -->
<g id="Node000009" class="node">
<title>Node9</title>
<g id="a_Node000009"><a xlink:href="dmplex__geom_8c.html#a7888018139fb6d8231505d5c8d4abbf9" target="_top" xlink:title="Construct a serial DMPlex from the IBMNodes connectivity on rank 0.">
<polygon fill="white" stroke="#666666" points="709,-216 597,-216 597,-197 709,-197 709,-216"/>
<text text-anchor="middle" x="653" y="-204" font-family="Helvetica,sans-Serif" font-size="10.00">BuildSerialDMPlex_</text>
</a>
</g>
</g>
<!-- Node8&#45;&gt;Node9 -->
<g id="edge8_Node000008_Node000009" class="edge">
<title>Node8&#45;&gt;Node9</title>
<g id="a_edge8_Node000008_Node000009"><a xlink:title=" ">
<path fill="none" stroke="#63b8ff" d="M518.05,-206.5C540.38,-206.5 564.86,-206.5 586.71,-206.5"/>
<polygon fill="#63b8ff" stroke="#63b8ff" points="586.88,-210 596.88,-206.5 586.88,-203 586.88,-210"/>
</a>
</g>
</g>
<!-- Node12 -->
<g id="Node000012" class="node">
<title>Node12</title>
<g id="a_Node000012"><a xlink:href="active__strain_8c.html#a9ef026a24ded6fec7243fd82f49394c3" target="_top" xlink:title=" ">
<polygon fill="white" stroke="#666666" points="735,-110.5 571,-110.5 571,-80.5 735,-80.5 735,-110.5"/>
<text text-anchor="start" x="579" y="-98.5" font-family="Helvetica,sans-Serif" font-size="10.00">ElemUpdateGeomSubdivFrom</text>
<text text-anchor="middle" x="653" y="-87.5" font-family="Helvetica,sans-Serif" font-size="10.00">Coords_</text>
</a>
</g>
</g>
<!-- Node11&#45;&gt;Node12 -->
<g id="edge11_Node000011_Node000012" class="edge">
<title>Node11&#45;&gt;Node12</title>
<g id="a_edge11_Node000011_Node000012"><a xlink:title=" ">
<path fill="none" stroke="#63b8ff" d="M499.05,-122.97C517.88,-119.59 539.66,-115.68 560.76,-111.89"/>
<polygon fill="#63b8ff" stroke="#63b8ff" points="561.5,-115.31 570.72,-110.1 560.26,-108.42 561.5,-115.31"/>
</a>
</g>
</g>
<!-- Node13 -->
<g id="Node000013" class="node">
<title>Node13</title>
<g id="a_Node000013"><a xlink:href="math_8c.html#a7ef9263b0a3a10c2cd00bb4dc0059d70" target="_top" xlink:title=" ">
<polygon fill="white" stroke="#666666" points="872.5,-179 822.5,-179 822.5,-160 872.5,-160 872.5,-179"/>
<text text-anchor="middle" x="847.5" y="-167" font-family="Helvetica,sans-Serif" font-size="10.00">AMULT</text>
</a>
</g>
</g>
<!-- Node12&#45;&gt;Node13 -->
<g id="edge12_Node000012_Node000013" class="edge">
<title>Node12&#45;&gt;Node13</title>
<g id="a_edge12_Node000012_Node000013"><a xlink:title=" ">
<path fill="none" stroke="#63b8ff" d="M681.19,-110.55C704.46,-122.94 739.16,-140.23 771,-151.5 784.23,-156.18 799.19,-160.04 812.29,-162.96"/>
<polygon fill="#63b8ff" stroke="#63b8ff" points="811.81,-166.43 822.32,-165.1 813.27,-159.59 811.81,-166.43"/>
</a>
</g>
</g>
<!-- Node14 -->
<g id="Node000014" class="node">
<title>Node14</title>
<g id="a_Node000014"><a xlink:href="math_8c.html#a9d60990d26296194c921d537ea26f3c7" target="_top" xlink:title=" ">
<polygon fill="white" stroke="#666666" points="872.5,-142 822.5,-142 822.5,-123 872.5,-123 872.5,-142"/>
<text text-anchor="middle" x="847.5" y="-130" font-family="Helvetica,sans-Serif" font-size="10.00">CROSS</text>
</a>
</g>
</g>
<!-- Node12&#45;&gt;Node14 -->
<g id="edge13_Node000012_Node000014" class="edge">
<title>Node12&#45;&gt;Node14</title>
<g id="a_edge13_Node000012_Node000014"><a xlink:title=" ">
<path fill="none" stroke="#63b8ff" d="M732.3,-110.55C760.15,-115.9 790.09,-121.66 812.32,-125.93"/>
<polygon fill="#63b8ff" stroke="#63b8ff" points="811.79,-129.39 822.27,-127.84 813.11,-122.52 811.79,-129.39"/>
</a>
</g>
</g>
<!-- Node15 -->
<g id="Node000015" class="node">
<title>Node15</title>
<g id="a_Node000015"><a xlink:href="math_8c.html#a870a70f4845a041458d9bdb0dd7aabd3" target="_top" xlink:title=" ">
<polygon fill="white" stroke="#666666" points="866.5,-105 828.5,-105 828.5,-86 866.5,-86 866.5,-105"/>
<text text-anchor="middle" x="847.5" y="-93" font-family="Helvetica,sans-Serif" font-size="10.00">DOT</text>
</a>
</g>
</g>
<!-- Node12&#45;&gt;Node15 -->
<g id="edge14_Node000012_Node000015" class="edge">
<title>Node12&#45;&gt;Node15</title>
<g id="a_edge14_Node000012_Node000015"><a xlink:title=" ">
<path fill="none" stroke="#63b8ff" d="M735.08,-95.5C764.61,-95.5 796.1,-95.5 818.04,-95.5"/>
<polygon fill="#63b8ff" stroke="#63b8ff" points="818.29,-99 828.29,-95.5 818.29,-92 818.29,-99"/>
</a>
</g>
</g>
<!-- Node16 -->
<g id="Node000016" class="node">
<title>Node16</title>
<g id="a_Node000016"><a xlink:href="active__strain_8c.html#af8eb71852e7e9e1290f27656e66736fe" target="_top" xlink:title=" ">
<polygon fill="white" stroke="#666666" points="924,-67.5 771,-67.5 771,-37.5 924,-37.5 924,-67.5"/>
<text text-anchor="start" x="779" y="-55.5" font-family="Helvetica,sans-Serif" font-size="10.00">SubdivGeomEnsureIrregular</text>
<text text-anchor="middle" x="847.5" y="-44.5" font-family="Helvetica,sans-Serif" font-size="10.00">Arrays_</text>
</a>
</g>
</g>
<!-- Node12&#45;&gt;Node16 -->
<g id="edge15_Node000012_Node000016" class="edge">
<title>Node12&#45;&gt;Node16</title>
<g id="a_edge15_Node000012_Node000016"><a xlink:title=" ">
<path fill="none" stroke="#63b8ff" d="M721.33,-80.46C736.86,-76.99 753.5,-73.27 769.41,-69.72"/>
<polygon fill="#63b8ff" stroke="#63b8ff" points="770.21,-73.13 779.21,-67.53 768.69,-66.3 770.21,-73.13"/>
</a>
</g>
</g>
<!-- Node17 -->
<g id="Node000017" class="node">
<title>Node17</title>
<g id="a_Node000017"><a xlink:href="math_8c.html#ac616709995f2ae60c4308ffa328337d7" target="_top" xlink:title=" ">
<polygon fill="white" stroke="#666666" points="868,-19 827,-19 827,0 868,0 868,-19"/>
<text text-anchor="middle" x="847.5" y="-7" font-family="Helvetica,sans-Serif" font-size="10.00">UNIT</text>
</a>
</g>
</g>
<!-- Node12&#45;&gt;Node17 -->
<g id="edge16_Node000012_Node000017" class="edge">
<title>Node12&#45;&gt;Node17</title>
<g id="a_edge16_Node000012_Node000017"><a xlink:title=" ">
<path fill="none" stroke="#63b8ff" d="M675.94,-80.49C698.78,-65.46 736.05,-42.59 771,-28.5 785.58,-22.62 802.51,-18.16 816.63,-15.04"/>
<polygon fill="#63b8ff" stroke="#63b8ff" points="817.72,-18.39 826.8,-12.92 816.29,-11.54 817.72,-18.39"/>
</a>
</g>
</g>
<!-- Node19&#45;&gt;Node18 -->
<g id="edge21_Node000019_Node000018" class="edge">
<title>Node19&#45;&gt;Node18</title>
<g id="a_edge21_Node000019_Node000018"><a xlink:title=" ">
<path fill="none" stroke="#63b8ff" d="M317.76,-95.5C326.53,-95.5 335.6,-95.5 344.68,-95.5"/>
<polygon fill="#63b8ff" stroke="#63b8ff" points="344.91,-99 354.91,-95.5 344.91,-92 344.91,-99"/>
</a>
</g>
</g>
<!-- Node20 -->
<g id="Node000020" class="node">
<title>Node20</title>
<g id="a_Node000020"><a xlink:href="active__strain_8c.html#a04fa5da4f55d0663ad5ec7a3534de0af" target="_top" xlink:title="Update current midsurface geometry cache for one element.">
<polygon fill="white" stroke="#666666" points="514.5,-68 375.5,-68 375.5,-49 514.5,-49 514.5,-68"/>
<text text-anchor="middle" x="445" y="-56" font-family="Helvetica,sans-Serif" font-size="10.00">ElemUpdateGeomSubdiv</text>
</a>
</g>
</g>
<!-- Node19&#45;&gt;Node20 -->
<g id="edge19_Node000019_Node000020" class="edge">
<title>Node19&#45;&gt;Node20</title>
<g id="a_edge19_Node000019_Node000020"><a xlink:title=" ">
<path fill="none" stroke="#63b8ff" d="M296.99,-85.97C323.22,-81.07 355.37,-75.06 382.92,-69.91"/>
<polygon fill="#63b8ff" stroke="#63b8ff" points="383.65,-73.34 392.84,-68.06 382.37,-66.46 383.65,-73.34"/>
</a>
</g>
</g>
<!-- Node20&#45;&gt;Node12 -->
<g id="edge20_Node000020_Node000012" class="edge">
<title>Node20&#45;&gt;Node12</title>
<g id="a_edge20_Node000020_Node000012"><a xlink:title=" ">
<path fill="none" stroke="#63b8ff" d="M499.05,-68.03C517.88,-71.41 539.66,-75.32 560.76,-79.11"/>
<polygon fill="#63b8ff" stroke="#63b8ff" points="560.26,-82.58 570.72,-80.9 561.5,-75.69 560.26,-82.58"/>
</a>
</g>
</g>
</g>
</svg>
