<?xml version="1.0" encoding="UTF-8" standalone="no"?>
<!DOCTYPE svg PUBLIC "-//W3C//DTD SVG 1.1//EN"
 "http://www.w3.org/Graphics/SVG/1.1/DTD/svg11.dtd">
<!-- Generated by graphviz version 2.43.0 (0)
 -->
<!-- Title: dmplex_geom.c Pages: 1 -->
<svg width="526pt" height="302pt"
 viewBox="0.00 0.00 526.00 302.00" xmlns="http://www.w3.org/2000/svg" xmlns:xlink="http://www.w3.org/1999/xlink">
<g id="graph0" class="graph" transform="scale(1 1) rotate(0) translate(4 298)">
<title>dmplex_geom.c</title>
<!-- Node1 -->
<g id="Node000001" class="node">
<title>Node1</title>
<g id="a_Node000001"><a xlink:title="Distributed geometry kernel for Loop subdivision surfaces using PETSc DMPlex.">
<polygon fill="#999999" stroke="#666666" points="305,-294 210,-294 210,-275 305,-275 305,-294"/>
<text text-anchor="middle" x="257.5" y="-282" font-family="Helvetica,sans-Serif" font-size="10.00">dmplex_geom.c</text>
</a>
</g>
</g>
<!-- Node2 -->
<g id="Node000002" class="node">
<title>Node2</title>
<g id="a_Node000002"><a xlink:title=" ">
<polygon fill="#e0e0e0" stroke="#999999" points="89,-74 0,-74 0,-55 89,-55 89,-74"/>
<text text-anchor="middle" x="44.5" y="-62" font-family="Helvetica,sans-Serif" font-size="10.00">petscdmplex.h</text>
</a>
</g>
</g>
<!-- Node1&#45;&gt;Node2 -->
<g id="edge1_Node000001_Node000002" class="edge">
<title>Node1&#45;&gt;Node2</title>
<g id="a_edge1_Node000001_Node000002"><a xlink:title=" ">
<path fill="none" stroke="#63b8ff" d="M235.24,-274.91C190.36,-256.23 89.78,-207.22 48.5,-129 41.32,-115.4 40.77,-97.81 41.76,-84.6"/>
<polygon fill="#63b8ff" stroke="#63b8ff" points="45.27,-84.64 42.89,-74.32 38.32,-83.87 45.27,-84.64"/>
</a>
</g>
</g>
<!-- Node3 -->
<g id="Node000003" class="node">
<title>Node3</title>
<g id="a_Node000003"><a xlink:title=" ">
<polygon fill="#e0e0e0" stroke="#999999" points="181.5,-74 121.5,-74 121.5,-55 181.5,-55 181.5,-74"/>
<text text-anchor="middle" x="151.5" y="-62" font-family="Helvetica,sans-Serif" font-size="10.00">petscsf.h</text>
</a>
</g>
</g>
<!-- Node1&#45;&gt;Node3 -->
<g id="edge2_Node000001_Node000003" class="edge">
<title>Node1&#45;&gt;Node3</title>
<g id="a_edge2_Node000001_Node000003"><a xlink:title=" ">
<path fill="none" stroke="#63b8ff" d="M241.68,-274.97C228.77,-267.22 211,-254.63 200.5,-239 191.73,-225.94 166.52,-126.4 156.09,-84.25"/>
<polygon fill="#63b8ff" stroke="#63b8ff" points="159.46,-83.31 153.68,-74.43 152.67,-84.98 159.46,-83.31"/>
</a>
</g>
</g>
<!-- Node4 -->
<g id="Node000004" class="node">
<title>Node4</title>
<g id="a_Node000004"><a xlink:title=" ">
<polygon fill="#e0e0e0" stroke="#999999" points="376,-239 323,-239 323,-220 376,-220 376,-239"/>
<text text-anchor="middle" x="349.5" y="-227" font-family="Helvetica,sans-Serif" font-size="10.00">string.h</text>
</a>
</g>
</g>
<!-- Node1&#45;&gt;Node4 -->
<g id="edge3_Node000001_Node000004" class="edge">
<title>Node1&#45;&gt;Node4</title>
<g id="a_edge3_Node000001_Node000004"><a xlink:title=" ">
<path fill="none" stroke="#63b8ff" d="M272.28,-274.98C286.68,-266.69 308.81,-253.94 325.69,-244.22"/>
<polygon fill="#63b8ff" stroke="#63b8ff" points="327.53,-247.19 334.45,-239.17 324.04,-241.13 327.53,-247.19"/>
</a>
</g>
</g>
<!-- Node5 -->
<g id="Node000005" class="node">
<title>Node5</title>
<g id="a_Node000005"><a xlink:href="dmplex__geom_8h.html" target="_top" xlink:title=" ">
<polygon fill="white" stroke="#666666" points="305,-239 210,-239 210,-220 305,-220 305,-239"/>
<text text-anchor="middle" x="257.5" y="-227" font-family="Helvetica,sans-Serif" font-size="10.00">dmplex_geom.h</text>
</a>
</g>
</g>
<!-- Node1&#45;&gt;Node5 -->
<g id="edge4_Node000001_Node000005" class="edge">
<title>Node1&#45;&gt;Node5</title>
<g id="a_edge4_Node000001_Node000005"><a xlink:title=" ">
<path fill="none" stroke="#63b8ff" d="M257.5,-274.75C257.5,-267.8 257.5,-257.85 257.5,-249.13"/>
<polygon fill="#63b8ff" stroke="#63b8ff" points="261,-249.09 257.5,-239.09 254,-249.09 261,-249.09"/>
</a>
</g>
</g>
<!-- Node13 -->
<g id="Node000013" class="node">
<title>Node13</title>
<g id="a_Node000013"><a xlink:href="active__strain_8h.html" target="_top" xlink:title=" ">
<polygon fill="white" stroke="#666666" points="483,-239 394,-239 394,-220 483,-220 483,-239"/>
<text text-anchor="middle" x="438.5" y="-227" font-family="Helvetica,sans-Serif" font-size="10.00">active_strain.h</text>
</a>
</g>
</g>
<!-- Node1&#45;&gt;Node13 -->
<g id="edge17_Node000001_Node000013" class="edge">
<title>Node1&#45;&gt;Node13</title>
<g id="a_edge17_Node000001_Node000013"><a xlink:title=" ">
<path fill="none" stroke="#63b8ff" d="M286.58,-274.98C317.1,-266.05 365.26,-251.94 399.16,-242.02"/>
<polygon fill="#63b8ff" stroke="#63b8ff" points="400.58,-245.25 409.19,-239.08 398.61,-238.53 400.58,-245.25"/>
</a>
</g>
</g>
<!-- Node6 -->
<g id="Node000006" class="node">
<title>Node6</title>
<g id="a_Node000006"><a xlink:href="variables_8h.html" target="_top" xlink:title=" ">
<polygon fill="white" stroke="#666666" points="320,-184 249,-184 249,-165 320,-165 320,-184"/>
<text text-anchor="middle" x="284.5" y="-172" font-family="Helvetica,sans-Serif" font-size="10.00">variables.h</text>
</a>
</g>
</g>
<!-- Node5&#45;&gt;Node6 -->
<g id="edge5_Node000005_Node000006" class="edge">
<title>Node5&#45;&gt;Node6</title>
<g id="a_edge5_Node000005_Node000006"><a xlink:title=" ">
<path fill="none" stroke="#63b8ff" d="M261.96,-219.75C265.62,-212.57 270.91,-202.18 275.45,-193.27"/>
<polygon fill="#63b8ff" stroke="#63b8ff" points="278.7,-194.59 280.12,-184.09 272.47,-191.41 278.7,-194.59"/>
</a>
</g>
</g>
<!-- Node7 -->
<g id="Node000007" class="node">
<title>Node7</title>
<g id="a_Node000007"><a xlink:title=" ">
<polygon fill="#e0e0e0" stroke="#999999" points="283.5,-129 209.5,-129 209.5,-110 283.5,-110 283.5,-129"/>
<text text-anchor="middle" x="246.5" y="-117" font-family="Helvetica,sans-Serif" font-size="10.00">petscsnes.h</text>
</a>
</g>
</g>
<!-- Node6&#45;&gt;Node7 -->
<g id="edge6_Node000006_Node000007" class="edge">
<title>Node6&#45;&gt;Node7</title>
<g id="a_edge6_Node000006_Node000007"><a xlink:title=" ">
<path fill="none" stroke="#63b8ff" d="M278.23,-164.75C272.91,-157.34 265.14,-146.5 258.62,-137.41"/>
<polygon fill="#63b8ff" stroke="#63b8ff" points="261.33,-135.18 252.66,-129.09 255.64,-139.26 261.33,-135.18"/>
</a>
</g>
</g>
<!-- Node8 -->
<g id="Node000008" class="node">
<title>Node8</title>
<g id="a_Node000008"><a xlink:href="math_8h.html" target="_top" xlink:title=" ">
<polygon fill="white" stroke="#666666" points="339,-74 288,-74 288,-55 339,-55 339,-74"/>
<text text-anchor="middle" x="313.5" y="-62" font-family="Helvetica,sans-Serif" font-size="10.00">math.h</text>
</a>
</g>
</g>
<!-- Node6&#45;&gt;Node8 -->
<g id="edge7_Node000006_Node000008" class="edge">
<title>Node6&#45;&gt;Node8</title>
<g id="a_edge7_Node000006_Node000008"><a xlink:title=" ">
<path fill="none" stroke="#63b8ff" d="M286.87,-164.66C291.59,-147.09 302.24,-107.45 308.54,-83.95"/>
<polygon fill="#63b8ff" stroke="#63b8ff" points="311.96,-84.72 311.18,-74.16 305.2,-82.91 311.96,-84.72"/>
</a>
</g>
</g>
<!-- Node10 -->
<g id="Node000010" class="node">
<title>Node10</title>
<g id="a_Node000010"><a xlink:title=" ">
<polygon fill="#e0e0e0" stroke="#999999" points="518,-129 449,-129 449,-110 518,-110 518,-129"/>
<text text-anchor="middle" x="483.5" y="-117" font-family="Helvetica,sans-Serif" font-size="10.00">petscvec.h</text>
</a>
</g>
</g>
<!-- Node6&#45;&gt;Node10 -->
<g id="edge10_Node000006_Node000010" class="edge">
<title>Node6&#45;&gt;Node10</title>
<g id="a_edge10_Node000006_Node000010"><a xlink:title=" ">
<path fill="none" stroke="#63b8ff" d="M316.47,-164.98C350.32,-155.97 403.9,-141.7 441.21,-131.76"/>
<polygon fill="#63b8ff" stroke="#63b8ff" points="442.51,-135.04 451.28,-129.08 440.71,-128.27 442.51,-135.04"/>
</a>
</g>
</g>
<!-- Node11 -->
<g id="Node000011" class="node">
<title>Node11</title>
<g id="a_Node000011"><a xlink:href="act__variables_8h.html" target="_top" xlink:title="Data containers for active&#45;strain kinematics, stress, and material data.">
<polygon fill="white" stroke="#666666" points="431,-129 340,-129 340,-110 431,-110 431,-129"/>
<text text-anchor="middle" x="385.5" y="-117" font-family="Helvetica,sans-Serif" font-size="10.00">act_variables.h</text>
</a>
</g>
</g>
<!-- Node6&#45;&gt;Node11 -->
<g id="edge11_Node000006_Node000011" class="edge">
<title>Node6&#45;&gt;Node11</title>
<g id="a_edge11_Node000006_Node000011"><a xlink:title=" ">
<path fill="none" stroke="#63b8ff" d="M300.73,-164.98C316.68,-156.61 341.28,-143.7 359.88,-133.95"/>
<polygon fill="#63b8ff" stroke="#63b8ff" points="361.75,-136.92 368.98,-129.17 358.5,-130.72 361.75,-136.92"/>
</a>
</g>
</g>
<!-- Node12 -->
<g id="Node000012" class="node">
<title>Node12</title>
<g id="a_Node000012"><a xlink:href="dmplex__types_8h.html" target="_top" xlink:title="Persistent DMPlex geometry context for Loop subdivision surfaces.">
<polygon fill="white" stroke="#666666" points="153,-129 58,-129 58,-110 153,-110 153,-129"/>
<text text-anchor="middle" x="105.5" y="-117" font-family="Helvetica,sans-Serif" font-size="10.00">dmplex_types.h</text>
</a>
</g>
</g>
<!-- Node6&#45;&gt;Node12 -->
<g id="edge14_Node000006_Node000012" class="edge">
<title>Node6&#45;&gt;Node12</title>
<g id="a_edge14_Node000006_Node000012"><a xlink:title=" ">
<path fill="none" stroke="#63b8ff" d="M255.74,-164.98C225.56,-156.05 177.93,-141.94 144.4,-132.02"/>
<polygon fill="#63b8ff" stroke="#63b8ff" points="145.07,-128.57 134.48,-129.08 143.08,-135.28 145.07,-128.57"/>
</a>
</g>
</g>
<!-- Node8&#45;&gt;Node8 -->
<g id="edge8_Node000008_Node000008" class="edge">
<title>Node8&#45;&gt;Node8</title>
<g id="a_edge8_Node000008_Node000008"><a xlink:title=" ">
<path fill="none" stroke="#63b8ff" d="M334.09,-74.07C345.95,-76.02 357,-72.83 357,-64.5 357,-58.64 351.54,-55.33 344.17,-54.55"/>
<polygon fill="#63b8ff" stroke="#63b8ff" points="343.95,-51.06 334.09,-54.93 344.21,-58.05 343.95,-51.06"/>
</a>
</g>
</g>
<!-- Node9 -->
<g id="Node000009" class="node">
<title>Node9</title>
<g id="a_Node000009"><a xlink:title=" ">
<polygon fill="#e0e0e0" stroke="#999999" points="383.5,-19 315.5,-19 315.5,0 383.5,0 383.5,-19"/>
<text text-anchor="middle" x="349.5" y="-7" font-family="Helvetica,sans-Serif" font-size="10.00">petscsys.h</text>
</a>
</g>
</g>
<!-- Node8&#45;&gt;Node9 -->
<g id="edge9_Node000008_Node000009" class="edge">
<title>Node8&#45;&gt;Node9</title>
<g id="a_edge9_Node000008_Node000009"><a xlink:title=" ">
<path fill="none" stroke="#63b8ff" d="M319.44,-54.75C324.48,-47.34 331.84,-36.5 338.01,-27.41"/>
<polygon fill="#63b8ff" stroke="#63b8ff" points="340.94,-29.33 343.67,-19.09 335.15,-25.39 340.94,-29.33"/>
</a>
</g>
</g>
<!-- Node11&#45;&gt;Node8 -->
<g id="edge13_Node000011_Node000008" class="edge">
<title>Node11&#45;&gt;Node8</title>
<g id="a_edge13_Node000011_Node000008"><a xlink:title=" ">
<path fill="none" stroke="#63b8ff" d="M373.93,-109.98C363.08,-102 346.62,-89.88 333.62,-80.31"/>
<polygon fill="#63b8ff" stroke="#63b8ff" points="335.41,-77.28 325.28,-74.17 331.26,-82.92 335.41,-77.28"/>
</a>
</g>
</g>
<!-- Node11&#45;&gt;Node9 -->
<g id="edge12_Node000011_Node000009" class="edge">
<title>Node11&#45;&gt;Node9</title>
<g id="a_edge12_Node000011_Node000009"><a xlink:title=" ">
<path fill="none" stroke="#63b8ff" d="M382.89,-109.84C379.17,-97.58 372.07,-74.5 365.5,-55 362.58,-46.35 359.18,-36.81 356.26,-28.79"/>
<polygon fill="#63b8ff" stroke="#63b8ff" points="359.52,-27.51 352.79,-19.33 352.95,-29.92 359.52,-27.51"/>
</a>
</g>
</g>
<!-- Node12&#45;&gt;Node2 -->
<g id="edge15_Node000012_Node000002" class="edge">
<title>Node12&#45;&gt;Node2</title>
<g id="a_edge15_Node000012_Node000002"><a xlink:title=" ">
<path fill="none" stroke="#63b8ff" d="M95.7,-109.98C86.68,-102.15 73.09,-90.34 62.18,-80.86"/>
<polygon fill="#63b8ff" stroke="#63b8ff" points="64.32,-78.09 54.48,-74.17 59.73,-83.37 64.32,-78.09"/>
</a>
</g>
</g>
<!-- Node12&#45;&gt;Node3 -->
<g id="edge16_Node000012_Node000003" class="edge">
<title>Node12&#45;&gt;Node3</title>
<g id="a_edge16_Node000012_Node000003"><a xlink:title=" ">
<path fill="none" stroke="#63b8ff" d="M113.1,-109.75C119.66,-102.18 129.32,-91.05 137.31,-81.84"/>
<polygon fill="#63b8ff" stroke="#63b8ff" points="140.13,-83.94 144.05,-74.09 134.85,-79.35 140.13,-83.94"/>
</a>
</g>
</g>
</g>
</svg>
