<?xml version="1.0" encoding="UTF-8" standalone="no"?>
<!DOCTYPE svg PUBLIC "-//W3C//DTD SVG 1.1//EN"
 "http://www.w3.org/Graphics/SVG/1.1/DTD/svg11.dtd">
<!-- Generated by graphviz version 2.43.0 (0)
 -->
<!-- Title: RunLocalGeometry_ Pages: 1 -->
<svg width="728pt" height="312pt"
 viewBox="0.00 0.00 728.00 311.91" xmlns="http://www.w3.org/2000/svg" xmlns:xlink="http://www.w3.org/1999/xlink">
<g id="graph0" class="graph" transform="scale(1 1) rotate(0) translate(4 307.91)">
<title>RunLocalGeometry_</title>
<!-- Node1 -->
<g id="Node000001" class="node">
<title>Node1</title>
<g id="a_Node000001"><a xlink:title="Synchronise remote coordinates and evaluate the geometry kernel for all local cells.">
<polygon fill="#999999" stroke="#666666" points="115,-162.41 0,-162.41 0,-143.41 115,-143.41 115,-162.41"/>
<text text-anchor="middle" x="57.5" y="-150.41" font-family="Helvetica,sans-Serif" font-size="10.00">RunLocalGeometry_</text>
</a>
</g>
</g>
<!-- Node2 -->
<g id="Node000002" class="node">
<title>Node2</title>
<g id="a_Node000002"><a xlink:href="active__strain_8c.html#a993ef27fda81bb402cba4aa14fa9b51a" target="_top" xlink:title="Build current covariant/contravariant basis vectors for one element.">
<polygon fill="white" stroke="#666666" points="283,-144.41 199,-144.41 199,-125.41 283,-125.41 283,-144.41"/>
<text text-anchor="middle" x="241" y="-132.41" font-family="Helvetica,sans-Serif" font-size="10.00">ElemUpdateG</text>
</a>
</g>
</g>
<!-- Node1&#45;&gt;Node2 -->
<g id="edge1_Node000001_Node000002" class="edge">
<title>Node1&#45;&gt;Node2</title>
<g id="a_edge1_Node000001_Node000002"><a xlink:title=" ">
<path fill="none" stroke="#63b8ff" d="M115.43,-147.26C138.87,-144.94 165.82,-142.26 188.65,-140"/>
<polygon fill="#63b8ff" stroke="#63b8ff" points="189.21,-143.46 198.82,-138.99 188.52,-136.49 189.21,-143.46"/>
</a>
</g>
</g>
<!-- Node12 -->
<g id="Node000012" class="node">
<title>Node12</title>
<g id="a_Node000012"><a xlink:href="active__strain_8c.html#ac93e65e44aa9af3d11c2165016210d87" target="_top" xlink:title="Update reference midsurface geometry cache for one element.">
<polygon fill="white" stroke="#666666" points="313.5,-251.41 168.5,-251.41 168.5,-232.41 313.5,-232.41 313.5,-251.41"/>
<text text-anchor="middle" x="241" y="-239.41" font-family="Helvetica,sans-Serif" font-size="10.00">ElemUpdateGeom0Subdiv</text>
</a>
</g>
</g>
<!-- Node1&#45;&gt;Node12 -->
<g id="edge12_Node000001_Node000012" class="edge">
<title>Node1&#45;&gt;Node12</title>
<g id="a_edge12_Node000001_Node000012"><a xlink:title=" ">
<path fill="none" stroke="#63b8ff" d="M71.39,-162.57C88.75,-175.23 120.93,-197.51 151,-211.91 165.1,-218.66 181.12,-224.56 195.65,-229.3"/>
<polygon fill="#63b8ff" stroke="#63b8ff" points="194.84,-232.71 205.43,-232.39 196.95,-226.04 194.84,-232.71"/>
</a>
</g>
</g>
<!-- Node16 -->
<g id="Node000016" class="node">
<title>Node16</title>
<g id="a_Node000016"><a xlink:href="active__strain_8c.html#a04fa5da4f55d0663ad5ec7a3534de0af" target="_top" xlink:title="Update current midsurface geometry cache for one element.">
<polygon fill="white" stroke="#666666" points="310.5,-203.41 171.5,-203.41 171.5,-184.41 310.5,-184.41 310.5,-203.41"/>
<text text-anchor="middle" x="241" y="-191.41" font-family="Helvetica,sans-Serif" font-size="10.00">ElemUpdateGeomSubdiv</text>
</a>
</g>
</g>
<!-- Node1&#45;&gt;Node16 -->
<g id="edge19_Node000001_Node000016" class="edge">
<title>Node1&#45;&gt;Node16</title>
<g id="a_edge19_Node000001_Node000016"><a xlink:title=" ">
<path fill="none" stroke="#63b8ff" d="M100.6,-162.42C126.62,-168.29 160.22,-175.88 187.91,-182.14"/>
<polygon fill="#63b8ff" stroke="#63b8ff" points="187.29,-185.59 197.82,-184.38 188.84,-178.76 187.29,-185.59"/>
</a>
</g>
</g>
<!-- Node17 -->
<g id="Node000017" class="node">
<title>Node17</title>
<g id="a_Node000017"><a xlink:href="dmplex__geom_8c.html#a0e285c5152466ed0d16f3ccb265e2c99" target="_top" xlink:title="Broadcast updated vertex coordinates from owning ranks to all ranks that need them.">
<polygon fill="white" stroke="#666666" points="331,-107.41 151,-107.41 151,-88.41 331,-88.41 331,-107.41"/>
<text text-anchor="middle" x="241" y="-95.41" font-family="Helvetica,sans-Serif" font-size="10.00">UpdatePatchRemoteCoordinates_</text>
</a>
</g>
</g>
<!-- Node1&#45;&gt;Node17 -->
<g id="edge21_Node000001_Node000017" class="edge">
<title>Node1&#45;&gt;Node17</title>
<g id="a_edge21_Node000001_Node000017"><a xlink:title=" ">
<path fill="none" stroke="#63b8ff" d="M79.42,-143.27C97.92,-135.06 125.81,-123.43 151,-115.91 158.62,-113.63 166.7,-111.55 174.76,-109.68"/>
<polygon fill="#63b8ff" stroke="#63b8ff" points="175.54,-113.09 184.54,-107.51 174.02,-106.26 175.54,-113.09"/>
</a>
</g>
</g>
<!-- Node3 -->
<g id="Node000003" class="node">
<title>Node3</title>
<g id="a_Node000003"><a xlink:href="math_8c.html#a7ef9263b0a3a10c2cd00bb4dc0059d70" target="_top" xlink:title=" ">
<polygon fill="white" stroke="#666666" points="668.5,-215.41 618.5,-215.41 618.5,-196.41 668.5,-196.41 668.5,-215.41"/>
<text text-anchor="middle" x="643.5" y="-203.41" font-family="Helvetica,sans-Serif" font-size="10.00">AMULT</text>
</a>
</g>
</g>
<!-- Node2&#45;&gt;Node3 -->
<g id="edge2_Node000002_Node000003" class="edge">
<title>Node2&#45;&gt;Node3</title>
<g id="a_edge2_Node000002_Node000003"><a xlink:title=" ">
<path fill="none" stroke="#63b8ff" d="M260.89,-144.59C284.88,-156.37 327.84,-175.81 367,-184.91 452.02,-204.66 555.37,-206.94 608.03,-206.61"/>
<polygon fill="#63b8ff" stroke="#63b8ff" points="608.21,-210.11 618.17,-206.51 608.14,-203.11 608.21,-210.11"/>
</a>
</g>
</g>
<!-- Node4 -->
<g id="Node000004" class="node">
<title>Node4</title>
<g id="a_Node000004"><a xlink:href="active__strain_8c.html#a8ffbd5ab9cf4de7388a8a1b66bf48821" target="_top" xlink:title=" ">
<polygon fill="white" stroke="#666666" points="507,-65.41 391,-65.41 391,-46.41 507,-46.41 507,-65.41"/>
<text text-anchor="middle" x="449" y="-53.41" font-family="Helvetica,sans-Serif" font-size="10.00">Compute_a3_alpha_</text>
</a>
</g>
</g>
<!-- Node2&#45;&gt;Node4 -->
<g id="edge3_Node000002_Node000004" class="edge">
<title>Node2&#45;&gt;Node4</title>
<g id="a_edge3_Node000002_Node000004"><a xlink:title=" ">
<path fill="none" stroke="#63b8ff" d="M283.03,-131.79C298.87,-129.19 316.6,-124.46 331,-115.91 352.13,-103.35 345.92,-86.56 367,-73.91 371.44,-71.24 376.23,-68.97 381.19,-67.04"/>
<polygon fill="#63b8ff" stroke="#63b8ff" points="382.55,-70.27 390.87,-63.71 380.28,-63.65 382.55,-70.27"/>
</a>
</g>
</g>
<!-- Node6 -->
<g id="Node000006" class="node">
<title>Node6</title>
<g id="a_Node000006"><a xlink:href="math_8c.html#ae18926821a703a2c5b281bd890b7e6a0" target="_top" xlink:title=" ">
<polygon fill="white" stroke="#666666" points="664,-28.41 623,-28.41 623,-9.41 664,-9.41 664,-28.41"/>
<text text-anchor="middle" x="643.5" y="-16.41" font-family="Helvetica,sans-Serif" font-size="10.00">PLUS</text>
</a>
</g>
</g>
<!-- Node2&#45;&gt;Node6 -->
<g id="edge11_Node000002_Node000006" class="edge">
<title>Node2&#45;&gt;Node6</title>
<g id="a_edge11_Node000002_Node000006"><a xlink:title=" ">
<path fill="none" stroke="#63b8ff" d="M283.05,-133.98C299.45,-131.74 317.57,-126.69 331,-115.91 361.08,-91.74 335.25,-58.83 367,-36.91 442.44,15.17 558.92,-0.52 613.02,-11.78"/>
<polygon fill="#63b8ff" stroke="#63b8ff" points="612.46,-15.24 622.98,-13.96 613.95,-8.4 612.46,-15.24"/>
</a>
</g>
</g>
<!-- Node8 -->
<g id="Node000008" class="node">
<title>Node8</title>
<g id="a_Node000008"><a xlink:href="active__strain_8c.html#a798e3f12cc0e3f71dbc664e886f8893a" target="_top" xlink:title=" ">
<polygon fill="white" stroke="#666666" points="526,-176.41 372,-176.41 372,-157.41 526,-157.41 526,-176.41"/>
<text text-anchor="middle" x="449" y="-164.41" font-family="Helvetica,sans-Serif" font-size="10.00">ComputeContravariantBasis</text>
</a>
</g>
</g>
<!-- Node2&#45;&gt;Node8 -->
<g id="edge7_Node000002_Node000008" class="edge">
<title>Node2&#45;&gt;Node8</title>
<g id="a_edge7_Node000002_Node000008"><a xlink:title=" ">
<path fill="none" stroke="#63b8ff" d="M283.19,-141.31C309.89,-145.45 345.38,-150.97 376.59,-155.81"/>
<polygon fill="#63b8ff" stroke="#63b8ff" points="376.14,-159.29 386.56,-157.36 377.21,-152.37 376.14,-159.29"/>
</a>
</g>
</g>
<!-- Node9 -->
<g id="Node000009" class="node">
<title>Node9</title>
<g id="a_Node000009"><a xlink:href="active__strain_8c.html#af6f59806c4a71e53ae3ffb4ed5ac56ec" target="_top" xlink:title=" ">
<polygon fill="white" stroke="#666666" points="510.5,-139.41 387.5,-139.41 387.5,-120.41 510.5,-120.41 510.5,-139.41"/>
<text text-anchor="middle" x="449" y="-127.41" font-family="Helvetica,sans-Serif" font-size="10.00">ComputeMetricTensor</text>
</a>
</g>
</g>
<!-- Node2&#45;&gt;Node9 -->
<g id="edge8_Node000002_Node000009" class="edge">
<title>Node2&#45;&gt;Node9</title>
<g id="a_edge8_Node000002_Node000009"><a xlink:title=" ">
<path fill="none" stroke="#63b8ff" d="M283.19,-133.91C310.1,-133.25 345.95,-132.38 377.33,-131.62"/>
<polygon fill="#63b8ff" stroke="#63b8ff" points="377.44,-135.12 387.35,-131.38 377.27,-128.12 377.44,-135.12"/>
</a>
</g>
</g>
<!-- Node11 -->
<g id="Node000011" class="node">
<title>Node11</title>
<g id="a_Node000011"><a xlink:href="math_8c.html#a3f73e4cd9eab76eeee084eabf2b98ec9" target="_top" xlink:title=" ">
<polygon fill="white" stroke="#666666" points="466,-102.41 432,-102.41 432,-83.41 466,-83.41 466,-102.41"/>
<text text-anchor="middle" x="449" y="-90.41" font-family="Helvetica,sans-Serif" font-size="10.00">INV</text>
</a>
</g>
</g>
<!-- Node2&#45;&gt;Node11 -->
<g id="edge10_Node000002_Node000011" class="edge">
<title>Node2&#45;&gt;Node11</title>
<g id="a_edge10_Node000002_Node000011"><a xlink:title=" ">
<path fill="none" stroke="#63b8ff" d="M283.19,-126.51C324.48,-118.09 386.79,-105.39 421.77,-98.25"/>
<polygon fill="#63b8ff" stroke="#63b8ff" points="422.6,-101.66 431.7,-96.23 421.2,-94.8 422.6,-101.66"/>
</a>
</g>
</g>
<!-- Node5 -->
<g id="Node000005" class="node">
<title>Node5</title>
<g id="a_Node000005"><a xlink:href="math_8c.html#a9d60990d26296194c921d537ea26f3c7" target="_top" xlink:title=" ">
<polygon fill="white" stroke="#666666" points="668.5,-113.41 618.5,-113.41 618.5,-94.41 668.5,-94.41 668.5,-113.41"/>
<text text-anchor="middle" x="643.5" y="-101.41" font-family="Helvetica,sans-Serif" font-size="10.00">CROSS</text>
</a>
</g>
</g>
<!-- Node4&#45;&gt;Node5 -->
<g id="edge4_Node000004_Node000005" class="edge">
<title>Node4&#45;&gt;Node5</title>
<g id="a_edge4_Node000004_Node000005"><a xlink:title=" ">
<path fill="none" stroke="#63b8ff" d="M494.65,-65.46C506.49,-68.09 519.25,-71.02 531,-73.91 557.05,-80.3 586.33,-88.21 608.35,-94.3"/>
<polygon fill="#63b8ff" stroke="#63b8ff" points="607.65,-97.74 618.22,-97.04 609.52,-90.99 607.65,-97.74"/>
</a>
</g>
</g>
<!-- Node4&#45;&gt;Node6 -->
<g id="edge5_Node000004_Node000006" class="edge">
<title>Node4&#45;&gt;Node6</title>
<g id="a_edge5_Node000004_Node000006"><a xlink:title=" ">
<path fill="none" stroke="#63b8ff" d="M499.57,-46.38C535.45,-39.48 582.74,-30.39 612.89,-24.6"/>
<polygon fill="#63b8ff" stroke="#63b8ff" points="613.63,-28.02 622.79,-22.69 612.31,-21.15 613.63,-28.02"/>
</a>
</g>
</g>
<!-- Node7 -->
<g id="Node000007" class="node">
<title>Node7</title>
<g id="a_Node000007"><a xlink:href="math_8c.html#aa52f6593cf3e5453c8c6c94343d3fb37" target="_top" xlink:title=" ">
<polygon fill="white" stroke="#666666" points="662.5,-65.41 624.5,-65.41 624.5,-46.41 662.5,-46.41 662.5,-65.41"/>
<text text-anchor="middle" x="643.5" y="-53.41" font-family="Helvetica,sans-Serif" font-size="10.00">SIZE</text>
</a>
</g>
</g>
<!-- Node4&#45;&gt;Node7 -->
<g id="edge6_Node000004_Node000007" class="edge">
<title>Node4&#45;&gt;Node7</title>
<g id="a_edge6_Node000004_Node000007"><a xlink:title=" ">
<path fill="none" stroke="#63b8ff" d="M507.24,-55.91C542.46,-55.91 586.07,-55.91 614.09,-55.91"/>
<polygon fill="#63b8ff" stroke="#63b8ff" points="614.36,-59.41 624.36,-55.91 614.36,-52.41 614.36,-59.41"/>
</a>
</g>
</g>
<!-- Node10 -->
<g id="Node000010" class="node">
<title>Node10</title>
<g id="a_Node000010"><a xlink:href="math_8c.html#a870a70f4845a041458d9bdb0dd7aabd3" target="_top" xlink:title=" ">
<polygon fill="white" stroke="#666666" points="662.5,-169.41 624.5,-169.41 624.5,-150.41 662.5,-150.41 662.5,-169.41"/>
<text text-anchor="middle" x="643.5" y="-157.41" font-family="Helvetica,sans-Serif" font-size="10.00">DOT</text>
</a>
</g>
</g>
<!-- Node9&#45;&gt;Node10 -->
<g id="edge9_Node000009_Node000010" class="edge">
<title>Node9&#45;&gt;Node10</title>
<g id="a_edge9_Node000009_Node000010"><a xlink:title=" ">
<path fill="none" stroke="#63b8ff" d="M510.64,-139.36C545.28,-144.76 587.08,-151.27 614.19,-155.5"/>
<polygon fill="#63b8ff" stroke="#63b8ff" points="613.74,-158.97 624.16,-157.05 614.82,-152.05 613.74,-158.97"/>
</a>
</g>
</g>
<!-- Node13 -->
<g id="Node000013" class="node">
<title>Node13</title>
<g id="a_Node000013"><a xlink:href="active__strain_8c.html#a9ef026a24ded6fec7243fd82f49394c3" target="_top" xlink:title=" ">
<polygon fill="white" stroke="#666666" points="531,-262.91 367,-262.91 367,-232.91 531,-232.91 531,-262.91"/>
<text text-anchor="start" x="375" y="-250.91" font-family="Helvetica,sans-Serif" font-size="10.00">ElemUpdateGeomSubdivFrom</text>
<text text-anchor="middle" x="449" y="-239.91" font-family="Helvetica,sans-Serif" font-size="10.00">Coords_</text>
</a>
</g>
</g>
<!-- Node12&#45;&gt;Node13 -->
<g id="edge13_Node000012_Node000013" class="edge">
<title>Node12&#45;&gt;Node13</title>
<g id="a_edge13_Node000012_Node000013"><a xlink:title=" ">
<path fill="none" stroke="#63b8ff" d="M313.76,-244C327.59,-244.4 342.25,-244.83 356.6,-245.24"/>
<polygon fill="#63b8ff" stroke="#63b8ff" points="356.89,-248.75 366.98,-245.55 357.09,-241.76 356.89,-248.75"/>
</a>
</g>
</g>
<!-- Node13&#45;&gt;Node3 -->
<g id="edge14_Node000013_Node000003" class="edge">
<title>Node13&#45;&gt;Node3</title>
<g id="a_edge14_Node000013_Node000003"><a xlink:title=" ">
<path fill="none" stroke="#63b8ff" d="M518.95,-232.86C549.35,-226.23 583.7,-218.73 608.46,-213.33"/>
<polygon fill="#63b8ff" stroke="#63b8ff" points="609.41,-216.71 618.44,-211.16 607.92,-209.87 609.41,-216.71"/>
</a>
</g>
</g>
<!-- Node13&#45;&gt;Node5 -->
<g id="edge15_Node000013_Node000005" class="edge">
<title>Node13&#45;&gt;Node5</title>
<g id="a_edge15_Node000013_Node000005"><a xlink:title=" ">
<path fill="none" stroke="#63b8ff" d="M472.05,-232.82C488.98,-220.76 512.51,-202.95 531,-184.91 549.09,-167.26 547.2,-156.6 567,-140.91 579.43,-131.06 594.9,-122.9 608.6,-116.78"/>
<polygon fill="#63b8ff" stroke="#63b8ff" points="610.37,-119.83 618.19,-112.69 607.62,-113.39 610.37,-119.83"/>
</a>
</g>
</g>
<!-- Node13&#45;&gt;Node10 -->
<g id="edge16_Node000013_Node000010" class="edge">
<title>Node13&#45;&gt;Node10</title>
<g id="a_edge16_Node000013_Node000010"><a xlink:title=" ">
<path fill="none" stroke="#63b8ff" d="M476.44,-232.79C499.83,-219.74 535.09,-200.85 567,-186.91 582.4,-180.18 600.06,-173.79 614.43,-168.92"/>
<polygon fill="#63b8ff" stroke="#63b8ff" points="615.84,-172.14 624.23,-165.66 613.63,-165.5 615.84,-172.14"/>
</a>
</g>
</g>
<!-- Node14 -->
<g id="Node000014" class="node">
<title>Node14</title>
<g id="a_Node000014"><a xlink:href="active__strain_8c.html#af8eb71852e7e9e1290f27656e66736fe" target="_top" xlink:title=" ">
<polygon fill="white" stroke="#666666" points="720,-303.91 567,-303.91 567,-273.91 720,-273.91 720,-303.91"/>
<text text-anchor="start" x="575" y="-291.91" font-family="Helvetica,sans-Serif" font-size="10.00">SubdivGeomEnsureIrregular</text>
<text text-anchor="middle" x="643.5" y="-280.91" font-family="Helvetica,sans-Serif" font-size="10.00">Arrays_</text>
</a>
</g>
</g>
<!-- Node13&#45;&gt;Node14 -->
<g id="edge17_Node000013_Node000014" class="edge">
<title>Node13&#45;&gt;Node14</title>
<g id="a_edge17_Node000013_Node000014"><a xlink:title=" ">
<path fill="none" stroke="#63b8ff" d="M520.59,-262.94C534.06,-265.81 548.25,-268.83 562,-271.76"/>
<polygon fill="#63b8ff" stroke="#63b8ff" points="561.41,-275.21 571.92,-273.87 562.87,-268.37 561.41,-275.21"/>
</a>
</g>
</g>
<!-- Node15 -->
<g id="Node000015" class="node">
<title>Node15</title>
<g id="a_Node000015"><a xlink:href="math_8c.html#ac616709995f2ae60c4308ffa328337d7" target="_top" xlink:title=" ">
<polygon fill="white" stroke="#666666" points="664,-255.41 623,-255.41 623,-236.41 664,-236.41 664,-255.41"/>
<text text-anchor="middle" x="643.5" y="-243.41" font-family="Helvetica,sans-Serif" font-size="10.00">UNIT</text>
</a>
</g>
</g>
<!-- Node13&#45;&gt;Node15 -->
<g id="edge18_Node000013_Node000015" class="edge">
<title>Node13&#45;&gt;Node15</title>
<g id="a_edge18_Node000013_Node000015"><a xlink:title=" ">
<path fill="none" stroke="#63b8ff" d="M531.08,-247.06C559.91,-246.76 590.61,-246.45 612.46,-246.22"/>
<polygon fill="#63b8ff" stroke="#63b8ff" points="612.77,-249.72 622.73,-246.11 612.7,-242.72 612.77,-249.72"/>
</a>
</g>
</g>
<!-- Node16&#45;&gt;Node13 -->
<g id="edge20_Node000016_Node000013" class="edge">
<title>Node16&#45;&gt;Node13</title>
<g id="a_edge20_Node000016_Node000013"><a xlink:title=" ">
<path fill="none" stroke="#63b8ff" d="M278.35,-203.44C306.63,-210.85 346.66,-221.34 380.73,-230.27"/>
<polygon fill="#63b8ff" stroke="#63b8ff" points="380.07,-233.72 390.63,-232.87 381.84,-226.95 380.07,-233.72"/>
</a>
</g>
</g>
</g>
</svg>
