<?xml version="1.0" encoding="UTF-8" standalone="no"?>
<!DOCTYPE svg PUBLIC "-//W3C//DTD SVG 1.1//EN"
 "http://www.w3.org/Graphics/SVG/1.1/DTD/svg11.dtd">
<!-- Generated by graphviz version 2.43.0 (0)
 -->
<!-- Title: UpdatePatchRemoteCoordinates_ Pages: 1 -->
<!--zoomable 121 -->

<svg id="main" version="1.1" xmlns="http://www.w3.org/2000/svg" xmlns:xlink="http://www.w3.org/1999/xlink" xml:space="preserve" onload="init(evt)">
<style type="text/css"><![CDATA[
.node, .edge {opacity: 0.7;}
.node.selected, .edge.selected {opacity: 1;}
.edge:hover path { stroke: red; }
.edge:hover polygon { stroke: red; fill: red; }
]]></style>

<defs>
  <circle id="rim" cx="0" cy="0" r="7"/>
  <circle id="rim2" cx="0" cy="0" r="3.5"/>
  <g id="zoomPlus">
    <use xlink:href="#rim" fill="#404040"><set attributeName="fill" to="#808080" begin="zoomplus.mouseover" end="zoomplus.mouseout"/></use>
    <path d="M-4,0h8M0,-4v8" fill="none" stroke="white" stroke-width="1.5" pointer-events="none"/>
  </g>
  <g id="zoomMin">
    <use xlink:href="#rim" fill="#404040"><set attributeName="fill" to="#808080" begin="zoomminus.mouseover" end="zoomminus.mouseout"/></use>
    <path d="M-4,0h8" fill="none" stroke="white" stroke-width="1.5" pointer-events="none"/>
  </g>
  <g id="arrowUp" transform="translate(30 24)">
    <use xlink:href="#rim"/>
    <path pointer-events="none" fill="none" stroke="white" stroke-width="1.5" d="M0,-3.0v7 M-2.5,-0.5L0,-3.0L2.5,-0.5"/>
  </g>
  <g id="arrowRight" transform="rotate(90) translate(36 -43)">
    <use xlink:href="#rim"/>
    <path pointer-events="none" fill="none" stroke="white" stroke-width="1.5" d="M0,-3.0v7 M-2.5,-0.5L0,-3.0L2.5,-0.5"/>
  </g>
  <g id="arrowDown" transform="rotate(180) translate(-30 -48)">
    <use xlink:href="#rim"/>
    <path pointer-events="none" fill="none" stroke="white" stroke-width="1.5" d="M0,-3.0v7 M-2.5,-0.5L0,-3.0L2.5,-0.5"/>
  </g>
  <g id="arrowLeft" transform="rotate(270) translate(-36 17)">
    <use xlink:href="#rim"/>
    <path pointer-events="none" fill="none" stroke="white" stroke-width="1.5" d="M0,-3.0v7 M-2.5,-0.5L0,-3.0L2.5,-0.5"/>
  </g>
  <g id="resetDef">
    <use xlink:href="#rim2" fill="#404040"><set attributeName="fill" to="#808080" begin="reset.mouseover" end="reset.mouseout"/></use>
  </g>
</defs>
<script type="application/ecmascript">
var viewWidth = 944;
var viewHeight = 121;
var sectionId = 'dynsection-8';
</script>
<script type="application/ecmascript" xlink:href="svg.min.js"/>
<svg id="graph" class="graph">
<g id="viewport">
<title>UpdatePatchRemoteCoordinates_</title>
<!-- Node1 -->
<g id="Node000001" class="node">
<title>Node1</title>
<g id="a_Node000001"><a xlink:title="Broadcast updated vertex coordinates from owning ranks to all ranks that need them.">
<polygon fill="#999999" stroke="#666666" points="936,-57 756,-57 756,-38 936,-38 936,-57"/>
<text text-anchor="middle" x="846" y="-45" font-family="Helvetica,sans-Serif" font-size="10.00">UpdatePatchRemoteCoordinates_</text>
</a>
</g>
</g>
<!-- Node2 -->
<g id="Node000002" class="node">
<title>Node2</title>
<g id="a_Node000002"><a xlink:href="dmplex__geom_8c.html#aeca513213e67a07a712cc41e8c6412ea" target="_top" xlink:title="One&#45;time DMPlex geometry setup.">
<polygon fill="white" stroke="#666666" points="716,-94 579,-94 579,-75 716,-75 716,-94"/>
<text text-anchor="middle" x="647.5" y="-82" font-family="Helvetica,sans-Serif" font-size="10.00">FEM_DMPlexGeomSetup</text>
</a>
</g>
</g>
<!-- Node1&#45;&gt;Node2 -->
<g id="edge1_Node000001_Node000002" class="edge">
<title>Node1&#45;&gt;Node2</title>
<g id="a_edge1_Node000001_Node000002"><a xlink:title=" ">
<path fill="none" stroke="#63b8ff" d="M784.56,-58.88C757.24,-64.02 725.33,-70.03 699.27,-74.94"/>
<polygon fill="#63b8ff" stroke="#63b8ff" points="785.22,-62.32 794.4,-57.03 783.92,-55.44 785.22,-62.32"/>
</a>
</g>
</g>
<!-- Node5 -->
<g id="Node000005" class="node">
<title>Node5</title>
<g id="a_Node000005"><a xlink:href="dmplex__geom_8c.html#af7fb8fc68c27b224f0458d0c42911fe6" target="_top" xlink:title="Per&#45;SNES&#45;iteration geometry update.">
<polygon fill="white" stroke="#666666" points="720,-57 575,-57 575,-38 720,-38 720,-57"/>
<text text-anchor="middle" x="647.5" y="-45" font-family="Helvetica,sans-Serif" font-size="10.00">FEM_DMPlexGeomUpdate</text>
</a>
</g>
</g>
<!-- Node1&#45;&gt;Node5 -->
<g id="edge4_Node000001_Node000005" class="edge">
<title>Node1&#45;&gt;Node5</title>
<g id="a_edge4_Node000001_Node000005"><a xlink:title=" ">
<path fill="none" stroke="#63b8ff" d="M745.81,-47.5C737.17,-47.5 728.53,-47.5 720.17,-47.5"/>
<polygon fill="#63b8ff" stroke="#63b8ff" points="745.95,-51 755.95,-47.5 745.95,-44 745.95,-51"/>
</a>
</g>
</g>
<!-- Node9 -->
<g id="Node000009" class="node">
<title>Node9</title>
<g id="a_Node000009"><a xlink:href="dmplex__geom_8c.html#aa2b24de348fff4079de659ff63ba9b85" target="_top" xlink:title="Synchronise remote coordinates and evaluate the geometry kernel for all local cells.">
<polygon fill="white" stroke="#666666" points="705,-20 590,-20 590,-1 705,-1 705,-20"/>
<text text-anchor="middle" x="647.5" y="-8" font-family="Helvetica,sans-Serif" font-size="10.00">RunLocalGeometry_</text>
</a>
</g>
</g>
<!-- Node1&#45;&gt;Node9 -->
<g id="edge10_Node000001_Node000009" class="edge">
<title>Node1&#45;&gt;Node9</title>
<g id="a_edge10_Node000001_Node000009"><a xlink:title=" ">
<path fill="none" stroke="#63b8ff" d="M784.56,-36.12C757.24,-30.98 725.33,-24.97 699.27,-20.06"/>
<polygon fill="#63b8ff" stroke="#63b8ff" points="783.92,-39.56 794.4,-37.97 785.22,-32.68 783.92,-39.56"/>
</a>
</g>
</g>
<!-- Node3 -->
<g id="Node000003" class="node">
<title>Node3</title>
<g id="a_Node000003"><a xlink:href="main_8c.html#a3c04138a5bfe5d72780bb7e82a18e627" target="_top" xlink:title=" ">
<polygon fill="white" stroke="#666666" points="41,-57 0,-57 0,-38 41,-38 41,-57"/>
<text text-anchor="middle" x="20.5" y="-45" font-family="Helvetica,sans-Serif" font-size="10.00">main</text>
</a>
</g>
</g>
<!-- Node2&#45;&gt;Node3 -->
<g id="edge2_Node000002_Node000003" class="edge">
<title>Node2&#45;&gt;Node3</title>
<g id="a_edge2_Node000002_Node000003"><a xlink:title=" ">
<path fill="none" stroke="#63b8ff" d="M592.95,-95.86C575.8,-98.99 556.68,-101.95 539,-103.5 333.8,-121.49 277.97,-111.71 77,-66.5 64.88,-63.77 51.7,-59.33 41.24,-55.43"/>
<polygon fill="#63b8ff" stroke="#63b8ff" points="593.62,-99.3 602.8,-94.01 592.32,-92.42 593.62,-99.3"/>
</a>
</g>
</g>
<!-- Node4 -->
<g id="Node000004" class="node">
<title>Node4</title>
<g id="a_Node000004"><a xlink:href="dmplex__geom_8c.html#af897ef006be5d3cc2be53b272a4f5a61" target="_top" xlink:title="Drop&#45;in geometry call: setup + update + destroy in one shot.">
<polygon fill="white" stroke="#666666" points="539,-94 404,-94 404,-75 539,-75 539,-94"/>
<text text-anchor="middle" x="471.5" y="-82" font-family="Helvetica,sans-Serif" font-size="10.00">RunDMPlexGeomSubdiv</text>
</a>
</g>
</g>
<!-- Node2&#45;&gt;Node4 -->
<g id="edge3_Node000002_Node000004" class="edge">
<title>Node2&#45;&gt;Node4</title>
<g id="a_edge3_Node000002_Node000004"><a xlink:title=" ">
<path fill="none" stroke="#63b8ff" d="M568.59,-84.5C558.79,-84.5 548.84,-84.5 539.23,-84.5"/>
<polygon fill="#63b8ff" stroke="#63b8ff" points="568.73,-88 578.73,-84.5 568.73,-81 568.73,-88"/>
</a>
</g>
</g>
<!-- Node5&#45;&gt;Node4 -->
<g id="edge9_Node000005_Node000004" class="edge">
<title>Node5&#45;&gt;Node4</title>
<g id="a_edge9_Node000005_Node000004"><a xlink:title=" ">
<path fill="none" stroke="#63b8ff" d="M591.7,-59.15C567.8,-64.23 540.13,-70.12 517.46,-74.94"/>
<polygon fill="#63b8ff" stroke="#63b8ff" points="592.64,-62.53 601.69,-57.03 591.18,-55.68 592.64,-62.53"/>
</a>
</g>
</g>
<!-- Node6 -->
<g id="Node000006" class="node">
<title>Node6</title>
<g id="a_Node000006"><a xlink:href="active__strain_8c.html#a693fb698122674ff7df6dd47ac75167c" target="_top" xlink:title="Run per&#45;element precomputations before global internal&#45;force assembly.">
<polygon fill="white" stroke="#666666" points="520,-57 423,-57 423,-38 520,-38 520,-57"/>
<text text-anchor="middle" x="471.5" y="-45" font-family="Helvetica,sans-Serif" font-size="10.00">FInternalPreCalc</text>
</a>
</g>
</g>
<!-- Node5&#45;&gt;Node6 -->
<g id="edge5_Node000005_Node000006" class="edge">
<title>Node5&#45;&gt;Node6</title>
<g id="a_edge5_Node000005_Node000006"><a xlink:title=" ">
<path fill="none" stroke="#63b8ff" d="M564.95,-47.5C549.61,-47.5 534.04,-47.5 520.17,-47.5"/>
<polygon fill="#63b8ff" stroke="#63b8ff" points="564.97,-51 574.97,-47.5 564.97,-44 564.97,-51"/>
</a>
</g>
</g>
<!-- Node7 -->
<g id="Node000007" class="node">
<title>Node7</title>
<g id="a_Node000007"><a xlink:href="active__strain_8c.html#a3bac899c10052c346d2afe9eccbac71d" target="_top" xlink:title="Assemble global internal force vector for active&#45;strain mechanics.">
<polygon fill="white" stroke="#666666" points="330.5,-57 254.5,-57 254.5,-38 330.5,-38 330.5,-57"/>
<text text-anchor="middle" x="292.5" y="-45" font-family="Helvetica,sans-Serif" font-size="10.00">FInternalAct</text>
</a>
</g>
</g>
<!-- Node6&#45;&gt;Node7 -->
<g id="edge6_Node000006_Node000007" class="edge">
<title>Node6&#45;&gt;Node7</title>
<g id="a_edge6_Node000006_Node000007"><a xlink:title=" ">
<path fill="none" stroke="#63b8ff" d="M412.53,-47.5C385.64,-47.5 354.47,-47.5 330.77,-47.5"/>
<polygon fill="#63b8ff" stroke="#63b8ff" points="412.6,-51 422.6,-47.5 412.6,-44 412.6,-51"/>
</a>
</g>
</g>
<!-- Node8 -->
<g id="Node000008" class="node">
<title>Node8</title>
<g id="a_Node000008"><a xlink:href="main_8c.html#a9a070a6f408cadb404b0ee7fbc74c576" target="_top" xlink:title=" ">
<polygon fill="white" stroke="#666666" points="181,-57 77,-57 77,-38 181,-38 181,-57"/>
<text text-anchor="middle" x="129" y="-45" font-family="Helvetica,sans-Serif" font-size="10.00">FormFunctionFEM</text>
</a>
</g>
</g>
<!-- Node7&#45;&gt;Node8 -->
<g id="edge7_Node000007_Node000008" class="edge">
<title>Node7&#45;&gt;Node8</title>
<g id="a_edge7_Node000007_Node000008"><a xlink:title=" ">
<path fill="none" stroke="#63b8ff" d="M244.42,-47.5C224.61,-47.5 201.5,-47.5 181.26,-47.5"/>
<polygon fill="#63b8ff" stroke="#63b8ff" points="244.45,-51 254.45,-47.5 244.45,-44 244.45,-51"/>
</a>
</g>
</g>
<!-- Node8&#45;&gt;Node3 -->
<g id="edge8_Node000008_Node000003" class="edge">
<title>Node8&#45;&gt;Node3</title>
<g id="a_edge8_Node000008_Node000003"><a xlink:title=" ">
<path fill="none" stroke="#63b8ff" d="M66.83,-47.5C57.58,-47.5 48.66,-47.5 41.22,-47.5"/>
<polygon fill="#63b8ff" stroke="#63b8ff" points="66.93,-51 76.93,-47.5 66.93,-44 66.93,-51"/>
</a>
</g>
</g>
<!-- Node10 -->
<g id="Node000010" class="node">
<title>Node10</title>
<g id="a_Node000010"><a xlink:href="dmplex__geom_8c.html#ac4ecb4d172bee5f7c59a9fdf2680bb51" target="_top" xlink:title="Benchmark: run the full distributed DMPlex geometry pipeline for all bodies.">
<polygon fill="white" stroke="#666666" points="368,-19 217,-19 217,0 368,0 368,-19"/>
<text text-anchor="middle" x="292.5" y="-7" font-family="Helvetica,sans-Serif" font-size="10.00">RunDMPlexGeomProcesses</text>
</a>
</g>
</g>
<!-- Node9&#45;&gt;Node10 -->
<g id="edge11_Node000009_Node000010" class="edge">
<title>Node9&#45;&gt;Node10</title>
<g id="a_edge11_Node000009_Node000010"><a xlink:title=" ">
<path fill="none" stroke="#63b8ff" d="M579.62,-10.31C519.33,-10.14 430.8,-9.89 368.22,-9.71"/>
<polygon fill="#63b8ff" stroke="#63b8ff" points="579.77,-13.81 589.78,-10.34 579.79,-6.81 579.77,-13.81"/>
</a>
</g>
</g>
<!-- Node10&#45;&gt;Node3 -->
<g id="edge12_Node000010_Node000003" class="edge">
<title>Node10&#45;&gt;Node3</title>
<g id="a_edge12_Node000010_Node000003"><a xlink:title=" ">
<path fill="none" stroke="#63b8ff" d="M206.71,-12.29C166.99,-14.8 119.22,-19.54 77,-28.5 64.85,-31.08 51.67,-35.52 41.21,-39.45"/>
<polygon fill="#63b8ff" stroke="#63b8ff" points="207.11,-15.77 216.89,-11.69 206.7,-8.79 207.11,-15.77"/>
</a>
</g>
</g>
</g>
</svg>

<g id="navigator" transform="translate(0 0)" fill="#404254">
  <rect fill="#f2f5e9" fill-opacity="0.5" stroke="#606060" stroke-width=".5" x="0" y="0" width="60" height="60"/>
  <use id="zoomplus" xlink:href="#zoomPlus" x="17" y="9" onmousedown="handleZoom(evt,'in')"/>
  <use id="zoomminus" xlink:href="#zoomMin" x="42" y="9" onmousedown="handleZoom(evt,'out')"/>
  <use id="reset" xlink:href="#resetDef" x="30" y="36" onmousedown="handleReset()"/>
   <use id="arrowup" xlink:href="#arrowUp" x="0" y="0" onmousedown="handlePan(0,-1)"/>
  <use id="arrowright" xlink:href="#arrowRight" x="0" y="0" onmousedown="handlePan(1,0)"/>
  <use id="arrowdown" xlink:href="#arrowDown" x="0" y="0" onmousedown="handlePan(0,1)"/>
  <use id="arrowleft" xlink:href="#arrowLeft" x="0" y="0" onmousedown="handlePan(-1,0)"/>
</g>
<svg viewBox="0 0 15 15" width="100%" height="30px" preserveAspectRatio="xMaxYMin meet">
 <g id="arrow_out" transform="scale(0.3 0.3)">
  <a xlink:href="dmplex__geom_8c_a0e285c5152466ed0d16f3ccb265e2c99_icgraph_org.svg" target="_base">
   <rect id="button" ry="5" rx="5" y="6" x="6" height="38" width="38"
        fill="#f2f5e9" fill-opacity="0.5" stroke="#606060" stroke-width="1.0"/>
   <path id="arrow"
     d="M 11.500037,31.436501 C 11.940474,20.09759 22.043105,11.32322 32.158766,21.979434 L 37.068811,17.246167 C 37.068811,17.246167 37.088388,32 37.088388,32 L 22.160133,31.978069 C 22.160133,31.978069 26.997745,27.140456 26.997745,27.140456 C 18.528582,18.264221 13.291696,25.230495 11.500037,31.436501 z"
     style="fill:#404040;"/>
  </a>
 </g>
</svg>

<style type='text/css'>
<![CDATA[
[data-mouse-over-selected='false'] { opacity: 0.7; }
[data-mouse-over-selected='true']  { opacity: 1.0; }
]]>
</style>
<script type="application/ecmascript"><![CDATA[
document.addEventListener('DOMContentLoaded', (event) => {
  highlightEdges();
  highlightAdjacentNodes();
});
]]></script>
</svg>
