<?xml version="1.0" encoding="UTF-8" standalone="no"?>
<!DOCTYPE svg PUBLIC "-//W3C//DTD SVG 1.1//EN"
 "http://www.w3.org/Graphics/SVG/1.1/DTD/svg11.dtd">
<!-- Generated by graphviz version 2.43.0 (0)
 -->
<!-- Title: FEM_DMPlexGeomDestroy Pages: 1 -->
<svg width="404pt" height="64pt"
 viewBox="0.00 0.00 404.00 64.00" xmlns="http://www.w3.org/2000/svg" xmlns:xlink="http://www.w3.org/1999/xlink">
<g id="graph0" class="graph" transform="scale(1 1) rotate(0) translate(4 60)">
<title>FEM_DMPlexGeomDestroy</title>
<!-- Node1 -->
<g id="Node000001" class="node">
<title>Node1</title>
<g id="a_Node000001"><a xlink:title="Free all memory owned by the DMPlex geometry context.">
<polygon fill="#999999" stroke="#666666" points="396,-37 248,-37 248,-18 396,-18 396,-37"/>
<text text-anchor="middle" x="322" y="-25" font-family="Helvetica,sans-Serif" font-size="10.00">FEM_DMPlexGeomDestroy</text>
</a>
</g>
</g>
<!-- Node2 -->
<g id="Node000002" class="node">
<title>Node2</title>
<g id="a_Node000002"><a xlink:href="main_8c.html#a5708a379fc3617fea5407b19a4832fab" target="_top" xlink:title=" ">
<polygon fill="white" stroke="#666666" points="201,-56 88,-56 88,-37 201,-37 201,-56"/>
<text text-anchor="middle" x="144.5" y="-44" font-family="Helvetica,sans-Serif" font-size="10.00">CleanupAndFinalize</text>
</a>
</g>
</g>
<!-- Node1&#45;&gt;Node2 -->
<g id="edge1_Node000001_Node000002" class="edge">
<title>Node1&#45;&gt;Node2</title>
<g id="a_edge1_Node000001_Node000002"><a xlink:title=" ">
<path fill="none" stroke="#63b8ff" d="M237.9,-36.5C225.44,-37.85 212.86,-39.21 201.15,-40.47"/>
<polygon fill="#63b8ff" stroke="#63b8ff" points="238.28,-39.98 247.84,-35.42 237.52,-33.02 238.28,-39.98"/>
</a>
</g>
</g>
<!-- Node4 -->
<g id="Node000004" class="node">
<title>Node4</title>
<g id="a_Node000004"><a xlink:href="dmplex__geom_8c.html#af897ef006be5d3cc2be53b272a4f5a61" target="_top" xlink:title="Drop&#45;in geometry call: setup + update + destroy in one shot.">
<polygon fill="white" stroke="#666666" points="212,-19 77,-19 77,0 212,0 212,-19"/>
<text text-anchor="middle" x="144.5" y="-7" font-family="Helvetica,sans-Serif" font-size="10.00">RunDMPlexGeomSubdiv</text>
</a>
</g>
</g>
<!-- Node1&#45;&gt;Node4 -->
<g id="edge3_Node000001_Node000004" class="edge">
<title>Node1&#45;&gt;Node4</title>
<g id="a_edge3_Node000001_Node000004"><a xlink:title=" ">
<path fill="none" stroke="#63b8ff" d="M237.78,-18.96C229.16,-18.08 220.49,-17.19 212.09,-16.33"/>
<polygon fill="#63b8ff" stroke="#63b8ff" points="237.54,-22.46 247.84,-20 238.25,-15.49 237.54,-22.46"/>
</a>
</g>
</g>
<!-- Node3 -->
<g id="Node000003" class="node">
<title>Node3</title>
<g id="a_Node000003"><a xlink:href="main_8c.html#a3c04138a5bfe5d72780bb7e82a18e627" target="_top" xlink:title=" ">
<polygon fill="white" stroke="#666666" points="41,-56 0,-56 0,-37 41,-37 41,-56"/>
<text text-anchor="middle" x="20.5" y="-44" font-family="Helvetica,sans-Serif" font-size="10.00">main</text>
</a>
</g>
</g>
<!-- Node2&#45;&gt;Node3 -->
<g id="edge2_Node000002_Node000003" class="edge">
<title>Node2&#45;&gt;Node3</title>
<g id="a_edge2_Node000002_Node000003"><a xlink:title=" ">
<path fill="none" stroke="#63b8ff" d="M77.64,-46.5C64.31,-46.5 51.3,-46.5 41.16,-46.5"/>
<polygon fill="#63b8ff" stroke="#63b8ff" points="77.86,-50 87.86,-46.5 77.86,-43 77.86,-50"/>
</a>
</g>
</g>
</g>
</svg>
