<?xml version="1.0" encoding="UTF-8" standalone="no"?>
<!DOCTYPE svg PUBLIC "-//W3C//DTD SVG 1.1//EN"
 "http://www.w3.org/Graphics/SVG/1.1/DTD/svg11.dtd">
<!-- Generated by graphviz version 2.43.0 (0)
 -->
<!-- Title: dmplex_types.h Pages: 1 -->
<svg width="2624pt" height="214pt"
 viewBox="0.00 0.00 2624.00 214.00" xmlns="http://www.w3.org/2000/svg" xmlns:xlink="http://www.w3.org/1999/xlink">
<g id="graph0" class="graph" transform="scale(1 1) rotate(0) translate(4 210)">
<title>dmplex_types.h</title>
<!-- Node1 -->
<g id="Node000001" class="node">
<title>Node1</title>
<g id="a_Node000001"><a xlink:title="Persistent DMPlex geometry context for Loop subdivision surfaces.">
<polygon fill="#999999" stroke="#666666" points="1323,-206 1228,-206 1228,-187 1323,-187 1323,-206"/>
<text text-anchor="middle" x="1275.5" y="-194" font-family="Helvetica,sans-Serif" font-size="10.00">dmplex_types.h</text>
</a>
</g>
</g>
<!-- Node2 -->
<g id="Node000002" class="node">
<title>Node2</title>
<g id="a_Node000002"><a xlink:href="variables_8h.html" target="_top" xlink:title=" ">
<polygon fill="white" stroke="#666666" points="1311,-151 1240,-151 1240,-132 1311,-132 1311,-151"/>
<text text-anchor="middle" x="1275.5" y="-139" font-family="Helvetica,sans-Serif" font-size="10.00">variables.h</text>
</a>
</g>
</g>
<!-- Node1&#45;&gt;Node2 -->
<g id="edge1_Node000001_Node000002" class="edge">
<title>Node1&#45;&gt;Node2</title>
<g id="a_edge1_Node000001_Node000002"><a xlink:title=" ">
<path fill="none" stroke="#63b8ff" d="M1275.5,-176.66C1275.5,-167.93 1275.5,-157.99 1275.5,-151.09"/>
<polygon fill="#63b8ff" stroke="#63b8ff" points="1272,-176.75 1275.5,-186.75 1279,-176.75 1272,-176.75"/>
</a>
</g>
</g>
<!-- Node3 -->
<g id="Node000003" class="node">
<title>Node3</title>
<g id="a_Node000003"><a xlink:href="PyCaller_8c.html" target="_top" xlink:title=" ">
<polygon fill="white" stroke="#666666" points="194,-90.5 129,-90.5 129,-71.5 194,-71.5 194,-90.5"/>
<text text-anchor="middle" x="161.5" y="-78.5" font-family="Helvetica,sans-Serif" font-size="10.00">PyCaller.c</text>
</a>
</g>
</g>
<!-- Node2&#45;&gt;Node3 -->
<g id="edge2_Node000002_Node000003" class="edge">
<title>Node2&#45;&gt;Node3</title>
<g id="a_edge2_Node000002_Node000003"><a xlink:title=" ">
<path fill="none" stroke="#63b8ff" d="M1229.75,-140.35C1051.59,-139.49 404.07,-133.77 202.5,-96 195.99,-94.78 189.12,-92.75 182.89,-90.6"/>
<polygon fill="#63b8ff" stroke="#63b8ff" points="1229.82,-143.85 1239.83,-140.39 1229.85,-136.85 1229.82,-143.85"/>
</a>
</g>
</g>
<!-- Node4 -->
<g id="Node000004" class="node">
<title>Node4</title>
<g id="a_Node000004"><a xlink:href="active__strain_8c.html" target="_top" xlink:title="Implementation of muscle activation on shell elements using the active&#45;strain approach.">
<polygon fill="white" stroke="#666666" points="201.5,-24.5 113.5,-24.5 113.5,-5.5 201.5,-5.5 201.5,-24.5"/>
<text text-anchor="middle" x="157.5" y="-12.5" font-family="Helvetica,sans-Serif" font-size="10.00">active_strain.c</text>
</a>
</g>
</g>
<!-- Node2&#45;&gt;Node4 -->
<g id="edge3_Node000002_Node000004" class="edge">
<title>Node2&#45;&gt;Node4</title>
<g id="a_edge3_Node000002_Node000004"><a xlink:title=" ">
<path fill="none" stroke="#63b8ff" d="M1229.74,-139.89C1055.2,-137.35 436.97,-126.29 354.5,-96 333.97,-88.46 334.89,-76.12 315.5,-66 293.31,-54.42 228.29,-35.48 188.92,-24.54"/>
<polygon fill="#63b8ff" stroke="#63b8ff" points="1229.82,-143.39 1239.87,-140.04 1229.92,-136.39 1229.82,-143.39"/>
</a>
</g>
</g>
<!-- Node5 -->
<g id="Node000005" class="node">
<title>Node5</title>
<g id="a_Node000005"><a xlink:href="bcs_8c.html" target="_top" xlink:title=" ">
<polygon fill="white" stroke="#666666" points="1345,-90.5 1304,-90.5 1304,-71.5 1345,-71.5 1345,-90.5"/>
<text text-anchor="middle" x="1324.5" y="-78.5" font-family="Helvetica,sans-Serif" font-size="10.00">bcs.c</text>
</a>
</g>
</g>
<!-- Node2&#45;&gt;Node5 -->
<g id="edge4_Node000002_Node000005" class="edge">
<title>Node2&#45;&gt;Node5</title>
<g id="a_edge4_Node000002_Node000005"><a xlink:title=" ">
<path fill="none" stroke="#63b8ff" d="M1289.36,-123.95C1298.43,-113.12 1309.92,-99.41 1317.24,-90.67"/>
<polygon fill="#63b8ff" stroke="#63b8ff" points="1286.47,-121.95 1282.73,-131.87 1291.83,-126.45 1286.47,-121.95"/>
</a>
</g>
</g>
<!-- Node6 -->
<g id="Node000006" class="node">
<title>Node6</title>
<g id="a_Node000006"><a xlink:href="bending_8c.html" target="_top" xlink:title=" ">
<polygon fill="white" stroke="#666666" points="1427.5,-90.5 1363.5,-90.5 1363.5,-71.5 1427.5,-71.5 1427.5,-90.5"/>
<text text-anchor="middle" x="1395.5" y="-78.5" font-family="Helvetica,sans-Serif" font-size="10.00">bending.c</text>
</a>
</g>
</g>
<!-- Node2&#45;&gt;Node6 -->
<g id="edge5_Node000002_Node000006" class="edge">
<title>Node2&#45;&gt;Node6</title>
<g id="a_edge5_Node000002_Node000006"><a xlink:title=" ">
<path fill="none" stroke="#63b8ff" d="M1302.2,-127.48C1325.33,-116.21 1358.11,-100.23 1378.03,-90.52"/>
<polygon fill="#63b8ff" stroke="#63b8ff" points="1300.4,-124.47 1292.95,-131.99 1303.47,-130.76 1300.4,-124.47"/>
</a>
</g>
</g>
<!-- Node7 -->
<g id="Node000007" class="node">
<title>Node7</title>
<g id="a_Node000007"><a xlink:href="contact_8c.html" target="_top" xlink:title=" ">
<polygon fill="white" stroke="#666666" points="1507,-90.5 1446,-90.5 1446,-71.5 1507,-71.5 1507,-90.5"/>
<text text-anchor="middle" x="1476.5" y="-78.5" font-family="Helvetica,sans-Serif" font-size="10.00">contact.c</text>
</a>
</g>
</g>
<!-- Node2&#45;&gt;Node7 -->
<g id="edge6_Node000002_Node000007" class="edge">
<title>Node2&#45;&gt;Node7</title>
<g id="a_edge6_Node000002_Node000007"><a xlink:title=" ">
<path fill="none" stroke="#63b8ff" d="M1319.07,-129.3C1351.6,-120.74 1397.04,-108.34 1436.5,-96 1441.84,-94.33 1447.53,-92.42 1452.9,-90.56"/>
<polygon fill="#63b8ff" stroke="#63b8ff" points="1317.78,-126.02 1308.99,-131.94 1319.55,-132.8 1317.78,-126.02"/>
</a>
</g>
</g>
<!-- Node8 -->
<g id="Node000008" class="node">
<title>Node8</title>
<g id="a_Node000008"><a xlink:href="cuda__bridge_8h.html" target="_top" xlink:title=" ">
<polygon fill="white" stroke="#666666" points="449,-90.5 364,-90.5 364,-71.5 449,-71.5 449,-90.5"/>
<text text-anchor="middle" x="406.5" y="-78.5" font-family="Helvetica,sans-Serif" font-size="10.00">cuda_bridge.h</text>
</a>
</g>
</g>
<!-- Node2&#45;&gt;Node8 -->
<g id="edge7_Node000002_Node000008" class="edge">
<title>Node2&#45;&gt;Node8</title>
<g id="a_edge7_Node000002_Node000008"><a xlink:title=" ">
<path fill="none" stroke="#63b8ff" d="M1229.55,-139.29C1079.96,-135.16 607.96,-120.46 457.5,-96 449.62,-94.72 441.2,-92.69 433.52,-90.57"/>
<polygon fill="#63b8ff" stroke="#63b8ff" points="1229.66,-142.8 1239.75,-139.57 1229.85,-135.8 1229.66,-142.8"/>
</a>
</g>
</g>
<!-- Node12 -->
<g id="Node000012" class="node">
<title>Node12</title>
<g id="a_Node000012"><a xlink:href="main_8c.html" target="_top" xlink:title=" ">
<polygon fill="white" stroke="#666666" points="603.5,-24.5 553.5,-24.5 553.5,-5.5 603.5,-5.5 603.5,-24.5"/>
<text text-anchor="middle" x="578.5" y="-12.5" font-family="Helvetica,sans-Serif" font-size="10.00">main.c</text>
</a>
</g>
</g>
<!-- Node2&#45;&gt;Node12 -->
<g id="edge39_Node000002_Node000012" class="edge">
<title>Node2&#45;&gt;Node12</title>
<g id="a_edge39_Node000002_Node000012"><a xlink:title=" ">
<path fill="none" stroke="#63b8ff" d="M1229.69,-140.03C1088.73,-138.22 668.01,-129.99 617.5,-96 592.5,-79.18 582.96,-41.57 579.83,-24.6"/>
<polygon fill="#63b8ff" stroke="#63b8ff" points="1229.69,-143.53 1239.73,-140.15 1229.78,-136.53 1229.69,-143.53"/>
</a>
</g>
</g>
<!-- Node13 -->
<g id="Node000013" class="node">
<title>Node13</title>
<g id="a_Node000013"><a xlink:href="cuda__processes_8h.html" target="_top" xlink:title=" ">
<polygon fill="white" stroke="#666666" points="570,-90.5 467,-90.5 467,-71.5 570,-71.5 570,-90.5"/>
<text text-anchor="middle" x="518.5" y="-78.5" font-family="Helvetica,sans-Serif" font-size="10.00">cuda_processes.h</text>
</a>
</g>
</g>
<!-- Node2&#45;&gt;Node13 -->
<g id="edge13_Node000002_Node000013" class="edge">
<title>Node2&#45;&gt;Node13</title>
<g id="a_edge13_Node000002_Node000013"><a xlink:title=" ">
<path fill="none" stroke="#63b8ff" d="M1229.52,-139.83C1118.27,-137.72 825.91,-129.2 584.5,-96 574.52,-94.63 563.8,-92.6 553.96,-90.51"/>
<polygon fill="#63b8ff" stroke="#63b8ff" points="1229.65,-143.34 1239.72,-140.02 1229.78,-136.34 1229.65,-143.34"/>
</a>
</g>
</g>
<!-- Node14 -->
<g id="Node000014" class="node">
<title>Node14</title>
<g id="a_Node000014"><a xlink:href="dmplex__geom_8h.html" target="_top" xlink:title=" ">
<polygon fill="white" stroke="#666666" points="307,-90.5 212,-90.5 212,-71.5 307,-71.5 307,-90.5"/>
<text text-anchor="middle" x="259.5" y="-78.5" font-family="Helvetica,sans-Serif" font-size="10.00">dmplex_geom.h</text>
</a>
</g>
</g>
<!-- Node2&#45;&gt;Node14 -->
<g id="edge16_Node000002_Node000014" class="edge">
<title>Node2&#45;&gt;Node14</title>
<g id="a_edge16_Node000002_Node000014"><a xlink:title=" ">
<path fill="none" stroke="#63b8ff" d="M1229.61,-139.43C1064.38,-135.4 500.27,-120.16 321.5,-96 311.99,-94.71 301.78,-92.69 292.45,-90.57"/>
<polygon fill="#63b8ff" stroke="#63b8ff" points="1229.82,-142.93 1239.9,-139.68 1229.99,-135.94 1229.82,-142.93"/>
</a>
</g>
</g>
<!-- Node16 -->
<g id="Node000016" class="node">
<title>Node16</title>
<g id="a_Node000016"><a xlink:href="external_8c.html" target="_top" xlink:title=" ">
<polygon fill="white" stroke="#666666" points="1590,-90.5 1525,-90.5 1525,-71.5 1590,-71.5 1590,-90.5"/>
<text text-anchor="middle" x="1557.5" y="-78.5" font-family="Helvetica,sans-Serif" font-size="10.00">external.c</text>
</a>
</g>
</g>
<!-- Node2&#45;&gt;Node16 -->
<g id="edge20_Node000002_Node000016" class="edge">
<title>Node2&#45;&gt;Node16</title>
<g id="a_edge20_Node000002_Node000016"><a xlink:title=" ">
<path fill="none" stroke="#63b8ff" d="M1321.32,-134.08C1370.13,-126.78 1449.44,-113.54 1516.5,-96 1522.32,-94.48 1528.51,-92.54 1534.26,-90.59"/>
<polygon fill="#63b8ff" stroke="#63b8ff" points="1320.77,-130.63 1311.39,-135.55 1321.79,-137.55 1320.77,-130.63"/>
</a>
</g>
</g>
<!-- Node17 -->
<g id="Node000017" class="node">
<title>Node17</title>
<g id="a_Node000017"><a xlink:href="globals_8h.html" target="_top" xlink:title=" ">
<polygon fill="white" stroke="#666666" points="1669,-90.5 1608,-90.5 1608,-71.5 1669,-71.5 1669,-90.5"/>
<text text-anchor="middle" x="1638.5" y="-78.5" font-family="Helvetica,sans-Serif" font-size="10.00">globals.h</text>
</a>
</g>
</g>
<!-- Node2&#45;&gt;Node17 -->
<g id="edge21_Node000002_Node000017" class="edge">
<title>Node2&#45;&gt;Node17</title>
<g id="a_edge21_Node000002_Node000017"><a xlink:title=" ">
<path fill="none" stroke="#63b8ff" d="M1321.5,-137.21C1384.82,-132 1502.08,-119.9 1599.5,-96 1605.37,-94.56 1611.59,-92.56 1617.29,-90.52"/>
<polygon fill="#63b8ff" stroke="#63b8ff" points="1321.12,-133.73 1311.43,-138.02 1321.68,-140.71 1321.12,-133.73"/>
</a>
</g>
</g>
<!-- Node18 -->
<g id="Node000018" class="node">
<title>Node18</title>
<g id="a_Node000018"><a xlink:href="inverse_8c.html" target="_top" xlink:title=" ">
<polygon fill="white" stroke="#666666" points="1748,-90.5 1687,-90.5 1687,-71.5 1748,-71.5 1748,-90.5"/>
<text text-anchor="middle" x="1717.5" y="-78.5" font-family="Helvetica,sans-Serif" font-size="10.00">inverse.c</text>
</a>
</g>
</g>
<!-- Node2&#45;&gt;Node18 -->
<g id="edge22_Node000002_Node000018" class="edge">
<title>Node2&#45;&gt;Node18</title>
<g id="a_edge22_Node000002_Node000018"><a xlink:title=" ">
<path fill="none" stroke="#63b8ff" d="M1321.09,-138.94C1396.4,-135.6 1551.1,-125.47 1678.5,-96 1684.39,-94.64 1690.61,-92.66 1696.31,-90.62"/>
<polygon fill="#63b8ff" stroke="#63b8ff" points="1320.85,-135.45 1311.01,-139.37 1321.14,-142.44 1320.85,-135.45"/>
</a>
</g>
</g>
<!-- Node19 -->
<g id="Node000019" class="node">
<title>Node19</title>
<g id="a_Node000019"><a xlink:href="io_8c.html" target="_top" xlink:title=" ">
<polygon fill="white" stroke="#666666" points="1289.5,-24.5 1255.5,-24.5 1255.5,-5.5 1289.5,-5.5 1289.5,-24.5"/>
<text text-anchor="middle" x="1272.5" y="-12.5" font-family="Helvetica,sans-Serif" font-size="10.00">io.c</text>
</a>
</g>
</g>
<!-- Node2&#45;&gt;Node19 -->
<g id="edge23_Node000002_Node000019" class="edge">
<title>Node2&#45;&gt;Node19</title>
<g id="a_edge23_Node000002_Node000019"><a xlink:title=" ">
<path fill="none" stroke="#63b8ff" d="M1229.87,-134.11C1187.36,-127.11 1128.48,-114.37 1114.5,-96 1106.42,-85.39 1106.41,-76.6 1114.5,-66 1151.41,-17.67 1190.03,-52.56 1246.5,-30 1250.31,-28.48 1254.28,-26.54 1257.93,-24.6"/>
<polygon fill="#63b8ff" stroke="#63b8ff" points="1229.33,-137.56 1239.75,-135.68 1230.43,-130.65 1229.33,-137.56"/>
</a>
</g>
</g>
<!-- Node20 -->
<g id="Node000020" class="node">
<title>Node20</title>
<g id="a_Node000020"><a xlink:href="kokkos__bridge_8h.html" target="_top" xlink:title=" ">
<polygon fill="white" stroke="#666666" points="853,-90.5 758,-90.5 758,-71.5 853,-71.5 853,-90.5"/>
<text text-anchor="middle" x="805.5" y="-78.5" font-family="Helvetica,sans-Serif" font-size="10.00">kokkos_bridge.h</text>
</a>
</g>
</g>
<!-- Node2&#45;&gt;Node20 -->
<g id="edge24_Node000002_Node000020" class="edge">
<title>Node2&#45;&gt;Node20</title>
<g id="a_edge24_Node000002_Node000020"><a xlink:title=" ">
<path fill="none" stroke="#63b8ff" d="M1229.68,-137.57C1153.18,-132.23 994.78,-119.26 862.5,-96 854.17,-94.54 845.25,-92.55 837,-90.53"/>
<polygon fill="#63b8ff" stroke="#63b8ff" points="1229.7,-141.08 1239.92,-138.27 1230.18,-134.1 1229.7,-141.08"/>
</a>
</g>
</g>
<!-- Node24 -->
<g id="Node000024" class="node">
<title>Node24</title>
<g id="a_Node000024"><a xlink:href="kokkos__processes_8h.html" target="_top" xlink:title=" ">
<polygon fill="white" stroke="#666666" points="740,-90.5 627,-90.5 627,-71.5 740,-71.5 740,-90.5"/>
<text text-anchor="middle" x="683.5" y="-78.5" font-family="Helvetica,sans-Serif" font-size="10.00">kokkos_processes.h</text>
</a>
</g>
</g>
<!-- Node2&#45;&gt;Node24 -->
<g id="edge29_Node000002_Node000024" class="edge">
<title>Node2&#45;&gt;Node24</title>
<g id="a_edge29_Node000002_Node000024"><a xlink:title=" ">
<path fill="none" stroke="#63b8ff" d="M1229.8,-138.61C1138.11,-134.39 925.35,-122.4 748.5,-96 738.91,-94.57 728.61,-92.57 719.11,-90.53"/>
<polygon fill="#63b8ff" stroke="#63b8ff" points="1229.7,-142.11 1239.85,-139.06 1230.02,-135.12 1229.7,-142.11"/>
</a>
</g>
</g>
<!-- Node25 -->
<g id="Node000025" class="node">
<title>Node25</title>
<g id="a_Node000025"><a xlink:href="lv__geometry_8c.html" target="_top" xlink:title=" ">
<polygon fill="white" stroke="#666666" points="1393,-24.5 1308,-24.5 1308,-5.5 1393,-5.5 1393,-24.5"/>
<text text-anchor="middle" x="1350.5" y="-12.5" font-family="Helvetica,sans-Serif" font-size="10.00">lv_geometry.c</text>
</a>
</g>
</g>
<!-- Node2&#45;&gt;Node25 -->
<g id="edge32_Node000002_Node000025" class="edge">
<title>Node2&#45;&gt;Node25</title>
<g id="a_edge32_Node000002_Node000025"><a xlink:title=" ">
<path fill="none" stroke="#63b8ff" d="M1265.53,-122.33C1258.28,-106.47 1251.36,-83.33 1261.5,-66 1273.85,-44.89 1298.75,-32.01 1319.08,-24.62"/>
<polygon fill="#63b8ff" stroke="#63b8ff" points="1262.55,-124.2 1270.16,-131.57 1268.81,-121.07 1262.55,-124.2"/>
</a>
</g>
</g>
<!-- Node26 -->
<g id="Node000026" class="node">
<title>Node26</title>
<g id="a_Node000026"><a xlink:href="lv__geometry_8h.html" target="_top" xlink:title=" ">
<polygon fill="white" stroke="#666666" points="1209.5,-90.5 1123.5,-90.5 1123.5,-71.5 1209.5,-71.5 1209.5,-90.5"/>
<text text-anchor="middle" x="1166.5" y="-78.5" font-family="Helvetica,sans-Serif" font-size="10.00">lv_geometry.h</text>
</a>
</g>
</g>
<!-- Node2&#45;&gt;Node26 -->
<g id="edge33_Node000002_Node000026" class="edge">
<title>Node2&#45;&gt;Node26</title>
<g id="a_edge33_Node000002_Node000026"><a xlink:title=" ">
<path fill="none" stroke="#63b8ff" d="M1250.49,-127.08C1229.64,-115.88 1200.55,-100.27 1182.65,-90.67"/>
<polygon fill="#63b8ff" stroke="#63b8ff" points="1248.95,-130.22 1259.42,-131.87 1252.26,-124.06 1248.95,-130.22"/>
</a>
</g>
</g>
<!-- Node27 -->
<g id="Node000027" class="node">
<title>Node27</title>
<g id="a_Node000027"><a xlink:href="lv__geometry__unstructured_8c.html" target="_top" xlink:title=" ">
<polygon fill="white" stroke="#666666" points="1564,-24.5 1411,-24.5 1411,-5.5 1564,-5.5 1564,-24.5"/>
<text text-anchor="middle" x="1487.5" y="-12.5" font-family="Helvetica,sans-Serif" font-size="10.00">lv_geometry_unstructured.c</text>
</a>
</g>
</g>
<!-- Node2&#45;&gt;Node27 -->
<g id="edge38_Node000002_Node000027" class="edge">
<title>Node2&#45;&gt;Node27</title>
<g id="a_edge38_Node000002_Node000027"><a xlink:title=" ">
<path fill="none" stroke="#63b8ff" d="M1275.52,-121.49C1276.58,-104.65 1280.83,-80.56 1295.5,-66 1306.23,-55.35 1392.48,-35.81 1445.67,-24.56"/>
<polygon fill="#63b8ff" stroke="#63b8ff" points="1272.01,-121.67 1275.2,-131.77 1279.01,-121.88 1272.01,-121.67"/>
</a>
</g>
</g>
<!-- Node28 -->
<g id="Node000028" class="node">
<title>Node28</title>
<g id="a_Node000028"><a xlink:href="manufactured__active__strain_8c.html" target="_top" xlink:title=" ">
<polygon fill="white" stroke="#666666" points="1099.5,-30 979.5,-30 979.5,0 1099.5,0 1099.5,-30"/>
<text text-anchor="start" x="987.5" y="-18" font-family="Helvetica,sans-Serif" font-size="10.00">manufactured_active</text>
<text text-anchor="middle" x="1039.5" y="-7" font-family="Helvetica,sans-Serif" font-size="10.00">_strain.c</text>
</a>
</g>
</g>
<!-- Node2&#45;&gt;Node28 -->
<g id="edge40_Node000002_Node000028" class="edge">
<title>Node2&#45;&gt;Node28</title>
<g id="a_edge40_Node000002_Node000028"><a xlink:title=" ">
<path fill="none" stroke="#63b8ff" d="M1229.82,-138.42C1190.57,-134.64 1134.05,-124.25 1093.5,-96 1069.58,-79.33 1053.23,-48.37 1045.21,-30.24"/>
<polygon fill="#63b8ff" stroke="#63b8ff" points="1229.65,-141.92 1239.91,-139.28 1230.24,-134.94 1229.65,-141.92"/>
</a>
</g>
</g>
<!-- Node29 -->
<g id="Node000029" class="node">
<title>Node29</title>
<g id="a_Node000029"><a xlink:href="manufactured__active__strain_8h.html" target="_top" xlink:title=" ">
<polygon fill="white" stroke="#666666" points="991.5,-96 871.5,-96 871.5,-66 991.5,-66 991.5,-96"/>
<text text-anchor="start" x="879.5" y="-84" font-family="Helvetica,sans-Serif" font-size="10.00">manufactured_active</text>
<text text-anchor="middle" x="931.5" y="-73" font-family="Helvetica,sans-Serif" font-size="10.00">_strain.h</text>
</a>
</g>
</g>
<!-- Node2&#45;&gt;Node29 -->
<g id="edge41_Node000002_Node000029" class="edge">
<title>Node2&#45;&gt;Node29</title>
<g id="a_edge41_Node000002_Node000029"><a xlink:title=" ">
<path fill="none" stroke="#63b8ff" d="M1229.74,-133.3C1175.99,-124.76 1084.17,-109.92 1005.5,-96 1000.99,-95.2 996.34,-94.36 991.65,-93.5"/>
<polygon fill="#63b8ff" stroke="#63b8ff" points="1229.22,-136.76 1239.64,-134.87 1230.31,-129.84 1229.22,-136.76"/>
</a>
</g>
</g>
<!-- Node30 -->
<g id="Node000030" class="node">
<title>Node30</title>
<g id="a_Node000030"><a xlink:href="manufactured__active__strain__b_8c.html" target="_top" xlink:title=" ">
<polygon fill="white" stroke="#666666" points="1237.5,-30 1117.5,-30 1117.5,0 1237.5,0 1237.5,-30"/>
<text text-anchor="start" x="1125.5" y="-18" font-family="Helvetica,sans-Serif" font-size="10.00">manufactured_active</text>
<text text-anchor="middle" x="1177.5" y="-7" font-family="Helvetica,sans-Serif" font-size="10.00">_strain_b.c</text>
</a>
</g>
</g>
<!-- Node2&#45;&gt;Node30 -->
<g id="edge46_Node000002_Node000030" class="edge">
<title>Node2&#45;&gt;Node30</title>
<g id="a_edge46_Node000002_Node000030"><a xlink:title=" ">
<path fill="none" stroke="#63b8ff" d="M1229.73,-134.98C1184.17,-128.44 1118.86,-115.84 1103.5,-96 1084.51,-71.47 1120.22,-45.53 1148.34,-30.06"/>
<polygon fill="#63b8ff" stroke="#63b8ff" points="1229.31,-138.46 1239.7,-136.36 1230.28,-131.52 1229.31,-138.46"/>
</a>
</g>
</g>
<!-- Node31 -->
<g id="Node000031" class="node">
<title>Node31</title>
<g id="a_Node000031"><a xlink:href="material_8c.html" target="_top" xlink:title=" ">
<polygon fill="white" stroke="#666666" points="1832.5,-90.5 1766.5,-90.5 1766.5,-71.5 1832.5,-71.5 1832.5,-90.5"/>
<text text-anchor="middle" x="1799.5" y="-78.5" font-family="Helvetica,sans-Serif" font-size="10.00">material.c</text>
</a>
</g>
</g>
<!-- Node2&#45;&gt;Node31 -->
<g id="edge47_Node000002_Node000031" class="edge">
<title>Node2&#45;&gt;Node31</title>
<g id="a_edge47_Node000002_Node000031"><a xlink:title=" ">
<path fill="none" stroke="#63b8ff" d="M1321.54,-139.75C1407.92,-137.58 1599.8,-129.1 1757.5,-96 1763.97,-94.64 1770.83,-92.62 1777.09,-90.53"/>
<polygon fill="#63b8ff" stroke="#63b8ff" points="1321.21,-136.26 1311.29,-139.99 1321.37,-143.26 1321.21,-136.26"/>
</a>
</g>
</g>
<!-- Node32 -->
<g id="Node000032" class="node">
<title>Node32</title>
<g id="a_Node000032"><a xlink:href="material__NonlinearCantilever_8c.html" target="_top" xlink:title=" ">
<polygon fill="white" stroke="#666666" points="2018.5,-90.5 1850.5,-90.5 1850.5,-71.5 2018.5,-71.5 2018.5,-90.5"/>
<text text-anchor="middle" x="1934.5" y="-78.5" font-family="Helvetica,sans-Serif" font-size="10.00">material_NonlinearCantilever.c</text>
</a>
</g>
</g>
<!-- Node2&#45;&gt;Node32 -->
<g id="edge48_Node000002_Node000032" class="edge">
<title>Node2&#45;&gt;Node32</title>
<g id="a_edge48_Node000002_Node000032"><a xlink:title=" ">
<path fill="none" stroke="#63b8ff" d="M1321.28,-138.01C1417.71,-132.51 1648.71,-118.06 1841.5,-96 1854.8,-94.48 1869.12,-92.49 1882.45,-90.5"/>
<polygon fill="#63b8ff" stroke="#63b8ff" points="1320.8,-134.53 1311.02,-138.59 1321.2,-141.52 1320.8,-134.53"/>
</a>
</g>
</g>
<!-- Node33 -->
<g id="Node000033" class="node">
<title>Node33</title>
<g id="a_Node000033"><a xlink:href="material__org_8c.html" target="_top" xlink:title=" ">
<polygon fill="white" stroke="#666666" points="2124,-90.5 2037,-90.5 2037,-71.5 2124,-71.5 2124,-90.5"/>
<text text-anchor="middle" x="2080.5" y="-78.5" font-family="Helvetica,sans-Serif" font-size="10.00">material_org.c</text>
</a>
</g>
</g>
<!-- Node2&#45;&gt;Node33 -->
<g id="edge49_Node000002_Node000033" class="edge">
<title>Node2&#45;&gt;Node33</title>
<g id="a_edge49_Node000002_Node000033"><a xlink:title=" ">
<path fill="none" stroke="#63b8ff" d="M1321.1,-140.95C1438.84,-141.42 1762.37,-138.43 2027.5,-96 2035.68,-94.69 2044.42,-92.66 2052.39,-90.54"/>
<polygon fill="#63b8ff" stroke="#63b8ff" points="1321.03,-137.45 1311.01,-140.9 1320.99,-144.45 1321.03,-137.45"/>
</a>
</g>
</g>
<!-- Node34 -->
<g id="Node000034" class="node">
<title>Node34</title>
<g id="a_Node000034"><a xlink:href="math_8c.html" target="_top" xlink:title=" ">
<polygon fill="white" stroke="#666666" points="2192.5,-90.5 2142.5,-90.5 2142.5,-71.5 2192.5,-71.5 2192.5,-90.5"/>
<text text-anchor="middle" x="2167.5" y="-78.5" font-family="Helvetica,sans-Serif" font-size="10.00">math.c</text>
</a>
</g>
</g>
<!-- Node2&#45;&gt;Node34 -->
<g id="edge50_Node000002_Node000034" class="edge">
<title>Node2&#45;&gt;Node34</title>
<g id="a_edge50_Node000002_Node000034"><a xlink:title=" ">
<path fill="none" stroke="#63b8ff" d="M1321.25,-140.16C1475.67,-138.69 1976.66,-131.27 2133.5,-96 2138.98,-94.77 2144.71,-92.73 2149.87,-90.58"/>
<polygon fill="#63b8ff" stroke="#63b8ff" points="1321.13,-136.66 1311.17,-140.25 1321.2,-143.66 1321.13,-136.66"/>
</a>
</g>
</g>
<!-- Node35 -->
<g id="Node000035" class="node">
<title>Node35</title>
<g id="a_Node000035"><a xlink:href="membrane_8c.html" target="_top" xlink:title=" ">
<polygon fill="white" stroke="#666666" points="2288.5,-90.5 2210.5,-90.5 2210.5,-71.5 2288.5,-71.5 2288.5,-90.5"/>
<text text-anchor="middle" x="2249.5" y="-78.5" font-family="Helvetica,sans-Serif" font-size="10.00">membrane.c</text>
</a>
</g>
</g>
<!-- Node2&#45;&gt;Node35 -->
<g id="edge51_Node000002_Node000035" class="edge">
<title>Node2&#45;&gt;Node35</title>
<g id="a_edge51_Node000002_Node000035"><a xlink:title=" ">
<path fill="none" stroke="#63b8ff" d="M1321.19,-139.73C1483.13,-136.77 2029.18,-124.85 2201.5,-96 2209.03,-94.74 2217.06,-92.69 2224.35,-90.54"/>
<polygon fill="#63b8ff" stroke="#63b8ff" points="1321.02,-136.23 1311.09,-139.91 1321.15,-143.23 1321.02,-136.23"/>
</a>
</g>
</g>
<!-- Node36 -->
<g id="Node000036" class="node">
<title>Node36</title>
<g id="a_Node000036"><a xlink:href="mlp_8c.html" target="_top" xlink:title=" ">
<polygon fill="white" stroke="#666666" points="2350.5,-90.5 2306.5,-90.5 2306.5,-71.5 2350.5,-71.5 2350.5,-90.5"/>
<text text-anchor="middle" x="2328.5" y="-78.5" font-family="Helvetica,sans-Serif" font-size="10.00">mlp.c</text>
</a>
</g>
</g>
<!-- Node2&#45;&gt;Node36 -->
<g id="edge52_Node000002_Node000036" class="edge">
<title>Node2&#45;&gt;Node36</title>
<g id="a_edge52_Node000002_Node000036"><a xlink:title=" ">
<path fill="none" stroke="#63b8ff" d="M1321.17,-140.8C1494.06,-141.59 2108.19,-141.09 2297.5,-96 2302.56,-94.8 2307.8,-92.77 2312.5,-90.62"/>
<polygon fill="#63b8ff" stroke="#63b8ff" points="1321.15,-137.3 1311.13,-140.75 1321.12,-144.3 1321.15,-137.3"/>
</a>
</g>
</g>
<!-- Node37 -->
<g id="Node000037" class="node">
<title>Node37</title>
<g id="a_Node000037"><a xlink:href="muscle__activation_8c.html" target="_top" xlink:title="Implementation of muscle activation on shell element using active&#45;strain, active stress approaches.">
<polygon fill="white" stroke="#666666" points="2482.5,-90.5 2368.5,-90.5 2368.5,-71.5 2482.5,-71.5 2482.5,-90.5"/>
<text text-anchor="middle" x="2425.5" y="-78.5" font-family="Helvetica,sans-Serif" font-size="10.00">muscle_activation.c</text>
</a>
</g>
</g>
<!-- Node2&#45;&gt;Node37 -->
<g id="edge53_Node000002_Node000037" class="edge">
<title>Node2&#45;&gt;Node37</title>
<g id="a_edge53_Node000002_Node000037"><a xlink:title=" ">
<path fill="none" stroke="#63b8ff" d="M1321.3,-139.65C1500.44,-136.15 2153.82,-121.85 2359.5,-96 2369.73,-94.71 2380.72,-92.66 2390.75,-90.51"/>
<polygon fill="#63b8ff" stroke="#63b8ff" points="1321.1,-136.15 1311.17,-139.84 1321.24,-143.15 1321.1,-136.15"/>
</a>
</g>
</g>
<!-- Node38 -->
<g id="Node000038" class="node">
<title>Node38</title>
<g id="a_Node000038"><a xlink:href="muscle__activation_8h.html" target="_top" xlink:title="Declarations for muscle activation module using active&#45;strain and active&#45;stress approaches.">
<polygon fill="white" stroke="#666666" points="2616,-90.5 2501,-90.5 2501,-71.5 2616,-71.5 2616,-90.5"/>
<text text-anchor="middle" x="2558.5" y="-78.5" font-family="Helvetica,sans-Serif" font-size="10.00">muscle_activation.h</text>
</a>
</g>
</g>
<!-- Node2&#45;&gt;Node38 -->
<g id="edge54_Node000002_Node000038" class="edge">
<title>Node2&#45;&gt;Node38</title>
<g id="a_edge54_Node000002_Node000038"><a xlink:title=" ">
<path fill="none" stroke="#63b8ff" d="M1321.09,-139.87C1513.31,-137.03 2258.43,-124.41 2491.5,-96 2501.88,-94.73 2513.04,-92.69 2523.22,-90.54"/>
<polygon fill="#63b8ff" stroke="#63b8ff" points="1321,-136.37 1311.05,-140.01 1321.1,-143.37 1321,-136.37"/>
</a>
</g>
</g>
<!-- Node8&#45;&gt;Node4 -->
<g id="edge8_Node000008_Node000004" class="edge">
<title>Node8&#45;&gt;Node4</title>
<g id="a_edge8_Node000008_Node000004"><a xlink:title=" ">
<path fill="none" stroke="#63b8ff" d="M362.59,-68.91C322.85,-58.85 262.72,-43.56 210.5,-30 203.78,-28.25 196.58,-26.37 189.72,-24.56"/>
<polygon fill="#63b8ff" stroke="#63b8ff" points="361.93,-72.36 372.49,-71.42 363.65,-65.57 361.93,-72.36"/>
</a>
</g>
</g>
<!-- Node9 -->
<g id="Node000009" class="node">
<title>Node9</title>
<g id="a_Node000009"><a xlink:href="cuda__processes_8c.html" target="_top" xlink:title=" ">
<polygon fill="white" stroke="#666666" points="535.5,-24.5 433.5,-24.5 433.5,-5.5 535.5,-5.5 535.5,-24.5"/>
<text text-anchor="middle" x="484.5" y="-12.5" font-family="Helvetica,sans-Serif" font-size="10.00">cuda_processes.c</text>
</a>
</g>
</g>
<!-- Node8&#45;&gt;Node9 -->
<g id="edge9_Node000008_Node000009" class="edge">
<title>Node8&#45;&gt;Node9</title>
<g id="a_edge9_Node000008_Node000009"><a xlink:title=" ">
<path fill="none" stroke="#63b8ff" d="M424.8,-64.99C440.07,-52.46 461.3,-35.04 473.9,-24.7"/>
<polygon fill="#63b8ff" stroke="#63b8ff" points="422.53,-62.32 417.02,-71.37 426.97,-67.73 422.53,-62.32"/>
</a>
</g>
</g>
<!-- Node10 -->
<g id="Node000010" class="node">
<title>Node10</title>
<g id="a_Node000010"><a xlink:href="cuda__stub_8c.html" target="_top" xlink:title=" ">
<polygon fill="white" stroke="#666666" points="415.5,-24.5 341.5,-24.5 341.5,-5.5 415.5,-5.5 415.5,-24.5"/>
<text text-anchor="middle" x="378.5" y="-12.5" font-family="Helvetica,sans-Serif" font-size="10.00">cuda_stub.c</text>
</a>
</g>
</g>
<!-- Node8&#45;&gt;Node10 -->
<g id="edge10_Node000008_Node000010" class="edge">
<title>Node8&#45;&gt;Node10</title>
<g id="a_edge10_Node000008_Node000010"><a xlink:title=" ">
<path fill="none" stroke="#63b8ff" d="M398.71,-62.18C393.4,-50.05 386.6,-34.51 382.4,-24.91"/>
<polygon fill="#63b8ff" stroke="#63b8ff" points="395.51,-63.61 402.72,-71.37 401.92,-60.8 395.51,-63.61"/>
</a>
</g>
</g>
<!-- Node11 -->
<g id="Node000011" class="node">
<title>Node11</title>
<g id="a_Node000011"><a xlink:href="cuda__wrapper_8cpp.html" target="_top" xlink:title=" ">
<polygon fill="white" stroke="#666666" points="323.5,-24.5 219.5,-24.5 219.5,-5.5 323.5,-5.5 323.5,-24.5"/>
<text text-anchor="middle" x="271.5" y="-12.5" font-family="Helvetica,sans-Serif" font-size="10.00">cuda_wrapper.cpp</text>
</a>
</g>
</g>
<!-- Node8&#45;&gt;Node11 -->
<g id="edge11_Node000008_Node000011" class="edge">
<title>Node8&#45;&gt;Node11</title>
<g id="a_edge11_Node000008_Node000011"><a xlink:title=" ">
<path fill="none" stroke="#63b8ff" d="M379.14,-67.03C352.53,-54.42 312.87,-35.61 289.85,-24.7"/>
<polygon fill="#63b8ff" stroke="#63b8ff" points="377.76,-70.25 388.29,-71.37 380.76,-63.92 377.76,-70.25"/>
</a>
</g>
</g>
<!-- Node8&#45;&gt;Node12 -->
<g id="edge12_Node000008_Node000012" class="edge">
<title>Node8&#45;&gt;Node12</title>
<g id="a_edge12_Node000008_Node000012"><a xlink:title=" ">
<path fill="none" stroke="#63b8ff" d="M440.77,-68.05C468.78,-58.16 509.36,-43.59 544.5,-30 548.91,-28.3 553.61,-26.41 558.06,-24.58"/>
<polygon fill="#63b8ff" stroke="#63b8ff" points="439.32,-64.84 431.05,-71.46 441.64,-71.45 439.32,-64.84"/>
</a>
</g>
</g>
<!-- Node13&#45;&gt;Node9 -->
<g id="edge14_Node000013_Node000009" class="edge">
<title>Node13&#45;&gt;Node9</title>
<g id="a_edge14_Node000013_Node000009"><a xlink:title=" ">
<path fill="none" stroke="#63b8ff" d="M509.04,-62.18C502.59,-50.05 494.33,-34.51 489.23,-24.91"/>
<polygon fill="#63b8ff" stroke="#63b8ff" points="506.13,-64.18 513.91,-71.37 512.31,-60.9 506.13,-64.18"/>
</a>
</g>
</g>
<!-- Node13&#45;&gt;Node12 -->
<g id="edge15_Node000013_Node000012" class="edge">
<title>Node13&#45;&gt;Node12</title>
<g id="a_edge15_Node000013_Node000012"><a xlink:title=" ">
<path fill="none" stroke="#63b8ff" d="M533.52,-63.98C545.1,-51.62 560.7,-34.99 570.15,-24.91"/>
<polygon fill="#63b8ff" stroke="#63b8ff" points="530.88,-61.68 526.59,-71.37 535.98,-66.47 530.88,-61.68"/>
</a>
</g>
</g>
<!-- Node14&#45;&gt;Node4 -->
<g id="edge17_Node000014_Node000004" class="edge">
<title>Node14&#45;&gt;Node4</title>
<g id="a_edge17_Node000014_Node000004"><a xlink:title=" ">
<path fill="none" stroke="#63b8ff" d="M237.22,-66.02C217.16,-53.43 188.3,-35.32 171.36,-24.7"/>
<polygon fill="#63b8ff" stroke="#63b8ff" points="235.41,-69.02 245.74,-71.37 239.13,-63.09 235.41,-69.02"/>
</a>
</g>
</g>
<!-- Node14&#45;&gt;Node12 -->
<g id="edge19_Node000014_Node000012" class="edge">
<title>Node14&#45;&gt;Node12</title>
<g id="a_edge19_Node000014_Node000012"><a xlink:title=" ">
<path fill="none" stroke="#63b8ff" d="M317.09,-71.41C387.61,-60.63 502.82,-42.08 544.5,-30 549.53,-28.54 554.82,-26.58 559.7,-24.59"/>
<polygon fill="#63b8ff" stroke="#63b8ff" points="316.38,-67.98 307.02,-72.94 317.44,-74.9 316.38,-67.98"/>
</a>
</g>
</g>
<!-- Node15 -->
<g id="Node000015" class="node">
<title>Node15</title>
<g id="a_Node000015"><a xlink:href="dmplex__geom_8c.html" target="_top" xlink:title="Distributed geometry kernel for Loop subdivision surfaces using PETSc DMPlex.">
<polygon fill="white" stroke="#666666" points="95,-24.5 0,-24.5 0,-5.5 95,-5.5 95,-24.5"/>
<text text-anchor="middle" x="47.5" y="-12.5" font-family="Helvetica,sans-Serif" font-size="10.00">dmplex_geom.c</text>
</a>
</g>
</g>
<!-- Node14&#45;&gt;Node15 -->
<g id="edge18_Node000014_Node000015" class="edge">
<title>Node14&#45;&gt;Node15</title>
<g id="a_edge18_Node000014_Node000015"><a xlink:title=" ">
<path fill="none" stroke="#63b8ff" d="M221.09,-68.4C179.28,-55.78 113.4,-35.89 75.98,-24.6"/>
<polygon fill="#63b8ff" stroke="#63b8ff" points="220.32,-71.83 230.91,-71.37 222.35,-65.13 220.32,-71.83"/>
</a>
</g>
</g>
<!-- Node20&#45;&gt;Node12 -->
<g id="edge28_Node000020_Node000012" class="edge">
<title>Node20&#45;&gt;Node12</title>
<g id="a_edge28_Node000020_Node000012"><a xlink:title=" ">
<path fill="none" stroke="#63b8ff" d="M761.71,-68.99C709.26,-55.76 626.65,-34.72 612.5,-30 607.78,-28.42 602.78,-26.51 598.1,-24.61"/>
<polygon fill="#63b8ff" stroke="#63b8ff" points="760.9,-72.4 771.45,-71.45 762.61,-65.61 760.9,-72.4"/>
</a>
</g>
</g>
<!-- Node21 -->
<g id="Node000021" class="node">
<title>Node21</title>
<g id="a_Node000021"><a xlink:href="kokkos__geom_8cpp.html" target="_top" xlink:title=" ">
<polygon fill="white" stroke="#666666" points="857.5,-24.5 753.5,-24.5 753.5,-5.5 857.5,-5.5 857.5,-24.5"/>
<text text-anchor="middle" x="805.5" y="-12.5" font-family="Helvetica,sans-Serif" font-size="10.00">kokkos_geom.cpp</text>
</a>
</g>
</g>
<!-- Node20&#45;&gt;Node21 -->
<g id="edge25_Node000020_Node000021" class="edge">
<title>Node20&#45;&gt;Node21</title>
<g id="a_edge25_Node000020_Node000021"><a xlink:title=" ">
<path fill="none" stroke="#63b8ff" d="M805.5,-61.08C805.5,-49.13 805.5,-34.22 805.5,-24.91"/>
<polygon fill="#63b8ff" stroke="#63b8ff" points="802,-61.37 805.5,-71.37 809,-61.37 802,-61.37"/>
</a>
</g>
</g>
<!-- Node22 -->
<g id="Node000022" class="node">
<title>Node22</title>
<g id="a_Node000022"><a xlink:href="kokkos__processes_8c.html" target="_top" xlink:title=" ">
<polygon fill="white" stroke="#666666" points="735,-24.5 622,-24.5 622,-5.5 735,-5.5 735,-24.5"/>
<text text-anchor="middle" x="678.5" y="-12.5" font-family="Helvetica,sans-Serif" font-size="10.00">kokkos_processes.c</text>
</a>
</g>
</g>
<!-- Node20&#45;&gt;Node22 -->
<g id="edge26_Node000020_Node000022" class="edge">
<title>Node20&#45;&gt;Node22</title>
<g id="a_edge26_Node000020_Node000022"><a xlink:title=" ">
<path fill="none" stroke="#63b8ff" d="M779.43,-66.86C754.4,-54.25 717.32,-35.56 695.76,-24.7"/>
<polygon fill="#63b8ff" stroke="#63b8ff" points="777.87,-69.99 788.37,-71.37 781.02,-63.74 777.87,-69.99"/>
</a>
</g>
</g>
<!-- Node23 -->
<g id="Node000023" class="node">
<title>Node23</title>
<g id="a_Node000023"><a xlink:href="kokkos__stub_8c.html" target="_top" xlink:title=" ">
<polygon fill="white" stroke="#666666" points="961,-24.5 876,-24.5 876,-5.5 961,-5.5 961,-24.5"/>
<text text-anchor="middle" x="918.5" y="-12.5" font-family="Helvetica,sans-Serif" font-size="10.00">kokkos_stub.c</text>
</a>
</g>
</g>
<!-- Node20&#45;&gt;Node23 -->
<g id="edge27_Node000020_Node000023" class="edge">
<title>Node20&#45;&gt;Node23</title>
<g id="a_edge27_Node000020_Node000023"><a xlink:title=" ">
<path fill="none" stroke="#63b8ff" d="M829.59,-66.36C851.83,-53.76 884.21,-35.42 903.14,-24.7"/>
<polygon fill="#63b8ff" stroke="#63b8ff" points="827.72,-63.39 820.74,-71.37 831.17,-69.49 827.72,-63.39"/>
</a>
</g>
</g>
<!-- Node24&#45;&gt;Node12 -->
<g id="edge31_Node000024_Node000012" class="edge">
<title>Node24&#45;&gt;Node12</title>
<g id="a_edge31_Node000024_Node000012"><a xlink:title=" ">
<path fill="none" stroke="#63b8ff" d="M660.56,-66.02C639.91,-53.43 610.2,-35.32 592.77,-24.7"/>
<polygon fill="#63b8ff" stroke="#63b8ff" points="658.98,-69.15 669.34,-71.37 662.62,-63.18 658.98,-69.15"/>
</a>
</g>
</g>
<!-- Node24&#45;&gt;Node22 -->
<g id="edge30_Node000024_Node000022" class="edge">
<title>Node24&#45;&gt;Node22</title>
<g id="a_edge30_Node000024_Node000022"><a xlink:title=" ">
<path fill="none" stroke="#63b8ff" d="M682.02,-61.08C681.09,-49.13 679.92,-34.22 679.2,-24.91"/>
<polygon fill="#63b8ff" stroke="#63b8ff" points="678.56,-61.67 682.83,-71.37 685.54,-61.13 678.56,-61.67"/>
</a>
</g>
</g>
<!-- Node26&#45;&gt;Node12 -->
<g id="edge37_Node000026_Node000012" class="edge">
<title>Node26&#45;&gt;Node12</title>
<g id="a_edge37_Node000026_Node000012"><a xlink:title=" ">
<path fill="none" stroke="#63b8ff" d="M1113,-75.38C976.39,-63.57 624.58,-32.96 612.5,-30 607.17,-28.69 601.58,-26.68 596.51,-24.59"/>
<polygon fill="#63b8ff" stroke="#63b8ff" points="1112.96,-78.89 1123.22,-76.27 1113.56,-71.92 1112.96,-78.89"/>
</a>
</g>
</g>
<!-- Node26&#45;&gt;Node19 -->
<g id="edge34_Node000026_Node000019" class="edge">
<title>Node26&#45;&gt;Node19</title>
<g id="a_edge34_Node000026_Node000019"><a xlink:title=" ">
<path fill="none" stroke="#63b8ff" d="M1189.37,-66.19C1210.23,-53.59 1240.42,-35.37 1258.09,-24.7"/>
<polygon fill="#63b8ff" stroke="#63b8ff" points="1187.55,-63.2 1180.8,-71.37 1191.17,-69.2 1187.55,-63.2"/>
</a>
</g>
</g>
<!-- Node26&#45;&gt;Node25 -->
<g id="edge35_Node000026_Node000025" class="edge">
<title>Node26&#45;&gt;Node25</title>
<g id="a_edge35_Node000026_Node000025"><a xlink:title=" ">
<path fill="none" stroke="#63b8ff" d="M1201,-68C1237.33,-55.36 1293.65,-35.78 1325.78,-24.6"/>
<polygon fill="#63b8ff" stroke="#63b8ff" points="1199.61,-64.78 1191.32,-71.37 1201.91,-71.39 1199.61,-64.78"/>
</a>
</g>
</g>
<!-- Node26&#45;&gt;Node27 -->
<g id="edge36_Node000026_Node000027" class="edge">
<title>Node26&#45;&gt;Node27</title>
<g id="a_edge36_Node000026_Node000027"><a xlink:title=" ">
<path fill="none" stroke="#63b8ff" d="M1219.6,-69.41C1282.68,-56.84 1386.67,-36.1 1444.8,-24.51"/>
<polygon fill="#63b8ff" stroke="#63b8ff" points="1218.58,-66.05 1209.46,-71.44 1219.95,-72.91 1218.58,-66.05"/>
</a>
</g>
</g>
<!-- Node29&#45;&gt;Node4 -->
<g id="edge42_Node000029_Node000004" class="edge">
<title>Node29&#45;&gt;Node4</title>
<g id="a_edge42_Node000029_Node000004"><a xlink:title=" ">
<path fill="none" stroke="#63b8ff" d="M861.33,-66.14C572.27,-30.51 493.51,-74.73 210.5,-30 202.32,-28.71 193.58,-26.68 185.6,-24.56"/>
<polygon fill="#63b8ff" stroke="#63b8ff" points="860.9,-69.62 871.26,-67.39 861.77,-62.67 860.9,-69.62"/>
</a>
</g>
</g>
<!-- Node29&#45;&gt;Node12 -->
<g id="edge43_Node000029_Node000012" class="edge">
<title>Node29&#45;&gt;Node12</title>
<g id="a_edge43_Node000029_Node000012"><a xlink:title=" ">
<path fill="none" stroke="#63b8ff" d="M861.23,-66.05C749.49,-47.7 717.3,-58.68 612.5,-30 607.33,-28.58 601.89,-26.59 596.92,-24.55"/>
<polygon fill="#63b8ff" stroke="#63b8ff" points="860.77,-69.52 871.21,-67.73 861.93,-62.62 860.77,-69.52"/>
</a>
</g>
</g>
<!-- Node29&#45;&gt;Node28 -->
<g id="edge44_Node000029_Node000028" class="edge">
<title>Node29&#45;&gt;Node28</title>
<g id="a_edge44_Node000029_Node000028"><a xlink:title=" ">
<path fill="none" stroke="#63b8ff" d="M964.08,-60.69C980.75,-50.82 1000.67,-39.01 1015.85,-30.01"/>
<polygon fill="#63b8ff" stroke="#63b8ff" points="962.02,-57.85 955.2,-65.95 965.59,-63.87 962.02,-57.85"/>
</a>
</g>
</g>
<!-- Node29&#45;&gt;Node30 -->
<g id="edge45_Node000029_Node000030" class="edge">
<title>Node29&#45;&gt;Node30</title>
<g id="a_edge45_Node000029_Node000030"><a xlink:title=" ">
<path fill="none" stroke="#63b8ff" d="M995.36,-63.39C1035.18,-53.03 1085.86,-39.84 1123.64,-30.01"/>
<polygon fill="#63b8ff" stroke="#63b8ff" points="994.28,-60.05 985.49,-65.95 996.04,-66.82 994.28,-60.05"/>
</a>
</g>
</g>
</g>
</svg>
