<?xml version="1.0" encoding="UTF-8" standalone="no"?>
<!DOCTYPE svg PUBLIC "-//W3C//DTD SVG 1.1//EN"
 "http://www.w3.org/Graphics/SVG/1.1/DTD/svg11.dtd">
<!-- Generated by graphviz version 2.43.0 (0)
 -->
<!-- Title: UpdatePatchRemoteCoordinates_ Pages: 1 -->
<svg width="944pt" height="121pt"
 viewBox="0.00 0.00 944.00 120.57" xmlns="http://www.w3.org/2000/svg" xmlns:xlink="http://www.w3.org/1999/xlink">
<g id="graph0" class="graph" transform="scale(1 1) rotate(0) translate(4 116.57)">
<title>UpdatePatchRemoteCoordinates_</title>
<!-- Node1 -->
<g id="Node000001" class="node">
<title>Node1</title>
<g id="a_Node000001"><a xlink:title="Broadcast updated vertex coordinates from owning ranks to all ranks that need them.">
<polygon fill="#999999" stroke="#666666" points="936,-57 756,-57 756,-38 936,-38 936,-57"/>
<text text-anchor="middle" x="846" y="-45" font-family="Helvetica,sans-Serif" font-size="10.00">UpdatePatchRemoteCoordinates_</text>
</a>
</g>
</g>
<!-- Node2 -->
<g id="Node000002" class="node">
<title>Node2</title>
<g id="a_Node000002"><a xlink:href="dmplex__geom_8c.html#aeca513213e67a07a712cc41e8c6412ea" target="_top" xlink:title="One&#45;time DMPlex geometry setup.">
<polygon fill="white" stroke="#666666" points="716,-94 579,-94 579,-75 716,-75 716,-94"/>
<text text-anchor="middle" x="647.5" y="-82" font-family="Helvetica,sans-Serif" font-size="10.00">FEM_DMPlexGeomSetup</text>
</a>
</g>
</g>
<!-- Node1&#45;&gt;Node2 -->
<g id="edge1_Node000001_Node000002" class="edge">
<title>Node1&#45;&gt;Node2</title>
<g id="a_edge1_Node000001_Node000002"><a xlink:title=" ">
<path fill="none" stroke="#63b8ff" d="M784.56,-58.88C757.24,-64.02 725.33,-70.03 699.27,-74.94"/>
<polygon fill="#63b8ff" stroke="#63b8ff" points="785.22,-62.32 794.4,-57.03 783.92,-55.44 785.22,-62.32"/>
</a>
</g>
</g>
<!-- Node5 -->
<g id="Node000005" class="node">
<title>Node5</title>
<g id="a_Node000005"><a xlink:href="dmplex__geom_8c.html#af7fb8fc68c27b224f0458d0c42911fe6" target="_top" xlink:title="Per&#45;SNES&#45;iteration geometry update.">
<polygon fill="white" stroke="#666666" points="720,-57 575,-57 575,-38 720,-38 720,-57"/>
<text text-anchor="middle" x="647.5" y="-45" font-family="Helvetica,sans-Serif" font-size="10.00">FEM_DMPlexGeomUpdate</text>
</a>
</g>
</g>
<!-- Node1&#45;&gt;Node5 -->
<g id="edge4_Node000001_Node000005" class="edge">
<title>Node1&#45;&gt;Node5</title>
<g id="a_edge4_Node000001_Node000005"><a xlink:title=" ">
<path fill="none" stroke="#63b8ff" d="M745.81,-47.5C737.17,-47.5 728.53,-47.5 720.17,-47.5"/>
<polygon fill="#63b8ff" stroke="#63b8ff" points="745.95,-51 755.95,-47.5 745.95,-44 745.95,-51"/>
</a>
</g>
</g>
<!-- Node9 -->
<g id="Node000009" class="node">
<title>Node9</title>
<g id="a_Node000009"><a xlink:href="dmplex__geom_8c.html#aa2b24de348fff4079de659ff63ba9b85" target="_top" xlink:title="Synchronise remote coordinates and evaluate the geometry kernel for all local cells.">
<polygon fill="white" stroke="#666666" points="705,-20 590,-20 590,-1 705,-1 705,-20"/>
<text text-anchor="middle" x="647.5" y="-8" font-family="Helvetica,sans-Serif" font-size="10.00">RunLocalGeometry_</text>
</a>
</g>
</g>
<!-- Node1&#45;&gt;Node9 -->
<g id="edge10_Node000001_Node000009" class="edge">
<title>Node1&#45;&gt;Node9</title>
<g id="a_edge10_Node000001_Node000009"><a xlink:title=" ">
<path fill="none" stroke="#63b8ff" d="M784.56,-36.12C757.24,-30.98 725.33,-24.97 699.27,-20.06"/>
<polygon fill="#63b8ff" stroke="#63b8ff" points="783.92,-39.56 794.4,-37.97 785.22,-32.68 783.92,-39.56"/>
</a>
</g>
</g>
<!-- Node3 -->
<g id="Node000003" class="node">
<title>Node3</title>
<g id="a_Node000003"><a xlink:href="main_8c.html#a3c04138a5bfe5d72780bb7e82a18e627" target="_top" xlink:title=" ">
<polygon fill="white" stroke="#666666" points="41,-57 0,-57 0,-38 41,-38 41,-57"/>
<text text-anchor="middle" x="20.5" y="-45" font-family="Helvetica,sans-Serif" font-size="10.00">main</text>
</a>
</g>
</g>
<!-- Node2&#45;&gt;Node3 -->
<g id="edge2_Node000002_Node000003" class="edge">
<title>Node2&#45;&gt;Node3</title>
<g id="a_edge2_Node000002_Node000003"><a xlink:title=" ">
<path fill="none" stroke="#63b8ff" d="M592.95,-95.86C575.8,-98.99 556.68,-101.95 539,-103.5 333.8,-121.49 277.97,-111.71 77,-66.5 64.88,-63.77 51.7,-59.33 41.24,-55.43"/>
<polygon fill="#63b8ff" stroke="#63b8ff" points="593.62,-99.3 602.8,-94.01 592.32,-92.42 593.62,-99.3"/>
</a>
</g>
</g>
<!-- Node4 -->
<g id="Node000004" class="node">
<title>Node4</title>
<g id="a_Node000004"><a xlink:href="dmplex__geom_8c.html#af897ef006be5d3cc2be53b272a4f5a61" target="_top" xlink:title="Drop&#45;in geometry call: setup + update + destroy in one shot.">
<polygon fill="white" stroke="#666666" points="539,-94 404,-94 404,-75 539,-75 539,-94"/>
<text text-anchor="middle" x="471.5" y="-82" font-family="Helvetica,sans-Serif" font-size="10.00">RunDMPlexGeomSubdiv</text>
</a>
</g>
</g>
<!-- Node2&#45;&gt;Node4 -->
<g id="edge3_Node000002_Node000004" class="edge">
<title>Node2&#45;&gt;Node4</title>
<g id="a_edge3_Node000002_Node000004"><a xlink:title=" ">
<path fill="none" stroke="#63b8ff" d="M568.59,-84.5C558.79,-84.5 548.84,-84.5 539.23,-84.5"/>
<polygon fill="#63b8ff" stroke="#63b8ff" points="568.73,-88 578.73,-84.5 568.73,-81 568.73,-88"/>
</a>
</g>
</g>
<!-- Node5&#45;&gt;Node4 -->
<g id="edge9_Node000005_Node000004" class="edge">
<title>Node5&#45;&gt;Node4</title>
<g id="a_edge9_Node000005_Node000004"><a xlink:title=" ">
<path fill="none" stroke="#63b8ff" d="M591.7,-59.15C567.8,-64.23 540.13,-70.12 517.46,-74.94"/>
<polygon fill="#63b8ff" stroke="#63b8ff" points="592.64,-62.53 601.69,-57.03 591.18,-55.68 592.64,-62.53"/>
</a>
</g>
</g>
<!-- Node6 -->
<g id="Node000006" class="node">
<title>Node6</title>
<g id="a_Node000006"><a xlink:href="active__strain_8c.html#a693fb698122674ff7df6dd47ac75167c" target="_top" xlink:title="Run per&#45;element precomputations before global internal&#45;force assembly.">
<polygon fill="white" stroke="#666666" points="520,-57 423,-57 423,-38 520,-38 520,-57"/>
<text text-anchor="middle" x="471.5" y="-45" font-family="Helvetica,sans-Serif" font-size="10.00">FInternalPreCalc</text>
</a>
</g>
</g>
<!-- Node5&#45;&gt;Node6 -->
<g id="edge5_Node000005_Node000006" class="edge">
<title>Node5&#45;&gt;Node6</title>
<g id="a_edge5_Node000005_Node000006"><a xlink:title=" ">
<path fill="none" stroke="#63b8ff" d="M564.95,-47.5C549.61,-47.5 534.04,-47.5 520.17,-47.5"/>
<polygon fill="#63b8ff" stroke="#63b8ff" points="564.97,-51 574.97,-47.5 564.97,-44 564.97,-51"/>
</a>
</g>
</g>
<!-- Node7 -->
<g id="Node000007" class="node">
<title>Node7</title>
<g id="a_Node000007"><a xlink:href="active__strain_8c.html#a3bac899c10052c346d2afe9eccbac71d" target="_top" xlink:title="Assemble global internal force vector for active&#45;strain mechanics.">
<polygon fill="white" stroke="#666666" points="330.5,-57 254.5,-57 254.5,-38 330.5,-38 330.5,-57"/>
<text text-anchor="middle" x="292.5" y="-45" font-family="Helvetica,sans-Serif" font-size="10.00">FInternalAct</text>
</a>
</g>
</g>
<!-- Node6&#45;&gt;Node7 -->
<g id="edge6_Node000006_Node000007" class="edge">
<title>Node6&#45;&gt;Node7</title>
<g id="a_edge6_Node000006_Node000007"><a xlink:title=" ">
<path fill="none" stroke="#63b8ff" d="M412.53,-47.5C385.64,-47.5 354.47,-47.5 330.77,-47.5"/>
<polygon fill="#63b8ff" stroke="#63b8ff" points="412.6,-51 422.6,-47.5 412.6,-44 412.6,-51"/>
</a>
</g>
</g>
<!-- Node8 -->
<g id="Node000008" class="node">
<title>Node8</title>
<g id="a_Node000008"><a xlink:href="main_8c.html#a9a070a6f408cadb404b0ee7fbc74c576" target="_top" xlink:title=" ">
<polygon fill="white" stroke="#666666" points="181,-57 77,-57 77,-38 181,-38 181,-57"/>
<text text-anchor="middle" x="129" y="-45" font-family="Helvetica,sans-Serif" font-size="10.00">FormFunctionFEM</text>
</a>
</g>
</g>
<!-- Node7&#45;&gt;Node8 -->
<g id="edge7_Node000007_Node000008" class="edge">
<title>Node7&#45;&gt;Node8</title>
<g id="a_edge7_Node000007_Node000008"><a xlink:title=" ">
<path fill="none" stroke="#63b8ff" d="M244.42,-47.5C224.61,-47.5 201.5,-47.5 181.26,-47.5"/>
<polygon fill="#63b8ff" stroke="#63b8ff" points="244.45,-51 254.45,-47.5 244.45,-44 244.45,-51"/>
</a>
</g>
</g>
<!-- Node8&#45;&gt;Node3 -->
<g id="edge8_Node000008_Node000003" class="edge">
<title>Node8&#45;&gt;Node3</title>
<g id="a_edge8_Node000008_Node000003"><a xlink:title=" ">
<path fill="none" stroke="#63b8ff" d="M66.83,-47.5C57.58,-47.5 48.66,-47.5 41.22,-47.5"/>
<polygon fill="#63b8ff" stroke="#63b8ff" points="66.93,-51 76.93,-47.5 66.93,-44 66.93,-51"/>
</a>
</g>
</g>
<!-- Node10 -->
<g id="Node000010" class="node">
<title>Node10</title>
<g id="a_Node000010"><a xlink:href="dmplex__geom_8c.html#ac4ecb4d172bee5f7c59a9fdf2680bb51" target="_top" xlink:title="Benchmark: run the full distributed DMPlex geometry pipeline for all bodies.">
<polygon fill="white" stroke="#666666" points="368,-19 217,-19 217,0 368,0 368,-19"/>
<text text-anchor="middle" x="292.5" y="-7" font-family="Helvetica,sans-Serif" font-size="10.00">RunDMPlexGeomProcesses</text>
</a>
</g>
</g>
<!-- Node9&#45;&gt;Node10 -->
<g id="edge11_Node000009_Node000010" class="edge">
<title>Node9&#45;&gt;Node10</title>
<g id="a_edge11_Node000009_Node000010"><a xlink:title=" ">
<path fill="none" stroke="#63b8ff" d="M579.62,-10.31C519.33,-10.14 430.8,-9.89 368.22,-9.71"/>
<polygon fill="#63b8ff" stroke="#63b8ff" points="579.77,-13.81 589.78,-10.34 579.79,-6.81 579.77,-13.81"/>
</a>
</g>
</g>
<!-- Node10&#45;&gt;Node3 -->
<g id="edge12_Node000010_Node000003" class="edge">
<title>Node10&#45;&gt;Node3</title>
<g id="a_edge12_Node000010_Node000003"><a xlink:title=" ">
<path fill="none" stroke="#63b8ff" d="M206.71,-12.29C166.99,-14.8 119.22,-19.54 77,-28.5 64.85,-31.08 51.67,-35.52 41.21,-39.45"/>
<polygon fill="#63b8ff" stroke="#63b8ff" points="207.11,-15.77 216.89,-11.69 206.7,-8.79 207.11,-15.77"/>
</a>
</g>
</g>
</g>
</svg>
