<?xml version="1.0" encoding="UTF-8" standalone="no"?>
<!DOCTYPE svg PUBLIC "-//W3C//DTD SVG 1.1//EN"
 "http://www.w3.org/Graphics/SVG/1.1/DTD/svg11.dtd">
<!-- Generated by graphviz version 2.43.0 (0)
 -->
<!-- Title: DMPlexPatchExchangeDestroy_ Pages: 1 -->
<svg width="614pt" height="101pt"
 viewBox="0.00 0.00 614.00 101.00" xmlns="http://www.w3.org/2000/svg" xmlns:xlink="http://www.w3.org/1999/xlink">
<g id="graph0" class="graph" transform="scale(1 1) rotate(0) translate(4 97)">
<title>DMPlexPatchExchangeDestroy_</title>
<!-- Node1 -->
<g id="Node000001" class="node">
<title>Node1</title>
<g id="a_Node000001"><a xlink:title="Free all heap memory owned by a DMPlexPatchExchange and zero the struct.">
<polygon fill="#999999" stroke="#666666" points="606,-37 435,-37 435,-18 606,-18 606,-37"/>
<text text-anchor="middle" x="520.5" y="-25" font-family="Helvetica,sans-Serif" font-size="10.00">DMPlexPatchExchangeDestroy_</text>
</a>
</g>
</g>
<!-- Node2 -->
<g id="Node000002" class="node">
<title>Node2</title>
<g id="a_Node000002"><a xlink:href="dmplex__geom_8c.html#acd9d927472d6fc4a438b9c505e2f27c7" target="_top" xlink:title="Destroy the persistent DMPlex geometry context in fem&#45;&gt;geom_ctx.">
<polygon fill="white" stroke="#666666" points="397.5,-56 249.5,-56 249.5,-37 397.5,-37 397.5,-56"/>
<text text-anchor="middle" x="323.5" y="-44" font-family="Helvetica,sans-Serif" font-size="10.00">FEM_DMPlexGeomDestroy</text>
</a>
</g>
</g>
<!-- Node1&#45;&gt;Node2 -->
<g id="edge1_Node000001_Node000002" class="edge">
<title>Node1&#45;&gt;Node2</title>
<g id="a_edge1_Node000001_Node000002"><a xlink:title=" ">
<path fill="none" stroke="#63b8ff" d="M424.66,-36.74C415.63,-37.62 406.57,-38.5 397.79,-39.36"/>
<polygon fill="#63b8ff" stroke="#63b8ff" points="425.21,-40.2 434.82,-35.75 424.53,-33.24 425.21,-40.2"/>
</a>
</g>
</g>
<!-- Node6 -->
<g id="Node000006" class="node">
<title>Node6</title>
<g id="a_Node000006"><a xlink:href="dmplex__geom_8c.html#ac4ecb4d172bee5f7c59a9fdf2680bb51" target="_top" xlink:title="Benchmark: run the full distributed DMPlex geometry pipeline for all bodies.">
<polygon fill="white" stroke="#666666" points="399,-19 248,-19 248,0 399,0 399,-19"/>
<text text-anchor="middle" x="323.5" y="-7" font-family="Helvetica,sans-Serif" font-size="10.00">RunDMPlexGeomProcesses</text>
</a>
</g>
</g>
<!-- Node1&#45;&gt;Node6 -->
<g id="edge5_Node000001_Node000006" class="edge">
<title>Node1&#45;&gt;Node6</title>
<g id="a_edge5_Node000001_Node000006"><a xlink:title=" ">
<path fill="none" stroke="#63b8ff" d="M424.72,-18.75C416.08,-17.95 407.42,-17.15 399,-16.38"/>
<polygon fill="#63b8ff" stroke="#63b8ff" points="424.54,-22.25 434.82,-19.68 425.18,-15.28 424.54,-22.25"/>
</a>
</g>
</g>
<!-- Node3 -->
<g id="Node000003" class="node">
<title>Node3</title>
<g id="a_Node000003"><a xlink:href="main_8c.html#a5708a379fc3617fea5407b19a4832fab" target="_top" xlink:title=" ">
<polygon fill="white" stroke="#666666" points="201,-93 88,-93 88,-74 201,-74 201,-93"/>
<text text-anchor="middle" x="144.5" y="-81" font-family="Helvetica,sans-Serif" font-size="10.00">CleanupAndFinalize</text>
</a>
</g>
</g>
<!-- Node2&#45;&gt;Node3 -->
<g id="edge2_Node000002_Node000003" class="edge">
<title>Node2&#45;&gt;Node3</title>
<g id="a_edge2_Node000002_Node000003"><a xlink:title=" ">
<path fill="none" stroke="#63b8ff" d="M267.08,-58.08C242.7,-63.18 214.39,-69.1 191.23,-73.94"/>
<polygon fill="#63b8ff" stroke="#63b8ff" points="267.85,-61.5 276.92,-56.03 266.41,-54.65 267.85,-61.5"/>
</a>
</g>
</g>
<!-- Node5 -->
<g id="Node000005" class="node">
<title>Node5</title>
<g id="a_Node000005"><a xlink:href="dmplex__geom_8c.html#af897ef006be5d3cc2be53b272a4f5a61" target="_top" xlink:title="Drop&#45;in geometry call: setup + update + destroy in one shot.">
<polygon fill="white" stroke="#666666" points="212,-56 77,-56 77,-37 212,-37 212,-56"/>
<text text-anchor="middle" x="144.5" y="-44" font-family="Helvetica,sans-Serif" font-size="10.00">RunDMPlexGeomSubdiv</text>
</a>
</g>
</g>
<!-- Node2&#45;&gt;Node5 -->
<g id="edge4_Node000002_Node000005" class="edge">
<title>Node2&#45;&gt;Node5</title>
<g id="a_edge4_Node000002_Node000005"><a xlink:title=" ">
<path fill="none" stroke="#63b8ff" d="M239.26,-46.5C230.15,-46.5 220.97,-46.5 212.1,-46.5"/>
<polygon fill="#63b8ff" stroke="#63b8ff" points="239.49,-50 249.49,-46.5 239.49,-43 239.49,-50"/>
</a>
</g>
</g>
<!-- Node4 -->
<g id="Node000004" class="node">
<title>Node4</title>
<g id="a_Node000004"><a xlink:href="main_8c.html#a3c04138a5bfe5d72780bb7e82a18e627" target="_top" xlink:title=" ">
<polygon fill="white" stroke="#666666" points="41,-55 0,-55 0,-36 41,-36 41,-55"/>
<text text-anchor="middle" x="20.5" y="-43" font-family="Helvetica,sans-Serif" font-size="10.00">main</text>
</a>
</g>
</g>
<!-- Node3&#45;&gt;Node4 -->
<g id="edge3_Node000003_Node000004" class="edge">
<title>Node3&#45;&gt;Node4</title>
<g id="a_edge3_Node000003_Node000004"><a xlink:title=" ">
<path fill="none" stroke="#63b8ff" d="M96.07,-71.17C89.64,-69.35 83.14,-67.43 77,-65.5 64.98,-61.72 51.7,-56.95 41.15,-53.02"/>
<polygon fill="#63b8ff" stroke="#63b8ff" points="95.49,-74.64 106.06,-73.94 97.36,-67.9 95.49,-74.64"/>
</a>
</g>
</g>
<!-- Node6&#45;&gt;Node4 -->
<g id="edge6_Node000006_Node000004" class="edge">
<title>Node6&#45;&gt;Node4</title>
<g id="a_edge6_Node000006_Node000004"><a xlink:title=" ">
<path fill="none" stroke="#63b8ff" d="M237.49,-10.71C189.92,-12.64 129.75,-17.17 77,-27.5 64.87,-29.88 51.7,-34.07 41.23,-37.82"/>
<polygon fill="#63b8ff" stroke="#63b8ff" points="237.89,-14.2 247.76,-10.33 237.63,-7.21 237.89,-14.2"/>
</a>
</g>
</g>
</g>
</svg>
