<?xml version="1.0" encoding="UTF-8" standalone="no"?>
<!DOCTYPE svg PUBLIC "-//W3C//DTD SVG 1.1//EN"
 "http://www.w3.org/Graphics/SVG/1.1/DTD/svg11.dtd">
<!-- Generated by graphviz version 2.43.0 (0)
 -->
<!-- Title: FEM_DMPlexGeomSetup Pages: 1 -->
<!--zoomable 273 -->

<svg id="main" version="1.1" xmlns="http://www.w3.org/2000/svg" xmlns:xlink="http://www.w3.org/1999/xlink" xml:space="preserve" onload="init(evt)">
<style type="text/css"><![CDATA[
.node, .edge {opacity: 0.7;}
.node.selected, .edge.selected {opacity: 1;}
.edge:hover path { stroke: red; }
.edge:hover polygon { stroke: red; fill: red; }
]]></style>

<defs>
  <circle id="rim" cx="0" cy="0" r="7"/>
  <circle id="rim2" cx="0" cy="0" r="3.5"/>
  <g id="zoomPlus">
    <use xlink:href="#rim" fill="#404040"><set attributeName="fill" to="#808080" begin="zoomplus.mouseover" end="zoomplus.mouseout"/></use>
    <path d="M-4,0h8M0,-4v8" fill="none" stroke="white" stroke-width="1.5" pointer-events="none"/>
  </g>
  <g id="zoomMin">
    <use xlink:href="#rim" fill="#404040"><set attributeName="fill" to="#808080" begin="zoomminus.mouseover" end="zoomminus.mouseout"/></use>
    <path d="M-4,0h8" fill="none" stroke="white" stroke-width="1.5" pointer-events="none"/>
  </g>
  <g id="arrowUp" transform="translate(30 24)">
    <use xlink:href="#rim"/>
    <path pointer-events="none" fill="none" stroke="white" stroke-width="1.5" d="M0,-3.0v7 M-2.5,-0.5L0,-3.0L2.5,-0.5"/>
  </g>
  <g id="arrowRight" transform="rotate(90) translate(36 -43)">
    <use xlink:href="#rim"/>
    <path pointer-events="none" fill="none" stroke="white" stroke-width="1.5" d="M0,-3.0v7 M-2.5,-0.5L0,-3.0L2.5,-0.5"/>
  </g>
  <g id="arrowDown" transform="rotate(180) translate(-30 -48)">
    <use xlink:href="#rim"/>
    <path pointer-events="none" fill="none" stroke="white" stroke-width="1.5" d="M0,-3.0v7 M-2.5,-0.5L0,-3.0L2.5,-0.5"/>
  </g>
  <g id="arrowLeft" transform="rotate(270) translate(-36 17)">
    <use xlink:href="#rim"/>
    <path pointer-events="none" fill="none" stroke="white" stroke-width="1.5" d="M0,-3.0v7 M-2.5,-0.5L0,-3.0L2.5,-0.5"/>
  </g>
  <g id="resetDef">
    <use xlink:href="#rim2" fill="#404040"><set attributeName="fill" to="#808080" begin="reset.mouseover" end="reset.mouseout"/></use>
  </g>
</defs>
<script type="application/ecmascript">
var viewWidth = 750;
var viewHeight = 273;
var sectionId = 'dynsection-15';
</script>
<script type="application/ecmascript" xlink:href="svg.min.js"/>
<svg id="graph" class="graph">
<g id="viewport">
<title>FEM_DMPlexGeomSetup</title>
<!-- Node1 -->
<g id="Node000001" class="node">
<title>Node1</title>
<g id="a_Node000001"><a xlink:title="One&#45;time setup of the distributed DMPlex geometry context.">
<polygon fill="#999999" stroke="#666666" points="137,-160 0,-160 0,-141 137,-141 137,-160"/>
<text text-anchor="middle" x="68.5" y="-148" font-family="Helvetica,sans-Serif" font-size="10.00">FEM_DMPlexGeomSetup</text>
</a>
</g>
</g>
<!-- Node2 -->
<g id="Node000002" class="node">
<title>Node2</title>
<g id="a_Node000002"><a xlink:href="dmplex__geom_8c.html#a25a289b6847656028b83d98388767fc5" target="_top" xlink:title="Build a global table mapping each original vertex index to its owning MPI rank.">
<polygon fill="white" stroke="#666666" points="334.5,-264.5 191.5,-264.5 191.5,-234.5 334.5,-234.5 334.5,-264.5"/>
<text text-anchor="start" x="199.5" y="-252.5" font-family="Helvetica,sans-Serif" font-size="10.00">BuildOriginalVertexOwner</text>
<text text-anchor="middle" x="263" y="-241.5" font-family="Helvetica,sans-Serif" font-size="10.00">Table_</text>
</a>
</g>
</g>
<!-- Node1&#45;&gt;Node2 -->
<g id="edge1_Node000001_Node000002" class="edge">
<title>Node1&#45;&gt;Node2</title>
<g id="a_edge1_Node000001_Node000002"><a xlink:title=" ">
<path fill="none" stroke="#63b8ff" d="M79.84,-160.01C97.59,-175.85 135.55,-207.63 173,-225.5 177.09,-227.45 181.37,-229.27 185.74,-230.95"/>
<polygon fill="#63b8ff" stroke="#63b8ff" points="184.82,-234.34 195.42,-234.43 187.19,-227.75 184.82,-234.34"/>
</a>
</g>
</g>
<!-- Node3 -->
<g id="Node000003" class="node">
<title>Node3</title>
<g id="a_Node000003"><a xlink:href="dmplex__geom_8c.html#a661af262a984dd056c4489c06984eac8" target="_top" xlink:title="Build the DMPlexPatchExchange SF for cross&#45;rank coordinate fetching.">
<polygon fill="white" stroke="#666666" points="349.5,-216 176.5,-216 176.5,-197 349.5,-197 349.5,-216"/>
<text text-anchor="middle" x="263" y="-204" font-family="Helvetica,sans-Serif" font-size="10.00">BuildPatchCoordinateExchange_</text>
</a>
</g>
</g>
<!-- Node1&#45;&gt;Node3 -->
<g id="edge2_Node000001_Node000003" class="edge">
<title>Node1&#45;&gt;Node3</title>
<g id="a_edge2_Node000001_Node000003"><a xlink:title=" ">
<path fill="none" stroke="#63b8ff" d="M92.6,-160.13C113.35,-168.51 144.82,-180.53 173,-188.5 181.07,-190.78 189.63,-192.89 198.12,-194.81"/>
<polygon fill="#63b8ff" stroke="#63b8ff" points="197.52,-198.26 208.03,-196.96 199,-191.42 197.52,-198.26"/>
</a>
</g>
</g>
<!-- Node4 -->
<g id="Node000004" class="node">
<title>Node4</title>
<g id="a_Node000004"><a xlink:href="dmplex__geom_8c.html#ab02736f3446add6db615133986b8a51c" target="_top" xlink:title="Distribute the serial DMPlex and return per&#45;rank original&#45;index arrays.">
<polygon fill="white" stroke="#666666" points="336,-179 190,-179 190,-160 336,-160 336,-179"/>
<text text-anchor="middle" x="263" y="-167" font-family="Helvetica,sans-Serif" font-size="10.00">CreateDistributedDMPlex_</text>
</a>
</g>
</g>
<!-- Node1&#45;&gt;Node4 -->
<g id="edge3_Node000001_Node000004" class="edge">
<title>Node1&#45;&gt;Node4</title>
<g id="a_edge3_Node000001_Node000004"><a xlink:title=" ">
<path fill="none" stroke="#63b8ff" d="M137.1,-157.17C150.87,-158.53 165.51,-159.98 179.73,-161.38"/>
<polygon fill="#63b8ff" stroke="#63b8ff" points="179.69,-164.89 189.99,-162.39 180.38,-157.93 179.69,-164.89"/>
</a>
</g>
</g>
<!-- Node6 -->
<g id="Node000006" class="node">
<title>Node6</title>
<g id="a_Node000006"><a xlink:href="dmplex__geom_8c.html#aa4423d1b5775f32ebd063753442784a2" target="_top" xlink:title="Copy Loop subdivision patch stencil data from IBMNodes to a local layout.">
<polygon fill="white" stroke="#666666" points="338.5,-142 187.5,-142 187.5,-123 338.5,-123 338.5,-142"/>
<text text-anchor="middle" x="263" y="-130" font-family="Helvetica,sans-Serif" font-size="10.00">DMPlexPatchLayoutCreate_</text>
</a>
</g>
</g>
<!-- Node1&#45;&gt;Node6 -->
<g id="edge5_Node000001_Node000006" class="edge">
<title>Node1&#45;&gt;Node6</title>
<g id="a_edge5_Node000001_Node000006"><a xlink:title=" ">
<path fill="none" stroke="#63b8ff" d="M137.1,-144.18C150.05,-142.97 163.76,-141.69 177.17,-140.43"/>
<polygon fill="#63b8ff" stroke="#63b8ff" points="177.72,-143.9 187.35,-139.48 177.06,-136.93 177.72,-143.9"/>
</a>
</g>
</g>
<!-- Node7 -->
<g id="Node000007" class="node">
<title>Node7</title>
<g id="a_Node000007"><a xlink:href="active__strain_8c.html#ac93e65e44aa9af3d11c2165016210d87" target="_top" xlink:title="Update reference midsurface geometry cache for one element.">
<polygon fill="white" stroke="#666666" points="335.5,-105 190.5,-105 190.5,-86 335.5,-86 335.5,-105"/>
<text text-anchor="middle" x="263" y="-93" font-family="Helvetica,sans-Serif" font-size="10.00">ElemUpdateGeom0Subdiv</text>
</a>
</g>
</g>
<!-- Node1&#45;&gt;Node7 -->
<g id="edge6_Node000001_Node000007" class="edge">
<title>Node1&#45;&gt;Node7</title>
<g id="a_edge6_Node000001_Node000007"><a xlink:title=" ">
<path fill="none" stroke="#63b8ff" d="M94.32,-140.89C115.12,-133.07 145.7,-122.13 173,-114.5 182.26,-111.91 192.15,-109.48 201.84,-107.28"/>
<polygon fill="#63b8ff" stroke="#63b8ff" points="202.83,-110.64 211.84,-105.07 201.32,-103.81 202.83,-110.64"/>
</a>
</g>
</g>
<!-- Node14 -->
<g id="Node000014" class="node">
<title>Node14</title>
<g id="a_Node000014"><a xlink:href="dmplex__geom_8c.html#a0e285c5152466ed0d16f3ccb265e2c99" target="_top" xlink:title="Broadcast updated vertex coordinates from owning ranks to all ranks that need them.">
<polygon fill="white" stroke="#666666" points="353,-68 173,-68 173,-49 353,-49 353,-68"/>
<text text-anchor="middle" x="263" y="-56" font-family="Helvetica,sans-Serif" font-size="10.00">UpdatePatchRemoteCoordinates_</text>
</a>
</g>
</g>
<!-- Node1&#45;&gt;Node14 -->
<g id="edge13_Node000001_Node000014" class="edge">
<title>Node1&#45;&gt;Node14</title>
<g id="a_edge13_Node000001_Node000014"><a xlink:title=" ">
<path fill="none" stroke="#63b8ff" d="M80.08,-140.79C97.87,-125 135.53,-93.89 173,-77.5 178.79,-74.97 184.95,-72.76 191.22,-70.84"/>
<polygon fill="#63b8ff" stroke="#63b8ff" points="192.44,-74.13 201.12,-68.06 190.55,-67.39 192.44,-74.13"/>
</a>
</g>
</g>
<!-- Node5 -->
<g id="Node000005" class="node">
<title>Node5</title>
<g id="a_Node000005"><a xlink:href="dmplex__geom_8c.html#a7888018139fb6d8231505d5c8d4abbf9" target="_top" xlink:title="Construct a serial DMPlex from the IBMNodes connectivity on rank 0.">
<polygon fill="white" stroke="#666666" points="527,-179 415,-179 415,-160 527,-160 527,-179"/>
<text text-anchor="middle" x="471" y="-167" font-family="Helvetica,sans-Serif" font-size="10.00">BuildSerialDMPlex_</text>
</a>
</g>
</g>
<!-- Node4&#45;&gt;Node5 -->
<g id="edge4_Node000004_Node000005" class="edge">
<title>Node4&#45;&gt;Node5</title>
<g id="a_edge4_Node000004_Node000005"><a xlink:title=" ">
<path fill="none" stroke="#63b8ff" d="M336.05,-169.5C358.38,-169.5 382.86,-169.5 404.71,-169.5"/>
<polygon fill="#63b8ff" stroke="#63b8ff" points="404.88,-173 414.88,-169.5 404.88,-166 404.88,-173"/>
</a>
</g>
</g>
<!-- Node8 -->
<g id="Node000008" class="node">
<title>Node8</title>
<g id="a_Node000008"><a xlink:href="active__strain_8c.html#a9ef026a24ded6fec7243fd82f49394c3" target="_top" xlink:title=" ">
<polygon fill="white" stroke="#666666" points="553,-110.5 389,-110.5 389,-80.5 553,-80.5 553,-110.5"/>
<text text-anchor="start" x="397" y="-98.5" font-family="Helvetica,sans-Serif" font-size="10.00">ElemUpdateGeomSubdivFrom</text>
<text text-anchor="middle" x="471" y="-87.5" font-family="Helvetica,sans-Serif" font-size="10.00">Coords_</text>
</a>
</g>
</g>
<!-- Node7&#45;&gt;Node8 -->
<g id="edge7_Node000007_Node000008" class="edge">
<title>Node7&#45;&gt;Node8</title>
<g id="a_edge7_Node000007_Node000008"><a xlink:title=" ">
<path fill="none" stroke="#63b8ff" d="M335.76,-95.5C349.59,-95.5 364.25,-95.5 378.6,-95.5"/>
<polygon fill="#63b8ff" stroke="#63b8ff" points="378.98,-99 388.98,-95.5 378.98,-92 378.98,-99"/>
</a>
</g>
</g>
<!-- Node9 -->
<g id="Node000009" class="node">
<title>Node9</title>
<g id="a_Node000009"><a xlink:href="math_8c.html#a7ef9263b0a3a10c2cd00bb4dc0059d70" target="_top" xlink:title=" ">
<polygon fill="white" stroke="#666666" points="690.5,-179 640.5,-179 640.5,-160 690.5,-160 690.5,-179"/>
<text text-anchor="middle" x="665.5" y="-167" font-family="Helvetica,sans-Serif" font-size="10.00">AMULT</text>
</a>
</g>
</g>
<!-- Node8&#45;&gt;Node9 -->
<g id="edge8_Node000008_Node000009" class="edge">
<title>Node8&#45;&gt;Node9</title>
<g id="a_edge8_Node000008_Node000009"><a xlink:title=" ">
<path fill="none" stroke="#63b8ff" d="M499.19,-110.55C522.46,-122.94 557.16,-140.23 589,-151.5 602.23,-156.18 617.19,-160.04 630.29,-162.96"/>
<polygon fill="#63b8ff" stroke="#63b8ff" points="629.81,-166.43 640.32,-165.1 631.27,-159.59 629.81,-166.43"/>
</a>
</g>
</g>
<!-- Node10 -->
<g id="Node000010" class="node">
<title>Node10</title>
<g id="a_Node000010"><a xlink:href="math_8c.html#a9d60990d26296194c921d537ea26f3c7" target="_top" xlink:title=" ">
<polygon fill="white" stroke="#666666" points="690.5,-142 640.5,-142 640.5,-123 690.5,-123 690.5,-142"/>
<text text-anchor="middle" x="665.5" y="-130" font-family="Helvetica,sans-Serif" font-size="10.00">CROSS</text>
</a>
</g>
</g>
<!-- Node8&#45;&gt;Node10 -->
<g id="edge9_Node000008_Node000010" class="edge">
<title>Node8&#45;&gt;Node10</title>
<g id="a_edge9_Node000008_Node000010"><a xlink:title=" ">
<path fill="none" stroke="#63b8ff" d="M550.3,-110.55C578.15,-115.9 608.09,-121.66 630.32,-125.93"/>
<polygon fill="#63b8ff" stroke="#63b8ff" points="629.79,-129.39 640.27,-127.84 631.11,-122.52 629.79,-129.39"/>
</a>
</g>
</g>
<!-- Node11 -->
<g id="Node000011" class="node">
<title>Node11</title>
<g id="a_Node000011"><a xlink:href="math_8c.html#a870a70f4845a041458d9bdb0dd7aabd3" target="_top" xlink:title=" ">
<polygon fill="white" stroke="#666666" points="684.5,-105 646.5,-105 646.5,-86 684.5,-86 684.5,-105"/>
<text text-anchor="middle" x="665.5" y="-93" font-family="Helvetica,sans-Serif" font-size="10.00">DOT</text>
</a>
</g>
</g>
<!-- Node8&#45;&gt;Node11 -->
<g id="edge10_Node000008_Node000011" class="edge">
<title>Node8&#45;&gt;Node11</title>
<g id="a_edge10_Node000008_Node000011"><a xlink:title=" ">
<path fill="none" stroke="#63b8ff" d="M553.08,-95.5C582.61,-95.5 614.1,-95.5 636.04,-95.5"/>
<polygon fill="#63b8ff" stroke="#63b8ff" points="636.29,-99 646.29,-95.5 636.29,-92 636.29,-99"/>
</a>
</g>
</g>
<!-- Node12 -->
<g id="Node000012" class="node">
<title>Node12</title>
<g id="a_Node000012"><a xlink:href="active__strain_8c.html#af8eb71852e7e9e1290f27656e66736fe" target="_top" xlink:title=" ">
<polygon fill="white" stroke="#666666" points="742,-67.5 589,-67.5 589,-37.5 742,-37.5 742,-67.5"/>
<text text-anchor="start" x="597" y="-55.5" font-family="Helvetica,sans-Serif" font-size="10.00">SubdivGeomEnsureIrregular</text>
<text text-anchor="middle" x="665.5" y="-44.5" font-family="Helvetica,sans-Serif" font-size="10.00">Arrays_</text>
</a>
</g>
</g>
<!-- Node8&#45;&gt;Node12 -->
<g id="edge11_Node000008_Node000012" class="edge">
<title>Node8&#45;&gt;Node12</title>
<g id="a_edge11_Node000008_Node000012"><a xlink:title=" ">
<path fill="none" stroke="#63b8ff" d="M539.33,-80.46C554.86,-76.99 571.5,-73.27 587.41,-69.72"/>
<polygon fill="#63b8ff" stroke="#63b8ff" points="588.21,-73.13 597.21,-67.53 586.69,-66.3 588.21,-73.13"/>
</a>
</g>
</g>
<!-- Node13 -->
<g id="Node000013" class="node">
<title>Node13</title>
<g id="a_Node000013"><a xlink:href="math_8c.html#ac616709995f2ae60c4308ffa328337d7" target="_top" xlink:title=" ">
<polygon fill="white" stroke="#666666" points="686,-19 645,-19 645,0 686,0 686,-19"/>
<text text-anchor="middle" x="665.5" y="-7" font-family="Helvetica,sans-Serif" font-size="10.00">UNIT</text>
</a>
</g>
</g>
<!-- Node8&#45;&gt;Node13 -->
<g id="edge12_Node000008_Node000013" class="edge">
<title>Node8&#45;&gt;Node13</title>
<g id="a_edge12_Node000008_Node000013"><a xlink:title=" ">
<path fill="none" stroke="#63b8ff" d="M493.94,-80.49C516.78,-65.46 554.05,-42.59 589,-28.5 603.58,-22.62 620.51,-18.16 634.63,-15.04"/>
<polygon fill="#63b8ff" stroke="#63b8ff" points="635.72,-18.39 644.8,-12.92 634.29,-11.54 635.72,-18.39"/>
</a>
</g>
</g>
</g>
</svg>

<g id="navigator" transform="translate(0 0)" fill="#404254">
  <rect fill="#f2f5e9" fill-opacity="0.5" stroke="#606060" stroke-width=".5" x="0" y="0" width="60" height="60"/>
  <use id="zoomplus" xlink:href="#zoomPlus" x="17" y="9" onmousedown="handleZoom(evt,'in')"/>
  <use id="zoomminus" xlink:href="#zoomMin" x="42" y="9" onmousedown="handleZoom(evt,'out')"/>
  <use id="reset" xlink:href="#resetDef" x="30" y="36" onmousedown="handleReset()"/>
   <use id="arrowup" xlink:href="#arrowUp" x="0" y="0" onmousedown="handlePan(0,-1)"/>
  <use id="arrowright" xlink:href="#arrowRight" x="0" y="0" onmousedown="handlePan(1,0)"/>
  <use id="arrowdown" xlink:href="#arrowDown" x="0" y="0" onmousedown="handlePan(0,1)"/>
  <use id="arrowleft" xlink:href="#arrowLeft" x="0" y="0" onmousedown="handlePan(-1,0)"/>
</g>
<svg viewBox="0 0 15 15" width="100%" height="30px" preserveAspectRatio="xMaxYMin meet">
 <g id="arrow_out" transform="scale(0.3 0.3)">
  <a xlink:href="dmplex__geom_8c_aeca513213e67a07a712cc41e8c6412ea_cgraph_org.svg" target="_base">
   <rect id="button" ry="5" rx="5" y="6" x="6" height="38" width="38"
        fill="#f2f5e9" fill-opacity="0.5" stroke="#606060" stroke-width="1.0"/>
   <path id="arrow"
     d="M 11.500037,31.436501 C 11.940474,20.09759 22.043105,11.32322 32.158766,21.979434 L 37.068811,17.246167 C 37.068811,17.246167 37.088388,32 37.088388,32 L 22.160133,31.978069 C 22.160133,31.978069 26.997745,27.140456 26.997745,27.140456 C 18.528582,18.264221 13.291696,25.230495 11.500037,31.436501 z"
     style="fill:#404040;"/>
  </a>
 </g>
</svg>

<style type='text/css'>
<![CDATA[
[data-mouse-over-selected='false'] { opacity: 0.7; }
[data-mouse-over-selected='true']  { opacity: 1.0; }
]]>
</style>
<script type="application/ecmascript"><![CDATA[
document.addEventListener('DOMContentLoaded', (event) => {
  highlightEdges();
  highlightAdjacentNodes();
});
]]></script>
</svg>
