<?xml version="1.0" encoding="UTF-8" standalone="no"?>
<!DOCTYPE svg PUBLIC "-//W3C//DTD SVG 1.1//EN"
 "http://www.w3.org/Graphics/SVG/1.1/DTD/svg11.dtd">
<!-- Generated by graphviz version 2.43.0 (0)
 -->
<!-- Title: RunDMPlexGeomProcesses Pages: 1 -->
<!--zoomable 396 -->

<svg id="main" version="1.1" xmlns="http://www.w3.org/2000/svg" xmlns:xlink="http://www.w3.org/1999/xlink" xml:space="preserve" onload="init(evt)">
<style type="text/css"><![CDATA[
.node, .edge {opacity: 0.7;}
.node.selected, .edge.selected {opacity: 1;}
.edge:hover path { stroke: red; }
.edge:hover polygon { stroke: red; fill: red; }
]]></style>

<defs>
  <circle id="rim" cx="0" cy="0" r="7"/>
  <circle id="rim2" cx="0" cy="0" r="3.5"/>
  <g id="zoomPlus">
    <use xlink:href="#rim" fill="#404040"><set attributeName="fill" to="#808080" begin="zoomplus.mouseover" end="zoomplus.mouseout"/></use>
    <path d="M-4,0h8M0,-4v8" fill="none" stroke="white" stroke-width="1.5" pointer-events="none"/>
  </g>
  <g id="zoomMin">
    <use xlink:href="#rim" fill="#404040"><set attributeName="fill" to="#808080" begin="zoomminus.mouseover" end="zoomminus.mouseout"/></use>
    <path d="M-4,0h8" fill="none" stroke="white" stroke-width="1.5" pointer-events="none"/>
  </g>
  <g id="arrowUp" transform="translate(30 24)">
    <use xlink:href="#rim"/>
    <path pointer-events="none" fill="none" stroke="white" stroke-width="1.5" d="M0,-3.0v7 M-2.5,-0.5L0,-3.0L2.5,-0.5"/>
  </g>
  <g id="arrowRight" transform="rotate(90) translate(36 -43)">
    <use xlink:href="#rim"/>
    <path pointer-events="none" fill="none" stroke="white" stroke-width="1.5" d="M0,-3.0v7 M-2.5,-0.5L0,-3.0L2.5,-0.5"/>
  </g>
  <g id="arrowDown" transform="rotate(180) translate(-30 -48)">
    <use xlink:href="#rim"/>
    <path pointer-events="none" fill="none" stroke="white" stroke-width="1.5" d="M0,-3.0v7 M-2.5,-0.5L0,-3.0L2.5,-0.5"/>
  </g>
  <g id="arrowLeft" transform="rotate(270) translate(-36 17)">
    <use xlink:href="#rim"/>
    <path pointer-events="none" fill="none" stroke="white" stroke-width="1.5" d="M0,-3.0v7 M-2.5,-0.5L0,-3.0L2.5,-0.5"/>
  </g>
  <g id="resetDef">
    <use xlink:href="#rim2" fill="#404040"><set attributeName="fill" to="#808080" begin="reset.mouseover" end="reset.mouseout"/></use>
  </g>
</defs>
<script type="application/ecmascript">
var viewWidth = 973;
var viewHeight = 396;
var sectionId = 'dynsection-9';
</script>
<script type="application/ecmascript" xlink:href="svg.min.js"/>
<svg id="graph" class="graph">
<g id="viewport">
<title>RunDMPlexGeomProcesses</title>
<!-- Node1 -->
<g id="Node000001" class="node">
<title>Node1</title>
<g id="a_Node000001"><a xlink:title="Benchmark: run the full distributed DMPlex geometry pipeline for all bodies.">
<polygon fill="#999999" stroke="#666666" points="151,-246 0,-246 0,-227 151,-227 151,-246"/>
<text text-anchor="middle" x="75.5" y="-234" font-family="Helvetica,sans-Serif" font-size="10.00">RunDMPlexGeomProcesses</text>
</a>
</g>
</g>
<!-- Node2 -->
<g id="Node000002" class="node">
<title>Node2</title>
<g id="a_Node000002"><a xlink:href="dmplex__geom_8c.html#a25a289b6847656028b83d98388767fc5" target="_top" xlink:title="Build a global table mapping each original vertex index to its owning MPI rank.">
<polygon fill="white" stroke="#666666" points="345,-387.5 202,-387.5 202,-357.5 345,-357.5 345,-387.5"/>
<text text-anchor="start" x="210" y="-375.5" font-family="Helvetica,sans-Serif" font-size="10.00">BuildOriginalVertexOwner</text>
<text text-anchor="middle" x="273.5" y="-364.5" font-family="Helvetica,sans-Serif" font-size="10.00">Table_</text>
</a>
</g>
</g>
<!-- Node1&#45;&gt;Node2 -->
<g id="edge1_Node000001_Node000002" class="edge">
<title>Node1&#45;&gt;Node2</title>
<g id="a_edge1_Node000001_Node000002"><a xlink:title=" ">
<path fill="none" stroke="#63b8ff" d="M83.29,-246.25C98.97,-268 139.94,-320.75 187,-348.5 190.01,-350.28 193.16,-351.93 196.4,-353.46"/>
<polygon fill="#63b8ff" stroke="#63b8ff" points="195.16,-356.74 205.73,-357.47 197.93,-350.31 195.16,-356.74"/>
</a>
</g>
</g>
<!-- Node3 -->
<g id="Node000003" class="node">
<title>Node3</title>
<g id="a_Node000003"><a xlink:href="dmplex__geom_8c.html#a661af262a984dd056c4489c06984eac8" target="_top" xlink:title="Build the DMPlexPatchExchange SF for cross&#45;rank coordinate fetching.">
<polygon fill="white" stroke="#666666" points="360,-339 187,-339 187,-320 360,-320 360,-339"/>
<text text-anchor="middle" x="273.5" y="-327" font-family="Helvetica,sans-Serif" font-size="10.00">BuildPatchCoordinateExchange_</text>
</a>
</g>
</g>
<!-- Node1&#45;&gt;Node3 -->
<g id="edge2_Node000001_Node000003" class="edge">
<title>Node1&#45;&gt;Node3</title>
<g id="a_edge2_Node000001_Node000003"><a xlink:title=" ">
<path fill="none" stroke="#63b8ff" d="M87.56,-246.21C106.53,-262.34 147.1,-294.54 187,-311.5 191.97,-313.61 197.22,-315.49 202.56,-317.15"/>
<polygon fill="#63b8ff" stroke="#63b8ff" points="201.68,-320.54 212.25,-319.91 203.6,-313.8 201.68,-320.54"/>
</a>
</g>
</g>
<!-- Node4 -->
<g id="Node000004" class="node">
<title>Node4</title>
<g id="a_Node000004"><a xlink:href="dmplex__geom_8c.html#ab02736f3446add6db615133986b8a51c" target="_top" xlink:title="Distribute the serial DMPlex and return per&#45;rank original&#45;index arrays.">
<polygon fill="white" stroke="#666666" points="346.5,-302 200.5,-302 200.5,-283 346.5,-283 346.5,-302"/>
<text text-anchor="middle" x="273.5" y="-290" font-family="Helvetica,sans-Serif" font-size="10.00">CreateDistributedDMPlex_</text>
</a>
</g>
</g>
<!-- Node1&#45;&gt;Node4 -->
<g id="edge3_Node000001_Node000004" class="edge">
<title>Node1&#45;&gt;Node4</title>
<g id="a_edge3_Node000001_Node000004"><a xlink:title=" ">
<path fill="none" stroke="#63b8ff" d="M101.68,-246.16C123.89,-254.44 157.28,-266.29 187,-274.5 195.09,-276.73 203.68,-278.84 212.18,-280.78"/>
<polygon fill="#63b8ff" stroke="#63b8ff" points="211.55,-284.22 222.07,-282.96 213.06,-277.39 211.55,-284.22"/>
</a>
</g>
</g>
<!-- Node6 -->
<g id="Node000006" class="node">
<title>Node6</title>
<g id="a_Node000006"><a xlink:href="dmplex__geom_8c.html#a7e60d333a6f6667a8a2f4fdb3651a3f4" target="_top" xlink:title="Free all heap memory owned by a DMPlexPatchExchange and zero the struct.">
<polygon fill="white" stroke="#666666" points="359,-265 188,-265 188,-246 359,-246 359,-265"/>
<text text-anchor="middle" x="273.5" y="-253" font-family="Helvetica,sans-Serif" font-size="10.00">DMPlexPatchExchangeDestroy_</text>
</a>
</g>
</g>
<!-- Node1&#45;&gt;Node6 -->
<g id="edge5_Node000001_Node000006" class="edge">
<title>Node1&#45;&gt;Node6</title>
<g id="a_edge5_Node000001_Node000006"><a xlink:title=" ">
<path fill="none" stroke="#63b8ff" d="M151.16,-243.74C159.88,-244.58 168.87,-245.45 177.82,-246.32"/>
<polygon fill="#63b8ff" stroke="#63b8ff" points="177.6,-249.82 187.89,-247.3 178.28,-242.85 177.6,-249.82"/>
</a>
</g>
</g>
<!-- Node7 -->
<g id="Node000007" class="node">
<title>Node7</title>
<g id="a_Node000007"><a xlink:href="dmplex__geom_8c.html#aa4423d1b5775f32ebd063753442784a2" target="_top" xlink:title="Copy Loop subdivision patch stencil data from IBMNodes to a local layout.">
<polygon fill="white" stroke="#666666" points="349,-228 198,-228 198,-209 349,-209 349,-228"/>
<text text-anchor="middle" x="273.5" y="-216" font-family="Helvetica,sans-Serif" font-size="10.00">DMPlexPatchLayoutCreate_</text>
</a>
</g>
</g>
<!-- Node1&#45;&gt;Node7 -->
<g id="edge6_Node000001_Node000007" class="edge">
<title>Node1&#45;&gt;Node7</title>
<g id="a_edge6_Node000001_Node000007"><a xlink:title=" ">
<path fill="none" stroke="#63b8ff" d="M151.16,-229.64C163.08,-228.55 175.48,-227.41 187.61,-226.3"/>
<polygon fill="#63b8ff" stroke="#63b8ff" points="188.09,-229.77 197.72,-225.37 187.45,-222.8 188.09,-229.77"/>
</a>
</g>
</g>
<!-- Node8 -->
<g id="Node000008" class="node">
<title>Node8</title>
<g id="a_Node000008"><a xlink:href="dmplex__geom_8c.html#a8661deca8813ac6ed08fa660b602fefe" target="_top" xlink:title="Free all heap memory owned by a DMPlexPatchLayout and zero the struct.">
<polygon fill="white" stroke="#666666" points="352,-191 195,-191 195,-172 352,-172 352,-191"/>
<text text-anchor="middle" x="273.5" y="-179" font-family="Helvetica,sans-Serif" font-size="10.00">DMPlexPatchLayoutDestroy_</text>
</a>
</g>
</g>
<!-- Node1&#45;&gt;Node8 -->
<g id="edge7_Node000001_Node000008" class="edge">
<title>Node1&#45;&gt;Node8</title>
<g id="a_edge7_Node000001_Node000008"><a xlink:title=" ">
<path fill="none" stroke="#63b8ff" d="M103.53,-226.89C125.76,-219.18 158.2,-208.37 187,-200.5 196.25,-197.97 206.14,-195.53 215.78,-193.3"/>
<polygon fill="#63b8ff" stroke="#63b8ff" points="216.73,-196.67 225.71,-191.05 215.18,-189.85 216.73,-196.67"/>
</a>
</g>
</g>
<!-- Node9 -->
<g id="Node000009" class="node">
<title>Node9</title>
<g id="a_Node000009"><a xlink:href="dmplex__geom_8c.html#afe00d2040539df5cdad90ec9810c5bc0" target="_top" xlink:title="Diagnostic: count and report cells whose patch stencils are fully local.">
<polygon fill="white" stroke="#666666" points="325,-154 222,-154 222,-135 325,-135 325,-154"/>
<text text-anchor="middle" x="273.5" y="-142" font-family="Helvetica,sans-Serif" font-size="10.00">ReportPatchHalo_</text>
</a>
</g>
</g>
<!-- Node1&#45;&gt;Node9 -->
<g id="edge8_Node000001_Node000009" class="edge">
<title>Node1&#45;&gt;Node9</title>
<g id="a_edge8_Node000001_Node000009"><a xlink:title=" ">
<path fill="none" stroke="#63b8ff" d="M87.94,-226.86C107.14,-211.17 147.63,-180.2 187,-163.5 194.85,-160.17 203.36,-157.39 211.87,-155.07"/>
<polygon fill="#63b8ff" stroke="#63b8ff" points="212.97,-158.4 221.81,-152.56 211.26,-151.62 212.97,-158.4"/>
</a>
</g>
</g>
<!-- Node10 -->
<g id="Node000010" class="node">
<title>Node10</title>
<g id="a_Node000010"><a xlink:href="dmplex__geom_8c.html#aa2b24de348fff4079de659ff63ba9b85" target="_top" xlink:title="Synchronise remote coordinates and evaluate the geometry kernel for all local cells.">
<polygon fill="white" stroke="#666666" points="331,-117 216,-117 216,-98 331,-98 331,-117"/>
<text text-anchor="middle" x="273.5" y="-105" font-family="Helvetica,sans-Serif" font-size="10.00">RunLocalGeometry_</text>
</a>
</g>
</g>
<!-- Node1&#45;&gt;Node10 -->
<g id="edge9_Node000001_Node000010" class="edge">
<title>Node1&#45;&gt;Node10</title>
<g id="a_edge9_Node000001_Node000010"><a xlink:title=" ">
<path fill="none" stroke="#63b8ff" d="M83.23,-226.74C98.78,-205.01 139.51,-152.5 187,-126.5 192.91,-123.26 199.35,-120.58 205.94,-118.35"/>
<polygon fill="#63b8ff" stroke="#63b8ff" points="207.11,-121.65 215.67,-115.4 205.08,-114.95 207.11,-121.65"/>
</a>
</g>
</g>
<!-- Node5 -->
<g id="Node000005" class="node">
<title>Node5</title>
<g id="a_Node000005"><a xlink:href="dmplex__geom_8c.html#a7888018139fb6d8231505d5c8d4abbf9" target="_top" xlink:title="Construct a serial DMPlex from the IBMNodes connectivity on rank 0.">
<polygon fill="white" stroke="#666666" points="542,-302 430,-302 430,-283 542,-283 542,-302"/>
<text text-anchor="middle" x="486" y="-290" font-family="Helvetica,sans-Serif" font-size="10.00">BuildSerialDMPlex_</text>
</a>
</g>
</g>
<!-- Node4&#45;&gt;Node5 -->
<g id="edge4_Node000004_Node000005" class="edge">
<title>Node4&#45;&gt;Node5</title>
<g id="a_edge4_Node000004_Node000005"><a xlink:title=" ">
<path fill="none" stroke="#63b8ff" d="M346.65,-292.5C370.39,-292.5 396.63,-292.5 419.82,-292.5"/>
<polygon fill="#63b8ff" stroke="#63b8ff" points="419.9,-296 429.9,-292.5 419.9,-289 419.9,-296"/>
</a>
</g>
</g>
<!-- Node11 -->
<g id="Node000011" class="node">
<title>Node11</title>
<g id="a_Node000011"><a xlink:href="active__strain_8c.html#a993ef27fda81bb402cba4aa14fa9b51a" target="_top" xlink:title="Build current covariant/contravariant basis vectors for one element.">
<polygon fill="white" stroke="#666666" points="528,-180 444,-180 444,-161 528,-161 528,-180"/>
<text text-anchor="middle" x="486" y="-168" font-family="Helvetica,sans-Serif" font-size="10.00">ElemUpdateG</text>
</a>
</g>
</g>
<!-- Node10&#45;&gt;Node11 -->
<g id="edge10_Node000010_Node000011" class="edge">
<title>Node10&#45;&gt;Node11</title>
<g id="a_edge10_Node000010_Node000011"><a xlink:title=" ">
<path fill="none" stroke="#63b8ff" d="M328.04,-117.09C338.78,-119.66 349.87,-122.78 360,-126.5 376.98,-132.74 379.2,-138.79 396,-145.5 408.11,-150.34 421.51,-154.62 434.15,-158.22"/>
<polygon fill="#63b8ff" stroke="#63b8ff" points="433.51,-161.67 444.08,-160.95 435.37,-154.92 433.51,-161.67"/>
</a>
</g>
</g>
<!-- Node21 -->
<g id="Node000021" class="node">
<title>Node21</title>
<g id="a_Node000021"><a xlink:href="active__strain_8c.html#ac93e65e44aa9af3d11c2165016210d87" target="_top" xlink:title="Update reference midsurface geometry cache for one element.">
<polygon fill="white" stroke="#666666" points="558.5,-136 413.5,-136 413.5,-117 558.5,-117 558.5,-136"/>
<text text-anchor="middle" x="486" y="-124" font-family="Helvetica,sans-Serif" font-size="10.00">ElemUpdateGeom0Subdiv</text>
</a>
</g>
</g>
<!-- Node10&#45;&gt;Node21 -->
<g id="edge21_Node000010_Node000021" class="edge">
<title>Node10&#45;&gt;Node21</title>
<g id="a_edge21_Node000010_Node000021"><a xlink:title=" ">
<path fill="none" stroke="#63b8ff" d="M331.19,-112.62C353.24,-114.61 378.94,-116.93 402.95,-119.09"/>
<polygon fill="#63b8ff" stroke="#63b8ff" points="402.84,-122.6 413.12,-120.01 403.47,-115.63 402.84,-122.6"/>
</a>
</g>
</g>
<!-- Node25 -->
<g id="Node000025" class="node">
<title>Node25</title>
<g id="a_Node000025"><a xlink:href="active__strain_8c.html#a04fa5da4f55d0663ad5ec7a3534de0af" target="_top" xlink:title="Update current midsurface geometry cache for one element.">
<polygon fill="white" stroke="#666666" points="555.5,-62 416.5,-62 416.5,-43 555.5,-43 555.5,-62"/>
<text text-anchor="middle" x="486" y="-50" font-family="Helvetica,sans-Serif" font-size="10.00">ElemUpdateGeomSubdiv</text>
</a>
</g>
</g>
<!-- Node10&#45;&gt;Node25 -->
<g id="edge28_Node000010_Node000025" class="edge">
<title>Node10&#45;&gt;Node25</title>
<g id="a_edge28_Node000010_Node000025"><a xlink:title=" ">
<path fill="none" stroke="#63b8ff" d="M303.25,-97.89C327.73,-89.92 363.93,-78.61 396,-70.5 404.87,-68.26 414.29,-66.11 423.55,-64.12"/>
<polygon fill="#63b8ff" stroke="#63b8ff" points="424.44,-67.51 433.51,-62.04 423.01,-60.66 424.44,-67.51"/>
</a>
</g>
</g>
<!-- Node26 -->
<g id="Node000026" class="node">
<title>Node26</title>
<g id="a_Node000026"><a xlink:href="dmplex__geom_8c.html#a0e285c5152466ed0d16f3ccb265e2c99" target="_top" xlink:title="Broadcast updated vertex coordinates from owning ranks to all ranks that need them.">
<polygon fill="white" stroke="#666666" points="576,-99 396,-99 396,-80 576,-80 576,-99"/>
<text text-anchor="middle" x="486" y="-87" font-family="Helvetica,sans-Serif" font-size="10.00">UpdatePatchRemoteCoordinates_</text>
</a>
</g>
</g>
<!-- Node10&#45;&gt;Node26 -->
<g id="edge30_Node000010_Node000026" class="edge">
<title>Node10&#45;&gt;Node26</title>
<g id="a_edge30_Node000010_Node000026"><a xlink:title=" ">
<path fill="none" stroke="#63b8ff" d="M331.19,-102.65C348.01,-101.21 366.96,-99.59 385.65,-98"/>
<polygon fill="#63b8ff" stroke="#63b8ff" points="386.03,-101.48 395.7,-97.14 385.43,-94.5 386.03,-101.48"/>
</a>
</g>
</g>
<!-- Node12 -->
<g id="Node000012" class="node">
<title>Node12</title>
<g id="a_Node000012"><a xlink:href="math_8c.html#a7ef9263b0a3a10c2cd00bb4dc0059d70" target="_top" xlink:title=" ">
<polygon fill="white" stroke="#666666" points="913.5,-143 863.5,-143 863.5,-124 913.5,-124 913.5,-143"/>
<text text-anchor="middle" x="888.5" y="-131" font-family="Helvetica,sans-Serif" font-size="10.00">AMULT</text>
</a>
</g>
</g>
<!-- Node11&#45;&gt;Node12 -->
<g id="edge11_Node000011_Node000012" class="edge">
<title>Node11&#45;&gt;Node12</title>
<g id="a_edge11_Node000011_Node000012"><a xlink:title=" ">
<path fill="none" stroke="#63b8ff" d="M528.27,-169.01C584.44,-166.71 688.07,-161.47 776,-151.5 802.07,-148.55 831.35,-143.76 853.36,-139.87"/>
<polygon fill="#63b8ff" stroke="#63b8ff" points="854.01,-143.31 863.23,-138.1 852.77,-136.42 854.01,-143.31"/>
</a>
</g>
</g>
<!-- Node13 -->
<g id="Node000013" class="node">
<title>Node13</title>
<g id="a_Node000013"><a xlink:href="active__strain_8c.html#a8ffbd5ab9cf4de7388a8a1b66bf48821" target="_top" xlink:title=" ">
<polygon fill="white" stroke="#666666" points="752,-218 636,-218 636,-199 752,-199 752,-218"/>
<text text-anchor="middle" x="694" y="-206" font-family="Helvetica,sans-Serif" font-size="10.00">Compute_a3_alpha_</text>
</a>
</g>
</g>
<!-- Node11&#45;&gt;Node13 -->
<g id="edge12_Node000011_Node000013" class="edge">
<title>Node11&#45;&gt;Node13</title>
<g id="a_edge12_Node000011_Node000013"><a xlink:title=" ">
<path fill="none" stroke="#63b8ff" d="M528.19,-178.1C557.67,-183.54 597.86,-190.95 631.17,-197.09"/>
<polygon fill="#63b8ff" stroke="#63b8ff" points="630.8,-200.58 641.27,-198.96 632.07,-193.7 630.8,-200.58"/>
</a>
</g>
</g>
<!-- Node15 -->
<g id="Node000015" class="node">
<title>Node15</title>
<g id="a_Node000015"><a xlink:href="math_8c.html#ae18926821a703a2c5b281bd890b7e6a0" target="_top" xlink:title=" ">
<polygon fill="white" stroke="#666666" points="909,-274 868,-274 868,-255 909,-255 909,-274"/>
<text text-anchor="middle" x="888.5" y="-262" font-family="Helvetica,sans-Serif" font-size="10.00">PLUS</text>
</a>
</g>
</g>
<!-- Node11&#45;&gt;Node15 -->
<g id="edge20_Node000011_Node000015" class="edge">
<title>Node11&#45;&gt;Node15</title>
<g id="a_edge20_Node000011_Node000015"><a xlink:title=" ">
<path fill="none" stroke="#63b8ff" d="M495.49,-180.17C514.12,-200.55 561.01,-247.47 612,-264.5 697.34,-293.01 806.03,-279.62 857.66,-270.51"/>
<polygon fill="#63b8ff" stroke="#63b8ff" points="858.58,-273.9 867.79,-268.65 857.32,-267.02 858.58,-273.9"/>
</a>
</g>
</g>
<!-- Node17 -->
<g id="Node000017" class="node">
<title>Node17</title>
<g id="a_Node000017"><a xlink:href="active__strain_8c.html#a798e3f12cc0e3f71dbc664e886f8893a" target="_top" xlink:title=" ">
<polygon fill="white" stroke="#666666" points="771,-255 617,-255 617,-236 771,-236 771,-255"/>
<text text-anchor="middle" x="694" y="-243" font-family="Helvetica,sans-Serif" font-size="10.00">ComputeContravariantBasis</text>
</a>
</g>
</g>
<!-- Node11&#45;&gt;Node17 -->
<g id="edge16_Node000011_Node000017" class="edge">
<title>Node11&#45;&gt;Node17</title>
<g id="a_edge16_Node000011_Node000017"><a xlink:title=" ">
<path fill="none" stroke="#63b8ff" d="M504.74,-180.03C528.54,-192.47 572.42,-214.24 612,-227.5 618.52,-229.68 625.42,-231.68 632.33,-233.48"/>
<polygon fill="#63b8ff" stroke="#63b8ff" points="631.88,-236.97 642.43,-235.98 633.56,-230.18 631.88,-236.97"/>
</a>
</g>
</g>
<!-- Node18 -->
<g id="Node000018" class="node">
<title>Node18</title>
<g id="a_Node000018"><a xlink:href="active__strain_8c.html#af6f59806c4a71e53ae3ffb4ed5ac56ec" target="_top" xlink:title=" ">
<polygon fill="white" stroke="#666666" points="755.5,-105 632.5,-105 632.5,-86 755.5,-86 755.5,-105"/>
<text text-anchor="middle" x="694" y="-93" font-family="Helvetica,sans-Serif" font-size="10.00">ComputeMetricTensor</text>
</a>
</g>
</g>
<!-- Node11&#45;&gt;Node18 -->
<g id="edge17_Node000011_Node000018" class="edge">
<title>Node11&#45;&gt;Node18</title>
<g id="a_edge17_Node000011_Node000018"><a xlink:title=" ">
<path fill="none" stroke="#63b8ff" d="M528.31,-162.87C543.85,-159 561.29,-153.39 576,-145.5 594.61,-135.52 593.18,-124.07 612,-114.5 616.63,-112.15 621.55,-110.08 626.6,-108.26"/>
<polygon fill="#63b8ff" stroke="#63b8ff" points="627.99,-111.49 636.42,-105.07 625.83,-104.83 627.99,-111.49"/>
</a>
</g>
</g>
<!-- Node20 -->
<g id="Node000020" class="node">
<title>Node20</title>
<g id="a_Node000020"><a xlink:href="math_8c.html#a3f73e4cd9eab76eeee084eabf2b98ec9" target="_top" xlink:title=" ">
<polygon fill="white" stroke="#666666" points="711,-142 677,-142 677,-123 711,-123 711,-142"/>
<text text-anchor="middle" x="694" y="-130" font-family="Helvetica,sans-Serif" font-size="10.00">INV</text>
</a>
</g>
</g>
<!-- Node11&#45;&gt;Node20 -->
<g id="edge19_Node000011_Node000020" class="edge">
<title>Node11&#45;&gt;Node20</title>
<g id="a_edge19_Node000011_Node000020"><a xlink:title=" ">
<path fill="none" stroke="#63b8ff" d="M528.19,-162.9C569.48,-155.29 631.79,-143.79 666.77,-137.34"/>
<polygon fill="#63b8ff" stroke="#63b8ff" points="667.5,-140.76 676.7,-135.51 666.23,-133.88 667.5,-140.76"/>
</a>
</g>
</g>
<!-- Node14 -->
<g id="Node000014" class="node">
<title>Node14</title>
<g id="a_Node000014"><a xlink:href="math_8c.html#a9d60990d26296194c921d537ea26f3c7" target="_top" xlink:title=" ">
<polygon fill="white" stroke="#666666" points="913.5,-181 863.5,-181 863.5,-162 913.5,-162 913.5,-181"/>
<text text-anchor="middle" x="888.5" y="-169" font-family="Helvetica,sans-Serif" font-size="10.00">CROSS</text>
</a>
</g>
</g>
<!-- Node13&#45;&gt;Node14 -->
<g id="edge13_Node000013_Node000014" class="edge">
<title>Node13&#45;&gt;Node14</title>
<g id="a_edge13_Node000013_Node000014"><a xlink:title=" ">
<path fill="none" stroke="#63b8ff" d="M744.57,-198.97C778.65,-192.42 823.04,-183.89 853.24,-178.08"/>
<polygon fill="#63b8ff" stroke="#63b8ff" points="854.13,-181.48 863.29,-176.15 852.81,-174.6 854.13,-181.48"/>
</a>
</g>
</g>
<!-- Node13&#45;&gt;Node15 -->
<g id="edge14_Node000013_Node000015" class="edge">
<title>Node13&#45;&gt;Node15</title>
<g id="a_edge14_Node000013_Node000015"><a xlink:title=" ">
<path fill="none" stroke="#63b8ff" d="M738.9,-218.04C750.98,-220.87 764.05,-224.12 776,-227.5 804.25,-235.48 835.99,-246.19 858.36,-254.03"/>
<polygon fill="#63b8ff" stroke="#63b8ff" points="857.33,-257.38 867.93,-257.41 859.66,-250.78 857.33,-257.38"/>
</a>
</g>
</g>
<!-- Node16 -->
<g id="Node000016" class="node">
<title>Node16</title>
<g id="a_Node000016"><a xlink:href="math_8c.html#aa52f6593cf3e5453c8c6c94343d3fb37" target="_top" xlink:title=" ">
<polygon fill="white" stroke="#666666" points="907.5,-218 869.5,-218 869.5,-199 907.5,-199 907.5,-218"/>
<text text-anchor="middle" x="888.5" y="-206" font-family="Helvetica,sans-Serif" font-size="10.00">SIZE</text>
</a>
</g>
</g>
<!-- Node13&#45;&gt;Node16 -->
<g id="edge15_Node000013_Node000016" class="edge">
<title>Node13&#45;&gt;Node16</title>
<g id="a_edge15_Node000013_Node000016"><a xlink:title=" ">
<path fill="none" stroke="#63b8ff" d="M752.24,-208.5C787.46,-208.5 831.07,-208.5 859.09,-208.5"/>
<polygon fill="#63b8ff" stroke="#63b8ff" points="859.36,-212 869.36,-208.5 859.36,-205 859.36,-212"/>
</a>
</g>
</g>
<!-- Node19 -->
<g id="Node000019" class="node">
<title>Node19</title>
<g id="a_Node000019"><a xlink:href="math_8c.html#a870a70f4845a041458d9bdb0dd7aabd3" target="_top" xlink:title=" ">
<polygon fill="white" stroke="#666666" points="907.5,-105 869.5,-105 869.5,-86 907.5,-86 907.5,-105"/>
<text text-anchor="middle" x="888.5" y="-93" font-family="Helvetica,sans-Serif" font-size="10.00">DOT</text>
</a>
</g>
</g>
<!-- Node18&#45;&gt;Node19 -->
<g id="edge18_Node000018_Node000019" class="edge">
<title>Node18&#45;&gt;Node19</title>
<g id="a_edge18_Node000018_Node000019"><a xlink:title=" ">
<path fill="none" stroke="#63b8ff" d="M755.64,-95.5C790.13,-95.5 831.71,-95.5 858.83,-95.5"/>
<polygon fill="#63b8ff" stroke="#63b8ff" points="859.16,-99 869.16,-95.5 859.16,-92 859.16,-99"/>
</a>
</g>
</g>
<!-- Node22 -->
<g id="Node000022" class="node">
<title>Node22</title>
<g id="a_Node000022"><a xlink:href="active__strain_8c.html#a9ef026a24ded6fec7243fd82f49394c3" target="_top" xlink:title=" ">
<polygon fill="white" stroke="#666666" points="776,-67.5 612,-67.5 612,-37.5 776,-37.5 776,-67.5"/>
<text text-anchor="start" x="620" y="-55.5" font-family="Helvetica,sans-Serif" font-size="10.00">ElemUpdateGeomSubdivFrom</text>
<text text-anchor="middle" x="694" y="-44.5" font-family="Helvetica,sans-Serif" font-size="10.00">Coords_</text>
</a>
</g>
</g>
<!-- Node21&#45;&gt;Node22 -->
<g id="edge22_Node000021_Node000022" class="edge">
<title>Node21&#45;&gt;Node22</title>
<g id="a_edge22_Node000021_Node000022"><a xlink:title=" ">
<path fill="none" stroke="#63b8ff" d="M553.91,-116.99C561.56,-114.74 569.09,-111.95 576,-108.5 595.15,-98.94 593.29,-86.9 612,-76.5 615.27,-74.68 618.69,-72.99 622.2,-71.41"/>
<polygon fill="#63b8ff" stroke="#63b8ff" points="623.75,-74.56 631.66,-67.51 621.08,-68.09 623.75,-74.56"/>
</a>
</g>
</g>
<!-- Node22&#45;&gt;Node12 -->
<g id="edge23_Node000022_Node000012" class="edge">
<title>Node22&#45;&gt;Node12</title>
<g id="a_edge23_Node000022_Node000012"><a xlink:title=" ">
<path fill="none" stroke="#63b8ff" d="M757.91,-67.5C764.22,-70.07 770.37,-73.05 776,-76.5 795.83,-88.66 791.92,-102.75 812,-114.5 824.55,-121.84 839.88,-126.37 853.45,-129.15"/>
<polygon fill="#63b8ff" stroke="#63b8ff" points="852.93,-132.62 863.4,-130.96 854.18,-125.73 852.93,-132.62"/>
</a>
</g>
</g>
<!-- Node22&#45;&gt;Node14 -->
<g id="edge24_Node000022_Node000014" class="edge">
<title>Node22&#45;&gt;Node14</title>
<g id="a_edge24_Node000022_Node000014"><a xlink:title=" ">
<path fill="none" stroke="#63b8ff" d="M762.76,-67.6C767.51,-70.12 771.99,-73.07 776,-76.5 804.39,-100.81 783.11,-128.78 812,-152.5 823.49,-161.93 839.04,-166.77 853.04,-169.21"/>
<polygon fill="#63b8ff" stroke="#63b8ff" points="852.96,-172.74 863.35,-170.66 853.93,-165.8 852.96,-172.74"/>
</a>
</g>
</g>
<!-- Node22&#45;&gt;Node19 -->
<g id="edge25_Node000022_Node000019" class="edge">
<title>Node22&#45;&gt;Node19</title>
<g id="a_edge25_Node000022_Node000019"><a xlink:title=" ">
<path fill="none" stroke="#63b8ff" d="M762.33,-67.54C795.53,-74.96 833.8,-83.5 859.19,-89.18"/>
<polygon fill="#63b8ff" stroke="#63b8ff" points="858.71,-92.66 869.23,-91.42 860.24,-85.82 858.71,-92.66"/>
</a>
</g>
</g>
<!-- Node23 -->
<g id="Node000023" class="node">
<title>Node23</title>
<g id="a_Node000023"><a xlink:href="active__strain_8c.html#af8eb71852e7e9e1290f27656e66736fe" target="_top" xlink:title=" ">
<polygon fill="white" stroke="#666666" points="965,-67.5 812,-67.5 812,-37.5 965,-37.5 965,-67.5"/>
<text text-anchor="start" x="820" y="-55.5" font-family="Helvetica,sans-Serif" font-size="10.00">SubdivGeomEnsureIrregular</text>
<text text-anchor="middle" x="888.5" y="-44.5" font-family="Helvetica,sans-Serif" font-size="10.00">Arrays_</text>
</a>
</g>
</g>
<!-- Node22&#45;&gt;Node23 -->
<g id="edge26_Node000022_Node000023" class="edge">
<title>Node22&#45;&gt;Node23</title>
<g id="a_edge26_Node000022_Node000023"><a xlink:title=" ">
<path fill="none" stroke="#63b8ff" d="M776.08,-52.5C784.48,-52.5 793.04,-52.5 801.49,-52.5"/>
<polygon fill="#63b8ff" stroke="#63b8ff" points="801.73,-56 811.73,-52.5 801.73,-49 801.73,-56"/>
</a>
</g>
</g>
<!-- Node24 -->
<g id="Node000024" class="node">
<title>Node24</title>
<g id="a_Node000024"><a xlink:href="math_8c.html#ac616709995f2ae60c4308ffa328337d7" target="_top" xlink:title=" ">
<polygon fill="white" stroke="#666666" points="909,-19 868,-19 868,0 909,0 909,-19"/>
<text text-anchor="middle" x="888.5" y="-7" font-family="Helvetica,sans-Serif" font-size="10.00">UNIT</text>
</a>
</g>
</g>
<!-- Node22&#45;&gt;Node24 -->
<g id="edge27_Node000022_Node000024" class="edge">
<title>Node22&#45;&gt;Node24</title>
<g id="a_edge27_Node000022_Node000024"><a xlink:title=" ">
<path fill="none" stroke="#63b8ff" d="M762.33,-37.46C794.96,-30.17 832.49,-21.79 857.87,-16.12"/>
<polygon fill="#63b8ff" stroke="#63b8ff" points="858.96,-19.46 867.96,-13.86 857.44,-12.63 858.96,-19.46"/>
</a>
</g>
</g>
<!-- Node25&#45;&gt;Node22 -->
<g id="edge29_Node000025_Node000022" class="edge">
<title>Node25&#45;&gt;Node22</title>
<g id="a_edge29_Node000025_Node000022"><a xlink:title=" ">
<path fill="none" stroke="#63b8ff" d="M555.6,-52.5C570.38,-52.5 586.24,-52.5 601.73,-52.5"/>
<polygon fill="#63b8ff" stroke="#63b8ff" points="601.85,-56 611.85,-52.5 601.85,-49 601.85,-56"/>
</a>
</g>
</g>
</g>
</svg>

<g id="navigator" transform="translate(0 0)" fill="#404254">
  <rect fill="#f2f5e9" fill-opacity="0.5" stroke="#606060" stroke-width=".5" x="0" y="0" width="60" height="60"/>
  <use id="zoomplus" xlink:href="#zoomPlus" x="17" y="9" onmousedown="handleZoom(evt,'in')"/>
  <use id="zoomminus" xlink:href="#zoomMin" x="42" y="9" onmousedown="handleZoom(evt,'out')"/>
  <use id="reset" xlink:href="#resetDef" x="30" y="36" onmousedown="handleReset()"/>
   <use id="arrowup" xlink:href="#arrowUp" x="0" y="0" onmousedown="handlePan(0,-1)"/>
  <use id="arrowright" xlink:href="#arrowRight" x="0" y="0" onmousedown="handlePan(1,0)"/>
  <use id="arrowdown" xlink:href="#arrowDown" x="0" y="0" onmousedown="handlePan(0,1)"/>
  <use id="arrowleft" xlink:href="#arrowLeft" x="0" y="0" onmousedown="handlePan(-1,0)"/>
</g>
<svg viewBox="0 0 15 15" width="100%" height="30px" preserveAspectRatio="xMaxYMin meet">
 <g id="arrow_out" transform="scale(0.3 0.3)">
  <a xlink:href="dmplex__geom_8h_ac4ecb4d172bee5f7c59a9fdf2680bb51_cgraph_org.svg" target="_base">
   <rect id="button" ry="5" rx="5" y="6" x="6" height="38" width="38"
        fill="#f2f5e9" fill-opacity="0.5" stroke="#606060" stroke-width="1.0"/>
   <path id="arrow"
     d="M 11.500037,31.436501 C 11.940474,20.09759 22.043105,11.32322 32.158766,21.979434 L 37.068811,17.246167 C 37.068811,17.246167 37.088388,32 37.088388,32 L 22.160133,31.978069 C 22.160133,31.978069 26.997745,27.140456 26.997745,27.140456 C 18.528582,18.264221 13.291696,25.230495 11.500037,31.436501 z"
     style="fill:#404040;"/>
  </a>
 </g>
</svg>

<style type='text/css'>
<![CDATA[
[data-mouse-over-selected='false'] { opacity: 0.7; }
[data-mouse-over-selected='true']  { opacity: 1.0; }
]]>
</style>
<script type="application/ecmascript"><![CDATA[
document.addEventListener('DOMContentLoaded', (event) => {
  highlightEdges();
  highlightAdjacentNodes();
});
]]></script>
</svg>
