<?xml version="1.0" encoding="UTF-8" standalone="no"?>
<!DOCTYPE svg PUBLIC "-//W3C//DTD SVG 1.1//EN"
 "http://www.w3.org/Graphics/SVG/1.1/DTD/svg11.dtd">
<!-- Generated by graphviz version 2.43.0 (0)
 -->
<!-- Title: BuildSerialDMPlex_ Pages: 1 -->
<svg width="660pt" height="64pt"
 viewBox="0.00 0.00 660.00 64.00" xmlns="http://www.w3.org/2000/svg" xmlns:xlink="http://www.w3.org/1999/xlink">
<g id="graph0" class="graph" transform="scale(1 1) rotate(0) translate(4 60)">
<title>BuildSerialDMPlex_</title>
<!-- Node1 -->
<g id="Node000001" class="node">
<title>Node1</title>
<g id="a_Node000001"><a xlink:title="Construct a serial DMPlex from the IBMNodes connectivity on rank 0.">
<polygon fill="#999999" stroke="#666666" points="652,-37 540,-37 540,-18 652,-18 652,-37"/>
<text text-anchor="middle" x="596" y="-25" font-family="Helvetica,sans-Serif" font-size="10.00">BuildSerialDMPlex_</text>
</a>
</g>
</g>
<!-- Node2 -->
<g id="Node000002" class="node">
<title>Node2</title>
<g id="a_Node000002"><a xlink:href="dmplex__geom_8c.html#ab02736f3446add6db615133986b8a51c" target="_top" xlink:title="Distribute the serial DMPlex and return per&#45;rank original&#45;index arrays.">
<polygon fill="white" stroke="#666666" points="504,-37 358,-37 358,-18 504,-18 504,-37"/>
<text text-anchor="middle" x="431" y="-25" font-family="Helvetica,sans-Serif" font-size="10.00">CreateDistributedDMPlex_</text>
</a>
</g>
</g>
<!-- Node1&#45;&gt;Node2 -->
<g id="edge1_Node000001_Node000002" class="edge">
<title>Node1&#45;&gt;Node2</title>
<g id="a_edge1_Node000001_Node000002"><a xlink:title=" ">
<path fill="none" stroke="#63b8ff" d="M529.71,-27.5C521.32,-27.5 512.68,-27.5 504.18,-27.5"/>
<polygon fill="#63b8ff" stroke="#63b8ff" points="529.82,-31 539.82,-27.5 529.82,-24 529.82,-31"/>
</a>
</g>
</g>
<!-- Node3 -->
<g id="Node000003" class="node">
<title>Node3</title>
<g id="a_Node000003"><a xlink:href="dmplex__geom_8c.html#aeca513213e67a07a712cc41e8c6412ea" target="_top" xlink:title="One&#45;time DMPlex geometry setup.">
<polygon fill="white" stroke="#666666" points="315,-19 178,-19 178,0 315,0 315,-19"/>
<text text-anchor="middle" x="246.5" y="-7" font-family="Helvetica,sans-Serif" font-size="10.00">FEM_DMPlexGeomSetup</text>
</a>
</g>
</g>
<!-- Node2&#45;&gt;Node3 -->
<g id="edge2_Node000002_Node000003" class="edge">
<title>Node2&#45;&gt;Node3</title>
<g id="a_edge2_Node000002_Node000003"><a xlink:title=" ">
<path fill="none" stroke="#63b8ff" d="M347.91,-19.4C336.98,-18.33 325.88,-17.23 315.24,-16.18"/>
<polygon fill="#63b8ff" stroke="#63b8ff" points="347.58,-22.89 357.87,-20.39 348.26,-15.92 347.58,-22.89"/>
</a>
</g>
</g>
<!-- Node6 -->
<g id="Node000006" class="node">
<title>Node6</title>
<g id="a_Node000006"><a xlink:href="dmplex__geom_8c.html#ac4ecb4d172bee5f7c59a9fdf2680bb51" target="_top" xlink:title="Benchmark: run the full distributed DMPlex geometry pipeline for all bodies.">
<polygon fill="white" stroke="#666666" points="322,-56 171,-56 171,-37 322,-37 322,-56"/>
<text text-anchor="middle" x="246.5" y="-44" font-family="Helvetica,sans-Serif" font-size="10.00">RunDMPlexGeomProcesses</text>
</a>
</g>
</g>
<!-- Node2&#45;&gt;Node6 -->
<g id="edge5_Node000002_Node000006" class="edge">
<title>Node2&#45;&gt;Node6</title>
<g id="a_edge5_Node000002_Node000006"><a xlink:title=" ">
<path fill="none" stroke="#63b8ff" d="M347.86,-36.05C339.28,-36.94 330.59,-37.85 322.1,-38.73"/>
<polygon fill="#63b8ff" stroke="#63b8ff" points="348.29,-39.53 357.87,-35.01 347.56,-32.56 348.29,-39.53"/>
</a>
</g>
</g>
<!-- Node4 -->
<g id="Node000004" class="node">
<title>Node4</title>
<g id="a_Node000004"><a xlink:href="main_8c.html#a3c04138a5bfe5d72780bb7e82a18e627" target="_top" xlink:title=" ">
<polygon fill="white" stroke="#666666" points="88,-56 47,-56 47,-37 88,-37 88,-56"/>
<text text-anchor="middle" x="67.5" y="-44" font-family="Helvetica,sans-Serif" font-size="10.00">main</text>
</a>
</g>
</g>
<!-- Node3&#45;&gt;Node4 -->
<g id="edge3_Node000003_Node000004" class="edge">
<title>Node3&#45;&gt;Node4</title>
<g id="a_edge3_Node000003_Node000004"><a xlink:title=" ">
<path fill="none" stroke="#63b8ff" d="M189.92,-21.12C155.31,-28.35 112.86,-37.23 88.42,-42.34"/>
<polygon fill="#63b8ff" stroke="#63b8ff" points="190.85,-24.5 199.92,-19.03 189.41,-17.65 190.85,-24.5"/>
</a>
</g>
</g>
<!-- Node5 -->
<g id="Node000005" class="node">
<title>Node5</title>
<g id="a_Node000005"><a xlink:href="dmplex__geom_8c.html#af897ef006be5d3cc2be53b272a4f5a61" target="_top" xlink:title="Drop&#45;in geometry call: setup + update + destroy in one shot.">
<polygon fill="white" stroke="#666666" points="135,-19 0,-19 0,0 135,0 135,-19"/>
<text text-anchor="middle" x="67.5" y="-7" font-family="Helvetica,sans-Serif" font-size="10.00">RunDMPlexGeomSubdiv</text>
</a>
</g>
</g>
<!-- Node3&#45;&gt;Node5 -->
<g id="edge4_Node000003_Node000005" class="edge">
<title>Node3&#45;&gt;Node5</title>
<g id="a_edge4_Node000003_Node000005"><a xlink:title=" ">
<path fill="none" stroke="#63b8ff" d="M167.58,-9.5C156.8,-9.5 145.81,-9.5 135.26,-9.5"/>
<polygon fill="#63b8ff" stroke="#63b8ff" points="167.83,-13 177.83,-9.5 167.83,-6 167.83,-13"/>
</a>
</g>
</g>
<!-- Node6&#45;&gt;Node4 -->
<g id="edge6_Node000006_Node000004" class="edge">
<title>Node6&#45;&gt;Node4</title>
<g id="a_edge6_Node000006_Node000004"><a xlink:title=" ">
<path fill="none" stroke="#63b8ff" d="M160.61,-46.5C133.52,-46.5 105.98,-46.5 88.16,-46.5"/>
<polygon fill="#63b8ff" stroke="#63b8ff" points="160.95,-50 170.95,-46.5 160.95,-43 160.95,-50"/>
</a>
</g>
</g>
</g>
</svg>
