<?xml version="1.0" encoding="UTF-8" standalone="no"?>
<!DOCTYPE svg PUBLIC "-//W3C//DTD SVG 1.1//EN"
 "http://www.w3.org/Graphics/SVG/1.1/DTD/svg11.dtd">
<!-- Generated by graphviz version 2.43.0 (0)
 -->
<!-- Title: FEM_DMPlexGeomUpdate Pages: 1 -->
<svg width="758pt" height="187pt"
 viewBox="0.00 0.00 758.00 187.00" xmlns="http://www.w3.org/2000/svg" xmlns:xlink="http://www.w3.org/1999/xlink">
<g id="graph0" class="graph" transform="scale(1 1) rotate(0) translate(4 183)">
<title>FEM_DMPlexGeomUpdate</title>
<!-- Node1 -->
<g id="Node000001" class="node">
<title>Node1</title>
<g id="a_Node000001"><a xlink:title="Per&#45;Newton&#45;step geometry update.">
<polygon fill="#999999" stroke="#666666" points="145,-86 0,-86 0,-67 145,-67 145,-86"/>
<text text-anchor="middle" x="72.5" y="-74" font-family="Helvetica,sans-Serif" font-size="10.00">FEM_DMPlexGeomUpdate</text>
</a>
</g>
</g>
<!-- Node2 -->
<g id="Node000002" class="node">
<title>Node2</title>
<g id="a_Node000002"><a xlink:href="active__strain_8c.html#a04fa5da4f55d0663ad5ec7a3534de0af" target="_top" xlink:title="Update current midsurface geometry cache for one element.">
<polygon fill="white" stroke="#666666" points="340.5,-105 201.5,-105 201.5,-86 340.5,-86 340.5,-105"/>
<text text-anchor="middle" x="271" y="-93" font-family="Helvetica,sans-Serif" font-size="10.00">ElemUpdateGeomSubdiv</text>
</a>
</g>
</g>
<!-- Node1&#45;&gt;Node2 -->
<g id="edge1_Node000001_Node000002" class="edge">
<title>Node1&#45;&gt;Node2</title>
<g id="a_edge1_Node000001_Node000002"><a xlink:title=" ">
<path fill="none" stroke="#63b8ff" d="M145.28,-83.44C160.15,-84.88 175.9,-86.4 191.02,-87.86"/>
<polygon fill="#63b8ff" stroke="#63b8ff" points="191.08,-91.38 201.37,-88.86 191.75,-84.42 191.08,-91.38"/>
</a>
</g>
</g>
<!-- Node9 -->
<g id="Node000009" class="node">
<title>Node9</title>
<g id="a_Node000009"><a xlink:href="dmplex__geom_8c.html#a0e285c5152466ed0d16f3ccb265e2c99" target="_top" xlink:title="Broadcast updated vertex coordinates from owning ranks to all ranks that need them.">
<polygon fill="white" stroke="#666666" points="361,-68 181,-68 181,-49 361,-49 361,-68"/>
<text text-anchor="middle" x="271" y="-56" font-family="Helvetica,sans-Serif" font-size="10.00">UpdatePatchRemoteCoordinates_</text>
</a>
</g>
</g>
<!-- Node1&#45;&gt;Node9 -->
<g id="edge8_Node000001_Node000009" class="edge">
<title>Node1&#45;&gt;Node9</title>
<g id="a_edge8_Node000001_Node000009"><a xlink:title=" ">
<path fill="none" stroke="#63b8ff" d="M145.28,-69.93C153.55,-69.17 162.09,-68.38 170.65,-67.6"/>
<polygon fill="#63b8ff" stroke="#63b8ff" points="171.04,-71.08 180.68,-66.68 170.41,-64.11 171.04,-71.08"/>
</a>
</g>
</g>
<!-- Node3 -->
<g id="Node000003" class="node">
<title>Node3</title>
<g id="a_Node000003"><a xlink:href="active__strain_8c.html#a9ef026a24ded6fec7243fd82f49394c3" target="_top" xlink:title=" ">
<polygon fill="white" stroke="#666666" points="561,-110.5 397,-110.5 397,-80.5 561,-80.5 561,-110.5"/>
<text text-anchor="start" x="405" y="-98.5" font-family="Helvetica,sans-Serif" font-size="10.00">ElemUpdateGeomSubdivFrom</text>
<text text-anchor="middle" x="479" y="-87.5" font-family="Helvetica,sans-Serif" font-size="10.00">Coords_</text>
</a>
</g>
</g>
<!-- Node2&#45;&gt;Node3 -->
<g id="edge2_Node000002_Node000003" class="edge">
<title>Node2&#45;&gt;Node3</title>
<g id="a_edge2_Node000002_Node000003"><a xlink:title=" ">
<path fill="none" stroke="#63b8ff" d="M340.6,-95.5C355.38,-95.5 371.24,-95.5 386.73,-95.5"/>
<polygon fill="#63b8ff" stroke="#63b8ff" points="386.85,-99 396.85,-95.5 386.85,-92 386.85,-99"/>
</a>
</g>
</g>
<!-- Node4 -->
<g id="Node000004" class="node">
<title>Node4</title>
<g id="a_Node000004"><a xlink:href="math_8c.html#a7ef9263b0a3a10c2cd00bb4dc0059d70" target="_top" xlink:title=" ">
<polygon fill="white" stroke="#666666" points="698.5,-179 648.5,-179 648.5,-160 698.5,-160 698.5,-179"/>
<text text-anchor="middle" x="673.5" y="-167" font-family="Helvetica,sans-Serif" font-size="10.00">AMULT</text>
</a>
</g>
</g>
<!-- Node3&#45;&gt;Node4 -->
<g id="edge3_Node000003_Node000004" class="edge">
<title>Node3&#45;&gt;Node4</title>
<g id="a_edge3_Node000003_Node000004"><a xlink:title=" ">
<path fill="none" stroke="#63b8ff" d="M507.19,-110.55C530.46,-122.94 565.16,-140.23 597,-151.5 610.23,-156.18 625.19,-160.04 638.29,-162.96"/>
<polygon fill="#63b8ff" stroke="#63b8ff" points="637.81,-166.43 648.32,-165.1 639.27,-159.59 637.81,-166.43"/>
</a>
</g>
</g>
<!-- Node5 -->
<g id="Node000005" class="node">
<title>Node5</title>
<g id="a_Node000005"><a xlink:href="math_8c.html#a9d60990d26296194c921d537ea26f3c7" target="_top" xlink:title=" ">
<polygon fill="white" stroke="#666666" points="698.5,-142 648.5,-142 648.5,-123 698.5,-123 698.5,-142"/>
<text text-anchor="middle" x="673.5" y="-130" font-family="Helvetica,sans-Serif" font-size="10.00">CROSS</text>
</a>
</g>
</g>
<!-- Node3&#45;&gt;Node5 -->
<g id="edge4_Node000003_Node000005" class="edge">
<title>Node3&#45;&gt;Node5</title>
<g id="a_edge4_Node000003_Node000005"><a xlink:title=" ">
<path fill="none" stroke="#63b8ff" d="M558.3,-110.55C586.15,-115.9 616.09,-121.66 638.32,-125.93"/>
<polygon fill="#63b8ff" stroke="#63b8ff" points="637.79,-129.39 648.27,-127.84 639.11,-122.52 637.79,-129.39"/>
</a>
</g>
</g>
<!-- Node6 -->
<g id="Node000006" class="node">
<title>Node6</title>
<g id="a_Node000006"><a xlink:href="math_8c.html#a870a70f4845a041458d9bdb0dd7aabd3" target="_top" xlink:title=" ">
<polygon fill="white" stroke="#666666" points="692.5,-105 654.5,-105 654.5,-86 692.5,-86 692.5,-105"/>
<text text-anchor="middle" x="673.5" y="-93" font-family="Helvetica,sans-Serif" font-size="10.00">DOT</text>
</a>
</g>
</g>
<!-- Node3&#45;&gt;Node6 -->
<g id="edge5_Node000003_Node000006" class="edge">
<title>Node3&#45;&gt;Node6</title>
<g id="a_edge5_Node000003_Node000006"><a xlink:title=" ">
<path fill="none" stroke="#63b8ff" d="M561.08,-95.5C590.61,-95.5 622.1,-95.5 644.04,-95.5"/>
<polygon fill="#63b8ff" stroke="#63b8ff" points="644.29,-99 654.29,-95.5 644.29,-92 644.29,-99"/>
</a>
</g>
</g>
<!-- Node7 -->
<g id="Node000007" class="node">
<title>Node7</title>
<g id="a_Node000007"><a xlink:href="active__strain_8c.html#af8eb71852e7e9e1290f27656e66736fe" target="_top" xlink:title=" ">
<polygon fill="white" stroke="#666666" points="750,-67.5 597,-67.5 597,-37.5 750,-37.5 750,-67.5"/>
<text text-anchor="start" x="605" y="-55.5" font-family="Helvetica,sans-Serif" font-size="10.00">SubdivGeomEnsureIrregular</text>
<text text-anchor="middle" x="673.5" y="-44.5" font-family="Helvetica,sans-Serif" font-size="10.00">Arrays_</text>
</a>
</g>
</g>
<!-- Node3&#45;&gt;Node7 -->
<g id="edge6_Node000003_Node000007" class="edge">
<title>Node3&#45;&gt;Node7</title>
<g id="a_edge6_Node000003_Node000007"><a xlink:title=" ">
<path fill="none" stroke="#63b8ff" d="M547.33,-80.46C562.86,-76.99 579.5,-73.27 595.41,-69.72"/>
<polygon fill="#63b8ff" stroke="#63b8ff" points="596.21,-73.13 605.21,-67.53 594.69,-66.3 596.21,-73.13"/>
</a>
</g>
</g>
<!-- Node8 -->
<g id="Node000008" class="node">
<title>Node8</title>
<g id="a_Node000008"><a xlink:href="math_8c.html#ac616709995f2ae60c4308ffa328337d7" target="_top" xlink:title=" ">
<polygon fill="white" stroke="#666666" points="694,-19 653,-19 653,0 694,0 694,-19"/>
<text text-anchor="middle" x="673.5" y="-7" font-family="Helvetica,sans-Serif" font-size="10.00">UNIT</text>
</a>
</g>
</g>
<!-- Node3&#45;&gt;Node8 -->
<g id="edge7_Node000003_Node000008" class="edge">
<title>Node3&#45;&gt;Node8</title>
<g id="a_edge7_Node000003_Node000008"><a xlink:title=" ">
<path fill="none" stroke="#63b8ff" d="M501.94,-80.49C524.78,-65.46 562.05,-42.59 597,-28.5 611.58,-22.62 628.51,-18.16 642.63,-15.04"/>
<polygon fill="#63b8ff" stroke="#63b8ff" points="643.72,-18.39 652.8,-12.92 642.29,-11.54 643.72,-18.39"/>
</a>
</g>
</g>
</g>
</svg>
