<?xml version="1.0" encoding="UTF-8" standalone="no"?>
<!DOCTYPE svg PUBLIC "-//W3C//DTD SVG 1.1//EN"
 "http://www.w3.org/Graphics/SVG/1.1/DTD/svg11.dtd">
<!-- Generated by graphviz version 2.43.0 (0)
 -->
<!-- Title: PLUS Pages: 1 -->
<svg width="151pt" height="64pt"
 viewBox="0.00 0.00 151.00 64.00" xmlns="http://www.w3.org/2000/svg" xmlns:xlink="http://www.w3.org/1999/xlink">
<g id="graph0" class="graph" transform="scale(1 1) rotate(0) translate(4 60)">
<title>PLUS</title>
<!-- Node1 -->
<g id="Node000001" class="node">
<title>Node1</title>
<g id="a_Node000001"><a xlink:title=" ">
<polygon fill="#999999" stroke="#666666" points="143,-37 102,-37 102,-18 143,-18 143,-37"/>
<text text-anchor="middle" x="122.5" y="-25" font-family="Helvetica,sans-Serif" font-size="10.00">PLUS</text>
</a>
</g>
</g>
<!-- Node2 -->
<g id="Node000002" class="node">
<title>Node2</title>
<g id="a_Node000002"><a xlink:href="external_8c.html#a7a02ba548706ce1e1ab6a0215672d277" target="_top" xlink:title=" ">
<polygon fill="white" stroke="#666666" points="62.5,-56 3.5,-56 3.5,-37 62.5,-37 62.5,-56"/>
<text text-anchor="middle" x="33" y="-44" font-family="Helvetica,sans-Serif" font-size="10.00">GhostFix</text>
</a>
</g>
</g>
<!-- Node1&#45;&gt;Node2 -->
<g id="edge1_Node000001_Node000002" class="edge">
<title>Node1&#45;&gt;Node2</title>
<g id="a_edge1_Node000001_Node000002"><a xlink:title=" ">
<path fill="none" stroke="#63b8ff" d="M91.61,-33.99C82.27,-36.02 71.99,-38.25 62.74,-40.26"/>
<polygon fill="#63b8ff" stroke="#63b8ff" points="92.62,-37.35 101.64,-31.81 91.13,-30.51 92.62,-37.35"/>
</a>
</g>
</g>
<!-- Node3 -->
<g id="Node000003" class="node">
<title>Node3</title>
<g id="a_Node000003"><a xlink:href="external_8c.html#a8fbf0cfd3df23a9f35e4a68970730468" target="_top" xlink:title=" ">
<polygon fill="white" stroke="#666666" points="66,-19 0,-19 0,0 66,0 66,-19"/>
<text text-anchor="middle" x="33" y="-7" font-family="Helvetica,sans-Serif" font-size="10.00">GhostFree</text>
</a>
</g>
</g>
<!-- Node1&#45;&gt;Node3 -->
<g id="edge2_Node000001_Node000003" class="edge">
<title>Node1&#45;&gt;Node3</title>
<g id="a_edge2_Node000001_Node000003"><a xlink:title=" ">
<path fill="none" stroke="#63b8ff" d="M91.71,-21.37C83.47,-19.68 74.5,-17.83 66.13,-16.11"/>
<polygon fill="#63b8ff" stroke="#63b8ff" points="91.14,-24.83 101.64,-23.42 92.56,-17.97 91.14,-24.83"/>
</a>
</g>
</g>
</g>
</svg>
