<?xml version="1.0" encoding="UTF-8" standalone="no"?>
<!DOCTYPE svg PUBLIC "-//W3C//DTD SVG 1.1//EN"
 "http://www.w3.org/Graphics/SVG/1.1/DTD/svg11.dtd">
<!-- Generated by graphviz version 2.43.0 (0)
 -->
<!-- Title: AMULT Pages: 1 -->
<svg width="160pt" height="64pt"
 viewBox="0.00 0.00 160.00 64.00" xmlns="http://www.w3.org/2000/svg" xmlns:xlink="http://www.w3.org/1999/xlink">
<g id="graph0" class="graph" transform="scale(1 1) rotate(0) translate(4 60)">
<title>AMULT</title>
<!-- Node1 -->
<g id="Node000001" class="node">
<title>Node1</title>
<g id="a_Node000001"><a xlink:title=" ">
<polygon fill="#999999" stroke="#666666" points="152,-37 102,-37 102,-18 152,-18 152,-37"/>
<text text-anchor="middle" x="127" y="-25" font-family="Helvetica,sans-Serif" font-size="10.00">AMULT</text>
</a>
</g>
</g>
<!-- Node2 -->
<g id="Node000002" class="node">
<title>Node2</title>
<g id="a_Node000002"><a xlink:href="external_8c.html#a7a02ba548706ce1e1ab6a0215672d277" target="_top" xlink:title=" ">
<polygon fill="white" stroke="#666666" points="62.5,-56 3.5,-56 3.5,-37 62.5,-37 62.5,-56"/>
<text text-anchor="middle" x="33" y="-44" font-family="Helvetica,sans-Serif" font-size="10.00">GhostFix</text>
</a>
</g>
</g>
<!-- Node1&#45;&gt;Node2 -->
<g id="edge1_Node000001_Node000002" class="edge">
<title>Node1&#45;&gt;Node2</title>
<g id="a_edge1_Node000001_Node000002"><a xlink:title=" ">
<path fill="none" stroke="#63b8ff" d="M91.78,-34.57C82.17,-36.55 71.83,-38.69 62.59,-40.6"/>
<polygon fill="#63b8ff" stroke="#63b8ff" points="92.74,-37.94 101.83,-32.49 91.33,-31.09 92.74,-37.94"/>
</a>
</g>
</g>
<!-- Node3 -->
<g id="Node000003" class="node">
<title>Node3</title>
<g id="a_Node000003"><a xlink:href="external_8c.html#a8fbf0cfd3df23a9f35e4a68970730468" target="_top" xlink:title=" ">
<polygon fill="white" stroke="#666666" points="66,-19 0,-19 0,0 66,0 66,-19"/>
<text text-anchor="middle" x="33" y="-7" font-family="Helvetica,sans-Serif" font-size="10.00">GhostFree</text>
</a>
</g>
</g>
<!-- Node1&#45;&gt;Node3 -->
<g id="edge2_Node000001_Node000003" class="edge">
<title>Node1&#45;&gt;Node3</title>
<g id="a_edge2_Node000001_Node000003"><a xlink:title=" ">
<path fill="none" stroke="#63b8ff" d="M91.96,-20.84C83.58,-19.2 74.62,-17.45 66.31,-15.82"/>
<polygon fill="#63b8ff" stroke="#63b8ff" points="91.34,-24.29 101.83,-22.77 92.69,-17.42 91.34,-24.29"/>
</a>
</g>
</g>
</g>
</svg>
