<?xml version="1.0" encoding="UTF-8" standalone="no"?>
<!DOCTYPE svg PUBLIC "-//W3C//DTD SVG 1.1//EN"
 "http://www.w3.org/Graphics/SVG/1.1/DTD/svg11.dtd">
<!-- Generated by graphviz version 2.43.0 (0)
 -->
<!-- Title: DOT Pages: 1 -->
<svg width="181pt" height="101pt"
 viewBox="0.00 0.00 181.00 101.00" xmlns="http://www.w3.org/2000/svg" xmlns:xlink="http://www.w3.org/1999/xlink">

<svg id="main" version="1.1" xmlns="http://www.w3.org/2000/svg" xmlns:xlink="http://www.w3.org/1999/xlink" xml:space="preserve" onload="init(evt)">
<style type="text/css"><![CDATA[
.node, .edge {opacity: 0.7;}
.node.selected, .edge.selected {opacity: 1;}
.edge:hover path { stroke: red; }
.edge:hover polygon { stroke: red; fill: red; }
]]></style>
<script type="application/ecmascript" xlink:href="svg.min.js"/>
<svg id="graph" class="graph">
<g id="graph0" class="graph" transform="scale(1 1) rotate(0) translate(4 97)">
<title>DOT</title>
<!-- Node1 -->
<g id="Node000001" class="node">
<title>Node1</title>
<g id="a_Node000001"><a xlink:title=" ">
<polygon fill="#999999" stroke="#666666" points="173,-56 135,-56 135,-37 173,-37 173,-56"/>
<text text-anchor="middle" x="154" y="-44" font-family="Helvetica,sans-Serif" font-size="10.00">DOT</text>
</a>
</g>
</g>
<!-- Node2 -->
<g id="Node000002" class="node">
<title>Node2</title>
<g id="a_Node000002"><a xlink:href="external_8c.html#a7a02ba548706ce1e1ab6a0215672d277" target="_top" xlink:title=" ">
<polygon fill="white" stroke="#666666" points="79,-93 20,-93 20,-74 79,-74 79,-93"/>
<text text-anchor="middle" x="49.5" y="-81" font-family="Helvetica,sans-Serif" font-size="10.00">GhostFix</text>
</a>
</g>
</g>
<!-- Node1&#45;&gt;Node2 -->
<g id="edge1_Node000001_Node000002" class="edge">
<title>Node1&#45;&gt;Node2</title>
<g id="a_edge1_Node000001_Node000002"><a xlink:title=" ">
<path fill="none" stroke="#63b8ff" d="M124.97,-56.62C110.07,-62 91.84,-68.58 77.14,-73.88"/>
<polygon fill="#63b8ff" stroke="#63b8ff" points="126.46,-59.8 134.68,-53.11 124.08,-53.22 126.46,-59.8"/>
</a>
</g>
</g>
<!-- Node3 -->
<g id="Node000003" class="node">
<title>Node3</title>
<g id="a_Node000003"><a xlink:href="external_8c.html#a8fbf0cfd3df23a9f35e4a68970730468" target="_top" xlink:title=" ">
<polygon fill="white" stroke="#666666" points="82.5,-56 16.5,-56 16.5,-37 82.5,-37 82.5,-56"/>
<text text-anchor="middle" x="49.5" y="-44" font-family="Helvetica,sans-Serif" font-size="10.00">GhostFree</text>
</a>
</g>
</g>
<!-- Node1&#45;&gt;Node3 -->
<g id="edge2_Node000001_Node000003" class="edge">
<title>Node1&#45;&gt;Node3</title>
<g id="a_edge2_Node000001_Node000003"><a xlink:title=" ">
<path fill="none" stroke="#63b8ff" d="M124.46,-46.5C111.51,-46.5 96.13,-46.5 82.76,-46.5"/>
<polygon fill="#63b8ff" stroke="#63b8ff" points="124.68,-50 134.68,-46.5 124.68,-43 124.68,-50"/>
</a>
</g>
</g>
<!-- Node4 -->
<g id="Node000004" class="node">
<title>Node4</title>
<g id="a_Node000004"><a xlink:href="external_8c.html#a0164a912d0353bac4b5793086ba42620" target="_top" xlink:title=" ">
<polygon fill="white" stroke="#666666" points="99,-19 0,-19 0,0 99,0 99,-19"/>
<text text-anchor="middle" x="49.5" y="-7" font-family="Helvetica,sans-Serif" font-size="10.00">ModifyGhostFree</text>
</a>
</g>
</g>
<!-- Node1&#45;&gt;Node4 -->
<g id="edge3_Node000001_Node000004" class="edge">
<title>Node1&#45;&gt;Node4</title>
<g id="a_edge3_Node000001_Node000004"><a xlink:title=" ">
<path fill="none" stroke="#63b8ff" d="M124.97,-36.38C110.07,-31 91.84,-24.42 77.14,-19.12"/>
<polygon fill="#63b8ff" stroke="#63b8ff" points="124.08,-39.78 134.68,-39.89 126.46,-33.2 124.08,-39.78"/>
</a>
</g>
</g>
</g>
</svg>
</svg>

<style type='text/css'>
<![CDATA[
[data-mouse-over-selected='false'] { opacity: 0.7; }
[data-mouse-over-selected='true']  { opacity: 1.0; }
]]>
</style>
<script type="application/ecmascript"><![CDATA[
document.addEventListener('DOMContentLoaded', (event) => {
  highlightEdges();
  highlightAdjacentNodes();
});
]]></script>
</svg>
