<?xml version="1.0" encoding="UTF-8" standalone="no"?>
<!DOCTYPE svg PUBLIC "-//W3C//DTD SVG 1.1//EN"
 "http://www.w3.org/Graphics/SVG/1.1/DTD/svg11.dtd">
<!-- Generated by graphviz version 2.43.0 (0)
 -->
<!-- Title: MINUS Pages: 1 -->
<svg width="242pt" height="187pt"
 viewBox="0.00 0.00 242.00 186.50" xmlns="http://www.w3.org/2000/svg" xmlns:xlink="http://www.w3.org/1999/xlink">

<svg id="main" version="1.1" xmlns="http://www.w3.org/2000/svg" xmlns:xlink="http://www.w3.org/1999/xlink" xml:space="preserve" onload="init(evt)">
<style type="text/css"><![CDATA[
.node, .edge {opacity: 0.7;}
.node.selected, .edge.selected {opacity: 1;}
.edge:hover path { stroke: red; }
.edge:hover polygon { stroke: red; fill: red; }
]]></style>
<script type="application/ecmascript" xlink:href="svg.min.js"/>
<svg id="graph" class="graph">
<g id="graph0" class="graph" transform="scale(1 1) rotate(0) translate(4 182.5)">
<title>MINUS</title>
<!-- Node1 -->
<g id="Node000001" class="node">
<title>Node1</title>
<g id="a_Node000001"><a xlink:title=" ">
<polygon fill="#999999" stroke="#666666" points="234,-104.5 184,-104.5 184,-85.5 234,-85.5 234,-104.5"/>
<text text-anchor="middle" x="209" y="-92.5" font-family="Helvetica,sans-Serif" font-size="10.00">MINUS</text>
</a>
</g>
</g>
<!-- Node2 -->
<g id="Node000002" class="node">
<title>Node2</title>
<g id="a_Node000002"><a xlink:href="external_8c.html#a7a02ba548706ce1e1ab6a0215672d277" target="_top" xlink:title=" ">
<polygon fill="white" stroke="#666666" points="103.5,-178.5 44.5,-178.5 44.5,-159.5 103.5,-159.5 103.5,-178.5"/>
<text text-anchor="middle" x="74" y="-166.5" font-family="Helvetica,sans-Serif" font-size="10.00">GhostFix</text>
</a>
</g>
</g>
<!-- Node1&#45;&gt;Node2 -->
<g id="edge1_Node000001_Node000002" class="edge">
<title>Node1&#45;&gt;Node2</title>
<g id="a_edge1_Node000001_Node000002"><a xlink:title=" ">
<path fill="none" stroke="#63b8ff" d="M193.66,-112.5C182.48,-125.02 165.88,-141.31 148,-151 134.34,-158.4 117.61,-162.81 103.61,-165.41"/>
<polygon fill="#63b8ff" stroke="#63b8ff" points="196.31,-114.78 200.19,-104.92 191.01,-110.21 196.31,-114.78"/>
</a>
</g>
</g>
<!-- Node3 -->
<g id="Node000003" class="node">
<title>Node3</title>
<g id="a_Node000003"><a xlink:href="external_8c.html#a8fbf0cfd3df23a9f35e4a68970730468" target="_top" xlink:title=" ">
<polygon fill="white" stroke="#666666" points="107,-141.5 41,-141.5 41,-122.5 107,-122.5 107,-141.5"/>
<text text-anchor="middle" x="74" y="-129.5" font-family="Helvetica,sans-Serif" font-size="10.00">GhostFree</text>
</a>
</g>
</g>
<!-- Node1&#45;&gt;Node3 -->
<g id="edge2_Node000001_Node000003" class="edge">
<title>Node1&#45;&gt;Node3</title>
<g id="a_edge2_Node000001_Node000003"><a xlink:title=" ">
<path fill="none" stroke="#63b8ff" d="M174.23,-106.12C165.7,-108.81 156.54,-111.6 148,-114 134.68,-117.75 119.88,-121.48 107.1,-124.56"/>
<polygon fill="#63b8ff" stroke="#63b8ff" points="175.42,-109.41 183.88,-103.03 173.29,-102.74 175.42,-109.41"/>
</a>
</g>
</g>
<!-- Node4 -->
<g id="Node000004" class="node">
<title>Node4</title>
<g id="a_Node000004"><a xlink:href="external_8c.html#a81e9d24daf1667886b192e1288fba09f" target="_top" xlink:title=" ">
<polygon fill="white" stroke="#666666" points="120,-104.5 28,-104.5 28,-85.5 120,-85.5 120,-104.5"/>
<text text-anchor="middle" x="74" y="-92.5" font-family="Helvetica,sans-Serif" font-size="10.00">ModifyGhostFix</text>
</a>
</g>
</g>
<!-- Node1&#45;&gt;Node4 -->
<g id="edge3_Node000001_Node000004" class="edge">
<title>Node1&#45;&gt;Node4</title>
<g id="a_edge3_Node000001_Node000004"><a xlink:title=" ">
<path fill="none" stroke="#63b8ff" d="M173.74,-95C157.42,-95 137.68,-95 120.15,-95"/>
<polygon fill="#63b8ff" stroke="#63b8ff" points="173.91,-98.5 183.91,-95 173.91,-91.5 173.91,-98.5"/>
</a>
</g>
</g>
<!-- Node5 -->
<g id="Node000005" class="node">
<title>Node5</title>
<g id="a_Node000005"><a xlink:href="external_8c.html#a0164a912d0353bac4b5793086ba42620" target="_top" xlink:title=" ">
<polygon fill="white" stroke="#666666" points="123.5,-67.5 24.5,-67.5 24.5,-48.5 123.5,-48.5 123.5,-67.5"/>
<text text-anchor="middle" x="74" y="-55.5" font-family="Helvetica,sans-Serif" font-size="10.00">ModifyGhostFree</text>
</a>
</g>
</g>
<!-- Node1&#45;&gt;Node5 -->
<g id="edge4_Node000001_Node000005" class="edge">
<title>Node1&#45;&gt;Node5</title>
<g id="a_edge4_Node000001_Node000005"><a xlink:title=" ">
<path fill="none" stroke="#63b8ff" d="M174.18,-84.62C165.65,-82.06 156.51,-79.38 148,-77 136.65,-73.82 124.26,-70.53 112.96,-67.6"/>
<polygon fill="#63b8ff" stroke="#63b8ff" points="173.24,-87.99 183.83,-87.53 175.27,-81.29 173.24,-87.99"/>
</a>
</g>
</g>
<!-- Node6 -->
<g id="Node000006" class="node">
<title>Node6</title>
<g id="a_Node000006"><a xlink:href="external_8c.html#ac500c8a702e14599bf1bbff4202a7a6a" target="_top" xlink:title=" ">
<polygon fill="white" stroke="#666666" points="148,-30 0,-30 0,0 148,0 148,-30"/>
<text text-anchor="start" x="8" y="-18" font-family="Helvetica,sans-Serif" font-size="10.00">SurfacePartialConstNormal</text>
<text text-anchor="middle" x="74" y="-7" font-family="Helvetica,sans-Serif" font-size="10.00">Pressure</text>
</a>
</g>
</g>
<!-- Node1&#45;&gt;Node6 -->
<g id="edge5_Node000001_Node000006" class="edge">
<title>Node1&#45;&gt;Node6</title>
<g id="a_edge5_Node000001_Node000006"><a xlink:title=" ">
<path fill="none" stroke="#63b8ff" d="M192.62,-77.51C181.3,-65.55 164.98,-50.08 148,-40 141.67,-36.24 134.68,-32.94 127.62,-30.08"/>
<polygon fill="#63b8ff" stroke="#63b8ff" points="190.27,-80.13 199.61,-85.13 195.43,-75.4 190.27,-80.13"/>
</a>
</g>
</g>
</g>
</svg>
</svg>

<style type='text/css'>
<![CDATA[
[data-mouse-over-selected='false'] { opacity: 0.7; }
[data-mouse-over-selected='true']  { opacity: 1.0; }
]]>
</style>
<script type="application/ecmascript"><![CDATA[
document.addEventListener('DOMContentLoaded', (event) => {
  highlightEdges();
  highlightAdjacentNodes();
});
]]></script>
</svg>
