<?xml version="1.0" encoding="UTF-8" standalone="no"?>
<!DOCTYPE svg PUBLIC "-//W3C//DTD SVG 1.1//EN"
 "http://www.w3.org/Graphics/SVG/1.1/DTD/svg11.dtd">
<!-- Generated by graphviz version 2.43.0 (0)
 -->
<!-- Title: GhostFix Pages: 1 -->
<svg width="153pt" height="212pt"
 viewBox="0.00 0.00 153.00 212.00" xmlns="http://www.w3.org/2000/svg" xmlns:xlink="http://www.w3.org/1999/xlink">

<svg id="main" version="1.1" xmlns="http://www.w3.org/2000/svg" xmlns:xlink="http://www.w3.org/1999/xlink" xml:space="preserve" onload="init(evt)">
<style type="text/css"><![CDATA[
.node, .edge {opacity: 0.7;}
.node.selected, .edge.selected {opacity: 1;}
.edge:hover path { stroke: red; }
.edge:hover polygon { stroke: red; fill: red; }
]]></style>
<script type="application/ecmascript" xlink:href="svg.min.js"/>
<svg id="graph" class="graph">
<g id="graph0" class="graph" transform="scale(1 1) rotate(0) translate(4 208)">
<title>GhostFix</title>
<!-- Node1 -->
<g id="Node000001" class="node">
<title>Node1</title>
<g id="a_Node000001"><a xlink:title=" ">
<polygon fill="#999999" stroke="#666666" points="59,-111 0,-111 0,-92 59,-92 59,-111"/>
<text text-anchor="middle" x="29.5" y="-99" font-family="Helvetica,sans-Serif" font-size="10.00">GhostFix</text>
</a>
</g>
</g>
<!-- Node2 -->
<g id="Node000002" class="node">
<title>Node2</title>
<g id="a_Node000002"><a xlink:href="math_8c.html#a7ef9263b0a3a10c2cd00bb4dc0059d70" target="_top" xlink:title=" ">
<polygon fill="white" stroke="#666666" points="145,-204 95,-204 95,-185 145,-185 145,-204"/>
<text text-anchor="middle" x="120" y="-192" font-family="Helvetica,sans-Serif" font-size="10.00">AMULT</text>
</a>
</g>
</g>
<!-- Node1&#45;&gt;Node2 -->
<g id="edge1_Node000001_Node000002" class="edge">
<title>Node1&#45;&gt;Node2</title>
<g id="a_edge1_Node000001_Node000002"><a xlink:title=" ">
<path fill="none" stroke="#63b8ff" d="M37.83,-111.33C49.2,-126.25 72.17,-155.15 95,-176.5 95.67,-177.12 96.35,-177.74 97.05,-178.36"/>
<polygon fill="#63b8ff" stroke="#63b8ff" points="94.91,-181.13 104.88,-184.71 99.32,-175.69 94.91,-181.13"/>
</a>
</g>
</g>
<!-- Node3 -->
<g id="Node000003" class="node">
<title>Node3</title>
<g id="a_Node000003"><a xlink:href="math_8c.html#a9d60990d26296194c921d537ea26f3c7" target="_top" xlink:title=" ">
<polygon fill="white" stroke="#666666" points="145,-167 95,-167 95,-148 145,-148 145,-167"/>
<text text-anchor="middle" x="120" y="-155" font-family="Helvetica,sans-Serif" font-size="10.00">CROSS</text>
</a>
</g>
</g>
<!-- Node1&#45;&gt;Node3 -->
<g id="edge2_Node000001_Node000003" class="edge">
<title>Node1&#45;&gt;Node3</title>
<g id="a_edge2_Node000001_Node000003"><a xlink:title=" ">
<path fill="none" stroke="#63b8ff" d="M45.92,-111.25C59.49,-119.85 79.49,-132.5 95.13,-142.4"/>
<polygon fill="#63b8ff" stroke="#63b8ff" points="93.44,-145.47 103.76,-147.86 97.18,-139.55 93.44,-145.47"/>
</a>
</g>
</g>
<!-- Node4 -->
<g id="Node000004" class="node">
<title>Node4</title>
<g id="a_Node000004"><a xlink:href="math_8c.html#a870a70f4845a041458d9bdb0dd7aabd3" target="_top" xlink:title=" ">
<polygon fill="white" stroke="#666666" points="139,-130 101,-130 101,-111 139,-111 139,-130"/>
<text text-anchor="middle" x="120" y="-118" font-family="Helvetica,sans-Serif" font-size="10.00">DOT</text>
</a>
</g>
</g>
<!-- Node1&#45;&gt;Node4 -->
<g id="edge3_Node000001_Node000004" class="edge">
<title>Node1&#45;&gt;Node4</title>
<g id="a_edge3_Node000001_Node000004"><a xlink:title=" ">
<path fill="none" stroke="#63b8ff" d="M59.48,-107.72C69.58,-109.89 80.89,-112.32 90.92,-114.47"/>
<polygon fill="#63b8ff" stroke="#63b8ff" points="90.29,-117.92 100.8,-116.59 91.76,-111.07 90.29,-117.92"/>
</a>
</g>
</g>
<!-- Node5 -->
<g id="Node000005" class="node">
<title>Node5</title>
<g id="a_Node000005"><a xlink:href="math_8c.html#a9d08a9d2fd8e8932e92b8ab054b19269" target="_top" xlink:title=" ">
<polygon fill="white" stroke="#666666" points="145,-93 95,-93 95,-74 145,-74 145,-93"/>
<text text-anchor="middle" x="120" y="-81" font-family="Helvetica,sans-Serif" font-size="10.00">MINUS</text>
</a>
</g>
</g>
<!-- Node1&#45;&gt;Node5 -->
<g id="edge4_Node000001_Node000005" class="edge">
<title>Node1&#45;&gt;Node5</title>
<g id="a_edge4_Node000001_Node000005"><a xlink:title=" ">
<path fill="none" stroke="#63b8ff" d="M59.48,-95.61C67.65,-93.94 76.61,-92.12 85.05,-90.41"/>
<polygon fill="#63b8ff" stroke="#63b8ff" points="85.88,-93.81 94.98,-88.38 84.49,-86.95 85.88,-93.81"/>
</a>
</g>
</g>
<!-- Node6 -->
<g id="Node000006" class="node">
<title>Node6</title>
<g id="a_Node000006"><a xlink:href="math_8c.html#ae18926821a703a2c5b281bd890b7e6a0" target="_top" xlink:title=" ">
<polygon fill="white" stroke="#666666" points="140.5,-56 99.5,-56 99.5,-37 140.5,-37 140.5,-56"/>
<text text-anchor="middle" x="120" y="-44" font-family="Helvetica,sans-Serif" font-size="10.00">PLUS</text>
</a>
</g>
</g>
<!-- Node1&#45;&gt;Node6 -->
<g id="edge5_Node000001_Node000006" class="edge">
<title>Node1&#45;&gt;Node6</title>
<g id="a_edge5_Node000001_Node000006"><a xlink:title=" ">
<path fill="none" stroke="#63b8ff" d="M45.92,-91.92C59.41,-83.53 79.25,-71.21 94.85,-61.51"/>
<polygon fill="#63b8ff" stroke="#63b8ff" points="96.82,-64.41 103.46,-56.16 93.12,-58.46 96.82,-64.41"/>
</a>
</g>
</g>
<!-- Node7 -->
<g id="Node000007" class="node">
<title>Node7</title>
<g id="a_Node000007"><a xlink:href="math_8c.html#ac616709995f2ae60c4308ffa328337d7" target="_top" xlink:title=" ">
<polygon fill="white" stroke="#666666" points="140.5,-19 99.5,-19 99.5,0 140.5,0 140.5,-19"/>
<text text-anchor="middle" x="120" y="-7" font-family="Helvetica,sans-Serif" font-size="10.00">UNIT</text>
</a>
</g>
</g>
<!-- Node1&#45;&gt;Node7 -->
<g id="edge6_Node000001_Node000007" class="edge">
<title>Node1&#45;&gt;Node7</title>
<g id="a_edge6_Node000001_Node000007"><a xlink:title=" ">
<path fill="none" stroke="#63b8ff" d="M38.34,-91.55C49.99,-77.02 72.9,-49.44 95,-28.5 95.95,-27.6 96.95,-26.69 97.97,-25.79"/>
<polygon fill="#63b8ff" stroke="#63b8ff" points="100.49,-28.24 105.94,-19.15 96.02,-22.86 100.49,-28.24"/>
</a>
</g>
</g>
</g>
</svg>
</svg>

<style type='text/css'>
<![CDATA[
[data-mouse-over-selected='false'] { opacity: 0.7; }
[data-mouse-over-selected='true']  { opacity: 1.0; }
]]>
</style>
<script type="application/ecmascript"><![CDATA[
document.addEventListener('DOMContentLoaded', (event) => {
  highlightEdges();
  highlightAdjacentNodes();
});
]]></script>
</svg>
