<?xml version="1.0" encoding="UTF-8" standalone="no"?>
<!DOCTYPE svg PUBLIC "-//W3C//DTD SVG 1.1//EN"
 "http://www.w3.org/Graphics/SVG/1.1/DTD/svg11.dtd">
<!-- Generated by graphviz version 2.43.0 (0)
 -->
<!-- Title: update_Fung_epsilon Pages: 1 -->
<svg width="436pt" height="101pt"
 viewBox="0.00 0.00 436.00 101.00" xmlns="http://www.w3.org/2000/svg" xmlns:xlink="http://www.w3.org/1999/xlink">
<g id="graph0" class="graph" transform="scale(1 1) rotate(0) translate(4 97)">
<title>update_Fung_epsilon</title>
<!-- Node1 -->
<g id="Node000001" class="node">
<title>Node1</title>
<g id="a_Node000001"><a xlink:title=" ">
<polygon fill="#999999" stroke="#666666" points="428,-56 309,-56 309,-37 428,-37 428,-56"/>
<text text-anchor="middle" x="368.5" y="-44" font-family="Helvetica,sans-Serif" font-size="10.00">update_Fung_epsilon</text>
</a>
</g>
</g>
<!-- Node2 -->
<g id="Node000002" class="node">
<title>Node2</title>
<g id="a_Node000002"><a xlink:href="inverse_8c.html#a5a46d0c408c2a4905101ca00ed320825" target="_top" xlink:title=" ">
<polygon fill="white" stroke="#666666" points="264.5,-93 183.5,-93 183.5,-74 264.5,-74 264.5,-93"/>
<text text-anchor="middle" x="224" y="-81" font-family="Helvetica,sans-Serif" font-size="10.00">FungJacobian</text>
</a>
</g>
</g>
<!-- Node1&#45;&gt;Node2 -->
<g id="edge1_Node000001_Node000002" class="edge">
<title>Node1&#45;&gt;Node2</title>
<g id="a_edge1_Node000001_Node000002"><a xlink:title=" ">
<path fill="none" stroke="#63b8ff" d="M321.08,-58.55C301.96,-63.52 280.1,-69.19 262.07,-73.88"/>
<polygon fill="#63b8ff" stroke="#63b8ff" points="322,-61.93 330.8,-56.03 320.24,-55.15 322,-61.93"/>
</a>
</g>
</g>
<!-- Node5 -->
<g id="Node000005" class="node">
<title>Node5</title>
<g id="a_Node000005"><a xlink:href="inverse_8c.html#a6dcb60291ae68ad8fa0ccea39658279a" target="_top" xlink:title=" ">
<polygon fill="white" stroke="#666666" points="273,-56 175,-56 175,-37 273,-37 273,-56"/>
<text text-anchor="middle" x="224" y="-44" font-family="Helvetica,sans-Serif" font-size="10.00">FungUniJacobian</text>
</a>
</g>
</g>
<!-- Node1&#45;&gt;Node5 -->
<g id="edge4_Node000001_Node000005" class="edge">
<title>Node1&#45;&gt;Node5</title>
<g id="a_edge4_Node000001_Node000005"><a xlink:title=" ">
<path fill="none" stroke="#63b8ff" d="M298.67,-46.5C290.07,-46.5 281.43,-46.5 273.23,-46.5"/>
<polygon fill="#63b8ff" stroke="#63b8ff" points="298.72,-50 308.72,-46.5 298.72,-43 298.72,-50"/>
</a>
</g>
</g>
<!-- Node6 -->
<g id="Node000006" class="node">
<title>Node6</title>
<g id="a_Node000006"><a xlink:href="inverse_8c.html#a9c6b1db7cc8e3f7771140e7920429ab3" target="_top" xlink:title=" ">
<polygon fill="white" stroke="#666666" points="253,-19 195,-19 195,0 253,0 253,-19"/>
<text text-anchor="middle" x="224" y="-7" font-family="Helvetica,sans-Serif" font-size="10.00">Jacobian</text>
</a>
</g>
</g>
<!-- Node1&#45;&gt;Node6 -->
<g id="edge6_Node000001_Node000006" class="edge">
<title>Node1&#45;&gt;Node6</title>
<g id="a_edge6_Node000001_Node000006"><a xlink:title=" ">
<path fill="none" stroke="#63b8ff" d="M321.11,-34.45C298.64,-28.62 272.4,-21.81 253.02,-16.78"/>
<polygon fill="#63b8ff" stroke="#63b8ff" points="320.24,-37.85 330.8,-36.97 322,-31.07 320.24,-37.85"/>
</a>
</g>
</g>
<!-- Node3 -->
<g id="Node000003" class="node">
<title>Node3</title>
<g id="a_Node000003"><a xlink:href="inverse_8c.html#a63c0a7ac76584f0dab82764698b5d878" target="_top" xlink:title=" ">
<polygon fill="white" stroke="#666666" points="139,-56 77,-56 77,-37 139,-37 139,-56"/>
<text text-anchor="middle" x="108" y="-44" font-family="Helvetica,sans-Serif" font-size="10.00">InvSolver</text>
</a>
</g>
</g>
<!-- Node2&#45;&gt;Node3 -->
<g id="edge2_Node000002_Node000003" class="edge">
<title>Node2&#45;&gt;Node3</title>
<g id="a_edge2_Node000002_Node000003"><a xlink:title=" ">
<path fill="none" stroke="#63b8ff" d="M183.75,-70.76C168.97,-65.96 152.42,-60.59 138.65,-56.12"/>
<polygon fill="#63b8ff" stroke="#63b8ff" points="183.05,-74.21 193.64,-73.97 185.21,-67.56 183.05,-74.21"/>
</a>
</g>
</g>
<!-- Node4 -->
<g id="Node000004" class="node">
<title>Node4</title>
<g id="a_Node000004"><a xlink:href="main_8c.html#a3c04138a5bfe5d72780bb7e82a18e627" target="_top" xlink:title=" ">
<polygon fill="white" stroke="#666666" points="41,-56 0,-56 0,-37 41,-37 41,-56"/>
<text text-anchor="middle" x="20.5" y="-44" font-family="Helvetica,sans-Serif" font-size="10.00">main</text>
</a>
</g>
</g>
<!-- Node3&#45;&gt;Node4 -->
<g id="edge3_Node000003_Node000004" class="edge">
<title>Node3&#45;&gt;Node4</title>
<g id="a_edge3_Node000003_Node000004"><a xlink:title=" ">
<path fill="none" stroke="#63b8ff" d="M66.42,-46.5C57.6,-46.5 48.67,-46.5 41.11,-46.5"/>
<polygon fill="#63b8ff" stroke="#63b8ff" points="66.62,-50 76.62,-46.5 66.62,-43 66.62,-50"/>
</a>
</g>
</g>
<!-- Node5&#45;&gt;Node3 -->
<g id="edge5_Node000005_Node000003" class="edge">
<title>Node5&#45;&gt;Node3</title>
<g id="a_edge5_Node000005_Node000003"><a xlink:title=" ">
<path fill="none" stroke="#63b8ff" d="M164.92,-46.5C155.98,-46.5 147.08,-46.5 139.09,-46.5"/>
<polygon fill="#63b8ff" stroke="#63b8ff" points="164.98,-50 174.98,-46.5 164.98,-43 164.98,-50"/>
</a>
</g>
</g>
<!-- Node6&#45;&gt;Node3 -->
<g id="edge7_Node000006_Node000003" class="edge">
<title>Node6&#45;&gt;Node3</title>
<g id="a_edge7_Node000006_Node000003"><a xlink:title=" ">
<path fill="none" stroke="#63b8ff" d="M185.18,-21.78C169.97,-26.71 152.69,-32.32 138.45,-36.94"/>
<polygon fill="#63b8ff" stroke="#63b8ff" points="186.39,-25.06 194.82,-18.65 184.23,-18.4 186.39,-25.06"/>
</a>
</g>
</g>
</g>
</svg>
