<?xml version="1.0" encoding="UTF-8" standalone="no"?>
<!DOCTYPE svg PUBLIC "-//W3C//DTD SVG 1.1//EN"
 "http://www.w3.org/Graphics/SVG/1.1/DTD/svg11.dtd">
<!-- Generated by graphviz version 2.43.0 (0)
 -->
<!-- Title: print_progress_bar Pages: 1 -->
<svg width="384pt" height="27pt"
 viewBox="0.00 0.00 384.00 27.00" xmlns="http://www.w3.org/2000/svg" xmlns:xlink="http://www.w3.org/1999/xlink">
<g id="graph0" class="graph" transform="scale(1 1) rotate(0) translate(4 23)">
<title>print_progress_bar</title>
<!-- Node1 -->
<g id="Node000001" class="node">
<title>Node1</title>
<g id="a_Node000001"><a xlink:title=" ">
<polygon fill="#999999" stroke="#666666" points="376,-19 269,-19 269,0 376,0 376,-19"/>
<text text-anchor="middle" x="322.5" y="-7" font-family="Helvetica,sans-Serif" font-size="10.00">print_progress_bar</text>
</a>
</g>
</g>
<!-- Node2 -->
<g id="Node000002" class="node">
<title>Node2</title>
<g id="a_Node000002"><a xlink:href="inverse_8c.html#a9c6b1db7cc8e3f7771140e7920429ab3" target="_top" xlink:title=" ">
<polygon fill="white" stroke="#666666" points="233,-19 175,-19 175,0 233,0 233,-19"/>
<text text-anchor="middle" x="204" y="-7" font-family="Helvetica,sans-Serif" font-size="10.00">Jacobian</text>
</a>
</g>
</g>
<!-- Node1&#45;&gt;Node2 -->
<g id="edge1_Node000001_Node000002" class="edge">
<title>Node1&#45;&gt;Node2</title>
<g id="a_edge1_Node000001_Node000002"><a xlink:title=" ">
<path fill="none" stroke="#63b8ff" d="M258.6,-9.5C249.67,-9.5 240.88,-9.5 233.09,-9.5"/>
<polygon fill="#63b8ff" stroke="#63b8ff" points="258.7,-13 268.7,-9.5 258.7,-6 258.7,-13"/>
</a>
</g>
</g>
<!-- Node3 -->
<g id="Node000003" class="node">
<title>Node3</title>
<g id="a_Node000003"><a xlink:href="inverse_8c.html#a63c0a7ac76584f0dab82764698b5d878" target="_top" xlink:title=" ">
<polygon fill="white" stroke="#666666" points="139,-19 77,-19 77,0 139,0 139,-19"/>
<text text-anchor="middle" x="108" y="-7" font-family="Helvetica,sans-Serif" font-size="10.00">InvSolver</text>
</a>
</g>
</g>
<!-- Node2&#45;&gt;Node3 -->
<g id="edge2_Node000002_Node000003" class="edge">
<title>Node2&#45;&gt;Node3</title>
<g id="a_edge2_Node000002_Node000003"><a xlink:title=" ">
<path fill="none" stroke="#63b8ff" d="M164.69,-9.5C156.18,-9.5 147.28,-9.5 139.15,-9.5"/>
<polygon fill="#63b8ff" stroke="#63b8ff" points="164.8,-13 174.8,-9.5 164.8,-6 164.8,-13"/>
</a>
</g>
</g>
<!-- Node4 -->
<g id="Node000004" class="node">
<title>Node4</title>
<g id="a_Node000004"><a xlink:href="main_8c.html#a3c04138a5bfe5d72780bb7e82a18e627" target="_top" xlink:title=" ">
<polygon fill="white" stroke="#666666" points="41,-19 0,-19 0,0 41,0 41,-19"/>
<text text-anchor="middle" x="20.5" y="-7" font-family="Helvetica,sans-Serif" font-size="10.00">main</text>
</a>
</g>
</g>
<!-- Node3&#45;&gt;Node4 -->
<g id="edge3_Node000003_Node000004" class="edge">
<title>Node3&#45;&gt;Node4</title>
<g id="a_edge3_Node000003_Node000004"><a xlink:title=" ">
<path fill="none" stroke="#63b8ff" d="M66.42,-9.5C57.6,-9.5 48.67,-9.5 41.11,-9.5"/>
<polygon fill="#63b8ff" stroke="#63b8ff" points="66.62,-13 76.62,-9.5 66.62,-6 66.62,-13"/>
</a>
</g>
</g>
</g>
</svg>
