<?xml version="1.0" encoding="UTF-8" standalone="no"?>
<!DOCTYPE svg PUBLIC "-//W3C//DTD SVG 1.1//EN"
 "http://www.w3.org/Graphics/SVG/1.1/DTD/svg11.dtd">
<!-- Generated by graphviz version 2.43.0 (0)
 -->
<!-- Title: ResidualCalc Pages: 1 -->
<svg width="635pt" height="569pt"
 viewBox="0.00 0.00 635.00 569.10" xmlns="http://www.w3.org/2000/svg" xmlns:xlink="http://www.w3.org/1999/xlink">
<g id="graph0" class="graph" transform="scale(1 1) rotate(0) translate(4 565.1)">
<title>ResidualCalc</title>
<!-- Node1 -->
<g id="Node000001" class="node">
<title>Node1</title>
<g id="a_Node000001"><a xlink:title=" ">
<polygon fill="#999999" stroke="#666666" points="80,-339.09 0,-339.09 0,-320.09 80,-320.09 80,-339.09"/>
<text text-anchor="middle" x="40" y="-327.09" font-family="Helvetica,sans-Serif" font-size="10.00">ResidualCalc</text>
</a>
</g>
</g>
<!-- Node2 -->
<g id="Node000002" class="node">
<title>Node2</title>
<g id="a_Node000002"><a xlink:href="io_8c.html#ac6a6fe57e1e391ebe52b1dbffde4ba5b" target="_top" xlink:title=" ">
<polygon fill="white" stroke="#666666" points="510.5,-498.09 435.5,-498.09 435.5,-479.09 510.5,-479.09 510.5,-498.09"/>
<text text-anchor="middle" x="473" y="-486.09" font-family="Helvetica,sans-Serif" font-size="10.00">AreaNormal</text>
</a>
</g>
</g>
<!-- Node1&#45;&gt;Node2 -->
<g id="edge1_Node000001_Node000002" class="edge">
<title>Node1&#45;&gt;Node2</title>
<g id="a_edge1_Node000001_Node000002"><a xlink:title=" ">
<path fill="none" stroke="#63b8ff" d="M45.5,-339.4C55.34,-359.78 80.76,-406.96 116,-432.59 208.95,-500.21 351.83,-499.62 425.11,-493.9"/>
<polygon fill="#63b8ff" stroke="#63b8ff" points="425.73,-497.35 435.4,-493.02 425.14,-490.38 425.73,-497.35"/>
</a>
</g>
</g>
<!-- Node7 -->
<g id="Node000007" class="node">
<title>Node7</title>
<g id="a_Node000007"><a xlink:href="main_8c.html#a406cf6152471e0614dca5a045fdfd99f" target="_top" xlink:title=" ">
<polygon fill="white" stroke="#666666" points="187.5,-423.09 121.5,-423.09 121.5,-404.09 187.5,-404.09 187.5,-423.09"/>
<text text-anchor="middle" x="154.5" y="-411.09" font-family="Helvetica,sans-Serif" font-size="10.00">FDynamic</text>
</a>
</g>
</g>
<!-- Node1&#45;&gt;Node7 -->
<g id="edge6_Node000001_Node000007" class="edge">
<title>Node1&#45;&gt;Node7</title>
<g id="a_edge6_Node000001_Node000007"><a xlink:title=" ">
<path fill="none" stroke="#63b8ff" d="M53.06,-339.24C67.76,-350.91 93.43,-371.06 116,-387.59 120.71,-391.05 125.82,-394.67 130.71,-398.07"/>
<polygon fill="#63b8ff" stroke="#63b8ff" points="128.91,-401.09 139.13,-403.89 132.89,-395.33 128.91,-401.09"/>
</a>
</g>
</g>
<!-- Node10 -->
<g id="Node000010" class="node">
<title>Node10</title>
<g id="a_Node000010"><a xlink:href="bcs_8c.html#aef1719332b4828ce07ba0c7a6bba7bcd" target="_top" xlink:title=" ">
<polygon fill="white" stroke="#666666" points="186,-379.09 123,-379.09 123,-360.09 186,-360.09 186,-379.09"/>
<text text-anchor="middle" x="154.5" y="-367.09" font-family="Helvetica,sans-Serif" font-size="10.00">FExternal</text>
</a>
</g>
</g>
<!-- Node1&#45;&gt;Node10 -->
<g id="edge9_Node000001_Node000010" class="edge">
<title>Node1&#45;&gt;Node10</title>
<g id="a_edge9_Node000001_Node000010"><a xlink:title=" ">
<path fill="none" stroke="#63b8ff" d="M67.95,-339.18C82.7,-344.42 101.18,-350.99 117.18,-356.68"/>
<polygon fill="#63b8ff" stroke="#63b8ff" points="116.18,-360.04 126.77,-360.09 118.52,-353.44 116.18,-360.04"/>
</a>
</g>
</g>
<!-- Node12 -->
<g id="Node000012" class="node">
<title>Node12</title>
<g id="a_Node000012"><a xlink:href="main_8c.html#a59ccabe25c63661e6e66b44209b0f162" target="_top" xlink:title=" ">
<polygon fill="white" stroke="#666666" points="184.5,-339.09 124.5,-339.09 124.5,-320.09 184.5,-320.09 184.5,-339.09"/>
<text text-anchor="middle" x="154.5" y="-327.09" font-family="Helvetica,sans-Serif" font-size="10.00">FInternal</text>
</a>
</g>
</g>
<!-- Node1&#45;&gt;Node12 -->
<g id="edge11_Node000001_Node000012" class="edge">
<title>Node1&#45;&gt;Node12</title>
<g id="a_edge11_Node000001_Node000012"><a xlink:title=" ">
<path fill="none" stroke="#63b8ff" d="M80.03,-329.59C91.09,-329.59 103.14,-329.59 114.21,-329.59"/>
<polygon fill="#63b8ff" stroke="#63b8ff" points="114.47,-333.1 124.47,-329.59 114.47,-326.1 114.47,-333.1"/>
</a>
</g>
</g>
<!-- Node26 -->
<g id="Node000026" class="node">
<title>Node26</title>
<g id="a_Node000026"><a xlink:href="bcs_8c.html#a66bea6d23d803ebc455e934629a0c7be" target="_top" xlink:title=" ">
<polygon fill="white" stroke="#666666" points="185.5,-302.09 123.5,-302.09 123.5,-283.09 185.5,-283.09 185.5,-302.09"/>
<text text-anchor="middle" x="154.5" y="-290.09" font-family="Helvetica,sans-Serif" font-size="10.00">GhostLoc</text>
</a>
</g>
</g>
<!-- Node1&#45;&gt;Node26 -->
<g id="edge58_Node000001_Node000026" class="edge">
<title>Node1&#45;&gt;Node26</title>
<g id="a_edge58_Node000001_Node000026"><a xlink:title=" ">
<path fill="none" stroke="#63b8ff" d="M69.97,-320.07C83.51,-315.61 99.84,-310.24 114.45,-305.44"/>
<polygon fill="#63b8ff" stroke="#63b8ff" points="115.83,-308.67 124.24,-302.22 113.64,-302.02 115.83,-308.67"/>
</a>
</g>
</g>
<!-- Node27 -->
<g id="Node000027" class="node">
<title>Node27</title>
<g id="a_Node000027"><a xlink:href="bending_8c.html#a4a1f5973a55922b27065f712220d8152" target="_top" xlink:title=" ">
<polygon fill="white" stroke="#666666" points="193,-265.09 116,-265.09 116,-246.09 193,-246.09 193,-265.09"/>
<text text-anchor="middle" x="154.5" y="-253.09" font-family="Helvetica,sans-Serif" font-size="10.00">GlobalGhost</text>
</a>
</g>
</g>
<!-- Node1&#45;&gt;Node27 -->
<g id="edge59_Node000001_Node000027" class="edge">
<title>Node1&#45;&gt;Node27</title>
<g id="a_edge59_Node000001_Node000027"><a xlink:title=" ">
<path fill="none" stroke="#63b8ff" d="M52.45,-319.93C66.75,-308.14 92.23,-287.99 116,-273.59 118.16,-272.29 120.43,-271 122.75,-269.75"/>
<polygon fill="#63b8ff" stroke="#63b8ff" points="124.39,-272.84 131.71,-265.18 121.21,-266.61 124.39,-272.84"/>
</a>
</g>
</g>
<!-- Node28 -->
<g id="Node000028" class="node">
<title>Node28</title>
<g id="a_Node000028"><a xlink:href="bending_8c.html#a907be03803f4a1d456a7a1650461f7eb" target="_top" xlink:title=" ">
<polygon fill="white" stroke="#666666" points="184,-228.09 125,-228.09 125,-209.09 184,-209.09 184,-228.09"/>
<text text-anchor="middle" x="154.5" y="-216.09" font-family="Helvetica,sans-Serif" font-size="10.00">PatchLoc</text>
</a>
</g>
</g>
<!-- Node1&#45;&gt;Node28 -->
<g id="edge60_Node000001_Node000028" class="edge">
<title>Node1&#45;&gt;Node28</title>
<g id="a_edge60_Node000001_Node000028"><a xlink:title=" ">
<path fill="none" stroke="#63b8ff" d="M46.69,-319.99C57.93,-301.69 84.62,-261.45 116,-236.59 117.53,-235.38 119.15,-234.23 120.83,-233.13"/>
<polygon fill="#63b8ff" stroke="#63b8ff" points="122.62,-236.14 129.55,-228.12 119.13,-230.07 122.62,-236.14"/>
</a>
</g>
</g>
<!-- Node3 -->
<g id="Node000003" class="node">
<title>Node3</title>
<g id="a_Node000003"><a xlink:href="math_8c.html#a9d60990d26296194c921d537ea26f3c7" target="_top" xlink:title=" ">
<polygon fill="white" stroke="#666666" points="627,-348.09 577,-348.09 577,-329.09 627,-329.09 627,-348.09"/>
<text text-anchor="middle" x="602" y="-336.09" font-family="Helvetica,sans-Serif" font-size="10.00">CROSS</text>
</a>
</g>
</g>
<!-- Node2&#45;&gt;Node3 -->
<g id="edge2_Node000002_Node000003" class="edge">
<title>Node2&#45;&gt;Node3</title>
<g id="a_edge2_Node000002_Node000003"><a xlink:title=" ">
<path fill="none" stroke="#63b8ff" d="M510.71,-485.5C521.62,-482.93 532.82,-478.42 541,-470.59 579.38,-433.85 546.28,-399.94 577,-356.59 577.27,-356.21 577.55,-355.83 577.84,-355.46"/>
<polygon fill="#63b8ff" stroke="#63b8ff" points="580.35,-357.91 584.99,-348.38 575.42,-352.94 580.35,-357.91"/>
</a>
</g>
</g>
<!-- Node4 -->
<g id="Node000004" class="node">
<title>Node4</title>
<g id="a_Node000004"><a xlink:href="math_8c.html#a9d08a9d2fd8e8932e92b8ab054b19269" target="_top" xlink:title=" ">
<polygon fill="white" stroke="#666666" points="627,-272.09 577,-272.09 577,-253.09 627,-253.09 627,-272.09"/>
<text text-anchor="middle" x="602" y="-260.09" font-family="Helvetica,sans-Serif" font-size="10.00">MINUS</text>
</a>
</g>
</g>
<!-- Node2&#45;&gt;Node4 -->
<g id="edge3_Node000002_Node000004" class="edge">
<title>Node2&#45;&gt;Node4</title>
<g id="a_edge3_Node000002_Node000004"><a xlink:title=" ">
<path fill="none" stroke="#63b8ff" d="M510.58,-486.22C521.74,-483.72 533.13,-479.07 541,-470.59 599.18,-407.93 532.69,-354.73 577,-281.59 577.39,-280.95 577.82,-280.31 578.26,-279.69"/>
<polygon fill="#63b8ff" stroke="#63b8ff" points="580.81,-282.09 585.19,-272.44 575.75,-277.25 580.81,-282.09"/>
</a>
</g>
</g>
<!-- Node5 -->
<g id="Node000005" class="node">
<title>Node5</title>
<g id="a_Node000005"><a xlink:href="math_8c.html#aa52f6593cf3e5453c8c6c94343d3fb37" target="_top" xlink:title=" ">
<polygon fill="white" stroke="#666666" points="621,-460.09 583,-460.09 583,-441.09 621,-441.09 621,-460.09"/>
<text text-anchor="middle" x="602" y="-448.09" font-family="Helvetica,sans-Serif" font-size="10.00">SIZE</text>
</a>
</g>
</g>
<!-- Node2&#45;&gt;Node5 -->
<g id="edge4_Node000002_Node000005" class="edge">
<title>Node2&#45;&gt;Node5</title>
<g id="a_edge4_Node000002_Node000005"><a xlink:title=" ">
<path fill="none" stroke="#63b8ff" d="M510.62,-479.18C520.52,-476.52 531.2,-473.54 541,-470.59 551.65,-467.39 563.26,-463.6 573.4,-460.17"/>
<polygon fill="#63b8ff" stroke="#63b8ff" points="574.64,-463.45 582.97,-456.91 572.38,-456.83 574.64,-463.45"/>
</a>
</g>
</g>
<!-- Node6 -->
<g id="Node000006" class="node">
<title>Node6</title>
<g id="a_Node000006"><a xlink:href="math_8c.html#ac616709995f2ae60c4308ffa328337d7" target="_top" xlink:title=" ">
<polygon fill="white" stroke="#666666" points="622.5,-310.09 581.5,-310.09 581.5,-291.09 622.5,-291.09 622.5,-310.09"/>
<text text-anchor="middle" x="602" y="-298.09" font-family="Helvetica,sans-Serif" font-size="10.00">UNIT</text>
</a>
</g>
</g>
<!-- Node2&#45;&gt;Node6 -->
<g id="edge5_Node000002_Node000006" class="edge">
<title>Node2&#45;&gt;Node6</title>
<g id="a_edge5_Node000002_Node000006"><a xlink:title=" ">
<path fill="none" stroke="#63b8ff" d="M510.71,-485.93C521.74,-483.39 533.02,-478.8 541,-470.59 589.09,-421.12 539.91,-377.77 577,-319.59 577.5,-318.81 578.04,-318.05 578.62,-317.3"/>
<polygon fill="#63b8ff" stroke="#63b8ff" points="581.22,-319.65 585.81,-310.11 576.26,-314.71 581.22,-319.65"/>
</a>
</g>
</g>
<!-- Node8 -->
<g id="Node000008" class="node">
<title>Node8</title>
<g id="a_Node000008"><a xlink:href="material_8c.html#a39aa444d5f3c2ebbec2bb3d9aedb3b87" target="_top" xlink:title=" ">
<polygon fill="white" stroke="#666666" points="322,-460.09 276,-460.09 276,-441.09 322,-441.09 322,-460.09"/>
<text text-anchor="middle" x="299" y="-448.09" font-family="Helvetica,sans-Serif" font-size="10.00">Damp</text>
</a>
</g>
</g>
<!-- Node7&#45;&gt;Node8 -->
<g id="edge7_Node000007_Node000008" class="edge">
<title>Node7&#45;&gt;Node8</title>
<g id="a_edge7_Node000007_Node000008"><a xlink:title=" ">
<path fill="none" stroke="#63b8ff" d="M187.84,-421.99C211.3,-428.08 242.88,-436.28 266.21,-442.34"/>
<polygon fill="#63b8ff" stroke="#63b8ff" points="265.42,-445.75 275.98,-444.88 267.18,-438.98 265.42,-445.75"/>
</a>
</g>
</g>
<!-- Node9 -->
<g id="Node000009" class="node">
<title>Node9</title>
<g id="a_Node000009"><a xlink:href="material_8c.html#a2d561c42d0809a56d3abe1d1c9c24588" target="_top" xlink:title=" ">
<polygon fill="white" stroke="#666666" points="320,-423.09 278,-423.09 278,-404.09 320,-404.09 320,-423.09"/>
<text text-anchor="middle" x="299" y="-411.09" font-family="Helvetica,sans-Serif" font-size="10.00">Mass</text>
</a>
</g>
</g>
<!-- Node7&#45;&gt;Node9 -->
<g id="edge8_Node000007_Node000009" class="edge">
<title>Node7&#45;&gt;Node9</title>
<g id="a_edge8_Node000007_Node000009"><a xlink:title=" ">
<path fill="none" stroke="#63b8ff" d="M187.84,-413.59C211.76,-413.59 244.13,-413.59 267.59,-413.59"/>
<polygon fill="#63b8ff" stroke="#63b8ff" points="267.68,-417.1 277.68,-413.59 267.68,-410.1 267.68,-417.1"/>
</a>
</g>
</g>
<!-- Node11 -->
<g id="Node000011" class="node">
<title>Node11</title>
<g id="a_Node000011"><a xlink:href="external_8c.html#a93115e0e971ccd05cacd122af8636e18" target="_top" xlink:title=" ">
<polygon fill="white" stroke="#666666" points="369,-385.59 229,-385.59 229,-355.59 369,-355.59 369,-385.59"/>
<text text-anchor="start" x="237" y="-373.59" font-family="Helvetica,sans-Serif" font-size="10.00">FExternalPrescribedForce</text>
<text text-anchor="middle" x="299" y="-362.59" font-family="Helvetica,sans-Serif" font-size="10.00">FieldIn</text>
</a>
</g>
</g>
<!-- Node10&#45;&gt;Node11 -->
<g id="edge10_Node000010_Node000011" class="edge">
<title>Node10&#45;&gt;Node11</title>
<g id="a_edge10_Node000010_Node000011"><a xlink:title=" ">
<path fill="none" stroke="#63b8ff" d="M186.07,-369.81C195.81,-369.88 207.08,-369.96 218.63,-370.04"/>
<polygon fill="#63b8ff" stroke="#63b8ff" points="218.8,-373.54 228.83,-370.11 218.85,-366.54 218.8,-373.54"/>
</a>
</g>
</g>
<!-- Node13 -->
<g id="Node000013" class="node">
<title>Node13</title>
<g id="a_Node000013"><a xlink:href="bending_8c.html#a2b66770553fce4724cfb65b0f79e83b1" target="_top" xlink:title=" ">
<polygon fill="white" stroke="#666666" points="330,-300.09 268,-300.09 268,-281.09 330,-281.09 330,-300.09"/>
<text text-anchor="middle" x="299" y="-288.09" font-family="Helvetica,sans-Serif" font-size="10.00">Fbending</text>
</a>
</g>
</g>
<!-- Node12&#45;&gt;Node13 -->
<g id="edge12_Node000012_Node000013" class="edge">
<title>Node12&#45;&gt;Node13</title>
<g id="a_edge12_Node000012_Node000013"><a xlink:title=" ">
<path fill="none" stroke="#63b8ff" d="M184.78,-321.06C198.23,-317.18 214.41,-312.58 229,-308.59 238.3,-306.05 248.32,-303.4 257.77,-300.92"/>
<polygon fill="#63b8ff" stroke="#63b8ff" points="258.94,-304.24 267.73,-298.33 257.17,-297.46 258.94,-304.24"/>
</a>
</g>
</g>
<!-- Node24 -->
<g id="Node000024" class="node">
<title>Node24</title>
<g id="a_Node000024"><a xlink:href="membrane_8c.html#a9fee56a81a4f404db4630a996f38013c" target="_top" xlink:title=" ">
<polygon fill="white" stroke="#666666" points="337,-180.09 261,-180.09 261,-161.09 337,-161.09 337,-180.09"/>
<text text-anchor="middle" x="299" y="-168.09" font-family="Helvetica,sans-Serif" font-size="10.00">Fmembrane</text>
</a>
</g>
</g>
<!-- Node12&#45;&gt;Node24 -->
<g id="edge51_Node000012_Node000024" class="edge">
<title>Node12&#45;&gt;Node24</title>
<g id="a_edge51_Node000012_Node000024"><a xlink:title=" ">
<path fill="none" stroke="#63b8ff" d="M178.75,-319.91C183.72,-317.28 188.75,-314.16 193,-310.59 215.44,-291.76 263.67,-221.84 286.09,-188.5"/>
<polygon fill="#63b8ff" stroke="#63b8ff" points="289.03,-190.4 291.68,-180.14 283.21,-186.51 289.03,-190.4"/>
</a>
</g>
</g>
<!-- Node25 -->
<g id="Node000025" class="node">
<title>Node25</title>
<g id="a_Node000025"><a xlink:href="bcs_8c.html#a679ccb265fdae6027920ac949da40b91" target="_top" xlink:title=" ">
<polygon fill="white" stroke="#666666" points="346.5,-337.09 251.5,-337.09 251.5,-318.09 346.5,-318.09 346.5,-337.09"/>
<text text-anchor="middle" x="299" y="-325.09" font-family="Helvetica,sans-Serif" font-size="10.00">ModifyFbending</text>
</a>
</g>
</g>
<!-- Node12&#45;&gt;Node25 -->
<g id="edge57_Node000012_Node000025" class="edge">
<title>Node12&#45;&gt;Node25</title>
<g id="a_edge57_Node000012_Node000025"><a xlink:title=" ">
<path fill="none" stroke="#63b8ff" d="M184.68,-329.19C200.97,-328.96 221.83,-328.66 241.2,-328.39"/>
<polygon fill="#63b8ff" stroke="#63b8ff" points="241.52,-331.89 251.47,-328.25 241.42,-324.89 241.52,-331.89"/>
</a>
</g>
</g>
<!-- Node13&#45;&gt;Node3 -->
<g id="edge25_Node000013_Node000003" class="edge">
<title>Node13&#45;&gt;Node3</title>
<g id="a_edge25_Node000013_Node000003"><a xlink:title=" ">
<path fill="none" stroke="#63b8ff" d="M330.23,-291.36C343.9,-293.3 359.16,-297.97 369,-308.59 430.09,-374.52 336.02,-449.97 405,-507.59 451.39,-546.35 493.56,-545.05 541,-507.59 595.15,-464.84 539.15,-414.28 577,-356.59 577.26,-356.2 577.53,-355.82 577.81,-355.44"/>
<polygon fill="#63b8ff" stroke="#63b8ff" points="580.33,-357.86 584.82,-348.27 575.32,-352.97 580.33,-357.86"/>
</a>
</g>
</g>
<!-- Node13&#45;&gt;Node4 -->
<g id="edge35_Node000013_Node000004" class="edge">
<title>Node13&#45;&gt;Node4</title>
<g id="a_edge35_Node000013_Node000004"><a xlink:title=" ">
<path fill="none" stroke="#63b8ff" d="M330.31,-291.75C376.23,-292.95 466.05,-293.19 541,-280.59 549.63,-279.14 558.77,-276.83 567.24,-274.33"/>
<polygon fill="#63b8ff" stroke="#63b8ff" points="568.29,-277.67 576.81,-271.36 566.22,-270.98 568.29,-277.67"/>
</a>
</g>
</g>
<!-- Node13&#45;&gt;Node5 -->
<g id="edge37_Node000013_Node000005" class="edge">
<title>Node13&#45;&gt;Node5</title>
<g id="a_edge37_Node000013_Node000005"><a xlink:title=" ">
<path fill="none" stroke="#63b8ff" d="M330.33,-291.26C344.02,-293.18 359.27,-297.86 369,-308.59 437.61,-384.27 327.32,-469.26 405,-535.59 450.97,-574.85 487.33,-563.4 541,-535.59 567.62,-521.8 584.94,-490.17 593.83,-469.62"/>
<polygon fill="#63b8ff" stroke="#63b8ff" points="597.1,-470.88 597.62,-460.3 590.61,-468.25 597.1,-470.88"/>
</a>
</g>
</g>
<!-- Node13&#45;&gt;Node6 -->
<g id="edge50_Node000013_Node000006" class="edge">
<title>Node13&#45;&gt;Node6</title>
<g id="a_edge50_Node000013_Node000006"><a xlink:title=" ">
<path fill="none" stroke="#63b8ff" d="M330.28,-292.55C343.47,-294.79 358.32,-299.37 369,-308.59 400.04,-335.42 370.8,-370.94 405,-393.59 455.39,-426.98 489.76,-425.65 541,-393.59 572.01,-374.2 554.09,-348.1 577,-319.59 577.58,-318.87 578.2,-318.16 578.84,-317.45"/>
<polygon fill="#63b8ff" stroke="#63b8ff" points="581.39,-319.86 586.34,-310.49 576.63,-314.73 581.39,-319.86"/>
</a>
</g>
</g>
<!-- Node14 -->
<g id="Node000014" class="node">
<title>Node14</title>
<g id="a_Node000014"><a xlink:href="math_8c.html#a7ef9263b0a3a10c2cd00bb4dc0059d70" target="_top" xlink:title=" ">
<polygon fill="white" stroke="#666666" points="498,-348.09 448,-348.09 448,-329.09 498,-329.09 498,-348.09"/>
<text text-anchor="middle" x="473" y="-336.09" font-family="Helvetica,sans-Serif" font-size="10.00">AMULT</text>
</a>
</g>
</g>
<!-- Node13&#45;&gt;Node14 -->
<g id="edge13_Node000013_Node000014" class="edge">
<title>Node13&#45;&gt;Node14</title>
<g id="a_edge13_Node000013_Node000014"><a xlink:title=" ">
<path fill="none" stroke="#63b8ff" d="M330.28,-298.3C342.35,-301.42 356.35,-305.1 369,-308.59 392.19,-315 418.2,-322.58 438.29,-328.51"/>
<polygon fill="#63b8ff" stroke="#63b8ff" points="437.33,-331.88 447.91,-331.37 439.32,-325.17 437.33,-331.88"/>
</a>
</g>
</g>
<!-- Node15 -->
<g id="Node000015" class="node">
<title>Node15</title>
<g id="a_Node000015"><a xlink:href="material_8c.html#af81ecf5fbfd52082e0abd3184f12c14f" target="_top" xlink:title=" ">
<polygon fill="white" stroke="#666666" points="526,-385.09 420,-385.09 420,-366.09 526,-366.09 526,-385.09"/>
<text text-anchor="middle" x="473" y="-373.09" font-family="Helvetica,sans-Serif" font-size="10.00">BendingNonLinear</text>
</a>
</g>
</g>
<!-- Node13&#45;&gt;Node15 -->
<g id="edge14_Node000013_Node000015" class="edge">
<title>Node13&#45;&gt;Node15</title>
<g id="a_edge14_Node000013_Node000015"><a xlink:title=" ">
<path fill="none" stroke="#63b8ff" d="M330.01,-293.94C342.84,-296.46 357.49,-300.87 369,-308.59 391.14,-323.46 383.02,-341.5 405,-356.59 407.93,-358.61 411.07,-360.41 414.33,-362.02"/>
<polygon fill="#63b8ff" stroke="#63b8ff" points="413.21,-365.35 423.78,-366.07 415.97,-358.91 413.21,-365.35"/>
</a>
</g>
</g>
<!-- Node16 -->
<g id="Node000016" class="node">
<title>Node16</title>
<g id="a_Node000016"><a xlink:href="math_8c.html#a870a70f4845a041458d9bdb0dd7aabd3" target="_top" xlink:title=" ">
<polygon fill="white" stroke="#666666" points="621,-198.09 583,-198.09 583,-179.09 621,-179.09 621,-198.09"/>
<text text-anchor="middle" x="602" y="-186.09" font-family="Helvetica,sans-Serif" font-size="10.00">DOT</text>
</a>
</g>
</g>
<!-- Node13&#45;&gt;Node16 -->
<g id="edge26_Node000013_Node000016" class="edge">
<title>Node13&#45;&gt;Node16</title>
<g id="a_edge26_Node000013_Node000016"><a xlink:title=" ">
<path fill="none" stroke="#63b8ff" d="M307.48,-280.84C320.87,-263.12 349.37,-224.16 369,-188.59 388.23,-153.75 371.68,-128.36 405,-106.59 455.61,-73.54 487.1,-79.24 541,-106.59 566.85,-119.71 584.24,-149.79 593.38,-169.64"/>
<polygon fill="#63b8ff" stroke="#63b8ff" points="590.22,-171.15 597.4,-178.94 596.64,-168.37 590.22,-171.15"/>
</a>
</g>
</g>
<!-- Node17 -->
<g id="Node000017" class="node">
<title>Node17</title>
<g id="a_Node000017"><a xlink:href="math_8c.html#a3f73e4cd9eab76eeee084eabf2b98ec9" target="_top" xlink:title=" ">
<polygon fill="white" stroke="#666666" points="619,-235.09 585,-235.09 585,-216.09 619,-216.09 619,-235.09"/>
<text text-anchor="middle" x="602" y="-223.09" font-family="Helvetica,sans-Serif" font-size="10.00">INV</text>
</a>
</g>
</g>
<!-- Node13&#45;&gt;Node17 -->
<g id="edge27_Node000013_Node000017" class="edge">
<title>Node13&#45;&gt;Node17</title>
<g id="a_edge27_Node000013_Node000017"><a xlink:title=" ">
<path fill="none" stroke="#63b8ff" d="M306.54,-281.08C318.89,-263.1 346.4,-222.86 369,-188.59 385.29,-163.9 379.03,-146.77 405,-132.59 458.05,-103.63 489.76,-100.54 541,-132.59 572.01,-151.99 554.09,-178.09 577,-206.59 577.58,-207.32 578.2,-208.03 578.84,-208.74"/>
<polygon fill="#63b8ff" stroke="#63b8ff" points="576.63,-211.46 586.34,-215.7 581.39,-206.33 576.63,-211.46"/>
</a>
</g>
</g>
<!-- Node19 -->
<g id="Node000019" class="node">
<title>Node19</title>
<g id="a_Node000019"><a xlink:href="material_8c.html#a3243950933f3559f19edcb5421360526" target="_top" xlink:title=" ">
<polygon fill="white" stroke="#666666" points="541,-161.09 405,-161.09 405,-142.09 541,-142.09 541,-161.09"/>
<text text-anchor="middle" x="473" y="-149.09" font-family="Helvetica,sans-Serif" font-size="10.00">CalcCurvStressStrainxyz</text>
</a>
</g>
</g>
<!-- Node13&#45;&gt;Node19 -->
<g id="edge22_Node000013_Node000019" class="edge">
<title>Node13&#45;&gt;Node19</title>
<g id="a_edge22_Node000013_Node000019"><a xlink:title=" ">
<path fill="none" stroke="#63b8ff" d="M305.48,-281.04C319.16,-258.08 357.14,-199.55 405,-169.59 407.62,-167.95 410.39,-166.46 413.25,-165.1"/>
<polygon fill="#63b8ff" stroke="#63b8ff" points="414.74,-168.28 422.63,-161.21 412.06,-161.81 414.74,-168.28"/>
</a>
</g>
</g>
<!-- Node20 -->
<g id="Node000020" class="node">
<title>Node20</title>
<g id="a_Node000020"><a xlink:href="material_8c.html#aa93862cca1fe83c736219df7d4a91374" target="_top" xlink:title=" ">
<polygon fill="white" stroke="#666666" points="532.5,-272.09 413.5,-272.09 413.5,-253.09 532.5,-253.09 532.5,-272.09"/>
<text text-anchor="middle" x="473" y="-260.09" font-family="Helvetica,sans-Serif" font-size="10.00">MembraneNonLinear</text>
</a>
</g>
</g>
<!-- Node13&#45;&gt;Node20 -->
<g id="edge28_Node000013_Node000020" class="edge">
<title>Node13&#45;&gt;Node20</title>
<g id="a_edge28_Node000013_Node000020"><a xlink:title=" ">
<path fill="none" stroke="#63b8ff" d="M330.35,-285.65C350.62,-282.35 378.1,-277.88 403.47,-273.75"/>
<polygon fill="#63b8ff" stroke="#63b8ff" points="404.13,-277.19 413.44,-272.13 403.01,-270.28 404.13,-277.19"/>
</a>
</g>
</g>
<!-- Node21 -->
<g id="Node000021" class="node">
<title>Node21</title>
<g id="a_Node000021"><a xlink:href="math_8c.html#ae18926821a703a2c5b281bd890b7e6a0" target="_top" xlink:title=" ">
<polygon fill="white" stroke="#666666" points="493.5,-461.09 452.5,-461.09 452.5,-442.09 493.5,-442.09 493.5,-461.09"/>
<text text-anchor="middle" x="473" y="-449.09" font-family="Helvetica,sans-Serif" font-size="10.00">PLUS</text>
</a>
</g>
</g>
<!-- Node13&#45;&gt;Node21 -->
<g id="edge36_Node000013_Node000021" class="edge">
<title>Node13&#45;&gt;Node21</title>
<g id="a_edge36_Node000013_Node000021"><a xlink:title=" ">
<path fill="none" stroke="#63b8ff" d="M330.05,-291.92C343.51,-294.01 358.65,-298.64 369,-308.59 408.82,-346.91 366.92,-387.55 405,-427.59 414.81,-437.91 429.36,-443.8 442.39,-447.16"/>
<polygon fill="#63b8ff" stroke="#63b8ff" points="441.89,-450.63 452.41,-449.35 443.38,-443.79 441.89,-450.63"/>
</a>
</g>
</g>
<!-- Node22 -->
<g id="Node000022" class="node">
<title>Node22</title>
<g id="a_Node000022"><a xlink:href="material_8c.html#a431e1e9b5ceabfa4edc2920b70296b35" target="_top" xlink:title=" ">
<polygon fill="white" stroke="#666666" points="511.5,-198.09 434.5,-198.09 434.5,-179.09 511.5,-179.09 511.5,-198.09"/>
<text text-anchor="middle" x="473" y="-186.09" font-family="Helvetica,sans-Serif" font-size="10.00">StressLinear</text>
</a>
</g>
</g>
<!-- Node13&#45;&gt;Node22 -->
<g id="edge38_Node000013_Node000022" class="edge">
<title>Node13&#45;&gt;Node22</title>
<g id="a_edge38_Node000013_Node000022"><a xlink:title=" ">
<path fill="none" stroke="#63b8ff" d="M309.18,-280.99C326.35,-263.58 365.22,-226.73 405,-206.59 411.14,-203.49 417.87,-200.87 424.63,-198.68"/>
<polygon fill="#63b8ff" stroke="#63b8ff" points="425.88,-201.96 434.48,-195.77 423.9,-195.25 425.88,-201.96"/>
</a>
</g>
</g>
<!-- Node23 -->
<g id="Node000023" class="node">
<title>Node23</title>
<g id="a_Node000023"><a xlink:href="material_8c.html#aad0d0c11a159f8021feb99ddee475d31" target="_top" xlink:title=" ">
<polygon fill="white" stroke="#666666" points="530,-235.09 416,-235.09 416,-216.09 530,-216.09 530,-235.09"/>
<text text-anchor="middle" x="473" y="-223.09" font-family="Helvetica,sans-Serif" font-size="10.00">StressManufactured</text>
</a>
</g>
</g>
<!-- Node13&#45;&gt;Node23 -->
<g id="edge44_Node000013_Node000023" class="edge">
<title>Node13&#45;&gt;Node23</title>
<g id="a_edge44_Node000013_Node000023"><a xlink:title=" ">
<path fill="none" stroke="#63b8ff" d="M318.98,-281C339.73,-270.77 374.14,-254.57 405,-243.59 410.6,-241.6 416.53,-239.71 422.45,-237.96"/>
<polygon fill="#63b8ff" stroke="#63b8ff" points="423.7,-241.24 432.35,-235.13 421.78,-234.51 423.7,-241.24"/>
</a>
</g>
</g>
<!-- Node15&#45;&gt;Node3 -->
<g id="edge15_Node000015_Node000003" class="edge">
<title>Node15&#45;&gt;Node3</title>
<g id="a_edge15_Node000015_Node000003"><a xlink:title=" ">
<path fill="none" stroke="#63b8ff" d="M508.11,-366.03C518.67,-363.04 530.32,-359.71 541,-356.59 549.48,-354.12 558.62,-351.4 567.14,-348.85"/>
<polygon fill="#63b8ff" stroke="#63b8ff" points="568.23,-352.18 576.79,-345.95 566.21,-345.48 568.23,-352.18"/>
</a>
</g>
</g>
<!-- Node15&#45;&gt;Node4 -->
<g id="edge18_Node000015_Node000004" class="edge">
<title>Node15&#45;&gt;Node4</title>
<g id="a_edge18_Node000015_Node000004"><a xlink:title=" ">
<path fill="none" stroke="#63b8ff" d="M525.35,-366.05C531,-363.59 536.38,-360.49 541,-356.59 569.28,-332.78 553.91,-310.48 577,-281.59 577.58,-280.87 578.19,-280.15 578.83,-279.45"/>
<polygon fill="#63b8ff" stroke="#63b8ff" points="581.39,-281.85 586.33,-272.48 576.62,-276.72 581.39,-281.85"/>
</a>
</g>
</g>
<!-- Node15&#45;&gt;Node5 -->
<g id="edge20_Node000015_Node000005" class="edge">
<title>Node15&#45;&gt;Node5</title>
<g id="a_edge20_Node000015_Node000005"><a xlink:title=" ">
<path fill="none" stroke="#63b8ff" d="M490.34,-385.25C512.06,-398.07 550.64,-420.86 576.02,-435.84"/>
<polygon fill="#63b8ff" stroke="#63b8ff" points="574.33,-438.91 584.72,-440.98 577.89,-432.88 574.33,-438.91"/>
</a>
</g>
</g>
<!-- Node15&#45;&gt;Node6 -->
<g id="edge21_Node000015_Node000006" class="edge">
<title>Node15&#45;&gt;Node6</title>
<g id="a_edge21_Node000015_Node000006"><a xlink:title=" ">
<path fill="none" stroke="#63b8ff" d="M520.02,-366.01C527.31,-363.53 534.56,-360.43 541,-356.59 560.71,-344.84 559.97,-334.97 577,-319.59 577.98,-318.71 578.99,-317.83 580.02,-316.94"/>
<polygon fill="#63b8ff" stroke="#63b8ff" points="582.53,-319.4 588.04,-310.35 578.09,-313.99 582.53,-319.4"/>
</a>
</g>
</g>
<!-- Node15&#45;&gt;Node16 -->
<g id="edge16_Node000015_Node000016" class="edge">
<title>Node15&#45;&gt;Node16</title>
<g id="a_edge16_Node000015_Node000016"><a xlink:title=" ">
<path fill="none" stroke="#63b8ff" d="M526.2,-366.96C531.71,-364.34 536.81,-360.96 541,-356.59 588.48,-307.14 539.35,-263.89 577,-206.59 577.26,-206.2 577.53,-205.82 577.81,-205.44"/>
<polygon fill="#63b8ff" stroke="#63b8ff" points="580.33,-207.86 584.82,-198.27 575.32,-202.97 580.33,-207.86"/>
</a>
</g>
</g>
<!-- Node15&#45;&gt;Node17 -->
<g id="edge17_Node000015_Node000017" class="edge">
<title>Node15&#45;&gt;Node17</title>
<g id="a_edge17_Node000015_Node000017"><a xlink:title=" ">
<path fill="none" stroke="#63b8ff" d="M526.23,-366.5C531.66,-363.96 536.74,-360.72 541,-356.59 578.86,-319.93 546.47,-286.56 577,-243.59 577.27,-243.21 577.55,-242.84 577.85,-242.46"/>
<polygon fill="#63b8ff" stroke="#63b8ff" points="580.35,-244.91 584.99,-235.39 575.42,-239.93 580.35,-244.91"/>
</a>
</g>
</g>
<!-- Node18 -->
<g id="Node000018" class="node">
<title>Node18</title>
<g id="a_Node000018"><a xlink:href="math_8c.html#ae6a53927765c25c58815e47fea096a67" target="_top" xlink:title=" ">
<polygon fill="white" stroke="#666666" points="622.5,-385.09 581.5,-385.09 581.5,-366.09 622.5,-366.09 622.5,-385.09"/>
<text text-anchor="middle" x="602" y="-373.09" font-family="Helvetica,sans-Serif" font-size="10.00">SIGN</text>
</a>
</g>
</g>
<!-- Node15&#45;&gt;Node18 -->
<g id="edge19_Node000015_Node000018" class="edge">
<title>Node15&#45;&gt;Node18</title>
<g id="a_edge19_Node000015_Node000018"><a xlink:title=" ">
<path fill="none" stroke="#63b8ff" d="M526.02,-375.59C541.37,-375.59 557.65,-375.59 571.1,-375.59"/>
<polygon fill="#63b8ff" stroke="#63b8ff" points="571.21,-379.1 581.21,-375.59 571.21,-372.1 571.21,-379.1"/>
</a>
</g>
</g>
<!-- Node19&#45;&gt;Node4 -->
<g id="edge24_Node000019_Node000004" class="edge">
<title>Node19&#45;&gt;Node4</title>
<g id="a_edge24_Node000019_Node000004"><a xlink:title=" ">
<path fill="none" stroke="#63b8ff" d="M527.34,-161.24C532.25,-163.47 536.91,-166.22 541,-169.59 569.2,-192.88 554.09,-215.09 577,-243.59 577.58,-244.32 578.2,-245.03 578.84,-245.74"/>
<polygon fill="#63b8ff" stroke="#63b8ff" points="576.63,-248.46 586.34,-252.7 581.39,-243.33 576.63,-248.46"/>
</a>
</g>
</g>
<!-- Node19&#45;&gt;Node17 -->
<g id="edge23_Node000019_Node000017" class="edge">
<title>Node19&#45;&gt;Node17</title>
<g id="a_edge23_Node000019_Node000017"><a xlink:title=" ">
<path fill="none" stroke="#63b8ff" d="M522.13,-161.14C528.71,-163.4 535.18,-166.18 541,-169.59 560.79,-181.21 559.97,-191.22 577,-206.59 577.98,-207.48 578.99,-208.36 580.02,-209.25"/>
<polygon fill="#63b8ff" stroke="#63b8ff" points="578.09,-212.2 588.04,-215.84 582.53,-206.79 578.09,-212.2"/>
</a>
</g>
</g>
<!-- Node20&#45;&gt;Node3 -->
<g id="edge29_Node000020_Node000003" class="edge">
<title>Node20&#45;&gt;Node3</title>
<g id="a_edge29_Node000020_Node000003"><a xlink:title=" ">
<path fill="none" stroke="#63b8ff" d="M490.08,-272.22C511.84,-285.24 550.85,-308.59 576.33,-323.83"/>
<polygon fill="#63b8ff" stroke="#63b8ff" points="574.67,-326.92 585.05,-329.05 578.26,-320.91 574.67,-326.92"/>
</a>
</g>
</g>
<!-- Node20&#45;&gt;Node4 -->
<g id="edge32_Node000020_Node000004" class="edge">
<title>Node20&#45;&gt;Node4</title>
<g id="a_edge32_Node000020_Node000004"><a xlink:title=" ">
<path fill="none" stroke="#63b8ff" d="M532.67,-262.59C544.37,-262.59 556.28,-262.59 566.82,-262.59"/>
<polygon fill="#63b8ff" stroke="#63b8ff" points="566.84,-266.1 576.84,-262.59 566.84,-259.1 566.84,-266.1"/>
</a>
</g>
</g>
<!-- Node20&#45;&gt;Node5 -->
<g id="edge33_Node000020_Node000005" class="edge">
<title>Node20&#45;&gt;Node5</title>
<g id="a_edge33_Node000020_Node000005"><a xlink:title=" ">
<path fill="none" stroke="#63b8ff" d="M488.7,-272.22C503.49,-282.5 526.17,-299.99 541,-319.59 548.21,-329.13 578.13,-397.51 592.8,-431.51"/>
<polygon fill="#63b8ff" stroke="#63b8ff" points="589.66,-433.05 596.83,-440.85 596.09,-430.28 589.66,-433.05"/>
</a>
</g>
</g>
<!-- Node20&#45;&gt;Node6 -->
<g id="edge34_Node000020_Node000006" class="edge">
<title>Node20&#45;&gt;Node6</title>
<g id="a_edge34_Node000020_Node000006"><a xlink:title=" ">
<path fill="none" stroke="#63b8ff" d="M506.05,-272.18C526.2,-278.21 552,-285.93 571.62,-291.8"/>
<polygon fill="#63b8ff" stroke="#63b8ff" points="570.67,-295.17 581.25,-294.69 572.68,-288.47 570.67,-295.17"/>
</a>
</g>
</g>
<!-- Node20&#45;&gt;Node16 -->
<g id="edge30_Node000020_Node000016" class="edge">
<title>Node20&#45;&gt;Node16</title>
<g id="a_edge30_Node000020_Node000016"><a xlink:title=" ">
<path fill="none" stroke="#63b8ff" d="M520.02,-253.01C527.31,-250.53 534.56,-247.43 541,-243.59 560.71,-231.84 559.77,-221.75 577,-206.59 577.82,-205.87 578.67,-205.15 579.53,-204.43"/>
<polygon fill="#63b8ff" stroke="#63b8ff" points="581.82,-207.08 587.51,-198.14 577.49,-201.58 581.82,-207.08"/>
</a>
</g>
</g>
<!-- Node20&#45;&gt;Node17 -->
<g id="edge31_Node000020_Node000017" class="edge">
<title>Node20&#45;&gt;Node17</title>
<g id="a_edge31_Node000020_Node000017"><a xlink:title=" ">
<path fill="none" stroke="#63b8ff" d="M508.11,-253.03C518.67,-250.04 530.32,-246.71 541,-243.59 552.2,-240.33 564.54,-236.64 575.11,-233.46"/>
<polygon fill="#63b8ff" stroke="#63b8ff" points="576.42,-236.72 584.98,-230.47 574.39,-230.02 576.42,-236.72"/>
</a>
</g>
</g>
<!-- Node22&#45;&gt;Node3 -->
<g id="edge39_Node000022_Node000003" class="edge">
<title>Node22&#45;&gt;Node3</title>
<g id="a_edge39_Node000022_Node000003"><a xlink:title=" ">
<path fill="none" stroke="#63b8ff" d="M511.73,-191.97C522.3,-194.58 533.06,-199.04 541,-206.59 578.86,-242.66 547.76,-275.25 577,-318.59 577.73,-319.68 578.54,-320.74 579.41,-321.77"/>
<polygon fill="#63b8ff" stroke="#63b8ff" points="577.16,-324.47 586.76,-328.97 582.06,-319.47 577.16,-324.47"/>
</a>
</g>
</g>
<!-- Node22&#45;&gt;Node4 -->
<g id="edge42_Node000022_Node000004" class="edge">
<title>Node22&#45;&gt;Node4</title>
<g id="a_edge42_Node000022_Node000004"><a xlink:title=" ">
<path fill="none" stroke="#63b8ff" d="M511.58,-194.93C521.57,-197.6 532.07,-201.35 541,-206.59 560.79,-218.21 559.97,-228.22 577,-243.59 577.98,-244.48 578.99,-245.36 580.02,-246.25"/>
<polygon fill="#63b8ff" stroke="#63b8ff" points="578.09,-249.2 588.04,-252.84 582.53,-243.79 578.09,-249.2"/>
</a>
</g>
</g>
<!-- Node22&#45;&gt;Node6 -->
<g id="edge43_Node000022_Node000006" class="edge">
<title>Node22&#45;&gt;Node6</title>
<g id="a_edge43_Node000022_Node000006"><a xlink:title=" ">
<path fill="none" stroke="#63b8ff" d="M511.78,-192.87C522.12,-195.51 532.73,-199.77 541,-206.59 569.2,-229.88 554.45,-251.8 577,-280.59 577.92,-281.77 578.92,-282.92 579.97,-284.04"/>
<polygon fill="#63b8ff" stroke="#63b8ff" points="577.65,-286.67 587.36,-290.91 582.42,-281.54 577.65,-286.67"/>
</a>
</g>
</g>
<!-- Node22&#45;&gt;Node16 -->
<g id="edge40_Node000022_Node000016" class="edge">
<title>Node22&#45;&gt;Node16</title>
<g id="a_edge40_Node000022_Node000016"><a xlink:title=" ">
<path fill="none" stroke="#63b8ff" d="M511.76,-188.59C531.35,-188.59 554.87,-188.59 572.85,-188.59"/>
<polygon fill="#63b8ff" stroke="#63b8ff" points="572.98,-192.1 582.98,-188.59 572.98,-185.1 572.98,-192.1"/>
</a>
</g>
</g>
<!-- Node22&#45;&gt;Node17 -->
<g id="edge41_Node000022_Node000017" class="edge">
<title>Node22&#45;&gt;Node17</title>
<g id="a_edge41_Node000022_Node000017"><a xlink:title=" ">
<path fill="none" stroke="#63b8ff" d="M510.59,-198.11C520.49,-200.77 531.17,-203.72 541,-206.59 552.17,-209.86 564.43,-213.7 574.94,-217.07"/>
<polygon fill="#63b8ff" stroke="#63b8ff" points="574.17,-220.5 584.76,-220.24 576.32,-213.83 574.17,-220.5"/>
</a>
</g>
</g>
<!-- Node23&#45;&gt;Node3 -->
<g id="edge45_Node000023_Node000003" class="edge">
<title>Node23&#45;&gt;Node3</title>
<g id="a_edge45_Node000023_Node000003"><a xlink:title=" ">
<path fill="none" stroke="#63b8ff" d="M527.35,-235.22C532.27,-237.46 536.92,-240.21 541,-243.59 569.45,-267.21 554.28,-289.43 577,-318.59 577.92,-319.77 578.91,-320.93 579.96,-322.05"/>
<polygon fill="#63b8ff" stroke="#63b8ff" points="577.64,-324.67 587.35,-328.92 582.41,-319.55 577.64,-324.67"/>
</a>
</g>
</g>
<!-- Node23&#45;&gt;Node4 -->
<g id="edge48_Node000023_Node000004" class="edge">
<title>Node23&#45;&gt;Node4</title>
<g id="a_edge48_Node000023_Node000004"><a xlink:title=" ">
<path fill="none" stroke="#63b8ff" d="M510.59,-235.11C520.49,-237.77 531.17,-240.72 541,-243.59 549.52,-246.09 558.67,-248.91 567.2,-251.6"/>
<polygon fill="#63b8ff" stroke="#63b8ff" points="566.25,-254.98 576.84,-254.68 568.38,-248.31 566.25,-254.98"/>
</a>
</g>
</g>
<!-- Node23&#45;&gt;Node6 -->
<g id="edge49_Node000023_Node000006" class="edge">
<title>Node23&#45;&gt;Node6</title>
<g id="a_edge49_Node000023_Node000006"><a xlink:title=" ">
<path fill="none" stroke="#63b8ff" d="M522.13,-235.14C528.71,-237.4 535.18,-240.18 541,-243.59 560.79,-255.21 560.16,-265.01 577,-280.59 578.31,-281.81 579.69,-283.05 581.08,-284.27"/>
<polygon fill="#63b8ff" stroke="#63b8ff" points="579.19,-287.26 589.07,-291.07 583.72,-281.92 579.19,-287.26"/>
</a>
</g>
</g>
<!-- Node23&#45;&gt;Node16 -->
<g id="edge46_Node000023_Node000016" class="edge">
<title>Node23&#45;&gt;Node16</title>
<g id="a_edge46_Node000023_Node000016"><a xlink:title=" ">
<path fill="none" stroke="#63b8ff" d="M508.11,-216.03C518.67,-213.04 530.32,-209.71 541,-206.59 551.57,-203.51 563.17,-200.05 573.32,-196.99"/>
<polygon fill="#63b8ff" stroke="#63b8ff" points="574.34,-200.34 582.9,-194.1 572.32,-193.64 574.34,-200.34"/>
</a>
</g>
</g>
<!-- Node23&#45;&gt;Node17 -->
<g id="edge47_Node000023_Node000017" class="edge">
<title>Node23&#45;&gt;Node17</title>
<g id="a_edge47_Node000023_Node000017"><a xlink:title=" ">
<path fill="none" stroke="#63b8ff" d="M530.07,-225.59C545.65,-225.59 561.83,-225.59 574.79,-225.59"/>
<polygon fill="#63b8ff" stroke="#63b8ff" points="574.84,-229.1 584.84,-225.59 574.84,-222.1 574.84,-229.1"/>
</a>
</g>
</g>
<!-- Node24&#45;&gt;Node4 -->
<g id="edge55_Node000024_Node000004" class="edge">
<title>Node24&#45;&gt;Node4</title>
<g id="a_edge55_Node000024_Node000004"><a xlink:title=" ">
<path fill="none" stroke="#63b8ff" d="M315.91,-160.94C357.38,-137.16 470.42,-81.29 541,-132.59 582.95,-163.09 547.4,-201.01 577,-243.59 577.53,-244.36 578.1,-245.11 578.7,-245.84"/>
<polygon fill="#63b8ff" stroke="#63b8ff" points="576.4,-248.48 586.01,-252.95 581.29,-243.47 576.4,-248.48"/>
</a>
</g>
</g>
<!-- Node24&#45;&gt;Node16 -->
<g id="edge53_Node000024_Node000016" class="edge">
<title>Node24&#45;&gt;Node16</title>
<g id="a_edge53_Node000024_Node000016"><a xlink:title=" ">
<path fill="none" stroke="#63b8ff" d="M303.28,-160.98C313.3,-133.34 346.44,-53.73 405,-23.59 458.75,4.06 491.49,11.08 541,-23.59 588.76,-57.05 598.65,-132.64 600.59,-168.71"/>
<polygon fill="#63b8ff" stroke="#63b8ff" points="597.1,-169.07 600.98,-178.93 604.1,-168.81 597.1,-169.07"/>
</a>
</g>
</g>
<!-- Node24&#45;&gt;Node19 -->
<g id="edge52_Node000024_Node000019" class="edge">
<title>Node24&#45;&gt;Node19</title>
<g id="a_edge52_Node000024_Node000019"><a xlink:title=" ">
<path fill="none" stroke="#63b8ff" d="M337.32,-166.47C354.23,-164.6 374.87,-162.32 394.87,-160.12"/>
<polygon fill="#63b8ff" stroke="#63b8ff" points="395.38,-163.58 404.93,-159 394.61,-156.62 395.38,-163.58"/>
</a>
</g>
</g>
<!-- Node24&#45;&gt;Node20 -->
<g id="edge54_Node000024_Node000020" class="edge">
<title>Node24&#45;&gt;Node20</title>
<g id="a_edge54_Node000024_Node000020"><a xlink:title=" ">
<path fill="none" stroke="#63b8ff" d="M311.18,-180.27C329.57,-195.73 367.87,-226.03 405,-243.59 409.92,-245.92 415.18,-248.02 420.51,-249.89"/>
<polygon fill="#63b8ff" stroke="#63b8ff" points="419.52,-253.25 430.11,-253.03 421.69,-246.6 419.52,-253.25"/>
</a>
</g>
</g>
<!-- Node24&#45;&gt;Node22 -->
<g id="edge56_Node000024_Node000022" class="edge">
<title>Node24&#45;&gt;Node22</title>
<g id="a_edge56_Node000024_Node000022"><a xlink:title=" ">
<path fill="none" stroke="#63b8ff" d="M337.32,-174.5C362.82,-177.17 396.82,-180.73 424.28,-183.6"/>
<polygon fill="#63b8ff" stroke="#63b8ff" points="424.14,-187.11 434.45,-184.67 424.87,-180.14 424.14,-187.11"/>
</a>
</g>
</g>
</g>
</svg>
