<?xml version="1.0" encoding="UTF-8" standalone="no"?>
<!DOCTYPE svg PUBLIC "-//W3C//DTD SVG 1.1//EN"
 "http://www.w3.org/Graphics/SVG/1.1/DTD/svg11.dtd">
<!-- Generated by graphviz version 2.43.0 (0)
 -->
<!-- Title: Jacobian Pages: 1 -->
<svg width="801pt" height="584pt"
 viewBox="0.00 0.00 801.00 584.28" xmlns="http://www.w3.org/2000/svg" xmlns:xlink="http://www.w3.org/1999/xlink">
<g id="graph0" class="graph" transform="scale(1 1) rotate(0) translate(4 580.28)">
<title>Jacobian</title>
<!-- Node1 -->
<g id="Node000001" class="node">
<title>Node1</title>
<g id="a_Node000001"><a xlink:title=" ">
<polygon fill="#999999" stroke="#666666" points="58,-438.61 0,-438.61 0,-419.61 58,-419.61 58,-438.61"/>
<text text-anchor="middle" x="29" y="-426.61" font-family="Helvetica,sans-Serif" font-size="10.00">Jacobian</text>
</a>
</g>
</g>
<!-- Node2 -->
<g id="Node000002" class="node">
<title>Node2</title>
<g id="a_Node000002"><a xlink:href="inverse_8c.html#a4b74b8595f2b2a571303775a87740f34" target="_top" xlink:title=" ">
<polygon fill="white" stroke="#666666" points="207,-475.61 100,-475.61 100,-456.61 207,-456.61 207,-475.61"/>
<text text-anchor="middle" x="153.5" y="-463.61" font-family="Helvetica,sans-Serif" font-size="10.00">print_progress_bar</text>
</a>
</g>
</g>
<!-- Node1&#45;&gt;Node2 -->
<g id="edge1_Node000001_Node000002" class="edge">
<title>Node1&#45;&gt;Node2</title>
<g id="a_edge1_Node000001_Node000002"><a xlink:title=" ">
<path fill="none" stroke="#63b8ff" d="M58.1,-437.6C73.69,-442.31 93.38,-448.25 110.74,-453.5"/>
<polygon fill="#63b8ff" stroke="#63b8ff" points="110.05,-456.95 120.64,-456.49 112.08,-450.25 110.05,-456.95"/>
</a>
</g>
</g>
<!-- Node3 -->
<g id="Node000003" class="node">
<title>Node3</title>
<g id="a_Node000003"><a xlink:href="inverse_8c.html#a8ccb34384a9c46d52bb413dcd177c67b" target="_top" xlink:title=" ">
<polygon fill="white" stroke="#666666" points="193.5,-438.61 113.5,-438.61 113.5,-419.61 193.5,-419.61 193.5,-438.61"/>
<text text-anchor="middle" x="153.5" y="-426.61" font-family="Helvetica,sans-Serif" font-size="10.00">ResidualCalc</text>
</a>
</g>
</g>
<!-- Node1&#45;&gt;Node3 -->
<g id="edge2_Node000001_Node000003" class="edge">
<title>Node1&#45;&gt;Node3</title>
<g id="a_edge2_Node000001_Node000003"><a xlink:title=" ">
<path fill="none" stroke="#63b8ff" d="M58.1,-429.11C71.42,-429.11 87.72,-429.11 103.01,-429.11"/>
<polygon fill="#63b8ff" stroke="#63b8ff" points="103.39,-432.61 113.39,-429.11 103.39,-425.61 103.39,-432.61"/>
</a>
</g>
</g>
<!-- Node31 -->
<g id="Node000031" class="node">
<title>Node31</title>
<g id="a_Node000031"><a xlink:href="inverse_8c.html#adcdbfe299a117284d357b2a9c0b84c44" target="_top" xlink:title=" ">
<polygon fill="white" stroke="#666666" points="213,-340.61 94,-340.61 94,-321.61 213,-321.61 213,-340.61"/>
<text text-anchor="middle" x="153.5" y="-328.61" font-family="Helvetica,sans-Serif" font-size="10.00">update_Fung_epsilon</text>
</a>
</g>
</g>
<!-- Node1&#45;&gt;Node31 -->
<g id="edge63_Node000001_Node000031" class="edge">
<title>Node1&#45;&gt;Node31</title>
<g id="a_edge63_Node000001_Node000031"><a xlink:title=" ">
<path fill="none" stroke="#63b8ff" d="M42.19,-419.36C63.29,-402.48 106.79,-367.68 132.41,-347.18"/>
<polygon fill="#63b8ff" stroke="#63b8ff" points="134.73,-349.81 140.36,-340.83 130.36,-344.34 134.73,-349.81"/>
</a>
</g>
</g>
<!-- Node4 -->
<g id="Node000004" class="node">
<title>Node4</title>
<g id="a_Node000004"><a xlink:href="io_8c.html#ac6a6fe57e1e391ebe52b1dbffde4ba5b" target="_top" xlink:title=" ">
<polygon fill="white" stroke="#666666" points="676.5,-541.61 601.5,-541.61 601.5,-522.61 676.5,-522.61 676.5,-541.61"/>
<text text-anchor="middle" x="639" y="-529.61" font-family="Helvetica,sans-Serif" font-size="10.00">AreaNormal</text>
</a>
</g>
</g>
<!-- Node3&#45;&gt;Node4 -->
<g id="edge3_Node000003_Node000004" class="edge">
<title>Node3&#45;&gt;Node4</title>
<g id="a_edge3_Node000003_Node000004"><a xlink:title=" ">
<path fill="none" stroke="#63b8ff" d="M193.79,-436.16C235.03,-443.66 301.7,-456.08 359,-468.11 440.96,-485.32 535.91,-507.6 591.23,-520.83"/>
<polygon fill="#63b8ff" stroke="#63b8ff" points="590.55,-524.26 601.09,-523.19 592.18,-517.45 590.55,-524.26"/>
</a>
</g>
</g>
<!-- Node9 -->
<g id="Node000009" class="node">
<title>Node9</title>
<g id="a_Node000009"><a xlink:href="main_8c.html#a406cf6152471e0614dca5a045fdfd99f" target="_top" xlink:title=" ">
<polygon fill="white" stroke="#666666" points="337,-419.61 271,-419.61 271,-400.61 337,-400.61 337,-419.61"/>
<text text-anchor="middle" x="304" y="-407.61" font-family="Helvetica,sans-Serif" font-size="10.00">FDynamic</text>
</a>
</g>
</g>
<!-- Node3&#45;&gt;Node9 -->
<g id="edge8_Node000003_Node000009" class="edge">
<title>Node3&#45;&gt;Node9</title>
<g id="a_edge8_Node000003_Node000009"><a xlink:title=" ">
<path fill="none" stroke="#63b8ff" d="M193.52,-424.12C214.19,-421.47 239.62,-418.22 260.76,-415.52"/>
<polygon fill="#63b8ff" stroke="#63b8ff" points="261.28,-418.98 270.75,-414.24 260.39,-412.03 261.28,-418.98"/>
</a>
</g>
</g>
<!-- Node12 -->
<g id="Node000012" class="node">
<title>Node12</title>
<g id="a_Node000012"><a xlink:href="bcs_8c.html#aef1719332b4828ce07ba0c7a6bba7bcd" target="_top" xlink:title=" ">
<polygon fill="white" stroke="#666666" points="335.5,-361.61 272.5,-361.61 272.5,-342.61 335.5,-342.61 335.5,-361.61"/>
<text text-anchor="middle" x="304" y="-349.61" font-family="Helvetica,sans-Serif" font-size="10.00">FExternal</text>
</a>
</g>
</g>
<!-- Node3&#45;&gt;Node12 -->
<g id="edge11_Node000003_Node000012" class="edge">
<title>Node3&#45;&gt;Node12</title>
<g id="a_edge11_Node000003_Node000012"><a xlink:title=" ">
<path fill="none" stroke="#63b8ff" d="M173.01,-419.51C198.68,-406.2 245.32,-382.02 275.2,-366.53"/>
<polygon fill="#63b8ff" stroke="#63b8ff" points="276.99,-369.54 284.26,-361.83 273.77,-363.32 276.99,-369.54"/>
</a>
</g>
</g>
<!-- Node14 -->
<g id="Node000014" class="node">
<title>Node14</title>
<g id="a_Node000014"><a xlink:href="main_8c.html#a59ccabe25c63661e6e66b44209b0f162" target="_top" xlink:title=" ">
<polygon fill="white" stroke="#666666" points="334,-296.61 274,-296.61 274,-277.61 334,-277.61 334,-296.61"/>
<text text-anchor="middle" x="304" y="-284.61" font-family="Helvetica,sans-Serif" font-size="10.00">FInternal</text>
</a>
</g>
</g>
<!-- Node3&#45;&gt;Node14 -->
<g id="edge13_Node000003_Node000014" class="edge">
<title>Node3&#45;&gt;Node14</title>
<g id="a_edge13_Node000003_Node000014"><a xlink:title=" ">
<path fill="none" stroke="#63b8ff" d="M163.67,-419.45C180.3,-402.01 216.72,-364.31 249,-334.11 260.17,-323.66 273.09,-312.39 283.48,-303.51"/>
<polygon fill="#63b8ff" stroke="#63b8ff" points="285.84,-306.1 291.2,-296.96 281.31,-300.76 285.84,-306.1"/>
</a>
</g>
</g>
<!-- Node28 -->
<g id="Node000028" class="node">
<title>Node28</title>
<g id="a_Node000028"><a xlink:href="bcs_8c.html#a66bea6d23d803ebc455e934629a0c7be" target="_top" xlink:title=" ">
<polygon fill="white" stroke="#666666" points="335,-569.61 273,-569.61 273,-550.61 335,-550.61 335,-569.61"/>
<text text-anchor="middle" x="304" y="-557.61" font-family="Helvetica,sans-Serif" font-size="10.00">GhostLoc</text>
</a>
</g>
</g>
<!-- Node3&#45;&gt;Node28 -->
<g id="edge60_Node000003_Node000028" class="edge">
<title>Node3&#45;&gt;Node28</title>
<g id="a_edge60_Node000003_Node000028"><a xlink:title=" ">
<path fill="none" stroke="#63b8ff" d="M193.69,-436.47C200.75,-439.21 207.58,-442.96 213,-448.11 245.44,-478.92 216.68,-511.18 249,-542.11 253.11,-546.04 258.09,-549.11 263.35,-551.51"/>
<polygon fill="#63b8ff" stroke="#63b8ff" points="262.41,-554.9 273,-555.15 264.88,-548.35 262.41,-554.9"/>
</a>
</g>
</g>
<!-- Node29 -->
<g id="Node000029" class="node">
<title>Node29</title>
<g id="a_Node000029"><a xlink:href="bending_8c.html#a4a1f5973a55922b27065f712220d8152" target="_top" xlink:title=" ">
<polygon fill="white" stroke="#666666" points="342.5,-532.61 265.5,-532.61 265.5,-513.61 342.5,-513.61 342.5,-532.61"/>
<text text-anchor="middle" x="304" y="-520.61" font-family="Helvetica,sans-Serif" font-size="10.00">GlobalGhost</text>
</a>
</g>
</g>
<!-- Node3&#45;&gt;Node29 -->
<g id="edge61_Node000003_Node000029" class="edge">
<title>Node3&#45;&gt;Node29</title>
<g id="a_edge61_Node000003_Node000029"><a xlink:title=" ">
<path fill="none" stroke="#63b8ff" d="M193.53,-437.59C200.45,-440.23 207.27,-443.65 213,-448.11 236.66,-466.5 225.41,-486.63 249,-505.11 251.26,-506.88 253.7,-508.48 256.26,-509.93"/>
<polygon fill="#63b8ff" stroke="#63b8ff" points="254.75,-513.09 265.28,-514.28 257.79,-506.78 254.75,-513.09"/>
</a>
</g>
</g>
<!-- Node30 -->
<g id="Node000030" class="node">
<title>Node30</title>
<g id="a_Node000030"><a xlink:href="bending_8c.html#a907be03803f4a1d456a7a1650461f7eb" target="_top" xlink:title=" ">
<polygon fill="white" stroke="#666666" points="333.5,-495.61 274.5,-495.61 274.5,-476.61 333.5,-476.61 333.5,-495.61"/>
<text text-anchor="middle" x="304" y="-483.61" font-family="Helvetica,sans-Serif" font-size="10.00">PatchLoc</text>
</a>
</g>
</g>
<!-- Node3&#45;&gt;Node30 -->
<g id="edge62_Node000003_Node000030" class="edge">
<title>Node3&#45;&gt;Node30</title>
<g id="a_edge62_Node000003_Node000030"><a xlink:title=" ">
<path fill="none" stroke="#63b8ff" d="M185.64,-438.68C194.53,-441.56 204.19,-444.83 213,-448.11 232.93,-455.54 254.93,-464.81 272.19,-472.33"/>
<polygon fill="#63b8ff" stroke="#63b8ff" points="271.19,-475.71 281.75,-476.53 274,-469.31 271.19,-475.71"/>
</a>
</g>
</g>
<!-- Node5 -->
<g id="Node000005" class="node">
<title>Node5</title>
<g id="a_Node000005"><a xlink:href="math_8c.html#a9d60990d26296194c921d537ea26f3c7" target="_top" xlink:title=" ">
<polygon fill="white" stroke="#666666" points="793,-352.61 743,-352.61 743,-333.61 793,-333.61 793,-352.61"/>
<text text-anchor="middle" x="768" y="-340.61" font-family="Helvetica,sans-Serif" font-size="10.00">CROSS</text>
</a>
</g>
</g>
<!-- Node4&#45;&gt;Node5 -->
<g id="edge4_Node000004_Node000005" class="edge">
<title>Node4&#45;&gt;Node5</title>
<g id="a_edge4_Node000004_Node000005"><a xlink:title=" ">
<path fill="none" stroke="#63b8ff" d="M676.84,-525.91C687.88,-522.38 699.13,-516.82 707,-508.11 751.78,-458.5 706.85,-418.32 743,-362.11 743.5,-361.33 744.05,-360.56 744.63,-359.82"/>
<polygon fill="#63b8ff" stroke="#63b8ff" points="747.22,-362.18 751.83,-352.63 742.28,-357.22 747.22,-362.18"/>
</a>
</g>
</g>
<!-- Node6 -->
<g id="Node000006" class="node">
<title>Node6</title>
<g id="a_Node000006"><a xlink:href="math_8c.html#a9d08a9d2fd8e8932e92b8ab054b19269" target="_top" xlink:title=" ">
<polygon fill="white" stroke="#666666" points="793,-278.61 743,-278.61 743,-259.61 793,-259.61 793,-278.61"/>
<text text-anchor="middle" x="768" y="-266.61" font-family="Helvetica,sans-Serif" font-size="10.00">MINUS</text>
</a>
</g>
</g>
<!-- Node4&#45;&gt;Node6 -->
<g id="edge5_Node000004_Node000006" class="edge">
<title>Node4&#45;&gt;Node6</title>
<g id="a_edge5_Node000004_Node000006"><a xlink:title=" ">
<path fill="none" stroke="#63b8ff" d="M656.89,-522.43C672.46,-512.57 694.93,-495.83 707,-475.11 749.83,-401.6 697.94,-359.27 743,-287.11 743.25,-286.71 743.51,-286.32 743.78,-285.94"/>
<polygon fill="#63b8ff" stroke="#63b8ff" points="746.31,-288.35 750.71,-278.71 741.26,-283.51 746.31,-288.35"/>
</a>
</g>
</g>
<!-- Node7 -->
<g id="Node000007" class="node">
<title>Node7</title>
<g id="a_Node000007"><a xlink:href="math_8c.html#aa52f6593cf3e5453c8c6c94343d3fb37" target="_top" xlink:title=" ">
<polygon fill="white" stroke="#666666" points="787,-483.61 749,-483.61 749,-464.61 787,-464.61 787,-483.61"/>
<text text-anchor="middle" x="768" y="-471.61" font-family="Helvetica,sans-Serif" font-size="10.00">SIZE</text>
</a>
</g>
</g>
<!-- Node4&#45;&gt;Node7 -->
<g id="edge6_Node000004_Node000007" class="edge">
<title>Node4&#45;&gt;Node7</title>
<g id="a_edge6_Node000004_Node000007"><a xlink:title=" ">
<path fill="none" stroke="#63b8ff" d="M670.12,-522.55C681.82,-518.53 695.21,-513.52 707,-508.11 719.12,-502.56 732.05,-495.4 742.79,-489.08"/>
<polygon fill="#63b8ff" stroke="#63b8ff" points="744.81,-491.96 751.6,-483.82 741.22,-485.95 744.81,-491.96"/>
</a>
</g>
</g>
<!-- Node8 -->
<g id="Node000008" class="node">
<title>Node8</title>
<g id="a_Node000008"><a xlink:href="math_8c.html#ac616709995f2ae60c4308ffa328337d7" target="_top" xlink:title=" ">
<polygon fill="white" stroke="#666666" points="788.5,-315.61 747.5,-315.61 747.5,-296.61 788.5,-296.61 788.5,-315.61"/>
<text text-anchor="middle" x="768" y="-303.61" font-family="Helvetica,sans-Serif" font-size="10.00">UNIT</text>
</a>
</g>
</g>
<!-- Node4&#45;&gt;Node8 -->
<g id="edge7_Node000004_Node000008" class="edge">
<title>Node4&#45;&gt;Node8</title>
<g id="a_edge7_Node000004_Node000008"><a xlink:title=" ">
<path fill="none" stroke="#63b8ff" d="M656.39,-522.49C671.81,-512.57 694.37,-495.67 707,-475.11 742.88,-416.69 706.1,-382.89 743,-325.11 743.5,-324.33 744.04,-323.56 744.62,-322.82"/>
<polygon fill="#63b8ff" stroke="#63b8ff" points="747.22,-325.17 751.81,-315.62 742.27,-320.22 747.22,-325.17"/>
</a>
</g>
</g>
<!-- Node10 -->
<g id="Node000010" class="node">
<title>Node10</title>
<g id="a_Node000010"><a xlink:href="material_8c.html#a39aa444d5f3c2ebbec2bb3d9aedb3b87" target="_top" xlink:title=" ">
<polygon fill="white" stroke="#666666" points="488,-382.61 442,-382.61 442,-363.61 488,-363.61 488,-382.61"/>
<text text-anchor="middle" x="465" y="-370.61" font-family="Helvetica,sans-Serif" font-size="10.00">Damp</text>
</a>
</g>
</g>
<!-- Node9&#45;&gt;Node10 -->
<g id="edge9_Node000009_Node000010" class="edge">
<title>Node9&#45;&gt;Node10</title>
<g id="a_edge9_Node000009_Node000010"><a xlink:title=" ">
<path fill="none" stroke="#63b8ff" d="M337.18,-402.62C364.69,-396.22 404.11,-387.05 431.67,-380.63"/>
<polygon fill="#63b8ff" stroke="#63b8ff" points="432.66,-384 441.6,-378.32 431.07,-377.18 432.66,-384"/>
</a>
</g>
</g>
<!-- Node11 -->
<g id="Node000011" class="node">
<title>Node11</title>
<g id="a_Node000011"><a xlink:href="material_8c.html#a2d561c42d0809a56d3abe1d1c9c24588" target="_top" xlink:title=" ">
<polygon fill="white" stroke="#666666" points="486,-419.61 444,-419.61 444,-400.61 486,-400.61 486,-419.61"/>
<text text-anchor="middle" x="465" y="-407.61" font-family="Helvetica,sans-Serif" font-size="10.00">Mass</text>
</a>
</g>
</g>
<!-- Node9&#45;&gt;Node11 -->
<g id="edge10_Node000009_Node000011" class="edge">
<title>Node9&#45;&gt;Node11</title>
<g id="a_edge10_Node000009_Node000011"><a xlink:title=" ">
<path fill="none" stroke="#63b8ff" d="M337.18,-410.11C365.37,-410.11 406.06,-410.11 433.69,-410.11"/>
<polygon fill="#63b8ff" stroke="#63b8ff" points="433.94,-413.61 443.94,-410.11 433.94,-406.61 433.94,-413.61"/>
</a>
</g>
</g>
<!-- Node13 -->
<g id="Node000013" class="node">
<title>Node13</title>
<g id="a_Node000013"><a xlink:href="external_8c.html#a93115e0e971ccd05cacd122af8636e18" target="_top" xlink:title=" ">
<polygon fill="white" stroke="#666666" points="535,-345.11 395,-345.11 395,-315.11 535,-315.11 535,-345.11"/>
<text text-anchor="start" x="403" y="-333.11" font-family="Helvetica,sans-Serif" font-size="10.00">FExternalPrescribedForce</text>
<text text-anchor="middle" x="465" y="-322.11" font-family="Helvetica,sans-Serif" font-size="10.00">FieldIn</text>
</a>
</g>
</g>
<!-- Node12&#45;&gt;Node13 -->
<g id="edge12_Node000012_Node000013" class="edge">
<title>Node12&#45;&gt;Node13</title>
<g id="a_edge12_Node000012_Node000013"><a xlink:title=" ">
<path fill="none" stroke="#63b8ff" d="M335.66,-347.87C349.76,-345.92 367.22,-343.5 384.67,-341.09"/>
<polygon fill="#63b8ff" stroke="#63b8ff" points="385.48,-344.51 394.91,-339.67 384.53,-337.57 385.48,-344.51"/>
</a>
</g>
</g>
<!-- Node15 -->
<g id="Node000015" class="node">
<title>Node15</title>
<g id="a_Node000015"><a xlink:href="bending_8c.html#a2b66770553fce4724cfb65b0f79e83b1" target="_top" xlink:title=" ">
<polygon fill="white" stroke="#666666" points="496,-296.61 434,-296.61 434,-277.61 496,-277.61 496,-296.61"/>
<text text-anchor="middle" x="465" y="-284.61" font-family="Helvetica,sans-Serif" font-size="10.00">Fbending</text>
</a>
</g>
</g>
<!-- Node14&#45;&gt;Node15 -->
<g id="edge14_Node000014_Node000015" class="edge">
<title>Node14&#45;&gt;Node15</title>
<g id="a_edge14_Node000014_Node000015"><a xlink:title=" ">
<path fill="none" stroke="#63b8ff" d="M334.16,-287.11C359.28,-287.11 395.8,-287.11 423.71,-287.11"/>
<polygon fill="#63b8ff" stroke="#63b8ff" points="423.94,-290.61 433.94,-287.11 423.94,-283.61 423.94,-290.61"/>
</a>
</g>
</g>
<!-- Node26 -->
<g id="Node000026" class="node">
<title>Node26</title>
<g id="a_Node000026"><a xlink:href="membrane_8c.html#a9fee56a81a4f404db4630a996f38013c" target="_top" xlink:title=" ">
<polygon fill="white" stroke="#666666" points="503,-202.61 427,-202.61 427,-183.61 503,-183.61 503,-202.61"/>
<text text-anchor="middle" x="465" y="-190.61" font-family="Helvetica,sans-Serif" font-size="10.00">Fmembrane</text>
</a>
</g>
</g>
<!-- Node14&#45;&gt;Node26 -->
<g id="edge53_Node000014_Node000026" class="edge">
<title>Node14&#45;&gt;Node26</title>
<g id="a_edge53_Node000014_Node000026"><a xlink:title=" ">
<path fill="none" stroke="#63b8ff" d="M334.22,-278.51C342.43,-275.65 351.24,-272.14 359,-268.11 391.18,-251.39 424.64,-225.83 444.9,-209.29"/>
<polygon fill="#63b8ff" stroke="#63b8ff" points="447.26,-211.88 452.74,-202.81 442.8,-206.49 447.26,-211.88"/>
</a>
</g>
</g>
<!-- Node27 -->
<g id="Node000027" class="node">
<title>Node27</title>
<g id="a_Node000027"><a xlink:href="bcs_8c.html#a679ccb265fdae6027920ac949da40b91" target="_top" xlink:title=" ">
<polygon fill="white" stroke="#666666" points="512.5,-165.61 417.5,-165.61 417.5,-146.61 512.5,-146.61 512.5,-165.61"/>
<text text-anchor="middle" x="465" y="-153.61" font-family="Helvetica,sans-Serif" font-size="10.00">ModifyFbending</text>
</a>
</g>
</g>
<!-- Node14&#45;&gt;Node27 -->
<g id="edge59_Node000014_Node000027" class="edge">
<title>Node14&#45;&gt;Node27</title>
<g id="a_edge59_Node000014_Node000027"><a xlink:title=" ">
<path fill="none" stroke="#63b8ff" d="M334.18,-281.83C343.05,-279.01 352.23,-274.7 359,-268.11 391.06,-236.91 361.67,-203.95 395,-174.11 398.82,-170.69 403.22,-167.9 407.89,-165.64"/>
<polygon fill="#63b8ff" stroke="#63b8ff" points="409.21,-168.88 417.17,-161.89 406.58,-162.39 409.21,-168.88"/>
</a>
</g>
</g>
<!-- Node15&#45;&gt;Node5 -->
<g id="edge27_Node000015_Node000005" class="edge">
<title>Node15&#45;&gt;Node5</title>
<g id="a_edge27_Node000015_Node000005"><a xlink:title=" ">
<path fill="none" stroke="#63b8ff" d="M496.12,-288.48C509.76,-290.66 525.03,-295.53 535,-306.11 587.68,-361.99 511.31,-426.79 571,-475.11 617.98,-513.14 658.2,-510.78 707,-475.11 749.55,-444.01 713.03,-405.47 743,-362.11 743.53,-361.35 744.1,-360.6 744.7,-359.86"/>
<polygon fill="#63b8ff" stroke="#63b8ff" points="747.28,-362.23 751.99,-352.75 742.39,-357.22 747.28,-362.23"/>
</a>
</g>
</g>
<!-- Node15&#45;&gt;Node6 -->
<g id="edge37_Node000015_Node000006" class="edge">
<title>Node15&#45;&gt;Node6</title>
<g id="a_edge37_Node000015_Node000006"><a xlink:title=" ">
<path fill="none" stroke="#63b8ff" d="M486.36,-277.6C507.12,-268.47 540.52,-255.32 571,-250.11 630.58,-239.92 647.26,-240.88 707,-250.11 715.69,-251.45 724.85,-253.83 733.32,-256.46"/>
<polygon fill="#63b8ff" stroke="#63b8ff" points="732.29,-259.8 742.88,-259.61 734.48,-253.16 732.29,-259.8"/>
</a>
</g>
</g>
<!-- Node15&#45;&gt;Node7 -->
<g id="edge39_Node000015_Node000007" class="edge">
<title>Node15&#45;&gt;Node7</title>
<g id="a_edge39_Node000015_Node000007"><a xlink:title=" ">
<path fill="none" stroke="#63b8ff" d="M496.07,-288.15C509.87,-290.23 525.29,-295.13 535,-306.11 607.9,-388.56 487.71,-479.17 571,-551.11 616.74,-590.62 652.69,-577.64 707,-551.11 731.65,-539.07 749.12,-511.46 758.63,-492.79"/>
<polygon fill="#63b8ff" stroke="#63b8ff" points="761.81,-494.26 762.99,-483.73 755.5,-491.23 761.81,-494.26"/>
</a>
</g>
</g>
<!-- Node15&#45;&gt;Node8 -->
<g id="edge52_Node000015_Node000008" class="edge">
<title>Node15&#45;&gt;Node8</title>
<g id="a_edge52_Node000015_Node000008"><a xlink:title=" ">
<path fill="none" stroke="#63b8ff" d="M496.09,-289.33C509.4,-291.72 524.4,-296.53 535,-306.11 567.88,-335.84 534.44,-374.06 571,-399.11 620.86,-433.28 655.76,-431.17 707,-399.11 738.01,-379.71 720.09,-353.62 743,-325.11 743.58,-324.39 744.2,-323.67 744.84,-322.97"/>
<polygon fill="#63b8ff" stroke="#63b8ff" points="747.39,-325.37 752.34,-316.01 742.63,-320.24 747.39,-325.37"/>
</a>
</g>
</g>
<!-- Node16 -->
<g id="Node000016" class="node">
<title>Node16</title>
<g id="a_Node000016"><a xlink:href="math_8c.html#a7ef9263b0a3a10c2cd00bb4dc0059d70" target="_top" xlink:title=" ">
<polygon fill="white" stroke="#666666" points="664,-465.61 614,-465.61 614,-446.61 664,-446.61 664,-465.61"/>
<text text-anchor="middle" x="639" y="-453.61" font-family="Helvetica,sans-Serif" font-size="10.00">AMULT</text>
</a>
</g>
</g>
<!-- Node15&#45;&gt;Node16 -->
<g id="edge15_Node000015_Node000016" class="edge">
<title>Node15&#45;&gt;Node16</title>
<g id="a_edge15_Node000015_Node000016"><a xlink:title=" ">
<path fill="none" stroke="#63b8ff" d="M496.15,-288.84C509.63,-291.12 524.76,-295.97 535,-306.11 576.38,-347.1 531.19,-389.6 571,-432.11 579.71,-441.41 592.27,-447.11 604.17,-450.61"/>
<polygon fill="#63b8ff" stroke="#63b8ff" points="603.36,-454.01 613.92,-453.05 605.07,-447.22 603.36,-454.01"/>
</a>
</g>
</g>
<!-- Node17 -->
<g id="Node000017" class="node">
<title>Node17</title>
<g id="a_Node000017"><a xlink:href="material_8c.html#af81ecf5fbfd52082e0abd3184f12c14f" target="_top" xlink:title=" ">
<polygon fill="white" stroke="#666666" points="692,-352.61 586,-352.61 586,-333.61 692,-333.61 692,-352.61"/>
<text text-anchor="middle" x="639" y="-340.61" font-family="Helvetica,sans-Serif" font-size="10.00">BendingNonLinear</text>
</a>
</g>
</g>
<!-- Node15&#45;&gt;Node17 -->
<g id="edge16_Node000015_Node000017" class="edge">
<title>Node15&#45;&gt;Node17</title>
<g id="a_edge16_Node000015_Node000017"><a xlink:title=" ">
<path fill="none" stroke="#63b8ff" d="M496.01,-293.86C508.29,-297.02 522.52,-301.17 535,-306.11 551.82,-312.77 554.16,-318.5 571,-325.11 576.12,-327.12 581.54,-328.98 586.99,-330.69"/>
<polygon fill="#63b8ff" stroke="#63b8ff" points="586.2,-334.11 596.78,-333.59 588.19,-327.4 586.2,-334.11"/>
</a>
</g>
</g>
<!-- Node18 -->
<g id="Node000018" class="node">
<title>Node18</title>
<g id="a_Node000018"><a xlink:href="math_8c.html#a870a70f4845a041458d9bdb0dd7aabd3" target="_top" xlink:title=" ">
<polygon fill="white" stroke="#666666" points="787,-203.61 749,-203.61 749,-184.61 787,-184.61 787,-203.61"/>
<text text-anchor="middle" x="768" y="-191.61" font-family="Helvetica,sans-Serif" font-size="10.00">DOT</text>
</a>
</g>
</g>
<!-- Node15&#45;&gt;Node18 -->
<g id="edge28_Node000015_Node000018" class="edge">
<title>Node15&#45;&gt;Node18</title>
<g id="a_edge28_Node000015_Node000018"><a xlink:title=" ">
<path fill="none" stroke="#63b8ff" d="M477.71,-277.61C493.24,-264.37 520.36,-238.85 535,-211.11 567.2,-150.09 516.85,-102.87 571,-60.11 618.44,-22.65 656.27,-27.24 707,-60.11 746.27,-85.55 760.07,-143.4 764.74,-174.1"/>
<polygon fill="#63b8ff" stroke="#63b8ff" points="761.32,-174.97 766.11,-184.42 768.26,-174.04 761.32,-174.97"/>
</a>
</g>
</g>
<!-- Node19 -->
<g id="Node000019" class="node">
<title>Node19</title>
<g id="a_Node000019"><a xlink:href="math_8c.html#a3f73e4cd9eab76eeee084eabf2b98ec9" target="_top" xlink:title=" ">
<polygon fill="white" stroke="#666666" points="785,-241.61 751,-241.61 751,-222.61 785,-222.61 785,-241.61"/>
<text text-anchor="middle" x="768" y="-229.61" font-family="Helvetica,sans-Serif" font-size="10.00">INV</text>
</a>
</g>
</g>
<!-- Node15&#45;&gt;Node19 -->
<g id="edge29_Node000015_Node000019" class="edge">
<title>Node15&#45;&gt;Node19</title>
<g id="a_edge29_Node000015_Node000019"><a xlink:title=" ">
<path fill="none" stroke="#63b8ff" d="M474.99,-277.22C499.84,-249.94 567.79,-175.51 571,-174.11 626.41,-149.96 651.47,-150.23 707,-174.11 728.37,-183.3 726.03,-196.19 743,-212.11 744.25,-213.28 745.56,-214.47 746.89,-215.66"/>
<polygon fill="#63b8ff" stroke="#63b8ff" points="744.68,-218.37 754.55,-222.21 749.23,-213.05 744.68,-218.37"/>
</a>
</g>
</g>
<!-- Node21 -->
<g id="Node000021" class="node">
<title>Node21</title>
<g id="a_Node000021"><a xlink:href="material_8c.html#a3243950933f3559f19edcb5421360526" target="_top" xlink:title=" ">
<polygon fill="white" stroke="#666666" points="707,-88.61 571,-88.61 571,-69.61 707,-69.61 707,-88.61"/>
<text text-anchor="middle" x="639" y="-76.61" font-family="Helvetica,sans-Serif" font-size="10.00">CalcCurvStressStrainxyz</text>
</a>
</g>
</g>
<!-- Node15&#45;&gt;Node21 -->
<g id="edge24_Node000015_Node000021" class="edge">
<title>Node15&#45;&gt;Node21</title>
<g id="a_edge24_Node000015_Node000021"><a xlink:title=" ">
<path fill="none" stroke="#63b8ff" d="M476.28,-277.51C490.63,-263.74 516.93,-237.18 535,-211.11 554.93,-182.36 549.84,-168.97 571,-141.11 584.26,-123.66 602.74,-106.97 616.94,-95.31"/>
<polygon fill="#63b8ff" stroke="#63b8ff" points="619.53,-97.72 625.14,-88.74 615.15,-92.26 619.53,-97.72"/>
</a>
</g>
</g>
<!-- Node22 -->
<g id="Node000022" class="node">
<title>Node22</title>
<g id="a_Node000022"><a xlink:href="material_8c.html#aa93862cca1fe83c736219df7d4a91374" target="_top" xlink:title=" ">
<polygon fill="white" stroke="#666666" points="698.5,-315.61 579.5,-315.61 579.5,-296.61 698.5,-296.61 698.5,-315.61"/>
<text text-anchor="middle" x="639" y="-303.61" font-family="Helvetica,sans-Serif" font-size="10.00">MembraneNonLinear</text>
</a>
</g>
</g>
<!-- Node15&#45;&gt;Node22 -->
<g id="edge30_Node000015_Node000022" class="edge">
<title>Node15&#45;&gt;Node22</title>
<g id="a_edge30_Node000015_Node000022"><a xlink:title=" ">
<path fill="none" stroke="#63b8ff" d="M496.35,-290.46C516.62,-292.7 544.1,-295.74 569.47,-298.54"/>
<polygon fill="#63b8ff" stroke="#63b8ff" points="569.12,-302.02 579.44,-299.64 569.89,-295.07 569.12,-302.02"/>
</a>
</g>
</g>
<!-- Node23 -->
<g id="Node000023" class="node">
<title>Node23</title>
<g id="a_Node000023"><a xlink:href="math_8c.html#ae18926821a703a2c5b281bd890b7e6a0" target="_top" xlink:title=" ">
<polygon fill="white" stroke="#666666" points="659.5,-389.61 618.5,-389.61 618.5,-370.61 659.5,-370.61 659.5,-389.61"/>
<text text-anchor="middle" x="639" y="-377.61" font-family="Helvetica,sans-Serif" font-size="10.00">PLUS</text>
</a>
</g>
</g>
<!-- Node15&#45;&gt;Node23 -->
<g id="edge38_Node000015_Node000023" class="edge">
<title>Node15&#45;&gt;Node23</title>
<g id="a_edge38_Node000015_Node000023"><a xlink:title=" ">
<path fill="none" stroke="#63b8ff" d="M496.29,-290.56C509.18,-293.2 523.79,-297.87 535,-306.11 558.84,-323.64 547.11,-344.66 571,-362.11 581.87,-370.05 596.01,-374.49 608.5,-376.97"/>
<polygon fill="#63b8ff" stroke="#63b8ff" points="608.05,-380.44 618.49,-378.62 609.2,-373.54 608.05,-380.44"/>
</a>
</g>
</g>
<!-- Node24 -->
<g id="Node000024" class="node">
<title>Node24</title>
<g id="a_Node000024"><a xlink:href="material_8c.html#a431e1e9b5ceabfa4edc2920b70296b35" target="_top" xlink:title=" ">
<polygon fill="white" stroke="#666666" points="677.5,-202.61 600.5,-202.61 600.5,-183.61 677.5,-183.61 677.5,-202.61"/>
<text text-anchor="middle" x="639" y="-190.61" font-family="Helvetica,sans-Serif" font-size="10.00">StressLinear</text>
</a>
</g>
</g>
<!-- Node15&#45;&gt;Node24 -->
<g id="edge40_Node000015_Node000024" class="edge">
<title>Node15&#45;&gt;Node24</title>
<g id="a_edge40_Node000015_Node000024"><a xlink:title=" ">
<path fill="none" stroke="#63b8ff" d="M478.32,-277.44C497.34,-262.85 535.38,-235.03 571,-217.11 579.1,-213.04 588.06,-209.33 596.73,-206.11"/>
<polygon fill="#63b8ff" stroke="#63b8ff" points="598.08,-209.34 606.32,-202.69 595.72,-202.75 598.08,-209.34"/>
</a>
</g>
</g>
<!-- Node25 -->
<g id="Node000025" class="node">
<title>Node25</title>
<g id="a_Node000025"><a xlink:href="material_8c.html#aad0d0c11a159f8021feb99ddee475d31" target="_top" xlink:title=" ">
<polygon fill="white" stroke="#666666" points="696,-278.61 582,-278.61 582,-259.61 696,-259.61 696,-278.61"/>
<text text-anchor="middle" x="639" y="-266.61" font-family="Helvetica,sans-Serif" font-size="10.00">StressManufactured</text>
</a>
</g>
</g>
<!-- Node15&#45;&gt;Node25 -->
<g id="edge46_Node000015_Node000025" class="edge">
<title>Node15&#45;&gt;Node25</title>
<g id="a_edge46_Node000015_Node000025"><a xlink:title=" ">
<path fill="none" stroke="#63b8ff" d="M496.35,-283.93C517.21,-281.75 545.73,-278.77 571.7,-276.05"/>
<polygon fill="#63b8ff" stroke="#63b8ff" points="572.31,-279.5 581.89,-274.98 571.58,-272.54 572.31,-279.5"/>
</a>
</g>
</g>
<!-- Node17&#45;&gt;Node5 -->
<g id="edge17_Node000017_Node000005" class="edge">
<title>Node17&#45;&gt;Node5</title>
<g id="a_edge17_Node000017_Node000005"><a xlink:title=" ">
<path fill="none" stroke="#63b8ff" d="M692.02,-343.11C705.83,-343.11 720.39,-343.11 732.96,-343.11"/>
<polygon fill="#63b8ff" stroke="#63b8ff" points="733,-346.61 743,-343.11 733,-339.61 733,-346.61"/>
</a>
</g>
</g>
<!-- Node17&#45;&gt;Node6 -->
<g id="edge20_Node000017_Node000006" class="edge">
<title>Node17&#45;&gt;Node6</title>
<g id="a_edge20_Node000017_Node000006"><a xlink:title=" ">
<path fill="none" stroke="#63b8ff" d="M688.53,-333.52C694.97,-331.27 701.31,-328.5 707,-325.11 726.98,-313.2 725.63,-302.59 743,-287.11 743.82,-286.38 744.66,-285.65 745.52,-284.93"/>
<polygon fill="#63b8ff" stroke="#63b8ff" points="747.81,-287.58 753.48,-278.63 743.47,-282.09 747.81,-287.58"/>
</a>
</g>
</g>
<!-- Node17&#45;&gt;Node7 -->
<g id="edge22_Node000017_Node000007" class="edge">
<title>Node17&#45;&gt;Node7</title>
<g id="a_edge22_Node000017_Node000007"><a xlink:title=" ">
<path fill="none" stroke="#63b8ff" d="M690.84,-352.71C696.65,-355.17 702.2,-358.25 707,-362.11 736.94,-386.21 753.92,-429.38 761.71,-454.5"/>
<polygon fill="#63b8ff" stroke="#63b8ff" points="758.42,-455.73 764.58,-464.35 765.14,-453.77 758.42,-455.73"/>
</a>
</g>
</g>
<!-- Node17&#45;&gt;Node8 -->
<g id="edge23_Node000017_Node000008" class="edge">
<title>Node17&#45;&gt;Node8</title>
<g id="a_edge23_Node000017_Node000008"><a xlink:title=" ">
<path fill="none" stroke="#63b8ff" d="M676.59,-333.59C686.49,-330.94 697.17,-327.99 707,-325.11 717.04,-322.17 727.96,-318.78 737.7,-315.67"/>
<polygon fill="#63b8ff" stroke="#63b8ff" points="738.89,-318.97 747.34,-312.58 736.75,-312.3 738.89,-318.97"/>
</a>
</g>
</g>
<!-- Node17&#45;&gt;Node18 -->
<g id="edge18_Node000017_Node000018" class="edge">
<title>Node17&#45;&gt;Node18</title>
<g id="a_edge18_Node000017_Node000018"><a xlink:title=" ">
<path fill="none" stroke="#63b8ff" d="M692.19,-334.82C697.63,-332.35 702.73,-329.18 707,-325.11 744.86,-289.05 713.22,-256.08 743,-213.11 743.53,-212.35 744.1,-211.6 744.7,-210.87"/>
<polygon fill="#63b8ff" stroke="#63b8ff" points="747.28,-213.24 752,-203.75 742.4,-208.22 747.28,-213.24"/>
</a>
</g>
</g>
<!-- Node17&#45;&gt;Node19 -->
<g id="edge19_Node000017_Node000019" class="edge">
<title>Node17&#45;&gt;Node19</title>
<g id="a_edge19_Node000017_Node000019"><a xlink:title=" ">
<path fill="none" stroke="#63b8ff" d="M692.01,-334.09C697.42,-331.74 702.55,-328.8 707,-325.11 735.45,-301.49 719.54,-278.69 743,-250.11 743.39,-249.63 743.8,-249.16 744.22,-248.69"/>
<polygon fill="#63b8ff" stroke="#63b8ff" points="746.79,-251.09 751.82,-241.76 742.07,-245.92 746.79,-251.09"/>
</a>
</g>
</g>
<!-- Node20 -->
<g id="Node000020" class="node">
<title>Node20</title>
<g id="a_Node000020"><a xlink:href="math_8c.html#ae6a53927765c25c58815e47fea096a67" target="_top" xlink:title=" ">
<polygon fill="white" stroke="#666666" points="788.5,-389.61 747.5,-389.61 747.5,-370.61 788.5,-370.61 788.5,-389.61"/>
<text text-anchor="middle" x="768" y="-377.61" font-family="Helvetica,sans-Serif" font-size="10.00">SIGN</text>
</a>
</g>
</g>
<!-- Node17&#45;&gt;Node20 -->
<g id="edge21_Node000017_Node000020" class="edge">
<title>Node17&#45;&gt;Node20</title>
<g id="a_edge21_Node000017_Node000020"><a xlink:title=" ">
<path fill="none" stroke="#63b8ff" d="M674.11,-352.68C684.67,-355.67 696.32,-359 707,-362.11 717,-365.03 727.91,-368.28 737.65,-371.21"/>
<polygon fill="#63b8ff" stroke="#63b8ff" points="736.71,-374.58 747.3,-374.12 738.73,-367.88 736.71,-374.58"/>
</a>
</g>
</g>
<!-- Node21&#45;&gt;Node6 -->
<g id="edge26_Node000021_Node000006" class="edge">
<title>Node21&#45;&gt;Node6</title>
<g id="a_edge26_Node000021_Node000006"><a xlink:title=" ">
<path fill="none" stroke="#63b8ff" d="M685.89,-88.68C693.79,-92.12 701.29,-96.78 707,-103.11 752.03,-153.08 706.66,-193.51 743,-250.11 743.5,-250.89 744.05,-251.66 744.63,-252.4"/>
<polygon fill="#63b8ff" stroke="#63b8ff" points="742.28,-255 751.82,-259.59 747.22,-250.05 742.28,-255"/>
</a>
</g>
</g>
<!-- Node21&#45;&gt;Node19 -->
<g id="edge25_Node000021_Node000019" class="edge">
<title>Node21&#45;&gt;Node19</title>
<g id="a_edge25_Node000021_Node000019"><a xlink:title=" ">
<path fill="none" stroke="#63b8ff" d="M684.46,-88.61C692.77,-92.06 700.79,-96.74 707,-103.11 742.62,-139.63 714.3,-169.93 743,-212.11 743.74,-213.2 744.55,-214.25 745.42,-215.28"/>
<polygon fill="#63b8ff" stroke="#63b8ff" points="743.18,-217.99 752.78,-222.47 748.07,-212.98 743.18,-217.99"/>
</a>
</g>
</g>
<!-- Node22&#45;&gt;Node5 -->
<g id="edge31_Node000022_Node000005" class="edge">
<title>Node22&#45;&gt;Node5</title>
<g id="a_edge31_Node000022_Node000005"><a xlink:title=" ">
<path fill="none" stroke="#63b8ff" d="M674.11,-315.68C684.67,-318.67 696.32,-322 707,-325.11 715.48,-327.59 724.62,-330.3 733.14,-332.86"/>
<polygon fill="#63b8ff" stroke="#63b8ff" points="732.21,-336.23 742.79,-335.76 734.23,-329.53 732.21,-336.23"/>
</a>
</g>
</g>
<!-- Node22&#45;&gt;Node6 -->
<g id="edge34_Node000022_Node000006" class="edge">
<title>Node22&#45;&gt;Node6</title>
<g id="a_edge34_Node000022_Node000006"><a xlink:title=" ">
<path fill="none" stroke="#63b8ff" d="M674.11,-296.54C684.67,-293.56 696.32,-290.23 707,-287.11 715.48,-284.64 724.62,-281.92 733.14,-279.37"/>
<polygon fill="#63b8ff" stroke="#63b8ff" points="734.23,-282.7 742.79,-276.46 732.21,-275.99 734.23,-282.7"/>
</a>
</g>
</g>
<!-- Node22&#45;&gt;Node7 -->
<g id="edge35_Node000022_Node000007" class="edge">
<title>Node22&#45;&gt;Node7</title>
<g id="a_edge35_Node000022_Node000007"><a xlink:title=" ">
<path fill="none" stroke="#63b8ff" d="M692.27,-315.67C697.63,-318.14 702.68,-321.23 707,-325.11 717.14,-334.23 746.82,-416.41 760.25,-454.67"/>
<polygon fill="#63b8ff" stroke="#63b8ff" points="756.98,-455.91 763.58,-464.2 763.59,-453.61 756.98,-455.91"/>
</a>
</g>
</g>
<!-- Node22&#45;&gt;Node8 -->
<g id="edge36_Node000022_Node000008" class="edge">
<title>Node22&#45;&gt;Node8</title>
<g id="a_edge36_Node000022_Node000008"><a xlink:title=" ">
<path fill="none" stroke="#63b8ff" d="M698.67,-306.11C711.97,-306.11 725.55,-306.11 737.06,-306.11"/>
<polygon fill="#63b8ff" stroke="#63b8ff" points="737.39,-309.61 747.39,-306.11 737.39,-302.61 737.39,-309.61"/>
</a>
</g>
</g>
<!-- Node22&#45;&gt;Node18 -->
<g id="edge32_Node000022_Node000018" class="edge">
<title>Node22&#45;&gt;Node18</title>
<g id="a_edge32_Node000022_Node000018"><a xlink:title=" ">
<path fill="none" stroke="#63b8ff" d="M691.33,-296.54C696.99,-294.08 702.37,-290.99 707,-287.11 735.04,-263.63 720.09,-241.62 743,-213.11 743.58,-212.39 744.2,-211.67 744.84,-210.97"/>
<polygon fill="#63b8ff" stroke="#63b8ff" points="747.39,-213.37 752.34,-204.01 742.63,-208.24 747.39,-213.37"/>
</a>
</g>
</g>
<!-- Node22&#45;&gt;Node19 -->
<g id="edge33_Node000022_Node000019" class="edge">
<title>Node22&#45;&gt;Node19</title>
<g id="a_edge33_Node000022_Node000019"><a xlink:title=" ">
<path fill="none" stroke="#63b8ff" d="M686.02,-296.53C693.31,-294.04 700.56,-290.95 707,-287.11 726.71,-275.36 725.77,-265.26 743,-250.11 743.82,-249.39 744.67,-248.66 745.53,-247.94"/>
<polygon fill="#63b8ff" stroke="#63b8ff" points="747.82,-250.6 753.51,-241.66 743.49,-245.1 747.82,-250.6"/>
</a>
</g>
</g>
<!-- Node24&#45;&gt;Node5 -->
<g id="edge41_Node000024_Node000005" class="edge">
<title>Node24&#45;&gt;Node5</title>
<g id="a_edge41_Node000024_Node000005"><a xlink:title=" ">
<path fill="none" stroke="#63b8ff" d="M654.63,-202.79C669.36,-213.11 691.99,-230.64 707,-250.11 729.57,-279.4 719.54,-296.53 743,-325.11 743.39,-325.59 743.8,-326.06 744.22,-326.53"/>
<polygon fill="#63b8ff" stroke="#63b8ff" points="742.07,-329.31 751.82,-333.47 746.79,-324.14 742.07,-329.31"/>
</a>
</g>
</g>
<!-- Node24&#45;&gt;Node6 -->
<g id="edge44_Node000024_Node000006" class="edge">
<title>Node24&#45;&gt;Node6</title>
<g id="a_edge44_Node000024_Node000006"><a xlink:title=" ">
<path fill="none" stroke="#63b8ff" d="M674.93,-202.69C685.63,-206.38 697.16,-211.17 707,-217.11 725.58,-228.33 726.48,-236.03 743,-250.11 744,-250.96 745.03,-251.83 746.08,-252.7"/>
<polygon fill="#63b8ff" stroke="#63b8ff" points="744.18,-255.66 754.16,-259.22 748.58,-250.22 744.18,-255.66"/>
</a>
</g>
</g>
<!-- Node24&#45;&gt;Node8 -->
<g id="edge45_Node000024_Node000008" class="edge">
<title>Node24&#45;&gt;Node8</title>
<g id="a_edge45_Node000024_Node000008"><a xlink:title=" ">
<path fill="none" stroke="#63b8ff" d="M652.16,-202.87C665.81,-213.97 688.49,-232.79 707,-250.11 723.76,-265.78 725.97,-271.74 743,-287.11 743.98,-287.99 744.99,-288.88 746.02,-289.77"/>
<polygon fill="#63b8ff" stroke="#63b8ff" points="744.09,-292.71 754.04,-296.35 748.53,-287.3 744.09,-292.71"/>
</a>
</g>
</g>
<!-- Node24&#45;&gt;Node18 -->
<g id="edge42_Node000024_Node000018" class="edge">
<title>Node24&#45;&gt;Node18</title>
<g id="a_edge42_Node000024_Node000018"><a xlink:title=" ">
<path fill="none" stroke="#63b8ff" d="M677.76,-193.41C697.35,-193.56 720.87,-193.75 738.85,-193.89"/>
<polygon fill="#63b8ff" stroke="#63b8ff" points="738.95,-197.39 748.98,-193.97 739.01,-190.39 738.95,-197.39"/>
</a>
</g>
</g>
<!-- Node24&#45;&gt;Node19 -->
<g id="edge43_Node000024_Node000019" class="edge">
<title>Node24&#45;&gt;Node19</title>
<g id="a_edge43_Node000024_Node000019"><a xlink:title=" ">
<path fill="none" stroke="#63b8ff" d="M671.07,-202.65C692.58,-209.26 720.88,-217.95 741.16,-224.18"/>
<polygon fill="#63b8ff" stroke="#63b8ff" points="740.36,-227.59 750.95,-227.18 742.42,-220.9 740.36,-227.59"/>
</a>
</g>
</g>
<!-- Node25&#45;&gt;Node5 -->
<g id="edge47_Node000025_Node000005" class="edge">
<title>Node25&#45;&gt;Node5</title>
<g id="a_edge47_Node000025_Node000005"><a xlink:title=" ">
<path fill="none" stroke="#63b8ff" d="M688.53,-278.7C694.97,-280.95 701.31,-283.72 707,-287.11 726.98,-299.02 725.63,-309.63 743,-325.11 743.82,-325.84 744.66,-326.57 745.52,-327.29"/>
<polygon fill="#63b8ff" stroke="#63b8ff" points="743.47,-330.13 753.48,-333.6 747.81,-324.64 743.47,-330.13"/>
</a>
</g>
</g>
<!-- Node25&#45;&gt;Node6 -->
<g id="edge50_Node000025_Node000006" class="edge">
<title>Node25&#45;&gt;Node6</title>
<g id="a_edge50_Node000025_Node000006"><a xlink:title=" ">
<path fill="none" stroke="#63b8ff" d="M696.07,-269.11C708.46,-269.11 721.23,-269.11 732.46,-269.11"/>
<polygon fill="#63b8ff" stroke="#63b8ff" points="732.7,-272.61 742.7,-269.11 732.7,-265.61 732.7,-272.61"/>
</a>
</g>
</g>
<!-- Node25&#45;&gt;Node8 -->
<g id="edge51_Node000025_Node000008" class="edge">
<title>Node25&#45;&gt;Node8</title>
<g id="a_edge51_Node000025_Node000008"><a xlink:title=" ">
<path fill="none" stroke="#63b8ff" d="M676.59,-278.63C686.49,-281.29 697.17,-284.24 707,-287.11 717.04,-290.05 727.96,-293.45 737.7,-296.55"/>
<polygon fill="#63b8ff" stroke="#63b8ff" points="736.75,-299.92 747.34,-299.64 738.89,-293.25 736.75,-299.92"/>
</a>
</g>
</g>
<!-- Node25&#45;&gt;Node18 -->
<g id="edge48_Node000025_Node000018" class="edge">
<title>Node25&#45;&gt;Node18</title>
<g id="a_edge48_Node000025_Node000018"><a xlink:title=" ">
<path fill="none" stroke="#63b8ff" d="M656.34,-259.46C678.06,-246.63 716.64,-223.85 742.02,-208.86"/>
<polygon fill="#63b8ff" stroke="#63b8ff" points="743.89,-211.82 750.72,-203.73 740.33,-205.8 743.89,-211.82"/>
</a>
</g>
</g>
<!-- Node25&#45;&gt;Node19 -->
<g id="edge49_Node000025_Node000019" class="edge">
<title>Node25&#45;&gt;Node19</title>
<g id="a_edge49_Node000025_Node000019"><a xlink:title=" ">
<path fill="none" stroke="#63b8ff" d="M672.71,-259.58C693.89,-253.41 721.1,-245.48 740.84,-239.73"/>
<polygon fill="#63b8ff" stroke="#63b8ff" points="742.06,-243.02 750.69,-236.86 740.11,-236.3 742.06,-243.02"/>
</a>
</g>
</g>
<!-- Node26&#45;&gt;Node6 -->
<g id="edge57_Node000026_Node000006" class="edge">
<title>Node26&#45;&gt;Node6</title>
<g id="a_edge57_Node000026_Node000006"><a xlink:title=" ">
<path fill="none" stroke="#63b8ff" d="M503.28,-184.85C562.34,-172.62 674.11,-153.29 707,-174.11 738.58,-194.1 719.74,-220.86 743,-250.11 743.58,-250.84 744.19,-251.56 744.83,-252.26"/>
<polygon fill="#63b8ff" stroke="#63b8ff" points="742.62,-254.98 752.32,-259.24 747.39,-249.86 742.62,-254.98"/>
</a>
</g>
</g>
<!-- Node26&#45;&gt;Node18 -->
<g id="edge55_Node000026_Node000018" class="edge">
<title>Node26&#45;&gt;Node18</title>
<g id="a_edge55_Node000026_Node000018"><a xlink:title=" ">
<path fill="none" stroke="#63b8ff" d="M503.07,-190.23C514.66,-187.58 526.6,-182.75 535,-174.11 581.88,-125.87 518.08,-68.63 571,-27.11 618.55,10.2 657.56,7.66 707,-27.11 755.21,-61.01 764.87,-137.5 766.68,-174"/>
<polygon fill="#63b8ff" stroke="#63b8ff" points="763.19,-174.46 767.03,-184.34 770.19,-174.22 763.19,-174.46"/>
</a>
</g>
</g>
<!-- Node26&#45;&gt;Node21 -->
<g id="edge54_Node000026_Node000021" class="edge">
<title>Node26&#45;&gt;Node21</title>
<g id="a_edge54_Node000026_Node000021"><a xlink:title=" ">
<path fill="none" stroke="#63b8ff" d="M503.06,-188.79C514.25,-186.03 525.96,-181.5 535,-174.11 562.4,-151.72 544.47,-126.51 571,-103.11 575.57,-99.08 580.87,-95.71 586.44,-92.9"/>
<polygon fill="#63b8ff" stroke="#63b8ff" points="588.27,-95.92 596,-88.67 585.44,-89.51 588.27,-95.92"/>
</a>
</g>
</g>
<!-- Node26&#45;&gt;Node22 -->
<g id="edge56_Node000026_Node000022" class="edge">
<title>Node26&#45;&gt;Node22</title>
<g id="a_edge56_Node000026_Node000022"><a xlink:title=" ">
<path fill="none" stroke="#63b8ff" d="M473.92,-202.66C490.16,-221.61 529.2,-264.1 571,-287.11 575.15,-289.4 579.6,-291.43 584.16,-293.23"/>
<polygon fill="#63b8ff" stroke="#63b8ff" points="583.02,-296.54 593.62,-296.61 585.38,-289.95 583.02,-296.54"/>
</a>
</g>
</g>
<!-- Node26&#45;&gt;Node24 -->
<g id="edge58_Node000026_Node000024" class="edge">
<title>Node26&#45;&gt;Node24</title>
<g id="a_edge58_Node000026_Node000024"><a xlink:title=" ">
<path fill="none" stroke="#63b8ff" d="M503.32,-193.11C528.82,-193.11 562.82,-193.11 590.28,-193.11"/>
<polygon fill="#63b8ff" stroke="#63b8ff" points="590.45,-196.61 600.45,-193.11 590.45,-189.61 590.45,-196.61"/>
</a>
</g>
</g>
<!-- Node32 -->
<g id="Node000032" class="node">
<title>Node32</title>
<g id="a_Node000032"><a xlink:href="inverse_8c.html#aad265514e1d068c5af3a6320696f5ba9" target="_top" xlink:title=" ">
<polygon fill="white" stroke="#666666" points="359,-259.61 249,-259.61 249,-240.61 359,-240.61 359,-259.61"/>
<text text-anchor="middle" x="304" y="-247.61" font-family="Helvetica,sans-Serif" font-size="10.00">reset_Fung_epsilon</text>
</a>
</g>
</g>
<!-- Node31&#45;&gt;Node32 -->
<g id="edge64_Node000031_Node000032" class="edge">
<title>Node31&#45;&gt;Node32</title>
<g id="a_edge64_Node000031_Node000032"><a xlink:title=" ">
<path fill="none" stroke="#63b8ff" d="M166.69,-321.42C184.1,-307.97 217.47,-283.53 249,-268.11 252.54,-266.38 256.3,-264.75 260.1,-263.23"/>
<polygon fill="#63b8ff" stroke="#63b8ff" points="261.45,-266.46 269.6,-259.7 259.01,-259.9 261.45,-266.46"/>
</a>
</g>
</g>
</g>
</svg>
