<?xml version="1.0" encoding="UTF-8" standalone="no"?>
<!DOCTYPE svg PUBLIC "-//W3C//DTD SVG 1.1//EN"
 "http://www.w3.org/Graphics/SVG/1.1/DTD/svg11.dtd">
<!-- Generated by graphviz version 2.43.0 (0)
 -->
<!-- Title: grad_R_wrt_E_field Pages: 1 -->
<svg width="858pt" height="584pt"
 viewBox="0.00 0.00 858.00 584.28" xmlns="http://www.w3.org/2000/svg" xmlns:xlink="http://www.w3.org/1999/xlink">
<g id="graph0" class="graph" transform="scale(1 1) rotate(0) translate(4 580.28)">
<title>grad_R_wrt_E_field</title>
<!-- Node1 -->
<g id="Node000001" class="node">
<title>Node1</title>
<g id="a_Node000001"><a xlink:title=" ">
<polygon fill="#999999" stroke="#666666" points="109,-358.61 0,-358.61 0,-339.61 109,-339.61 109,-358.61"/>
<text text-anchor="middle" x="54.5" y="-346.61" font-family="Helvetica,sans-Serif" font-size="10.00">grad_R_wrt_E_field</text>
</a>
</g>
</g>
<!-- Node2 -->
<g id="Node000002" class="node">
<title>Node2</title>
<g id="a_Node000002"><a xlink:href="inverse_8c.html#a8ccb34384a9c46d52bb413dcd177c67b" target="_top" xlink:title=" ">
<polygon fill="white" stroke="#666666" points="246,-438.61 166,-438.61 166,-419.61 246,-419.61 246,-438.61"/>
<text text-anchor="middle" x="206" y="-426.61" font-family="Helvetica,sans-Serif" font-size="10.00">ResidualCalc</text>
</a>
</g>
</g>
<!-- Node1&#45;&gt;Node2 -->
<g id="edge1_Node000001_Node000002" class="edge">
<title>Node1&#45;&gt;Node2</title>
<g id="a_edge1_Node000001_Node000002"><a xlink:title=" ">
<path fill="none" stroke="#63b8ff" d="M73.53,-358.76C99.46,-372.64 147.48,-398.33 177.75,-414.53"/>
<polygon fill="#63b8ff" stroke="#63b8ff" points="176.43,-417.79 186.9,-419.43 179.74,-411.62 176.43,-417.79"/>
</a>
</g>
</g>
<!-- Node30 -->
<g id="Node000030" class="node">
<title>Node30</title>
<g id="a_Node000030"><a xlink:href="inverse_8c.html#aa676fe953108111fad03e84687615005" target="_top" xlink:title=" ">
<polygon fill="white" stroke="#666666" points="267,-340.61 145,-340.61 145,-321.61 267,-321.61 267,-340.61"/>
<text text-anchor="middle" x="206" y="-328.61" font-family="Helvetica,sans-Serif" font-size="10.00">update_Lin_E_epsilon</text>
</a>
</g>
</g>
<!-- Node1&#45;&gt;Node30 -->
<g id="edge62_Node000001_Node000030" class="edge">
<title>Node1&#45;&gt;Node30</title>
<g id="a_edge62_Node000001_Node000030"><a xlink:title=" ">
<path fill="none" stroke="#63b8ff" d="M109.05,-342.66C117.42,-341.66 126.18,-340.6 134.85,-339.56"/>
<polygon fill="#63b8ff" stroke="#63b8ff" points="135.46,-343.01 144.97,-338.34 134.62,-336.06 135.46,-343.01"/>
</a>
</g>
</g>
<!-- Node3 -->
<g id="Node000003" class="node">
<title>Node3</title>
<g id="a_Node000003"><a xlink:href="io_8c.html#ac6a6fe57e1e391ebe52b1dbffde4ba5b" target="_top" xlink:title=" ">
<polygon fill="white" stroke="#666666" points="733.5,-541.61 658.5,-541.61 658.5,-522.61 733.5,-522.61 733.5,-541.61"/>
<text text-anchor="middle" x="696" y="-529.61" font-family="Helvetica,sans-Serif" font-size="10.00">AreaNormal</text>
</a>
</g>
</g>
<!-- Node2&#45;&gt;Node3 -->
<g id="edge2_Node000002_Node000003" class="edge">
<title>Node2&#45;&gt;Node3</title>
<g id="a_edge2_Node000002_Node000003"><a xlink:title=" ">
<path fill="none" stroke="#63b8ff" d="M246.39,-435.96C288.47,-443.4 357.09,-455.86 416,-468.11 497.99,-485.16 592.93,-507.49 648.24,-520.77"/>
<polygon fill="#63b8ff" stroke="#63b8ff" points="647.56,-524.2 658.1,-523.14 649.19,-517.4 647.56,-524.2"/>
</a>
</g>
</g>
<!-- Node8 -->
<g id="Node000008" class="node">
<title>Node8</title>
<g id="a_Node000008"><a xlink:href="main_8c.html#a406cf6152471e0614dca5a045fdfd99f" target="_top" xlink:title=" ">
<polygon fill="white" stroke="#666666" points="392.5,-419.61 326.5,-419.61 326.5,-400.61 392.5,-400.61 392.5,-419.61"/>
<text text-anchor="middle" x="359.5" y="-407.61" font-family="Helvetica,sans-Serif" font-size="10.00">FDynamic</text>
</a>
</g>
</g>
<!-- Node2&#45;&gt;Node8 -->
<g id="edge7_Node000002_Node000008" class="edge">
<title>Node2&#45;&gt;Node8</title>
<g id="a_edge7_Node000002_Node000008"><a xlink:title=" ">
<path fill="none" stroke="#63b8ff" d="M246.02,-424.22C267.51,-421.52 294.21,-418.17 316.21,-415.42"/>
<polygon fill="#63b8ff" stroke="#63b8ff" points="316.77,-418.87 326.26,-414.15 315.9,-411.93 316.77,-418.87"/>
</a>
</g>
</g>
<!-- Node11 -->
<g id="Node000011" class="node">
<title>Node11</title>
<g id="a_Node000011"><a xlink:href="bcs_8c.html#aef1719332b4828ce07ba0c7a6bba7bcd" target="_top" xlink:title=" ">
<polygon fill="white" stroke="#666666" points="391,-361.61 328,-361.61 328,-342.61 391,-342.61 391,-361.61"/>
<text text-anchor="middle" x="359.5" y="-349.61" font-family="Helvetica,sans-Serif" font-size="10.00">FExternal</text>
</a>
</g>
</g>
<!-- Node2&#45;&gt;Node11 -->
<g id="edge10_Node000002_Node000011" class="edge">
<title>Node2&#45;&gt;Node11</title>
<g id="a_edge10_Node000002_Node000011"><a xlink:title=" ">
<path fill="none" stroke="#63b8ff" d="M225.88,-419.51C252.08,-406.2 299.66,-382.02 330.14,-366.53"/>
<polygon fill="#63b8ff" stroke="#63b8ff" points="332.05,-369.48 339.38,-361.83 328.88,-363.24 332.05,-369.48"/>
</a>
</g>
</g>
<!-- Node13 -->
<g id="Node000013" class="node">
<title>Node13</title>
<g id="a_Node000013"><a xlink:href="main_8c.html#a59ccabe25c63661e6e66b44209b0f162" target="_top" xlink:title=" ">
<polygon fill="white" stroke="#666666" points="389.5,-296.61 329.5,-296.61 329.5,-277.61 389.5,-277.61 389.5,-296.61"/>
<text text-anchor="middle" x="359.5" y="-284.61" font-family="Helvetica,sans-Serif" font-size="10.00">FInternal</text>
</a>
</g>
</g>
<!-- Node2&#45;&gt;Node13 -->
<g id="edge12_Node000002_Node000013" class="edge">
<title>Node2&#45;&gt;Node13</title>
<g id="a_edge12_Node000002_Node000013"><a xlink:title=" ">
<path fill="none" stroke="#63b8ff" d="M216.3,-419.42C233.18,-401.95 270.14,-364.2 303,-334.11 314.46,-323.62 327.73,-312.35 338.42,-303.47"/>
<polygon fill="#63b8ff" stroke="#63b8ff" points="340.87,-305.99 346.36,-296.93 336.42,-300.59 340.87,-305.99"/>
</a>
</g>
</g>
<!-- Node27 -->
<g id="Node000027" class="node">
<title>Node27</title>
<g id="a_Node000027"><a xlink:href="bcs_8c.html#a66bea6d23d803ebc455e934629a0c7be" target="_top" xlink:title=" ">
<polygon fill="white" stroke="#666666" points="390.5,-569.61 328.5,-569.61 328.5,-550.61 390.5,-550.61 390.5,-569.61"/>
<text text-anchor="middle" x="359.5" y="-557.61" font-family="Helvetica,sans-Serif" font-size="10.00">GhostLoc</text>
</a>
</g>
</g>
<!-- Node2&#45;&gt;Node27 -->
<g id="edge59_Node000002_Node000027" class="edge">
<title>Node2&#45;&gt;Node27</title>
<g id="a_edge59_Node000002_Node000027"><a xlink:title=" ">
<path fill="none" stroke="#63b8ff" d="M212.63,-438.85C225.69,-460.61 260.22,-513.46 303,-542.11 307.73,-545.28 313.07,-547.93 318.51,-550.13"/>
<polygon fill="#63b8ff" stroke="#63b8ff" points="317.72,-553.56 328.31,-553.62 320.07,-546.97 317.72,-553.56"/>
</a>
</g>
</g>
<!-- Node28 -->
<g id="Node000028" class="node">
<title>Node28</title>
<g id="a_Node000028"><a xlink:href="bending_8c.html#a4a1f5973a55922b27065f712220d8152" target="_top" xlink:title=" ">
<polygon fill="white" stroke="#666666" points="398,-532.61 321,-532.61 321,-513.61 398,-513.61 398,-532.61"/>
<text text-anchor="middle" x="359.5" y="-520.61" font-family="Helvetica,sans-Serif" font-size="10.00">GlobalGhost</text>
</a>
</g>
</g>
<!-- Node2&#45;&gt;Node28 -->
<g id="edge60_Node000002_Node000028" class="edge">
<title>Node2&#45;&gt;Node28</title>
<g id="a_edge60_Node000002_Node000028"><a xlink:title=" ">
<path fill="none" stroke="#63b8ff" d="M216.79,-438.86C233.26,-454.78 268.14,-486.45 303,-505.11 306.27,-506.86 309.75,-508.48 313.3,-509.97"/>
<polygon fill="#63b8ff" stroke="#63b8ff" points="312.2,-513.3 322.79,-513.61 314.7,-506.76 312.2,-513.3"/>
</a>
</g>
</g>
<!-- Node29 -->
<g id="Node000029" class="node">
<title>Node29</title>
<g id="a_Node000029"><a xlink:href="bending_8c.html#a907be03803f4a1d456a7a1650461f7eb" target="_top" xlink:title=" ">
<polygon fill="white" stroke="#666666" points="389,-495.61 330,-495.61 330,-476.61 389,-476.61 389,-495.61"/>
<text text-anchor="middle" x="359.5" y="-483.61" font-family="Helvetica,sans-Serif" font-size="10.00">PatchLoc</text>
</a>
</g>
</g>
<!-- Node2&#45;&gt;Node29 -->
<g id="edge61_Node000002_Node000029" class="edge">
<title>Node2&#45;&gt;Node29</title>
<g id="a_edge61_Node000002_Node000029"><a xlink:title=" ">
<path fill="none" stroke="#63b8ff" d="M232.36,-438.65C257.37,-448.06 295.81,-462.52 323.68,-473.01"/>
<polygon fill="#63b8ff" stroke="#63b8ff" points="322.47,-476.29 333.06,-476.54 324.93,-469.74 322.47,-476.29"/>
</a>
</g>
</g>
<!-- Node4 -->
<g id="Node000004" class="node">
<title>Node4</title>
<g id="a_Node000004"><a xlink:href="math_8c.html#a9d60990d26296194c921d537ea26f3c7" target="_top" xlink:title=" ">
<polygon fill="white" stroke="#666666" points="850,-352.61 800,-352.61 800,-333.61 850,-333.61 850,-352.61"/>
<text text-anchor="middle" x="825" y="-340.61" font-family="Helvetica,sans-Serif" font-size="10.00">CROSS</text>
</a>
</g>
</g>
<!-- Node3&#45;&gt;Node4 -->
<g id="edge3_Node000003_Node000004" class="edge">
<title>Node3&#45;&gt;Node4</title>
<g id="a_edge3_Node000003_Node000004"><a xlink:title=" ">
<path fill="none" stroke="#63b8ff" d="M733.84,-525.91C744.88,-522.38 756.13,-516.82 764,-508.11 808.78,-458.5 763.85,-418.32 800,-362.11 800.5,-361.33 801.05,-360.56 801.63,-359.82"/>
<polygon fill="#63b8ff" stroke="#63b8ff" points="804.22,-362.18 808.83,-352.63 799.28,-357.22 804.22,-362.18"/>
</a>
</g>
</g>
<!-- Node5 -->
<g id="Node000005" class="node">
<title>Node5</title>
<g id="a_Node000005"><a xlink:href="math_8c.html#a9d08a9d2fd8e8932e92b8ab054b19269" target="_top" xlink:title=" ">
<polygon fill="white" stroke="#666666" points="850,-278.61 800,-278.61 800,-259.61 850,-259.61 850,-278.61"/>
<text text-anchor="middle" x="825" y="-266.61" font-family="Helvetica,sans-Serif" font-size="10.00">MINUS</text>
</a>
</g>
</g>
<!-- Node3&#45;&gt;Node5 -->
<g id="edge4_Node000003_Node000005" class="edge">
<title>Node3&#45;&gt;Node5</title>
<g id="a_edge4_Node000003_Node000005"><a xlink:title=" ">
<path fill="none" stroke="#63b8ff" d="M713.89,-522.43C729.46,-512.57 751.93,-495.83 764,-475.11 806.83,-401.6 754.94,-359.27 800,-287.11 800.25,-286.71 800.51,-286.32 800.78,-285.94"/>
<polygon fill="#63b8ff" stroke="#63b8ff" points="803.31,-288.35 807.71,-278.71 798.26,-283.51 803.31,-288.35"/>
</a>
</g>
</g>
<!-- Node6 -->
<g id="Node000006" class="node">
<title>Node6</title>
<g id="a_Node000006"><a xlink:href="math_8c.html#aa52f6593cf3e5453c8c6c94343d3fb37" target="_top" xlink:title=" ">
<polygon fill="white" stroke="#666666" points="844,-483.61 806,-483.61 806,-464.61 844,-464.61 844,-483.61"/>
<text text-anchor="middle" x="825" y="-471.61" font-family="Helvetica,sans-Serif" font-size="10.00">SIZE</text>
</a>
</g>
</g>
<!-- Node3&#45;&gt;Node6 -->
<g id="edge5_Node000003_Node000006" class="edge">
<title>Node3&#45;&gt;Node6</title>
<g id="a_edge5_Node000003_Node000006"><a xlink:title=" ">
<path fill="none" stroke="#63b8ff" d="M727.12,-522.55C738.82,-518.53 752.21,-513.52 764,-508.11 776.12,-502.56 789.05,-495.4 799.79,-489.08"/>
<polygon fill="#63b8ff" stroke="#63b8ff" points="801.81,-491.96 808.6,-483.82 798.22,-485.95 801.81,-491.96"/>
</a>
</g>
</g>
<!-- Node7 -->
<g id="Node000007" class="node">
<title>Node7</title>
<g id="a_Node000007"><a xlink:href="math_8c.html#ac616709995f2ae60c4308ffa328337d7" target="_top" xlink:title=" ">
<polygon fill="white" stroke="#666666" points="845.5,-315.61 804.5,-315.61 804.5,-296.61 845.5,-296.61 845.5,-315.61"/>
<text text-anchor="middle" x="825" y="-303.61" font-family="Helvetica,sans-Serif" font-size="10.00">UNIT</text>
</a>
</g>
</g>
<!-- Node3&#45;&gt;Node7 -->
<g id="edge6_Node000003_Node000007" class="edge">
<title>Node3&#45;&gt;Node7</title>
<g id="a_edge6_Node000003_Node000007"><a xlink:title=" ">
<path fill="none" stroke="#63b8ff" d="M713.39,-522.49C728.81,-512.57 751.37,-495.67 764,-475.11 799.88,-416.69 763.1,-382.89 800,-325.11 800.5,-324.33 801.04,-323.56 801.62,-322.82"/>
<polygon fill="#63b8ff" stroke="#63b8ff" points="804.22,-325.17 808.81,-315.62 799.27,-320.22 804.22,-325.17"/>
</a>
</g>
</g>
<!-- Node9 -->
<g id="Node000009" class="node">
<title>Node9</title>
<g id="a_Node000009"><a xlink:href="material_8c.html#a39aa444d5f3c2ebbec2bb3d9aedb3b87" target="_top" xlink:title=" ">
<polygon fill="white" stroke="#666666" points="545,-382.61 499,-382.61 499,-363.61 545,-363.61 545,-382.61"/>
<text text-anchor="middle" x="522" y="-370.61" font-family="Helvetica,sans-Serif" font-size="10.00">Damp</text>
</a>
</g>
</g>
<!-- Node8&#45;&gt;Node9 -->
<g id="edge8_Node000008_Node000009" class="edge">
<title>Node8&#45;&gt;Node9</title>
<g id="a_edge8_Node000008_Node000009"><a xlink:title=" ">
<path fill="none" stroke="#63b8ff" d="M392.59,-402.71C420.5,-396.28 460.73,-387.01 488.7,-380.56"/>
<polygon fill="#63b8ff" stroke="#63b8ff" points="489.8,-383.89 498.76,-378.24 488.23,-377.07 489.8,-383.89"/>
</a>
</g>
</g>
<!-- Node10 -->
<g id="Node000010" class="node">
<title>Node10</title>
<g id="a_Node000010"><a xlink:href="material_8c.html#a2d561c42d0809a56d3abe1d1c9c24588" target="_top" xlink:title=" ">
<polygon fill="white" stroke="#666666" points="543,-419.61 501,-419.61 501,-400.61 543,-400.61 543,-419.61"/>
<text text-anchor="middle" x="522" y="-407.61" font-family="Helvetica,sans-Serif" font-size="10.00">Mass</text>
</a>
</g>
</g>
<!-- Node8&#45;&gt;Node10 -->
<g id="edge9_Node000008_Node000010" class="edge">
<title>Node8&#45;&gt;Node10</title>
<g id="a_edge9_Node000008_Node000010"><a xlink:title=" ">
<path fill="none" stroke="#63b8ff" d="M392.59,-410.11C421.15,-410.11 462.61,-410.11 490.63,-410.11"/>
<polygon fill="#63b8ff" stroke="#63b8ff" points="490.65,-413.61 500.65,-410.11 490.65,-406.61 490.65,-413.61"/>
</a>
</g>
</g>
<!-- Node12 -->
<g id="Node000012" class="node">
<title>Node12</title>
<g id="a_Node000012"><a xlink:href="external_8c.html#a93115e0e971ccd05cacd122af8636e18" target="_top" xlink:title=" ">
<polygon fill="white" stroke="#666666" points="592,-345.11 452,-345.11 452,-315.11 592,-315.11 592,-345.11"/>
<text text-anchor="start" x="460" y="-333.11" font-family="Helvetica,sans-Serif" font-size="10.00">FExternalPrescribedForce</text>
<text text-anchor="middle" x="522" y="-322.11" font-family="Helvetica,sans-Serif" font-size="10.00">FieldIn</text>
</a>
</g>
</g>
<!-- Node11&#45;&gt;Node12 -->
<g id="edge11_Node000011_Node000012" class="edge">
<title>Node11&#45;&gt;Node12</title>
<g id="a_edge11_Node000011_Node000012"><a xlink:title=" ">
<path fill="none" stroke="#63b8ff" d="M391.07,-347.92C405.65,-345.92 423.84,-343.43 441.94,-340.95"/>
<polygon fill="#63b8ff" stroke="#63b8ff" points="442.54,-344.4 451.97,-339.57 441.59,-337.46 442.54,-344.4"/>
</a>
</g>
</g>
<!-- Node14 -->
<g id="Node000014" class="node">
<title>Node14</title>
<g id="a_Node000014"><a xlink:href="bending_8c.html#a2b66770553fce4724cfb65b0f79e83b1" target="_top" xlink:title=" ">
<polygon fill="white" stroke="#666666" points="553,-296.61 491,-296.61 491,-277.61 553,-277.61 553,-296.61"/>
<text text-anchor="middle" x="522" y="-284.61" font-family="Helvetica,sans-Serif" font-size="10.00">Fbending</text>
</a>
</g>
</g>
<!-- Node13&#45;&gt;Node14 -->
<g id="edge13_Node000013_Node000014" class="edge">
<title>Node13&#45;&gt;Node14</title>
<g id="a_edge13_Node000013_Node000014"><a xlink:title=" ">
<path fill="none" stroke="#63b8ff" d="M389.57,-287.11C415.07,-287.11 452.41,-287.11 480.78,-287.11"/>
<polygon fill="#63b8ff" stroke="#63b8ff" points="480.79,-290.61 490.79,-287.11 480.79,-283.61 480.79,-290.61"/>
</a>
</g>
</g>
<!-- Node25 -->
<g id="Node000025" class="node">
<title>Node25</title>
<g id="a_Node000025"><a xlink:href="membrane_8c.html#a9fee56a81a4f404db4630a996f38013c" target="_top" xlink:title=" ">
<polygon fill="white" stroke="#666666" points="560,-202.61 484,-202.61 484,-183.61 560,-183.61 560,-202.61"/>
<text text-anchor="middle" x="522" y="-190.61" font-family="Helvetica,sans-Serif" font-size="10.00">Fmembrane</text>
</a>
</g>
</g>
<!-- Node13&#45;&gt;Node25 -->
<g id="edge52_Node000013_Node000025" class="edge">
<title>Node13&#45;&gt;Node25</title>
<g id="a_edge52_Node000013_Node000025"><a xlink:title=" ">
<path fill="none" stroke="#63b8ff" d="M389.68,-278.89C398.36,-275.98 407.76,-272.35 416,-268.11 448.25,-251.53 481.7,-225.93 501.93,-209.35"/>
<polygon fill="#63b8ff" stroke="#63b8ff" points="504.3,-211.93 509.75,-202.84 499.83,-206.54 504.3,-211.93"/>
</a>
</g>
</g>
<!-- Node26 -->
<g id="Node000026" class="node">
<title>Node26</title>
<g id="a_Node000026"><a xlink:href="bcs_8c.html#a679ccb265fdae6027920ac949da40b91" target="_top" xlink:title=" ">
<polygon fill="white" stroke="#666666" points="569.5,-165.61 474.5,-165.61 474.5,-146.61 569.5,-146.61 569.5,-165.61"/>
<text text-anchor="middle" x="522" y="-153.61" font-family="Helvetica,sans-Serif" font-size="10.00">ModifyFbending</text>
</a>
</g>
</g>
<!-- Node13&#45;&gt;Node26 -->
<g id="edge58_Node000013_Node000026" class="edge">
<title>Node13&#45;&gt;Node26</title>
<g id="a_edge58_Node000013_Node000026"><a xlink:title=" ">
<path fill="none" stroke="#63b8ff" d="M389.62,-282.25C399,-279.45 408.82,-275.04 416,-268.11 448.2,-237.05 418.67,-203.95 452,-174.11 455.82,-170.69 460.22,-167.9 464.89,-165.64"/>
<polygon fill="#63b8ff" stroke="#63b8ff" points="466.21,-168.88 474.17,-161.89 463.58,-162.39 466.21,-168.88"/>
</a>
</g>
</g>
<!-- Node14&#45;&gt;Node4 -->
<g id="edge26_Node000014_Node000004" class="edge">
<title>Node14&#45;&gt;Node4</title>
<g id="a_edge26_Node000014_Node000004"><a xlink:title=" ">
<path fill="none" stroke="#63b8ff" d="M553.12,-288.48C566.76,-290.66 582.03,-295.53 592,-306.11 644.68,-361.99 568.31,-426.79 628,-475.11 674.98,-513.14 715.2,-510.78 764,-475.11 806.55,-444.01 770.03,-405.47 800,-362.11 800.53,-361.35 801.1,-360.6 801.7,-359.86"/>
<polygon fill="#63b8ff" stroke="#63b8ff" points="804.28,-362.23 808.99,-352.75 799.39,-357.22 804.28,-362.23"/>
</a>
</g>
</g>
<!-- Node14&#45;&gt;Node5 -->
<g id="edge36_Node000014_Node000005" class="edge">
<title>Node14&#45;&gt;Node5</title>
<g id="a_edge36_Node000014_Node000005"><a xlink:title=" ">
<path fill="none" stroke="#63b8ff" d="M543.36,-277.6C564.12,-268.47 597.52,-255.32 628,-250.11 687.58,-239.92 704.26,-240.88 764,-250.11 772.69,-251.45 781.85,-253.83 790.32,-256.46"/>
<polygon fill="#63b8ff" stroke="#63b8ff" points="789.29,-259.8 799.88,-259.61 791.48,-253.16 789.29,-259.8"/>
</a>
</g>
</g>
<!-- Node14&#45;&gt;Node6 -->
<g id="edge38_Node000014_Node000006" class="edge">
<title>Node14&#45;&gt;Node6</title>
<g id="a_edge38_Node000014_Node000006"><a xlink:title=" ">
<path fill="none" stroke="#63b8ff" d="M553.07,-288.15C566.87,-290.23 582.29,-295.13 592,-306.11 664.9,-388.56 544.71,-479.17 628,-551.11 673.74,-590.62 709.69,-577.64 764,-551.11 788.65,-539.07 806.12,-511.46 815.63,-492.79"/>
<polygon fill="#63b8ff" stroke="#63b8ff" points="818.81,-494.26 819.99,-483.73 812.5,-491.23 818.81,-494.26"/>
</a>
</g>
</g>
<!-- Node14&#45;&gt;Node7 -->
<g id="edge51_Node000014_Node000007" class="edge">
<title>Node14&#45;&gt;Node7</title>
<g id="a_edge51_Node000014_Node000007"><a xlink:title=" ">
<path fill="none" stroke="#63b8ff" d="M553.09,-289.33C566.4,-291.72 581.4,-296.53 592,-306.11 624.88,-335.84 591.44,-374.06 628,-399.11 677.86,-433.28 712.76,-431.17 764,-399.11 795.01,-379.71 777.09,-353.62 800,-325.11 800.58,-324.39 801.2,-323.67 801.84,-322.97"/>
<polygon fill="#63b8ff" stroke="#63b8ff" points="804.39,-325.37 809.34,-316.01 799.63,-320.24 804.39,-325.37"/>
</a>
</g>
</g>
<!-- Node15 -->
<g id="Node000015" class="node">
<title>Node15</title>
<g id="a_Node000015"><a xlink:href="math_8c.html#a7ef9263b0a3a10c2cd00bb4dc0059d70" target="_top" xlink:title=" ">
<polygon fill="white" stroke="#666666" points="721,-465.61 671,-465.61 671,-446.61 721,-446.61 721,-465.61"/>
<text text-anchor="middle" x="696" y="-453.61" font-family="Helvetica,sans-Serif" font-size="10.00">AMULT</text>
</a>
</g>
</g>
<!-- Node14&#45;&gt;Node15 -->
<g id="edge14_Node000014_Node000015" class="edge">
<title>Node14&#45;&gt;Node15</title>
<g id="a_edge14_Node000014_Node000015"><a xlink:title=" ">
<path fill="none" stroke="#63b8ff" d="M553.15,-288.84C566.63,-291.12 581.76,-295.97 592,-306.11 633.38,-347.1 588.19,-389.6 628,-432.11 636.71,-441.41 649.27,-447.11 661.17,-450.61"/>
<polygon fill="#63b8ff" stroke="#63b8ff" points="660.36,-454.01 670.92,-453.05 662.07,-447.22 660.36,-454.01"/>
</a>
</g>
</g>
<!-- Node16 -->
<g id="Node000016" class="node">
<title>Node16</title>
<g id="a_Node000016"><a xlink:href="material_8c.html#af81ecf5fbfd52082e0abd3184f12c14f" target="_top" xlink:title=" ">
<polygon fill="white" stroke="#666666" points="749,-352.61 643,-352.61 643,-333.61 749,-333.61 749,-352.61"/>
<text text-anchor="middle" x="696" y="-340.61" font-family="Helvetica,sans-Serif" font-size="10.00">BendingNonLinear</text>
</a>
</g>
</g>
<!-- Node14&#45;&gt;Node16 -->
<g id="edge15_Node000014_Node000016" class="edge">
<title>Node14&#45;&gt;Node16</title>
<g id="a_edge15_Node000014_Node000016"><a xlink:title=" ">
<path fill="none" stroke="#63b8ff" d="M553.01,-293.86C565.29,-297.02 579.52,-301.17 592,-306.11 608.82,-312.77 611.16,-318.5 628,-325.11 633.12,-327.12 638.54,-328.98 643.99,-330.69"/>
<polygon fill="#63b8ff" stroke="#63b8ff" points="643.2,-334.11 653.78,-333.59 645.19,-327.4 643.2,-334.11"/>
</a>
</g>
</g>
<!-- Node17 -->
<g id="Node000017" class="node">
<title>Node17</title>
<g id="a_Node000017"><a xlink:href="math_8c.html#a870a70f4845a041458d9bdb0dd7aabd3" target="_top" xlink:title=" ">
<polygon fill="white" stroke="#666666" points="844,-203.61 806,-203.61 806,-184.61 844,-184.61 844,-203.61"/>
<text text-anchor="middle" x="825" y="-191.61" font-family="Helvetica,sans-Serif" font-size="10.00">DOT</text>
</a>
</g>
</g>
<!-- Node14&#45;&gt;Node17 -->
<g id="edge27_Node000014_Node000017" class="edge">
<title>Node14&#45;&gt;Node17</title>
<g id="a_edge27_Node000014_Node000017"><a xlink:title=" ">
<path fill="none" stroke="#63b8ff" d="M534.71,-277.61C550.24,-264.37 577.36,-238.85 592,-211.11 624.2,-150.09 573.85,-102.87 628,-60.11 675.44,-22.65 713.27,-27.24 764,-60.11 803.27,-85.55 817.07,-143.4 821.74,-174.1"/>
<polygon fill="#63b8ff" stroke="#63b8ff" points="818.32,-174.97 823.11,-184.42 825.26,-174.04 818.32,-174.97"/>
</a>
</g>
</g>
<!-- Node18 -->
<g id="Node000018" class="node">
<title>Node18</title>
<g id="a_Node000018"><a xlink:href="math_8c.html#a3f73e4cd9eab76eeee084eabf2b98ec9" target="_top" xlink:title=" ">
<polygon fill="white" stroke="#666666" points="842,-241.61 808,-241.61 808,-222.61 842,-222.61 842,-241.61"/>
<text text-anchor="middle" x="825" y="-229.61" font-family="Helvetica,sans-Serif" font-size="10.00">INV</text>
</a>
</g>
</g>
<!-- Node14&#45;&gt;Node18 -->
<g id="edge28_Node000014_Node000018" class="edge">
<title>Node14&#45;&gt;Node18</title>
<g id="a_edge28_Node000014_Node000018"><a xlink:title=" ">
<path fill="none" stroke="#63b8ff" d="M531.99,-277.22C556.84,-249.94 624.79,-175.51 628,-174.11 683.41,-149.96 708.47,-150.23 764,-174.11 785.37,-183.3 783.03,-196.19 800,-212.11 801.25,-213.28 802.56,-214.47 803.89,-215.66"/>
<polygon fill="#63b8ff" stroke="#63b8ff" points="801.68,-218.37 811.55,-222.21 806.23,-213.05 801.68,-218.37"/>
</a>
</g>
</g>
<!-- Node20 -->
<g id="Node000020" class="node">
<title>Node20</title>
<g id="a_Node000020"><a xlink:href="material_8c.html#a3243950933f3559f19edcb5421360526" target="_top" xlink:title=" ">
<polygon fill="white" stroke="#666666" points="764,-88.61 628,-88.61 628,-69.61 764,-69.61 764,-88.61"/>
<text text-anchor="middle" x="696" y="-76.61" font-family="Helvetica,sans-Serif" font-size="10.00">CalcCurvStressStrainxyz</text>
</a>
</g>
</g>
<!-- Node14&#45;&gt;Node20 -->
<g id="edge23_Node000014_Node000020" class="edge">
<title>Node14&#45;&gt;Node20</title>
<g id="a_edge23_Node000014_Node000020"><a xlink:title=" ">
<path fill="none" stroke="#63b8ff" d="M533.28,-277.51C547.63,-263.74 573.93,-237.18 592,-211.11 611.93,-182.36 606.84,-168.97 628,-141.11 641.26,-123.66 659.74,-106.97 673.94,-95.31"/>
<polygon fill="#63b8ff" stroke="#63b8ff" points="676.53,-97.72 682.14,-88.74 672.15,-92.26 676.53,-97.72"/>
</a>
</g>
</g>
<!-- Node21 -->
<g id="Node000021" class="node">
<title>Node21</title>
<g id="a_Node000021"><a xlink:href="material_8c.html#aa93862cca1fe83c736219df7d4a91374" target="_top" xlink:title=" ">
<polygon fill="white" stroke="#666666" points="755.5,-315.61 636.5,-315.61 636.5,-296.61 755.5,-296.61 755.5,-315.61"/>
<text text-anchor="middle" x="696" y="-303.61" font-family="Helvetica,sans-Serif" font-size="10.00">MembraneNonLinear</text>
</a>
</g>
</g>
<!-- Node14&#45;&gt;Node21 -->
<g id="edge29_Node000014_Node000021" class="edge">
<title>Node14&#45;&gt;Node21</title>
<g id="a_edge29_Node000014_Node000021"><a xlink:title=" ">
<path fill="none" stroke="#63b8ff" d="M553.35,-290.46C573.62,-292.7 601.1,-295.74 626.47,-298.54"/>
<polygon fill="#63b8ff" stroke="#63b8ff" points="626.12,-302.02 636.44,-299.64 626.89,-295.07 626.12,-302.02"/>
</a>
</g>
</g>
<!-- Node22 -->
<g id="Node000022" class="node">
<title>Node22</title>
<g id="a_Node000022"><a xlink:href="math_8c.html#ae18926821a703a2c5b281bd890b7e6a0" target="_top" xlink:title=" ">
<polygon fill="white" stroke="#666666" points="716.5,-389.61 675.5,-389.61 675.5,-370.61 716.5,-370.61 716.5,-389.61"/>
<text text-anchor="middle" x="696" y="-377.61" font-family="Helvetica,sans-Serif" font-size="10.00">PLUS</text>
</a>
</g>
</g>
<!-- Node14&#45;&gt;Node22 -->
<g id="edge37_Node000014_Node000022" class="edge">
<title>Node14&#45;&gt;Node22</title>
<g id="a_edge37_Node000014_Node000022"><a xlink:title=" ">
<path fill="none" stroke="#63b8ff" d="M553.29,-290.56C566.18,-293.2 580.79,-297.87 592,-306.11 615.84,-323.64 604.11,-344.66 628,-362.11 638.87,-370.05 653.01,-374.49 665.5,-376.97"/>
<polygon fill="#63b8ff" stroke="#63b8ff" points="665.05,-380.44 675.49,-378.62 666.2,-373.54 665.05,-380.44"/>
</a>
</g>
</g>
<!-- Node23 -->
<g id="Node000023" class="node">
<title>Node23</title>
<g id="a_Node000023"><a xlink:href="material_8c.html#a431e1e9b5ceabfa4edc2920b70296b35" target="_top" xlink:title=" ">
<polygon fill="white" stroke="#666666" points="734.5,-202.61 657.5,-202.61 657.5,-183.61 734.5,-183.61 734.5,-202.61"/>
<text text-anchor="middle" x="696" y="-190.61" font-family="Helvetica,sans-Serif" font-size="10.00">StressLinear</text>
</a>
</g>
</g>
<!-- Node14&#45;&gt;Node23 -->
<g id="edge39_Node000014_Node000023" class="edge">
<title>Node14&#45;&gt;Node23</title>
<g id="a_edge39_Node000014_Node000023"><a xlink:title=" ">
<path fill="none" stroke="#63b8ff" d="M535.32,-277.44C554.34,-262.85 592.38,-235.03 628,-217.11 636.1,-213.04 645.06,-209.33 653.73,-206.11"/>
<polygon fill="#63b8ff" stroke="#63b8ff" points="655.08,-209.34 663.32,-202.69 652.72,-202.75 655.08,-209.34"/>
</a>
</g>
</g>
<!-- Node24 -->
<g id="Node000024" class="node">
<title>Node24</title>
<g id="a_Node000024"><a xlink:href="material_8c.html#aad0d0c11a159f8021feb99ddee475d31" target="_top" xlink:title=" ">
<polygon fill="white" stroke="#666666" points="753,-278.61 639,-278.61 639,-259.61 753,-259.61 753,-278.61"/>
<text text-anchor="middle" x="696" y="-266.61" font-family="Helvetica,sans-Serif" font-size="10.00">StressManufactured</text>
</a>
</g>
</g>
<!-- Node14&#45;&gt;Node24 -->
<g id="edge45_Node000014_Node000024" class="edge">
<title>Node14&#45;&gt;Node24</title>
<g id="a_edge45_Node000014_Node000024"><a xlink:title=" ">
<path fill="none" stroke="#63b8ff" d="M553.35,-283.93C574.21,-281.75 602.73,-278.77 628.7,-276.05"/>
<polygon fill="#63b8ff" stroke="#63b8ff" points="629.31,-279.5 638.89,-274.98 628.58,-272.54 629.31,-279.5"/>
</a>
</g>
</g>
<!-- Node16&#45;&gt;Node4 -->
<g id="edge16_Node000016_Node000004" class="edge">
<title>Node16&#45;&gt;Node4</title>
<g id="a_edge16_Node000016_Node000004"><a xlink:title=" ">
<path fill="none" stroke="#63b8ff" d="M749.02,-343.11C762.83,-343.11 777.39,-343.11 789.96,-343.11"/>
<polygon fill="#63b8ff" stroke="#63b8ff" points="790,-346.61 800,-343.11 790,-339.61 790,-346.61"/>
</a>
</g>
</g>
<!-- Node16&#45;&gt;Node5 -->
<g id="edge19_Node000016_Node000005" class="edge">
<title>Node16&#45;&gt;Node5</title>
<g id="a_edge19_Node000016_Node000005"><a xlink:title=" ">
<path fill="none" stroke="#63b8ff" d="M745.53,-333.52C751.97,-331.27 758.31,-328.5 764,-325.11 783.98,-313.2 782.63,-302.59 800,-287.11 800.82,-286.38 801.66,-285.65 802.52,-284.93"/>
<polygon fill="#63b8ff" stroke="#63b8ff" points="804.81,-287.58 810.48,-278.63 800.47,-282.09 804.81,-287.58"/>
</a>
</g>
</g>
<!-- Node16&#45;&gt;Node6 -->
<g id="edge21_Node000016_Node000006" class="edge">
<title>Node16&#45;&gt;Node6</title>
<g id="a_edge21_Node000016_Node000006"><a xlink:title=" ">
<path fill="none" stroke="#63b8ff" d="M747.84,-352.71C753.65,-355.17 759.2,-358.25 764,-362.11 793.94,-386.21 810.92,-429.38 818.71,-454.5"/>
<polygon fill="#63b8ff" stroke="#63b8ff" points="815.42,-455.73 821.58,-464.35 822.14,-453.77 815.42,-455.73"/>
</a>
</g>
</g>
<!-- Node16&#45;&gt;Node7 -->
<g id="edge22_Node000016_Node000007" class="edge">
<title>Node16&#45;&gt;Node7</title>
<g id="a_edge22_Node000016_Node000007"><a xlink:title=" ">
<path fill="none" stroke="#63b8ff" d="M733.59,-333.59C743.49,-330.94 754.17,-327.99 764,-325.11 774.04,-322.17 784.96,-318.78 794.7,-315.67"/>
<polygon fill="#63b8ff" stroke="#63b8ff" points="795.89,-318.97 804.34,-312.58 793.75,-312.3 795.89,-318.97"/>
</a>
</g>
</g>
<!-- Node16&#45;&gt;Node17 -->
<g id="edge17_Node000016_Node000017" class="edge">
<title>Node16&#45;&gt;Node17</title>
<g id="a_edge17_Node000016_Node000017"><a xlink:title=" ">
<path fill="none" stroke="#63b8ff" d="M749.19,-334.82C754.63,-332.35 759.73,-329.18 764,-325.11 801.86,-289.05 770.22,-256.08 800,-213.11 800.53,-212.35 801.1,-211.6 801.7,-210.87"/>
<polygon fill="#63b8ff" stroke="#63b8ff" points="804.28,-213.24 809,-203.75 799.4,-208.22 804.28,-213.24"/>
</a>
</g>
</g>
<!-- Node16&#45;&gt;Node18 -->
<g id="edge18_Node000016_Node000018" class="edge">
<title>Node16&#45;&gt;Node18</title>
<g id="a_edge18_Node000016_Node000018"><a xlink:title=" ">
<path fill="none" stroke="#63b8ff" d="M749.01,-334.09C754.42,-331.74 759.55,-328.8 764,-325.11 792.45,-301.49 776.54,-278.69 800,-250.11 800.39,-249.63 800.8,-249.16 801.22,-248.69"/>
<polygon fill="#63b8ff" stroke="#63b8ff" points="803.79,-251.09 808.82,-241.76 799.07,-245.92 803.79,-251.09"/>
</a>
</g>
</g>
<!-- Node19 -->
<g id="Node000019" class="node">
<title>Node19</title>
<g id="a_Node000019"><a xlink:href="math_8c.html#ae6a53927765c25c58815e47fea096a67" target="_top" xlink:title=" ">
<polygon fill="white" stroke="#666666" points="845.5,-389.61 804.5,-389.61 804.5,-370.61 845.5,-370.61 845.5,-389.61"/>
<text text-anchor="middle" x="825" y="-377.61" font-family="Helvetica,sans-Serif" font-size="10.00">SIGN</text>
</a>
</g>
</g>
<!-- Node16&#45;&gt;Node19 -->
<g id="edge20_Node000016_Node000019" class="edge">
<title>Node16&#45;&gt;Node19</title>
<g id="a_edge20_Node000016_Node000019"><a xlink:title=" ">
<path fill="none" stroke="#63b8ff" d="M731.11,-352.68C741.67,-355.67 753.32,-359 764,-362.11 774,-365.03 784.91,-368.28 794.65,-371.21"/>
<polygon fill="#63b8ff" stroke="#63b8ff" points="793.71,-374.58 804.3,-374.12 795.73,-367.88 793.71,-374.58"/>
</a>
</g>
</g>
<!-- Node20&#45;&gt;Node5 -->
<g id="edge25_Node000020_Node000005" class="edge">
<title>Node20&#45;&gt;Node5</title>
<g id="a_edge25_Node000020_Node000005"><a xlink:title=" ">
<path fill="none" stroke="#63b8ff" d="M742.89,-88.68C750.79,-92.12 758.29,-96.78 764,-103.11 809.03,-153.08 763.66,-193.51 800,-250.11 800.5,-250.89 801.05,-251.66 801.63,-252.4"/>
<polygon fill="#63b8ff" stroke="#63b8ff" points="799.28,-255 808.82,-259.59 804.22,-250.05 799.28,-255"/>
</a>
</g>
</g>
<!-- Node20&#45;&gt;Node18 -->
<g id="edge24_Node000020_Node000018" class="edge">
<title>Node20&#45;&gt;Node18</title>
<g id="a_edge24_Node000020_Node000018"><a xlink:title=" ">
<path fill="none" stroke="#63b8ff" d="M741.46,-88.61C749.77,-92.06 757.79,-96.74 764,-103.11 799.62,-139.63 771.3,-169.93 800,-212.11 800.74,-213.2 801.55,-214.25 802.42,-215.28"/>
<polygon fill="#63b8ff" stroke="#63b8ff" points="800.18,-217.99 809.78,-222.47 805.07,-212.98 800.18,-217.99"/>
</a>
</g>
</g>
<!-- Node21&#45;&gt;Node4 -->
<g id="edge30_Node000021_Node000004" class="edge">
<title>Node21&#45;&gt;Node4</title>
<g id="a_edge30_Node000021_Node000004"><a xlink:title=" ">
<path fill="none" stroke="#63b8ff" d="M731.11,-315.68C741.67,-318.67 753.32,-322 764,-325.11 772.48,-327.59 781.62,-330.3 790.14,-332.86"/>
<polygon fill="#63b8ff" stroke="#63b8ff" points="789.21,-336.23 799.79,-335.76 791.23,-329.53 789.21,-336.23"/>
</a>
</g>
</g>
<!-- Node21&#45;&gt;Node5 -->
<g id="edge33_Node000021_Node000005" class="edge">
<title>Node21&#45;&gt;Node5</title>
<g id="a_edge33_Node000021_Node000005"><a xlink:title=" ">
<path fill="none" stroke="#63b8ff" d="M731.11,-296.54C741.67,-293.56 753.32,-290.23 764,-287.11 772.48,-284.64 781.62,-281.92 790.14,-279.37"/>
<polygon fill="#63b8ff" stroke="#63b8ff" points="791.23,-282.7 799.79,-276.46 789.21,-275.99 791.23,-282.7"/>
</a>
</g>
</g>
<!-- Node21&#45;&gt;Node6 -->
<g id="edge34_Node000021_Node000006" class="edge">
<title>Node21&#45;&gt;Node6</title>
<g id="a_edge34_Node000021_Node000006"><a xlink:title=" ">
<path fill="none" stroke="#63b8ff" d="M749.27,-315.67C754.63,-318.14 759.68,-321.23 764,-325.11 774.14,-334.23 803.82,-416.41 817.25,-454.67"/>
<polygon fill="#63b8ff" stroke="#63b8ff" points="813.98,-455.91 820.58,-464.2 820.59,-453.61 813.98,-455.91"/>
</a>
</g>
</g>
<!-- Node21&#45;&gt;Node7 -->
<g id="edge35_Node000021_Node000007" class="edge">
<title>Node21&#45;&gt;Node7</title>
<g id="a_edge35_Node000021_Node000007"><a xlink:title=" ">
<path fill="none" stroke="#63b8ff" d="M755.67,-306.11C768.97,-306.11 782.55,-306.11 794.06,-306.11"/>
<polygon fill="#63b8ff" stroke="#63b8ff" points="794.39,-309.61 804.39,-306.11 794.39,-302.61 794.39,-309.61"/>
</a>
</g>
</g>
<!-- Node21&#45;&gt;Node17 -->
<g id="edge31_Node000021_Node000017" class="edge">
<title>Node21&#45;&gt;Node17</title>
<g id="a_edge31_Node000021_Node000017"><a xlink:title=" ">
<path fill="none" stroke="#63b8ff" d="M748.33,-296.54C753.99,-294.08 759.37,-290.99 764,-287.11 792.04,-263.63 777.09,-241.62 800,-213.11 800.58,-212.39 801.2,-211.67 801.84,-210.97"/>
<polygon fill="#63b8ff" stroke="#63b8ff" points="804.39,-213.37 809.34,-204.01 799.63,-208.24 804.39,-213.37"/>
</a>
</g>
</g>
<!-- Node21&#45;&gt;Node18 -->
<g id="edge32_Node000021_Node000018" class="edge">
<title>Node21&#45;&gt;Node18</title>
<g id="a_edge32_Node000021_Node000018"><a xlink:title=" ">
<path fill="none" stroke="#63b8ff" d="M743.02,-296.53C750.31,-294.04 757.56,-290.95 764,-287.11 783.71,-275.36 782.77,-265.26 800,-250.11 800.82,-249.39 801.67,-248.66 802.53,-247.94"/>
<polygon fill="#63b8ff" stroke="#63b8ff" points="804.82,-250.6 810.51,-241.66 800.49,-245.1 804.82,-250.6"/>
</a>
</g>
</g>
<!-- Node23&#45;&gt;Node4 -->
<g id="edge40_Node000023_Node000004" class="edge">
<title>Node23&#45;&gt;Node4</title>
<g id="a_edge40_Node000023_Node000004"><a xlink:title=" ">
<path fill="none" stroke="#63b8ff" d="M711.63,-202.79C726.36,-213.11 748.99,-230.64 764,-250.11 786.57,-279.4 776.54,-296.53 800,-325.11 800.39,-325.59 800.8,-326.06 801.22,-326.53"/>
<polygon fill="#63b8ff" stroke="#63b8ff" points="799.07,-329.31 808.82,-333.47 803.79,-324.14 799.07,-329.31"/>
</a>
</g>
</g>
<!-- Node23&#45;&gt;Node5 -->
<g id="edge43_Node000023_Node000005" class="edge">
<title>Node23&#45;&gt;Node5</title>
<g id="a_edge43_Node000023_Node000005"><a xlink:title=" ">
<path fill="none" stroke="#63b8ff" d="M731.93,-202.69C742.63,-206.38 754.16,-211.17 764,-217.11 782.58,-228.33 783.48,-236.03 800,-250.11 801,-250.96 802.03,-251.83 803.08,-252.7"/>
<polygon fill="#63b8ff" stroke="#63b8ff" points="801.18,-255.66 811.16,-259.22 805.58,-250.22 801.18,-255.66"/>
</a>
</g>
</g>
<!-- Node23&#45;&gt;Node7 -->
<g id="edge44_Node000023_Node000007" class="edge">
<title>Node23&#45;&gt;Node7</title>
<g id="a_edge44_Node000023_Node000007"><a xlink:title=" ">
<path fill="none" stroke="#63b8ff" d="M709.16,-202.87C722.81,-213.97 745.49,-232.79 764,-250.11 780.76,-265.78 782.97,-271.74 800,-287.11 800.98,-287.99 801.99,-288.88 803.02,-289.77"/>
<polygon fill="#63b8ff" stroke="#63b8ff" points="801.09,-292.71 811.04,-296.35 805.53,-287.3 801.09,-292.71"/>
</a>
</g>
</g>
<!-- Node23&#45;&gt;Node17 -->
<g id="edge41_Node000023_Node000017" class="edge">
<title>Node23&#45;&gt;Node17</title>
<g id="a_edge41_Node000023_Node000017"><a xlink:title=" ">
<path fill="none" stroke="#63b8ff" d="M734.76,-193.41C754.35,-193.56 777.87,-193.75 795.85,-193.89"/>
<polygon fill="#63b8ff" stroke="#63b8ff" points="795.95,-197.39 805.98,-193.97 796.01,-190.39 795.95,-197.39"/>
</a>
</g>
</g>
<!-- Node23&#45;&gt;Node18 -->
<g id="edge42_Node000023_Node000018" class="edge">
<title>Node23&#45;&gt;Node18</title>
<g id="a_edge42_Node000023_Node000018"><a xlink:title=" ">
<path fill="none" stroke="#63b8ff" d="M728.07,-202.65C749.58,-209.26 777.88,-217.95 798.16,-224.18"/>
<polygon fill="#63b8ff" stroke="#63b8ff" points="797.36,-227.59 807.95,-227.18 799.42,-220.9 797.36,-227.59"/>
</a>
</g>
</g>
<!-- Node24&#45;&gt;Node4 -->
<g id="edge46_Node000024_Node000004" class="edge">
<title>Node24&#45;&gt;Node4</title>
<g id="a_edge46_Node000024_Node000004"><a xlink:title=" ">
<path fill="none" stroke="#63b8ff" d="M745.53,-278.7C751.97,-280.95 758.31,-283.72 764,-287.11 783.98,-299.02 782.63,-309.63 800,-325.11 800.82,-325.84 801.66,-326.57 802.52,-327.29"/>
<polygon fill="#63b8ff" stroke="#63b8ff" points="800.47,-330.13 810.48,-333.6 804.81,-324.64 800.47,-330.13"/>
</a>
</g>
</g>
<!-- Node24&#45;&gt;Node5 -->
<g id="edge49_Node000024_Node000005" class="edge">
<title>Node24&#45;&gt;Node5</title>
<g id="a_edge49_Node000024_Node000005"><a xlink:title=" ">
<path fill="none" stroke="#63b8ff" d="M753.07,-269.11C765.46,-269.11 778.23,-269.11 789.46,-269.11"/>
<polygon fill="#63b8ff" stroke="#63b8ff" points="789.7,-272.61 799.7,-269.11 789.7,-265.61 789.7,-272.61"/>
</a>
</g>
</g>
<!-- Node24&#45;&gt;Node7 -->
<g id="edge50_Node000024_Node000007" class="edge">
<title>Node24&#45;&gt;Node7</title>
<g id="a_edge50_Node000024_Node000007"><a xlink:title=" ">
<path fill="none" stroke="#63b8ff" d="M733.59,-278.63C743.49,-281.29 754.17,-284.24 764,-287.11 774.04,-290.05 784.96,-293.45 794.7,-296.55"/>
<polygon fill="#63b8ff" stroke="#63b8ff" points="793.75,-299.92 804.34,-299.64 795.89,-293.25 793.75,-299.92"/>
</a>
</g>
</g>
<!-- Node24&#45;&gt;Node17 -->
<g id="edge47_Node000024_Node000017" class="edge">
<title>Node24&#45;&gt;Node17</title>
<g id="a_edge47_Node000024_Node000017"><a xlink:title=" ">
<path fill="none" stroke="#63b8ff" d="M713.34,-259.46C735.06,-246.63 773.64,-223.85 799.02,-208.86"/>
<polygon fill="#63b8ff" stroke="#63b8ff" points="800.89,-211.82 807.72,-203.73 797.33,-205.8 800.89,-211.82"/>
</a>
</g>
</g>
<!-- Node24&#45;&gt;Node18 -->
<g id="edge48_Node000024_Node000018" class="edge">
<title>Node24&#45;&gt;Node18</title>
<g id="a_edge48_Node000024_Node000018"><a xlink:title=" ">
<path fill="none" stroke="#63b8ff" d="M729.71,-259.58C750.89,-253.41 778.1,-245.48 797.84,-239.73"/>
<polygon fill="#63b8ff" stroke="#63b8ff" points="799.06,-243.02 807.69,-236.86 797.11,-236.3 799.06,-243.02"/>
</a>
</g>
</g>
<!-- Node25&#45;&gt;Node5 -->
<g id="edge56_Node000025_Node000005" class="edge">
<title>Node25&#45;&gt;Node5</title>
<g id="a_edge56_Node000025_Node000005"><a xlink:title=" ">
<path fill="none" stroke="#63b8ff" d="M560.28,-184.85C619.34,-172.62 731.11,-153.29 764,-174.11 795.58,-194.1 776.74,-220.86 800,-250.11 800.58,-250.84 801.19,-251.56 801.83,-252.26"/>
<polygon fill="#63b8ff" stroke="#63b8ff" points="799.62,-254.98 809.32,-259.24 804.39,-249.86 799.62,-254.98"/>
</a>
</g>
</g>
<!-- Node25&#45;&gt;Node17 -->
<g id="edge54_Node000025_Node000017" class="edge">
<title>Node25&#45;&gt;Node17</title>
<g id="a_edge54_Node000025_Node000017"><a xlink:title=" ">
<path fill="none" stroke="#63b8ff" d="M560.07,-190.23C571.66,-187.58 583.6,-182.75 592,-174.11 638.88,-125.87 575.08,-68.63 628,-27.11 675.55,10.2 714.56,7.66 764,-27.11 812.21,-61.01 821.87,-137.5 823.68,-174"/>
<polygon fill="#63b8ff" stroke="#63b8ff" points="820.19,-174.46 824.03,-184.34 827.19,-174.22 820.19,-174.46"/>
</a>
</g>
</g>
<!-- Node25&#45;&gt;Node20 -->
<g id="edge53_Node000025_Node000020" class="edge">
<title>Node25&#45;&gt;Node20</title>
<g id="a_edge53_Node000025_Node000020"><a xlink:title=" ">
<path fill="none" stroke="#63b8ff" d="M560.06,-188.79C571.25,-186.03 582.96,-181.5 592,-174.11 619.4,-151.72 601.47,-126.51 628,-103.11 632.57,-99.08 637.87,-95.71 643.44,-92.9"/>
<polygon fill="#63b8ff" stroke="#63b8ff" points="645.27,-95.92 653,-88.67 642.44,-89.51 645.27,-95.92"/>
</a>
</g>
</g>
<!-- Node25&#45;&gt;Node21 -->
<g id="edge55_Node000025_Node000021" class="edge">
<title>Node25&#45;&gt;Node21</title>
<g id="a_edge55_Node000025_Node000021"><a xlink:title=" ">
<path fill="none" stroke="#63b8ff" d="M530.92,-202.66C547.16,-221.61 586.2,-264.1 628,-287.11 632.15,-289.4 636.6,-291.43 641.16,-293.23"/>
<polygon fill="#63b8ff" stroke="#63b8ff" points="640.02,-296.54 650.62,-296.61 642.38,-289.95 640.02,-296.54"/>
</a>
</g>
</g>
<!-- Node25&#45;&gt;Node23 -->
<g id="edge57_Node000025_Node000023" class="edge">
<title>Node25&#45;&gt;Node23</title>
<g id="a_edge57_Node000025_Node000023"><a xlink:title=" ">
<path fill="none" stroke="#63b8ff" d="M560.32,-193.11C585.82,-193.11 619.82,-193.11 647.28,-193.11"/>
<polygon fill="#63b8ff" stroke="#63b8ff" points="647.45,-196.61 657.45,-193.11 647.45,-189.61 647.45,-196.61"/>
</a>
</g>
</g>
<!-- Node31 -->
<g id="Node000031" class="node">
<title>Node31</title>
<g id="a_Node000031"><a xlink:href="inverse_8c.html#aa86a3f42aa804c15314348da4b973486" target="_top" xlink:title=" ">
<polygon fill="white" stroke="#666666" points="416,-259.61 303,-259.61 303,-240.61 416,-240.61 416,-259.61"/>
<text text-anchor="middle" x="359.5" y="-247.61" font-family="Helvetica,sans-Serif" font-size="10.00">reset_Lin_E_epsilon</text>
</a>
</g>
</g>
<!-- Node30&#45;&gt;Node31 -->
<g id="edge63_Node000030_Node000031" class="edge">
<title>Node30&#45;&gt;Node31</title>
<g id="a_edge63_Node000030_Node000031"><a xlink:title=" ">
<path fill="none" stroke="#63b8ff" d="M219.39,-321.4C237.09,-307.92 271,-283.46 303,-268.11 306.75,-266.31 310.73,-264.63 314.76,-263.07"/>
<polygon fill="#63b8ff" stroke="#63b8ff" points="315.97,-266.35 324.19,-259.65 313.59,-259.77 315.97,-266.35"/>
</a>
</g>
</g>
</g>
</svg>
