<?xml version="1.0" encoding="UTF-8" standalone="no"?>
<!DOCTYPE svg PUBLIC "-//W3C//DTD SVG 1.1//EN"
 "http://www.w3.org/Graphics/SVG/1.1/DTD/svg11.dtd">
<!-- Generated by graphviz version 2.43.0 (0)
 -->
<!-- Title: reset_Fung_epsilon Pages: 1 -->
<svg width="582pt" height="122pt"
 viewBox="0.00 0.00 582.00 122.07" xmlns="http://www.w3.org/2000/svg" xmlns:xlink="http://www.w3.org/1999/xlink">
<g id="graph0" class="graph" transform="scale(1 1) rotate(0) translate(4 118.07)">
<title>reset_Fung_epsilon</title>
<!-- Node1 -->
<g id="Node000001" class="node">
<title>Node1</title>
<g id="a_Node000001"><a xlink:title=" ">
<polygon fill="#999999" stroke="#666666" points="574,-75 464,-75 464,-56 574,-56 574,-75"/>
<text text-anchor="middle" x="519" y="-63" font-family="Helvetica,sans-Serif" font-size="10.00">reset_Fung_epsilon</text>
</a>
</g>
</g>
<!-- Node2 -->
<g id="Node000002" class="node">
<title>Node2</title>
<g id="a_Node000002"><a xlink:href="inverse_8c.html#a5a46d0c408c2a4905101ca00ed320825" target="_top" xlink:title=" ">
<polygon fill="white" stroke="#666666" points="264.5,-93 183.5,-93 183.5,-74 264.5,-74 264.5,-93"/>
<text text-anchor="middle" x="224" y="-81" font-family="Helvetica,sans-Serif" font-size="10.00">FungJacobian</text>
</a>
</g>
</g>
<!-- Node1&#45;&gt;Node2 -->
<g id="edge1_Node000001_Node000002" class="edge">
<title>Node1&#45;&gt;Node2</title>
<g id="a_edge1_Node000001_Node000002"><a xlink:title=" ">
<path fill="none" stroke="#63b8ff" d="M453.81,-69.44C396.13,-72.99 313.25,-78.08 264.68,-81.06"/>
<polygon fill="#63b8ff" stroke="#63b8ff" points="454.15,-72.93 463.92,-68.82 453.72,-65.94 454.15,-72.93"/>
</a>
</g>
</g>
<!-- Node3 -->
<g id="Node000003" class="node">
<title>Node3</title>
<g id="a_Node000003"><a xlink:href="inverse_8c.html#a63c0a7ac76584f0dab82764698b5d878" target="_top" xlink:title=" ">
<polygon fill="white" stroke="#666666" points="139,-74 77,-74 77,-55 139,-55 139,-74"/>
<text text-anchor="middle" x="108" y="-62" font-family="Helvetica,sans-Serif" font-size="10.00">InvSolver</text>
</a>
</g>
</g>
<!-- Node1&#45;&gt;Node3 -->
<g id="edge6_Node000001_Node000003" class="edge">
<title>Node1&#45;&gt;Node3</title>
<g id="a_edge6_Node000001_Node000003"><a xlink:title=" ">
<path fill="none" stroke="#63b8ff" d="M481.22,-78.12C417.69,-98.01 283.75,-131.57 175,-102.5 154.56,-97.04 133.89,-83.56 121.26,-74.22"/>
<polygon fill="#63b8ff" stroke="#63b8ff" points="482.34,-81.43 490.8,-75.05 480.21,-74.77 482.34,-81.43"/>
</a>
</g>
</g>
<!-- Node5 -->
<g id="Node000005" class="node">
<title>Node5</title>
<g id="a_Node000005"><a xlink:href="inverse_8c.html#a6dcb60291ae68ad8fa0ccea39658279a" target="_top" xlink:title=" ">
<polygon fill="white" stroke="#666666" points="273,-19 175,-19 175,0 273,0 273,-19"/>
<text text-anchor="middle" x="224" y="-7" font-family="Helvetica,sans-Serif" font-size="10.00">FungUniJacobian</text>
</a>
</g>
</g>
<!-- Node1&#45;&gt;Node5 -->
<g id="edge4_Node000001_Node000005" class="edge">
<title>Node1&#45;&gt;Node5</title>
<g id="a_edge4_Node000001_Node000005"><a xlink:title=" ">
<path fill="none" stroke="#63b8ff" d="M490.92,-51.45C473.44,-43.04 449.94,-32.96 428,-27.5 376.16,-14.59 314.85,-10.65 273.27,-9.59"/>
<polygon fill="#63b8ff" stroke="#63b8ff" points="489.45,-54.62 499.96,-55.9 492.54,-48.34 489.45,-54.62"/>
</a>
</g>
</g>
<!-- Node6 -->
<g id="Node000006" class="node">
<title>Node6</title>
<g id="a_Node000006"><a xlink:href="inverse_8c.html#adcdbfe299a117284d357b2a9c0b84c44" target="_top" xlink:title=" ">
<polygon fill="white" stroke="#666666" points="428,-56 309,-56 309,-37 428,-37 428,-56"/>
<text text-anchor="middle" x="368.5" y="-44" font-family="Helvetica,sans-Serif" font-size="10.00">update_Fung_epsilon</text>
</a>
</g>
</g>
<!-- Node1&#45;&gt;Node6 -->
<g id="edge7_Node000001_Node000006" class="edge">
<title>Node1&#45;&gt;Node6</title>
<g id="a_edge7_Node000001_Node000006"><a xlink:title=" ">
<path fill="none" stroke="#63b8ff" d="M453.96,-57.31C445.33,-56.2 436.52,-55.08 428,-53.99"/>
<polygon fill="#63b8ff" stroke="#63b8ff" points="453.6,-60.79 463.97,-58.59 454.49,-53.85 453.6,-60.79"/>
</a>
</g>
</g>
<!-- Node2&#45;&gt;Node3 -->
<g id="edge2_Node000002_Node000003" class="edge">
<title>Node2&#45;&gt;Node3</title>
<g id="a_edge2_Node000002_Node000003"><a xlink:title=" ">
<path fill="none" stroke="#63b8ff" d="M173.36,-75.23C161.71,-73.28 149.63,-71.27 139.13,-69.52"/>
<polygon fill="#63b8ff" stroke="#63b8ff" points="173.01,-78.72 183.45,-76.91 174.16,-71.81 173.01,-78.72"/>
</a>
</g>
</g>
<!-- Node4 -->
<g id="Node000004" class="node">
<title>Node4</title>
<g id="a_Node000004"><a xlink:href="main_8c.html#a3c04138a5bfe5d72780bb7e82a18e627" target="_top" xlink:title=" ">
<polygon fill="white" stroke="#666666" points="41,-74 0,-74 0,-55 41,-55 41,-74"/>
<text text-anchor="middle" x="20.5" y="-62" font-family="Helvetica,sans-Serif" font-size="10.00">main</text>
</a>
</g>
</g>
<!-- Node3&#45;&gt;Node4 -->
<g id="edge3_Node000003_Node000004" class="edge">
<title>Node3&#45;&gt;Node4</title>
<g id="a_edge3_Node000003_Node000004"><a xlink:title=" ">
<path fill="none" stroke="#63b8ff" d="M66.42,-64.5C57.6,-64.5 48.67,-64.5 41.11,-64.5"/>
<polygon fill="#63b8ff" stroke="#63b8ff" points="66.62,-68 76.62,-64.5 66.62,-61 66.62,-68"/>
</a>
</g>
</g>
<!-- Node5&#45;&gt;Node3 -->
<g id="edge5_Node000005_Node000003" class="edge">
<title>Node5&#45;&gt;Node3</title>
<g id="a_edge5_Node000005_Node000003"><a xlink:title=" ">
<path fill="none" stroke="#63b8ff" d="M185.69,-22.85C182.04,-24.35 178.43,-25.91 175,-27.5 157.13,-35.8 137.54,-47.08 124.38,-54.99"/>
<polygon fill="#63b8ff" stroke="#63b8ff" points="187.27,-25.99 195.29,-19.07 184.7,-19.48 187.27,-25.99"/>
</a>
</g>
</g>
<!-- Node6&#45;&gt;Node2 -->
<g id="edge8_Node000006_Node000002" class="edge">
<title>Node6&#45;&gt;Node2</title>
<g id="a_edge8_Node000006_Node000002"><a xlink:title=" ">
<path fill="none" stroke="#63b8ff" d="M321.08,-58.55C301.96,-63.52 280.1,-69.19 262.07,-73.88"/>
<polygon fill="#63b8ff" stroke="#63b8ff" points="322,-61.93 330.8,-56.03 320.24,-55.15 322,-61.93"/>
</a>
</g>
</g>
<!-- Node6&#45;&gt;Node5 -->
<g id="edge9_Node000006_Node000005" class="edge">
<title>Node6&#45;&gt;Node5</title>
<g id="a_edge9_Node000006_Node000005"><a xlink:title=" ">
<path fill="none" stroke="#63b8ff" d="M321.08,-34.45C301.96,-29.48 280.1,-23.81 262.07,-19.12"/>
<polygon fill="#63b8ff" stroke="#63b8ff" points="320.24,-37.85 330.8,-36.97 322,-31.07 320.24,-37.85"/>
</a>
</g>
</g>
<!-- Node7 -->
<g id="Node000007" class="node">
<title>Node7</title>
<g id="a_Node000007"><a xlink:href="inverse_8c.html#a9c6b1db7cc8e3f7771140e7920429ab3" target="_top" xlink:title=" ">
<polygon fill="white" stroke="#666666" points="253,-56 195,-56 195,-37 253,-37 253,-56"/>
<text text-anchor="middle" x="224" y="-44" font-family="Helvetica,sans-Serif" font-size="10.00">Jacobian</text>
</a>
</g>
</g>
<!-- Node6&#45;&gt;Node7 -->
<g id="edge10_Node000006_Node000007" class="edge">
<title>Node6&#45;&gt;Node7</title>
<g id="a_edge10_Node000006_Node000007"><a xlink:title=" ">
<path fill="none" stroke="#63b8ff" d="M298.3,-46.5C282.36,-46.5 266.29,-46.5 253.27,-46.5"/>
<polygon fill="#63b8ff" stroke="#63b8ff" points="298.72,-50 308.72,-46.5 298.72,-43 298.72,-50"/>
</a>
</g>
</g>
<!-- Node7&#45;&gt;Node3 -->
<g id="edge11_Node000007_Node000003" class="edge">
<title>Node7&#45;&gt;Node3</title>
<g id="a_edge11_Node000007_Node000003"><a xlink:title=" ">
<path fill="none" stroke="#63b8ff" d="M184.9,-52.52C170.04,-54.86 153.25,-57.51 139.25,-59.72"/>
<polygon fill="#63b8ff" stroke="#63b8ff" points="185.49,-55.97 194.82,-50.95 184.4,-49.05 185.49,-55.97"/>
</a>
</g>
</g>
</g>
</svg>
