<?xml version="1.0" encoding="UTF-8" standalone="no"?>
<!DOCTYPE svg PUBLIC "-//W3C//DTD SVG 1.1//EN"
 "http://www.w3.org/Graphics/SVG/1.1/DTD/svg11.dtd">
<!-- Generated by graphviz version 2.43.0 (0)
 -->
<!-- Title: reset_Lin_E_epsilon Pages: 1 -->
<svg width="599pt" height="27pt"
 viewBox="0.00 0.00 599.00 27.00" xmlns="http://www.w3.org/2000/svg" xmlns:xlink="http://www.w3.org/1999/xlink">
<g id="graph0" class="graph" transform="scale(1 1) rotate(0) translate(4 23)">
<title>reset_Lin_E_epsilon</title>
<!-- Node1 -->
<g id="Node000001" class="node">
<title>Node1</title>
<g id="a_Node000001"><a xlink:title=" ">
<polygon fill="#999999" stroke="#666666" points="591,-19 478,-19 478,0 591,0 591,-19"/>
<text text-anchor="middle" x="534.5" y="-7" font-family="Helvetica,sans-Serif" font-size="10.00">reset_Lin_E_epsilon</text>
</a>
</g>
</g>
<!-- Node2 -->
<g id="Node000002" class="node">
<title>Node2</title>
<g id="a_Node000002"><a xlink:href="inverse_8c.html#aa676fe953108111fad03e84687615005" target="_top" xlink:title=" ">
<polygon fill="white" stroke="#666666" points="442,-19 320,-19 320,0 442,0 442,-19"/>
<text text-anchor="middle" x="381" y="-7" font-family="Helvetica,sans-Serif" font-size="10.00">update_Lin_E_epsilon</text>
</a>
</g>
</g>
<!-- Node1&#45;&gt;Node2 -->
<g id="edge1_Node000001_Node000002" class="edge">
<title>Node1&#45;&gt;Node2</title>
<g id="a_edge1_Node000001_Node000002"><a xlink:title=" ">
<path fill="none" stroke="#63b8ff" d="M467.7,-9.5C459.2,-9.5 450.54,-9.5 442.14,-9.5"/>
<polygon fill="#63b8ff" stroke="#63b8ff" points="467.95,-13 477.95,-9.5 467.95,-6 467.95,-13"/>
</a>
</g>
</g>
<!-- Node3 -->
<g id="Node000003" class="node">
<title>Node3</title>
<g id="a_Node000003"><a xlink:href="inverse_8c.html#ad779d411aa186efcdfb8e192c52d04b0" target="_top" xlink:title=" ">
<polygon fill="white" stroke="#666666" points="284,-19 175,-19 175,0 284,0 284,-19"/>
<text text-anchor="middle" x="229.5" y="-7" font-family="Helvetica,sans-Serif" font-size="10.00">grad_R_wrt_E_field</text>
</a>
</g>
</g>
<!-- Node2&#45;&gt;Node3 -->
<g id="edge2_Node000002_Node000003" class="edge">
<title>Node2&#45;&gt;Node3</title>
<g id="a_edge2_Node000002_Node000003"><a xlink:title=" ">
<path fill="none" stroke="#63b8ff" d="M309.41,-9.5C300.99,-9.5 292.49,-9.5 284.35,-9.5"/>
<polygon fill="#63b8ff" stroke="#63b8ff" points="309.62,-13 319.62,-9.5 309.62,-6 309.62,-13"/>
</a>
</g>
</g>
<!-- Node4 -->
<g id="Node000004" class="node">
<title>Node4</title>
<g id="a_Node000004"><a xlink:href="inverse_8c.html#a63c0a7ac76584f0dab82764698b5d878" target="_top" xlink:title=" ">
<polygon fill="white" stroke="#666666" points="139,-19 77,-19 77,0 139,0 139,-19"/>
<text text-anchor="middle" x="108" y="-7" font-family="Helvetica,sans-Serif" font-size="10.00">InvSolver</text>
</a>
</g>
</g>
<!-- Node3&#45;&gt;Node4 -->
<g id="edge3_Node000003_Node000004" class="edge">
<title>Node3&#45;&gt;Node4</title>
<g id="a_edge3_Node000003_Node000004"><a xlink:title=" ">
<path fill="none" stroke="#63b8ff" d="M164.41,-9.5C155.67,-9.5 147.05,-9.5 139.31,-9.5"/>
<polygon fill="#63b8ff" stroke="#63b8ff" points="164.69,-13 174.69,-9.5 164.69,-6 164.69,-13"/>
</a>
</g>
</g>
<!-- Node5 -->
<g id="Node000005" class="node">
<title>Node5</title>
<g id="a_Node000005"><a xlink:href="main_8c.html#a3c04138a5bfe5d72780bb7e82a18e627" target="_top" xlink:title=" ">
<polygon fill="white" stroke="#666666" points="41,-19 0,-19 0,0 41,0 41,-19"/>
<text text-anchor="middle" x="20.5" y="-7" font-family="Helvetica,sans-Serif" font-size="10.00">main</text>
</a>
</g>
</g>
<!-- Node4&#45;&gt;Node5 -->
<g id="edge4_Node000004_Node000005" class="edge">
<title>Node4&#45;&gt;Node5</title>
<g id="a_edge4_Node000004_Node000005"><a xlink:title=" ">
<path fill="none" stroke="#63b8ff" d="M66.42,-9.5C57.6,-9.5 48.67,-9.5 41.11,-9.5"/>
<polygon fill="#63b8ff" stroke="#63b8ff" points="66.62,-13 76.62,-9.5 66.62,-6 66.62,-13"/>
</a>
</g>
</g>
</g>
</svg>
