<?xml version="1.0" encoding="UTF-8" standalone="no"?>
<!DOCTYPE svg PUBLIC "-//W3C//DTD SVG 1.1//EN"
 "http://www.w3.org/Graphics/SVG/1.1/DTD/svg11.dtd">
<!-- Generated by graphviz version 2.43.0 (0)
 -->
<!-- Title: Output Pages: 1 -->
<!--zoomable 202 -->

<svg id="main" version="1.1" xmlns="http://www.w3.org/2000/svg" xmlns:xlink="http://www.w3.org/1999/xlink" xml:space="preserve" onload="init(evt)">
<style type="text/css"><![CDATA[
.node, .edge {opacity: 0.7;}
.node.selected, .edge.selected {opacity: 1;}
.edge:hover path { stroke: red; }
.edge:hover polygon { stroke: red; fill: red; }
]]></style>

<defs>
  <circle id="rim" cx="0" cy="0" r="7"/>
  <circle id="rim2" cx="0" cy="0" r="3.5"/>
  <g id="zoomPlus">
    <use xlink:href="#rim" fill="#404040"><set attributeName="fill" to="#808080" begin="zoomplus.mouseover" end="zoomplus.mouseout"/></use>
    <path d="M-4,0h8M0,-4v8" fill="none" stroke="white" stroke-width="1.5" pointer-events="none"/>
  </g>
  <g id="zoomMin">
    <use xlink:href="#rim" fill="#404040"><set attributeName="fill" to="#808080" begin="zoomminus.mouseover" end="zoomminus.mouseout"/></use>
    <path d="M-4,0h8" fill="none" stroke="white" stroke-width="1.5" pointer-events="none"/>
  </g>
  <g id="arrowUp" transform="translate(30 24)">
    <use xlink:href="#rim"/>
    <path pointer-events="none" fill="none" stroke="white" stroke-width="1.5" d="M0,-3.0v7 M-2.5,-0.5L0,-3.0L2.5,-0.5"/>
  </g>
  <g id="arrowRight" transform="rotate(90) translate(36 -43)">
    <use xlink:href="#rim"/>
    <path pointer-events="none" fill="none" stroke="white" stroke-width="1.5" d="M0,-3.0v7 M-2.5,-0.5L0,-3.0L2.5,-0.5"/>
  </g>
  <g id="arrowDown" transform="rotate(180) translate(-30 -48)">
    <use xlink:href="#rim"/>
    <path pointer-events="none" fill="none" stroke="white" stroke-width="1.5" d="M0,-3.0v7 M-2.5,-0.5L0,-3.0L2.5,-0.5"/>
  </g>
  <g id="arrowLeft" transform="rotate(270) translate(-36 17)">
    <use xlink:href="#rim"/>
    <path pointer-events="none" fill="none" stroke="white" stroke-width="1.5" d="M0,-3.0v7 M-2.5,-0.5L0,-3.0L2.5,-0.5"/>
  </g>
  <g id="resetDef">
    <use xlink:href="#rim2" fill="#404040"><set attributeName="fill" to="#808080" begin="reset.mouseover" end="reset.mouseout"/></use>
  </g>
</defs>
<script type="application/ecmascript">
var viewWidth = 753;
var viewHeight = 202;
var sectionId = 'dynsection-9';
</script>
<script type="application/ecmascript" xlink:href="svg.min.js"/>
<svg id="graph" class="graph">
<g id="viewport">
<title>Output</title>
<!-- Node1 -->
<g id="Node000001" class="node">
<title>Node1</title>
<g id="a_Node000001"><a xlink:title=" ">
<polygon fill="#999999" stroke="#666666" points="745,-97.06 695,-97.06 695,-78.06 745,-78.06 745,-97.06"/>
<text text-anchor="middle" x="720" y="-85.06" font-family="Helvetica,sans-Serif" font-size="10.00">Output</text>
</a>
</g>
</g>
<!-- Node2 -->
<g id="Node000002" class="node">
<title>Node2</title>
<g id="a_Node000002"><a xlink:href="manufactured__active__strain__b_8c.html#aff7208cb5f1fe02ed0d7e23999495dbb" target="_top" xlink:title=" ">
<polygon fill="white" stroke="#666666" points="659,-193.56 483,-193.56 483,-163.56 659,-163.56 659,-193.56"/>
<text text-anchor="start" x="491" y="-181.56" font-family="Helvetica,sans-Serif" font-size="10.00">GenerateManufacturedFExternal</text>
<text text-anchor="middle" x="571" y="-170.56" font-family="Helvetica,sans-Serif" font-size="10.00">AndInitialKinematics</text>
</a>
</g>
</g>
<!-- Node1&#45;&gt;Node2 -->
<g id="edge1_Node000001_Node000002" class="edge">
<title>Node1&#45;&gt;Node2</title>
<g id="a_edge1_Node000001_Node000002"><a xlink:title=" ">
<path fill="none" stroke="#63b8ff" d="M707.05,-105.94C696.25,-121.14 679,-142.16 659,-154.56 653.41,-158.02 647.31,-161 641.02,-163.55"/>
<polygon fill="#63b8ff" stroke="#63b8ff" points="710.16,-107.59 712.91,-97.36 704.38,-103.64 710.16,-107.59"/>
</a>
</g>
</g>
<!-- Node3 -->
<g id="Node000003" class="node">
<title>Node3</title>
<g id="a_Node000003"><a xlink:href="manufactured__active__strain_8c.html#a76dced439e9210fc76cb2f1c40e37440" target="_top" xlink:title=" ">
<polygon fill="white" stroke="#666666" points="659,-145.56 483,-145.56 483,-115.56 659,-115.56 659,-145.56"/>
<text text-anchor="start" x="491" y="-133.56" font-family="Helvetica,sans-Serif" font-size="10.00">GenerateManufacturedFExternal</text>
<text text-anchor="middle" x="571" y="-122.56" font-family="Helvetica,sans-Serif" font-size="10.00">AndKinematics</text>
</a>
</g>
</g>
<!-- Node1&#45;&gt;Node3 -->
<g id="edge2_Node000001_Node000003" class="edge">
<title>Node1&#45;&gt;Node3</title>
<g id="a_edge2_Node000001_Node000003"><a xlink:title=" ">
<path fill="none" stroke="#63b8ff" d="M685.1,-97.47C666.82,-102.82 643.89,-109.53 623.46,-115.5"/>
<polygon fill="#63b8ff" stroke="#63b8ff" points="686.11,-100.82 694.73,-94.66 684.15,-94.1 686.11,-100.82"/>
</a>
</g>
</g>
<!-- Node5 -->
<g id="Node000005" class="node">
<title>Node5</title>
<g id="a_Node000005"><a xlink:href="main_8c.html#a3c04138a5bfe5d72780bb7e82a18e627" target="_top" xlink:title=" ">
<polygon fill="white" stroke="#666666" points="41,-97.06 0,-97.06 0,-78.06 41,-78.06 41,-97.06"/>
<text text-anchor="middle" x="20.5" y="-85.06" font-family="Helvetica,sans-Serif" font-size="10.00">main</text>
</a>
</g>
</g>
<!-- Node1&#45;&gt;Node5 -->
<g id="edge12_Node000001_Node000005" class="edge">
<title>Node1&#45;&gt;Node5</title>
<g id="a_edge12_Node000001_Node000005"><a xlink:title=" ">
<path fill="none" stroke="#63b8ff" d="M684.96,-87.56C561.28,-87.56 137.99,-87.56 41.28,-87.56"/>
<polygon fill="#63b8ff" stroke="#63b8ff" points="684.99,-91.06 694.99,-87.56 684.99,-84.06 684.99,-91.06"/>
</a>
</g>
</g>
<!-- Node8 -->
<g id="Node000008" class="node">
<title>Node8</title>
<g id="a_Node000008"><a xlink:href="main_8c.html#a636a8f7f82b7bc4dabb749e9c7fe75a9" target="_top" xlink:title=" ">
<polygon fill="white" stroke="#666666" points="181,-59.06 149,-59.06 149,-40.06 181,-40.06 181,-59.06"/>
<text text-anchor="middle" x="165" y="-47.06" font-family="Helvetica,sans-Serif" font-size="10.00">Init</text>
</a>
</g>
</g>
<!-- Node1&#45;&gt;Node8 -->
<g id="edge8_Node000001_Node000008" class="edge">
<title>Node1&#45;&gt;Node8</title>
<g id="a_edge8_Node000001_Node000008"><a xlink:title=" ">
<path fill="none" stroke="#63b8ff" d="M685.04,-78.51C676.59,-76.57 667.51,-74.75 659,-73.56 471.87,-47.39 241.35,-48.49 181.02,-49.3"/>
<polygon fill="#63b8ff" stroke="#63b8ff" points="684.41,-81.96 694.96,-80.9 686.05,-75.15 684.41,-81.96"/>
</a>
</g>
</g>
<!-- Node9 -->
<g id="Node000009" class="node">
<title>Node9</title>
<g id="a_Node000009"><a xlink:href="inverse_8c.html#a63c0a7ac76584f0dab82764698b5d878" target="_top" xlink:title=" ">
<polygon fill="white" stroke="#666666" points="399,-21.06 337,-21.06 337,-2.06 399,-2.06 399,-21.06"/>
<text text-anchor="middle" x="368" y="-9.06" font-family="Helvetica,sans-Serif" font-size="10.00">InvSolver</text>
</a>
</g>
</g>
<!-- Node1&#45;&gt;Node9 -->
<g id="edge10_Node000001_Node000009" class="edge">
<title>Node1&#45;&gt;Node9</title>
<g id="a_edge10_Node000001_Node000009"><a xlink:title=" ">
<path fill="none" stroke="#63b8ff" d="M704.49,-70.16C693.38,-58.18 676.96,-43.11 659,-35.56 570.53,1.68 453.64,-3.14 399.25,-8.09"/>
<polygon fill="#63b8ff" stroke="#63b8ff" points="702.03,-72.67 711.28,-77.83 707.27,-68.02 702.03,-72.67"/>
</a>
</g>
</g>
<!-- Node4 -->
<g id="Node000004" class="node">
<title>Node4</title>
<g id="a_Node000004"><a xlink:href="manufactured__active__strain_8c.html#aa3f8aea727e8490df824ccde3cb3ab69" target="_top" xlink:title=" ">
<polygon fill="white" stroke="#666666" points="253,-186.56 77,-186.56 77,-156.56 253,-156.56 253,-186.56"/>
<text text-anchor="start" x="85" y="-174.56" font-family="Helvetica,sans-Serif" font-size="10.00">GenerateManufacturedFExternal</text>
<text text-anchor="middle" x="165" y="-163.56" font-family="Helvetica,sans-Serif" font-size="10.00">AndKinematicsAllTimeSteps</text>
</a>
</g>
</g>
<!-- Node3&#45;&gt;Node4 -->
<g id="edge3_Node000003_Node000004" class="edge">
<title>Node3&#45;&gt;Node4</title>
<g id="a_edge3_Node000003_Node000004"><a xlink:title=" ">
<path fill="none" stroke="#63b8ff" d="M491.53,-147.47C476.79,-150.19 461.47,-152.72 447,-154.56 382.4,-162.78 308.92,-167.04 253.3,-169.25"/>
<polygon fill="#63b8ff" stroke="#63b8ff" points="492.45,-150.86 501.63,-145.56 491.15,-143.98 492.45,-150.86"/>
</a>
</g>
</g>
<!-- Node6 -->
<g id="Node000006" class="node">
<title>Node6</title>
<g id="a_Node000006"><a xlink:href="manufactured__active__strain_8c.html#a9a638a5c199d0216bf97dad8dba443f0" target="_top" xlink:title=" ">
<polygon fill="white" stroke="#666666" points="447,-145.56 289,-145.56 289,-115.56 447,-115.56 447,-145.56"/>
<text text-anchor="start" x="297" y="-133.56" font-family="Helvetica,sans-Serif" font-size="10.00">ManufacturedKinematicsAnd</text>
<text text-anchor="middle" x="368" y="-122.56" font-family="Helvetica,sans-Serif" font-size="10.00">FExternalSetInitial</text>
</a>
</g>
</g>
<!-- Node3&#45;&gt;Node6 -->
<g id="edge5_Node000003_Node000006" class="edge">
<title>Node3&#45;&gt;Node6</title>
<g id="a_edge5_Node000003_Node000006"><a xlink:title=" ">
<path fill="none" stroke="#63b8ff" d="M472.66,-130.56C464.07,-130.56 455.45,-130.56 447.04,-130.56"/>
<polygon fill="#63b8ff" stroke="#63b8ff" points="472.72,-134.06 482.72,-130.56 472.72,-127.06 472.72,-134.06"/>
</a>
</g>
</g>
<!-- Node4&#45;&gt;Node5 -->
<g id="edge4_Node000004_Node000005" class="edge">
<title>Node4&#45;&gt;Node5</title>
<g id="a_edge4_Node000004_Node000005"><a xlink:title=" ">
<path fill="none" stroke="#63b8ff" d="M87.83,-152.37C84.08,-150.59 80.45,-148.66 77,-146.56 55.87,-133.66 37.56,-110.61 28.18,-97.46"/>
<polygon fill="#63b8ff" stroke="#63b8ff" points="86.76,-155.72 97.33,-156.47 89.53,-149.29 86.76,-155.72"/>
</a>
</g>
</g>
<!-- Node7 -->
<g id="Node000007" class="node">
<title>Node7</title>
<g id="a_Node000007"><a xlink:href="active__strain_8c.html#add9b2ea1963ddf3467e90047c8d5412b" target="_top" xlink:title="Initialize active&#45;strain module (options, storage, and quadrature).">
<polygon fill="white" stroke="#666666" points="223.5,-137.06 106.5,-137.06 106.5,-118.06 223.5,-118.06 223.5,-137.06"/>
<text text-anchor="middle" x="165" y="-125.06" font-family="Helvetica,sans-Serif" font-size="10.00">InitActStrainProblem</text>
</a>
</g>
</g>
<!-- Node6&#45;&gt;Node7 -->
<g id="edge6_Node000006_Node000007" class="edge">
<title>Node6&#45;&gt;Node7</title>
<g id="a_edge6_Node000006_Node000007"><a xlink:title=" ">
<path fill="none" stroke="#63b8ff" d="M278.7,-129.24C260,-128.96 240.73,-128.67 223.53,-128.41"/>
<polygon fill="#63b8ff" stroke="#63b8ff" points="278.66,-132.74 288.71,-129.39 278.77,-125.74 278.66,-132.74"/>
</a>
</g>
</g>
<!-- Node7&#45;&gt;Node5 -->
<g id="edge7_Node000007_Node000005" class="edge">
<title>Node7&#45;&gt;Node5</title>
<g id="a_edge7_Node000007_Node000005"><a xlink:title=" ">
<path fill="none" stroke="#63b8ff" d="M120.1,-115.23C93.78,-107.85 61.59,-98.81 41.3,-93.12"/>
<polygon fill="#63b8ff" stroke="#63b8ff" points="119.29,-118.64 129.87,-117.97 121.19,-111.9 119.29,-118.64"/>
</a>
</g>
</g>
<!-- Node8&#45;&gt;Node5 -->
<g id="edge9_Node000008_Node000005" class="edge">
<title>Node8&#45;&gt;Node5</title>
<g id="a_edge9_Node000008_Node000005"><a xlink:title=" ">
<path fill="none" stroke="#63b8ff" d="M138.96,-56.23C111.09,-63.66 66.65,-75.51 41.17,-82.31"/>
<polygon fill="#63b8ff" stroke="#63b8ff" points="139.99,-59.58 148.75,-53.62 138.19,-52.82 139.99,-59.58"/>
</a>
</g>
</g>
<!-- Node9&#45;&gt;Node5 -->
<g id="edge11_Node000009_Node000005" class="edge">
<title>Node9&#45;&gt;Node5</title>
<g id="a_edge11_Node000009_Node000005"><a xlink:title=" ">
<path fill="none" stroke="#63b8ff" d="M326.66,-5.45C268.53,1.46 159.17,7.34 77,-30.56 54.67,-40.85 36.56,-64.39 27.6,-77.77"/>
<polygon fill="#63b8ff" stroke="#63b8ff" points="326.54,-8.97 336.9,-6.75 327.42,-2.02 326.54,-8.97"/>
</a>
</g>
</g>
</g>
</svg>

<g id="navigator" transform="translate(0 0)" fill="#404254">
  <rect fill="#f2f5e9" fill-opacity="0.5" stroke="#606060" stroke-width=".5" x="0" y="0" width="60" height="60"/>
  <use id="zoomplus" xlink:href="#zoomPlus" x="17" y="9" onmousedown="handleZoom(evt,'in')"/>
  <use id="zoomminus" xlink:href="#zoomMin" x="42" y="9" onmousedown="handleZoom(evt,'out')"/>
  <use id="reset" xlink:href="#resetDef" x="30" y="36" onmousedown="handleReset()"/>
   <use id="arrowup" xlink:href="#arrowUp" x="0" y="0" onmousedown="handlePan(0,-1)"/>
  <use id="arrowright" xlink:href="#arrowRight" x="0" y="0" onmousedown="handlePan(1,0)"/>
  <use id="arrowdown" xlink:href="#arrowDown" x="0" y="0" onmousedown="handlePan(0,1)"/>
  <use id="arrowleft" xlink:href="#arrowLeft" x="0" y="0" onmousedown="handlePan(-1,0)"/>
</g>
<svg viewBox="0 0 15 15" width="100%" height="30px" preserveAspectRatio="xMaxYMin meet">
 <g id="arrow_out" transform="scale(0.3 0.3)">
  <a xlink:href="io_8c_a6ef830a0883e3f31ad5b52a2b20bdbb2_icgraph_org.svg" target="_base">
   <rect id="button" ry="5" rx="5" y="6" x="6" height="38" width="38"
        fill="#f2f5e9" fill-opacity="0.5" stroke="#606060" stroke-width="1.0"/>
   <path id="arrow"
     d="M 11.500037,31.436501 C 11.940474,20.09759 22.043105,11.32322 32.158766,21.979434 L 37.068811,17.246167 C 37.068811,17.246167 37.088388,32 37.088388,32 L 22.160133,31.978069 C 22.160133,31.978069 26.997745,27.140456 26.997745,27.140456 C 18.528582,18.264221 13.291696,25.230495 11.500037,31.436501 z"
     style="fill:#404040;"/>
  </a>
 </g>
</svg>

<style type='text/css'>
<![CDATA[
[data-mouse-over-selected='false'] { opacity: 0.7; }
[data-mouse-over-selected='true']  { opacity: 1.0; }
]]>
</style>
<script type="application/ecmascript"><![CDATA[
document.addEventListener('DOMContentLoaded', (event) => {
  highlightEdges();
  highlightAdjacentNodes();
});
]]></script>
</svg>
