<?xml version="1.0" encoding="UTF-8" standalone="no"?>
<!DOCTYPE svg PUBLIC "-//W3C//DTD SVG 1.1//EN"
 "http://www.w3.org/Graphics/SVG/1.1/DTD/svg11.dtd">
<!-- Generated by graphviz version 2.43.0 (0)
 -->
<!-- Title: Output Pages: 1 -->
<svg width="753pt" height="202pt"
 viewBox="0.00 0.00 753.00 201.56" xmlns="http://www.w3.org/2000/svg" xmlns:xlink="http://www.w3.org/1999/xlink">
<g id="graph0" class="graph" transform="scale(1 1) rotate(0) translate(4 197.56)">
<title>Output</title>
<!-- Node1 -->
<g id="Node000001" class="node">
<title>Node1</title>
<g id="a_Node000001"><a xlink:title=" ">
<polygon fill="#999999" stroke="#666666" points="745,-97.06 695,-97.06 695,-78.06 745,-78.06 745,-97.06"/>
<text text-anchor="middle" x="720" y="-85.06" font-family="Helvetica,sans-Serif" font-size="10.00">Output</text>
</a>
</g>
</g>
<!-- Node2 -->
<g id="Node000002" class="node">
<title>Node2</title>
<g id="a_Node000002"><a xlink:href="manufactured__active__strain__b_8c.html#aff7208cb5f1fe02ed0d7e23999495dbb" target="_top" xlink:title=" ">
<polygon fill="white" stroke="#666666" points="659,-193.56 483,-193.56 483,-163.56 659,-163.56 659,-193.56"/>
<text text-anchor="start" x="491" y="-181.56" font-family="Helvetica,sans-Serif" font-size="10.00">GenerateManufacturedFExternal</text>
<text text-anchor="middle" x="571" y="-170.56" font-family="Helvetica,sans-Serif" font-size="10.00">AndInitialKinematics</text>
</a>
</g>
</g>
<!-- Node1&#45;&gt;Node2 -->
<g id="edge1_Node000001_Node000002" class="edge">
<title>Node1&#45;&gt;Node2</title>
<g id="a_edge1_Node000001_Node000002"><a xlink:title=" ">
<path fill="none" stroke="#63b8ff" d="M707.05,-105.94C696.25,-121.14 679,-142.16 659,-154.56 653.41,-158.02 647.31,-161 641.02,-163.55"/>
<polygon fill="#63b8ff" stroke="#63b8ff" points="710.16,-107.59 712.91,-97.36 704.38,-103.64 710.16,-107.59"/>
</a>
</g>
</g>
<!-- Node3 -->
<g id="Node000003" class="node">
<title>Node3</title>
<g id="a_Node000003"><a xlink:href="manufactured__active__strain_8c.html#a76dced439e9210fc76cb2f1c40e37440" target="_top" xlink:title=" ">
<polygon fill="white" stroke="#666666" points="659,-145.56 483,-145.56 483,-115.56 659,-115.56 659,-145.56"/>
<text text-anchor="start" x="491" y="-133.56" font-family="Helvetica,sans-Serif" font-size="10.00">GenerateManufacturedFExternal</text>
<text text-anchor="middle" x="571" y="-122.56" font-family="Helvetica,sans-Serif" font-size="10.00">AndKinematics</text>
</a>
</g>
</g>
<!-- Node1&#45;&gt;Node3 -->
<g id="edge2_Node000001_Node000003" class="edge">
<title>Node1&#45;&gt;Node3</title>
<g id="a_edge2_Node000001_Node000003"><a xlink:title=" ">
<path fill="none" stroke="#63b8ff" d="M685.1,-97.47C666.82,-102.82 643.89,-109.53 623.46,-115.5"/>
<polygon fill="#63b8ff" stroke="#63b8ff" points="686.11,-100.82 694.73,-94.66 684.15,-94.1 686.11,-100.82"/>
</a>
</g>
</g>
<!-- Node5 -->
<g id="Node000005" class="node">
<title>Node5</title>
<g id="a_Node000005"><a xlink:href="main_8c.html#a3c04138a5bfe5d72780bb7e82a18e627" target="_top" xlink:title=" ">
<polygon fill="white" stroke="#666666" points="41,-97.06 0,-97.06 0,-78.06 41,-78.06 41,-97.06"/>
<text text-anchor="middle" x="20.5" y="-85.06" font-family="Helvetica,sans-Serif" font-size="10.00">main</text>
</a>
</g>
</g>
<!-- Node1&#45;&gt;Node5 -->
<g id="edge12_Node000001_Node000005" class="edge">
<title>Node1&#45;&gt;Node5</title>
<g id="a_edge12_Node000001_Node000005"><a xlink:title=" ">
<path fill="none" stroke="#63b8ff" d="M684.96,-87.56C561.28,-87.56 137.99,-87.56 41.28,-87.56"/>
<polygon fill="#63b8ff" stroke="#63b8ff" points="684.99,-91.06 694.99,-87.56 684.99,-84.06 684.99,-91.06"/>
</a>
</g>
</g>
<!-- Node8 -->
<g id="Node000008" class="node">
<title>Node8</title>
<g id="a_Node000008"><a xlink:href="main_8c.html#a636a8f7f82b7bc4dabb749e9c7fe75a9" target="_top" xlink:title=" ">
<polygon fill="white" stroke="#666666" points="181,-59.06 149,-59.06 149,-40.06 181,-40.06 181,-59.06"/>
<text text-anchor="middle" x="165" y="-47.06" font-family="Helvetica,sans-Serif" font-size="10.00">Init</text>
</a>
</g>
</g>
<!-- Node1&#45;&gt;Node8 -->
<g id="edge8_Node000001_Node000008" class="edge">
<title>Node1&#45;&gt;Node8</title>
<g id="a_edge8_Node000001_Node000008"><a xlink:title=" ">
<path fill="none" stroke="#63b8ff" d="M685.04,-78.51C676.59,-76.57 667.51,-74.75 659,-73.56 471.87,-47.39 241.35,-48.49 181.02,-49.3"/>
<polygon fill="#63b8ff" stroke="#63b8ff" points="684.41,-81.96 694.96,-80.9 686.05,-75.15 684.41,-81.96"/>
</a>
</g>
</g>
<!-- Node9 -->
<g id="Node000009" class="node">
<title>Node9</title>
<g id="a_Node000009"><a xlink:href="inverse_8c.html#a63c0a7ac76584f0dab82764698b5d878" target="_top" xlink:title=" ">
<polygon fill="white" stroke="#666666" points="399,-21.06 337,-21.06 337,-2.06 399,-2.06 399,-21.06"/>
<text text-anchor="middle" x="368" y="-9.06" font-family="Helvetica,sans-Serif" font-size="10.00">InvSolver</text>
</a>
</g>
</g>
<!-- Node1&#45;&gt;Node9 -->
<g id="edge10_Node000001_Node000009" class="edge">
<title>Node1&#45;&gt;Node9</title>
<g id="a_edge10_Node000001_Node000009"><a xlink:title=" ">
<path fill="none" stroke="#63b8ff" d="M704.49,-70.16C693.38,-58.18 676.96,-43.11 659,-35.56 570.53,1.68 453.64,-3.14 399.25,-8.09"/>
<polygon fill="#63b8ff" stroke="#63b8ff" points="702.03,-72.67 711.28,-77.83 707.27,-68.02 702.03,-72.67"/>
</a>
</g>
</g>
<!-- Node4 -->
<g id="Node000004" class="node">
<title>Node4</title>
<g id="a_Node000004"><a xlink:href="manufactured__active__strain_8c.html#aa3f8aea727e8490df824ccde3cb3ab69" target="_top" xlink:title=" ">
<polygon fill="white" stroke="#666666" points="253,-186.56 77,-186.56 77,-156.56 253,-156.56 253,-186.56"/>
<text text-anchor="start" x="85" y="-174.56" font-family="Helvetica,sans-Serif" font-size="10.00">GenerateManufacturedFExternal</text>
<text text-anchor="middle" x="165" y="-163.56" font-family="Helvetica,sans-Serif" font-size="10.00">AndKinematicsAllTimeSteps</text>
</a>
</g>
</g>
<!-- Node3&#45;&gt;Node4 -->
<g id="edge3_Node000003_Node000004" class="edge">
<title>Node3&#45;&gt;Node4</title>
<g id="a_edge3_Node000003_Node000004"><a xlink:title=" ">
<path fill="none" stroke="#63b8ff" d="M491.53,-147.47C476.79,-150.19 461.47,-152.72 447,-154.56 382.4,-162.78 308.92,-167.04 253.3,-169.25"/>
<polygon fill="#63b8ff" stroke="#63b8ff" points="492.45,-150.86 501.63,-145.56 491.15,-143.98 492.45,-150.86"/>
</a>
</g>
</g>
<!-- Node6 -->
<g id="Node000006" class="node">
<title>Node6</title>
<g id="a_Node000006"><a xlink:href="manufactured__active__strain_8c.html#a9a638a5c199d0216bf97dad8dba443f0" target="_top" xlink:title=" ">
<polygon fill="white" stroke="#666666" points="447,-145.56 289,-145.56 289,-115.56 447,-115.56 447,-145.56"/>
<text text-anchor="start" x="297" y="-133.56" font-family="Helvetica,sans-Serif" font-size="10.00">ManufacturedKinematicsAnd</text>
<text text-anchor="middle" x="368" y="-122.56" font-family="Helvetica,sans-Serif" font-size="10.00">FExternalSetInitial</text>
</a>
</g>
</g>
<!-- Node3&#45;&gt;Node6 -->
<g id="edge5_Node000003_Node000006" class="edge">
<title>Node3&#45;&gt;Node6</title>
<g id="a_edge5_Node000003_Node000006"><a xlink:title=" ">
<path fill="none" stroke="#63b8ff" d="M472.66,-130.56C464.07,-130.56 455.45,-130.56 447.04,-130.56"/>
<polygon fill="#63b8ff" stroke="#63b8ff" points="472.72,-134.06 482.72,-130.56 472.72,-127.06 472.72,-134.06"/>
</a>
</g>
</g>
<!-- Node4&#45;&gt;Node5 -->
<g id="edge4_Node000004_Node000005" class="edge">
<title>Node4&#45;&gt;Node5</title>
<g id="a_edge4_Node000004_Node000005"><a xlink:title=" ">
<path fill="none" stroke="#63b8ff" d="M87.83,-152.37C84.08,-150.59 80.45,-148.66 77,-146.56 55.87,-133.66 37.56,-110.61 28.18,-97.46"/>
<polygon fill="#63b8ff" stroke="#63b8ff" points="86.76,-155.72 97.33,-156.47 89.53,-149.29 86.76,-155.72"/>
</a>
</g>
</g>
<!-- Node7 -->
<g id="Node000007" class="node">
<title>Node7</title>
<g id="a_Node000007"><a xlink:href="active__strain_8c.html#add9b2ea1963ddf3467e90047c8d5412b" target="_top" xlink:title="Initialize active&#45;strain module (options, storage, and quadrature).">
<polygon fill="white" stroke="#666666" points="223.5,-137.06 106.5,-137.06 106.5,-118.06 223.5,-118.06 223.5,-137.06"/>
<text text-anchor="middle" x="165" y="-125.06" font-family="Helvetica,sans-Serif" font-size="10.00">InitActStrainProblem</text>
</a>
</g>
</g>
<!-- Node6&#45;&gt;Node7 -->
<g id="edge6_Node000006_Node000007" class="edge">
<title>Node6&#45;&gt;Node7</title>
<g id="a_edge6_Node000006_Node000007"><a xlink:title=" ">
<path fill="none" stroke="#63b8ff" d="M278.7,-129.24C260,-128.96 240.73,-128.67 223.53,-128.41"/>
<polygon fill="#63b8ff" stroke="#63b8ff" points="278.66,-132.74 288.71,-129.39 278.77,-125.74 278.66,-132.74"/>
</a>
</g>
</g>
<!-- Node7&#45;&gt;Node5 -->
<g id="edge7_Node000007_Node000005" class="edge">
<title>Node7&#45;&gt;Node5</title>
<g id="a_edge7_Node000007_Node000005"><a xlink:title=" ">
<path fill="none" stroke="#63b8ff" d="M120.1,-115.23C93.78,-107.85 61.59,-98.81 41.3,-93.12"/>
<polygon fill="#63b8ff" stroke="#63b8ff" points="119.29,-118.64 129.87,-117.97 121.19,-111.9 119.29,-118.64"/>
</a>
</g>
</g>
<!-- Node8&#45;&gt;Node5 -->
<g id="edge9_Node000008_Node000005" class="edge">
<title>Node8&#45;&gt;Node5</title>
<g id="a_edge9_Node000008_Node000005"><a xlink:title=" ">
<path fill="none" stroke="#63b8ff" d="M138.96,-56.23C111.09,-63.66 66.65,-75.51 41.17,-82.31"/>
<polygon fill="#63b8ff" stroke="#63b8ff" points="139.99,-59.58 148.75,-53.62 138.19,-52.82 139.99,-59.58"/>
</a>
</g>
</g>
<!-- Node9&#45;&gt;Node5 -->
<g id="edge11_Node000009_Node000005" class="edge">
<title>Node9&#45;&gt;Node5</title>
<g id="a_edge11_Node000009_Node000005"><a xlink:title=" ">
<path fill="none" stroke="#63b8ff" d="M326.66,-5.45C268.53,1.46 159.17,7.34 77,-30.56 54.67,-40.85 36.56,-64.39 27.6,-77.77"/>
<polygon fill="#63b8ff" stroke="#63b8ff" points="326.54,-8.97 336.9,-6.75 327.42,-2.02 326.54,-8.97"/>
</a>
</g>
</g>
</g>
</svg>
