<?xml version="1.0" encoding="UTF-8" standalone="no"?>
<!DOCTYPE svg PUBLIC "-//W3C//DTD SVG 1.1//EN"
 "http://www.w3.org/Graphics/SVG/1.1/DTD/svg11.dtd">
<!-- Generated by graphviz version 2.43.0 (0)
 -->
<!-- Title: MaxGeomDiff_ Pages: 1 -->
<svg width="486pt" height="27pt"
 viewBox="0.00 0.00 486.00 27.00" xmlns="http://www.w3.org/2000/svg" xmlns:xlink="http://www.w3.org/1999/xlink">
<g id="graph0" class="graph" transform="scale(1 1) rotate(0) translate(4 23)">
<title>MaxGeomDiff_</title>
<!-- Node1 -->
<g id="Node000001" class="node">
<title>Node1</title>
<g id="a_Node000001"><a xlink:title=" ">
<polygon fill="#999999" stroke="#666666" points="478,-19 389,-19 389,0 478,0 478,-19"/>
<text text-anchor="middle" x="433.5" y="-7" font-family="Helvetica,sans-Serif" font-size="10.00">MaxGeomDiff_</text>
</a>
</g>
</g>
<!-- Node2 -->
<g id="Node000002" class="node">
<title>Node2</title>
<g id="a_Node000002"><a xlink:href="kokkos__processes_8c.html#aa1a27b7fc5a25b07f41eb317324eca2c" target="_top" xlink:title=" ">
<polygon fill="white" stroke="#666666" points="353,-19 232,-19 232,0 353,0 353,-19"/>
<text text-anchor="middle" x="292.5" y="-7" font-family="Helvetica,sans-Serif" font-size="10.00">CompareGeomState_</text>
</a>
</g>
</g>
<!-- Node1&#45;&gt;Node2 -->
<g id="edge1_Node000001_Node000002" class="edge">
<title>Node1&#45;&gt;Node2</title>
<g id="a_edge1_Node000001_Node000002"><a xlink:title=" ">
<path fill="none" stroke="#63b8ff" d="M378.86,-9.5C370.48,-9.5 361.76,-9.5 353.24,-9.5"/>
<polygon fill="#63b8ff" stroke="#63b8ff" points="378.9,-13 388.9,-9.5 378.9,-6 378.9,-13"/>
</a>
</g>
</g>
<!-- Node3 -->
<g id="Node000003" class="node">
<title>Node3</title>
<g id="a_Node000003"><a xlink:href="kokkos__processes_8c.html#a3f18ca1bc94cfbc69753dccb70a43699" target="_top" xlink:title=" ">
<polygon fill="white" stroke="#666666" points="196,-19 77,-19 77,0 196,0 196,-19"/>
<text text-anchor="middle" x="136.5" y="-7" font-family="Helvetica,sans-Serif" font-size="10.00">RunKokkosProcesses</text>
</a>
</g>
</g>
<!-- Node2&#45;&gt;Node3 -->
<g id="edge2_Node000002_Node000003" class="edge">
<title>Node2&#45;&gt;Node3</title>
<g id="a_edge2_Node000002_Node000003"><a xlink:title=" ">
<path fill="none" stroke="#63b8ff" d="M221.92,-9.5C213.3,-9.5 204.56,-9.5 196.12,-9.5"/>
<polygon fill="#63b8ff" stroke="#63b8ff" points="221.96,-13 231.96,-9.5 221.96,-6 221.96,-13"/>
</a>
</g>
</g>
<!-- Node4 -->
<g id="Node000004" class="node">
<title>Node4</title>
<g id="a_Node000004"><a xlink:href="main_8c.html#a3c04138a5bfe5d72780bb7e82a18e627" target="_top" xlink:title=" ">
<polygon fill="white" stroke="#666666" points="41,-19 0,-19 0,0 41,0 41,-19"/>
<text text-anchor="middle" x="20.5" y="-7" font-family="Helvetica,sans-Serif" font-size="10.00">main</text>
</a>
</g>
</g>
<!-- Node3&#45;&gt;Node4 -->
<g id="edge3_Node000003_Node000004" class="edge">
<title>Node3&#45;&gt;Node4</title>
<g id="a_edge3_Node000003_Node000004"><a xlink:title=" ">
<path fill="none" stroke="#63b8ff" d="M66.64,-9.5C57.37,-9.5 48.53,-9.5 41.18,-9.5"/>
<polygon fill="#63b8ff" stroke="#63b8ff" points="66.83,-13 76.83,-9.5 66.83,-6 66.83,-13"/>
</a>
</g>
</g>
</g>
</svg>
