<?xml version="1.0" encoding="UTF-8" standalone="no"?>
<!DOCTYPE svg PUBLIC "-//W3C//DTD SVG 1.1//EN"
 "http://www.w3.org/Graphics/SVG/1.1/DTD/svg11.dtd">
<!-- Generated by graphviz version 2.43.0 (0)
 -->
<!-- Title: FinishGeom_ Pages: 1 -->
<svg width="331pt" height="216pt"
 viewBox="0.00 0.00 331.00 216.00" xmlns="http://www.w3.org/2000/svg" xmlns:xlink="http://www.w3.org/1999/xlink">

<svg id="main" version="1.1" xmlns="http://www.w3.org/2000/svg" xmlns:xlink="http://www.w3.org/1999/xlink" xml:space="preserve" onload="init(evt)">
<style type="text/css"><![CDATA[
.node, .edge {opacity: 0.7;}
.node.selected, .edge.selected {opacity: 1;}
.edge:hover path { stroke: red; }
.edge:hover polygon { stroke: red; fill: red; }
]]></style>
<script type="application/ecmascript" xlink:href="svg.min.js"/>
<svg id="graph" class="graph">
<g id="graph0" class="graph" transform="scale(1 1) rotate(0) translate(4 212)">
<title>FinishGeom_</title>
<!-- Node1 -->
<g id="Node000001" class="node">
<title>Node1</title>
<g id="a_Node000001"><a xlink:title=" ">
<polygon fill="#999999" stroke="#666666" points="80,-113 0,-113 0,-94 80,-94 80,-113"/>
<text text-anchor="middle" x="40" y="-101" font-family="Helvetica,sans-Serif" font-size="10.00">FinishGeom_</text>
</a>
</g>
</g>
<!-- Node2 -->
<g id="Node000002" class="node">
<title>Node2</title>
<g id="a_Node000002"><a xlink:href="kokkos__geom_8cpp.html#a5787000cd34283d5476fafbcd5b87c9a" target="_top" xlink:title=" ">
<polygon fill="white" stroke="#666666" points="183,-208 134,-208 134,-189 183,-189 183,-208"/>
<text text-anchor="middle" x="158.5" y="-196" font-family="Helvetica,sans-Serif" font-size="10.00">Cross_</text>
</a>
</g>
</g>
<!-- Node1&#45;&gt;Node2 -->
<g id="edge1_Node000001_Node000002" class="edge">
<title>Node1&#45;&gt;Node2</title>
<g id="a_edge1_Node000001_Node000002"><a xlink:title=" ">
<path fill="none" stroke="#63b8ff" d="M50.07,-113.45C63.56,-127.94 90.14,-155.2 116,-174.5 120.31,-177.72 125.08,-180.84 129.82,-183.71"/>
<polygon fill="#63b8ff" stroke="#63b8ff" points="128.33,-186.89 138.74,-188.87 131.84,-180.83 128.33,-186.89"/>
</a>
</g>
</g>
<!-- Node3 -->
<g id="Node000003" class="node">
<title>Node3</title>
<g id="a_Node000003"><a xlink:href="kokkos__geom_8cpp.html#aa58f98b13c9046d0a6eba9eafce6e5e2" target="_top" xlink:title=" ">
<polygon fill="white" stroke="#666666" points="323,-170 237,-170 237,-151 323,-151 323,-170"/>
<text text-anchor="middle" x="280" y="-158" font-family="Helvetica,sans-Serif" font-size="10.00">MakeCmpnts_</text>
</a>
</g>
</g>
<!-- Node1&#45;&gt;Node3 -->
<g id="edge4_Node000001_Node000003" class="edge">
<title>Node1&#45;&gt;Node3</title>
<g id="a_edge4_Node000001_Node000003"><a xlink:title=" ">
<path fill="none" stroke="#63b8ff" d="M55.85,-113.02C70.52,-121.93 93.92,-134.85 116,-141.5 152.06,-152.36 194.34,-157.07 226.81,-159.09"/>
<polygon fill="#63b8ff" stroke="#63b8ff" points="226.8,-162.59 236.98,-159.65 227.19,-155.6 226.8,-162.59"/>
</a>
</g>
</g>
<!-- Node4 -->
<g id="Node000004" class="node">
<title>Node4</title>
<g id="a_Node000004"><a xlink:href="kokkos__geom_8cpp.html#a39f976f06af29b3a623958b875f30038" target="_top" xlink:title=" ">
<polygon fill="white" stroke="#666666" points="299.5,-75 260.5,-75 260.5,-56 299.5,-56 299.5,-75"/>
<text text-anchor="middle" x="280" y="-63" font-family="Helvetica,sans-Serif" font-size="10.00">Dot_</text>
</a>
</g>
</g>
<!-- Node1&#45;&gt;Node4 -->
<g id="edge3_Node000001_Node000004" class="edge">
<title>Node1&#45;&gt;Node4</title>
<g id="a_edge3_Node000001_Node000004"><a xlink:title=" ">
<path fill="none" stroke="#63b8ff" d="M80.03,-97.27C127.93,-89.62 208,-76.84 250.5,-70.05"/>
<polygon fill="#63b8ff" stroke="#63b8ff" points="251.12,-73.5 260.45,-68.46 250.02,-66.58 251.12,-73.5"/>
</a>
</g>
</g>
<!-- Node5 -->
<g id="Node000005" class="node">
<title>Node5</title>
<g id="a_Node000005"><a xlink:href="kokkos__geom_8cpp.html#a8fd7413b0811da8f0877a711b4a14556" target="_top" xlink:title=" ">
<polygon fill="white" stroke="#666666" points="183,-56 134,-56 134,-37 183,-37 183,-56"/>
<text text-anchor="middle" x="158.5" y="-44" font-family="Helvetica,sans-Serif" font-size="10.00">Norm_</text>
</a>
</g>
</g>
<!-- Node1&#45;&gt;Node5 -->
<g id="edge5_Node000001_Node000005" class="edge">
<title>Node1&#45;&gt;Node5</title>
<g id="a_edge5_Node000001_Node000005"><a xlink:title=" ">
<path fill="none" stroke="#63b8ff" d="M60.5,-93.96C79.15,-84.84 107.5,-70.97 128.74,-60.57"/>
<polygon fill="#63b8ff" stroke="#63b8ff" points="130.49,-63.61 137.94,-56.07 127.42,-57.32 130.49,-63.61"/>
</a>
</g>
</g>
<!-- Node6 -->
<g id="Node000006" class="node">
<title>Node6</title>
<g id="a_Node000006"><a xlink:href="kokkos__geom_8cpp.html#ab844fde3d4fd7071b9c39594a4e27b2c" target="_top" xlink:title=" ">
<polygon fill="white" stroke="#666666" points="182.5,-132 134.5,-132 134.5,-113 182.5,-113 182.5,-132"/>
<text text-anchor="middle" x="158.5" y="-120" font-family="Helvetica,sans-Serif" font-size="10.00">Scale_</text>
</a>
</g>
</g>
<!-- Node1&#45;&gt;Node6 -->
<g id="edge7_Node000001_Node000006" class="edge">
<title>Node1&#45;&gt;Node6</title>
<g id="a_edge7_Node000001_Node000006"><a xlink:title=" ">
<path fill="none" stroke="#63b8ff" d="M80.12,-109.88C94.44,-112.22 110.51,-114.84 124.27,-117.08"/>
<polygon fill="#63b8ff" stroke="#63b8ff" points="123.85,-120.56 134.28,-118.71 124.98,-113.65 123.85,-120.56"/>
</a>
</g>
</g>
<!-- Node7 -->
<g id="Node000007" class="node">
<title>Node7</title>
<g id="a_Node000007"><a xlink:href="kokkos__geom_8cpp.html#a7fc5ca21e4448335e6ed0ef2bcfeca52" target="_top" xlink:title=" ">
<polygon fill="white" stroke="#666666" points="201,-19 116,-19 116,0 201,0 201,-19"/>
<text text-anchor="middle" x="158.5" y="-7" font-family="Helvetica,sans-Serif" font-size="10.00">StoreCmpnts_</text>
</a>
</g>
</g>
<!-- Node1&#45;&gt;Node7 -->
<g id="edge9_Node000001_Node000007" class="edge">
<title>Node1&#45;&gt;Node7</title>
<g id="a_edge9_Node000001_Node000007"><a xlink:title=" ">
<path fill="none" stroke="#63b8ff" d="M48.38,-93.93C60.85,-78.28 87.56,-46.99 116,-27.5 117.9,-26.2 119.9,-24.97 121.96,-23.79"/>
<polygon fill="#63b8ff" stroke="#63b8ff" points="123.91,-26.73 131.23,-19.08 120.73,-20.49 123.91,-26.73"/>
</a>
</g>
</g>
<!-- Node2&#45;&gt;Node3 -->
<g id="edge2_Node000002_Node000003" class="edge">
<title>Node2&#45;&gt;Node3</title>
<g id="a_edge2_Node000002_Node000003"><a xlink:title=" ">
<path fill="none" stroke="#63b8ff" d="M183.11,-190.99C199.14,-185.9 220.72,-179.03 239.36,-173.11"/>
<polygon fill="#63b8ff" stroke="#63b8ff" points="240.6,-176.38 249.07,-170.02 238.48,-169.71 240.6,-176.38"/>
</a>
</g>
</g>
<!-- Node5&#45;&gt;Node4 -->
<g id="edge6_Node000005_Node000004" class="edge">
<title>Node5&#45;&gt;Node4</title>
<g id="a_edge6_Node000005_Node000004"><a xlink:title=" ">
<path fill="none" stroke="#63b8ff" d="M183.11,-50.25C202.34,-53.31 229.57,-57.64 250.1,-60.91"/>
<polygon fill="#63b8ff" stroke="#63b8ff" points="249.73,-64.39 260.15,-62.5 250.83,-57.48 249.73,-64.39"/>
</a>
</g>
</g>
<!-- Node6&#45;&gt;Node3 -->
<g id="edge8_Node000006_Node000003" class="edge">
<title>Node6&#45;&gt;Node3</title>
<g id="a_edge8_Node000006_Node000003"><a xlink:title=" ">
<path fill="none" stroke="#63b8ff" d="M182.54,-129.83C198.52,-134.91 220.23,-141.81 239,-147.78"/>
<polygon fill="#63b8ff" stroke="#63b8ff" points="238.2,-151.2 248.79,-150.89 240.32,-144.53 238.2,-151.2"/>
</a>
</g>
</g>
</g>
</svg>
</svg>

<style type='text/css'>
<![CDATA[
[data-mouse-over-selected='false'] { opacity: 0.7; }
[data-mouse-over-selected='true']  { opacity: 1.0; }
]]>
</style>
<script type="application/ecmascript"><![CDATA[
document.addEventListener('DOMContentLoaded', (event) => {
  highlightEdges();
  highlightAdjacentNodes();
});
]]></script>
</svg>
