<?xml version="1.0" encoding="UTF-8" standalone="no"?>
<!DOCTYPE svg PUBLIC "-//W3C//DTD SVG 1.1//EN"
 "http://www.w3.org/Graphics/SVG/1.1/DTD/svg11.dtd">
<!-- Generated by graphviz version 2.43.0 (0)
 -->
<!-- Title: Dot_ Pages: 1 -->
<svg width="679pt" height="46pt"
 viewBox="0.00 0.00 679.00 46.00" xmlns="http://www.w3.org/2000/svg" xmlns:xlink="http://www.w3.org/1999/xlink">
<g id="graph0" class="graph" transform="scale(1 1) rotate(0) translate(4 42)">
<title>Dot_</title>
<!-- Node1 -->
<g id="Node000001" class="node">
<title>Node1</title>
<g id="a_Node000001"><a xlink:title=" ">
<polygon fill="#999999" stroke="#666666" points="671,-38 632,-38 632,-19 671,-19 671,-38"/>
<text text-anchor="middle" x="651.5" y="-26" font-family="Helvetica,sans-Serif" font-size="10.00">Dot_</text>
</a>
</g>
</g>
<!-- Node2 -->
<g id="Node000002" class="node">
<title>Node2</title>
<g id="a_Node000002"><a xlink:href="kokkos__geom_8cpp.html#a4d581c887ac5e2e357e1193c2f2198f9" target="_top" xlink:title=" ">
<polygon fill="white" stroke="#666666" points="511,-38 431,-38 431,-19 511,-19 511,-38"/>
<text text-anchor="middle" x="471" y="-26" font-family="Helvetica,sans-Serif" font-size="10.00">FinishGeom_</text>
</a>
</g>
</g>
<!-- Node1&#45;&gt;Node2 -->
<g id="edge1_Node000001_Node000002" class="edge">
<title>Node1&#45;&gt;Node2</title>
<g id="a_edge1_Node000001_Node000002"><a xlink:title=" ">
<path fill="none" stroke="#63b8ff" d="M621.51,-28.5C591.51,-28.5 544.46,-28.5 511.16,-28.5"/>
<polygon fill="#63b8ff" stroke="#63b8ff" points="621.73,-32 631.73,-28.5 621.73,-25 621.73,-32"/>
</a>
</g>
</g>
<!-- Node6 -->
<g id="Node000006" class="node">
<title>Node6</title>
<g id="a_Node000006"><a xlink:href="kokkos__geom_8cpp.html#a8fd7413b0811da8f0877a711b4a14556" target="_top" xlink:title=" ">
<polygon fill="white" stroke="#666666" points="596,-19 547,-19 547,0 596,0 596,-19"/>
<text text-anchor="middle" x="571.5" y="-7" font-family="Helvetica,sans-Serif" font-size="10.00">Norm_</text>
</a>
</g>
</g>
<!-- Node1&#45;&gt;Node6 -->
<g id="edge5_Node000001_Node000006" class="edge">
<title>Node1&#45;&gt;Node6</title>
<g id="a_edge5_Node000001_Node000006"><a xlink:title=" ">
<path fill="none" stroke="#63b8ff" d="M621.82,-21.51C613.41,-19.46 604.31,-17.25 596.24,-15.28"/>
<polygon fill="#63b8ff" stroke="#63b8ff" points="621.07,-24.93 631.62,-23.9 622.73,-18.13 621.07,-24.93"/>
</a>
</g>
</g>
<!-- Node3 -->
<g id="Node000003" class="node">
<title>Node3</title>
<g id="a_Node000003"><a xlink:href="kokkos__stub_8c.html#a2ae8602418a86e1fd87c817ad9e7ccb0" target="_top" xlink:title=" ">
<polygon fill="white" stroke="#666666" points="395,-38 232,-38 232,-19 395,-19 395,-38"/>
<text text-anchor="middle" x="313.5" y="-26" font-family="Helvetica,sans-Serif" font-size="10.00">RunKokkosSubdivGeomKernel</text>
</a>
</g>
</g>
<!-- Node2&#45;&gt;Node3 -->
<g id="edge2_Node000002_Node000003" class="edge">
<title>Node2&#45;&gt;Node3</title>
<g id="a_edge2_Node000002_Node000003"><a xlink:title=" ">
<path fill="none" stroke="#63b8ff" d="M420.74,-28.5C412.6,-28.5 403.98,-28.5 395.3,-28.5"/>
<polygon fill="#63b8ff" stroke="#63b8ff" points="420.76,-32 430.76,-28.5 420.76,-25 420.76,-32"/>
</a>
</g>
</g>
<!-- Node4 -->
<g id="Node000004" class="node">
<title>Node4</title>
<g id="a_Node000004"><a xlink:href="kokkos__processes_8c.html#a3f18ca1bc94cfbc69753dccb70a43699" target="_top" xlink:title=" ">
<polygon fill="white" stroke="#666666" points="196,-38 77,-38 77,-19 196,-19 196,-38"/>
<text text-anchor="middle" x="136.5" y="-26" font-family="Helvetica,sans-Serif" font-size="10.00">RunKokkosProcesses</text>
</a>
</g>
</g>
<!-- Node3&#45;&gt;Node4 -->
<g id="edge3_Node000003_Node000004" class="edge">
<title>Node3&#45;&gt;Node4</title>
<g id="a_edge3_Node000003_Node000004"><a xlink:title=" ">
<path fill="none" stroke="#63b8ff" d="M221.75,-28.5C213.09,-28.5 204.48,-28.5 196.24,-28.5"/>
<polygon fill="#63b8ff" stroke="#63b8ff" points="221.92,-32 231.91,-28.5 221.91,-25 221.92,-32"/>
</a>
</g>
</g>
<!-- Node5 -->
<g id="Node000005" class="node">
<title>Node5</title>
<g id="a_Node000005"><a xlink:href="main_8c.html#a3c04138a5bfe5d72780bb7e82a18e627" target="_top" xlink:title=" ">
<polygon fill="white" stroke="#666666" points="41,-38 0,-38 0,-19 41,-19 41,-38"/>
<text text-anchor="middle" x="20.5" y="-26" font-family="Helvetica,sans-Serif" font-size="10.00">main</text>
</a>
</g>
</g>
<!-- Node4&#45;&gt;Node5 -->
<g id="edge4_Node000004_Node000005" class="edge">
<title>Node4&#45;&gt;Node5</title>
<g id="a_edge4_Node000004_Node000005"><a xlink:title=" ">
<path fill="none" stroke="#63b8ff" d="M66.64,-28.5C57.37,-28.5 48.53,-28.5 41.18,-28.5"/>
<polygon fill="#63b8ff" stroke="#63b8ff" points="66.83,-32 76.83,-28.5 66.83,-25 66.83,-32"/>
</a>
</g>
</g>
<!-- Node6&#45;&gt;Node2 -->
<g id="edge6_Node000006_Node000002" class="edge">
<title>Node6&#45;&gt;Node2</title>
<g id="a_edge6_Node000006_Node000002"><a xlink:title=" ">
<path fill="none" stroke="#63b8ff" d="M536.87,-15.99C528.6,-17.58 519.67,-19.3 511.17,-20.94"/>
<polygon fill="#63b8ff" stroke="#63b8ff" points="537.75,-19.38 546.91,-14.05 536.42,-12.51 537.75,-19.38"/>
</a>
</g>
</g>
</g>
</svg>
