<?xml version="1.0" encoding="UTF-8" standalone="no"?>
<!DOCTYPE svg PUBLIC "-//W3C//DTD SVG 1.1//EN"
 "http://www.w3.org/Graphics/SVG/1.1/DTD/svg11.dtd">
<!-- Generated by graphviz version 2.43.0 (0)
 -->
<!-- Title: InitKokkosWorkspace Pages: 1 -->
<svg width="559pt" height="46pt"
 viewBox="0.00 0.00 559.00 46.00" xmlns="http://www.w3.org/2000/svg" xmlns:xlink="http://www.w3.org/1999/xlink">
<g id="graph0" class="graph" transform="scale(1 1) rotate(0) translate(4 42)">
<title>InitKokkosWorkspace</title>
<!-- Node1 -->
<g id="Node000001" class="node">
<title>Node1</title>
<g id="a_Node000001"><a xlink:title=" ">
<polygon fill="#999999" stroke="#666666" points="551,-38 431,-38 431,-19 551,-19 551,-38"/>
<text text-anchor="middle" x="491" y="-26" font-family="Helvetica,sans-Serif" font-size="10.00">InitKokkosWorkspace</text>
</a>
</g>
</g>
<!-- Node2 -->
<g id="Node000002" class="node">
<title>Node2</title>
<g id="a_Node000002"><a xlink:href="kokkos__processes_8c.html#a3f18ca1bc94cfbc69753dccb70a43699" target="_top" xlink:title=" ">
<polygon fill="white" stroke="#666666" points="196,-38 77,-38 77,-19 196,-19 196,-38"/>
<text text-anchor="middle" x="136.5" y="-26" font-family="Helvetica,sans-Serif" font-size="10.00">RunKokkosProcesses</text>
</a>
</g>
</g>
<!-- Node1&#45;&gt;Node2 -->
<g id="edge1_Node000001_Node000002" class="edge">
<title>Node1&#45;&gt;Node2</title>
<g id="a_edge1_Node000001_Node000002"><a xlink:title=" ">
<path fill="none" stroke="#63b8ff" d="M420.76,-28.5C355.22,-28.5 257.91,-28.5 196.11,-28.5"/>
<polygon fill="#63b8ff" stroke="#63b8ff" points="421,-32 431,-28.5 421,-25 421,-32"/>
</a>
</g>
</g>
<!-- Node4 -->
<g id="Node000004" class="node">
<title>Node4</title>
<g id="a_Node000004"><a xlink:href="kokkos__stub_8c.html#a2ae8602418a86e1fd87c817ad9e7ccb0" target="_top" xlink:title=" ">
<polygon fill="white" stroke="#666666" points="395,-19 232,-19 232,0 395,0 395,-19"/>
<text text-anchor="middle" x="313.5" y="-7" font-family="Helvetica,sans-Serif" font-size="10.00">RunKokkosSubdivGeomKernel</text>
</a>
</g>
</g>
<!-- Node1&#45;&gt;Node4 -->
<g id="edge3_Node000001_Node000004" class="edge">
<title>Node1&#45;&gt;Node4</title>
<g id="a_edge3_Node000001_Node000004"><a xlink:title=" ">
<path fill="none" stroke="#63b8ff" d="M420.51,-20.98C412.14,-20.07 403.53,-19.14 395.02,-18.22"/>
<polygon fill="#63b8ff" stroke="#63b8ff" points="420.27,-24.47 430.58,-22.07 421.02,-17.51 420.27,-24.47"/>
</a>
</g>
</g>
<!-- Node3 -->
<g id="Node000003" class="node">
<title>Node3</title>
<g id="a_Node000003"><a xlink:href="main_8c.html#a3c04138a5bfe5d72780bb7e82a18e627" target="_top" xlink:title=" ">
<polygon fill="white" stroke="#666666" points="41,-38 0,-38 0,-19 41,-19 41,-38"/>
<text text-anchor="middle" x="20.5" y="-26" font-family="Helvetica,sans-Serif" font-size="10.00">main</text>
</a>
</g>
</g>
<!-- Node2&#45;&gt;Node3 -->
<g id="edge2_Node000002_Node000003" class="edge">
<title>Node2&#45;&gt;Node3</title>
<g id="a_edge2_Node000002_Node000003"><a xlink:title=" ">
<path fill="none" stroke="#63b8ff" d="M66.64,-28.5C57.37,-28.5 48.53,-28.5 41.18,-28.5"/>
<polygon fill="#63b8ff" stroke="#63b8ff" points="66.83,-32 76.83,-28.5 66.83,-25 66.83,-32"/>
</a>
</g>
</g>
<!-- Node4&#45;&gt;Node2 -->
<g id="edge4_Node000004_Node000002" class="edge">
<title>Node4&#45;&gt;Node2</title>
<g id="a_edge4_Node000004_Node000002"><a xlink:title=" ">
<path fill="none" stroke="#63b8ff" d="M221.75,-19.35C213.09,-20.29 204.48,-21.23 196.24,-22.12"/>
<polygon fill="#63b8ff" stroke="#63b8ff" points="222.35,-22.81 231.91,-18.25 221.6,-15.85 222.35,-22.81"/>
</a>
</g>
</g>
</g>
</svg>
