<?xml version="1.0" encoding="UTF-8" standalone="no"?>
<!DOCTYPE svg PUBLIC "-//W3C//DTD SVG 1.1//EN"
 "http://www.w3.org/Graphics/SVG/1.1/DTD/svg11.dtd">
<!-- Generated by graphviz version 2.43.0 (0)
 -->
<!-- Title: RunKokkosProcesses Pages: 1 -->
<!--zoomable 561 -->

<svg id="main" version="1.1" xmlns="http://www.w3.org/2000/svg" xmlns:xlink="http://www.w3.org/1999/xlink" xml:space="preserve" onload="init(evt)">
<style type="text/css"><![CDATA[
.node, .edge {opacity: 0.7;}
.node.selected, .edge.selected {opacity: 1;}
.edge:hover path { stroke: red; }
.edge:hover polygon { stroke: red; fill: red; }
]]></style>

<defs>
  <circle id="rim" cx="0" cy="0" r="7"/>
  <circle id="rim2" cx="0" cy="0" r="3.5"/>
  <g id="zoomPlus">
    <use xlink:href="#rim" fill="#404040"><set attributeName="fill" to="#808080" begin="zoomplus.mouseover" end="zoomplus.mouseout"/></use>
    <path d="M-4,0h8M0,-4v8" fill="none" stroke="white" stroke-width="1.5" pointer-events="none"/>
  </g>
  <g id="zoomMin">
    <use xlink:href="#rim" fill="#404040"><set attributeName="fill" to="#808080" begin="zoomminus.mouseover" end="zoomminus.mouseout"/></use>
    <path d="M-4,0h8" fill="none" stroke="white" stroke-width="1.5" pointer-events="none"/>
  </g>
  <g id="arrowUp" transform="translate(30 24)">
    <use xlink:href="#rim"/>
    <path pointer-events="none" fill="none" stroke="white" stroke-width="1.5" d="M0,-3.0v7 M-2.5,-0.5L0,-3.0L2.5,-0.5"/>
  </g>
  <g id="arrowRight" transform="rotate(90) translate(36 -43)">
    <use xlink:href="#rim"/>
    <path pointer-events="none" fill="none" stroke="white" stroke-width="1.5" d="M0,-3.0v7 M-2.5,-0.5L0,-3.0L2.5,-0.5"/>
  </g>
  <g id="arrowDown" transform="rotate(180) translate(-30 -48)">
    <use xlink:href="#rim"/>
    <path pointer-events="none" fill="none" stroke="white" stroke-width="1.5" d="M0,-3.0v7 M-2.5,-0.5L0,-3.0L2.5,-0.5"/>
  </g>
  <g id="arrowLeft" transform="rotate(270) translate(-36 17)">
    <use xlink:href="#rim"/>
    <path pointer-events="none" fill="none" stroke="white" stroke-width="1.5" d="M0,-3.0v7 M-2.5,-0.5L0,-3.0L2.5,-0.5"/>
  </g>
  <g id="resetDef">
    <use xlink:href="#rim2" fill="#404040"><set attributeName="fill" to="#808080" begin="reset.mouseover" end="reset.mouseout"/></use>
  </g>
</defs>
<script type="application/ecmascript">
var viewWidth = 849;
var viewHeight = 561;
var sectionId = 'dynsection-19';
</script>
<script type="application/ecmascript" xlink:href="svg.min.js"/>
<svg id="graph" class="graph">
<g id="viewport">
<title>RunKokkosProcesses</title>
<!-- Node1 -->
<g id="Node000001" class="node">
<title>Node1</title>
<g id="a_Node000001"><a xlink:title=" ">
<polygon fill="#999999" stroke="#666666" points="119,-262 0,-262 0,-243 119,-243 119,-262"/>
<text text-anchor="middle" x="59.5" y="-250" font-family="Helvetica,sans-Serif" font-size="10.00">RunKokkosProcesses</text>
</a>
</g>
</g>
<!-- Node2 -->
<g id="Node000002" class="node">
<title>Node2</title>
<g id="a_Node000002"><a xlink:href="kokkos__processes_8c.html#aa1a27b7fc5a25b07f41eb317324eca2c" target="_top" xlink:title=" ">
<polygon fill="white" stroke="#666666" points="297,-455 176,-455 176,-436 297,-436 297,-455"/>
<text text-anchor="middle" x="236.5" y="-443" font-family="Helvetica,sans-Serif" font-size="10.00">CompareGeomState_</text>
</a>
</g>
</g>
<!-- Node1&#45;&gt;Node2 -->
<g id="edge1_Node000001_Node000002" class="edge">
<title>Node1&#45;&gt;Node2</title>
<g id="a_edge1_Node000001_Node000002"><a xlink:title=" ">
<path fill="none" stroke="#63b8ff" d="M64.35,-262.29C75.08,-288.46 107.62,-361 155,-404.5 167.6,-416.07 184.09,-425.23 198.85,-431.93"/>
<polygon fill="#63b8ff" stroke="#63b8ff" points="197.68,-435.23 208.25,-435.97 200.45,-428.8 197.68,-435.23"/>
</a>
</g>
</g>
<!-- Node7 -->
<g id="Node000007" class="node">
<title>Node7</title>
<g id="a_Node000007"><a xlink:href="kokkos__processes_8c.html#a1490ef4f89483d23d1f863619e7a5e04" target="_top" xlink:title=" ">
<polygon fill="white" stroke="#666666" points="316.5,-395 156.5,-395 156.5,-376 316.5,-376 316.5,-395"/>
<text text-anchor="middle" x="236.5" y="-383" font-family="Helvetica,sans-Serif" font-size="10.00">DestroyGeomStateSnapshot_</text>
</a>
</g>
</g>
<!-- Node1&#45;&gt;Node7 -->
<g id="edge6_Node000001_Node000007" class="edge">
<title>Node1&#45;&gt;Node7</title>
<g id="a_edge6_Node000001_Node000007"><a xlink:title=" ">
<path fill="none" stroke="#63b8ff" d="M65.72,-262.01C78.16,-283.74 111.74,-337.23 155,-364.5 159.93,-367.61 165.31,-370.26 170.87,-372.52"/>
<polygon fill="#63b8ff" stroke="#63b8ff" points="169.76,-375.84 180.35,-375.96 172.15,-369.26 169.76,-375.84"/>
</a>
</g>
</g>
<!-- Node9 -->
<g id="Node000009" class="node">
<title>Node9</title>
<g id="a_Node000009"><a xlink:href="active__strain_8c.html#ac93e65e44aa9af3d11c2165016210d87" target="_top" xlink:title="Update reference midsurface geometry cache for one element.">
<polygon fill="white" stroke="#666666" points="309,-355 164,-355 164,-336 309,-336 309,-355"/>
<text text-anchor="middle" x="236.5" y="-343" font-family="Helvetica,sans-Serif" font-size="10.00">ElemUpdateGeom0Subdiv</text>
</a>
</g>
</g>
<!-- Node1&#45;&gt;Node9 -->
<g id="edge8_Node000001_Node000009" class="edge">
<title>Node1&#45;&gt;Node9</title>
<g id="a_edge8_Node000001_Node000009"><a xlink:title=" ">
<path fill="none" stroke="#63b8ff" d="M69.69,-262.23C85.52,-278.38 119.65,-310.63 155,-327.5 159.11,-329.46 163.44,-331.21 167.87,-332.78"/>
<polygon fill="#63b8ff" stroke="#63b8ff" points="167.11,-336.21 177.7,-335.91 169.23,-329.54 167.11,-336.21"/>
</a>
</g>
</g>
<!-- Node16 -->
<g id="Node000016" class="node">
<title>Node16</title>
<g id="a_Node000016"><a xlink:href="active__strain_8c.html#a04fa5da4f55d0663ad5ec7a3534de0af" target="_top" xlink:title="Update current midsurface geometry cache for one element.">
<polygon fill="white" stroke="#666666" points="306,-318 167,-318 167,-299 306,-299 306,-318"/>
<text text-anchor="middle" x="236.5" y="-306" font-family="Helvetica,sans-Serif" font-size="10.00">ElemUpdateGeomSubdiv</text>
</a>
</g>
</g>
<!-- Node1&#45;&gt;Node16 -->
<g id="edge15_Node000001_Node000016" class="edge">
<title>Node1&#45;&gt;Node16</title>
<g id="a_edge15_Node000001_Node000016"><a xlink:title=" ">
<path fill="none" stroke="#63b8ff" d="M81.54,-262.11C100.45,-270.47 129.16,-282.47 155,-290.5 161.96,-292.66 169.33,-294.67 176.68,-296.51"/>
<polygon fill="#63b8ff" stroke="#63b8ff" points="176.09,-299.97 186.64,-298.91 177.73,-293.17 176.09,-299.97"/>
</a>
</g>
</g>
<!-- Node17 -->
<g id="Node000017" class="node">
<title>Node17</title>
<g id="a_Node000017"><a xlink:href="kokkos__stub_8c.html#a1ab27b88a20277e71df0a7045ab7caec" target="_top" xlink:title=" ">
<polygon fill="white" stroke="#666666" points="296.5,-281 176.5,-281 176.5,-262 296.5,-262 296.5,-281"/>
<text text-anchor="middle" x="236.5" y="-269" font-family="Helvetica,sans-Serif" font-size="10.00">InitKokkosWorkspace</text>
</a>
</g>
</g>
<!-- Node1&#45;&gt;Node17 -->
<g id="edge17_Node000001_Node000017" class="edge">
<title>Node1&#45;&gt;Node17</title>
<g id="a_edge17_Node000001_Node000017"><a xlink:title=" ">
<path fill="none" stroke="#63b8ff" d="M119.26,-258.88C134.33,-260.52 150.68,-262.29 166.22,-263.98"/>
<polygon fill="#63b8ff" stroke="#63b8ff" points="165.98,-267.47 176.3,-265.07 166.74,-260.51 165.98,-267.47"/>
</a>
</g>
</g>
<!-- Node18 -->
<g id="Node000018" class="node">
<title>Node18</title>
<g id="a_Node000018"><a xlink:href="kokkos__processes_8c.html#a69a0b8e7c14096896a0cdb3ff50c234a" target="_top" xlink:title=" ">
<polygon fill="white" stroke="#666666" points="307.5,-244 165.5,-244 165.5,-225 307.5,-225 307.5,-244"/>
<text text-anchor="middle" x="236.5" y="-232" font-family="Helvetica,sans-Serif" font-size="10.00">PrintKokkosGeomTiming_</text>
</a>
</g>
</g>
<!-- Node1&#45;&gt;Node18 -->
<g id="edge18_Node000001_Node000018" class="edge">
<title>Node1&#45;&gt;Node18</title>
<g id="a_edge18_Node000001_Node000018"><a xlink:title=" ">
<path fill="none" stroke="#63b8ff" d="M119.26,-246.46C130.82,-245.27 143.13,-244 155.25,-242.75"/>
<polygon fill="#63b8ff" stroke="#63b8ff" points="155.78,-246.22 165.37,-241.71 155.07,-239.25 155.78,-246.22"/>
</a>
</g>
</g>
<!-- Node19 -->
<g id="Node000019" class="node">
<title>Node19</title>
<g id="a_Node000019"><a xlink:href="kokkos__processes_8c.html#a76c29ce4f0cdafa934461f68b1a020bd" target="_top" xlink:title=" ">
<polygon fill="white" stroke="#666666" points="491,-244 393,-244 393,-225 491,-225 491,-244"/>
<text text-anchor="middle" x="442" y="-232" font-family="Helvetica,sans-Serif" font-size="10.00">TimingSpeedup_</text>
</a>
</g>
</g>
<!-- Node1&#45;&gt;Node19 -->
<g id="edge38_Node000001_Node000019" class="edge">
<title>Node1&#45;&gt;Node19</title>
<g id="a_edge38_Node000001_Node000019"><a xlink:title=" ">
<path fill="none" stroke="#63b8ff" d="M79.45,-242.92C98.12,-234.06 127.72,-221.52 155,-216.5 234.39,-201.89 328.04,-213.03 385.97,-223.15"/>
<polygon fill="#63b8ff" stroke="#63b8ff" points="385.55,-226.63 396.01,-224.96 386.79,-219.74 385.55,-226.63"/>
</a>
</g>
</g>
<!-- Node20 -->
<g id="Node000020" class="node">
<title>Node20</title>
<g id="a_Node000020"><a xlink:href="kokkos__stub_8c.html#a2ae8602418a86e1fd87c817ad9e7ccb0" target="_top" xlink:title=" ">
<polygon fill="white" stroke="#666666" points="318,-168 155,-168 155,-149 318,-149 318,-168"/>
<text text-anchor="middle" x="236.5" y="-156" font-family="Helvetica,sans-Serif" font-size="10.00">RunKokkosSubdivGeomKernel</text>
</a>
</g>
</g>
<!-- Node1&#45;&gt;Node20 -->
<g id="edge20_Node000001_Node000020" class="edge">
<title>Node1&#45;&gt;Node20</title>
<g id="a_edge20_Node000001_Node000020"><a xlink:title=" ">
<path fill="none" stroke="#63b8ff" d="M70.75,-242.99C87.28,-228.11 121.4,-199.3 155,-182.5 164,-178 174,-174.18 183.8,-171.01"/>
<polygon fill="#63b8ff" stroke="#63b8ff" points="184.95,-174.31 193.49,-168.04 182.91,-167.62 184.95,-174.31"/>
</a>
</g>
</g>
<!-- Node32 -->
<g id="Node000032" class="node">
<title>Node32</title>
<g id="a_Node000032"><a xlink:href="kokkos__processes_8c.html#acd08387342193f96e5f2e9c1a2560332" target="_top" xlink:title=" ">
<polygon fill="white" stroke="#666666" points="297.5,-131 175.5,-131 175.5,-112 297.5,-112 297.5,-131"/>
<text text-anchor="middle" x="236.5" y="-119" font-family="Helvetica,sans-Serif" font-size="10.00">SnapshotGeomState_</text>
</a>
</g>
</g>
<!-- Node1&#45;&gt;Node32 -->
<g id="edge35_Node000001_Node000032" class="edge">
<title>Node1&#45;&gt;Node32</title>
<g id="a_edge35_Node000001_Node000032"><a xlink:title=" ">
<path fill="none" stroke="#63b8ff" d="M65.68,-242.92C78.02,-221.05 111.43,-167.27 155,-140.5 158.58,-138.3 162.39,-136.36 166.34,-134.64"/>
<polygon fill="#63b8ff" stroke="#63b8ff" points="167.66,-137.88 175.74,-131.02 165.15,-131.35 167.66,-137.88"/>
</a>
</g>
</g>
<!-- Node35 -->
<g id="Node000035" class="node">
<title>Node35</title>
<g id="a_Node000035"><a xlink:href="active__strain_8c.html#ae75ba552d85f95e09ab4db1ea2344159" target="_top" xlink:title="Apply an element callback to all mesh elements.">
<polygon fill="white" stroke="#666666" points="285.5,-94 187.5,-94 187.5,-75 285.5,-75 285.5,-94"/>
<text text-anchor="middle" x="236.5" y="-82" font-family="Helvetica,sans-Serif" font-size="10.00">UpdateElements</text>
</a>
</g>
</g>
<!-- Node1&#45;&gt;Node35 -->
<g id="edge39_Node000001_Node000035" class="edge">
<title>Node1&#45;&gt;Node35</title>
<g id="a_edge39_Node000001_Node000035"><a xlink:title=" ">
<path fill="none" stroke="#63b8ff" d="M63.75,-242.65C73.15,-215.72 103.1,-140.45 155,-103.5 161.74,-98.7 169.52,-95.1 177.53,-92.41"/>
<polygon fill="#63b8ff" stroke="#63b8ff" points="178.74,-95.7 187.36,-89.54 176.78,-88.98 178.74,-95.7"/>
</a>
</g>
</g>
<!-- Node3 -->
<g id="Node000003" class="node">
<title>Node3</title>
<g id="a_Node000003"><a xlink:href="kokkos__processes_8c.html#af20d00d2e3dc74fd37bf92a011381a22" target="_top" xlink:title=" ">
<polygon fill="white" stroke="#666666" points="486.5,-497 397.5,-497 397.5,-478 486.5,-478 486.5,-497"/>
<text text-anchor="middle" x="442" y="-485" font-family="Helvetica,sans-Serif" font-size="10.00">MaxGeomDiff_</text>
</a>
</g>
</g>
<!-- Node2&#45;&gt;Node3 -->
<g id="edge2_Node000002_Node000003" class="edge">
<title>Node2&#45;&gt;Node3</title>
<g id="a_edge2_Node000002_Node000003"><a xlink:title=" ">
<path fill="none" stroke="#63b8ff" d="M283.68,-455.03C314.47,-461.39 355.06,-469.76 387.29,-476.42"/>
<polygon fill="#63b8ff" stroke="#63b8ff" points="386.94,-479.92 397.44,-478.51 388.36,-473.06 386.94,-479.92"/>
</a>
</g>
</g>
<!-- Node4 -->
<g id="Node000004" class="node">
<title>Node4</title>
<g id="a_Node000004"><a xlink:href="kokkos__processes_8c.html#a7c595c9f88b599c40b33e9135c7acaa1" target="_top" xlink:title=" ">
<polygon fill="white" stroke="#666666" points="668.5,-553 616.5,-553 616.5,-534 668.5,-534 668.5,-553"/>
<text text-anchor="middle" x="642.5" y="-541" font-family="Helvetica,sans-Serif" font-size="10.00">IntDiff_</text>
</a>
</g>
</g>
<!-- Node3&#45;&gt;Node4 -->
<g id="edge3_Node000003_Node000004" class="edge">
<title>Node3&#45;&gt;Node4</title>
<g id="a_edge3_Node000003_Node000004"><a xlink:title=" ">
<path fill="none" stroke="#63b8ff" d="M472.17,-497.1C496.99,-505.13 533.66,-516.66 566,-525.5 579.13,-529.09 593.65,-532.65 606.42,-535.64"/>
<polygon fill="#63b8ff" stroke="#63b8ff" points="605.7,-539.07 616.23,-537.91 607.27,-532.25 605.7,-539.07"/>
</a>
</g>
</g>
<!-- Node5 -->
<g id="Node000005" class="node">
<title>Node5</title>
<g id="a_Node000005"><a xlink:href="kokkos__processes_8c.html#aff94089ec8ee45582e5a2dab21c142bf" target="_top" xlink:title=" ">
<polygon fill="white" stroke="#666666" points="691.5,-516 593.5,-516 593.5,-497 691.5,-497 691.5,-516"/>
<text text-anchor="middle" x="642.5" y="-504" font-family="Helvetica,sans-Serif" font-size="10.00">MaxCmpntsDiff_</text>
</a>
</g>
</g>
<!-- Node3&#45;&gt;Node5 -->
<g id="edge4_Node000003_Node000005" class="edge">
<title>Node3&#45;&gt;Node5</title>
<g id="a_edge4_Node000003_Node000005"><a xlink:title=" ">
<path fill="none" stroke="#63b8ff" d="M486.56,-491.67C514.86,-494.38 552.09,-497.94 582.96,-500.9"/>
<polygon fill="#63b8ff" stroke="#63b8ff" points="582.88,-504.4 593.17,-501.87 583.55,-497.44 582.88,-504.4"/>
</a>
</g>
</g>
<!-- Node6 -->
<g id="Node000006" class="node">
<title>Node6</title>
<g id="a_Node000006"><a xlink:href="kokkos__processes_8c.html#a2cf5c59d27754eba917ccfa298303637" target="_top" xlink:title=" ">
<polygon fill="white" stroke="#666666" points="706.5,-479 578.5,-479 578.5,-460 706.5,-460 706.5,-479"/>
<text text-anchor="middle" x="642.5" y="-467" font-family="Helvetica,sans-Serif" font-size="10.00">MaxIrregularArrayDiff_</text>
</a>
</g>
</g>
<!-- Node3&#45;&gt;Node6 -->
<g id="edge5_Node000003_Node000006" class="edge">
<title>Node3&#45;&gt;Node6</title>
<g id="a_edge5_Node000003_Node000006"><a xlink:title=" ">
<path fill="none" stroke="#63b8ff" d="M486.56,-483.55C510.55,-481.37 540.95,-478.62 568.46,-476.12"/>
<polygon fill="#63b8ff" stroke="#63b8ff" points="568.81,-479.61 578.45,-475.22 568.18,-472.63 568.81,-479.61"/>
</a>
</g>
</g>
<!-- Node8 -->
<g id="Node000008" class="node">
<title>Node8</title>
<g id="a_Node000008"><a xlink:href="kokkos__processes_8c.html#a94fd37a23f1ca94206383eccf4a003cc" target="_top" xlink:title=" ">
<polygon fill="white" stroke="#666666" points="509,-397 375,-397 375,-378 509,-378 509,-397"/>
<text text-anchor="middle" x="442" y="-385" font-family="Helvetica,sans-Serif" font-size="10.00">DestroyGeomSnapshot_</text>
</a>
</g>
</g>
<!-- Node7&#45;&gt;Node8 -->
<g id="edge7_Node000007_Node000008" class="edge">
<title>Node7&#45;&gt;Node8</title>
<g id="a_edge7_Node000007_Node000008"><a xlink:title=" ">
<path fill="none" stroke="#63b8ff" d="M316.76,-386.28C332.51,-386.43 349.01,-386.6 364.66,-386.75"/>
<polygon fill="#63b8ff" stroke="#63b8ff" points="364.76,-390.25 374.8,-386.85 364.83,-383.25 364.76,-390.25"/>
</a>
</g>
</g>
<!-- Node10 -->
<g id="Node000010" class="node">
<title>Node10</title>
<g id="a_Node000010"><a xlink:href="active__strain_8c.html#a9ef026a24ded6fec7243fd82f49394c3" target="_top" xlink:title=" ">
<polygon fill="white" stroke="#666666" points="524,-359.5 360,-359.5 360,-329.5 524,-329.5 524,-359.5"/>
<text text-anchor="start" x="368" y="-347.5" font-family="Helvetica,sans-Serif" font-size="10.00">ElemUpdateGeomSubdivFrom</text>
<text text-anchor="middle" x="442" y="-336.5" font-family="Helvetica,sans-Serif" font-size="10.00">Coords_</text>
</a>
</g>
</g>
<!-- Node9&#45;&gt;Node10 -->
<g id="edge9_Node000009_Node000010" class="edge">
<title>Node9&#45;&gt;Node10</title>
<g id="a_edge9_Node000009_Node000010"><a xlink:title=" ">
<path fill="none" stroke="#63b8ff" d="M309.25,-345.15C322.29,-345.08 336.05,-345.02 349.56,-344.95"/>
<polygon fill="#63b8ff" stroke="#63b8ff" points="349.85,-348.45 359.84,-344.9 349.82,-341.45 349.85,-348.45"/>
</a>
</g>
</g>
<!-- Node11 -->
<g id="Node000011" class="node">
<title>Node11</title>
<g id="a_Node000011"><a xlink:href="math_8c.html#a7ef9263b0a3a10c2cd00bb4dc0059d70" target="_top" xlink:title=" ">
<polygon fill="white" stroke="#666666" points="667.5,-442 617.5,-442 617.5,-423 667.5,-423 667.5,-442"/>
<text text-anchor="middle" x="642.5" y="-430" font-family="Helvetica,sans-Serif" font-size="10.00">AMULT</text>
</a>
</g>
</g>
<!-- Node10&#45;&gt;Node11 -->
<g id="edge10_Node000010_Node000011" class="edge">
<title>Node10&#45;&gt;Node11</title>
<g id="a_edge10_Node000010_Node000011"><a xlink:title=" ">
<path fill="none" stroke="#63b8ff" d="M511.34,-359.65C517.9,-362.41 524.25,-365.66 530,-369.5 551.31,-383.71 544.37,-400.79 566,-414.5 578.33,-422.32 593.76,-426.74 607.44,-429.25"/>
<polygon fill="#63b8ff" stroke="#63b8ff" points="607.07,-432.73 617.49,-430.81 608.14,-425.81 607.07,-432.73"/>
</a>
</g>
</g>
<!-- Node12 -->
<g id="Node000012" class="node">
<title>Node12</title>
<g id="a_Node000012"><a xlink:href="math_8c.html#a9d60990d26296194c921d537ea26f3c7" target="_top" xlink:title=" ">
<polygon fill="white" stroke="#666666" points="667.5,-405 617.5,-405 617.5,-386 667.5,-386 667.5,-405"/>
<text text-anchor="middle" x="642.5" y="-393" font-family="Helvetica,sans-Serif" font-size="10.00">CROSS</text>
</a>
</g>
</g>
<!-- Node10&#45;&gt;Node12 -->
<g id="edge11_Node000010_Node000012" class="edge">
<title>Node10&#45;&gt;Node12</title>
<g id="a_edge11_Node000010_Node000012"><a xlink:title=" ">
<path fill="none" stroke="#63b8ff" d="M497.71,-359.53C519,-365.29 543.6,-371.83 566,-377.5 579.5,-380.92 594.41,-384.51 607.39,-387.58"/>
<polygon fill="#63b8ff" stroke="#63b8ff" points="606.78,-391.03 617.32,-389.92 608.38,-384.22 606.78,-391.03"/>
</a>
</g>
</g>
<!-- Node13 -->
<g id="Node000013" class="node">
<title>Node13</title>
<g id="a_Node000013"><a xlink:href="math_8c.html#a870a70f4845a041458d9bdb0dd7aabd3" target="_top" xlink:title=" ">
<polygon fill="white" stroke="#666666" points="661.5,-368 623.5,-368 623.5,-349 661.5,-349 661.5,-368"/>
<text text-anchor="middle" x="642.5" y="-356" font-family="Helvetica,sans-Serif" font-size="10.00">DOT</text>
</a>
</g>
</g>
<!-- Node10&#45;&gt;Node13 -->
<g id="edge12_Node000010_Node000013" class="edge">
<title>Node10&#45;&gt;Node13</title>
<g id="a_edge12_Node000010_Node000013"><a xlink:title=" ">
<path fill="none" stroke="#63b8ff" d="M524.02,-350.21C555.67,-352.45 589.89,-354.86 613.18,-356.5"/>
<polygon fill="#63b8ff" stroke="#63b8ff" points="613.15,-360.01 623.37,-357.22 613.64,-353.03 613.15,-360.01"/>
</a>
</g>
</g>
<!-- Node14 -->
<g id="Node000014" class="node">
<title>Node14</title>
<g id="a_Node000014"><a xlink:href="active__strain_8c.html#af8eb71852e7e9e1290f27656e66736fe" target="_top" xlink:title=" ">
<polygon fill="white" stroke="#666666" points="719,-330.5 566,-330.5 566,-300.5 719,-300.5 719,-330.5"/>
<text text-anchor="start" x="574" y="-318.5" font-family="Helvetica,sans-Serif" font-size="10.00">SubdivGeomEnsureIrregular</text>
<text text-anchor="middle" x="642.5" y="-307.5" font-family="Helvetica,sans-Serif" font-size="10.00">Arrays_</text>
</a>
</g>
</g>
<!-- Node10&#45;&gt;Node14 -->
<g id="edge13_Node000010_Node000014" class="edge">
<title>Node10&#45;&gt;Node14</title>
<g id="a_edge13_Node000010_Node000014"><a xlink:title=" ">
<path fill="none" stroke="#63b8ff" d="M524.02,-332.66C534.5,-331.13 545.26,-329.56 555.82,-328.02"/>
<polygon fill="#63b8ff" stroke="#63b8ff" points="556.46,-331.46 565.85,-326.55 555.45,-324.53 556.46,-331.46"/>
</a>
</g>
</g>
<!-- Node15 -->
<g id="Node000015" class="node">
<title>Node15</title>
<g id="a_Node000015"><a xlink:href="math_8c.html#ac616709995f2ae60c4308ffa328337d7" target="_top" xlink:title=" ">
<polygon fill="white" stroke="#666666" points="663,-282 622,-282 622,-263 663,-263 663,-282"/>
<text text-anchor="middle" x="642.5" y="-270" font-family="Helvetica,sans-Serif" font-size="10.00">UNIT</text>
</a>
</g>
</g>
<!-- Node10&#45;&gt;Node15 -->
<g id="edge14_Node000010_Node000015" class="edge">
<title>Node10&#45;&gt;Node15</title>
<g id="a_edge14_Node000010_Node000015"><a xlink:title=" ">
<path fill="none" stroke="#63b8ff" d="M474.06,-329.47C498.61,-317.99 533.96,-302.36 566,-291.5 580.79,-286.49 597.61,-282.13 611.62,-278.86"/>
<polygon fill="#63b8ff" stroke="#63b8ff" points="612.72,-282.2 621.7,-276.57 611.17,-275.37 612.72,-282.2"/>
</a>
</g>
</g>
<!-- Node16&#45;&gt;Node10 -->
<g id="edge16_Node000016_Node000010" class="edge">
<title>Node16&#45;&gt;Node10</title>
<g id="a_edge16_Node000016_Node000010"><a xlink:title=" ">
<path fill="none" stroke="#63b8ff" d="M291.23,-318.01C309.16,-321.18 329.68,-324.81 349.65,-328.34"/>
<polygon fill="#63b8ff" stroke="#63b8ff" points="349.25,-331.82 359.71,-330.12 350.47,-324.93 349.25,-331.82"/>
</a>
</g>
</g>
<!-- Node18&#45;&gt;Node19 -->
<g id="edge19_Node000018_Node000019" class="edge">
<title>Node18&#45;&gt;Node19</title>
<g id="a_edge19_Node000018_Node000019"><a xlink:title=" ">
<path fill="none" stroke="#63b8ff" d="M307.53,-234.5C332.07,-234.5 359.34,-234.5 382.8,-234.5"/>
<polygon fill="#63b8ff" stroke="#63b8ff" points="382.95,-238 392.95,-234.5 382.95,-231 382.95,-238"/>
</a>
</g>
</g>
<!-- Node21 -->
<g id="Node000021" class="node">
<title>Node21</title>
<g id="a_Node000021"><a xlink:href="kokkos__geom_8cpp.html#a65e1c07ad5f563e1c6edad7c156431e4" target="_top" xlink:title=" ">
<polygon fill="white" stroke="#666666" points="521.5,-206 362.5,-206 362.5,-187 521.5,-187 521.5,-206"/>
<text text-anchor="middle" x="442" y="-194" font-family="Helvetica,sans-Serif" font-size="10.00">FindKokkosGeomWorkspace_</text>
</a>
</g>
</g>
<!-- Node20&#45;&gt;Node21 -->
<g id="edge21_Node000020_Node000021" class="edge">
<title>Node20&#45;&gt;Node21</title>
<g id="a_edge21_Node000020_Node000021"><a xlink:title=" ">
<path fill="none" stroke="#63b8ff" d="M288.59,-168.04C316.29,-173.21 350.71,-179.64 379.83,-185.08"/>
<polygon fill="#63b8ff" stroke="#63b8ff" points="379.42,-188.56 389.89,-186.96 380.7,-181.68 379.42,-188.56"/>
</a>
</g>
</g>
<!-- Node22 -->
<g id="Node000022" class="node">
<title>Node22</title>
<g id="a_Node000022"><a xlink:href="kokkos__geom_8cpp.html#a4d581c887ac5e2e357e1193c2f2198f9" target="_top" xlink:title=" ">
<polygon fill="white" stroke="#666666" points="482,-169 402,-169 402,-150 482,-150 482,-169"/>
<text text-anchor="middle" x="442" y="-157" font-family="Helvetica,sans-Serif" font-size="10.00">FinishGeom_</text>
</a>
</g>
</g>
<!-- Node20&#45;&gt;Node22 -->
<g id="edge22_Node000020_Node000022" class="edge">
<title>Node20&#45;&gt;Node22</title>
<g id="a_edge22_Node000020_Node000022"><a xlink:title=" ">
<path fill="none" stroke="#63b8ff" d="M318.22,-158.9C343.03,-159.02 369.59,-159.15 391.63,-159.26"/>
<polygon fill="#63b8ff" stroke="#63b8ff" points="391.73,-162.76 401.74,-159.31 391.76,-155.76 391.73,-162.76"/>
</a>
</g>
</g>
<!-- Node29 -->
<g id="Node000029" class="node">
<title>Node29</title>
<g id="a_Node000029"><a xlink:href="kokkos__geom_8cpp.html#a8870750e20243cefba2c9dcbd066cda1" target="_top" xlink:title=" ">
<polygon fill="white" stroke="#666666" points="482,-132 402,-132 402,-113 482,-113 482,-132"/>
<text text-anchor="middle" x="442" y="-120" font-family="Helvetica,sans-Serif" font-size="10.00">GeomCoord_</text>
</a>
</g>
</g>
<!-- Node20&#45;&gt;Node29 -->
<g id="edge32_Node000020_Node000029" class="edge">
<title>Node20&#45;&gt;Node29</title>
<g id="a_edge32_Node000020_Node000029"><a xlink:title=" ">
<path fill="none" stroke="#63b8ff" d="M291.23,-148.99C322.44,-143.47 361.47,-136.57 391.86,-131.19"/>
<polygon fill="#63b8ff" stroke="#63b8ff" points="392.58,-134.62 401.82,-129.43 391.36,-127.73 392.58,-134.62"/>
</a>
</g>
</g>
<!-- Node30 -->
<g id="Node000030" class="node">
<title>Node30</title>
<g id="a_Node000030"><a xlink:href="kokkos__geom_8cpp.html#a1ab27b88a20277e71df0a7045ab7caec" target="_top" xlink:title=" ">
<polygon fill="white" stroke="#666666" points="502,-95 382,-95 382,-76 502,-76 502,-95"/>
<text text-anchor="middle" x="442" y="-83" font-family="Helvetica,sans-Serif" font-size="10.00">InitKokkosWorkspace</text>
</a>
</g>
</g>
<!-- Node20&#45;&gt;Node30 -->
<g id="edge33_Node000020_Node000030" class="edge">
<title>Node20&#45;&gt;Node30</title>
<g id="a_edge33_Node000020_Node000030"><a xlink:title=" ">
<path fill="none" stroke="#63b8ff" d="M297.8,-148.99C304.83,-146.74 311.73,-143.95 318,-140.5 337.83,-129.6 334.14,-115.35 354,-104.5 359.61,-101.43 365.67,-98.86 371.9,-96.71"/>
<polygon fill="#63b8ff" stroke="#63b8ff" points="373.27,-99.95 381.79,-93.65 371.2,-93.26 373.27,-99.95"/>
</a>
</g>
</g>
<!-- Node31 -->
<g id="Node000031" class="node">
<title>Node31</title>
<g id="a_Node000031"><a xlink:href="kokkos__geom_8cpp.html#a4e08c63d42a66783332781795e2350da" target="_top" xlink:title=" ">
<polygon fill="white" stroke="#666666" points="530,-58 354,-58 354,-39 530,-39 530,-58"/>
<text text-anchor="middle" x="442" y="-46" font-family="Helvetica,sans-Serif" font-size="10.00">PrepareKokkosGeomWorkspace_</text>
</a>
</g>
</g>
<!-- Node20&#45;&gt;Node31 -->
<g id="edge34_Node000020_Node000031" class="edge">
<title>Node20&#45;&gt;Node31</title>
<g id="a_edge34_Node000020_Node000031"><a xlink:title=" ">
<path fill="none" stroke="#63b8ff" d="M303.92,-148.91C308.96,-146.64 313.73,-143.88 318,-140.5 346.69,-117.82 325.13,-88.95 354,-66.5 355.6,-65.26 357.26,-64.09 358.98,-63.01"/>
<polygon fill="#63b8ff" stroke="#63b8ff" points="360.81,-65.99 367.96,-58.17 357.5,-59.83 360.81,-65.99"/>
</a>
</g>
</g>
<!-- Node23 -->
<g id="Node000023" class="node">
<title>Node23</title>
<g id="a_Node000023"><a xlink:href="kokkos__geom_8cpp.html#a5787000cd34283d5476fafbcd5b87c9a" target="_top" xlink:title=" ">
<polygon fill="white" stroke="#666666" points="667,-245 618,-245 618,-226 667,-226 667,-245"/>
<text text-anchor="middle" x="642.5" y="-233" font-family="Helvetica,sans-Serif" font-size="10.00">Cross_</text>
</a>
</g>
</g>
<!-- Node22&#45;&gt;Node23 -->
<g id="edge23_Node000022_Node000023" class="edge">
<title>Node22&#45;&gt;Node23</title>
<g id="a_edge23_Node000022_Node000023"><a xlink:title=" ">
<path fill="none" stroke="#63b8ff" d="M482.19,-163.58C497.71,-166.31 515.32,-170.88 530,-178.5 549.27,-188.49 547.22,-200.62 566,-211.5 578.9,-218.97 594.41,-224.42 608,-228.21"/>
<polygon fill="#63b8ff" stroke="#63b8ff" points="607.4,-231.67 617.95,-230.8 609.16,-224.9 607.4,-231.67"/>
</a>
</g>
</g>
<!-- Node24 -->
<g id="Node000024" class="node">
<title>Node24</title>
<g id="a_Node000024"><a xlink:href="kokkos__geom_8cpp.html#aa58f98b13c9046d0a6eba9eafce6e5e2" target="_top" xlink:title=" ">
<polygon fill="white" stroke="#666666" points="841,-207 755,-207 755,-188 841,-188 841,-207"/>
<text text-anchor="middle" x="798" y="-195" font-family="Helvetica,sans-Serif" font-size="10.00">MakeCmpnts_</text>
</a>
</g>
</g>
<!-- Node22&#45;&gt;Node24 -->
<g id="edge26_Node000022_Node000024" class="edge">
<title>Node22&#45;&gt;Node24</title>
<g id="a_edge26_Node000022_Node000024"><a xlink:title=" ">
<path fill="none" stroke="#63b8ff" d="M482.23,-166.29C506.34,-170.28 537.89,-175.18 566,-178.5 627.11,-185.72 697.65,-191.1 744.54,-194.25"/>
<polygon fill="#63b8ff" stroke="#63b8ff" points="744.55,-197.76 754.76,-194.93 745.01,-190.78 744.55,-197.76"/>
</a>
</g>
</g>
<!-- Node25 -->
<g id="Node000025" class="node">
<title>Node25</title>
<g id="a_Node000025"><a xlink:href="kokkos__geom_8cpp.html#a39f976f06af29b3a623958b875f30038" target="_top" xlink:title=" ">
<polygon fill="white" stroke="#666666" points="817.5,-112 778.5,-112 778.5,-93 817.5,-93 817.5,-112"/>
<text text-anchor="middle" x="798" y="-100" font-family="Helvetica,sans-Serif" font-size="10.00">Dot_</text>
</a>
</g>
</g>
<!-- Node22&#45;&gt;Node25 -->
<g id="edge25_Node000022_Node000025" class="edge">
<title>Node22&#45;&gt;Node25</title>
<g id="a_edge25_Node000022_Node000025"><a xlink:title=" ">
<path fill="none" stroke="#63b8ff" d="M482.24,-153.18C554.05,-141.62 705.04,-117.31 768.23,-107.13"/>
<polygon fill="#63b8ff" stroke="#63b8ff" points="768.97,-110.56 778.28,-105.51 767.85,-103.65 768.97,-110.56"/>
</a>
</g>
</g>
<!-- Node26 -->
<g id="Node000026" class="node">
<title>Node26</title>
<g id="a_Node000026"><a xlink:href="kokkos__geom_8cpp.html#a8fd7413b0811da8f0877a711b4a14556" target="_top" xlink:title=" ">
<polygon fill="white" stroke="#666666" points="667,-93 618,-93 618,-74 667,-74 667,-93"/>
<text text-anchor="middle" x="642.5" y="-81" font-family="Helvetica,sans-Serif" font-size="10.00">Norm_</text>
</a>
</g>
</g>
<!-- Node22&#45;&gt;Node26 -->
<g id="edge27_Node000022_Node000026" class="edge">
<title>Node22&#45;&gt;Node26</title>
<g id="a_edge27_Node000022_Node000026"><a xlink:title=" ">
<path fill="none" stroke="#63b8ff" d="M482.24,-156.06C497.76,-153.52 515.36,-149.13 530,-141.5 549.52,-131.33 547.04,-118.67 566,-107.5 578.84,-99.93 594.34,-94.47 607.95,-90.69"/>
<polygon fill="#63b8ff" stroke="#63b8ff" points="609.1,-94.01 617.91,-88.12 607.35,-87.23 609.1,-94.01"/>
</a>
</g>
</g>
<!-- Node27 -->
<g id="Node000027" class="node">
<title>Node27</title>
<g id="a_Node000027"><a xlink:href="kokkos__geom_8cpp.html#ab844fde3d4fd7071b9c39594a4e27b2c" target="_top" xlink:title=" ">
<polygon fill="white" stroke="#666666" points="666.5,-169 618.5,-169 618.5,-150 666.5,-150 666.5,-169"/>
<text text-anchor="middle" x="642.5" y="-157" font-family="Helvetica,sans-Serif" font-size="10.00">Scale_</text>
</a>
</g>
</g>
<!-- Node22&#45;&gt;Node27 -->
<g id="edge29_Node000022_Node000027" class="edge">
<title>Node22&#45;&gt;Node27</title>
<g id="a_edge29_Node000022_Node000027"><a xlink:title=" ">
<path fill="none" stroke="#63b8ff" d="M482.22,-159.5C519.08,-159.5 573.64,-159.5 608.37,-159.5"/>
<polygon fill="#63b8ff" stroke="#63b8ff" points="608.47,-163 618.47,-159.5 608.47,-156 608.47,-163"/>
</a>
</g>
</g>
<!-- Node28 -->
<g id="Node000028" class="node">
<title>Node28</title>
<g id="a_Node000028"><a xlink:href="kokkos__geom_8cpp.html#a7fc5ca21e4448335e6ed0ef2bcfeca52" target="_top" xlink:title=" ">
<polygon fill="white" stroke="#666666" points="685,-56 600,-56 600,-37 685,-37 685,-56"/>
<text text-anchor="middle" x="642.5" y="-44" font-family="Helvetica,sans-Serif" font-size="10.00">StoreCmpnts_</text>
</a>
</g>
</g>
<!-- Node22&#45;&gt;Node28 -->
<g id="edge31_Node000022_Node000028" class="edge">
<title>Node22&#45;&gt;Node28</title>
<g id="a_edge31_Node000022_Node000028"><a xlink:title=" ">
<path fill="none" stroke="#63b8ff" d="M482.19,-158.93C498.43,-156.91 516.57,-152.11 530,-141.5 559.64,-118.08 536.71,-88.36 566,-64.5 572.91,-58.87 581.28,-54.95 589.91,-52.23"/>
<polygon fill="#63b8ff" stroke="#63b8ff" points="590.91,-55.58 599.68,-49.64 589.12,-48.82 590.91,-55.58"/>
</a>
</g>
</g>
<!-- Node23&#45;&gt;Node24 -->
<g id="edge24_Node000023_Node000024" class="edge">
<title>Node23&#45;&gt;Node24</title>
<g id="a_edge24_Node000023_Node000024"><a xlink:title=" ">
<path fill="none" stroke="#63b8ff" d="M667.15,-229.65C688.79,-224.29 721.49,-216.19 748.66,-209.47"/>
<polygon fill="#63b8ff" stroke="#63b8ff" points="749.52,-212.86 758.39,-207.06 747.84,-206.06 749.52,-212.86"/>
</a>
</g>
</g>
<!-- Node26&#45;&gt;Node25 -->
<g id="edge28_Node000026_Node000025" class="edge">
<title>Node26&#45;&gt;Node25</title>
<g id="a_edge28_Node000026_Node000025"><a xlink:title=" ">
<path fill="none" stroke="#63b8ff" d="M667.15,-86.43C694.41,-89.8 739.21,-95.35 768.41,-98.96"/>
<polygon fill="#63b8ff" stroke="#63b8ff" points="768.04,-102.44 778.4,-100.2 768.9,-95.5 768.04,-102.44"/>
</a>
</g>
</g>
<!-- Node27&#45;&gt;Node24 -->
<g id="edge30_Node000027_Node000024" class="edge">
<title>Node27&#45;&gt;Node24</title>
<g id="a_edge30_Node000027_Node000024"><a xlink:title=" ">
<path fill="none" stroke="#63b8ff" d="M666.81,-165.27C688.48,-170.63 721.41,-178.79 748.73,-185.55"/>
<polygon fill="#63b8ff" stroke="#63b8ff" points="747.97,-188.97 758.52,-187.97 749.65,-182.17 747.97,-188.97"/>
</a>
</g>
</g>
<!-- Node33 -->
<g id="Node000033" class="node">
<title>Node33</title>
<g id="a_Node000033"><a xlink:href="kokkos__processes_8c.html#a3f5958fd56dffe8dd51dfe134ca51bc8" target="_top" xlink:title=" ">
<polygon fill="white" stroke="#666666" points="490,-20 394,-20 394,-1 490,-1 490,-20"/>
<text text-anchor="middle" x="442" y="-8" font-family="Helvetica,sans-Serif" font-size="10.00">SnapshotGeom_</text>
</a>
</g>
</g>
<!-- Node32&#45;&gt;Node33 -->
<g id="edge36_Node000032_Node000033" class="edge">
<title>Node32&#45;&gt;Node33</title>
<g id="a_edge36_Node000032_Node000033"><a xlink:title=" ">
<path fill="none" stroke="#63b8ff" d="M297.85,-114.38C305.11,-111.74 312.05,-108.21 318,-103.5 346.69,-80.82 325.25,-52.11 354,-29.5 362.65,-22.69 373.22,-18.2 383.97,-15.27"/>
<polygon fill="#63b8ff" stroke="#63b8ff" points="384.89,-18.65 393.85,-12.99 383.32,-11.83 384.89,-18.65"/>
</a>
</g>
</g>
<!-- Node34 -->
<g id="Node000034" class="node">
<title>Node34</title>
<g id="a_Node000034"><a xlink:href="kokkos__processes_8c.html#a85035252c5dde6002dcc85b3c678746a" target="_top" xlink:title=" ">
<polygon fill="white" stroke="#666666" points="699.5,-19 585.5,-19 585.5,0 699.5,0 699.5,-19"/>
<text text-anchor="middle" x="642.5" y="-7" font-family="Helvetica,sans-Serif" font-size="10.00">CopyIrregularArray_</text>
</a>
</g>
</g>
<!-- Node33&#45;&gt;Node34 -->
<g id="edge37_Node000033_Node000034" class="edge">
<title>Node33&#45;&gt;Node34</title>
<g id="a_edge37_Node000033_Node000034"><a xlink:title=" ">
<path fill="none" stroke="#63b8ff" d="M490.04,-10.26C515.47,-10.13 547.28,-9.97 575.18,-9.83"/>
<polygon fill="#63b8ff" stroke="#63b8ff" points="575.28,-13.33 585.26,-9.78 575.25,-6.33 575.28,-13.33"/>
</a>
</g>
</g>
</g>
</svg>

<g id="navigator" transform="translate(0 0)" fill="#404254">
  <rect fill="#f2f5e9" fill-opacity="0.5" stroke="#606060" stroke-width=".5" x="0" y="0" width="60" height="60"/>
  <use id="zoomplus" xlink:href="#zoomPlus" x="17" y="9" onmousedown="handleZoom(evt,'in')"/>
  <use id="zoomminus" xlink:href="#zoomMin" x="42" y="9" onmousedown="handleZoom(evt,'out')"/>
  <use id="reset" xlink:href="#resetDef" x="30" y="36" onmousedown="handleReset()"/>
   <use id="arrowup" xlink:href="#arrowUp" x="0" y="0" onmousedown="handlePan(0,-1)"/>
  <use id="arrowright" xlink:href="#arrowRight" x="0" y="0" onmousedown="handlePan(1,0)"/>
  <use id="arrowdown" xlink:href="#arrowDown" x="0" y="0" onmousedown="handlePan(0,1)"/>
  <use id="arrowleft" xlink:href="#arrowLeft" x="0" y="0" onmousedown="handlePan(-1,0)"/>
</g>
<svg viewBox="0 0 15 15" width="100%" height="30px" preserveAspectRatio="xMaxYMin meet">
 <g id="arrow_out" transform="scale(0.3 0.3)">
  <a xlink:href="kokkos__processes_8c_a3f18ca1bc94cfbc69753dccb70a43699_cgraph_org.svg" target="_base">
   <rect id="button" ry="5" rx="5" y="6" x="6" height="38" width="38"
        fill="#f2f5e9" fill-opacity="0.5" stroke="#606060" stroke-width="1.0"/>
   <path id="arrow"
     d="M 11.500037,31.436501 C 11.940474,20.09759 22.043105,11.32322 32.158766,21.979434 L 37.068811,17.246167 C 37.068811,17.246167 37.088388,32 37.088388,32 L 22.160133,31.978069 C 22.160133,31.978069 26.997745,27.140456 26.997745,27.140456 C 18.528582,18.264221 13.291696,25.230495 11.500037,31.436501 z"
     style="fill:#404040;"/>
  </a>
 </g>
</svg>

<style type='text/css'>
<![CDATA[
[data-mouse-over-selected='false'] { opacity: 0.7; }
[data-mouse-over-selected='true']  { opacity: 1.0; }
]]>
</style>
<script type="application/ecmascript"><![CDATA[
document.addEventListener('DOMContentLoaded', (event) => {
  highlightEdges();
  highlightAdjacentNodes();
});
]]></script>
</svg>
