<?xml version="1.0" encoding="UTF-8" standalone="no"?>
<!DOCTYPE svg PUBLIC "-//W3C//DTD SVG 1.1//EN"
 "http://www.w3.org/Graphics/SVG/1.1/DTD/svg11.dtd">
<!-- Generated by graphviz version 2.43.0 (0)
 -->
<!-- Title: MakeCmpnts_ Pages: 1 -->
<svg width="726pt" height="103pt"
 viewBox="0.00 0.00 726.00 103.00" xmlns="http://www.w3.org/2000/svg" xmlns:xlink="http://www.w3.org/1999/xlink">
<g id="graph0" class="graph" transform="scale(1 1) rotate(0) translate(4 99)">
<title>MakeCmpnts_</title>
<!-- Node1 -->
<g id="Node000001" class="node">
<title>Node1</title>
<g id="a_Node000001"><a xlink:title=" ">
<polygon fill="#999999" stroke="#666666" points="718,-57 632,-57 632,-38 718,-38 718,-57"/>
<text text-anchor="middle" x="675" y="-45" font-family="Helvetica,sans-Serif" font-size="10.00">MakeCmpnts_</text>
</a>
</g>
</g>
<!-- Node2 -->
<g id="Node000002" class="node">
<title>Node2</title>
<g id="a_Node000002"><a xlink:href="kokkos__geom_8cpp.html#a5787000cd34283d5476fafbcd5b87c9a" target="_top" xlink:title=" ">
<polygon fill="white" stroke="#666666" points="596,-95 547,-95 547,-76 596,-76 596,-95"/>
<text text-anchor="middle" x="571.5" y="-83" font-family="Helvetica,sans-Serif" font-size="10.00">Cross_</text>
</a>
</g>
</g>
<!-- Node1&#45;&gt;Node2 -->
<g id="edge1_Node000001_Node000002" class="edge">
<title>Node1&#45;&gt;Node2</title>
<g id="a_edge1_Node000001_Node000002"><a xlink:title=" ">
<path fill="none" stroke="#63b8ff" d="M638.92,-60.63C624.74,-65.94 608.75,-71.93 596.02,-76.7"/>
<polygon fill="#63b8ff" stroke="#63b8ff" points="640.25,-63.87 648.39,-57.09 637.79,-57.32 640.25,-63.87"/>
</a>
</g>
</g>
<!-- Node3 -->
<g id="Node000003" class="node">
<title>Node3</title>
<g id="a_Node000003"><a xlink:href="kokkos__geom_8cpp.html#a4d581c887ac5e2e357e1193c2f2198f9" target="_top" xlink:title=" ">
<polygon fill="white" stroke="#666666" points="511,-57 431,-57 431,-38 511,-38 511,-57"/>
<text text-anchor="middle" x="471" y="-45" font-family="Helvetica,sans-Serif" font-size="10.00">FinishGeom_</text>
</a>
</g>
</g>
<!-- Node1&#45;&gt;Node3 -->
<g id="edge6_Node000001_Node000003" class="edge">
<title>Node1&#45;&gt;Node3</title>
<g id="a_edge6_Node000001_Node000003"><a xlink:title=" ">
<path fill="none" stroke="#63b8ff" d="M621.3,-47.5C586.84,-47.5 542.57,-47.5 511.21,-47.5"/>
<polygon fill="#63b8ff" stroke="#63b8ff" points="621.65,-51 631.65,-47.5 621.65,-44 621.65,-51"/>
</a>
</g>
</g>
<!-- Node7 -->
<g id="Node000007" class="node">
<title>Node7</title>
<g id="a_Node000007"><a xlink:href="kokkos__geom_8cpp.html#ab844fde3d4fd7071b9c39594a4e27b2c" target="_top" xlink:title=" ">
<polygon fill="white" stroke="#666666" points="595.5,-19 547.5,-19 547.5,0 595.5,0 595.5,-19"/>
<text text-anchor="middle" x="571.5" y="-7" font-family="Helvetica,sans-Serif" font-size="10.00">Scale_</text>
</a>
</g>
</g>
<!-- Node1&#45;&gt;Node7 -->
<g id="edge7_Node000001_Node000007" class="edge">
<title>Node1&#45;&gt;Node7</title>
<g id="a_edge7_Node000001_Node000007"><a xlink:title=" ">
<path fill="none" stroke="#63b8ff" d="M638.85,-34.34C624.56,-28.99 608.45,-22.96 595.67,-18.18"/>
<polygon fill="#63b8ff" stroke="#63b8ff" points="637.79,-37.68 648.39,-37.91 640.25,-31.13 637.79,-37.68"/>
</a>
</g>
</g>
<!-- Node2&#45;&gt;Node3 -->
<g id="edge2_Node000002_Node000003" class="edge">
<title>Node2&#45;&gt;Node3</title>
<g id="a_edge2_Node000002_Node000003"><a xlink:title=" ">
<path fill="none" stroke="#63b8ff" d="M537.2,-72.65C523.97,-67.55 509.02,-61.78 496.78,-57.06"/>
<polygon fill="#63b8ff" stroke="#63b8ff" points="536.32,-76.06 546.91,-76.4 538.84,-69.53 536.32,-76.06"/>
</a>
</g>
</g>
<!-- Node4 -->
<g id="Node000004" class="node">
<title>Node4</title>
<g id="a_Node000004"><a xlink:href="kokkos__stub_8c.html#a2ae8602418a86e1fd87c817ad9e7ccb0" target="_top" xlink:title=" ">
<polygon fill="white" stroke="#666666" points="395,-57 232,-57 232,-38 395,-38 395,-57"/>
<text text-anchor="middle" x="313.5" y="-45" font-family="Helvetica,sans-Serif" font-size="10.00">RunKokkosSubdivGeomKernel</text>
</a>
</g>
</g>
<!-- Node3&#45;&gt;Node4 -->
<g id="edge3_Node000003_Node000004" class="edge">
<title>Node3&#45;&gt;Node4</title>
<g id="a_edge3_Node000003_Node000004"><a xlink:title=" ">
<path fill="none" stroke="#63b8ff" d="M420.74,-47.5C412.6,-47.5 403.98,-47.5 395.3,-47.5"/>
<polygon fill="#63b8ff" stroke="#63b8ff" points="420.76,-51 430.76,-47.5 420.76,-44 420.76,-51"/>
</a>
</g>
</g>
<!-- Node5 -->
<g id="Node000005" class="node">
<title>Node5</title>
<g id="a_Node000005"><a xlink:href="kokkos__processes_8c.html#a3f18ca1bc94cfbc69753dccb70a43699" target="_top" xlink:title=" ">
<polygon fill="white" stroke="#666666" points="196,-57 77,-57 77,-38 196,-38 196,-57"/>
<text text-anchor="middle" x="136.5" y="-45" font-family="Helvetica,sans-Serif" font-size="10.00">RunKokkosProcesses</text>
</a>
</g>
</g>
<!-- Node4&#45;&gt;Node5 -->
<g id="edge4_Node000004_Node000005" class="edge">
<title>Node4&#45;&gt;Node5</title>
<g id="a_edge4_Node000004_Node000005"><a xlink:title=" ">
<path fill="none" stroke="#63b8ff" d="M221.75,-47.5C213.09,-47.5 204.48,-47.5 196.24,-47.5"/>
<polygon fill="#63b8ff" stroke="#63b8ff" points="221.92,-51 231.91,-47.5 221.91,-44 221.92,-51"/>
</a>
</g>
</g>
<!-- Node6 -->
<g id="Node000006" class="node">
<title>Node6</title>
<g id="a_Node000006"><a xlink:href="main_8c.html#a3c04138a5bfe5d72780bb7e82a18e627" target="_top" xlink:title=" ">
<polygon fill="white" stroke="#666666" points="41,-57 0,-57 0,-38 41,-38 41,-57"/>
<text text-anchor="middle" x="20.5" y="-45" font-family="Helvetica,sans-Serif" font-size="10.00">main</text>
</a>
</g>
</g>
<!-- Node5&#45;&gt;Node6 -->
<g id="edge5_Node000005_Node000006" class="edge">
<title>Node5&#45;&gt;Node6</title>
<g id="a_edge5_Node000005_Node000006"><a xlink:title=" ">
<path fill="none" stroke="#63b8ff" d="M66.64,-47.5C57.37,-47.5 48.53,-47.5 41.18,-47.5"/>
<polygon fill="#63b8ff" stroke="#63b8ff" points="66.83,-51 76.83,-47.5 66.83,-44 66.83,-51"/>
</a>
</g>
</g>
<!-- Node7&#45;&gt;Node3 -->
<g id="edge8_Node000007_Node000003" class="edge">
<title>Node7&#45;&gt;Node3</title>
<g id="a_edge8_Node000007_Node000003"><a xlink:title=" ">
<path fill="none" stroke="#63b8ff" d="M538.01,-22.04C524.54,-27.23 509.18,-33.15 496.67,-37.98"/>
<polygon fill="#63b8ff" stroke="#63b8ff" points="539.34,-25.27 547.41,-18.41 536.82,-18.74 539.34,-25.27"/>
</a>
</g>
</g>
</g>
</svg>
