<?xml version="1.0" encoding="UTF-8" standalone="no"?>
<!DOCTYPE svg PUBLIC "-//W3C//DTD SVG 1.1//EN"
 "http://www.w3.org/Graphics/SVG/1.1/DTD/svg11.dtd">
<!-- Generated by graphviz version 2.43.0 (0)
 -->
<!-- Title: kokkos_geom.cpp Pages: 1 -->
<svg width="896pt" height="302pt"
 viewBox="0.00 0.00 896.00 302.00" xmlns="http://www.w3.org/2000/svg" xmlns:xlink="http://www.w3.org/1999/xlink">
<g id="graph0" class="graph" transform="scale(1 1) rotate(0) translate(4 298)">
<title>kokkos_geom.cpp</title>
<!-- Node1 -->
<g id="Node000001" class="node">
<title>Node1</title>
<g id="a_Node000001"><a xlink:title=" ">
<polygon fill="#999999" stroke="#666666" points="438,-294 334,-294 334,-275 438,-275 438,-294"/>
<text text-anchor="middle" x="386" y="-282" font-family="Helvetica,sans-Serif" font-size="10.00">kokkos_geom.cpp</text>
</a>
</g>
</g>
<!-- Node2 -->
<g id="Node000002" class="node">
<title>Node2</title>
<g id="a_Node000002"><a xlink:title=" ">
<polygon fill="#e0e0e0" stroke="#999999" points="100,-239 0,-239 0,-220 100,-220 100,-239"/>
<text text-anchor="middle" x="50" y="-227" font-family="Helvetica,sans-Serif" font-size="10.00">Kokkos_Core.hpp</text>
</a>
</g>
</g>
<!-- Node1&#45;&gt;Node2 -->
<g id="edge1_Node000001_Node000002" class="edge">
<title>Node1&#45;&gt;Node2</title>
<g id="a_edge1_Node000001_Node000002"><a xlink:title=" ">
<path fill="none" stroke="#63b8ff" d="M333.87,-275.28C273.33,-265.73 173.65,-250 109.96,-239.96"/>
<polygon fill="#63b8ff" stroke="#63b8ff" points="110.48,-236.5 100.06,-238.4 109.39,-243.41 110.48,-236.5"/>
</a>
</g>
</g>
<!-- Node3 -->
<g id="Node000003" class="node">
<title>Node3</title>
<g id="a_Node000003"><a xlink:title=" ">
<polygon fill="#e0e0e0" stroke="#999999" points="309.5,-239 118.5,-239 118.5,-220 309.5,-220 309.5,-239"/>
<text text-anchor="middle" x="214" y="-227" font-family="Helvetica,sans-Serif" font-size="10.00">Kokkos_Profiling_ScopedRegion.hpp</text>
</a>
</g>
</g>
<!-- Node1&#45;&gt;Node3 -->
<g id="edge2_Node000001_Node000003" class="edge">
<title>Node1&#45;&gt;Node3</title>
<g id="a_edge2_Node000001_Node000003"><a xlink:title=" ">
<path fill="none" stroke="#63b8ff" d="M358.37,-274.98C329.49,-266.09 283.99,-252.07 251.8,-242.15"/>
<polygon fill="#63b8ff" stroke="#63b8ff" points="252.44,-238.68 241.85,-239.08 250.38,-245.37 252.44,-238.68"/>
</a>
</g>
</g>
<!-- Node4 -->
<g id="Node000004" class="node">
<title>Node4</title>
<g id="a_Node000004"><a xlink:title=" ">
<polygon fill="#e0e0e0" stroke="#999999" points="376.5,-239 327.5,-239 327.5,-220 376.5,-220 376.5,-239"/>
<text text-anchor="middle" x="352" y="-227" font-family="Helvetica,sans-Serif" font-size="10.00">cstdlib</text>
</a>
</g>
</g>
<!-- Node1&#45;&gt;Node4 -->
<g id="edge3_Node000001_Node000004" class="edge">
<title>Node1&#45;&gt;Node4</title>
<g id="a_edge3_Node000001_Node000004"><a xlink:title=" ">
<path fill="none" stroke="#63b8ff" d="M380.39,-274.75C375.68,-267.42 368.83,-256.73 363.03,-247.7"/>
<polygon fill="#63b8ff" stroke="#63b8ff" points="365.86,-245.62 357.51,-239.09 359.96,-249.4 365.86,-245.62"/>
</a>
</g>
</g>
<!-- Node5 -->
<g id="Node000005" class="node">
<title>Node5</title>
<g id="a_Node000005"><a xlink:title=" ">
<polygon fill="#e0e0e0" stroke="#999999" points="445,-239 395,-239 395,-220 445,-220 445,-239"/>
<text text-anchor="middle" x="420" y="-227" font-family="Helvetica,sans-Serif" font-size="10.00">cstring</text>
</a>
</g>
</g>
<!-- Node1&#45;&gt;Node5 -->
<g id="edge4_Node000001_Node000005" class="edge">
<title>Node1&#45;&gt;Node5</title>
<g id="a_edge4_Node000001_Node000005"><a xlink:title=" ">
<path fill="none" stroke="#63b8ff" d="M391.61,-274.75C396.32,-267.42 403.17,-256.73 408.97,-247.7"/>
<polygon fill="#63b8ff" stroke="#63b8ff" points="412.04,-249.4 414.49,-239.09 406.14,-245.62 412.04,-249.4"/>
</a>
</g>
</g>
<!-- Node6 -->
<g id="Node000006" class="node">
<title>Node6</title>
<g id="a_Node000006"><a xlink:title=" ">
<polygon fill="#e0e0e0" stroke="#999999" points="510.5,-239 463.5,-239 463.5,-220 510.5,-220 510.5,-239"/>
<text text-anchor="middle" x="487" y="-227" font-family="Helvetica,sans-Serif" font-size="10.00">vector</text>
</a>
</g>
</g>
<!-- Node1&#45;&gt;Node6 -->
<g id="edge5_Node000001_Node000006" class="edge">
<title>Node1&#45;&gt;Node6</title>
<g id="a_edge5_Node000001_Node000006"><a xlink:title=" ">
<path fill="none" stroke="#63b8ff" d="M402.23,-274.98C418.18,-266.61 442.78,-253.7 461.38,-243.95"/>
<polygon fill="#63b8ff" stroke="#63b8ff" points="463.25,-246.92 470.48,-239.17 460,-240.72 463.25,-246.92"/>
</a>
</g>
</g>
<!-- Node7 -->
<g id="Node000007" class="node">
<title>Node7</title>
<g id="a_Node000007"><a xlink:href="kokkos__bridge_8h.html" target="_top" xlink:title=" ">
<polygon fill="white" stroke="#666666" points="623.5,-239 528.5,-239 528.5,-220 623.5,-220 623.5,-239"/>
<text text-anchor="middle" x="576" y="-227" font-family="Helvetica,sans-Serif" font-size="10.00">kokkos_bridge.h</text>
</a>
</g>
</g>
<!-- Node1&#45;&gt;Node7 -->
<g id="edge6_Node000001_Node000007" class="edge">
<title>Node1&#45;&gt;Node7</title>
<g id="a_edge6_Node000001_Node000007"><a xlink:title=" ">
<path fill="none" stroke="#63b8ff" d="M416.53,-274.98C448.7,-266.01 499.56,-251.82 535.17,-241.89"/>
<polygon fill="#63b8ff" stroke="#63b8ff" points="536.54,-245.14 545.23,-239.08 534.66,-238.4 536.54,-245.14"/>
</a>
</g>
</g>
<!-- Node8 -->
<g id="Node000008" class="node">
<title>Node8</title>
<g id="a_Node000008"><a xlink:href="variables_8h.html" target="_top" xlink:title=" ">
<polygon fill="white" stroke="#666666" points="611.5,-184 540.5,-184 540.5,-165 611.5,-165 611.5,-184"/>
<text text-anchor="middle" x="576" y="-172" font-family="Helvetica,sans-Serif" font-size="10.00">variables.h</text>
</a>
</g>
</g>
<!-- Node7&#45;&gt;Node8 -->
<g id="edge7_Node000007_Node000008" class="edge">
<title>Node7&#45;&gt;Node8</title>
<g id="a_edge7_Node000007_Node000008"><a xlink:title=" ">
<path fill="none" stroke="#63b8ff" d="M576,-219.75C576,-212.8 576,-202.85 576,-194.13"/>
<polygon fill="#63b8ff" stroke="#63b8ff" points="579.5,-194.09 576,-184.09 572.5,-194.09 579.5,-194.09"/>
</a>
</g>
</g>
<!-- Node9 -->
<g id="Node000009" class="node">
<title>Node9</title>
<g id="a_Node000009"><a xlink:title=" ">
<polygon fill="#e0e0e0" stroke="#999999" points="485,-129 411,-129 411,-110 485,-110 485,-129"/>
<text text-anchor="middle" x="448" y="-117" font-family="Helvetica,sans-Serif" font-size="10.00">petscsnes.h</text>
</a>
</g>
</g>
<!-- Node8&#45;&gt;Node9 -->
<g id="edge8_Node000008_Node000009" class="edge">
<title>Node8&#45;&gt;Node9</title>
<g id="a_edge8_Node000008_Node000009"><a xlink:title=" ">
<path fill="none" stroke="#63b8ff" d="M555.43,-164.98C534.57,-156.34 502.03,-142.87 478.23,-133.02"/>
<polygon fill="#63b8ff" stroke="#63b8ff" points="479.52,-129.76 468.94,-129.17 476.84,-136.23 479.52,-129.76"/>
</a>
</g>
</g>
<!-- Node10 -->
<g id="Node000010" class="node">
<title>Node10</title>
<g id="a_Node000010"><a xlink:href="math_8h.html" target="_top" xlink:title=" ">
<polygon fill="white" stroke="#666666" points="627.5,-74 576.5,-74 576.5,-55 627.5,-55 627.5,-74"/>
<text text-anchor="middle" x="602" y="-62" font-family="Helvetica,sans-Serif" font-size="10.00">math.h</text>
</a>
</g>
</g>
<!-- Node8&#45;&gt;Node10 -->
<g id="edge9_Node000008_Node000010" class="edge">
<title>Node8&#45;&gt;Node10</title>
<g id="a_edge9_Node000008_Node000010"><a xlink:title=" ">
<path fill="none" stroke="#63b8ff" d="M562.47,-164.83C545.69,-152.94 520.64,-130.69 532,-110 539.77,-95.85 554.17,-85.56 567.89,-78.46"/>
<polygon fill="#63b8ff" stroke="#63b8ff" points="569.66,-81.49 577.19,-74.05 566.66,-75.17 569.66,-81.49"/>
</a>
</g>
</g>
<!-- Node12 -->
<g id="Node000012" class="node">
<title>Node12</title>
<g id="a_Node000012"><a xlink:title=" ">
<polygon fill="#e0e0e0" stroke="#999999" points="610.5,-129 541.5,-129 541.5,-110 610.5,-110 610.5,-129"/>
<text text-anchor="middle" x="576" y="-117" font-family="Helvetica,sans-Serif" font-size="10.00">petscvec.h</text>
</a>
</g>
</g>
<!-- Node8&#45;&gt;Node12 -->
<g id="edge12_Node000008_Node000012" class="edge">
<title>Node8&#45;&gt;Node12</title>
<g id="a_edge12_Node000008_Node000012"><a xlink:title=" ">
<path fill="none" stroke="#63b8ff" d="M576,-164.75C576,-157.8 576,-147.85 576,-139.13"/>
<polygon fill="#63b8ff" stroke="#63b8ff" points="579.5,-139.09 576,-129.09 572.5,-139.09 579.5,-139.09"/>
</a>
</g>
</g>
<!-- Node13 -->
<g id="Node000013" class="node">
<title>Node13</title>
<g id="a_Node000013"><a xlink:href="act__variables_8h.html" target="_top" xlink:title="Data containers for active&#45;strain kinematics, stress, and material data.">
<polygon fill="white" stroke="#666666" points="719.5,-129 628.5,-129 628.5,-110 719.5,-110 719.5,-129"/>
<text text-anchor="middle" x="674" y="-117" font-family="Helvetica,sans-Serif" font-size="10.00">act_variables.h</text>
</a>
</g>
</g>
<!-- Node8&#45;&gt;Node13 -->
<g id="edge13_Node000008_Node000013" class="edge">
<title>Node8&#45;&gt;Node13</title>
<g id="a_edge13_Node000008_Node000013"><a xlink:title=" ">
<path fill="none" stroke="#63b8ff" d="M591.75,-164.98C607.23,-156.61 631.09,-143.7 649.14,-133.95"/>
<polygon fill="#63b8ff" stroke="#63b8ff" points="650.84,-137.01 657.97,-129.17 647.51,-130.85 650.84,-137.01"/>
</a>
</g>
</g>
<!-- Node14 -->
<g id="Node000014" class="node">
<title>Node14</title>
<g id="a_Node000014"><a xlink:href="dmplex__types_8h.html" target="_top" xlink:title="Persistent DMPlex geometry context for Loop subdivision surfaces.">
<polygon fill="white" stroke="#666666" points="832.5,-129 737.5,-129 737.5,-110 832.5,-110 832.5,-129"/>
<text text-anchor="middle" x="785" y="-117" font-family="Helvetica,sans-Serif" font-size="10.00">dmplex_types.h</text>
</a>
</g>
</g>
<!-- Node8&#45;&gt;Node14 -->
<g id="edge16_Node000008_Node000014" class="edge">
<title>Node8&#45;&gt;Node14</title>
<g id="a_edge16_Node000008_Node000014"><a xlink:title=" ">
<path fill="none" stroke="#63b8ff" d="M609.58,-164.98C645.35,-155.91 702.12,-141.52 741.34,-131.57"/>
<polygon fill="#63b8ff" stroke="#63b8ff" points="742.32,-134.93 751.16,-129.08 740.6,-128.15 742.32,-134.93"/>
</a>
</g>
</g>
<!-- Node10&#45;&gt;Node10 -->
<g id="edge10_Node000010_Node000010" class="edge">
<title>Node10&#45;&gt;Node10</title>
<g id="a_edge10_Node000010_Node000010"><a xlink:title=" ">
<path fill="none" stroke="#63b8ff" d="M622.59,-74.07C634.45,-76.02 645.5,-72.83 645.5,-64.5 645.5,-58.64 640.04,-55.33 632.67,-54.55"/>
<polygon fill="#63b8ff" stroke="#63b8ff" points="632.45,-51.06 622.59,-54.93 632.71,-58.05 632.45,-51.06"/>
</a>
</g>
</g>
<!-- Node11 -->
<g id="Node000011" class="node">
<title>Node11</title>
<g id="a_Node000011"><a xlink:title=" ">
<polygon fill="#e0e0e0" stroke="#999999" points="672,-19 604,-19 604,0 672,0 672,-19"/>
<text text-anchor="middle" x="638" y="-7" font-family="Helvetica,sans-Serif" font-size="10.00">petscsys.h</text>
</a>
</g>
</g>
<!-- Node10&#45;&gt;Node11 -->
<g id="edge11_Node000010_Node000011" class="edge">
<title>Node10&#45;&gt;Node11</title>
<g id="a_edge11_Node000010_Node000011"><a xlink:title=" ">
<path fill="none" stroke="#63b8ff" d="M607.94,-54.75C612.98,-47.34 620.34,-36.5 626.51,-27.41"/>
<polygon fill="#63b8ff" stroke="#63b8ff" points="629.44,-29.33 632.17,-19.09 623.65,-25.39 629.44,-29.33"/>
</a>
</g>
</g>
<!-- Node13&#45;&gt;Node10 -->
<g id="edge15_Node000013_Node000010" class="edge">
<title>Node13&#45;&gt;Node10</title>
<g id="a_edge15_Node000013_Node000010"><a xlink:title=" ">
<path fill="none" stroke="#63b8ff" d="M662.43,-109.98C651.58,-102 635.12,-89.88 622.12,-80.31"/>
<polygon fill="#63b8ff" stroke="#63b8ff" points="623.91,-77.28 613.78,-74.17 619.76,-82.92 623.91,-77.28"/>
</a>
</g>
</g>
<!-- Node13&#45;&gt;Node11 -->
<g id="edge14_Node000013_Node000011" class="edge">
<title>Node13&#45;&gt;Node11</title>
<g id="a_edge14_Node000013_Node000011"><a xlink:title=" ">
<path fill="none" stroke="#63b8ff" d="M671.39,-109.84C667.67,-97.58 660.57,-74.5 654,-55 651.08,-46.35 647.68,-36.81 644.76,-28.79"/>
<polygon fill="#63b8ff" stroke="#63b8ff" points="648.02,-27.51 641.29,-19.33 641.45,-29.92 648.02,-27.51"/>
</a>
</g>
</g>
<!-- Node15 -->
<g id="Node000015" class="node">
<title>Node15</title>
<g id="a_Node000015"><a xlink:title=" ">
<polygon fill="#e0e0e0" stroke="#999999" points="810.5,-74 721.5,-74 721.5,-55 810.5,-55 810.5,-74"/>
<text text-anchor="middle" x="766" y="-62" font-family="Helvetica,sans-Serif" font-size="10.00">petscdmplex.h</text>
</a>
</g>
</g>
<!-- Node14&#45;&gt;Node15 -->
<g id="edge17_Node000014_Node000015" class="edge">
<title>Node14&#45;&gt;Node15</title>
<g id="a_edge17_Node000014_Node000015"><a xlink:title=" ">
<path fill="none" stroke="#63b8ff" d="M781.86,-109.75C779.32,-102.65 775.64,-92.4 772.47,-83.56"/>
<polygon fill="#63b8ff" stroke="#63b8ff" points="775.75,-82.32 769.08,-74.09 769.16,-84.68 775.75,-82.32"/>
</a>
</g>
</g>
<!-- Node16 -->
<g id="Node000016" class="node">
<title>Node16</title>
<g id="a_Node000016"><a xlink:title=" ">
<polygon fill="#e0e0e0" stroke="#999999" points="888,-74 828,-74 828,-55 888,-55 888,-74"/>
<text text-anchor="middle" x="858" y="-62" font-family="Helvetica,sans-Serif" font-size="10.00">petscsf.h</text>
</a>
</g>
</g>
<!-- Node14&#45;&gt;Node16 -->
<g id="edge18_Node000014_Node000016" class="edge">
<title>Node14&#45;&gt;Node16</title>
<g id="a_edge18_Node000014_Node000016"><a xlink:title=" ">
<path fill="none" stroke="#63b8ff" d="M796.73,-109.98C807.73,-102 824.42,-89.88 837.6,-80.31"/>
<polygon fill="#63b8ff" stroke="#63b8ff" points="840.02,-82.88 846.06,-74.17 835.91,-77.21 840.02,-82.88"/>
</a>
</g>
</g>
</g>
</svg>
