<?xml version="1.0" encoding="UTF-8" standalone="no"?>
<!DOCTYPE svg PUBLIC "-//W3C//DTD SVG 1.1//EN"
 "http://www.w3.org/Graphics/SVG/1.1/DTD/svg11.dtd">
<!-- Generated by graphviz version 2.43.0 (0)
 -->
<!-- Title: MaxGeomDiff_ Pages: 1 -->
<svg width="261pt" height="101pt"
 viewBox="0.00 0.00 261.00 101.00" xmlns="http://www.w3.org/2000/svg" xmlns:xlink="http://www.w3.org/1999/xlink">
<g id="graph0" class="graph" transform="scale(1 1) rotate(0) translate(4 97)">
<title>MaxGeomDiff_</title>
<!-- Node1 -->
<g id="Node000001" class="node">
<title>Node1</title>
<g id="a_Node000001"><a xlink:title=" ">
<polygon fill="#999999" stroke="#666666" points="89,-56 0,-56 0,-37 89,-37 89,-56"/>
<text text-anchor="middle" x="44.5" y="-44" font-family="Helvetica,sans-Serif" font-size="10.00">MaxGeomDiff_</text>
</a>
</g>
</g>
<!-- Node2 -->
<g id="Node000002" class="node">
<title>Node2</title>
<g id="a_Node000002"><a xlink:href="kokkos__processes_8c.html#a7c595c9f88b599c40b33e9135c7acaa1" target="_top" xlink:title=" ">
<polygon fill="white" stroke="#666666" points="215,-93 163,-93 163,-74 215,-74 215,-93"/>
<text text-anchor="middle" x="189" y="-81" font-family="Helvetica,sans-Serif" font-size="10.00">IntDiff_</text>
</a>
</g>
</g>
<!-- Node1&#45;&gt;Node2 -->
<g id="edge1_Node000001_Node000002" class="edge">
<title>Node1&#45;&gt;Node2</title>
<g id="a_edge1_Node000001_Node000002"><a xlink:title=" ">
<path fill="none" stroke="#63b8ff" d="M82.2,-56.03C103.98,-61.68 131.45,-68.82 152.94,-74.4"/>
<polygon fill="#63b8ff" stroke="#63b8ff" points="152.1,-77.79 162.65,-76.92 153.86,-71.02 152.1,-77.79"/>
</a>
</g>
</g>
<!-- Node3 -->
<g id="Node000003" class="node">
<title>Node3</title>
<g id="a_Node000003"><a xlink:href="kokkos__processes_8c.html#aff94089ec8ee45582e5a2dab21c142bf" target="_top" xlink:title=" ">
<polygon fill="white" stroke="#666666" points="238,-56 140,-56 140,-37 238,-37 238,-56"/>
<text text-anchor="middle" x="189" y="-44" font-family="Helvetica,sans-Serif" font-size="10.00">MaxCmpntsDiff_</text>
</a>
</g>
</g>
<!-- Node1&#45;&gt;Node3 -->
<g id="edge2_Node000001_Node000003" class="edge">
<title>Node1&#45;&gt;Node3</title>
<g id="a_edge2_Node000001_Node000003"><a xlink:title=" ">
<path fill="none" stroke="#63b8ff" d="M89.03,-46.5C101.81,-46.5 116.01,-46.5 129.56,-46.5"/>
<polygon fill="#63b8ff" stroke="#63b8ff" points="129.77,-50 139.77,-46.5 129.77,-43 129.77,-50"/>
</a>
</g>
</g>
<!-- Node4 -->
<g id="Node000004" class="node">
<title>Node4</title>
<g id="a_Node000004"><a xlink:href="kokkos__processes_8c.html#a2cf5c59d27754eba917ccfa298303637" target="_top" xlink:title=" ">
<polygon fill="white" stroke="#666666" points="253,-19 125,-19 125,0 253,0 253,-19"/>
<text text-anchor="middle" x="189" y="-7" font-family="Helvetica,sans-Serif" font-size="10.00">MaxIrregularArrayDiff_</text>
</a>
</g>
</g>
<!-- Node1&#45;&gt;Node4 -->
<g id="edge3_Node000001_Node000004" class="edge">
<title>Node1&#45;&gt;Node4</title>
<g id="a_edge3_Node000001_Node000004"><a xlink:title=" ">
<path fill="none" stroke="#63b8ff" d="M82.2,-36.97C100.17,-32.3 122.02,-26.63 141.19,-21.65"/>
<polygon fill="#63b8ff" stroke="#63b8ff" points="142.13,-25.03 150.93,-19.12 140.37,-18.25 142.13,-25.03"/>
</a>
</g>
</g>
</g>
</svg>
