<?xml version="1.0" encoding="UTF-8" standalone="no"?>
<!DOCTYPE svg PUBLIC "-//W3C//DTD SVG 1.1//EN"
 "http://www.w3.org/Graphics/SVG/1.1/DTD/svg11.dtd">
<!-- Generated by graphviz version 2.43.0 (0)
 -->
<!-- Title: CompareGeomState_ Pages: 1 -->
<svg width="418pt" height="101pt"
 viewBox="0.00 0.00 418.00 101.00" xmlns="http://www.w3.org/2000/svg" xmlns:xlink="http://www.w3.org/1999/xlink">

<svg id="main" version="1.1" xmlns="http://www.w3.org/2000/svg" xmlns:xlink="http://www.w3.org/1999/xlink" xml:space="preserve" onload="init(evt)">
<style type="text/css"><![CDATA[
.node, .edge {opacity: 0.7;}
.node.selected, .edge.selected {opacity: 1;}
.edge:hover path { stroke: red; }
.edge:hover polygon { stroke: red; fill: red; }
]]></style>
<script type="application/ecmascript" xlink:href="svg.min.js"/>
<svg id="graph" class="graph">
<g id="graph0" class="graph" transform="scale(1 1) rotate(0) translate(4 97)">
<title>CompareGeomState_</title>
<!-- Node1 -->
<g id="Node000001" class="node">
<title>Node1</title>
<g id="a_Node000001"><a xlink:title=" ">
<polygon fill="#999999" stroke="#666666" points="121,-56 0,-56 0,-37 121,-37 121,-56"/>
<text text-anchor="middle" x="60.5" y="-44" font-family="Helvetica,sans-Serif" font-size="10.00">CompareGeomState_</text>
</a>
</g>
</g>
<!-- Node2 -->
<g id="Node000002" class="node">
<title>Node2</title>
<g id="a_Node000002"><a xlink:href="kokkos__processes_8c.html#af20d00d2e3dc74fd37bf92a011381a22" target="_top" xlink:title=" ">
<polygon fill="white" stroke="#666666" points="246,-56 157,-56 157,-37 246,-37 246,-56"/>
<text text-anchor="middle" x="201.5" y="-44" font-family="Helvetica,sans-Serif" font-size="10.00">MaxGeomDiff_</text>
</a>
</g>
</g>
<!-- Node1&#45;&gt;Node2 -->
<g id="edge1_Node000001_Node000002" class="edge">
<title>Node1&#45;&gt;Node2</title>
<g id="a_edge1_Node000001_Node000002"><a xlink:title=" ">
<path fill="none" stroke="#63b8ff" d="M121.26,-46.5C129.64,-46.5 138.21,-46.5 146.48,-46.5"/>
<polygon fill="#63b8ff" stroke="#63b8ff" points="146.75,-50 156.75,-46.5 146.75,-43 146.75,-50"/>
</a>
</g>
</g>
<!-- Node3 -->
<g id="Node000003" class="node">
<title>Node3</title>
<g id="a_Node000003"><a xlink:href="kokkos__processes_8c.html#a7c595c9f88b599c40b33e9135c7acaa1" target="_top" xlink:title=" ">
<polygon fill="white" stroke="#666666" points="372,-93 320,-93 320,-74 372,-74 372,-93"/>
<text text-anchor="middle" x="346" y="-81" font-family="Helvetica,sans-Serif" font-size="10.00">IntDiff_</text>
</a>
</g>
</g>
<!-- Node2&#45;&gt;Node3 -->
<g id="edge2_Node000002_Node000003" class="edge">
<title>Node2&#45;&gt;Node3</title>
<g id="a_edge2_Node000002_Node000003"><a xlink:title=" ">
<path fill="none" stroke="#63b8ff" d="M239.2,-56.03C260.98,-61.68 288.45,-68.82 309.94,-74.4"/>
<polygon fill="#63b8ff" stroke="#63b8ff" points="309.1,-77.79 319.65,-76.92 310.86,-71.02 309.1,-77.79"/>
</a>
</g>
</g>
<!-- Node4 -->
<g id="Node000004" class="node">
<title>Node4</title>
<g id="a_Node000004"><a xlink:href="kokkos__processes_8c.html#aff94089ec8ee45582e5a2dab21c142bf" target="_top" xlink:title=" ">
<polygon fill="white" stroke="#666666" points="395,-56 297,-56 297,-37 395,-37 395,-56"/>
<text text-anchor="middle" x="346" y="-44" font-family="Helvetica,sans-Serif" font-size="10.00">MaxCmpntsDiff_</text>
</a>
</g>
</g>
<!-- Node2&#45;&gt;Node4 -->
<g id="edge3_Node000002_Node000004" class="edge">
<title>Node2&#45;&gt;Node4</title>
<g id="a_edge3_Node000002_Node000004"><a xlink:title=" ">
<path fill="none" stroke="#63b8ff" d="M246.03,-46.5C258.81,-46.5 273.01,-46.5 286.56,-46.5"/>
<polygon fill="#63b8ff" stroke="#63b8ff" points="286.77,-50 296.77,-46.5 286.77,-43 286.77,-50"/>
</a>
</g>
</g>
<!-- Node5 -->
<g id="Node000005" class="node">
<title>Node5</title>
<g id="a_Node000005"><a xlink:href="kokkos__processes_8c.html#a2cf5c59d27754eba917ccfa298303637" target="_top" xlink:title=" ">
<polygon fill="white" stroke="#666666" points="410,-19 282,-19 282,0 410,0 410,-19"/>
<text text-anchor="middle" x="346" y="-7" font-family="Helvetica,sans-Serif" font-size="10.00">MaxIrregularArrayDiff_</text>
</a>
</g>
</g>
<!-- Node2&#45;&gt;Node5 -->
<g id="edge4_Node000002_Node000005" class="edge">
<title>Node2&#45;&gt;Node5</title>
<g id="a_edge4_Node000002_Node000005"><a xlink:title=" ">
<path fill="none" stroke="#63b8ff" d="M239.2,-36.97C257.17,-32.3 279.02,-26.63 298.19,-21.65"/>
<polygon fill="#63b8ff" stroke="#63b8ff" points="299.13,-25.03 307.93,-19.12 297.37,-18.25 299.13,-25.03"/>
</a>
</g>
</g>
</g>
</svg>
</svg>

<style type='text/css'>
<![CDATA[
[data-mouse-over-selected='false'] { opacity: 0.7; }
[data-mouse-over-selected='true']  { opacity: 1.0; }
]]>
</style>
<script type="application/ecmascript"><![CDATA[
document.addEventListener('DOMContentLoaded', (event) => {
  highlightEdges();
  highlightAdjacentNodes();
});
]]></script>
</svg>
