<?xml version="1.0" encoding="UTF-8" standalone="no"?>
<!DOCTYPE svg PUBLIC "-//W3C//DTD SVG 1.1//EN"
 "http://www.w3.org/Graphics/SVG/1.1/DTD/svg11.dtd">
<!-- Generated by graphviz version 2.43.0 (0)
 -->
<!-- Title: RunKokkosSubdivGeomKernel Pages: 1 -->
<!--zoomable 233 -->

<svg id="main" version="1.1" xmlns="http://www.w3.org/2000/svg" xmlns:xlink="http://www.w3.org/1999/xlink" xml:space="preserve" onload="init(evt)">
<style type="text/css"><![CDATA[
.node, .edge {opacity: 0.7;}
.node.selected, .edge.selected {opacity: 1;}
.edge:hover path { stroke: red; }
.edge:hover polygon { stroke: red; fill: red; }
]]></style>

<defs>
  <circle id="rim" cx="0" cy="0" r="7"/>
  <circle id="rim2" cx="0" cy="0" r="3.5"/>
  <g id="zoomPlus">
    <use xlink:href="#rim" fill="#404040"><set attributeName="fill" to="#808080" begin="zoomplus.mouseover" end="zoomplus.mouseout"/></use>
    <path d="M-4,0h8M0,-4v8" fill="none" stroke="white" stroke-width="1.5" pointer-events="none"/>
  </g>
  <g id="zoomMin">
    <use xlink:href="#rim" fill="#404040"><set attributeName="fill" to="#808080" begin="zoomminus.mouseover" end="zoomminus.mouseout"/></use>
    <path d="M-4,0h8" fill="none" stroke="white" stroke-width="1.5" pointer-events="none"/>
  </g>
  <g id="arrowUp" transform="translate(30 24)">
    <use xlink:href="#rim"/>
    <path pointer-events="none" fill="none" stroke="white" stroke-width="1.5" d="M0,-3.0v7 M-2.5,-0.5L0,-3.0L2.5,-0.5"/>
  </g>
  <g id="arrowRight" transform="rotate(90) translate(36 -43)">
    <use xlink:href="#rim"/>
    <path pointer-events="none" fill="none" stroke="white" stroke-width="1.5" d="M0,-3.0v7 M-2.5,-0.5L0,-3.0L2.5,-0.5"/>
  </g>
  <g id="arrowDown" transform="rotate(180) translate(-30 -48)">
    <use xlink:href="#rim"/>
    <path pointer-events="none" fill="none" stroke="white" stroke-width="1.5" d="M0,-3.0v7 M-2.5,-0.5L0,-3.0L2.5,-0.5"/>
  </g>
  <g id="arrowLeft" transform="rotate(270) translate(-36 17)">
    <use xlink:href="#rim"/>
    <path pointer-events="none" fill="none" stroke="white" stroke-width="1.5" d="M0,-3.0v7 M-2.5,-0.5L0,-3.0L2.5,-0.5"/>
  </g>
  <g id="resetDef">
    <use xlink:href="#rim2" fill="#404040"><set attributeName="fill" to="#808080" begin="reset.mouseover" end="reset.mouseout"/></use>
  </g>
</defs>
<script type="application/ecmascript">
var viewWidth = 626;
var viewHeight = 233;
var sectionId = 'dynsection-3';
</script>
<script type="application/ecmascript" xlink:href="svg.min.js"/>
<svg id="graph" class="graph">
<g id="viewport">
<title>RunKokkosSubdivGeomKernel</title>
<!-- Node1 -->
<g id="Node000001" class="node">
<title>Node1</title>
<g id="a_Node000001"><a xlink:title=" ">
<polygon fill="#999999" stroke="#666666" points="163,-93 0,-93 0,-74 163,-74 163,-93"/>
<text text-anchor="middle" x="81.5" y="-81" font-family="Helvetica,sans-Serif" font-size="10.00">RunKokkosSubdivGeomKernel</text>
</a>
</g>
</g>
<!-- Node2 -->
<g id="Node000002" class="node">
<title>Node2</title>
<g id="a_Node000002"><a xlink:href="kokkos__geom_8cpp.html#a65e1c07ad5f563e1c6edad7c156431e4" target="_top" xlink:title=" ">
<polygon fill="white" stroke="#666666" points="366.5,-167 207.5,-167 207.5,-148 366.5,-148 366.5,-167"/>
<text text-anchor="middle" x="287" y="-155" font-family="Helvetica,sans-Serif" font-size="10.00">FindKokkosGeomWorkspace_</text>
</a>
</g>
</g>
<!-- Node1&#45;&gt;Node2 -->
<g id="edge1_Node000001_Node000002" class="edge">
<title>Node1&#45;&gt;Node2</title>
<g id="a_edge1_Node000001_Node000002"><a xlink:title=" ">
<path fill="none" stroke="#63b8ff" d="M99.32,-93.21C121.48,-105.62 162.01,-126.99 199,-139.5 205.73,-141.78 212.86,-143.82 220.02,-145.63"/>
<polygon fill="#63b8ff" stroke="#63b8ff" points="219.23,-149.04 229.77,-147.97 220.86,-142.23 219.23,-149.04"/>
</a>
</g>
</g>
<!-- Node3 -->
<g id="Node000003" class="node">
<title>Node3</title>
<g id="a_Node000003"><a xlink:href="kokkos__geom_8cpp.html#a4d581c887ac5e2e357e1193c2f2198f9" target="_top" xlink:title=" ">
<polygon fill="white" stroke="#666666" points="327,-130 247,-130 247,-111 327,-111 327,-130"/>
<text text-anchor="middle" x="287" y="-118" font-family="Helvetica,sans-Serif" font-size="10.00">FinishGeom_</text>
</a>
</g>
</g>
<!-- Node1&#45;&gt;Node3 -->
<g id="edge2_Node000001_Node000003" class="edge">
<title>Node1&#45;&gt;Node3</title>
<g id="a_edge2_Node000001_Node000003"><a xlink:title=" ">
<path fill="none" stroke="#63b8ff" d="M134.91,-93.03C166.33,-98.74 206.04,-105.96 236.86,-111.57"/>
<polygon fill="#63b8ff" stroke="#63b8ff" points="236.48,-115.05 246.95,-113.4 237.74,-108.17 236.48,-115.05"/>
</a>
</g>
</g>
<!-- Node10 -->
<g id="Node000010" class="node">
<title>Node10</title>
<g id="a_Node000010"><a xlink:href="kokkos__geom_8cpp.html#a8870750e20243cefba2c9dcbd066cda1" target="_top" xlink:title=" ">
<polygon fill="white" stroke="#666666" points="327,-93 247,-93 247,-74 327,-74 327,-93"/>
<text text-anchor="middle" x="287" y="-81" font-family="Helvetica,sans-Serif" font-size="10.00">GeomCoord_</text>
</a>
</g>
</g>
<!-- Node1&#45;&gt;Node10 -->
<g id="edge12_Node000001_Node000010" class="edge">
<title>Node1&#45;&gt;Node10</title>
<g id="a_edge12_Node000001_Node000010"><a xlink:title=" ">
<path fill="none" stroke="#63b8ff" d="M163.22,-83.5C188.03,-83.5 214.59,-83.5 236.63,-83.5"/>
<polygon fill="#63b8ff" stroke="#63b8ff" points="236.74,-87 246.74,-83.5 236.74,-80 236.74,-87"/>
</a>
</g>
</g>
<!-- Node11 -->
<g id="Node000011" class="node">
<title>Node11</title>
<g id="a_Node000011"><a xlink:href="kokkos__geom_8cpp.html#a1ab27b88a20277e71df0a7045ab7caec" target="_top" xlink:title=" ">
<polygon fill="white" stroke="#666666" points="347,-56 227,-56 227,-37 347,-37 347,-56"/>
<text text-anchor="middle" x="287" y="-44" font-family="Helvetica,sans-Serif" font-size="10.00">InitKokkosWorkspace</text>
</a>
</g>
</g>
<!-- Node1&#45;&gt;Node11 -->
<g id="edge13_Node000001_Node000011" class="edge">
<title>Node1&#45;&gt;Node11</title>
<g id="a_edge13_Node000001_Node000011"><a xlink:title=" ">
<path fill="none" stroke="#63b8ff" d="M134.91,-73.97C161.86,-69.07 194.91,-63.06 223.22,-57.91"/>
<polygon fill="#63b8ff" stroke="#63b8ff" points="224.21,-61.29 233.42,-56.06 222.95,-54.41 224.21,-61.29"/>
</a>
</g>
</g>
<!-- Node12 -->
<g id="Node000012" class="node">
<title>Node12</title>
<g id="a_Node000012"><a xlink:href="kokkos__geom_8cpp.html#a4e08c63d42a66783332781795e2350da" target="_top" xlink:title=" ">
<polygon fill="white" stroke="#666666" points="375,-19 199,-19 199,0 375,0 375,-19"/>
<text text-anchor="middle" x="287" y="-7" font-family="Helvetica,sans-Serif" font-size="10.00">PrepareKokkosGeomWorkspace_</text>
</a>
</g>
</g>
<!-- Node1&#45;&gt;Node12 -->
<g id="edge14_Node000001_Node000012" class="edge">
<title>Node1&#45;&gt;Node12</title>
<g id="a_edge14_Node000001_Node000012"><a xlink:title=" ">
<path fill="none" stroke="#63b8ff" d="M99.32,-73.79C121.48,-61.38 162.01,-40.01 199,-27.5 205.73,-25.22 212.86,-23.18 220.02,-21.37"/>
<polygon fill="#63b8ff" stroke="#63b8ff" points="220.86,-24.77 229.77,-19.03 219.23,-17.96 220.86,-24.77"/>
</a>
</g>
</g>
<!-- Node4 -->
<g id="Node000004" class="node">
<title>Node4</title>
<g id="a_Node000004"><a xlink:href="kokkos__geom_8cpp.html#a5787000cd34283d5476fafbcd5b87c9a" target="_top" xlink:title=" ">
<polygon fill="white" stroke="#666666" points="478,-225 429,-225 429,-206 478,-206 478,-225"/>
<text text-anchor="middle" x="453.5" y="-213" font-family="Helvetica,sans-Serif" font-size="10.00">Cross_</text>
</a>
</g>
</g>
<!-- Node3&#45;&gt;Node4 -->
<g id="edge3_Node000003_Node000004" class="edge">
<title>Node3&#45;&gt;Node4</title>
<g id="a_edge3_Node000003_Node000004"><a xlink:title=" ">
<path fill="none" stroke="#63b8ff" d="M327.26,-122.82C343.15,-125.29 361,-130.12 375,-139.5 398.35,-155.14 390.33,-172.45 411,-191.5 414.63,-194.85 418.81,-197.94 423.09,-200.7"/>
<polygon fill="#63b8ff" stroke="#63b8ff" points="421.48,-203.82 431.87,-205.91 425.05,-197.8 421.48,-203.82"/>
</a>
</g>
</g>
<!-- Node5 -->
<g id="Node000005" class="node">
<title>Node5</title>
<g id="a_Node000005"><a xlink:href="kokkos__geom_8cpp.html#aa58f98b13c9046d0a6eba9eafce6e5e2" target="_top" xlink:title=" ">
<polygon fill="white" stroke="#666666" points="618,-187 532,-187 532,-168 618,-168 618,-187"/>
<text text-anchor="middle" x="575" y="-175" font-family="Helvetica,sans-Serif" font-size="10.00">MakeCmpnts_</text>
</a>
</g>
</g>
<!-- Node3&#45;&gt;Node5 -->
<g id="edge6_Node000003_Node000005" class="edge">
<title>Node3&#45;&gt;Node5</title>
<g id="a_edge6_Node000003_Node000005"><a xlink:title=" ">
<path fill="none" stroke="#63b8ff" d="M327.18,-126.72C342.38,-129.73 359.75,-133.93 375,-139.5 391.99,-145.71 393.72,-153.14 411,-158.5 446.97,-169.66 489.26,-174.36 521.74,-176.3"/>
<polygon fill="#63b8ff" stroke="#63b8ff" points="521.76,-179.8 531.93,-176.83 522.12,-172.81 521.76,-179.8"/>
</a>
</g>
</g>
<!-- Node6 -->
<g id="Node000006" class="node">
<title>Node6</title>
<g id="a_Node000006"><a xlink:href="kokkos__geom_8cpp.html#a39f976f06af29b3a623958b875f30038" target="_top" xlink:title=" ">
<polygon fill="white" stroke="#666666" points="594.5,-92 555.5,-92 555.5,-73 594.5,-73 594.5,-92"/>
<text text-anchor="middle" x="575" y="-80" font-family="Helvetica,sans-Serif" font-size="10.00">Dot_</text>
</a>
</g>
</g>
<!-- Node3&#45;&gt;Node6 -->
<g id="edge5_Node000003_Node000006" class="edge">
<title>Node3&#45;&gt;Node6</title>
<g id="a_edge5_Node000003_Node000006"><a xlink:title=" ">
<path fill="none" stroke="#63b8ff" d="M327.17,-115.3C385.44,-107.55 493.62,-93.18 545.2,-86.33"/>
<polygon fill="#63b8ff" stroke="#63b8ff" points="545.86,-89.77 555.31,-84.98 544.94,-82.83 545.86,-89.77"/>
</a>
</g>
</g>
<!-- Node7 -->
<g id="Node000007" class="node">
<title>Node7</title>
<g id="a_Node000007"><a xlink:href="kokkos__geom_8cpp.html#a8fd7413b0811da8f0877a711b4a14556" target="_top" xlink:title=" ">
<polygon fill="white" stroke="#666666" points="478,-73 429,-73 429,-54 478,-54 478,-73"/>
<text text-anchor="middle" x="453.5" y="-61" font-family="Helvetica,sans-Serif" font-size="10.00">Norm_</text>
</a>
</g>
</g>
<!-- Node3&#45;&gt;Node7 -->
<g id="edge7_Node000003_Node000007" class="edge">
<title>Node3&#45;&gt;Node7</title>
<g id="a_edge7_Node000003_Node000007"><a xlink:title=" ">
<path fill="none" stroke="#63b8ff" d="M327.14,-114.66C342.32,-111.81 359.71,-107.83 375,-102.5 393.2,-96.16 412.57,-86.41 427.39,-78.25"/>
<polygon fill="#63b8ff" stroke="#63b8ff" points="429.43,-81.12 436.42,-73.17 425.99,-75.02 429.43,-81.12"/>
</a>
</g>
</g>
<!-- Node8 -->
<g id="Node000008" class="node">
<title>Node8</title>
<g id="a_Node000008"><a xlink:href="kokkos__geom_8cpp.html#ab844fde3d4fd7071b9c39594a4e27b2c" target="_top" xlink:title=" ">
<polygon fill="white" stroke="#666666" points="477.5,-149 429.5,-149 429.5,-130 477.5,-130 477.5,-149"/>
<text text-anchor="middle" x="453.5" y="-137" font-family="Helvetica,sans-Serif" font-size="10.00">Scale_</text>
</a>
</g>
</g>
<!-- Node3&#45;&gt;Node8 -->
<g id="edge9_Node000003_Node000008" class="edge">
<title>Node3&#45;&gt;Node8</title>
<g id="a_edge9_Node000003_Node000008"><a xlink:title=" ">
<path fill="none" stroke="#63b8ff" d="M327.4,-125.05C355.43,-128.29 392.66,-132.59 419.21,-135.65"/>
<polygon fill="#63b8ff" stroke="#63b8ff" points="418.83,-139.13 429.16,-136.8 419.63,-132.18 418.83,-139.13"/>
</a>
</g>
</g>
<!-- Node9 -->
<g id="Node000009" class="node">
<title>Node9</title>
<g id="a_Node000009"><a xlink:href="kokkos__geom_8cpp.html#a7fc5ca21e4448335e6ed0ef2bcfeca52" target="_top" xlink:title=" ">
<polygon fill="white" stroke="#666666" points="496,-36 411,-36 411,-17 496,-17 496,-36"/>
<text text-anchor="middle" x="453.5" y="-24" font-family="Helvetica,sans-Serif" font-size="10.00">StoreCmpnts_</text>
</a>
</g>
</g>
<!-- Node3&#45;&gt;Node9 -->
<g id="edge11_Node000003_Node000009" class="edge">
<title>Node3&#45;&gt;Node9</title>
<g id="a_edge11_Node000003_Node000009"><a xlink:title=" ">
<path fill="none" stroke="#63b8ff" d="M327.04,-119.09C343.07,-116.9 361.09,-112.21 375,-102.5 399.87,-85.13 388.04,-64.33 411,-44.5 412.31,-43.37 413.7,-42.3 415.14,-41.29"/>
<polygon fill="#63b8ff" stroke="#63b8ff" points="417.06,-44.23 423.9,-36.14 413.51,-38.19 417.06,-44.23"/>
</a>
</g>
</g>
<!-- Node4&#45;&gt;Node5 -->
<g id="edge4_Node000004_Node000005" class="edge">
<title>Node4&#45;&gt;Node5</title>
<g id="a_edge4_Node000004_Node000005"><a xlink:title=" ">
<path fill="none" stroke="#63b8ff" d="M478.11,-207.99C494.14,-202.9 515.72,-196.03 534.36,-190.11"/>
<polygon fill="#63b8ff" stroke="#63b8ff" points="535.6,-193.38 544.07,-187.02 533.48,-186.71 535.6,-193.38"/>
</a>
</g>
</g>
<!-- Node7&#45;&gt;Node6 -->
<g id="edge8_Node000007_Node000006" class="edge">
<title>Node7&#45;&gt;Node6</title>
<g id="a_edge8_Node000007_Node000006"><a xlink:title=" ">
<path fill="none" stroke="#63b8ff" d="M478.11,-67.25C497.34,-70.31 524.57,-74.64 545.1,-77.91"/>
<polygon fill="#63b8ff" stroke="#63b8ff" points="544.73,-81.39 555.15,-79.5 545.83,-74.48 544.73,-81.39"/>
</a>
</g>
</g>
<!-- Node8&#45;&gt;Node5 -->
<g id="edge10_Node000008_Node000005" class="edge">
<title>Node8&#45;&gt;Node5</title>
<g id="a_edge10_Node000008_Node000005"><a xlink:title=" ">
<path fill="none" stroke="#63b8ff" d="M477.54,-146.83C493.52,-151.91 515.23,-158.81 534,-164.78"/>
<polygon fill="#63b8ff" stroke="#63b8ff" points="533.2,-168.2 543.79,-167.89 535.32,-161.53 533.2,-168.2"/>
</a>
</g>
</g>
</g>
</svg>

<g id="navigator" transform="translate(0 0)" fill="#404254">
  <rect fill="#f2f5e9" fill-opacity="0.5" stroke="#606060" stroke-width=".5" x="0" y="0" width="60" height="60"/>
  <use id="zoomplus" xlink:href="#zoomPlus" x="17" y="9" onmousedown="handleZoom(evt,'in')"/>
  <use id="zoomminus" xlink:href="#zoomMin" x="42" y="9" onmousedown="handleZoom(evt,'out')"/>
  <use id="reset" xlink:href="#resetDef" x="30" y="36" onmousedown="handleReset()"/>
   <use id="arrowup" xlink:href="#arrowUp" x="0" y="0" onmousedown="handlePan(0,-1)"/>
  <use id="arrowright" xlink:href="#arrowRight" x="0" y="0" onmousedown="handlePan(1,0)"/>
  <use id="arrowdown" xlink:href="#arrowDown" x="0" y="0" onmousedown="handlePan(0,1)"/>
  <use id="arrowleft" xlink:href="#arrowLeft" x="0" y="0" onmousedown="handlePan(-1,0)"/>
</g>
<svg viewBox="0 0 15 15" width="100%" height="30px" preserveAspectRatio="xMaxYMin meet">
 <g id="arrow_out" transform="scale(0.3 0.3)">
  <a xlink:href="kokkos__stub_8c_a2ae8602418a86e1fd87c817ad9e7ccb0_cgraph_org.svg" target="_base">
   <rect id="button" ry="5" rx="5" y="6" x="6" height="38" width="38"
        fill="#f2f5e9" fill-opacity="0.5" stroke="#606060" stroke-width="1.0"/>
   <path id="arrow"
     d="M 11.500037,31.436501 C 11.940474,20.09759 22.043105,11.32322 32.158766,21.979434 L 37.068811,17.246167 C 37.068811,17.246167 37.088388,32 37.088388,32 L 22.160133,31.978069 C 22.160133,31.978069 26.997745,27.140456 26.997745,27.140456 C 18.528582,18.264221 13.291696,25.230495 11.500037,31.436501 z"
     style="fill:#404040;"/>
  </a>
 </g>
</svg>

<style type='text/css'>
<![CDATA[
[data-mouse-over-selected='false'] { opacity: 0.7; }
[data-mouse-over-selected='true']  { opacity: 1.0; }
]]>
</style>
<script type="application/ecmascript"><![CDATA[
document.addEventListener('DOMContentLoaded', (event) => {
  highlightEdges();
  highlightAdjacentNodes();
});
]]></script>
</svg>
