<?xml version="1.0" encoding="UTF-8" standalone="no"?>
<!DOCTYPE svg PUBLIC "-//W3C//DTD SVG 1.1//EN"
 "http://www.w3.org/Graphics/SVG/1.1/DTD/svg11.dtd">
<!-- Generated by graphviz version 2.43.0 (0)
 -->
<!-- Title: CreateLVMeshUnstructured Pages: 1 -->
<svg width="243pt" height="249pt"
 viewBox="0.00 0.00 243.00 249.00" xmlns="http://www.w3.org/2000/svg" xmlns:xlink="http://www.w3.org/1999/xlink">

<svg id="main" version="1.1" xmlns="http://www.w3.org/2000/svg" xmlns:xlink="http://www.w3.org/1999/xlink" xml:space="preserve" onload="init(evt)">
<style type="text/css"><![CDATA[
.node, .edge {opacity: 0.7;}
.node.selected, .edge.selected {opacity: 1;}
.edge:hover path { stroke: red; }
.edge:hover polygon { stroke: red; fill: red; }
]]></style>
<script type="application/ecmascript" xlink:href="svg.min.js"/>
<svg id="graph" class="graph">
<g id="graph0" class="graph" transform="scale(1 1) rotate(0) translate(4 245)">
<title>CreateLVMeshUnstructured</title>
<!-- Node1 -->
<g id="Node000001" class="node">
<title>Node1</title>
<g id="a_Node000001"><a xlink:title=" ">
<polygon fill="#999999" stroke="#666666" points="149,-130 0,-130 0,-111 149,-111 149,-130"/>
<text text-anchor="middle" x="74.5" y="-118" font-family="Helvetica,sans-Serif" font-size="10.00">CreateLVMeshUnstructured</text>
</a>
</g>
</g>
<!-- Node2 -->
<g id="Node000002" class="node">
<title>Node2</title>
<g id="a_Node000002"><a xlink:href="io_8c.html#aa2578327c7843e8a53d959beeb316bfc" target="_top" xlink:title=" ">
<polygon fill="white" stroke="#666666" points="234.5,-241 185.5,-241 185.5,-222 234.5,-222 234.5,-241"/>
<text text-anchor="middle" x="210" y="-229" font-family="Helvetica,sans-Serif" font-size="10.00">Create</text>
</a>
</g>
</g>
<!-- Node1&#45;&gt;Node2 -->
<g id="edge1_Node000001_Node000002" class="edge">
<title>Node1&#45;&gt;Node2</title>
<g id="a_edge1_Node000001_Node000002"><a xlink:title=" ">
<path fill="none" stroke="#63b8ff" d="M86.51,-130.23C106.03,-147.41 148.16,-184.09 185,-213.5 185.85,-214.18 186.73,-214.87 187.62,-215.57"/>
<polygon fill="#63b8ff" stroke="#63b8ff" points="185.62,-218.44 195.69,-221.74 189.87,-212.88 185.62,-218.44"/>
</a>
</g>
</g>
<!-- Node3 -->
<g id="Node000003" class="node">
<title>Node3</title>
<g id="a_Node000003"><a xlink:href="math_8c.html#a9d60990d26296194c921d537ea26f3c7" target="_top" xlink:title=" ">
<polygon fill="white" stroke="#666666" points="235,-204 185,-204 185,-185 235,-185 235,-204"/>
<text text-anchor="middle" x="210" y="-192" font-family="Helvetica,sans-Serif" font-size="10.00">CROSS</text>
</a>
</g>
</g>
<!-- Node1&#45;&gt;Node3 -->
<g id="edge2_Node000001_Node000003" class="edge">
<title>Node1&#45;&gt;Node3</title>
<g id="a_edge2_Node000001_Node000003"><a xlink:title=" ">
<path fill="none" stroke="#63b8ff" d="M92.68,-130.02C115.48,-142.66 155.97,-165.11 182.65,-179.9"/>
<polygon fill="#63b8ff" stroke="#63b8ff" points="181.02,-182.99 191.46,-184.78 184.41,-176.87 181.02,-182.99"/>
</a>
</g>
</g>
<!-- Node4 -->
<g id="Node000004" class="node">
<title>Node4</title>
<g id="a_Node000004"><a xlink:href="math_8c.html#a870a70f4845a041458d9bdb0dd7aabd3" target="_top" xlink:title=" ">
<polygon fill="white" stroke="#666666" points="229,-167 191,-167 191,-148 229,-148 229,-167"/>
<text text-anchor="middle" x="210" y="-155" font-family="Helvetica,sans-Serif" font-size="10.00">DOT</text>
</a>
</g>
</g>
<!-- Node1&#45;&gt;Node4 -->
<g id="edge3_Node000001_Node000004" class="edge">
<title>Node1&#45;&gt;Node4</title>
<g id="a_edge3_Node000001_Node000004"><a xlink:title=" ">
<path fill="none" stroke="#63b8ff" d="M109.88,-130.03C131.95,-136.15 160.26,-143.99 180.97,-149.73"/>
<polygon fill="#63b8ff" stroke="#63b8ff" points="180.17,-153.14 190.75,-152.44 182.04,-146.4 180.17,-153.14"/>
</a>
</g>
</g>
<!-- Node5 -->
<g id="Node000005" class="node">
<title>Node5</title>
<g id="a_Node000005"><a xlink:href="bending_8c.html#a9578756c3e89fa4ff5097ef9bdfee25e" target="_top" xlink:title=" ">
<polygon fill="white" stroke="#666666" points="231.5,-130 188.5,-130 188.5,-111 231.5,-111 231.5,-130"/>
<text text-anchor="middle" x="210" y="-118" font-family="Helvetica,sans-Serif" font-size="10.00">IrrVer</text>
</a>
</g>
</g>
<!-- Node1&#45;&gt;Node5 -->
<g id="edge4_Node000001_Node000005" class="edge">
<title>Node1&#45;&gt;Node5</title>
<g id="a_edge4_Node000001_Node000005"><a xlink:title=" ">
<path fill="none" stroke="#63b8ff" d="M149.28,-120.5C159.48,-120.5 169.46,-120.5 178.26,-120.5"/>
<polygon fill="#63b8ff" stroke="#63b8ff" points="178.33,-124 188.33,-120.5 178.33,-117 178.33,-124"/>
</a>
</g>
</g>
<!-- Node6 -->
<g id="Node000006" class="node">
<title>Node6</title>
<g id="a_Node000006"><a xlink:href="bending_8c.html#a0107f44526163528de27b208877f2bda" target="_top" xlink:title=" ">
<polygon fill="white" stroke="#666666" points="231.5,-93 188.5,-93 188.5,-74 231.5,-74 231.5,-93"/>
<text text-anchor="middle" x="210" y="-81" font-family="Helvetica,sans-Serif" font-size="10.00">Patch</text>
</a>
</g>
</g>
<!-- Node1&#45;&gt;Node6 -->
<g id="edge5_Node000001_Node000006" class="edge">
<title>Node1&#45;&gt;Node6</title>
<g id="a_edge5_Node000001_Node000006"><a xlink:title=" ">
<path fill="none" stroke="#63b8ff" d="M109.88,-110.97C131.16,-105.07 158.23,-97.57 178.71,-91.9"/>
<polygon fill="#63b8ff" stroke="#63b8ff" points="179.76,-95.24 188.46,-89.19 177.89,-88.49 179.76,-95.24"/>
</a>
</g>
</g>
<!-- Node7 -->
<g id="Node000007" class="node">
<title>Node7</title>
<g id="a_Node000007"><a xlink:href="math_8c.html#aa52f6593cf3e5453c8c6c94343d3fb37" target="_top" xlink:title=" ">
<polygon fill="white" stroke="#666666" points="229,-56 191,-56 191,-37 229,-37 229,-56"/>
<text text-anchor="middle" x="210" y="-44" font-family="Helvetica,sans-Serif" font-size="10.00">SIZE</text>
</a>
</g>
</g>
<!-- Node1&#45;&gt;Node7 -->
<g id="edge6_Node000001_Node000007" class="edge">
<title>Node1&#45;&gt;Node7</title>
<g id="a_edge6_Node000001_Node000007"><a xlink:title=" ">
<path fill="none" stroke="#63b8ff" d="M92.68,-110.98C115.48,-98.34 155.97,-75.89 182.65,-61.1"/>
<polygon fill="#63b8ff" stroke="#63b8ff" points="184.41,-64.13 191.46,-56.22 181.02,-58.01 184.41,-64.13"/>
</a>
</g>
</g>
<!-- Node8 -->
<g id="Node000008" class="node">
<title>Node8</title>
<g id="a_Node000008"><a xlink:href="math_8c.html#ac616709995f2ae60c4308ffa328337d7" target="_top" xlink:title=" ">
<polygon fill="white" stroke="#666666" points="230.5,-19 189.5,-19 189.5,0 230.5,0 230.5,-19"/>
<text text-anchor="middle" x="210" y="-7" font-family="Helvetica,sans-Serif" font-size="10.00">UNIT</text>
</a>
</g>
</g>
<!-- Node1&#45;&gt;Node8 -->
<g id="edge7_Node000001_Node000008" class="edge">
<title>Node1&#45;&gt;Node8</title>
<g id="a_edge7_Node000001_Node000008"><a xlink:title=" ">
<path fill="none" stroke="#63b8ff" d="M86.6,-110.99C106.28,-94.17 148.63,-58.16 185,-28.5 186.18,-27.53 187.4,-26.55 188.64,-25.55"/>
<polygon fill="#63b8ff" stroke="#63b8ff" points="191.1,-28.07 196.74,-19.1 186.73,-22.59 191.1,-28.07"/>
</a>
</g>
</g>
</g>
</svg>
</svg>

<style type='text/css'>
<![CDATA[
[data-mouse-over-selected='false'] { opacity: 0.7; }
[data-mouse-over-selected='true']  { opacity: 1.0; }
]]>
</style>
<script type="application/ecmascript"><![CDATA[
document.addEventListener('DOMContentLoaded', (event) => {
  highlightEdges();
  highlightAdjacentNodes();
});
]]></script>
</svg>
