<?xml version="1.0" encoding="UTF-8" standalone="no"?>
<!DOCTYPE svg PUBLIC "-//W3C//DTD SVG 1.1//EN"
 "http://www.w3.org/Graphics/SVG/1.1/DTD/svg11.dtd">
<!-- Generated by graphviz version 2.43.0 (0)
 -->
<!-- Title: lv_geometry.c Pages: 1 -->
<svg width="466pt" height="302pt"
 viewBox="0.00 0.00 465.73 302.00" xmlns="http://www.w3.org/2000/svg" xmlns:xlink="http://www.w3.org/1999/xlink">
<g id="graph0" class="graph" transform="scale(1 1) rotate(0) translate(4 298)">
<title>lv_geometry.c</title>
<!-- Node1 -->
<g id="Node000001" class="node">
<title>Node1</title>
<g id="a_Node000001"><a xlink:title=" ">
<polygon fill="#999999" stroke="#666666" points="157.23,-294 72.23,-294 72.23,-275 157.23,-275 157.23,-294"/>
<text text-anchor="middle" x="114.73" y="-282" font-family="Helvetica,sans-Serif" font-size="10.00">lv_geometry.c</text>
</a>
</g>
</g>
<!-- Node2 -->
<g id="Node000002" class="node">
<title>Node2</title>
<g id="a_Node000002"><a xlink:href="variables_8h.html" target="_top" xlink:title=" ">
<polygon fill="white" stroke="#666666" points="186.23,-184 115.23,-184 115.23,-165 186.23,-165 186.23,-184"/>
<text text-anchor="middle" x="150.73" y="-172" font-family="Helvetica,sans-Serif" font-size="10.00">variables.h</text>
</a>
</g>
</g>
<!-- Node1&#45;&gt;Node2 -->
<g id="edge1_Node000001_Node000002" class="edge">
<title>Node1&#45;&gt;Node2</title>
<g id="a_edge1_Node000001_Node000002"><a xlink:title=" ">
<path fill="none" stroke="#63b8ff" d="M109.08,-274.95C101.56,-262.43 90.17,-238.59 98.73,-220 104.48,-207.52 115.64,-197.24 126.16,-189.71"/>
<polygon fill="#63b8ff" stroke="#63b8ff" points="128.3,-192.49 134.7,-184.05 124.43,-186.65 128.3,-192.49"/>
</a>
</g>
</g>
<!-- Node4 -->
<g id="Node000004" class="node">
<title>Node4</title>
<g id="a_Node000004"><a xlink:href="math_8h.html" target="_top" xlink:title=" ">
<polygon fill="white" stroke="#666666" points="186.23,-74 135.23,-74 135.23,-55 186.23,-55 186.23,-74"/>
<text text-anchor="middle" x="160.73" y="-62" font-family="Helvetica,sans-Serif" font-size="10.00">math.h</text>
</a>
</g>
</g>
<!-- Node1&#45;&gt;Node4 -->
<g id="edge15_Node000001_Node000004" class="edge">
<title>Node1&#45;&gt;Node4</title>
<g id="a_edge15_Node000001_Node000004"><a xlink:title=" ">
<path fill="none" stroke="#63b8ff" d="M102.47,-274.98C66.65,-249.08 -32.53,-169.41 11.73,-110 37.6,-75.27 89.55,-66.59 124.74,-64.95"/>
<polygon fill="#63b8ff" stroke="#63b8ff" points="125.19,-68.44 135.08,-64.65 124.98,-61.45 125.19,-68.44"/>
</a>
</g>
</g>
<!-- Node11 -->
<g id="Node000011" class="node">
<title>Node11</title>
<g id="a_Node000011"><a xlink:href="lv__geometry_8h.html" target="_top" xlink:title=" ">
<polygon fill="white" stroke="#666666" points="193.73,-239 107.73,-239 107.73,-220 193.73,-220 193.73,-239"/>
<text text-anchor="middle" x="150.73" y="-227" font-family="Helvetica,sans-Serif" font-size="10.00">lv_geometry.h</text>
</a>
</g>
</g>
<!-- Node1&#45;&gt;Node11 -->
<g id="edge13_Node000001_Node000011" class="edge">
<title>Node1&#45;&gt;Node11</title>
<g id="a_edge13_Node000001_Node000011"><a xlink:title=" ">
<path fill="none" stroke="#63b8ff" d="M120.68,-274.75C125.71,-267.34 133.07,-256.5 139.25,-247.41"/>
<polygon fill="#63b8ff" stroke="#63b8ff" points="142.17,-249.33 144.9,-239.09 136.38,-245.39 142.17,-249.33"/>
</a>
</g>
</g>
<!-- Node12 -->
<g id="Node000012" class="node">
<title>Node12</title>
<g id="a_Node000012"><a xlink:title=" ">
<polygon fill="#e0e0e0" stroke="#999999" points="261.73,-239 211.73,-239 211.73,-220 261.73,-220 261.73,-239"/>
<text text-anchor="middle" x="236.73" y="-227" font-family="Helvetica,sans-Serif" font-size="10.00">stdio.h</text>
</a>
</g>
</g>
<!-- Node1&#45;&gt;Node12 -->
<g id="edge16_Node000001_Node000012" class="edge">
<title>Node1&#45;&gt;Node12</title>
<g id="a_edge16_Node000001_Node000012"><a xlink:title=" ">
<path fill="none" stroke="#63b8ff" d="M134.33,-274.98C154.05,-266.42 184.69,-253.11 207.32,-243.28"/>
<polygon fill="#63b8ff" stroke="#63b8ff" points="209,-246.37 216.77,-239.17 206.21,-239.94 209,-246.37"/>
</a>
</g>
</g>
<!-- Node3 -->
<g id="Node000003" class="node">
<title>Node3</title>
<g id="a_Node000003"><a xlink:title=" ">
<polygon fill="#e0e0e0" stroke="#999999" points="220.73,-129 146.73,-129 146.73,-110 220.73,-110 220.73,-129"/>
<text text-anchor="middle" x="183.73" y="-117" font-family="Helvetica,sans-Serif" font-size="10.00">petscsnes.h</text>
</a>
</g>
</g>
<!-- Node2&#45;&gt;Node3 -->
<g id="edge2_Node000002_Node000003" class="edge">
<title>Node2&#45;&gt;Node3</title>
<g id="a_edge2_Node000002_Node000003"><a xlink:title=" ">
<path fill="none" stroke="#63b8ff" d="M156.18,-164.75C160.75,-157.42 167.4,-146.73 173.03,-137.7"/>
<polygon fill="#63b8ff" stroke="#63b8ff" points="176.07,-139.43 178.38,-129.09 170.13,-135.73 176.07,-139.43"/>
</a>
</g>
</g>
<!-- Node2&#45;&gt;Node4 -->
<g id="edge3_Node000002_Node000004" class="edge">
<title>Node2&#45;&gt;Node4</title>
<g id="a_edge3_Node000002_Node000004"><a xlink:title=" ">
<path fill="none" stroke="#63b8ff" d="M146.53,-164.83C141.13,-152.56 133,-129.46 137.73,-110 140.04,-100.51 144.75,-90.78 149.31,-82.85"/>
<polygon fill="#63b8ff" stroke="#63b8ff" points="152.37,-84.55 154.63,-74.2 146.41,-80.89 152.37,-84.55"/>
</a>
</g>
</g>
<!-- Node6 -->
<g id="Node000006" class="node">
<title>Node6</title>
<g id="a_Node000006"><a xlink:title=" ">
<polygon fill="#e0e0e0" stroke="#999999" points="90.23,-129 21.23,-129 21.23,-110 90.23,-110 90.23,-129"/>
<text text-anchor="middle" x="55.73" y="-117" font-family="Helvetica,sans-Serif" font-size="10.00">petscvec.h</text>
</a>
</g>
</g>
<!-- Node2&#45;&gt;Node6 -->
<g id="edge6_Node000002_Node000006" class="edge">
<title>Node2&#45;&gt;Node6</title>
<g id="a_edge6_Node000002_Node000006"><a xlink:title=" ">
<path fill="none" stroke="#63b8ff" d="M135.47,-164.98C120.6,-156.69 97.75,-143.94 80.32,-134.22"/>
<polygon fill="#63b8ff" stroke="#63b8ff" points="81.71,-130.99 71.27,-129.17 78.3,-137.1 81.71,-130.99"/>
</a>
</g>
</g>
<!-- Node7 -->
<g id="Node000007" class="node">
<title>Node7</title>
<g id="a_Node000007"><a xlink:href="act__variables_8h.html" target="_top" xlink:title="Data containers for active&#45;strain kinematics, stress, and material data.">
<polygon fill="white" stroke="#666666" points="330.23,-129 239.23,-129 239.23,-110 330.23,-110 330.23,-129"/>
<text text-anchor="middle" x="284.73" y="-117" font-family="Helvetica,sans-Serif" font-size="10.00">act_variables.h</text>
</a>
</g>
</g>
<!-- Node2&#45;&gt;Node7 -->
<g id="edge7_Node000002_Node000007" class="edge">
<title>Node2&#45;&gt;Node7</title>
<g id="a_edge7_Node000002_Node000007"><a xlink:title=" ">
<path fill="none" stroke="#63b8ff" d="M172.26,-164.98C194.21,-156.3 228.47,-142.75 253.42,-132.88"/>
<polygon fill="#63b8ff" stroke="#63b8ff" points="254.8,-136.1 262.81,-129.17 252.22,-129.59 254.8,-136.1"/>
</a>
</g>
</g>
<!-- Node8 -->
<g id="Node000008" class="node">
<title>Node8</title>
<g id="a_Node000008"><a xlink:href="dmplex__types_8h.html" target="_top" xlink:title="Persistent DMPlex geometry context for Loop subdivision surfaces.">
<polygon fill="white" stroke="#666666" points="443.23,-129 348.23,-129 348.23,-110 443.23,-110 443.23,-129"/>
<text text-anchor="middle" x="395.73" y="-117" font-family="Helvetica,sans-Serif" font-size="10.00">dmplex_types.h</text>
</a>
</g>
</g>
<!-- Node2&#45;&gt;Node8 -->
<g id="edge10_Node000002_Node000008" class="edge">
<title>Node2&#45;&gt;Node8</title>
<g id="a_edge10_Node000002_Node000008"><a xlink:title=" ">
<path fill="none" stroke="#63b8ff" d="M186.36,-165.79C228.52,-156.67 298.97,-141.43 346.37,-131.18"/>
<polygon fill="#63b8ff" stroke="#63b8ff" points="347.38,-134.54 356.41,-129.01 345.9,-127.7 347.38,-134.54"/>
</a>
</g>
</g>
<!-- Node4&#45;&gt;Node4 -->
<g id="edge4_Node000004_Node000004" class="edge">
<title>Node4&#45;&gt;Node4</title>
<g id="a_edge4_Node000004_Node000004"><a xlink:title=" ">
<path fill="none" stroke="#63b8ff" d="M181.32,-74.07C193.19,-76.02 204.23,-72.83 204.23,-64.5 204.23,-58.64 198.77,-55.33 191.4,-54.55"/>
<polygon fill="#63b8ff" stroke="#63b8ff" points="191.18,-51.06 181.32,-54.93 191.44,-58.05 191.18,-51.06"/>
</a>
</g>
</g>
<!-- Node5 -->
<g id="Node000005" class="node">
<title>Node5</title>
<g id="a_Node000005"><a xlink:title=" ">
<polygon fill="#e0e0e0" stroke="#999999" points="230.73,-19 162.73,-19 162.73,0 230.73,0 230.73,-19"/>
<text text-anchor="middle" x="196.73" y="-7" font-family="Helvetica,sans-Serif" font-size="10.00">petscsys.h</text>
</a>
</g>
</g>
<!-- Node4&#45;&gt;Node5 -->
<g id="edge5_Node000004_Node000005" class="edge">
<title>Node4&#45;&gt;Node5</title>
<g id="a_edge5_Node000004_Node000005"><a xlink:title=" ">
<path fill="none" stroke="#63b8ff" d="M166.68,-54.75C171.71,-47.34 179.07,-36.5 185.25,-27.41"/>
<polygon fill="#63b8ff" stroke="#63b8ff" points="188.17,-29.33 190.9,-19.09 182.38,-25.39 188.17,-29.33"/>
</a>
</g>
</g>
<!-- Node7&#45;&gt;Node4 -->
<g id="edge9_Node000007_Node000004" class="edge">
<title>Node7&#45;&gt;Node4</title>
<g id="a_edge9_Node000007_Node000004"><a xlink:title=" ">
<path fill="none" stroke="#63b8ff" d="M264.81,-109.98C244.68,-101.38 213.35,-87.99 190.32,-78.15"/>
<polygon fill="#63b8ff" stroke="#63b8ff" points="191.59,-74.88 181.02,-74.17 188.84,-81.32 191.59,-74.88"/>
</a>
</g>
</g>
<!-- Node7&#45;&gt;Node5 -->
<g id="edge8_Node000007_Node000005" class="edge">
<title>Node7&#45;&gt;Node5</title>
<g id="a_edge8_Node000007_Node000005"><a xlink:title=" ">
<path fill="none" stroke="#63b8ff" d="M277.53,-109.66C262.83,-91.61 229.14,-50.28 210.24,-27.08"/>
<polygon fill="#63b8ff" stroke="#63b8ff" points="212.82,-24.7 203.79,-19.16 207.39,-29.12 212.82,-24.7"/>
</a>
</g>
</g>
<!-- Node9 -->
<g id="Node000009" class="node">
<title>Node9</title>
<g id="a_Node000009"><a xlink:title=" ">
<polygon fill="#e0e0e0" stroke="#999999" points="380.23,-74 291.23,-74 291.23,-55 380.23,-55 380.23,-74"/>
<text text-anchor="middle" x="335.73" y="-62" font-family="Helvetica,sans-Serif" font-size="10.00">petscdmplex.h</text>
</a>
</g>
</g>
<!-- Node8&#45;&gt;Node9 -->
<g id="edge11_Node000008_Node000009" class="edge">
<title>Node8&#45;&gt;Node9</title>
<g id="a_edge11_Node000008_Node000009"><a xlink:title=" ">
<path fill="none" stroke="#63b8ff" d="M386.09,-109.98C377.22,-102.15 363.86,-90.34 353.12,-80.86"/>
<polygon fill="#63b8ff" stroke="#63b8ff" points="355.36,-78.17 345.55,-74.17 350.73,-83.41 355.36,-78.17"/>
</a>
</g>
</g>
<!-- Node10 -->
<g id="Node000010" class="node">
<title>Node10</title>
<g id="a_Node000010"><a xlink:title=" ">
<polygon fill="#e0e0e0" stroke="#999999" points="457.73,-74 397.73,-74 397.73,-55 457.73,-55 457.73,-74"/>
<text text-anchor="middle" x="427.73" y="-62" font-family="Helvetica,sans-Serif" font-size="10.00">petscsf.h</text>
</a>
</g>
</g>
<!-- Node8&#45;&gt;Node10 -->
<g id="edge12_Node000008_Node000010" class="edge">
<title>Node8&#45;&gt;Node10</title>
<g id="a_edge12_Node000008_Node000010"><a xlink:title=" ">
<path fill="none" stroke="#63b8ff" d="M401.02,-109.75C405.44,-102.42 411.9,-91.73 417.35,-82.7"/>
<polygon fill="#63b8ff" stroke="#63b8ff" points="420.37,-84.46 422.55,-74.09 414.38,-80.84 420.37,-84.46"/>
</a>
</g>
</g>
<!-- Node11&#45;&gt;Node2 -->
<g id="edge14_Node000011_Node000002" class="edge">
<title>Node11&#45;&gt;Node2</title>
<g id="a_edge14_Node000011_Node000002"><a xlink:title=" ">
<path fill="none" stroke="#63b8ff" d="M150.73,-219.75C150.73,-212.8 150.73,-202.85 150.73,-194.13"/>
<polygon fill="#63b8ff" stroke="#63b8ff" points="154.23,-194.09 150.73,-184.09 147.23,-194.09 154.23,-194.09"/>
</a>
</g>
</g>
</g>
</svg>
