<?xml version="1.0" encoding="UTF-8" standalone="no"?>
<!DOCTYPE svg PUBLIC "-//W3C//DTD SVG 1.1//EN"
 "http://www.w3.org/Graphics/SVG/1.1/DTD/svg11.dtd">
<!-- Generated by graphviz version 2.43.0 (0)
 -->
<!-- Title: CreateLVMesh Pages: 1 -->
<svg width="180pt" height="360pt"
 viewBox="0.00 0.00 180.00 360.00" xmlns="http://www.w3.org/2000/svg" xmlns:xlink="http://www.w3.org/1999/xlink">
<g id="graph0" class="graph" transform="scale(1 1) rotate(0) translate(4 356)">
<title>CreateLVMesh</title>
<!-- Node1 -->
<g id="Node000001" class="node">
<title>Node1</title>
<g id="a_Node000001"><a xlink:title=" ">
<polygon fill="#999999" stroke="#666666" points="86,-185 0,-185 0,-166 86,-166 86,-185"/>
<text text-anchor="middle" x="43" y="-173" font-family="Helvetica,sans-Serif" font-size="10.00">CreateLVMesh</text>
</a>
</g>
</g>
<!-- Node2 -->
<g id="Node000002" class="node">
<title>Node2</title>
<g id="a_Node000002"><a xlink:href="math_8c.html#a7ef9263b0a3a10c2cd00bb4dc0059d70" target="_top" xlink:title=" ">
<polygon fill="white" stroke="#666666" points="172,-352 122,-352 122,-333 172,-333 172,-352"/>
<text text-anchor="middle" x="147" y="-340" font-family="Helvetica,sans-Serif" font-size="10.00">AMULT</text>
</a>
</g>
</g>
<!-- Node1&#45;&gt;Node2 -->
<g id="edge1_Node000001_Node000002" class="edge">
<title>Node1&#45;&gt;Node2</title>
<g id="a_edge1_Node000001_Node000002"><a xlink:title=" ">
<path fill="none" stroke="#63b8ff" d="M47.3,-185.09C56.27,-210.12 83.03,-278.68 122,-324.5 122.49,-325.08 123.01,-325.65 123.54,-326.22"/>
<polygon fill="#63b8ff" stroke="#63b8ff" points="121.35,-328.95 131.14,-332.98 126,-323.72 121.35,-328.95"/>
</a>
</g>
</g>
<!-- Node3 -->
<g id="Node000003" class="node">
<title>Node3</title>
<g id="a_Node000003"><a xlink:href="io_8c.html#aa2578327c7843e8a53d959beeb316bfc" target="_top" xlink:title=" ">
<polygon fill="white" stroke="#666666" points="171.5,-315 122.5,-315 122.5,-296 171.5,-296 171.5,-315"/>
<text text-anchor="middle" x="147" y="-303" font-family="Helvetica,sans-Serif" font-size="10.00">Create</text>
</a>
</g>
</g>
<!-- Node1&#45;&gt;Node3 -->
<g id="edge2_Node000001_Node000003" class="edge">
<title>Node1&#45;&gt;Node3</title>
<g id="a_edge2_Node000001_Node000003"><a xlink:title=" ">
<path fill="none" stroke="#63b8ff" d="M49.35,-185.25C60.87,-205.7 89.58,-253.92 122,-287.5 122.63,-288.16 123.29,-288.81 123.97,-289.45"/>
<polygon fill="#63b8ff" stroke="#63b8ff" points="121.76,-292.17 131.67,-295.93 126.27,-286.81 121.76,-292.17"/>
</a>
</g>
</g>
<!-- Node4 -->
<g id="Node000004" class="node">
<title>Node4</title>
<g id="a_Node000004"><a xlink:href="math_8c.html#a9d60990d26296194c921d537ea26f3c7" target="_top" xlink:title=" ">
<polygon fill="white" stroke="#666666" points="172,-278 122,-278 122,-259 172,-259 172,-278"/>
<text text-anchor="middle" x="147" y="-266" font-family="Helvetica,sans-Serif" font-size="10.00">CROSS</text>
</a>
</g>
</g>
<!-- Node1&#45;&gt;Node4 -->
<g id="edge3_Node000001_Node000004" class="edge">
<title>Node1&#45;&gt;Node4</title>
<g id="a_edge3_Node000001_Node000004"><a xlink:title=" ">
<path fill="none" stroke="#63b8ff" d="M53.26,-185.13C67.52,-199.79 95.95,-228.35 122,-250.5 122.83,-251.21 123.69,-251.92 124.56,-252.63"/>
<polygon fill="#63b8ff" stroke="#63b8ff" points="122.53,-255.49 132.57,-258.88 126.84,-249.97 122.53,-255.49"/>
</a>
</g>
</g>
<!-- Node5 -->
<g id="Node000005" class="node">
<title>Node5</title>
<g id="a_Node000005"><a xlink:href="math_8c.html#a870a70f4845a041458d9bdb0dd7aabd3" target="_top" xlink:title=" ">
<polygon fill="white" stroke="#666666" points="166,-241 128,-241 128,-222 166,-222 166,-241"/>
<text text-anchor="middle" x="147" y="-229" font-family="Helvetica,sans-Serif" font-size="10.00">DOT</text>
</a>
</g>
</g>
<!-- Node1&#45;&gt;Node5 -->
<g id="edge4_Node000001_Node000005" class="edge">
<title>Node1&#45;&gt;Node5</title>
<g id="a_edge4_Node000001_Node000005"><a xlink:title=" ">
<path fill="none" stroke="#63b8ff" d="M61.77,-185.25C77.71,-194.01 101.33,-206.97 119.5,-216.95"/>
<polygon fill="#63b8ff" stroke="#63b8ff" points="117.99,-220.11 128.44,-221.86 121.36,-213.98 117.99,-220.11"/>
</a>
</g>
</g>
<!-- Node6 -->
<g id="Node000006" class="node">
<title>Node6</title>
<g id="a_Node000006"><a xlink:href="bending_8c.html#a9578756c3e89fa4ff5097ef9bdfee25e" target="_top" xlink:title=" ">
<polygon fill="white" stroke="#666666" points="168.5,-204 125.5,-204 125.5,-185 168.5,-185 168.5,-204"/>
<text text-anchor="middle" x="147" y="-192" font-family="Helvetica,sans-Serif" font-size="10.00">IrrVer</text>
</a>
</g>
</g>
<!-- Node1&#45;&gt;Node6 -->
<g id="edge5_Node000001_Node000006" class="edge">
<title>Node1&#45;&gt;Node6</title>
<g id="a_edge5_Node000001_Node000006"><a xlink:title=" ">
<path fill="none" stroke="#63b8ff" d="M86.08,-183.34C95.96,-185.18 106.31,-187.11 115.58,-188.83"/>
<polygon fill="#63b8ff" stroke="#63b8ff" points="115.02,-192.29 125.49,-190.68 116.3,-185.41 115.02,-192.29"/>
</a>
</g>
</g>
<!-- Node7 -->
<g id="Node000007" class="node">
<title>Node7</title>
<g id="a_Node000007"><a xlink:href="math_8c.html#a9d08a9d2fd8e8932e92b8ab054b19269" target="_top" xlink:title=" ">
<polygon fill="white" stroke="#666666" points="172,-167 122,-167 122,-148 172,-148 172,-167"/>
<text text-anchor="middle" x="147" y="-155" font-family="Helvetica,sans-Serif" font-size="10.00">MINUS</text>
</a>
</g>
</g>
<!-- Node1&#45;&gt;Node7 -->
<g id="edge6_Node000001_Node000007" class="edge">
<title>Node1&#45;&gt;Node7</title>
<g id="a_edge6_Node000001_Node000007"><a xlink:title=" ">
<path fill="none" stroke="#63b8ff" d="M86.08,-168.07C94.64,-166.56 103.55,-164.99 111.81,-163.53"/>
<polygon fill="#63b8ff" stroke="#63b8ff" points="112.59,-166.95 121.83,-161.77 111.37,-160.06 112.59,-166.95"/>
</a>
</g>
</g>
<!-- Node8 -->
<g id="Node000008" class="node">
<title>Node8</title>
<g id="a_Node000008"><a xlink:href="bending_8c.html#a0107f44526163528de27b208877f2bda" target="_top" xlink:title=" ">
<polygon fill="white" stroke="#666666" points="168.5,-130 125.5,-130 125.5,-111 168.5,-111 168.5,-130"/>
<text text-anchor="middle" x="147" y="-118" font-family="Helvetica,sans-Serif" font-size="10.00">Patch</text>
</a>
</g>
</g>
<!-- Node1&#45;&gt;Node8 -->
<g id="edge7_Node000001_Node000008" class="edge">
<title>Node1&#45;&gt;Node8</title>
<g id="a_edge7_Node000001_Node000008"><a xlink:title=" ">
<path fill="none" stroke="#63b8ff" d="M61.77,-165.92C77.61,-157.38 101.04,-144.74 119.17,-134.97"/>
<polygon fill="#63b8ff" stroke="#63b8ff" points="120.95,-137.98 128.09,-130.16 117.63,-131.82 120.95,-137.98"/>
</a>
</g>
</g>
<!-- Node9 -->
<g id="Node000009" class="node">
<title>Node9</title>
<g id="a_Node000009"><a xlink:href="math_8c.html#ae18926821a703a2c5b281bd890b7e6a0" target="_top" xlink:title=" ">
<polygon fill="white" stroke="#666666" points="167.5,-93 126.5,-93 126.5,-74 167.5,-74 167.5,-93"/>
<text text-anchor="middle" x="147" y="-81" font-family="Helvetica,sans-Serif" font-size="10.00">PLUS</text>
</a>
</g>
</g>
<!-- Node1&#45;&gt;Node9 -->
<g id="edge8_Node000001_Node000009" class="edge">
<title>Node1&#45;&gt;Node9</title>
<g id="a_edge8_Node000001_Node000009"><a xlink:title=" ">
<path fill="none" stroke="#63b8ff" d="M53.85,-165.78C68.42,-151.53 96.7,-124.29 122,-102.5 123,-101.64 124.02,-100.77 125.07,-99.9"/>
<polygon fill="#63b8ff" stroke="#63b8ff" points="127.57,-102.38 133.14,-93.37 123.16,-96.94 127.57,-102.38"/>
</a>
</g>
</g>
<!-- Node10 -->
<g id="Node000010" class="node">
<title>Node10</title>
<g id="a_Node000010"><a xlink:href="math_8c.html#aa52f6593cf3e5453c8c6c94343d3fb37" target="_top" xlink:title=" ">
<polygon fill="white" stroke="#666666" points="166,-56 128,-56 128,-37 166,-37 166,-56"/>
<text text-anchor="middle" x="147" y="-44" font-family="Helvetica,sans-Serif" font-size="10.00">SIZE</text>
</a>
</g>
</g>
<!-- Node1&#45;&gt;Node10 -->
<g id="edge9_Node000001_Node000010" class="edge">
<title>Node1&#45;&gt;Node10</title>
<g id="a_edge9_Node000001_Node000010"><a xlink:title=" ">
<path fill="none" stroke="#63b8ff" d="M49.46,-166C61.18,-146.06 90.26,-98.96 122,-65.5 122.77,-64.69 123.57,-63.89 124.4,-63.09"/>
<polygon fill="#63b8ff" stroke="#63b8ff" points="126.95,-65.51 132.22,-56.32 122.37,-60.22 126.95,-65.51"/>
</a>
</g>
</g>
<!-- Node11 -->
<g id="Node000011" class="node">
<title>Node11</title>
<g id="a_Node000011"><a xlink:href="math_8c.html#ac616709995f2ae60c4308ffa328337d7" target="_top" xlink:title=" ">
<polygon fill="white" stroke="#666666" points="167.5,-19 126.5,-19 126.5,0 167.5,0 167.5,-19"/>
<text text-anchor="middle" x="147" y="-7" font-family="Helvetica,sans-Serif" font-size="10.00">UNIT</text>
</a>
</g>
</g>
<!-- Node1&#45;&gt;Node11 -->
<g id="edge10_Node000001_Node000011" class="edge">
<title>Node1&#45;&gt;Node11</title>
<g id="a_edge10_Node000001_Node000011"><a xlink:title=" ">
<path fill="none" stroke="#63b8ff" d="M47.54,-165.74C56.88,-140.9 84.1,-74.01 122,-28.5 122.71,-27.64 123.47,-26.8 124.26,-25.97"/>
<polygon fill="#63b8ff" stroke="#63b8ff" points="126.84,-28.36 131.93,-19.06 122.15,-23.16 126.84,-28.36"/>
</a>
</g>
</g>
</g>
</svg>
