<?xml version="1.0" encoding="UTF-8" standalone="no"?>
<!DOCTYPE svg PUBLIC "-//W3C//DTD SVG 1.1//EN"
 "http://www.w3.org/Graphics/SVG/1.1/DTD/svg11.dtd">
<!-- Generated by graphviz version 2.43.0 (0)
 -->
<!-- Title: FungJacobian Pages: 1 -->
<svg width="824pt" height="666pt"
 viewBox="0.00 0.00 824.00 665.61" xmlns="http://www.w3.org/2000/svg" xmlns:xlink="http://www.w3.org/1999/xlink">
<g id="graph0" class="graph" transform="scale(1 1) rotate(0) translate(4 661.61)">
<title>FungJacobian</title>
<!-- Node1 -->
<g id="Node000001" class="node">
<title>Node1</title>
<g id="a_Node000001"><a xlink:title=" ">
<polygon fill="#999999" stroke="#666666" points="81,-619.61 0,-619.61 0,-600.61 81,-600.61 81,-619.61"/>
<text text-anchor="middle" x="40.5" y="-607.61" font-family="Helvetica,sans-Serif" font-size="10.00">FungJacobian</text>
</a>
</g>
</g>
<!-- Node2 -->
<g id="Node000002" class="node">
<title>Node2</title>
<g id="a_Node000002"><a xlink:href="inverse_8c.html#aad265514e1d068c5af3a6320696f5ba9" target="_top" xlink:title=" ">
<polygon fill="white" stroke="#666666" points="382,-657.61 272,-657.61 272,-638.61 382,-638.61 382,-657.61"/>
<text text-anchor="middle" x="327" y="-645.61" font-family="Helvetica,sans-Serif" font-size="10.00">reset_Fung_epsilon</text>
</a>
</g>
</g>
<!-- Node1&#45;&gt;Node2 -->
<g id="edge1_Node000001_Node000002" class="edge">
<title>Node1&#45;&gt;Node2</title>
<g id="a_edge1_Node000001_Node000002"><a xlink:title=" ">
<path fill="none" stroke="#63b8ff" d="M81.13,-613.08C120.53,-616.29 182.63,-622.05 236,-630.11 247.94,-631.91 260.7,-634.23 272.74,-636.59"/>
<polygon fill="#63b8ff" stroke="#63b8ff" points="272.17,-640.04 282.66,-638.58 273.54,-633.18 272.17,-640.04"/>
</a>
</g>
</g>
<!-- Node3 -->
<g id="Node000003" class="node">
<title>Node3</title>
<g id="a_Node000003"><a xlink:href="inverse_8c.html#a8ccb34384a9c46d52bb413dcd177c67b" target="_top" xlink:title=" ">
<polygon fill="white" stroke="#666666" points="216.5,-527.61 136.5,-527.61 136.5,-508.61 216.5,-508.61 216.5,-527.61"/>
<text text-anchor="middle" x="176.5" y="-515.61" font-family="Helvetica,sans-Serif" font-size="10.00">ResidualCalc</text>
</a>
</g>
</g>
<!-- Node1&#45;&gt;Node3 -->
<g id="edge2_Node000001_Node000003" class="edge">
<title>Node1&#45;&gt;Node3</title>
<g id="a_edge2_Node000001_Node000003"><a xlink:title=" ">
<path fill="none" stroke="#63b8ff" d="M55.84,-600.27C79.11,-584.29 125.28,-552.59 152.97,-533.58"/>
<polygon fill="#63b8ff" stroke="#63b8ff" points="155,-536.43 161.26,-527.89 151.04,-530.66 155,-536.43"/>
</a>
</g>
</g>
<!-- Node31 -->
<g id="Node000031" class="node">
<title>Node31</title>
<g id="a_Node000031"><a xlink:href="inverse_8c.html#adcdbfe299a117284d357b2a9c0b84c44" target="_top" xlink:title=" ">
<polygon fill="white" stroke="#666666" points="236,-657.61 117,-657.61 117,-638.61 236,-638.61 236,-657.61"/>
<text text-anchor="middle" x="176.5" y="-645.61" font-family="Helvetica,sans-Serif" font-size="10.00">update_Fung_epsilon</text>
</a>
</g>
</g>
<!-- Node1&#45;&gt;Node31 -->
<g id="edge63_Node000001_Node000031" class="edge">
<title>Node1&#45;&gt;Node31</title>
<g id="a_edge63_Node000001_Node000031"><a xlink:title=" ">
<path fill="none" stroke="#63b8ff" d="M75.31,-619.7C92.53,-624.58 113.66,-630.58 132.07,-635.8"/>
<polygon fill="#63b8ff" stroke="#63b8ff" points="131.12,-639.16 141.7,-638.53 133.03,-632.43 131.12,-639.16"/>
</a>
</g>
</g>
<!-- Node4 -->
<g id="Node000004" class="node">
<title>Node4</title>
<g id="a_Node000004"><a xlink:href="io_8c.html#ac6a6fe57e1e391ebe52b1dbffde4ba5b" target="_top" xlink:title=" ">
<polygon fill="white" stroke="#666666" points="699.5,-541.61 624.5,-541.61 624.5,-522.61 699.5,-522.61 699.5,-541.61"/>
<text text-anchor="middle" x="662" y="-529.61" font-family="Helvetica,sans-Serif" font-size="10.00">AreaNormal</text>
</a>
</g>
</g>
<!-- Node3&#45;&gt;Node4 -->
<g id="edge3_Node000003_Node000004" class="edge">
<title>Node3&#45;&gt;Node4</title>
<g id="a_edge3_Node000003_Node000004"><a xlink:title=" ">
<path fill="none" stroke="#63b8ff" d="M216.71,-517.82C257.88,-517.62 324.5,-517.63 382,-519.11 463.74,-521.21 558.86,-526.19 614.25,-529.34"/>
<polygon fill="#63b8ff" stroke="#63b8ff" points="614.27,-532.84 624.46,-529.92 614.67,-525.86 614.27,-532.84"/>
</a>
</g>
</g>
<!-- Node9 -->
<g id="Node000009" class="node">
<title>Node9</title>
<g id="a_Node000009"><a xlink:href="main_8c.html#a406cf6152471e0614dca5a045fdfd99f" target="_top" xlink:title=" ">
<polygon fill="white" stroke="#666666" points="360,-470.61 294,-470.61 294,-451.61 360,-451.61 360,-470.61"/>
<text text-anchor="middle" x="327" y="-458.61" font-family="Helvetica,sans-Serif" font-size="10.00">FDynamic</text>
</a>
</g>
</g>
<!-- Node3&#45;&gt;Node9 -->
<g id="edge8_Node000003_Node000009" class="edge">
<title>Node3&#45;&gt;Node9</title>
<g id="a_edge8_Node000003_Node000009"><a xlink:title=" ">
<path fill="none" stroke="#63b8ff" d="M202.36,-508.57C226.77,-499.2 264.22,-484.82 291.51,-474.35"/>
<polygon fill="#63b8ff" stroke="#63b8ff" points="292.98,-477.53 301.06,-470.68 290.47,-471 292.98,-477.53"/>
</a>
</g>
</g>
<!-- Node12 -->
<g id="Node000012" class="node">
<title>Node12</title>
<g id="a_Node000012"><a xlink:href="bcs_8c.html#aef1719332b4828ce07ba0c7a6bba7bcd" target="_top" xlink:title=" ">
<polygon fill="white" stroke="#666666" points="358.5,-411.61 295.5,-411.61 295.5,-392.61 358.5,-392.61 358.5,-411.61"/>
<text text-anchor="middle" x="327" y="-399.61" font-family="Helvetica,sans-Serif" font-size="10.00">FExternal</text>
</a>
</g>
</g>
<!-- Node3&#45;&gt;Node12 -->
<g id="edge11_Node000003_Node000012" class="edge">
<title>Node3&#45;&gt;Node12</title>
<g id="a_edge11_Node000003_Node000012"><a xlink:title=" ">
<path fill="none" stroke="#63b8ff" d="M189.37,-508.56C207.21,-494.22 242.05,-466.36 272,-443.11 282.79,-434.74 294.89,-425.53 304.9,-417.97"/>
<polygon fill="#63b8ff" stroke="#63b8ff" points="307.19,-420.62 313.07,-411.81 302.97,-415.04 307.19,-420.62"/>
</a>
</g>
</g>
<!-- Node14 -->
<g id="Node000014" class="node">
<title>Node14</title>
<g id="a_Node000014"><a xlink:href="main_8c.html#a59ccabe25c63661e6e66b44209b0f162" target="_top" xlink:title=" ">
<polygon fill="white" stroke="#666666" points="357,-258.61 297,-258.61 297,-239.61 357,-239.61 357,-258.61"/>
<text text-anchor="middle" x="327" y="-246.61" font-family="Helvetica,sans-Serif" font-size="10.00">FInternal</text>
</a>
</g>
</g>
<!-- Node3&#45;&gt;Node14 -->
<g id="edge13_Node000003_Node000014" class="edge">
<title>Node3&#45;&gt;Node14</title>
<g id="a_edge13_Node000003_Node000014"><a xlink:title=" ">
<path fill="none" stroke="#63b8ff" d="M182.79,-508.54C204.43,-469.32 286.56,-320.55 315.68,-267.8"/>
<polygon fill="#63b8ff" stroke="#63b8ff" points="318.85,-269.3 320.62,-258.85 312.73,-265.91 318.85,-269.3"/>
</a>
</g>
</g>
<!-- Node28 -->
<g id="Node000028" class="node">
<title>Node28</title>
<g id="a_Node000028"><a xlink:href="bcs_8c.html#a66bea6d23d803ebc455e934629a0c7be" target="_top" xlink:title=" ">
<polygon fill="white" stroke="#666666" points="358,-620.61 296,-620.61 296,-601.61 358,-601.61 358,-620.61"/>
<text text-anchor="middle" x="327" y="-608.61" font-family="Helvetica,sans-Serif" font-size="10.00">GhostLoc</text>
</a>
</g>
</g>
<!-- Node3&#45;&gt;Node28 -->
<g id="edge60_Node000003_Node000028" class="edge">
<title>Node3&#45;&gt;Node28</title>
<g id="a_edge60_Node000003_Node000028"><a xlink:title=" ">
<path fill="none" stroke="#63b8ff" d="M187.15,-527.71C203.38,-543.37 237.74,-574.56 272,-593.11 276.5,-595.55 281.39,-597.74 286.33,-599.68"/>
<polygon fill="#63b8ff" stroke="#63b8ff" points="285.2,-602.99 295.79,-603.1 287.58,-596.41 285.2,-602.99"/>
</a>
</g>
</g>
<!-- Node29 -->
<g id="Node000029" class="node">
<title>Node29</title>
<g id="a_Node000029"><a xlink:href="bending_8c.html#a4a1f5973a55922b27065f712220d8152" target="_top" xlink:title=" ">
<polygon fill="white" stroke="#666666" points="365.5,-583.61 288.5,-583.61 288.5,-564.61 365.5,-564.61 365.5,-583.61"/>
<text text-anchor="middle" x="327" y="-571.61" font-family="Helvetica,sans-Serif" font-size="10.00">GlobalGhost</text>
</a>
</g>
</g>
<!-- Node3&#45;&gt;Node29 -->
<g id="edge61_Node000003_Node000029" class="edge">
<title>Node3&#45;&gt;Node29</title>
<g id="a_edge61_Node000003_Node000029"><a xlink:title=" ">
<path fill="none" stroke="#63b8ff" d="M200.26,-527.72C219.31,-535.64 247.27,-547.03 272,-556.11 276.63,-557.81 281.5,-559.53 286.35,-561.2"/>
<polygon fill="#63b8ff" stroke="#63b8ff" points="285.58,-564.64 296.18,-564.53 287.83,-558.01 285.58,-564.64"/>
</a>
</g>
</g>
<!-- Node30 -->
<g id="Node000030" class="node">
<title>Node30</title>
<g id="a_Node000030"><a xlink:href="bending_8c.html#a907be03803f4a1d456a7a1650461f7eb" target="_top" xlink:title=" ">
<polygon fill="white" stroke="#666666" points="356.5,-546.61 297.5,-546.61 297.5,-527.61 356.5,-527.61 356.5,-546.61"/>
<text text-anchor="middle" x="327" y="-534.61" font-family="Helvetica,sans-Serif" font-size="10.00">PatchLoc</text>
</a>
</g>
</g>
<!-- Node3&#45;&gt;Node30 -->
<g id="edge62_Node000003_Node000030" class="edge">
<title>Node3&#45;&gt;Node30</title>
<g id="a_edge62_Node000003_Node000030"><a xlink:title=" ">
<path fill="none" stroke="#63b8ff" d="M216.52,-523.1C238.23,-525.88 265.17,-529.33 286.9,-532.11"/>
<polygon fill="#63b8ff" stroke="#63b8ff" points="286.73,-535.62 297.1,-533.41 287.62,-528.67 286.73,-535.62"/>
</a>
</g>
</g>
<!-- Node5 -->
<g id="Node000005" class="node">
<title>Node5</title>
<g id="a_Node000005"><a xlink:href="math_8c.html#a9d60990d26296194c921d537ea26f3c7" target="_top" xlink:title=" ">
<polygon fill="white" stroke="#666666" points="816,-352.61 766,-352.61 766,-333.61 816,-333.61 816,-352.61"/>
<text text-anchor="middle" x="791" y="-340.61" font-family="Helvetica,sans-Serif" font-size="10.00">CROSS</text>
</a>
</g>
</g>
<!-- Node4&#45;&gt;Node5 -->
<g id="edge4_Node000004_Node000005" class="edge">
<title>Node4&#45;&gt;Node5</title>
<g id="a_edge4_Node000004_Node000005"><a xlink:title=" ">
<path fill="none" stroke="#63b8ff" d="M699.84,-525.92C710.89,-522.38 722.14,-516.83 730,-508.11 775.03,-458.15 728.93,-417.24 766,-361.11 766.26,-360.72 766.53,-360.33 766.81,-359.95"/>
<polygon fill="#63b8ff" stroke="#63b8ff" points="769.33,-362.38 773.83,-352.79 764.33,-357.48 769.33,-362.38"/>
</a>
</g>
</g>
<!-- Node6 -->
<g id="Node000006" class="node">
<title>Node6</title>
<g id="a_Node000006"><a xlink:href="math_8c.html#a9d08a9d2fd8e8932e92b8ab054b19269" target="_top" xlink:title=" ">
<polygon fill="white" stroke="#666666" points="816,-278.61 766,-278.61 766,-259.61 816,-259.61 816,-278.61"/>
<text text-anchor="middle" x="791" y="-266.61" font-family="Helvetica,sans-Serif" font-size="10.00">MINUS</text>
</a>
</g>
</g>
<!-- Node4&#45;&gt;Node6 -->
<g id="edge5_Node000004_Node000006" class="edge">
<title>Node4&#45;&gt;Node6</title>
<g id="a_edge5_Node000004_Node000006"><a xlink:title=" ">
<path fill="none" stroke="#63b8ff" d="M679.89,-522.43C695.46,-512.57 717.93,-495.83 730,-475.11 772.83,-401.6 720.94,-359.27 766,-287.11 766.25,-286.71 766.51,-286.32 766.78,-285.94"/>
<polygon fill="#63b8ff" stroke="#63b8ff" points="769.31,-288.35 773.71,-278.71 764.26,-283.51 769.31,-288.35"/>
</a>
</g>
</g>
<!-- Node7 -->
<g id="Node000007" class="node">
<title>Node7</title>
<g id="a_Node000007"><a xlink:href="math_8c.html#aa52f6593cf3e5453c8c6c94343d3fb37" target="_top" xlink:title=" ">
<polygon fill="white" stroke="#666666" points="810,-483.61 772,-483.61 772,-464.61 810,-464.61 810,-483.61"/>
<text text-anchor="middle" x="791" y="-471.61" font-family="Helvetica,sans-Serif" font-size="10.00">SIZE</text>
</a>
</g>
</g>
<!-- Node4&#45;&gt;Node7 -->
<g id="edge6_Node000004_Node000007" class="edge">
<title>Node4&#45;&gt;Node7</title>
<g id="a_edge6_Node000004_Node000007"><a xlink:title=" ">
<path fill="none" stroke="#63b8ff" d="M693.12,-522.55C704.82,-518.53 718.21,-513.52 730,-508.11 742.12,-502.56 755.05,-495.4 765.79,-489.08"/>
<polygon fill="#63b8ff" stroke="#63b8ff" points="767.81,-491.96 774.6,-483.82 764.22,-485.95 767.81,-491.96"/>
</a>
</g>
</g>
<!-- Node8 -->
<g id="Node000008" class="node">
<title>Node8</title>
<g id="a_Node000008"><a xlink:href="math_8c.html#ac616709995f2ae60c4308ffa328337d7" target="_top" xlink:title=" ">
<polygon fill="white" stroke="#666666" points="811.5,-315.61 770.5,-315.61 770.5,-296.61 811.5,-296.61 811.5,-315.61"/>
<text text-anchor="middle" x="791" y="-303.61" font-family="Helvetica,sans-Serif" font-size="10.00">UNIT</text>
</a>
</g>
</g>
<!-- Node4&#45;&gt;Node8 -->
<g id="edge7_Node000004_Node000008" class="edge">
<title>Node4&#45;&gt;Node8</title>
<g id="a_edge7_Node000004_Node000008"><a xlink:title=" ">
<path fill="none" stroke="#63b8ff" d="M679.39,-522.49C694.82,-512.57 717.39,-495.68 730,-475.11 766.06,-416.29 728.15,-381.8 766,-324.11 766.26,-323.72 766.53,-323.33 766.81,-322.95"/>
<polygon fill="#63b8ff" stroke="#63b8ff" points="769.33,-325.38 773.82,-315.78 764.32,-320.48 769.33,-325.38"/>
</a>
</g>
</g>
<!-- Node10 -->
<g id="Node000010" class="node">
<title>Node10</title>
<g id="a_Node000010"><a xlink:href="material_8c.html#a39aa444d5f3c2ebbec2bb3d9aedb3b87" target="_top" xlink:title=" ">
<polygon fill="white" stroke="#666666" points="511,-433.61 465,-433.61 465,-414.61 511,-414.61 511,-433.61"/>
<text text-anchor="middle" x="488" y="-421.61" font-family="Helvetica,sans-Serif" font-size="10.00">Damp</text>
</a>
</g>
</g>
<!-- Node9&#45;&gt;Node10 -->
<g id="edge9_Node000009_Node000010" class="edge">
<title>Node9&#45;&gt;Node10</title>
<g id="a_edge9_Node000009_Node000010"><a xlink:title=" ">
<path fill="none" stroke="#63b8ff" d="M360.18,-453.62C387.69,-447.22 427.11,-438.05 454.67,-431.63"/>
<polygon fill="#63b8ff" stroke="#63b8ff" points="455.66,-435 464.6,-429.32 454.07,-428.18 455.66,-435"/>
</a>
</g>
</g>
<!-- Node11 -->
<g id="Node000011" class="node">
<title>Node11</title>
<g id="a_Node000011"><a xlink:href="material_8c.html#a2d561c42d0809a56d3abe1d1c9c24588" target="_top" xlink:title=" ">
<polygon fill="white" stroke="#666666" points="509,-470.61 467,-470.61 467,-451.61 509,-451.61 509,-470.61"/>
<text text-anchor="middle" x="488" y="-458.61" font-family="Helvetica,sans-Serif" font-size="10.00">Mass</text>
</a>
</g>
</g>
<!-- Node9&#45;&gt;Node11 -->
<g id="edge10_Node000009_Node000011" class="edge">
<title>Node9&#45;&gt;Node11</title>
<g id="a_edge10_Node000009_Node000011"><a xlink:title=" ">
<path fill="none" stroke="#63b8ff" d="M360.18,-461.11C388.37,-461.11 429.06,-461.11 456.69,-461.11"/>
<polygon fill="#63b8ff" stroke="#63b8ff" points="456.94,-464.61 466.94,-461.11 456.94,-457.61 456.94,-464.61"/>
</a>
</g>
</g>
<!-- Node13 -->
<g id="Node000013" class="node">
<title>Node13</title>
<g id="a_Node000013"><a xlink:href="external_8c.html#a93115e0e971ccd05cacd122af8636e18" target="_top" xlink:title=" ">
<polygon fill="white" stroke="#666666" points="558,-396.11 418,-396.11 418,-366.11 558,-366.11 558,-396.11"/>
<text text-anchor="start" x="426" y="-384.11" font-family="Helvetica,sans-Serif" font-size="10.00">FExternalPrescribedForce</text>
<text text-anchor="middle" x="488" y="-373.11" font-family="Helvetica,sans-Serif" font-size="10.00">FieldIn</text>
</a>
</g>
</g>
<!-- Node12&#45;&gt;Node13 -->
<g id="edge12_Node000012_Node000013" class="edge">
<title>Node12&#45;&gt;Node13</title>
<g id="a_edge12_Node000012_Node000013"><a xlink:title=" ">
<path fill="none" stroke="#63b8ff" d="M358.66,-398.06C372.76,-396.2 390.22,-393.89 407.67,-391.59"/>
<polygon fill="#63b8ff" stroke="#63b8ff" points="408.46,-395.02 417.91,-390.24 407.54,-388.08 408.46,-395.02"/>
</a>
</g>
</g>
<!-- Node15 -->
<g id="Node000015" class="node">
<title>Node15</title>
<g id="a_Node000015"><a xlink:href="bending_8c.html#a2b66770553fce4724cfb65b0f79e83b1" target="_top" xlink:title=" ">
<polygon fill="white" stroke="#666666" points="519,-296.61 457,-296.61 457,-277.61 519,-277.61 519,-296.61"/>
<text text-anchor="middle" x="488" y="-284.61" font-family="Helvetica,sans-Serif" font-size="10.00">Fbending</text>
</a>
</g>
</g>
<!-- Node14&#45;&gt;Node15 -->
<g id="edge14_Node000014_Node000015" class="edge">
<title>Node14&#45;&gt;Node15</title>
<g id="a_edge14_Node000014_Node000015"><a xlink:title=" ">
<path fill="none" stroke="#63b8ff" d="M357.16,-256.08C382.39,-262.11 419.12,-270.89 447.08,-277.57"/>
<polygon fill="#63b8ff" stroke="#63b8ff" points="446.4,-281.01 456.94,-279.93 448.03,-274.2 446.4,-281.01"/>
</a>
</g>
</g>
<!-- Node26 -->
<g id="Node000026" class="node">
<title>Node26</title>
<g id="a_Node000026"><a xlink:href="membrane_8c.html#a9fee56a81a4f404db4630a996f38013c" target="_top" xlink:title=" ">
<polygon fill="white" stroke="#666666" points="526,-202.61 450,-202.61 450,-183.61 526,-183.61 526,-202.61"/>
<text text-anchor="middle" x="488" y="-190.61" font-family="Helvetica,sans-Serif" font-size="10.00">Fmembrane</text>
</a>
</g>
</g>
<!-- Node14&#45;&gt;Node26 -->
<g id="edge53_Node000014_Node000026" class="edge">
<title>Node14&#45;&gt;Node26</title>
<g id="a_edge53_Node000014_Node000026"><a xlink:title=" ">
<path fill="none" stroke="#63b8ff" d="M355.33,-239.48C381.54,-230.25 421.3,-216.25 450.27,-206.05"/>
<polygon fill="#63b8ff" stroke="#63b8ff" points="451.75,-209.24 460.02,-202.61 449.43,-202.63 451.75,-209.24"/>
</a>
</g>
</g>
<!-- Node27 -->
<g id="Node000027" class="node">
<title>Node27</title>
<g id="a_Node000027"><a xlink:href="bcs_8c.html#a679ccb265fdae6027920ac949da40b91" target="_top" xlink:title=" ">
<polygon fill="white" stroke="#666666" points="535.5,-165.61 440.5,-165.61 440.5,-146.61 535.5,-146.61 535.5,-165.61"/>
<text text-anchor="middle" x="488" y="-153.61" font-family="Helvetica,sans-Serif" font-size="10.00">ModifyFbending</text>
</a>
</g>
</g>
<!-- Node14&#45;&gt;Node27 -->
<g id="edge59_Node000014_Node000027" class="edge">
<title>Node14&#45;&gt;Node27</title>
<g id="a_edge59_Node000014_Node000027"><a xlink:title=" ">
<path fill="none" stroke="#63b8ff" d="M336.72,-239.49C351.74,-223.51 384.18,-191.5 418,-174.11 422.01,-172.05 426.28,-170.21 430.64,-168.57"/>
<polygon fill="#63b8ff" stroke="#63b8ff" points="431.96,-171.82 440.31,-165.3 429.71,-165.19 431.96,-171.82"/>
</a>
</g>
</g>
<!-- Node15&#45;&gt;Node5 -->
<g id="edge27_Node000015_Node000005" class="edge">
<title>Node15&#45;&gt;Node5</title>
<g id="a_edge27_Node000015_Node000005"><a xlink:title=" ">
<path fill="none" stroke="#63b8ff" d="M501.56,-296.63C517,-308.96 542.98,-331.89 558,-357.11 586.06,-404.22 549.93,-442.48 594,-475.11 642.58,-511.08 681.25,-510.84 730,-475.11 772.86,-443.7 735.28,-404.46 766,-361.11 766.27,-360.73 766.55,-360.35 766.84,-359.98"/>
<polygon fill="#63b8ff" stroke="#63b8ff" points="769.35,-362.42 773.99,-352.9 764.42,-357.45 769.35,-362.42"/>
</a>
</g>
</g>
<!-- Node15&#45;&gt;Node6 -->
<g id="edge37_Node000015_Node000006" class="edge">
<title>Node15&#45;&gt;Node6</title>
<g id="a_edge37_Node000015_Node000006"><a xlink:title=" ">
<path fill="none" stroke="#63b8ff" d="M509.36,-277.6C530.12,-268.47 563.52,-255.32 594,-250.11 653.58,-239.92 670.26,-240.88 730,-250.11 738.69,-251.45 747.85,-253.83 756.32,-256.46"/>
<polygon fill="#63b8ff" stroke="#63b8ff" points="755.29,-259.8 765.88,-259.61 757.48,-253.16 755.29,-259.8"/>
</a>
</g>
</g>
<!-- Node15&#45;&gt;Node7 -->
<g id="edge39_Node000015_Node000007" class="edge">
<title>Node15&#45;&gt;Node7</title>
<g id="a_edge39_Node000015_Node000007"><a xlink:title=" ">
<path fill="none" stroke="#63b8ff" d="M502.59,-296.8C518.56,-308.96 544.58,-331.39 558,-357.11 598.56,-434.86 526.57,-495.04 594,-551.11 640.48,-589.76 675.69,-577.64 730,-551.11 754.65,-539.07 772.12,-511.46 781.63,-492.79"/>
<polygon fill="#63b8ff" stroke="#63b8ff" points="784.81,-494.26 785.99,-483.73 778.5,-491.23 784.81,-494.26"/>
</a>
</g>
</g>
<!-- Node15&#45;&gt;Node8 -->
<g id="edge52_Node000015_Node000008" class="edge">
<title>Node15&#45;&gt;Node8</title>
<g id="a_edge52_Node000015_Node000008"><a xlink:title=" ">
<path fill="none" stroke="#63b8ff" d="M499.01,-296.9C512.6,-310.28 537.54,-335.12 558,-357.11 574.52,-374.86 571.91,-388.11 594,-398.11 649.06,-423.04 678.76,-430.17 730,-398.11 761.01,-378.71 742.72,-352.32 766,-324.11 766.39,-323.63 766.8,-323.16 767.22,-322.7"/>
<polygon fill="#63b8ff" stroke="#63b8ff" points="769.8,-325.09 774.83,-315.77 765.08,-319.92 769.8,-325.09"/>
</a>
</g>
</g>
<!-- Node16 -->
<g id="Node000016" class="node">
<title>Node16</title>
<g id="a_Node000016"><a xlink:href="math_8c.html#a7ef9263b0a3a10c2cd00bb4dc0059d70" target="_top" xlink:title=" ">
<polygon fill="white" stroke="#666666" points="687,-465.61 637,-465.61 637,-446.61 687,-446.61 687,-465.61"/>
<text text-anchor="middle" x="662" y="-453.61" font-family="Helvetica,sans-Serif" font-size="10.00">AMULT</text>
</a>
</g>
</g>
<!-- Node15&#45;&gt;Node16 -->
<g id="edge15_Node000015_Node000016" class="edge">
<title>Node15&#45;&gt;Node16</title>
<g id="a_edge15_Node000015_Node000016"><a xlink:title=" ">
<path fill="none" stroke="#63b8ff" d="M500.7,-296.8C515.48,-309.48 541.02,-332.96 558,-357.11 579.27,-387.36 566.54,-407.35 594,-432.11 603.23,-440.43 615.54,-445.92 627.1,-449.51"/>
<polygon fill="#63b8ff" stroke="#63b8ff" points="626.39,-452.95 636.96,-452.21 628.23,-446.19 626.39,-452.95"/>
</a>
</g>
</g>
<!-- Node17 -->
<g id="Node000017" class="node">
<title>Node17</title>
<g id="a_Node000017"><a xlink:href="material_8c.html#af81ecf5fbfd52082e0abd3184f12c14f" target="_top" xlink:title=" ">
<polygon fill="white" stroke="#666666" points="715,-352.61 609,-352.61 609,-333.61 715,-333.61 715,-352.61"/>
<text text-anchor="middle" x="662" y="-340.61" font-family="Helvetica,sans-Serif" font-size="10.00">BendingNonLinear</text>
</a>
</g>
</g>
<!-- Node15&#45;&gt;Node17 -->
<g id="edge16_Node000015_Node000017" class="edge">
<title>Node15&#45;&gt;Node17</title>
<g id="a_edge16_Node000015_Node000017"><a xlink:title=" ">
<path fill="none" stroke="#63b8ff" d="M514.74,-296.69C535.9,-304.44 566.74,-315.45 594,-324.11 601.05,-326.35 608.56,-328.61 615.9,-330.74"/>
<polygon fill="#63b8ff" stroke="#63b8ff" points="615.18,-334.17 625.76,-333.56 617.11,-327.44 615.18,-334.17"/>
</a>
</g>
</g>
<!-- Node18 -->
<g id="Node000018" class="node">
<title>Node18</title>
<g id="a_Node000018"><a xlink:href="math_8c.html#a870a70f4845a041458d9bdb0dd7aabd3" target="_top" xlink:title=" ">
<polygon fill="white" stroke="#666666" points="810,-203.61 772,-203.61 772,-184.61 810,-184.61 810,-203.61"/>
<text text-anchor="middle" x="791" y="-191.61" font-family="Helvetica,sans-Serif" font-size="10.00">DOT</text>
</a>
</g>
</g>
<!-- Node15&#45;&gt;Node18 -->
<g id="edge28_Node000015_Node000018" class="edge">
<title>Node15&#45;&gt;Node18</title>
<g id="a_edge28_Node000015_Node000018"><a xlink:title=" ">
<path fill="none" stroke="#63b8ff" d="M500.71,-277.61C516.24,-264.37 543.36,-238.85 558,-211.11 590.2,-150.09 539.85,-102.87 594,-60.11 641.44,-22.65 679.27,-27.24 730,-60.11 769.27,-85.55 783.07,-143.4 787.74,-174.1"/>
<polygon fill="#63b8ff" stroke="#63b8ff" points="784.32,-174.97 789.11,-184.42 791.26,-174.04 784.32,-174.97"/>
</a>
</g>
</g>
<!-- Node19 -->
<g id="Node000019" class="node">
<title>Node19</title>
<g id="a_Node000019"><a xlink:href="math_8c.html#a3f73e4cd9eab76eeee084eabf2b98ec9" target="_top" xlink:title=" ">
<polygon fill="white" stroke="#666666" points="808,-241.61 774,-241.61 774,-222.61 808,-222.61 808,-241.61"/>
<text text-anchor="middle" x="791" y="-229.61" font-family="Helvetica,sans-Serif" font-size="10.00">INV</text>
</a>
</g>
</g>
<!-- Node15&#45;&gt;Node19 -->
<g id="edge29_Node000015_Node000019" class="edge">
<title>Node15&#45;&gt;Node19</title>
<g id="a_edge29_Node000015_Node000019"><a xlink:title=" ">
<path fill="none" stroke="#63b8ff" d="M497.99,-277.22C522.84,-249.94 590.79,-175.51 594,-174.11 649.41,-149.96 674.47,-150.23 730,-174.11 751.37,-183.3 749.03,-196.19 766,-212.11 767.25,-213.28 768.56,-214.47 769.89,-215.66"/>
<polygon fill="#63b8ff" stroke="#63b8ff" points="767.68,-218.37 777.55,-222.21 772.23,-213.05 767.68,-218.37"/>
</a>
</g>
</g>
<!-- Node21 -->
<g id="Node000021" class="node">
<title>Node21</title>
<g id="a_Node000021"><a xlink:href="material_8c.html#a3243950933f3559f19edcb5421360526" target="_top" xlink:title=" ">
<polygon fill="white" stroke="#666666" points="730,-88.61 594,-88.61 594,-69.61 730,-69.61 730,-88.61"/>
<text text-anchor="middle" x="662" y="-76.61" font-family="Helvetica,sans-Serif" font-size="10.00">CalcCurvStressStrainxyz</text>
</a>
</g>
</g>
<!-- Node15&#45;&gt;Node21 -->
<g id="edge24_Node000015_Node000021" class="edge">
<title>Node15&#45;&gt;Node21</title>
<g id="a_edge24_Node000015_Node000021"><a xlink:title=" ">
<path fill="none" stroke="#63b8ff" d="M499.28,-277.51C513.63,-263.74 539.93,-237.18 558,-211.11 577.93,-182.36 572.84,-168.97 594,-141.11 607.26,-123.66 625.74,-106.97 639.94,-95.31"/>
<polygon fill="#63b8ff" stroke="#63b8ff" points="642.53,-97.72 648.14,-88.74 638.15,-92.26 642.53,-97.72"/>
</a>
</g>
</g>
<!-- Node22 -->
<g id="Node000022" class="node">
<title>Node22</title>
<g id="a_Node000022"><a xlink:href="material_8c.html#aa93862cca1fe83c736219df7d4a91374" target="_top" xlink:title=" ">
<polygon fill="white" stroke="#666666" points="721.5,-315.61 602.5,-315.61 602.5,-296.61 721.5,-296.61 721.5,-315.61"/>
<text text-anchor="middle" x="662" y="-303.61" font-family="Helvetica,sans-Serif" font-size="10.00">MembraneNonLinear</text>
</a>
</g>
</g>
<!-- Node15&#45;&gt;Node22 -->
<g id="edge30_Node000015_Node000022" class="edge">
<title>Node15&#45;&gt;Node22</title>
<g id="a_edge30_Node000015_Node000022"><a xlink:title=" ">
<path fill="none" stroke="#63b8ff" d="M519.35,-290.46C539.62,-292.7 567.1,-295.74 592.47,-298.54"/>
<polygon fill="#63b8ff" stroke="#63b8ff" points="592.12,-302.02 602.44,-299.64 592.89,-295.07 592.12,-302.02"/>
</a>
</g>
</g>
<!-- Node23 -->
<g id="Node000023" class="node">
<title>Node23</title>
<g id="a_Node000023"><a xlink:href="math_8c.html#ae18926821a703a2c5b281bd890b7e6a0" target="_top" xlink:title=" ">
<polygon fill="white" stroke="#666666" points="682.5,-389.61 641.5,-389.61 641.5,-370.61 682.5,-370.61 682.5,-389.61"/>
<text text-anchor="middle" x="662" y="-377.61" font-family="Helvetica,sans-Serif" font-size="10.00">PLUS</text>
</a>
</g>
</g>
<!-- Node15&#45;&gt;Node23 -->
<g id="edge38_Node000015_Node000023" class="edge">
<title>Node15&#45;&gt;Node23</title>
<g id="a_edge38_Node000015_Node000023"><a xlink:title=" ">
<path fill="none" stroke="#63b8ff" d="M499.86,-296.68C518.1,-312.28 556.56,-343.25 594,-361.11 605.73,-366.71 619.43,-370.95 631.37,-374"/>
<polygon fill="#63b8ff" stroke="#63b8ff" points="630.77,-377.46 641.31,-376.37 632.4,-370.65 630.77,-377.46"/>
</a>
</g>
</g>
<!-- Node24 -->
<g id="Node000024" class="node">
<title>Node24</title>
<g id="a_Node000024"><a xlink:href="material_8c.html#a431e1e9b5ceabfa4edc2920b70296b35" target="_top" xlink:title=" ">
<polygon fill="white" stroke="#666666" points="700.5,-202.61 623.5,-202.61 623.5,-183.61 700.5,-183.61 700.5,-202.61"/>
<text text-anchor="middle" x="662" y="-190.61" font-family="Helvetica,sans-Serif" font-size="10.00">StressLinear</text>
</a>
</g>
</g>
<!-- Node15&#45;&gt;Node24 -->
<g id="edge40_Node000015_Node000024" class="edge">
<title>Node15&#45;&gt;Node24</title>
<g id="a_edge40_Node000015_Node000024"><a xlink:title=" ">
<path fill="none" stroke="#63b8ff" d="M501.32,-277.44C520.34,-262.85 558.38,-235.03 594,-217.11 602.1,-213.04 611.06,-209.33 619.73,-206.11"/>
<polygon fill="#63b8ff" stroke="#63b8ff" points="621.08,-209.34 629.32,-202.69 618.72,-202.75 621.08,-209.34"/>
</a>
</g>
</g>
<!-- Node25 -->
<g id="Node000025" class="node">
<title>Node25</title>
<g id="a_Node000025"><a xlink:href="material_8c.html#aad0d0c11a159f8021feb99ddee475d31" target="_top" xlink:title=" ">
<polygon fill="white" stroke="#666666" points="719,-278.61 605,-278.61 605,-259.61 719,-259.61 719,-278.61"/>
<text text-anchor="middle" x="662" y="-266.61" font-family="Helvetica,sans-Serif" font-size="10.00">StressManufactured</text>
</a>
</g>
</g>
<!-- Node15&#45;&gt;Node25 -->
<g id="edge46_Node000015_Node000025" class="edge">
<title>Node15&#45;&gt;Node25</title>
<g id="a_edge46_Node000015_Node000025"><a xlink:title=" ">
<path fill="none" stroke="#63b8ff" d="M519.35,-283.93C540.21,-281.75 568.73,-278.77 594.7,-276.05"/>
<polygon fill="#63b8ff" stroke="#63b8ff" points="595.31,-279.5 604.89,-274.98 594.58,-272.54 595.31,-279.5"/>
</a>
</g>
</g>
<!-- Node17&#45;&gt;Node5 -->
<g id="edge17_Node000017_Node000005" class="edge">
<title>Node17&#45;&gt;Node5</title>
<g id="a_edge17_Node000017_Node000005"><a xlink:title=" ">
<path fill="none" stroke="#63b8ff" d="M715.02,-343.11C728.83,-343.11 743.39,-343.11 755.96,-343.11"/>
<polygon fill="#63b8ff" stroke="#63b8ff" points="756,-346.61 766,-343.11 756,-339.61 756,-346.61"/>
</a>
</g>
</g>
<!-- Node17&#45;&gt;Node6 -->
<g id="edge20_Node000017_Node000006" class="edge">
<title>Node17&#45;&gt;Node6</title>
<g id="a_edge20_Node000017_Node000006"><a xlink:title=" ">
<path fill="none" stroke="#63b8ff" d="M709.02,-333.53C716.31,-331.04 723.56,-327.95 730,-324.11 749.71,-312.36 748.77,-302.26 766,-287.11 766.82,-286.39 767.67,-285.66 768.53,-284.94"/>
<polygon fill="#63b8ff" stroke="#63b8ff" points="770.82,-287.6 776.51,-278.66 766.49,-282.1 770.82,-287.6"/>
</a>
</g>
</g>
<!-- Node17&#45;&gt;Node7 -->
<g id="edge22_Node000017_Node000007" class="edge">
<title>Node17&#45;&gt;Node7</title>
<g id="a_edge22_Node000017_Node000007"><a xlink:title=" ">
<path fill="none" stroke="#63b8ff" d="M715.2,-352.46C720.51,-354.75 725.57,-357.58 730,-361.11 760.42,-385.34 777.3,-429.29 784.92,-454.64"/>
<polygon fill="#63b8ff" stroke="#63b8ff" points="781.64,-455.88 787.72,-464.56 788.37,-453.98 781.64,-455.88"/>
</a>
</g>
</g>
<!-- Node17&#45;&gt;Node8 -->
<g id="edge23_Node000017_Node000008" class="edge">
<title>Node17&#45;&gt;Node8</title>
<g id="a_edge23_Node000017_Node000008"><a xlink:title=" ">
<path fill="none" stroke="#63b8ff" d="M697.11,-333.54C707.67,-330.56 719.32,-327.23 730,-324.11 740,-321.19 750.91,-317.94 760.65,-315.01"/>
<polygon fill="#63b8ff" stroke="#63b8ff" points="761.73,-318.34 770.3,-312.1 759.71,-311.64 761.73,-318.34"/>
</a>
</g>
</g>
<!-- Node17&#45;&gt;Node18 -->
<g id="edge18_Node000017_Node000018" class="edge">
<title>Node17&#45;&gt;Node18</title>
<g id="a_edge18_Node000017_Node000018"><a xlink:title=" ">
<path fill="none" stroke="#63b8ff" d="M715.21,-334C720.65,-331.45 725.73,-328.22 730,-324.11 767.35,-288.13 736.4,-255.7 766,-213.11 766.53,-212.35 767.1,-211.6 767.7,-210.87"/>
<polygon fill="#63b8ff" stroke="#63b8ff" points="770.29,-213.24 775.01,-203.75 765.4,-208.22 770.29,-213.24"/>
</a>
</g>
</g>
<!-- Node17&#45;&gt;Node19 -->
<g id="edge19_Node000017_Node000019" class="edge">
<title>Node17&#45;&gt;Node19</title>
<g id="a_edge19_Node000017_Node000019"><a xlink:title=" ">
<path fill="none" stroke="#63b8ff" d="M714.33,-333.54C719.99,-331.08 725.37,-327.99 730,-324.11 758.04,-300.63 742.72,-278.32 766,-250.11 766.39,-249.63 766.8,-249.16 767.22,-248.7"/>
<polygon fill="#63b8ff" stroke="#63b8ff" points="769.8,-251.09 774.83,-241.77 765.08,-245.92 769.8,-251.09"/>
</a>
</g>
</g>
<!-- Node20 -->
<g id="Node000020" class="node">
<title>Node20</title>
<g id="a_Node000020"><a xlink:href="math_8c.html#ae6a53927765c25c58815e47fea096a67" target="_top" xlink:title=" ">
<polygon fill="white" stroke="#666666" points="811.5,-389.61 770.5,-389.61 770.5,-370.61 811.5,-370.61 811.5,-389.61"/>
<text text-anchor="middle" x="791" y="-377.61" font-family="Helvetica,sans-Serif" font-size="10.00">SIGN</text>
</a>
</g>
</g>
<!-- Node17&#45;&gt;Node20 -->
<g id="edge21_Node000017_Node000020" class="edge">
<title>Node17&#45;&gt;Node20</title>
<g id="a_edge21_Node000017_Node000020"><a xlink:title=" ">
<path fill="none" stroke="#63b8ff" d="M699.59,-352.63C709.49,-355.29 720.17,-358.24 730,-361.11 740.04,-364.05 750.96,-367.45 760.7,-370.55"/>
<polygon fill="#63b8ff" stroke="#63b8ff" points="759.75,-373.92 770.34,-373.64 761.89,-367.25 759.75,-373.92"/>
</a>
</g>
</g>
<!-- Node21&#45;&gt;Node6 -->
<g id="edge26_Node000021_Node000006" class="edge">
<title>Node21&#45;&gt;Node6</title>
<g id="a_edge26_Node000021_Node000006"><a xlink:title=" ">
<path fill="none" stroke="#63b8ff" d="M708.89,-88.68C716.79,-92.12 724.29,-96.78 730,-103.11 775.03,-153.08 729.66,-193.51 766,-250.11 766.5,-250.89 767.05,-251.66 767.63,-252.4"/>
<polygon fill="#63b8ff" stroke="#63b8ff" points="765.28,-255 774.82,-259.59 770.22,-250.05 765.28,-255"/>
</a>
</g>
</g>
<!-- Node21&#45;&gt;Node19 -->
<g id="edge25_Node000021_Node000019" class="edge">
<title>Node21&#45;&gt;Node19</title>
<g id="a_edge25_Node000021_Node000019"><a xlink:title=" ">
<path fill="none" stroke="#63b8ff" d="M707.46,-88.61C715.77,-92.06 723.79,-96.74 730,-103.11 765.62,-139.63 737.3,-169.93 766,-212.11 766.74,-213.2 767.55,-214.25 768.42,-215.28"/>
<polygon fill="#63b8ff" stroke="#63b8ff" points="766.18,-217.99 775.78,-222.47 771.07,-212.98 766.18,-217.99"/>
</a>
</g>
</g>
<!-- Node22&#45;&gt;Node5 -->
<g id="edge31_Node000022_Node000005" class="edge">
<title>Node22&#45;&gt;Node5</title>
<g id="a_edge31_Node000022_Node000005"><a xlink:title=" ">
<path fill="none" stroke="#63b8ff" d="M699.59,-315.63C709.49,-318.29 720.17,-321.24 730,-324.11 738.52,-326.6 747.67,-329.43 756.2,-332.12"/>
<polygon fill="#63b8ff" stroke="#63b8ff" points="755.25,-335.49 765.84,-335.19 757.38,-328.82 755.25,-335.49"/>
</a>
</g>
</g>
<!-- Node22&#45;&gt;Node6 -->
<g id="edge34_Node000022_Node000006" class="edge">
<title>Node22&#45;&gt;Node6</title>
<g id="a_edge34_Node000022_Node000006"><a xlink:title=" ">
<path fill="none" stroke="#63b8ff" d="M697.11,-296.54C707.67,-293.56 719.32,-290.23 730,-287.11 738.48,-284.64 747.62,-281.92 756.14,-279.37"/>
<polygon fill="#63b8ff" stroke="#63b8ff" points="757.23,-282.7 765.79,-276.46 755.21,-275.99 757.23,-282.7"/>
</a>
</g>
</g>
<!-- Node22&#45;&gt;Node7 -->
<g id="edge35_Node000022_Node000007" class="edge">
<title>Node22&#45;&gt;Node7</title>
<g id="a_edge35_Node000022_Node000007"><a xlink:title=" ">
<path fill="none" stroke="#63b8ff" d="M716.92,-315.61C721.67,-317.88 726.13,-320.67 730,-324.11 740.3,-333.26 770.15,-416.76 783.46,-455.07"/>
<polygon fill="#63b8ff" stroke="#63b8ff" points="780.17,-456.26 786.74,-464.57 786.78,-453.98 780.17,-456.26"/>
</a>
</g>
</g>
<!-- Node22&#45;&gt;Node8 -->
<g id="edge36_Node000022_Node000008" class="edge">
<title>Node22&#45;&gt;Node8</title>
<g id="a_edge36_Node000022_Node000008"><a xlink:title=" ">
<path fill="none" stroke="#63b8ff" d="M721.67,-306.11C734.97,-306.11 748.55,-306.11 760.06,-306.11"/>
<polygon fill="#63b8ff" stroke="#63b8ff" points="760.39,-309.61 770.39,-306.11 760.39,-302.61 760.39,-309.61"/>
</a>
</g>
</g>
<!-- Node22&#45;&gt;Node18 -->
<g id="edge32_Node000022_Node000018" class="edge">
<title>Node22&#45;&gt;Node18</title>
<g id="a_edge32_Node000022_Node000018"><a xlink:title=" ">
<path fill="none" stroke="#63b8ff" d="M714.33,-296.54C719.99,-294.08 725.37,-290.99 730,-287.11 758.04,-263.63 743.09,-241.62 766,-213.11 766.58,-212.39 767.2,-211.67 767.84,-210.97"/>
<polygon fill="#63b8ff" stroke="#63b8ff" points="770.39,-213.37 775.34,-204.01 765.63,-208.24 770.39,-213.37"/>
</a>
</g>
</g>
<!-- Node22&#45;&gt;Node19 -->
<g id="edge33_Node000022_Node000019" class="edge">
<title>Node22&#45;&gt;Node19</title>
<g id="a_edge33_Node000022_Node000019"><a xlink:title=" ">
<path fill="none" stroke="#63b8ff" d="M709.02,-296.53C716.31,-294.04 723.56,-290.95 730,-287.11 749.71,-275.36 748.77,-265.26 766,-250.11 766.82,-249.39 767.67,-248.66 768.53,-247.94"/>
<polygon fill="#63b8ff" stroke="#63b8ff" points="770.82,-250.6 776.51,-241.66 766.49,-245.1 770.82,-250.6"/>
</a>
</g>
</g>
<!-- Node24&#45;&gt;Node5 -->
<g id="edge41_Node000024_Node000005" class="edge">
<title>Node24&#45;&gt;Node5</title>
<g id="a_edge41_Node000024_Node000005"><a xlink:title=" ">
<path fill="none" stroke="#63b8ff" d="M677.34,-202.61C692.04,-212.92 714.84,-230.56 730,-250.11 752.4,-279.02 743.09,-295.6 766,-324.11 766.58,-324.84 767.2,-325.55 767.84,-326.25"/>
<polygon fill="#63b8ff" stroke="#63b8ff" points="765.63,-328.98 775.34,-333.22 770.39,-323.85 765.63,-328.98"/>
</a>
</g>
</g>
<!-- Node24&#45;&gt;Node6 -->
<g id="edge44_Node000024_Node000006" class="edge">
<title>Node24&#45;&gt;Node6</title>
<g id="a_edge44_Node000024_Node000006"><a xlink:title=" ">
<path fill="none" stroke="#63b8ff" d="M697.93,-202.69C708.63,-206.38 720.16,-211.17 730,-217.11 748.58,-228.33 749.48,-236.03 766,-250.11 767,-250.96 768.03,-251.83 769.08,-252.7"/>
<polygon fill="#63b8ff" stroke="#63b8ff" points="767.18,-255.66 777.16,-259.22 771.58,-250.22 767.18,-255.66"/>
</a>
</g>
</g>
<!-- Node24&#45;&gt;Node8 -->
<g id="edge45_Node000024_Node000008" class="edge">
<title>Node24&#45;&gt;Node8</title>
<g id="a_edge45_Node000024_Node000008"><a xlink:title=" ">
<path fill="none" stroke="#63b8ff" d="M675.16,-202.87C688.81,-213.97 711.49,-232.79 730,-250.11 746.76,-265.78 748.97,-271.74 766,-287.11 766.98,-287.99 767.99,-288.88 769.02,-289.77"/>
<polygon fill="#63b8ff" stroke="#63b8ff" points="767.09,-292.71 777.04,-296.35 771.53,-287.3 767.09,-292.71"/>
</a>
</g>
</g>
<!-- Node24&#45;&gt;Node18 -->
<g id="edge42_Node000024_Node000018" class="edge">
<title>Node24&#45;&gt;Node18</title>
<g id="a_edge42_Node000024_Node000018"><a xlink:title=" ">
<path fill="none" stroke="#63b8ff" d="M700.76,-193.41C720.35,-193.56 743.87,-193.75 761.85,-193.89"/>
<polygon fill="#63b8ff" stroke="#63b8ff" points="761.95,-197.39 771.98,-193.97 762.01,-190.39 761.95,-197.39"/>
</a>
</g>
</g>
<!-- Node24&#45;&gt;Node19 -->
<g id="edge43_Node000024_Node000019" class="edge">
<title>Node24&#45;&gt;Node19</title>
<g id="a_edge43_Node000024_Node000019"><a xlink:title=" ">
<path fill="none" stroke="#63b8ff" d="M694.07,-202.65C715.58,-209.26 743.88,-217.95 764.16,-224.18"/>
<polygon fill="#63b8ff" stroke="#63b8ff" points="763.36,-227.59 773.95,-227.18 765.42,-220.9 763.36,-227.59"/>
</a>
</g>
</g>
<!-- Node25&#45;&gt;Node5 -->
<g id="edge47_Node000025_Node000005" class="edge">
<title>Node25&#45;&gt;Node5</title>
<g id="a_edge47_Node000025_Node000005"><a xlink:title=" ">
<path fill="none" stroke="#63b8ff" d="M711.13,-278.65C717.71,-280.92 724.18,-283.7 730,-287.11 749.79,-298.73 748.97,-308.74 766,-324.11 766.98,-324.99 767.99,-325.88 769.02,-326.77"/>
<polygon fill="#63b8ff" stroke="#63b8ff" points="767.09,-329.71 777.04,-333.35 771.53,-324.3 767.09,-329.71"/>
</a>
</g>
</g>
<!-- Node25&#45;&gt;Node6 -->
<g id="edge50_Node000025_Node000006" class="edge">
<title>Node25&#45;&gt;Node6</title>
<g id="a_edge50_Node000025_Node000006"><a xlink:title=" ">
<path fill="none" stroke="#63b8ff" d="M719.07,-269.11C731.46,-269.11 744.23,-269.11 755.46,-269.11"/>
<polygon fill="#63b8ff" stroke="#63b8ff" points="755.7,-272.61 765.7,-269.11 755.7,-265.61 755.7,-272.61"/>
</a>
</g>
</g>
<!-- Node25&#45;&gt;Node8 -->
<g id="edge51_Node000025_Node000008" class="edge">
<title>Node25&#45;&gt;Node8</title>
<g id="a_edge51_Node000025_Node000008"><a xlink:title=" ">
<path fill="none" stroke="#63b8ff" d="M699.59,-278.63C709.49,-281.29 720.17,-284.24 730,-287.11 740.04,-290.05 750.96,-293.45 760.7,-296.55"/>
<polygon fill="#63b8ff" stroke="#63b8ff" points="759.75,-299.92 770.34,-299.64 761.89,-293.25 759.75,-299.92"/>
</a>
</g>
</g>
<!-- Node25&#45;&gt;Node18 -->
<g id="edge48_Node000025_Node000018" class="edge">
<title>Node25&#45;&gt;Node18</title>
<g id="a_edge48_Node000025_Node000018"><a xlink:title=" ">
<path fill="none" stroke="#63b8ff" d="M679.34,-259.46C701.06,-246.63 739.64,-223.85 765.02,-208.86"/>
<polygon fill="#63b8ff" stroke="#63b8ff" points="766.89,-211.82 773.72,-203.73 763.33,-205.8 766.89,-211.82"/>
</a>
</g>
</g>
<!-- Node25&#45;&gt;Node19 -->
<g id="edge49_Node000025_Node000019" class="edge">
<title>Node25&#45;&gt;Node19</title>
<g id="a_edge49_Node000025_Node000019"><a xlink:title=" ">
<path fill="none" stroke="#63b8ff" d="M695.71,-259.58C716.89,-253.41 744.1,-245.48 763.84,-239.73"/>
<polygon fill="#63b8ff" stroke="#63b8ff" points="765.06,-243.02 773.69,-236.86 763.11,-236.3 765.06,-243.02"/>
</a>
</g>
</g>
<!-- Node26&#45;&gt;Node6 -->
<g id="edge57_Node000026_Node000006" class="edge">
<title>Node26&#45;&gt;Node6</title>
<g id="a_edge57_Node000026_Node000006"><a xlink:title=" ">
<path fill="none" stroke="#63b8ff" d="M526.28,-184.85C585.34,-172.62 697.11,-153.29 730,-174.11 761.58,-194.1 742.74,-220.86 766,-250.11 766.58,-250.84 767.19,-251.56 767.83,-252.26"/>
<polygon fill="#63b8ff" stroke="#63b8ff" points="765.62,-254.98 775.32,-259.24 770.39,-249.86 765.62,-254.98"/>
</a>
</g>
</g>
<!-- Node26&#45;&gt;Node18 -->
<g id="edge55_Node000026_Node000018" class="edge">
<title>Node26&#45;&gt;Node18</title>
<g id="a_edge55_Node000026_Node000018"><a xlink:title=" ">
<path fill="none" stroke="#63b8ff" d="M526.07,-190.23C537.66,-187.58 549.6,-182.75 558,-174.11 604.88,-125.87 541.08,-68.63 594,-27.11 641.55,10.2 680.56,7.66 730,-27.11 778.21,-61.01 787.87,-137.5 789.68,-174"/>
<polygon fill="#63b8ff" stroke="#63b8ff" points="786.19,-174.46 790.03,-184.34 793.19,-174.22 786.19,-174.46"/>
</a>
</g>
</g>
<!-- Node26&#45;&gt;Node21 -->
<g id="edge54_Node000026_Node000021" class="edge">
<title>Node26&#45;&gt;Node21</title>
<g id="a_edge54_Node000026_Node000021"><a xlink:title=" ">
<path fill="none" stroke="#63b8ff" d="M526.06,-188.79C537.25,-186.03 548.96,-181.5 558,-174.11 585.4,-151.72 567.47,-126.51 594,-103.11 598.57,-99.08 603.87,-95.71 609.44,-92.9"/>
<polygon fill="#63b8ff" stroke="#63b8ff" points="611.27,-95.92 619,-88.67 608.44,-89.51 611.27,-95.92"/>
</a>
</g>
</g>
<!-- Node26&#45;&gt;Node22 -->
<g id="edge56_Node000026_Node000022" class="edge">
<title>Node26&#45;&gt;Node22</title>
<g id="a_edge56_Node000026_Node000022"><a xlink:title=" ">
<path fill="none" stroke="#63b8ff" d="M496.92,-202.66C513.16,-221.61 552.2,-264.1 594,-287.11 598.15,-289.4 602.6,-291.43 607.16,-293.23"/>
<polygon fill="#63b8ff" stroke="#63b8ff" points="606.02,-296.54 616.62,-296.61 608.38,-289.95 606.02,-296.54"/>
</a>
</g>
</g>
<!-- Node26&#45;&gt;Node24 -->
<g id="edge58_Node000026_Node000024" class="edge">
<title>Node26&#45;&gt;Node24</title>
<g id="a_edge58_Node000026_Node000024"><a xlink:title=" ">
<path fill="none" stroke="#63b8ff" d="M526.32,-193.11C551.82,-193.11 585.82,-193.11 613.28,-193.11"/>
<polygon fill="#63b8ff" stroke="#63b8ff" points="613.45,-196.61 623.45,-193.11 613.45,-189.61 613.45,-196.61"/>
</a>
</g>
</g>
<!-- Node31&#45;&gt;Node2 -->
<g id="edge64_Node000031_Node000002" class="edge">
<title>Node31&#45;&gt;Node2</title>
<g id="a_edge64_Node000031_Node000002"><a xlink:title=" ">
<path fill="none" stroke="#63b8ff" d="M236.19,-648.11C244.49,-648.11 253.06,-648.11 261.46,-648.11"/>
<polygon fill="#63b8ff" stroke="#63b8ff" points="261.6,-651.61 271.6,-648.11 261.6,-644.61 261.6,-651.61"/>
</a>
</g>
</g>
</g>
</svg>
