<?xml version="1.0" encoding="UTF-8" standalone="no"?>
<!DOCTYPE svg PUBLIC "-//W3C//DTD SVG 1.1//EN"
 "http://www.w3.org/Graphics/SVG/1.1/DTD/svg11.dtd">
<!-- Generated by graphviz version 2.43.0 (0)
 -->
<!-- Title: ResidualCalc Pages: 1 -->
<svg width="438pt" height="214pt"
 viewBox="0.00 0.00 438.00 214.00" xmlns="http://www.w3.org/2000/svg" xmlns:xlink="http://www.w3.org/1999/xlink">

<svg id="main" version="1.1" xmlns="http://www.w3.org/2000/svg" xmlns:xlink="http://www.w3.org/1999/xlink" xml:space="preserve" onload="init(evt)">
<style type="text/css"><![CDATA[
.node, .edge {opacity: 0.7;}
.node.selected, .edge.selected {opacity: 1;}
.edge:hover path { stroke: red; }
.edge:hover polygon { stroke: red; fill: red; }
]]></style>
<script type="application/ecmascript" xlink:href="svg.min.js"/>
<svg id="graph" class="graph">
<g id="graph0" class="graph" transform="scale(1 1) rotate(0) translate(4 210)">
<title>ResidualCalc</title>
<!-- Node1 -->
<g id="Node000001" class="node">
<title>Node1</title>
<g id="a_Node000001"><a xlink:title=" ">
<polygon fill="#999999" stroke="#666666" points="430,-112 350,-112 350,-93 430,-93 430,-112"/>
<text text-anchor="middle" x="390" y="-100" font-family="Helvetica,sans-Serif" font-size="10.00">ResidualCalc</text>
</a>
</g>
</g>
<!-- Node2 -->
<g id="Node000002" class="node">
<title>Node2</title>
<g id="a_Node000002"><a xlink:href="mlp_8c.html#a95587eada79194109e216fe2d1536aa5" target="_top" xlink:title=" ">
<polygon fill="white" stroke="#666666" points="295,-206 224,-206 224,-187 295,-187 295,-206"/>
<text text-anchor="middle" x="259.5" y="-194" font-family="Helvetica,sans-Serif" font-size="10.00">compute_R</text>
</a>
</g>
</g>
<!-- Node1&#45;&gt;Node2 -->
<g id="edge1_Node000001_Node000002" class="edge">
<title>Node1&#45;&gt;Node2</title>
<g id="a_edge1_Node000001_Node000002"><a xlink:title=" ">
<path fill="none" stroke="#63b8ff" d="M375.69,-120.16C361.95,-137.27 339.04,-162.86 314,-178.5 308.26,-182.08 301.73,-185.04 295.25,-187.45"/>
<polygon fill="#63b8ff" stroke="#63b8ff" points="378.6,-122.12 382,-112.09 373.08,-117.81 378.6,-122.12"/>
</a>
</g>
</g>
<!-- Node4 -->
<g id="Node000004" class="node">
<title>Node4</title>
<g id="a_Node000004"><a xlink:href="inverse_8c.html#a5a46d0c408c2a4905101ca00ed320825" target="_top" xlink:title=" ">
<polygon fill="white" stroke="#666666" points="300,-169 219,-169 219,-150 300,-150 300,-169"/>
<text text-anchor="middle" x="259.5" y="-157" font-family="Helvetica,sans-Serif" font-size="10.00">FungJacobian</text>
</a>
</g>
</g>
<!-- Node1&#45;&gt;Node4 -->
<g id="edge3_Node000001_Node000004" class="edge">
<title>Node1&#45;&gt;Node4</title>
<g id="a_edge3_Node000001_Node000004"><a xlink:title=" ">
<path fill="none" stroke="#63b8ff" d="M358.3,-116.12C334.79,-126.55 302.95,-140.67 282.08,-149.93"/>
<polygon fill="#63b8ff" stroke="#63b8ff" points="359.77,-119.29 367.49,-112.04 356.93,-112.9 359.77,-119.29"/>
</a>
</g>
</g>
<!-- Node5 -->
<g id="Node000005" class="node">
<title>Node5</title>
<g id="a_Node000005"><a xlink:href="inverse_8c.html#a63c0a7ac76584f0dab82764698b5d878" target="_top" xlink:title=" ">
<polygon fill="white" stroke="#666666" points="154,-93 92,-93 92,-74 154,-74 154,-93"/>
<text text-anchor="middle" x="123" y="-81" font-family="Helvetica,sans-Serif" font-size="10.00">InvSolver</text>
</a>
</g>
</g>
<!-- Node1&#45;&gt;Node5 -->
<g id="edge10_Node000001_Node000005" class="edge">
<title>Node1&#45;&gt;Node5</title>
<g id="a_edge10_Node000001_Node000005"><a xlink:title=" ">
<path fill="none" stroke="#63b8ff" d="M339.66,-105.57C302.51,-107.14 250.39,-107.75 205,-102.5 187.93,-100.52 169.22,-96.28 154.09,-92.3"/>
<polygon fill="#63b8ff" stroke="#63b8ff" points="339.9,-109.06 349.73,-105.1 339.57,-102.07 339.9,-109.06"/>
</a>
</g>
</g>
<!-- Node7 -->
<g id="Node000007" class="node">
<title>Node7</title>
<g id="a_Node000007"><a xlink:href="inverse_8c.html#a6dcb60291ae68ad8fa0ccea39658279a" target="_top" xlink:title=" ">
<polygon fill="white" stroke="#666666" points="308.5,-93 210.5,-93 210.5,-74 308.5,-74 308.5,-93"/>
<text text-anchor="middle" x="259.5" y="-81" font-family="Helvetica,sans-Serif" font-size="10.00">FungUniJacobian</text>
</a>
</g>
</g>
<!-- Node1&#45;&gt;Node7 -->
<g id="edge6_Node000001_Node000007" class="edge">
<title>Node1&#45;&gt;Node7</title>
<g id="a_edge6_Node000001_Node000007"><a xlink:title=" ">
<path fill="none" stroke="#63b8ff" d="M339.74,-95.22C329.52,-93.71 318.76,-92.11 308.58,-90.61"/>
<polygon fill="#63b8ff" stroke="#63b8ff" points="339.34,-98.7 349.75,-96.7 340.37,-91.77 339.34,-98.7"/>
</a>
</g>
</g>
<!-- Node8 -->
<g id="Node000008" class="node">
<title>Node8</title>
<g id="a_Node000008"><a xlink:href="inverse_8c.html#ad779d411aa186efcdfb8e192c52d04b0" target="_top" xlink:title=" ">
<polygon fill="white" stroke="#666666" points="314,-56 205,-56 205,-37 314,-37 314,-56"/>
<text text-anchor="middle" x="259.5" y="-44" font-family="Helvetica,sans-Serif" font-size="10.00">grad_R_wrt_E_field</text>
</a>
</g>
</g>
<!-- Node1&#45;&gt;Node8 -->
<g id="edge8_Node000001_Node000008" class="edge">
<title>Node1&#45;&gt;Node8</title>
<g id="a_edge8_Node000001_Node000008"><a xlink:title=" ">
<path fill="none" stroke="#63b8ff" d="M361.95,-88.2C347.84,-80.99 330.19,-72.34 314,-65.5 306.1,-62.16 297.39,-58.9 289.34,-56.04"/>
<polygon fill="#63b8ff" stroke="#63b8ff" points="360.6,-91.44 371.09,-92.92 363.81,-85.22 360.6,-91.44"/>
</a>
</g>
</g>
<!-- Node9 -->
<g id="Node000009" class="node">
<title>Node9</title>
<g id="a_Node000009"><a xlink:href="inverse_8c.html#a9c6b1db7cc8e3f7771140e7920429ab3" target="_top" xlink:title=" ">
<polygon fill="white" stroke="#666666" points="288.5,-19 230.5,-19 230.5,0 288.5,0 288.5,-19"/>
<text text-anchor="middle" x="259.5" y="-7" font-family="Helvetica,sans-Serif" font-size="10.00">Jacobian</text>
</a>
</g>
</g>
<!-- Node1&#45;&gt;Node9 -->
<g id="edge11_Node000001_Node000009" class="edge">
<title>Node1&#45;&gt;Node9</title>
<g id="a_edge11_Node000001_Node000009"><a xlink:title=" ">
<path fill="none" stroke="#63b8ff" d="M375.42,-84.81C361.61,-67.93 338.79,-42.87 314,-27.5 306.25,-22.7 297.08,-19.01 288.53,-16.26"/>
<polygon fill="#63b8ff" stroke="#63b8ff" points="372.81,-87.15 381.77,-92.79 378.28,-82.79 372.81,-87.15"/>
</a>
</g>
</g>
<!-- Node3 -->
<g id="Node000003" class="node">
<title>Node3</title>
<g id="a_Node000003"><a xlink:href="mlp_8c.html#a2aeef94f6b174527c5b7983c25229818" target="_top" xlink:title=" ">
<polygon fill="white" stroke="#666666" points="169,-206 77,-206 77,-187 169,-187 169,-206"/>
<text text-anchor="middle" x="123" y="-194" font-family="Helvetica,sans-Serif" font-size="10.00">backward_pass</text>
</a>
</g>
</g>
<!-- Node2&#45;&gt;Node3 -->
<g id="edge2_Node000002_Node000003" class="edge">
<title>Node2&#45;&gt;Node3</title>
<g id="a_edge2_Node000002_Node000003"><a xlink:title=" ">
<path fill="none" stroke="#63b8ff" d="M213.74,-196.5C199.41,-196.5 183.54,-196.5 169.18,-196.5"/>
<polygon fill="#63b8ff" stroke="#63b8ff" points="213.86,-200 223.86,-196.5 213.86,-193 213.86,-200"/>
</a>
</g>
</g>
<!-- Node4&#45;&gt;Node5 -->
<g id="edge4_Node000004_Node000005" class="edge">
<title>Node4&#45;&gt;Node5</title>
<g id="a_edge4_Node000004_Node000005"><a xlink:title=" ">
<path fill="none" stroke="#63b8ff" d="M225.94,-145.83C218.94,-142.63 211.65,-139.1 205,-135.5 180.46,-122.21 153.47,-104.13 137.66,-93.17"/>
<polygon fill="#63b8ff" stroke="#63b8ff" points="224.67,-149.09 235.23,-149.96 227.51,-142.7 224.67,-149.09"/>
</a>
</g>
</g>
<!-- Node6 -->
<g id="Node000006" class="node">
<title>Node6</title>
<g id="a_Node000006"><a xlink:href="main_8c.html#a3c04138a5bfe5d72780bb7e82a18e627" target="_top" xlink:title=" ">
<polygon fill="white" stroke="#666666" points="41,-93 0,-93 0,-74 41,-74 41,-93"/>
<text text-anchor="middle" x="20.5" y="-81" font-family="Helvetica,sans-Serif" font-size="10.00">main</text>
</a>
</g>
</g>
<!-- Node5&#45;&gt;Node6 -->
<g id="edge5_Node000005_Node000006" class="edge">
<title>Node5&#45;&gt;Node6</title>
<g id="a_edge5_Node000005_Node000006"><a xlink:title=" ">
<path fill="none" stroke="#63b8ff" d="M81.49,-83.5C67.59,-83.5 52.65,-83.5 41.16,-83.5"/>
<polygon fill="#63b8ff" stroke="#63b8ff" points="81.85,-87 91.85,-83.5 81.85,-80 81.85,-87"/>
</a>
</g>
</g>
<!-- Node7&#45;&gt;Node5 -->
<g id="edge7_Node000007_Node000005" class="edge">
<title>Node7&#45;&gt;Node5</title>
<g id="a_edge7_Node000007_Node000005"><a xlink:title=" ">
<path fill="none" stroke="#63b8ff" d="M200.08,-83.5C184.28,-83.5 167.82,-83.5 154.27,-83.5"/>
<polygon fill="#63b8ff" stroke="#63b8ff" points="200.32,-87 210.32,-83.5 200.32,-80 200.32,-87"/>
</a>
</g>
</g>
<!-- Node8&#45;&gt;Node5 -->
<g id="edge9_Node000008_Node000005" class="edge">
<title>Node8&#45;&gt;Node5</title>
<g id="a_edge9_Node000008_Node000005"><a xlink:title=" ">
<path fill="none" stroke="#63b8ff" d="M214.22,-58.68C194.62,-64.07 172.06,-70.28 154.4,-75.14"/>
<polygon fill="#63b8ff" stroke="#63b8ff" points="215.15,-62.06 223.86,-56.03 213.29,-55.31 215.15,-62.06"/>
</a>
</g>
</g>
<!-- Node9&#45;&gt;Node5 -->
<g id="edge12_Node000009_Node000005" class="edge">
<title>Node9&#45;&gt;Node5</title>
<g id="a_edge12_Node000009_Node000005"><a xlink:title=" ">
<path fill="none" stroke="#63b8ff" d="M220.79,-20.7C215.39,-22.73 209.98,-25 205,-27.5 178.56,-40.76 150.86,-61.67 135.68,-73.84"/>
<polygon fill="#63b8ff" stroke="#63b8ff" points="222.14,-23.93 230.41,-17.31 219.81,-17.33 222.14,-23.93"/>
</a>
</g>
</g>
</g>
</svg>
</svg>

<style type='text/css'>
<![CDATA[
[data-mouse-over-selected='false'] { opacity: 0.7; }
[data-mouse-over-selected='true']  { opacity: 1.0; }
]]>
</style>
<script type="application/ecmascript"><![CDATA[
document.addEventListener('DOMContentLoaded', (event) => {
  highlightEdges();
  highlightAdjacentNodes();
});
]]></script>
</svg>
