<?xml version="1.0" encoding="UTF-8" standalone="no"?>
<!DOCTYPE svg PUBLIC "-//W3C//DTD SVG 1.1//EN"
 "http://www.w3.org/Graphics/SVG/1.1/DTD/svg11.dtd">
<!-- Generated by graphviz version 2.43.0 (0)
 -->
<!-- Title: Contact Pages: 1 -->
<!--zoomable 550 -->

<svg id="main" version="1.1" xmlns="http://www.w3.org/2000/svg" xmlns:xlink="http://www.w3.org/1999/xlink" xml:space="preserve" onload="init(evt)">
<style type="text/css"><![CDATA[
.node, .edge {opacity: 0.7;}
.node.selected, .edge.selected {opacity: 1;}
.edge:hover path { stroke: red; }
.edge:hover polygon { stroke: red; fill: red; }
]]></style>

<defs>
  <circle id="rim" cx="0" cy="0" r="7"/>
  <circle id="rim2" cx="0" cy="0" r="3.5"/>
  <g id="zoomPlus">
    <use xlink:href="#rim" fill="#404040"><set attributeName="fill" to="#808080" begin="zoomplus.mouseover" end="zoomplus.mouseout"/></use>
    <path d="M-4,0h8M0,-4v8" fill="none" stroke="white" stroke-width="1.5" pointer-events="none"/>
  </g>
  <g id="zoomMin">
    <use xlink:href="#rim" fill="#404040"><set attributeName="fill" to="#808080" begin="zoomminus.mouseover" end="zoomminus.mouseout"/></use>
    <path d="M-4,0h8" fill="none" stroke="white" stroke-width="1.5" pointer-events="none"/>
  </g>
  <g id="arrowUp" transform="translate(30 24)">
    <use xlink:href="#rim"/>
    <path pointer-events="none" fill="none" stroke="white" stroke-width="1.5" d="M0,-3.0v7 M-2.5,-0.5L0,-3.0L2.5,-0.5"/>
  </g>
  <g id="arrowRight" transform="rotate(90) translate(36 -43)">
    <use xlink:href="#rim"/>
    <path pointer-events="none" fill="none" stroke="white" stroke-width="1.5" d="M0,-3.0v7 M-2.5,-0.5L0,-3.0L2.5,-0.5"/>
  </g>
  <g id="arrowDown" transform="rotate(180) translate(-30 -48)">
    <use xlink:href="#rim"/>
    <path pointer-events="none" fill="none" stroke="white" stroke-width="1.5" d="M0,-3.0v7 M-2.5,-0.5L0,-3.0L2.5,-0.5"/>
  </g>
  <g id="arrowLeft" transform="rotate(270) translate(-36 17)">
    <use xlink:href="#rim"/>
    <path pointer-events="none" fill="none" stroke="white" stroke-width="1.5" d="M0,-3.0v7 M-2.5,-0.5L0,-3.0L2.5,-0.5"/>
  </g>
  <g id="resetDef">
    <use xlink:href="#rim2" fill="#404040"><set attributeName="fill" to="#808080" begin="reset.mouseover" end="reset.mouseout"/></use>
  </g>
</defs>
<script type="application/ecmascript">
var viewWidth = 547;
var viewHeight = 550;
var sectionId = 'dynsection-33';
</script>
<script type="application/ecmascript" xlink:href="svg.min.js"/>
<svg id="graph" class="graph">
<g id="viewport">
<title>Contact</title>
<!-- Node1 -->
<g id="Node000001" class="node">
<title>Node1</title>
<g id="a_Node000001"><a xlink:title=" ">
<polygon fill="#999999" stroke="#666666" points="54,-262.59 0,-262.59 0,-243.59 54,-243.59 54,-262.59"/>
<text text-anchor="middle" x="27" y="-250.59" font-family="Helvetica,sans-Serif" font-size="10.00">Contact</text>
</a>
</g>
</g>
<!-- Node2 -->
<g id="Node000002" class="node">
<title>Node2</title>
<g id="a_Node000002"><a xlink:href="main_8c.html#a59ccabe25c63661e6e66b44209b0f162" target="_top" xlink:title=" ">
<polygon fill="white" stroke="#666666" points="150,-262.59 90,-262.59 90,-243.59 150,-243.59 150,-262.59"/>
<text text-anchor="middle" x="120" y="-250.59" font-family="Helvetica,sans-Serif" font-size="10.00">FInternal</text>
</a>
</g>
</g>
<!-- Node1&#45;&gt;Node2 -->
<g id="edge1_Node000001_Node000002" class="edge">
<title>Node1&#45;&gt;Node2</title>
<g id="a_edge1_Node000001_Node000002"><a xlink:title=" ">
<path fill="none" stroke="#63b8ff" d="M54.32,-253.09C62.23,-253.09 71.09,-253.09 79.65,-253.09"/>
<polygon fill="#63b8ff" stroke="#63b8ff" points="79.87,-256.59 89.87,-253.09 79.87,-249.59 79.87,-256.59"/>
</a>
</g>
</g>
<!-- Node3 -->
<g id="Node000003" class="node">
<title>Node3</title>
<g id="a_Node000003"><a xlink:href="bending_8c.html#a2b66770553fce4724cfb65b0f79e83b1" target="_top" xlink:title=" ">
<polygon fill="white" stroke="#666666" points="264.5,-262.59 202.5,-262.59 202.5,-243.59 264.5,-243.59 264.5,-262.59"/>
<text text-anchor="middle" x="233.5" y="-250.59" font-family="Helvetica,sans-Serif" font-size="10.00">Fbending</text>
</a>
</g>
</g>
<!-- Node2&#45;&gt;Node3 -->
<g id="edge2_Node000002_Node000003" class="edge">
<title>Node2&#45;&gt;Node3</title>
<g id="a_edge2_Node000002_Node000003"><a xlink:title=" ">
<path fill="none" stroke="#63b8ff" d="M150,-253.09C162.86,-253.09 178.2,-253.09 192.15,-253.09"/>
<polygon fill="#63b8ff" stroke="#63b8ff" points="192.47,-256.59 202.47,-253.09 192.47,-249.59 192.47,-256.59"/>
</a>
</g>
</g>
<!-- Node18 -->
<g id="Node000018" class="node">
<title>Node18</title>
<g id="a_Node000018"><a xlink:href="membrane_8c.html#a9fee56a81a4f404db4630a996f38013c" target="_top" xlink:title=" ">
<polygon fill="white" stroke="#666666" points="271.5,-394.59 195.5,-394.59 195.5,-375.59 271.5,-375.59 271.5,-394.59"/>
<text text-anchor="middle" x="233.5" y="-382.59" font-family="Helvetica,sans-Serif" font-size="10.00">Fmembrane</text>
</a>
</g>
</g>
<!-- Node2&#45;&gt;Node18 -->
<g id="edge41_Node000002_Node000018" class="edge">
<title>Node2&#45;&gt;Node18</title>
<g id="a_edge41_Node000002_Node000018"><a xlink:title=" ">
<path fill="none" stroke="#63b8ff" d="M129.38,-263.01C148.2,-285.29 194.01,-339.52 217.73,-367.6"/>
<polygon fill="#63b8ff" stroke="#63b8ff" points="215.2,-370.03 224.33,-375.41 220.55,-365.51 215.2,-370.03"/>
</a>
</g>
</g>
<!-- Node19 -->
<g id="Node000019" class="node">
<title>Node19</title>
<g id="a_Node000019"><a xlink:href="bcs_8c.html#a679ccb265fdae6027920ac949da40b91" target="_top" xlink:title=" ">
<polygon fill="white" stroke="#666666" points="281,-225.59 186,-225.59 186,-206.59 281,-206.59 281,-225.59"/>
<text text-anchor="middle" x="233.5" y="-213.59" font-family="Helvetica,sans-Serif" font-size="10.00">ModifyFbending</text>
</a>
</g>
</g>
<!-- Node2&#45;&gt;Node19 -->
<g id="edge47_Node000002_Node000019" class="edge">
<title>Node2&#45;&gt;Node19</title>
<g id="a_edge47_Node000002_Node000019"><a xlink:title=" ">
<path fill="none" stroke="#63b8ff" d="M149.71,-243.56C163.14,-239.11 179.31,-233.74 193.8,-228.93"/>
<polygon fill="#63b8ff" stroke="#63b8ff" points="195.11,-232.18 203.5,-225.71 192.9,-225.54 195.11,-232.18"/>
</a>
</g>
</g>
<!-- Node4 -->
<g id="Node000004" class="node">
<title>Node4</title>
<g id="a_Node000004"><a xlink:href="math_8c.html#a7ef9263b0a3a10c2cd00bb4dc0059d70" target="_top" xlink:title=" ">
<polygon fill="white" stroke="#666666" points="410,-55.59 360,-55.59 360,-36.59 410,-36.59 410,-55.59"/>
<text text-anchor="middle" x="385" y="-43.59" font-family="Helvetica,sans-Serif" font-size="10.00">AMULT</text>
</a>
</g>
</g>
<!-- Node3&#45;&gt;Node4 -->
<g id="edge3_Node000003_Node000004" class="edge">
<title>Node3&#45;&gt;Node4</title>
<g id="a_edge3_Node000003_Node000004"><a xlink:title=" ">
<path fill="none" stroke="#63b8ff" d="M264.79,-246.32C270.88,-243.7 276.72,-240.08 281,-235.09 329.82,-178.07 267.46,-126.48 317,-70.09 325.47,-60.44 338.11,-54.67 350.13,-51.22"/>
<polygon fill="#63b8ff" stroke="#63b8ff" points="351.08,-54.59 359.97,-48.83 349.43,-47.79 351.08,-54.59"/>
</a>
</g>
</g>
<!-- Node5 -->
<g id="Node000005" class="node">
<title>Node5</title>
<g id="a_Node000005"><a xlink:href="material_8c.html#af81ecf5fbfd52082e0abd3184f12c14f" target="_top" xlink:title=" ">
<polygon fill="white" stroke="#666666" points="438,-206.59 332,-206.59 332,-187.59 438,-187.59 438,-206.59"/>
<text text-anchor="middle" x="385" y="-194.59" font-family="Helvetica,sans-Serif" font-size="10.00">BendingNonLinear</text>
</a>
</g>
</g>
<!-- Node3&#45;&gt;Node5 -->
<g id="edge4_Node000003_Node000005" class="edge">
<title>Node3&#45;&gt;Node5</title>
<g id="a_edge4_Node000003_Node000005"><a xlink:title=" ">
<path fill="none" stroke="#63b8ff" d="M260.79,-243.52C267.45,-240.93 274.54,-238.03 281,-235.09 297.46,-227.59 300.21,-222.81 317,-216.09 322.82,-213.76 329.03,-211.59 335.23,-209.62"/>
<polygon fill="#63b8ff" stroke="#63b8ff" points="336.36,-212.93 344.92,-206.68 334.33,-206.23 336.36,-212.93"/>
</a>
</g>
</g>
<!-- Node6 -->
<g id="Node000006" class="node">
<title>Node6</title>
<g id="a_Node000006"><a xlink:href="math_8c.html#a9d60990d26296194c921d537ea26f3c7" target="_top" xlink:title=" ">
<polygon fill="white" stroke="#666666" points="539,-243.59 489,-243.59 489,-224.59 539,-224.59 539,-243.59"/>
<text text-anchor="middle" x="514" y="-231.59" font-family="Helvetica,sans-Serif" font-size="10.00">CROSS</text>
</a>
</g>
</g>
<!-- Node3&#45;&gt;Node6 -->
<g id="edge15_Node000003_Node000006" class="edge">
<title>Node3&#45;&gt;Node6</title>
<g id="a_edge15_Node000003_Node000006"><a xlink:title=" ">
<path fill="none" stroke="#63b8ff" d="M264.54,-246.1C270.65,-243.49 276.55,-239.94 281,-235.09 319.78,-192.79 271.11,-145.55 317,-111.09 365.33,-74.79 403.81,-75.95 453,-111.09 493.14,-139.76 459.98,-176.19 489,-216.09 489.28,-216.47 489.56,-216.84 489.86,-217.21"/>
<polygon fill="#63b8ff" stroke="#63b8ff" points="487.45,-219.76 497.05,-224.26 492.35,-214.76 487.45,-219.76"/>
</a>
</g>
</g>
<!-- Node7 -->
<g id="Node000007" class="node">
<title>Node7</title>
<g id="a_Node000007"><a xlink:href="math_8c.html#a870a70f4845a041458d9bdb0dd7aabd3" target="_top" xlink:title=" ">
<polygon fill="white" stroke="#666666" points="533,-317.59 495,-317.59 495,-298.59 533,-298.59 533,-317.59"/>
<text text-anchor="middle" x="514" y="-305.59" font-family="Helvetica,sans-Serif" font-size="10.00">DOT</text>
</a>
</g>
</g>
<!-- Node3&#45;&gt;Node7 -->
<g id="edge16_Node000003_Node000007" class="edge">
<title>Node3&#45;&gt;Node7</title>
<g id="a_edge16_Node000003_Node000007"><a xlink:title=" ">
<path fill="none" stroke="#63b8ff" d="M264.7,-257.66C307.01,-264.24 386.23,-277.25 453,-292.09 463.54,-294.43 475.03,-297.39 485.1,-300.12"/>
<polygon fill="#63b8ff" stroke="#63b8ff" points="484.41,-303.57 494.98,-302.86 486.28,-296.82 484.41,-303.57"/>
</a>
</g>
</g>
<!-- Node8 -->
<g id="Node000008" class="node">
<title>Node8</title>
<g id="a_Node000008"><a xlink:href="math_8c.html#a3f73e4cd9eab76eeee084eabf2b98ec9" target="_top" xlink:title=" ">
<polygon fill="white" stroke="#666666" points="531,-354.59 497,-354.59 497,-335.59 531,-335.59 531,-354.59"/>
<text text-anchor="middle" x="514" y="-342.59" font-family="Helvetica,sans-Serif" font-size="10.00">INV</text>
</a>
</g>
</g>
<!-- Node3&#45;&gt;Node8 -->
<g id="edge17_Node000003_Node000008" class="edge">
<title>Node3&#45;&gt;Node8</title>
<g id="a_edge17_Node000003_Node000008"><a xlink:title=" ">
<path fill="none" stroke="#63b8ff" d="M237.99,-262.74C246.92,-285.78 273.04,-343.75 317,-366.09 372.71,-394.39 448.67,-371.63 487.64,-356.26"/>
<polygon fill="#63b8ff" stroke="#63b8ff" points="489.02,-359.48 496.94,-352.45 486.36,-353 489.02,-359.48"/>
</a>
</g>
</g>
<!-- Node9 -->
<g id="Node000009" class="node">
<title>Node9</title>
<g id="a_Node000009"><a xlink:href="math_8c.html#a9d08a9d2fd8e8932e92b8ab054b19269" target="_top" xlink:title=" ">
<polygon fill="white" stroke="#666666" points="539,-391.59 489,-391.59 489,-372.59 539,-372.59 539,-391.59"/>
<text text-anchor="middle" x="514" y="-379.59" font-family="Helvetica,sans-Serif" font-size="10.00">MINUS</text>
</a>
</g>
</g>
<!-- Node3&#45;&gt;Node9 -->
<g id="edge25_Node000003_Node000009" class="edge">
<title>Node3&#45;&gt;Node9</title>
<g id="a_edge25_Node000003_Node000009"><a xlink:title=" ">
<path fill="none" stroke="#63b8ff" d="M237.01,-262.83C244.24,-288.66 267.85,-358.74 317,-386.09 367.72,-414.31 437.85,-403.15 479.02,-392.56"/>
<polygon fill="#63b8ff" stroke="#63b8ff" points="480.09,-395.9 488.83,-389.9 478.26,-389.14 480.09,-395.9"/>
</a>
</g>
</g>
<!-- Node11 -->
<g id="Node000011" class="node">
<title>Node11</title>
<g id="a_Node000011"><a xlink:href="math_8c.html#aa52f6593cf3e5453c8c6c94343d3fb37" target="_top" xlink:title=" ">
<polygon fill="white" stroke="#666666" points="533,-169.59 495,-169.59 495,-150.59 533,-150.59 533,-169.59"/>
<text text-anchor="middle" x="514" y="-157.59" font-family="Helvetica,sans-Serif" font-size="10.00">SIZE</text>
</a>
</g>
</g>
<!-- Node3&#45;&gt;Node11 -->
<g id="edge27_Node000003_Node000011" class="edge">
<title>Node3&#45;&gt;Node11</title>
<g id="a_edge27_Node000003_Node000011"><a xlink:title=" ">
<path fill="none" stroke="#63b8ff" d="M264.95,-246.45C271.04,-243.83 276.83,-240.18 281,-235.09 340.46,-162.52 245.23,-87.51 317,-27.09 363.24,11.84 402.23,5.71 453,-27.09 492.06,-52.31 505.95,-109.74 510.69,-140.22"/>
<polygon fill="#63b8ff" stroke="#63b8ff" points="507.27,-141.03 512.09,-150.46 514.2,-140.08 507.27,-141.03"/>
</a>
</g>
</g>
<!-- Node12 -->
<g id="Node000012" class="node">
<title>Node12</title>
<g id="a_Node000012"><a xlink:href="math_8c.html#ac616709995f2ae60c4308ffa328337d7" target="_top" xlink:title=" ">
<polygon fill="white" stroke="#666666" points="534.5,-280.59 493.5,-280.59 493.5,-261.59 534.5,-261.59 534.5,-280.59"/>
<text text-anchor="middle" x="514" y="-268.59" font-family="Helvetica,sans-Serif" font-size="10.00">UNIT</text>
</a>
</g>
</g>
<!-- Node3&#45;&gt;Node12 -->
<g id="edge40_Node000003_Node000012" class="edge">
<title>Node3&#45;&gt;Node12</title>
<g id="a_edge40_Node000003_Node000012"><a xlink:title=" ">
<path fill="none" stroke="#63b8ff" d="M264.73,-245.61C270.69,-243.04 276.48,-239.62 281,-235.09 312.58,-203.4 280.14,-166.44 317,-141.09 366.8,-106.83 404.16,-105.48 453,-141.09 495.25,-171.89 458.66,-210.51 489,-253.09 489.27,-253.47 489.55,-253.85 489.85,-254.22"/>
<polygon fill="#63b8ff" stroke="#63b8ff" points="487.43,-256.75 497,-261.29 492.35,-251.77 487.43,-256.75"/>
</a>
</g>
</g>
<!-- Node13 -->
<g id="Node000013" class="node">
<title>Node13</title>
<g id="a_Node000013"><a xlink:href="material_8c.html#a3243950933f3559f19edcb5421360526" target="_top" xlink:title=" ">
<polygon fill="white" stroke="#666666" points="453,-508.59 317,-508.59 317,-489.59 453,-489.59 453,-508.59"/>
<text text-anchor="middle" x="385" y="-496.59" font-family="Helvetica,sans-Serif" font-size="10.00">CalcCurvStressStrainxyz</text>
</a>
</g>
</g>
<!-- Node3&#45;&gt;Node13 -->
<g id="edge12_Node000003_Node000013" class="edge">
<title>Node3&#45;&gt;Node13</title>
<g id="a_edge12_Node000003_Node000013"><a xlink:title=" ">
<path fill="none" stroke="#63b8ff" d="M238.7,-262.76C247.12,-282.31 266.53,-328 281,-367.09 298.56,-414.54 281.62,-438.91 317,-475.09 320.89,-479.06 325.48,-482.38 330.41,-485.15"/>
<polygon fill="#63b8ff" stroke="#63b8ff" points="329.03,-488.38 339.56,-489.57 332.07,-482.07 329.03,-488.38"/>
</a>
</g>
</g>
<!-- Node14 -->
<g id="Node000014" class="node">
<title>Node14</title>
<g id="a_Node000014"><a xlink:href="material_8c.html#aa93862cca1fe83c736219df7d4a91374" target="_top" xlink:title=" ">
<polygon fill="white" stroke="#666666" points="444.5,-243.59 325.5,-243.59 325.5,-224.59 444.5,-224.59 444.5,-243.59"/>
<text text-anchor="middle" x="385" y="-231.59" font-family="Helvetica,sans-Serif" font-size="10.00">MembraneNonLinear</text>
</a>
</g>
</g>
<!-- Node3&#45;&gt;Node14 -->
<g id="edge18_Node000003_Node000014" class="edge">
<title>Node3&#45;&gt;Node14</title>
<g id="a_edge18_Node000003_Node000014"><a xlink:title=" ">
<path fill="none" stroke="#63b8ff" d="M264.75,-249.24C279.3,-247.39 297.39,-245.09 315.04,-242.85"/>
<polygon fill="#63b8ff" stroke="#63b8ff" points="315.88,-246.27 325.36,-241.54 314.99,-239.33 315.88,-246.27"/>
</a>
</g>
</g>
<!-- Node15 -->
<g id="Node000015" class="node">
<title>Node15</title>
<g id="a_Node000015"><a xlink:href="math_8c.html#ae18926821a703a2c5b281bd890b7e6a0" target="_top" xlink:title=" ">
<polygon fill="white" stroke="#666666" points="405.5,-169.59 364.5,-169.59 364.5,-150.59 405.5,-150.59 405.5,-169.59"/>
<text text-anchor="middle" x="385" y="-157.59" font-family="Helvetica,sans-Serif" font-size="10.00">PLUS</text>
</a>
</g>
</g>
<!-- Node3&#45;&gt;Node15 -->
<g id="edge26_Node000003_Node000015" class="edge">
<title>Node3&#45;&gt;Node15</title>
<g id="a_edge26_Node000003_Node000015"><a xlink:title=" ">
<path fill="none" stroke="#63b8ff" d="M264.55,-244.66C270.38,-242.18 276.17,-239.03 281,-235.09 303.92,-216.38 293.23,-196.71 317,-179.09 327.85,-171.04 341.99,-166.4 354.48,-163.72"/>
<polygon fill="#63b8ff" stroke="#63b8ff" points="355.27,-167.14 364.48,-161.91 354.02,-160.25 355.27,-167.14"/>
</a>
</g>
</g>
<!-- Node16 -->
<g id="Node000016" class="node">
<title>Node16</title>
<g id="a_Node000016"><a xlink:href="material_8c.html#a431e1e9b5ceabfa4edc2920b70296b35" target="_top" xlink:title=" ">
<polygon fill="white" stroke="#666666" points="423.5,-356.59 346.5,-356.59 346.5,-337.59 423.5,-337.59 423.5,-356.59"/>
<text text-anchor="middle" x="385" y="-344.59" font-family="Helvetica,sans-Serif" font-size="10.00">StressLinear</text>
</a>
</g>
</g>
<!-- Node3&#45;&gt;Node16 -->
<g id="edge28_Node000003_Node000016" class="edge">
<title>Node3&#45;&gt;Node16</title>
<g id="a_edge28_Node000003_Node000016"><a xlink:title=" ">
<path fill="none" stroke="#63b8ff" d="M242.3,-262.85C255.78,-279.06 285.1,-311.52 317,-329.09 323.03,-332.41 329.7,-335.14 336.43,-337.38"/>
<polygon fill="#63b8ff" stroke="#63b8ff" points="335.67,-340.81 346.26,-340.33 337.69,-334.11 335.67,-340.81"/>
</a>
</g>
</g>
<!-- Node17 -->
<g id="Node000017" class="node">
<title>Node17</title>
<g id="a_Node000017"><a xlink:href="material_8c.html#aad0d0c11a159f8021feb99ddee475d31" target="_top" xlink:title=" ">
<polygon fill="white" stroke="#666666" points="442,-319.59 328,-319.59 328,-300.59 442,-300.59 442,-319.59"/>
<text text-anchor="middle" x="385" y="-307.59" font-family="Helvetica,sans-Serif" font-size="10.00">StressManufactured</text>
</a>
</g>
</g>
<!-- Node3&#45;&gt;Node17 -->
<g id="edge34_Node000003_Node000017" class="edge">
<title>Node3&#45;&gt;Node17</title>
<g id="a_edge34_Node000003_Node000017"><a xlink:title=" ">
<path fill="none" stroke="#63b8ff" d="M257.88,-262.7C274.35,-269.41 296.95,-278.49 317,-286.09 326.71,-289.77 337.26,-293.61 347.05,-297.12"/>
<polygon fill="#63b8ff" stroke="#63b8ff" points="345.94,-300.44 356.53,-300.5 348.29,-293.85 345.94,-300.44"/>
</a>
</g>
</g>
<!-- Node5&#45;&gt;Node6 -->
<g id="edge5_Node000005_Node000006" class="edge">
<title>Node5&#45;&gt;Node6</title>
<g id="a_edge5_Node000005_Node000006"><a xlink:title=" ">
<path fill="none" stroke="#63b8ff" d="M420.11,-206.65C430.67,-209.64 442.32,-212.97 453,-216.09 461.48,-218.56 470.62,-221.28 479.14,-223.83"/>
<polygon fill="#63b8ff" stroke="#63b8ff" points="478.21,-227.21 488.79,-226.73 480.23,-220.5 478.21,-227.21"/>
</a>
</g>
</g>
<!-- Node5&#45;&gt;Node7 -->
<g id="edge6_Node000005_Node000007" class="edge">
<title>Node5&#45;&gt;Node7</title>
<g id="a_edge6_Node000005_Node000007"><a xlink:title=" ">
<path fill="none" stroke="#63b8ff" d="M437.33,-206.66C442.99,-209.12 448.37,-212.21 453,-216.09 481.04,-239.57 465.72,-261.88 489,-290.09 489.39,-290.56 489.8,-291.04 490.22,-291.5"/>
<polygon fill="#63b8ff" stroke="#63b8ff" points="488.08,-294.28 497.83,-298.43 492.8,-289.11 488.08,-294.28"/>
</a>
</g>
</g>
<!-- Node5&#45;&gt;Node8 -->
<g id="edge7_Node000005_Node000008" class="edge">
<title>Node5&#45;&gt;Node8</title>
<g id="a_edge7_Node000005_Node000008"><a xlink:title=" ">
<path fill="none" stroke="#63b8ff" d="M438.21,-206.2C443.65,-208.74 448.73,-211.98 453,-216.09 490.35,-252.07 458.85,-284.89 489,-327.09 489.27,-327.47 489.56,-327.85 489.85,-328.22"/>
<polygon fill="#63b8ff" stroke="#63b8ff" points="487.43,-330.75 497.01,-335.29 492.35,-325.77 487.43,-330.75"/>
</a>
</g>
</g>
<!-- Node5&#45;&gt;Node9 -->
<g id="edge8_Node000005_Node000009" class="edge">
<title>Node5&#45;&gt;Node9</title>
<g id="a_edge8_Node000005_Node000009"><a xlink:title=" ">
<path fill="none" stroke="#63b8ff" d="M438.19,-205.74C443.7,-208.35 448.81,-211.73 453,-216.09 499.96,-264.85 451.73,-307.57 489,-364.09 489.26,-364.48 489.53,-364.86 489.81,-365.25"/>
<polygon fill="#63b8ff" stroke="#63b8ff" points="487.33,-367.72 496.83,-372.41 492.33,-362.82 487.33,-367.72"/>
</a>
</g>
</g>
<!-- Node10 -->
<g id="Node000010" class="node">
<title>Node10</title>
<g id="a_Node000010"><a xlink:href="math_8c.html#ae6a53927765c25c58815e47fea096a67" target="_top" xlink:title=" ">
<polygon fill="white" stroke="#666666" points="534.5,-206.59 493.5,-206.59 493.5,-187.59 534.5,-187.59 534.5,-206.59"/>
<text text-anchor="middle" x="514" y="-194.59" font-family="Helvetica,sans-Serif" font-size="10.00">SIGN</text>
</a>
</g>
</g>
<!-- Node5&#45;&gt;Node10 -->
<g id="edge9_Node000005_Node000010" class="edge">
<title>Node5&#45;&gt;Node10</title>
<g id="a_edge9_Node000005_Node000010"><a xlink:title=" ">
<path fill="none" stroke="#63b8ff" d="M438.02,-197.09C453.37,-197.09 469.65,-197.09 483.1,-197.09"/>
<polygon fill="#63b8ff" stroke="#63b8ff" points="483.21,-200.59 493.21,-197.09 483.21,-193.59 483.21,-200.59"/>
</a>
</g>
</g>
<!-- Node5&#45;&gt;Node11 -->
<g id="edge10_Node000005_Node000011" class="edge">
<title>Node5&#45;&gt;Node11</title>
<g id="a_edge10_Node000005_Node000011"><a xlink:title=" ">
<path fill="none" stroke="#63b8ff" d="M422.59,-187.57C432.49,-184.91 443.17,-181.96 453,-179.09 463.62,-175.98 475.22,-172.36 485.37,-169.12"/>
<polygon fill="#63b8ff" stroke="#63b8ff" points="486.5,-172.43 494.95,-166.03 484.36,-165.77 486.5,-172.43"/>
</a>
</g>
</g>
<!-- Node5&#45;&gt;Node12 -->
<g id="edge11_Node000005_Node000012" class="edge">
<title>Node5&#45;&gt;Node12</title>
<g id="a_edge11_Node000005_Node000012"><a xlink:title=" ">
<path fill="none" stroke="#63b8ff" d="M432.02,-206.67C439.31,-209.15 446.56,-212.25 453,-216.09 472.71,-227.84 471.77,-237.94 489,-253.09 489.82,-253.81 490.67,-254.53 491.53,-255.26"/>
<polygon fill="#63b8ff" stroke="#63b8ff" points="489.49,-258.1 499.51,-261.54 493.82,-252.6 489.49,-258.1"/>
</a>
</g>
</g>
<!-- Node13&#45;&gt;Node8 -->
<g id="edge13_Node000013_Node000008" class="edge">
<title>Node13&#45;&gt;Node8</title>
<g id="a_edge13_Node000013_Node000008"><a xlink:title=" ">
<path fill="none" stroke="#63b8ff" d="M398.92,-489.51C413.48,-478.22 437.17,-458.3 453,-437.09 474.64,-408.1 466.26,-392.22 489,-364.09 489.7,-363.22 490.45,-362.37 491.23,-361.53"/>
<polygon fill="#63b8ff" stroke="#63b8ff" points="493.82,-363.91 498.86,-354.59 489.1,-358.73 493.82,-363.91"/>
</a>
</g>
</g>
<!-- Node13&#45;&gt;Node9 -->
<g id="edge14_Node000013_Node000009" class="edge">
<title>Node13&#45;&gt;Node9</title>
<g id="a_edge14_Node000013_Node000009"><a xlink:title=" ">
<path fill="none" stroke="#63b8ff" d="M426.13,-489.5C435.58,-486 445.16,-481.31 453,-475.09 477.98,-455.26 495.79,-422.06 505.22,-401.15"/>
<polygon fill="#63b8ff" stroke="#63b8ff" points="508.54,-402.3 509.28,-391.73 502.11,-399.53 508.54,-402.3"/>
</a>
</g>
</g>
<!-- Node14&#45;&gt;Node6 -->
<g id="edge19_Node000014_Node000006" class="edge">
<title>Node14&#45;&gt;Node6</title>
<g id="a_edge19_Node000014_Node000006"><a xlink:title=" ">
<path fill="none" stroke="#63b8ff" d="M444.67,-234.09C456.37,-234.09 468.28,-234.09 478.82,-234.09"/>
<polygon fill="#63b8ff" stroke="#63b8ff" points="478.84,-237.59 488.84,-234.09 478.84,-230.59 478.84,-237.59"/>
</a>
</g>
</g>
<!-- Node14&#45;&gt;Node7 -->
<g id="edge20_Node000014_Node000007" class="edge">
<title>Node14&#45;&gt;Node7</title>
<g id="a_edge20_Node000014_Node000007"><a xlink:title=" ">
<path fill="none" stroke="#63b8ff" d="M420.53,-243.64C431.32,-247.35 443.01,-252.16 453,-258.09 471.41,-269.01 472.42,-276.54 489,-290.09 489.85,-290.78 490.72,-291.48 491.6,-292.18"/>
<polygon fill="#63b8ff" stroke="#63b8ff" points="489.59,-295.05 499.64,-298.38 493.86,-289.5 489.59,-295.05"/>
</a>
</g>
</g>
<!-- Node14&#45;&gt;Node8 -->
<g id="edge21_Node000014_Node000008" class="edge">
<title>Node14&#45;&gt;Node8</title>
<g id="a_edge21_Node000014_Node000008"><a xlink:title=" ">
<path fill="none" stroke="#63b8ff" d="M397.56,-243.74C411.05,-255.1 433.96,-274.61 453,-292.09 469.44,-307.17 472.04,-312.59 489,-327.09 489.83,-327.8 490.69,-328.51 491.56,-329.23"/>
<polygon fill="#63b8ff" stroke="#63b8ff" points="489.52,-332.08 499.56,-335.48 493.84,-326.56 489.52,-332.08"/>
</a>
</g>
</g>
<!-- Node14&#45;&gt;Node9 -->
<g id="edge22_Node000014_Node000009" class="edge">
<title>Node14&#45;&gt;Node9</title>
<g id="a_edge22_Node000014_Node000009"><a xlink:title=" ">
<path fill="none" stroke="#63b8ff" d="M400.01,-243.65C414.66,-254.18 437.62,-272.28 453,-292.09 474.95,-320.34 466.08,-336.62 489,-364.09 489.4,-364.56 489.81,-365.03 490.23,-365.5"/>
<polygon fill="#63b8ff" stroke="#63b8ff" points="488.09,-368.28 497.85,-372.41 492.8,-363.1 488.09,-368.28"/>
</a>
</g>
</g>
<!-- Node14&#45;&gt;Node11 -->
<g id="edge23_Node000014_Node000011" class="edge">
<title>Node14&#45;&gt;Node11</title>
<g id="a_edge23_Node000014_Node000011"><a xlink:title=" ">
<path fill="none" stroke="#63b8ff" d="M434.13,-224.55C440.71,-222.28 447.18,-219.5 453,-216.09 472.79,-204.47 471.97,-194.46 489,-179.09 489.98,-178.21 490.99,-177.32 492.02,-176.43"/>
<polygon fill="#63b8ff" stroke="#63b8ff" points="494.53,-178.9 500.04,-169.85 490.09,-173.48 494.53,-178.9"/>
</a>
</g>
</g>
<!-- Node14&#45;&gt;Node12 -->
<g id="edge24_Node000014_Node000012" class="edge">
<title>Node14&#45;&gt;Node12</title>
<g id="a_edge24_Node000014_Node000012"><a xlink:title=" ">
<path fill="none" stroke="#63b8ff" d="M418.71,-243.62C438.77,-249.46 464.24,-256.88 483.65,-262.54"/>
<polygon fill="#63b8ff" stroke="#63b8ff" points="482.88,-265.96 493.46,-265.39 484.84,-259.24 482.88,-265.96"/>
</a>
</g>
</g>
<!-- Node16&#45;&gt;Node6 -->
<g id="edge29_Node000016_Node000006" class="edge">
<title>Node16&#45;&gt;Node6</title>
<g id="a_edge29_Node000016_Node000006"><a xlink:title=" ">
<path fill="none" stroke="#63b8ff" d="M423.83,-342.87C434.16,-340.22 444.77,-335.96 453,-329.09 481.7,-305.14 465.74,-282.34 489,-253.09 489.58,-252.36 490.19,-251.64 490.83,-250.94"/>
<polygon fill="#63b8ff" stroke="#63b8ff" points="493.39,-253.34 498.32,-243.96 488.62,-248.22 493.39,-253.34"/>
</a>
</g>
</g>
<!-- Node16&#45;&gt;Node7 -->
<g id="edge30_Node000016_Node000007" class="edge">
<title>Node16&#45;&gt;Node7</title>
<g id="a_edge30_Node000016_Node000007"><a xlink:title=" ">
<path fill="none" stroke="#63b8ff" d="M423.35,-337.58C433.05,-334.97 443.45,-332.04 453,-329.09 463.68,-325.79 475.29,-321.82 485.44,-318.22"/>
<polygon fill="#63b8ff" stroke="#63b8ff" points="486.77,-321.46 495,-314.78 484.4,-314.87 486.77,-321.46"/>
</a>
</g>
</g>
<!-- Node16&#45;&gt;Node8 -->
<g id="edge31_Node000016_Node000008" class="edge">
<title>Node16&#45;&gt;Node8</title>
<g id="a_edge31_Node000016_Node000008"><a xlink:title=" ">
<path fill="none" stroke="#63b8ff" d="M423.76,-346.49C444.08,-346.17 468.63,-345.79 486.84,-345.5"/>
<polygon fill="#63b8ff" stroke="#63b8ff" points="487.05,-349 497,-345.34 486.94,-342 487.05,-349"/>
</a>
</g>
</g>
<!-- Node16&#45;&gt;Node9 -->
<g id="edge32_Node000016_Node000009" class="edge">
<title>Node16&#45;&gt;Node9</title>
<g id="a_edge32_Node000016_Node000009"><a xlink:title=" ">
<path fill="none" stroke="#63b8ff" d="M420.7,-356.65C438.84,-361.65 460.95,-367.74 478.98,-372.71"/>
<polygon fill="#63b8ff" stroke="#63b8ff" points="478.22,-376.13 488.79,-375.42 480.08,-369.39 478.22,-376.13"/>
</a>
</g>
</g>
<!-- Node16&#45;&gt;Node12 -->
<g id="edge33_Node000016_Node000012" class="edge">
<title>Node16&#45;&gt;Node12</title>
<g id="a_edge33_Node000016_Node000012"><a xlink:title=" ">
<path fill="none" stroke="#63b8ff" d="M423.67,-340.91C433.67,-338.24 444.14,-334.45 453,-329.09 473.18,-316.88 471.7,-306.12 489,-290.09 489.96,-289.19 490.97,-288.29 491.99,-287.4"/>
<polygon fill="#63b8ff" stroke="#63b8ff" points="494.51,-289.86 499.99,-280.79 490.05,-284.46 494.51,-289.86"/>
</a>
</g>
</g>
<!-- Node17&#45;&gt;Node6 -->
<g id="edge35_Node000017_Node000006" class="edge">
<title>Node17&#45;&gt;Node6</title>
<g id="a_edge35_Node000017_Node000006"><a xlink:title=" ">
<path fill="none" stroke="#63b8ff" d="M402.08,-300.46C423.84,-287.44 462.85,-264.1 488.33,-248.85"/>
<polygon fill="#63b8ff" stroke="#63b8ff" points="490.26,-251.77 497.05,-243.63 486.67,-245.77 490.26,-251.77"/>
</a>
</g>
</g>
<!-- Node17&#45;&gt;Node7 -->
<g id="edge36_Node000017_Node000007" class="edge">
<title>Node17&#45;&gt;Node7</title>
<g id="a_edge36_Node000017_Node000007"><a xlink:title=" ">
<path fill="none" stroke="#63b8ff" d="M442.07,-309.2C456.77,-308.97 472.01,-308.73 484.58,-308.53"/>
<polygon fill="#63b8ff" stroke="#63b8ff" points="484.91,-312.03 494.85,-308.37 484.8,-305.03 484.91,-312.03"/>
</a>
</g>
</g>
<!-- Node17&#45;&gt;Node8 -->
<g id="edge37_Node000017_Node000008" class="edge">
<title>Node17&#45;&gt;Node8</title>
<g id="a_edge37_Node000017_Node000008"><a xlink:title=" ">
<path fill="none" stroke="#63b8ff" d="M420.7,-319.65C441.65,-325.42 467.9,-332.66 487.04,-337.93"/>
<polygon fill="#63b8ff" stroke="#63b8ff" points="486.3,-341.36 496.87,-340.64 488.16,-334.61 486.3,-341.36"/>
</a>
</g>
</g>
<!-- Node17&#45;&gt;Node9 -->
<g id="edge38_Node000017_Node000009" class="edge">
<title>Node17&#45;&gt;Node9</title>
<g id="a_edge38_Node000017_Node000009"><a xlink:title=" ">
<path fill="none" stroke="#63b8ff" d="M431.58,-319.7C439,-322.19 446.4,-325.28 453,-329.09 472.32,-340.25 472.04,-349.59 489,-364.09 489.83,-364.8 490.69,-365.51 491.56,-366.23"/>
<polygon fill="#63b8ff" stroke="#63b8ff" points="489.52,-369.08 499.56,-372.48 493.84,-363.56 489.52,-369.08"/>
</a>
</g>
</g>
<!-- Node17&#45;&gt;Node12 -->
<g id="edge39_Node000017_Node000012" class="edge">
<title>Node17&#45;&gt;Node12</title>
<g id="a_edge39_Node000017_Node000012"><a xlink:title=" ">
<path fill="none" stroke="#63b8ff" d="M417.07,-300.55C437.33,-294.32 463.61,-286.25 483.54,-280.13"/>
<polygon fill="#63b8ff" stroke="#63b8ff" points="484.79,-283.41 493.32,-277.13 482.73,-276.72 484.79,-283.41"/>
</a>
</g>
</g>
<!-- Node18&#45;&gt;Node7 -->
<g id="edge43_Node000018_Node000007" class="edge">
<title>Node18&#45;&gt;Node7</title>
<g id="a_edge43_Node000018_Node000007"><a xlink:title=" ">
<path fill="none" stroke="#63b8ff" d="M271.83,-389.71C317.15,-393.61 394.71,-394.68 453,-366.09 474.18,-355.7 471.7,-343.12 489,-327.09 489.96,-326.19 490.97,-325.29 491.99,-324.4"/>
<polygon fill="#63b8ff" stroke="#63b8ff" points="494.51,-326.86 499.99,-317.79 490.05,-321.46 494.51,-326.86"/>
</a>
</g>
</g>
<!-- Node18&#45;&gt;Node9 -->
<g id="edge45_Node000018_Node000009" class="edge">
<title>Node18&#45;&gt;Node9</title>
<g id="a_edge45_Node000018_Node000009"><a xlink:title=" ">
<path fill="none" stroke="#63b8ff" d="M237.01,-394.83C244.24,-420.66 267.85,-490.74 317,-518.09 369.82,-547.48 402.36,-551.09 453,-518.09 492.86,-492.11 506.43,-433.01 510.9,-401.97"/>
<polygon fill="#63b8ff" stroke="#63b8ff" points="514.39,-402.28 512.17,-391.92 507.44,-401.4 514.39,-402.28"/>
</a>
</g>
</g>
<!-- Node18&#45;&gt;Node13 -->
<g id="edge42_Node000018_Node000013" class="edge">
<title>Node18&#45;&gt;Node13</title>
<g id="a_edge42_Node000018_Node000013"><a xlink:title=" ">
<path fill="none" stroke="#63b8ff" d="M240.84,-394.64C253.34,-412.79 282.93,-452.45 317,-475.09 323.3,-479.27 330.41,-482.83 337.59,-485.81"/>
<polygon fill="#63b8ff" stroke="#63b8ff" points="336.77,-489.24 347.36,-489.54 339.26,-482.7 336.77,-489.24"/>
</a>
</g>
</g>
<!-- Node18&#45;&gt;Node14 -->
<g id="edge44_Node000018_Node000014" class="edge">
<title>Node18&#45;&gt;Node14</title>
<g id="a_edge44_Node000018_Node000014"><a xlink:title=" ">
<path fill="none" stroke="#63b8ff" d="M242.31,-375.48C256.51,-358.18 287.83,-320.91 317,-292.09 332.14,-277.13 350.47,-261.41 364.13,-250.11"/>
<polygon fill="#63b8ff" stroke="#63b8ff" points="366.45,-252.74 371.96,-243.7 362.01,-247.33 366.45,-252.74"/>
</a>
</g>
</g>
<!-- Node18&#45;&gt;Node16 -->
<g id="edge46_Node000018_Node000016" class="edge">
<title>Node18&#45;&gt;Node16</title>
<g id="a_edge46_Node000018_Node000016"><a xlink:title=" ">
<path fill="none" stroke="#63b8ff" d="M271.84,-375.6C291.46,-370.61 315.72,-364.44 336.65,-359.12"/>
<polygon fill="#63b8ff" stroke="#63b8ff" points="337.79,-362.44 346.62,-356.59 336.06,-355.66 337.79,-362.44"/>
</a>
</g>
</g>
</g>
</svg>

<g id="navigator" transform="translate(0 0)" fill="#404254">
  <rect fill="#f2f5e9" fill-opacity="0.5" stroke="#606060" stroke-width=".5" x="0" y="0" width="60" height="60"/>
  <use id="zoomplus" xlink:href="#zoomPlus" x="17" y="9" onmousedown="handleZoom(evt,'in')"/>
  <use id="zoomminus" xlink:href="#zoomMin" x="42" y="9" onmousedown="handleZoom(evt,'out')"/>
  <use id="reset" xlink:href="#resetDef" x="30" y="36" onmousedown="handleReset()"/>
   <use id="arrowup" xlink:href="#arrowUp" x="0" y="0" onmousedown="handlePan(0,-1)"/>
  <use id="arrowright" xlink:href="#arrowRight" x="0" y="0" onmousedown="handlePan(1,0)"/>
  <use id="arrowdown" xlink:href="#arrowDown" x="0" y="0" onmousedown="handlePan(0,1)"/>
  <use id="arrowleft" xlink:href="#arrowLeft" x="0" y="0" onmousedown="handlePan(-1,0)"/>
</g>
<svg viewBox="0 0 15 15" width="100%" height="30px" preserveAspectRatio="xMaxYMin meet">
 <g id="arrow_out" transform="scale(0.3 0.3)">
  <a xlink:href="main_8c_aac0575d69dba68d64a6c0f65c2d8f635_cgraph_org.svg" target="_base">
   <rect id="button" ry="5" rx="5" y="6" x="6" height="38" width="38"
        fill="#f2f5e9" fill-opacity="0.5" stroke="#606060" stroke-width="1.0"/>
   <path id="arrow"
     d="M 11.500037,31.436501 C 11.940474,20.09759 22.043105,11.32322 32.158766,21.979434 L 37.068811,17.246167 C 37.068811,17.246167 37.088388,32 37.088388,32 L 22.160133,31.978069 C 22.160133,31.978069 26.997745,27.140456 26.997745,27.140456 C 18.528582,18.264221 13.291696,25.230495 11.500037,31.436501 z"
     style="fill:#404040;"/>
  </a>
 </g>
</svg>

<style type='text/css'>
<![CDATA[
[data-mouse-over-selected='false'] { opacity: 0.7; }
[data-mouse-over-selected='true']  { opacity: 1.0; }
]]>
</style>
<script type="application/ecmascript"><![CDATA[
document.addEventListener('DOMContentLoaded', (event) => {
  highlightEdges();
  highlightAdjacentNodes();
});
]]></script>
</svg>
