<?xml version="1.0" encoding="UTF-8" standalone="no"?>
<!DOCTYPE svg PUBLIC "-//W3C//DTD SVG 1.1//EN"
 "http://www.w3.org/Graphics/SVG/1.1/DTD/svg11.dtd">
<!-- Generated by graphviz version 2.43.0 (0)
 -->
<!-- Title: Init Pages: 1 -->
<!--zoomable 364 -->

<svg id="main" version="1.1" xmlns="http://www.w3.org/2000/svg" xmlns:xlink="http://www.w3.org/1999/xlink" xml:space="preserve" onload="init(evt)">
<style type="text/css"><![CDATA[
.node, .edge {opacity: 0.7;}
.node.selected, .edge.selected {opacity: 1;}
.edge:hover path { stroke: red; }
.edge:hover polygon { stroke: red; fill: red; }
]]></style>

<defs>
  <circle id="rim" cx="0" cy="0" r="7"/>
  <circle id="rim2" cx="0" cy="0" r="3.5"/>
  <g id="zoomPlus">
    <use xlink:href="#rim" fill="#404040"><set attributeName="fill" to="#808080" begin="zoomplus.mouseover" end="zoomplus.mouseout"/></use>
    <path d="M-4,0h8M0,-4v8" fill="none" stroke="white" stroke-width="1.5" pointer-events="none"/>
  </g>
  <g id="zoomMin">
    <use xlink:href="#rim" fill="#404040"><set attributeName="fill" to="#808080" begin="zoomminus.mouseover" end="zoomminus.mouseout"/></use>
    <path d="M-4,0h8" fill="none" stroke="white" stroke-width="1.5" pointer-events="none"/>
  </g>
  <g id="arrowUp" transform="translate(30 24)">
    <use xlink:href="#rim"/>
    <path pointer-events="none" fill="none" stroke="white" stroke-width="1.5" d="M0,-3.0v7 M-2.5,-0.5L0,-3.0L2.5,-0.5"/>
  </g>
  <g id="arrowRight" transform="rotate(90) translate(36 -43)">
    <use xlink:href="#rim"/>
    <path pointer-events="none" fill="none" stroke="white" stroke-width="1.5" d="M0,-3.0v7 M-2.5,-0.5L0,-3.0L2.5,-0.5"/>
  </g>
  <g id="arrowDown" transform="rotate(180) translate(-30 -48)">
    <use xlink:href="#rim"/>
    <path pointer-events="none" fill="none" stroke="white" stroke-width="1.5" d="M0,-3.0v7 M-2.5,-0.5L0,-3.0L2.5,-0.5"/>
  </g>
  <g id="arrowLeft" transform="rotate(270) translate(-36 17)">
    <use xlink:href="#rim"/>
    <path pointer-events="none" fill="none" stroke="white" stroke-width="1.5" d="M0,-3.0v7 M-2.5,-0.5L0,-3.0L2.5,-0.5"/>
  </g>
  <g id="resetDef">
    <use xlink:href="#rim2" fill="#404040"><set attributeName="fill" to="#808080" begin="reset.mouseover" end="reset.mouseout"/></use>
  </g>
</defs>
<script type="application/ecmascript">
var viewWidth = 537;
var viewHeight = 364;
var sectionId = 'dynsection-28';
</script>
<script type="application/ecmascript" xlink:href="svg.min.js"/>
<svg id="graph" class="graph">
<g id="viewport">
<title>Init</title>
<!-- Node1 -->
<g id="Node000001" class="node">
<title>Node1</title>
<g id="a_Node000001"><a xlink:title=" ">
<polygon fill="#999999" stroke="#666666" points="32,-130 0,-130 0,-111 32,-111 32,-130"/>
<text text-anchor="middle" x="16" y="-118" font-family="Helvetica,sans-Serif" font-size="10.00">Init</text>
</a>
</g>
</g>
<!-- Node2 -->
<g id="Node000002" class="node">
<title>Node2</title>
<g id="a_Node000002"><a xlink:href="io_8c.html#ac6a6fe57e1e391ebe52b1dbffde4ba5b" target="_top" xlink:title=" ">
<polygon fill="white" stroke="#666666" points="271,-315 196,-315 196,-296 271,-296 271,-315"/>
<text text-anchor="middle" x="233.5" y="-303" font-family="Helvetica,sans-Serif" font-size="10.00">AreaNormal</text>
</a>
</g>
</g>
<!-- Node1&#45;&gt;Node2 -->
<g id="edge1_Node000001_Node000002" class="edge">
<title>Node1&#45;&gt;Node2</title>
<g id="a_edge1_Node000001_Node000002"><a xlink:title=" ">
<path fill="none" stroke="#63b8ff" d="M20.23,-130.01C26.78,-148.13 43.16,-188.09 68,-213.5 104.59,-250.93 159.68,-277.5 195.87,-292.17"/>
<polygon fill="#63b8ff" stroke="#63b8ff" points="194.95,-295.58 205.54,-295.99 197.52,-289.07 194.95,-295.58"/>
</a>
</g>
</g>
<!-- Node7 -->
<g id="Node000007" class="node">
<title>Node7</title>
<g id="a_Node000007"><a xlink:href="bending_8c.html#a7bbb532bbd6912ebd1a626ab8950738a" target="_top" xlink:title=" ">
<polygon fill="white" stroke="#666666" points="160,-167 68,-167 68,-148 160,-148 160,-167"/>
<text text-anchor="middle" x="114" y="-155" font-family="Helvetica,sans-Serif" font-size="10.00">GlobalGhostInit</text>
</a>
</g>
</g>
<!-- Node1&#45;&gt;Node7 -->
<g id="edge6_Node000001_Node000007" class="edge">
<title>Node1&#45;&gt;Node7</title>
<g id="a_edge6_Node000001_Node000007"><a xlink:title=" ">
<path fill="none" stroke="#63b8ff" d="M32.42,-126.44C44.89,-131.25 62.9,-138.19 78.74,-144.3"/>
<polygon fill="#63b8ff" stroke="#63b8ff" points="77.66,-147.63 88.25,-147.96 80.18,-141.1 77.66,-147.63"/>
</a>
</g>
</g>
<!-- Node8 -->
<g id="Node000008" class="node">
<title>Node8</title>
<g id="a_Node000008"><a xlink:href="bending_8c.html#a2cd7ef6a41a0e3d6757965f9336e457a" target="_top" xlink:title=" ">
<polygon fill="white" stroke="#666666" points="144.5,-204 83.5,-204 83.5,-185 144.5,-185 144.5,-204"/>
<text text-anchor="middle" x="114" y="-192" font-family="Helvetica,sans-Serif" font-size="10.00">InitGhost</text>
</a>
</g>
</g>
<!-- Node1&#45;&gt;Node8 -->
<g id="edge7_Node000001_Node000008" class="edge">
<title>Node1&#45;&gt;Node8</title>
<g id="a_edge7_Node000001_Node000008"><a xlink:title=" ">
<path fill="none" stroke="#63b8ff" d="M23.95,-130.23C32.94,-142.24 49.66,-162.64 68,-175.5 70.49,-177.24 73.16,-178.87 75.92,-180.38"/>
<polygon fill="#63b8ff" stroke="#63b8ff" points="74.38,-183.53 84.9,-184.81 77.47,-177.25 74.38,-183.53"/>
</a>
</g>
</g>
<!-- Node19 -->
<g id="Node000019" class="node">
<title>Node19</title>
<g id="a_Node000019"><a xlink:href="material_8c.html#a48cc3ee0ba7a58fe736b966314652fde" target="_top" xlink:title=" ">
<polygon fill="white" stroke="#666666" points="150.5,-130 77.5,-130 77.5,-111 150.5,-111 150.5,-130"/>
<text text-anchor="middle" x="114" y="-118" font-family="Helvetica,sans-Serif" font-size="10.00">InitMaterial</text>
</a>
</g>
</g>
<!-- Node1&#45;&gt;Node19 -->
<g id="edge23_Node000001_Node000019" class="edge">
<title>Node1&#45;&gt;Node19</title>
<g id="a_edge23_Node000001_Node000019"><a xlink:title=" ">
<path fill="none" stroke="#63b8ff" d="M32.42,-120.5C41.87,-120.5 54.49,-120.5 66.94,-120.5"/>
<polygon fill="#63b8ff" stroke="#63b8ff" points="67.28,-124 77.28,-120.5 67.28,-117 67.28,-124"/>
</a>
</g>
</g>
<!-- Node20 -->
<g id="Node000020" class="node">
<title>Node20</title>
<g id="a_Node000020"><a xlink:href="external_8c.html#a1543aa62a8eb1c33537e2da28f1b8394" target="_top" xlink:title=" ">
<polygon fill="white" stroke="#666666" points="137.5,-93 90.5,-93 90.5,-74 137.5,-74 137.5,-93"/>
<text text-anchor="middle" x="114" y="-81" font-family="Helvetica,sans-Serif" font-size="10.00">InitVel</text>
</a>
</g>
</g>
<!-- Node1&#45;&gt;Node20 -->
<g id="edge24_Node000001_Node000020" class="edge">
<title>Node1&#45;&gt;Node20</title>
<g id="a_edge24_Node000001_Node000020"><a xlink:title=" ">
<path fill="none" stroke="#63b8ff" d="M32.42,-114.56C45.42,-109.55 64.44,-102.22 80.74,-95.94"/>
<polygon fill="#63b8ff" stroke="#63b8ff" points="82.38,-99.05 90.45,-92.19 79.86,-92.52 82.38,-99.05"/>
</a>
</g>
</g>
<!-- Node21 -->
<g id="Node000021" class="node">
<title>Node21</title>
<g id="a_Node000021"><a xlink:href="io_8c.html#a6ef830a0883e3f31ad5b52a2b20bdbb2" target="_top" xlink:title=" ">
<polygon fill="white" stroke="#666666" points="139,-56 89,-56 89,-37 139,-37 139,-56"/>
<text text-anchor="middle" x="114" y="-44" font-family="Helvetica,sans-Serif" font-size="10.00">Output</text>
</a>
</g>
</g>
<!-- Node1&#45;&gt;Node21 -->
<g id="edge25_Node000001_Node000021" class="edge">
<title>Node1&#45;&gt;Node21</title>
<g id="a_edge25_Node000001_Node000021"><a xlink:title=" ">
<path fill="none" stroke="#63b8ff" d="M23.56,-110.96C32.39,-98.72 49.2,-77.54 68,-64.5 71.5,-62.07 75.38,-59.9 79.34,-57.98"/>
<polygon fill="#63b8ff" stroke="#63b8ff" points="80.85,-61.14 88.62,-53.95 78.06,-54.72 80.85,-61.14"/>
</a>
</g>
</g>
<!-- Node22 -->
<g id="Node000022" class="node">
<title>Node22</title>
<g id="a_Node000022"><a xlink:href="io_8c.html#ad48ba3e1dccd9f891059e04b5165d5f9" target="_top" xlink:title=" ">
<polygon fill="white" stroke="#666666" points="153,-19 75,-19 75,0 153,0 153,-19"/>
<text text-anchor="middle" x="114" y="-7" font-family="Helvetica,sans-Serif" font-size="10.00">OutputGhost</text>
</a>
</g>
</g>
<!-- Node1&#45;&gt;Node22 -->
<g id="edge26_Node000001_Node000022" class="edge">
<title>Node1&#45;&gt;Node22</title>
<g id="a_edge26_Node000001_Node000022"><a xlink:title=" ">
<path fill="none" stroke="#63b8ff" d="M19.82,-110.95C25.76,-92.38 41.26,-51.19 68,-27.5 69.3,-26.35 70.68,-25.27 72.12,-24.25"/>
<polygon fill="#63b8ff" stroke="#63b8ff" points="74.04,-27.18 80.9,-19.11 70.51,-21.14 74.04,-27.18"/>
</a>
</g>
</g>
<!-- Node3 -->
<g id="Node000003" class="node">
<title>Node3</title>
<g id="a_Node000003"><a xlink:href="math_8c.html#a9d60990d26296194c921d537ea26f3c7" target="_top" xlink:title=" ">
<polygon fill="white" stroke="#666666" points="400,-243 350,-243 350,-224 400,-224 400,-243"/>
<text text-anchor="middle" x="375" y="-231" font-family="Helvetica,sans-Serif" font-size="10.00">CROSS</text>
</a>
</g>
</g>
<!-- Node2&#45;&gt;Node3 -->
<g id="edge2_Node000002_Node000003" class="edge">
<title>Node2&#45;&gt;Node3</title>
<g id="a_edge2_Node000002_Node000003"><a xlink:title=" ">
<path fill="none" stroke="#63b8ff" d="M256.75,-295.91C261.61,-293.44 266.61,-290.6 271,-287.5 289.23,-274.63 287.68,-263.66 307,-252.5 317.1,-246.67 329.1,-242.53 340.14,-239.64"/>
<polygon fill="#63b8ff" stroke="#63b8ff" points="340.99,-243.04 349.92,-237.33 339.38,-236.22 340.99,-243.04"/>
</a>
</g>
</g>
<!-- Node4 -->
<g id="Node000004" class="node">
<title>Node4</title>
<g id="a_Node000004"><a xlink:href="math_8c.html#a9d08a9d2fd8e8932e92b8ab054b19269" target="_top" xlink:title=" ">
<polygon fill="white" stroke="#666666" points="529,-205 479,-205 479,-186 529,-186 529,-205"/>
<text text-anchor="middle" x="504" y="-193" font-family="Helvetica,sans-Serif" font-size="10.00">MINUS</text>
</a>
</g>
</g>
<!-- Node2&#45;&gt;Node4 -->
<g id="edge3_Node000002_Node000004" class="edge">
<title>Node2&#45;&gt;Node4</title>
<g id="a_edge3_Node000002_Node000004"><a xlink:title=" ">
<path fill="none" stroke="#63b8ff" d="M271.36,-312.03C315.48,-317.86 390.05,-321.21 443,-289.5 471.12,-272.66 488.29,-236.98 496.69,-214.75"/>
<polygon fill="#63b8ff" stroke="#63b8ff" points="500.08,-215.65 500.12,-205.05 493.49,-213.31 500.08,-215.65"/>
</a>
</g>
</g>
<!-- Node5 -->
<g id="Node000005" class="node">
<title>Node5</title>
<g id="a_Node000005"><a xlink:href="math_8c.html#aa52f6593cf3e5453c8c6c94343d3fb37" target="_top" xlink:title=" ">
<polygon fill="white" stroke="#666666" points="394,-356 356,-356 356,-337 394,-337 394,-356"/>
<text text-anchor="middle" x="375" y="-344" font-family="Helvetica,sans-Serif" font-size="10.00">SIZE</text>
</a>
</g>
</g>
<!-- Node2&#45;&gt;Node5 -->
<g id="edge4_Node000002_Node000005" class="edge">
<title>Node2&#45;&gt;Node5</title>
<g id="a_edge4_Node000002_Node000005"><a xlink:title=" ">
<path fill="none" stroke="#63b8ff" d="M266.85,-315.01C290.87,-322.07 323.27,-331.59 346.14,-338.31"/>
<polygon fill="#63b8ff" stroke="#63b8ff" points="345.32,-341.72 355.91,-341.18 347.3,-335 345.32,-341.72"/>
</a>
</g>
</g>
<!-- Node6 -->
<g id="Node000006" class="node">
<title>Node6</title>
<g id="a_Node000006"><a xlink:href="math_8c.html#ac616709995f2ae60c4308ffa328337d7" target="_top" xlink:title=" ">
<polygon fill="white" stroke="#666666" points="395.5,-280 354.5,-280 354.5,-261 395.5,-261 395.5,-280"/>
<text text-anchor="middle" x="375" y="-268" font-family="Helvetica,sans-Serif" font-size="10.00">UNIT</text>
</a>
</g>
</g>
<!-- Node2&#45;&gt;Node6 -->
<g id="edge5_Node000002_Node000006" class="edge">
<title>Node2&#45;&gt;Node6</title>
<g id="a_edge5_Node000002_Node000006"><a xlink:title=" ">
<path fill="none" stroke="#63b8ff" d="M271.15,-296.3C294.05,-290.56 323.13,-283.26 344.53,-277.89"/>
<polygon fill="#63b8ff" stroke="#63b8ff" points="345.5,-281.26 354.35,-275.43 343.8,-274.47 345.5,-281.26"/>
</a>
</g>
</g>
<!-- Node9 -->
<g id="Node000009" class="node">
<title>Node9</title>
<g id="a_Node000009"><a xlink:href="bending_8c.html#ace73fac6bb01de30690642de6bcba1d4" target="_top" xlink:title=" ">
<polygon fill="white" stroke="#666666" points="256,-130 211,-130 211,-111 256,-111 256,-130"/>
<text text-anchor="middle" x="233.5" y="-118" font-family="Helvetica,sans-Serif" font-size="10.00">Ghost</text>
</a>
</g>
</g>
<!-- Node8&#45;&gt;Node9 -->
<g id="edge8_Node000008_Node000009" class="edge">
<title>Node8&#45;&gt;Node9</title>
<g id="a_edge8_Node000008_Node000009"><a xlink:title=" ">
<path fill="none" stroke="#63b8ff" d="M142.56,-184.92C148.55,-182.29 154.68,-179.14 160,-175.5 178.95,-162.56 177.44,-151.99 196,-138.5 197.86,-137.15 199.83,-135.85 201.86,-134.62"/>
<polygon fill="#63b8ff" stroke="#63b8ff" points="203.88,-137.5 210.95,-129.61 200.5,-131.37 203.88,-137.5"/>
</a>
</g>
</g>
<!-- Node10 -->
<g id="Node000010" class="node">
<title>Node10</title>
<g id="a_Node000010"><a xlink:href="bcs_8c.html#a66bea6d23d803ebc455e934629a0c7be" target="_top" xlink:title=" ">
<polygon fill="white" stroke="#666666" points="264.5,-93 202.5,-93 202.5,-74 264.5,-74 264.5,-93"/>
<text text-anchor="middle" x="233.5" y="-81" font-family="Helvetica,sans-Serif" font-size="10.00">GhostLoc</text>
</a>
</g>
</g>
<!-- Node8&#45;&gt;Node10 -->
<g id="edge9_Node000008_Node000010" class="edge">
<title>Node8&#45;&gt;Node10</title>
<g id="a_edge9_Node000008_Node000010"><a xlink:title=" ">
<path fill="none" stroke="#63b8ff" d="M144.92,-185.45C150.38,-182.86 155.69,-179.58 160,-175.5 186.54,-150.34 170.21,-127.43 196,-101.5 196.92,-100.57 197.91,-99.68 198.93,-98.83"/>
<polygon fill="#63b8ff" stroke="#63b8ff" points="201.14,-101.57 207.46,-93.06 197.22,-95.77 201.14,-101.57"/>
</a>
</g>
</g>
<!-- Node11 -->
<g id="Node000011" class="node">
<title>Node11</title>
<g id="a_Node000011"><a xlink:href="bending_8c.html#a9578756c3e89fa4ff5097ef9bdfee25e" target="_top" xlink:title=" ">
<polygon fill="white" stroke="#666666" points="255,-278 212,-278 212,-259 255,-259 255,-278"/>
<text text-anchor="middle" x="233.5" y="-266" font-family="Helvetica,sans-Serif" font-size="10.00">IrrVer</text>
</a>
</g>
</g>
<!-- Node8&#45;&gt;Node11 -->
<g id="edge10_Node000008_Node000011" class="edge">
<title>Node8&#45;&gt;Node11</title>
<g id="a_edge10_Node000008_Node000011"><a xlink:title=" ">
<path fill="none" stroke="#63b8ff" d="M127.52,-204.02C143.12,-215.67 170.8,-235.68 196,-250.5 198.19,-251.78 200.47,-253.06 202.8,-254.31"/>
<polygon fill="#63b8ff" stroke="#63b8ff" points="201.26,-257.46 211.76,-258.93 204.47,-251.24 201.26,-257.46"/>
</a>
</g>
</g>
<!-- Node12 -->
<g id="Node000012" class="node">
<title>Node12</title>
<g id="a_Node000012"><a xlink:href="bending_8c.html#a9f48607d5ce7f351c5960f63455779c4" target="_top" xlink:title=" ">
<polygon fill="white" stroke="#666666" points="254,-167 213,-167 213,-148 254,-148 254,-167"/>
<text text-anchor="middle" x="233.5" y="-155" font-family="Helvetica,sans-Serif" font-size="10.00">Kve0</text>
</a>
</g>
</g>
<!-- Node8&#45;&gt;Node12 -->
<g id="edge11_Node000008_Node000012" class="edge">
<title>Node8&#45;&gt;Node12</title>
<g id="a_edge11_Node000008_Node000012"><a xlink:title=" ">
<path fill="none" stroke="#63b8ff" d="M144.65,-185.16C162.58,-179.52 185.34,-172.35 203.21,-166.72"/>
<polygon fill="#63b8ff" stroke="#63b8ff" points="204.34,-170.04 212.82,-163.7 202.24,-163.36 204.34,-170.04"/>
</a>
</g>
</g>
<!-- Node17 -->
<g id="Node000017" class="node">
<title>Node17</title>
<g id="a_Node000017"><a xlink:href="bending_8c.html#a0107f44526163528de27b208877f2bda" target="_top" xlink:title=" ">
<polygon fill="white" stroke="#666666" points="255,-241 212,-241 212,-222 255,-222 255,-241"/>
<text text-anchor="middle" x="233.5" y="-229" font-family="Helvetica,sans-Serif" font-size="10.00">Patch</text>
</a>
</g>
</g>
<!-- Node8&#45;&gt;Node17 -->
<g id="edge21_Node000008_Node000017" class="edge">
<title>Node8&#45;&gt;Node17</title>
<g id="a_edge21_Node000008_Node000017"><a xlink:title=" ">
<path fill="none" stroke="#63b8ff" d="M144.65,-203.84C162.15,-209.35 184.27,-216.31 201.93,-221.87"/>
<polygon fill="#63b8ff" stroke="#63b8ff" points="201.16,-225.3 211.75,-224.97 203.26,-218.62 201.16,-225.3"/>
</a>
</g>
</g>
<!-- Node18 -->
<g id="Node000018" class="node">
<title>Node18</title>
<g id="a_Node000018"><a xlink:href="bending_8c.html#a907be03803f4a1d456a7a1650461f7eb" target="_top" xlink:title=" ">
<polygon fill="white" stroke="#666666" points="263,-204 204,-204 204,-185 263,-185 263,-204"/>
<text text-anchor="middle" x="233.5" y="-192" font-family="Helvetica,sans-Serif" font-size="10.00">PatchLoc</text>
</a>
</g>
</g>
<!-- Node8&#45;&gt;Node18 -->
<g id="edge22_Node000008_Node000018" class="edge">
<title>Node8&#45;&gt;Node18</title>
<g id="a_edge22_Node000008_Node000018"><a xlink:title=" ">
<path fill="none" stroke="#63b8ff" d="M144.65,-194.5C159.48,-194.5 177.63,-194.5 193.57,-194.5"/>
<polygon fill="#63b8ff" stroke="#63b8ff" points="193.67,-198 203.67,-194.5 193.67,-191 193.67,-198"/>
</a>
</g>
</g>
<!-- Node12&#45;&gt;Node3 -->
<g id="edge16_Node000012_Node000003" class="edge">
<title>Node12&#45;&gt;Node3</title>
<g id="a_edge16_Node000012_Node000003"><a xlink:title=" ">
<path fill="none" stroke="#63b8ff" d="M254.05,-165.81C259.72,-168.57 265.78,-171.87 271,-175.5 289.07,-188.06 288.24,-197.99 307,-209.5 317.16,-215.73 329.18,-220.68 340.21,-224.42"/>
<polygon fill="#63b8ff" stroke="#63b8ff" points="339.39,-227.83 349.98,-227.52 341.51,-221.16 339.39,-227.83"/>
</a>
</g>
</g>
<!-- Node12&#45;&gt;Node4 -->
<g id="edge19_Node000012_Node000004" class="edge">
<title>Node12&#45;&gt;Node4</title>
<g id="a_edge19_Node000012_Node000004"><a xlink:title=" ">
<path fill="none" stroke="#63b8ff" d="M254.03,-163.15C268.54,-167.15 288.86,-172.34 307,-175.5 363.18,-185.29 429.31,-190.81 468.61,-193.47"/>
<polygon fill="#63b8ff" stroke="#63b8ff" points="468.5,-196.97 478.71,-194.13 468.96,-189.99 468.5,-196.97"/>
</a>
</g>
</g>
<!-- Node12&#45;&gt;Node6 -->
<g id="edge20_Node000012_Node000006" class="edge">
<title>Node12&#45;&gt;Node6</title>
<g id="a_edge20_Node000012_Node000006"><a xlink:title=" ">
<path fill="none" stroke="#63b8ff" d="M254.27,-164.3C260.2,-167.07 266.35,-170.76 271,-175.5 297.43,-202.49 278.06,-228.22 307,-252.5 317.38,-261.21 331.58,-265.74 344.23,-268.08"/>
<polygon fill="#63b8ff" stroke="#63b8ff" points="343.98,-271.58 354.38,-269.58 345,-264.66 343.98,-271.58"/>
</a>
</g>
</g>
<!-- Node13 -->
<g id="Node000013" class="node">
<title>Node13</title>
<g id="a_Node000013"><a xlink:href="math_8c.html#a7ef9263b0a3a10c2cd00bb4dc0059d70" target="_top" xlink:title=" ">
<polygon fill="white" stroke="#666666" points="400,-167 350,-167 350,-148 400,-148 400,-167"/>
<text text-anchor="middle" x="375" y="-155" font-family="Helvetica,sans-Serif" font-size="10.00">AMULT</text>
</a>
</g>
</g>
<!-- Node12&#45;&gt;Node13 -->
<g id="edge12_Node000012_Node000013" class="edge">
<title>Node12&#45;&gt;Node13</title>
<g id="a_edge12_Node000012_Node000013"><a xlink:title=" ">
<path fill="none" stroke="#63b8ff" d="M254.19,-157.5C276.34,-157.5 312.71,-157.5 339.58,-157.5"/>
<polygon fill="#63b8ff" stroke="#63b8ff" points="339.72,-161 349.72,-157.5 339.72,-154 339.72,-161"/>
</a>
</g>
</g>
<!-- Node14 -->
<g id="Node000014" class="node">
<title>Node14</title>
<g id="a_Node000014"><a xlink:href="material_8c.html#a3243950933f3559f19edcb5421360526" target="_top" xlink:title=" ">
<polygon fill="white" stroke="#666666" points="443,-93 307,-93 307,-74 443,-74 443,-93"/>
<text text-anchor="middle" x="375" y="-81" font-family="Helvetica,sans-Serif" font-size="10.00">CalcCurvStressStrainxyz</text>
</a>
</g>
</g>
<!-- Node12&#45;&gt;Node14 -->
<g id="edge13_Node000012_Node000014" class="edge">
<title>Node12&#45;&gt;Node14</title>
<g id="a_edge13_Node000012_Node000014"><a xlink:title=" ">
<path fill="none" stroke="#63b8ff" d="M254.13,-148.73C259.8,-145.82 265.84,-142.34 271,-138.5 289.41,-124.81 287.21,-113.11 307,-101.5 310,-99.74 313.17,-98.15 316.45,-96.71"/>
<polygon fill="#63b8ff" stroke="#63b8ff" points="317.82,-99.93 325.87,-93.04 315.28,-93.41 317.82,-99.93"/>
</a>
</g>
</g>
<!-- Node15 -->
<g id="Node000015" class="node">
<title>Node15</title>
<g id="a_Node000015"><a xlink:href="math_8c.html#a3f73e4cd9eab76eeee084eabf2b98ec9" target="_top" xlink:title=" ">
<polygon fill="white" stroke="#666666" points="521,-74 487,-74 487,-55 521,-55 521,-74"/>
<text text-anchor="middle" x="504" y="-62" font-family="Helvetica,sans-Serif" font-size="10.00">INV</text>
</a>
</g>
</g>
<!-- Node12&#45;&gt;Node15 -->
<g id="edge18_Node000012_Node000015" class="edge">
<title>Node12&#45;&gt;Node15</title>
<g id="a_edge18_Node000012_Node000015"><a xlink:title=" ">
<path fill="none" stroke="#63b8ff" d="M254.22,-150.09C260.15,-147.15 266.32,-143.31 271,-138.5 296.51,-112.29 275.99,-83.9 307,-64.5 359.83,-31.45 437.38,-45.69 477.24,-56.47"/>
<polygon fill="#63b8ff" stroke="#63b8ff" points="476.41,-59.87 486.98,-59.24 478.32,-53.14 476.41,-59.87"/>
</a>
</g>
</g>
<!-- Node16 -->
<g id="Node000016" class="node">
<title>Node16</title>
<g id="a_Node000016"><a xlink:href="math_8c.html#a870a70f4845a041458d9bdb0dd7aabd3" target="_top" xlink:title=" ">
<polygon fill="white" stroke="#666666" points="394,-130 356,-130 356,-111 394,-111 394,-130"/>
<text text-anchor="middle" x="375" y="-118" font-family="Helvetica,sans-Serif" font-size="10.00">DOT</text>
</a>
</g>
</g>
<!-- Node12&#45;&gt;Node16 -->
<g id="edge17_Node000012_Node000016" class="edge">
<title>Node12&#45;&gt;Node16</title>
<g id="a_edge17_Node000012_Node000016"><a xlink:title=" ">
<path fill="none" stroke="#63b8ff" d="M254.19,-152.28C278.17,-145.92 318.82,-135.14 346.03,-127.92"/>
<polygon fill="#63b8ff" stroke="#63b8ff" points="346.97,-131.29 355.74,-125.34 345.18,-124.52 346.97,-131.29"/>
</a>
</g>
</g>
<!-- Node14&#45;&gt;Node4 -->
<g id="edge15_Node000014_Node000004" class="edge">
<title>Node14&#45;&gt;Node4</title>
<g id="a_edge15_Node000014_Node000004"><a xlink:title=" ">
<path fill="none" stroke="#63b8ff" d="M427.58,-93.07C433.07,-95.31 438.34,-98.08 443,-101.5 469.17,-120.68 486.79,-155.03 495.84,-176.47"/>
<polygon fill="#63b8ff" stroke="#63b8ff" points="492.62,-177.85 499.59,-185.83 499.12,-175.25 492.62,-177.85"/>
</a>
</g>
</g>
<!-- Node14&#45;&gt;Node15 -->
<g id="edge14_Node000014_Node000015" class="edge">
<title>Node14&#45;&gt;Node15</title>
<g id="a_edge14_Node000014_Node000015"><a xlink:title=" ">
<path fill="none" stroke="#63b8ff" d="M439.87,-73.94C452.94,-71.99 465.98,-70.04 476.79,-68.42"/>
<polygon fill="#63b8ff" stroke="#63b8ff" points="477.4,-71.87 486.77,-66.93 476.37,-64.95 477.4,-71.87"/>
</a>
</g>
</g>
</g>
</svg>

<g id="navigator" transform="translate(0 0)" fill="#404254">
  <rect fill="#f2f5e9" fill-opacity="0.5" stroke="#606060" stroke-width=".5" x="0" y="0" width="60" height="60"/>
  <use id="zoomplus" xlink:href="#zoomPlus" x="17" y="9" onmousedown="handleZoom(evt,'in')"/>
  <use id="zoomminus" xlink:href="#zoomMin" x="42" y="9" onmousedown="handleZoom(evt,'out')"/>
  <use id="reset" xlink:href="#resetDef" x="30" y="36" onmousedown="handleReset()"/>
   <use id="arrowup" xlink:href="#arrowUp" x="0" y="0" onmousedown="handlePan(0,-1)"/>
  <use id="arrowright" xlink:href="#arrowRight" x="0" y="0" onmousedown="handlePan(1,0)"/>
  <use id="arrowdown" xlink:href="#arrowDown" x="0" y="0" onmousedown="handlePan(0,1)"/>
  <use id="arrowleft" xlink:href="#arrowLeft" x="0" y="0" onmousedown="handlePan(-1,0)"/>
</g>
<svg viewBox="0 0 15 15" width="100%" height="30px" preserveAspectRatio="xMaxYMin meet">
 <g id="arrow_out" transform="scale(0.3 0.3)">
  <a xlink:href="main_8c_a636a8f7f82b7bc4dabb749e9c7fe75a9_cgraph_org.svg" target="_base">
   <rect id="button" ry="5" rx="5" y="6" x="6" height="38" width="38"
        fill="#f2f5e9" fill-opacity="0.5" stroke="#606060" stroke-width="1.0"/>
   <path id="arrow"
     d="M 11.500037,31.436501 C 11.940474,20.09759 22.043105,11.32322 32.158766,21.979434 L 37.068811,17.246167 C 37.068811,17.246167 37.088388,32 37.088388,32 L 22.160133,31.978069 C 22.160133,31.978069 26.997745,27.140456 26.997745,27.140456 C 18.528582,18.264221 13.291696,25.230495 11.500037,31.436501 z"
     style="fill:#404040;"/>
  </a>
 </g>
</svg>

<style type='text/css'>
<![CDATA[
[data-mouse-over-selected='false'] { opacity: 0.7; }
[data-mouse-over-selected='true']  { opacity: 1.0; }
]]>
</style>
<script type="application/ecmascript"><![CDATA[
document.addEventListener('DOMContentLoaded', (event) => {
  highlightEdges();
  highlightAdjacentNodes();
});
]]></script>
</svg>
