<?xml version="1.0" encoding="UTF-8" standalone="no"?>
<!DOCTYPE svg PUBLIC "-//W3C//DTD SVG 1.1//EN"
 "http://www.w3.org/Graphics/SVG/1.1/DTD/svg11.dtd">
<!-- Generated by graphviz version 2.43.0 (0)
 -->
<!-- Title: CleanupAndFinalize Pages: 1 -->
<svg width="859pt" height="175pt"
 viewBox="0.00 0.00 859.00 175.00" xmlns="http://www.w3.org/2000/svg" xmlns:xlink="http://www.w3.org/1999/xlink">
<g id="graph0" class="graph" transform="scale(1 1) rotate(0) translate(4 171)">
<title>CleanupAndFinalize</title>
<!-- Node1 -->
<g id="Node000001" class="node">
<title>Node1</title>
<g id="a_Node000001"><a xlink:title=" ">
<polygon fill="#999999" stroke="#666666" points="113,-74 0,-74 0,-55 113,-55 113,-74"/>
<text text-anchor="middle" x="56.5" y="-62" font-family="Helvetica,sans-Serif" font-size="10.00">CleanupAndFinalize</text>
</a>
</g>
</g>
<!-- Node2 -->
<g id="Node000002" class="node">
<title>Node2</title>
<g id="a_Node000002"><a xlink:href="cuda__wrapper_8cpp.html#aa4206262d6cba1bafdadf7bc0741d916" target="_top" xlink:title=" ">
<polygon fill="white" stroke="#666666" points="289.5,-130 156.5,-130 156.5,-111 289.5,-111 289.5,-130"/>
<text text-anchor="middle" x="223" y="-118" font-family="Helvetica,sans-Serif" font-size="10.00">DestroyCudaWorkspace</text>
</a>
</g>
</g>
<!-- Node1&#45;&gt;Node2 -->
<g id="edge1_Node000001_Node000002" class="edge">
<title>Node1&#45;&gt;Node2</title>
<g id="a_edge1_Node000001_Node000002"><a xlink:title=" ">
<path fill="none" stroke="#63b8ff" d="M77.88,-74.01C96.2,-82.31 124,-94.28 149,-102.5 155.33,-104.58 162.04,-106.55 168.73,-108.37"/>
<polygon fill="#63b8ff" stroke="#63b8ff" points="167.9,-111.77 178.46,-110.91 169.67,-104.99 167.9,-111.77"/>
</a>
</g>
</g>
<!-- Node6 -->
<g id="Node000006" class="node">
<title>Node6</title>
<g id="a_Node000006"><a xlink:href="kokkos__stub_8c.html#a72c6b2aedb59b6f1180fb56339623083" target="_top" xlink:title=" ">
<polygon fill="white" stroke="#666666" points="294.5,-93 151.5,-93 151.5,-74 294.5,-74 294.5,-93"/>
<text text-anchor="middle" x="223" y="-81" font-family="Helvetica,sans-Serif" font-size="10.00">DestroyKokkosWorkspace</text>
</a>
</g>
</g>
<!-- Node1&#45;&gt;Node6 -->
<g id="edge5_Node000001_Node000006" class="edge">
<title>Node1&#45;&gt;Node6</title>
<g id="a_edge5_Node000001_Node000006"><a xlink:title=" ">
<path fill="none" stroke="#63b8ff" d="M113.19,-70.93C122.32,-71.99 131.94,-73.1 141.53,-74.21"/>
<polygon fill="#63b8ff" stroke="#63b8ff" points="141.16,-77.69 151.49,-75.36 141.96,-70.73 141.16,-77.69"/>
</a>
</g>
</g>
<!-- Node7 -->
<g id="Node000007" class="node">
<title>Node7</title>
<g id="a_Node000007"><a xlink:href="dmplex__geom_8c.html#acd9d927472d6fc4a438b9c505e2f27c7" target="_top" xlink:title="Destroy the persistent DMPlex geometry context in fem&#45;&gt;geom_ctx.">
<polygon fill="white" stroke="#666666" points="297,-56 149,-56 149,-37 297,-37 297,-56"/>
<text text-anchor="middle" x="223" y="-44" font-family="Helvetica,sans-Serif" font-size="10.00">FEM_DMPlexGeomDestroy</text>
</a>
</g>
</g>
<!-- Node1&#45;&gt;Node7 -->
<g id="edge6_Node000001_Node000007" class="edge">
<title>Node1&#45;&gt;Node7</title>
<g id="a_edge6_Node000001_Node000007"><a xlink:title=" ">
<path fill="none" stroke="#63b8ff" d="M113.19,-58.41C121.43,-57.5 130.07,-56.56 138.72,-55.61"/>
<polygon fill="#63b8ff" stroke="#63b8ff" points="139.31,-59.07 148.87,-54.5 138.55,-52.11 139.31,-59.07"/>
</a>
</g>
</g>
<!-- Node10 -->
<g id="Node000010" class="node">
<title>Node10</title>
<g id="a_Node000010"><a xlink:href="main_8c.html#aa692271940ef81508149ad72c16c92c3" target="_top" xlink:title=" ">
<polygon fill="white" stroke="#666666" points="242,-19 204,-19 204,0 242,0 242,-19"/>
<text text-anchor="middle" x="223" y="-7" font-family="Helvetica,sans-Serif" font-size="10.00">Free</text>
</a>
</g>
</g>
<!-- Node1&#45;&gt;Node10 -->
<g id="edge9_Node000001_Node000010" class="edge">
<title>Node1&#45;&gt;Node10</title>
<g id="a_edge9_Node000001_Node000010"><a xlink:title=" ">
<path fill="none" stroke="#63b8ff" d="M79.79,-54.86C98.15,-47.13 124.98,-36.32 149,-28.5 163.69,-23.72 180.33,-19.31 194.02,-15.95"/>
<polygon fill="#63b8ff" stroke="#63b8ff" points="194.92,-19.33 203.83,-13.59 193.28,-12.52 194.92,-19.33"/>
</a>
</g>
</g>
<!-- Node3 -->
<g id="Node000003" class="node">
<title>Node3</title>
<g id="a_Node000003"><a xlink:href="cuda__wrapper_8cpp.html#a5c7fed81035e28c02fbcf4121e806152" target="_top" xlink:title=" ">
<polygon fill="white" stroke="#666666" points="492.5,-167 344.5,-167 344.5,-148 492.5,-148 492.5,-167"/>
<text text-anchor="middle" x="418.5" y="-155" font-family="Helvetica,sans-Serif" font-size="10.00">ClearCudaHostWorkspace_</text>
</a>
</g>
</g>
<!-- Node2&#45;&gt;Node3 -->
<g id="edge2_Node000002_Node000003" class="edge">
<title>Node2&#45;&gt;Node3</title>
<g id="a_edge2_Node000002_Node000003"><a xlink:title=" ">
<path fill="none" stroke="#63b8ff" d="M273.83,-130.03C299.35,-134.91 330.61,-140.89 357.45,-146.02"/>
<polygon fill="#63b8ff" stroke="#63b8ff" points="357.02,-149.5 367.5,-147.94 358.34,-142.62 357.02,-149.5"/>
</a>
</g>
</g>
<!-- Node5 -->
<g id="Node000005" class="node">
<title>Node5</title>
<g id="a_Node000005"><a xlink:href="cuda__wrapper_8cpp.html#af86dc1061822ed2e46121397481877ac" target="_top" xlink:title=" ">
<polygon fill="white" stroke="#666666" points="496,-130 341,-130 341,-111 496,-111 496,-130"/>
<text text-anchor="middle" x="418.5" y="-118" font-family="Helvetica,sans-Serif" font-size="10.00">DestroyCudaWorkspaceImpl</text>
</a>
</g>
</g>
<!-- Node2&#45;&gt;Node5 -->
<g id="edge4_Node000002_Node000005" class="edge">
<title>Node2&#45;&gt;Node5</title>
<g id="a_edge4_Node000002_Node000005"><a xlink:title=" ">
<path fill="none" stroke="#63b8ff" d="M289.51,-120.5C302.74,-120.5 316.85,-120.5 330.69,-120.5"/>
<polygon fill="#63b8ff" stroke="#63b8ff" points="330.69,-124 340.69,-120.5 330.69,-117 330.69,-124"/>
</a>
</g>
</g>
<!-- Node4 -->
<g id="Node000004" class="node">
<title>Node4</title>
<g id="a_Node000004"><a xlink:href="cuda__wrapper_8cpp.html#a8ed7f3b582b539fb1733f501be4be1c2" target="_top" xlink:title=" ">
<polygon fill="white" stroke="#666666" points="673,-167 560,-167 560,-148 673,-148 673,-167"/>
<text text-anchor="middle" x="616.5" y="-155" font-family="Helvetica,sans-Serif" font-size="10.00">ReleaseHostBuffer_</text>
</a>
</g>
</g>
<!-- Node3&#45;&gt;Node4 -->
<g id="edge3_Node000003_Node000004" class="edge">
<title>Node3&#45;&gt;Node4</title>
<g id="a_edge3_Node000003_Node000004"><a xlink:title=" ">
<path fill="none" stroke="#63b8ff" d="M492.76,-157.5C511.39,-157.5 531.3,-157.5 549.54,-157.5"/>
<polygon fill="#63b8ff" stroke="#63b8ff" points="549.77,-161 559.77,-157.5 549.77,-154 549.77,-161"/>
</a>
</g>
</g>
<!-- Node8 -->
<g id="Node000008" class="node">
<title>Node8</title>
<g id="a_Node000008"><a xlink:href="dmplex__geom_8c.html#a7e60d333a6f6667a8a2f4fdb3651a3f4" target="_top" xlink:title="Free all heap memory owned by a DMPlexPatchExchange and zero the struct.">
<polygon fill="white" stroke="#666666" points="504,-93 333,-93 333,-74 504,-74 504,-93"/>
<text text-anchor="middle" x="418.5" y="-81" font-family="Helvetica,sans-Serif" font-size="10.00">DMPlexPatchExchangeDestroy_</text>
</a>
</g>
</g>
<!-- Node7&#45;&gt;Node8 -->
<g id="edge7_Node000007_Node000008" class="edge">
<title>Node7&#45;&gt;Node8</title>
<g id="a_edge7_Node000007_Node000008"><a xlink:title=" ">
<path fill="none" stroke="#63b8ff" d="M273.83,-56.03C299.35,-60.91 330.61,-66.89 357.45,-72.02"/>
<polygon fill="#63b8ff" stroke="#63b8ff" points="357.02,-75.5 367.5,-73.94 358.34,-68.62 357.02,-75.5"/>
</a>
</g>
</g>
<!-- Node9 -->
<g id="Node000009" class="node">
<title>Node9</title>
<g id="a_Node000009"><a xlink:href="dmplex__geom_8c.html#a8661deca8813ac6ed08fa660b602fefe" target="_top" xlink:title="Free all heap memory owned by a DMPlexPatchLayout and zero the struct.">
<polygon fill="white" stroke="#666666" points="497,-56 340,-56 340,-37 497,-37 497,-56"/>
<text text-anchor="middle" x="418.5" y="-44" font-family="Helvetica,sans-Serif" font-size="10.00">DMPlexPatchLayoutDestroy_</text>
</a>
</g>
</g>
<!-- Node7&#45;&gt;Node9 -->
<g id="edge8_Node000007_Node000009" class="edge">
<title>Node7&#45;&gt;Node9</title>
<g id="a_edge8_Node000007_Node000009"><a xlink:title=" ">
<path fill="none" stroke="#63b8ff" d="M297.15,-46.5C307.7,-46.5 318.64,-46.5 329.44,-46.5"/>
<polygon fill="#63b8ff" stroke="#63b8ff" points="329.72,-50 339.72,-46.5 329.72,-43 329.72,-50"/>
</a>
</g>
</g>
<!-- Node11 -->
<g id="Node000011" class="node">
<title>Node11</title>
<g id="a_Node000011"><a xlink:href="active__strain_8c.html#ade1ca2d21184dfd18064f53cc91192fa" target="_top" xlink:title="Free all active&#45;strain data allocated in ActDataAllocate().">
<polygon fill="white" stroke="#666666" points="465.5,-19 371.5,-19 371.5,0 465.5,0 465.5,-19"/>
<text text-anchor="middle" x="418.5" y="-7" font-family="Helvetica,sans-Serif" font-size="10.00">ActDataDestroy</text>
</a>
</g>
</g>
<!-- Node10&#45;&gt;Node11 -->
<g id="edge10_Node000010_Node000011" class="edge">
<title>Node10&#45;&gt;Node11</title>
<g id="a_edge10_Node000010_Node000011"><a xlink:title=" ">
<path fill="none" stroke="#63b8ff" d="M242.2,-9.5C269.12,-9.5 320.69,-9.5 360.96,-9.5"/>
<polygon fill="#63b8ff" stroke="#63b8ff" points="361.19,-13 371.19,-9.5 361.19,-6 361.19,-13"/>
</a>
</g>
</g>
<!-- Node12 -->
<g id="Node000012" class="node">
<title>Node12</title>
<g id="a_Node000012"><a xlink:href="active__strain_8c.html#aab13749d1d679119e5bef64c4d6855e1" target="_top" xlink:title=" ">
<polygon fill="white" stroke="#666666" points="693,-19 540,-19 540,0 693,0 693,-19"/>
<text text-anchor="middle" x="616.5" y="-7" font-family="Helvetica,sans-Serif" font-size="10.00">ElemActDataGeomDestroy_</text>
</a>
</g>
</g>
<!-- Node11&#45;&gt;Node12 -->
<g id="edge11_Node000011_Node000012" class="edge">
<title>Node11&#45;&gt;Node12</title>
<g id="a_edge11_Node000011_Node000012"><a xlink:title=" ">
<path fill="none" stroke="#63b8ff" d="M465.95,-9.5C485.09,-9.5 507.9,-9.5 529.87,-9.5"/>
<polygon fill="#63b8ff" stroke="#63b8ff" points="529.89,-13 539.89,-9.5 529.89,-6 529.89,-13"/>
</a>
</g>
</g>
<!-- Node13 -->
<g id="Node000013" class="node">
<title>Node13</title>
<g id="a_Node000013"><a xlink:href="active__strain_8c.html#aec9298d5baa8b311cfc29be8cac191fa" target="_top" xlink:title=" ">
<polygon fill="white" stroke="#666666" points="851,-19 729,-19 729,0 851,0 851,-19"/>
<text text-anchor="middle" x="790" y="-7" font-family="Helvetica,sans-Serif" font-size="10.00">SubdivGeomDestroy_</text>
</a>
</g>
</g>
<!-- Node12&#45;&gt;Node13 -->
<g id="edge12_Node000012_Node000013" class="edge">
<title>Node12&#45;&gt;Node13</title>
<g id="a_edge12_Node000012_Node000013"><a xlink:title=" ">
<path fill="none" stroke="#63b8ff" d="M693.22,-9.5C701.71,-9.5 710.32,-9.5 718.74,-9.5"/>
<polygon fill="#63b8ff" stroke="#63b8ff" points="718.87,-13 728.87,-9.5 718.87,-6 718.87,-13"/>
</a>
</g>
</g>
</g>
</svg>
