<?xml version="1.0" encoding="UTF-8" standalone="no"?>
<!DOCTYPE svg PUBLIC "-//W3C//DTD SVG 1.1//EN"
 "http://www.w3.org/Graphics/SVG/1.1/DTD/svg11.dtd">
<!-- Generated by graphviz version 2.43.0 (0)
 -->
<!-- Title: main.c Pages: 1 -->
<!--zoomable 313 -->

<svg id="main" version="1.1" xmlns="http://www.w3.org/2000/svg" xmlns:xlink="http://www.w3.org/1999/xlink" xml:space="preserve" onload="init(evt)">
<style type="text/css"><![CDATA[
.node, .edge {opacity: 0.7;}
.node.selected, .edge.selected {opacity: 1;}
.edge:hover path { stroke: red; }
.edge:hover polygon { stroke: red; fill: red; }
]]></style>

<defs>
  <circle id="rim" cx="0" cy="0" r="7"/>
  <circle id="rim2" cx="0" cy="0" r="3.5"/>
  <g id="zoomPlus">
    <use xlink:href="#rim" fill="#404040"><set attributeName="fill" to="#808080" begin="zoomplus.mouseover" end="zoomplus.mouseout"/></use>
    <path d="M-4,0h8M0,-4v8" fill="none" stroke="white" stroke-width="1.5" pointer-events="none"/>
  </g>
  <g id="zoomMin">
    <use xlink:href="#rim" fill="#404040"><set attributeName="fill" to="#808080" begin="zoomminus.mouseover" end="zoomminus.mouseout"/></use>
    <path d="M-4,0h8" fill="none" stroke="white" stroke-width="1.5" pointer-events="none"/>
  </g>
  <g id="arrowUp" transform="translate(30 24)">
    <use xlink:href="#rim"/>
    <path pointer-events="none" fill="none" stroke="white" stroke-width="1.5" d="M0,-3.0v7 M-2.5,-0.5L0,-3.0L2.5,-0.5"/>
  </g>
  <g id="arrowRight" transform="rotate(90) translate(36 -43)">
    <use xlink:href="#rim"/>
    <path pointer-events="none" fill="none" stroke="white" stroke-width="1.5" d="M0,-3.0v7 M-2.5,-0.5L0,-3.0L2.5,-0.5"/>
  </g>
  <g id="arrowDown" transform="rotate(180) translate(-30 -48)">
    <use xlink:href="#rim"/>
    <path pointer-events="none" fill="none" stroke="white" stroke-width="1.5" d="M0,-3.0v7 M-2.5,-0.5L0,-3.0L2.5,-0.5"/>
  </g>
  <g id="arrowLeft" transform="rotate(270) translate(-36 17)">
    <use xlink:href="#rim"/>
    <path pointer-events="none" fill="none" stroke="white" stroke-width="1.5" d="M0,-3.0v7 M-2.5,-0.5L0,-3.0L2.5,-0.5"/>
  </g>
  <g id="resetDef">
    <use xlink:href="#rim2" fill="#404040"><set attributeName="fill" to="#808080" begin="reset.mouseover" end="reset.mouseout"/></use>
  </g>
</defs>
<script type="application/ecmascript">
var viewWidth = 1598;
var viewHeight = 313;
var sectionId = 'dynsection-0';
</script>
<script type="application/ecmascript" xlink:href="svg.min.js"/>
<svg id="graph" class="graph">
<g id="viewport">
<title>main.c</title>
<!-- Node1 -->
<g id="Node000001" class="node">
<title>Node1</title>
<g id="a_Node000001"><a xlink:title=" ">
<polygon fill="#999999" stroke="#666666" points="618.67,-305 568.67,-305 568.67,-286 618.67,-286 618.67,-305"/>
<text text-anchor="middle" x="593.67" y="-293" font-family="Helvetica,sans-Serif" font-size="10.00">main.c</text>
</a>
</g>
</g>
<!-- Node2 -->
<g id="Node000002" class="node">
<title>Node2</title>
<g id="a_Node000002"><a xlink:href="variables_8h.html" target="_top" xlink:title=" ">
<polygon fill="white" stroke="#666666" points="1086.17,-184 1015.17,-184 1015.17,-165 1086.17,-165 1086.17,-184"/>
<text text-anchor="middle" x="1050.67" y="-172" font-family="Helvetica,sans-Serif" font-size="10.00">variables.h</text>
</a>
</g>
</g>
<!-- Node1&#45;&gt;Node2 -->
<g id="edge1_Node000001_Node000002" class="edge">
<title>Node1&#45;&gt;Node2</title>
<g id="a_edge1_Node000001_Node000002"><a xlink:title=" ">
<path fill="none" stroke="#63b8ff" d="M568.57,-294.52C462.48,-294.35 54.64,-291.01 16.67,-250 7.61,-240.22 7.45,-229.63 16.67,-220 51.28,-183.87 808.68,-176.92 1004.69,-175.73"/>
<polygon fill="#63b8ff" stroke="#63b8ff" points="1004.96,-179.23 1014.93,-175.67 1004.91,-172.23 1004.96,-179.23"/>
</a>
</g>
</g>
<!-- Node4 -->
<g id="Node000004" class="node">
<title>Node4</title>
<g id="a_Node000004"><a xlink:href="math_8h.html" target="_top" xlink:title=" ">
<polygon fill="white" stroke="#666666" points="1004.17,-74 953.17,-74 953.17,-55 1004.17,-55 1004.17,-74"/>
<text text-anchor="middle" x="978.67" y="-62" font-family="Helvetica,sans-Serif" font-size="10.00">math.h</text>
</a>
</g>
</g>
<!-- Node1&#45;&gt;Node4 -->
<g id="edge13_Node000001_Node000004" class="edge">
<title>Node1&#45;&gt;Node4</title>
<g id="a_edge13_Node000001_Node000004"><a xlink:title=" ">
<path fill="none" stroke="#63b8ff" d="M568.49,-294.56C461.14,-294.53 45.36,-291.74 6.67,-250 -2.39,-240.22 -1.99,-230.14 6.67,-220 130.84,-74.54 781.09,-65.33 942.42,-65.32"/>
<polygon fill="#63b8ff" stroke="#63b8ff" points="942.75,-68.82 952.75,-65.33 942.76,-61.82 942.75,-68.82"/>
</a>
</g>
</g>
<!-- Node11 -->
<g id="Node000011" class="node">
<title>Node11</title>
<g id="a_Node000011"><a xlink:title=" ">
<polygon fill="#e0e0e0" stroke="#999999" points="75.67,-244.5 25.67,-244.5 25.67,-225.5 75.67,-225.5 75.67,-244.5"/>
<text text-anchor="middle" x="50.67" y="-232.5" font-family="Helvetica,sans-Serif" font-size="10.00">stdio.h</text>
</a>
</g>
</g>
<!-- Node1&#45;&gt;Node11 -->
<g id="edge14_Node000001_Node000011" class="edge">
<title>Node1&#45;&gt;Node11</title>
<g id="a_edge14_Node000001_Node000011"><a xlink:title=" ">
<path fill="none" stroke="#63b8ff" d="M568.61,-294.97C493.85,-295.8 266.31,-294.24 84.67,-250 82.5,-249.47 80.3,-248.83 78.1,-248.11"/>
<polygon fill="#63b8ff" stroke="#63b8ff" points="79.27,-244.81 68.68,-244.6 76.83,-251.37 79.27,-244.81"/>
</a>
</g>
</g>
<!-- Node12 -->
<g id="Node000012" class="node">
<title>Node12</title>
<g id="a_Node000012"><a xlink:title=" ">
<polygon fill="#e0e0e0" stroke="#999999" points="189.17,-244.5 94.17,-244.5 94.17,-225.5 189.17,-225.5 189.17,-244.5"/>
<text text-anchor="middle" x="141.67" y="-232.5" font-family="Helvetica,sans-Serif" font-size="10.00">petscsystypes.h</text>
</a>
</g>
</g>
<!-- Node1&#45;&gt;Node12 -->
<g id="edge15_Node000001_Node000012" class="edge">
<title>Node1&#45;&gt;Node12</title>
<g id="a_edge15_Node000001_Node000012"><a xlink:title=" ">
<path fill="none" stroke="#63b8ff" d="M568.48,-292.84C505.56,-288.43 336.56,-275.05 197.67,-250 192.68,-249.1 187.48,-248.01 182.34,-246.84"/>
<polygon fill="#63b8ff" stroke="#63b8ff" points="183.15,-243.43 172.61,-244.52 181.53,-250.24 183.15,-243.43"/>
</a>
</g>
</g>
<!-- Node13 -->
<g id="Node000013" class="node">
<title>Node13</title>
<g id="a_Node000013"><a xlink:title=" ">
<polygon fill="#e0e0e0" stroke="#999999" points="284.17,-244.5 207.17,-244.5 207.17,-225.5 284.17,-225.5 284.17,-244.5"/>
<text text-anchor="middle" x="245.67" y="-232.5" font-family="Helvetica,sans-Serif" font-size="10.00">sys/mman.h</text>
</a>
</g>
</g>
<!-- Node1&#45;&gt;Node13 -->
<g id="edge16_Node000001_Node000013" class="edge">
<title>Node1&#45;&gt;Node13</title>
<g id="a_edge16_Node000001_Node000013"><a xlink:title=" ">
<path fill="none" stroke="#63b8ff" d="M568.57,-291.95C516.78,-286.43 394.48,-272.07 293.67,-250 289.98,-249.19 286.15,-248.25 282.34,-247.25"/>
<polygon fill="#63b8ff" stroke="#63b8ff" points="282.99,-243.8 272.41,-244.5 281.12,-250.54 282.99,-243.8"/>
</a>
</g>
</g>
<!-- Node14 -->
<g id="Node000014" class="node">
<title>Node14</title>
<g id="a_Node000014"><a xlink:title=" ">
<polygon fill="#e0e0e0" stroke="#999999" points="366.67,-244.5 302.67,-244.5 302.67,-225.5 366.67,-225.5 366.67,-244.5"/>
<text text-anchor="middle" x="334.67" y="-232.5" font-family="Helvetica,sans-Serif" font-size="10.00">sys/stat.h</text>
</a>
</g>
</g>
<!-- Node1&#45;&gt;Node14 -->
<g id="edge17_Node000001_Node000014" class="edge">
<title>Node1&#45;&gt;Node14</title>
<g id="a_edge17_Node000001_Node000014"><a xlink:title=" ">
<path fill="none" stroke="#63b8ff" d="M568.58,-290.45C527.77,-283.63 444.63,-268.73 375.67,-250 373.04,-249.29 370.33,-248.49 367.62,-247.66"/>
<polygon fill="#63b8ff" stroke="#63b8ff" points="368.52,-244.27 357.93,-244.52 366.36,-250.93 368.52,-244.27"/>
</a>
</g>
</g>
<!-- Node15 -->
<g id="Node000015" class="node">
<title>Node15</title>
<g id="a_Node000015"><a xlink:title=" ">
<polygon fill="#e0e0e0" stroke="#999999" points="432.17,-244.5 385.17,-244.5 385.17,-225.5 432.17,-225.5 432.17,-244.5"/>
<text text-anchor="middle" x="408.67" y="-232.5" font-family="Helvetica,sans-Serif" font-size="10.00">fcntl.h</text>
</a>
</g>
</g>
<!-- Node1&#45;&gt;Node15 -->
<g id="edge18_Node000001_Node000015" class="edge">
<title>Node1&#45;&gt;Node15</title>
<g id="a_edge18_Node000001_Node000015"><a xlink:title=" ">
<path fill="none" stroke="#63b8ff" d="M568.64,-288.13C538.28,-280.19 485.69,-265.72 441.67,-250 440.24,-249.49 438.79,-248.95 437.32,-248.39"/>
<polygon fill="#63b8ff" stroke="#63b8ff" points="438.3,-245.01 427.72,-244.53 435.69,-251.51 438.3,-245.01"/>
</a>
</g>
</g>
<!-- Node16 -->
<g id="Node000016" class="node">
<title>Node16</title>
<g id="a_Node000016"><a xlink:title=" ">
<polygon fill="#e0e0e0" stroke="#999999" points="506.67,-244.5 450.67,-244.5 450.67,-225.5 506.67,-225.5 506.67,-244.5"/>
<text text-anchor="middle" x="478.67" y="-232.5" font-family="Helvetica,sans-Serif" font-size="10.00">unistd.h</text>
</a>
</g>
</g>
<!-- Node1&#45;&gt;Node16 -->
<g id="edge19_Node000001_Node000016" class="edge">
<title>Node1&#45;&gt;Node16</title>
<g id="a_edge19_Node000001_Node000016"><a xlink:title=" ">
<path fill="none" stroke="#63b8ff" d="M576.7,-285.87C557.76,-276.23 526.89,-260.53 504.85,-249.31"/>
<polygon fill="#63b8ff" stroke="#63b8ff" points="506.21,-246.08 495.71,-244.67 503.04,-252.32 506.21,-246.08"/>
</a>
</g>
</g>
<!-- Node17 -->
<g id="Node000017" class="node">
<title>Node17</title>
<g id="a_Node000017"><a xlink:title=" ">
<polygon fill="#e0e0e0" stroke="#999999" points="586.67,-244.5 524.67,-244.5 524.67,-225.5 586.67,-225.5 586.67,-244.5"/>
<text text-anchor="middle" x="555.67" y="-232.5" font-family="Helvetica,sans-Serif" font-size="10.00">stdbool.h</text>
</a>
</g>
</g>
<!-- Node1&#45;&gt;Node17 -->
<g id="edge20_Node000001_Node000017" class="edge">
<title>Node1&#45;&gt;Node17</title>
<g id="a_edge20_Node000001_Node000017"><a xlink:title=" ">
<path fill="none" stroke="#63b8ff" d="M588.06,-285.87C582.51,-277.31 573.84,-263.97 566.87,-253.24"/>
<polygon fill="#63b8ff" stroke="#63b8ff" points="569.68,-251.15 561.3,-244.67 563.81,-254.96 569.68,-251.15"/>
</a>
</g>
</g>
<!-- Node18 -->
<g id="Node000018" class="node">
<title>Node18</title>
<g id="a_Node000018"><a xlink:title=" ">
<polygon fill="#e0e0e0" stroke="#999999" points="658.17,-244.5 605.17,-244.5 605.17,-225.5 658.17,-225.5 658.17,-244.5"/>
<text text-anchor="middle" x="631.67" y="-232.5" font-family="Helvetica,sans-Serif" font-size="10.00">stdlib.h</text>
</a>
</g>
</g>
<!-- Node1&#45;&gt;Node18 -->
<g id="edge21_Node000001_Node000018" class="edge">
<title>Node1&#45;&gt;Node18</title>
<g id="a_edge21_Node000001_Node000018"><a xlink:title=" ">
<path fill="none" stroke="#63b8ff" d="M599.28,-285.87C604.83,-277.31 613.5,-263.97 620.47,-253.24"/>
<polygon fill="#63b8ff" stroke="#63b8ff" points="623.53,-254.96 626.04,-244.67 617.66,-251.15 623.53,-254.96"/>
</a>
</g>
</g>
<!-- Node19 -->
<g id="Node000019" class="node">
<title>Node19</title>
<g id="a_Node000019"><a xlink:href="active__strain_8h.html" target="_top" xlink:title=" ">
<polygon fill="white" stroke="#666666" points="765.17,-244.5 676.17,-244.5 676.17,-225.5 765.17,-225.5 765.17,-244.5"/>
<text text-anchor="middle" x="720.67" y="-232.5" font-family="Helvetica,sans-Serif" font-size="10.00">active_strain.h</text>
</a>
</g>
</g>
<!-- Node1&#45;&gt;Node19 -->
<g id="edge22_Node000001_Node000019" class="edge">
<title>Node1&#45;&gt;Node19</title>
<g id="a_edge22_Node000001_Node000019"><a xlink:title=" ">
<path fill="none" stroke="#63b8ff" d="M612.14,-285.99C633.39,-276.2 668.52,-260.02 693.04,-248.73"/>
<polygon fill="#63b8ff" stroke="#63b8ff" points="694.56,-251.88 702.18,-244.52 691.63,-245.52 694.56,-251.88"/>
</a>
</g>
</g>
<!-- Node20 -->
<g id="Node000020" class="node">
<title>Node20</title>
<g id="a_Node000020"><a xlink:href="cuda__bridge_8h.html" target="_top" xlink:title=" ">
<polygon fill="white" stroke="#666666" points="868.17,-244.5 783.17,-244.5 783.17,-225.5 868.17,-225.5 868.17,-244.5"/>
<text text-anchor="middle" x="825.67" y="-232.5" font-family="Helvetica,sans-Serif" font-size="10.00">cuda_bridge.h</text>
</a>
</g>
</g>
<!-- Node1&#45;&gt;Node20 -->
<g id="edge23_Node000001_Node000020" class="edge">
<title>Node1&#45;&gt;Node20</title>
<g id="a_edge23_Node000001_Node000020"><a xlink:title=" ">
<path fill="none" stroke="#63b8ff" d="M618.75,-288.47C653.57,-280.06 718.5,-264.24 773.67,-250 777.23,-249.08 780.92,-248.11 784.62,-247.14"/>
<polygon fill="#63b8ff" stroke="#63b8ff" points="785.59,-250.5 794.35,-244.54 783.79,-243.74 785.59,-250.5"/>
</a>
</g>
</g>
<!-- Node21 -->
<g id="Node000021" class="node">
<title>Node21</title>
<g id="a_Node000021"><a xlink:href="kokkos__bridge_8h.html" target="_top" xlink:title=" ">
<polygon fill="white" stroke="#666666" points="981.17,-244.5 886.17,-244.5 886.17,-225.5 981.17,-225.5 981.17,-244.5"/>
<text text-anchor="middle" x="933.67" y="-232.5" font-family="Helvetica,sans-Serif" font-size="10.00">kokkos_bridge.h</text>
</a>
</g>
</g>
<!-- Node1&#45;&gt;Node21 -->
<g id="edge25_Node000001_Node000021" class="edge">
<title>Node1&#45;&gt;Node21</title>
<g id="a_edge25_Node000001_Node000021"><a xlink:title=" ">
<path fill="none" stroke="#63b8ff" d="M618.78,-291.28C668.33,-284.77 782.08,-269.02 876.67,-250 881.36,-249.06 886.24,-247.99 891.09,-246.88"/>
<polygon fill="#63b8ff" stroke="#63b8ff" points="892,-250.26 900.92,-244.55 890.39,-243.45 892,-250.26"/>
</a>
</g>
</g>
<!-- Node22 -->
<g id="Node000022" class="node">
<title>Node22</title>
<g id="a_Node000022"><a xlink:href="cuda__processes_8h.html" target="_top" xlink:title=" ">
<polygon fill="white" stroke="#666666" points="1102.17,-244.5 999.17,-244.5 999.17,-225.5 1102.17,-225.5 1102.17,-244.5"/>
<text text-anchor="middle" x="1050.67" y="-232.5" font-family="Helvetica,sans-Serif" font-size="10.00">cuda_processes.h</text>
</a>
</g>
</g>
<!-- Node1&#45;&gt;Node22 -->
<g id="edge27_Node000001_Node000022" class="edge">
<title>Node1&#45;&gt;Node22</title>
<g id="a_edge27_Node000001_Node000022"><a xlink:title=" ">
<path fill="none" stroke="#63b8ff" d="M618.83,-292.67C681.69,-287.89 850.54,-273.7 989.67,-250 995.16,-249.06 1000.9,-247.94 1006.56,-246.75"/>
<polygon fill="#63b8ff" stroke="#63b8ff" points="1007.6,-250.1 1016.61,-244.54 1006.09,-243.27 1007.6,-250.1"/>
</a>
</g>
</g>
<!-- Node23 -->
<g id="Node000023" class="node">
<title>Node23</title>
<g id="a_Node000023"><a xlink:href="kokkos__processes_8h.html" target="_top" xlink:title=" ">
<polygon fill="white" stroke="#666666" points="1233.17,-244.5 1120.17,-244.5 1120.17,-225.5 1233.17,-225.5 1233.17,-244.5"/>
<text text-anchor="middle" x="1176.67" y="-232.5" font-family="Helvetica,sans-Serif" font-size="10.00">kokkos_processes.h</text>
</a>
</g>
</g>
<!-- Node1&#45;&gt;Node23 -->
<g id="edge29_Node000001_Node000023" class="edge">
<title>Node1&#45;&gt;Node23</title>
<g id="a_edge29_Node000001_Node000023"><a xlink:title=" ">
<path fill="none" stroke="#63b8ff" d="M618.87,-293.47C694.1,-290.14 923.55,-278.22 1111.67,-250 1117.96,-249.06 1124.56,-247.87 1131.04,-246.59"/>
<polygon fill="#63b8ff" stroke="#63b8ff" points="1131.97,-249.97 1141.06,-244.52 1130.56,-243.11 1131.97,-249.97"/>
</a>
</g>
</g>
<!-- Node24 -->
<g id="Node000024" class="node">
<title>Node24</title>
<g id="a_Node000024"><a xlink:href="manufactured__active__strain_8h.html" target="_top" xlink:title=" ">
<polygon fill="white" stroke="#666666" points="1371.67,-250 1251.67,-250 1251.67,-220 1371.67,-220 1371.67,-250"/>
<text text-anchor="start" x="1259.67" y="-238" font-family="Helvetica,sans-Serif" font-size="10.00">manufactured_active</text>
<text text-anchor="middle" x="1311.67" y="-227" font-family="Helvetica,sans-Serif" font-size="10.00">_strain.h</text>
</a>
</g>
</g>
<!-- Node1&#45;&gt;Node24 -->
<g id="edge31_Node000001_Node000024" class="edge">
<title>Node1&#45;&gt;Node24</title>
<g id="a_edge31_Node000001_Node000024"><a xlink:title=" ">
<path fill="none" stroke="#63b8ff" d="M618.85,-293.97C704.63,-291.9 993.45,-282.87 1241.62,-250.02"/>
<polygon fill="#63b8ff" stroke="#63b8ff" points="1242.09,-253.48 1251.54,-248.69 1241.16,-246.55 1242.09,-253.48"/>
</a>
</g>
</g>
<!-- Node25 -->
<g id="Node000025" class="node">
<title>Node25</title>
<g id="a_Node000025"><a xlink:href="dmplex__geom_8h.html" target="_top" xlink:title=" ">
<polygon fill="white" stroke="#666666" points="1485.17,-244.5 1390.17,-244.5 1390.17,-225.5 1485.17,-225.5 1485.17,-244.5"/>
<text text-anchor="middle" x="1437.67" y="-232.5" font-family="Helvetica,sans-Serif" font-size="10.00">dmplex_geom.h</text>
</a>
</g>
</g>
<!-- Node1&#45;&gt;Node25 -->
<g id="edge33_Node000001_Node000025" class="edge">
<title>Node1&#45;&gt;Node25</title>
<g id="a_edge33_Node000001_Node000025"><a xlink:title=" ">
<path fill="none" stroke="#63b8ff" d="M618.99,-294.76C717.38,-295.4 1083.6,-294.49 1380.67,-250 1386.15,-249.18 1391.87,-248.08 1397.49,-246.85"/>
<polygon fill="#63b8ff" stroke="#63b8ff" points="1398.47,-250.21 1407.41,-244.53 1396.87,-243.4 1398.47,-250.21"/>
</a>
</g>
</g>
<!-- Node26 -->
<g id="Node000026" class="node">
<title>Node26</title>
<g id="a_Node000026"><a xlink:href="lv__geometry_8h.html" target="_top" xlink:title=" ">
<polygon fill="white" stroke="#666666" points="1589.67,-244.5 1503.67,-244.5 1503.67,-225.5 1589.67,-225.5 1589.67,-244.5"/>
<text text-anchor="middle" x="1546.67" y="-232.5" font-family="Helvetica,sans-Serif" font-size="10.00">lv_geometry.h</text>
</a>
</g>
</g>
<!-- Node1&#45;&gt;Node26 -->
<g id="edge35_Node000001_Node000026" class="edge">
<title>Node1&#45;&gt;Node26</title>
<g id="a_edge35_Node000001_Node000026"><a xlink:title=" ">
<path fill="none" stroke="#63b8ff" d="M618.98,-293.98C746.46,-291.25 1319.08,-277.65 1494.67,-250 1499.5,-249.24 1504.52,-248.21 1509.46,-247.04"/>
<polygon fill="#63b8ff" stroke="#63b8ff" points="1510.55,-250.38 1519.38,-244.52 1508.83,-243.59 1510.55,-250.38"/>
</a>
</g>
</g>
<!-- Node3 -->
<g id="Node000003" class="node">
<title>Node3</title>
<g id="a_Node000003"><a xlink:title=" ">
<polygon fill="#e0e0e0" stroke="#999999" points="910.67,-129 836.67,-129 836.67,-110 910.67,-110 910.67,-129"/>
<text text-anchor="middle" x="873.67" y="-117" font-family="Helvetica,sans-Serif" font-size="10.00">petscsnes.h</text>
</a>
</g>
</g>
<!-- Node2&#45;&gt;Node3 -->
<g id="edge2_Node000002_Node000003" class="edge">
<title>Node2&#45;&gt;Node3</title>
<g id="a_edge2_Node000002_Node000003"><a xlink:title=" ">
<path fill="none" stroke="#63b8ff" d="M1022.23,-164.98C992.39,-156.05 945.29,-141.94 912.14,-132.02"/>
<polygon fill="#63b8ff" stroke="#63b8ff" points="912.92,-128.6 902.33,-129.08 910.91,-135.3 912.92,-128.6"/>
</a>
</g>
</g>
<!-- Node2&#45;&gt;Node4 -->
<g id="edge3_Node000002_Node000004" class="edge">
<title>Node2&#45;&gt;Node4</title>
<g id="a_edge3_Node000002_Node000004"><a xlink:title=" ">
<path fill="none" stroke="#63b8ff" d="M1014.75,-166.22C994.23,-160.03 970.17,-148.84 957.67,-129 948.62,-114.63 956.76,-95.96 965.41,-82.58"/>
<polygon fill="#63b8ff" stroke="#63b8ff" points="968.36,-84.48 971.27,-74.29 962.64,-80.44 968.36,-84.48"/>
</a>
</g>
</g>
<!-- Node6 -->
<g id="Node000006" class="node">
<title>Node6</title>
<g id="a_Node000006"><a xlink:title=" ">
<polygon fill="#e0e0e0" stroke="#999999" points="1036.17,-129 967.17,-129 967.17,-110 1036.17,-110 1036.17,-129"/>
<text text-anchor="middle" x="1001.67" y="-117" font-family="Helvetica,sans-Serif" font-size="10.00">petscvec.h</text>
</a>
</g>
</g>
<!-- Node2&#45;&gt;Node6 -->
<g id="edge6_Node000002_Node000006" class="edge">
<title>Node2&#45;&gt;Node6</title>
<g id="a_edge6_Node000002_Node000006"><a xlink:title=" ">
<path fill="none" stroke="#63b8ff" d="M1042.58,-164.75C1035.52,-157.11 1025.08,-145.82 1016.52,-136.56"/>
<polygon fill="#63b8ff" stroke="#63b8ff" points="1018.97,-134.06 1009.61,-129.09 1013.83,-138.81 1018.97,-134.06"/>
</a>
</g>
</g>
<!-- Node7 -->
<g id="Node000007" class="node">
<title>Node7</title>
<g id="a_Node000007"><a xlink:href="act__variables_8h.html" target="_top" xlink:title="Data containers for active&#45;strain kinematics, stress, and material data.">
<polygon fill="white" stroke="#666666" points="1145.17,-129 1054.17,-129 1054.17,-110 1145.17,-110 1145.17,-129"/>
<text text-anchor="middle" x="1099.67" y="-117" font-family="Helvetica,sans-Serif" font-size="10.00">act_variables.h</text>
</a>
</g>
</g>
<!-- Node2&#45;&gt;Node7 -->
<g id="edge7_Node000002_Node000007" class="edge">
<title>Node2&#45;&gt;Node7</title>
<g id="a_edge7_Node000002_Node000007"><a xlink:title=" ">
<path fill="none" stroke="#63b8ff" d="M1058.76,-164.75C1065.83,-157.11 1076.26,-145.82 1084.82,-136.56"/>
<polygon fill="#63b8ff" stroke="#63b8ff" points="1087.51,-138.81 1091.73,-129.09 1082.37,-134.06 1087.51,-138.81"/>
</a>
</g>
</g>
<!-- Node8 -->
<g id="Node000008" class="node">
<title>Node8</title>
<g id="a_Node000008"><a xlink:href="dmplex__types_8h.html" target="_top" xlink:title="Persistent DMPlex geometry context for Loop subdivision surfaces.">
<polygon fill="white" stroke="#666666" points="1258.17,-129 1163.17,-129 1163.17,-110 1258.17,-110 1258.17,-129"/>
<text text-anchor="middle" x="1210.67" y="-117" font-family="Helvetica,sans-Serif" font-size="10.00">dmplex_types.h</text>
</a>
</g>
</g>
<!-- Node2&#45;&gt;Node8 -->
<g id="edge10_Node000002_Node000008" class="edge">
<title>Node2&#45;&gt;Node8</title>
<g id="a_edge10_Node000002_Node000008"><a xlink:title=" ">
<path fill="none" stroke="#63b8ff" d="M1076.38,-164.98C1103.12,-156.13 1145.2,-142.19 1175.12,-132.28"/>
<polygon fill="#63b8ff" stroke="#63b8ff" points="1176.37,-135.55 1184.76,-129.08 1174.17,-128.9 1176.37,-135.55"/>
</a>
</g>
</g>
<!-- Node4&#45;&gt;Node4 -->
<g id="edge4_Node000004_Node000004" class="edge">
<title>Node4&#45;&gt;Node4</title>
<g id="a_edge4_Node000004_Node000004"><a xlink:title=" ">
<path fill="none" stroke="#63b8ff" d="M999.26,-74.07C1011.12,-76.02 1022.17,-72.83 1022.17,-64.5 1022.17,-58.64 1016.71,-55.33 1009.34,-54.55"/>
<polygon fill="#63b8ff" stroke="#63b8ff" points="1009.12,-51.06 999.26,-54.93 1009.38,-58.05 1009.12,-51.06"/>
</a>
</g>
</g>
<!-- Node5 -->
<g id="Node000005" class="node">
<title>Node5</title>
<g id="a_Node000005"><a xlink:title=" ">
<polygon fill="#e0e0e0" stroke="#999999" points="1048.67,-19 980.67,-19 980.67,0 1048.67,0 1048.67,-19"/>
<text text-anchor="middle" x="1014.67" y="-7" font-family="Helvetica,sans-Serif" font-size="10.00">petscsys.h</text>
</a>
</g>
</g>
<!-- Node4&#45;&gt;Node5 -->
<g id="edge5_Node000004_Node000005" class="edge">
<title>Node4&#45;&gt;Node5</title>
<g id="a_edge5_Node000004_Node000005"><a xlink:title=" ">
<path fill="none" stroke="#63b8ff" d="M984.62,-54.75C989.65,-47.34 997.01,-36.5 1003.18,-27.41"/>
<polygon fill="#63b8ff" stroke="#63b8ff" points="1006.11,-29.33 1008.84,-19.09 1000.32,-25.39 1006.11,-29.33"/>
</a>
</g>
</g>
<!-- Node7&#45;&gt;Node4 -->
<g id="edge9_Node000007_Node000004" class="edge">
<title>Node7&#45;&gt;Node4</title>
<g id="a_edge9_Node000007_Node000004"><a xlink:title=" ">
<path fill="none" stroke="#63b8ff" d="M1080.23,-109.98C1060.68,-101.42 1030.29,-88.11 1007.85,-78.28"/>
<polygon fill="#63b8ff" stroke="#63b8ff" points="1009.03,-74.98 998.47,-74.17 1006.22,-81.39 1009.03,-74.98"/>
</a>
</g>
</g>
<!-- Node7&#45;&gt;Node5 -->
<g id="edge8_Node000007_Node000005" class="edge">
<title>Node7&#45;&gt;Node5</title>
<g id="a_edge8_Node000007_Node000005"><a xlink:title=" ">
<path fill="none" stroke="#63b8ff" d="M1092.72,-109.66C1078.51,-91.61 1045.98,-50.28 1027.72,-27.08"/>
<polygon fill="#63b8ff" stroke="#63b8ff" points="1030.42,-24.85 1021.49,-19.16 1024.92,-29.18 1030.42,-24.85"/>
</a>
</g>
</g>
<!-- Node9 -->
<g id="Node000009" class="node">
<title>Node9</title>
<g id="a_Node000009"><a xlink:title=" ">
<polygon fill="#e0e0e0" stroke="#999999" points="1194.17,-74 1105.17,-74 1105.17,-55 1194.17,-55 1194.17,-74"/>
<text text-anchor="middle" x="1149.67" y="-62" font-family="Helvetica,sans-Serif" font-size="10.00">petscdmplex.h</text>
</a>
</g>
</g>
<!-- Node8&#45;&gt;Node9 -->
<g id="edge11_Node000008_Node000009" class="edge">
<title>Node8&#45;&gt;Node9</title>
<g id="a_edge11_Node000008_Node000009"><a xlink:title=" ">
<path fill="none" stroke="#63b8ff" d="M1200.87,-109.98C1191.85,-102.15 1178.27,-90.34 1167.35,-80.86"/>
<polygon fill="#63b8ff" stroke="#63b8ff" points="1169.49,-78.09 1159.65,-74.17 1164.9,-83.37 1169.49,-78.09"/>
</a>
</g>
</g>
<!-- Node10 -->
<g id="Node000010" class="node">
<title>Node10</title>
<g id="a_Node000010"><a xlink:title=" ">
<polygon fill="#e0e0e0" stroke="#999999" points="1271.67,-74 1211.67,-74 1211.67,-55 1271.67,-55 1271.67,-74"/>
<text text-anchor="middle" x="1241.67" y="-62" font-family="Helvetica,sans-Serif" font-size="10.00">petscsf.h</text>
</a>
</g>
</g>
<!-- Node8&#45;&gt;Node10 -->
<g id="edge12_Node000008_Node000010" class="edge">
<title>Node8&#45;&gt;Node10</title>
<g id="a_edge12_Node000008_Node000010"><a xlink:title=" ">
<path fill="none" stroke="#63b8ff" d="M1215.79,-109.75C1220.03,-102.49 1226.2,-91.95 1231.45,-82.98"/>
<polygon fill="#63b8ff" stroke="#63b8ff" points="1234.62,-84.49 1236.65,-74.09 1228.58,-80.95 1234.62,-84.49"/>
</a>
</g>
</g>
<!-- Node20&#45;&gt;Node2 -->
<g id="edge24_Node000020_Node000002" class="edge">
<title>Node20&#45;&gt;Node2</title>
<g id="a_edge24_Node000020_Node000002"><a xlink:title=" ">
<path fill="none" stroke="#63b8ff" d="M856.39,-225.47C863.07,-223.65 870.1,-221.74 876.67,-220 920.84,-208.29 971.45,-195.41 1006.66,-186.53"/>
<polygon fill="#63b8ff" stroke="#63b8ff" points="1007.77,-189.86 1016.62,-184.02 1006.07,-183.07 1007.77,-189.86"/>
</a>
</g>
</g>
<!-- Node21&#45;&gt;Node2 -->
<g id="edge26_Node000021_Node000002" class="edge">
<title>Node21&#45;&gt;Node2</title>
<g id="a_edge26_Node000021_Node000002"><a xlink:title=" ">
<path fill="none" stroke="#63b8ff" d="M950.68,-225.49C970.09,-215.79 1002.06,-199.81 1024.61,-188.53"/>
<polygon fill="#63b8ff" stroke="#63b8ff" points="1026.26,-191.62 1033.64,-184.02 1023.13,-185.36 1026.26,-191.62"/>
</a>
</g>
</g>
<!-- Node22&#45;&gt;Node2 -->
<g id="edge28_Node000022_Node000002" class="edge">
<title>Node22&#45;&gt;Node2</title>
<g id="a_edge28_Node000022_Node000002"><a xlink:title=" ">
<path fill="none" stroke="#63b8ff" d="M1050.67,-225.37C1050.67,-217.25 1050.67,-204.81 1050.67,-194.39"/>
<polygon fill="#63b8ff" stroke="#63b8ff" points="1054.17,-194.17 1050.67,-184.17 1047.17,-194.17 1054.17,-194.17"/>
</a>
</g>
</g>
<!-- Node23&#45;&gt;Node2 -->
<g id="edge30_Node000023_Node000002" class="edge">
<title>Node23&#45;&gt;Node2</title>
<g id="a_edge30_Node000023_Node000002"><a xlink:title=" ">
<path fill="none" stroke="#63b8ff" d="M1158.35,-225.49C1137.26,-215.7 1102.41,-199.52 1078.09,-188.23"/>
<polygon fill="#63b8ff" stroke="#63b8ff" points="1079.56,-185.05 1069.01,-184.02 1076.61,-191.4 1079.56,-185.05"/>
</a>
</g>
</g>
<!-- Node24&#45;&gt;Node2 -->
<g id="edge32_Node000024_Node000002" class="edge">
<title>Node24&#45;&gt;Node2</title>
<g id="a_edge32_Node000024_Node000002"><a xlink:title=" ">
<path fill="none" stroke="#63b8ff" d="M1251.46,-220.51C1204.22,-209.92 1139.45,-195.4 1096.39,-185.75"/>
<polygon fill="#63b8ff" stroke="#63b8ff" points="1097,-182.3 1086.47,-183.52 1095.47,-189.13 1097,-182.3"/>
</a>
</g>
</g>
<!-- Node25&#45;&gt;Node2 -->
<g id="edge34_Node000025_Node000002" class="edge">
<title>Node25&#45;&gt;Node2</title>
<g id="a_edge34_Node000025_Node000002"><a xlink:title=" ">
<path fill="none" stroke="#63b8ff" d="M1405.55,-225.47C1397.46,-223.5 1388.78,-221.54 1380.67,-220 1280.06,-200.92 1160.68,-186.94 1096.68,-180.13"/>
<polygon fill="#63b8ff" stroke="#63b8ff" points="1096.83,-176.63 1086.52,-179.07 1096.1,-183.59 1096.83,-176.63"/>
</a>
</g>
</g>
<!-- Node26&#45;&gt;Node2 -->
<g id="edge36_Node000026_Node000002" class="edge">
<title>Node26&#45;&gt;Node2</title>
<g id="a_edge36_Node000026_Node000002"><a xlink:title=" ">
<path fill="none" stroke="#63b8ff" d="M1518.25,-225.45C1510.65,-223.41 1502.4,-221.42 1494.67,-220 1350.83,-193.61 1177.7,-181.94 1096.69,-177.63"/>
<polygon fill="#63b8ff" stroke="#63b8ff" points="1096.51,-174.12 1086.34,-177.1 1096.15,-181.11 1096.51,-174.12"/>
</a>
</g>
</g>
</g>
</svg>

<g id="navigator" transform="translate(0 0)" fill="#404254">
  <rect fill="#f2f5e9" fill-opacity="0.5" stroke="#606060" stroke-width=".5" x="0" y="0" width="60" height="60"/>
  <use id="zoomplus" xlink:href="#zoomPlus" x="17" y="9" onmousedown="handleZoom(evt,'in')"/>
  <use id="zoomminus" xlink:href="#zoomMin" x="42" y="9" onmousedown="handleZoom(evt,'out')"/>
  <use id="reset" xlink:href="#resetDef" x="30" y="36" onmousedown="handleReset()"/>
   <use id="arrowup" xlink:href="#arrowUp" x="0" y="0" onmousedown="handlePan(0,-1)"/>
  <use id="arrowright" xlink:href="#arrowRight" x="0" y="0" onmousedown="handlePan(1,0)"/>
  <use id="arrowdown" xlink:href="#arrowDown" x="0" y="0" onmousedown="handlePan(0,1)"/>
  <use id="arrowleft" xlink:href="#arrowLeft" x="0" y="0" onmousedown="handlePan(-1,0)"/>
</g>
<svg viewBox="0 0 15 15" width="100%" height="30px" preserveAspectRatio="xMaxYMin meet">
 <g id="arrow_out" transform="scale(0.3 0.3)">
  <a xlink:href="main_8c__incl_org.svg" target="_base">
   <rect id="button" ry="5" rx="5" y="6" x="6" height="38" width="38"
        fill="#f2f5e9" fill-opacity="0.5" stroke="#606060" stroke-width="1.0"/>
   <path id="arrow"
     d="M 11.500037,31.436501 C 11.940474,20.09759 22.043105,11.32322 32.158766,21.979434 L 37.068811,17.246167 C 37.068811,17.246167 37.088388,32 37.088388,32 L 22.160133,31.978069 C 22.160133,31.978069 26.997745,27.140456 26.997745,27.140456 C 18.528582,18.264221 13.291696,25.230495 11.500037,31.436501 z"
     style="fill:#404040;"/>
  </a>
 </g>
</svg>

<style type='text/css'>
<![CDATA[
[data-mouse-over-selected='false'] { opacity: 0.7; }
[data-mouse-over-selected='true']  { opacity: 1.0; }
]]>
</style>
<script type="application/ecmascript"><![CDATA[
document.addEventListener('DOMContentLoaded', (event) => {
  highlightEdges();
  highlightAdjacentNodes();
});
]]></script>
</svg>
