<?xml version="1.0" encoding="UTF-8" standalone="no"?>
<!DOCTYPE svg PUBLIC "-//W3C//DTD SVG 1.1//EN"
 "http://www.w3.org/Graphics/SVG/1.1/DTD/svg11.dtd">
<!-- Generated by graphviz version 2.43.0 (0)
 -->
<!-- Title: FungUniJacobian Pages: 1 -->
<!--zoomable 666 -->

<svg id="main" version="1.1" xmlns="http://www.w3.org/2000/svg" xmlns:xlink="http://www.w3.org/1999/xlink" xml:space="preserve" onload="init(evt)">
<style type="text/css"><![CDATA[
.node, .edge {opacity: 0.7;}
.node.selected, .edge.selected {opacity: 1;}
.edge:hover path { stroke: red; }
.edge:hover polygon { stroke: red; fill: red; }
]]></style>

<defs>
  <circle id="rim" cx="0" cy="0" r="7"/>
  <circle id="rim2" cx="0" cy="0" r="3.5"/>
  <g id="zoomPlus">
    <use xlink:href="#rim" fill="#404040"><set attributeName="fill" to="#808080" begin="zoomplus.mouseover" end="zoomplus.mouseout"/></use>
    <path d="M-4,0h8M0,-4v8" fill="none" stroke="white" stroke-width="1.5" pointer-events="none"/>
  </g>
  <g id="zoomMin">
    <use xlink:href="#rim" fill="#404040"><set attributeName="fill" to="#808080" begin="zoomminus.mouseover" end="zoomminus.mouseout"/></use>
    <path d="M-4,0h8" fill="none" stroke="white" stroke-width="1.5" pointer-events="none"/>
  </g>
  <g id="arrowUp" transform="translate(30 24)">
    <use xlink:href="#rim"/>
    <path pointer-events="none" fill="none" stroke="white" stroke-width="1.5" d="M0,-3.0v7 M-2.5,-0.5L0,-3.0L2.5,-0.5"/>
  </g>
  <g id="arrowRight" transform="rotate(90) translate(36 -43)">
    <use xlink:href="#rim"/>
    <path pointer-events="none" fill="none" stroke="white" stroke-width="1.5" d="M0,-3.0v7 M-2.5,-0.5L0,-3.0L2.5,-0.5"/>
  </g>
  <g id="arrowDown" transform="rotate(180) translate(-30 -48)">
    <use xlink:href="#rim"/>
    <path pointer-events="none" fill="none" stroke="white" stroke-width="1.5" d="M0,-3.0v7 M-2.5,-0.5L0,-3.0L2.5,-0.5"/>
  </g>
  <g id="arrowLeft" transform="rotate(270) translate(-36 17)">
    <use xlink:href="#rim"/>
    <path pointer-events="none" fill="none" stroke="white" stroke-width="1.5" d="M0,-3.0v7 M-2.5,-0.5L0,-3.0L2.5,-0.5"/>
  </g>
  <g id="resetDef">
    <use xlink:href="#rim2" fill="#404040"><set attributeName="fill" to="#808080" begin="reset.mouseover" end="reset.mouseout"/></use>
  </g>
</defs>
<script type="application/ecmascript">
var viewWidth = 841;
var viewHeight = 666;
var sectionId = 'dynsection-13';
</script>
<script type="application/ecmascript" xlink:href="svg.min.js"/>
<svg id="graph" class="graph">
<g id="viewport">
<title>FungUniJacobian</title>
<!-- Node1 -->
<g id="Node000001" class="node">
<title>Node1</title>
<g id="a_Node000001"><a xlink:title=" ">
<polygon fill="#999999" stroke="#666666" points="98,-619.61 0,-619.61 0,-600.61 98,-600.61 98,-619.61"/>
<text text-anchor="middle" x="49" y="-607.61" font-family="Helvetica,sans-Serif" font-size="10.00">FungUniJacobian</text>
</a>
</g>
</g>
<!-- Node2 -->
<g id="Node000002" class="node">
<title>Node2</title>
<g id="a_Node000002"><a xlink:href="inverse_8c.html#aad265514e1d068c5af3a6320696f5ba9" target="_top" xlink:title=" ">
<polygon fill="white" stroke="#666666" points="399,-657.61 289,-657.61 289,-638.61 399,-638.61 399,-657.61"/>
<text text-anchor="middle" x="344" y="-645.61" font-family="Helvetica,sans-Serif" font-size="10.00">reset_Fung_epsilon</text>
</a>
</g>
</g>
<!-- Node1&#45;&gt;Node2 -->
<g id="edge1_Node000001_Node000002" class="edge">
<title>Node1&#45;&gt;Node2</title>
<g id="a_edge1_Node000001_Node000002"><a xlink:title=" ">
<path fill="none" stroke="#63b8ff" d="M98.15,-613.5C139.39,-616.73 200.28,-622.26 253,-630.11 264.94,-631.89 277.7,-634.19 289.75,-636.55"/>
<polygon fill="#63b8ff" stroke="#63b8ff" points="289.17,-640.01 299.66,-638.54 290.55,-633.14 289.17,-640.01"/>
</a>
</g>
</g>
<!-- Node3 -->
<g id="Node000003" class="node">
<title>Node3</title>
<g id="a_Node000003"><a xlink:href="inverse_8c.html#a8ccb34384a9c46d52bb413dcd177c67b" target="_top" xlink:title=" ">
<polygon fill="white" stroke="#666666" points="233.5,-527.61 153.5,-527.61 153.5,-508.61 233.5,-508.61 233.5,-527.61"/>
<text text-anchor="middle" x="193.5" y="-515.61" font-family="Helvetica,sans-Serif" font-size="10.00">ResidualCalc</text>
</a>
</g>
</g>
<!-- Node1&#45;&gt;Node3 -->
<g id="edge2_Node000001_Node000003" class="edge">
<title>Node1&#45;&gt;Node3</title>
<g id="a_edge2_Node000001_Node000003"><a xlink:title=" ">
<path fill="none" stroke="#63b8ff" d="M64.98,-600.44C89.85,-584.38 139.82,-552.12 169.29,-533.1"/>
<polygon fill="#63b8ff" stroke="#63b8ff" points="171.22,-536.02 177.72,-527.65 167.42,-530.14 171.22,-536.02"/>
</a>
</g>
</g>
<!-- Node31 -->
<g id="Node000031" class="node">
<title>Node31</title>
<g id="a_Node000031"><a xlink:href="inverse_8c.html#adcdbfe299a117284d357b2a9c0b84c44" target="_top" xlink:title=" ">
<polygon fill="white" stroke="#666666" points="253,-657.61 134,-657.61 134,-638.61 253,-638.61 253,-657.61"/>
<text text-anchor="middle" x="193.5" y="-645.61" font-family="Helvetica,sans-Serif" font-size="10.00">update_Fung_epsilon</text>
</a>
</g>
</g>
<!-- Node1&#45;&gt;Node31 -->
<g id="edge63_Node000001_Node000031" class="edge">
<title>Node1&#45;&gt;Node31</title>
<g id="a_edge63_Node000001_Node000031"><a xlink:title=" ">
<path fill="none" stroke="#63b8ff" d="M85.96,-619.7C104.44,-624.63 127.16,-630.69 146.86,-635.94"/>
<polygon fill="#63b8ff" stroke="#63b8ff" points="145.99,-639.33 156.55,-638.53 147.79,-632.57 145.99,-639.33"/>
</a>
</g>
</g>
<!-- Node4 -->
<g id="Node000004" class="node">
<title>Node4</title>
<g id="a_Node000004"><a xlink:href="io_8c.html#ac6a6fe57e1e391ebe52b1dbffde4ba5b" target="_top" xlink:title=" ">
<polygon fill="white" stroke="#666666" points="716.5,-541.61 641.5,-541.61 641.5,-522.61 716.5,-522.61 716.5,-541.61"/>
<text text-anchor="middle" x="679" y="-529.61" font-family="Helvetica,sans-Serif" font-size="10.00">AreaNormal</text>
</a>
</g>
</g>
<!-- Node3&#45;&gt;Node4 -->
<g id="edge3_Node000003_Node000004" class="edge">
<title>Node3&#45;&gt;Node4</title>
<g id="a_edge3_Node000003_Node000004"><a xlink:title=" ">
<path fill="none" stroke="#63b8ff" d="M233.71,-517.82C274.88,-517.62 341.5,-517.63 399,-519.11 480.74,-521.21 575.86,-526.19 631.25,-529.34"/>
<polygon fill="#63b8ff" stroke="#63b8ff" points="631.27,-532.84 641.46,-529.92 631.67,-525.86 631.27,-532.84"/>
</a>
</g>
</g>
<!-- Node9 -->
<g id="Node000009" class="node">
<title>Node9</title>
<g id="a_Node000009"><a xlink:href="main_8c.html#a406cf6152471e0614dca5a045fdfd99f" target="_top" xlink:title=" ">
<polygon fill="white" stroke="#666666" points="377,-470.61 311,-470.61 311,-451.61 377,-451.61 377,-470.61"/>
<text text-anchor="middle" x="344" y="-458.61" font-family="Helvetica,sans-Serif" font-size="10.00">FDynamic</text>
</a>
</g>
</g>
<!-- Node3&#45;&gt;Node9 -->
<g id="edge8_Node000003_Node000009" class="edge">
<title>Node3&#45;&gt;Node9</title>
<g id="a_edge8_Node000003_Node000009"><a xlink:title=" ">
<path fill="none" stroke="#63b8ff" d="M219.36,-508.57C243.77,-499.2 281.22,-484.82 308.51,-474.35"/>
<polygon fill="#63b8ff" stroke="#63b8ff" points="309.98,-477.53 318.06,-470.68 307.47,-471 309.98,-477.53"/>
</a>
</g>
</g>
<!-- Node12 -->
<g id="Node000012" class="node">
<title>Node12</title>
<g id="a_Node000012"><a xlink:href="bcs_8c.html#aef1719332b4828ce07ba0c7a6bba7bcd" target="_top" xlink:title=" ">
<polygon fill="white" stroke="#666666" points="375.5,-411.61 312.5,-411.61 312.5,-392.61 375.5,-392.61 375.5,-411.61"/>
<text text-anchor="middle" x="344" y="-399.61" font-family="Helvetica,sans-Serif" font-size="10.00">FExternal</text>
</a>
</g>
</g>
<!-- Node3&#45;&gt;Node12 -->
<g id="edge11_Node000003_Node000012" class="edge">
<title>Node3&#45;&gt;Node12</title>
<g id="a_edge11_Node000003_Node000012"><a xlink:title=" ">
<path fill="none" stroke="#63b8ff" d="M206.37,-508.56C224.21,-494.22 259.05,-466.36 289,-443.11 299.79,-434.74 311.89,-425.53 321.9,-417.97"/>
<polygon fill="#63b8ff" stroke="#63b8ff" points="324.19,-420.62 330.07,-411.81 319.97,-415.04 324.19,-420.62"/>
</a>
</g>
</g>
<!-- Node14 -->
<g id="Node000014" class="node">
<title>Node14</title>
<g id="a_Node000014"><a xlink:href="main_8c.html#a59ccabe25c63661e6e66b44209b0f162" target="_top" xlink:title=" ">
<polygon fill="white" stroke="#666666" points="374,-258.61 314,-258.61 314,-239.61 374,-239.61 374,-258.61"/>
<text text-anchor="middle" x="344" y="-246.61" font-family="Helvetica,sans-Serif" font-size="10.00">FInternal</text>
</a>
</g>
</g>
<!-- Node3&#45;&gt;Node14 -->
<g id="edge13_Node000003_Node000014" class="edge">
<title>Node3&#45;&gt;Node14</title>
<g id="a_edge13_Node000003_Node000014"><a xlink:title=" ">
<path fill="none" stroke="#63b8ff" d="M199.79,-508.54C221.43,-469.32 303.56,-320.55 332.68,-267.8"/>
<polygon fill="#63b8ff" stroke="#63b8ff" points="335.85,-269.3 337.62,-258.85 329.73,-265.91 335.85,-269.3"/>
</a>
</g>
</g>
<!-- Node28 -->
<g id="Node000028" class="node">
<title>Node28</title>
<g id="a_Node000028"><a xlink:href="bcs_8c.html#a66bea6d23d803ebc455e934629a0c7be" target="_top" xlink:title=" ">
<polygon fill="white" stroke="#666666" points="375,-620.61 313,-620.61 313,-601.61 375,-601.61 375,-620.61"/>
<text text-anchor="middle" x="344" y="-608.61" font-family="Helvetica,sans-Serif" font-size="10.00">GhostLoc</text>
</a>
</g>
</g>
<!-- Node3&#45;&gt;Node28 -->
<g id="edge60_Node000003_Node000028" class="edge">
<title>Node3&#45;&gt;Node28</title>
<g id="a_edge60_Node000003_Node000028"><a xlink:title=" ">
<path fill="none" stroke="#63b8ff" d="M204.15,-527.71C220.38,-543.37 254.74,-574.56 289,-593.11 293.5,-595.55 298.39,-597.74 303.33,-599.68"/>
<polygon fill="#63b8ff" stroke="#63b8ff" points="302.2,-602.99 312.79,-603.1 304.58,-596.41 302.2,-602.99"/>
</a>
</g>
</g>
<!-- Node29 -->
<g id="Node000029" class="node">
<title>Node29</title>
<g id="a_Node000029"><a xlink:href="bending_8c.html#a4a1f5973a55922b27065f712220d8152" target="_top" xlink:title=" ">
<polygon fill="white" stroke="#666666" points="382.5,-583.61 305.5,-583.61 305.5,-564.61 382.5,-564.61 382.5,-583.61"/>
<text text-anchor="middle" x="344" y="-571.61" font-family="Helvetica,sans-Serif" font-size="10.00">GlobalGhost</text>
</a>
</g>
</g>
<!-- Node3&#45;&gt;Node29 -->
<g id="edge61_Node000003_Node000029" class="edge">
<title>Node3&#45;&gt;Node29</title>
<g id="a_edge61_Node000003_Node000029"><a xlink:title=" ">
<path fill="none" stroke="#63b8ff" d="M217.26,-527.72C236.31,-535.64 264.27,-547.03 289,-556.11 293.63,-557.81 298.5,-559.53 303.35,-561.2"/>
<polygon fill="#63b8ff" stroke="#63b8ff" points="302.58,-564.64 313.18,-564.53 304.83,-558.01 302.58,-564.64"/>
</a>
</g>
</g>
<!-- Node30 -->
<g id="Node000030" class="node">
<title>Node30</title>
<g id="a_Node000030"><a xlink:href="bending_8c.html#a907be03803f4a1d456a7a1650461f7eb" target="_top" xlink:title=" ">
<polygon fill="white" stroke="#666666" points="373.5,-546.61 314.5,-546.61 314.5,-527.61 373.5,-527.61 373.5,-546.61"/>
<text text-anchor="middle" x="344" y="-534.61" font-family="Helvetica,sans-Serif" font-size="10.00">PatchLoc</text>
</a>
</g>
</g>
<!-- Node3&#45;&gt;Node30 -->
<g id="edge62_Node000003_Node000030" class="edge">
<title>Node3&#45;&gt;Node30</title>
<g id="a_edge62_Node000003_Node000030"><a xlink:title=" ">
<path fill="none" stroke="#63b8ff" d="M233.52,-523.1C255.23,-525.88 282.17,-529.33 303.9,-532.11"/>
<polygon fill="#63b8ff" stroke="#63b8ff" points="303.73,-535.62 314.1,-533.41 304.62,-528.67 303.73,-535.62"/>
</a>
</g>
</g>
<!-- Node5 -->
<g id="Node000005" class="node">
<title>Node5</title>
<g id="a_Node000005"><a xlink:href="math_8c.html#a9d60990d26296194c921d537ea26f3c7" target="_top" xlink:title=" ">
<polygon fill="white" stroke="#666666" points="833,-352.61 783,-352.61 783,-333.61 833,-333.61 833,-352.61"/>
<text text-anchor="middle" x="808" y="-340.61" font-family="Helvetica,sans-Serif" font-size="10.00">CROSS</text>
</a>
</g>
</g>
<!-- Node4&#45;&gt;Node5 -->
<g id="edge4_Node000004_Node000005" class="edge">
<title>Node4&#45;&gt;Node5</title>
<g id="a_edge4_Node000004_Node000005"><a xlink:title=" ">
<path fill="none" stroke="#63b8ff" d="M716.84,-525.92C727.89,-522.38 739.14,-516.83 747,-508.11 792.03,-458.15 745.93,-417.24 783,-361.11 783.26,-360.72 783.53,-360.33 783.81,-359.95"/>
<polygon fill="#63b8ff" stroke="#63b8ff" points="786.33,-362.38 790.83,-352.79 781.33,-357.48 786.33,-362.38"/>
</a>
</g>
</g>
<!-- Node6 -->
<g id="Node000006" class="node">
<title>Node6</title>
<g id="a_Node000006"><a xlink:href="math_8c.html#a9d08a9d2fd8e8932e92b8ab054b19269" target="_top" xlink:title=" ">
<polygon fill="white" stroke="#666666" points="833,-278.61 783,-278.61 783,-259.61 833,-259.61 833,-278.61"/>
<text text-anchor="middle" x="808" y="-266.61" font-family="Helvetica,sans-Serif" font-size="10.00">MINUS</text>
</a>
</g>
</g>
<!-- Node4&#45;&gt;Node6 -->
<g id="edge5_Node000004_Node000006" class="edge">
<title>Node4&#45;&gt;Node6</title>
<g id="a_edge5_Node000004_Node000006"><a xlink:title=" ">
<path fill="none" stroke="#63b8ff" d="M696.89,-522.43C712.46,-512.57 734.93,-495.83 747,-475.11 789.83,-401.6 737.94,-359.27 783,-287.11 783.25,-286.71 783.51,-286.32 783.78,-285.94"/>
<polygon fill="#63b8ff" stroke="#63b8ff" points="786.31,-288.35 790.71,-278.71 781.26,-283.51 786.31,-288.35"/>
</a>
</g>
</g>
<!-- Node7 -->
<g id="Node000007" class="node">
<title>Node7</title>
<g id="a_Node000007"><a xlink:href="math_8c.html#aa52f6593cf3e5453c8c6c94343d3fb37" target="_top" xlink:title=" ">
<polygon fill="white" stroke="#666666" points="827,-483.61 789,-483.61 789,-464.61 827,-464.61 827,-483.61"/>
<text text-anchor="middle" x="808" y="-471.61" font-family="Helvetica,sans-Serif" font-size="10.00">SIZE</text>
</a>
</g>
</g>
<!-- Node4&#45;&gt;Node7 -->
<g id="edge6_Node000004_Node000007" class="edge">
<title>Node4&#45;&gt;Node7</title>
<g id="a_edge6_Node000004_Node000007"><a xlink:title=" ">
<path fill="none" stroke="#63b8ff" d="M710.12,-522.55C721.82,-518.53 735.21,-513.52 747,-508.11 759.12,-502.56 772.05,-495.4 782.79,-489.08"/>
<polygon fill="#63b8ff" stroke="#63b8ff" points="784.81,-491.96 791.6,-483.82 781.22,-485.95 784.81,-491.96"/>
</a>
</g>
</g>
<!-- Node8 -->
<g id="Node000008" class="node">
<title>Node8</title>
<g id="a_Node000008"><a xlink:href="math_8c.html#ac616709995f2ae60c4308ffa328337d7" target="_top" xlink:title=" ">
<polygon fill="white" stroke="#666666" points="828.5,-315.61 787.5,-315.61 787.5,-296.61 828.5,-296.61 828.5,-315.61"/>
<text text-anchor="middle" x="808" y="-303.61" font-family="Helvetica,sans-Serif" font-size="10.00">UNIT</text>
</a>
</g>
</g>
<!-- Node4&#45;&gt;Node8 -->
<g id="edge7_Node000004_Node000008" class="edge">
<title>Node4&#45;&gt;Node8</title>
<g id="a_edge7_Node000004_Node000008"><a xlink:title=" ">
<path fill="none" stroke="#63b8ff" d="M696.39,-522.49C711.82,-512.57 734.39,-495.68 747,-475.11 783.06,-416.29 745.15,-381.8 783,-324.11 783.26,-323.72 783.53,-323.33 783.81,-322.95"/>
<polygon fill="#63b8ff" stroke="#63b8ff" points="786.33,-325.38 790.82,-315.78 781.32,-320.48 786.33,-325.38"/>
</a>
</g>
</g>
<!-- Node10 -->
<g id="Node000010" class="node">
<title>Node10</title>
<g id="a_Node000010"><a xlink:href="material_8c.html#a39aa444d5f3c2ebbec2bb3d9aedb3b87" target="_top" xlink:title=" ">
<polygon fill="white" stroke="#666666" points="528,-433.61 482,-433.61 482,-414.61 528,-414.61 528,-433.61"/>
<text text-anchor="middle" x="505" y="-421.61" font-family="Helvetica,sans-Serif" font-size="10.00">Damp</text>
</a>
</g>
</g>
<!-- Node9&#45;&gt;Node10 -->
<g id="edge9_Node000009_Node000010" class="edge">
<title>Node9&#45;&gt;Node10</title>
<g id="a_edge9_Node000009_Node000010"><a xlink:title=" ">
<path fill="none" stroke="#63b8ff" d="M377.18,-453.62C404.69,-447.22 444.11,-438.05 471.67,-431.63"/>
<polygon fill="#63b8ff" stroke="#63b8ff" points="472.66,-435 481.6,-429.32 471.07,-428.18 472.66,-435"/>
</a>
</g>
</g>
<!-- Node11 -->
<g id="Node000011" class="node">
<title>Node11</title>
<g id="a_Node000011"><a xlink:href="material_8c.html#a2d561c42d0809a56d3abe1d1c9c24588" target="_top" xlink:title=" ">
<polygon fill="white" stroke="#666666" points="526,-470.61 484,-470.61 484,-451.61 526,-451.61 526,-470.61"/>
<text text-anchor="middle" x="505" y="-458.61" font-family="Helvetica,sans-Serif" font-size="10.00">Mass</text>
</a>
</g>
</g>
<!-- Node9&#45;&gt;Node11 -->
<g id="edge10_Node000009_Node000011" class="edge">
<title>Node9&#45;&gt;Node11</title>
<g id="a_edge10_Node000009_Node000011"><a xlink:title=" ">
<path fill="none" stroke="#63b8ff" d="M377.18,-461.11C405.37,-461.11 446.06,-461.11 473.69,-461.11"/>
<polygon fill="#63b8ff" stroke="#63b8ff" points="473.94,-464.61 483.94,-461.11 473.94,-457.61 473.94,-464.61"/>
</a>
</g>
</g>
<!-- Node13 -->
<g id="Node000013" class="node">
<title>Node13</title>
<g id="a_Node000013"><a xlink:href="external_8c.html#a93115e0e971ccd05cacd122af8636e18" target="_top" xlink:title=" ">
<polygon fill="white" stroke="#666666" points="575,-396.11 435,-396.11 435,-366.11 575,-366.11 575,-396.11"/>
<text text-anchor="start" x="443" y="-384.11" font-family="Helvetica,sans-Serif" font-size="10.00">FExternalPrescribedForce</text>
<text text-anchor="middle" x="505" y="-373.11" font-family="Helvetica,sans-Serif" font-size="10.00">FieldIn</text>
</a>
</g>
</g>
<!-- Node12&#45;&gt;Node13 -->
<g id="edge12_Node000012_Node000013" class="edge">
<title>Node12&#45;&gt;Node13</title>
<g id="a_edge12_Node000012_Node000013"><a xlink:title=" ">
<path fill="none" stroke="#63b8ff" d="M375.66,-398.06C389.76,-396.2 407.22,-393.89 424.67,-391.59"/>
<polygon fill="#63b8ff" stroke="#63b8ff" points="425.46,-395.02 434.91,-390.24 424.54,-388.08 425.46,-395.02"/>
</a>
</g>
</g>
<!-- Node15 -->
<g id="Node000015" class="node">
<title>Node15</title>
<g id="a_Node000015"><a xlink:href="bending_8c.html#a2b66770553fce4724cfb65b0f79e83b1" target="_top" xlink:title=" ">
<polygon fill="white" stroke="#666666" points="536,-296.61 474,-296.61 474,-277.61 536,-277.61 536,-296.61"/>
<text text-anchor="middle" x="505" y="-284.61" font-family="Helvetica,sans-Serif" font-size="10.00">Fbending</text>
</a>
</g>
</g>
<!-- Node14&#45;&gt;Node15 -->
<g id="edge14_Node000014_Node000015" class="edge">
<title>Node14&#45;&gt;Node15</title>
<g id="a_edge14_Node000014_Node000015"><a xlink:title=" ">
<path fill="none" stroke="#63b8ff" d="M374.16,-256.08C399.39,-262.11 436.12,-270.89 464.08,-277.57"/>
<polygon fill="#63b8ff" stroke="#63b8ff" points="463.4,-281.01 473.94,-279.93 465.03,-274.2 463.4,-281.01"/>
</a>
</g>
</g>
<!-- Node26 -->
<g id="Node000026" class="node">
<title>Node26</title>
<g id="a_Node000026"><a xlink:href="membrane_8c.html#a9fee56a81a4f404db4630a996f38013c" target="_top" xlink:title=" ">
<polygon fill="white" stroke="#666666" points="543,-202.61 467,-202.61 467,-183.61 543,-183.61 543,-202.61"/>
<text text-anchor="middle" x="505" y="-190.61" font-family="Helvetica,sans-Serif" font-size="10.00">Fmembrane</text>
</a>
</g>
</g>
<!-- Node14&#45;&gt;Node26 -->
<g id="edge53_Node000014_Node000026" class="edge">
<title>Node14&#45;&gt;Node26</title>
<g id="a_edge53_Node000014_Node000026"><a xlink:title=" ">
<path fill="none" stroke="#63b8ff" d="M372.33,-239.48C398.54,-230.25 438.3,-216.25 467.27,-206.05"/>
<polygon fill="#63b8ff" stroke="#63b8ff" points="468.75,-209.24 477.02,-202.61 466.43,-202.63 468.75,-209.24"/>
</a>
</g>
</g>
<!-- Node27 -->
<g id="Node000027" class="node">
<title>Node27</title>
<g id="a_Node000027"><a xlink:href="bcs_8c.html#a679ccb265fdae6027920ac949da40b91" target="_top" xlink:title=" ">
<polygon fill="white" stroke="#666666" points="552.5,-165.61 457.5,-165.61 457.5,-146.61 552.5,-146.61 552.5,-165.61"/>
<text text-anchor="middle" x="505" y="-153.61" font-family="Helvetica,sans-Serif" font-size="10.00">ModifyFbending</text>
</a>
</g>
</g>
<!-- Node14&#45;&gt;Node27 -->
<g id="edge59_Node000014_Node000027" class="edge">
<title>Node14&#45;&gt;Node27</title>
<g id="a_edge59_Node000014_Node000027"><a xlink:title=" ">
<path fill="none" stroke="#63b8ff" d="M353.72,-239.49C368.74,-223.51 401.18,-191.5 435,-174.11 439.01,-172.05 443.28,-170.21 447.64,-168.57"/>
<polygon fill="#63b8ff" stroke="#63b8ff" points="448.96,-171.82 457.31,-165.3 446.71,-165.19 448.96,-171.82"/>
</a>
</g>
</g>
<!-- Node15&#45;&gt;Node5 -->
<g id="edge27_Node000015_Node000005" class="edge">
<title>Node15&#45;&gt;Node5</title>
<g id="a_edge27_Node000015_Node000005"><a xlink:title=" ">
<path fill="none" stroke="#63b8ff" d="M518.56,-296.63C534,-308.96 559.98,-331.89 575,-357.11 603.06,-404.22 566.93,-442.48 611,-475.11 659.58,-511.08 698.25,-510.84 747,-475.11 789.86,-443.7 752.28,-404.46 783,-361.11 783.27,-360.73 783.55,-360.35 783.84,-359.98"/>
<polygon fill="#63b8ff" stroke="#63b8ff" points="786.35,-362.42 790.99,-352.9 781.42,-357.45 786.35,-362.42"/>
</a>
</g>
</g>
<!-- Node15&#45;&gt;Node6 -->
<g id="edge37_Node000015_Node000006" class="edge">
<title>Node15&#45;&gt;Node6</title>
<g id="a_edge37_Node000015_Node000006"><a xlink:title=" ">
<path fill="none" stroke="#63b8ff" d="M526.36,-277.6C547.12,-268.47 580.52,-255.32 611,-250.11 670.58,-239.92 687.26,-240.88 747,-250.11 755.69,-251.45 764.85,-253.83 773.32,-256.46"/>
<polygon fill="#63b8ff" stroke="#63b8ff" points="772.29,-259.8 782.88,-259.61 774.48,-253.16 772.29,-259.8"/>
</a>
</g>
</g>
<!-- Node15&#45;&gt;Node7 -->
<g id="edge39_Node000015_Node000007" class="edge">
<title>Node15&#45;&gt;Node7</title>
<g id="a_edge39_Node000015_Node000007"><a xlink:title=" ">
<path fill="none" stroke="#63b8ff" d="M519.59,-296.8C535.56,-308.96 561.58,-331.39 575,-357.11 615.56,-434.86 543.57,-495.04 611,-551.11 657.48,-589.76 692.69,-577.64 747,-551.11 771.65,-539.07 789.12,-511.46 798.63,-492.79"/>
<polygon fill="#63b8ff" stroke="#63b8ff" points="801.81,-494.26 802.99,-483.73 795.5,-491.23 801.81,-494.26"/>
</a>
</g>
</g>
<!-- Node15&#45;&gt;Node8 -->
<g id="edge52_Node000015_Node000008" class="edge">
<title>Node15&#45;&gt;Node8</title>
<g id="a_edge52_Node000015_Node000008"><a xlink:title=" ">
<path fill="none" stroke="#63b8ff" d="M516.01,-296.9C529.6,-310.28 554.54,-335.12 575,-357.11 591.52,-374.86 588.91,-388.11 611,-398.11 666.06,-423.04 695.76,-430.17 747,-398.11 778.01,-378.71 759.72,-352.32 783,-324.11 783.39,-323.63 783.8,-323.16 784.22,-322.7"/>
<polygon fill="#63b8ff" stroke="#63b8ff" points="786.8,-325.09 791.83,-315.77 782.08,-319.92 786.8,-325.09"/>
</a>
</g>
</g>
<!-- Node16 -->
<g id="Node000016" class="node">
<title>Node16</title>
<g id="a_Node000016"><a xlink:href="math_8c.html#a7ef9263b0a3a10c2cd00bb4dc0059d70" target="_top" xlink:title=" ">
<polygon fill="white" stroke="#666666" points="704,-465.61 654,-465.61 654,-446.61 704,-446.61 704,-465.61"/>
<text text-anchor="middle" x="679" y="-453.61" font-family="Helvetica,sans-Serif" font-size="10.00">AMULT</text>
</a>
</g>
</g>
<!-- Node15&#45;&gt;Node16 -->
<g id="edge15_Node000015_Node000016" class="edge">
<title>Node15&#45;&gt;Node16</title>
<g id="a_edge15_Node000015_Node000016"><a xlink:title=" ">
<path fill="none" stroke="#63b8ff" d="M517.7,-296.8C532.48,-309.48 558.02,-332.96 575,-357.11 596.27,-387.36 583.54,-407.35 611,-432.11 620.23,-440.43 632.54,-445.92 644.1,-449.51"/>
<polygon fill="#63b8ff" stroke="#63b8ff" points="643.39,-452.95 653.96,-452.21 645.23,-446.19 643.39,-452.95"/>
</a>
</g>
</g>
<!-- Node17 -->
<g id="Node000017" class="node">
<title>Node17</title>
<g id="a_Node000017"><a xlink:href="material_8c.html#af81ecf5fbfd52082e0abd3184f12c14f" target="_top" xlink:title=" ">
<polygon fill="white" stroke="#666666" points="732,-352.61 626,-352.61 626,-333.61 732,-333.61 732,-352.61"/>
<text text-anchor="middle" x="679" y="-340.61" font-family="Helvetica,sans-Serif" font-size="10.00">BendingNonLinear</text>
</a>
</g>
</g>
<!-- Node15&#45;&gt;Node17 -->
<g id="edge16_Node000015_Node000017" class="edge">
<title>Node15&#45;&gt;Node17</title>
<g id="a_edge16_Node000015_Node000017"><a xlink:title=" ">
<path fill="none" stroke="#63b8ff" d="M531.74,-296.69C552.9,-304.44 583.74,-315.45 611,-324.11 618.05,-326.35 625.56,-328.61 632.9,-330.74"/>
<polygon fill="#63b8ff" stroke="#63b8ff" points="632.18,-334.17 642.76,-333.56 634.11,-327.44 632.18,-334.17"/>
</a>
</g>
</g>
<!-- Node18 -->
<g id="Node000018" class="node">
<title>Node18</title>
<g id="a_Node000018"><a xlink:href="math_8c.html#a870a70f4845a041458d9bdb0dd7aabd3" target="_top" xlink:title=" ">
<polygon fill="white" stroke="#666666" points="827,-203.61 789,-203.61 789,-184.61 827,-184.61 827,-203.61"/>
<text text-anchor="middle" x="808" y="-191.61" font-family="Helvetica,sans-Serif" font-size="10.00">DOT</text>
</a>
</g>
</g>
<!-- Node15&#45;&gt;Node18 -->
<g id="edge28_Node000015_Node000018" class="edge">
<title>Node15&#45;&gt;Node18</title>
<g id="a_edge28_Node000015_Node000018"><a xlink:title=" ">
<path fill="none" stroke="#63b8ff" d="M517.71,-277.61C533.24,-264.37 560.36,-238.85 575,-211.11 607.2,-150.09 556.85,-102.87 611,-60.11 658.44,-22.65 696.27,-27.24 747,-60.11 786.27,-85.55 800.07,-143.4 804.74,-174.1"/>
<polygon fill="#63b8ff" stroke="#63b8ff" points="801.32,-174.97 806.11,-184.42 808.26,-174.04 801.32,-174.97"/>
</a>
</g>
</g>
<!-- Node19 -->
<g id="Node000019" class="node">
<title>Node19</title>
<g id="a_Node000019"><a xlink:href="math_8c.html#a3f73e4cd9eab76eeee084eabf2b98ec9" target="_top" xlink:title=" ">
<polygon fill="white" stroke="#666666" points="825,-241.61 791,-241.61 791,-222.61 825,-222.61 825,-241.61"/>
<text text-anchor="middle" x="808" y="-229.61" font-family="Helvetica,sans-Serif" font-size="10.00">INV</text>
</a>
</g>
</g>
<!-- Node15&#45;&gt;Node19 -->
<g id="edge29_Node000015_Node000019" class="edge">
<title>Node15&#45;&gt;Node19</title>
<g id="a_edge29_Node000015_Node000019"><a xlink:title=" ">
<path fill="none" stroke="#63b8ff" d="M514.99,-277.22C539.84,-249.94 607.79,-175.51 611,-174.11 666.41,-149.96 691.47,-150.23 747,-174.11 768.37,-183.3 766.03,-196.19 783,-212.11 784.25,-213.28 785.56,-214.47 786.89,-215.66"/>
<polygon fill="#63b8ff" stroke="#63b8ff" points="784.68,-218.37 794.55,-222.21 789.23,-213.05 784.68,-218.37"/>
</a>
</g>
</g>
<!-- Node21 -->
<g id="Node000021" class="node">
<title>Node21</title>
<g id="a_Node000021"><a xlink:href="material_8c.html#a3243950933f3559f19edcb5421360526" target="_top" xlink:title=" ">
<polygon fill="white" stroke="#666666" points="747,-88.61 611,-88.61 611,-69.61 747,-69.61 747,-88.61"/>
<text text-anchor="middle" x="679" y="-76.61" font-family="Helvetica,sans-Serif" font-size="10.00">CalcCurvStressStrainxyz</text>
</a>
</g>
</g>
<!-- Node15&#45;&gt;Node21 -->
<g id="edge24_Node000015_Node000021" class="edge">
<title>Node15&#45;&gt;Node21</title>
<g id="a_edge24_Node000015_Node000021"><a xlink:title=" ">
<path fill="none" stroke="#63b8ff" d="M516.28,-277.51C530.63,-263.74 556.93,-237.18 575,-211.11 594.93,-182.36 589.84,-168.97 611,-141.11 624.26,-123.66 642.74,-106.97 656.94,-95.31"/>
<polygon fill="#63b8ff" stroke="#63b8ff" points="659.53,-97.72 665.14,-88.74 655.15,-92.26 659.53,-97.72"/>
</a>
</g>
</g>
<!-- Node22 -->
<g id="Node000022" class="node">
<title>Node22</title>
<g id="a_Node000022"><a xlink:href="material_8c.html#aa93862cca1fe83c736219df7d4a91374" target="_top" xlink:title=" ">
<polygon fill="white" stroke="#666666" points="738.5,-315.61 619.5,-315.61 619.5,-296.61 738.5,-296.61 738.5,-315.61"/>
<text text-anchor="middle" x="679" y="-303.61" font-family="Helvetica,sans-Serif" font-size="10.00">MembraneNonLinear</text>
</a>
</g>
</g>
<!-- Node15&#45;&gt;Node22 -->
<g id="edge30_Node000015_Node000022" class="edge">
<title>Node15&#45;&gt;Node22</title>
<g id="a_edge30_Node000015_Node000022"><a xlink:title=" ">
<path fill="none" stroke="#63b8ff" d="M536.35,-290.46C556.62,-292.7 584.1,-295.74 609.47,-298.54"/>
<polygon fill="#63b8ff" stroke="#63b8ff" points="609.12,-302.02 619.44,-299.64 609.89,-295.07 609.12,-302.02"/>
</a>
</g>
</g>
<!-- Node23 -->
<g id="Node000023" class="node">
<title>Node23</title>
<g id="a_Node000023"><a xlink:href="math_8c.html#ae18926821a703a2c5b281bd890b7e6a0" target="_top" xlink:title=" ">
<polygon fill="white" stroke="#666666" points="699.5,-389.61 658.5,-389.61 658.5,-370.61 699.5,-370.61 699.5,-389.61"/>
<text text-anchor="middle" x="679" y="-377.61" font-family="Helvetica,sans-Serif" font-size="10.00">PLUS</text>
</a>
</g>
</g>
<!-- Node15&#45;&gt;Node23 -->
<g id="edge38_Node000015_Node000023" class="edge">
<title>Node15&#45;&gt;Node23</title>
<g id="a_edge38_Node000015_Node000023"><a xlink:title=" ">
<path fill="none" stroke="#63b8ff" d="M516.86,-296.68C535.1,-312.28 573.56,-343.25 611,-361.11 622.73,-366.71 636.43,-370.95 648.37,-374"/>
<polygon fill="#63b8ff" stroke="#63b8ff" points="647.77,-377.46 658.31,-376.37 649.4,-370.65 647.77,-377.46"/>
</a>
</g>
</g>
<!-- Node24 -->
<g id="Node000024" class="node">
<title>Node24</title>
<g id="a_Node000024"><a xlink:href="material_8c.html#a431e1e9b5ceabfa4edc2920b70296b35" target="_top" xlink:title=" ">
<polygon fill="white" stroke="#666666" points="717.5,-202.61 640.5,-202.61 640.5,-183.61 717.5,-183.61 717.5,-202.61"/>
<text text-anchor="middle" x="679" y="-190.61" font-family="Helvetica,sans-Serif" font-size="10.00">StressLinear</text>
</a>
</g>
</g>
<!-- Node15&#45;&gt;Node24 -->
<g id="edge40_Node000015_Node000024" class="edge">
<title>Node15&#45;&gt;Node24</title>
<g id="a_edge40_Node000015_Node000024"><a xlink:title=" ">
<path fill="none" stroke="#63b8ff" d="M518.32,-277.44C537.34,-262.85 575.38,-235.03 611,-217.11 619.1,-213.04 628.06,-209.33 636.73,-206.11"/>
<polygon fill="#63b8ff" stroke="#63b8ff" points="638.08,-209.34 646.32,-202.69 635.72,-202.75 638.08,-209.34"/>
</a>
</g>
</g>
<!-- Node25 -->
<g id="Node000025" class="node">
<title>Node25</title>
<g id="a_Node000025"><a xlink:href="material_8c.html#aad0d0c11a159f8021feb99ddee475d31" target="_top" xlink:title=" ">
<polygon fill="white" stroke="#666666" points="736,-278.61 622,-278.61 622,-259.61 736,-259.61 736,-278.61"/>
<text text-anchor="middle" x="679" y="-266.61" font-family="Helvetica,sans-Serif" font-size="10.00">StressManufactured</text>
</a>
</g>
</g>
<!-- Node15&#45;&gt;Node25 -->
<g id="edge46_Node000015_Node000025" class="edge">
<title>Node15&#45;&gt;Node25</title>
<g id="a_edge46_Node000015_Node000025"><a xlink:title=" ">
<path fill="none" stroke="#63b8ff" d="M536.35,-283.93C557.21,-281.75 585.73,-278.77 611.7,-276.05"/>
<polygon fill="#63b8ff" stroke="#63b8ff" points="612.31,-279.5 621.89,-274.98 611.58,-272.54 612.31,-279.5"/>
</a>
</g>
</g>
<!-- Node17&#45;&gt;Node5 -->
<g id="edge17_Node000017_Node000005" class="edge">
<title>Node17&#45;&gt;Node5</title>
<g id="a_edge17_Node000017_Node000005"><a xlink:title=" ">
<path fill="none" stroke="#63b8ff" d="M732.02,-343.11C745.83,-343.11 760.39,-343.11 772.96,-343.11"/>
<polygon fill="#63b8ff" stroke="#63b8ff" points="773,-346.61 783,-343.11 773,-339.61 773,-346.61"/>
</a>
</g>
</g>
<!-- Node17&#45;&gt;Node6 -->
<g id="edge20_Node000017_Node000006" class="edge">
<title>Node17&#45;&gt;Node6</title>
<g id="a_edge20_Node000017_Node000006"><a xlink:title=" ">
<path fill="none" stroke="#63b8ff" d="M726.02,-333.53C733.31,-331.04 740.56,-327.95 747,-324.11 766.71,-312.36 765.77,-302.26 783,-287.11 783.82,-286.39 784.67,-285.66 785.53,-284.94"/>
<polygon fill="#63b8ff" stroke="#63b8ff" points="787.82,-287.6 793.51,-278.66 783.49,-282.1 787.82,-287.6"/>
</a>
</g>
</g>
<!-- Node17&#45;&gt;Node7 -->
<g id="edge22_Node000017_Node000007" class="edge">
<title>Node17&#45;&gt;Node7</title>
<g id="a_edge22_Node000017_Node000007"><a xlink:title=" ">
<path fill="none" stroke="#63b8ff" d="M732.2,-352.46C737.51,-354.75 742.57,-357.58 747,-361.11 777.42,-385.34 794.3,-429.29 801.92,-454.64"/>
<polygon fill="#63b8ff" stroke="#63b8ff" points="798.64,-455.88 804.72,-464.56 805.37,-453.98 798.64,-455.88"/>
</a>
</g>
</g>
<!-- Node17&#45;&gt;Node8 -->
<g id="edge23_Node000017_Node000008" class="edge">
<title>Node17&#45;&gt;Node8</title>
<g id="a_edge23_Node000017_Node000008"><a xlink:title=" ">
<path fill="none" stroke="#63b8ff" d="M714.11,-333.54C724.67,-330.56 736.32,-327.23 747,-324.11 757,-321.19 767.91,-317.94 777.65,-315.01"/>
<polygon fill="#63b8ff" stroke="#63b8ff" points="778.73,-318.34 787.3,-312.1 776.71,-311.64 778.73,-318.34"/>
</a>
</g>
</g>
<!-- Node17&#45;&gt;Node18 -->
<g id="edge18_Node000017_Node000018" class="edge">
<title>Node17&#45;&gt;Node18</title>
<g id="a_edge18_Node000017_Node000018"><a xlink:title=" ">
<path fill="none" stroke="#63b8ff" d="M732.21,-334C737.65,-331.45 742.73,-328.22 747,-324.11 784.35,-288.13 753.4,-255.7 783,-213.11 783.53,-212.35 784.1,-211.6 784.7,-210.87"/>
<polygon fill="#63b8ff" stroke="#63b8ff" points="787.29,-213.24 792.01,-203.75 782.4,-208.22 787.29,-213.24"/>
</a>
</g>
</g>
<!-- Node17&#45;&gt;Node19 -->
<g id="edge19_Node000017_Node000019" class="edge">
<title>Node17&#45;&gt;Node19</title>
<g id="a_edge19_Node000017_Node000019"><a xlink:title=" ">
<path fill="none" stroke="#63b8ff" d="M731.33,-333.54C736.99,-331.08 742.37,-327.99 747,-324.11 775.04,-300.63 759.72,-278.32 783,-250.11 783.39,-249.63 783.8,-249.16 784.22,-248.7"/>
<polygon fill="#63b8ff" stroke="#63b8ff" points="786.8,-251.09 791.83,-241.77 782.08,-245.92 786.8,-251.09"/>
</a>
</g>
</g>
<!-- Node20 -->
<g id="Node000020" class="node">
<title>Node20</title>
<g id="a_Node000020"><a xlink:href="math_8c.html#ae6a53927765c25c58815e47fea096a67" target="_top" xlink:title=" ">
<polygon fill="white" stroke="#666666" points="828.5,-389.61 787.5,-389.61 787.5,-370.61 828.5,-370.61 828.5,-389.61"/>
<text text-anchor="middle" x="808" y="-377.61" font-family="Helvetica,sans-Serif" font-size="10.00">SIGN</text>
</a>
</g>
</g>
<!-- Node17&#45;&gt;Node20 -->
<g id="edge21_Node000017_Node000020" class="edge">
<title>Node17&#45;&gt;Node20</title>
<g id="a_edge21_Node000017_Node000020"><a xlink:title=" ">
<path fill="none" stroke="#63b8ff" d="M716.59,-352.63C726.49,-355.29 737.17,-358.24 747,-361.11 757.04,-364.05 767.96,-367.45 777.7,-370.55"/>
<polygon fill="#63b8ff" stroke="#63b8ff" points="776.75,-373.92 787.34,-373.64 778.89,-367.25 776.75,-373.92"/>
</a>
</g>
</g>
<!-- Node21&#45;&gt;Node6 -->
<g id="edge26_Node000021_Node000006" class="edge">
<title>Node21&#45;&gt;Node6</title>
<g id="a_edge26_Node000021_Node000006"><a xlink:title=" ">
<path fill="none" stroke="#63b8ff" d="M725.89,-88.68C733.79,-92.12 741.29,-96.78 747,-103.11 792.03,-153.08 746.66,-193.51 783,-250.11 783.5,-250.89 784.05,-251.66 784.63,-252.4"/>
<polygon fill="#63b8ff" stroke="#63b8ff" points="782.28,-255 791.82,-259.59 787.22,-250.05 782.28,-255"/>
</a>
</g>
</g>
<!-- Node21&#45;&gt;Node19 -->
<g id="edge25_Node000021_Node000019" class="edge">
<title>Node21&#45;&gt;Node19</title>
<g id="a_edge25_Node000021_Node000019"><a xlink:title=" ">
<path fill="none" stroke="#63b8ff" d="M724.46,-88.61C732.77,-92.06 740.79,-96.74 747,-103.11 782.62,-139.63 754.3,-169.93 783,-212.11 783.74,-213.2 784.55,-214.25 785.42,-215.28"/>
<polygon fill="#63b8ff" stroke="#63b8ff" points="783.18,-217.99 792.78,-222.47 788.07,-212.98 783.18,-217.99"/>
</a>
</g>
</g>
<!-- Node22&#45;&gt;Node5 -->
<g id="edge31_Node000022_Node000005" class="edge">
<title>Node22&#45;&gt;Node5</title>
<g id="a_edge31_Node000022_Node000005"><a xlink:title=" ">
<path fill="none" stroke="#63b8ff" d="M716.59,-315.63C726.49,-318.29 737.17,-321.24 747,-324.11 755.52,-326.6 764.67,-329.43 773.2,-332.12"/>
<polygon fill="#63b8ff" stroke="#63b8ff" points="772.25,-335.49 782.84,-335.19 774.38,-328.82 772.25,-335.49"/>
</a>
</g>
</g>
<!-- Node22&#45;&gt;Node6 -->
<g id="edge34_Node000022_Node000006" class="edge">
<title>Node22&#45;&gt;Node6</title>
<g id="a_edge34_Node000022_Node000006"><a xlink:title=" ">
<path fill="none" stroke="#63b8ff" d="M714.11,-296.54C724.67,-293.56 736.32,-290.23 747,-287.11 755.48,-284.64 764.62,-281.92 773.14,-279.37"/>
<polygon fill="#63b8ff" stroke="#63b8ff" points="774.23,-282.7 782.79,-276.46 772.21,-275.99 774.23,-282.7"/>
</a>
</g>
</g>
<!-- Node22&#45;&gt;Node7 -->
<g id="edge35_Node000022_Node000007" class="edge">
<title>Node22&#45;&gt;Node7</title>
<g id="a_edge35_Node000022_Node000007"><a xlink:title=" ">
<path fill="none" stroke="#63b8ff" d="M733.92,-315.61C738.67,-317.88 743.13,-320.67 747,-324.11 757.3,-333.26 787.15,-416.76 800.46,-455.07"/>
<polygon fill="#63b8ff" stroke="#63b8ff" points="797.17,-456.26 803.74,-464.57 803.78,-453.98 797.17,-456.26"/>
</a>
</g>
</g>
<!-- Node22&#45;&gt;Node8 -->
<g id="edge36_Node000022_Node000008" class="edge">
<title>Node22&#45;&gt;Node8</title>
<g id="a_edge36_Node000022_Node000008"><a xlink:title=" ">
<path fill="none" stroke="#63b8ff" d="M738.67,-306.11C751.97,-306.11 765.55,-306.11 777.06,-306.11"/>
<polygon fill="#63b8ff" stroke="#63b8ff" points="777.39,-309.61 787.39,-306.11 777.39,-302.61 777.39,-309.61"/>
</a>
</g>
</g>
<!-- Node22&#45;&gt;Node18 -->
<g id="edge32_Node000022_Node000018" class="edge">
<title>Node22&#45;&gt;Node18</title>
<g id="a_edge32_Node000022_Node000018"><a xlink:title=" ">
<path fill="none" stroke="#63b8ff" d="M731.33,-296.54C736.99,-294.08 742.37,-290.99 747,-287.11 775.04,-263.63 760.09,-241.62 783,-213.11 783.58,-212.39 784.2,-211.67 784.84,-210.97"/>
<polygon fill="#63b8ff" stroke="#63b8ff" points="787.39,-213.37 792.34,-204.01 782.63,-208.24 787.39,-213.37"/>
</a>
</g>
</g>
<!-- Node22&#45;&gt;Node19 -->
<g id="edge33_Node000022_Node000019" class="edge">
<title>Node22&#45;&gt;Node19</title>
<g id="a_edge33_Node000022_Node000019"><a xlink:title=" ">
<path fill="none" stroke="#63b8ff" d="M726.02,-296.53C733.31,-294.04 740.56,-290.95 747,-287.11 766.71,-275.36 765.77,-265.26 783,-250.11 783.82,-249.39 784.67,-248.66 785.53,-247.94"/>
<polygon fill="#63b8ff" stroke="#63b8ff" points="787.82,-250.6 793.51,-241.66 783.49,-245.1 787.82,-250.6"/>
</a>
</g>
</g>
<!-- Node24&#45;&gt;Node5 -->
<g id="edge41_Node000024_Node000005" class="edge">
<title>Node24&#45;&gt;Node5</title>
<g id="a_edge41_Node000024_Node000005"><a xlink:title=" ">
<path fill="none" stroke="#63b8ff" d="M694.34,-202.61C709.04,-212.92 731.84,-230.56 747,-250.11 769.4,-279.02 760.09,-295.6 783,-324.11 783.58,-324.84 784.2,-325.55 784.84,-326.25"/>
<polygon fill="#63b8ff" stroke="#63b8ff" points="782.63,-328.98 792.34,-333.22 787.39,-323.85 782.63,-328.98"/>
</a>
</g>
</g>
<!-- Node24&#45;&gt;Node6 -->
<g id="edge44_Node000024_Node000006" class="edge">
<title>Node24&#45;&gt;Node6</title>
<g id="a_edge44_Node000024_Node000006"><a xlink:title=" ">
<path fill="none" stroke="#63b8ff" d="M714.93,-202.69C725.63,-206.38 737.16,-211.17 747,-217.11 765.58,-228.33 766.48,-236.03 783,-250.11 784,-250.96 785.03,-251.83 786.08,-252.7"/>
<polygon fill="#63b8ff" stroke="#63b8ff" points="784.18,-255.66 794.16,-259.22 788.58,-250.22 784.18,-255.66"/>
</a>
</g>
</g>
<!-- Node24&#45;&gt;Node8 -->
<g id="edge45_Node000024_Node000008" class="edge">
<title>Node24&#45;&gt;Node8</title>
<g id="a_edge45_Node000024_Node000008"><a xlink:title=" ">
<path fill="none" stroke="#63b8ff" d="M692.16,-202.87C705.81,-213.97 728.49,-232.79 747,-250.11 763.76,-265.78 765.97,-271.74 783,-287.11 783.98,-287.99 784.99,-288.88 786.02,-289.77"/>
<polygon fill="#63b8ff" stroke="#63b8ff" points="784.09,-292.71 794.04,-296.35 788.53,-287.3 784.09,-292.71"/>
</a>
</g>
</g>
<!-- Node24&#45;&gt;Node18 -->
<g id="edge42_Node000024_Node000018" class="edge">
<title>Node24&#45;&gt;Node18</title>
<g id="a_edge42_Node000024_Node000018"><a xlink:title=" ">
<path fill="none" stroke="#63b8ff" d="M717.76,-193.41C737.35,-193.56 760.87,-193.75 778.85,-193.89"/>
<polygon fill="#63b8ff" stroke="#63b8ff" points="778.95,-197.39 788.98,-193.97 779.01,-190.39 778.95,-197.39"/>
</a>
</g>
</g>
<!-- Node24&#45;&gt;Node19 -->
<g id="edge43_Node000024_Node000019" class="edge">
<title>Node24&#45;&gt;Node19</title>
<g id="a_edge43_Node000024_Node000019"><a xlink:title=" ">
<path fill="none" stroke="#63b8ff" d="M711.07,-202.65C732.58,-209.26 760.88,-217.95 781.16,-224.18"/>
<polygon fill="#63b8ff" stroke="#63b8ff" points="780.36,-227.59 790.95,-227.18 782.42,-220.9 780.36,-227.59"/>
</a>
</g>
</g>
<!-- Node25&#45;&gt;Node5 -->
<g id="edge47_Node000025_Node000005" class="edge">
<title>Node25&#45;&gt;Node5</title>
<g id="a_edge47_Node000025_Node000005"><a xlink:title=" ">
<path fill="none" stroke="#63b8ff" d="M728.13,-278.65C734.71,-280.92 741.18,-283.7 747,-287.11 766.79,-298.73 765.97,-308.74 783,-324.11 783.98,-324.99 784.99,-325.88 786.02,-326.77"/>
<polygon fill="#63b8ff" stroke="#63b8ff" points="784.09,-329.71 794.04,-333.35 788.53,-324.3 784.09,-329.71"/>
</a>
</g>
</g>
<!-- Node25&#45;&gt;Node6 -->
<g id="edge50_Node000025_Node000006" class="edge">
<title>Node25&#45;&gt;Node6</title>
<g id="a_edge50_Node000025_Node000006"><a xlink:title=" ">
<path fill="none" stroke="#63b8ff" d="M736.07,-269.11C748.46,-269.11 761.23,-269.11 772.46,-269.11"/>
<polygon fill="#63b8ff" stroke="#63b8ff" points="772.7,-272.61 782.7,-269.11 772.7,-265.61 772.7,-272.61"/>
</a>
</g>
</g>
<!-- Node25&#45;&gt;Node8 -->
<g id="edge51_Node000025_Node000008" class="edge">
<title>Node25&#45;&gt;Node8</title>
<g id="a_edge51_Node000025_Node000008"><a xlink:title=" ">
<path fill="none" stroke="#63b8ff" d="M716.59,-278.63C726.49,-281.29 737.17,-284.24 747,-287.11 757.04,-290.05 767.96,-293.45 777.7,-296.55"/>
<polygon fill="#63b8ff" stroke="#63b8ff" points="776.75,-299.92 787.34,-299.64 778.89,-293.25 776.75,-299.92"/>
</a>
</g>
</g>
<!-- Node25&#45;&gt;Node18 -->
<g id="edge48_Node000025_Node000018" class="edge">
<title>Node25&#45;&gt;Node18</title>
<g id="a_edge48_Node000025_Node000018"><a xlink:title=" ">
<path fill="none" stroke="#63b8ff" d="M696.34,-259.46C718.06,-246.63 756.64,-223.85 782.02,-208.86"/>
<polygon fill="#63b8ff" stroke="#63b8ff" points="783.89,-211.82 790.72,-203.73 780.33,-205.8 783.89,-211.82"/>
</a>
</g>
</g>
<!-- Node25&#45;&gt;Node19 -->
<g id="edge49_Node000025_Node000019" class="edge">
<title>Node25&#45;&gt;Node19</title>
<g id="a_edge49_Node000025_Node000019"><a xlink:title=" ">
<path fill="none" stroke="#63b8ff" d="M712.71,-259.58C733.89,-253.41 761.1,-245.48 780.84,-239.73"/>
<polygon fill="#63b8ff" stroke="#63b8ff" points="782.06,-243.02 790.69,-236.86 780.11,-236.3 782.06,-243.02"/>
</a>
</g>
</g>
<!-- Node26&#45;&gt;Node6 -->
<g id="edge57_Node000026_Node000006" class="edge">
<title>Node26&#45;&gt;Node6</title>
<g id="a_edge57_Node000026_Node000006"><a xlink:title=" ">
<path fill="none" stroke="#63b8ff" d="M543.28,-184.85C602.34,-172.62 714.11,-153.29 747,-174.11 778.58,-194.1 759.74,-220.86 783,-250.11 783.58,-250.84 784.19,-251.56 784.83,-252.26"/>
<polygon fill="#63b8ff" stroke="#63b8ff" points="782.62,-254.98 792.32,-259.24 787.39,-249.86 782.62,-254.98"/>
</a>
</g>
</g>
<!-- Node26&#45;&gt;Node18 -->
<g id="edge55_Node000026_Node000018" class="edge">
<title>Node26&#45;&gt;Node18</title>
<g id="a_edge55_Node000026_Node000018"><a xlink:title=" ">
<path fill="none" stroke="#63b8ff" d="M543.07,-190.23C554.66,-187.58 566.6,-182.75 575,-174.11 621.88,-125.87 558.08,-68.63 611,-27.11 658.55,10.2 697.56,7.66 747,-27.11 795.21,-61.01 804.87,-137.5 806.68,-174"/>
<polygon fill="#63b8ff" stroke="#63b8ff" points="803.19,-174.46 807.03,-184.34 810.19,-174.22 803.19,-174.46"/>
</a>
</g>
</g>
<!-- Node26&#45;&gt;Node21 -->
<g id="edge54_Node000026_Node000021" class="edge">
<title>Node26&#45;&gt;Node21</title>
<g id="a_edge54_Node000026_Node000021"><a xlink:title=" ">
<path fill="none" stroke="#63b8ff" d="M543.06,-188.79C554.25,-186.03 565.96,-181.5 575,-174.11 602.4,-151.72 584.47,-126.51 611,-103.11 615.57,-99.08 620.87,-95.71 626.44,-92.9"/>
<polygon fill="#63b8ff" stroke="#63b8ff" points="628.27,-95.92 636,-88.67 625.44,-89.51 628.27,-95.92"/>
</a>
</g>
</g>
<!-- Node26&#45;&gt;Node22 -->
<g id="edge56_Node000026_Node000022" class="edge">
<title>Node26&#45;&gt;Node22</title>
<g id="a_edge56_Node000026_Node000022"><a xlink:title=" ">
<path fill="none" stroke="#63b8ff" d="M513.92,-202.66C530.16,-221.61 569.2,-264.1 611,-287.11 615.15,-289.4 619.6,-291.43 624.16,-293.23"/>
<polygon fill="#63b8ff" stroke="#63b8ff" points="623.02,-296.54 633.62,-296.61 625.38,-289.95 623.02,-296.54"/>
</a>
</g>
</g>
<!-- Node26&#45;&gt;Node24 -->
<g id="edge58_Node000026_Node000024" class="edge">
<title>Node26&#45;&gt;Node24</title>
<g id="a_edge58_Node000026_Node000024"><a xlink:title=" ">
<path fill="none" stroke="#63b8ff" d="M543.32,-193.11C568.82,-193.11 602.82,-193.11 630.28,-193.11"/>
<polygon fill="#63b8ff" stroke="#63b8ff" points="630.45,-196.61 640.45,-193.11 630.45,-189.61 630.45,-196.61"/>
</a>
</g>
</g>
<!-- Node31&#45;&gt;Node2 -->
<g id="edge64_Node000031_Node000002" class="edge">
<title>Node31&#45;&gt;Node2</title>
<g id="a_edge64_Node000031_Node000002"><a xlink:title=" ">
<path fill="none" stroke="#63b8ff" d="M253.19,-648.11C261.49,-648.11 270.06,-648.11 278.46,-648.11"/>
<polygon fill="#63b8ff" stroke="#63b8ff" points="278.6,-651.61 288.6,-648.11 278.6,-644.61 278.6,-651.61"/>
</a>
</g>
</g>
</g>
</svg>

<g id="navigator" transform="translate(0 0)" fill="#404254">
  <rect fill="#f2f5e9" fill-opacity="0.5" stroke="#606060" stroke-width=".5" x="0" y="0" width="60" height="60"/>
  <use id="zoomplus" xlink:href="#zoomPlus" x="17" y="9" onmousedown="handleZoom(evt,'in')"/>
  <use id="zoomminus" xlink:href="#zoomMin" x="42" y="9" onmousedown="handleZoom(evt,'out')"/>
  <use id="reset" xlink:href="#resetDef" x="30" y="36" onmousedown="handleReset()"/>
   <use id="arrowup" xlink:href="#arrowUp" x="0" y="0" onmousedown="handlePan(0,-1)"/>
  <use id="arrowright" xlink:href="#arrowRight" x="0" y="0" onmousedown="handlePan(1,0)"/>
  <use id="arrowdown" xlink:href="#arrowDown" x="0" y="0" onmousedown="handlePan(0,1)"/>
  <use id="arrowleft" xlink:href="#arrowLeft" x="0" y="0" onmousedown="handlePan(-1,0)"/>
</g>
<svg viewBox="0 0 15 15" width="100%" height="30px" preserveAspectRatio="xMaxYMin meet">
 <g id="arrow_out" transform="scale(0.3 0.3)">
  <a xlink:href="main_8c_a6dcb60291ae68ad8fa0ccea39658279a_cgraph_org.svg" target="_base">
   <rect id="button" ry="5" rx="5" y="6" x="6" height="38" width="38"
        fill="#f2f5e9" fill-opacity="0.5" stroke="#606060" stroke-width="1.0"/>
   <path id="arrow"
     d="M 11.500037,31.436501 C 11.940474,20.09759 22.043105,11.32322 32.158766,21.979434 L 37.068811,17.246167 C 37.068811,17.246167 37.088388,32 37.088388,32 L 22.160133,31.978069 C 22.160133,31.978069 26.997745,27.140456 26.997745,27.140456 C 18.528582,18.264221 13.291696,25.230495 11.500037,31.436501 z"
     style="fill:#404040;"/>
  </a>
 </g>
</svg>

<style type='text/css'>
<![CDATA[
[data-mouse-over-selected='false'] { opacity: 0.7; }
[data-mouse-over-selected='true']  { opacity: 1.0; }
]]>
</style>
<script type="application/ecmascript"><![CDATA[
document.addEventListener('DOMContentLoaded', (event) => {
  highlightEdges();
  highlightAdjacentNodes();
});
]]></script>
</svg>
