<?xml version="1.0" encoding="UTF-8" standalone="no"?>
<!DOCTYPE svg PUBLIC "-//W3C//DTD SVG 1.1//EN"
 "http://www.w3.org/Graphics/SVG/1.1/DTD/svg11.dtd">
<!-- Generated by graphviz version 2.43.0 (0)
 -->
<!-- Title: FormRK Pages: 1 -->
<svg width="610pt" height="585pt"
 viewBox="0.00 0.00 610.00 584.84" xmlns="http://www.w3.org/2000/svg" xmlns:xlink="http://www.w3.org/1999/xlink">
<g id="graph0" class="graph" transform="scale(1 1) rotate(0) translate(4 580.84)">
<title>FormRK</title>
<!-- Node1 -->
<g id="Node000001" class="node">
<title>Node1</title>
<g id="a_Node000001"><a xlink:title=" ">
<polygon fill="#999999" stroke="#666666" points="55,-132.78 0,-132.78 0,-113.78 55,-113.78 55,-132.78"/>
<text text-anchor="middle" x="27.5" y="-120.78" font-family="Helvetica,sans-Serif" font-size="10.00">FormRK</text>
</a>
</g>
</g>
<!-- Node2 -->
<g id="Node000002" class="node">
<title>Node2</title>
<g id="a_Node000002"><a xlink:href="io_8c.html#ac6a6fe57e1e391ebe52b1dbffde4ba5b" target="_top" xlink:title=" ">
<polygon fill="white" stroke="#666666" points="485.5,-545.78 410.5,-545.78 410.5,-526.78 485.5,-526.78 485.5,-545.78"/>
<text text-anchor="middle" x="448" y="-533.78" font-family="Helvetica,sans-Serif" font-size="10.00">AreaNormal</text>
</a>
</g>
</g>
<!-- Node1&#45;&gt;Node2 -->
<g id="edge1_Node000001_Node000002" class="edge">
<title>Node1&#45;&gt;Node2</title>
<g id="a_edge1_Node000001_Node000002"><a xlink:title=" ">
<path fill="none" stroke="#63b8ff" d="M32.55,-132.94C41.32,-153.2 63.5,-201.1 91,-235.28 195.47,-365.15 362.22,-480.85 423.46,-521.14"/>
<polygon fill="#63b8ff" stroke="#63b8ff" points="421.75,-524.2 432.03,-526.74 425.58,-518.34 421.75,-524.2"/>
</a>
</g>
</g>
<!-- Node7 -->
<g id="Node000007" class="node">
<title>Node7</title>
<g id="a_Node000007"><a xlink:href="bcs_8c.html#aef1719332b4828ce07ba0c7a6bba7bcd" target="_top" xlink:title=" ">
<polygon fill="white" stroke="#666666" points="161,-151.78 98,-151.78 98,-132.78 161,-132.78 161,-151.78"/>
<text text-anchor="middle" x="129.5" y="-139.78" font-family="Helvetica,sans-Serif" font-size="10.00">FExternal</text>
</a>
</g>
</g>
<!-- Node1&#45;&gt;Node7 -->
<g id="edge6_Node000001_Node000007" class="edge">
<title>Node1&#45;&gt;Node7</title>
<g id="a_edge6_Node000001_Node000007"><a xlink:title=" ">
<path fill="none" stroke="#63b8ff" d="M55.04,-128.32C65.14,-130.24 76.89,-132.47 87.99,-134.58"/>
<polygon fill="#63b8ff" stroke="#63b8ff" points="87.47,-138.04 97.94,-136.47 88.77,-131.17 87.47,-138.04"/>
</a>
</g>
</g>
<!-- Node12 -->
<g id="Node000012" class="node">
<title>Node12</title>
<g id="a_Node000012"><a xlink:href="main_8c.html#a59ccabe25c63661e6e66b44209b0f162" target="_top" xlink:title=" ">
<polygon fill="white" stroke="#666666" points="159.5,-225.78 99.5,-225.78 99.5,-206.78 159.5,-206.78 159.5,-225.78"/>
<text text-anchor="middle" x="129.5" y="-213.78" font-family="Helvetica,sans-Serif" font-size="10.00">FInternal</text>
</a>
</g>
</g>
<!-- Node1&#45;&gt;Node12 -->
<g id="edge11_Node000001_Node000012" class="edge">
<title>Node1&#45;&gt;Node12</title>
<g id="a_edge11_Node000001_Node000012"><a xlink:title=" ">
<path fill="none" stroke="#63b8ff" d="M38.83,-132.88C55.74,-148.61 89.57,-180.07 110.5,-199.54"/>
<polygon fill="#63b8ff" stroke="#63b8ff" points="108.37,-202.34 118.08,-206.59 113.14,-197.21 108.37,-202.34"/>
</a>
</g>
</g>
<!-- Node26 -->
<g id="Node000026" class="node">
<title>Node26</title>
<g id="a_Node000026"><a xlink:href="bcs_8c.html#a66bea6d23d803ebc455e934629a0c7be" target="_top" xlink:title=" ">
<polygon fill="white" stroke="#666666" points="160.5,-114.78 98.5,-114.78 98.5,-95.78 160.5,-95.78 160.5,-114.78"/>
<text text-anchor="middle" x="129.5" y="-102.78" font-family="Helvetica,sans-Serif" font-size="10.00">GhostLoc</text>
</a>
</g>
</g>
<!-- Node1&#45;&gt;Node26 -->
<g id="edge58_Node000001_Node000026" class="edge">
<title>Node1&#45;&gt;Node26</title>
<g id="a_edge58_Node000001_Node000026"><a xlink:title=" ">
<path fill="none" stroke="#63b8ff" d="M55.04,-118.5C65.22,-116.67 77.1,-114.53 88.29,-112.52"/>
<polygon fill="#63b8ff" stroke="#63b8ff" points="89.08,-115.93 98.3,-110.71 87.84,-109.04 89.08,-115.93"/>
</a>
</g>
</g>
<!-- Node27 -->
<g id="Node000027" class="node">
<title>Node27</title>
<g id="a_Node000027"><a xlink:href="bending_8c.html#a4a1f5973a55922b27065f712220d8152" target="_top" xlink:title=" ">
<polygon fill="white" stroke="#666666" points="168,-77.78 91,-77.78 91,-58.78 168,-58.78 168,-77.78"/>
<text text-anchor="middle" x="129.5" y="-65.78" font-family="Helvetica,sans-Serif" font-size="10.00">GlobalGhost</text>
</a>
</g>
</g>
<!-- Node1&#45;&gt;Node27 -->
<g id="edge59_Node000001_Node000027" class="edge">
<title>Node1&#45;&gt;Node27</title>
<g id="a_edge59_Node000001_Node000027"><a xlink:title=" ">
<path fill="none" stroke="#63b8ff" d="M43.7,-113.78C56.22,-106.07 74.54,-95.08 91,-86.28 93.42,-84.98 95.96,-83.67 98.51,-82.38"/>
<polygon fill="#63b8ff" stroke="#63b8ff" points="100.28,-85.42 107.71,-77.86 97.19,-79.13 100.28,-85.42"/>
</a>
</g>
</g>
<!-- Node28 -->
<g id="Node000028" class="node">
<title>Node28</title>
<g id="a_Node000028"><a xlink:href="bending_8c.html#a907be03803f4a1d456a7a1650461f7eb" target="_top" xlink:title=" ">
<polygon fill="white" stroke="#666666" points="159,-40.78 100,-40.78 100,-21.78 159,-21.78 159,-40.78"/>
<text text-anchor="middle" x="129.5" y="-28.78" font-family="Helvetica,sans-Serif" font-size="10.00">PatchLoc</text>
</a>
</g>
</g>
<!-- Node1&#45;&gt;Node28 -->
<g id="edge60_Node000001_Node000028" class="edge">
<title>Node1&#45;&gt;Node28</title>
<g id="a_edge60_Node000001_Node000028"><a xlink:title=" ">
<path fill="none" stroke="#63b8ff" d="M34.74,-113.5C44.95,-98.16 66.53,-68.21 91,-49.28 92.54,-48.08 94.18,-46.94 95.87,-45.85"/>
<polygon fill="#63b8ff" stroke="#63b8ff" points="97.65,-48.87 104.6,-40.88 94.18,-42.79 97.65,-48.87"/>
</a>
</g>
</g>
<!-- Node3 -->
<g id="Node000003" class="node">
<title>Node3</title>
<g id="a_Node000003"><a xlink:href="math_8c.html#a9d60990d26296194c921d537ea26f3c7" target="_top" xlink:title=" ">
<polygon fill="white" stroke="#666666" points="602,-329.78 552,-329.78 552,-310.78 602,-310.78 602,-329.78"/>
<text text-anchor="middle" x="577" y="-317.78" font-family="Helvetica,sans-Serif" font-size="10.00">CROSS</text>
</a>
</g>
</g>
<!-- Node2&#45;&gt;Node3 -->
<g id="edge2_Node000002_Node000003" class="edge">
<title>Node2&#45;&gt;Node3</title>
<g id="a_edge2_Node000002_Node000003"><a xlink:title=" ">
<path fill="none" stroke="#63b8ff" d="M463.46,-526.58C478.7,-515.63 502.36,-496.4 516,-474.28 546.33,-425.06 525,-400.4 552,-349.28 554.09,-345.31 556.79,-341.39 559.62,-337.77"/>
<polygon fill="#63b8ff" stroke="#63b8ff" points="562.41,-339.89 566.22,-330 557.07,-335.35 562.41,-339.89"/>
</a>
</g>
</g>
<!-- Node4 -->
<g id="Node000004" class="node">
<title>Node4</title>
<g id="a_Node000004"><a xlink:href="math_8c.html#a9d08a9d2fd8e8932e92b8ab054b19269" target="_top" xlink:title=" ">
<polygon fill="white" stroke="#666666" points="602,-208.78 552,-208.78 552,-189.78 602,-189.78 602,-208.78"/>
<text text-anchor="middle" x="577" y="-196.78" font-family="Helvetica,sans-Serif" font-size="10.00">MINUS</text>
</a>
</g>
</g>
<!-- Node2&#45;&gt;Node4 -->
<g id="edge3_Node000002_Node000004" class="edge">
<title>Node2&#45;&gt;Node4</title>
<g id="a_edge3_Node000002_Node000004"><a xlink:title=" ">
<path fill="none" stroke="#63b8ff" d="M458.11,-526.65C472.87,-510.43 501.81,-476.03 516,-441.28 553.77,-348.73 502.47,-306.1 552,-219.28 552.63,-218.16 553.36,-217.09 554.14,-216.05"/>
<polygon fill="#63b8ff" stroke="#63b8ff" points="556.66,-218.48 561.11,-208.87 551.64,-213.61 556.66,-218.48"/>
</a>
</g>
</g>
<!-- Node5 -->
<g id="Node000005" class="node">
<title>Node5</title>
<g id="a_Node000005"><a xlink:href="math_8c.html#aa52f6593cf3e5453c8c6c94343d3fb37" target="_top" xlink:title=" ">
<polygon fill="white" stroke="#666666" points="596,-506.78 558,-506.78 558,-487.78 596,-487.78 596,-506.78"/>
<text text-anchor="middle" x="577" y="-494.78" font-family="Helvetica,sans-Serif" font-size="10.00">SIZE</text>
</a>
</g>
</g>
<!-- Node2&#45;&gt;Node5 -->
<g id="edge4_Node000002_Node000005" class="edge">
<title>Node2&#45;&gt;Node5</title>
<g id="a_edge4_Node000002_Node000005"><a xlink:title=" ">
<path fill="none" stroke="#63b8ff" d="M480.07,-526.74C500.83,-520.36 527.91,-512.04 548.01,-505.87"/>
<polygon fill="#63b8ff" stroke="#63b8ff" points="549.27,-509.15 557.81,-502.86 547.22,-502.45 549.27,-509.15"/>
</a>
</g>
</g>
<!-- Node6 -->
<g id="Node000006" class="node">
<title>Node6</title>
<g id="a_Node000006"><a xlink:href="math_8c.html#ac616709995f2ae60c4308ffa328337d7" target="_top" xlink:title=" ">
<polygon fill="white" stroke="#666666" points="597.5,-376.78 556.5,-376.78 556.5,-357.78 597.5,-357.78 597.5,-376.78"/>
<text text-anchor="middle" x="577" y="-364.78" font-family="Helvetica,sans-Serif" font-size="10.00">UNIT</text>
</a>
</g>
</g>
<!-- Node2&#45;&gt;Node6 -->
<g id="edge5_Node000002_Node000006" class="edge">
<title>Node2&#45;&gt;Node6</title>
<g id="a_edge5_Node000002_Node000006"><a xlink:title=" ">
<path fill="none" stroke="#63b8ff" d="M485.78,-529.58C496.69,-526.02 507.88,-520.58 516,-512.28 551.38,-476.11 530.06,-449.87 552,-404.28 555.09,-397.85 559.12,-391.2 562.98,-385.34"/>
<polygon fill="#63b8ff" stroke="#63b8ff" points="565.98,-387.15 568.77,-376.93 560.21,-383.18 565.98,-387.15"/>
</a>
</g>
</g>
<!-- Node8 -->
<g id="Node000008" class="node">
<title>Node8</title>
<g id="a_Node000008"><a xlink:href="external_8c.html#a22b3c63a6ce5f1e1b42620161af0ffed" target="_top" xlink:title=" ">
<polygon fill="white" stroke="#666666" points="301.5,-170.78 246.5,-170.78 246.5,-151.78 301.5,-151.78 301.5,-170.78"/>
<text text-anchor="middle" x="274" y="-158.78" font-family="Helvetica,sans-Serif" font-size="10.00">EdgeFix</text>
</a>
</g>
</g>
<!-- Node7&#45;&gt;Node8 -->
<g id="edge7_Node000007_Node000008" class="edge">
<title>Node7&#45;&gt;Node8</title>
<g id="a_edge7_Node000007_Node000008"><a xlink:title=" ">
<path fill="none" stroke="#63b8ff" d="M161.07,-146.35C183.05,-149.28 212.81,-153.25 236.12,-156.36"/>
<polygon fill="#63b8ff" stroke="#63b8ff" points="235.94,-159.87 246.32,-157.72 236.87,-152.93 235.94,-159.87"/>
</a>
</g>
</g>
<!-- Node9 -->
<g id="Node000009" class="node">
<title>Node9</title>
<g id="a_Node000009"><a xlink:href="external_8c.html#a8413465e3e520087c8e3b053fa1445bf" target="_top" xlink:title=" ">
<polygon fill="white" stroke="#666666" points="305,-133.78 243,-133.78 243,-114.78 305,-114.78 305,-133.78"/>
<text text-anchor="middle" x="274" y="-121.78" font-family="Helvetica,sans-Serif" font-size="10.00">EdgeFree</text>
</a>
</g>
</g>
<!-- Node7&#45;&gt;Node9 -->
<g id="edge8_Node000007_Node000009" class="edge">
<title>Node7&#45;&gt;Node9</title>
<g id="a_edge8_Node000007_Node000009"><a xlink:title=" ">
<path fill="none" stroke="#63b8ff" d="M161.07,-138.42C182.06,-135.76 210.14,-132.22 232.92,-129.34"/>
<polygon fill="#63b8ff" stroke="#63b8ff" points="233.49,-132.8 242.97,-128.07 232.61,-125.85 233.49,-132.8"/>
</a>
</g>
</g>
<!-- Node10 -->
<g id="Node000010" class="node">
<title>Node10</title>
<g id="a_Node000010"><a xlink:href="external_8c.html#a93115e0e971ccd05cacd122af8636e18" target="_top" xlink:title=" ">
<polygon fill="white" stroke="#666666" points="344,-96.28 204,-96.28 204,-66.28 344,-66.28 344,-96.28"/>
<text text-anchor="start" x="212" y="-84.28" font-family="Helvetica,sans-Serif" font-size="10.00">FExternalPrescribedForce</text>
<text text-anchor="middle" x="274" y="-73.28" font-family="Helvetica,sans-Serif" font-size="10.00">FieldIn</text>
</a>
</g>
</g>
<!-- Node7&#45;&gt;Node10 -->
<g id="edge9_Node000007_Node000010" class="edge">
<title>Node7&#45;&gt;Node10</title>
<g id="a_edge9_Node000007_Node000010"><a xlink:title=" ">
<path fill="none" stroke="#63b8ff" d="M150.81,-132.7C156.4,-130.02 162.45,-127.07 168,-124.28 184.16,-116.14 187.41,-112.49 204,-105.28 208.17,-103.46 212.52,-101.69 216.93,-99.98"/>
<polygon fill="#63b8ff" stroke="#63b8ff" points="218.48,-103.13 226.61,-96.33 216.01,-96.58 218.48,-103.13"/>
</a>
</g>
</g>
<!-- Node11 -->
<g id="Node000011" class="node">
<title>Node11</title>
<g id="a_Node000011"><a xlink:href="external_8c.html#a2c35b4a18d3e0e8b054b145c6b01bf1b" target="_top" xlink:title=" ">
<polygon fill="white" stroke="#666666" points="308,-47.78 240,-47.78 240,-28.78 308,-28.78 308,-47.78"/>
<text text-anchor="middle" x="274" y="-35.78" font-family="Helvetica,sans-Serif" font-size="10.00">NodeForce</text>
</a>
</g>
</g>
<!-- Node7&#45;&gt;Node11 -->
<g id="edge10_Node000007_Node000011" class="edge">
<title>Node7&#45;&gt;Node11</title>
<g id="a_edge10_Node000007_Node000011"><a xlink:title=" ">
<path fill="none" stroke="#63b8ff" d="M156.11,-132.69C160.39,-130.36 164.55,-127.57 168,-124.28 192.44,-100.92 177.57,-78.35 204,-57.28 211.49,-51.3 220.73,-47.2 229.98,-44.39"/>
<polygon fill="#63b8ff" stroke="#63b8ff" points="231.14,-47.71 239.95,-41.82 229.39,-40.93 231.14,-47.71"/>
</a>
</g>
</g>
<!-- Node13 -->
<g id="Node000013" class="node">
<title>Node13</title>
<g id="a_Node000013"><a xlink:href="bending_8c.html#a2b66770553fce4724cfb65b0f79e83b1" target="_top" xlink:title=" ">
<polygon fill="white" stroke="#666666" points="305,-301.78 243,-301.78 243,-282.78 305,-282.78 305,-301.78"/>
<text text-anchor="middle" x="274" y="-289.78" font-family="Helvetica,sans-Serif" font-size="10.00">Fbending</text>
</a>
</g>
</g>
<!-- Node12&#45;&gt;Node13 -->
<g id="edge12_Node000012_Node000013" class="edge">
<title>Node12&#45;&gt;Node13</title>
<g id="a_edge12_Node000012_Node000013"><a xlink:title=" ">
<path fill="none" stroke="#63b8ff" d="M148.55,-225.9C173.17,-239.04 217.5,-262.68 246.07,-277.91"/>
<polygon fill="#63b8ff" stroke="#63b8ff" points="244.63,-281.11 255.1,-282.73 247.92,-274.94 244.63,-281.11"/>
</a>
</g>
</g>
<!-- Node24 -->
<g id="Node000024" class="node">
<title>Node24</title>
<g id="a_Node000024"><a xlink:href="membrane_8c.html#a9fee56a81a4f404db4630a996f38013c" target="_top" xlink:title=" ">
<polygon fill="white" stroke="#666666" points="312,-207.78 236,-207.78 236,-188.78 312,-188.78 312,-207.78"/>
<text text-anchor="middle" x="274" y="-195.78" font-family="Helvetica,sans-Serif" font-size="10.00">Fmembrane</text>
</a>
</g>
</g>
<!-- Node12&#45;&gt;Node24 -->
<g id="edge51_Node000012_Node000024" class="edge">
<title>Node12&#45;&gt;Node24</title>
<g id="a_edge51_Node000012_Node000024"><a xlink:title=" ">
<path fill="none" stroke="#63b8ff" d="M159.68,-212.59C178.73,-210.19 204.03,-206.99 225.89,-204.23"/>
<polygon fill="#63b8ff" stroke="#63b8ff" points="226.5,-207.68 235.98,-202.95 225.62,-200.73 226.5,-207.68"/>
</a>
</g>
</g>
<!-- Node25 -->
<g id="Node000025" class="node">
<title>Node25</title>
<g id="a_Node000025"><a xlink:href="bcs_8c.html#a679ccb265fdae6027920ac949da40b91" target="_top" xlink:title=" ">
<polygon fill="white" stroke="#666666" points="321.5,-244.78 226.5,-244.78 226.5,-225.78 321.5,-225.78 321.5,-244.78"/>
<text text-anchor="middle" x="274" y="-232.78" font-family="Helvetica,sans-Serif" font-size="10.00">ModifyFbending</text>
</a>
</g>
</g>
<!-- Node12&#45;&gt;Node25 -->
<g id="edge57_Node000012_Node000025" class="edge">
<title>Node12&#45;&gt;Node25</title>
<g id="a_edge57_Node000012_Node000025"><a xlink:title=" ">
<path fill="none" stroke="#63b8ff" d="M159.68,-220.17C176.05,-222.35 197.02,-225.15 216.47,-227.74"/>
<polygon fill="#63b8ff" stroke="#63b8ff" points="216.09,-231.22 226.47,-229.07 217.02,-224.28 216.09,-231.22"/>
</a>
</g>
</g>
<!-- Node13&#45;&gt;Node3 -->
<g id="edge25_Node000013_Node000003" class="edge">
<title>Node13&#45;&gt;Node3</title>
<g id="a_edge25_Node000013_Node000003"><a xlink:title=" ">
<path fill="none" stroke="#63b8ff" d="M278.24,-302.02C288.14,-330.02 321.01,-410.68 380,-441.28 433.66,-469.11 466.08,-475.35 516,-441.28 552.27,-416.52 529.72,-387.11 552,-349.28 554.31,-345.35 557.15,-341.41 560.05,-337.75"/>
<polygon fill="#63b8ff" stroke="#63b8ff" points="562.92,-339.78 566.72,-329.89 557.58,-335.25 562.92,-339.78"/>
</a>
</g>
</g>
<!-- Node13&#45;&gt;Node4 -->
<g id="edge35_Node000013_Node000004" class="edge">
<title>Node13&#45;&gt;Node4</title>
<g id="a_edge35_Node000013_Node000004"><a xlink:title=" ">
<path fill="none" stroke="#63b8ff" d="M302.34,-282.68C316.46,-276.5 332.99,-267.18 344,-254.28 374.66,-218.35 341.35,-181.44 380,-154.28 429.45,-119.52 458.66,-135.16 516,-154.28 532.7,-159.84 548.49,-172.08 559.68,-182.39"/>
<polygon fill="#63b8ff" stroke="#63b8ff" points="557.34,-185 566.96,-189.43 562.21,-179.96 557.34,-185"/>
</a>
</g>
</g>
<!-- Node13&#45;&gt;Node5 -->
<g id="edge37_Node000013_Node000005" class="edge">
<title>Node13&#45;&gt;Node5</title>
<g id="a_edge37_Node000013_Node000005"><a xlink:title=" ">
<path fill="none" stroke="#63b8ff" d="M275.29,-301.99C277.09,-341.92 289.84,-494.2 380,-555.28 430.04,-589.18 459.96,-577.93 516,-555.28 535.83,-547.26 552.75,-529.19 563.51,-515.34"/>
<polygon fill="#63b8ff" stroke="#63b8ff" points="566.55,-517.12 569.67,-506.99 560.92,-512.96 566.55,-517.12"/>
</a>
</g>
</g>
<!-- Node13&#45;&gt;Node6 -->
<g id="edge50_Node000013_Node000006" class="edge">
<title>Node13&#45;&gt;Node6</title>
<g id="a_edge50_Node000013_Node000006"><a xlink:title=" ">
<path fill="none" stroke="#63b8ff" d="M279.25,-301.85C294.4,-335.52 346.66,-447.46 380,-466.28 432.64,-495.99 463.62,-496.44 516,-466.28 543.61,-450.38 535.32,-431.43 552,-404.28 555.79,-398.11 560.05,-391.46 563.92,-385.51"/>
<polygon fill="#63b8ff" stroke="#63b8ff" points="566.99,-387.21 569.55,-376.93 561.14,-383.37 566.99,-387.21"/>
</a>
</g>
</g>
<!-- Node14 -->
<g id="Node000014" class="node">
<title>Node14</title>
<g id="a_Node000014"><a xlink:href="math_8c.html#a7ef9263b0a3a10c2cd00bb4dc0059d70" target="_top" xlink:title=" ">
<polygon fill="white" stroke="#666666" points="473,-394.78 423,-394.78 423,-375.78 473,-375.78 473,-394.78"/>
<text text-anchor="middle" x="448" y="-382.78" font-family="Helvetica,sans-Serif" font-size="10.00">AMULT</text>
</a>
</g>
</g>
<!-- Node13&#45;&gt;Node14 -->
<g id="edge13_Node000013_Node000014" class="edge">
<title>Node13&#45;&gt;Node14</title>
<g id="a_edge13_Node000013_Node000014"><a xlink:title=" ">
<path fill="none" stroke="#63b8ff" d="M285.52,-301.79C303.56,-317.61 342.12,-349.38 380,-367.28 390.23,-372.11 401.98,-375.82 412.75,-378.58"/>
<polygon fill="#63b8ff" stroke="#63b8ff" points="412.16,-382.04 422.7,-380.94 413.78,-375.23 412.16,-382.04"/>
</a>
</g>
</g>
<!-- Node15 -->
<g id="Node000015" class="node">
<title>Node15</title>
<g id="a_Node000015"><a xlink:href="material_8c.html#af81ecf5fbfd52082e0abd3184f12c14f" target="_top" xlink:title=" ">
<polygon fill="white" stroke="#666666" points="501,-431.78 395,-431.78 395,-412.78 501,-412.78 501,-431.78"/>
<text text-anchor="middle" x="448" y="-419.78" font-family="Helvetica,sans-Serif" font-size="10.00">BendingNonLinear</text>
</a>
</g>
</g>
<!-- Node13&#45;&gt;Node15 -->
<g id="edge14_Node000013_Node000015" class="edge">
<title>Node13&#45;&gt;Node15</title>
<g id="a_edge14_Node000013_Node000015"><a xlink:title=" ">
<path fill="none" stroke="#63b8ff" d="M281.31,-302.08C295.91,-323.93 334.28,-376.87 380,-404.28 382.84,-405.98 385.84,-407.53 388.94,-408.93"/>
<polygon fill="#63b8ff" stroke="#63b8ff" points="387.87,-412.27 398.46,-412.71 390.46,-405.76 387.87,-412.27"/>
</a>
</g>
</g>
<!-- Node16 -->
<g id="Node000016" class="node">
<title>Node16</title>
<g id="a_Node000016"><a xlink:href="math_8c.html#a870a70f4845a041458d9bdb0dd7aabd3" target="_top" xlink:title=" ">
<polygon fill="white" stroke="#666666" points="596,-283.78 558,-283.78 558,-264.78 596,-264.78 596,-283.78"/>
<text text-anchor="middle" x="577" y="-271.78" font-family="Helvetica,sans-Serif" font-size="10.00">DOT</text>
</a>
</g>
</g>
<!-- Node13&#45;&gt;Node16 -->
<g id="edge26_Node000013_Node000016" class="edge">
<title>Node13&#45;&gt;Node16</title>
<g id="a_edge26_Node000013_Node000016"><a xlink:title=" ">
<path fill="none" stroke="#63b8ff" d="M296.18,-282.69C317.01,-273.82 349.97,-261.28 380,-256.28 439.62,-246.34 456.2,-247.5 516,-256.28 526.7,-257.85 538.14,-260.91 548.14,-264.08"/>
<polygon fill="#63b8ff" stroke="#63b8ff" points="547.34,-267.5 557.93,-267.35 549.56,-260.86 547.34,-267.5"/>
</a>
</g>
</g>
<!-- Node17 -->
<g id="Node000017" class="node">
<title>Node17</title>
<g id="a_Node000017"><a xlink:href="math_8c.html#a3f73e4cd9eab76eeee084eabf2b98ec9" target="_top" xlink:title=" ">
<polygon fill="white" stroke="#666666" points="594,-246.78 560,-246.78 560,-227.78 594,-227.78 594,-246.78"/>
<text text-anchor="middle" x="577" y="-234.78" font-family="Helvetica,sans-Serif" font-size="10.00">INV</text>
</a>
</g>
</g>
<!-- Node13&#45;&gt;Node17 -->
<g id="edge27_Node000013_Node000017" class="edge">
<title>Node13&#45;&gt;Node17</title>
<g id="a_edge27_Node000013_Node000017"><a xlink:title=" ">
<path fill="none" stroke="#63b8ff" d="M300.79,-282.64C314.96,-276.32 332.03,-266.87 344,-254.28 369.2,-227.77 348.99,-199.67 380,-180.28 431.24,-148.22 460.47,-156.39 516,-180.28 537.37,-189.47 534.84,-202.57 552,-218.28 552.97,-219.17 553.98,-220.06 555.01,-220.95"/>
<polygon fill="#63b8ff" stroke="#63b8ff" points="553.07,-223.89 563.02,-227.55 557.52,-218.49 553.07,-223.89"/>
</a>
</g>
</g>
<!-- Node19 -->
<g id="Node000019" class="node">
<title>Node19</title>
<g id="a_Node000019"><a xlink:href="material_8c.html#a3243950933f3559f19edcb5421360526" target="_top" xlink:title=" ">
<polygon fill="white" stroke="#666666" points="516,-55.78 380,-55.78 380,-36.78 516,-36.78 516,-55.78"/>
<text text-anchor="middle" x="448" y="-43.78" font-family="Helvetica,sans-Serif" font-size="10.00">CalcCurvStressStrainxyz</text>
</a>
</g>
</g>
<!-- Node13&#45;&gt;Node19 -->
<g id="edge22_Node000013_Node000019" class="edge">
<title>Node13&#45;&gt;Node19</title>
<g id="a_edge22_Node000013_Node000019"><a xlink:title=" ">
<path fill="none" stroke="#63b8ff" d="M304.54,-282.72C318.56,-276.71 334.33,-267.53 344,-254.28 393.11,-186.96 325.68,-133.47 380,-70.28 383.25,-66.49 387.14,-63.31 391.39,-60.62"/>
<polygon fill="#63b8ff" stroke="#63b8ff" points="393.33,-63.56 400.53,-55.79 390.06,-57.37 393.33,-63.56"/>
</a>
</g>
</g>
<!-- Node20 -->
<g id="Node000020" class="node">
<title>Node20</title>
<g id="a_Node000020"><a xlink:href="material_8c.html#aa93862cca1fe83c736219df7d4a91374" target="_top" xlink:title=" ">
<polygon fill="white" stroke="#666666" points="507.5,-320.78 388.5,-320.78 388.5,-301.78 507.5,-301.78 507.5,-320.78"/>
<text text-anchor="middle" x="448" y="-308.78" font-family="Helvetica,sans-Serif" font-size="10.00">MembraneNonLinear</text>
</a>
</g>
</g>
<!-- Node13&#45;&gt;Node20 -->
<g id="edge28_Node000013_Node000020" class="edge">
<title>Node13&#45;&gt;Node20</title>
<g id="a_edge28_Node000013_Node000020"><a xlink:title=" ">
<path fill="none" stroke="#63b8ff" d="M305.35,-295.63C325.62,-297.87 353.1,-300.91 378.47,-303.71"/>
<polygon fill="#63b8ff" stroke="#63b8ff" points="378.12,-307.19 388.44,-304.81 378.89,-300.23 378.12,-307.19"/>
</a>
</g>
</g>
<!-- Node21 -->
<g id="Node000021" class="node">
<title>Node21</title>
<g id="a_Node000021"><a xlink:href="math_8c.html#ae18926821a703a2c5b281bd890b7e6a0" target="_top" xlink:title=" ">
<polygon fill="white" stroke="#666666" points="468.5,-357.78 427.5,-357.78 427.5,-338.78 468.5,-338.78 468.5,-357.78"/>
<text text-anchor="middle" x="448" y="-345.78" font-family="Helvetica,sans-Serif" font-size="10.00">PLUS</text>
</a>
</g>
</g>
<!-- Node13&#45;&gt;Node21 -->
<g id="edge36_Node000013_Node000021" class="edge">
<title>Node13&#45;&gt;Node21</title>
<g id="a_edge36_Node000013_Node000021"><a xlink:title=" ">
<path fill="none" stroke="#63b8ff" d="M299.83,-301.94C320.98,-310 352.26,-321.55 380,-330.28 392.17,-334.11 405.75,-337.85 417.48,-340.92"/>
<polygon fill="#63b8ff" stroke="#63b8ff" points="416.67,-344.33 427.23,-343.44 418.42,-337.55 416.67,-344.33"/>
</a>
</g>
</g>
<!-- Node22 -->
<g id="Node000022" class="node">
<title>Node22</title>
<g id="a_Node000022"><a xlink:href="material_8c.html#a431e1e9b5ceabfa4edc2920b70296b35" target="_top" xlink:title=" ">
<polygon fill="white" stroke="#666666" points="486.5,-207.78 409.5,-207.78 409.5,-188.78 486.5,-188.78 486.5,-207.78"/>
<text text-anchor="middle" x="448" y="-195.78" font-family="Helvetica,sans-Serif" font-size="10.00">StressLinear</text>
</a>
</g>
</g>
<!-- Node13&#45;&gt;Node22 -->
<g id="edge38_Node000013_Node000022" class="edge">
<title>Node13&#45;&gt;Node22</title>
<g id="a_edge38_Node000013_Node000022"><a xlink:title=" ">
<path fill="none" stroke="#63b8ff" d="M295.03,-282.75C309.19,-275.65 328.36,-265.32 344,-254.28 361.48,-241.93 361.59,-233.2 380,-222.28 387.1,-218.07 395.06,-214.42 402.95,-211.33"/>
<polygon fill="#63b8ff" stroke="#63b8ff" points="404.29,-214.56 412.47,-207.83 401.87,-207.99 404.29,-214.56"/>
</a>
</g>
</g>
<!-- Node23 -->
<g id="Node000023" class="node">
<title>Node23</title>
<g id="a_Node000023"><a xlink:href="material_8c.html#aad0d0c11a159f8021feb99ddee475d31" target="_top" xlink:title=" ">
<polygon fill="white" stroke="#666666" points="505,-283.78 391,-283.78 391,-264.78 505,-264.78 505,-283.78"/>
<text text-anchor="middle" x="448" y="-271.78" font-family="Helvetica,sans-Serif" font-size="10.00">StressManufactured</text>
</a>
</g>
</g>
<!-- Node13&#45;&gt;Node23 -->
<g id="edge44_Node000013_Node000023" class="edge">
<title>Node13&#45;&gt;Node23</title>
<g id="a_edge44_Node000013_Node000023"><a xlink:title=" ">
<path fill="none" stroke="#63b8ff" d="M305.35,-289.1C326.21,-286.92 354.73,-283.93 380.7,-281.22"/>
<polygon fill="#63b8ff" stroke="#63b8ff" points="381.31,-284.67 390.89,-280.15 380.58,-277.71 381.31,-284.67"/>
</a>
</g>
</g>
<!-- Node15&#45;&gt;Node3 -->
<g id="edge15_Node000015_Node000003" class="edge">
<title>Node15&#45;&gt;Node3</title>
<g id="a_edge15_Node000015_Node000003"><a xlink:title=" ">
<path fill="none" stroke="#63b8ff" d="M500.54,-412.65C506.04,-410.42 511.32,-407.67 516,-404.28 539.66,-387.14 534.66,-372.79 552,-349.28 554.83,-345.45 557.99,-341.45 561.06,-337.69"/>
<polygon fill="#63b8ff" stroke="#63b8ff" points="563.77,-339.91 567.5,-329.99 558.4,-335.42 563.77,-339.91"/>
</a>
</g>
</g>
<!-- Node15&#45;&gt;Node4 -->
<g id="edge18_Node000015_Node000004" class="edge">
<title>Node15&#45;&gt;Node4</title>
<g id="a_edge18_Node000015_Node000004"><a xlink:title=" ">
<path fill="none" stroke="#63b8ff" d="M501.03,-414.78C506.63,-412.19 511.81,-408.77 516,-404.28 573.11,-343 509.36,-291.37 552,-219.28 552.65,-218.17 553.39,-217.1 554.19,-216.07"/>
<polygon fill="#63b8ff" stroke="#63b8ff" points="556.7,-218.51 561.2,-208.92 551.7,-213.61 556.7,-218.51"/>
</a>
</g>
</g>
<!-- Node15&#45;&gt;Node5 -->
<g id="edge20_Node000015_Node000005" class="edge">
<title>Node15&#45;&gt;Node5</title>
<g id="a_edge20_Node000015_Node000005"><a xlink:title=" ">
<path fill="none" stroke="#63b8ff" d="M465.34,-431.93C487.06,-444.75 525.64,-467.54 551.02,-482.53"/>
<polygon fill="#63b8ff" stroke="#63b8ff" points="549.33,-485.59 559.72,-487.66 552.89,-479.56 549.33,-485.59"/>
</a>
</g>
</g>
<!-- Node15&#45;&gt;Node6 -->
<g id="edge21_Node000015_Node000006" class="edge">
<title>Node15&#45;&gt;Node6</title>
<g id="a_edge21_Node000015_Node000006"><a xlink:title=" ">
<path fill="none" stroke="#63b8ff" d="M491.81,-412.77C499.99,-410.4 508.37,-407.57 516,-404.28 529.34,-398.52 543.22,-390.14 554.26,-382.81"/>
<polygon fill="#63b8ff" stroke="#63b8ff" points="556.51,-385.51 562.79,-376.99 552.56,-379.73 556.51,-385.51"/>
</a>
</g>
</g>
<!-- Node15&#45;&gt;Node16 -->
<g id="edge16_Node000015_Node000016" class="edge">
<title>Node15&#45;&gt;Node16</title>
<g id="a_edge16_Node000015_Node000016"><a xlink:title=" ">
<path fill="none" stroke="#63b8ff" d="M501.08,-413.87C506.54,-411.42 511.67,-408.29 516,-404.28 551.27,-371.61 527.95,-343.9 552,-302.28 554.1,-298.64 556.7,-295.03 559.41,-291.67"/>
<polygon fill="#63b8ff" stroke="#63b8ff" points="562.2,-293.79 566.13,-283.96 556.92,-289.19 562.2,-293.79"/>
</a>
</g>
</g>
<!-- Node15&#45;&gt;Node17 -->
<g id="edge17_Node000015_Node000017" class="edge">
<title>Node15&#45;&gt;Node17</title>
<g id="a_edge17_Node000015_Node000017"><a xlink:title=" ">
<path fill="none" stroke="#63b8ff" d="M501.16,-414.44C506.67,-411.9 511.79,-408.59 516,-404.28 563.29,-355.84 515.48,-313.27 552,-256.28 552.5,-255.49 553.05,-254.73 553.63,-253.98"/>
<polygon fill="#63b8ff" stroke="#63b8ff" points="556.22,-256.34 560.82,-246.8 551.27,-251.39 556.22,-256.34"/>
</a>
</g>
</g>
<!-- Node18 -->
<g id="Node000018" class="node">
<title>Node18</title>
<g id="a_Node000018"><a xlink:href="math_8c.html#ae6a53927765c25c58815e47fea096a67" target="_top" xlink:title=" ">
<polygon fill="white" stroke="#666666" points="597.5,-431.78 556.5,-431.78 556.5,-412.78 597.5,-412.78 597.5,-431.78"/>
<text text-anchor="middle" x="577" y="-419.78" font-family="Helvetica,sans-Serif" font-size="10.00">SIGN</text>
</a>
</g>
</g>
<!-- Node15&#45;&gt;Node18 -->
<g id="edge19_Node000015_Node000018" class="edge">
<title>Node15&#45;&gt;Node18</title>
<g id="a_edge19_Node000015_Node000018"><a xlink:title=" ">
<path fill="none" stroke="#63b8ff" d="M501.02,-422.28C516.37,-422.28 532.65,-422.28 546.1,-422.28"/>
<polygon fill="#63b8ff" stroke="#63b8ff" points="546.21,-425.78 556.21,-422.28 546.21,-418.78 546.21,-425.78"/>
</a>
</g>
</g>
<!-- Node19&#45;&gt;Node4 -->
<g id="edge24_Node000019_Node000004" class="edge">
<title>Node19&#45;&gt;Node4</title>
<g id="a_edge24_Node000019_Node000004"><a xlink:title=" ">
<path fill="none" stroke="#63b8ff" d="M491.5,-55.8C500.34,-59.26 509.06,-63.95 516,-70.28 548.86,-100.26 565.18,-151.9 571.97,-179.89"/>
<polygon fill="#63b8ff" stroke="#63b8ff" points="568.56,-180.7 574.19,-189.68 575.39,-179.15 568.56,-180.7"/>
</a>
</g>
</g>
<!-- Node19&#45;&gt;Node17 -->
<g id="edge23_Node000019_Node000017" class="edge">
<title>Node19&#45;&gt;Node17</title>
<g id="a_edge23_Node000019_Node000017"><a xlink:title=" ">
<path fill="none" stroke="#63b8ff" d="M463.03,-55.87C478.13,-66.87 501.88,-86.27 516,-108.28 543.77,-151.58 522.59,-176.08 552,-218.28 552.53,-219.04 553.1,-219.79 553.71,-220.52"/>
<polygon fill="#63b8ff" stroke="#63b8ff" points="551.41,-223.16 561.01,-227.63 556.29,-218.15 551.41,-223.16"/>
</a>
</g>
</g>
<!-- Node20&#45;&gt;Node3 -->
<g id="edge29_Node000020_Node000003" class="edge">
<title>Node20&#45;&gt;Node3</title>
<g id="a_edge29_Node000020_Node000003"><a xlink:title=" ">
<path fill="none" stroke="#63b8ff" d="M507.67,-315.43C519.37,-316.26 531.28,-317.11 541.82,-317.86"/>
<polygon fill="#63b8ff" stroke="#63b8ff" points="541.62,-321.35 551.84,-318.57 542.11,-314.37 541.62,-321.35"/>
</a>
</g>
</g>
<!-- Node20&#45;&gt;Node4 -->
<g id="edge32_Node000020_Node000004" class="edge">
<title>Node20&#45;&gt;Node4</title>
<g id="a_edge32_Node000020_Node000004"><a xlink:title=" ">
<path fill="none" stroke="#63b8ff" d="M502.34,-301.63C507.25,-299.4 511.91,-296.65 516,-293.28 544.2,-269.99 529.45,-248.07 552,-219.28 552.92,-218.1 553.92,-216.95 554.97,-215.83"/>
<polygon fill="#63b8ff" stroke="#63b8ff" points="557.42,-218.33 562.36,-208.96 552.65,-213.2 557.42,-218.33"/>
</a>
</g>
</g>
<!-- Node20&#45;&gt;Node5 -->
<g id="edge33_Node000020_Node000005" class="edge">
<title>Node20&#45;&gt;Node5</title>
<g id="a_edge33_Node000020_Node000005"><a xlink:title=" ">
<path fill="none" stroke="#63b8ff" d="M502.2,-320.87C507.27,-323.33 511.99,-326.42 516,-330.28 553.35,-366.26 533.77,-392.73 552,-441.28 556.68,-453.73 562.55,-467.47 567.32,-478.22"/>
<polygon fill="#63b8ff" stroke="#63b8ff" points="564.19,-479.79 571.48,-487.47 570.57,-476.92 564.19,-479.79"/>
</a>
</g>
</g>
<!-- Node20&#45;&gt;Node6 -->
<g id="edge34_Node000020_Node000006" class="edge">
<title>Node20&#45;&gt;Node6</title>
<g id="a_edge34_Node000020_Node000006"><a xlink:title=" ">
<path fill="none" stroke="#63b8ff" d="M489.67,-320.86C498.51,-323.48 507.7,-326.63 516,-330.28 529.3,-336.13 543.17,-344.51 554.22,-351.82"/>
<polygon fill="#63b8ff" stroke="#63b8ff" points="552.53,-354.9 562.77,-357.63 556.47,-349.11 552.53,-354.9"/>
</a>
</g>
</g>
<!-- Node20&#45;&gt;Node16 -->
<g id="edge30_Node000020_Node000016" class="edge">
<title>Node20&#45;&gt;Node16</title>
<g id="a_edge30_Node000020_Node000016"><a xlink:title=" ">
<path fill="none" stroke="#63b8ff" d="M485.59,-301.76C495.49,-299.1 506.17,-296.15 516,-293.28 526.62,-290.17 538.22,-286.55 548.37,-283.31"/>
<polygon fill="#63b8ff" stroke="#63b8ff" points="549.5,-286.62 557.95,-280.22 547.36,-279.96 549.5,-286.62"/>
</a>
</g>
</g>
<!-- Node20&#45;&gt;Node17 -->
<g id="edge31_Node000020_Node000017" class="edge">
<title>Node20&#45;&gt;Node17</title>
<g id="a_edge31_Node000020_Node000017"><a xlink:title=" ">
<path fill="none" stroke="#63b8ff" d="M497.13,-301.74C503.71,-299.47 510.18,-296.69 516,-293.28 535.79,-281.66 534.97,-271.65 552,-256.28 552.98,-255.4 553.99,-254.51 555.02,-253.62"/>
<polygon fill="#63b8ff" stroke="#63b8ff" points="557.53,-256.09 563.04,-247.04 553.09,-250.68 557.53,-256.09"/>
</a>
</g>
</g>
<!-- Node22&#45;&gt;Node3 -->
<g id="edge39_Node000022_Node000003" class="edge">
<title>Node22&#45;&gt;Node3</title>
<g id="a_edge39_Node000022_Node000003"><a xlink:title=" ">
<path fill="none" stroke="#63b8ff" d="M461.19,-208.18C474.88,-219.45 497.59,-238.58 516,-256.28 531.67,-271.34 548.52,-289.5 560.36,-302.63"/>
<polygon fill="#63b8ff" stroke="#63b8ff" points="558.08,-305.32 567.36,-310.44 563.29,-300.65 558.08,-305.32"/>
</a>
</g>
</g>
<!-- Node22&#45;&gt;Node4 -->
<g id="edge42_Node000022_Node000004" class="edge">
<title>Node22&#45;&gt;Node4</title>
<g id="a_edge42_Node000022_Node000004"><a xlink:title=" ">
<path fill="none" stroke="#63b8ff" d="M486.76,-198.57C504.2,-198.71 524.75,-198.87 541.74,-199.01"/>
<polygon fill="#63b8ff" stroke="#63b8ff" points="541.77,-202.51 551.79,-199.09 541.82,-195.51 541.77,-202.51"/>
</a>
</g>
</g>
<!-- Node22&#45;&gt;Node6 -->
<g id="edge43_Node000022_Node000006" class="edge">
<title>Node22&#45;&gt;Node6</title>
<g id="a_edge43_Node000022_Node000006"><a xlink:title=" ">
<path fill="none" stroke="#63b8ff" d="M463.5,-207.87C478.34,-218.3 501.25,-236.19 516,-256.28 539.79,-288.69 530.68,-305.19 552,-339.28 554.27,-342.9 556.98,-346.53 559.76,-349.93"/>
<polygon fill="#63b8ff" stroke="#63b8ff" points="557.35,-352.5 566.56,-357.74 562.63,-347.9 557.35,-352.5"/>
</a>
</g>
</g>
<!-- Node22&#45;&gt;Node16 -->
<g id="edge40_Node000022_Node000016" class="edge">
<title>Node22&#45;&gt;Node16</title>
<g id="a_edge40_Node000022_Node000016"><a xlink:title=" ">
<path fill="none" stroke="#63b8ff" d="M484.33,-207.89C494.93,-211.56 506.31,-216.33 516,-222.28 534.76,-233.79 535.17,-242.1 552,-256.28 552.84,-256.98 553.7,-257.69 554.57,-258.4"/>
<polygon fill="#63b8ff" stroke="#63b8ff" points="552.55,-261.26 562.59,-264.64 556.84,-255.73 552.55,-261.26"/>
</a>
</g>
</g>
<!-- Node22&#45;&gt;Node17 -->
<g id="edge41_Node000022_Node000017" class="edge">
<title>Node22&#45;&gt;Node17</title>
<g id="a_edge41_Node000022_Node000017"><a xlink:title=" ">
<path fill="none" stroke="#63b8ff" d="M480.07,-207.82C501.58,-214.42 529.88,-223.11 550.16,-229.34"/>
<polygon fill="#63b8ff" stroke="#63b8ff" points="549.36,-232.76 559.95,-232.35 551.42,-226.07 549.36,-232.76"/>
</a>
</g>
</g>
<!-- Node23&#45;&gt;Node3 -->
<g id="edge45_Node000023_Node000003" class="edge">
<title>Node23&#45;&gt;Node3</title>
<g id="a_edge45_Node000023_Node000003"><a xlink:title=" ">
<path fill="none" stroke="#63b8ff" d="M486.52,-283.87C496.21,-286.63 506.57,-289.84 516,-293.28 526.38,-297.06 537.49,-301.84 547.29,-306.33"/>
<polygon fill="#63b8ff" stroke="#63b8ff" points="546.03,-309.6 556.57,-310.66 548.99,-303.26 546.03,-309.6"/>
</a>
</g>
</g>
<!-- Node23&#45;&gt;Node4 -->
<g id="edge48_Node000023_Node000004" class="edge">
<title>Node23&#45;&gt;Node4</title>
<g id="a_edge48_Node000023_Node000004"><a xlink:title=" ">
<path fill="none" stroke="#63b8ff" d="M465.34,-264.63C487.06,-251.8 525.64,-229.02 551.02,-214.03"/>
<polygon fill="#63b8ff" stroke="#63b8ff" points="552.89,-216.99 559.72,-208.89 549.33,-210.96 552.89,-216.99"/>
</a>
</g>
</g>
<!-- Node23&#45;&gt;Node6 -->
<g id="edge49_Node000023_Node000006" class="edge">
<title>Node23&#45;&gt;Node6</title>
<g id="a_edge49_Node000023_Node000006"><a xlink:title=" ">
<path fill="none" stroke="#63b8ff" d="M497.14,-283.9C503.78,-286.36 510.28,-289.43 516,-293.28 537.55,-307.75 535.55,-319.19 552,-339.28 554.88,-342.79 558,-346.5 561.01,-350.03"/>
<polygon fill="#63b8ff" stroke="#63b8ff" points="558.5,-352.48 567.67,-357.78 563.8,-347.91 558.5,-352.48"/>
</a>
</g>
</g>
<!-- Node23&#45;&gt;Node16 -->
<g id="edge46_Node000023_Node000016" class="edge">
<title>Node23&#45;&gt;Node16</title>
<g id="a_edge46_Node000023_Node000016"><a xlink:title=" ">
<path fill="none" stroke="#63b8ff" d="M505.07,-274.28C519.77,-274.28 535.01,-274.28 547.58,-274.28"/>
<polygon fill="#63b8ff" stroke="#63b8ff" points="547.85,-277.78 557.85,-274.28 547.85,-270.78 547.85,-277.78"/>
</a>
</g>
</g>
<!-- Node23&#45;&gt;Node17 -->
<g id="edge47_Node000023_Node000017" class="edge">
<title>Node23&#45;&gt;Node17</title>
<g id="a_edge47_Node000023_Node000017"><a xlink:title=" ">
<path fill="none" stroke="#63b8ff" d="M481.71,-264.75C502.89,-258.58 530.1,-250.65 549.84,-244.9"/>
<polygon fill="#63b8ff" stroke="#63b8ff" points="551.06,-248.19 559.69,-242.03 549.11,-241.47 551.06,-248.19"/>
</a>
</g>
</g>
<!-- Node24&#45;&gt;Node4 -->
<g id="edge55_Node000024_Node000004" class="edge">
<title>Node24&#45;&gt;Node4</title>
<g id="a_edge55_Node000024_Node000004"><a xlink:title=" ">
<path fill="none" stroke="#63b8ff" d="M312.08,-196.02C323.67,-193.54 335.61,-188.87 344,-180.28 392.8,-130.29 325.24,-70.65 380,-27.28 427.38,10.25 466.72,7.72 516,-27.28 565.77,-62.63 574.6,-142.46 575.93,-179.59"/>
<polygon fill="#63b8ff" stroke="#63b8ff" points="572.43,-179.73 576.14,-189.65 579.43,-179.58 572.43,-179.73"/>
</a>
</g>
</g>
<!-- Node24&#45;&gt;Node16 -->
<g id="edge53_Node000024_Node000016" class="edge">
<title>Node24&#45;&gt;Node16</title>
<g id="a_edge53_Node000024_Node000016"><a xlink:title=" ">
<path fill="none" stroke="#63b8ff" d="M312.28,-190.2C371.35,-178.27 483.12,-159.47 516,-180.28 547.58,-200.26 528.36,-227.33 552,-256.28 552.39,-256.76 552.8,-257.23 553.22,-257.7"/>
<polygon fill="#63b8ff" stroke="#63b8ff" points="551.06,-260.47 560.8,-264.64 555.79,-255.31 551.06,-260.47"/>
</a>
</g>
</g>
<!-- Node24&#45;&gt;Node19 -->
<g id="edge52_Node000024_Node000019" class="edge">
<title>Node24&#45;&gt;Node19</title>
<g id="a_edge52_Node000024_Node000019"><a xlink:title=" ">
<path fill="none" stroke="#63b8ff" d="M312.02,-195.52C323.48,-192.99 335.34,-188.42 344,-180.28 381.47,-145.03 344.13,-107.15 380,-70.28 383.82,-66.35 388.33,-63.06 393.18,-60.31"/>
<polygon fill="#63b8ff" stroke="#63b8ff" points="394.73,-63.44 402.19,-55.91 391.66,-57.15 394.73,-63.44"/>
</a>
</g>
</g>
<!-- Node24&#45;&gt;Node20 -->
<g id="edge54_Node000024_Node000020" class="edge">
<title>Node24&#45;&gt;Node20</title>
<g id="a_edge54_Node000024_Node000020"><a xlink:title=" ">
<path fill="none" stroke="#63b8ff" d="M312.18,-202.45C323.38,-205.21 335.06,-209.77 344,-217.28 372.62,-241.31 351.3,-269.33 380,-293.28 381.53,-294.55 383.13,-295.73 384.81,-296.84"/>
<polygon fill="#63b8ff" stroke="#63b8ff" points="383.18,-299.93 393.63,-301.68 386.54,-293.8 383.18,-299.93"/>
</a>
</g>
</g>
<!-- Node24&#45;&gt;Node22 -->
<g id="edge56_Node000024_Node000022" class="edge">
<title>Node24&#45;&gt;Node22</title>
<g id="a_edge56_Node000024_Node000022"><a xlink:title=" ">
<path fill="none" stroke="#63b8ff" d="M312.32,-198.28C337.82,-198.28 371.82,-198.28 399.28,-198.28"/>
<polygon fill="#63b8ff" stroke="#63b8ff" points="399.45,-201.78 409.45,-198.28 399.45,-194.78 399.45,-201.78"/>
</a>
</g>
</g>
</g>
</svg>
