<?xml version="1.0" encoding="UTF-8" standalone="no"?>
<!DOCTYPE svg PUBLIC "-//W3C//DTD SVG 1.1//EN"
 "http://www.w3.org/Graphics/SVG/1.1/DTD/svg11.dtd">
<!-- Generated by graphviz version 2.43.0 (0)
 -->
<!-- Title: Free Pages: 1 -->
<svg width="523pt" height="27pt"
 viewBox="0.00 0.00 523.00 27.00" xmlns="http://www.w3.org/2000/svg" xmlns:xlink="http://www.w3.org/1999/xlink">
<g id="graph0" class="graph" transform="scale(1 1) rotate(0) translate(4 23)">
<title>Free</title>
<!-- Node1 -->
<g id="Node000001" class="node">
<title>Node1</title>
<g id="a_Node000001"><a xlink:title=" ">
<polygon fill="#999999" stroke="#666666" points="38,-19 0,-19 0,0 38,0 38,-19"/>
<text text-anchor="middle" x="19" y="-7" font-family="Helvetica,sans-Serif" font-size="10.00">Free</text>
</a>
</g>
</g>
<!-- Node2 -->
<g id="Node000002" class="node">
<title>Node2</title>
<g id="a_Node000002"><a xlink:href="active__strain_8c.html#ade1ca2d21184dfd18064f53cc91192fa" target="_top" xlink:title="Free all active&#45;strain data allocated in ActDataAllocate().">
<polygon fill="white" stroke="#666666" points="168,-19 74,-19 74,0 168,0 168,-19"/>
<text text-anchor="middle" x="121" y="-7" font-family="Helvetica,sans-Serif" font-size="10.00">ActDataDestroy</text>
</a>
</g>
</g>
<!-- Node1&#45;&gt;Node2 -->
<g id="edge1_Node000001_Node000002" class="edge">
<title>Node1&#45;&gt;Node2</title>
<g id="a_edge1_Node000001_Node000002"><a xlink:title=" ">
<path fill="none" stroke="#63b8ff" d="M38.34,-9.5C45.71,-9.5 54.64,-9.5 63.85,-9.5"/>
<polygon fill="#63b8ff" stroke="#63b8ff" points="63.9,-13 73.9,-9.5 63.9,-6 63.9,-13"/>
</a>
</g>
</g>
<!-- Node3 -->
<g id="Node000003" class="node">
<title>Node3</title>
<g id="a_Node000003"><a xlink:href="active__strain_8c.html#aab13749d1d679119e5bef64c4d6855e1" target="_top" xlink:title=" ">
<polygon fill="white" stroke="#666666" points="357,-19 204,-19 204,0 357,0 357,-19"/>
<text text-anchor="middle" x="280.5" y="-7" font-family="Helvetica,sans-Serif" font-size="10.00">ElemActDataGeomDestroy_</text>
</a>
</g>
</g>
<!-- Node2&#45;&gt;Node3 -->
<g id="edge2_Node000002_Node000003" class="edge">
<title>Node2&#45;&gt;Node3</title>
<g id="a_edge2_Node000002_Node000003"><a xlink:title=" ">
<path fill="none" stroke="#63b8ff" d="M168.4,-9.5C176.43,-9.5 184.99,-9.5 193.67,-9.5"/>
<polygon fill="#63b8ff" stroke="#63b8ff" points="193.89,-13 203.89,-9.5 193.89,-6 193.89,-13"/>
</a>
</g>
</g>
<!-- Node4 -->
<g id="Node000004" class="node">
<title>Node4</title>
<g id="a_Node000004"><a xlink:href="active__strain_8c.html#aec9298d5baa8b311cfc29be8cac191fa" target="_top" xlink:title=" ">
<polygon fill="white" stroke="#666666" points="515,-19 393,-19 393,0 515,0 515,-19"/>
<text text-anchor="middle" x="454" y="-7" font-family="Helvetica,sans-Serif" font-size="10.00">SubdivGeomDestroy_</text>
</a>
</g>
</g>
<!-- Node3&#45;&gt;Node4 -->
<g id="edge3_Node000003_Node000004" class="edge">
<title>Node3&#45;&gt;Node4</title>
<g id="a_edge3_Node000003_Node000004"><a xlink:title=" ">
<path fill="none" stroke="#63b8ff" d="M357.22,-9.5C365.71,-9.5 374.32,-9.5 382.74,-9.5"/>
<polygon fill="#63b8ff" stroke="#63b8ff" points="382.87,-13 392.87,-9.5 382.87,-6 382.87,-13"/>
</a>
</g>
</g>
</g>
</svg>
