<?xml version="1.0" encoding="UTF-8" standalone="no"?>
<!DOCTYPE svg PUBLIC "-//W3C//DTD SVG 1.1//EN"
 "http://www.w3.org/Graphics/SVG/1.1/DTD/svg11.dtd">
<!-- Generated by graphviz version 2.43.0 (0)
 -->
<!-- Title: FormRK Pages: 1 -->
<!--zoomable 585 -->

<svg id="main" version="1.1" xmlns="http://www.w3.org/2000/svg" xmlns:xlink="http://www.w3.org/1999/xlink" xml:space="preserve" onload="init(evt)">
<style type="text/css"><![CDATA[
.node, .edge {opacity: 0.7;}
.node.selected, .edge.selected {opacity: 1;}
.edge:hover path { stroke: red; }
.edge:hover polygon { stroke: red; fill: red; }
]]></style>

<defs>
  <circle id="rim" cx="0" cy="0" r="7"/>
  <circle id="rim2" cx="0" cy="0" r="3.5"/>
  <g id="zoomPlus">
    <use xlink:href="#rim" fill="#404040"><set attributeName="fill" to="#808080" begin="zoomplus.mouseover" end="zoomplus.mouseout"/></use>
    <path d="M-4,0h8M0,-4v8" fill="none" stroke="white" stroke-width="1.5" pointer-events="none"/>
  </g>
  <g id="zoomMin">
    <use xlink:href="#rim" fill="#404040"><set attributeName="fill" to="#808080" begin="zoomminus.mouseover" end="zoomminus.mouseout"/></use>
    <path d="M-4,0h8" fill="none" stroke="white" stroke-width="1.5" pointer-events="none"/>
  </g>
  <g id="arrowUp" transform="translate(30 24)">
    <use xlink:href="#rim"/>
    <path pointer-events="none" fill="none" stroke="white" stroke-width="1.5" d="M0,-3.0v7 M-2.5,-0.5L0,-3.0L2.5,-0.5"/>
  </g>
  <g id="arrowRight" transform="rotate(90) translate(36 -43)">
    <use xlink:href="#rim"/>
    <path pointer-events="none" fill="none" stroke="white" stroke-width="1.5" d="M0,-3.0v7 M-2.5,-0.5L0,-3.0L2.5,-0.5"/>
  </g>
  <g id="arrowDown" transform="rotate(180) translate(-30 -48)">
    <use xlink:href="#rim"/>
    <path pointer-events="none" fill="none" stroke="white" stroke-width="1.5" d="M0,-3.0v7 M-2.5,-0.5L0,-3.0L2.5,-0.5"/>
  </g>
  <g id="arrowLeft" transform="rotate(270) translate(-36 17)">
    <use xlink:href="#rim"/>
    <path pointer-events="none" fill="none" stroke="white" stroke-width="1.5" d="M0,-3.0v7 M-2.5,-0.5L0,-3.0L2.5,-0.5"/>
  </g>
  <g id="resetDef">
    <use xlink:href="#rim2" fill="#404040"><set attributeName="fill" to="#808080" begin="reset.mouseover" end="reset.mouseout"/></use>
  </g>
</defs>
<script type="application/ecmascript">
var viewWidth = 596;
var viewHeight = 585;
var sectionId = 'dynsection-21';
</script>
<script type="application/ecmascript" xlink:href="svg.min.js"/>
<svg id="graph" class="graph">
<g id="viewport">
<title>FormRK</title>
<!-- Node1 -->
<g id="Node000001" class="node">
<title>Node1</title>
<g id="a_Node000001"><a xlink:title=" ">
<polygon fill="#999999" stroke="#666666" points="55,-226.76 0,-226.76 0,-207.76 55,-207.76 55,-226.76"/>
<text text-anchor="middle" x="27.5" y="-214.76" font-family="Helvetica,sans-Serif" font-size="10.00">FormRK</text>
</a>
</g>
</g>
<!-- Node2 -->
<g id="Node000002" class="node">
<title>Node2</title>
<g id="a_Node000002"><a xlink:href="io_8c.html#ac6a6fe57e1e391ebe52b1dbffde4ba5b" target="_top" xlink:title=" ">
<polygon fill="white" stroke="#666666" points="471.5,-545.76 396.5,-545.76 396.5,-526.76 471.5,-526.76 471.5,-545.76"/>
<text text-anchor="middle" x="434" y="-533.76" font-family="Helvetica,sans-Serif" font-size="10.00">AreaNormal</text>
</a>
</g>
</g>
<!-- Node1&#45;&gt;Node2 -->
<g id="edge1_Node000001_Node000002" class="edge">
<title>Node1&#45;&gt;Node2</title>
<g id="a_edge1_Node000001_Node000002"><a xlink:title=" ">
<path fill="none" stroke="#63b8ff" d="M38.94,-226.97C51.22,-238.3 72.29,-257.49 91,-273.26 210.25,-373.79 240.05,-399.27 366,-491.26 380.25,-501.67 396.69,-512.73 409.72,-521.28"/>
<polygon fill="#63b8ff" stroke="#63b8ff" points="407.84,-524.23 418.13,-526.76 411.67,-518.37 407.84,-524.23"/>
</a>
</g>
</g>
<!-- Node7 -->
<g id="Node000007" class="node">
<title>Node7</title>
<g id="a_Node000007"><a xlink:href="bcs_8c.html#aef1719332b4828ce07ba0c7a6bba7bcd" target="_top" xlink:title=" ">
<polygon fill="white" stroke="#666666" points="154,-226.76 91,-226.76 91,-207.76 154,-207.76 154,-226.76"/>
<text text-anchor="middle" x="122.5" y="-214.76" font-family="Helvetica,sans-Serif" font-size="10.00">FExternal</text>
</a>
</g>
</g>
<!-- Node1&#45;&gt;Node7 -->
<g id="edge6_Node000001_Node000007" class="edge">
<title>Node1&#45;&gt;Node7</title>
<g id="a_edge6_Node000001_Node000007"><a xlink:title=" ">
<path fill="none" stroke="#63b8ff" d="M55.4,-217.26C63.26,-217.26 72.03,-217.26 80.54,-217.26"/>
<polygon fill="#63b8ff" stroke="#63b8ff" points="80.73,-220.76 90.73,-217.26 80.73,-213.76 80.73,-220.76"/>
</a>
</g>
</g>
<!-- Node9 -->
<g id="Node000009" class="node">
<title>Node9</title>
<g id="a_Node000009"><a xlink:href="main_8c.html#a59ccabe25c63661e6e66b44209b0f162" target="_top" xlink:title=" ">
<polygon fill="white" stroke="#666666" points="152.5,-263.76 92.5,-263.76 92.5,-244.76 152.5,-244.76 152.5,-263.76"/>
<text text-anchor="middle" x="122.5" y="-251.76" font-family="Helvetica,sans-Serif" font-size="10.00">FInternal</text>
</a>
</g>
</g>
<!-- Node1&#45;&gt;Node9 -->
<g id="edge8_Node000001_Node000009" class="edge">
<title>Node1&#45;&gt;Node9</title>
<g id="a_edge8_Node000001_Node000009"><a xlink:title=" ">
<path fill="none" stroke="#63b8ff" d="M52.45,-226.79C63.21,-231.07 76.1,-236.2 87.82,-240.86"/>
<polygon fill="#63b8ff" stroke="#63b8ff" points="86.72,-244.19 97.31,-244.64 89.31,-237.69 86.72,-244.19"/>
</a>
</g>
</g>
<!-- Node23 -->
<g id="Node000023" class="node">
<title>Node23</title>
<g id="a_Node000023"><a xlink:href="bcs_8c.html#a66bea6d23d803ebc455e934629a0c7be" target="_top" xlink:title=" ">
<polygon fill="white" stroke="#666666" points="153.5,-189.76 91.5,-189.76 91.5,-170.76 153.5,-170.76 153.5,-189.76"/>
<text text-anchor="middle" x="122.5" y="-177.76" font-family="Helvetica,sans-Serif" font-size="10.00">GhostLoc</text>
</a>
</g>
</g>
<!-- Node1&#45;&gt;Node23 -->
<g id="edge55_Node000001_Node000023" class="edge">
<title>Node1&#45;&gt;Node23</title>
<g id="a_edge55_Node000001_Node000023"><a xlink:title=" ">
<path fill="none" stroke="#63b8ff" d="M52.45,-207.73C63.21,-203.45 76.1,-198.32 87.82,-193.66"/>
<polygon fill="#63b8ff" stroke="#63b8ff" points="89.31,-196.84 97.31,-189.89 86.72,-190.33 89.31,-196.84"/>
</a>
</g>
</g>
<!-- Node24 -->
<g id="Node000024" class="node">
<title>Node24</title>
<g id="a_Node000024"><a xlink:href="bending_8c.html#a907be03803f4a1d456a7a1650461f7eb" target="_top" xlink:title=" ">
<polygon fill="white" stroke="#666666" points="152,-152.76 93,-152.76 93,-133.76 152,-133.76 152,-152.76"/>
<text text-anchor="middle" x="122.5" y="-140.76" font-family="Helvetica,sans-Serif" font-size="10.00">PatchLoc</text>
</a>
</g>
</g>
<!-- Node1&#45;&gt;Node24 -->
<g id="edge56_Node000001_Node000024" class="edge">
<title>Node1&#45;&gt;Node24</title>
<g id="a_edge56_Node000001_Node000024"><a xlink:title=" ">
<path fill="none" stroke="#63b8ff" d="M38.15,-207.5C50.01,-195.79 71.01,-175.89 91,-161.26 92.4,-160.24 93.86,-159.22 95.35,-158.22"/>
<polygon fill="#63b8ff" stroke="#63b8ff" points="97.41,-161.06 104.02,-152.78 93.69,-155.13 97.41,-161.06"/>
</a>
</g>
</g>
<!-- Node3 -->
<g id="Node000003" class="node">
<title>Node3</title>
<g id="a_Node000003"><a xlink:href="math_8c.html#a9d60990d26296194c921d537ea26f3c7" target="_top" xlink:title=" ">
<polygon fill="white" stroke="#666666" points="588,-329.76 538,-329.76 538,-310.76 588,-310.76 588,-329.76"/>
<text text-anchor="middle" x="563" y="-317.76" font-family="Helvetica,sans-Serif" font-size="10.00">CROSS</text>
</a>
</g>
</g>
<!-- Node2&#45;&gt;Node3 -->
<g id="edge2_Node000002_Node000003" class="edge">
<title>Node2&#45;&gt;Node3</title>
<g id="a_edge2_Node000002_Node000003"><a xlink:title=" ">
<path fill="none" stroke="#63b8ff" d="M449.46,-526.57C464.7,-515.61 488.36,-496.39 502,-474.26 532.33,-425.04 511,-400.39 538,-349.26 540.09,-345.3 542.79,-341.37 545.62,-337.76"/>
<polygon fill="#63b8ff" stroke="#63b8ff" points="548.41,-339.87 552.22,-329.99 543.07,-335.34 548.41,-339.87"/>
</a>
</g>
</g>
<!-- Node4 -->
<g id="Node000004" class="node">
<title>Node4</title>
<g id="a_Node000004"><a xlink:href="math_8c.html#a9d08a9d2fd8e8932e92b8ab054b19269" target="_top" xlink:title=" ">
<polygon fill="white" stroke="#666666" points="588,-208.76 538,-208.76 538,-189.76 588,-189.76 588,-208.76"/>
<text text-anchor="middle" x="563" y="-196.76" font-family="Helvetica,sans-Serif" font-size="10.00">MINUS</text>
</a>
</g>
</g>
<!-- Node2&#45;&gt;Node4 -->
<g id="edge3_Node000002_Node000004" class="edge">
<title>Node2&#45;&gt;Node4</title>
<g id="a_edge3_Node000002_Node000004"><a xlink:title=" ">
<path fill="none" stroke="#63b8ff" d="M444.11,-526.63C458.87,-510.42 487.81,-476.02 502,-441.26 539.77,-348.72 488.47,-306.09 538,-219.26 538.63,-218.15 539.36,-217.07 540.14,-216.03"/>
<polygon fill="#63b8ff" stroke="#63b8ff" points="542.66,-218.47 547.11,-208.86 537.64,-213.59 542.66,-218.47"/>
</a>
</g>
</g>
<!-- Node5 -->
<g id="Node000005" class="node">
<title>Node5</title>
<g id="a_Node000005"><a xlink:href="math_8c.html#aa52f6593cf3e5453c8c6c94343d3fb37" target="_top" xlink:title=" ">
<polygon fill="white" stroke="#666666" points="582,-506.76 544,-506.76 544,-487.76 582,-487.76 582,-506.76"/>
<text text-anchor="middle" x="563" y="-494.76" font-family="Helvetica,sans-Serif" font-size="10.00">SIZE</text>
</a>
</g>
</g>
<!-- Node2&#45;&gt;Node5 -->
<g id="edge4_Node000002_Node000005" class="edge">
<title>Node2&#45;&gt;Node5</title>
<g id="a_edge4_Node000002_Node000005"><a xlink:title=" ">
<path fill="none" stroke="#63b8ff" d="M466.07,-526.72C486.83,-520.35 513.91,-512.03 534.01,-505.86"/>
<polygon fill="#63b8ff" stroke="#63b8ff" points="535.27,-509.13 543.81,-502.85 533.22,-502.44 535.27,-509.13"/>
</a>
</g>
</g>
<!-- Node6 -->
<g id="Node000006" class="node">
<title>Node6</title>
<g id="a_Node000006"><a xlink:href="math_8c.html#ac616709995f2ae60c4308ffa328337d7" target="_top" xlink:title=" ">
<polygon fill="white" stroke="#666666" points="583.5,-376.76 542.5,-376.76 542.5,-357.76 583.5,-357.76 583.5,-376.76"/>
<text text-anchor="middle" x="563" y="-364.76" font-family="Helvetica,sans-Serif" font-size="10.00">UNIT</text>
</a>
</g>
</g>
<!-- Node2&#45;&gt;Node6 -->
<g id="edge5_Node000002_Node000006" class="edge">
<title>Node2&#45;&gt;Node6</title>
<g id="a_edge5_Node000002_Node000006"><a xlink:title=" ">
<path fill="none" stroke="#63b8ff" d="M471.78,-529.57C482.69,-526.01 493.88,-520.57 502,-512.26 537.38,-476.09 516.06,-449.85 538,-404.26 541.09,-397.83 545.12,-391.18 548.98,-385.32"/>
<polygon fill="#63b8ff" stroke="#63b8ff" points="551.98,-387.13 554.77,-376.91 546.21,-383.17 551.98,-387.13"/>
</a>
</g>
</g>
<!-- Node8 -->
<g id="Node000008" class="node">
<title>Node8</title>
<g id="a_Node000008"><a xlink:href="external_8c.html#a93115e0e971ccd05cacd122af8636e18" target="_top" xlink:title=" ">
<polygon fill="white" stroke="#666666" points="330,-170.26 190,-170.26 190,-140.26 330,-140.26 330,-170.26"/>
<text text-anchor="start" x="198" y="-158.26" font-family="Helvetica,sans-Serif" font-size="10.00">FExternalPrescribedForce</text>
<text text-anchor="middle" x="260" y="-147.26" font-family="Helvetica,sans-Serif" font-size="10.00">FieldIn</text>
</a>
</g>
</g>
<!-- Node7&#45;&gt;Node8 -->
<g id="edge7_Node000007_Node000008" class="edge">
<title>Node7&#45;&gt;Node8</title>
<g id="a_edge7_Node000007_Node000008"><a xlink:title=" ">
<path fill="none" stroke="#63b8ff" d="M139.87,-207.7C157.87,-197.22 184.92,-181.58 190,-179.26 194,-177.44 198.19,-175.67 202.44,-173.98"/>
<polygon fill="#63b8ff" stroke="#63b8ff" points="203.7,-177.24 211.78,-170.38 201.19,-170.71 203.7,-177.24"/>
</a>
</g>
</g>
<!-- Node10 -->
<g id="Node000010" class="node">
<title>Node10</title>
<g id="a_Node000010"><a xlink:href="bending_8c.html#a2b66770553fce4724cfb65b0f79e83b1" target="_top" xlink:title=" ">
<polygon fill="white" stroke="#666666" points="291,-301.76 229,-301.76 229,-282.76 291,-282.76 291,-301.76"/>
<text text-anchor="middle" x="260" y="-289.76" font-family="Helvetica,sans-Serif" font-size="10.00">Fbending</text>
</a>
</g>
</g>
<!-- Node9&#45;&gt;Node10 -->
<g id="edge9_Node000009_Node000010" class="edge">
<title>Node9&#45;&gt;Node10</title>
<g id="a_edge9_Node000009_Node000010"><a xlink:title=" ">
<path fill="none" stroke="#63b8ff" d="M152.62,-262.65C164.24,-265.98 177.75,-269.83 190,-273.26 199.41,-275.9 209.56,-278.72 219.09,-281.34"/>
<polygon fill="#63b8ff" stroke="#63b8ff" points="218.18,-284.72 228.75,-284 220.04,-277.98 218.18,-284.72"/>
</a>
</g>
</g>
<!-- Node21 -->
<g id="Node000021" class="node">
<title>Node21</title>
<g id="a_Node000021"><a xlink:href="membrane_8c.html#a9fee56a81a4f404db4630a996f38013c" target="_top" xlink:title=" ">
<polygon fill="white" stroke="#666666" points="298,-207.76 222,-207.76 222,-188.76 298,-188.76 298,-207.76"/>
<text text-anchor="middle" x="260" y="-195.76" font-family="Helvetica,sans-Serif" font-size="10.00">Fmembrane</text>
</a>
</g>
</g>
<!-- Node9&#45;&gt;Node21 -->
<g id="edge48_Node000009_Node000021" class="edge">
<title>Node9&#45;&gt;Node21</title>
<g id="a_edge48_Node000009_Node000021"><a xlink:title=" ">
<path fill="none" stroke="#63b8ff" d="M146.79,-244.64C168.84,-235.53 202.12,-221.77 226.72,-211.6"/>
<polygon fill="#63b8ff" stroke="#63b8ff" points="228.11,-214.82 236.01,-207.76 225.43,-208.35 228.11,-214.82"/>
</a>
</g>
</g>
<!-- Node22 -->
<g id="Node000022" class="node">
<title>Node22</title>
<g id="a_Node000022"><a xlink:href="bcs_8c.html#a679ccb265fdae6027920ac949da40b91" target="_top" xlink:title=" ">
<polygon fill="white" stroke="#666666" points="307.5,-263.76 212.5,-263.76 212.5,-244.76 307.5,-244.76 307.5,-263.76"/>
<text text-anchor="middle" x="260" y="-251.76" font-family="Helvetica,sans-Serif" font-size="10.00">ModifyFbending</text>
</a>
</g>
</g>
<!-- Node9&#45;&gt;Node22 -->
<g id="edge54_Node000009_Node000022" class="edge">
<title>Node9&#45;&gt;Node22</title>
<g id="a_edge54_Node000009_Node000022"><a xlink:title=" ">
<path fill="none" stroke="#63b8ff" d="M152.57,-254.26C166.99,-254.26 184.94,-254.26 201.95,-254.26"/>
<polygon fill="#63b8ff" stroke="#63b8ff" points="202.39,-257.76 212.39,-254.26 202.39,-250.76 202.39,-257.76"/>
</a>
</g>
</g>
<!-- Node10&#45;&gt;Node3 -->
<g id="edge22_Node000010_Node000003" class="edge">
<title>Node10&#45;&gt;Node3</title>
<g id="a_edge22_Node000010_Node000003"><a xlink:title=" ">
<path fill="none" stroke="#63b8ff" d="M264.24,-302C274.14,-330 307.01,-410.67 366,-441.26 419.66,-469.09 452.08,-475.34 502,-441.26 538.27,-416.51 515.72,-387.1 538,-349.26 540.31,-345.34 543.15,-341.4 546.05,-337.74"/>
<polygon fill="#63b8ff" stroke="#63b8ff" points="548.92,-339.76 552.72,-329.87 543.58,-335.24 548.92,-339.76"/>
</a>
</g>
</g>
<!-- Node10&#45;&gt;Node4 -->
<g id="edge32_Node000010_Node000004" class="edge">
<title>Node10&#45;&gt;Node4</title>
<g id="a_edge32_Node000010_Node000004"><a xlink:title=" ">
<path fill="none" stroke="#63b8ff" d="M291.09,-290.47C304.56,-288.18 319.69,-283.34 330,-273.26 369.82,-234.34 321.33,-186.5 366,-153.26 414.49,-117.18 444.76,-133.85 502,-153.26 519,-159.03 534.97,-171.77 546.15,-182.38"/>
<polygon fill="#63b8ff" stroke="#63b8ff" points="543.84,-185.02 553.39,-189.6 548.78,-180.06 543.84,-185.02"/>
</a>
</g>
</g>
<!-- Node10&#45;&gt;Node5 -->
<g id="edge34_Node000010_Node000005" class="edge">
<title>Node10&#45;&gt;Node5</title>
<g id="a_edge34_Node000010_Node000005"><a xlink:title=" ">
<path fill="none" stroke="#63b8ff" d="M261.29,-301.98C263.09,-341.91 275.84,-494.18 366,-555.26 416.04,-589.17 445.96,-577.92 502,-555.26 521.83,-547.24 538.75,-529.18 549.51,-515.33"/>
<polygon fill="#63b8ff" stroke="#63b8ff" points="552.55,-517.1 555.67,-506.98 546.92,-512.95 552.55,-517.1"/>
</a>
</g>
</g>
<!-- Node10&#45;&gt;Node6 -->
<g id="edge47_Node000010_Node000006" class="edge">
<title>Node10&#45;&gt;Node6</title>
<g id="a_edge47_Node000010_Node000006"><a xlink:title=" ">
<path fill="none" stroke="#63b8ff" d="M265.25,-301.84C280.4,-335.51 332.66,-447.44 366,-466.26 418.64,-495.98 449.62,-496.42 502,-466.26 529.61,-450.37 521.32,-431.42 538,-404.26 541.79,-398.1 546.05,-391.44 549.92,-385.5"/>
<polygon fill="#63b8ff" stroke="#63b8ff" points="552.99,-387.2 555.55,-376.92 547.14,-383.36 552.99,-387.2"/>
</a>
</g>
</g>
<!-- Node11 -->
<g id="Node000011" class="node">
<title>Node11</title>
<g id="a_Node000011"><a xlink:href="math_8c.html#a7ef9263b0a3a10c2cd00bb4dc0059d70" target="_top" xlink:title=" ">
<polygon fill="white" stroke="#666666" points="459,-394.76 409,-394.76 409,-375.76 459,-375.76 459,-394.76"/>
<text text-anchor="middle" x="434" y="-382.76" font-family="Helvetica,sans-Serif" font-size="10.00">AMULT</text>
</a>
</g>
</g>
<!-- Node10&#45;&gt;Node11 -->
<g id="edge10_Node000010_Node000011" class="edge">
<title>Node10&#45;&gt;Node11</title>
<g id="a_edge10_Node000010_Node000011"><a xlink:title=" ">
<path fill="none" stroke="#63b8ff" d="M271.52,-301.77C289.56,-317.6 328.12,-349.37 366,-367.26 376.23,-372.1 387.98,-375.81 398.75,-378.57"/>
<polygon fill="#63b8ff" stroke="#63b8ff" points="398.16,-382.03 408.7,-380.93 399.78,-375.22 398.16,-382.03"/>
</a>
</g>
</g>
<!-- Node12 -->
<g id="Node000012" class="node">
<title>Node12</title>
<g id="a_Node000012"><a xlink:href="material_8c.html#af81ecf5fbfd52082e0abd3184f12c14f" target="_top" xlink:title=" ">
<polygon fill="white" stroke="#666666" points="487,-431.76 381,-431.76 381,-412.76 487,-412.76 487,-431.76"/>
<text text-anchor="middle" x="434" y="-419.76" font-family="Helvetica,sans-Serif" font-size="10.00">BendingNonLinear</text>
</a>
</g>
</g>
<!-- Node10&#45;&gt;Node12 -->
<g id="edge11_Node000010_Node000012" class="edge">
<title>Node10&#45;&gt;Node12</title>
<g id="a_edge11_Node000010_Node000012"><a xlink:title=" ">
<path fill="none" stroke="#63b8ff" d="M267.31,-302.06C281.91,-323.91 320.28,-376.85 366,-404.26 368.84,-405.97 371.84,-407.51 374.94,-408.91"/>
<polygon fill="#63b8ff" stroke="#63b8ff" points="373.87,-412.25 384.46,-412.7 376.46,-405.75 373.87,-412.25"/>
</a>
</g>
</g>
<!-- Node13 -->
<g id="Node000013" class="node">
<title>Node13</title>
<g id="a_Node000013"><a xlink:href="math_8c.html#a870a70f4845a041458d9bdb0dd7aabd3" target="_top" xlink:title=" ">
<polygon fill="white" stroke="#666666" points="582,-283.76 544,-283.76 544,-264.76 582,-264.76 582,-283.76"/>
<text text-anchor="middle" x="563" y="-271.76" font-family="Helvetica,sans-Serif" font-size="10.00">DOT</text>
</a>
</g>
</g>
<!-- Node10&#45;&gt;Node13 -->
<g id="edge23_Node000010_Node000013" class="edge">
<title>Node10&#45;&gt;Node13</title>
<g id="a_edge23_Node000010_Node000013"><a xlink:title=" ">
<path fill="none" stroke="#63b8ff" d="M291.25,-285.14C303.43,-281.96 317.53,-277.88 330,-273.26 346.59,-267.11 348.73,-260.13 366,-256.26 424.98,-243.04 442.2,-247.49 502,-256.26 512.7,-257.83 524.14,-260.9 534.14,-264.06"/>
<polygon fill="#63b8ff" stroke="#63b8ff" points="533.34,-267.49 543.93,-267.34 535.56,-260.85 533.34,-267.49"/>
</a>
</g>
</g>
<!-- Node14 -->
<g id="Node000014" class="node">
<title>Node14</title>
<g id="a_Node000014"><a xlink:href="math_8c.html#a3f73e4cd9eab76eeee084eabf2b98ec9" target="_top" xlink:title=" ">
<polygon fill="white" stroke="#666666" points="580,-246.76 546,-246.76 546,-227.76 580,-227.76 580,-246.76"/>
<text text-anchor="middle" x="563" y="-234.76" font-family="Helvetica,sans-Serif" font-size="10.00">INV</text>
</a>
</g>
</g>
<!-- Node10&#45;&gt;Node14 -->
<g id="edge24_Node000010_Node000014" class="edge">
<title>Node10&#45;&gt;Node14</title>
<g id="a_edge24_Node000010_Node000014"><a xlink:title=" ">
<path fill="none" stroke="#63b8ff" d="M291.11,-290.06C304.42,-287.67 319.42,-282.87 330,-273.26 363.13,-243.2 329.14,-204.62 366,-179.26 415.8,-145.01 446.63,-155.02 502,-179.26 523.61,-188.72 520.7,-202.23 538,-218.26 538.96,-219.16 539.97,-220.06 540.99,-220.95"/>
<polygon fill="#63b8ff" stroke="#63b8ff" points="539.05,-223.89 548.99,-227.56 543.51,-218.49 539.05,-223.89"/>
</a>
</g>
</g>
<!-- Node16 -->
<g id="Node000016" class="node">
<title>Node16</title>
<g id="a_Node000016"><a xlink:href="material_8c.html#a3243950933f3559f19edcb5421360526" target="_top" xlink:title=" ">
<polygon fill="white" stroke="#666666" points="502,-55.76 366,-55.76 366,-36.76 502,-36.76 502,-55.76"/>
<text text-anchor="middle" x="434" y="-43.76" font-family="Helvetica,sans-Serif" font-size="10.00">CalcCurvStressStrainxyz</text>
</a>
</g>
</g>
<!-- Node10&#45;&gt;Node16 -->
<g id="edge19_Node000010_Node000016" class="edge">
<title>Node10&#45;&gt;Node16</title>
<g id="a_edge19_Node000010_Node000016"><a xlink:title=" ">
<path fill="none" stroke="#63b8ff" d="M291.28,-291.05C304.96,-288.9 320.21,-284.01 330,-273.26 391.7,-205.52 306.89,-140.28 366,-70.26 369.17,-66.51 372.97,-63.34 377.14,-60.67"/>
<polygon fill="#63b8ff" stroke="#63b8ff" points="378.95,-63.67 386.1,-55.85 375.63,-57.5 378.95,-63.67"/>
</a>
</g>
</g>
<!-- Node17 -->
<g id="Node000017" class="node">
<title>Node17</title>
<g id="a_Node000017"><a xlink:href="material_8c.html#aa93862cca1fe83c736219df7d4a91374" target="_top" xlink:title=" ">
<polygon fill="white" stroke="#666666" points="493.5,-320.76 374.5,-320.76 374.5,-301.76 493.5,-301.76 493.5,-320.76"/>
<text text-anchor="middle" x="434" y="-308.76" font-family="Helvetica,sans-Serif" font-size="10.00">MembraneNonLinear</text>
</a>
</g>
</g>
<!-- Node10&#45;&gt;Node17 -->
<g id="edge25_Node000010_Node000017" class="edge">
<title>Node10&#45;&gt;Node17</title>
<g id="a_edge25_Node000010_Node000017"><a xlink:title=" ">
<path fill="none" stroke="#63b8ff" d="M291.35,-295.62C311.62,-297.85 339.1,-300.89 364.47,-303.69"/>
<polygon fill="#63b8ff" stroke="#63b8ff" points="364.12,-307.18 374.44,-304.79 364.89,-300.22 364.12,-307.18"/>
</a>
</g>
</g>
<!-- Node18 -->
<g id="Node000018" class="node">
<title>Node18</title>
<g id="a_Node000018"><a xlink:href="math_8c.html#ae18926821a703a2c5b281bd890b7e6a0" target="_top" xlink:title=" ">
<polygon fill="white" stroke="#666666" points="454.5,-357.76 413.5,-357.76 413.5,-338.76 454.5,-338.76 454.5,-357.76"/>
<text text-anchor="middle" x="434" y="-345.76" font-family="Helvetica,sans-Serif" font-size="10.00">PLUS</text>
</a>
</g>
</g>
<!-- Node10&#45;&gt;Node18 -->
<g id="edge33_Node000010_Node000018" class="edge">
<title>Node10&#45;&gt;Node18</title>
<g id="a_edge33_Node000010_Node000018"><a xlink:title=" ">
<path fill="none" stroke="#63b8ff" d="M285.83,-301.92C306.98,-309.99 338.26,-321.54 366,-330.26 378.17,-334.09 391.75,-337.84 403.48,-340.91"/>
<polygon fill="#63b8ff" stroke="#63b8ff" points="402.67,-344.32 413.23,-343.42 404.42,-337.54 402.67,-344.32"/>
</a>
</g>
</g>
<!-- Node19 -->
<g id="Node000019" class="node">
<title>Node19</title>
<g id="a_Node000019"><a xlink:href="material_8c.html#a431e1e9b5ceabfa4edc2920b70296b35" target="_top" xlink:title=" ">
<polygon fill="white" stroke="#666666" points="472.5,-207.76 395.5,-207.76 395.5,-188.76 472.5,-188.76 472.5,-207.76"/>
<text text-anchor="middle" x="434" y="-195.76" font-family="Helvetica,sans-Serif" font-size="10.00">StressLinear</text>
</a>
</g>
</g>
<!-- Node10&#45;&gt;Node19 -->
<g id="edge35_Node000010_Node000019" class="edge">
<title>Node10&#45;&gt;Node19</title>
<g id="a_edge35_Node000010_Node000019"><a xlink:title=" ">
<path fill="none" stroke="#63b8ff" d="M291.13,-288.58C303.98,-285.9 318.61,-281.26 330,-273.26 352.7,-257.31 343.91,-239.06 366,-222.26 371.95,-217.74 378.83,-214.01 385.87,-210.96"/>
<polygon fill="#63b8ff" stroke="#63b8ff" points="387.45,-214.1 395.49,-207.2 384.9,-207.58 387.45,-214.1"/>
</a>
</g>
</g>
<!-- Node20 -->
<g id="Node000020" class="node">
<title>Node20</title>
<g id="a_Node000020"><a xlink:href="material_8c.html#aad0d0c11a159f8021feb99ddee475d31" target="_top" xlink:title=" ">
<polygon fill="white" stroke="#666666" points="491,-283.76 377,-283.76 377,-264.76 491,-264.76 491,-283.76"/>
<text text-anchor="middle" x="434" y="-271.76" font-family="Helvetica,sans-Serif" font-size="10.00">StressManufactured</text>
</a>
</g>
</g>
<!-- Node10&#45;&gt;Node20 -->
<g id="edge41_Node000010_Node000020" class="edge">
<title>Node10&#45;&gt;Node20</title>
<g id="a_edge41_Node000010_Node000020"><a xlink:title=" ">
<path fill="none" stroke="#63b8ff" d="M291.35,-289.09C312.21,-286.9 340.73,-283.92 366.7,-281.2"/>
<polygon fill="#63b8ff" stroke="#63b8ff" points="367.31,-284.66 376.89,-280.14 366.58,-277.7 367.31,-284.66"/>
</a>
</g>
</g>
<!-- Node12&#45;&gt;Node3 -->
<g id="edge12_Node000012_Node000003" class="edge">
<title>Node12&#45;&gt;Node3</title>
<g id="a_edge12_Node000012_Node000003"><a xlink:title=" ">
<path fill="none" stroke="#63b8ff" d="M486.54,-412.64C492.04,-410.41 497.32,-407.65 502,-404.26 525.66,-387.13 520.66,-372.78 538,-349.26 540.83,-345.43 543.99,-341.43 547.06,-337.67"/>
<polygon fill="#63b8ff" stroke="#63b8ff" points="549.77,-339.89 553.5,-329.98 544.4,-335.4 549.77,-339.89"/>
</a>
</g>
</g>
<!-- Node12&#45;&gt;Node4 -->
<g id="edge15_Node000012_Node000004" class="edge">
<title>Node12&#45;&gt;Node4</title>
<g id="a_edge15_Node000012_Node000004"><a xlink:title=" ">
<path fill="none" stroke="#63b8ff" d="M487.03,-414.77C492.63,-412.17 497.81,-408.76 502,-404.26 559.11,-342.99 495.36,-291.36 538,-219.26 538.65,-218.16 539.39,-217.09 540.19,-216.06"/>
<polygon fill="#63b8ff" stroke="#63b8ff" points="542.7,-218.5 547.2,-208.91 537.7,-213.6 542.7,-218.5"/>
</a>
</g>
</g>
<!-- Node12&#45;&gt;Node5 -->
<g id="edge17_Node000012_Node000005" class="edge">
<title>Node12&#45;&gt;Node5</title>
<g id="a_edge17_Node000012_Node000005"><a xlink:title=" ">
<path fill="none" stroke="#63b8ff" d="M451.34,-431.91C473.06,-444.74 511.64,-467.52 537.02,-482.51"/>
<polygon fill="#63b8ff" stroke="#63b8ff" points="535.33,-485.58 545.72,-487.65 538.89,-479.55 535.33,-485.58"/>
</a>
</g>
</g>
<!-- Node12&#45;&gt;Node6 -->
<g id="edge18_Node000012_Node000006" class="edge">
<title>Node12&#45;&gt;Node6</title>
<g id="a_edge18_Node000012_Node000006"><a xlink:title=" ">
<path fill="none" stroke="#63b8ff" d="M477.81,-412.75C485.99,-410.38 494.37,-407.56 502,-404.26 515.34,-398.5 529.22,-390.13 540.26,-382.8"/>
<polygon fill="#63b8ff" stroke="#63b8ff" points="542.51,-385.5 548.79,-376.97 538.56,-379.72 542.51,-385.5"/>
</a>
</g>
</g>
<!-- Node12&#45;&gt;Node13 -->
<g id="edge13_Node000012_Node000013" class="edge">
<title>Node12&#45;&gt;Node13</title>
<g id="a_edge13_Node000012_Node000013"><a xlink:title=" ">
<path fill="none" stroke="#63b8ff" d="M487.08,-413.85C492.54,-411.41 497.67,-408.27 502,-404.26 537.27,-371.6 513.95,-343.89 538,-302.26 540.1,-298.63 542.7,-295.01 545.41,-291.65"/>
<polygon fill="#63b8ff" stroke="#63b8ff" points="548.2,-293.78 552.13,-283.94 542.92,-289.18 548.2,-293.78"/>
</a>
</g>
</g>
<!-- Node12&#45;&gt;Node14 -->
<g id="edge14_Node000012_Node000014" class="edge">
<title>Node12&#45;&gt;Node14</title>
<g id="a_edge14_Node000012_Node000014"><a xlink:title=" ">
<path fill="none" stroke="#63b8ff" d="M487.16,-414.43C492.67,-411.88 497.79,-408.57 502,-404.26 549.29,-355.83 501.48,-313.26 538,-256.26 538.5,-255.48 539.05,-254.72 539.63,-253.97"/>
<polygon fill="#63b8ff" stroke="#63b8ff" points="542.22,-256.33 546.82,-246.78 537.27,-251.38 542.22,-256.33"/>
</a>
</g>
</g>
<!-- Node15 -->
<g id="Node000015" class="node">
<title>Node15</title>
<g id="a_Node000015"><a xlink:href="math_8c.html#ae6a53927765c25c58815e47fea096a67" target="_top" xlink:title=" ">
<polygon fill="white" stroke="#666666" points="583.5,-431.76 542.5,-431.76 542.5,-412.76 583.5,-412.76 583.5,-431.76"/>
<text text-anchor="middle" x="563" y="-419.76" font-family="Helvetica,sans-Serif" font-size="10.00">SIGN</text>
</a>
</g>
</g>
<!-- Node12&#45;&gt;Node15 -->
<g id="edge16_Node000012_Node000015" class="edge">
<title>Node12&#45;&gt;Node15</title>
<g id="a_edge16_Node000012_Node000015"><a xlink:title=" ">
<path fill="none" stroke="#63b8ff" d="M487.02,-422.26C502.37,-422.26 518.65,-422.26 532.1,-422.26"/>
<polygon fill="#63b8ff" stroke="#63b8ff" points="532.21,-425.76 542.21,-422.26 532.21,-418.76 532.21,-425.76"/>
</a>
</g>
</g>
<!-- Node16&#45;&gt;Node4 -->
<g id="edge21_Node000016_Node000004" class="edge">
<title>Node16&#45;&gt;Node4</title>
<g id="a_edge21_Node000016_Node000004"><a xlink:title=" ">
<path fill="none" stroke="#63b8ff" d="M477.5,-55.79C486.34,-59.25 495.06,-63.93 502,-70.26 534.86,-100.25 551.18,-151.89 557.97,-179.87"/>
<polygon fill="#63b8ff" stroke="#63b8ff" points="554.56,-180.68 560.19,-189.66 561.39,-179.14 554.56,-180.68"/>
</a>
</g>
</g>
<!-- Node16&#45;&gt;Node14 -->
<g id="edge20_Node000016_Node000014" class="edge">
<title>Node16&#45;&gt;Node14</title>
<g id="a_edge20_Node000016_Node000014"><a xlink:title=" ">
<path fill="none" stroke="#63b8ff" d="M449.03,-55.85C464.13,-66.86 487.88,-86.25 502,-108.26 529.77,-151.57 508.59,-176.06 538,-218.26 538.53,-219.03 539.1,-219.77 539.71,-220.5"/>
<polygon fill="#63b8ff" stroke="#63b8ff" points="537.41,-223.15 547.01,-227.62 542.29,-218.13 537.41,-223.15"/>
</a>
</g>
</g>
<!-- Node17&#45;&gt;Node3 -->
<g id="edge26_Node000017_Node000003" class="edge">
<title>Node17&#45;&gt;Node3</title>
<g id="a_edge26_Node000017_Node000003"><a xlink:title=" ">
<path fill="none" stroke="#63b8ff" d="M493.67,-315.42C505.37,-316.25 517.28,-317.09 527.82,-317.84"/>
<polygon fill="#63b8ff" stroke="#63b8ff" points="527.62,-321.34 537.84,-318.55 528.11,-314.35 527.62,-321.34"/>
</a>
</g>
</g>
<!-- Node17&#45;&gt;Node4 -->
<g id="edge29_Node000017_Node000004" class="edge">
<title>Node17&#45;&gt;Node4</title>
<g id="a_edge29_Node000017_Node000004"><a xlink:title=" ">
<path fill="none" stroke="#63b8ff" d="M488.34,-301.62C493.25,-299.38 497.91,-296.64 502,-293.26 530.2,-269.98 515.45,-248.06 538,-219.26 538.92,-218.09 539.92,-216.94 540.97,-215.81"/>
<polygon fill="#63b8ff" stroke="#63b8ff" points="543.42,-218.32 548.36,-208.94 538.65,-213.19 543.42,-218.32"/>
</a>
</g>
</g>
<!-- Node17&#45;&gt;Node5 -->
<g id="edge30_Node000017_Node000005" class="edge">
<title>Node17&#45;&gt;Node5</title>
<g id="a_edge30_Node000017_Node000005"><a xlink:title=" ">
<path fill="none" stroke="#63b8ff" d="M488.2,-320.85C493.27,-323.32 497.99,-326.4 502,-330.26 539.35,-366.25 519.77,-392.71 538,-441.26 542.68,-453.72 548.55,-467.46 553.32,-478.21"/>
<polygon fill="#63b8ff" stroke="#63b8ff" points="550.19,-479.77 557.48,-487.46 556.57,-476.9 550.19,-479.77"/>
</a>
</g>
</g>
<!-- Node17&#45;&gt;Node6 -->
<g id="edge31_Node000017_Node000006" class="edge">
<title>Node17&#45;&gt;Node6</title>
<g id="a_edge31_Node000017_Node000006"><a xlink:title=" ">
<path fill="none" stroke="#63b8ff" d="M475.67,-320.85C484.51,-323.47 493.7,-326.61 502,-330.26 515.3,-336.12 529.17,-344.5 540.22,-351.81"/>
<polygon fill="#63b8ff" stroke="#63b8ff" points="538.53,-354.89 548.77,-357.61 542.47,-349.1 538.53,-354.89"/>
</a>
</g>
</g>
<!-- Node17&#45;&gt;Node13 -->
<g id="edge27_Node000017_Node000013" class="edge">
<title>Node17&#45;&gt;Node13</title>
<g id="a_edge27_Node000017_Node000013"><a xlink:title=" ">
<path fill="none" stroke="#63b8ff" d="M471.59,-301.75C481.49,-299.09 492.17,-296.14 502,-293.26 512.62,-290.16 524.22,-286.54 534.37,-283.29"/>
<polygon fill="#63b8ff" stroke="#63b8ff" points="535.5,-286.61 543.95,-280.21 533.36,-279.94 535.5,-286.61"/>
</a>
</g>
</g>
<!-- Node17&#45;&gt;Node14 -->
<g id="edge28_Node000017_Node000014" class="edge">
<title>Node17&#45;&gt;Node14</title>
<g id="a_edge28_Node000017_Node000014"><a xlink:title=" ">
<path fill="none" stroke="#63b8ff" d="M483.13,-301.72C489.71,-299.46 496.18,-296.68 502,-293.26 521.79,-281.65 520.97,-271.64 538,-256.26 538.98,-255.38 539.99,-254.49 541.02,-253.61"/>
<polygon fill="#63b8ff" stroke="#63b8ff" points="543.53,-256.07 549.04,-247.02 539.09,-250.66 543.53,-256.07"/>
</a>
</g>
</g>
<!-- Node19&#45;&gt;Node3 -->
<g id="edge36_Node000019_Node000003" class="edge">
<title>Node19&#45;&gt;Node3</title>
<g id="a_edge36_Node000019_Node000003"><a xlink:title=" ">
<path fill="none" stroke="#63b8ff" d="M447.19,-208.17C460.88,-219.43 483.59,-238.57 502,-256.26 517.67,-271.33 534.52,-289.49 546.36,-302.61"/>
<polygon fill="#63b8ff" stroke="#63b8ff" points="544.08,-305.31 553.36,-310.42 549.29,-300.64 544.08,-305.31"/>
</a>
</g>
</g>
<!-- Node19&#45;&gt;Node4 -->
<g id="edge39_Node000019_Node000004" class="edge">
<title>Node19&#45;&gt;Node4</title>
<g id="a_edge39_Node000019_Node000004"><a xlink:title=" ">
<path fill="none" stroke="#63b8ff" d="M472.76,-198.56C490.2,-198.7 510.75,-198.86 527.74,-198.99"/>
<polygon fill="#63b8ff" stroke="#63b8ff" points="527.77,-202.49 537.79,-199.07 527.82,-195.49 527.77,-202.49"/>
</a>
</g>
</g>
<!-- Node19&#45;&gt;Node6 -->
<g id="edge40_Node000019_Node000006" class="edge">
<title>Node19&#45;&gt;Node6</title>
<g id="a_edge40_Node000019_Node000006"><a xlink:title=" ">
<path fill="none" stroke="#63b8ff" d="M449.5,-207.85C464.34,-218.28 487.25,-236.17 502,-256.26 525.79,-288.68 516.68,-305.17 538,-339.26 540.27,-342.88 542.98,-346.52 545.76,-349.92"/>
<polygon fill="#63b8ff" stroke="#63b8ff" points="543.35,-352.49 552.56,-357.72 548.63,-347.89 543.35,-352.49"/>
</a>
</g>
</g>
<!-- Node19&#45;&gt;Node13 -->
<g id="edge37_Node000019_Node000013" class="edge">
<title>Node19&#45;&gt;Node13</title>
<g id="a_edge37_Node000019_Node000013"><a xlink:title=" ">
<path fill="none" stroke="#63b8ff" d="M470.33,-207.87C480.93,-211.55 492.31,-216.32 502,-222.26 520.76,-233.77 521.17,-242.08 538,-256.26 538.84,-256.97 539.7,-257.68 540.57,-258.39"/>
<polygon fill="#63b8ff" stroke="#63b8ff" points="538.55,-261.25 548.59,-264.62 542.84,-255.72 538.55,-261.25"/>
</a>
</g>
</g>
<!-- Node19&#45;&gt;Node14 -->
<g id="edge38_Node000019_Node000014" class="edge">
<title>Node19&#45;&gt;Node14</title>
<g id="a_edge38_Node000019_Node000014"><a xlink:title=" ">
<path fill="none" stroke="#63b8ff" d="M466.07,-207.8C487.58,-214.41 515.88,-223.1 536.16,-229.33"/>
<polygon fill="#63b8ff" stroke="#63b8ff" points="535.36,-232.75 545.95,-232.34 537.42,-226.05 535.36,-232.75"/>
</a>
</g>
</g>
<!-- Node20&#45;&gt;Node3 -->
<g id="edge42_Node000020_Node000003" class="edge">
<title>Node20&#45;&gt;Node3</title>
<g id="a_edge42_Node000020_Node000003"><a xlink:title=" ">
<path fill="none" stroke="#63b8ff" d="M472.52,-283.86C482.21,-286.62 492.57,-289.83 502,-293.26 512.38,-297.05 523.49,-301.83 533.29,-306.31"/>
<polygon fill="#63b8ff" stroke="#63b8ff" points="532.03,-309.59 542.57,-310.65 534.99,-303.25 532.03,-309.59"/>
</a>
</g>
</g>
<!-- Node20&#45;&gt;Node4 -->
<g id="edge45_Node000020_Node000004" class="edge">
<title>Node20&#45;&gt;Node4</title>
<g id="a_edge45_Node000020_Node000004"><a xlink:title=" ">
<path fill="none" stroke="#63b8ff" d="M451.34,-264.61C473.06,-251.79 511.64,-229 537.02,-214.01"/>
<polygon fill="#63b8ff" stroke="#63b8ff" points="538.89,-216.98 545.72,-208.88 535.33,-210.95 538.89,-216.98"/>
</a>
</g>
</g>
<!-- Node20&#45;&gt;Node6 -->
<g id="edge46_Node000020_Node000006" class="edge">
<title>Node20&#45;&gt;Node6</title>
<g id="a_edge46_Node000020_Node000006"><a xlink:title=" ">
<path fill="none" stroke="#63b8ff" d="M483.14,-283.89C489.78,-286.35 496.28,-289.42 502,-293.26 523.55,-307.74 521.55,-319.18 538,-339.26 540.88,-342.77 544,-346.49 547.01,-350.02"/>
<polygon fill="#63b8ff" stroke="#63b8ff" points="544.5,-352.47 553.67,-357.76 549.8,-347.9 544.5,-352.47"/>
</a>
</g>
</g>
<!-- Node20&#45;&gt;Node13 -->
<g id="edge43_Node000020_Node000013" class="edge">
<title>Node20&#45;&gt;Node13</title>
<g id="a_edge43_Node000020_Node000013"><a xlink:title=" ">
<path fill="none" stroke="#63b8ff" d="M491.07,-274.26C505.77,-274.26 521.01,-274.26 533.58,-274.26"/>
<polygon fill="#63b8ff" stroke="#63b8ff" points="533.85,-277.76 543.85,-274.26 533.85,-270.76 533.85,-277.76"/>
</a>
</g>
</g>
<!-- Node20&#45;&gt;Node14 -->
<g id="edge44_Node000020_Node000014" class="edge">
<title>Node20&#45;&gt;Node14</title>
<g id="a_edge44_Node000020_Node000014"><a xlink:title=" ">
<path fill="none" stroke="#63b8ff" d="M467.71,-264.73C488.89,-258.56 516.1,-250.64 535.84,-244.88"/>
<polygon fill="#63b8ff" stroke="#63b8ff" points="537.06,-248.17 545.69,-242.02 535.11,-241.45 537.06,-248.17"/>
</a>
</g>
</g>
<!-- Node21&#45;&gt;Node4 -->
<g id="edge52_Node000021_Node000004" class="edge">
<title>Node21&#45;&gt;Node4</title>
<g id="a_edge52_Node000021_Node000004"><a xlink:title=" ">
<path fill="none" stroke="#63b8ff" d="M298.11,-195.42C309.7,-192.77 321.63,-187.94 330,-179.26 378.2,-129.29 311.55,-70.33 366,-27.26 413.41,10.23 452.72,7.74 502,-27.26 551.77,-62.61 560.6,-142.45 561.93,-179.58"/>
<polygon fill="#63b8ff" stroke="#63b8ff" points="558.43,-179.71 562.14,-189.64 565.43,-179.57 558.43,-179.71"/>
</a>
</g>
</g>
<!-- Node21&#45;&gt;Node13 -->
<g id="edge50_Node000021_Node000013" class="edge">
<title>Node21&#45;&gt;Node13</title>
<g id="a_edge50_Node000021_Node000013"><a xlink:title=" ">
<path fill="none" stroke="#63b8ff" d="M298.29,-189.98C357.37,-177.73 469.16,-158.36 502,-179.26 533.87,-199.55 514.18,-226.94 538,-256.26 538.39,-256.74 538.8,-257.22 539.21,-257.69"/>
<polygon fill="#63b8ff" stroke="#63b8ff" points="537.06,-260.46 546.79,-264.64 541.79,-255.3 537.06,-260.46"/>
</a>
</g>
</g>
<!-- Node21&#45;&gt;Node16 -->
<g id="edge49_Node000021_Node000016" class="edge">
<title>Node21&#45;&gt;Node16</title>
<g id="a_edge49_Node000021_Node000016"><a xlink:title=" ">
<path fill="none" stroke="#63b8ff" d="M298.04,-194.91C309.49,-192.21 321.36,-187.48 330,-179.26 366.97,-144.11 330.38,-106.79 366,-70.26 369.88,-66.28 374.47,-62.96 379.39,-60.19"/>
<polygon fill="#63b8ff" stroke="#63b8ff" points="381.06,-63.27 388.54,-55.77 378.02,-56.97 381.06,-63.27"/>
</a>
</g>
</g>
<!-- Node21&#45;&gt;Node17 -->
<g id="edge51_Node000021_Node000017" class="edge">
<title>Node21&#45;&gt;Node17</title>
<g id="a_edge51_Node000021_Node000017"><a xlink:title=" ">
<path fill="none" stroke="#63b8ff" d="M284.96,-207.81C299.2,-214.32 316.96,-223.98 330,-236.26 351.81,-256.81 341.88,-275.49 366,-293.26 367.89,-294.66 369.88,-295.94 371.95,-297.13"/>
<polygon fill="#63b8ff" stroke="#63b8ff" points="370.88,-300.5 381.4,-301.72 373.93,-294.2 370.88,-300.5"/>
</a>
</g>
</g>
<!-- Node21&#45;&gt;Node19 -->
<g id="edge53_Node000021_Node000019" class="edge">
<title>Node21&#45;&gt;Node19</title>
<g id="a_edge53_Node000021_Node000019"><a xlink:title=" ">
<path fill="none" stroke="#63b8ff" d="M298.32,-198.26C323.82,-198.26 357.82,-198.26 385.28,-198.26"/>
<polygon fill="#63b8ff" stroke="#63b8ff" points="385.45,-201.76 395.45,-198.26 385.45,-194.76 385.45,-201.76"/>
</a>
</g>
</g>
</g>
</svg>

<g id="navigator" transform="translate(0 0)" fill="#404254">
  <rect fill="#f2f5e9" fill-opacity="0.5" stroke="#606060" stroke-width=".5" x="0" y="0" width="60" height="60"/>
  <use id="zoomplus" xlink:href="#zoomPlus" x="17" y="9" onmousedown="handleZoom(evt,'in')"/>
  <use id="zoomminus" xlink:href="#zoomMin" x="42" y="9" onmousedown="handleZoom(evt,'out')"/>
  <use id="reset" xlink:href="#resetDef" x="30" y="36" onmousedown="handleReset()"/>
   <use id="arrowup" xlink:href="#arrowUp" x="0" y="0" onmousedown="handlePan(0,-1)"/>
  <use id="arrowright" xlink:href="#arrowRight" x="0" y="0" onmousedown="handlePan(1,0)"/>
  <use id="arrowdown" xlink:href="#arrowDown" x="0" y="0" onmousedown="handlePan(0,1)"/>
  <use id="arrowleft" xlink:href="#arrowLeft" x="0" y="0" onmousedown="handlePan(-1,0)"/>
</g>
<svg viewBox="0 0 15 15" width="100%" height="30px" preserveAspectRatio="xMaxYMin meet">
 <g id="arrow_out" transform="scale(0.3 0.3)">
  <a xlink:href="main_8c_ad3a8e8f5b2e1871122784b2cd3dc1c8c_cgraph_org.svg" target="_base">
   <rect id="button" ry="5" rx="5" y="6" x="6" height="38" width="38"
        fill="#f2f5e9" fill-opacity="0.5" stroke="#606060" stroke-width="1.0"/>
   <path id="arrow"
     d="M 11.500037,31.436501 C 11.940474,20.09759 22.043105,11.32322 32.158766,21.979434 L 37.068811,17.246167 C 37.068811,17.246167 37.088388,32 37.088388,32 L 22.160133,31.978069 C 22.160133,31.978069 26.997745,27.140456 26.997745,27.140456 C 18.528582,18.264221 13.291696,25.230495 11.500037,31.436501 z"
     style="fill:#404040;"/>
  </a>
 </g>
</svg>

<style type='text/css'>
<![CDATA[
[data-mouse-over-selected='false'] { opacity: 0.7; }
[data-mouse-over-selected='true']  { opacity: 1.0; }
]]>
</style>
<script type="application/ecmascript"><![CDATA[
document.addEventListener('DOMContentLoaded', (event) => {
  highlightEdges();
  highlightAdjacentNodes();
});
]]></script>
</svg>
