<?xml version="1.0" encoding="UTF-8" standalone="no"?>
<!DOCTYPE svg PUBLIC "-//W3C//DTD SVG 1.1//EN"
 "http://www.w3.org/Graphics/SVG/1.1/DTD/svg11.dtd">
<!-- Generated by graphviz version 2.43.0 (0)
 -->
<!-- Title: FInternal Pages: 1 -->
<!--zoomable 550 -->

<svg id="main" version="1.1" xmlns="http://www.w3.org/2000/svg" xmlns:xlink="http://www.w3.org/1999/xlink" xml:space="preserve" onload="init(evt)">
<style type="text/css"><![CDATA[
.node, .edge {opacity: 0.7;}
.node.selected, .edge.selected {opacity: 1;}
.edge:hover path { stroke: red; }
.edge:hover polygon { stroke: red; fill: red; }
]]></style>

<defs>
  <circle id="rim" cx="0" cy="0" r="7"/>
  <circle id="rim2" cx="0" cy="0" r="3.5"/>
  <g id="zoomPlus">
    <use xlink:href="#rim" fill="#404040"><set attributeName="fill" to="#808080" begin="zoomplus.mouseover" end="zoomplus.mouseout"/></use>
    <path d="M-4,0h8M0,-4v8" fill="none" stroke="white" stroke-width="1.5" pointer-events="none"/>
  </g>
  <g id="zoomMin">
    <use xlink:href="#rim" fill="#404040"><set attributeName="fill" to="#808080" begin="zoomminus.mouseover" end="zoomminus.mouseout"/></use>
    <path d="M-4,0h8" fill="none" stroke="white" stroke-width="1.5" pointer-events="none"/>
  </g>
  <g id="arrowUp" transform="translate(30 24)">
    <use xlink:href="#rim"/>
    <path pointer-events="none" fill="none" stroke="white" stroke-width="1.5" d="M0,-3.0v7 M-2.5,-0.5L0,-3.0L2.5,-0.5"/>
  </g>
  <g id="arrowRight" transform="rotate(90) translate(36 -43)">
    <use xlink:href="#rim"/>
    <path pointer-events="none" fill="none" stroke="white" stroke-width="1.5" d="M0,-3.0v7 M-2.5,-0.5L0,-3.0L2.5,-0.5"/>
  </g>
  <g id="arrowDown" transform="rotate(180) translate(-30 -48)">
    <use xlink:href="#rim"/>
    <path pointer-events="none" fill="none" stroke="white" stroke-width="1.5" d="M0,-3.0v7 M-2.5,-0.5L0,-3.0L2.5,-0.5"/>
  </g>
  <g id="arrowLeft" transform="rotate(270) translate(-36 17)">
    <use xlink:href="#rim"/>
    <path pointer-events="none" fill="none" stroke="white" stroke-width="1.5" d="M0,-3.0v7 M-2.5,-0.5L0,-3.0L2.5,-0.5"/>
  </g>
  <g id="resetDef">
    <use xlink:href="#rim2" fill="#404040"><set attributeName="fill" to="#808080" begin="reset.mouseover" end="reset.mouseout"/></use>
  </g>
</defs>
<script type="application/ecmascript">
var viewWidth = 457;
var viewHeight = 550;
var sectionId = 'dynsection-23';
</script>
<script type="application/ecmascript" xlink:href="svg.min.js"/>
<svg id="graph" class="graph">
<g id="viewport">
<title>FInternal</title>
<!-- Node1 -->
<g id="Node000001" class="node">
<title>Node1</title>
<g id="a_Node000001"><a xlink:title=" ">
<polygon fill="#999999" stroke="#666666" points="60,-262.59 0,-262.59 0,-243.59 60,-243.59 60,-262.59"/>
<text text-anchor="middle" x="30" y="-250.59" font-family="Helvetica,sans-Serif" font-size="10.00">FInternal</text>
</a>
</g>
</g>
<!-- Node2 -->
<g id="Node000002" class="node">
<title>Node2</title>
<g id="a_Node000002"><a xlink:href="bending_8c.html#a2b66770553fce4724cfb65b0f79e83b1" target="_top" xlink:title=" ">
<polygon fill="white" stroke="#666666" points="174.5,-262.59 112.5,-262.59 112.5,-243.59 174.5,-243.59 174.5,-262.59"/>
<text text-anchor="middle" x="143.5" y="-250.59" font-family="Helvetica,sans-Serif" font-size="10.00">Fbending</text>
</a>
</g>
</g>
<!-- Node1&#45;&gt;Node2 -->
<g id="edge1_Node000001_Node000002" class="edge">
<title>Node1&#45;&gt;Node2</title>
<g id="a_edge1_Node000001_Node000002"><a xlink:title=" ">
<path fill="none" stroke="#63b8ff" d="M60,-253.09C72.86,-253.09 88.2,-253.09 102.15,-253.09"/>
<polygon fill="#63b8ff" stroke="#63b8ff" points="102.47,-256.59 112.47,-253.09 102.47,-249.59 102.47,-256.59"/>
</a>
</g>
</g>
<!-- Node17 -->
<g id="Node000017" class="node">
<title>Node17</title>
<g id="a_Node000017"><a xlink:href="membrane_8c.html#a9fee56a81a4f404db4630a996f38013c" target="_top" xlink:title=" ">
<polygon fill="white" stroke="#666666" points="181.5,-394.59 105.5,-394.59 105.5,-375.59 181.5,-375.59 181.5,-394.59"/>
<text text-anchor="middle" x="143.5" y="-382.59" font-family="Helvetica,sans-Serif" font-size="10.00">Fmembrane</text>
</a>
</g>
</g>
<!-- Node1&#45;&gt;Node17 -->
<g id="edge40_Node000001_Node000017" class="edge">
<title>Node1&#45;&gt;Node17</title>
<g id="a_edge40_Node000001_Node000017"><a xlink:title=" ">
<path fill="none" stroke="#63b8ff" d="M39.38,-263.01C58.2,-285.29 104.01,-339.52 127.73,-367.6"/>
<polygon fill="#63b8ff" stroke="#63b8ff" points="125.2,-370.03 134.33,-375.41 130.55,-365.51 125.2,-370.03"/>
</a>
</g>
</g>
<!-- Node18 -->
<g id="Node000018" class="node">
<title>Node18</title>
<g id="a_Node000018"><a xlink:href="bcs_8c.html#a679ccb265fdae6027920ac949da40b91" target="_top" xlink:title=" ">
<polygon fill="white" stroke="#666666" points="191,-225.59 96,-225.59 96,-206.59 191,-206.59 191,-225.59"/>
<text text-anchor="middle" x="143.5" y="-213.59" font-family="Helvetica,sans-Serif" font-size="10.00">ModifyFbending</text>
</a>
</g>
</g>
<!-- Node1&#45;&gt;Node18 -->
<g id="edge46_Node000001_Node000018" class="edge">
<title>Node1&#45;&gt;Node18</title>
<g id="a_edge46_Node000001_Node000018"><a xlink:title=" ">
<path fill="none" stroke="#63b8ff" d="M59.71,-243.56C73.14,-239.11 89.31,-233.74 103.8,-228.93"/>
<polygon fill="#63b8ff" stroke="#63b8ff" points="105.11,-232.18 113.5,-225.71 102.9,-225.54 105.11,-232.18"/>
</a>
</g>
</g>
<!-- Node3 -->
<g id="Node000003" class="node">
<title>Node3</title>
<g id="a_Node000003"><a xlink:href="math_8c.html#a7ef9263b0a3a10c2cd00bb4dc0059d70" target="_top" xlink:title=" ">
<polygon fill="white" stroke="#666666" points="320,-55.59 270,-55.59 270,-36.59 320,-36.59 320,-55.59"/>
<text text-anchor="middle" x="295" y="-43.59" font-family="Helvetica,sans-Serif" font-size="10.00">AMULT</text>
</a>
</g>
</g>
<!-- Node2&#45;&gt;Node3 -->
<g id="edge2_Node000002_Node000003" class="edge">
<title>Node2&#45;&gt;Node3</title>
<g id="a_edge2_Node000002_Node000003"><a xlink:title=" ">
<path fill="none" stroke="#63b8ff" d="M174.79,-246.32C180.88,-243.7 186.72,-240.08 191,-235.09 239.82,-178.07 177.46,-126.48 227,-70.09 235.47,-60.44 248.11,-54.67 260.13,-51.22"/>
<polygon fill="#63b8ff" stroke="#63b8ff" points="261.08,-54.59 269.97,-48.83 259.43,-47.79 261.08,-54.59"/>
</a>
</g>
</g>
<!-- Node4 -->
<g id="Node000004" class="node">
<title>Node4</title>
<g id="a_Node000004"><a xlink:href="material_8c.html#af81ecf5fbfd52082e0abd3184f12c14f" target="_top" xlink:title=" ">
<polygon fill="white" stroke="#666666" points="348,-206.59 242,-206.59 242,-187.59 348,-187.59 348,-206.59"/>
<text text-anchor="middle" x="295" y="-194.59" font-family="Helvetica,sans-Serif" font-size="10.00">BendingNonLinear</text>
</a>
</g>
</g>
<!-- Node2&#45;&gt;Node4 -->
<g id="edge3_Node000002_Node000004" class="edge">
<title>Node2&#45;&gt;Node4</title>
<g id="a_edge3_Node000002_Node000004"><a xlink:title=" ">
<path fill="none" stroke="#63b8ff" d="M170.79,-243.52C177.45,-240.93 184.54,-238.03 191,-235.09 207.46,-227.59 210.21,-222.81 227,-216.09 232.82,-213.76 239.03,-211.59 245.23,-209.62"/>
<polygon fill="#63b8ff" stroke="#63b8ff" points="246.36,-212.93 254.92,-206.68 244.33,-206.23 246.36,-212.93"/>
</a>
</g>
</g>
<!-- Node5 -->
<g id="Node000005" class="node">
<title>Node5</title>
<g id="a_Node000005"><a xlink:href="math_8c.html#a9d60990d26296194c921d537ea26f3c7" target="_top" xlink:title=" ">
<polygon fill="white" stroke="#666666" points="449,-243.59 399,-243.59 399,-224.59 449,-224.59 449,-243.59"/>
<text text-anchor="middle" x="424" y="-231.59" font-family="Helvetica,sans-Serif" font-size="10.00">CROSS</text>
</a>
</g>
</g>
<!-- Node2&#45;&gt;Node5 -->
<g id="edge14_Node000002_Node000005" class="edge">
<title>Node2&#45;&gt;Node5</title>
<g id="a_edge14_Node000002_Node000005"><a xlink:title=" ">
<path fill="none" stroke="#63b8ff" d="M174.54,-246.1C180.65,-243.49 186.55,-239.94 191,-235.09 229.78,-192.79 181.11,-145.55 227,-111.09 275.33,-74.79 313.81,-75.95 363,-111.09 403.14,-139.76 369.98,-176.19 399,-216.09 399.28,-216.47 399.56,-216.84 399.86,-217.21"/>
<polygon fill="#63b8ff" stroke="#63b8ff" points="397.45,-219.76 407.05,-224.26 402.35,-214.76 397.45,-219.76"/>
</a>
</g>
</g>
<!-- Node6 -->
<g id="Node000006" class="node">
<title>Node6</title>
<g id="a_Node000006"><a xlink:href="math_8c.html#a870a70f4845a041458d9bdb0dd7aabd3" target="_top" xlink:title=" ">
<polygon fill="white" stroke="#666666" points="443,-317.59 405,-317.59 405,-298.59 443,-298.59 443,-317.59"/>
<text text-anchor="middle" x="424" y="-305.59" font-family="Helvetica,sans-Serif" font-size="10.00">DOT</text>
</a>
</g>
</g>
<!-- Node2&#45;&gt;Node6 -->
<g id="edge15_Node000002_Node000006" class="edge">
<title>Node2&#45;&gt;Node6</title>
<g id="a_edge15_Node000002_Node000006"><a xlink:title=" ">
<path fill="none" stroke="#63b8ff" d="M174.7,-257.66C217.01,-264.24 296.23,-277.25 363,-292.09 373.54,-294.43 385.03,-297.39 395.1,-300.12"/>
<polygon fill="#63b8ff" stroke="#63b8ff" points="394.41,-303.57 404.98,-302.86 396.28,-296.82 394.41,-303.57"/>
</a>
</g>
</g>
<!-- Node7 -->
<g id="Node000007" class="node">
<title>Node7</title>
<g id="a_Node000007"><a xlink:href="math_8c.html#a3f73e4cd9eab76eeee084eabf2b98ec9" target="_top" xlink:title=" ">
<polygon fill="white" stroke="#666666" points="441,-354.59 407,-354.59 407,-335.59 441,-335.59 441,-354.59"/>
<text text-anchor="middle" x="424" y="-342.59" font-family="Helvetica,sans-Serif" font-size="10.00">INV</text>
</a>
</g>
</g>
<!-- Node2&#45;&gt;Node7 -->
<g id="edge16_Node000002_Node000007" class="edge">
<title>Node2&#45;&gt;Node7</title>
<g id="a_edge16_Node000002_Node000007"><a xlink:title=" ">
<path fill="none" stroke="#63b8ff" d="M147.99,-262.74C156.92,-285.78 183.04,-343.75 227,-366.09 282.71,-394.39 358.67,-371.63 397.64,-356.26"/>
<polygon fill="#63b8ff" stroke="#63b8ff" points="399.02,-359.48 406.94,-352.45 396.36,-353 399.02,-359.48"/>
</a>
</g>
</g>
<!-- Node8 -->
<g id="Node000008" class="node">
<title>Node8</title>
<g id="a_Node000008"><a xlink:href="math_8c.html#a9d08a9d2fd8e8932e92b8ab054b19269" target="_top" xlink:title=" ">
<polygon fill="white" stroke="#666666" points="449,-391.59 399,-391.59 399,-372.59 449,-372.59 449,-391.59"/>
<text text-anchor="middle" x="424" y="-379.59" font-family="Helvetica,sans-Serif" font-size="10.00">MINUS</text>
</a>
</g>
</g>
<!-- Node2&#45;&gt;Node8 -->
<g id="edge24_Node000002_Node000008" class="edge">
<title>Node2&#45;&gt;Node8</title>
<g id="a_edge24_Node000002_Node000008"><a xlink:title=" ">
<path fill="none" stroke="#63b8ff" d="M147.01,-262.83C154.24,-288.66 177.85,-358.74 227,-386.09 277.72,-414.31 347.85,-403.15 389.02,-392.56"/>
<polygon fill="#63b8ff" stroke="#63b8ff" points="390.09,-395.9 398.83,-389.9 388.26,-389.14 390.09,-395.9"/>
</a>
</g>
</g>
<!-- Node10 -->
<g id="Node000010" class="node">
<title>Node10</title>
<g id="a_Node000010"><a xlink:href="math_8c.html#aa52f6593cf3e5453c8c6c94343d3fb37" target="_top" xlink:title=" ">
<polygon fill="white" stroke="#666666" points="443,-169.59 405,-169.59 405,-150.59 443,-150.59 443,-169.59"/>
<text text-anchor="middle" x="424" y="-157.59" font-family="Helvetica,sans-Serif" font-size="10.00">SIZE</text>
</a>
</g>
</g>
<!-- Node2&#45;&gt;Node10 -->
<g id="edge26_Node000002_Node000010" class="edge">
<title>Node2&#45;&gt;Node10</title>
<g id="a_edge26_Node000002_Node000010"><a xlink:title=" ">
<path fill="none" stroke="#63b8ff" d="M174.95,-246.45C181.04,-243.83 186.83,-240.18 191,-235.09 250.46,-162.52 155.23,-87.51 227,-27.09 273.24,11.84 312.23,5.71 363,-27.09 402.06,-52.31 415.95,-109.74 420.69,-140.22"/>
<polygon fill="#63b8ff" stroke="#63b8ff" points="417.27,-141.03 422.09,-150.46 424.2,-140.08 417.27,-141.03"/>
</a>
</g>
</g>
<!-- Node11 -->
<g id="Node000011" class="node">
<title>Node11</title>
<g id="a_Node000011"><a xlink:href="math_8c.html#ac616709995f2ae60c4308ffa328337d7" target="_top" xlink:title=" ">
<polygon fill="white" stroke="#666666" points="444.5,-280.59 403.5,-280.59 403.5,-261.59 444.5,-261.59 444.5,-280.59"/>
<text text-anchor="middle" x="424" y="-268.59" font-family="Helvetica,sans-Serif" font-size="10.00">UNIT</text>
</a>
</g>
</g>
<!-- Node2&#45;&gt;Node11 -->
<g id="edge39_Node000002_Node000011" class="edge">
<title>Node2&#45;&gt;Node11</title>
<g id="a_edge39_Node000002_Node000011"><a xlink:title=" ">
<path fill="none" stroke="#63b8ff" d="M174.73,-245.61C180.69,-243.04 186.48,-239.62 191,-235.09 222.58,-203.4 190.14,-166.44 227,-141.09 276.8,-106.83 314.16,-105.48 363,-141.09 405.25,-171.89 368.66,-210.51 399,-253.09 399.27,-253.47 399.55,-253.85 399.85,-254.22"/>
<polygon fill="#63b8ff" stroke="#63b8ff" points="397.43,-256.75 407,-261.29 402.35,-251.77 397.43,-256.75"/>
</a>
</g>
</g>
<!-- Node12 -->
<g id="Node000012" class="node">
<title>Node12</title>
<g id="a_Node000012"><a xlink:href="material_8c.html#a3243950933f3559f19edcb5421360526" target="_top" xlink:title=" ">
<polygon fill="white" stroke="#666666" points="363,-508.59 227,-508.59 227,-489.59 363,-489.59 363,-508.59"/>
<text text-anchor="middle" x="295" y="-496.59" font-family="Helvetica,sans-Serif" font-size="10.00">CalcCurvStressStrainxyz</text>
</a>
</g>
</g>
<!-- Node2&#45;&gt;Node12 -->
<g id="edge11_Node000002_Node000012" class="edge">
<title>Node2&#45;&gt;Node12</title>
<g id="a_edge11_Node000002_Node000012"><a xlink:title=" ">
<path fill="none" stroke="#63b8ff" d="M148.7,-262.76C157.12,-282.31 176.53,-328 191,-367.09 208.56,-414.54 191.62,-438.91 227,-475.09 230.89,-479.06 235.48,-482.38 240.41,-485.15"/>
<polygon fill="#63b8ff" stroke="#63b8ff" points="239.03,-488.38 249.56,-489.57 242.07,-482.07 239.03,-488.38"/>
</a>
</g>
</g>
<!-- Node13 -->
<g id="Node000013" class="node">
<title>Node13</title>
<g id="a_Node000013"><a xlink:href="material_8c.html#aa93862cca1fe83c736219df7d4a91374" target="_top" xlink:title=" ">
<polygon fill="white" stroke="#666666" points="354.5,-243.59 235.5,-243.59 235.5,-224.59 354.5,-224.59 354.5,-243.59"/>
<text text-anchor="middle" x="295" y="-231.59" font-family="Helvetica,sans-Serif" font-size="10.00">MembraneNonLinear</text>
</a>
</g>
</g>
<!-- Node2&#45;&gt;Node13 -->
<g id="edge17_Node000002_Node000013" class="edge">
<title>Node2&#45;&gt;Node13</title>
<g id="a_edge17_Node000002_Node000013"><a xlink:title=" ">
<path fill="none" stroke="#63b8ff" d="M174.75,-249.24C189.3,-247.39 207.39,-245.09 225.04,-242.85"/>
<polygon fill="#63b8ff" stroke="#63b8ff" points="225.88,-246.27 235.36,-241.54 224.99,-239.33 225.88,-246.27"/>
</a>
</g>
</g>
<!-- Node14 -->
<g id="Node000014" class="node">
<title>Node14</title>
<g id="a_Node000014"><a xlink:href="math_8c.html#ae18926821a703a2c5b281bd890b7e6a0" target="_top" xlink:title=" ">
<polygon fill="white" stroke="#666666" points="315.5,-169.59 274.5,-169.59 274.5,-150.59 315.5,-150.59 315.5,-169.59"/>
<text text-anchor="middle" x="295" y="-157.59" font-family="Helvetica,sans-Serif" font-size="10.00">PLUS</text>
</a>
</g>
</g>
<!-- Node2&#45;&gt;Node14 -->
<g id="edge25_Node000002_Node000014" class="edge">
<title>Node2&#45;&gt;Node14</title>
<g id="a_edge25_Node000002_Node000014"><a xlink:title=" ">
<path fill="none" stroke="#63b8ff" d="M174.55,-244.66C180.38,-242.18 186.17,-239.03 191,-235.09 213.92,-216.38 203.23,-196.71 227,-179.09 237.85,-171.04 251.99,-166.4 264.48,-163.72"/>
<polygon fill="#63b8ff" stroke="#63b8ff" points="265.27,-167.14 274.48,-161.91 264.02,-160.25 265.27,-167.14"/>
</a>
</g>
</g>
<!-- Node15 -->
<g id="Node000015" class="node">
<title>Node15</title>
<g id="a_Node000015"><a xlink:href="material_8c.html#a431e1e9b5ceabfa4edc2920b70296b35" target="_top" xlink:title=" ">
<polygon fill="white" stroke="#666666" points="333.5,-356.59 256.5,-356.59 256.5,-337.59 333.5,-337.59 333.5,-356.59"/>
<text text-anchor="middle" x="295" y="-344.59" font-family="Helvetica,sans-Serif" font-size="10.00">StressLinear</text>
</a>
</g>
</g>
<!-- Node2&#45;&gt;Node15 -->
<g id="edge27_Node000002_Node000015" class="edge">
<title>Node2&#45;&gt;Node15</title>
<g id="a_edge27_Node000002_Node000015"><a xlink:title=" ">
<path fill="none" stroke="#63b8ff" d="M152.3,-262.85C165.78,-279.06 195.1,-311.52 227,-329.09 233.03,-332.41 239.7,-335.14 246.43,-337.38"/>
<polygon fill="#63b8ff" stroke="#63b8ff" points="245.67,-340.81 256.26,-340.33 247.69,-334.11 245.67,-340.81"/>
</a>
</g>
</g>
<!-- Node16 -->
<g id="Node000016" class="node">
<title>Node16</title>
<g id="a_Node000016"><a xlink:href="material_8c.html#aad0d0c11a159f8021feb99ddee475d31" target="_top" xlink:title=" ">
<polygon fill="white" stroke="#666666" points="352,-319.59 238,-319.59 238,-300.59 352,-300.59 352,-319.59"/>
<text text-anchor="middle" x="295" y="-307.59" font-family="Helvetica,sans-Serif" font-size="10.00">StressManufactured</text>
</a>
</g>
</g>
<!-- Node2&#45;&gt;Node16 -->
<g id="edge33_Node000002_Node000016" class="edge">
<title>Node2&#45;&gt;Node16</title>
<g id="a_edge33_Node000002_Node000016"><a xlink:title=" ">
<path fill="none" stroke="#63b8ff" d="M167.88,-262.7C184.35,-269.41 206.95,-278.49 227,-286.09 236.71,-289.77 247.26,-293.61 257.05,-297.12"/>
<polygon fill="#63b8ff" stroke="#63b8ff" points="255.94,-300.44 266.53,-300.5 258.29,-293.85 255.94,-300.44"/>
</a>
</g>
</g>
<!-- Node4&#45;&gt;Node5 -->
<g id="edge4_Node000004_Node000005" class="edge">
<title>Node4&#45;&gt;Node5</title>
<g id="a_edge4_Node000004_Node000005"><a xlink:title=" ">
<path fill="none" stroke="#63b8ff" d="M330.11,-206.65C340.67,-209.64 352.32,-212.97 363,-216.09 371.48,-218.56 380.62,-221.28 389.14,-223.83"/>
<polygon fill="#63b8ff" stroke="#63b8ff" points="388.21,-227.21 398.79,-226.73 390.23,-220.5 388.21,-227.21"/>
</a>
</g>
</g>
<!-- Node4&#45;&gt;Node6 -->
<g id="edge5_Node000004_Node000006" class="edge">
<title>Node4&#45;&gt;Node6</title>
<g id="a_edge5_Node000004_Node000006"><a xlink:title=" ">
<path fill="none" stroke="#63b8ff" d="M347.33,-206.66C352.99,-209.12 358.37,-212.21 363,-216.09 391.04,-239.57 375.72,-261.88 399,-290.09 399.39,-290.56 399.8,-291.04 400.22,-291.5"/>
<polygon fill="#63b8ff" stroke="#63b8ff" points="398.08,-294.28 407.83,-298.43 402.8,-289.11 398.08,-294.28"/>
</a>
</g>
</g>
<!-- Node4&#45;&gt;Node7 -->
<g id="edge6_Node000004_Node000007" class="edge">
<title>Node4&#45;&gt;Node7</title>
<g id="a_edge6_Node000004_Node000007"><a xlink:title=" ">
<path fill="none" stroke="#63b8ff" d="M348.21,-206.2C353.65,-208.74 358.73,-211.98 363,-216.09 400.35,-252.07 368.85,-284.89 399,-327.09 399.27,-327.47 399.56,-327.85 399.85,-328.22"/>
<polygon fill="#63b8ff" stroke="#63b8ff" points="397.43,-330.75 407.01,-335.29 402.35,-325.77 397.43,-330.75"/>
</a>
</g>
</g>
<!-- Node4&#45;&gt;Node8 -->
<g id="edge7_Node000004_Node000008" class="edge">
<title>Node4&#45;&gt;Node8</title>
<g id="a_edge7_Node000004_Node000008"><a xlink:title=" ">
<path fill="none" stroke="#63b8ff" d="M348.19,-205.74C353.7,-208.35 358.81,-211.73 363,-216.09 409.96,-264.85 361.73,-307.57 399,-364.09 399.26,-364.48 399.53,-364.86 399.81,-365.25"/>
<polygon fill="#63b8ff" stroke="#63b8ff" points="397.33,-367.72 406.83,-372.41 402.33,-362.82 397.33,-367.72"/>
</a>
</g>
</g>
<!-- Node9 -->
<g id="Node000009" class="node">
<title>Node9</title>
<g id="a_Node000009"><a xlink:href="math_8c.html#ae6a53927765c25c58815e47fea096a67" target="_top" xlink:title=" ">
<polygon fill="white" stroke="#666666" points="444.5,-206.59 403.5,-206.59 403.5,-187.59 444.5,-187.59 444.5,-206.59"/>
<text text-anchor="middle" x="424" y="-194.59" font-family="Helvetica,sans-Serif" font-size="10.00">SIGN</text>
</a>
</g>
</g>
<!-- Node4&#45;&gt;Node9 -->
<g id="edge8_Node000004_Node000009" class="edge">
<title>Node4&#45;&gt;Node9</title>
<g id="a_edge8_Node000004_Node000009"><a xlink:title=" ">
<path fill="none" stroke="#63b8ff" d="M348.02,-197.09C363.37,-197.09 379.65,-197.09 393.1,-197.09"/>
<polygon fill="#63b8ff" stroke="#63b8ff" points="393.21,-200.59 403.21,-197.09 393.21,-193.59 393.21,-200.59"/>
</a>
</g>
</g>
<!-- Node4&#45;&gt;Node10 -->
<g id="edge9_Node000004_Node000010" class="edge">
<title>Node4&#45;&gt;Node10</title>
<g id="a_edge9_Node000004_Node000010"><a xlink:title=" ">
<path fill="none" stroke="#63b8ff" d="M332.59,-187.57C342.49,-184.91 353.17,-181.96 363,-179.09 373.62,-175.98 385.22,-172.36 395.37,-169.12"/>
<polygon fill="#63b8ff" stroke="#63b8ff" points="396.5,-172.43 404.95,-166.03 394.36,-165.77 396.5,-172.43"/>
</a>
</g>
</g>
<!-- Node4&#45;&gt;Node11 -->
<g id="edge10_Node000004_Node000011" class="edge">
<title>Node4&#45;&gt;Node11</title>
<g id="a_edge10_Node000004_Node000011"><a xlink:title=" ">
<path fill="none" stroke="#63b8ff" d="M342.02,-206.67C349.31,-209.15 356.56,-212.25 363,-216.09 382.71,-227.84 381.77,-237.94 399,-253.09 399.82,-253.81 400.67,-254.53 401.53,-255.26"/>
<polygon fill="#63b8ff" stroke="#63b8ff" points="399.49,-258.1 409.51,-261.54 403.82,-252.6 399.49,-258.1"/>
</a>
</g>
</g>
<!-- Node12&#45;&gt;Node7 -->
<g id="edge12_Node000012_Node000007" class="edge">
<title>Node12&#45;&gt;Node7</title>
<g id="a_edge12_Node000012_Node000007"><a xlink:title=" ">
<path fill="none" stroke="#63b8ff" d="M308.92,-489.51C323.48,-478.22 347.17,-458.3 363,-437.09 384.64,-408.1 376.26,-392.22 399,-364.09 399.7,-363.22 400.45,-362.37 401.23,-361.53"/>
<polygon fill="#63b8ff" stroke="#63b8ff" points="403.82,-363.91 408.86,-354.59 399.1,-358.73 403.82,-363.91"/>
</a>
</g>
</g>
<!-- Node12&#45;&gt;Node8 -->
<g id="edge13_Node000012_Node000008" class="edge">
<title>Node12&#45;&gt;Node8</title>
<g id="a_edge13_Node000012_Node000008"><a xlink:title=" ">
<path fill="none" stroke="#63b8ff" d="M336.13,-489.5C345.58,-486 355.16,-481.31 363,-475.09 387.98,-455.26 405.79,-422.06 415.22,-401.15"/>
<polygon fill="#63b8ff" stroke="#63b8ff" points="418.54,-402.3 419.28,-391.73 412.11,-399.53 418.54,-402.3"/>
</a>
</g>
</g>
<!-- Node13&#45;&gt;Node5 -->
<g id="edge18_Node000013_Node000005" class="edge">
<title>Node13&#45;&gt;Node5</title>
<g id="a_edge18_Node000013_Node000005"><a xlink:title=" ">
<path fill="none" stroke="#63b8ff" d="M354.67,-234.09C366.37,-234.09 378.28,-234.09 388.82,-234.09"/>
<polygon fill="#63b8ff" stroke="#63b8ff" points="388.84,-237.59 398.84,-234.09 388.84,-230.59 388.84,-237.59"/>
</a>
</g>
</g>
<!-- Node13&#45;&gt;Node6 -->
<g id="edge19_Node000013_Node000006" class="edge">
<title>Node13&#45;&gt;Node6</title>
<g id="a_edge19_Node000013_Node000006"><a xlink:title=" ">
<path fill="none" stroke="#63b8ff" d="M330.53,-243.64C341.32,-247.35 353.01,-252.16 363,-258.09 381.41,-269.01 382.42,-276.54 399,-290.09 399.85,-290.78 400.72,-291.48 401.6,-292.18"/>
<polygon fill="#63b8ff" stroke="#63b8ff" points="399.59,-295.05 409.64,-298.38 403.86,-289.5 399.59,-295.05"/>
</a>
</g>
</g>
<!-- Node13&#45;&gt;Node7 -->
<g id="edge20_Node000013_Node000007" class="edge">
<title>Node13&#45;&gt;Node7</title>
<g id="a_edge20_Node000013_Node000007"><a xlink:title=" ">
<path fill="none" stroke="#63b8ff" d="M307.56,-243.74C321.05,-255.1 343.96,-274.61 363,-292.09 379.44,-307.17 382.04,-312.59 399,-327.09 399.83,-327.8 400.69,-328.51 401.56,-329.23"/>
<polygon fill="#63b8ff" stroke="#63b8ff" points="399.52,-332.08 409.56,-335.48 403.84,-326.56 399.52,-332.08"/>
</a>
</g>
</g>
<!-- Node13&#45;&gt;Node8 -->
<g id="edge21_Node000013_Node000008" class="edge">
<title>Node13&#45;&gt;Node8</title>
<g id="a_edge21_Node000013_Node000008"><a xlink:title=" ">
<path fill="none" stroke="#63b8ff" d="M310.01,-243.65C324.66,-254.18 347.62,-272.28 363,-292.09 384.95,-320.34 376.08,-336.62 399,-364.09 399.4,-364.56 399.81,-365.03 400.23,-365.5"/>
<polygon fill="#63b8ff" stroke="#63b8ff" points="398.09,-368.28 407.85,-372.41 402.8,-363.1 398.09,-368.28"/>
</a>
</g>
</g>
<!-- Node13&#45;&gt;Node10 -->
<g id="edge22_Node000013_Node000010" class="edge">
<title>Node13&#45;&gt;Node10</title>
<g id="a_edge22_Node000013_Node000010"><a xlink:title=" ">
<path fill="none" stroke="#63b8ff" d="M344.13,-224.55C350.71,-222.28 357.18,-219.5 363,-216.09 382.79,-204.47 381.97,-194.46 399,-179.09 399.98,-178.21 400.99,-177.32 402.02,-176.43"/>
<polygon fill="#63b8ff" stroke="#63b8ff" points="404.53,-178.9 410.04,-169.85 400.09,-173.48 404.53,-178.9"/>
</a>
</g>
</g>
<!-- Node13&#45;&gt;Node11 -->
<g id="edge23_Node000013_Node000011" class="edge">
<title>Node13&#45;&gt;Node11</title>
<g id="a_edge23_Node000013_Node000011"><a xlink:title=" ">
<path fill="none" stroke="#63b8ff" d="M328.71,-243.62C348.77,-249.46 374.24,-256.88 393.65,-262.54"/>
<polygon fill="#63b8ff" stroke="#63b8ff" points="392.88,-265.96 403.46,-265.39 394.84,-259.24 392.88,-265.96"/>
</a>
</g>
</g>
<!-- Node15&#45;&gt;Node5 -->
<g id="edge28_Node000015_Node000005" class="edge">
<title>Node15&#45;&gt;Node5</title>
<g id="a_edge28_Node000015_Node000005"><a xlink:title=" ">
<path fill="none" stroke="#63b8ff" d="M333.83,-342.87C344.16,-340.22 354.77,-335.96 363,-329.09 391.7,-305.14 375.74,-282.34 399,-253.09 399.58,-252.36 400.19,-251.64 400.83,-250.94"/>
<polygon fill="#63b8ff" stroke="#63b8ff" points="403.39,-253.34 408.32,-243.96 398.62,-248.22 403.39,-253.34"/>
</a>
</g>
</g>
<!-- Node15&#45;&gt;Node6 -->
<g id="edge29_Node000015_Node000006" class="edge">
<title>Node15&#45;&gt;Node6</title>
<g id="a_edge29_Node000015_Node000006"><a xlink:title=" ">
<path fill="none" stroke="#63b8ff" d="M333.35,-337.58C343.05,-334.97 353.45,-332.04 363,-329.09 373.68,-325.79 385.29,-321.82 395.44,-318.22"/>
<polygon fill="#63b8ff" stroke="#63b8ff" points="396.77,-321.46 405,-314.78 394.4,-314.87 396.77,-321.46"/>
</a>
</g>
</g>
<!-- Node15&#45;&gt;Node7 -->
<g id="edge30_Node000015_Node000007" class="edge">
<title>Node15&#45;&gt;Node7</title>
<g id="a_edge30_Node000015_Node000007"><a xlink:title=" ">
<path fill="none" stroke="#63b8ff" d="M333.76,-346.49C354.08,-346.17 378.63,-345.79 396.84,-345.5"/>
<polygon fill="#63b8ff" stroke="#63b8ff" points="397.05,-349 407,-345.34 396.94,-342 397.05,-349"/>
</a>
</g>
</g>
<!-- Node15&#45;&gt;Node8 -->
<g id="edge31_Node000015_Node000008" class="edge">
<title>Node15&#45;&gt;Node8</title>
<g id="a_edge31_Node000015_Node000008"><a xlink:title=" ">
<path fill="none" stroke="#63b8ff" d="M330.7,-356.65C348.84,-361.65 370.95,-367.74 388.98,-372.71"/>
<polygon fill="#63b8ff" stroke="#63b8ff" points="388.22,-376.13 398.79,-375.42 390.08,-369.39 388.22,-376.13"/>
</a>
</g>
</g>
<!-- Node15&#45;&gt;Node11 -->
<g id="edge32_Node000015_Node000011" class="edge">
<title>Node15&#45;&gt;Node11</title>
<g id="a_edge32_Node000015_Node000011"><a xlink:title=" ">
<path fill="none" stroke="#63b8ff" d="M333.67,-340.91C343.67,-338.24 354.14,-334.45 363,-329.09 383.18,-316.88 381.7,-306.12 399,-290.09 399.96,-289.19 400.97,-288.29 401.99,-287.4"/>
<polygon fill="#63b8ff" stroke="#63b8ff" points="404.51,-289.86 409.99,-280.79 400.05,-284.46 404.51,-289.86"/>
</a>
</g>
</g>
<!-- Node16&#45;&gt;Node5 -->
<g id="edge34_Node000016_Node000005" class="edge">
<title>Node16&#45;&gt;Node5</title>
<g id="a_edge34_Node000016_Node000005"><a xlink:title=" ">
<path fill="none" stroke="#63b8ff" d="M312.08,-300.46C333.84,-287.44 372.85,-264.1 398.33,-248.85"/>
<polygon fill="#63b8ff" stroke="#63b8ff" points="400.26,-251.77 407.05,-243.63 396.67,-245.77 400.26,-251.77"/>
</a>
</g>
</g>
<!-- Node16&#45;&gt;Node6 -->
<g id="edge35_Node000016_Node000006" class="edge">
<title>Node16&#45;&gt;Node6</title>
<g id="a_edge35_Node000016_Node000006"><a xlink:title=" ">
<path fill="none" stroke="#63b8ff" d="M352.07,-309.2C366.77,-308.97 382.01,-308.73 394.58,-308.53"/>
<polygon fill="#63b8ff" stroke="#63b8ff" points="394.91,-312.03 404.85,-308.37 394.8,-305.03 394.91,-312.03"/>
</a>
</g>
</g>
<!-- Node16&#45;&gt;Node7 -->
<g id="edge36_Node000016_Node000007" class="edge">
<title>Node16&#45;&gt;Node7</title>
<g id="a_edge36_Node000016_Node000007"><a xlink:title=" ">
<path fill="none" stroke="#63b8ff" d="M330.7,-319.65C351.65,-325.42 377.9,-332.66 397.04,-337.93"/>
<polygon fill="#63b8ff" stroke="#63b8ff" points="396.3,-341.36 406.87,-340.64 398.16,-334.61 396.3,-341.36"/>
</a>
</g>
</g>
<!-- Node16&#45;&gt;Node8 -->
<g id="edge37_Node000016_Node000008" class="edge">
<title>Node16&#45;&gt;Node8</title>
<g id="a_edge37_Node000016_Node000008"><a xlink:title=" ">
<path fill="none" stroke="#63b8ff" d="M341.58,-319.7C349,-322.19 356.4,-325.28 363,-329.09 382.32,-340.25 382.04,-349.59 399,-364.09 399.83,-364.8 400.69,-365.51 401.56,-366.23"/>
<polygon fill="#63b8ff" stroke="#63b8ff" points="399.52,-369.08 409.56,-372.48 403.84,-363.56 399.52,-369.08"/>
</a>
</g>
</g>
<!-- Node16&#45;&gt;Node11 -->
<g id="edge38_Node000016_Node000011" class="edge">
<title>Node16&#45;&gt;Node11</title>
<g id="a_edge38_Node000016_Node000011"><a xlink:title=" ">
<path fill="none" stroke="#63b8ff" d="M327.07,-300.55C347.33,-294.32 373.61,-286.25 393.54,-280.13"/>
<polygon fill="#63b8ff" stroke="#63b8ff" points="394.79,-283.41 403.32,-277.13 392.73,-276.72 394.79,-283.41"/>
</a>
</g>
</g>
<!-- Node17&#45;&gt;Node6 -->
<g id="edge42_Node000017_Node000006" class="edge">
<title>Node17&#45;&gt;Node6</title>
<g id="a_edge42_Node000017_Node000006"><a xlink:title=" ">
<path fill="none" stroke="#63b8ff" d="M181.83,-389.71C227.15,-393.61 304.71,-394.68 363,-366.09 384.18,-355.7 381.7,-343.12 399,-327.09 399.96,-326.19 400.97,-325.29 401.99,-324.4"/>
<polygon fill="#63b8ff" stroke="#63b8ff" points="404.51,-326.86 409.99,-317.79 400.05,-321.46 404.51,-326.86"/>
</a>
</g>
</g>
<!-- Node17&#45;&gt;Node8 -->
<g id="edge44_Node000017_Node000008" class="edge">
<title>Node17&#45;&gt;Node8</title>
<g id="a_edge44_Node000017_Node000008"><a xlink:title=" ">
<path fill="none" stroke="#63b8ff" d="M147.01,-394.83C154.24,-420.66 177.85,-490.74 227,-518.09 279.82,-547.48 312.36,-551.09 363,-518.09 402.86,-492.11 416.43,-433.01 420.9,-401.97"/>
<polygon fill="#63b8ff" stroke="#63b8ff" points="424.39,-402.28 422.17,-391.92 417.44,-401.4 424.39,-402.28"/>
</a>
</g>
</g>
<!-- Node17&#45;&gt;Node12 -->
<g id="edge41_Node000017_Node000012" class="edge">
<title>Node17&#45;&gt;Node12</title>
<g id="a_edge41_Node000017_Node000012"><a xlink:title=" ">
<path fill="none" stroke="#63b8ff" d="M150.84,-394.64C163.34,-412.79 192.93,-452.45 227,-475.09 233.3,-479.27 240.41,-482.83 247.59,-485.81"/>
<polygon fill="#63b8ff" stroke="#63b8ff" points="246.77,-489.24 257.36,-489.54 249.26,-482.7 246.77,-489.24"/>
</a>
</g>
</g>
<!-- Node17&#45;&gt;Node13 -->
<g id="edge43_Node000017_Node000013" class="edge">
<title>Node17&#45;&gt;Node13</title>
<g id="a_edge43_Node000017_Node000013"><a xlink:title=" ">
<path fill="none" stroke="#63b8ff" d="M152.31,-375.48C166.51,-358.18 197.83,-320.91 227,-292.09 242.14,-277.13 260.47,-261.41 274.13,-250.11"/>
<polygon fill="#63b8ff" stroke="#63b8ff" points="276.45,-252.74 281.96,-243.7 272.01,-247.33 276.45,-252.74"/>
</a>
</g>
</g>
<!-- Node17&#45;&gt;Node15 -->
<g id="edge45_Node000017_Node000015" class="edge">
<title>Node17&#45;&gt;Node15</title>
<g id="a_edge45_Node000017_Node000015"><a xlink:title=" ">
<path fill="none" stroke="#63b8ff" d="M181.84,-375.6C201.46,-370.61 225.72,-364.44 246.65,-359.12"/>
<polygon fill="#63b8ff" stroke="#63b8ff" points="247.79,-362.44 256.62,-356.59 246.06,-355.66 247.79,-362.44"/>
</a>
</g>
</g>
</g>
</svg>

<g id="navigator" transform="translate(0 0)" fill="#404254">
  <rect fill="#f2f5e9" fill-opacity="0.5" stroke="#606060" stroke-width=".5" x="0" y="0" width="60" height="60"/>
  <use id="zoomplus" xlink:href="#zoomPlus" x="17" y="9" onmousedown="handleZoom(evt,'in')"/>
  <use id="zoomminus" xlink:href="#zoomMin" x="42" y="9" onmousedown="handleZoom(evt,'out')"/>
  <use id="reset" xlink:href="#resetDef" x="30" y="36" onmousedown="handleReset()"/>
   <use id="arrowup" xlink:href="#arrowUp" x="0" y="0" onmousedown="handlePan(0,-1)"/>
  <use id="arrowright" xlink:href="#arrowRight" x="0" y="0" onmousedown="handlePan(1,0)"/>
  <use id="arrowdown" xlink:href="#arrowDown" x="0" y="0" onmousedown="handlePan(0,1)"/>
  <use id="arrowleft" xlink:href="#arrowLeft" x="0" y="0" onmousedown="handlePan(-1,0)"/>
</g>
<svg viewBox="0 0 15 15" width="100%" height="30px" preserveAspectRatio="xMaxYMin meet">
 <g id="arrow_out" transform="scale(0.3 0.3)">
  <a xlink:href="main_8c_a59ccabe25c63661e6e66b44209b0f162_cgraph_org.svg" target="_base">
   <rect id="button" ry="5" rx="5" y="6" x="6" height="38" width="38"
        fill="#f2f5e9" fill-opacity="0.5" stroke="#606060" stroke-width="1.0"/>
   <path id="arrow"
     d="M 11.500037,31.436501 C 11.940474,20.09759 22.043105,11.32322 32.158766,21.979434 L 37.068811,17.246167 C 37.068811,17.246167 37.088388,32 37.088388,32 L 22.160133,31.978069 C 22.160133,31.978069 26.997745,27.140456 26.997745,27.140456 C 18.528582,18.264221 13.291696,25.230495 11.500037,31.436501 z"
     style="fill:#404040;"/>
  </a>
 </g>
</svg>

<style type='text/css'>
<![CDATA[
[data-mouse-over-selected='false'] { opacity: 0.7; }
[data-mouse-over-selected='true']  { opacity: 1.0; }
]]>
</style>
<script type="application/ecmascript"><![CDATA[
document.addEventListener('DOMContentLoaded', (event) => {
  highlightEdges();
  highlightAdjacentNodes();
});
]]></script>
</svg>
