<?xml version="1.0" encoding="UTF-8" standalone="no"?>
<!DOCTYPE svg PUBLIC "-//W3C//DTD SVG 1.1//EN"
 "http://www.w3.org/Graphics/SVG/1.1/DTD/svg11.dtd">
<!-- Generated by graphviz version 2.43.0 (0)
 -->
<!-- Title: Output Pages: 1 -->
<svg width="347pt" height="152pt"
 viewBox="0.00 0.00 347.00 151.50" xmlns="http://www.w3.org/2000/svg" xmlns:xlink="http://www.w3.org/1999/xlink">
<g id="graph0" class="graph" transform="scale(1 1) rotate(0) translate(4 147.5)">
<title>Output</title>
<!-- Node1 -->
<g id="Node000001" class="node">
<title>Node1</title>
<g id="a_Node000001"><a xlink:title=" ">
<polygon fill="#999999" stroke="#666666" points="339,-76 289,-76 289,-57 339,-57 339,-76"/>
<text text-anchor="middle" x="314" y="-64" font-family="Helvetica,sans-Serif" font-size="10.00">Output</text>
</a>
</g>
</g>
<!-- Node2 -->
<g id="Node000002" class="node">
<title>Node2</title>
<g id="a_Node000002"><a xlink:href="manufactured__active__strain__b_8c.html#aff7208cb5f1fe02ed0d7e23999495dbb" target="_top" xlink:title=" ">
<polygon fill="white" stroke="#666666" points="253,-143.5 77,-143.5 77,-113.5 253,-113.5 253,-143.5"/>
<text text-anchor="start" x="85" y="-131.5" font-family="Helvetica,sans-Serif" font-size="10.00">GenerateManufacturedFExternal</text>
<text text-anchor="middle" x="165" y="-120.5" font-family="Helvetica,sans-Serif" font-size="10.00">AndInitialKinematics</text>
</a>
</g>
</g>
<!-- Node1&#45;&gt;Node2 -->
<g id="edge1_Node000001_Node000002" class="edge">
<title>Node1&#45;&gt;Node2</title>
<g id="a_edge1_Node000001_Node000002"><a xlink:title=" ">
<path fill="none" stroke="#63b8ff" d="M292.06,-81.92C280.91,-89.56 266.7,-98.43 253,-104.5 245.55,-107.8 237.54,-110.75 229.5,-113.35"/>
<polygon fill="#63b8ff" stroke="#63b8ff" points="294.12,-84.75 300.28,-76.13 290.09,-79.03 294.12,-84.75"/>
</a>
</g>
</g>
<!-- Node3 -->
<g id="Node000003" class="node">
<title>Node3</title>
<g id="a_Node000003"><a xlink:href="main_8c.html#a636a8f7f82b7bc4dabb749e9c7fe75a9" target="_top" xlink:title=" ">
<polygon fill="white" stroke="#666666" points="181,-95 149,-95 149,-76 181,-76 181,-95"/>
<text text-anchor="middle" x="165" y="-83" font-family="Helvetica,sans-Serif" font-size="10.00">Init</text>
</a>
</g>
</g>
<!-- Node1&#45;&gt;Node3 -->
<g id="edge2_Node000001_Node000003" class="edge">
<title>Node1&#45;&gt;Node3</title>
<g id="a_edge2_Node000001_Node000003"><a xlink:title=" ">
<path fill="none" stroke="#63b8ff" d="M278.43,-70.97C247.67,-74.94 204.11,-80.57 181.29,-83.52"/>
<polygon fill="#63b8ff" stroke="#63b8ff" points="279.26,-74.39 288.73,-69.64 278.36,-67.45 279.26,-74.39"/>
</a>
</g>
</g>
<!-- Node4 -->
<g id="Node000004" class="node">
<title>Node4</title>
<g id="a_Node000004"><a xlink:href="main_8c.html#a3c04138a5bfe5d72780bb7e82a18e627" target="_top" xlink:title=" ">
<polygon fill="white" stroke="#666666" points="41,-57 0,-57 0,-38 41,-38 41,-57"/>
<text text-anchor="middle" x="20.5" y="-45" font-family="Helvetica,sans-Serif" font-size="10.00">main</text>
</a>
</g>
</g>
<!-- Node1&#45;&gt;Node4 -->
<g id="edge6_Node000001_Node000004" class="edge">
<title>Node1&#45;&gt;Node4</title>
<g id="a_edge6_Node000001_Node000004"><a xlink:title=" ">
<path fill="none" stroke="#63b8ff" d="M278.66,-64.26C217.18,-60.25 90.14,-51.97 41.26,-48.79"/>
<polygon fill="#63b8ff" stroke="#63b8ff" points="278.44,-67.75 288.65,-64.91 278.9,-60.77 278.44,-67.75"/>
</a>
</g>
</g>
<!-- Node5 -->
<g id="Node000005" class="node">
<title>Node5</title>
<g id="a_Node000005"><a xlink:href="inverse_8c.html#a63c0a7ac76584f0dab82764698b5d878" target="_top" xlink:title=" ">
<polygon fill="white" stroke="#666666" points="196,-19 134,-19 134,0 196,0 196,-19"/>
<text text-anchor="middle" x="165" y="-7" font-family="Helvetica,sans-Serif" font-size="10.00">InvSolver</text>
</a>
</g>
</g>
<!-- Node1&#45;&gt;Node5 -->
<g id="edge4_Node000001_Node000005" class="edge">
<title>Node1&#45;&gt;Node5</title>
<g id="a_edge4_Node000001_Node000005"><a xlink:title=" ">
<path fill="none" stroke="#63b8ff" d="M288.93,-51.58C278.22,-45.38 265.27,-38.48 253,-33.5 234.71,-26.07 213.35,-20.14 196.37,-16.03"/>
<polygon fill="#63b8ff" stroke="#63b8ff" points="287.32,-54.69 297.7,-56.78 290.89,-48.67 287.32,-54.69"/>
</a>
</g>
</g>
<!-- Node3&#45;&gt;Node4 -->
<g id="edge3_Node000003_Node000004" class="edge">
<title>Node3&#45;&gt;Node4</title>
<g id="a_edge3_Node000003_Node000004"><a xlink:title=" ">
<path fill="none" stroke="#63b8ff" d="M138.96,-78.82C111.09,-71.39 66.65,-59.54 41.17,-52.75"/>
<polygon fill="#63b8ff" stroke="#63b8ff" points="138.19,-82.24 148.75,-81.43 139.99,-75.47 138.19,-82.24"/>
</a>
</g>
</g>
<!-- Node5&#45;&gt;Node4 -->
<g id="edge5_Node000005_Node000004" class="edge">
<title>Node5&#45;&gt;Node4</title>
<g id="a_edge5_Node000005_Node000004"><a xlink:title=" ">
<path fill="none" stroke="#63b8ff" d="M123.84,-20.21C96.83,-27.41 62.41,-36.59 41.17,-42.25"/>
<polygon fill="#63b8ff" stroke="#63b8ff" points="125.02,-23.52 133.78,-17.56 123.22,-16.75 125.02,-23.52"/>
</a>
</g>
</g>
</g>
</svg>
