<?xml version="1.0" encoding="UTF-8" standalone="no"?>
<!DOCTYPE svg PUBLIC "-//W3C//DTD SVG 1.1//EN"
 "http://www.w3.org/Graphics/SVG/1.1/DTD/svg11.dtd">
<!-- Generated by graphviz version 2.43.0 (0)
 -->
<!-- Title: GenerateManufacturedFExternalAndKinematicsAllTimeSteps Pages: 1 -->
<svg width="611pt" height="187pt"
 viewBox="0.00 0.00 611.00 187.00" xmlns="http://www.w3.org/2000/svg" xmlns:xlink="http://www.w3.org/1999/xlink">
<g id="graph0" class="graph" transform="scale(1 1) rotate(0) translate(4 183)">
<title>GenerateManufacturedFExternalAndKinematicsAllTimeSteps</title>
<!-- Node1 -->
<g id="Node000001" class="node">
<title>Node1</title>
<g id="a_Node000001"><a xlink:title=" ">
<polygon fill="#999999" stroke="#666666" points="176,-104.5 0,-104.5 0,-74.5 176,-74.5 176,-104.5"/>
<text text-anchor="start" x="8" y="-92.5" font-family="Helvetica,sans-Serif" font-size="10.00">GenerateManufacturedFExternal</text>
<text text-anchor="middle" x="88" y="-81.5" font-family="Helvetica,sans-Serif" font-size="10.00">AndKinematicsAllTimeSteps</text>
</a>
</g>
</g>
<!-- Node2 -->
<g id="Node000002" class="node">
<title>Node2</title>
<g id="a_Node000002"><a xlink:href="manufactured__active__strain_8c.html#a76dced439e9210fc76cb2f1c40e37440" target="_top" xlink:title=" ">
<polygon fill="white" stroke="#666666" points="388,-104.5 212,-104.5 212,-74.5 388,-74.5 388,-104.5"/>
<text text-anchor="start" x="220" y="-92.5" font-family="Helvetica,sans-Serif" font-size="10.00">GenerateManufacturedFExternal</text>
<text text-anchor="middle" x="300" y="-81.5" font-family="Helvetica,sans-Serif" font-size="10.00">AndKinematics</text>
</a>
</g>
</g>
<!-- Node1&#45;&gt;Node2 -->
<g id="edge1_Node000001_Node000002" class="edge">
<title>Node1&#45;&gt;Node2</title>
<g id="a_edge1_Node000001_Node000002"><a xlink:title=" ">
<path fill="none" stroke="#63b8ff" d="M176.23,-89.5C184.57,-89.5 193.05,-89.5 201.47,-89.5"/>
<polygon fill="#63b8ff" stroke="#63b8ff" points="201.7,-93 211.7,-89.5 201.7,-86 201.7,-93"/>
</a>
</g>
</g>
<!-- Node3 -->
<g id="Node000003" class="node">
<title>Node3</title>
<g id="a_Node000003"><a xlink:href="main_8c.html#a406cf6152471e0614dca5a045fdfd99f" target="_top" xlink:title=" ">
<polygon fill="white" stroke="#666666" points="546.5,-179 480.5,-179 480.5,-160 546.5,-160 546.5,-179"/>
<text text-anchor="middle" x="513.5" y="-167" font-family="Helvetica,sans-Serif" font-size="10.00">FDynamic</text>
</a>
</g>
</g>
<!-- Node2&#45;&gt;Node3 -->
<g id="edge2_Node000002_Node000003" class="edge">
<title>Node2&#45;&gt;Node3</title>
<g id="a_edge2_Node000002_Node000003"><a xlink:title=" ">
<path fill="none" stroke="#63b8ff" d="M326.04,-104.63C350.3,-118.67 388.53,-139.2 424,-151.5 438.8,-156.63 455.54,-160.5 470.44,-163.31"/>
<polygon fill="#63b8ff" stroke="#63b8ff" points="469.95,-166.78 480.41,-165.09 471.18,-159.89 469.95,-166.78"/>
</a>
</g>
</g>
<!-- Node4 -->
<g id="Node000004" class="node">
<title>Node4</title>
<g id="a_Node000004"><a xlink:href="manufactured__active__strain_8c.html#a69b43cbc313808cb126e5163114b9813" target="_top" xlink:title=" ">
<polygon fill="white" stroke="#666666" points="603,-142 424,-142 424,-123 603,-123 603,-142"/>
<text text-anchor="middle" x="513.5" y="-130" font-family="Helvetica,sans-Serif" font-size="10.00">ManufacturedExactLocationsSet_</text>
</a>
</g>
</g>
<!-- Node2&#45;&gt;Node4 -->
<g id="edge3_Node000002_Node000004" class="edge">
<title>Node2&#45;&gt;Node4</title>
<g id="a_edge3_Node000002_Node000004"><a xlink:title=" ">
<path fill="none" stroke="#63b8ff" d="M374.97,-104.54C401.46,-109.92 430.88,-115.91 455.69,-120.95"/>
<polygon fill="#63b8ff" stroke="#63b8ff" points="455.17,-124.42 465.66,-122.98 456.56,-117.56 455.17,-124.42"/>
</a>
</g>
</g>
<!-- Node5 -->
<g id="Node000005" class="node">
<title>Node5</title>
<g id="a_Node000005"><a xlink:href="manufactured__active__strain_8c.html#a2787f3690156c71eea4db92cd0c3cd52" target="_top" xlink:title=" ">
<polygon fill="white" stroke="#666666" points="588.5,-104.5 438.5,-104.5 438.5,-74.5 588.5,-74.5 588.5,-104.5"/>
<text text-anchor="start" x="446.5" y="-92.5" font-family="Helvetica,sans-Serif" font-size="10.00">ManufacturedExactVelocity</text>
<text text-anchor="middle" x="513.5" y="-81.5" font-family="Helvetica,sans-Serif" font-size="10.00">AccelerationSet_</text>
</a>
</g>
</g>
<!-- Node2&#45;&gt;Node5 -->
<g id="edge4_Node000002_Node000005" class="edge">
<title>Node2&#45;&gt;Node5</title>
<g id="a_edge4_Node000002_Node000005"><a xlink:title=" ">
<path fill="none" stroke="#63b8ff" d="M388.25,-89.5C401.36,-89.5 414.86,-89.5 427.91,-89.5"/>
<polygon fill="#63b8ff" stroke="#63b8ff" points="428.26,-93 438.26,-89.5 428.26,-86 428.26,-93"/>
</a>
</g>
</g>
<!-- Node6 -->
<g id="Node000006" class="node">
<title>Node6</title>
<g id="a_Node000006"><a xlink:href="manufactured__active__strain_8c.html#a2333d5074081e67344aeccdac7802989" target="_top" xlink:title=" ">
<polygon fill="white" stroke="#666666" points="598,-56 429,-56 429,-37 598,-37 598,-56"/>
<text text-anchor="middle" x="513.5" y="-44" font-family="Helvetica,sans-Serif" font-size="10.00">ManufacturedForceVectorsOut_</text>
</a>
</g>
</g>
<!-- Node2&#45;&gt;Node6 -->
<g id="edge5_Node000002_Node000006" class="edge">
<title>Node2&#45;&gt;Node6</title>
<g id="a_edge5_Node000002_Node000006"><a xlink:title=" ">
<path fill="none" stroke="#63b8ff" d="M374.97,-74.46C401.46,-69.08 430.88,-63.09 455.69,-58.05"/>
<polygon fill="#63b8ff" stroke="#63b8ff" points="456.56,-61.44 465.66,-56.02 455.17,-54.58 456.56,-61.44"/>
</a>
</g>
</g>
<!-- Node7 -->
<g id="Node000007" class="node">
<title>Node7</title>
<g id="a_Node000007"><a xlink:href="io_8c.html#a6ef830a0883e3f31ad5b52a2b20bdbb2" target="_top" xlink:title=" ">
<polygon fill="white" stroke="#666666" points="538.5,-19 488.5,-19 488.5,0 538.5,0 538.5,-19"/>
<text text-anchor="middle" x="513.5" y="-7" font-family="Helvetica,sans-Serif" font-size="10.00">Output</text>
</a>
</g>
</g>
<!-- Node2&#45;&gt;Node7 -->
<g id="edge6_Node000002_Node000007" class="edge">
<title>Node2&#45;&gt;Node7</title>
<g id="a_edge6_Node000002_Node000007"><a xlink:title=" ">
<path fill="none" stroke="#63b8ff" d="M326.57,-74.46C350.9,-60.73 388.89,-40.76 424,-28.5 441.57,-22.37 461.82,-17.84 478.52,-14.75"/>
<polygon fill="#63b8ff" stroke="#63b8ff" points="479.15,-18.19 488.39,-13.01 477.94,-11.3 479.15,-18.19"/>
</a>
</g>
</g>
</g>
</svg>
