<?xml version="1.0" encoding="UTF-8" standalone="no"?>
<!DOCTYPE svg PUBLIC "-//W3C//DTD SVG 1.1//EN"
 "http://www.w3.org/Graphics/SVG/1.1/DTD/svg11.dtd">
<!-- Generated by graphviz version 2.43.0 (0)
 -->
<!-- Title: ManufacturedKinematicsAndFExternalSetInitial Pages: 1 -->
<svg width="593pt" height="187pt"
 viewBox="0.00 0.00 593.00 187.00" xmlns="http://www.w3.org/2000/svg" xmlns:xlink="http://www.w3.org/1999/xlink">
<g id="graph0" class="graph" transform="scale(1 1) rotate(0) translate(4 183)">
<title>ManufacturedKinematicsAndFExternalSetInitial</title>
<!-- Node1 -->
<g id="Node000001" class="node">
<title>Node1</title>
<g id="a_Node000001"><a xlink:title=" ">
<polygon fill="#999999" stroke="#666666" points="158,-104.5 0,-104.5 0,-74.5 158,-74.5 158,-104.5"/>
<text text-anchor="start" x="8" y="-92.5" font-family="Helvetica,sans-Serif" font-size="10.00">ManufacturedKinematicsAnd</text>
<text text-anchor="middle" x="79" y="-81.5" font-family="Helvetica,sans-Serif" font-size="10.00">FExternalSetInitial</text>
</a>
</g>
</g>
<!-- Node2 -->
<g id="Node000002" class="node">
<title>Node2</title>
<g id="a_Node000002"><a xlink:href="manufactured__active__strain_8c.html#a76dced439e9210fc76cb2f1c40e37440" target="_top" xlink:title=" ">
<polygon fill="white" stroke="#666666" points="370,-104.5 194,-104.5 194,-74.5 370,-74.5 370,-104.5"/>
<text text-anchor="start" x="202" y="-92.5" font-family="Helvetica,sans-Serif" font-size="10.00">GenerateManufacturedFExternal</text>
<text text-anchor="middle" x="282" y="-81.5" font-family="Helvetica,sans-Serif" font-size="10.00">AndKinematics</text>
</a>
</g>
</g>
<!-- Node1&#45;&gt;Node2 -->
<g id="edge1_Node000001_Node000002" class="edge">
<title>Node1&#45;&gt;Node2</title>
<g id="a_edge1_Node000001_Node000002"><a xlink:title=" ">
<path fill="none" stroke="#63b8ff" d="M158.29,-89.5C166.69,-89.5 175.3,-89.5 183.88,-89.5"/>
<polygon fill="#63b8ff" stroke="#63b8ff" points="183.93,-93 193.93,-89.5 183.93,-86 183.93,-93"/>
</a>
</g>
</g>
<!-- Node3 -->
<g id="Node000003" class="node">
<title>Node3</title>
<g id="a_Node000003"><a xlink:href="main_8c.html#a406cf6152471e0614dca5a045fdfd99f" target="_top" xlink:title=" ">
<polygon fill="white" stroke="#666666" points="528.5,-179 462.5,-179 462.5,-160 528.5,-160 528.5,-179"/>
<text text-anchor="middle" x="495.5" y="-167" font-family="Helvetica,sans-Serif" font-size="10.00">FDynamic</text>
</a>
</g>
</g>
<!-- Node2&#45;&gt;Node3 -->
<g id="edge2_Node000002_Node000003" class="edge">
<title>Node2&#45;&gt;Node3</title>
<g id="a_edge2_Node000002_Node000003"><a xlink:title=" ">
<path fill="none" stroke="#63b8ff" d="M308.04,-104.63C332.3,-118.67 370.53,-139.2 406,-151.5 420.8,-156.63 437.54,-160.5 452.44,-163.31"/>
<polygon fill="#63b8ff" stroke="#63b8ff" points="451.95,-166.78 462.41,-165.09 453.18,-159.89 451.95,-166.78"/>
</a>
</g>
</g>
<!-- Node4 -->
<g id="Node000004" class="node">
<title>Node4</title>
<g id="a_Node000004"><a xlink:href="manufactured__active__strain_8c.html#a69b43cbc313808cb126e5163114b9813" target="_top" xlink:title=" ">
<polygon fill="white" stroke="#666666" points="585,-142 406,-142 406,-123 585,-123 585,-142"/>
<text text-anchor="middle" x="495.5" y="-130" font-family="Helvetica,sans-Serif" font-size="10.00">ManufacturedExactLocationsSet_</text>
</a>
</g>
</g>
<!-- Node2&#45;&gt;Node4 -->
<g id="edge3_Node000002_Node000004" class="edge">
<title>Node2&#45;&gt;Node4</title>
<g id="a_edge3_Node000002_Node000004"><a xlink:title=" ">
<path fill="none" stroke="#63b8ff" d="M356.97,-104.54C383.46,-109.92 412.88,-115.91 437.69,-120.95"/>
<polygon fill="#63b8ff" stroke="#63b8ff" points="437.17,-124.42 447.66,-122.98 438.56,-117.56 437.17,-124.42"/>
</a>
</g>
</g>
<!-- Node5 -->
<g id="Node000005" class="node">
<title>Node5</title>
<g id="a_Node000005"><a xlink:href="manufactured__active__strain_8c.html#a2787f3690156c71eea4db92cd0c3cd52" target="_top" xlink:title=" ">
<polygon fill="white" stroke="#666666" points="570.5,-104.5 420.5,-104.5 420.5,-74.5 570.5,-74.5 570.5,-104.5"/>
<text text-anchor="start" x="428.5" y="-92.5" font-family="Helvetica,sans-Serif" font-size="10.00">ManufacturedExactVelocity</text>
<text text-anchor="middle" x="495.5" y="-81.5" font-family="Helvetica,sans-Serif" font-size="10.00">AccelerationSet_</text>
</a>
</g>
</g>
<!-- Node2&#45;&gt;Node5 -->
<g id="edge4_Node000002_Node000005" class="edge">
<title>Node2&#45;&gt;Node5</title>
<g id="a_edge4_Node000002_Node000005"><a xlink:title=" ">
<path fill="none" stroke="#63b8ff" d="M370.25,-89.5C383.36,-89.5 396.86,-89.5 409.91,-89.5"/>
<polygon fill="#63b8ff" stroke="#63b8ff" points="410.26,-93 420.26,-89.5 410.26,-86 410.26,-93"/>
</a>
</g>
</g>
<!-- Node6 -->
<g id="Node000006" class="node">
<title>Node6</title>
<g id="a_Node000006"><a xlink:href="manufactured__active__strain_8c.html#a2333d5074081e67344aeccdac7802989" target="_top" xlink:title=" ">
<polygon fill="white" stroke="#666666" points="580,-56 411,-56 411,-37 580,-37 580,-56"/>
<text text-anchor="middle" x="495.5" y="-44" font-family="Helvetica,sans-Serif" font-size="10.00">ManufacturedForceVectorsOut_</text>
</a>
</g>
</g>
<!-- Node2&#45;&gt;Node6 -->
<g id="edge5_Node000002_Node000006" class="edge">
<title>Node2&#45;&gt;Node6</title>
<g id="a_edge5_Node000002_Node000006"><a xlink:title=" ">
<path fill="none" stroke="#63b8ff" d="M356.97,-74.46C383.46,-69.08 412.88,-63.09 437.69,-58.05"/>
<polygon fill="#63b8ff" stroke="#63b8ff" points="438.56,-61.44 447.66,-56.02 437.17,-54.58 438.56,-61.44"/>
</a>
</g>
</g>
<!-- Node7 -->
<g id="Node000007" class="node">
<title>Node7</title>
<g id="a_Node000007"><a xlink:href="io_8c.html#a6ef830a0883e3f31ad5b52a2b20bdbb2" target="_top" xlink:title=" ">
<polygon fill="white" stroke="#666666" points="520.5,-19 470.5,-19 470.5,0 520.5,0 520.5,-19"/>
<text text-anchor="middle" x="495.5" y="-7" font-family="Helvetica,sans-Serif" font-size="10.00">Output</text>
</a>
</g>
</g>
<!-- Node2&#45;&gt;Node7 -->
<g id="edge6_Node000002_Node000007" class="edge">
<title>Node2&#45;&gt;Node7</title>
<g id="a_edge6_Node000002_Node000007"><a xlink:title=" ">
<path fill="none" stroke="#63b8ff" d="M308.57,-74.46C332.9,-60.73 370.89,-40.76 406,-28.5 423.57,-22.37 443.82,-17.84 460.52,-14.75"/>
<polygon fill="#63b8ff" stroke="#63b8ff" points="461.15,-18.19 470.39,-13.01 459.94,-11.3 461.15,-18.19"/>
</a>
</g>
</g>
</g>
</svg>
