<?xml version="1.0" encoding="UTF-8" standalone="no"?>
<!DOCTYPE svg PUBLIC "-//W3C//DTD SVG 1.1//EN"
 "http://www.w3.org/Graphics/SVG/1.1/DTD/svg11.dtd">
<!-- Generated by graphviz version 2.43.0 (0)
 -->
<!-- Title: GenerateManufacturedFExternalAndInitialKinematics Pages: 1 -->
<svg width="409pt" height="320pt"
 viewBox="0.00 0.00 409.00 320.00" xmlns="http://www.w3.org/2000/svg" xmlns:xlink="http://www.w3.org/1999/xlink">
<g id="graph0" class="graph" transform="scale(1 1) rotate(0) translate(4 316)">
<title>GenerateManufacturedFExternalAndInitialKinematics</title>
<!-- Node1 -->
<g id="Node000001" class="node">
<title>Node1</title>
<g id="a_Node000001"><a xlink:title=" ">
<polygon fill="#999999" stroke="#666666" points="176,-156.5 0,-156.5 0,-126.5 176,-126.5 176,-156.5"/>
<text text-anchor="start" x="8" y="-144.5" font-family="Helvetica,sans-Serif" font-size="10.00">GenerateManufacturedFExternal</text>
<text text-anchor="middle" x="88" y="-133.5" font-family="Helvetica,sans-Serif" font-size="10.00">AndInitialKinematics</text>
</a>
</g>
</g>
<!-- Node2 -->
<g id="Node000002" class="node">
<title>Node2</title>
<g id="a_Node000002"><a xlink:href="main_8c.html#a406cf6152471e0614dca5a045fdfd99f" target="_top" xlink:title=" ">
<polygon fill="white" stroke="#666666" points="339.5,-312 273.5,-312 273.5,-293 339.5,-293 339.5,-312"/>
<text text-anchor="middle" x="306.5" y="-300" font-family="Helvetica,sans-Serif" font-size="10.00">FDynamic</text>
</a>
</g>
</g>
<!-- Node1&#45;&gt;Node2 -->
<g id="edge1_Node000001_Node000002" class="edge">
<title>Node1&#45;&gt;Node2</title>
<g id="a_edge1_Node000001_Node000002"><a xlink:title=" ">
<path fill="none" stroke="#63b8ff" d="M97.54,-156.84C114.9,-186.49 157.37,-251.58 212,-283.5 227.4,-292.5 246.38,-297.29 263.21,-299.82"/>
<polygon fill="#63b8ff" stroke="#63b8ff" points="262.99,-303.32 273.36,-301.12 263.88,-296.37 262.99,-303.32"/>
</a>
</g>
</g>
<!-- Node3 -->
<g id="Node000003" class="node">
<title>Node3</title>
<g id="a_Node000003"><a xlink:href="manufactured__active__strain__b_8c.html#a9aea3760b5c9a67800e0dc2604968606" target="_top" xlink:title=" ">
<polygon fill="white" stroke="#666666" points="378,-274.5 235,-274.5 235,-244.5 378,-244.5 378,-274.5"/>
<text text-anchor="start" x="243" y="-262.5" font-family="Helvetica,sans-Serif" font-size="10.00">ManufacturedActiveStrain</text>
<text text-anchor="middle" x="306.5" y="-251.5" font-family="Helvetica,sans-Serif" font-size="10.00">Kinematics</text>
</a>
</g>
</g>
<!-- Node1&#45;&gt;Node3 -->
<g id="edge2_Node000001_Node000003" class="edge">
<title>Node1&#45;&gt;Node3</title>
<g id="a_edge2_Node000001_Node000003"><a xlink:title=" ">
<path fill="none" stroke="#63b8ff" d="M104.31,-156.54C126.31,-177.32 168.96,-214.61 212,-235.5 216.3,-237.59 220.8,-239.5 225.4,-241.27"/>
<polygon fill="#63b8ff" stroke="#63b8ff" points="224.37,-244.62 234.96,-244.67 226.71,-238.02 224.37,-244.62"/>
</a>
</g>
</g>
<!-- Node4 -->
<g id="Node000004" class="node">
<title>Node4</title>
<g id="a_Node000004"><a xlink:href="manufactured__active__strain__b_8c.html#a3a48176bca39b41d7b618bc175f9f720" target="_top" xlink:title=" ">
<polygon fill="white" stroke="#666666" points="376,-226.5 237,-226.5 237,-196.5 376,-196.5 376,-226.5"/>
<text text-anchor="start" x="245" y="-214.5" font-family="Helvetica,sans-Serif" font-size="10.00">ManufacturedExactInitial</text>
<text text-anchor="middle" x="306.5" y="-203.5" font-family="Helvetica,sans-Serif" font-size="10.00">KinematicsSet_</text>
</a>
</g>
</g>
<!-- Node1&#45;&gt;Node4 -->
<g id="edge3_Node000001_Node000004" class="edge">
<title>Node1&#45;&gt;Node4</title>
<g id="a_edge3_Node000001_Node000004"><a xlink:title=" ">
<path fill="none" stroke="#63b8ff" d="M126.05,-156.54C150.28,-166.07 182.75,-178.3 212,-187.5 218.87,-189.66 226.07,-191.77 233.29,-193.79"/>
<polygon fill="#63b8ff" stroke="#63b8ff" points="232.56,-197.22 243.12,-196.48 234.4,-190.46 232.56,-197.22"/>
</a>
</g>
</g>
<!-- Node5 -->
<g id="Node000005" class="node">
<title>Node5</title>
<g id="a_Node000005"><a xlink:href="manufactured__active__strain__b_8c.html#a2cedff62a03bf50ff142492c7fb9ae65" target="_top" xlink:title=" ">
<polygon fill="white" stroke="#666666" points="381.5,-178.5 231.5,-178.5 231.5,-148.5 381.5,-148.5 381.5,-178.5"/>
<text text-anchor="start" x="239.5" y="-166.5" font-family="Helvetica,sans-Serif" font-size="10.00">ManufacturedExactVelocity</text>
<text text-anchor="middle" x="306.5" y="-155.5" font-family="Helvetica,sans-Serif" font-size="10.00">AccelerationSet_</text>
</a>
</g>
</g>
<!-- Node1&#45;&gt;Node5 -->
<g id="edge4_Node000001_Node000005" class="edge">
<title>Node1&#45;&gt;Node5</title>
<g id="a_edge4_Node000001_Node000005"><a xlink:title=" ">
<path fill="none" stroke="#63b8ff" d="M176.12,-150.35C191.02,-151.87 206.46,-153.44 221.28,-154.94"/>
<polygon fill="#63b8ff" stroke="#63b8ff" points="221.12,-158.44 231.42,-155.97 221.83,-151.48 221.12,-158.44"/>
</a>
</g>
</g>
<!-- Node6 -->
<g id="Node000006" class="node">
<title>Node6</title>
<g id="a_Node000006"><a xlink:href="manufactured__active__strain__b_8c.html#a6a75f1900f716bda6ac3969b766d2c2f" target="_top" xlink:title=" ">
<polygon fill="white" stroke="#666666" points="391,-130 222,-130 222,-111 391,-111 391,-130"/>
<text text-anchor="middle" x="306.5" y="-118" font-family="Helvetica,sans-Serif" font-size="10.00">ManufacturedForceVectorsOut_</text>
</a>
</g>
</g>
<!-- Node1&#45;&gt;Node6 -->
<g id="edge5_Node000001_Node000006" class="edge">
<title>Node1&#45;&gt;Node6</title>
<g id="a_edge5_Node000001_Node000006"><a xlink:title=" ">
<path fill="none" stroke="#63b8ff" d="M176.12,-133.05C187.76,-131.92 199.73,-130.76 211.47,-129.62"/>
<polygon fill="#63b8ff" stroke="#63b8ff" points="212.1,-133.08 221.72,-128.63 211.43,-126.11 212.1,-133.08"/>
</a>
</g>
</g>
<!-- Node7 -->
<g id="Node000007" class="node">
<title>Node7</title>
<g id="a_Node000007"><a xlink:href="manufactured__active__strain__b_8c.html#ab2f95e93dc44b2862961d3b0d2a0d7bf" target="_top" xlink:title=" ">
<polygon fill="white" stroke="#666666" points="401,-93 212,-93 212,-74 401,-74 401,-93"/>
<text text-anchor="middle" x="306.5" y="-81" font-family="Helvetica,sans-Serif" font-size="10.00">ManufacturedInitialKinematicsOut_</text>
</a>
</g>
</g>
<!-- Node1&#45;&gt;Node7 -->
<g id="edge6_Node000001_Node000007" class="edge">
<title>Node1&#45;&gt;Node7</title>
<g id="a_edge6_Node000001_Node000007"><a xlink:title=" ">
<path fill="none" stroke="#63b8ff" d="M132.5,-126.46C155.89,-118.69 185.33,-109.42 212,-102.5 222.09,-99.88 232.86,-97.41 243.37,-95.16"/>
<polygon fill="#63b8ff" stroke="#63b8ff" points="244.27,-98.55 253.35,-93.07 242.84,-91.69 244.27,-98.55"/>
</a>
</g>
</g>
<!-- Node8 -->
<g id="Node000008" class="node">
<title>Node8</title>
<g id="a_Node000008"><a xlink:href="io_8c.html#a6ef830a0883e3f31ad5b52a2b20bdbb2" target="_top" xlink:title=" ">
<polygon fill="white" stroke="#666666" points="331.5,-56 281.5,-56 281.5,-37 331.5,-37 331.5,-56"/>
<text text-anchor="middle" x="306.5" y="-44" font-family="Helvetica,sans-Serif" font-size="10.00">Output</text>
</a>
</g>
</g>
<!-- Node1&#45;&gt;Node8 -->
<g id="edge7_Node000001_Node000008" class="edge">
<title>Node1&#45;&gt;Node8</title>
<g id="a_edge7_Node000001_Node000008"><a xlink:title=" ">
<path fill="none" stroke="#63b8ff" d="M108.71,-126.24C132.07,-108.9 172.79,-81.02 212,-65.5 230.93,-58.01 253.23,-53.33 271.3,-50.49"/>
<polygon fill="#63b8ff" stroke="#63b8ff" points="272,-53.93 281.4,-49.03 271,-47 272,-53.93"/>
</a>
</g>
</g>
<!-- Node9 -->
<g id="Node000009" class="node">
<title>Node9</title>
<g id="a_Node000009"><a xlink:href="main_8c.html#a35f68af6a2fab488b07de9c8cb43e44a" target="_top" xlink:title=" ">
<polygon fill="white" stroke="#666666" points="334,-19 279,-19 279,0 334,0 334,-19"/>
<text text-anchor="middle" x="306.5" y="-7" font-family="Helvetica,sans-Serif" font-size="10.00">xAccVel</text>
</a>
</g>
</g>
<!-- Node1&#45;&gt;Node9 -->
<g id="edge8_Node000001_Node000009" class="edge">
<title>Node1&#45;&gt;Node9</title>
<g id="a_edge8_Node000001_Node000009"><a xlink:title=" ">
<path fill="none" stroke="#63b8ff" d="M100.78,-126.27C120.79,-101.56 163.96,-53.01 212,-28.5 229.51,-19.56 250.89,-14.83 268.78,-12.32"/>
<polygon fill="#63b8ff" stroke="#63b8ff" points="269.35,-15.78 278.85,-11.09 268.5,-8.83 269.35,-15.78"/>
</a>
</g>
</g>
</g>
</svg>
