<?xml version="1.0" encoding="UTF-8" standalone="no"?>
<!DOCTYPE svg PUBLIC "-//W3C//DTD SVG 1.1//EN"
 "http://www.w3.org/Graphics/SVG/1.1/DTD/svg11.dtd">
<!-- Generated by graphviz version 2.43.0 (0)
 -->
<!-- Title: ManufacturedExactVelocityAccelerationSet_ Pages: 1 -->
<!--zoomable 81 -->

<svg id="main" version="1.1" xmlns="http://www.w3.org/2000/svg" xmlns:xlink="http://www.w3.org/1999/xlink" xml:space="preserve" onload="init(evt)">
<style type="text/css"><![CDATA[
.node, .edge {opacity: 0.7;}
.node.selected, .edge.selected {opacity: 1;}
.edge:hover path { stroke: red; }
.edge:hover polygon { stroke: red; fill: red; }
]]></style>

<defs>
  <circle id="rim" cx="0" cy="0" r="7"/>
  <circle id="rim2" cx="0" cy="0" r="3.5"/>
  <g id="zoomPlus">
    <use xlink:href="#rim" fill="#404040"><set attributeName="fill" to="#808080" begin="zoomplus.mouseover" end="zoomplus.mouseout"/></use>
    <path d="M-4,0h8M0,-4v8" fill="none" stroke="white" stroke-width="1.5" pointer-events="none"/>
  </g>
  <g id="zoomMin">
    <use xlink:href="#rim" fill="#404040"><set attributeName="fill" to="#808080" begin="zoomminus.mouseover" end="zoomminus.mouseout"/></use>
    <path d="M-4,0h8" fill="none" stroke="white" stroke-width="1.5" pointer-events="none"/>
  </g>
  <g id="arrowUp" transform="translate(30 24)">
    <use xlink:href="#rim"/>
    <path pointer-events="none" fill="none" stroke="white" stroke-width="1.5" d="M0,-3.0v7 M-2.5,-0.5L0,-3.0L2.5,-0.5"/>
  </g>
  <g id="arrowRight" transform="rotate(90) translate(36 -43)">
    <use xlink:href="#rim"/>
    <path pointer-events="none" fill="none" stroke="white" stroke-width="1.5" d="M0,-3.0v7 M-2.5,-0.5L0,-3.0L2.5,-0.5"/>
  </g>
  <g id="arrowDown" transform="rotate(180) translate(-30 -48)">
    <use xlink:href="#rim"/>
    <path pointer-events="none" fill="none" stroke="white" stroke-width="1.5" d="M0,-3.0v7 M-2.5,-0.5L0,-3.0L2.5,-0.5"/>
  </g>
  <g id="arrowLeft" transform="rotate(270) translate(-36 17)">
    <use xlink:href="#rim"/>
    <path pointer-events="none" fill="none" stroke="white" stroke-width="1.5" d="M0,-3.0v7 M-2.5,-0.5L0,-3.0L2.5,-0.5"/>
  </g>
  <g id="resetDef">
    <use xlink:href="#rim2" fill="#404040"><set attributeName="fill" to="#808080" begin="reset.mouseover" end="reset.mouseout"/></use>
  </g>
</defs>
<script type="application/ecmascript">
var viewWidth = 853;
var viewHeight = 81;
var sectionId = 'dynsection-5';
</script>
<script type="application/ecmascript" xlink:href="svg.min.js"/>
<svg id="graph" class="graph">
<g id="viewport">
<title>ManufacturedExactVelocityAccelerationSet_</title>
<!-- Node1 -->
<g id="Node000001" class="node">
<title>Node1</title>
<g id="a_Node000001"><a xlink:title=" ">
<polygon fill="#999999" stroke="#666666" points="845,-51 695,-51 695,-21 845,-21 845,-51"/>
<text text-anchor="start" x="703" y="-39" font-family="Helvetica,sans-Serif" font-size="10.00">ManufacturedExactVelocity</text>
<text text-anchor="middle" x="770" y="-28" font-family="Helvetica,sans-Serif" font-size="10.00">AccelerationSet_</text>
</a>
</g>
</g>
<!-- Node2 -->
<g id="Node000002" class="node">
<title>Node2</title>
<g id="a_Node000002"><a xlink:href="manufactured__active__strain_8c.html#a76dced439e9210fc76cb2f1c40e37440" target="_top" xlink:title=" ">
<polygon fill="white" stroke="#666666" points="659,-51 483,-51 483,-21 659,-21 659,-51"/>
<text text-anchor="start" x="491" y="-39" font-family="Helvetica,sans-Serif" font-size="10.00">GenerateManufacturedFExternal</text>
<text text-anchor="middle" x="571" y="-28" font-family="Helvetica,sans-Serif" font-size="10.00">AndKinematics</text>
</a>
</g>
</g>
<!-- Node1&#45;&gt;Node2 -->
<g id="edge1_Node000001_Node000002" class="edge">
<title>Node1&#45;&gt;Node2</title>
<g id="a_edge1_Node000001_Node000002"><a xlink:title=" ">
<path fill="none" stroke="#63b8ff" d="M684.58,-36C676.12,-36 667.53,-36 659.05,-36"/>
<polygon fill="#63b8ff" stroke="#63b8ff" points="684.8,-39.5 694.8,-36 684.8,-32.5 684.8,-39.5"/>
</a>
</g>
</g>
<!-- Node3 -->
<g id="Node000003" class="node">
<title>Node3</title>
<g id="a_Node000003"><a xlink:href="manufactured__active__strain_8c.html#aa3f8aea727e8490df824ccde3cb3ab69" target="_top" xlink:title=" ">
<polygon fill="white" stroke="#666666" points="253,-73 77,-73 77,-43 253,-43 253,-73"/>
<text text-anchor="start" x="85" y="-61" font-family="Helvetica,sans-Serif" font-size="10.00">GenerateManufacturedFExternal</text>
<text text-anchor="middle" x="165" y="-50" font-family="Helvetica,sans-Serif" font-size="10.00">AndKinematicsAllTimeSteps</text>
</a>
</g>
</g>
<!-- Node2&#45;&gt;Node3 -->
<g id="edge2_Node000002_Node000003" class="edge">
<title>Node2&#45;&gt;Node3</title>
<g id="a_edge2_Node000002_Node000003"><a xlink:title=" ">
<path fill="none" stroke="#63b8ff" d="M472.7,-41.3C405.76,-44.94 317.62,-49.74 253.01,-53.26"/>
<polygon fill="#63b8ff" stroke="#63b8ff" points="473.04,-44.79 482.84,-40.75 472.66,-37.8 473.04,-44.79"/>
</a>
</g>
</g>
<!-- Node5 -->
<g id="Node000005" class="node">
<title>Node5</title>
<g id="a_Node000005"><a xlink:href="manufactured__active__strain_8c.html#a9a638a5c199d0216bf97dad8dba443f0" target="_top" xlink:title=" ">
<polygon fill="white" stroke="#666666" points="447,-30 289,-30 289,0 447,0 447,-30"/>
<text text-anchor="start" x="297" y="-18" font-family="Helvetica,sans-Serif" font-size="10.00">ManufacturedKinematicsAnd</text>
<text text-anchor="middle" x="368" y="-7" font-family="Helvetica,sans-Serif" font-size="10.00">FExternalSetInitial</text>
</a>
</g>
</g>
<!-- Node2&#45;&gt;Node5 -->
<g id="edge4_Node000002_Node000005" class="edge">
<title>Node2&#45;&gt;Node5</title>
<g id="a_edge4_Node000002_Node000005"><a xlink:title=" ">
<path fill="none" stroke="#63b8ff" d="M472.66,-25.83C464.07,-24.93 455.45,-24.03 447.04,-23.15"/>
<polygon fill="#63b8ff" stroke="#63b8ff" points="472.41,-29.32 482.72,-26.88 473.13,-22.36 472.41,-29.32"/>
</a>
</g>
</g>
<!-- Node4 -->
<g id="Node000004" class="node">
<title>Node4</title>
<g id="a_Node000004"><a xlink:href="main_8c.html#a3c04138a5bfe5d72780bb7e82a18e627" target="_top" xlink:title=" ">
<polygon fill="white" stroke="#666666" points="41,-45.5 0,-45.5 0,-26.5 41,-26.5 41,-45.5"/>
<text text-anchor="middle" x="20.5" y="-33.5" font-family="Helvetica,sans-Serif" font-size="10.00">main</text>
</a>
</g>
</g>
<!-- Node3&#45;&gt;Node4 -->
<g id="edge3_Node000003_Node000004" class="edge">
<title>Node3&#45;&gt;Node4</title>
<g id="a_edge3_Node000003_Node000004"><a xlink:title=" ">
<path fill="none" stroke="#63b8ff" d="M66.54,-42.95C57.1,-41.5 48.38,-40.15 41.17,-39.04"/>
<polygon fill="#63b8ff" stroke="#63b8ff" points="66.18,-46.44 76.59,-44.51 67.25,-39.52 66.18,-46.44"/>
</a>
</g>
</g>
<!-- Node6 -->
<g id="Node000006" class="node">
<title>Node6</title>
<g id="a_Node000006"><a xlink:href="active__strain_8c.html#add9b2ea1963ddf3467e90047c8d5412b" target="_top" xlink:title="Initialize active&#45;strain module (options, storage, and quadrature).">
<polygon fill="white" stroke="#666666" points="223.5,-24.5 106.5,-24.5 106.5,-5.5 223.5,-5.5 223.5,-24.5"/>
<text text-anchor="middle" x="165" y="-12.5" font-family="Helvetica,sans-Serif" font-size="10.00">InitActStrainProblem</text>
</a>
</g>
</g>
<!-- Node5&#45;&gt;Node6 -->
<g id="edge5_Node000005_Node000006" class="edge">
<title>Node5&#45;&gt;Node6</title>
<g id="a_edge5_Node000005_Node000006"><a xlink:title=" ">
<path fill="none" stroke="#63b8ff" d="M278.7,-15C260,-15 240.73,-15 223.53,-15"/>
<polygon fill="#63b8ff" stroke="#63b8ff" points="278.71,-18.5 288.71,-15 278.71,-11.5 278.71,-18.5"/>
</a>
</g>
</g>
<!-- Node6&#45;&gt;Node4 -->
<g id="edge6_Node000006_Node000004" class="edge">
<title>Node6&#45;&gt;Node4</title>
<g id="a_edge6_Node000006_Node000004"><a xlink:title=" ">
<path fill="none" stroke="#63b8ff" d="M96.31,-24.98C76.17,-27.94 55.65,-30.97 41.21,-33.09"/>
<polygon fill="#63b8ff" stroke="#63b8ff" points="97.07,-28.4 106.45,-23.48 96.05,-21.48 97.07,-28.4"/>
</a>
</g>
</g>
</g>
</svg>

<g id="navigator" transform="translate(0 0)" fill="#404254">
  <rect fill="#f2f5e9" fill-opacity="0.5" stroke="#606060" stroke-width=".5" x="0" y="0" width="60" height="60"/>
  <use id="zoomplus" xlink:href="#zoomPlus" x="17" y="9" onmousedown="handleZoom(evt,'in')"/>
  <use id="zoomminus" xlink:href="#zoomMin" x="42" y="9" onmousedown="handleZoom(evt,'out')"/>
  <use id="reset" xlink:href="#resetDef" x="30" y="36" onmousedown="handleReset()"/>
   <use id="arrowup" xlink:href="#arrowUp" x="0" y="0" onmousedown="handlePan(0,-1)"/>
  <use id="arrowright" xlink:href="#arrowRight" x="0" y="0" onmousedown="handlePan(1,0)"/>
  <use id="arrowdown" xlink:href="#arrowDown" x="0" y="0" onmousedown="handlePan(0,1)"/>
  <use id="arrowleft" xlink:href="#arrowLeft" x="0" y="0" onmousedown="handlePan(-1,0)"/>
</g>
<svg viewBox="0 0 15 15" width="100%" height="30px" preserveAspectRatio="xMaxYMin meet">
 <g id="arrow_out" transform="scale(0.3 0.3)">
  <a xlink:href="manufactured__active__strain_8c_a2787f3690156c71eea4db92cd0c3cd52_icgraph_org.svg" target="_base">
   <rect id="button" ry="5" rx="5" y="6" x="6" height="38" width="38"
        fill="#f2f5e9" fill-opacity="0.5" stroke="#606060" stroke-width="1.0"/>
   <path id="arrow"
     d="M 11.500037,31.436501 C 11.940474,20.09759 22.043105,11.32322 32.158766,21.979434 L 37.068811,17.246167 C 37.068811,17.246167 37.088388,32 37.088388,32 L 22.160133,31.978069 C 22.160133,31.978069 26.997745,27.140456 26.997745,27.140456 C 18.528582,18.264221 13.291696,25.230495 11.500037,31.436501 z"
     style="fill:#404040;"/>
  </a>
 </g>
</svg>

<style type='text/css'>
<![CDATA[
[data-mouse-over-selected='false'] { opacity: 0.7; }
[data-mouse-over-selected='true']  { opacity: 1.0; }
]]>
</style>
<script type="application/ecmascript"><![CDATA[
document.addEventListener('DOMContentLoaded', (event) => {
  highlightEdges();
  highlightAdjacentNodes();
});
]]></script>
</svg>
