<?xml version="1.0" encoding="UTF-8" standalone="no"?>
<!DOCTYPE svg PUBLIC "-//W3C//DTD SVG 1.1//EN"
 "http://www.w3.org/Graphics/SVG/1.1/DTD/svg11.dtd">
<!-- Generated by graphviz version 2.43.0 (0)
 -->
<!-- Title: ManufacturedExactLocationsSet_ Pages: 1 -->
<svg width="882pt" height="81pt"
 viewBox="0.00 0.00 882.00 81.00" xmlns="http://www.w3.org/2000/svg" xmlns:xlink="http://www.w3.org/1999/xlink">
<g id="graph0" class="graph" transform="scale(1 1) rotate(0) translate(4 77)">
<title>ManufacturedExactLocationsSet_</title>
<!-- Node1 -->
<g id="Node000001" class="node">
<title>Node1</title>
<g id="a_Node000001"><a xlink:title=" ">
<polygon fill="#999999" stroke="#666666" points="874,-45.5 695,-45.5 695,-26.5 874,-26.5 874,-45.5"/>
<text text-anchor="middle" x="784.5" y="-33.5" font-family="Helvetica,sans-Serif" font-size="10.00">ManufacturedExactLocationsSet_</text>
</a>
</g>
</g>
<!-- Node2 -->
<g id="Node000002" class="node">
<title>Node2</title>
<g id="a_Node000002"><a xlink:href="manufactured__active__strain_8c.html#a76dced439e9210fc76cb2f1c40e37440" target="_top" xlink:title=" ">
<polygon fill="white" stroke="#666666" points="659,-51 483,-51 483,-21 659,-21 659,-51"/>
<text text-anchor="start" x="491" y="-39" font-family="Helvetica,sans-Serif" font-size="10.00">GenerateManufacturedFExternal</text>
<text text-anchor="middle" x="571" y="-28" font-family="Helvetica,sans-Serif" font-size="10.00">AndKinematics</text>
</a>
</g>
</g>
<!-- Node1&#45;&gt;Node2 -->
<g id="edge1_Node000001_Node000002" class="edge">
<title>Node1&#45;&gt;Node2</title>
<g id="a_edge1_Node000001_Node000002"><a xlink:title=" ">
<path fill="none" stroke="#63b8ff" d="M684.47,-36C676.03,-36 667.53,-36 659.19,-36"/>
<polygon fill="#63b8ff" stroke="#63b8ff" points="684.72,-39.5 694.72,-36 684.72,-32.5 684.72,-39.5"/>
</a>
</g>
</g>
<!-- Node3 -->
<g id="Node000003" class="node">
<title>Node3</title>
<g id="a_Node000003"><a xlink:href="manufactured__active__strain_8c.html#aa3f8aea727e8490df824ccde3cb3ab69" target="_top" xlink:title=" ">
<polygon fill="white" stroke="#666666" points="253,-73 77,-73 77,-43 253,-43 253,-73"/>
<text text-anchor="start" x="85" y="-61" font-family="Helvetica,sans-Serif" font-size="10.00">GenerateManufacturedFExternal</text>
<text text-anchor="middle" x="165" y="-50" font-family="Helvetica,sans-Serif" font-size="10.00">AndKinematicsAllTimeSteps</text>
</a>
</g>
</g>
<!-- Node2&#45;&gt;Node3 -->
<g id="edge2_Node000002_Node000003" class="edge">
<title>Node2&#45;&gt;Node3</title>
<g id="a_edge2_Node000002_Node000003"><a xlink:title=" ">
<path fill="none" stroke="#63b8ff" d="M472.7,-41.3C405.76,-44.94 317.62,-49.74 253.01,-53.26"/>
<polygon fill="#63b8ff" stroke="#63b8ff" points="473.04,-44.79 482.84,-40.75 472.66,-37.8 473.04,-44.79"/>
</a>
</g>
</g>
<!-- Node5 -->
<g id="Node000005" class="node">
<title>Node5</title>
<g id="a_Node000005"><a xlink:href="manufactured__active__strain_8c.html#a9a638a5c199d0216bf97dad8dba443f0" target="_top" xlink:title=" ">
<polygon fill="white" stroke="#666666" points="447,-30 289,-30 289,0 447,0 447,-30"/>
<text text-anchor="start" x="297" y="-18" font-family="Helvetica,sans-Serif" font-size="10.00">ManufacturedKinematicsAnd</text>
<text text-anchor="middle" x="368" y="-7" font-family="Helvetica,sans-Serif" font-size="10.00">FExternalSetInitial</text>
</a>
</g>
</g>
<!-- Node2&#45;&gt;Node5 -->
<g id="edge4_Node000002_Node000005" class="edge">
<title>Node2&#45;&gt;Node5</title>
<g id="a_edge4_Node000002_Node000005"><a xlink:title=" ">
<path fill="none" stroke="#63b8ff" d="M472.66,-25.83C464.07,-24.93 455.45,-24.03 447.04,-23.15"/>
<polygon fill="#63b8ff" stroke="#63b8ff" points="472.41,-29.32 482.72,-26.88 473.13,-22.36 472.41,-29.32"/>
</a>
</g>
</g>
<!-- Node4 -->
<g id="Node000004" class="node">
<title>Node4</title>
<g id="a_Node000004"><a xlink:href="main_8c.html#a3c04138a5bfe5d72780bb7e82a18e627" target="_top" xlink:title=" ">
<polygon fill="white" stroke="#666666" points="41,-45.5 0,-45.5 0,-26.5 41,-26.5 41,-45.5"/>
<text text-anchor="middle" x="20.5" y="-33.5" font-family="Helvetica,sans-Serif" font-size="10.00">main</text>
</a>
</g>
</g>
<!-- Node3&#45;&gt;Node4 -->
<g id="edge3_Node000003_Node000004" class="edge">
<title>Node3&#45;&gt;Node4</title>
<g id="a_edge3_Node000003_Node000004"><a xlink:title=" ">
<path fill="none" stroke="#63b8ff" d="M66.54,-42.95C57.1,-41.5 48.38,-40.15 41.17,-39.04"/>
<polygon fill="#63b8ff" stroke="#63b8ff" points="66.18,-46.44 76.59,-44.51 67.25,-39.52 66.18,-46.44"/>
</a>
</g>
</g>
<!-- Node6 -->
<g id="Node000006" class="node">
<title>Node6</title>
<g id="a_Node000006"><a xlink:href="active__strain_8c.html#add9b2ea1963ddf3467e90047c8d5412b" target="_top" xlink:title="Initialize active&#45;strain module (options, storage, and quadrature).">
<polygon fill="white" stroke="#666666" points="223.5,-24.5 106.5,-24.5 106.5,-5.5 223.5,-5.5 223.5,-24.5"/>
<text text-anchor="middle" x="165" y="-12.5" font-family="Helvetica,sans-Serif" font-size="10.00">InitActStrainProblem</text>
</a>
</g>
</g>
<!-- Node5&#45;&gt;Node6 -->
<g id="edge5_Node000005_Node000006" class="edge">
<title>Node5&#45;&gt;Node6</title>
<g id="a_edge5_Node000005_Node000006"><a xlink:title=" ">
<path fill="none" stroke="#63b8ff" d="M278.7,-15C260,-15 240.73,-15 223.53,-15"/>
<polygon fill="#63b8ff" stroke="#63b8ff" points="278.71,-18.5 288.71,-15 278.71,-11.5 278.71,-18.5"/>
</a>
</g>
</g>
<!-- Node6&#45;&gt;Node4 -->
<g id="edge6_Node000006_Node000004" class="edge">
<title>Node6&#45;&gt;Node4</title>
<g id="a_edge6_Node000006_Node000004"><a xlink:title=" ">
<path fill="none" stroke="#63b8ff" d="M96.31,-24.98C76.17,-27.94 55.65,-30.97 41.21,-33.09"/>
<polygon fill="#63b8ff" stroke="#63b8ff" points="97.07,-28.4 106.45,-23.48 96.05,-21.48 97.07,-28.4"/>
</a>
</g>
</g>
</g>
</svg>
