<?xml version="1.0" encoding="UTF-8" standalone="no"?>
<!DOCTYPE svg PUBLIC "-//W3C//DTD SVG 1.1//EN"
 "http://www.w3.org/Graphics/SVG/1.1/DTD/svg11.dtd">
<!-- Generated by graphviz version 2.43.0 (0)
 -->
<!-- Title: manufactured_active_strain.c Pages: 1 -->
<!--zoomable 324 -->

<svg id="main" version="1.1" xmlns="http://www.w3.org/2000/svg" xmlns:xlink="http://www.w3.org/1999/xlink" xml:space="preserve" onload="init(evt)">
<style type="text/css"><![CDATA[
.node, .edge {opacity: 0.7;}
.node.selected, .edge.selected {opacity: 1;}
.edge:hover path { stroke: red; }
.edge:hover polygon { stroke: red; fill: red; }
]]></style>

<defs>
  <circle id="rim" cx="0" cy="0" r="7"/>
  <circle id="rim2" cx="0" cy="0" r="3.5"/>
  <g id="zoomPlus">
    <use xlink:href="#rim" fill="#404040"><set attributeName="fill" to="#808080" begin="zoomplus.mouseover" end="zoomplus.mouseout"/></use>
    <path d="M-4,0h8M0,-4v8" fill="none" stroke="white" stroke-width="1.5" pointer-events="none"/>
  </g>
  <g id="zoomMin">
    <use xlink:href="#rim" fill="#404040"><set attributeName="fill" to="#808080" begin="zoomminus.mouseover" end="zoomminus.mouseout"/></use>
    <path d="M-4,0h8" fill="none" stroke="white" stroke-width="1.5" pointer-events="none"/>
  </g>
  <g id="arrowUp" transform="translate(30 24)">
    <use xlink:href="#rim"/>
    <path pointer-events="none" fill="none" stroke="white" stroke-width="1.5" d="M0,-3.0v7 M-2.5,-0.5L0,-3.0L2.5,-0.5"/>
  </g>
  <g id="arrowRight" transform="rotate(90) translate(36 -43)">
    <use xlink:href="#rim"/>
    <path pointer-events="none" fill="none" stroke="white" stroke-width="1.5" d="M0,-3.0v7 M-2.5,-0.5L0,-3.0L2.5,-0.5"/>
  </g>
  <g id="arrowDown" transform="rotate(180) translate(-30 -48)">
    <use xlink:href="#rim"/>
    <path pointer-events="none" fill="none" stroke="white" stroke-width="1.5" d="M0,-3.0v7 M-2.5,-0.5L0,-3.0L2.5,-0.5"/>
  </g>
  <g id="arrowLeft" transform="rotate(270) translate(-36 17)">
    <use xlink:href="#rim"/>
    <path pointer-events="none" fill="none" stroke="white" stroke-width="1.5" d="M0,-3.0v7 M-2.5,-0.5L0,-3.0L2.5,-0.5"/>
  </g>
  <g id="resetDef">
    <use xlink:href="#rim2" fill="#404040"><set attributeName="fill" to="#808080" begin="reset.mouseover" end="reset.mouseout"/></use>
  </g>
</defs>
<script type="application/ecmascript">
var viewWidth = 604;
var viewHeight = 324;
var sectionId = 'dynsection-0';
</script>
<script type="application/ecmascript" xlink:href="svg.min.js"/>
<svg id="graph" class="graph">
<g id="viewport">
<title>manufactured_active_strain.c</title>
<!-- Node1 -->
<g id="Node000001" class="node">
<title>Node1</title>
<g id="a_Node000001"><a xlink:title=" ">
<polygon fill="#999999" stroke="#666666" points="403.68,-316 283.68,-316 283.68,-286 403.68,-286 403.68,-316"/>
<text text-anchor="start" x="291.68" y="-304" font-family="Helvetica,sans-Serif" font-size="10.00">manufactured_active</text>
<text text-anchor="middle" x="343.68" y="-293" font-family="Helvetica,sans-Serif" font-size="10.00">_strain.c</text>
</a>
</g>
</g>
<!-- Node2 -->
<g id="Node000002" class="node">
<title>Node2</title>
<g id="a_Node000002"><a xlink:href="math_8h.html" target="_top" xlink:title=" ">
<polygon fill="white" stroke="#666666" points="62.18,-74 11.18,-74 11.18,-55 62.18,-55 62.18,-74"/>
<text text-anchor="middle" x="36.68" y="-62" font-family="Helvetica,sans-Serif" font-size="10.00">math.h</text>
</a>
</g>
</g>
<!-- Node1&#45;&gt;Node2 -->
<g id="edge1_Node000001_Node000002" class="edge">
<title>Node1&#45;&gt;Node2</title>
<g id="a_edge1_Node000001_Node000002"><a xlink:title=" ">
<path fill="none" stroke="#63b8ff" d="M283.26,-290.94C244.47,-283.52 193.84,-270.77 152.68,-250 76.22,-211.41 39.63,-206.27 2.68,-129 -5.18,-112.56 6.93,-94.25 18.82,-81.54"/>
<polygon fill="#63b8ff" stroke="#63b8ff" points="21.38,-83.94 26.02,-74.41 16.45,-78.96 21.38,-83.94"/>
</a>
</g>
</g>
<!-- Node3 -->
<g id="Node000003" class="node">
<title>Node3</title>
<g id="a_Node000003"><a xlink:title=" ">
<polygon fill="#e0e0e0" stroke="#999999" points="186.68,-19 118.68,-19 118.68,0 186.68,0 186.68,-19"/>
<text text-anchor="middle" x="152.68" y="-7" font-family="Helvetica,sans-Serif" font-size="10.00">petscsys.h</text>
</a>
</g>
</g>
<!-- Node1&#45;&gt;Node3 -->
<g id="edge17_Node000001_Node000003" class="edge">
<title>Node1&#45;&gt;Node3</title>
<g id="a_edge17_Node000001_Node000003"><a xlink:title=" ">
<path fill="none" stroke="#63b8ff" d="M371.58,-285.93C385.86,-277.38 402.37,-265.17 412.68,-250 431.88,-221.73 431.68,-209.67 431.68,-175.5 431.68,-175.5 431.68,-175.5 431.68,-118.5 431.68,-83.39 414.4,-73.7 384.68,-55 327,-18.71 246.44,-10.78 197.02,-9.69"/>
<polygon fill="#63b8ff" stroke="#63b8ff" points="197.01,-6.19 186.96,-9.55 196.91,-13.19 197.01,-6.19"/>
</a>
</g>
</g>
<!-- Node4 -->
<g id="Node000004" class="node">
<title>Node4</title>
<g id="a_Node000004"><a xlink:title=" ">
<polygon fill="#e0e0e0" stroke="#999999" points="265.68,-244.5 181.68,-244.5 181.68,-225.5 265.68,-225.5 265.68,-244.5"/>
<text text-anchor="middle" x="223.68" y="-232.5" font-family="Helvetica,sans-Serif" font-size="10.00">petscviewer.h</text>
</a>
</g>
</g>
<!-- Node1&#45;&gt;Node4 -->
<g id="edge4_Node000001_Node000004" class="edge">
<title>Node1&#45;&gt;Node4</title>
<g id="a_edge4_Node000001_Node000004"><a xlink:title=" ">
<path fill="none" stroke="#63b8ff" d="M317.35,-285.95C296.86,-275.03 268.63,-259.97 248.53,-249.25"/>
<polygon fill="#63b8ff" stroke="#63b8ff" points="250.12,-246.14 239.65,-244.52 246.83,-252.31 250.12,-246.14"/>
</a>
</g>
</g>
<!-- Node5 -->
<g id="Node000005" class="node">
<title>Node5</title>
<g id="a_Node000005"><a xlink:href="variables_8h.html" target="_top" xlink:title=" ">
<polygon fill="white" stroke="#666666" points="189.18,-184 118.18,-184 118.18,-165 189.18,-165 189.18,-184"/>
<text text-anchor="middle" x="153.68" y="-172" font-family="Helvetica,sans-Serif" font-size="10.00">variables.h</text>
</a>
</g>
</g>
<!-- Node1&#45;&gt;Node5 -->
<g id="edge5_Node000001_Node000005" class="edge">
<title>Node1&#45;&gt;Node5</title>
<g id="a_edge5_Node000001_Node000005"><a xlink:title=" ">
<path fill="none" stroke="#63b8ff" d="M283.4,-297.01C246.64,-292.02 201.37,-279.7 172.68,-250 158.37,-235.18 154.41,-211.14 153.52,-194.39"/>
<polygon fill="#63b8ff" stroke="#63b8ff" points="157.01,-194.09 153.31,-184.16 150.02,-194.24 157.01,-194.09"/>
</a>
</g>
</g>
<!-- Node12 -->
<g id="Node000012" class="node">
<title>Node12</title>
<g id="a_Node000012"><a xlink:href="manufactured__active__strain_8h.html" target="_top" xlink:title=" ">
<polygon fill="white" stroke="#666666" points="403.68,-250 283.68,-250 283.68,-220 403.68,-220 403.68,-250"/>
<text text-anchor="start" x="291.68" y="-238" font-family="Helvetica,sans-Serif" font-size="10.00">manufactured_active</text>
<text text-anchor="middle" x="343.68" y="-227" font-family="Helvetica,sans-Serif" font-size="10.00">_strain.h</text>
</a>
</g>
</g>
<!-- Node1&#45;&gt;Node12 -->
<g id="edge15_Node000001_Node000012" class="edge">
<title>Node1&#45;&gt;Node12</title>
<g id="a_edge15_Node000001_Node000012"><a xlink:title=" ">
<path fill="none" stroke="#63b8ff" d="M343.68,-285.8C343.68,-278.34 343.68,-268.99 343.68,-260.41"/>
<polygon fill="#63b8ff" stroke="#63b8ff" points="347.18,-260.16 343.68,-250.16 340.18,-260.16 347.18,-260.16"/>
</a>
</g>
</g>
<!-- Node13 -->
<g id="Node000013" class="node">
<title>Node13</title>
<g id="a_Node000013"><a xlink:title=" ">
<polygon fill="#e0e0e0" stroke="#999999" points="513.18,-244.5 460.18,-244.5 460.18,-225.5 513.18,-225.5 513.18,-244.5"/>
<text text-anchor="middle" x="486.68" y="-232.5" font-family="Helvetica,sans-Serif" font-size="10.00">string.h</text>
</a>
</g>
</g>
<!-- Node1&#45;&gt;Node13 -->
<g id="edge18_Node000001_Node000013" class="edge">
<title>Node1&#45;&gt;Node13</title>
<g id="a_edge18_Node000001_Node000013"><a xlink:title=" ">
<path fill="none" stroke="#63b8ff" d="M375.06,-285.95C399.92,-274.83 434.34,-259.42 458.37,-248.67"/>
<polygon fill="#63b8ff" stroke="#63b8ff" points="459.95,-251.8 467.65,-244.52 457.09,-245.41 459.95,-251.8"/>
</a>
</g>
</g>
<!-- Node14 -->
<g id="Node000014" class="node">
<title>Node14</title>
<g id="a_Node000014"><a xlink:title=" ">
<polygon fill="#e0e0e0" stroke="#999999" points="595.68,-244.5 531.68,-244.5 531.68,-225.5 595.68,-225.5 595.68,-244.5"/>
<text text-anchor="middle" x="563.68" y="-232.5" font-family="Helvetica,sans-Serif" font-size="10.00">sys/stat.h</text>
</a>
</g>
</g>
<!-- Node1&#45;&gt;Node14 -->
<g id="edge19_Node000001_Node000014" class="edge">
<title>Node1&#45;&gt;Node14</title>
<g id="a_edge19_Node000001_Node000014"><a xlink:title=" ">
<path fill="none" stroke="#63b8ff" d="M397.18,-285.91C432.87,-276.3 480.77,-263 522.68,-250 524.99,-249.29 527.36,-248.53 529.74,-247.76"/>
<polygon fill="#63b8ff" stroke="#63b8ff" points="531.09,-251 539.48,-244.52 528.88,-244.35 531.09,-251"/>
</a>
</g>
</g>
<!-- Node2&#45;&gt;Node2 -->
<g id="edge2_Node000002_Node000002" class="edge">
<title>Node2&#45;&gt;Node2</title>
<g id="a_edge2_Node000002_Node000002"><a xlink:title=" ">
<path fill="none" stroke="#63b8ff" d="M57.27,-74.07C69.14,-76.02 80.18,-72.83 80.18,-64.5 80.18,-58.64 74.72,-55.33 67.35,-54.55"/>
<polygon fill="#63b8ff" stroke="#63b8ff" points="67.13,-51.06 57.27,-54.93 67.39,-58.05 67.13,-51.06"/>
</a>
</g>
</g>
<!-- Node2&#45;&gt;Node3 -->
<g id="edge3_Node000002_Node000003" class="edge">
<title>Node2&#45;&gt;Node3</title>
<g id="a_edge3_Node000002_Node000003"><a xlink:title=" ">
<path fill="none" stroke="#63b8ff" d="M55.32,-54.98C73.98,-46.46 102.93,-33.23 124.42,-23.41"/>
<polygon fill="#63b8ff" stroke="#63b8ff" points="126.07,-26.51 133.71,-19.17 123.16,-20.14 126.07,-26.51"/>
</a>
</g>
</g>
<!-- Node5&#45;&gt;Node2 -->
<g id="edge7_Node000005_Node000002" class="edge">
<title>Node5&#45;&gt;Node2</title>
<g id="a_edge7_Node000005_Node000002"><a xlink:title=" ">
<path fill="none" stroke="#63b8ff" d="M117.89,-173.49C84.11,-171.34 35.11,-162.19 10.68,-129 0.26,-114.83 10.51,-95.88 21.05,-82.38"/>
<polygon fill="#63b8ff" stroke="#63b8ff" points="24.02,-84.29 27.81,-74.4 18.68,-79.77 24.02,-84.29"/>
</a>
</g>
</g>
<!-- Node6 -->
<g id="Node000006" class="node">
<title>Node6</title>
<g id="a_Node000006"><a xlink:title=" ">
<polygon fill="#e0e0e0" stroke="#999999" points="403.68,-129 329.68,-129 329.68,-110 403.68,-110 403.68,-129"/>
<text text-anchor="middle" x="366.68" y="-117" font-family="Helvetica,sans-Serif" font-size="10.00">petscsnes.h</text>
</a>
</g>
</g>
<!-- Node5&#45;&gt;Node6 -->
<g id="edge6_Node000005_Node000006" class="edge">
<title>Node5&#45;&gt;Node6</title>
<g id="a_edge6_Node000005_Node000006"><a xlink:title=" ">
<path fill="none" stroke="#63b8ff" d="M187.9,-164.98C224.44,-155.89 282.46,-141.46 322.44,-131.51"/>
<polygon fill="#63b8ff" stroke="#63b8ff" points="323.33,-134.89 332.19,-129.08 321.64,-128.1 323.33,-134.89"/>
</a>
</g>
</g>
<!-- Node7 -->
<g id="Node000007" class="node">
<title>Node7</title>
<g id="a_Node000007"><a xlink:title=" ">
<polygon fill="#e0e0e0" stroke="#999999" points="89.18,-129 20.18,-129 20.18,-110 89.18,-110 89.18,-129"/>
<text text-anchor="middle" x="54.68" y="-117" font-family="Helvetica,sans-Serif" font-size="10.00">petscvec.h</text>
</a>
</g>
</g>
<!-- Node5&#45;&gt;Node7 -->
<g id="edge8_Node000005_Node000007" class="edge">
<title>Node5&#45;&gt;Node7</title>
<g id="a_edge8_Node000005_Node000007"><a xlink:title=" ">
<path fill="none" stroke="#63b8ff" d="M137.78,-164.98C122.14,-156.61 98.03,-143.7 79.8,-133.95"/>
<polygon fill="#63b8ff" stroke="#63b8ff" points="81.35,-130.8 70.88,-129.17 78.04,-136.98 81.35,-130.8"/>
</a>
</g>
</g>
<!-- Node8 -->
<g id="Node000008" class="node">
<title>Node8</title>
<g id="a_Node000008"><a xlink:href="act__variables_8h.html" target="_top" xlink:title="Data containers for active&#45;strain kinematics, stress, and material data.">
<polygon fill="white" stroke="#666666" points="198.18,-129 107.18,-129 107.18,-110 198.18,-110 198.18,-129"/>
<text text-anchor="middle" x="152.68" y="-117" font-family="Helvetica,sans-Serif" font-size="10.00">act_variables.h</text>
</a>
</g>
</g>
<!-- Node5&#45;&gt;Node8 -->
<g id="edge9_Node000005_Node000008" class="edge">
<title>Node5&#45;&gt;Node8</title>
<g id="a_edge9_Node000005_Node000008"><a xlink:title=" ">
<path fill="none" stroke="#63b8ff" d="M153.52,-164.75C153.39,-157.8 153.2,-147.85 153.03,-139.13"/>
<polygon fill="#63b8ff" stroke="#63b8ff" points="156.53,-139.02 152.84,-129.09 149.53,-139.15 156.53,-139.02"/>
</a>
</g>
</g>
<!-- Node9 -->
<g id="Node000009" class="node">
<title>Node9</title>
<g id="a_Node000009"><a xlink:href="dmplex__types_8h.html" target="_top" xlink:title="Persistent DMPlex geometry context for Loop subdivision surfaces.">
<polygon fill="white" stroke="#666666" points="311.18,-129 216.18,-129 216.18,-110 311.18,-110 311.18,-129"/>
<text text-anchor="middle" x="263.68" y="-117" font-family="Helvetica,sans-Serif" font-size="10.00">dmplex_types.h</text>
</a>
</g>
</g>
<!-- Node5&#45;&gt;Node9 -->
<g id="edge12_Node000005_Node000009" class="edge">
<title>Node5&#45;&gt;Node9</title>
<g id="a_edge12_Node000005_Node000009"><a xlink:title=" ">
<path fill="none" stroke="#63b8ff" d="M171.36,-164.98C188.97,-156.5 216.26,-143.35 236.61,-133.54"/>
<polygon fill="#63b8ff" stroke="#63b8ff" points="238.2,-136.66 245.69,-129.17 235.16,-130.36 238.2,-136.66"/>
</a>
</g>
</g>
<!-- Node8&#45;&gt;Node2 -->
<g id="edge11_Node000008_Node000002" class="edge">
<title>Node8&#45;&gt;Node2</title>
<g id="a_edge11_Node000008_Node000002"><a xlink:title=" ">
<path fill="none" stroke="#63b8ff" d="M134.05,-109.98C115.38,-101.46 86.43,-88.23 64.94,-78.41"/>
<polygon fill="#63b8ff" stroke="#63b8ff" points="66.21,-75.14 55.66,-74.17 63.3,-81.51 66.21,-75.14"/>
</a>
</g>
</g>
<!-- Node8&#45;&gt;Node3 -->
<g id="edge10_Node000008_Node000003" class="edge">
<title>Node8&#45;&gt;Node3</title>
<g id="a_edge10_Node000008_Node000003"><a xlink:title=" ">
<path fill="none" stroke="#63b8ff" d="M152.68,-109.66C152.68,-92.17 152.68,-52.8 152.68,-29.27"/>
<polygon fill="#63b8ff" stroke="#63b8ff" points="156.18,-29.16 152.68,-19.16 149.18,-29.16 156.18,-29.16"/>
</a>
</g>
</g>
<!-- Node10 -->
<g id="Node000010" class="node">
<title>Node10</title>
<g id="a_Node000010"><a xlink:title=" ">
<polygon fill="#e0e0e0" stroke="#999999" points="375.18,-74 286.18,-74 286.18,-55 375.18,-55 375.18,-74"/>
<text text-anchor="middle" x="330.68" y="-62" font-family="Helvetica,sans-Serif" font-size="10.00">petscdmplex.h</text>
</a>
</g>
</g>
<!-- Node9&#45;&gt;Node10 -->
<g id="edge13_Node000009_Node000010" class="edge">
<title>Node9&#45;&gt;Node10</title>
<g id="a_edge13_Node000009_Node000010"><a xlink:title=" ">
<path fill="none" stroke="#63b8ff" d="M274.45,-109.98C284.45,-102.07 299.57,-90.11 311.61,-80.58"/>
<polygon fill="#63b8ff" stroke="#63b8ff" points="314.05,-83.12 319.72,-74.17 309.71,-77.63 314.05,-83.12"/>
</a>
</g>
</g>
<!-- Node11 -->
<g id="Node000011" class="node">
<title>Node11</title>
<g id="a_Node000011"><a xlink:title=" ">
<polygon fill="#e0e0e0" stroke="#999999" points="267.68,-74 207.68,-74 207.68,-55 267.68,-55 267.68,-74"/>
<text text-anchor="middle" x="237.68" y="-62" font-family="Helvetica,sans-Serif" font-size="10.00">petscsf.h</text>
</a>
</g>
</g>
<!-- Node9&#45;&gt;Node11 -->
<g id="edge14_Node000009_Node000011" class="edge">
<title>Node9&#45;&gt;Node11</title>
<g id="a_edge14_Node000009_Node000011"><a xlink:title=" ">
<path fill="none" stroke="#63b8ff" d="M259.39,-109.75C255.87,-102.57 250.77,-92.18 246.4,-83.27"/>
<polygon fill="#63b8ff" stroke="#63b8ff" points="249.44,-81.53 241.9,-74.09 243.16,-84.61 249.44,-81.53"/>
</a>
</g>
</g>
<!-- Node12&#45;&gt;Node5 -->
<g id="edge16_Node000012_Node000005" class="edge">
<title>Node12&#45;&gt;Node5</title>
<g id="a_edge16_Node000012_Node000005"><a xlink:title=" ">
<path fill="none" stroke="#63b8ff" d="M298.17,-219.99C265.52,-209.94 222.06,-196.55 191.35,-187.1"/>
<polygon fill="#63b8ff" stroke="#63b8ff" points="192.05,-183.65 181.46,-184.05 189.99,-190.34 192.05,-183.65"/>
</a>
</g>
</g>
</g>
</svg>

<g id="navigator" transform="translate(0 0)" fill="#404254">
  <rect fill="#f2f5e9" fill-opacity="0.5" stroke="#606060" stroke-width=".5" x="0" y="0" width="60" height="60"/>
  <use id="zoomplus" xlink:href="#zoomPlus" x="17" y="9" onmousedown="handleZoom(evt,'in')"/>
  <use id="zoomminus" xlink:href="#zoomMin" x="42" y="9" onmousedown="handleZoom(evt,'out')"/>
  <use id="reset" xlink:href="#resetDef" x="30" y="36" onmousedown="handleReset()"/>
   <use id="arrowup" xlink:href="#arrowUp" x="0" y="0" onmousedown="handlePan(0,-1)"/>
  <use id="arrowright" xlink:href="#arrowRight" x="0" y="0" onmousedown="handlePan(1,0)"/>
  <use id="arrowdown" xlink:href="#arrowDown" x="0" y="0" onmousedown="handlePan(0,1)"/>
  <use id="arrowleft" xlink:href="#arrowLeft" x="0" y="0" onmousedown="handlePan(-1,0)"/>
</g>
<svg viewBox="0 0 15 15" width="100%" height="30px" preserveAspectRatio="xMaxYMin meet">
 <g id="arrow_out" transform="scale(0.3 0.3)">
  <a xlink:href="manufactured__active__strain_8c__incl_org.svg" target="_base">
   <rect id="button" ry="5" rx="5" y="6" x="6" height="38" width="38"
        fill="#f2f5e9" fill-opacity="0.5" stroke="#606060" stroke-width="1.0"/>
   <path id="arrow"
     d="M 11.500037,31.436501 C 11.940474,20.09759 22.043105,11.32322 32.158766,21.979434 L 37.068811,17.246167 C 37.068811,17.246167 37.088388,32 37.088388,32 L 22.160133,31.978069 C 22.160133,31.978069 26.997745,27.140456 26.997745,27.140456 C 18.528582,18.264221 13.291696,25.230495 11.500037,31.436501 z"
     style="fill:#404040;"/>
  </a>
 </g>
</svg>

<style type='text/css'>
<![CDATA[
[data-mouse-over-selected='false'] { opacity: 0.7; }
[data-mouse-over-selected='true']  { opacity: 1.0; }
]]>
</style>
<script type="application/ecmascript"><![CDATA[
document.addEventListener('DOMContentLoaded', (event) => {
  highlightEdges();
  highlightAdjacentNodes();
});
]]></script>
</svg>
