<?xml version="1.0" encoding="UTF-8" standalone="no"?>
<!DOCTYPE svg PUBLIC "-//W3C//DTD SVG 1.1//EN"
 "http://www.w3.org/Graphics/SVG/1.1/DTD/svg11.dtd">
<!-- Generated by graphviz version 2.43.0 (0)
 -->
<!-- Title: MINUS Pages: 1 -->
<svg width="216pt" height="138pt"
 viewBox="0.00 0.00 216.00 138.00" xmlns="http://www.w3.org/2000/svg" xmlns:xlink="http://www.w3.org/1999/xlink">
<g id="graph0" class="graph" transform="scale(1 1) rotate(0) translate(4 134)">
<title>MINUS</title>
<!-- Node1 -->
<g id="Node000001" class="node">
<title>Node1</title>
<g id="a_Node000001"><a xlink:title=" ">
<polygon fill="#999999" stroke="#666666" points="208,-74 158,-74 158,-55 208,-55 208,-74"/>
<text text-anchor="middle" x="183" y="-62" font-family="Helvetica,sans-Serif" font-size="10.00">MINUS</text>
</a>
</g>
</g>
<!-- Node2 -->
<g id="Node000002" class="node">
<title>Node2</title>
<g id="a_Node000002"><a xlink:href="material__org_8c.html#a5b99da62b0de397a913c1c424cea6f87" target="_top" xlink:title=" ">
<polygon fill="white" stroke="#666666" points="121,-130 1,-130 1,-111 121,-111 121,-130"/>
<text text-anchor="middle" x="61" y="-118" font-family="Helvetica,sans-Serif" font-size="10.00">CalcStressStrainBxyz</text>
</a>
</g>
</g>
<!-- Node1&#45;&gt;Node2 -->
<g id="edge1_Node000001_Node000002" class="edge">
<title>Node1&#45;&gt;Node2</title>
<g id="a_edge1_Node000001_Node000002"><a xlink:title=" ">
<path fill="none" stroke="#63b8ff" d="M161.01,-79.79C149.84,-87.4 135.63,-96.28 122,-102.5 114.98,-105.7 107.23,-108.52 99.71,-110.91"/>
<polygon fill="#63b8ff" stroke="#63b8ff" points="163.05,-82.64 169.24,-74.04 159.04,-76.9 163.05,-82.64"/>
</a>
</g>
</g>
<!-- Node3 -->
<g id="Node000003" class="node">
<title>Node3</title>
<g id="a_Node000003"><a xlink:href="material__org_8c.html#ab38fdcdb1705e4b2bc3636edbb240c45" target="_top" xlink:title=" ">
<polygon fill="white" stroke="#666666" points="122,-93 0,-93 0,-74 122,-74 122,-93"/>
<text text-anchor="middle" x="61" y="-81" font-family="Helvetica,sans-Serif" font-size="10.00">CalcStressStrainMxyz</text>
</a>
</g>
</g>
<!-- Node1&#45;&gt;Node3 -->
<g id="edge2_Node000001_Node000003" class="edge">
<title>Node1&#45;&gt;Node3</title>
<g id="a_edge2_Node000001_Node000003"><a xlink:title=" ">
<path fill="none" stroke="#63b8ff" d="M147.78,-69.92C139.84,-71.17 131.17,-72.55 122.48,-73.92"/>
<polygon fill="#63b8ff" stroke="#63b8ff" points="148.39,-73.37 157.72,-68.34 147.29,-66.45 148.39,-73.37"/>
</a>
</g>
</g>
<!-- Node4 -->
<g id="Node000004" class="node">
<title>Node4</title>
<g id="a_Node000004"><a xlink:href="material__org_8c.html#a9f1f713b70651e8142b65bd4da7573e2" target="_top" xlink:title=" ">
<polygon fill="white" stroke="#666666" points="99.5,-56 22.5,-56 22.5,-37 99.5,-37 99.5,-56"/>
<text text-anchor="middle" x="61" y="-44" font-family="Helvetica,sans-Serif" font-size="10.00">StressLinear</text>
</a>
</g>
</g>
<!-- Node1&#45;&gt;Node4 -->
<g id="edge3_Node000001_Node000004" class="edge">
<title>Node1&#45;&gt;Node4</title>
<g id="a_edge3_Node000001_Node000004"><a xlink:title=" ">
<path fill="none" stroke="#63b8ff" d="M147.42,-59.31C132.57,-57.08 115.16,-54.47 99.95,-52.19"/>
<polygon fill="#63b8ff" stroke="#63b8ff" points="147.31,-62.84 157.72,-60.86 148.35,-55.91 147.31,-62.84"/>
</a>
</g>
</g>
<!-- Node5 -->
<g id="Node000005" class="node">
<title>Node5</title>
<g id="a_Node000005"><a xlink:href="material__org_8c.html#a514540fed999755d181cbe5b643c356f" target="_top" xlink:title=" ">
<polygon fill="white" stroke="#666666" points="109,-19 13,-19 13,0 109,0 109,-19"/>
<text text-anchor="middle" x="61" y="-7" font-family="Helvetica,sans-Serif" font-size="10.00">StressNonLinear</text>
</a>
</g>
</g>
<!-- Node1&#45;&gt;Node5 -->
<g id="edge4_Node000001_Node000005" class="edge">
<title>Node1&#45;&gt;Node5</title>
<g id="a_edge4_Node000001_Node000005"><a xlink:title=" ">
<path fill="none" stroke="#63b8ff" d="M159.65,-49.39C148.65,-42.39 134.98,-34.35 122,-28.5 114.13,-24.95 105.4,-21.78 97.1,-19.1"/>
<polygon fill="#63b8ff" stroke="#63b8ff" points="157.91,-52.43 168.2,-54.95 161.73,-46.56 157.91,-52.43"/>
</a>
</g>
</g>
</g>
</svg>
