<?xml version="1.0" encoding="UTF-8" standalone="no"?>
<!DOCTYPE svg PUBLIC "-//W3C//DTD SVG 1.1//EN"
 "http://www.w3.org/Graphics/SVG/1.1/DTD/svg11.dtd">
<!-- Generated by graphviz version 2.43.0 (0)
 -->
<!-- Title: MATMULT Pages: 1 -->
<!--zoomable 141 -->

<svg id="main" version="1.1" xmlns="http://www.w3.org/2000/svg" xmlns:xlink="http://www.w3.org/1999/xlink" xml:space="preserve" onload="init(evt)">
<style type="text/css"><![CDATA[
.node, .edge {opacity: 0.7;}
.node.selected, .edge.selected {opacity: 1;}
.edge:hover path { stroke: red; }
.edge:hover polygon { stroke: red; fill: red; }
]]></style>

<defs>
  <circle id="rim" cx="0" cy="0" r="7"/>
  <circle id="rim2" cx="0" cy="0" r="3.5"/>
  <g id="zoomPlus">
    <use xlink:href="#rim" fill="#404040"><set attributeName="fill" to="#808080" begin="zoomplus.mouseover" end="zoomplus.mouseout"/></use>
    <path d="M-4,0h8M0,-4v8" fill="none" stroke="white" stroke-width="1.5" pointer-events="none"/>
  </g>
  <g id="zoomMin">
    <use xlink:href="#rim" fill="#404040"><set attributeName="fill" to="#808080" begin="zoomminus.mouseover" end="zoomminus.mouseout"/></use>
    <path d="M-4,0h8" fill="none" stroke="white" stroke-width="1.5" pointer-events="none"/>
  </g>
  <g id="arrowUp" transform="translate(30 24)">
    <use xlink:href="#rim"/>
    <path pointer-events="none" fill="none" stroke="white" stroke-width="1.5" d="M0,-3.0v7 M-2.5,-0.5L0,-3.0L2.5,-0.5"/>
  </g>
  <g id="arrowRight" transform="rotate(90) translate(36 -43)">
    <use xlink:href="#rim"/>
    <path pointer-events="none" fill="none" stroke="white" stroke-width="1.5" d="M0,-3.0v7 M-2.5,-0.5L0,-3.0L2.5,-0.5"/>
  </g>
  <g id="arrowDown" transform="rotate(180) translate(-30 -48)">
    <use xlink:href="#rim"/>
    <path pointer-events="none" fill="none" stroke="white" stroke-width="1.5" d="M0,-3.0v7 M-2.5,-0.5L0,-3.0L2.5,-0.5"/>
  </g>
  <g id="arrowLeft" transform="rotate(270) translate(-36 17)">
    <use xlink:href="#rim"/>
    <path pointer-events="none" fill="none" stroke="white" stroke-width="1.5" d="M0,-3.0v7 M-2.5,-0.5L0,-3.0L2.5,-0.5"/>
  </g>
  <g id="resetDef">
    <use xlink:href="#rim2" fill="#404040"><set attributeName="fill" to="#808080" begin="reset.mouseover" end="reset.mouseout"/></use>
  </g>
</defs>
<script type="application/ecmascript">
var viewWidth = 865;
var viewHeight = 141;
var sectionId = 'dynsection-7';
</script>
<script type="application/ecmascript" xlink:href="svg.min.js"/>
<svg id="graph" class="graph">
<g id="viewport">
<title>MATMULT</title>
<!-- Node1 -->
<g id="Node000001" class="node">
<title>Node1</title>
<g id="a_Node000001"><a xlink:title=" ">
<polygon fill="#999999" stroke="#666666" points="857,-95 792,-95 792,-76 857,-76 857,-95"/>
<text text-anchor="middle" x="824.5" y="-83" font-family="Helvetica,sans-Serif" font-size="10.00">MATMULT</text>
</a>
</g>
</g>
<!-- Node2 -->
<g id="Node000002" class="node">
<title>Node2</title>
<g id="a_Node000002"><a xlink:href="math_8c.html#a832ef37ebeba5c46cadc9c452be4141a" target="_top" xlink:title=" ">
<polygon fill="white" stroke="#666666" points="756,-76 670,-76 670,-57 756,-57 756,-76"/>
<text text-anchor="middle" x="713" y="-64" font-family="Helvetica,sans-Serif" font-size="10.00">LowerIndices2</text>
</a>
</g>
</g>
<!-- Node1&#45;&gt;Node2 -->
<g id="edge1_Node000001_Node000002" class="edge">
<title>Node1&#45;&gt;Node2</title>
<g id="a_edge1_Node000001_Node000002"><a xlink:title=" ">
<path fill="none" stroke="#63b8ff" d="M781.86,-78.27C773.46,-76.82 764.62,-75.28 756.2,-73.82"/>
<polygon fill="#63b8ff" stroke="#63b8ff" points="781.38,-81.74 791.83,-80 782.57,-74.85 781.38,-81.74"/>
</a>
</g>
</g>
<!-- Node10 -->
<g id="Node000010" class="node">
<title>Node10</title>
<g id="a_Node000010"><a xlink:href="math_8c.html#a48112c11cc4a642f67482882a3fdb324" target="_top" xlink:title=" ">
<polygon fill="white" stroke="#666666" points="618.5,-133 534.5,-133 534.5,-114 618.5,-114 618.5,-133"/>
<text text-anchor="middle" x="576.5" y="-121" font-family="Helvetica,sans-Serif" font-size="10.00">RaiseIndices2</text>
</a>
</g>
</g>
<!-- Node1&#45;&gt;Node10 -->
<g id="edge10_Node000001_Node000010" class="edge">
<title>Node1&#45;&gt;Node10</title>
<g id="a_edge10_Node000001_Node000010"><a xlink:title=" ">
<path fill="none" stroke="#63b8ff" d="M781.74,-91.95C736.32,-98.97 664.15,-110.11 618.88,-117.11"/>
<polygon fill="#63b8ff" stroke="#63b8ff" points="782.49,-95.38 791.84,-90.39 781.43,-88.46 782.49,-95.38"/>
</a>
</g>
</g>
<!-- Node3 -->
<g id="Node000003" class="node">
<title>Node3</title>
<g id="a_Node000003"><a xlink:href="active__strain_8c.html#a3017cdcf59a9d394ac18948cec6e94cf" target="_top" xlink:title="Solve local thickness equation (C33) for one element.">
<polygon fill="white" stroke="#666666" points="477.5,-58 390.5,-58 390.5,-39 477.5,-39 477.5,-58"/>
<text text-anchor="middle" x="434" y="-46" font-family="Helvetica,sans-Serif" font-size="10.00">ElemC33Solve</text>
</a>
</g>
</g>
<!-- Node2&#45;&gt;Node3 -->
<g id="edge2_Node000002_Node000003" class="edge">
<title>Node2&#45;&gt;Node3</title>
<g id="a_edge2_Node000002_Node000003"><a xlink:title=" ">
<path fill="none" stroke="#63b8ff" d="M659.79,-63.11C607.18,-59.69 526.96,-54.48 477.92,-51.29"/>
<polygon fill="#63b8ff" stroke="#63b8ff" points="659.72,-66.61 669.93,-63.77 660.18,-59.63 659.72,-66.61"/>
</a>
</g>
</g>
<!-- Node8 -->
<g id="Node000008" class="node">
<title>Node8</title>
<g id="a_Node000008"><a xlink:href="active__strain_8c.html#ab28c3cc7b872159806c167f8162346ea" target="_top" xlink:title="Compute right Cauchy&#45;Green tensor and its inverse for one element.">
<polygon fill="white" stroke="#666666" points="481.5,-95 386.5,-95 386.5,-76 481.5,-76 481.5,-95"/>
<text text-anchor="middle" x="434" y="-83" font-family="Helvetica,sans-Serif" font-size="10.00">ElemCGDefTens</text>
</a>
</g>
</g>
<!-- Node2&#45;&gt;Node8 -->
<g id="edge6_Node000002_Node000008" class="edge">
<title>Node2&#45;&gt;Node8</title>
<g id="a_edge6_Node000002_Node000008"><a xlink:title=" ">
<path fill="none" stroke="#63b8ff" d="M659.72,-70.09C608.41,-73.61 530.91,-78.92 481.64,-82.3"/>
<polygon fill="#63b8ff" stroke="#63b8ff" points="660.19,-73.56 669.93,-69.39 659.71,-66.58 660.19,-73.56"/>
</a>
</g>
</g>
<!-- Node9 -->
<g id="Node000009" class="node">
<title>Node9</title>
<g id="a_Node000009"><a xlink:href="active__strain_8c.html#adca02351c999668546fc922e1806d090" target="_top" xlink:title="Compute elastic right Cauchy&#45;Green tensor for one element.">
<polygon fill="white" stroke="#666666" points="634,-19 519,-19 519,0 634,0 634,-19"/>
<text text-anchor="middle" x="576.5" y="-7" font-family="Helvetica,sans-Serif" font-size="10.00">ElemElasCGDefTens</text>
</a>
</g>
</g>
<!-- Node2&#45;&gt;Node9 -->
<g id="edge8_Node000002_Node000009" class="edge">
<title>Node2&#45;&gt;Node9</title>
<g id="a_edge8_Node000002_Node000009"><a xlink:title=" ">
<path fill="none" stroke="#63b8ff" d="M680.19,-53.02C655.56,-42.58 622.03,-28.37 600.09,-19.07"/>
<polygon fill="#63b8ff" stroke="#63b8ff" points="678.91,-56.28 689.49,-56.96 681.65,-49.83 678.91,-56.28"/>
</a>
</g>
</g>
<!-- Node4 -->
<g id="Node000004" class="node">
<title>Node4</title>
<g id="a_Node000004"><a xlink:href="active__strain_8c.html#a693fb698122674ff7df6dd47ac75167c" target="_top" xlink:title="Run per&#45;element precomputations before global internal&#45;force assembly.">
<polygon fill="white" stroke="#666666" points="349,-95 252,-95 252,-76 349,-76 349,-95"/>
<text text-anchor="middle" x="300.5" y="-83" font-family="Helvetica,sans-Serif" font-size="10.00">FInternalPreCalc</text>
</a>
</g>
</g>
<!-- Node3&#45;&gt;Node4 -->
<g id="edge3_Node000003_Node000004" class="edge">
<title>Node3&#45;&gt;Node4</title>
<g id="a_edge3_Node000003_Node000004"><a xlink:title=" ">
<path fill="none" stroke="#63b8ff" d="M389.19,-60.83C371.78,-65.73 352.04,-71.28 335.71,-75.88"/>
<polygon fill="#63b8ff" stroke="#63b8ff" points="390.46,-64.11 399.14,-58.03 388.56,-57.37 390.46,-64.11"/>
</a>
</g>
</g>
<!-- Node5 -->
<g id="Node000005" class="node">
<title>Node5</title>
<g id="a_Node000005"><a xlink:href="active__strain_8c.html#a3bac899c10052c346d2afe9eccbac71d" target="_top" xlink:title="Assemble global internal force vector for active&#45;strain mechanics.">
<polygon fill="white" stroke="#666666" points="216,-95 140,-95 140,-76 216,-76 216,-95"/>
<text text-anchor="middle" x="178" y="-83" font-family="Helvetica,sans-Serif" font-size="10.00">FInternalAct</text>
</a>
</g>
</g>
<!-- Node4&#45;&gt;Node5 -->
<g id="edge4_Node000004_Node000005" class="edge">
<title>Node4&#45;&gt;Node5</title>
<g id="a_edge4_Node000004_Node000005"><a xlink:title=" ">
<path fill="none" stroke="#63b8ff" d="M241.77,-85.5C233.09,-85.5 224.34,-85.5 216.25,-85.5"/>
<polygon fill="#63b8ff" stroke="#63b8ff" points="241.88,-89 251.88,-85.5 241.88,-82 241.88,-89"/>
</a>
</g>
</g>
<!-- Node6 -->
<g id="Node000006" class="node">
<title>Node6</title>
<g id="a_Node000006"><a xlink:href="main_8c.html#a9a070a6f408cadb404b0ee7fbc74c576" target="_top" xlink:title=" ">
<polygon fill="#fff0f0" stroke="red" points="104,-95 0,-95 0,-76 104,-76 104,-95"/>
<text text-anchor="middle" x="52" y="-83" font-family="Helvetica,sans-Serif" font-size="10.00">FormFunctionFEM</text>
</a>
</g>
</g>
<!-- Node5&#45;&gt;Node6 -->
<g id="edge5_Node000005_Node000006" class="edge">
<title>Node5&#45;&gt;Node6</title>
<g id="a_edge5_Node000005_Node000006"><a xlink:title=" ">
<path fill="none" stroke="#63b8ff" d="M129.59,-85.5C121.35,-85.5 112.74,-85.5 104.39,-85.5"/>
<polygon fill="#63b8ff" stroke="#63b8ff" points="129.8,-89 139.8,-85.5 129.8,-82 129.8,-89"/>
</a>
</g>
</g>
<!-- Node8&#45;&gt;Node4 -->
<g id="edge7_Node000008_Node000004" class="edge">
<title>Node8&#45;&gt;Node4</title>
<g id="a_edge7_Node000008_Node000004"><a xlink:title=" ">
<path fill="none" stroke="#63b8ff" d="M376,-85.5C367.13,-85.5 358.05,-85.5 349.41,-85.5"/>
<polygon fill="#63b8ff" stroke="#63b8ff" points="376.27,-89 386.27,-85.5 376.27,-82 376.27,-89"/>
</a>
</g>
</g>
<!-- Node9&#45;&gt;Node3 -->
<g id="edge9_Node000009_Node000003" class="edge">
<title>Node9&#45;&gt;Node3</title>
<g id="a_edge9_Node000009_Node000003"><a xlink:title=" ">
<path fill="none" stroke="#63b8ff" d="M531.33,-21.76C511.38,-27.3 488.15,-33.75 469.5,-38.92"/>
<polygon fill="#63b8ff" stroke="#63b8ff" points="532.43,-25.09 541.13,-19.04 530.56,-18.34 532.43,-25.09"/>
</a>
</g>
</g>
<!-- Node10&#45;&gt;Node3 -->
<g id="edge13_Node000010_Node000003" class="edge">
<title>Node10&#45;&gt;Node3</title>
<g id="a_edge13_Node000010_Node000003"><a xlink:title=" ">
<path fill="none" stroke="#63b8ff" d="M552.65,-108.19C534.29,-96.25 507.6,-79.71 483,-67.5 476.18,-64.11 468.59,-60.88 461.5,-58.07"/>
<polygon fill="#63b8ff" stroke="#63b8ff" points="550.91,-111.23 561.19,-113.8 554.75,-105.38 550.91,-111.23"/>
</a>
</g>
</g>
<!-- Node10&#45;&gt;Node8 -->
<g id="edge14_Node000010_Node000008" class="edge">
<title>Node10&#45;&gt;Node8</title>
<g id="a_edge14_Node000010_Node000008"><a xlink:title=" ">
<path fill="none" stroke="#63b8ff" d="M530.22,-111.25C510.86,-106.02 488.58,-99.99 470.44,-95.09"/>
<polygon fill="#63b8ff" stroke="#63b8ff" points="529.48,-114.68 540.05,-113.91 531.31,-107.92 529.48,-114.68"/>
</a>
</g>
</g>
<!-- Node11 -->
<g id="Node000011" class="node">
<title>Node11</title>
<g id="a_Node000011"><a xlink:href="active__strain_8c.html#ade5fbd2ac288952d9b05edaa3cfab167" target="_top" xlink:title="Compute active deformation gradient for one element.">
<polygon fill="white" stroke="#666666" points="483,-132 385,-132 385,-113 483,-113 483,-132"/>
<text text-anchor="middle" x="434" y="-120" font-family="Helvetica,sans-Serif" font-size="10.00">ElemActDefGrad</text>
</a>
</g>
</g>
<!-- Node10&#45;&gt;Node11 -->
<g id="edge11_Node000010_Node000011" class="edge">
<title>Node10&#45;&gt;Node11</title>
<g id="a_edge11_Node000010_Node000011"><a xlink:title=" ">
<path fill="none" stroke="#63b8ff" d="M524.39,-123.14C510.88,-123.04 496.35,-122.94 483.01,-122.84"/>
<polygon fill="#63b8ff" stroke="#63b8ff" points="524.46,-126.64 534.48,-123.21 524.51,-119.64 524.46,-126.64"/>
</a>
</g>
</g>
<!-- Node11&#45;&gt;Node4 -->
<g id="edge12_Node000011_Node000004" class="edge">
<title>Node11&#45;&gt;Node4</title>
<g id="a_edge12_Node000011_Node000004"><a xlink:title=" ">
<path fill="none" stroke="#63b8ff" d="M389.19,-110.17C371.78,-105.27 352.04,-99.72 335.71,-95.12"/>
<polygon fill="#63b8ff" stroke="#63b8ff" points="388.56,-113.63 399.14,-112.97 390.46,-106.89 388.56,-113.63"/>
</a>
</g>
</g>
</g>
</svg>

<g id="navigator" transform="translate(0 0)" fill="#404254">
  <rect fill="#f2f5e9" fill-opacity="0.5" stroke="#606060" stroke-width=".5" x="0" y="0" width="60" height="60"/>
  <use id="zoomplus" xlink:href="#zoomPlus" x="17" y="9" onmousedown="handleZoom(evt,'in')"/>
  <use id="zoomminus" xlink:href="#zoomMin" x="42" y="9" onmousedown="handleZoom(evt,'out')"/>
  <use id="reset" xlink:href="#resetDef" x="30" y="36" onmousedown="handleReset()"/>
   <use id="arrowup" xlink:href="#arrowUp" x="0" y="0" onmousedown="handlePan(0,-1)"/>
  <use id="arrowright" xlink:href="#arrowRight" x="0" y="0" onmousedown="handlePan(1,0)"/>
  <use id="arrowdown" xlink:href="#arrowDown" x="0" y="0" onmousedown="handlePan(0,1)"/>
  <use id="arrowleft" xlink:href="#arrowLeft" x="0" y="0" onmousedown="handlePan(-1,0)"/>
</g>
<svg viewBox="0 0 15 15" width="100%" height="30px" preserveAspectRatio="xMaxYMin meet">
 <g id="arrow_out" transform="scale(0.3 0.3)">
  <a xlink:href="material_8c_acc306f8ca980a4b39cd6b29af1e2f92f_icgraph_org.svg" target="_base">
   <rect id="button" ry="5" rx="5" y="6" x="6" height="38" width="38"
        fill="#f2f5e9" fill-opacity="0.5" stroke="#606060" stroke-width="1.0"/>
   <path id="arrow"
     d="M 11.500037,31.436501 C 11.940474,20.09759 22.043105,11.32322 32.158766,21.979434 L 37.068811,17.246167 C 37.068811,17.246167 37.088388,32 37.088388,32 L 22.160133,31.978069 C 22.160133,31.978069 26.997745,27.140456 26.997745,27.140456 C 18.528582,18.264221 13.291696,25.230495 11.500037,31.436501 z"
     style="fill:#404040;"/>
  </a>
 </g>
</svg>

<style type='text/css'>
<![CDATA[
[data-mouse-over-selected='false'] { opacity: 0.7; }
[data-mouse-over-selected='true']  { opacity: 1.0; }
]]>
</style>
<script type="application/ecmascript"><![CDATA[
document.addEventListener('DOMContentLoaded', (event) => {
  highlightEdges();
  highlightAdjacentNodes();
});
]]></script>
</svg>
