<?xml version="1.0" encoding="UTF-8" standalone="no"?>
<!DOCTYPE svg PUBLIC "-//W3C//DTD SVG 1.1//EN"
 "http://www.w3.org/Graphics/SVG/1.1/DTD/svg11.dtd">
<!-- Generated by graphviz version 2.43.0 (0)
 -->
<!-- Title: SIZE Pages: 1 -->
<svg width="204pt" height="101pt"
 viewBox="0.00 0.00 204.00 101.00" xmlns="http://www.w3.org/2000/svg" xmlns:xlink="http://www.w3.org/1999/xlink">

<svg id="main" version="1.1" xmlns="http://www.w3.org/2000/svg" xmlns:xlink="http://www.w3.org/1999/xlink" xml:space="preserve" onload="init(evt)">
<style type="text/css"><![CDATA[
.node, .edge {opacity: 0.7;}
.node.selected, .edge.selected {opacity: 1;}
.edge:hover path { stroke: red; }
.edge:hover polygon { stroke: red; fill: red; }
]]></style>
<script type="application/ecmascript" xlink:href="svg.min.js"/>
<svg id="graph" class="graph">
<g id="graph0" class="graph" transform="scale(1 1) rotate(0) translate(4 97)">
<title>SIZE</title>
<!-- Node1 -->
<g id="Node000001" class="node">
<title>Node1</title>
<g id="a_Node000001"><a xlink:title=" ">
<polygon fill="#999999" stroke="#666666" points="196,-56 158,-56 158,-37 196,-37 196,-56"/>
<text text-anchor="middle" x="177" y="-44" font-family="Helvetica,sans-Serif" font-size="10.00">SIZE</text>
</a>
</g>
</g>
<!-- Node2 -->
<g id="Node000002" class="node">
<title>Node2</title>
<g id="a_Node000002"><a xlink:href="material__org_8c.html#a5b99da62b0de397a913c1c424cea6f87" target="_top" xlink:title=" ">
<polygon fill="white" stroke="#666666" points="121,-93 1,-93 1,-74 121,-74 121,-93"/>
<text text-anchor="middle" x="61" y="-81" font-family="Helvetica,sans-Serif" font-size="10.00">CalcStressStrainBxyz</text>
</a>
</g>
</g>
<!-- Node1&#45;&gt;Node2 -->
<g id="edge1_Node000001_Node000002" class="edge">
<title>Node1&#45;&gt;Node2</title>
<g id="a_edge1_Node000001_Node000002"><a xlink:title=" ">
<path fill="none" stroke="#63b8ff" d="M147.94,-56.65C139.62,-59.59 130.46,-62.74 122,-65.5 113.21,-68.36 103.64,-71.31 94.78,-73.97"/>
<polygon fill="#63b8ff" stroke="#63b8ff" points="149.33,-59.87 157.58,-53.22 146.98,-53.28 149.33,-59.87"/>
</a>
</g>
</g>
<!-- Node3 -->
<g id="Node000003" class="node">
<title>Node3</title>
<g id="a_Node000003"><a xlink:href="material__org_8c.html#ab38fdcdb1705e4b2bc3636edbb240c45" target="_top" xlink:title=" ">
<polygon fill="white" stroke="#666666" points="122,-56 0,-56 0,-37 122,-37 122,-56"/>
<text text-anchor="middle" x="61" y="-44" font-family="Helvetica,sans-Serif" font-size="10.00">CalcStressStrainMxyz</text>
</a>
</g>
</g>
<!-- Node1&#45;&gt;Node3 -->
<g id="edge2_Node000001_Node000003" class="edge">
<title>Node1&#45;&gt;Node3</title>
<g id="a_edge2_Node000001_Node000003"><a xlink:title=" ">
<path fill="none" stroke="#63b8ff" d="M147.71,-46.5C139.96,-46.5 131.26,-46.5 122.44,-46.5"/>
<polygon fill="#63b8ff" stroke="#63b8ff" points="147.94,-50 157.94,-46.5 147.94,-43 147.94,-50"/>
</a>
</g>
</g>
<!-- Node4 -->
<g id="Node000004" class="node">
<title>Node4</title>
<g id="a_Node000004"><a xlink:href="material__org_8c.html#a514540fed999755d181cbe5b643c356f" target="_top" xlink:title=" ">
<polygon fill="white" stroke="#666666" points="109,-19 13,-19 13,0 109,0 109,-19"/>
<text text-anchor="middle" x="61" y="-7" font-family="Helvetica,sans-Serif" font-size="10.00">StressNonLinear</text>
</a>
</g>
</g>
<!-- Node1&#45;&gt;Node4 -->
<g id="edge3_Node000001_Node000004" class="edge">
<title>Node1&#45;&gt;Node4</title>
<g id="a_edge3_Node000001_Node000004"><a xlink:title=" ">
<path fill="none" stroke="#63b8ff" d="M147.88,-37.04C139.56,-34.26 130.42,-31.24 122,-28.5 112.44,-25.39 102,-22.07 92.55,-19.08"/>
<polygon fill="#63b8ff" stroke="#63b8ff" points="146.93,-40.41 157.53,-40.27 149.16,-33.77 146.93,-40.41"/>
</a>
</g>
</g>
</g>
</svg>
</svg>

<style type='text/css'>
<![CDATA[
[data-mouse-over-selected='false'] { opacity: 0.7; }
[data-mouse-over-selected='true']  { opacity: 1.0; }
]]>
</style>
<script type="application/ecmascript"><![CDATA[
document.addEventListener('DOMContentLoaded', (event) => {
  highlightEdges();
  highlightAdjacentNodes();
});
]]></script>
</svg>
