<?xml version="1.0" encoding="UTF-8" standalone="no"?>
<!DOCTYPE svg PUBLIC "-//W3C//DTD SVG 1.1//EN"
 "http://www.w3.org/Graphics/SVG/1.1/DTD/svg11.dtd">
<!-- Generated by graphviz version 2.43.0 (0)
 -->
<!-- Title: DOT Pages: 1 -->
<svg width="1057pt" height="338pt"
 viewBox="0.00 0.00 1057.00 338.00" xmlns="http://www.w3.org/2000/svg" xmlns:xlink="http://www.w3.org/1999/xlink">
<g id="graph0" class="graph" transform="scale(1 1) rotate(0) translate(4 334)">
<title>DOT</title>
<!-- Node1 -->
<g id="Node000001" class="node">
<title>Node1</title>
<g id="a_Node000001"><a xlink:title=" ">
<polygon fill="#999999" stroke="#666666" points="1049,-265 1011,-265 1011,-246 1049,-246 1049,-265"/>
<text text-anchor="middle" x="1030" y="-253" font-family="Helvetica,sans-Serif" font-size="10.00">DOT</text>
</a>
</g>
</g>
<!-- Node2 -->
<g id="Node000002" class="node">
<title>Node2</title>
<g id="a_Node000002"><a xlink:href="material_8c.html#af81ecf5fbfd52082e0abd3184f12c14f" target="_top" xlink:title=" ">
<polygon fill="white" stroke="#666666" points="968.5,-284 862.5,-284 862.5,-265 968.5,-265 968.5,-284"/>
<text text-anchor="middle" x="915.5" y="-272" font-family="Helvetica,sans-Serif" font-size="10.00">BendingNonLinear</text>
</a>
</g>
</g>
<!-- Node1&#45;&gt;Node2 -->
<g id="edge1_Node000001_Node000002" class="edge">
<title>Node1&#45;&gt;Node2</title>
<g id="a_edge1_Node000001_Node000002"><a xlink:title=" ">
<path fill="none" stroke="#63b8ff" d="M1000.94,-260.24C991.1,-261.9 979.71,-263.82 968.54,-265.71"/>
<polygon fill="#63b8ff" stroke="#63b8ff" points="1001.65,-263.67 1010.92,-258.55 1000.48,-256.77 1001.65,-263.67"/>
</a>
</g>
</g>
<!-- Node20 -->
<g id="Node000020" class="node">
<title>Node20</title>
<g id="a_Node000020"><a xlink:href="material_8c.html#aa93862cca1fe83c736219df7d4a91374" target="_top" xlink:title=" ">
<polygon fill="white" stroke="#666666" points="975,-321 856,-321 856,-302 975,-302 975,-321"/>
<text text-anchor="middle" x="915.5" y="-309" font-family="Helvetica,sans-Serif" font-size="10.00">MembraneNonLinear</text>
</a>
</g>
</g>
<!-- Node1&#45;&gt;Node20 -->
<g id="edge24_Node000001_Node000020" class="edge">
<title>Node1&#45;&gt;Node20</title>
<g id="a_edge24_Node000001_Node000020"><a xlink:title=" ">
<path fill="none" stroke="#63b8ff" d="M1009.71,-271.32C999.8,-278.85 987.26,-287.49 975,-293.5 968.32,-296.77 960.92,-299.6 953.69,-301.99"/>
<polygon fill="#63b8ff" stroke="#63b8ff" points="1011.95,-274.01 1017.66,-265.09 1007.63,-268.5 1011.95,-274.01"/>
</a>
</g>
</g>
<!-- Node22 -->
<g id="Node000022" class="node">
<title>Node22</title>
<g id="a_Node000022"><a xlink:href="material_8c.html#a431e1e9b5ceabfa4edc2920b70296b35" target="_top" xlink:title=" ">
<polygon fill="white" stroke="#666666" points="954,-247 877,-247 877,-228 954,-228 954,-247"/>
<text text-anchor="middle" x="915.5" y="-235" font-family="Helvetica,sans-Serif" font-size="10.00">StressLinear</text>
</a>
</g>
</g>
<!-- Node1&#45;&gt;Node22 -->
<g id="edge29_Node000001_Node000022" class="edge">
<title>Node1&#45;&gt;Node22</title>
<g id="a_edge29_Node000001_Node000022"><a xlink:title=" ">
<path fill="none" stroke="#63b8ff" d="M1000.82,-250.99C986.68,-248.73 969.36,-245.96 954.11,-243.52"/>
<polygon fill="#63b8ff" stroke="#63b8ff" points="1000.5,-254.48 1010.92,-252.61 1001.6,-247.57 1000.5,-254.48"/>
</a>
</g>
</g>
<!-- Node23 -->
<g id="Node000023" class="node">
<title>Node23</title>
<g id="a_Node000023"><a xlink:href="material_8c.html#aad0d0c11a159f8021feb99ddee475d31" target="_top" xlink:title=" ">
<polygon fill="white" stroke="#666666" points="972.5,-210 858.5,-210 858.5,-191 972.5,-191 972.5,-210"/>
<text text-anchor="middle" x="915.5" y="-198" font-family="Helvetica,sans-Serif" font-size="10.00">StressManufactured</text>
</a>
</g>
</g>
<!-- Node1&#45;&gt;Node23 -->
<g id="edge32_Node000001_Node000023" class="edge">
<title>Node1&#45;&gt;Node23</title>
<g id="a_edge32_Node000001_Node000023"><a xlink:title=" ">
<path fill="none" stroke="#63b8ff" d="M1008.96,-239.62C999.15,-232.42 986.91,-224.25 975,-218.5 968.3,-215.27 960.89,-212.46 953.66,-210.08"/>
<polygon fill="#63b8ff" stroke="#63b8ff" points="1007.12,-242.61 1017.21,-245.86 1011.35,-237.03 1007.12,-242.61"/>
</a>
</g>
</g>
<!-- Node3 -->
<g id="Node000003" class="node">
<title>Node3</title>
<g id="a_Node000003"><a xlink:href="muscle__activation_8c.html#a19d89612f2544ef7f352badd7cf1f337" target="_top" xlink:title=" ">
<polygon fill="white" stroke="#666666" points="820,-292.5 695,-292.5 695,-262.5 820,-262.5 820,-292.5"/>
<text text-anchor="start" x="703" y="-280.5" font-family="Helvetica,sans-Serif" font-size="10.00">compute_mid_surface</text>
<text text-anchor="middle" x="757.5" y="-269.5" font-family="Helvetica,sans-Serif" font-size="10.00">_el_stress_after_act</text>
</a>
</g>
</g>
<!-- Node2&#45;&gt;Node3 -->
<g id="edge2_Node000002_Node000003" class="edge">
<title>Node2&#45;&gt;Node3</title>
<g id="a_edge2_Node000002_Node000003"><a xlink:title=" ">
<path fill="none" stroke="#63b8ff" d="M851.84,-275.7C841.41,-275.91 830.6,-276.11 820.19,-276.31"/>
<polygon fill="#63b8ff" stroke="#63b8ff" points="852.19,-279.2 862.12,-275.51 852.05,-272.2 852.19,-279.2"/>
</a>
</g>
</g>
<!-- Node6 -->
<g id="Node000006" class="node">
<title>Node6</title>
<g id="a_Node000006"><a xlink:href="bending_8c.html#a2b66770553fce4724cfb65b0f79e83b1" target="_top" xlink:title=" ">
<polygon fill="white" stroke="#666666" points="788.5,-244 726.5,-244 726.5,-225 788.5,-225 788.5,-244"/>
<text text-anchor="middle" x="757.5" y="-232" font-family="Helvetica,sans-Serif" font-size="10.00">Fbending</text>
</a>
</g>
</g>
<!-- Node2&#45;&gt;Node6 -->
<g id="edge5_Node000002_Node000006" class="edge">
<title>Node2&#45;&gt;Node6</title>
<g id="a_edge5_Node000002_Node000006"><a xlink:title=" ">
<path fill="none" stroke="#63b8ff" d="M867.25,-262.39C841.66,-255.82 810.81,-247.91 788.51,-242.2"/>
<polygon fill="#63b8ff" stroke="#63b8ff" points="866.58,-265.83 877.13,-264.92 868.32,-259.04 866.58,-265.83"/>
</a>
</g>
</g>
<!-- Node4 -->
<g id="Node000004" class="node">
<title>Node4</title>
<g id="a_Node000004"><a xlink:href="muscle__activation_8c.html#a3f9fadbc31e4872a8519e6bfdecf7b8f" target="_top" xlink:title=" ">
<polygon fill="white" stroke="#666666" points="659,-308.5 523,-308.5 523,-278.5 659,-278.5 659,-308.5"/>
<text text-anchor="start" x="531" y="-296.5" font-family="Helvetica,sans-Serif" font-size="10.00">update_mid_surf_elastic</text>
<text text-anchor="middle" x="591" y="-285.5" font-family="Helvetica,sans-Serif" font-size="10.00">_stress</text>
</a>
</g>
</g>
<!-- Node3&#45;&gt;Node4 -->
<g id="edge3_Node000003_Node000004" class="edge">
<title>Node3&#45;&gt;Node4</title>
<g id="a_edge3_Node000003_Node000004"><a xlink:title=" ">
<path fill="none" stroke="#63b8ff" d="M684.82,-284.47C676.25,-285.31 667.53,-286.15 659.03,-286.98"/>
<polygon fill="#63b8ff" stroke="#63b8ff" points="685.16,-287.96 694.78,-283.5 684.49,-280.99 685.16,-287.96"/>
</a>
</g>
</g>
<!-- Node5 -->
<g id="Node000005" class="node">
<title>Node5</title>
<g id="a_Node000005"><a xlink:href="muscle__activation_8c.html#a5794b91b41d38582fd698b653b53330e" target="_top" xlink:title=" ">
<polygon fill="white" stroke="#666666" points="487,-320 362,-320 362,-301 487,-301 487,-320"/>
<text text-anchor="middle" x="424.5" y="-308" font-family="Helvetica,sans-Serif" font-size="10.00">UpdateFInternalAftAct</text>
</a>
</g>
</g>
<!-- Node4&#45;&gt;Node5 -->
<g id="edge4_Node000004_Node000005" class="edge">
<title>Node4&#45;&gt;Node5</title>
<g id="a_edge4_Node000004_Node000005"><a xlink:title=" ">
<path fill="none" stroke="#63b8ff" d="M512.66,-301.49C504.13,-302.37 495.53,-303.26 487.23,-304.12"/>
<polygon fill="#63b8ff" stroke="#63b8ff" points="513.03,-304.97 522.62,-300.46 512.31,-298.01 513.03,-304.97"/>
</a>
</g>
</g>
<!-- Node7 -->
<g id="Node000007" class="node">
<title>Node7</title>
<g id="a_Node000007"><a xlink:href="main_8c.html#a59ccabe25c63661e6e66b44209b0f162" target="_top" xlink:title=" ">
<polygon fill="white" stroke="#666666" points="621,-244 561,-244 561,-225 621,-225 621,-244"/>
<text text-anchor="middle" x="591" y="-232" font-family="Helvetica,sans-Serif" font-size="10.00">FInternal</text>
</a>
</g>
</g>
<!-- Node6&#45;&gt;Node7 -->
<g id="edge6_Node000006_Node000007" class="edge">
<title>Node6&#45;&gt;Node7</title>
<g id="a_edge6_Node000006_Node000007"><a xlink:title=" ">
<path fill="none" stroke="#63b8ff" d="M715.98,-234.5C686.58,-234.5 647.51,-234.5 621.15,-234.5"/>
<polygon fill="#63b8ff" stroke="#63b8ff" points="716.33,-238 726.33,-234.5 716.33,-231 716.33,-238"/>
</a>
</g>
</g>
<!-- Node8 -->
<g id="Node000008" class="node">
<title>Node8</title>
<g id="a_Node000008"><a xlink:href="main_8c.html#aac0575d69dba68d64a6c0f65c2d8f635" target="_top" xlink:title=" ">
<polygon fill="white" stroke="#666666" points="451.5,-113 397.5,-113 397.5,-94 451.5,-94 451.5,-113"/>
<text text-anchor="middle" x="424.5" y="-101" font-family="Helvetica,sans-Serif" font-size="10.00">Contact</text>
</a>
</g>
</g>
<!-- Node7&#45;&gt;Node8 -->
<g id="edge7_Node000007_Node000008" class="edge">
<title>Node7&#45;&gt;Node8</title>
<g id="a_edge7_Node000007_Node000008"><a xlink:title=" ">
<path fill="none" stroke="#63b8ff" d="M578.11,-216.11C560.97,-191.05 526.93,-146.43 487,-121.5 476.34,-114.84 463.1,-110.55 451.65,-107.84"/>
<polygon fill="#63b8ff" stroke="#63b8ff" points="575.37,-218.31 583.83,-224.68 581.19,-214.42 575.37,-218.31"/>
</a>
</g>
</g>
<!-- Node9 -->
<g id="Node000009" class="node">
<title>Node9</title>
<g id="a_Node000009"><a xlink:href="main_8c.html#a9a070a6f408cadb404b0ee7fbc74c576" target="_top" xlink:title=" ">
<polygon fill="white" stroke="#666666" points="181,-281 77,-281 77,-262 181,-262 181,-281"/>
<text text-anchor="middle" x="129" y="-269" font-family="Helvetica,sans-Serif" font-size="10.00">FormFunctionFEM</text>
</a>
</g>
</g>
<!-- Node7&#45;&gt;Node9 -->
<g id="edge8_Node000007_Node000009" class="edge">
<title>Node7&#45;&gt;Node9</title>
<g id="a_edge8_Node000007_Node000009"><a xlink:title=" ">
<path fill="none" stroke="#63b8ff" d="M550.86,-240.48C531.66,-243.25 508.16,-246.38 487,-248.5 378.39,-259.37 250.65,-266.15 181.23,-269.34"/>
<polygon fill="#63b8ff" stroke="#63b8ff" points="551.37,-243.95 560.76,-239.04 550.36,-237.02 551.37,-243.95"/>
</a>
</g>
</g>
<!-- Node11 -->
<g id="Node000011" class="node">
<title>Node11</title>
<g id="a_Node000011"><a xlink:href="main_8c.html#ad3a8e8f5b2e1871122784b2cd3dc1c8c" target="_top" xlink:title=" ">
<polygon fill="white" stroke="#666666" points="156.5,-244 101.5,-244 101.5,-225 156.5,-225 156.5,-244"/>
<text text-anchor="middle" x="129" y="-232" font-family="Helvetica,sans-Serif" font-size="10.00">FormRK</text>
</a>
</g>
</g>
<!-- Node7&#45;&gt;Node11 -->
<g id="edge10_Node000007_Node000011" class="edge">
<title>Node7&#45;&gt;Node11</title>
<g id="a_edge10_Node000007_Node000011"><a xlink:title=" ">
<path fill="none" stroke="#63b8ff" d="M550.66,-234.5C459.18,-234.5 234.1,-234.5 156.67,-234.5"/>
<polygon fill="#63b8ff" stroke="#63b8ff" points="550.88,-238 560.88,-234.5 550.88,-231 550.88,-238"/>
</a>
</g>
</g>
<!-- Node12 -->
<g id="Node000012" class="node">
<title>Node12</title>
<g id="a_Node000012"><a xlink:href="inverse_8c.html#a8ccb34384a9c46d52bb413dcd177c67b" target="_top" xlink:title=" ">
<polygon fill="white" stroke="#666666" points="464.5,-150 384.5,-150 384.5,-131 464.5,-131 464.5,-150"/>
<text text-anchor="middle" x="424.5" y="-138" font-family="Helvetica,sans-Serif" font-size="10.00">ResidualCalc</text>
</a>
</g>
</g>
<!-- Node7&#45;&gt;Node12 -->
<g id="edge12_Node000007_Node000012" class="edge">
<title>Node7&#45;&gt;Node12</title>
<g id="a_edge12_Node000007_Node000012"><a xlink:title=" ">
<path fill="none" stroke="#63b8ff" d="M564.43,-219.89C530.37,-200.43 471.07,-166.54 442.22,-150.06"/>
<polygon fill="#63b8ff" stroke="#63b8ff" points="562.9,-223.05 573.32,-224.97 566.38,-216.97 562.9,-223.05"/>
</a>
</g>
</g>
<!-- Node10 -->
<g id="Node000010" class="node">
<title>Node10</title>
<g id="a_Node000010"><a xlink:href="main_8c.html#a3c04138a5bfe5d72780bb7e82a18e627" target="_top" xlink:title=" ">
<polygon fill="white" stroke="#666666" points="41,-244 0,-244 0,-225 41,-225 41,-244"/>
<text text-anchor="middle" x="20.5" y="-232" font-family="Helvetica,sans-Serif" font-size="10.00">main</text>
</a>
</g>
</g>
<!-- Node9&#45;&gt;Node10 -->
<g id="edge9_Node000009_Node000010" class="edge">
<title>Node9&#45;&gt;Node10</title>
<g id="a_edge9_Node000009_Node000010"><a xlink:title=" ">
<path fill="none" stroke="#63b8ff" d="M91.02,-258.65C74.23,-252.82 55.06,-246.16 41.1,-241.31"/>
<polygon fill="#63b8ff" stroke="#63b8ff" points="89.98,-262 100.57,-261.97 92.28,-255.38 89.98,-262"/>
</a>
</g>
</g>
<!-- Node11&#45;&gt;Node10 -->
<g id="edge11_Node000011_Node000010" class="edge">
<title>Node11&#45;&gt;Node10</title>
<g id="a_edge11_Node000011_Node000010"><a xlink:title=" ">
<path fill="none" stroke="#63b8ff" d="M91.29,-234.5C74.42,-234.5 55.1,-234.5 41.07,-234.5"/>
<polygon fill="#63b8ff" stroke="#63b8ff" points="91.4,-238 101.4,-234.5 91.4,-231 91.4,-238"/>
</a>
</g>
</g>
<!-- Node13 -->
<g id="Node000013" class="node">
<title>Node13</title>
<g id="a_Node000013"><a xlink:href="mlp_8c.html#a95587eada79194109e216fe2d1536aa5" target="_top" xlink:title=" ">
<polygon fill="#fff0f0" stroke="red" points="307,-93 236,-93 236,-74 307,-74 307,-93"/>
<text text-anchor="middle" x="271.5" y="-81" font-family="Helvetica,sans-Serif" font-size="10.00">compute_R</text>
</a>
</g>
</g>
<!-- Node12&#45;&gt;Node13 -->
<g id="edge13_Node000012_Node000013" class="edge">
<title>Node12&#45;&gt;Node13</title>
<g id="a_edge13_Node000012_Node000013"><a xlink:title=" ">
<path fill="none" stroke="#63b8ff" d="M380.66,-127.88C374.37,-125.85 367.99,-123.69 362,-121.5 338.06,-112.75 311.22,-101.1 293.24,-93.02"/>
<polygon fill="#63b8ff" stroke="#63b8ff" points="379.83,-131.29 390.42,-130.96 381.93,-124.61 379.83,-131.29"/>
</a>
</g>
</g>
<!-- Node15 -->
<g id="Node000015" class="node">
<title>Node15</title>
<g id="a_Node000015"><a xlink:href="inverse_8c.html#a5a46d0c408c2a4905101ca00ed320825" target="_top" xlink:title=" ">
<polygon fill="white" stroke="#666666" points="312,-56 231,-56 231,-37 312,-37 312,-56"/>
<text text-anchor="middle" x="271.5" y="-44" font-family="Helvetica,sans-Serif" font-size="10.00">FungJacobian</text>
</a>
</g>
</g>
<!-- Node12&#45;&gt;Node15 -->
<g id="edge14_Node000012_Node000015" class="edge">
<title>Node12&#45;&gt;Node15</title>
<g id="a_edge14_Node000012_Node000015"><a xlink:title=" ">
<path fill="none" stroke="#63b8ff" d="M374.84,-129.13C370.27,-127.01 365.9,-124.49 362,-121.5 338.21,-103.28 349.56,-83.01 326,-64.5 321.68,-61.11 316.7,-58.34 311.54,-56.08"/>
<polygon fill="#63b8ff" stroke="#63b8ff" points="373.82,-132.49 384.4,-132.97 376.42,-126 373.82,-132.49"/>
</a>
</g>
</g>
<!-- Node16 -->
<g id="Node000016" class="node">
<title>Node16</title>
<g id="a_Node000016"><a xlink:href="inverse_8c.html#a63c0a7ac76584f0dab82764698b5d878" target="_top" xlink:title=" ">
<polygon fill="white" stroke="#666666" points="160,-150 98,-150 98,-131 160,-131 160,-150"/>
<text text-anchor="middle" x="129" y="-138" font-family="Helvetica,sans-Serif" font-size="10.00">InvSolver</text>
</a>
</g>
</g>
<!-- Node12&#45;&gt;Node16 -->
<g id="edge21_Node000012_Node000016" class="edge">
<title>Node12&#45;&gt;Node16</title>
<g id="a_edge21_Node000012_Node000016"><a xlink:title=" ">
<path fill="none" stroke="#63b8ff" d="M374.04,-140.5C312.87,-140.5 210.66,-140.5 160.14,-140.5"/>
<polygon fill="#63b8ff" stroke="#63b8ff" points="374.22,-144 384.22,-140.5 374.22,-137 374.22,-144"/>
</a>
</g>
</g>
<!-- Node17 -->
<g id="Node000017" class="node">
<title>Node17</title>
<g id="a_Node000017"><a xlink:href="inverse_8c.html#a6dcb60291ae68ad8fa0ccea39658279a" target="_top" xlink:title=" ">
<polygon fill="white" stroke="#666666" points="320.5,-19 222.5,-19 222.5,0 320.5,0 320.5,-19"/>
<text text-anchor="middle" x="271.5" y="-7" font-family="Helvetica,sans-Serif" font-size="10.00">FungUniJacobian</text>
</a>
</g>
</g>
<!-- Node12&#45;&gt;Node17 -->
<g id="edge17_Node000012_Node000017" class="edge">
<title>Node12&#45;&gt;Node17</title>
<g id="a_edge17_Node000012_Node000017"><a xlink:title=" ">
<path fill="none" stroke="#63b8ff" d="M374.92,-130.26C370.2,-127.92 365.78,-125.04 362,-121.5 329.34,-90.93 358.28,-58.48 326,-27.5 322.46,-24.11 318.27,-21.35 313.81,-19.12"/>
<polygon fill="#63b8ff" stroke="#63b8ff" points="373.66,-133.53 384.24,-134.14 376.35,-127.06 373.66,-133.53"/>
</a>
</g>
</g>
<!-- Node18 -->
<g id="Node000018" class="node">
<title>Node18</title>
<g id="a_Node000018"><a xlink:href="inverse_8c.html#ad779d411aa186efcdfb8e192c52d04b0" target="_top" xlink:title=" ">
<polygon fill="white" stroke="#666666" points="326,-206 217,-206 217,-187 326,-187 326,-206"/>
<text text-anchor="middle" x="271.5" y="-194" font-family="Helvetica,sans-Serif" font-size="10.00">grad_R_wrt_E_field</text>
</a>
</g>
</g>
<!-- Node12&#45;&gt;Node18 -->
<g id="edge19_Node000012_Node000018" class="edge">
<title>Node12&#45;&gt;Node18</title>
<g id="a_edge19_Node000012_Node000018"><a xlink:title=" ">
<path fill="none" stroke="#63b8ff" d="M389.16,-153.74C370.52,-160.87 347.03,-169.78 326,-177.5 317.49,-180.63 308.18,-183.96 299.76,-186.95"/>
<polygon fill="#63b8ff" stroke="#63b8ff" points="390.63,-156.92 398.71,-150.08 388.12,-150.39 390.63,-156.92"/>
</a>
</g>
</g>
<!-- Node19 -->
<g id="Node000019" class="node">
<title>Node19</title>
<g id="a_Node000019"><a xlink:href="inverse_8c.html#a9c6b1db7cc8e3f7771140e7920429ab3" target="_top" xlink:title=" ">
<polygon fill="white" stroke="#666666" points="300.5,-169 242.5,-169 242.5,-150 300.5,-150 300.5,-169"/>
<text text-anchor="middle" x="271.5" y="-157" font-family="Helvetica,sans-Serif" font-size="10.00">Jacobian</text>
</a>
</g>
</g>
<!-- Node12&#45;&gt;Node19 -->
<g id="edge22_Node000012_Node000019" class="edge">
<title>Node12&#45;&gt;Node19</title>
<g id="a_edge22_Node000012_Node000019"><a xlink:title=" ">
<path fill="none" stroke="#63b8ff" d="M374.07,-146.72C349.7,-149.79 321.21,-153.37 300.62,-155.96"/>
<polygon fill="#63b8ff" stroke="#63b8ff" points="374.74,-150.16 384.22,-145.44 373.86,-143.22 374.74,-150.16"/>
</a>
</g>
</g>
<!-- Node15&#45;&gt;Node16 -->
<g id="edge15_Node000015_Node000016" class="edge">
<title>Node15&#45;&gt;Node16</title>
<g id="a_edge15_Node000015_Node000016"><a xlink:title=" ">
<path fill="none" stroke="#63b8ff" d="M225.96,-59.95C222.86,-61.35 219.85,-62.87 217,-64.5 184.48,-83.18 153.05,-115.12 138.47,-130.98"/>
<polygon fill="#63b8ff" stroke="#63b8ff" points="227.45,-63.12 235.39,-56.1 224.8,-56.64 227.45,-63.12"/>
</a>
</g>
</g>
<!-- Node16&#45;&gt;Node10 -->
<g id="edge16_Node000016_Node000010" class="edge">
<title>Node16&#45;&gt;Node10</title>
<g id="a_edge16_Node000016_Node000010"><a xlink:title=" ">
<path fill="none" stroke="#63b8ff" d="M109.5,-156.83C87.18,-176.53 50.4,-208.99 32.28,-224.99"/>
<polygon fill="#63b8ff" stroke="#63b8ff" points="111.82,-159.45 117,-150.21 107.19,-154.2 111.82,-159.45"/>
</a>
</g>
</g>
<!-- Node17&#45;&gt;Node16 -->
<g id="edge18_Node000017_Node000016" class="edge">
<title>Node17&#45;&gt;Node16</title>
<g id="a_edge18_Node000017_Node000016"><a xlink:title=" ">
<path fill="none" stroke="#63b8ff" d="M223.52,-23.42C221.25,-24.68 219.06,-26.03 217,-27.5 176.69,-56.26 146.26,-109.05 134.88,-130.77"/>
<polygon fill="#63b8ff" stroke="#63b8ff" points="225.06,-26.57 232.58,-19.11 222.04,-20.25 225.06,-26.57"/>
</a>
</g>
</g>
<!-- Node18&#45;&gt;Node16 -->
<g id="edge20_Node000018_Node000016" class="edge">
<title>Node18&#45;&gt;Node16</title>
<g id="a_edge20_Node000018_Node000016"><a xlink:title=" ">
<path fill="none" stroke="#63b8ff" d="M233.05,-183.53C227.64,-181.56 222.17,-179.51 217,-177.5 194.52,-168.74 169.17,-157.84 151.66,-150.15"/>
<polygon fill="#63b8ff" stroke="#63b8ff" points="232.02,-186.88 242.61,-186.96 234.38,-180.29 232.02,-186.88"/>
</a>
</g>
</g>
<!-- Node19&#45;&gt;Node16 -->
<g id="edge23_Node000019_Node000016" class="edge">
<title>Node19&#45;&gt;Node16</title>
<g id="a_edge23_Node000019_Node000016"><a xlink:title=" ">
<path fill="none" stroke="#63b8ff" d="M232.47,-154.36C209.87,-151.3 181.6,-147.48 160.48,-144.62"/>
<polygon fill="#63b8ff" stroke="#63b8ff" points="232.03,-157.83 242.41,-155.7 232.96,-150.89 232.03,-157.83"/>
</a>
</g>
</g>
<!-- Node20&#45;&gt;Node3 -->
<g id="edge25_Node000020_Node000003" class="edge">
<title>Node20&#45;&gt;Node3</title>
<g id="a_edge25_Node000020_Node000003"><a xlink:title=" ">
<path fill="none" stroke="#63b8ff" d="M860.82,-299.8C847.69,-296.94 833.54,-293.86 820.08,-290.92"/>
<polygon fill="#63b8ff" stroke="#63b8ff" points="860.11,-303.23 870.63,-301.94 861.6,-296.39 860.11,-303.23"/>
</a>
</g>
</g>
<!-- Node20&#45;&gt;Node6 -->
<g id="edge26_Node000020_Node000006" class="edge">
<title>Node20&#45;&gt;Node6</title>
<g id="a_edge26_Node000020_Node000006"><a xlink:title=" ">
<path fill="none" stroke="#63b8ff" d="M863.81,-297.86C861.1,-296.53 858.48,-295.08 856,-293.5 835.84,-280.63 840.15,-266.38 820,-253.5 810.58,-247.48 799.14,-243.26 788.69,-240.36"/>
<polygon fill="#63b8ff" stroke="#63b8ff" points="862.71,-301.19 873.28,-301.92 865.47,-294.76 862.71,-301.19"/>
</a>
</g>
</g>
<!-- Node21 -->
<g id="Node000021" class="node">
<title>Node21</title>
<g id="a_Node000021"><a xlink:href="membrane_8c.html#a9fee56a81a4f404db4630a996f38013c" target="_top" xlink:title=" ">
<polygon fill="white" stroke="#666666" points="795.5,-330 719.5,-330 719.5,-311 795.5,-311 795.5,-330"/>
<text text-anchor="middle" x="757.5" y="-318" font-family="Helvetica,sans-Serif" font-size="10.00">Fmembrane</text>
</a>
</g>
</g>
<!-- Node20&#45;&gt;Node21 -->
<g id="edge27_Node000020_Node000021" class="edge">
<title>Node20&#45;&gt;Node21</title>
<g id="a_edge27_Node000020_Node000021"><a xlink:title=" ">
<path fill="none" stroke="#63b8ff" d="M845.89,-315.46C828.6,-316.46 810.68,-317.49 795.61,-318.36"/>
<polygon fill="#63b8ff" stroke="#63b8ff" points="846.19,-318.95 855.97,-314.88 845.78,-311.96 846.19,-318.95"/>
</a>
</g>
</g>
<!-- Node21&#45;&gt;Node7 -->
<g id="edge28_Node000021_Node000007" class="edge">
<title>Node21&#45;&gt;Node7</title>
<g id="a_edge28_Node000021_Node000007"><a xlink:title=" ">
<path fill="none" stroke="#63b8ff" d="M709.58,-308.33C704.53,-306.34 699.57,-304.07 695,-301.5 676.35,-290.99 676.62,-281.66 659,-269.5 644.63,-259.59 627.11,-250.53 613.59,-244.11"/>
<polygon fill="#63b8ff" stroke="#63b8ff" points="708.75,-311.75 719.34,-311.82 711.1,-305.16 708.75,-311.75"/>
</a>
</g>
</g>
<!-- Node22&#45;&gt;Node3 -->
<g id="edge30_Node000022_Node000003" class="edge">
<title>Node22&#45;&gt;Node3</title>
<g id="a_edge30_Node000022_Node000003"><a xlink:title=" ">
<path fill="none" stroke="#63b8ff" d="M867.11,-249.65C851.38,-253.68 833.67,-258.23 817.19,-262.45"/>
<polygon fill="#63b8ff" stroke="#63b8ff" points="868.32,-252.96 877.13,-247.08 866.58,-246.17 868.32,-252.96"/>
</a>
</g>
</g>
<!-- Node22&#45;&gt;Node6 -->
<g id="edge31_Node000022_Node000006" class="edge">
<title>Node22&#45;&gt;Node6</title>
<g id="a_edge31_Node000022_Node000006"><a xlink:title=" ">
<path fill="none" stroke="#63b8ff" d="M866.55,-236.58C841.14,-236.09 810.7,-235.5 788.61,-235.08"/>
<polygon fill="#63b8ff" stroke="#63b8ff" points="866.67,-240.08 876.74,-236.77 866.81,-233.08 866.67,-240.08"/>
</a>
</g>
</g>
<!-- Node23&#45;&gt;Node6 -->
<g id="edge33_Node000023_Node000006" class="edge">
<title>Node23&#45;&gt;Node6</title>
<g id="a_edge33_Node000023_Node000006"><a xlink:title=" ">
<path fill="none" stroke="#63b8ff" d="M860.56,-212.26C836.51,-217.5 809.08,-223.48 788.72,-227.91"/>
<polygon fill="#63b8ff" stroke="#63b8ff" points="861.6,-215.61 870.63,-210.06 860.11,-208.77 861.6,-215.61"/>
</a>
</g>
</g>
</g>
</svg>
