<?xml version="1.0" encoding="UTF-8" standalone="no"?>
<!DOCTYPE svg PUBLIC "-//W3C//DTD SVG 1.1//EN"
 "http://www.w3.org/Graphics/SVG/1.1/DTD/svg11.dtd">
<!-- Generated by graphviz version 2.43.0 (0)
 -->
<!-- Title: CROSS Pages: 1 -->
<svg width="216pt" height="175pt"
 viewBox="0.00 0.00 216.00 175.00" xmlns="http://www.w3.org/2000/svg" xmlns:xlink="http://www.w3.org/1999/xlink">
<g id="graph0" class="graph" transform="scale(1 1) rotate(0) translate(4 171)">
<title>CROSS</title>
<!-- Node1 -->
<g id="Node000001" class="node">
<title>Node1</title>
<g id="a_Node000001"><a xlink:title=" ">
<polygon fill="#999999" stroke="#666666" points="208,-93 158,-93 158,-74 208,-74 208,-93"/>
<text text-anchor="middle" x="183" y="-81" font-family="Helvetica,sans-Serif" font-size="10.00">CROSS</text>
</a>
</g>
</g>
<!-- Node2 -->
<g id="Node000002" class="node">
<title>Node2</title>
<g id="a_Node000002"><a xlink:href="material__NonlinearCantilever_8c.html#a5b99da62b0de397a913c1c424cea6f87" target="_top" xlink:title=" ">
<polygon fill="white" stroke="#666666" points="121,-167 1,-167 1,-148 121,-148 121,-167"/>
<text text-anchor="middle" x="61" y="-155" font-family="Helvetica,sans-Serif" font-size="10.00">CalcStressStrainBxyz</text>
</a>
</g>
</g>
<!-- Node1&#45;&gt;Node2 -->
<g id="edge1_Node000001_Node000002" class="edge">
<title>Node1&#45;&gt;Node2</title>
<g id="a_edge1_Node000001_Node000002"><a xlink:title=" ">
<path fill="none" stroke="#63b8ff" d="M167.19,-101.09C155.94,-113.44 139.47,-129.47 122,-139.5 116.15,-142.86 109.62,-145.64 103.07,-147.94"/>
<polygon fill="#63b8ff" stroke="#63b8ff" points="170.11,-103.07 174.09,-93.26 164.86,-98.45 170.11,-103.07"/>
</a>
</g>
</g>
<!-- Node3 -->
<g id="Node000003" class="node">
<title>Node3</title>
<g id="a_Node000003"><a xlink:href="material__NonlinearCantilever_8c.html#ab38fdcdb1705e4b2bc3636edbb240c45" target="_top" xlink:title=" ">
<polygon fill="white" stroke="#666666" points="122,-130 0,-130 0,-111 122,-111 122,-130"/>
<text text-anchor="middle" x="61" y="-118" font-family="Helvetica,sans-Serif" font-size="10.00">CalcStressStrainMxyz</text>
</a>
</g>
</g>
<!-- Node1&#45;&gt;Node3 -->
<g id="edge2_Node000001_Node000003" class="edge">
<title>Node1&#45;&gt;Node3</title>
<g id="a_edge2_Node000001_Node000003"><a xlink:title=" ">
<path fill="none" stroke="#63b8ff" d="M148.14,-94.32C139.62,-97.02 130.48,-99.89 122,-102.5 112.96,-105.29 103.13,-108.26 94.1,-110.97"/>
<polygon fill="#63b8ff" stroke="#63b8ff" points="149.32,-97.62 157.8,-91.26 147.21,-90.95 149.32,-97.62"/>
</a>
</g>
</g>
<!-- Node4 -->
<g id="Node000004" class="node">
<title>Node4</title>
<g id="a_Node000004"><a xlink:href="material__NonlinearCantilever_8c.html#a48cc3ee0ba7a58fe736b966314652fde" target="_top" xlink:title=" ">
<polygon fill="white" stroke="#666666" points="97.5,-93 24.5,-93 24.5,-74 97.5,-74 97.5,-93"/>
<text text-anchor="middle" x="61" y="-81" font-family="Helvetica,sans-Serif" font-size="10.00">InitMaterial</text>
</a>
</g>
</g>
<!-- Node1&#45;&gt;Node4 -->
<g id="edge3_Node000001_Node000004" class="edge">
<title>Node1&#45;&gt;Node4</title>
<g id="a_edge3_Node000001_Node000004"><a xlink:title=" ">
<path fill="none" stroke="#63b8ff" d="M147.42,-83.5C131.81,-83.5 113.37,-83.5 97.63,-83.5"/>
<polygon fill="#63b8ff" stroke="#63b8ff" points="147.72,-87 157.72,-83.5 147.72,-80 147.72,-87"/>
</a>
</g>
</g>
<!-- Node5 -->
<g id="Node000005" class="node">
<title>Node5</title>
<g id="a_Node000005"><a xlink:href="material__NonlinearCantilever_8c.html#a9f1f713b70651e8142b65bd4da7573e2" target="_top" xlink:title=" ">
<polygon fill="white" stroke="#666666" points="99.5,-56 22.5,-56 22.5,-37 99.5,-37 99.5,-56"/>
<text text-anchor="middle" x="61" y="-44" font-family="Helvetica,sans-Serif" font-size="10.00">StressLinear</text>
</a>
</g>
</g>
<!-- Node1&#45;&gt;Node5 -->
<g id="edge4_Node000001_Node000005" class="edge">
<title>Node1&#45;&gt;Node5</title>
<g id="a_edge4_Node000001_Node000005"><a xlink:title=" ">
<path fill="none" stroke="#63b8ff" d="M148.02,-73.02C130.76,-67.7 109.93,-61.28 93.1,-56.09"/>
<polygon fill="#63b8ff" stroke="#63b8ff" points="147.13,-76.41 157.72,-76.01 149.19,-69.72 147.13,-76.41"/>
</a>
</g>
</g>
<!-- Node6 -->
<g id="Node000006" class="node">
<title>Node6</title>
<g id="a_Node000006"><a xlink:href="material__NonlinearCantilever_8c.html#a514540fed999755d181cbe5b643c356f" target="_top" xlink:title=" ">
<polygon fill="white" stroke="#666666" points="109,-19 13,-19 13,0 109,0 109,-19"/>
<text text-anchor="middle" x="61" y="-7" font-family="Helvetica,sans-Serif" font-size="10.00">StressNonLinear</text>
</a>
</g>
</g>
<!-- Node1&#45;&gt;Node6 -->
<g id="edge5_Node000001_Node000006" class="edge">
<title>Node1&#45;&gt;Node6</title>
<g id="a_edge5_Node000001_Node000006"><a xlink:title=" ">
<path fill="none" stroke="#63b8ff" d="M167.09,-66.31C155.79,-54.23 139.29,-38.5 122,-28.5 115.47,-24.73 108.11,-21.61 100.83,-19.06"/>
<polygon fill="#63b8ff" stroke="#63b8ff" points="164.72,-68.91 174.03,-73.97 169.91,-64.21 164.72,-68.91"/>
</a>
</g>
</g>
</g>
</svg>
