<?xml version="1.0" encoding="UTF-8" standalone="no"?>
<!DOCTYPE svg PUBLIC "-//W3C//DTD SVG 1.1//EN"
 "http://www.w3.org/Graphics/SVG/1.1/DTD/svg11.dtd">
<!-- Generated by graphviz version 2.43.0 (0)
 -->
<!-- Title: StressLinear Pages: 1 -->
<!--zoomable 372 -->

<svg id="main" version="1.1" xmlns="http://www.w3.org/2000/svg" xmlns:xlink="http://www.w3.org/1999/xlink" xml:space="preserve" onload="init(evt)">
<style type="text/css"><![CDATA[
.node, .edge {opacity: 0.7;}
.node.selected, .edge.selected {opacity: 1;}
.edge:hover path { stroke: red; }
.edge:hover polygon { stroke: red; fill: red; }
]]></style>

<defs>
  <circle id="rim" cx="0" cy="0" r="7"/>
  <circle id="rim2" cx="0" cy="0" r="3.5"/>
  <g id="zoomPlus">
    <use xlink:href="#rim" fill="#404040"><set attributeName="fill" to="#808080" begin="zoomplus.mouseover" end="zoomplus.mouseout"/></use>
    <path d="M-4,0h8M0,-4v8" fill="none" stroke="white" stroke-width="1.5" pointer-events="none"/>
  </g>
  <g id="zoomMin">
    <use xlink:href="#rim" fill="#404040"><set attributeName="fill" to="#808080" begin="zoomminus.mouseover" end="zoomminus.mouseout"/></use>
    <path d="M-4,0h8" fill="none" stroke="white" stroke-width="1.5" pointer-events="none"/>
  </g>
  <g id="arrowUp" transform="translate(30 24)">
    <use xlink:href="#rim"/>
    <path pointer-events="none" fill="none" stroke="white" stroke-width="1.5" d="M0,-3.0v7 M-2.5,-0.5L0,-3.0L2.5,-0.5"/>
  </g>
  <g id="arrowRight" transform="rotate(90) translate(36 -43)">
    <use xlink:href="#rim"/>
    <path pointer-events="none" fill="none" stroke="white" stroke-width="1.5" d="M0,-3.0v7 M-2.5,-0.5L0,-3.0L2.5,-0.5"/>
  </g>
  <g id="arrowDown" transform="rotate(180) translate(-30 -48)">
    <use xlink:href="#rim"/>
    <path pointer-events="none" fill="none" stroke="white" stroke-width="1.5" d="M0,-3.0v7 M-2.5,-0.5L0,-3.0L2.5,-0.5"/>
  </g>
  <g id="arrowLeft" transform="rotate(270) translate(-36 17)">
    <use xlink:href="#rim"/>
    <path pointer-events="none" fill="none" stroke="white" stroke-width="1.5" d="M0,-3.0v7 M-2.5,-0.5L0,-3.0L2.5,-0.5"/>
  </g>
  <g id="resetDef">
    <use xlink:href="#rim2" fill="#404040"><set attributeName="fill" to="#808080" begin="reset.mouseover" end="reset.mouseout"/></use>
  </g>
</defs>
<script type="application/ecmascript">
var viewWidth = 941;
var viewHeight = 372;
var sectionId = 'dynsection-15';
</script>
<script type="application/ecmascript" xlink:href="svg.min.js"/>
<svg id="graph" class="graph">
<g id="viewport">
<title>StressLinear</title>
<!-- Node1 -->
<g id="Node000001" class="node">
<title>Node1</title>
<g id="a_Node000001"><a xlink:title=" ">
<polygon fill="#999999" stroke="#666666" points="933,-315 856,-315 856,-296 933,-296 933,-315"/>
<text text-anchor="middle" x="894.5" y="-303" font-family="Helvetica,sans-Serif" font-size="10.00">StressLinear</text>
</a>
</g>
</g>
<!-- Node2 -->
<g id="Node000002" class="node">
<title>Node2</title>
<g id="a_Node000002"><a xlink:href="muscle__activation_8c.html#a19d89612f2544ef7f352badd7cf1f337" target="_top" xlink:title=" ">
<polygon fill="white" stroke="#666666" points="820,-363.5 695,-363.5 695,-333.5 820,-333.5 820,-363.5"/>
<text text-anchor="start" x="703" y="-351.5" font-family="Helvetica,sans-Serif" font-size="10.00">compute_mid_surface</text>
<text text-anchor="middle" x="757.5" y="-340.5" font-family="Helvetica,sans-Serif" font-size="10.00">_el_stress_after_act</text>
</a>
</g>
</g>
<!-- Node1&#45;&gt;Node2 -->
<g id="edge1_Node000001_Node000002" class="edge">
<title>Node1&#45;&gt;Node2</title>
<g id="a_edge1_Node000001_Node000002"><a xlink:title=" ">
<path fill="none" stroke="#63b8ff" d="M853.96,-318.09C838.82,-322.92 821.39,-328.47 805.61,-333.49"/>
<polygon fill="#63b8ff" stroke="#63b8ff" points="855.07,-321.41 863.54,-315.04 852.95,-314.74 855.07,-321.41"/>
</a>
</g>
</g>
<!-- Node5 -->
<g id="Node000005" class="node">
<title>Node5</title>
<g id="a_Node000005"><a xlink:href="bending_8c.html#a2b66770553fce4724cfb65b0f79e83b1" target="_top" xlink:title=" ">
<polygon fill="white" stroke="#666666" points="788.5,-315 726.5,-315 726.5,-296 788.5,-296 788.5,-315"/>
<text text-anchor="middle" x="757.5" y="-303" font-family="Helvetica,sans-Serif" font-size="10.00">Fbending</text>
</a>
</g>
</g>
<!-- Node1&#45;&gt;Node5 -->
<g id="edge4_Node000001_Node000005" class="edge">
<title>Node1&#45;&gt;Node5</title>
<g id="a_edge4_Node000001_Node000005"><a xlink:title=" ">
<path fill="none" stroke="#63b8ff" d="M845.89,-305.5C826.85,-305.5 805.49,-305.5 788.65,-305.5"/>
<polygon fill="#63b8ff" stroke="#63b8ff" points="845.9,-309 855.89,-305.5 845.89,-302 845.9,-309"/>
</a>
</g>
</g>
<!-- Node19 -->
<g id="Node000019" class="node">
<title>Node19</title>
<g id="a_Node000019"><a xlink:href="membrane_8c.html#a9fee56a81a4f404db4630a996f38013c" target="_top" xlink:title=" ">
<polygon fill="white" stroke="#666666" points="795.5,-278 719.5,-278 719.5,-259 795.5,-259 795.5,-278"/>
<text text-anchor="middle" x="757.5" y="-266" font-family="Helvetica,sans-Serif" font-size="10.00">Fmembrane</text>
</a>
</g>
</g>
<!-- Node1&#45;&gt;Node19 -->
<g id="edge24_Node000001_Node000019" class="edge">
<title>Node1&#45;&gt;Node19</title>
<g id="a_edge24_Node000001_Node000019"><a xlink:title=" ">
<path fill="none" stroke="#63b8ff" d="M849.03,-293.31C831.03,-288.38 810.54,-282.76 793.62,-278.12"/>
<polygon fill="#63b8ff" stroke="#63b8ff" points="848.16,-296.7 858.73,-295.97 850.01,-289.95 848.16,-296.7"/>
</a>
</g>
</g>
<!-- Node3 -->
<g id="Node000003" class="node">
<title>Node3</title>
<g id="a_Node000003"><a xlink:href="muscle__activation_8c.html#a3f9fadbc31e4872a8519e6bfdecf7b8f" target="_top" xlink:title=" ">
<polygon fill="white" stroke="#666666" points="659,-363.5 523,-363.5 523,-333.5 659,-333.5 659,-363.5"/>
<text text-anchor="start" x="531" y="-351.5" font-family="Helvetica,sans-Serif" font-size="10.00">update_mid_surf_elastic</text>
<text text-anchor="middle" x="591" y="-340.5" font-family="Helvetica,sans-Serif" font-size="10.00">_stress</text>
</a>
</g>
</g>
<!-- Node2&#45;&gt;Node3 -->
<g id="edge2_Node000002_Node000003" class="edge">
<title>Node2&#45;&gt;Node3</title>
<g id="a_edge2_Node000002_Node000003"><a xlink:title=" ">
<path fill="none" stroke="#63b8ff" d="M684.54,-348.5C676.06,-348.5 667.43,-348.5 659.03,-348.5"/>
<polygon fill="#63b8ff" stroke="#63b8ff" points="684.78,-352 694.78,-348.5 684.78,-345 684.78,-352"/>
</a>
</g>
</g>
<!-- Node4 -->
<g id="Node000004" class="node">
<title>Node4</title>
<g id="a_Node000004"><a xlink:href="muscle__activation_8c.html#a5794b91b41d38582fd698b653b53330e" target="_top" xlink:title=" ">
<polygon fill="white" stroke="#666666" points="487,-358 362,-358 362,-339 487,-339 487,-358"/>
<text text-anchor="middle" x="424.5" y="-346" font-family="Helvetica,sans-Serif" font-size="10.00">UpdateFInternalAftAct</text>
</a>
</g>
</g>
<!-- Node3&#45;&gt;Node4 -->
<g id="edge3_Node000003_Node000004" class="edge">
<title>Node3&#45;&gt;Node4</title>
<g id="a_edge3_Node000003_Node000004"><a xlink:title=" ">
<path fill="none" stroke="#63b8ff" d="M512.38,-348.5C503.94,-348.5 495.44,-348.5 487.23,-348.5"/>
<polygon fill="#63b8ff" stroke="#63b8ff" points="512.62,-352 522.62,-348.5 512.62,-345 512.62,-352"/>
</a>
</g>
</g>
<!-- Node6 -->
<g id="Node000006" class="node">
<title>Node6</title>
<g id="a_Node000006"><a xlink:href="main_8c.html#a59ccabe25c63661e6e66b44209b0f162" target="_top" xlink:title=" ">
<polygon fill="white" stroke="#666666" points="621,-280 561,-280 561,-261 621,-261 621,-280"/>
<text text-anchor="middle" x="591" y="-268" font-family="Helvetica,sans-Serif" font-size="10.00">FInternal</text>
</a>
</g>
</g>
<!-- Node5&#45;&gt;Node6 -->
<g id="edge5_Node000005_Node000006" class="edge">
<title>Node5&#45;&gt;Node6</title>
<g id="a_edge5_Node000005_Node000006"><a xlink:title=" ">
<path fill="none" stroke="#63b8ff" d="M716.36,-296.96C686.92,-290.7 647.63,-282.34 621.15,-276.7"/>
<polygon fill="#63b8ff" stroke="#63b8ff" points="715.82,-300.42 726.33,-299.08 717.28,-293.58 715.82,-300.42"/>
</a>
</g>
</g>
<!-- Node7 -->
<g id="Node000007" class="node">
<title>Node7</title>
<g id="a_Node000007"><a xlink:href="main_8c.html#aac0575d69dba68d64a6c0f65c2d8f635" target="_top" xlink:title=" ">
<polygon fill="white" stroke="#666666" points="451.5,-320 397.5,-320 397.5,-301 451.5,-301 451.5,-320"/>
<text text-anchor="middle" x="424.5" y="-308" font-family="Helvetica,sans-Serif" font-size="10.00">Contact</text>
</a>
</g>
</g>
<!-- Node6&#45;&gt;Node7 -->
<g id="edge6_Node000006_Node000007" class="edge">
<title>Node6&#45;&gt;Node7</title>
<g id="a_edge6_Node000006_Node000007"><a xlink:title=" ">
<path fill="none" stroke="#63b8ff" d="M551.02,-279.98C520.29,-287.45 478.3,-297.66 451.53,-304.17"/>
<polygon fill="#63b8ff" stroke="#63b8ff" points="552.08,-283.32 560.97,-277.56 550.43,-276.52 552.08,-283.32"/>
</a>
</g>
</g>
<!-- Node8 -->
<g id="Node000008" class="node">
<title>Node8</title>
<g id="a_Node000008"><a xlink:href="main_8c.html#a9a070a6f408cadb404b0ee7fbc74c576" target="_top" xlink:title=" ">
<polygon fill="white" stroke="#666666" points="181,-281 77,-281 77,-262 181,-262 181,-281"/>
<text text-anchor="middle" x="129" y="-269" font-family="Helvetica,sans-Serif" font-size="10.00">FormFunctionFEM</text>
</a>
</g>
</g>
<!-- Node6&#45;&gt;Node8 -->
<g id="edge7_Node000006_Node000008" class="edge">
<title>Node6&#45;&gt;Node8</title>
<g id="a_edge7_Node000006_Node000008"><a xlink:title=" ">
<path fill="none" stroke="#63b8ff" d="M550.84,-270.59C467.78,-270.77 273.96,-271.19 181.21,-271.39"/>
<polygon fill="#63b8ff" stroke="#63b8ff" points="550.88,-274.09 560.88,-270.56 550.87,-267.09 550.88,-274.09"/>
</a>
</g>
</g>
<!-- Node10 -->
<g id="Node000010" class="node">
<title>Node10</title>
<g id="a_Node000010"><a xlink:href="main_8c.html#ad3a8e8f5b2e1871122784b2cd3dc1c8c" target="_top" xlink:title=" ">
<polygon fill="white" stroke="#666666" points="156.5,-244 101.5,-244 101.5,-225 156.5,-225 156.5,-244"/>
<text text-anchor="middle" x="129" y="-232" font-family="Helvetica,sans-Serif" font-size="10.00">FormRK</text>
</a>
</g>
</g>
<!-- Node6&#45;&gt;Node10 -->
<g id="edge9_Node000006_Node000010" class="edge">
<title>Node6&#45;&gt;Node10</title>
<g id="a_edge9_Node000006_Node000010"><a xlink:title=" ">
<path fill="none" stroke="#63b8ff" d="M550.66,-267.42C459.18,-260.26 234.1,-242.65 156.67,-236.59"/>
<polygon fill="#63b8ff" stroke="#63b8ff" points="550.63,-270.93 560.88,-268.22 551.18,-263.95 550.63,-270.93"/>
</a>
</g>
</g>
<!-- Node11 -->
<g id="Node000011" class="node">
<title>Node11</title>
<g id="a_Node000011"><a xlink:href="inverse_8c.html#a8ccb34384a9c46d52bb413dcd177c67b" target="_top" xlink:title=" ">
<polygon fill="white" stroke="#666666" points="464.5,-131 384.5,-131 384.5,-112 464.5,-112 464.5,-131"/>
<text text-anchor="middle" x="424.5" y="-119" font-family="Helvetica,sans-Serif" font-size="10.00">ResidualCalc</text>
</a>
</g>
</g>
<!-- Node6&#45;&gt;Node11 -->
<g id="edge11_Node000006_Node000011" class="edge">
<title>Node6&#45;&gt;Node11</title>
<g id="a_edge11_Node000006_Node000011"><a xlink:title=" ">
<path fill="none" stroke="#63b8ff" d="M571.71,-253.93C537.22,-222.7 463.59,-156 436.12,-131.12"/>
<polygon fill="#63b8ff" stroke="#63b8ff" points="569.45,-256.6 579.21,-260.72 574.14,-251.42 569.45,-256.6"/>
</a>
</g>
</g>
<!-- Node9 -->
<g id="Node000009" class="node">
<title>Node9</title>
<g id="a_Node000009"><a xlink:href="main_8c.html#a3c04138a5bfe5d72780bb7e82a18e627" target="_top" xlink:title=" ">
<polygon fill="white" stroke="#666666" points="41,-244 0,-244 0,-225 41,-225 41,-244"/>
<text text-anchor="middle" x="20.5" y="-232" font-family="Helvetica,sans-Serif" font-size="10.00">main</text>
</a>
</g>
</g>
<!-- Node8&#45;&gt;Node9 -->
<g id="edge8_Node000008_Node000009" class="edge">
<title>Node8&#45;&gt;Node9</title>
<g id="a_edge8_Node000008_Node000009"><a xlink:title=" ">
<path fill="none" stroke="#63b8ff" d="M91.02,-258.65C74.23,-252.82 55.06,-246.16 41.1,-241.31"/>
<polygon fill="#63b8ff" stroke="#63b8ff" points="89.98,-262 100.57,-261.97 92.28,-255.38 89.98,-262"/>
</a>
</g>
</g>
<!-- Node10&#45;&gt;Node9 -->
<g id="edge10_Node000010_Node000009" class="edge">
<title>Node10&#45;&gt;Node9</title>
<g id="a_edge10_Node000010_Node000009"><a xlink:title=" ">
<path fill="none" stroke="#63b8ff" d="M91.29,-234.5C74.42,-234.5 55.1,-234.5 41.07,-234.5"/>
<polygon fill="#63b8ff" stroke="#63b8ff" points="91.4,-238 101.4,-234.5 91.4,-231 91.4,-238"/>
</a>
</g>
</g>
<!-- Node12 -->
<g id="Node000012" class="node">
<title>Node12</title>
<g id="a_Node000012"><a xlink:href="mlp_8c.html#a95587eada79194109e216fe2d1536aa5" target="_top" xlink:title=" ">
<polygon fill="white" stroke="#666666" points="307,-206 236,-206 236,-187 307,-187 307,-206"/>
<text text-anchor="middle" x="271.5" y="-194" font-family="Helvetica,sans-Serif" font-size="10.00">compute_R</text>
</a>
</g>
</g>
<!-- Node11&#45;&gt;Node12 -->
<g id="edge12_Node000011_Node000012" class="edge">
<title>Node11&#45;&gt;Node12</title>
<g id="a_edge12_Node000011_Node000012"><a xlink:title=" ">
<path fill="none" stroke="#63b8ff" d="M400.02,-136.59C380.66,-148.64 352.21,-165.44 326,-177.5 318.48,-180.96 310.13,-184.2 302.31,-186.98"/>
<polygon fill="#63b8ff" stroke="#63b8ff" points="402.15,-139.39 408.75,-131.1 398.42,-133.46 402.15,-139.39"/>
</a>
</g>
</g>
<!-- Node14 -->
<g id="Node000014" class="node">
<title>Node14</title>
<g id="a_Node000014"><a xlink:href="inverse_8c.html#a5a46d0c408c2a4905101ca00ed320825" target="_top" xlink:title=" ">
<polygon fill="white" stroke="#666666" points="312,-169 231,-169 231,-150 312,-150 312,-169"/>
<text text-anchor="middle" x="271.5" y="-157" font-family="Helvetica,sans-Serif" font-size="10.00">FungJacobian</text>
</a>
</g>
</g>
<!-- Node11&#45;&gt;Node14 -->
<g id="edge14_Node000011_Node000014" class="edge">
<title>Node11&#45;&gt;Node14</title>
<g id="a_edge14_Node000011_Node000014"><a xlink:title=" ">
<path fill="none" stroke="#63b8ff" d="M375.66,-133.54C354.56,-138.85 330.12,-145 310.33,-149.98"/>
<polygon fill="#63b8ff" stroke="#63b8ff" points="376.55,-136.92 385.4,-131.09 374.84,-130.14 376.55,-136.92"/>
</a>
</g>
</g>
<!-- Node15 -->
<g id="Node000015" class="node">
<title>Node15</title>
<g id="a_Node000015"><a xlink:href="inverse_8c.html#a63c0a7ac76584f0dab82764698b5d878" target="_top" xlink:title=" ">
<polygon fill="white" stroke="#666666" points="160,-112 98,-112 98,-93 160,-93 160,-112"/>
<text text-anchor="middle" x="129" y="-100" font-family="Helvetica,sans-Serif" font-size="10.00">InvSolver</text>
</a>
</g>
</g>
<!-- Node11&#45;&gt;Node15 -->
<g id="edge21_Node000011_Node000015" class="edge">
<title>Node11&#45;&gt;Node15</title>
<g id="a_edge21_Node000011_Node000015"><a xlink:title=" ">
<path fill="none" stroke="#63b8ff" d="M374.04,-118.3C312.87,-114.34 210.66,-107.72 160.14,-104.45"/>
<polygon fill="#63b8ff" stroke="#63b8ff" points="374.02,-121.8 384.22,-118.96 374.47,-114.82 374.02,-121.8"/>
</a>
</g>
</g>
<!-- Node16 -->
<g id="Node000016" class="node">
<title>Node16</title>
<g id="a_Node000016"><a xlink:href="inverse_8c.html#a6dcb60291ae68ad8fa0ccea39658279a" target="_top" xlink:title=" ">
<polygon fill="white" stroke="#666666" points="320.5,-93 222.5,-93 222.5,-74 320.5,-74 320.5,-93"/>
<text text-anchor="middle" x="271.5" y="-81" font-family="Helvetica,sans-Serif" font-size="10.00">FungUniJacobian</text>
</a>
</g>
</g>
<!-- Node11&#45;&gt;Node16 -->
<g id="edge17_Node000011_Node000016" class="edge">
<title>Node11&#45;&gt;Node16</title>
<g id="a_edge17_Node000011_Node000016"><a xlink:title=" ">
<path fill="none" stroke="#63b8ff" d="M375.66,-109.46C354.56,-104.15 330.12,-98 310.33,-93.02"/>
<polygon fill="#63b8ff" stroke="#63b8ff" points="374.84,-112.86 385.4,-111.91 376.55,-106.08 374.84,-112.86"/>
</a>
</g>
</g>
<!-- Node17 -->
<g id="Node000017" class="node">
<title>Node17</title>
<g id="a_Node000017"><a xlink:href="inverse_8c.html#ad779d411aa186efcdfb8e192c52d04b0" target="_top" xlink:title=" ">
<polygon fill="white" stroke="#666666" points="326,-56 217,-56 217,-37 326,-37 326,-56"/>
<text text-anchor="middle" x="271.5" y="-44" font-family="Helvetica,sans-Serif" font-size="10.00">grad_R_wrt_E_field</text>
</a>
</g>
</g>
<!-- Node11&#45;&gt;Node17 -->
<g id="edge19_Node000011_Node000017" class="edge">
<title>Node11&#45;&gt;Node17</title>
<g id="a_edge19_Node000011_Node000017"><a xlink:title=" ">
<path fill="none" stroke="#63b8ff" d="M400.71,-106.38C381.39,-94 352.66,-76.62 326,-64.5 319.13,-61.38 311.55,-58.5 304.32,-56.01"/>
<polygon fill="#63b8ff" stroke="#63b8ff" points="398.84,-109.33 409.14,-111.84 402.65,-103.46 398.84,-109.33"/>
</a>
</g>
</g>
<!-- Node18 -->
<g id="Node000018" class="node">
<title>Node18</title>
<g id="a_Node000018"><a xlink:href="inverse_8c.html#a9c6b1db7cc8e3f7771140e7920429ab3" target="_top" xlink:title=" ">
<polygon fill="white" stroke="#666666" points="300.5,-19 242.5,-19 242.5,0 300.5,0 300.5,-19"/>
<text text-anchor="middle" x="271.5" y="-7" font-family="Helvetica,sans-Serif" font-size="10.00">Jacobian</text>
</a>
</g>
</g>
<!-- Node11&#45;&gt;Node18 -->
<g id="edge22_Node000011_Node000018" class="edge">
<title>Node11&#45;&gt;Node18</title>
<g id="a_edge22_Node000011_Node000018"><a xlink:title=" ">
<path fill="none" stroke="#63b8ff" d="M409.61,-104.02C392.14,-83.1 360.27,-48.31 326,-27.5 318.29,-22.82 309.22,-19.18 300.75,-16.43"/>
<polygon fill="#63b8ff" stroke="#63b8ff" points="406.93,-106.27 415.97,-111.8 412.35,-101.84 406.93,-106.27"/>
</a>
</g>
</g>
<!-- Node13 -->
<g id="Node000013" class="node">
<title>Node13</title>
<g id="a_Node000013"><a xlink:href="mlp_8c.html#a2aeef94f6b174527c5b7983c25229818" target="_top" xlink:title=" ">
<polygon fill="white" stroke="#666666" points="175,-206 83,-206 83,-187 175,-187 175,-206"/>
<text text-anchor="middle" x="129" y="-194" font-family="Helvetica,sans-Serif" font-size="10.00">backward_pass</text>
</a>
</g>
</g>
<!-- Node12&#45;&gt;Node13 -->
<g id="edge13_Node000012_Node000013" class="edge">
<title>Node12&#45;&gt;Node13</title>
<g id="a_edge13_Node000012_Node000013"><a xlink:title=" ">
<path fill="none" stroke="#63b8ff" d="M225.53,-196.5C209.45,-196.5 191.32,-196.5 175.21,-196.5"/>
<polygon fill="#63b8ff" stroke="#63b8ff" points="225.77,-200 235.77,-196.5 225.77,-193 225.77,-200"/>
</a>
</g>
</g>
<!-- Node14&#45;&gt;Node15 -->
<g id="edge15_Node000014_Node000015" class="edge">
<title>Node14&#45;&gt;Node15</title>
<g id="a_edge15_Node000014_Node000015"><a xlink:title=" ">
<path fill="none" stroke="#63b8ff" d="M237.62,-146.16C211.85,-135.7 176.62,-121.41 153.59,-112.07"/>
<polygon fill="#63b8ff" stroke="#63b8ff" points="236.4,-149.44 246.98,-149.96 239.03,-142.96 236.4,-149.44"/>
</a>
</g>
</g>
<!-- Node15&#45;&gt;Node9 -->
<g id="edge16_Node000015_Node000009" class="edge">
<title>Node15&#45;&gt;Node9</title>
<g id="a_edge16_Node000015_Node000009"><a xlink:title=" ">
<path fill="none" stroke="#63b8ff" d="M113.64,-120.3C90.83,-148.56 47.09,-202.78 29.31,-224.82"/>
<polygon fill="#63b8ff" stroke="#63b8ff" points="116.44,-122.4 120,-112.42 110.99,-118.01 116.44,-122.4"/>
</a>
</g>
</g>
<!-- Node16&#45;&gt;Node15 -->
<g id="edge18_Node000016_Node000015" class="edge">
<title>Node16&#45;&gt;Node15</title>
<g id="a_edge18_Node000016_Node000015"><a xlink:title=" ">
<path fill="none" stroke="#63b8ff" d="M211.88,-91.43C194.18,-93.82 175.47,-96.35 160.41,-98.39"/>
<polygon fill="#63b8ff" stroke="#63b8ff" points="212.71,-94.85 222.15,-90.04 211.77,-87.91 212.71,-94.85"/>
</a>
</g>
</g>
<!-- Node17&#45;&gt;Node15 -->
<g id="edge20_Node000017_Node000015" class="edge">
<title>Node17&#45;&gt;Node15</title>
<g id="a_edge20_Node000017_Node000015"><a xlink:title=" ">
<path fill="none" stroke="#63b8ff" d="M231,-59.36C226.26,-61.03 221.51,-62.76 217,-64.5 193.93,-73.4 168.03,-84.92 150.53,-92.93"/>
<polygon fill="#63b8ff" stroke="#63b8ff" points="232.31,-62.61 240.62,-56.04 230.03,-55.99 232.31,-62.61"/>
</a>
</g>
</g>
<!-- Node18&#45;&gt;Node15 -->
<g id="edge23_Node000018_Node000015" class="edge">
<title>Node18&#45;&gt;Node15</title>
<g id="a_edge23_Node000018_Node000015"><a xlink:title=" ">
<path fill="none" stroke="#63b8ff" d="M232.71,-20.15C227.29,-22.27 221.9,-24.71 217,-27.5 184.77,-45.87 153.45,-77.14 138.73,-92.86"/>
<polygon fill="#63b8ff" stroke="#63b8ff" points="234.16,-23.35 242.41,-16.7 231.81,-16.76 234.16,-23.35"/>
</a>
</g>
</g>
<!-- Node19&#45;&gt;Node6 -->
<g id="edge25_Node000019_Node000006" class="edge">
<title>Node19&#45;&gt;Node6</title>
<g id="a_edge25_Node000019_Node000006"><a xlink:title=" ">
<path fill="none" stroke="#63b8ff" d="M709.07,-269.08C680.71,-269.42 645.59,-269.85 621.25,-270.14"/>
<polygon fill="#63b8ff" stroke="#63b8ff" points="709.22,-272.58 719.17,-268.95 709.13,-265.58 709.22,-272.58"/>
</a>
</g>
</g>
</g>
</svg>

<g id="navigator" transform="translate(0 0)" fill="#404254">
  <rect fill="#f2f5e9" fill-opacity="0.5" stroke="#606060" stroke-width=".5" x="0" y="0" width="60" height="60"/>
  <use id="zoomplus" xlink:href="#zoomPlus" x="17" y="9" onmousedown="handleZoom(evt,'in')"/>
  <use id="zoomminus" xlink:href="#zoomMin" x="42" y="9" onmousedown="handleZoom(evt,'out')"/>
  <use id="reset" xlink:href="#resetDef" x="30" y="36" onmousedown="handleReset()"/>
   <use id="arrowup" xlink:href="#arrowUp" x="0" y="0" onmousedown="handlePan(0,-1)"/>
  <use id="arrowright" xlink:href="#arrowRight" x="0" y="0" onmousedown="handlePan(1,0)"/>
  <use id="arrowdown" xlink:href="#arrowDown" x="0" y="0" onmousedown="handlePan(0,1)"/>
  <use id="arrowleft" xlink:href="#arrowLeft" x="0" y="0" onmousedown="handlePan(-1,0)"/>
</g>
<svg viewBox="0 0 15 15" width="100%" height="30px" preserveAspectRatio="xMaxYMin meet">
 <g id="arrow_out" transform="scale(0.3 0.3)">
  <a xlink:href="material_8c_a431e1e9b5ceabfa4edc2920b70296b35_icgraph_org.svg" target="_base">
   <rect id="button" ry="5" rx="5" y="6" x="6" height="38" width="38"
        fill="#f2f5e9" fill-opacity="0.5" stroke="#606060" stroke-width="1.0"/>
   <path id="arrow"
     d="M 11.500037,31.436501 C 11.940474,20.09759 22.043105,11.32322 32.158766,21.979434 L 37.068811,17.246167 C 37.068811,17.246167 37.088388,32 37.088388,32 L 22.160133,31.978069 C 22.160133,31.978069 26.997745,27.140456 26.997745,27.140456 C 18.528582,18.264221 13.291696,25.230495 11.500037,31.436501 z"
     style="fill:#404040;"/>
  </a>
 </g>
</svg>

<style type='text/css'>
<![CDATA[
[data-mouse-over-selected='false'] { opacity: 0.7; }
[data-mouse-over-selected='true']  { opacity: 1.0; }
]]>
</style>
<script type="application/ecmascript"><![CDATA[
document.addEventListener('DOMContentLoaded', (event) => {
  highlightEdges();
  highlightAdjacentNodes();
});
]]></script>
</svg>
