<?xml version="1.0" encoding="UTF-8" standalone="no"?>
<!DOCTYPE svg PUBLIC "-//W3C//DTD SVG 1.1//EN"
 "http://www.w3.org/Graphics/SVG/1.1/DTD/svg11.dtd">
<!-- Generated by graphviz version 2.43.0 (0)
 -->
<!-- Title: MINUS Pages: 1 -->
<svg width="1086pt" height="384pt"
 viewBox="0.00 0.00 1086.00 383.78" xmlns="http://www.w3.org/2000/svg" xmlns:xlink="http://www.w3.org/1999/xlink">
<g id="graph0" class="graph" transform="scale(1 1) rotate(0) translate(4 379.78)">
<title>MINUS</title>
<!-- Node1 -->
<g id="Node000001" class="node">
<title>Node1</title>
<g id="a_Node000001"><a xlink:title=" ">
<polygon fill="#999999" stroke="#666666" points="1078,-222.78 1028,-222.78 1028,-203.78 1078,-203.78 1078,-222.78"/>
<text text-anchor="middle" x="1053" y="-210.78" font-family="Helvetica,sans-Serif" font-size="10.00">MINUS</text>
</a>
</g>
</g>
<!-- Node2 -->
<g id="Node000002" class="node">
<title>Node2</title>
<g id="a_Node000002"><a xlink:href="material_8c.html#af81ecf5fbfd52082e0abd3184f12c14f" target="_top" xlink:title=" ">
<polygon fill="white" stroke="#666666" points="977,-241.78 871,-241.78 871,-222.78 977,-222.78 977,-241.78"/>
<text text-anchor="middle" x="924" y="-229.78" font-family="Helvetica,sans-Serif" font-size="10.00">BendingNonLinear</text>
</a>
</g>
</g>
<!-- Node1&#45;&gt;Node2 -->
<g id="edge1_Node000001_Node000002" class="edge">
<title>Node1&#45;&gt;Node2</title>
<g id="a_edge1_Node000001_Node000002"><a xlink:title=" ">
<path fill="none" stroke="#63b8ff" d="M1017.84,-218.39C1005.36,-220.26 990.94,-222.42 977.23,-224.47"/>
<polygon fill="#63b8ff" stroke="#63b8ff" points="1018.44,-221.84 1027.81,-216.9 1017.41,-214.92 1018.44,-221.84"/>
</a>
</g>
</g>
<!-- Node20 -->
<g id="Node000020" class="node">
<title>Node20</title>
<g id="a_Node000020"><a xlink:href="material_8c.html#a5da7362ed34e0d7b99ef0e783198a72a" target="_top" xlink:title=" ">
<polygon fill="white" stroke="#666666" points="979.5,-130.78 868.5,-130.78 868.5,-111.78 979.5,-111.78 979.5,-130.78"/>
<text text-anchor="middle" x="924" y="-118.78" font-family="Helvetica,sans-Serif" font-size="10.00">BHVFiberDirUpdate</text>
</a>
</g>
</g>
<!-- Node1&#45;&gt;Node20 -->
<g id="edge24_Node000001_Node000020" class="edge">
<title>Node1&#45;&gt;Node20</title>
<g id="a_edge24_Node000001_Node000020"><a xlink:title=" ">
<path fill="none" stroke="#63b8ff" d="M1041.66,-194.77C1031.26,-177.84 1013.68,-153.37 992,-139.28 986.75,-135.87 980.86,-133.1 974.82,-130.86"/>
<polygon fill="#63b8ff" stroke="#63b8ff" points="1038.84,-196.88 1046.93,-203.73 1044.87,-193.33 1038.84,-196.88"/>
</a>
</g>
</g>
<!-- Node21 -->
<g id="Node000021" class="node">
<title>Node21</title>
<g id="a_Node000021"><a xlink:href="material_8c.html#a3243950933f3559f19edcb5421360526" target="_top" xlink:title=" ">
<polygon fill="white" stroke="#666666" points="992,-167.78 856,-167.78 856,-148.78 992,-148.78 992,-167.78"/>
<text text-anchor="middle" x="924" y="-155.78" font-family="Helvetica,sans-Serif" font-size="10.00">CalcCurvStressStrainxyz</text>
</a>
</g>
</g>
<!-- Node1&#45;&gt;Node21 -->
<g id="edge25_Node000001_Node000021" class="edge">
<title>Node1&#45;&gt;Node21</title>
<g id="a_edge25_Node000001_Node000021"><a xlink:title=" ">
<path fill="none" stroke="#63b8ff" d="M1030.26,-197.75C1019.22,-190.42 1005.34,-182.04 992,-176.28 984.37,-172.99 975.99,-170.16 967.81,-167.79"/>
<polygon fill="#63b8ff" stroke="#63b8ff" points="1028.56,-200.83 1038.79,-203.58 1032.51,-195.05 1028.56,-200.83"/>
</a>
</g>
</g>
<!-- Node25 -->
<g id="Node000025" class="node">
<title>Node25</title>
<g id="a_Node000025"><a xlink:href="material_8c.html#aa93862cca1fe83c736219df7d4a91374" target="_top" xlink:title=" ">
<polygon fill="white" stroke="#666666" points="983.5,-315.78 864.5,-315.78 864.5,-296.78 983.5,-296.78 983.5,-315.78"/>
<text text-anchor="middle" x="924" y="-303.78" font-family="Helvetica,sans-Serif" font-size="10.00">MembraneNonLinear</text>
</a>
</g>
</g>
<!-- Node1&#45;&gt;Node25 -->
<g id="edge31_Node000001_Node000025" class="edge">
<title>Node1&#45;&gt;Node25</title>
<g id="a_edge31_Node000001_Node000025"><a xlink:title=" ">
<path fill="none" stroke="#63b8ff" d="M1041.72,-232.05C1031.36,-249.21 1013.81,-274.01 992,-288.28 986.76,-291.71 980.88,-294.49 974.84,-296.74"/>
<polygon fill="#63b8ff" stroke="#63b8ff" points="1044.99,-233.38 1046.96,-222.97 1038.93,-229.88 1044.99,-233.38"/>
</a>
</g>
</g>
<!-- Node27 -->
<g id="Node000027" class="node">
<title>Node27</title>
<g id="a_Node000027"><a xlink:href="material_8c.html#a431e1e9b5ceabfa4edc2920b70296b35" target="_top" xlink:title=" ">
<polygon fill="white" stroke="#666666" points="962.5,-278.78 885.5,-278.78 885.5,-259.78 962.5,-259.78 962.5,-278.78"/>
<text text-anchor="middle" x="924" y="-266.78" font-family="Helvetica,sans-Serif" font-size="10.00">StressLinear</text>
</a>
</g>
</g>
<!-- Node1&#45;&gt;Node27 -->
<g id="edge36_Node000001_Node000027" class="edge">
<title>Node1&#45;&gt;Node27</title>
<g id="a_edge36_Node000001_Node000027"><a xlink:title=" ">
<path fill="none" stroke="#63b8ff" d="M1031.08,-228.74C1019.93,-236.4 1005.72,-245.26 992,-251.28 982.74,-255.35 972.34,-258.68 962.55,-261.33"/>
<polygon fill="#63b8ff" stroke="#63b8ff" points="1033.15,-231.57 1039.3,-222.94 1029.11,-225.85 1033.15,-231.57"/>
</a>
</g>
</g>
<!-- Node28 -->
<g id="Node000028" class="node">
<title>Node28</title>
<g id="a_Node000028"><a xlink:href="material_8c.html#aad0d0c11a159f8021feb99ddee475d31" target="_top" xlink:title=" ">
<polygon fill="white" stroke="#666666" points="981,-204.78 867,-204.78 867,-185.78 981,-185.78 981,-204.78"/>
<text text-anchor="middle" x="924" y="-192.78" font-family="Helvetica,sans-Serif" font-size="10.00">StressManufactured</text>
</a>
</g>
</g>
<!-- Node1&#45;&gt;Node28 -->
<g id="edge39_Node000001_Node000028" class="edge">
<title>Node1&#45;&gt;Node28</title>
<g id="a_edge39_Node000001_Node000028"><a xlink:title=" ">
<path fill="none" stroke="#63b8ff" d="M1017.59,-208.41C1006.37,-206.82 993.61,-205.01 981.22,-203.25"/>
<polygon fill="#63b8ff" stroke="#63b8ff" points="1017.42,-211.92 1027.81,-209.86 1018.4,-204.99 1017.42,-211.92"/>
</a>
</g>
</g>
<!-- Node3 -->
<g id="Node000003" class="node">
<title>Node3</title>
<g id="a_Node000003"><a xlink:href="muscle__activation_8c.html#a19d89612f2544ef7f352badd7cf1f337" target="_top" xlink:title=" ">
<polygon fill="white" stroke="#666666" points="820,-287.28 695,-287.28 695,-257.28 820,-257.28 820,-287.28"/>
<text text-anchor="start" x="703" y="-275.28" font-family="Helvetica,sans-Serif" font-size="10.00">compute_mid_surface</text>
<text text-anchor="middle" x="757.5" y="-264.28" font-family="Helvetica,sans-Serif" font-size="10.00">_el_stress_after_act</text>
</a>
</g>
</g>
<!-- Node2&#45;&gt;Node3 -->
<g id="edge2_Node000002_Node000003" class="edge">
<title>Node2&#45;&gt;Node3</title>
<g id="a_edge2_Node000002_Node000003"><a xlink:title=" ">
<path fill="none" stroke="#63b8ff" d="M873.45,-244.33C856.66,-248.42 837.68,-253.03 820.07,-257.31"/>
<polygon fill="#63b8ff" stroke="#63b8ff" points="874.71,-247.63 883.6,-241.86 873.05,-240.83 874.71,-247.63"/>
</a>
</g>
</g>
<!-- Node6 -->
<g id="Node000006" class="node">
<title>Node6</title>
<g id="a_Node000006"><a xlink:href="bending_8c.html#a2b66770553fce4724cfb65b0f79e83b1" target="_top" xlink:title=" ">
<polygon fill="white" stroke="#666666" points="788.5,-238.78 726.5,-238.78 726.5,-219.78 788.5,-219.78 788.5,-238.78"/>
<text text-anchor="middle" x="757.5" y="-226.78" font-family="Helvetica,sans-Serif" font-size="10.00">Fbending</text>
</a>
</g>
</g>
<!-- Node2&#45;&gt;Node6 -->
<g id="edge5_Node000002_Node000006" class="edge">
<title>Node2&#45;&gt;Node6</title>
<g id="a_edge5_Node000002_Node000006"><a xlink:title=" ">
<path fill="none" stroke="#63b8ff" d="M860.9,-231.15C836.18,-230.7 808.87,-230.2 788.67,-229.83"/>
<polygon fill="#63b8ff" stroke="#63b8ff" points="860.89,-234.65 870.95,-231.33 861.02,-227.65 860.89,-234.65"/>
</a>
</g>
</g>
<!-- Node4 -->
<g id="Node000004" class="node">
<title>Node4</title>
<g id="a_Node000004"><a xlink:href="muscle__activation_8c.html#a3f9fadbc31e4872a8519e6bfdecf7b8f" target="_top" xlink:title=" ">
<polygon fill="white" stroke="#666666" points="659,-330.28 523,-330.28 523,-300.28 659,-300.28 659,-330.28"/>
<text text-anchor="start" x="531" y="-318.28" font-family="Helvetica,sans-Serif" font-size="10.00">update_mid_surf_elastic</text>
<text text-anchor="middle" x="591" y="-307.28" font-family="Helvetica,sans-Serif" font-size="10.00">_stress</text>
</a>
</g>
</g>
<!-- Node3&#45;&gt;Node4 -->
<g id="edge3_Node000003_Node000004" class="edge">
<title>Node3&#45;&gt;Node4</title>
<g id="a_edge3_Node000003_Node000004"><a xlink:title=" ">
<path fill="none" stroke="#63b8ff" d="M689.05,-289.91C675.92,-293.35 662.27,-296.91 649.5,-300.25"/>
<polygon fill="#63b8ff" stroke="#63b8ff" points="690.18,-293.24 698.97,-287.32 688.41,-286.47 690.18,-293.24"/>
</a>
</g>
</g>
<!-- Node5 -->
<g id="Node000005" class="node">
<title>Node5</title>
<g id="a_Node000005"><a xlink:href="muscle__activation_8c.html#a5794b91b41d38582fd698b653b53330e" target="_top" xlink:title=" ">
<polygon fill="white" stroke="#666666" points="487,-375.78 362,-375.78 362,-356.78 487,-356.78 487,-375.78"/>
<text text-anchor="middle" x="424.5" y="-363.78" font-family="Helvetica,sans-Serif" font-size="10.00">UpdateFInternalAftAct</text>
</a>
</g>
</g>
<!-- Node4&#45;&gt;Node5 -->
<g id="edge4_Node000004_Node000005" class="edge">
<title>Node4&#45;&gt;Node5</title>
<g id="a_edge4_Node000004_Node000005"><a xlink:title=" ">
<path fill="none" stroke="#63b8ff" d="M534.12,-333.47C518.86,-338.36 502.32,-343.59 487,-348.28 477.85,-351.09 467.91,-354.04 458.74,-356.72"/>
<polygon fill="#63b8ff" stroke="#63b8ff" points="535.48,-336.71 543.93,-330.32 533.34,-330.04 535.48,-336.71"/>
</a>
</g>
</g>
<!-- Node7 -->
<g id="Node000007" class="node">
<title>Node7</title>
<g id="a_Node000007"><a xlink:href="main_8c.html#a59ccabe25c63661e6e66b44209b0f162" target="_top" xlink:title=" ">
<polygon fill="white" stroke="#666666" points="621,-281.78 561,-281.78 561,-262.78 621,-262.78 621,-281.78"/>
<text text-anchor="middle" x="591" y="-269.78" font-family="Helvetica,sans-Serif" font-size="10.00">FInternal</text>
</a>
</g>
</g>
<!-- Node6&#45;&gt;Node7 -->
<g id="edge6_Node000006_Node000007" class="edge">
<title>Node6&#45;&gt;Node7</title>
<g id="a_edge6_Node000006_Node000007"><a xlink:title=" ">
<path fill="none" stroke="#63b8ff" d="M716.36,-239.78C686.92,-247.47 647.63,-257.74 621.15,-264.66"/>
<polygon fill="#63b8ff" stroke="#63b8ff" points="717.54,-243.09 726.33,-237.17 715.77,-236.31 717.54,-243.09"/>
</a>
</g>
</g>
<!-- Node8 -->
<g id="Node000008" class="node">
<title>Node8</title>
<g id="a_Node000008"><a xlink:href="main_8c.html#aac0575d69dba68d64a6c0f65c2d8f635" target="_top" xlink:title=" ">
<polygon fill="white" stroke="#666666" points="451.5,-338.78 397.5,-338.78 397.5,-319.78 451.5,-319.78 451.5,-338.78"/>
<text text-anchor="middle" x="424.5" y="-326.78" font-family="Helvetica,sans-Serif" font-size="10.00">Contact</text>
</a>
</g>
</g>
<!-- Node7&#45;&gt;Node8 -->
<g id="edge7_Node000007_Node000008" class="edge">
<title>Node7&#45;&gt;Node8</title>
<g id="a_edge7_Node000007_Node000008"><a xlink:title=" ">
<path fill="none" stroke="#63b8ff" d="M551.04,-282.65C541.8,-285.3 532.01,-288.26 523,-291.28 522.08,-291.59 478.63,-308.54 450.05,-319.7"/>
<polygon fill="#63b8ff" stroke="#63b8ff" points="552.11,-285.99 560.79,-279.92 550.22,-279.25 552.11,-285.99"/>
</a>
</g>
</g>
<!-- Node9 -->
<g id="Node000009" class="node">
<title>Node9</title>
<g id="a_Node000009"><a xlink:href="main_8c.html#a9a070a6f408cadb404b0ee7fbc74c576" target="_top" xlink:title=" ">
<polygon fill="white" stroke="#666666" points="181,-290.78 77,-290.78 77,-271.78 181,-271.78 181,-290.78"/>
<text text-anchor="middle" x="129" y="-278.78" font-family="Helvetica,sans-Serif" font-size="10.00">FormFunctionFEM</text>
</a>
</g>
</g>
<!-- Node7&#45;&gt;Node9 -->
<g id="edge8_Node000007_Node000009" class="edge">
<title>Node7&#45;&gt;Node9</title>
<g id="a_edge8_Node000007_Node000009"><a xlink:title=" ">
<path fill="none" stroke="#63b8ff" d="M550.84,-273.05C467.78,-274.67 273.96,-278.47 181.21,-280.28"/>
<polygon fill="#63b8ff" stroke="#63b8ff" points="550.95,-276.55 560.88,-272.85 550.81,-269.55 550.95,-276.55"/>
</a>
</g>
</g>
<!-- Node11 -->
<g id="Node000011" class="node">
<title>Node11</title>
<g id="a_Node000011"><a xlink:href="main_8c.html#ad3a8e8f5b2e1871122784b2cd3dc1c8c" target="_top" xlink:title=" ">
<polygon fill="white" stroke="#666666" points="156.5,-234.78 101.5,-234.78 101.5,-215.78 156.5,-215.78 156.5,-234.78"/>
<text text-anchor="middle" x="129" y="-222.78" font-family="Helvetica,sans-Serif" font-size="10.00">FormRK</text>
</a>
</g>
</g>
<!-- Node7&#45;&gt;Node11 -->
<g id="edge10_Node000007_Node000011" class="edge">
<title>Node7&#45;&gt;Node11</title>
<g id="a_edge10_Node000007_Node000011"><a xlink:title=" ">
<path fill="none" stroke="#63b8ff" d="M550.74,-268.3C482.75,-261.41 338.7,-246.78 217,-234.28 196.76,-232.21 173.87,-229.84 156.65,-228.05"/>
<polygon fill="#63b8ff" stroke="#63b8ff" points="550.68,-271.82 560.98,-269.34 551.38,-264.85 550.68,-271.82"/>
</a>
</g>
</g>
<!-- Node12 -->
<g id="Node000012" class="node">
<title>Node12</title>
<g id="a_Node000012"><a xlink:href="inverse_8c.html#a8ccb34384a9c46d52bb413dcd177c67b" target="_top" xlink:title=" ">
<polygon fill="white" stroke="#666666" points="464.5,-149.78 384.5,-149.78 384.5,-130.78 464.5,-130.78 464.5,-149.78"/>
<text text-anchor="middle" x="424.5" y="-137.78" font-family="Helvetica,sans-Serif" font-size="10.00">ResidualCalc</text>
</a>
</g>
</g>
<!-- Node7&#45;&gt;Node12 -->
<g id="edge12_Node000007_Node000012" class="edge">
<title>Node7&#45;&gt;Node12</title>
<g id="a_edge12_Node000007_Node000012"><a xlink:title=" ">
<path fill="none" stroke="#63b8ff" d="M569.92,-256.17C535.37,-228.45 465.68,-172.52 437.61,-150"/>
<polygon fill="#63b8ff" stroke="#63b8ff" points="567.91,-259.05 577.9,-262.58 572.29,-253.59 567.91,-259.05"/>
</a>
</g>
</g>
<!-- Node10 -->
<g id="Node000010" class="node">
<title>Node10</title>
<g id="a_Node000010"><a xlink:href="main_8c.html#a3c04138a5bfe5d72780bb7e82a18e627" target="_top" xlink:title=" ">
<polygon fill="white" stroke="#666666" points="41,-177.78 0,-177.78 0,-158.78 41,-158.78 41,-177.78"/>
<text text-anchor="middle" x="20.5" y="-165.78" font-family="Helvetica,sans-Serif" font-size="10.00">main</text>
</a>
</g>
</g>
<!-- Node9&#45;&gt;Node10 -->
<g id="edge9_Node000009_Node000010" class="edge">
<title>Node9&#45;&gt;Node10</title>
<g id="a_edge9_Node000009_Node000010"><a xlink:title=" ">
<path fill="none" stroke="#63b8ff" d="M103.8,-266.05C94.89,-259.85 85.02,-252.28 77,-244.28 55.71,-223.06 36.35,-193.08 27.15,-177.9"/>
<polygon fill="#63b8ff" stroke="#63b8ff" points="102.04,-269.08 112.3,-271.74 105.94,-263.26 102.04,-269.08"/>
</a>
</g>
</g>
<!-- Node11&#45;&gt;Node10 -->
<g id="edge11_Node000011_Node000010" class="edge">
<title>Node11&#45;&gt;Node10</title>
<g id="a_edge11_Node000011_Node000010"><a xlink:title=" ">
<path fill="none" stroke="#63b8ff" d="M101,-210.83C81.65,-200.48 56.14,-186.82 39.3,-177.81"/>
<polygon fill="#63b8ff" stroke="#63b8ff" points="99.47,-213.98 109.93,-215.61 102.77,-207.81 99.47,-213.98"/>
</a>
</g>
</g>
<!-- Node13 -->
<g id="Node000013" class="node">
<title>Node13</title>
<g id="a_Node000013"><a xlink:href="mlp_8c.html#a95587eada79194109e216fe2d1536aa5" target="_top" xlink:title=" ">
<polygon fill="#fff0f0" stroke="red" points="307,-74.78 236,-74.78 236,-55.78 307,-55.78 307,-74.78"/>
<text text-anchor="middle" x="271.5" y="-62.78" font-family="Helvetica,sans-Serif" font-size="10.00">compute_R</text>
</a>
</g>
</g>
<!-- Node12&#45;&gt;Node13 -->
<g id="edge13_Node000012_Node000013" class="edge">
<title>Node12&#45;&gt;Node13</title>
<g id="a_edge13_Node000012_Node000013"><a xlink:title=" ">
<path fill="none" stroke="#63b8ff" d="M400.71,-125.16C381.39,-112.78 352.66,-95.41 326,-83.28 319.13,-80.16 311.55,-77.29 304.32,-74.8"/>
<polygon fill="#63b8ff" stroke="#63b8ff" points="398.84,-128.12 409.14,-130.62 402.65,-122.24 398.84,-128.12"/>
</a>
</g>
</g>
<!-- Node15 -->
<g id="Node000015" class="node">
<title>Node15</title>
<g id="a_Node000015"><a xlink:href="inverse_8c.html#a5a46d0c408c2a4905101ca00ed320825" target="_top" xlink:title=" ">
<polygon fill="white" stroke="#666666" points="312,-111.78 231,-111.78 231,-92.78 312,-92.78 312,-111.78"/>
<text text-anchor="middle" x="271.5" y="-99.78" font-family="Helvetica,sans-Serif" font-size="10.00">FungJacobian</text>
</a>
</g>
</g>
<!-- Node12&#45;&gt;Node15 -->
<g id="edge14_Node000012_Node000015" class="edge">
<title>Node12&#45;&gt;Node15</title>
<g id="a_edge14_Node000012_Node000015"><a xlink:title=" ">
<path fill="none" stroke="#63b8ff" d="M375.66,-128.24C354.56,-122.93 330.12,-116.78 310.33,-111.8"/>
<polygon fill="#63b8ff" stroke="#63b8ff" points="374.84,-131.65 385.4,-130.69 376.55,-124.86 374.84,-131.65"/>
</a>
</g>
</g>
<!-- Node16 -->
<g id="Node000016" class="node">
<title>Node16</title>
<g id="a_Node000016"><a xlink:href="inverse_8c.html#a63c0a7ac76584f0dab82764698b5d878" target="_top" xlink:title=" ">
<polygon fill="white" stroke="#666666" points="160,-159.78 98,-159.78 98,-140.78 160,-140.78 160,-159.78"/>
<text text-anchor="middle" x="129" y="-147.78" font-family="Helvetica,sans-Serif" font-size="10.00">InvSolver</text>
</a>
</g>
</g>
<!-- Node12&#45;&gt;Node16 -->
<g id="edge21_Node000012_Node000016" class="edge">
<title>Node12&#45;&gt;Node16</title>
<g id="a_edge21_Node000012_Node000016"><a xlink:title=" ">
<path fill="none" stroke="#63b8ff" d="M374.04,-141.97C312.87,-144.05 210.66,-147.54 160.14,-149.26"/>
<polygon fill="#63b8ff" stroke="#63b8ff" points="374.35,-145.46 384.22,-141.62 374.11,-138.46 374.35,-145.46"/>
</a>
</g>
</g>
<!-- Node17 -->
<g id="Node000017" class="node">
<title>Node17</title>
<g id="a_Node000017"><a xlink:href="inverse_8c.html#a6dcb60291ae68ad8fa0ccea39658279a" target="_top" xlink:title=" ">
<polygon fill="white" stroke="#666666" points="320.5,-37.78 222.5,-37.78 222.5,-18.78 320.5,-18.78 320.5,-37.78"/>
<text text-anchor="middle" x="271.5" y="-25.78" font-family="Helvetica,sans-Serif" font-size="10.00">FungUniJacobian</text>
</a>
</g>
</g>
<!-- Node12&#45;&gt;Node17 -->
<g id="edge17_Node000012_Node000017" class="edge">
<title>Node12&#45;&gt;Node17</title>
<g id="a_edge17_Node000012_Node000017"><a xlink:title=" ">
<path fill="none" stroke="#63b8ff" d="M409.61,-122.8C392.14,-101.88 360.27,-67.1 326,-46.28 320.56,-42.98 314.43,-40.19 308.31,-37.87"/>
<polygon fill="#63b8ff" stroke="#63b8ff" points="406.93,-125.06 415.97,-130.58 412.35,-120.62 406.93,-125.06"/>
</a>
</g>
</g>
<!-- Node18 -->
<g id="Node000018" class="node">
<title>Node18</title>
<g id="a_Node000018"><a xlink:href="inverse_8c.html#ad779d411aa186efcdfb8e192c52d04b0" target="_top" xlink:title=" ">
<polygon fill="white" stroke="#666666" points="326,-224.78 217,-224.78 217,-205.78 326,-205.78 326,-224.78"/>
<text text-anchor="middle" x="271.5" y="-212.78" font-family="Helvetica,sans-Serif" font-size="10.00">grad_R_wrt_E_field</text>
</a>
</g>
</g>
<!-- Node12&#45;&gt;Node18 -->
<g id="edge19_Node000012_Node000018" class="edge">
<title>Node12&#45;&gt;Node18</title>
<g id="a_edge19_Node000012_Node000018"><a xlink:title=" ">
<path fill="none" stroke="#63b8ff" d="M400.71,-155.41C381.39,-167.78 352.66,-185.16 326,-197.28 319.13,-200.41 311.55,-203.28 304.32,-205.77"/>
<polygon fill="#63b8ff" stroke="#63b8ff" points="402.65,-158.32 409.14,-149.95 398.84,-152.45 402.65,-158.32"/>
</a>
</g>
</g>
<!-- Node19 -->
<g id="Node000019" class="node">
<title>Node19</title>
<g id="a_Node000019"><a xlink:href="inverse_8c.html#a9c6b1db7cc8e3f7771140e7920429ab3" target="_top" xlink:title=" ">
<polygon fill="white" stroke="#666666" points="300.5,-187.78 242.5,-187.78 242.5,-168.78 300.5,-168.78 300.5,-187.78"/>
<text text-anchor="middle" x="271.5" y="-175.78" font-family="Helvetica,sans-Serif" font-size="10.00">Jacobian</text>
</a>
</g>
</g>
<!-- Node12&#45;&gt;Node19 -->
<g id="edge22_Node000012_Node000019" class="edge">
<title>Node12&#45;&gt;Node19</title>
<g id="a_edge22_Node000012_Node000019"><a xlink:title=" ">
<path fill="none" stroke="#63b8ff" d="M375.49,-152.37C350.8,-158.58 321.58,-165.93 300.58,-171.22"/>
<polygon fill="#63b8ff" stroke="#63b8ff" points="376.55,-155.71 385.4,-149.87 374.84,-148.92 376.55,-155.71"/>
</a>
</g>
</g>
<!-- Node15&#45;&gt;Node16 -->
<g id="edge15_Node000015_Node000016" class="edge">
<title>Node15&#45;&gt;Node16</title>
<g id="a_edge15_Node000015_Node000016"><a xlink:title=" ">
<path fill="none" stroke="#63b8ff" d="M232.75,-115.18C209.23,-123.22 179.47,-133.38 158.05,-140.7"/>
<polygon fill="#63b8ff" stroke="#63b8ff" points="234.07,-118.43 242.41,-111.88 231.81,-111.8 234.07,-118.43"/>
</a>
</g>
</g>
<!-- Node16&#45;&gt;Node10 -->
<g id="edge16_Node000016_Node000010" class="edge">
<title>Node16&#45;&gt;Node10</title>
<g id="a_edge16_Node000016_Node000010"><a xlink:title=" ">
<path fill="none" stroke="#63b8ff" d="M87.59,-157.11C71.64,-159.81 54.07,-162.78 41.05,-164.98"/>
<polygon fill="#63b8ff" stroke="#63b8ff" points="88.49,-160.51 97.77,-155.39 87.32,-153.61 88.49,-160.51"/>
</a>
</g>
</g>
<!-- Node17&#45;&gt;Node16 -->
<g id="edge18_Node000017_Node000016" class="edge">
<title>Node17&#45;&gt;Node16</title>
<g id="a_edge18_Node000017_Node000016"><a xlink:title=" ">
<path fill="none" stroke="#63b8ff" d="M224.08,-42.05C221.61,-43.35 219.24,-44.76 217,-46.28 178.51,-72.58 147.52,-120.41 135.45,-140.74"/>
<polygon fill="#63b8ff" stroke="#63b8ff" points="225.63,-45.19 233.26,-37.83 222.71,-38.83 225.63,-45.19"/>
</a>
</g>
</g>
<!-- Node18&#45;&gt;Node16 -->
<g id="edge20_Node000018_Node000016" class="edge">
<title>Node18&#45;&gt;Node16</title>
<g id="a_edge20_Node000018_Node000016"><a xlink:title=" ">
<path fill="none" stroke="#63b8ff" d="M229.3,-202.22C225.11,-200.65 220.94,-199 217,-197.28 191.34,-186.13 163.08,-170.13 145.94,-159.97"/>
<polygon fill="#63b8ff" stroke="#63b8ff" points="228.45,-205.63 239.04,-205.7 230.8,-199.04 228.45,-205.63"/>
</a>
</g>
</g>
<!-- Node19&#45;&gt;Node16 -->
<g id="edge23_Node000019_Node000016" class="edge">
<title>Node19&#45;&gt;Node16</title>
<g id="a_edge23_Node000019_Node000016"><a xlink:title=" ">
<path fill="none" stroke="#63b8ff" d="M232.47,-170.7C209.87,-166.2 181.6,-160.57 160.48,-156.36"/>
<polygon fill="#63b8ff" stroke="#63b8ff" points="231.91,-174.16 242.41,-172.68 233.28,-167.3 231.91,-174.16"/>
</a>
</g>
</g>
<!-- Node21&#45;&gt;Node6 -->
<g id="edge26_Node000021_Node000006" class="edge">
<title>Node21&#45;&gt;Node6</title>
<g id="a_edge26_Node000021_Node000006"><a xlink:title=" ">
<path fill="none" stroke="#63b8ff" d="M871.74,-170.71C866.37,-172.41 861.03,-174.27 856,-176.28 825.41,-188.51 792.18,-208.05 773.49,-219.68"/>
<polygon fill="#63b8ff" stroke="#63b8ff" points="872.82,-174.04 881.4,-167.83 870.82,-167.34 872.82,-174.04"/>
</a>
</g>
</g>
<!-- Node22 -->
<g id="Node000022" class="node">
<title>Node22</title>
<g id="a_Node000022"><a xlink:href="bending_8c.html#a9f48607d5ce7f351c5960f63455779c4" target="_top" xlink:title=" ">
<polygon fill="white" stroke="#666666" points="778,-140.78 737,-140.78 737,-121.78 778,-121.78 778,-140.78"/>
<text text-anchor="middle" x="757.5" y="-128.78" font-family="Helvetica,sans-Serif" font-size="10.00">Kve0</text>
</a>
</g>
</g>
<!-- Node21&#45;&gt;Node22 -->
<g id="edge27_Node000021_Node000022" class="edge">
<title>Node21&#45;&gt;Node22</title>
<g id="a_edge27_Node000021_Node000022"><a xlink:title=" ">
<path fill="none" stroke="#63b8ff" d="M854.9,-147.11C827.13,-142.55 797.15,-137.63 778.12,-134.5"/>
<polygon fill="#63b8ff" stroke="#63b8ff" points="854.57,-150.6 865,-148.76 855.7,-143.69 854.57,-150.6"/>
</a>
</g>
</g>
<!-- Node23 -->
<g id="Node000023" class="node">
<title>Node23</title>
<g id="a_Node000023"><a xlink:href="bending_8c.html#a2cd7ef6a41a0e3d6757965f9336e457a" target="_top" xlink:title=" ">
<polygon fill="white" stroke="#666666" points="621.5,-96.78 560.5,-96.78 560.5,-77.78 621.5,-77.78 621.5,-96.78"/>
<text text-anchor="middle" x="591" y="-84.78" font-family="Helvetica,sans-Serif" font-size="10.00">InitGhost</text>
</a>
</g>
</g>
<!-- Node22&#45;&gt;Node23 -->
<g id="edge28_Node000022_Node000023" class="edge">
<title>Node22&#45;&gt;Node23</title>
<g id="a_edge28_Node000022_Node000023"><a xlink:title=" ">
<path fill="none" stroke="#63b8ff" d="M727.19,-123.44C697.46,-115.49 651.68,-103.25 621.78,-95.25"/>
<polygon fill="#63b8ff" stroke="#63b8ff" points="726.42,-126.86 736.98,-126.06 728.23,-120.1 726.42,-126.86"/>
</a>
</g>
</g>
<!-- Node24 -->
<g id="Node000024" class="node">
<title>Node24</title>
<g id="a_Node000024"><a xlink:href="main_8c.html#a636a8f7f82b7bc4dabb749e9c7fe75a9" target="_top" xlink:title=" ">
<polygon fill="white" stroke="#666666" points="145,-66.78 113,-66.78 113,-47.78 145,-47.78 145,-66.78"/>
<text text-anchor="middle" x="129" y="-54.78" font-family="Helvetica,sans-Serif" font-size="10.00">Init</text>
</a>
</g>
</g>
<!-- Node23&#45;&gt;Node24 -->
<g id="edge29_Node000023_Node000024" class="edge">
<title>Node23&#45;&gt;Node24</title>
<g id="a_edge29_Node000023_Node000024"><a xlink:title=" ">
<path fill="none" stroke="#63b8ff" d="M562.92,-73.11C501.16,-42.64 345.32,23.77 217,-9.28 188.1,-16.73 158.53,-36.03 142.39,-47.77"/>
<polygon fill="#63b8ff" stroke="#63b8ff" points="561.5,-76.31 572.01,-77.67 564.64,-70.06 561.5,-76.31"/>
</a>
</g>
</g>
<!-- Node24&#45;&gt;Node10 -->
<g id="edge30_Node000024_Node000010" class="edge">
<title>Node24&#45;&gt;Node10</title>
<g id="a_edge30_Node000024_Node000010"><a xlink:title=" ">
<path fill="none" stroke="#63b8ff" d="M111.59,-74.38C88.94,-97.99 48.84,-139.79 30.78,-158.61"/>
<polygon fill="#63b8ff" stroke="#63b8ff" points="114.15,-76.77 118.55,-67.13 109.1,-71.93 114.15,-76.77"/>
</a>
</g>
</g>
<!-- Node25&#45;&gt;Node3 -->
<g id="edge32_Node000025_Node000003" class="edge">
<title>Node25&#45;&gt;Node3</title>
<g id="a_edge32_Node000025_Node000003"><a xlink:title=" ">
<path fill="none" stroke="#63b8ff" d="M866.59,-294.62C851.6,-291.53 835.33,-288.16 820.07,-285.01"/>
<polygon fill="#63b8ff" stroke="#63b8ff" points="866.24,-298.13 876.74,-296.72 867.66,-291.27 866.24,-298.13"/>
</a>
</g>
</g>
<!-- Node25&#45;&gt;Node6 -->
<g id="edge33_Node000025_Node000006" class="edge">
<title>Node25&#45;&gt;Node6</title>
<g id="a_edge33_Node000025_Node000006"><a xlink:title=" ">
<path fill="none" stroke="#63b8ff" d="M864.73,-292.92C861.7,-291.53 858.77,-289.98 856,-288.28 835.61,-275.78 840.15,-261.17 820,-248.28 810.58,-242.26 799.14,-238.05 788.69,-235.15"/>
<polygon fill="#63b8ff" stroke="#63b8ff" points="863.46,-296.18 874.04,-296.7 866.09,-289.7 863.46,-296.18"/>
</a>
</g>
</g>
<!-- Node26 -->
<g id="Node000026" class="node">
<title>Node26</title>
<g id="a_Node000026"><a xlink:href="membrane_8c.html#a9fee56a81a4f404db4630a996f38013c" target="_top" xlink:title=" ">
<polygon fill="white" stroke="#666666" points="795.5,-324.78 719.5,-324.78 719.5,-305.78 795.5,-305.78 795.5,-324.78"/>
<text text-anchor="middle" x="757.5" y="-312.78" font-family="Helvetica,sans-Serif" font-size="10.00">Fmembrane</text>
</a>
</g>
</g>
<!-- Node25&#45;&gt;Node26 -->
<g id="edge34_Node000025_Node000026" class="edge">
<title>Node25&#45;&gt;Node26</title>
<g id="a_edge34_Node000025_Node000026"><a xlink:title=" ">
<path fill="none" stroke="#63b8ff" d="M854.02,-310.06C833.96,-311.16 812.81,-312.31 795.53,-313.26"/>
<polygon fill="#63b8ff" stroke="#63b8ff" points="854.28,-313.55 864.08,-309.51 853.9,-306.56 854.28,-313.55"/>
</a>
</g>
</g>
<!-- Node26&#45;&gt;Node7 -->
<g id="edge35_Node000026_Node000007" class="edge">
<title>Node26&#45;&gt;Node7</title>
<g id="a_edge35_Node000026_Node000007"><a xlink:title=" ">
<path fill="none" stroke="#63b8ff" d="M710.2,-303.18C681.56,-295.69 645.69,-286.32 621.02,-279.87"/>
<polygon fill="#63b8ff" stroke="#63b8ff" points="709.43,-306.6 719.99,-305.74 711.2,-299.83 709.43,-306.6"/>
</a>
</g>
</g>
<!-- Node27&#45;&gt;Node3 -->
<g id="edge37_Node000027_Node000003" class="edge">
<title>Node27&#45;&gt;Node3</title>
<g id="a_edge37_Node000027_Node000003"><a xlink:title=" ">
<path fill="none" stroke="#63b8ff" d="M874.95,-270.16C857.85,-270.47 838.34,-270.83 820.24,-271.16"/>
<polygon fill="#63b8ff" stroke="#63b8ff" points="875.33,-273.65 885.26,-269.97 875.2,-266.65 875.33,-273.65"/>
</a>
</g>
</g>
<!-- Node27&#45;&gt;Node6 -->
<g id="edge38_Node000027_Node000006" class="edge">
<title>Node27&#45;&gt;Node6</title>
<g id="a_edge38_Node000027_Node000006"><a xlink:title=" ">
<path fill="none" stroke="#63b8ff" d="M875.29,-257.68C847.33,-250.88 812.87,-242.51 788.66,-236.62"/>
<polygon fill="#63b8ff" stroke="#63b8ff" points="874.72,-261.14 885.26,-260.11 876.37,-254.34 874.72,-261.14"/>
</a>
</g>
</g>
<!-- Node28&#45;&gt;Node6 -->
<g id="edge40_Node000028_Node000006" class="edge">
<title>Node28&#45;&gt;Node6</title>
<g id="a_edge40_Node000028_Node000006"><a xlink:title=" ">
<path fill="none" stroke="#63b8ff" d="M866.94,-206.87C840.79,-212.28 810.7,-218.5 788.86,-223.01"/>
<polygon fill="#63b8ff" stroke="#63b8ff" points="867.66,-210.3 876.74,-204.84 866.24,-203.44 867.66,-210.3"/>
</a>
</g>
</g>
</g>
</svg>
