<?xml version="1.0" encoding="UTF-8" standalone="no"?>
<!DOCTYPE svg PUBLIC "-//W3C//DTD SVG 1.1//EN"
 "http://www.w3.org/Graphics/SVG/1.1/DTD/svg11.dtd">
<!-- Generated by graphviz version 2.43.0 (0)
 -->
<!-- Title: UNIT Pages: 1 -->
<svg width="207pt" height="138pt"
 viewBox="0.00 0.00 207.00 138.00" xmlns="http://www.w3.org/2000/svg" xmlns:xlink="http://www.w3.org/1999/xlink">

<svg id="main" version="1.1" xmlns="http://www.w3.org/2000/svg" xmlns:xlink="http://www.w3.org/1999/xlink" xml:space="preserve" onload="init(evt)">
<style type="text/css"><![CDATA[
.node, .edge {opacity: 0.7;}
.node.selected, .edge.selected {opacity: 1;}
.edge:hover path { stroke: red; }
.edge:hover polygon { stroke: red; fill: red; }
]]></style>
<script type="application/ecmascript" xlink:href="svg.min.js"/>
<svg id="graph" class="graph">
<g id="graph0" class="graph" transform="scale(1 1) rotate(0) translate(4 134)">
<title>UNIT</title>
<!-- Node1 -->
<g id="Node000001" class="node">
<title>Node1</title>
<g id="a_Node000001"><a xlink:title=" ">
<polygon fill="#999999" stroke="#666666" points="199,-74 158,-74 158,-55 199,-55 199,-74"/>
<text text-anchor="middle" x="178.5" y="-62" font-family="Helvetica,sans-Serif" font-size="10.00">UNIT</text>
</a>
</g>
</g>
<!-- Node2 -->
<g id="Node000002" class="node">
<title>Node2</title>
<g id="a_Node000002"><a xlink:href="material__NonlinearCantilever_8c.html#a5b99da62b0de397a913c1c424cea6f87" target="_top" xlink:title=" ">
<polygon fill="white" stroke="#666666" points="121,-130 1,-130 1,-111 121,-111 121,-130"/>
<text text-anchor="middle" x="61" y="-118" font-family="Helvetica,sans-Serif" font-size="10.00">CalcStressStrainBxyz</text>
</a>
</g>
</g>
<!-- Node1&#45;&gt;Node2 -->
<g id="edge1_Node000001_Node000002" class="edge">
<title>Node1&#45;&gt;Node2</title>
<g id="a_edge1_Node000001_Node000002"><a xlink:title=" ">
<path fill="none" stroke="#63b8ff" d="M157.63,-80.33C147.44,-87.86 134.55,-96.5 122,-102.5 115.23,-105.74 107.75,-108.54 100.44,-110.9"/>
<polygon fill="#63b8ff" stroke="#63b8ff" points="159.98,-82.94 165.82,-74.1 155.74,-77.37 159.98,-82.94"/>
</a>
</g>
</g>
<!-- Node3 -->
<g id="Node000003" class="node">
<title>Node3</title>
<g id="a_Node000003"><a xlink:href="material__NonlinearCantilever_8c.html#ab38fdcdb1705e4b2bc3636edbb240c45" target="_top" xlink:title=" ">
<polygon fill="white" stroke="#666666" points="122,-93 0,-93 0,-74 122,-74 122,-93"/>
<text text-anchor="middle" x="61" y="-81" font-family="Helvetica,sans-Serif" font-size="10.00">CalcStressStrainMxyz</text>
</a>
</g>
</g>
<!-- Node1&#45;&gt;Node3 -->
<g id="edge2_Node000001_Node000003" class="edge">
<title>Node1&#45;&gt;Node3</title>
<g id="a_edge2_Node000001_Node000003"><a xlink:title=" ">
<path fill="none" stroke="#63b8ff" d="M147.77,-69.39C139.26,-70.79 129.66,-72.37 120.06,-73.95"/>
<polygon fill="#63b8ff" stroke="#63b8ff" points="148.61,-72.8 157.91,-67.72 147.47,-65.89 148.61,-72.8"/>
</a>
</g>
</g>
<!-- Node4 -->
<g id="Node000004" class="node">
<title>Node4</title>
<g id="a_Node000004"><a xlink:href="material__NonlinearCantilever_8c.html#a9f1f713b70651e8142b65bd4da7573e2" target="_top" xlink:title=" ">
<polygon fill="white" stroke="#666666" points="99.5,-56 22.5,-56 22.5,-37 99.5,-37 99.5,-56"/>
<text text-anchor="middle" x="61" y="-44" font-family="Helvetica,sans-Serif" font-size="10.00">StressLinear</text>
</a>
</g>
</g>
<!-- Node1&#45;&gt;Node4 -->
<g id="edge3_Node000001_Node000004" class="edge">
<title>Node1&#45;&gt;Node4</title>
<g id="a_edge3_Node000001_Node000004"><a xlink:title=" ">
<path fill="none" stroke="#63b8ff" d="M147.91,-59.89C133.31,-57.61 115.53,-54.84 99.94,-52.41"/>
<polygon fill="#63b8ff" stroke="#63b8ff" points="147.49,-63.36 157.91,-61.45 148.57,-56.45 147.49,-63.36"/>
</a>
</g>
</g>
<!-- Node5 -->
<g id="Node000005" class="node">
<title>Node5</title>
<g id="a_Node000005"><a xlink:href="material__NonlinearCantilever_8c.html#a514540fed999755d181cbe5b643c356f" target="_top" xlink:title=" ">
<polygon fill="white" stroke="#666666" points="109,-19 13,-19 13,0 109,0 109,-19"/>
<text text-anchor="middle" x="61" y="-7" font-family="Helvetica,sans-Serif" font-size="10.00">StressNonLinear</text>
</a>
</g>
</g>
<!-- Node1&#45;&gt;Node5 -->
<g id="edge4_Node000001_Node000005" class="edge">
<title>Node1&#45;&gt;Node5</title>
<g id="a_edge4_Node000001_Node000005"><a xlink:title=" ">
<path fill="none" stroke="#63b8ff" d="M156.67,-49.08C146.58,-42.11 134.05,-34.19 122,-28.5 114.29,-24.86 105.71,-21.68 97.51,-19.01"/>
<polygon fill="#63b8ff" stroke="#63b8ff" points="154.66,-51.95 164.85,-54.88 158.71,-46.24 154.66,-51.95"/>
</a>
</g>
</g>
</g>
</svg>
</svg>

<style type='text/css'>
<![CDATA[
[data-mouse-over-selected='false'] { opacity: 0.7; }
[data-mouse-over-selected='true']  { opacity: 1.0; }
]]>
</style>
<script type="application/ecmascript"><![CDATA[
document.addEventListener('DOMContentLoaded', (event) => {
  highlightEdges();
  highlightAdjacentNodes();
});
]]></script>
</svg>
