<?xml version="1.0" encoding="UTF-8" standalone="no"?>
<!DOCTYPE svg PUBLIC "-//W3C//DTD SVG 1.1//EN"
 "http://www.w3.org/Graphics/SVG/1.1/DTD/svg11.dtd">
<!-- Generated by graphviz version 2.43.0 (0)
 -->
<!-- Title: INV Pages: 1 -->
<!--zoomable 346 -->

<svg id="main" version="1.1" xmlns="http://www.w3.org/2000/svg" xmlns:xlink="http://www.w3.org/1999/xlink" xml:space="preserve" onload="init(evt)">
<style type="text/css"><![CDATA[
.node, .edge {opacity: 0.7;}
.node.selected, .edge.selected {opacity: 1;}
.edge:hover path { stroke: red; }
.edge:hover polygon { stroke: red; fill: red; }
]]></style>

<defs>
  <circle id="rim" cx="0" cy="0" r="7"/>
  <circle id="rim2" cx="0" cy="0" r="3.5"/>
  <g id="zoomPlus">
    <use xlink:href="#rim" fill="#404040"><set attributeName="fill" to="#808080" begin="zoomplus.mouseover" end="zoomplus.mouseout"/></use>
    <path d="M-4,0h8M0,-4v8" fill="none" stroke="white" stroke-width="1.5" pointer-events="none"/>
  </g>
  <g id="zoomMin">
    <use xlink:href="#rim" fill="#404040"><set attributeName="fill" to="#808080" begin="zoomminus.mouseover" end="zoomminus.mouseout"/></use>
    <path d="M-4,0h8" fill="none" stroke="white" stroke-width="1.5" pointer-events="none"/>
  </g>
  <g id="arrowUp" transform="translate(30 24)">
    <use xlink:href="#rim"/>
    <path pointer-events="none" fill="none" stroke="white" stroke-width="1.5" d="M0,-3.0v7 M-2.5,-0.5L0,-3.0L2.5,-0.5"/>
  </g>
  <g id="arrowRight" transform="rotate(90) translate(36 -43)">
    <use xlink:href="#rim"/>
    <path pointer-events="none" fill="none" stroke="white" stroke-width="1.5" d="M0,-3.0v7 M-2.5,-0.5L0,-3.0L2.5,-0.5"/>
  </g>
  <g id="arrowDown" transform="rotate(180) translate(-30 -48)">
    <use xlink:href="#rim"/>
    <path pointer-events="none" fill="none" stroke="white" stroke-width="1.5" d="M0,-3.0v7 M-2.5,-0.5L0,-3.0L2.5,-0.5"/>
  </g>
  <g id="arrowLeft" transform="rotate(270) translate(-36 17)">
    <use xlink:href="#rim"/>
    <path pointer-events="none" fill="none" stroke="white" stroke-width="1.5" d="M0,-3.0v7 M-2.5,-0.5L0,-3.0L2.5,-0.5"/>
  </g>
  <g id="resetDef">
    <use xlink:href="#rim2" fill="#404040"><set attributeName="fill" to="#808080" begin="reset.mouseover" end="reset.mouseout"/></use>
  </g>
</defs>
<script type="application/ecmascript">
var viewWidth = 1070;
var viewHeight = 346;
var sectionId = 'dynsection-6';
</script>
<script type="application/ecmascript" xlink:href="svg.min.js"/>
<svg id="graph" class="graph">
<g id="viewport">
<title>INV</title>
<!-- Node1 -->
<g id="Node000001" class="node">
<title>Node1</title>
<g id="a_Node000001"><a xlink:title=" ">
<polygon fill="#999999" stroke="#666666" points="1062,-93 1028,-93 1028,-74 1062,-74 1062,-93"/>
<text text-anchor="middle" x="1045" y="-81" font-family="Helvetica,sans-Serif" font-size="10.00">INV</text>
</a>
</g>
</g>
<!-- Node2 -->
<g id="Node000002" class="node">
<title>Node2</title>
<g id="a_Node000002"><a xlink:href="material_8c.html#af81ecf5fbfd52082e0abd3184f12c14f" target="_top" xlink:title=" ">
<polygon fill="white" stroke="#666666" points="977,-130 871,-130 871,-111 977,-111 977,-130"/>
<text text-anchor="middle" x="924" y="-118" font-family="Helvetica,sans-Serif" font-size="10.00">BendingNonLinear</text>
</a>
</g>
</g>
<!-- Node1&#45;&gt;Node2 -->
<g id="edge1_Node000001_Node000002" class="edge">
<title>Node1&#45;&gt;Node2</title>
<g id="a_edge1_Node000001_Node000002"><a xlink:title=" ">
<path fill="none" stroke="#63b8ff" d="M1018.19,-93.44C1009.88,-96.5 1000.6,-99.78 992,-102.5 982.58,-105.48 972.33,-108.4 962.73,-110.99"/>
<polygon fill="#63b8ff" stroke="#63b8ff" points="1019.6,-96.65 1027.73,-89.86 1017.14,-90.09 1019.6,-96.65"/>
</a>
</g>
</g>
<!-- Node20 -->
<g id="Node000020" class="node">
<title>Node20</title>
<g id="a_Node000020"><a xlink:href="material_8c.html#a3243950933f3559f19edcb5421360526" target="_top" xlink:title=" ">
<polygon fill="white" stroke="#666666" points="992,-19 856,-19 856,0 992,0 992,-19"/>
<text text-anchor="middle" x="924" y="-7" font-family="Helvetica,sans-Serif" font-size="10.00">CalcCurvStressStrainxyz</text>
</a>
</g>
</g>
<!-- Node1&#45;&gt;Node20 -->
<g id="edge24_Node000001_Node000020" class="edge">
<title>Node1&#45;&gt;Node20</title>
<g id="a_edge24_Node000001_Node000020"><a xlink:title=" ">
<path fill="none" stroke="#63b8ff" d="M1031.45,-65.34C1021.97,-52.94 1007.91,-37.09 992,-27.5 986.33,-24.08 980,-21.3 973.56,-19.04"/>
<polygon fill="#63b8ff" stroke="#63b8ff" points="1028.77,-67.61 1037.5,-73.61 1034.42,-63.47 1028.77,-67.61"/>
</a>
</g>
</g>
<!-- Node24 -->
<g id="Node000024" class="node">
<title>Node24</title>
<g id="a_Node000024"><a xlink:href="material_8c.html#aa93862cca1fe83c736219df7d4a91374" target="_top" xlink:title=" ">
<polygon fill="white" stroke="#666666" points="983.5,-167 864.5,-167 864.5,-148 983.5,-148 983.5,-167"/>
<text text-anchor="middle" x="924" y="-155" font-family="Helvetica,sans-Serif" font-size="10.00">MembraneNonLinear</text>
</a>
</g>
</g>
<!-- Node1&#45;&gt;Node24 -->
<g id="edge30_Node000001_Node000024" class="edge">
<title>Node1&#45;&gt;Node24</title>
<g id="a_edge30_Node000001_Node000024"><a xlink:title=" ">
<path fill="none" stroke="#63b8ff" d="M1031.45,-101.66C1021.97,-114.06 1007.91,-129.91 992,-139.5 986.33,-142.92 980,-145.7 973.56,-147.96"/>
<polygon fill="#63b8ff" stroke="#63b8ff" points="1034.42,-103.53 1037.5,-93.39 1028.77,-99.39 1034.42,-103.53"/>
</a>
</g>
</g>
<!-- Node26 -->
<g id="Node000026" class="node">
<title>Node26</title>
<g id="a_Node000026"><a xlink:href="material_8c.html#a431e1e9b5ceabfa4edc2920b70296b35" target="_top" xlink:title=" ">
<polygon fill="white" stroke="#666666" points="962.5,-93 885.5,-93 885.5,-74 962.5,-74 962.5,-93"/>
<text text-anchor="middle" x="924" y="-81" font-family="Helvetica,sans-Serif" font-size="10.00">StressLinear</text>
</a>
</g>
</g>
<!-- Node1&#45;&gt;Node26 -->
<g id="edge35_Node000001_Node000026" class="edge">
<title>Node1&#45;&gt;Node26</title>
<g id="a_edge35_Node000001_Node000026"><a xlink:title=" ">
<path fill="none" stroke="#63b8ff" d="M1017.61,-83.5C1001.41,-83.5 980.43,-83.5 962.53,-83.5"/>
<polygon fill="#63b8ff" stroke="#63b8ff" points="1017.95,-87 1027.95,-83.5 1017.95,-80 1017.95,-87"/>
</a>
</g>
</g>
<!-- Node27 -->
<g id="Node000027" class="node">
<title>Node27</title>
<g id="a_Node000027"><a xlink:href="material_8c.html#aad0d0c11a159f8021feb99ddee475d31" target="_top" xlink:title=" ">
<polygon fill="white" stroke="#666666" points="981,-56 867,-56 867,-37 981,-37 981,-56"/>
<text text-anchor="middle" x="924" y="-44" font-family="Helvetica,sans-Serif" font-size="10.00">StressManufactured</text>
</a>
</g>
</g>
<!-- Node1&#45;&gt;Node27 -->
<g id="edge38_Node000001_Node000027" class="edge">
<title>Node1&#45;&gt;Node27</title>
<g id="a_edge38_Node000001_Node000027"><a xlink:title=" ">
<path fill="none" stroke="#63b8ff" d="M1018.13,-74.22C1009.82,-71.33 1000.55,-68.19 992,-65.5 981.74,-62.27 970.51,-58.99 960.23,-56.08"/>
<polygon fill="#63b8ff" stroke="#63b8ff" points="1017.09,-77.56 1027.69,-77.59 1019.42,-70.96 1017.09,-77.56"/>
</a>
</g>
</g>
<!-- Node3 -->
<g id="Node000003" class="node">
<title>Node3</title>
<g id="a_Node000003"><a xlink:href="muscle__activation_8c.html#a19d89612f2544ef7f352badd7cf1f337" target="_top" xlink:title=" ">
<polygon fill="white" stroke="#666666" points="820,-134.5 695,-134.5 695,-104.5 820,-104.5 820,-134.5"/>
<text text-anchor="start" x="703" y="-122.5" font-family="Helvetica,sans-Serif" font-size="10.00">compute_mid_surface</text>
<text text-anchor="middle" x="757.5" y="-111.5" font-family="Helvetica,sans-Serif" font-size="10.00">_el_stress_after_act</text>
</a>
</g>
</g>
<!-- Node2&#45;&gt;Node3 -->
<g id="edge2_Node000002_Node000003" class="edge">
<title>Node2&#45;&gt;Node3</title>
<g id="a_edge2_Node000002_Node000003"><a xlink:title=" ">
<path fill="none" stroke="#63b8ff" d="M860.95,-120.12C847.64,-120.04 833.58,-119.96 820.28,-119.88"/>
<polygon fill="#63b8ff" stroke="#63b8ff" points="860.93,-123.62 870.95,-120.18 860.97,-116.62 860.93,-123.62"/>
</a>
</g>
</g>
<!-- Node6 -->
<g id="Node000006" class="node">
<title>Node6</title>
<g id="a_Node000006"><a xlink:href="bending_8c.html#a2b66770553fce4724cfb65b0f79e83b1" target="_top" xlink:title=" ">
<polygon fill="white" stroke="#666666" points="788.5,-86 726.5,-86 726.5,-67 788.5,-67 788.5,-86"/>
<text text-anchor="middle" x="757.5" y="-74" font-family="Helvetica,sans-Serif" font-size="10.00">Fbending</text>
</a>
</g>
</g>
<!-- Node2&#45;&gt;Node6 -->
<g id="edge5_Node000002_Node000006" class="edge">
<title>Node2&#45;&gt;Node6</title>
<g id="a_edge5_Node000002_Node000006"><a xlink:title=" ">
<path fill="none" stroke="#63b8ff" d="M877.61,-108.36C849.25,-100.77 813.51,-91.21 788.61,-84.55"/>
<polygon fill="#63b8ff" stroke="#63b8ff" points="876.74,-111.75 887.31,-110.95 878.55,-104.99 876.74,-111.75"/>
</a>
</g>
</g>
<!-- Node4 -->
<g id="Node000004" class="node">
<title>Node4</title>
<g id="a_Node000004"><a xlink:href="muscle__activation_8c.html#a3f9fadbc31e4872a8519e6bfdecf7b8f" target="_top" xlink:title=" ">
<polygon fill="white" stroke="#666666" points="659,-101.5 523,-101.5 523,-71.5 659,-71.5 659,-101.5"/>
<text text-anchor="start" x="531" y="-89.5" font-family="Helvetica,sans-Serif" font-size="10.00">update_mid_surf_elastic</text>
<text text-anchor="middle" x="591" y="-78.5" font-family="Helvetica,sans-Serif" font-size="10.00">_stress</text>
</a>
</g>
</g>
<!-- Node3&#45;&gt;Node4 -->
<g id="edge3_Node000003_Node000004" class="edge">
<title>Node3&#45;&gt;Node4</title>
<g id="a_edge3_Node000003_Node000004"><a xlink:title=" ">
<path fill="none" stroke="#63b8ff" d="M684.82,-105.12C676.25,-103.4 667.53,-101.65 659.03,-99.95"/>
<polygon fill="#63b8ff" stroke="#63b8ff" points="684.29,-108.58 694.78,-107.12 685.66,-101.72 684.29,-108.58"/>
</a>
</g>
</g>
<!-- Node5 -->
<g id="Node000005" class="node">
<title>Node5</title>
<g id="a_Node000005"><a xlink:href="muscle__activation_8c.html#a5794b91b41d38582fd698b653b53330e" target="_top" xlink:title=" ">
<polygon fill="white" stroke="#666666" points="487,-57 362,-57 362,-38 487,-38 487,-57"/>
<text text-anchor="middle" x="424.5" y="-45" font-family="Helvetica,sans-Serif" font-size="10.00">UpdateFInternalAftAct</text>
</a>
</g>
</g>
<!-- Node4&#45;&gt;Node5 -->
<g id="edge4_Node000004_Node000005" class="edge">
<title>Node4&#45;&gt;Node5</title>
<g id="a_edge4_Node000004_Node000005"><a xlink:title=" ">
<path fill="none" stroke="#63b8ff" d="M516.24,-69.01C498.83,-64.89 480.92,-60.64 465.65,-57.02"/>
<polygon fill="#63b8ff" stroke="#63b8ff" points="515.86,-72.52 526.4,-71.42 517.48,-65.71 515.86,-72.52"/>
</a>
</g>
</g>
<!-- Node7 -->
<g id="Node000007" class="node">
<title>Node7</title>
<g id="a_Node000007"><a xlink:href="main_8c.html#a59ccabe25c63661e6e66b44209b0f162" target="_top" xlink:title=" ">
<polygon fill="white" stroke="#666666" points="621,-172 561,-172 561,-153 621,-153 621,-172"/>
<text text-anchor="middle" x="591" y="-160" font-family="Helvetica,sans-Serif" font-size="10.00">FInternal</text>
</a>
</g>
</g>
<!-- Node6&#45;&gt;Node7 -->
<g id="edge6_Node000006_Node000007" class="edge">
<title>Node6&#45;&gt;Node7</title>
<g id="a_edge6_Node000006_Node000007"><a xlink:title=" ">
<path fill="none" stroke="#63b8ff" d="M716.64,-87.04C709.31,-89.48 701.82,-92.31 695,-95.5 660.04,-111.88 623.02,-138.59 604.34,-152.84"/>
<polygon fill="#63b8ff" stroke="#63b8ff" points="717.97,-90.29 726.47,-83.97 715.88,-83.61 717.97,-90.29"/>
</a>
</g>
</g>
<!-- Node8 -->
<g id="Node000008" class="node">
<title>Node8</title>
<g id="a_Node000008"><a xlink:href="main_8c.html#aac0575d69dba68d64a6c0f65c2d8f635" target="_top" xlink:title=" ">
<polygon fill="white" stroke="#666666" points="451.5,-172 397.5,-172 397.5,-153 451.5,-153 451.5,-172"/>
<text text-anchor="middle" x="424.5" y="-160" font-family="Helvetica,sans-Serif" font-size="10.00">Contact</text>
</a>
</g>
</g>
<!-- Node7&#45;&gt;Node8 -->
<g id="edge7_Node000007_Node000008" class="edge">
<title>Node7&#45;&gt;Node8</title>
<g id="a_edge7_Node000007_Node000008"><a xlink:title=" ">
<path fill="none" stroke="#63b8ff" d="M550.62,-162.5C519.92,-162.5 478.18,-162.5 451.53,-162.5"/>
<polygon fill="#63b8ff" stroke="#63b8ff" points="550.97,-166 560.97,-162.5 550.97,-159 550.97,-166"/>
</a>
</g>
</g>
<!-- Node9 -->
<g id="Node000009" class="node">
<title>Node9</title>
<g id="a_Node000009"><a xlink:href="main_8c.html#a9a070a6f408cadb404b0ee7fbc74c576" target="_top" xlink:title=" ">
<polygon fill="white" stroke="#666666" points="181,-114 77,-114 77,-95 181,-95 181,-114"/>
<text text-anchor="middle" x="129" y="-102" font-family="Helvetica,sans-Serif" font-size="10.00">FormFunctionFEM</text>
</a>
</g>
</g>
<!-- Node7&#45;&gt;Node9 -->
<g id="edge8_Node000007_Node000009" class="edge">
<title>Node7&#45;&gt;Node9</title>
<g id="a_edge8_Node000007_Node000009"><a xlink:title=" ">
<path fill="none" stroke="#63b8ff" d="M550.97,-151.41C499.82,-137.49 407.06,-114.36 326,-105.5 277.12,-100.16 220.97,-100.53 181.34,-101.86"/>
<polygon fill="#63b8ff" stroke="#63b8ff" points="550.06,-154.79 560.63,-154.06 551.92,-148.04 550.06,-154.79"/>
</a>
</g>
</g>
<!-- Node11 -->
<g id="Node000011" class="node">
<title>Node11</title>
<g id="a_Node000011"><a xlink:href="main_8c.html#ad3a8e8f5b2e1871122784b2cd3dc1c8c" target="_top" xlink:title=" ">
<polygon fill="white" stroke="#666666" points="156.5,-302 101.5,-302 101.5,-283 156.5,-283 156.5,-302"/>
<text text-anchor="middle" x="129" y="-290" font-family="Helvetica,sans-Serif" font-size="10.00">FormRK</text>
</a>
</g>
</g>
<!-- Node7&#45;&gt;Node11 -->
<g id="edge10_Node000007_Node000011" class="edge">
<title>Node7&#45;&gt;Node11</title>
<g id="a_edge10_Node000007_Node000011"><a xlink:title=" ">
<path fill="none" stroke="#63b8ff" d="M571.89,-179.26C531.54,-215.34 429.59,-299.49 326,-329.5 279.47,-342.98 264.47,-339.17 217,-329.5 191.43,-324.29 164.06,-311.28 146.99,-302.17"/>
<polygon fill="#63b8ff" stroke="#63b8ff" points="574.48,-181.64 579.55,-172.33 569.79,-176.45 574.48,-181.64"/>
</a>
</g>
</g>
<!-- Node12 -->
<g id="Node000012" class="node">
<title>Node12</title>
<g id="a_Node000012"><a xlink:href="inverse_8c.html#a8ccb34384a9c46d52bb413dcd177c67b" target="_top" xlink:title=" ">
<polygon fill="white" stroke="#666666" points="464.5,-209 384.5,-209 384.5,-190 464.5,-190 464.5,-209"/>
<text text-anchor="middle" x="424.5" y="-197" font-family="Helvetica,sans-Serif" font-size="10.00">ResidualCalc</text>
</a>
</g>
</g>
<!-- Node7&#45;&gt;Node12 -->
<g id="edge12_Node000007_Node000012" class="edge">
<title>Node7&#45;&gt;Node12</title>
<g id="a_edge12_Node000007_Node000012"><a xlink:title=" ">
<path fill="none" stroke="#63b8ff" d="M551.06,-171.26C525.01,-177.12 490.85,-184.8 464.73,-190.68"/>
<polygon fill="#63b8ff" stroke="#63b8ff" points="551.98,-174.64 560.97,-169.03 550.45,-167.81 551.98,-174.64"/>
</a>
</g>
</g>
<!-- Node10 -->
<g id="Node000010" class="node">
<title>Node10</title>
<g id="a_Node000010"><a xlink:href="main_8c.html#a3c04138a5bfe5d72780bb7e82a18e627" target="_top" xlink:title=" ">
<polygon fill="white" stroke="#666666" points="41,-152 0,-152 0,-133 41,-133 41,-152"/>
<text text-anchor="middle" x="20.5" y="-140" font-family="Helvetica,sans-Serif" font-size="10.00">main</text>
</a>
</g>
</g>
<!-- Node9&#45;&gt;Node10 -->
<g id="edge9_Node000009_Node000010" class="edge">
<title>Node9&#45;&gt;Node10</title>
<g id="a_edge9_Node000009_Node000010"><a xlink:title=" ">
<path fill="none" stroke="#63b8ff" d="M91.56,-117.5C74.73,-123.51 55.39,-130.41 41.31,-135.43"/>
<polygon fill="#63b8ff" stroke="#63b8ff" points="92.88,-120.75 101.13,-114.09 90.53,-114.15 92.88,-120.75"/>
</a>
</g>
</g>
<!-- Node11&#45;&gt;Node10 -->
<g id="edge11_Node000011_Node000010" class="edge">
<title>Node11&#45;&gt;Node10</title>
<g id="a_edge11_Node000011_Node000010"><a xlink:title=" ">
<path fill="none" stroke="#63b8ff" d="M115.01,-274.2C92.23,-242.12 45.86,-176.81 28.38,-152.18"/>
<polygon fill="#63b8ff" stroke="#63b8ff" points="112.37,-276.53 121.01,-282.66 118.08,-272.48 112.37,-276.53"/>
</a>
</g>
</g>
<!-- Node13 -->
<g id="Node000013" class="node">
<title>Node13</title>
<g id="a_Node000013"><a xlink:href="mlp_8c.html#a95587eada79194109e216fe2d1536aa5" target="_top" xlink:title=" ">
<polygon fill="#fff0f0" stroke="red" points="307,-283 236,-283 236,-264 307,-264 307,-283"/>
<text text-anchor="middle" x="271.5" y="-271" font-family="Helvetica,sans-Serif" font-size="10.00">compute_R</text>
</a>
</g>
</g>
<!-- Node12&#45;&gt;Node13 -->
<g id="edge13_Node000012_Node000013" class="edge">
<title>Node12&#45;&gt;Node13</title>
<g id="a_edge13_Node000012_Node000013"><a xlink:title=" ">
<path fill="none" stroke="#63b8ff" d="M400.34,-214.54C381,-226.67 352.43,-243.6 326,-255.5 319.12,-258.6 311.54,-261.46 304.3,-263.95"/>
<polygon fill="#63b8ff" stroke="#63b8ff" points="402.22,-217.49 408.79,-209.18 398.47,-211.58 402.22,-217.49"/>
</a>
</g>
</g>
<!-- Node15 -->
<g id="Node000015" class="node">
<title>Node15</title>
<g id="a_Node000015"><a xlink:href="inverse_8c.html#a5a46d0c408c2a4905101ca00ed320825" target="_top" xlink:title=" ">
<polygon fill="white" stroke="#666666" points="312,-133 231,-133 231,-114 312,-114 312,-133"/>
<text text-anchor="middle" x="271.5" y="-121" font-family="Helvetica,sans-Serif" font-size="10.00">FungJacobian</text>
</a>
</g>
</g>
<!-- Node12&#45;&gt;Node15 -->
<g id="edge14_Node000012_Node000015" class="edge">
<title>Node12&#45;&gt;Node15</title>
<g id="a_edge14_Node000012_Node000015"><a xlink:title=" ">
<path fill="none" stroke="#63b8ff" d="M374.61,-187.55C370.23,-185.78 365.96,-183.77 362,-181.5 342.91,-170.55 344.3,-159.73 326,-147.5 317.54,-141.84 307.52,-136.94 298.46,-133.07"/>
<polygon fill="#63b8ff" stroke="#63b8ff" points="373.71,-190.94 384.3,-191.04 376.08,-184.36 373.71,-190.94"/>
</a>
</g>
</g>
<!-- Node16 -->
<g id="Node000016" class="node">
<title>Node16</title>
<g id="a_Node000016"><a xlink:href="inverse_8c.html#a63c0a7ac76584f0dab82764698b5d878" target="_top" xlink:title=" ">
<polygon fill="white" stroke="#666666" points="160,-190 98,-190 98,-171 160,-171 160,-190"/>
<text text-anchor="middle" x="129" y="-178" font-family="Helvetica,sans-Serif" font-size="10.00">InvSolver</text>
</a>
</g>
</g>
<!-- Node12&#45;&gt;Node16 -->
<g id="edge21_Node000012_Node000016" class="edge">
<title>Node12&#45;&gt;Node16</title>
<g id="a_edge21_Node000012_Node000016"><a xlink:title=" ">
<path fill="none" stroke="#63b8ff" d="M374.49,-188.7C359.05,-185.77 341.89,-182.99 326,-181.5 267.56,-176 198.88,-177.46 160.3,-178.99"/>
<polygon fill="#63b8ff" stroke="#63b8ff" points="373.86,-192.14 384.35,-190.63 375.21,-185.27 373.86,-192.14"/>
</a>
</g>
</g>
<!-- Node17 -->
<g id="Node000017" class="node">
<title>Node17</title>
<g id="a_Node000017"><a xlink:href="inverse_8c.html#a6dcb60291ae68ad8fa0ccea39658279a" target="_top" xlink:title=" ">
<polygon fill="white" stroke="#666666" points="320.5,-320 222.5,-320 222.5,-301 320.5,-301 320.5,-320"/>
<text text-anchor="middle" x="271.5" y="-308" font-family="Helvetica,sans-Serif" font-size="10.00">FungUniJacobian</text>
</a>
</g>
</g>
<!-- Node12&#45;&gt;Node17 -->
<g id="edge17_Node000012_Node000017" class="edge">
<title>Node12&#45;&gt;Node17</title>
<g id="a_edge17_Node000012_Node000017"><a xlink:title=" ">
<path fill="none" stroke="#63b8ff" d="M409.33,-217.07C391.78,-237.78 359.99,-271.98 326,-292.5 320.46,-295.84 314.23,-298.66 308.02,-301"/>
<polygon fill="#63b8ff" stroke="#63b8ff" points="412.26,-219.02 415.95,-209.1 406.87,-214.55 412.26,-219.02"/>
</a>
</g>
</g>
<!-- Node18 -->
<g id="Node000018" class="node">
<title>Node18</title>
<g id="a_Node000018"><a xlink:href="inverse_8c.html#ad779d411aa186efcdfb8e192c52d04b0" target="_top" xlink:title=" ">
<polygon fill="white" stroke="#666666" points="326,-246 217,-246 217,-227 326,-227 326,-246"/>
<text text-anchor="middle" x="271.5" y="-234" font-family="Helvetica,sans-Serif" font-size="10.00">grad_R_wrt_E_field</text>
</a>
</g>
</g>
<!-- Node12&#45;&gt;Node18 -->
<g id="edge19_Node000012_Node000018" class="edge">
<title>Node12&#45;&gt;Node18</title>
<g id="a_edge19_Node000012_Node000018"><a xlink:title=" ">
<path fill="none" stroke="#63b8ff" d="M374.83,-211.43C354.35,-216.44 330.83,-222.21 311.52,-226.94"/>
<polygon fill="#63b8ff" stroke="#63b8ff" points="375.73,-214.81 384.61,-209.03 374.07,-208.01 375.73,-214.81"/>
</a>
</g>
</g>
<!-- Node19 -->
<g id="Node000019" class="node">
<title>Node19</title>
<g id="a_Node000019"><a xlink:href="inverse_8c.html#a9c6b1db7cc8e3f7771140e7920429ab3" target="_top" xlink:title=" ">
<polygon fill="white" stroke="#666666" points="300.5,-209 242.5,-209 242.5,-190 300.5,-190 300.5,-209"/>
<text text-anchor="middle" x="271.5" y="-197" font-family="Helvetica,sans-Serif" font-size="10.00">Jacobian</text>
</a>
</g>
</g>
<!-- Node12&#45;&gt;Node19 -->
<g id="edge22_Node000012_Node000019" class="edge">
<title>Node12&#45;&gt;Node19</title>
<g id="a_edge22_Node000012_Node000019"><a xlink:title=" ">
<path fill="none" stroke="#63b8ff" d="M374.07,-199.5C349.7,-199.5 321.21,-199.5 300.62,-199.5"/>
<polygon fill="#63b8ff" stroke="#63b8ff" points="374.22,-203 384.22,-199.5 374.22,-196 374.22,-203"/>
</a>
</g>
</g>
<!-- Node15&#45;&gt;Node16 -->
<g id="edge15_Node000015_Node000016" class="edge">
<title>Node15&#45;&gt;Node16</title>
<g id="a_edge15_Node000015_Node000016"><a xlink:title=" ">
<path fill="none" stroke="#63b8ff" d="M237.62,-136.84C211.85,-147.3 176.62,-161.59 153.59,-170.93"/>
<polygon fill="#63b8ff" stroke="#63b8ff" points="239.03,-140.04 246.98,-133.04 236.4,-133.56 239.03,-140.04"/>
</a>
</g>
</g>
<!-- Node16&#45;&gt;Node10 -->
<g id="edge16_Node000016_Node000010" class="edge">
<title>Node16&#45;&gt;Node10</title>
<g id="a_edge16_Node000016_Node000010"><a xlink:title=" ">
<path fill="none" stroke="#63b8ff" d="M91.56,-167.5C74.73,-161.49 55.39,-154.59 41.31,-149.57"/>
<polygon fill="#63b8ff" stroke="#63b8ff" points="90.53,-170.85 101.13,-170.91 92.88,-164.25 90.53,-170.85"/>
</a>
</g>
</g>
<!-- Node17&#45;&gt;Node16 -->
<g id="edge18_Node000017_Node000016" class="edge">
<title>Node17&#45;&gt;Node16</title>
<g id="a_edge18_Node000017_Node000016"><a xlink:title=" ">
<path fill="none" stroke="#63b8ff" d="M223.64,-296.63C221.33,-295.36 219.1,-293.99 217,-292.5 176.85,-263.99 146.33,-211.67 134.9,-190.14"/>
<polygon fill="#63b8ff" stroke="#63b8ff" points="222.33,-299.88 232.87,-300.99 225.32,-293.55 222.33,-299.88"/>
</a>
</g>
</g>
<!-- Node18&#45;&gt;Node16 -->
<g id="edge20_Node000018_Node000016" class="edge">
<title>Node18&#45;&gt;Node16</title>
<g id="a_edge20_Node000018_Node000016"><a xlink:title=" ">
<path fill="none" stroke="#63b8ff" d="M231,-223.64C226.26,-221.97 221.51,-220.24 217,-218.5 193.93,-209.6 168.03,-198.08 150.53,-190.07"/>
<polygon fill="#63b8ff" stroke="#63b8ff" points="230.03,-227.01 240.62,-226.96 232.31,-220.39 230.03,-227.01"/>
</a>
</g>
</g>
<!-- Node19&#45;&gt;Node16 -->
<g id="edge23_Node000019_Node000016" class="edge">
<title>Node19&#45;&gt;Node16</title>
<g id="a_edge23_Node000019_Node000016"><a xlink:title=" ">
<path fill="none" stroke="#63b8ff" d="M232.47,-194.36C209.87,-191.3 181.6,-187.48 160.48,-184.62"/>
<polygon fill="#63b8ff" stroke="#63b8ff" points="232.03,-197.83 242.41,-195.7 232.96,-190.89 232.03,-197.83"/>
</a>
</g>
</g>
<!-- Node20&#45;&gt;Node6 -->
<g id="edge25_Node000020_Node000006" class="edge">
<title>Node20&#45;&gt;Node6</title>
<g id="a_edge25_Node000020_Node000006"><a xlink:title=" ">
<path fill="none" stroke="#63b8ff" d="M872.25,-21.95C866.72,-23.66 861.21,-25.52 856,-27.5 826.44,-38.77 793.95,-56.19 774.94,-66.94"/>
<polygon fill="#63b8ff" stroke="#63b8ff" points="873.57,-25.22 882.19,-19.05 871.61,-18.5 873.57,-25.22"/>
</a>
</g>
</g>
<!-- Node21 -->
<g id="Node000021" class="node">
<title>Node21</title>
<g id="a_Node000021"><a xlink:href="bending_8c.html#a9f48607d5ce7f351c5960f63455779c4" target="_top" xlink:title=" ">
<polygon fill="white" stroke="#666666" points="778,-19 737,-19 737,0 778,0 778,-19"/>
<text text-anchor="middle" x="757.5" y="-7" font-family="Helvetica,sans-Serif" font-size="10.00">Kve0</text>
</a>
</g>
</g>
<!-- Node20&#45;&gt;Node21 -->
<g id="edge26_Node000020_Node000021" class="edge">
<title>Node20&#45;&gt;Node21</title>
<g id="a_edge26_Node000020_Node000021"><a xlink:title=" ">
<path fill="none" stroke="#63b8ff" d="M845.42,-9.5C820.6,-9.5 795.22,-9.5 778.34,-9.5"/>
<polygon fill="#63b8ff" stroke="#63b8ff" points="845.62,-13 855.62,-9.5 845.62,-6 845.62,-13"/>
</a>
</g>
</g>
<!-- Node22 -->
<g id="Node000022" class="node">
<title>Node22</title>
<g id="a_Node000022"><a xlink:href="bending_8c.html#a2cd7ef6a41a0e3d6757965f9336e457a" target="_top" xlink:title=" ">
<polygon fill="white" stroke="#666666" points="621.5,-19 560.5,-19 560.5,0 621.5,0 621.5,-19"/>
<text text-anchor="middle" x="591" y="-7" font-family="Helvetica,sans-Serif" font-size="10.00">InitGhost</text>
</a>
</g>
</g>
<!-- Node21&#45;&gt;Node22 -->
<g id="edge27_Node000021_Node000022" class="edge">
<title>Node21&#45;&gt;Node22</title>
<g id="a_edge27_Node000021_Node000022"><a xlink:title=" ">
<path fill="none" stroke="#63b8ff" d="M726.8,-9.5C697.06,-9.5 651.55,-9.5 621.78,-9.5"/>
<polygon fill="#63b8ff" stroke="#63b8ff" points="726.98,-13 736.98,-9.5 726.98,-6 726.98,-13"/>
</a>
</g>
</g>
<!-- Node23 -->
<g id="Node000023" class="node">
<title>Node23</title>
<g id="a_Node000023"><a xlink:href="main_8c.html#a636a8f7f82b7bc4dabb749e9c7fe75a9" target="_top" xlink:title=" ">
<polygon fill="white" stroke="#666666" points="145,-58 113,-58 113,-39 145,-39 145,-58"/>
<text text-anchor="middle" x="129" y="-46" font-family="Helvetica,sans-Serif" font-size="10.00">Init</text>
</a>
</g>
</g>
<!-- Node22&#45;&gt;Node23 -->
<g id="edge28_Node000022_Node000023" class="edge">
<title>Node22&#45;&gt;Node23</title>
<g id="a_edge28_Node000022_Node000023"><a xlink:title=" ">
<path fill="none" stroke="#63b8ff" d="M550.45,-12.76C504.98,-16.52 428.09,-22.9 362,-28.5 280.23,-35.43 182.26,-43.95 145.2,-47.17"/>
<polygon fill="#63b8ff" stroke="#63b8ff" points="550.81,-16.24 560.48,-11.93 550.23,-9.27 550.81,-16.24"/>
</a>
</g>
</g>
<!-- Node23&#45;&gt;Node10 -->
<g id="edge29_Node000023_Node000010" class="edge">
<title>Node23&#45;&gt;Node10</title>
<g id="a_edge29_Node000023_Node000010"><a xlink:title=" ">
<path fill="none" stroke="#63b8ff" d="M105.5,-64.15C96.41,-70.75 85.97,-78.71 77,-86.5 59.43,-101.76 40.72,-121.45 30.13,-132.95"/>
<polygon fill="#63b8ff" stroke="#63b8ff" points="107.61,-66.94 113.71,-58.28 103.54,-61.25 107.61,-66.94"/>
</a>
</g>
</g>
<!-- Node24&#45;&gt;Node3 -->
<g id="edge31_Node000024_Node000003" class="edge">
<title>Node24&#45;&gt;Node3</title>
<g id="a_edge31_Node000024_Node000003"><a xlink:title=" ">
<path fill="none" stroke="#63b8ff" d="M871.62,-145.63C855.33,-141.87 837.15,-137.67 820.21,-133.76"/>
<polygon fill="#63b8ff" stroke="#63b8ff" points="870.96,-149.07 881.49,-147.91 872.53,-142.25 870.96,-149.07"/>
</a>
</g>
</g>
<!-- Node24&#45;&gt;Node6 -->
<g id="edge32_Node000024_Node000006" class="edge">
<title>Node24&#45;&gt;Node6</title>
<g id="a_edge32_Node000024_Node000006"><a xlink:title=" ">
<path fill="none" stroke="#63b8ff" d="M863.76,-143.87C861.07,-142.55 858.47,-141.09 856,-139.5 834.78,-125.79 840.96,-109.61 820,-95.5 810.64,-89.2 799.09,-84.91 788.54,-82.03"/>
<polygon fill="#63b8ff" stroke="#63b8ff" points="862.62,-147.19 873.19,-147.9 865.37,-140.75 862.62,-147.19"/>
</a>
</g>
</g>
<!-- Node25 -->
<g id="Node000025" class="node">
<title>Node25</title>
<g id="a_Node000025"><a xlink:href="membrane_8c.html#a9fee56a81a4f404db4630a996f38013c" target="_top" xlink:title=" ">
<polygon fill="white" stroke="#666666" points="795.5,-172 719.5,-172 719.5,-153 795.5,-153 795.5,-172"/>
<text text-anchor="middle" x="757.5" y="-160" font-family="Helvetica,sans-Serif" font-size="10.00">Fmembrane</text>
</a>
</g>
</g>
<!-- Node24&#45;&gt;Node25 -->
<g id="edge33_Node000024_Node000025" class="edge">
<title>Node24&#45;&gt;Node25</title>
<g id="a_edge33_Node000024_Node000025"><a xlink:title=" ">
<path fill="none" stroke="#63b8ff" d="M854.02,-159.6C833.96,-160.21 812.81,-160.85 795.53,-161.37"/>
<polygon fill="#63b8ff" stroke="#63b8ff" points="854.19,-163.09 864.08,-159.29 853.97,-156.1 854.19,-163.09"/>
</a>
</g>
</g>
<!-- Node25&#45;&gt;Node7 -->
<g id="edge34_Node000025_Node000007" class="edge">
<title>Node25&#45;&gt;Node7</title>
<g id="a_edge34_Node000025_Node000007"><a xlink:title=" ">
<path fill="none" stroke="#63b8ff" d="M709.07,-162.5C680.71,-162.5 645.59,-162.5 621.25,-162.5"/>
<polygon fill="#63b8ff" stroke="#63b8ff" points="709.17,-166 719.17,-162.5 709.17,-159 709.17,-166"/>
</a>
</g>
</g>
<!-- Node26&#45;&gt;Node3 -->
<g id="edge36_Node000026_Node000003" class="edge">
<title>Node26&#45;&gt;Node3</title>
<g id="a_edge36_Node000026_Node000003"><a xlink:title=" ">
<path fill="none" stroke="#63b8ff" d="M875.44,-93.91C858.21,-97.68 838.51,-101.99 820.24,-105.99"/>
<polygon fill="#63b8ff" stroke="#63b8ff" points="876.24,-97.32 885.26,-91.76 874.74,-90.48 876.24,-97.32"/>
</a>
</g>
</g>
<!-- Node26&#45;&gt;Node6 -->
<g id="edge37_Node000026_Node000006" class="edge">
<title>Node26&#45;&gt;Node6</title>
<g id="a_edge37_Node000026_Node000006"><a xlink:title=" ">
<path fill="none" stroke="#63b8ff" d="M874.92,-81.45C847.03,-80.27 812.77,-78.81 788.66,-77.78"/>
<polygon fill="#63b8ff" stroke="#63b8ff" points="875.12,-84.97 885.26,-81.89 875.42,-77.97 875.12,-84.97"/>
</a>
</g>
</g>
<!-- Node27&#45;&gt;Node6 -->
<g id="edge39_Node000027_Node000006" class="edge">
<title>Node27&#45;&gt;Node6</title>
<g id="a_edge39_Node000027_Node000006"><a xlink:title=" ">
<path fill="none" stroke="#63b8ff" d="M860.47,-57.9C835.79,-62.4 808.6,-67.36 788.5,-71.03"/>
<polygon fill="#63b8ff" stroke="#63b8ff" points="861.29,-61.31 870.5,-56.07 860.03,-54.43 861.29,-61.31"/>
</a>
</g>
</g>
</g>
</svg>

<g id="navigator" transform="translate(0 0)" fill="#404254">
  <rect fill="#f2f5e9" fill-opacity="0.5" stroke="#606060" stroke-width=".5" x="0" y="0" width="60" height="60"/>
  <use id="zoomplus" xlink:href="#zoomPlus" x="17" y="9" onmousedown="handleZoom(evt,'in')"/>
  <use id="zoomminus" xlink:href="#zoomMin" x="42" y="9" onmousedown="handleZoom(evt,'out')"/>
  <use id="reset" xlink:href="#resetDef" x="30" y="36" onmousedown="handleReset()"/>
   <use id="arrowup" xlink:href="#arrowUp" x="0" y="0" onmousedown="handlePan(0,-1)"/>
  <use id="arrowright" xlink:href="#arrowRight" x="0" y="0" onmousedown="handlePan(1,0)"/>
  <use id="arrowdown" xlink:href="#arrowDown" x="0" y="0" onmousedown="handlePan(0,1)"/>
  <use id="arrowleft" xlink:href="#arrowLeft" x="0" y="0" onmousedown="handlePan(-1,0)"/>
</g>
<svg viewBox="0 0 15 15" width="100%" height="30px" preserveAspectRatio="xMaxYMin meet">
 <g id="arrow_out" transform="scale(0.3 0.3)">
  <a xlink:href="material_8c_a3f73e4cd9eab76eeee084eabf2b98ec9_icgraph_org.svg" target="_base">
   <rect id="button" ry="5" rx="5" y="6" x="6" height="38" width="38"
        fill="#f2f5e9" fill-opacity="0.5" stroke="#606060" stroke-width="1.0"/>
   <path id="arrow"
     d="M 11.500037,31.436501 C 11.940474,20.09759 22.043105,11.32322 32.158766,21.979434 L 37.068811,17.246167 C 37.068811,17.246167 37.088388,32 37.088388,32 L 22.160133,31.978069 C 22.160133,31.978069 26.997745,27.140456 26.997745,27.140456 C 18.528582,18.264221 13.291696,25.230495 11.500037,31.436501 z"
     style="fill:#404040;"/>
  </a>
 </g>
</svg>

<style type='text/css'>
<![CDATA[
[data-mouse-over-selected='false'] { opacity: 0.7; }
[data-mouse-over-selected='true']  { opacity: 1.0; }
]]>
</style>
<script type="application/ecmascript"><![CDATA[
document.addEventListener('DOMContentLoaded', (event) => {
  highlightEdges();
  highlightAdjacentNodes();
});
]]></script>
</svg>
