<?xml version="1.0" encoding="UTF-8" standalone="no"?>
<!DOCTYPE svg PUBLIC "-//W3C//DTD SVG 1.1//EN"
 "http://www.w3.org/Graphics/SVG/1.1/DTD/svg11.dtd">
<!-- Generated by graphviz version 2.43.0 (0)
 -->
<!-- Title: BHVFiberDirUpdate Pages: 1 -->
<svg width="205pt" height="101pt"
 viewBox="0.00 0.00 205.00 101.00" xmlns="http://www.w3.org/2000/svg" xmlns:xlink="http://www.w3.org/1999/xlink">
<g id="graph0" class="graph" transform="scale(1 1) rotate(0) translate(4 97)">
<title>BHVFiberDirUpdate</title>
<!-- Node1 -->
<g id="Node000001" class="node">
<title>Node1</title>
<g id="a_Node000001"><a xlink:title=" ">
<polygon fill="#999999" stroke="#666666" points="111,-56 0,-56 0,-37 111,-37 111,-56"/>
<text text-anchor="middle" x="55.5" y="-44" font-family="Helvetica,sans-Serif" font-size="10.00">BHVFiberDirUpdate</text>
</a>
</g>
</g>
<!-- Node2 -->
<g id="Node000002" class="node">
<title>Node2</title>
<g id="a_Node000002"><a xlink:href="math_8c.html#a9d60990d26296194c921d537ea26f3c7" target="_top" xlink:title=" ">
<polygon fill="white" stroke="#666666" points="197,-93 147,-93 147,-74 197,-74 197,-93"/>
<text text-anchor="middle" x="172" y="-81" font-family="Helvetica,sans-Serif" font-size="10.00">CROSS</text>
</a>
</g>
</g>
<!-- Node1&#45;&gt;Node2 -->
<g id="edge1_Node000001_Node000002" class="edge">
<title>Node1&#45;&gt;Node2</title>
<g id="a_edge1_Node000001_Node000002"><a xlink:title=" ">
<path fill="none" stroke="#63b8ff" d="M85.99,-56.03C101.57,-61.06 120.78,-67.27 136.99,-72.51"/>
<polygon fill="#63b8ff" stroke="#63b8ff" points="136.04,-75.88 146.63,-75.63 138.2,-69.22 136.04,-75.88"/>
</a>
</g>
</g>
<!-- Node3 -->
<g id="Node000003" class="node">
<title>Node3</title>
<g id="a_Node000003"><a xlink:href="math_8c.html#a9d08a9d2fd8e8932e92b8ab054b19269" target="_top" xlink:title=" ">
<polygon fill="white" stroke="#666666" points="197,-56 147,-56 147,-37 197,-37 197,-56"/>
<text text-anchor="middle" x="172" y="-44" font-family="Helvetica,sans-Serif" font-size="10.00">MINUS</text>
</a>
</g>
</g>
<!-- Node1&#45;&gt;Node3 -->
<g id="edge2_Node000001_Node000003" class="edge">
<title>Node1&#45;&gt;Node3</title>
<g id="a_edge2_Node000001_Node000003"><a xlink:title=" ">
<path fill="none" stroke="#63b8ff" d="M111.07,-46.5C119.8,-46.5 128.61,-46.5 136.7,-46.5"/>
<polygon fill="#63b8ff" stroke="#63b8ff" points="136.83,-50 146.83,-46.5 136.83,-43 136.83,-50"/>
</a>
</g>
</g>
<!-- Node4 -->
<g id="Node000004" class="node">
<title>Node4</title>
<g id="a_Node000004"><a xlink:href="math_8c.html#ac616709995f2ae60c4308ffa328337d7" target="_top" xlink:title=" ">
<polygon fill="white" stroke="#666666" points="192.5,-19 151.5,-19 151.5,0 192.5,0 192.5,-19"/>
<text text-anchor="middle" x="172" y="-7" font-family="Helvetica,sans-Serif" font-size="10.00">UNIT</text>
</a>
</g>
</g>
<!-- Node1&#45;&gt;Node4 -->
<g id="edge3_Node000001_Node000004" class="edge">
<title>Node1&#45;&gt;Node4</title>
<g id="a_edge3_Node000001_Node000004"><a xlink:title=" ">
<path fill="none" stroke="#63b8ff" d="M85.99,-36.97C103,-31.47 124.32,-24.58 141.36,-19.08"/>
<polygon fill="#63b8ff" stroke="#63b8ff" points="142.9,-22.26 151.34,-15.85 140.74,-15.6 142.9,-22.26"/>
</a>
</g>
</g>
</g>
</svg>
