<?xml version="1.0" encoding="UTF-8" standalone="no"?>
<!DOCTYPE svg PUBLIC "-//W3C//DTD SVG 1.1//EN"
 "http://www.w3.org/Graphics/SVG/1.1/DTD/svg11.dtd">
<!-- Generated by graphviz version 2.43.0 (0)
 -->
<!-- Title: math.c Pages: 1 -->
<svg width="463pt" height="247pt"
 viewBox="0.00 0.00 462.63 247.00" xmlns="http://www.w3.org/2000/svg" xmlns:xlink="http://www.w3.org/1999/xlink">

<svg id="main" version="1.1" xmlns="http://www.w3.org/2000/svg" xmlns:xlink="http://www.w3.org/1999/xlink" xml:space="preserve" onload="init(evt)">
<style type="text/css"><![CDATA[
.node, .edge {opacity: 0.7;}
.node.selected, .edge.selected {opacity: 1;}
.edge:hover path { stroke: red; }
.edge:hover polygon { stroke: red; fill: red; }
]]></style>
<script type="application/ecmascript" xlink:href="svg.min.js"/>
<svg id="graph" class="graph">
<g id="graph0" class="graph" transform="scale(1 1) rotate(0) translate(4 243)">
<title>math.c</title>
<!-- Node1 -->
<g id="Node000001" class="node">
<title>Node1</title>
<g id="a_Node000001"><a xlink:title=" ">
<polygon fill="#999999" stroke="#666666" points="77.63,-239 27.63,-239 27.63,-220 77.63,-220 77.63,-239"/>
<text text-anchor="middle" x="52.63" y="-227" font-family="Helvetica,sans-Serif" font-size="10.00">math.c</text>
</a>
</g>
</g>
<!-- Node2 -->
<g id="Node000002" class="node">
<title>Node2</title>
<g id="a_Node000002"><a xlink:href="variables_8h.html" target="_top" xlink:title=" ">
<polygon fill="white" stroke="#666666" points="183.13,-184 112.13,-184 112.13,-165 183.13,-165 183.13,-184"/>
<text text-anchor="middle" x="147.63" y="-172" font-family="Helvetica,sans-Serif" font-size="10.00">variables.h</text>
</a>
</g>
</g>
<!-- Node1&#45;&gt;Node2 -->
<g id="edge1_Node000001_Node000002" class="edge">
<title>Node1&#45;&gt;Node2</title>
<g id="a_edge1_Node000001_Node000002"><a xlink:title=" ">
<path fill="none" stroke="#63b8ff" d="M67.9,-219.98C82.77,-211.69 105.62,-198.94 123.05,-189.22"/>
<polygon fill="#63b8ff" stroke="#63b8ff" points="125.07,-192.1 132.09,-184.17 121.66,-185.99 125.07,-192.1"/>
</a>
</g>
</g>
<!-- Node4 -->
<g id="Node000004" class="node">
<title>Node4</title>
<g id="a_Node000004"><a xlink:href="math_8h.html" target="_top" xlink:title=" ">
<polygon fill="white" stroke="#666666" points="183.13,-74 132.13,-74 132.13,-55 183.13,-55 183.13,-74"/>
<text text-anchor="middle" x="157.63" y="-62" font-family="Helvetica,sans-Serif" font-size="10.00">math.h</text>
</a>
</g>
</g>
<!-- Node1&#45;&gt;Node4 -->
<g id="edge13_Node000001_Node000004" class="edge">
<title>Node1&#45;&gt;Node4</title>
<g id="a_edge13_Node000001_Node000004"><a xlink:title=" ">
<path fill="none" stroke="#63b8ff" d="M44.34,-219.96C25.28,-199.31 -17.98,-145.72 8.63,-110 34.51,-75.27 86.46,-66.59 121.64,-64.95"/>
<polygon fill="#63b8ff" stroke="#63b8ff" points="122.09,-68.44 131.98,-64.65 121.88,-61.45 122.09,-68.44"/>
</a>
</g>
</g>
<!-- Node3 -->
<g id="Node000003" class="node">
<title>Node3</title>
<g id="a_Node000003"><a xlink:title=" ">
<polygon fill="#e0e0e0" stroke="#999999" points="217.63,-129 143.63,-129 143.63,-110 217.63,-110 217.63,-129"/>
<text text-anchor="middle" x="180.63" y="-117" font-family="Helvetica,sans-Serif" font-size="10.00">petscsnes.h</text>
</a>
</g>
</g>
<!-- Node2&#45;&gt;Node3 -->
<g id="edge2_Node000002_Node000003" class="edge">
<title>Node2&#45;&gt;Node3</title>
<g id="a_edge2_Node000002_Node000003"><a xlink:title=" ">
<path fill="none" stroke="#63b8ff" d="M153.08,-164.75C157.65,-157.42 164.3,-146.73 169.93,-137.7"/>
<polygon fill="#63b8ff" stroke="#63b8ff" points="172.97,-139.43 175.29,-129.09 167.03,-135.73 172.97,-139.43"/>
</a>
</g>
</g>
<!-- Node2&#45;&gt;Node4 -->
<g id="edge3_Node000002_Node000004" class="edge">
<title>Node2&#45;&gt;Node4</title>
<g id="a_edge3_Node000002_Node000004"><a xlink:title=" ">
<path fill="none" stroke="#63b8ff" d="M143.43,-164.83C138.04,-152.56 129.9,-129.46 134.63,-110 136.94,-100.51 141.65,-90.78 146.21,-82.85"/>
<polygon fill="#63b8ff" stroke="#63b8ff" points="149.27,-84.55 151.53,-74.2 143.31,-80.89 149.27,-84.55"/>
</a>
</g>
</g>
<!-- Node6 -->
<g id="Node000006" class="node">
<title>Node6</title>
<g id="a_Node000006"><a xlink:title=" ">
<polygon fill="#e0e0e0" stroke="#999999" points="87.13,-129 18.13,-129 18.13,-110 87.13,-110 87.13,-129"/>
<text text-anchor="middle" x="52.63" y="-117" font-family="Helvetica,sans-Serif" font-size="10.00">petscvec.h</text>
</a>
</g>
</g>
<!-- Node2&#45;&gt;Node6 -->
<g id="edge6_Node000002_Node000006" class="edge">
<title>Node2&#45;&gt;Node6</title>
<g id="a_edge6_Node000002_Node000006"><a xlink:title=" ">
<path fill="none" stroke="#63b8ff" d="M132.37,-164.98C117.5,-156.69 94.65,-143.94 77.22,-134.22"/>
<polygon fill="#63b8ff" stroke="#63b8ff" points="78.61,-130.99 68.18,-129.17 75.2,-137.1 78.61,-130.99"/>
</a>
</g>
</g>
<!-- Node7 -->
<g id="Node000007" class="node">
<title>Node7</title>
<g id="a_Node000007"><a xlink:href="act__variables_8h.html" target="_top" xlink:title="Data containers for active&#45;strain kinematics, stress, and material data.">
<polygon fill="white" stroke="#666666" points="327.13,-129 236.13,-129 236.13,-110 327.13,-110 327.13,-129"/>
<text text-anchor="middle" x="281.63" y="-117" font-family="Helvetica,sans-Serif" font-size="10.00">act_variables.h</text>
</a>
</g>
</g>
<!-- Node2&#45;&gt;Node7 -->
<g id="edge7_Node000002_Node000007" class="edge">
<title>Node2&#45;&gt;Node7</title>
<g id="a_edge7_Node000002_Node000007"><a xlink:title=" ">
<path fill="none" stroke="#63b8ff" d="M169.16,-164.98C191.11,-156.3 225.38,-142.75 250.32,-132.88"/>
<polygon fill="#63b8ff" stroke="#63b8ff" points="251.7,-136.1 259.71,-129.17 249.13,-129.59 251.7,-136.1"/>
</a>
</g>
</g>
<!-- Node8 -->
<g id="Node000008" class="node">
<title>Node8</title>
<g id="a_Node000008"><a xlink:href="dmplex__types_8h.html" target="_top" xlink:title="Persistent DMPlex geometry context for Loop subdivision surfaces.">
<polygon fill="white" stroke="#666666" points="440.13,-129 345.13,-129 345.13,-110 440.13,-110 440.13,-129"/>
<text text-anchor="middle" x="392.63" y="-117" font-family="Helvetica,sans-Serif" font-size="10.00">dmplex_types.h</text>
</a>
</g>
</g>
<!-- Node2&#45;&gt;Node8 -->
<g id="edge10_Node000002_Node000008" class="edge">
<title>Node2&#45;&gt;Node8</title>
<g id="a_edge10_Node000002_Node000008"><a xlink:title=" ">
<path fill="none" stroke="#63b8ff" d="M183.26,-165.79C225.42,-156.67 295.87,-141.43 343.27,-131.18"/>
<polygon fill="#63b8ff" stroke="#63b8ff" points="344.28,-134.54 353.31,-129.01 342.8,-127.7 344.28,-134.54"/>
</a>
</g>
</g>
<!-- Node4&#45;&gt;Node4 -->
<g id="edge4_Node000004_Node000004" class="edge">
<title>Node4&#45;&gt;Node4</title>
<g id="a_edge4_Node000004_Node000004"><a xlink:title=" ">
<path fill="none" stroke="#63b8ff" d="M178.22,-74.07C190.09,-76.02 201.13,-72.83 201.13,-64.5 201.13,-58.64 195.67,-55.33 188.31,-54.55"/>
<polygon fill="#63b8ff" stroke="#63b8ff" points="188.08,-51.06 178.22,-54.93 188.35,-58.05 188.08,-51.06"/>
</a>
</g>
</g>
<!-- Node5 -->
<g id="Node000005" class="node">
<title>Node5</title>
<g id="a_Node000005"><a xlink:title=" ">
<polygon fill="#e0e0e0" stroke="#999999" points="227.63,-19 159.63,-19 159.63,0 227.63,0 227.63,-19"/>
<text text-anchor="middle" x="193.63" y="-7" font-family="Helvetica,sans-Serif" font-size="10.00">petscsys.h</text>
</a>
</g>
</g>
<!-- Node4&#45;&gt;Node5 -->
<g id="edge5_Node000004_Node000005" class="edge">
<title>Node4&#45;&gt;Node5</title>
<g id="a_edge5_Node000004_Node000005"><a xlink:title=" ">
<path fill="none" stroke="#63b8ff" d="M163.58,-54.75C168.61,-47.34 175.97,-36.5 182.15,-27.41"/>
<polygon fill="#63b8ff" stroke="#63b8ff" points="185.08,-29.33 187.8,-19.09 179.29,-25.39 185.08,-29.33"/>
</a>
</g>
</g>
<!-- Node7&#45;&gt;Node4 -->
<g id="edge9_Node000007_Node000004" class="edge">
<title>Node7&#45;&gt;Node4</title>
<g id="a_edge9_Node000007_Node000004"><a xlink:title=" ">
<path fill="none" stroke="#63b8ff" d="M261.71,-109.98C241.58,-101.38 210.26,-87.99 187.22,-78.15"/>
<polygon fill="#63b8ff" stroke="#63b8ff" points="188.49,-74.88 177.92,-74.17 185.74,-81.32 188.49,-74.88"/>
</a>
</g>
</g>
<!-- Node7&#45;&gt;Node5 -->
<g id="edge8_Node000007_Node000005" class="edge">
<title>Node7&#45;&gt;Node5</title>
<g id="a_edge8_Node000007_Node000005"><a xlink:title=" ">
<path fill="none" stroke="#63b8ff" d="M274.43,-109.66C259.73,-91.61 226.05,-50.28 207.14,-27.08"/>
<polygon fill="#63b8ff" stroke="#63b8ff" points="209.72,-24.7 200.69,-19.16 204.29,-29.12 209.72,-24.7"/>
</a>
</g>
</g>
<!-- Node9 -->
<g id="Node000009" class="node">
<title>Node9</title>
<g id="a_Node000009"><a xlink:title=" ">
<polygon fill="#e0e0e0" stroke="#999999" points="377.13,-74 288.13,-74 288.13,-55 377.13,-55 377.13,-74"/>
<text text-anchor="middle" x="332.63" y="-62" font-family="Helvetica,sans-Serif" font-size="10.00">petscdmplex.h</text>
</a>
</g>
</g>
<!-- Node8&#45;&gt;Node9 -->
<g id="edge11_Node000008_Node000009" class="edge">
<title>Node8&#45;&gt;Node9</title>
<g id="a_edge11_Node000008_Node000009"><a xlink:title=" ">
<path fill="none" stroke="#63b8ff" d="M382.99,-109.98C374.13,-102.15 360.76,-90.34 350.03,-80.86"/>
<polygon fill="#63b8ff" stroke="#63b8ff" points="352.26,-78.17 342.45,-74.17 347.63,-83.41 352.26,-78.17"/>
</a>
</g>
</g>
<!-- Node10 -->
<g id="Node000010" class="node">
<title>Node10</title>
<g id="a_Node000010"><a xlink:title=" ">
<polygon fill="#e0e0e0" stroke="#999999" points="454.63,-74 394.63,-74 394.63,-55 454.63,-55 454.63,-74"/>
<text text-anchor="middle" x="424.63" y="-62" font-family="Helvetica,sans-Serif" font-size="10.00">petscsf.h</text>
</a>
</g>
</g>
<!-- Node8&#45;&gt;Node10 -->
<g id="edge12_Node000008_Node000010" class="edge">
<title>Node8&#45;&gt;Node10</title>
<g id="a_edge12_Node000008_Node000010"><a xlink:title=" ">
<path fill="none" stroke="#63b8ff" d="M397.92,-109.75C402.35,-102.42 408.8,-91.73 414.25,-82.7"/>
<polygon fill="#63b8ff" stroke="#63b8ff" points="417.28,-84.46 419.45,-74.09 411.28,-80.84 417.28,-84.46"/>
</a>
</g>
</g>
</g>
</svg>
</svg>

<style type='text/css'>
<![CDATA[
[data-mouse-over-selected='false'] { opacity: 0.7; }
[data-mouse-over-selected='true']  { opacity: 1.0; }
]]>
</style>
<script type="application/ecmascript"><![CDATA[
document.addEventListener('DOMContentLoaded', (event) => {
  highlightEdges();
  highlightAdjacentNodes();
});
]]></script>
</svg>
