<?xml version="1.0" encoding="UTF-8" standalone="no"?>
<!DOCTYPE svg PUBLIC "-//W3C//DTD SVG 1.1//EN"
 "http://www.w3.org/Graphics/SVG/1.1/DTD/svg11.dtd">
<!-- Generated by graphviz version 2.43.0 (0)
 -->
<!-- Title: DOT Pages: 1 -->
<!--zoomable 537 -->

<svg id="main" version="1.1" xmlns="http://www.w3.org/2000/svg" xmlns:xlink="http://www.w3.org/1999/xlink" xml:space="preserve" onload="init(evt)">
<style type="text/css"><![CDATA[
.node, .edge {opacity: 0.7;}
.node.selected, .edge.selected {opacity: 1;}
.edge:hover path { stroke: red; }
.edge:hover polygon { stroke: red; fill: red; }
]]></style>

<defs>
  <circle id="rim" cx="0" cy="0" r="7"/>
  <circle id="rim2" cx="0" cy="0" r="3.5"/>
  <g id="zoomPlus">
    <use xlink:href="#rim" fill="#404040"><set attributeName="fill" to="#808080" begin="zoomplus.mouseover" end="zoomplus.mouseout"/></use>
    <path d="M-4,0h8M0,-4v8" fill="none" stroke="white" stroke-width="1.5" pointer-events="none"/>
  </g>
  <g id="zoomMin">
    <use xlink:href="#rim" fill="#404040"><set attributeName="fill" to="#808080" begin="zoomminus.mouseover" end="zoomminus.mouseout"/></use>
    <path d="M-4,0h8" fill="none" stroke="white" stroke-width="1.5" pointer-events="none"/>
  </g>
  <g id="arrowUp" transform="translate(30 24)">
    <use xlink:href="#rim"/>
    <path pointer-events="none" fill="none" stroke="white" stroke-width="1.5" d="M0,-3.0v7 M-2.5,-0.5L0,-3.0L2.5,-0.5"/>
  </g>
  <g id="arrowRight" transform="rotate(90) translate(36 -43)">
    <use xlink:href="#rim"/>
    <path pointer-events="none" fill="none" stroke="white" stroke-width="1.5" d="M0,-3.0v7 M-2.5,-0.5L0,-3.0L2.5,-0.5"/>
  </g>
  <g id="arrowDown" transform="rotate(180) translate(-30 -48)">
    <use xlink:href="#rim"/>
    <path pointer-events="none" fill="none" stroke="white" stroke-width="1.5" d="M0,-3.0v7 M-2.5,-0.5L0,-3.0L2.5,-0.5"/>
  </g>
  <g id="arrowLeft" transform="rotate(270) translate(-36 17)">
    <use xlink:href="#rim"/>
    <path pointer-events="none" fill="none" stroke="white" stroke-width="1.5" d="M0,-3.0v7 M-2.5,-0.5L0,-3.0L2.5,-0.5"/>
  </g>
  <g id="resetDef">
    <use xlink:href="#rim2" fill="#404040"><set attributeName="fill" to="#808080" begin="reset.mouseover" end="reset.mouseout"/></use>
  </g>
</defs>
<script type="application/ecmascript">
var viewWidth = 1199;
var viewHeight = 537;
var sectionId = 'dynsection-4';
</script>
<script type="application/ecmascript" xlink:href="svg.min.js"/>
<svg id="graph" class="graph">
<g id="viewport">
<title>DOT</title>
<!-- Node1 -->
<g id="Node000001" class="node">
<title>Node1</title>
<g id="a_Node000001"><a xlink:title=" ">
<polygon fill="#999999" stroke="#666666" points="1191,-329 1153,-329 1153,-310 1191,-310 1191,-329"/>
<text text-anchor="middle" x="1172" y="-317" font-family="Helvetica,sans-Serif" font-size="10.00">DOT</text>
</a>
</g>
</g>
<!-- Node2 -->
<g id="Node000002" class="node">
<title>Node2</title>
<g id="a_Node000002"><a xlink:href="muscle__activation_8c.html#a13c6cf542d26fb36178553818485eda9" target="_top" xlink:title=" ">
<polygon fill="white" stroke="#666666" points="1099,-524 971,-524 971,-505 1099,-505 1099,-524"/>
<text text-anchor="middle" x="1035" y="-512" font-family="Helvetica,sans-Serif" font-size="10.00">cal_total_stress_act_el</text>
</a>
</g>
</g>
<!-- Node1&#45;&gt;Node2 -->
<g id="edge1_Node000001_Node000002" class="edge">
<title>Node1&#45;&gt;Node2</title>
<g id="a_edge1_Node000001_Node000002"><a xlink:title=" ">
<path fill="none" stroke="#63b8ff" d="M1170.51,-339.25C1168.54,-374.62 1159.29,-448.96 1117,-490.5 1110.62,-496.77 1102.68,-501.41 1094.29,-504.85"/>
<polygon fill="#63b8ff" stroke="#63b8ff" points="1174.01,-339.36 1170.92,-329.23 1167.01,-339.07 1174.01,-339.36"/>
</a>
</g>
</g>
<!-- Node5 -->
<g id="Node000005" class="node">
<title>Node5</title>
<g id="a_Node000005"><a xlink:href="muscle__activation_8c.html#a8de86acbd2114bdd44a3b7125602d0fe" target="_top" xlink:title=" ">
<polygon fill="white" stroke="#666666" points="1092,-367 978,-367 978,-348 1092,-348 1092,-367"/>
<text text-anchor="middle" x="1035" y="-355" font-family="Helvetica,sans-Serif" font-size="10.00">calculate_cov_basis</text>
</a>
</g>
</g>
<!-- Node1&#45;&gt;Node5 -->
<g id="edge4_Node000001_Node000005" class="edge">
<title>Node1&#45;&gt;Node5</title>
<g id="a_edge4_Node000001_Node000005"><a xlink:title=" ">
<path fill="none" stroke="#63b8ff" d="M1143.04,-329.98C1134.72,-332.93 1125.55,-336 1117,-338.5 1105.35,-341.9 1092.63,-345.12 1080.79,-347.9"/>
<polygon fill="#63b8ff" stroke="#63b8ff" points="1144.45,-333.2 1152.67,-326.5 1142.07,-326.61 1144.45,-333.2"/>
</a>
</g>
</g>
<!-- Node9 -->
<g id="Node000009" class="node">
<title>Node9</title>
<g id="a_Node000009"><a xlink:href="muscle__activation_8c.html#a5bcab0a432f4401f206e0366535f005e" target="_top" xlink:title="High&#45;Level Procedure for Muscle Activation Update.">
<polygon fill="white" stroke="#666666" points="1105.5,-329 964.5,-329 964.5,-310 1105.5,-310 1105.5,-329"/>
<text text-anchor="middle" x="1035" y="-317" font-family="Helvetica,sans-Serif" font-size="10.00">compute_act_Fa_element</text>
</a>
</g>
</g>
<!-- Node1&#45;&gt;Node9 -->
<g id="edge9_Node000001_Node000009" class="edge">
<title>Node1&#45;&gt;Node9</title>
<g id="a_edge9_Node000001_Node000009"><a xlink:title=" ">
<path fill="none" stroke="#63b8ff" d="M1142.67,-319.5C1131.78,-319.5 1118.81,-319.5 1105.73,-319.5"/>
<polygon fill="#63b8ff" stroke="#63b8ff" points="1142.79,-323 1152.79,-319.5 1142.79,-316 1142.79,-323"/>
</a>
</g>
</g>
<!-- Node11 -->
<g id="Node000011" class="node">
<title>Node11</title>
<g id="a_Node000011"><a xlink:href="muscle__activation_8c.html#a8bc18accda5d9acdf28357164879241e" target="_top" xlink:title="Compute intermediate deformed covariant basis vectors.">
<polygon fill="white" stroke="#666666" points="1096.5,-291.5 973.5,-291.5 973.5,-261.5 1096.5,-261.5 1096.5,-291.5"/>
<text text-anchor="start" x="981.5" y="-279.5" font-family="Helvetica,sans-Serif" font-size="10.00">compute_intmd_state</text>
<text text-anchor="middle" x="1035" y="-268.5" font-family="Helvetica,sans-Serif" font-size="10.00">_cov_basis_element</text>
</a>
</g>
</g>
<!-- Node1&#45;&gt;Node11 -->
<g id="edge12_Node000001_Node000011" class="edge">
<title>Node1&#45;&gt;Node11</title>
<g id="a_edge12_Node000001_Node000011"><a xlink:title=" ">
<path fill="none" stroke="#63b8ff" d="M1142.89,-310C1134.57,-307.22 1125.43,-304.21 1117,-301.5 1106.77,-298.22 1095.79,-294.77 1085.32,-291.53"/>
<polygon fill="#63b8ff" stroke="#63b8ff" points="1141.95,-313.37 1152.54,-313.23 1144.17,-306.74 1141.95,-313.37"/>
</a>
</g>
</g>
<!-- Node13 -->
<g id="Node000013" class="node">
<title>Node13</title>
<g id="a_Node000013"><a xlink:href="muscle__activation_8c.html#a19d89612f2544ef7f352badd7cf1f337" target="_top" xlink:title=" ">
<polygon fill="white" stroke="#666666" points="1097.5,-481.5 972.5,-481.5 972.5,-451.5 1097.5,-451.5 1097.5,-481.5"/>
<text text-anchor="start" x="980.5" y="-469.5" font-family="Helvetica,sans-Serif" font-size="10.00">compute_mid_surface</text>
<text text-anchor="middle" x="1035" y="-458.5" font-family="Helvetica,sans-Serif" font-size="10.00">_el_stress_after_act</text>
</a>
</g>
</g>
<!-- Node1&#45;&gt;Node13 -->
<g id="edge15_Node000001_Node000013" class="edge">
<title>Node1&#45;&gt;Node13</title>
<g id="a_edge15_Node000001_Node000013"><a xlink:title=" ">
<path fill="none" stroke="#63b8ff" d="M1165.72,-338.92C1158.36,-362.76 1142.91,-403.13 1117,-428.5 1107.12,-438.17 1094.32,-445.71 1081.82,-451.43"/>
<polygon fill="#63b8ff" stroke="#63b8ff" points="1169.1,-339.83 1168.54,-329.25 1162.38,-337.87 1169.1,-339.83"/>
</a>
</g>
</g>
<!-- Node15 -->
<g id="Node000015" class="node">
<title>Node15</title>
<g id="a_Node000015"><a xlink:href="active__strain_8c.html#af6f59806c4a71e53ae3ffb4ed5ac56ec" target="_top" xlink:title=" ">
<polygon fill="white" stroke="#666666" points="1096.5,-196 973.5,-196 973.5,-177 1096.5,-177 1096.5,-196"/>
<text text-anchor="middle" x="1035" y="-184" font-family="Helvetica,sans-Serif" font-size="10.00">ComputeMetricTensor</text>
</a>
</g>
</g>
<!-- Node1&#45;&gt;Node15 -->
<g id="edge18_Node000001_Node000015" class="edge">
<title>Node1&#45;&gt;Node15</title>
<g id="a_edge18_Node000001_Node000015"><a xlink:title=" ">
<path fill="none" stroke="#63b8ff" d="M1165.05,-300.2C1157.3,-277.97 1141.74,-241.69 1117,-219.5 1105.02,-208.75 1089.07,-201.25 1074.5,-196.14"/>
<polygon fill="#63b8ff" stroke="#63b8ff" points="1161.78,-301.45 1168.24,-309.85 1168.43,-299.26 1161.78,-301.45"/>
</a>
</g>
</g>
<!-- Node24 -->
<g id="Node000024" class="node">
<title>Node24</title>
<g id="a_Node000024"><a xlink:href="active__strain_8c.html#a9ef026a24ded6fec7243fd82f49394c3" target="_top" xlink:title=" ">
<polygon fill="white" stroke="#666666" points="1117,-135.5 953,-135.5 953,-105.5 1117,-105.5 1117,-135.5"/>
<text text-anchor="start" x="961" y="-123.5" font-family="Helvetica,sans-Serif" font-size="10.00">ElemUpdateGeomSubdivFrom</text>
<text text-anchor="middle" x="1035" y="-112.5" font-family="Helvetica,sans-Serif" font-size="10.00">Coords_</text>
</a>
</g>
</g>
<!-- Node1&#45;&gt;Node24 -->
<g id="edge29_Node000001_Node000024" class="edge">
<title>Node1&#45;&gt;Node24</title>
<g id="a_edge29_Node000001_Node000024"><a xlink:title=" ">
<path fill="none" stroke="#63b8ff" d="M1168.43,-299.78C1163.47,-268.56 1149.99,-207.21 1117,-167.5 1105.57,-153.74 1089.01,-143.13 1073.84,-135.5"/>
<polygon fill="#63b8ff" stroke="#63b8ff" points="1164.99,-300.44 1169.89,-309.83 1171.92,-299.43 1164.99,-300.44"/>
</a>
</g>
</g>
<!-- Node31 -->
<g id="Node000031" class="node">
<title>Node31</title>
<g id="a_Node000031"><a xlink:href="active__strain_8c.html#ace13f65688712f8ea397a734d66954ad" target="_top" xlink:title="Assemble element internal force vector into Fb_out.">
<polygon fill="white" stroke="#666666" points="511,-243 432,-243 432,-224 511,-224 511,-243"/>
<text text-anchor="middle" x="471.5" y="-231" font-family="Helvetica,sans-Serif" font-size="10.00">ElemUpdFint</text>
</a>
</g>
</g>
<!-- Node1&#45;&gt;Node31 -->
<g id="edge45_Node000001_Node000031" class="edge">
<title>Node1&#45;&gt;Node31</title>
<g id="a_edge45_Node000001_Node000031"><a xlink:title=" ">
<path fill="none" stroke="#63b8ff" d="M1161.93,-300.95C1152.97,-284.91 1137.61,-262.74 1117,-252.5 1009.97,-199.35 633.2,-221.64 511.04,-230.5"/>
<polygon fill="#63b8ff" stroke="#63b8ff" points="1158.93,-302.76 1166.68,-309.98 1165.13,-299.5 1158.93,-302.76"/>
</a>
</g>
</g>
<!-- Node32 -->
<g id="Node000032" class="node">
<title>Node32</title>
<g id="a_Node000032"><a xlink:href="muscle__activation_8c.html#a357b3bb1950e461f37dc728929d29486" target="_top" xlink:title=" ">
<polygon fill="white" stroke="#666666" points="885.5,-443 787.5,-443 787.5,-424 885.5,-424 885.5,-443"/>
<text text-anchor="middle" x="836.5" y="-431" font-family="Helvetica,sans-Serif" font-size="10.00">FInternalAftActEl</text>
</a>
</g>
</g>
<!-- Node1&#45;&gt;Node32 -->
<g id="edge47_Node000001_Node000032" class="edge">
<title>Node1&#45;&gt;Node32</title>
<g id="a_edge47_Node000001_Node000032"><a xlink:title=" ">
<path fill="none" stroke="#63b8ff" d="M1158.69,-337.48C1148.9,-350.36 1134.04,-367.04 1117,-376.5 1043.18,-417.48 943.71,-429.16 885.5,-432.39"/>
<polygon fill="#63b8ff" stroke="#63b8ff" points="1161.58,-339.46 1164.62,-329.31 1155.91,-335.34 1161.58,-339.46"/>
</a>
</g>
</g>
<!-- Node3 -->
<g id="Node000003" class="node">
<title>Node3</title>
<g id="a_Node000003"><a xlink:href="muscle__activation_8c.html#ac3ca4cc4ba5200069bc54f7f7b131b46" target="_top" xlink:title=" ">
<polygon fill="white" stroke="#666666" points="903.5,-529 769.5,-529 769.5,-510 903.5,-510 903.5,-529"/>
<text text-anchor="middle" x="836.5" y="-517" font-family="Helvetica,sans-Serif" font-size="10.00">UpdateTotalStressAftAct</text>
</a>
</g>
</g>
<!-- Node2&#45;&gt;Node3 -->
<g id="edge2_Node000002_Node000003" class="edge">
<title>Node2&#45;&gt;Node3</title>
<g id="a_edge2_Node000002_Node000003"><a xlink:title=" ">
<path fill="none" stroke="#63b8ff" d="M960.53,-516.37C941.88,-516.84 921.95,-517.35 903.68,-517.82"/>
<polygon fill="#63b8ff" stroke="#63b8ff" points="960.84,-519.86 970.74,-516.11 960.66,-512.87 960.84,-519.86"/>
</a>
</g>
</g>
<!-- Node4 -->
<g id="Node000004" class="node">
<title>Node4</title>
<g id="a_Node000004"><a xlink:href="muscle__activation_8c.html#a5794b91b41d38582fd698b653b53330e" target="_top" xlink:title=" ">
<polygon fill="white" stroke="#666666" points="710,-486 585,-486 585,-467 710,-467 710,-486"/>
<text text-anchor="middle" x="647.5" y="-474" font-family="Helvetica,sans-Serif" font-size="10.00">UpdateFInternalAftAct</text>
</a>
</g>
</g>
<!-- Node3&#45;&gt;Node4 -->
<g id="edge3_Node000003_Node000004" class="edge">
<title>Node3&#45;&gt;Node4</title>
<g id="a_edge3_Node000003_Node000004"><a xlink:title=" ">
<path fill="none" stroke="#63b8ff" d="M784.23,-507.71C754.56,-500.89 717.7,-492.41 689.89,-486.02"/>
<polygon fill="#63b8ff" stroke="#63b8ff" points="783.47,-511.13 794,-509.96 785.04,-504.3 783.47,-511.13"/>
</a>
</g>
</g>
<!-- Node6 -->
<g id="Node000006" class="node">
<title>Node6</title>
<g id="a_Node000006"><a xlink:href="muscle__activation_8c.html#a98fd1f2632f8a9dafbcd477adbf354a0" target="_top" xlink:title=" ">
<polygon fill="white" stroke="#666666" points="700.5,-367 594.5,-367 594.5,-348 700.5,-348 700.5,-367"/>
<text text-anchor="middle" x="647.5" y="-355" font-family="Helvetica,sans-Serif" font-size="10.00">find_intmd_coords</text>
</a>
</g>
</g>
<!-- Node5&#45;&gt;Node6 -->
<g id="edge5_Node000005_Node000006" class="edge">
<title>Node5&#45;&gt;Node6</title>
<g id="a_edge5_Node000005_Node000006"><a xlink:title=" ">
<path fill="none" stroke="#63b8ff" d="M976.46,-368.73C957.59,-371.91 936.47,-374.93 917,-376.5 845.68,-382.25 827.28,-382.75 756,-376.5 734.85,-374.65 711.64,-370.78 692.2,-367.01"/>
<polygon fill="#63b8ff" stroke="#63b8ff" points="977.14,-372.17 986.4,-367.01 975.94,-365.27 977.14,-372.17"/>
</a>
</g>
</g>
<!-- Node8 -->
<g id="Node000008" class="node">
<title>Node8</title>
<g id="a_Node000008"><a xlink:href="muscle__activation_8c.html#a6775d705d7242ce0339ce632abbfa4b4" target="_top" xlink:title=" ">
<polygon fill="white" stroke="#666666" points="917,-367 756,-367 756,-348 917,-348 917,-367"/>
<text text-anchor="middle" x="836.5" y="-355" font-family="Helvetica,sans-Serif" font-size="10.00">form_interm_state_func_grad</text>
</a>
</g>
</g>
<!-- Node5&#45;&gt;Node8 -->
<g id="edge7_Node000005_Node000008" class="edge">
<title>Node5&#45;&gt;Node8</title>
<g id="a_edge7_Node000005_Node000008"><a xlink:title=" ">
<path fill="none" stroke="#63b8ff" d="M967.51,-357.5C951.31,-357.5 933.81,-357.5 917.07,-357.5"/>
<polygon fill="#63b8ff" stroke="#63b8ff" points="967.95,-361 977.95,-357.5 967.95,-354 967.95,-361"/>
</a>
</g>
</g>
<!-- Node7 -->
<g id="Node000007" class="node">
<title>Node7</title>
<g id="a_Node000007"><a xlink:href="muscle__activation_8c.html#aad998374ae4f3ca2c8f14b4c4b2aaafd" target="_top" xlink:title=" ">
<polygon fill="white" stroke="#666666" points="533,-329 410,-329 410,-310 533,-310 533,-329"/>
<text text-anchor="middle" x="471.5" y="-317" font-family="Helvetica,sans-Serif" font-size="10.00">InitMuscleActProblem</text>
</a>
</g>
</g>
<!-- Node6&#45;&gt;Node7 -->
<g id="edge6_Node000006_Node000007" class="edge">
<title>Node6&#45;&gt;Node7</title>
<g id="a_edge6_Node000006_Node000007"><a xlink:title=" ">
<path fill="none" stroke="#63b8ff" d="M592.69,-345.75C568.08,-340.37 539.31,-334.09 516.09,-329.02"/>
<polygon fill="#63b8ff" stroke="#63b8ff" points="592.08,-349.2 602.59,-347.91 593.57,-342.36 592.08,-349.2"/>
</a>
</g>
</g>
<!-- Node8&#45;&gt;Node6 -->
<g id="edge8_Node000008_Node000006" class="edge">
<title>Node8&#45;&gt;Node6</title>
<g id="a_edge8_Node000008_Node000006"><a xlink:title=" ">
<path fill="none" stroke="#63b8ff" d="M745.79,-357.5C730.32,-357.5 714.71,-357.5 700.66,-357.5"/>
<polygon fill="#63b8ff" stroke="#63b8ff" points="745.92,-361 755.92,-357.5 745.92,-354 745.92,-361"/>
</a>
</g>
</g>
<!-- Node10 -->
<g id="Node000010" class="node">
<title>Node10</title>
<g id="a_Node000010"><a xlink:href="muscle__activation_8c.html#a0dda352c79a3d0150ff314d8c63e0054" target="_top" xlink:title="Updates all active Fa values for each element.">
<polygon fill="white" stroke="#666666" points="690.5,-329 604.5,-329 604.5,-310 690.5,-310 690.5,-329"/>
<text text-anchor="middle" x="647.5" y="-317" font-family="Helvetica,sans-Serif" font-size="10.00">update_act_Fa</text>
</a>
</g>
</g>
<!-- Node9&#45;&gt;Node10 -->
<g id="edge10_Node000009_Node000010" class="edge">
<title>Node9&#45;&gt;Node10</title>
<g id="a_edge10_Node000009_Node000010"><a xlink:title=" ">
<path fill="none" stroke="#63b8ff" d="M954.14,-319.5C874.06,-319.5 753.84,-319.5 690.69,-319.5"/>
<polygon fill="#63b8ff" stroke="#63b8ff" points="954.19,-323 964.19,-319.5 954.19,-316 954.19,-323"/>
</a>
</g>
</g>
<!-- Node10&#45;&gt;Node7 -->
<g id="edge11_Node000010_Node000007" class="edge">
<title>Node10&#45;&gt;Node7</title>
<g id="a_edge11_Node000010_Node000007"><a xlink:title=" ">
<path fill="none" stroke="#63b8ff" d="M594.32,-319.5C575.12,-319.5 553.21,-319.5 533.31,-319.5"/>
<polygon fill="#63b8ff" stroke="#63b8ff" points="594.38,-323 604.38,-319.5 594.38,-316 594.38,-323"/>
</a>
</g>
</g>
<!-- Node12 -->
<g id="Node000012" class="node">
<title>Node12</title>
<g id="a_Node000012"><a xlink:href="muscle__activation_8c.html#a5000e7a797094fd0e94879c0c765d853" target="_top" xlink:title="Update intermediate deformed basis vectors for all elements.">
<polygon fill="white" stroke="#666666" points="893.5,-291.5 779.5,-291.5 779.5,-261.5 893.5,-261.5 893.5,-291.5"/>
<text text-anchor="start" x="787.5" y="-279.5" font-family="Helvetica,sans-Serif" font-size="10.00">update_intmd_state</text>
<text text-anchor="middle" x="836.5" y="-268.5" font-family="Helvetica,sans-Serif" font-size="10.00">_cov_basis</text>
</a>
</g>
</g>
<!-- Node11&#45;&gt;Node12 -->
<g id="edge13_Node000011_Node000012" class="edge">
<title>Node11&#45;&gt;Node12</title>
<g id="a_edge13_Node000011_Node000012"><a xlink:title=" ">
<path fill="none" stroke="#63b8ff" d="M963.4,-276.5C940.43,-276.5 915.26,-276.5 893.51,-276.5"/>
<polygon fill="#63b8ff" stroke="#63b8ff" points="963.44,-280 973.44,-276.5 963.44,-273 963.44,-280"/>
</a>
</g>
</g>
<!-- Node12&#45;&gt;Node7 -->
<g id="edge14_Node000012_Node000007" class="edge">
<title>Node12&#45;&gt;Node7</title>
<g id="a_edge14_Node000012_Node000007"><a xlink:title=" ">
<path fill="none" stroke="#63b8ff" d="M769.22,-281.42C716.48,-285.69 640.84,-292.57 575,-301.5 557.72,-303.84 538.91,-306.98 522.17,-309.97"/>
<polygon fill="#63b8ff" stroke="#63b8ff" points="769.77,-284.89 779.46,-280.6 769.21,-277.91 769.77,-284.89"/>
</a>
</g>
</g>
<!-- Node14 -->
<g id="Node000014" class="node">
<title>Node14</title>
<g id="a_Node000014"><a xlink:href="muscle__activation_8c.html#a3f9fadbc31e4872a8519e6bfdecf7b8f" target="_top" xlink:title=" ">
<polygon fill="white" stroke="#666666" points="904.5,-491.5 768.5,-491.5 768.5,-461.5 904.5,-461.5 904.5,-491.5"/>
<text text-anchor="start" x="776.5" y="-479.5" font-family="Helvetica,sans-Serif" font-size="10.00">update_mid_surf_elastic</text>
<text text-anchor="middle" x="836.5" y="-468.5" font-family="Helvetica,sans-Serif" font-size="10.00">_stress</text>
</a>
</g>
</g>
<!-- Node13&#45;&gt;Node14 -->
<g id="edge16_Node000013_Node000014" class="edge">
<title>Node13&#45;&gt;Node14</title>
<g id="a_edge16_Node000013_Node000014"><a xlink:title=" ">
<path fill="none" stroke="#63b8ff" d="M962.37,-470.15C943.54,-471.1 923.3,-472.13 904.71,-473.08"/>
<polygon fill="#63b8ff" stroke="#63b8ff" points="962.56,-473.64 972.37,-469.64 962.2,-466.65 962.56,-473.64"/>
</a>
</g>
</g>
<!-- Node14&#45;&gt;Node4 -->
<g id="edge17_Node000014_Node000004" class="edge">
<title>Node14&#45;&gt;Node4</title>
<g id="a_edge17_Node000014_Node000004"><a xlink:title=" ">
<path fill="none" stroke="#63b8ff" d="M757.9,-476.5C741.99,-476.5 725.44,-476.5 710.17,-476.5"/>
<polygon fill="#63b8ff" stroke="#63b8ff" points="758.25,-480 768.25,-476.5 758.25,-473 758.25,-480"/>
</a>
</g>
</g>
<!-- Node16 -->
<g id="Node000016" class="node">
<title>Node16</title>
<g id="a_Node000016"><a xlink:href="active__strain_8c.html#a993ef27fda81bb402cba4aa14fa9b51a" target="_top" xlink:title="Build current covariant/contravariant basis vectors for one element.">
<polygon fill="white" stroke="#666666" points="878.5,-186 794.5,-186 794.5,-167 878.5,-167 878.5,-186"/>
<text text-anchor="middle" x="836.5" y="-174" font-family="Helvetica,sans-Serif" font-size="10.00">ElemUpdateG</text>
</a>
</g>
</g>
<!-- Node15&#45;&gt;Node16 -->
<g id="edge19_Node000015_Node000016" class="edge">
<title>Node15&#45;&gt;Node16</title>
<g id="a_edge19_Node000015_Node000016"><a xlink:title=" ">
<path fill="none" stroke="#63b8ff" d="M963.15,-182.89C934.76,-181.45 903.05,-179.84 878.59,-178.59"/>
<polygon fill="#63b8ff" stroke="#63b8ff" points="963.28,-186.41 973.44,-183.42 963.63,-179.41 963.28,-186.41"/>
</a>
</g>
</g>
<!-- Node17 -->
<g id="Node000017" class="node">
<title>Node17</title>
<g id="a_Node000017"><a xlink:href="active__strain_8c.html#a693fb698122674ff7df6dd47ac75167c" target="_top" xlink:title="Run per&#45;element precomputations before global internal&#45;force assembly.">
<polygon fill="white" stroke="#666666" points="520,-205 423,-205 423,-186 520,-186 520,-205"/>
<text text-anchor="middle" x="471.5" y="-193" font-family="Helvetica,sans-Serif" font-size="10.00">FInternalPreCalc</text>
</a>
</g>
</g>
<!-- Node16&#45;&gt;Node17 -->
<g id="edge20_Node000016_Node000017" class="edge">
<title>Node16&#45;&gt;Node17</title>
<g id="a_edge20_Node000016_Node000017"><a xlink:title=" ">
<path fill="none" stroke="#63b8ff" d="M783.81,-179.21C713.39,-182.89 588.27,-189.44 520.06,-193.01"/>
<polygon fill="#63b8ff" stroke="#63b8ff" points="784.41,-182.68 794.21,-178.66 784.04,-175.69 784.41,-182.68"/>
</a>
</g>
</g>
<!-- Node21 -->
<g id="Node000021" class="node">
<title>Node21</title>
<g id="a_Node000021"><a xlink:href="cuda__processes_8c.html#a627a27228923fbc3e63f0f4e1c5aa765" target="_top" xlink:title=" ">
<polygon fill="white" stroke="#666666" points="702,-130 593,-130 593,-111 702,-111 702,-130"/>
<text text-anchor="middle" x="647.5" y="-118" font-family="Helvetica,sans-Serif" font-size="10.00">RunCudaProcesses</text>
</a>
</g>
</g>
<!-- Node16&#45;&gt;Node21 -->
<g id="edge24_Node000016_Node000021" class="edge">
<title>Node16&#45;&gt;Node21</title>
<g id="a_edge24_Node000016_Node000021"><a xlink:title=" ">
<path fill="none" stroke="#63b8ff" d="M798.6,-163.62C776.03,-155.92 746.49,-146.18 720,-138.5 709.92,-135.58 698.96,-132.68 688.72,-130.09"/>
<polygon fill="#63b8ff" stroke="#63b8ff" points="797.54,-166.95 808.13,-166.89 799.81,-160.33 797.54,-166.95"/>
</a>
</g>
</g>
<!-- Node22 -->
<g id="Node000022" class="node">
<title>Node22</title>
<g id="a_Node000022"><a xlink:href="dmplex__geom_8c.html#aa2b24de348fff4079de659ff63ba9b85" target="_top" xlink:title="Synchronise remote coordinates and evaluate the geometry kernel for all local cells.">
<polygon fill="white" stroke="#666666" points="705,-167 590,-167 590,-148 705,-148 705,-167"/>
<text text-anchor="middle" x="647.5" y="-155" font-family="Helvetica,sans-Serif" font-size="10.00">RunLocalGeometry_</text>
</a>
</g>
</g>
<!-- Node16&#45;&gt;Node22 -->
<g id="edge26_Node000016_Node000022" class="edge">
<title>Node16&#45;&gt;Node22</title>
<g id="a_edge26_Node000016_Node000022"><a xlink:title=" ">
<path fill="none" stroke="#63b8ff" d="M784.27,-171.29C759.72,-168.8 730.25,-165.81 705.05,-163.25"/>
<polygon fill="#63b8ff" stroke="#63b8ff" points="784.16,-174.8 794.46,-172.33 784.87,-167.84 784.16,-174.8"/>
</a>
</g>
</g>
<!-- Node18 -->
<g id="Node000018" class="node">
<title>Node18</title>
<g id="a_Node000018"><a xlink:href="active__strain_8c.html#a3bac899c10052c346d2afe9eccbac71d" target="_top" xlink:title="Assemble global internal force vector for active&#45;strain mechanics.">
<polygon fill="white" stroke="#666666" points="330.5,-205 254.5,-205 254.5,-186 330.5,-186 330.5,-205"/>
<text text-anchor="middle" x="292.5" y="-193" font-family="Helvetica,sans-Serif" font-size="10.00">FInternalAct</text>
</a>
</g>
</g>
<!-- Node17&#45;&gt;Node18 -->
<g id="edge21_Node000017_Node000018" class="edge">
<title>Node17&#45;&gt;Node18</title>
<g id="a_edge21_Node000017_Node000018"><a xlink:title=" ">
<path fill="none" stroke="#63b8ff" d="M412.53,-195.5C385.64,-195.5 354.47,-195.5 330.77,-195.5"/>
<polygon fill="#63b8ff" stroke="#63b8ff" points="412.6,-199 422.6,-195.5 412.6,-192 412.6,-199"/>
</a>
</g>
</g>
<!-- Node19 -->
<g id="Node000019" class="node">
<title>Node19</title>
<g id="a_Node000019"><a xlink:href="main_8c.html#a9a070a6f408cadb404b0ee7fbc74c576" target="_top" xlink:title=" ">
<polygon fill="white" stroke="#666666" points="181,-205 77,-205 77,-186 181,-186 181,-205"/>
<text text-anchor="middle" x="129" y="-193" font-family="Helvetica,sans-Serif" font-size="10.00">FormFunctionFEM</text>
</a>
</g>
</g>
<!-- Node18&#45;&gt;Node19 -->
<g id="edge22_Node000018_Node000019" class="edge">
<title>Node18&#45;&gt;Node19</title>
<g id="a_edge22_Node000018_Node000019"><a xlink:title=" ">
<path fill="none" stroke="#63b8ff" d="M244.42,-195.5C224.61,-195.5 201.5,-195.5 181.26,-195.5"/>
<polygon fill="#63b8ff" stroke="#63b8ff" points="244.45,-199 254.45,-195.5 244.45,-192 244.45,-199"/>
</a>
</g>
</g>
<!-- Node20 -->
<g id="Node000020" class="node">
<title>Node20</title>
<g id="a_Node000020"><a xlink:href="main_8c.html#a3c04138a5bfe5d72780bb7e82a18e627" target="_top" xlink:title=" ">
<polygon fill="white" stroke="#666666" points="41,-129 0,-129 0,-110 41,-110 41,-129"/>
<text text-anchor="middle" x="20.5" y="-117" font-family="Helvetica,sans-Serif" font-size="10.00">main</text>
</a>
</g>
</g>
<!-- Node19&#45;&gt;Node20 -->
<g id="edge23_Node000019_Node000020" class="edge">
<title>Node19&#45;&gt;Node20</title>
<g id="a_edge23_Node000019_Node000020"><a xlink:title=" ">
<path fill="none" stroke="#63b8ff" d="M94.5,-181.58C88.49,-178.57 82.42,-175.18 77,-171.5 58.65,-159.04 40.48,-140.54 30.16,-129.29"/>
<polygon fill="#63b8ff" stroke="#63b8ff" points="93.27,-184.87 103.8,-185.98 96.26,-178.54 93.27,-184.87"/>
</a>
</g>
</g>
<!-- Node21&#45;&gt;Node20 -->
<g id="edge25_Node000021_Node000020" class="edge">
<title>Node21&#45;&gt;Node20</title>
<g id="a_edge25_Node000021_Node000020"><a xlink:title=" ">
<path fill="none" stroke="#63b8ff" d="M582.94,-120.4C445.02,-120.18 124.02,-119.66 41.25,-119.53"/>
<polygon fill="#63b8ff" stroke="#63b8ff" points="582.94,-123.9 592.94,-120.41 582.95,-116.9 582.94,-123.9"/>
</a>
</g>
</g>
<!-- Node23 -->
<g id="Node000023" class="node">
<title>Node23</title>
<g id="a_Node000023"><a xlink:href="dmplex__geom_8c.html#ac4ecb4d172bee5f7c59a9fdf2680bb51" target="_top" xlink:title="Benchmark: run the full distributed DMPlex geometry pipeline for all bodies.">
<polygon fill="white" stroke="#666666" points="368,-167 217,-167 217,-148 368,-148 368,-167"/>
<text text-anchor="middle" x="292.5" y="-155" font-family="Helvetica,sans-Serif" font-size="10.00">RunDMPlexGeomProcesses</text>
</a>
</g>
</g>
<!-- Node22&#45;&gt;Node23 -->
<g id="edge27_Node000022_Node000023" class="edge">
<title>Node22&#45;&gt;Node23</title>
<g id="a_edge27_Node000022_Node000023"><a xlink:title=" ">
<path fill="none" stroke="#63b8ff" d="M579.62,-157.5C519.33,-157.5 430.8,-157.5 368.22,-157.5"/>
<polygon fill="#63b8ff" stroke="#63b8ff" points="579.78,-161 589.78,-157.5 579.78,-154 579.78,-161"/>
</a>
</g>
</g>
<!-- Node23&#45;&gt;Node20 -->
<g id="edge28_Node000023_Node000020" class="edge">
<title>Node23&#45;&gt;Node20</title>
<g id="a_edge28_Node000023_Node000020"><a xlink:title=" ">
<path fill="none" stroke="#63b8ff" d="M206.55,-150.67C166.99,-146.81 119.4,-141.18 77,-133.5 64.97,-131.32 51.69,-128 41.14,-125.15"/>
<polygon fill="#63b8ff" stroke="#63b8ff" points="206.4,-154.17 216.69,-151.64 207.06,-147.2 206.4,-154.17"/>
</a>
</g>
</g>
<!-- Node25 -->
<g id="Node000025" class="node">
<title>Node25</title>
<g id="a_Node000025"><a xlink:href="active__strain_8c.html#ac93e65e44aa9af3d11c2165016210d87" target="_top" xlink:title="Update reference midsurface geometry cache for one element.">
<polygon fill="white" stroke="#666666" points="909,-93 764,-93 764,-74 909,-74 909,-93"/>
<text text-anchor="middle" x="836.5" y="-81" font-family="Helvetica,sans-Serif" font-size="10.00">ElemUpdateGeom0Subdiv</text>
</a>
</g>
</g>
<!-- Node24&#45;&gt;Node25 -->
<g id="edge30_Node000024_Node000025" class="edge">
<title>Node24&#45;&gt;Node25</title>
<g id="a_edge30_Node000024_Node000025"><a xlink:title=" ">
<path fill="none" stroke="#63b8ff" d="M944.07,-103.57C924.83,-99.94 905.16,-96.24 888.04,-93.02"/>
<polygon fill="#63b8ff" stroke="#63b8ff" points="943.6,-107.04 954.08,-105.45 944.9,-100.16 943.6,-107.04"/>
</a>
</g>
</g>
<!-- Node29 -->
<g id="Node000029" class="node">
<title>Node29</title>
<g id="a_Node000029"><a xlink:href="active__strain_8c.html#a04fa5da4f55d0663ad5ec7a3534de0af" target="_top" xlink:title="Update current midsurface geometry cache for one element.">
<polygon fill="white" stroke="#666666" points="906,-130 767,-130 767,-111 906,-111 906,-130"/>
<text text-anchor="middle" x="836.5" y="-118" font-family="Helvetica,sans-Serif" font-size="10.00">ElemUpdateGeomSubdiv</text>
</a>
</g>
</g>
<!-- Node24&#45;&gt;Node29 -->
<g id="edge38_Node000024_Node000029" class="edge">
<title>Node24&#45;&gt;Node29</title>
<g id="a_edge38_Node000024_Node000029"><a xlink:title=" ">
<path fill="none" stroke="#63b8ff" d="M942.67,-120.5C930.39,-120.5 917.96,-120.5 906.16,-120.5"/>
<polygon fill="#63b8ff" stroke="#63b8ff" points="942.94,-124 952.94,-120.5 942.94,-117 942.94,-124"/>
</a>
</g>
</g>
<!-- Node25&#45;&gt;Node21 -->
<g id="edge34_Node000025_Node000021" class="edge">
<title>Node25&#45;&gt;Node21</title>
<g id="a_edge34_Node000025_Node000021"><a xlink:title=" ">
<path fill="none" stroke="#63b8ff" d="M777.3,-95.02C751.45,-100.13 721.4,-106.08 696.82,-110.94"/>
<polygon fill="#63b8ff" stroke="#63b8ff" points="778.21,-98.4 787.34,-93.03 776.85,-91.54 778.21,-98.4"/>
</a>
</g>
</g>
<!-- Node25&#45;&gt;Node22 -->
<g id="edge37_Node000025_Node000022" class="edge">
<title>Node25&#45;&gt;Node22</title>
<g id="a_edge37_Node000025_Node000022"><a xlink:title=" ">
<path fill="none" stroke="#63b8ff" d="M766.08,-96.62C762.6,-98.08 759.21,-99.7 756,-101.5 735.99,-112.72 739.8,-126.91 720,-138.5 713.35,-142.39 705.89,-145.5 698.36,-147.99"/>
<polygon fill="#63b8ff" stroke="#63b8ff" points="767.33,-99.89 775.49,-93.12 764.89,-93.33 767.33,-99.89"/>
</a>
</g>
</g>
<!-- Node26 -->
<g id="Node000026" class="node">
<title>Node26</title>
<g id="a_Node000026"><a xlink:href="dmplex__geom_8c.html#aeca513213e67a07a712cc41e8c6412ea" target="_top" xlink:title="One&#45;time DMPlex geometry setup.">
<polygon fill="white" stroke="#666666" points="716,-19 579,-19 579,0 716,0 716,-19"/>
<text text-anchor="middle" x="647.5" y="-7" font-family="Helvetica,sans-Serif" font-size="10.00">FEM_DMPlexGeomSetup</text>
</a>
</g>
</g>
<!-- Node25&#45;&gt;Node26 -->
<g id="edge31_Node000025_Node000026" class="edge">
<title>Node25&#45;&gt;Node26</title>
<g id="a_edge31_Node000025_Node000026"><a xlink:title=" ">
<path fill="none" stroke="#63b8ff" d="M809.58,-69.03C786.6,-56.67 751.84,-39.09 720,-27.5 711.22,-24.3 701.63,-21.47 692.41,-19.04"/>
<polygon fill="#63b8ff" stroke="#63b8ff" points="807.92,-72.11 818.37,-73.82 811.26,-65.96 807.92,-72.11"/>
</a>
</g>
</g>
<!-- Node28 -->
<g id="Node000028" class="node">
<title>Node28</title>
<g id="a_Node000028"><a xlink:href="kokkos__processes_8c.html#a3f18ca1bc94cfbc69753dccb70a43699" target="_top" xlink:title=" ">
<polygon fill="white" stroke="#666666" points="707,-56 588,-56 588,-37 707,-37 707,-56"/>
<text text-anchor="middle" x="647.5" y="-44" font-family="Helvetica,sans-Serif" font-size="10.00">RunKokkosProcesses</text>
</a>
</g>
</g>
<!-- Node25&#45;&gt;Node28 -->
<g id="edge35_Node000025_Node000028" class="edge">
<title>Node25&#45;&gt;Node28</title>
<g id="a_edge35_Node000025_Node000028"><a xlink:title=" ">
<path fill="none" stroke="#63b8ff" d="M777.3,-71.98C751.45,-66.87 721.4,-60.92 696.82,-56.06"/>
<polygon fill="#63b8ff" stroke="#63b8ff" points="776.85,-75.46 787.34,-73.97 778.21,-68.6 776.85,-75.46"/>
</a>
</g>
</g>
<!-- Node26&#45;&gt;Node20 -->
<g id="edge32_Node000026_Node000020" class="edge">
<title>Node26&#45;&gt;Node20</title>
<g id="a_edge32_Node000026_Node000020"><a xlink:title=" ">
<path fill="none" stroke="#63b8ff" d="M568.51,-11.08C520.81,-12.85 458.64,-16.6 404,-24.5 256.43,-45.84 220.06,-57.48 77,-99.5 64.91,-103.05 51.63,-107.81 41.09,-111.79"/>
<polygon fill="#63b8ff" stroke="#63b8ff" points="568.9,-14.57 578.77,-10.73 568.66,-7.58 568.9,-14.57"/>
</a>
</g>
</g>
<!-- Node27 -->
<g id="Node000027" class="node">
<title>Node27</title>
<g id="a_Node000027"><a xlink:href="dmplex__geom_8c.html#af897ef006be5d3cc2be53b272a4f5a61" target="_top" xlink:title="Drop&#45;in geometry call: setup + update + destroy in one shot.">
<polygon fill="white" stroke="#666666" points="539,-53 404,-53 404,-34 539,-34 539,-53"/>
<text text-anchor="middle" x="471.5" y="-41" font-family="Helvetica,sans-Serif" font-size="10.00">RunDMPlexGeomSubdiv</text>
</a>
</g>
</g>
<!-- Node26&#45;&gt;Node27 -->
<g id="edge33_Node000026_Node000027" class="edge">
<title>Node26&#45;&gt;Node27</title>
<g id="a_edge33_Node000026_Node000027"><a xlink:title=" ">
<path fill="none" stroke="#63b8ff" d="M587.56,-21.02C566.02,-25.23 541.92,-29.93 521.37,-33.95"/>
<polygon fill="#63b8ff" stroke="#63b8ff" points="588.43,-24.41 597.57,-19.06 587.08,-17.54 588.43,-24.41"/>
</a>
</g>
</g>
<!-- Node28&#45;&gt;Node20 -->
<g id="edge36_Node000028_Node000020" class="edge">
<title>Node28&#45;&gt;Node20</title>
<g id="a_edge36_Node000028_Node000020"><a xlink:title=" ">
<path fill="none" stroke="#63b8ff" d="M577.76,-56.37C564.89,-58.14 551.54,-59.92 539,-61.5 345.25,-85.87 110.04,-110.41 41.26,-117.48"/>
<polygon fill="#63b8ff" stroke="#63b8ff" points="578.53,-59.8 587.96,-54.96 577.57,-52.87 578.53,-59.8"/>
</a>
</g>
</g>
<!-- Node29&#45;&gt;Node21 -->
<g id="edge42_Node000029_Node000021" class="edge">
<title>Node29&#45;&gt;Node21</title>
<g id="a_edge42_Node000029_Node000021"><a xlink:title=" ">
<path fill="none" stroke="#63b8ff" d="M756.79,-120.5C738.37,-120.5 719.16,-120.5 702.13,-120.5"/>
<polygon fill="#63b8ff" stroke="#63b8ff" points="756.93,-124 766.93,-120.5 756.93,-117 756.93,-124"/>
</a>
</g>
</g>
<!-- Node29&#45;&gt;Node22 -->
<g id="edge44_Node000029_Node000022" class="edge">
<title>Node29&#45;&gt;Node22</title>
<g id="a_edge44_Node000029_Node000022"><a xlink:title=" ">
<path fill="none" stroke="#63b8ff" d="M777.3,-132.02C751.45,-137.13 721.4,-143.08 696.82,-147.94"/>
<polygon fill="#63b8ff" stroke="#63b8ff" points="778.21,-135.4 787.34,-130.03 776.85,-128.54 778.21,-135.4"/>
</a>
</g>
</g>
<!-- Node29&#45;&gt;Node28 -->
<g id="edge43_Node000029_Node000028" class="edge">
<title>Node29&#45;&gt;Node28</title>
<g id="a_edge43_Node000029_Node000028"><a xlink:title=" ">
<path fill="none" stroke="#63b8ff" d="M768.4,-107.44C764.1,-105.7 759.92,-103.73 756,-101.5 736.05,-90.16 739.88,-75.96 720,-64.5 714.12,-61.11 707.61,-58.36 700.99,-56.11"/>
<polygon fill="#63b8ff" stroke="#63b8ff" points="767.39,-110.79 777.98,-110.89 769.76,-104.21 767.39,-110.79"/>
</a>
</g>
</g>
<!-- Node30 -->
<g id="Node000030" class="node">
<title>Node30</title>
<g id="a_Node000030"><a xlink:href="dmplex__geom_8c.html#af7fb8fc68c27b224f0458d0c42911fe6" target="_top" xlink:title="Per&#45;SNES&#45;iteration geometry update.">
<polygon fill="white" stroke="#666666" points="720,-93 575,-93 575,-74 720,-74 720,-93"/>
<text text-anchor="middle" x="647.5" y="-81" font-family="Helvetica,sans-Serif" font-size="10.00">FEM_DMPlexGeomUpdate</text>
</a>
</g>
</g>
<!-- Node29&#45;&gt;Node30 -->
<g id="edge39_Node000029_Node000030" class="edge">
<title>Node29&#45;&gt;Node30</title>
<g id="a_edge39_Node000029_Node000030"><a xlink:title=" ">
<path fill="none" stroke="#63b8ff" d="M777.3,-108.98C751.45,-103.87 721.4,-97.92 696.82,-93.06"/>
<polygon fill="#63b8ff" stroke="#63b8ff" points="776.85,-112.46 787.34,-110.97 778.21,-105.6 776.85,-112.46"/>
</a>
</g>
</g>
<!-- Node30&#45;&gt;Node17 -->
<g id="edge40_Node000030_Node000017" class="edge">
<title>Node30&#45;&gt;Node17</title>
<g id="a_edge40_Node000030_Node000017"><a xlink:title=" ">
<path fill="none" stroke="#63b8ff" d="M585.85,-96.46C582.1,-97.97 578.45,-99.64 575,-101.5 533.55,-123.84 495.78,-166.69 480.13,-185.84"/>
<polygon fill="#63b8ff" stroke="#63b8ff" points="587.09,-99.74 595.32,-93.06 584.73,-93.15 587.09,-99.74"/>
</a>
</g>
</g>
<!-- Node30&#45;&gt;Node27 -->
<g id="edge41_Node000030_Node000027" class="edge">
<title>Node30&#45;&gt;Node27</title>
<g id="a_edge41_Node000030_Node000027"><a xlink:title=" ">
<path fill="none" stroke="#63b8ff" d="M594.82,-71.62C568.96,-65.68 538.1,-58.58 513.84,-53"/>
<polygon fill="#63b8ff" stroke="#63b8ff" points="594.29,-75.09 604.82,-73.92 595.86,-68.27 594.29,-75.09"/>
</a>
</g>
</g>
<!-- Node31&#45;&gt;Node18 -->
<g id="edge46_Node000031_Node000018" class="edge">
<title>Node31&#45;&gt;Node18</title>
<g id="a_edge46_Node000031_Node000018"><a xlink:title=" ">
<path fill="none" stroke="#63b8ff" d="M421.81,-223.05C393.06,-216.87 357.22,-209.18 330.74,-203.49"/>
<polygon fill="#63b8ff" stroke="#63b8ff" points="421.14,-226.48 431.66,-225.16 422.61,-219.64 421.14,-226.48"/>
</a>
</g>
</g>
<!-- Node32&#45;&gt;Node4 -->
<g id="edge48_Node000032_Node000004" class="edge">
<title>Node32&#45;&gt;Node4</title>
<g id="a_edge48_Node000032_Node000004"><a xlink:title=" ">
<path fill="none" stroke="#63b8ff" d="M784.23,-445.29C754.56,-452.11 717.7,-460.59 689.89,-466.98"/>
<polygon fill="#63b8ff" stroke="#63b8ff" points="785.04,-448.7 794,-443.04 783.47,-441.87 785.04,-448.7"/>
</a>
</g>
</g>
</g>
</svg>

<g id="navigator" transform="translate(0 0)" fill="#404254">
  <rect fill="#f2f5e9" fill-opacity="0.5" stroke="#606060" stroke-width=".5" x="0" y="0" width="60" height="60"/>
  <use id="zoomplus" xlink:href="#zoomPlus" x="17" y="9" onmousedown="handleZoom(evt,'in')"/>
  <use id="zoomminus" xlink:href="#zoomMin" x="42" y="9" onmousedown="handleZoom(evt,'out')"/>
  <use id="reset" xlink:href="#resetDef" x="30" y="36" onmousedown="handleReset()"/>
   <use id="arrowup" xlink:href="#arrowUp" x="0" y="0" onmousedown="handlePan(0,-1)"/>
  <use id="arrowright" xlink:href="#arrowRight" x="0" y="0" onmousedown="handlePan(1,0)"/>
  <use id="arrowdown" xlink:href="#arrowDown" x="0" y="0" onmousedown="handlePan(0,1)"/>
  <use id="arrowleft" xlink:href="#arrowLeft" x="0" y="0" onmousedown="handlePan(-1,0)"/>
</g>
<svg viewBox="0 0 15 15" width="100%" height="30px" preserveAspectRatio="xMaxYMin meet">
 <g id="arrow_out" transform="scale(0.3 0.3)">
  <a xlink:href="math_8h_a870a70f4845a041458d9bdb0dd7aabd3_icgraph_org.svg" target="_base">
   <rect id="button" ry="5" rx="5" y="6" x="6" height="38" width="38"
        fill="#f2f5e9" fill-opacity="0.5" stroke="#606060" stroke-width="1.0"/>
   <path id="arrow"
     d="M 11.500037,31.436501 C 11.940474,20.09759 22.043105,11.32322 32.158766,21.979434 L 37.068811,17.246167 C 37.068811,17.246167 37.088388,32 37.088388,32 L 22.160133,31.978069 C 22.160133,31.978069 26.997745,27.140456 26.997745,27.140456 C 18.528582,18.264221 13.291696,25.230495 11.500037,31.436501 z"
     style="fill:#404040;"/>
  </a>
 </g>
</svg>

<style type='text/css'>
<![CDATA[
[data-mouse-over-selected='false'] { opacity: 0.7; }
[data-mouse-over-selected='true']  { opacity: 1.0; }
]]>
</style>
<script type="application/ecmascript"><![CDATA[
document.addEventListener('DOMContentLoaded', (event) => {
  highlightEdges();
  highlightAdjacentNodes();
});
]]></script>
</svg>
