<?xml version="1.0" encoding="UTF-8" standalone="no"?>
<!DOCTYPE svg PUBLIC "-//W3C//DTD SVG 1.1//EN"
 "http://www.w3.org/Graphics/SVG/1.1/DTD/svg11.dtd">
<!-- Generated by graphviz version 2.43.0 (0)
 -->
<!-- Title: UNIT Pages: 1 -->
<svg width="926pt" height="424pt"
 viewBox="0.00 0.00 926.00 424.00" xmlns="http://www.w3.org/2000/svg" xmlns:xlink="http://www.w3.org/1999/xlink">
<g id="graph0" class="graph" transform="scale(1 1) rotate(0) translate(4 420)">
<title>UNIT</title>
<!-- Node1 -->
<g id="Node000001" class="node">
<title>Node1</title>
<g id="a_Node000001"><a xlink:title=" ">
<polygon fill="#999999" stroke="#666666" points="918,-236 877,-236 877,-217 918,-217 918,-236"/>
<text text-anchor="middle" x="897.5" y="-224" font-family="Helvetica,sans-Serif" font-size="10.00">UNIT</text>
</a>
</g>
</g>
<!-- Node2 -->
<g id="Node000002" class="node">
<title>Node2</title>
<g id="a_Node000002"><a xlink:href="muscle__activation_8c.html#a8de86acbd2114bdd44a3b7125602d0fe" target="_top" xlink:title=" ">
<polygon fill="white" stroke="#666666" points="816,-293 702,-293 702,-274 816,-274 816,-293"/>
<text text-anchor="middle" x="759" y="-281" font-family="Helvetica,sans-Serif" font-size="10.00">calculate_cov_basis</text>
</a>
</g>
</g>
<!-- Node1&#45;&gt;Node2 -->
<g id="edge1_Node000001_Node000002" class="edge">
<title>Node1&#45;&gt;Node2</title>
<g id="a_edge1_Node000001_Node000002"><a xlink:title=" ">
<path fill="none" stroke="#63b8ff" d="M873.72,-241.78C863.95,-247.88 852.21,-254.6 841,-259.5 827.83,-265.26 812.87,-270.13 799.43,-273.94"/>
<polygon fill="#63b8ff" stroke="#63b8ff" points="875.89,-244.55 882.42,-236.21 872.11,-238.66 875.89,-244.55"/>
</a>
</g>
</g>
<!-- Node6 -->
<g id="Node000006" class="node">
<title>Node6</title>
<g id="a_Node000006"><a xlink:href="muscle__activation_8c.html#a93dfc79086ad3d8e7eb4a92d7c64565d" target="_top" xlink:title=" ">
<polygon fill="white" stroke="#666666" points="624.5,-255 496.5,-255 496.5,-236 624.5,-236 624.5,-255"/>
<text text-anchor="middle" x="560.5" y="-243" font-family="Helvetica,sans-Serif" font-size="10.00">CompInitCovBasisVecs</text>
</a>
</g>
</g>
<!-- Node1&#45;&gt;Node6 -->
<g id="edge6_Node000001_Node000006" class="edge">
<title>Node1&#45;&gt;Node6</title>
<g id="a_edge6_Node000001_Node000006"><a xlink:title=" ">
<path fill="none" stroke="#63b8ff" d="M866.56,-228.2C812.37,-231.27 696.98,-237.82 624.68,-241.92"/>
<polygon fill="#63b8ff" stroke="#63b8ff" points="866.76,-231.69 876.55,-227.63 866.37,-224.7 866.76,-231.69"/>
</a>
</g>
</g>
<!-- Node7 -->
<g id="Node000007" class="node">
<title>Node7</title>
<g id="a_Node000007"><a xlink:href="muscle__activation_8c.html#a5bcab0a432f4401f206e0366535f005e" target="_top" xlink:title="High&#45;Level Procedure for Muscle Activation Update.">
<polygon fill="white" stroke="#666666" points="829.5,-406 688.5,-406 688.5,-387 829.5,-387 829.5,-406"/>
<text text-anchor="middle" x="759" y="-394" font-family="Helvetica,sans-Serif" font-size="10.00">compute_act_Fa_element</text>
</a>
</g>
</g>
<!-- Node1&#45;&gt;Node7 -->
<g id="edge8_Node000001_Node000007" class="edge">
<title>Node1&#45;&gt;Node7</title>
<g id="a_edge8_Node000001_Node000007"><a xlink:title=" ">
<path fill="none" stroke="#63b8ff" d="M894.03,-246.54C889.23,-277.01 875.86,-335 841,-368.5 832.2,-376.95 820.73,-382.86 809.2,-386.99"/>
<polygon fill="#63b8ff" stroke="#63b8ff" points="897.54,-246.7 895.47,-236.31 890.61,-245.72 897.54,-246.7"/>
</a>
</g>
</g>
<!-- Node9 -->
<g id="Node000009" class="node">
<title>Node9</title>
<g id="a_Node000009"><a xlink:href="muscle__activation_8c.html#a8bc18accda5d9acdf28357164879241e" target="_top" xlink:title="Compute intermediate deformed covariant basis vectors.">
<polygon fill="white" stroke="#666666" points="820.5,-359.5 697.5,-359.5 697.5,-329.5 820.5,-329.5 820.5,-359.5"/>
<text text-anchor="start" x="705.5" y="-347.5" font-family="Helvetica,sans-Serif" font-size="10.00">compute_intmd_state</text>
<text text-anchor="middle" x="759" y="-336.5" font-family="Helvetica,sans-Serif" font-size="10.00">_cov_basis_element</text>
</a>
</g>
</g>
<!-- Node1&#45;&gt;Node9 -->
<g id="edge11_Node000001_Node000009" class="edge">
<title>Node1&#45;&gt;Node9</title>
<g id="a_edge11_Node000001_Node000009"><a xlink:title=" ">
<path fill="none" stroke="#63b8ff" d="M886.06,-245.04C876.11,-261.45 859.88,-285.24 841,-301.5 827.85,-312.82 811.21,-322.3 796.44,-329.45"/>
<polygon fill="#63b8ff" stroke="#63b8ff" points="889.11,-246.74 891.16,-236.35 883.08,-243.2 889.11,-246.74"/>
</a>
</g>
</g>
<!-- Node11 -->
<g id="Node000011" class="node">
<title>Node11</title>
<g id="a_Node000011"><a xlink:href="muscle__activation_8c.html#a19d89612f2544ef7f352badd7cf1f337" target="_top" xlink:title=" ">
<polygon fill="white" stroke="#666666" points="821.5,-179.5 696.5,-179.5 696.5,-149.5 821.5,-149.5 821.5,-179.5"/>
<text text-anchor="start" x="704.5" y="-167.5" font-family="Helvetica,sans-Serif" font-size="10.00">compute_mid_surface</text>
<text text-anchor="middle" x="759" y="-156.5" font-family="Helvetica,sans-Serif" font-size="10.00">_el_stress_after_act</text>
</a>
</g>
</g>
<!-- Node1&#45;&gt;Node11 -->
<g id="edge14_Node000001_Node000011" class="edge">
<title>Node1&#45;&gt;Node11</title>
<g id="a_edge14_Node000001_Node000011"><a xlink:title=" ">
<path fill="none" stroke="#63b8ff" d="M876.64,-210.65C866.45,-203.12 853.56,-194.48 841,-188.5 833.98,-185.16 826.4,-182.17 818.78,-179.54"/>
<polygon fill="#63b8ff" stroke="#63b8ff" points="874.75,-213.61 884.82,-216.89 878.99,-208.04 874.75,-213.61"/>
</a>
</g>
</g>
<!-- Node14 -->
<g id="Node000014" class="node">
<title>Node14</title>
<g id="a_Node000014"><a xlink:href="active__strain_8c.html#ae4a3af9fcd986a9bf95c7d223d058909" target="_top" xlink:title="Build reference covariant/contravariant basis vectors for one element.">
<polygon fill="white" stroke="#666666" points="804,-131 714,-131 714,-112 804,-112 804,-131"/>
<text text-anchor="middle" x="759" y="-119" font-family="Helvetica,sans-Serif" font-size="10.00">ElemUpdateG0</text>
</a>
</g>
</g>
<!-- Node1&#45;&gt;Node14 -->
<g id="edge17_Node000001_Node000014" class="edge">
<title>Node1&#45;&gt;Node14</title>
<g id="a_edge17_Node000001_Node000014"><a xlink:title=" ">
<path fill="none" stroke="#63b8ff" d="M889.18,-207.21C880.65,-187.4 864.64,-157.16 841,-140.5 830.26,-132.93 816.92,-128.34 804.18,-125.57"/>
<polygon fill="#63b8ff" stroke="#63b8ff" points="886.05,-208.8 893.06,-216.75 892.53,-206.17 886.05,-208.8"/>
</a>
</g>
</g>
<!-- Node15 -->
<g id="Node000015" class="node">
<title>Node15</title>
<g id="a_Node000015"><a xlink:href="active__strain_8c.html#a9ef026a24ded6fec7243fd82f49394c3" target="_top" xlink:title=" ">
<polygon fill="white" stroke="#666666" points="841,-93.5 677,-93.5 677,-63.5 841,-63.5 841,-93.5"/>
<text text-anchor="start" x="685" y="-81.5" font-family="Helvetica,sans-Serif" font-size="10.00">ElemUpdateGeomSubdivFrom</text>
<text text-anchor="middle" x="759" y="-70.5" font-family="Helvetica,sans-Serif" font-size="10.00">Coords_</text>
</a>
</g>
</g>
<!-- Node1&#45;&gt;Node15 -->
<g id="edge18_Node000001_Node000015" class="edge">
<title>Node1&#45;&gt;Node15</title>
<g id="a_edge18_Node000001_Node000015"><a xlink:title=" ">
<path fill="none" stroke="#63b8ff" d="M893.02,-206.87C887.15,-179.53 872.66,-130.22 841,-102.5 837.03,-99.02 832.57,-96.05 827.84,-93.5"/>
<polygon fill="#63b8ff" stroke="#63b8ff" points="889.61,-207.68 894.98,-216.81 896.48,-206.32 889.61,-207.68"/>
</a>
</g>
</g>
<!-- Node29 -->
<g id="Node000029" class="node">
<title>Node29</title>
<g id="a_Node000029"><a xlink:href="muscle__activation_8c.html#a357b3bb1950e461f37dc728929d29486" target="_top" xlink:title=" ">
<polygon fill="white" stroke="#666666" points="808,-217 710,-217 710,-198 808,-198 808,-217"/>
<text text-anchor="middle" x="759" y="-205" font-family="Helvetica,sans-Serif" font-size="10.00">FInternalAftActEl</text>
</a>
</g>
</g>
<!-- Node1&#45;&gt;Node29 -->
<g id="edge38_Node000001_Node000029" class="edge">
<title>Node1&#45;&gt;Node29</title>
<g id="a_edge38_Node000001_Node000029"><a xlink:title=" ">
<path fill="none" stroke="#63b8ff" d="M866.94,-222.39C849.77,-220 827.71,-216.92 808.09,-214.19"/>
<polygon fill="#63b8ff" stroke="#63b8ff" points="866.56,-225.87 876.94,-223.78 867.52,-218.93 866.56,-225.87"/>
</a>
</g>
</g>
<!-- Node3 -->
<g id="Node000003" class="node">
<title>Node3</title>
<g id="a_Node000003"><a xlink:href="muscle__activation_8c.html#a98fd1f2632f8a9dafbcd477adbf354a0" target="_top" xlink:title=" ">
<polygon fill="white" stroke="#666666" points="424.5,-330 318.5,-330 318.5,-311 424.5,-311 424.5,-330"/>
<text text-anchor="middle" x="371.5" y="-318" font-family="Helvetica,sans-Serif" font-size="10.00">find_intmd_coords</text>
</a>
</g>
</g>
<!-- Node2&#45;&gt;Node3 -->
<g id="edge2_Node000002_Node000003" class="edge">
<title>Node2&#45;&gt;Node3</title>
<g id="a_edge2_Node000002_Node000003"><a xlink:title=" ">
<path fill="none" stroke="#63b8ff" d="M691.74,-293.95C675.2,-296.33 657.47,-298.69 641,-300.5 565.96,-308.74 478.74,-314.54 424.57,-317.7"/>
<polygon fill="#63b8ff" stroke="#63b8ff" points="692.48,-297.38 701.86,-292.47 691.46,-290.45 692.48,-297.38"/>
</a>
</g>
</g>
<!-- Node5 -->
<g id="Node000005" class="node">
<title>Node5</title>
<g id="a_Node000005"><a xlink:href="muscle__activation_8c.html#a6775d705d7242ce0339ce632abbfa4b4" target="_top" xlink:title=" ">
<polygon fill="white" stroke="#666666" points="641,-292 480,-292 480,-273 641,-273 641,-292"/>
<text text-anchor="middle" x="560.5" y="-280" font-family="Helvetica,sans-Serif" font-size="10.00">form_interm_state_func_grad</text>
</a>
</g>
</g>
<!-- Node2&#45;&gt;Node5 -->
<g id="edge4_Node000002_Node000005" class="edge">
<title>Node2&#45;&gt;Node5</title>
<g id="a_edge4_Node000002_Node000005"><a xlink:title=" ">
<path fill="none" stroke="#63b8ff" d="M691.51,-283.16C675.31,-283.08 657.81,-282.99 641.07,-282.9"/>
<polygon fill="#63b8ff" stroke="#63b8ff" points="691.94,-286.66 701.95,-283.21 691.97,-279.66 691.94,-286.66"/>
</a>
</g>
</g>
<!-- Node4 -->
<g id="Node000004" class="node">
<title>Node4</title>
<g id="a_Node000004"><a xlink:href="muscle__activation_8c.html#aad998374ae4f3ca2c8f14b4c4b2aaafd" target="_top" xlink:title=" ">
<polygon fill="white" stroke="#666666" points="249,-351 126,-351 126,-332 249,-332 249,-351"/>
<text text-anchor="middle" x="187.5" y="-339" font-family="Helvetica,sans-Serif" font-size="10.00">InitMuscleActProblem</text>
</a>
</g>
</g>
<!-- Node3&#45;&gt;Node4 -->
<g id="edge3_Node000003_Node000004" class="edge">
<title>Node3&#45;&gt;Node4</title>
<g id="a_edge3_Node000003_Node000004"><a xlink:title=" ">
<path fill="none" stroke="#63b8ff" d="M308.23,-327.69C289.08,-329.89 268.04,-332.32 249.01,-334.52"/>
<polygon fill="#63b8ff" stroke="#63b8ff" points="308.81,-331.14 318.35,-326.52 308.01,-324.19 308.81,-331.14"/>
</a>
</g>
</g>
<!-- Node5&#45;&gt;Node3 -->
<g id="edge5_Node000005_Node000003" class="edge">
<title>Node5&#45;&gt;Node3</title>
<g id="a_edge5_Node000005_Node000003"><a xlink:title=" ">
<path fill="none" stroke="#63b8ff" d="M502.37,-294.11C475.77,-299.51 444.53,-305.86 419.35,-310.98"/>
<polygon fill="#63b8ff" stroke="#63b8ff" points="503.21,-297.51 512.31,-292.09 501.82,-290.65 503.21,-297.51"/>
</a>
</g>
</g>
<!-- Node6&#45;&gt;Node4 -->
<g id="edge7_Node000006_Node000004" class="edge">
<title>Node6&#45;&gt;Node4</title>
<g id="a_edge7_Node000006_Node000004"><a xlink:title=" ">
<path fill="none" stroke="#63b8ff" d="M494.88,-256.87C441.8,-266.8 364.89,-282.59 299,-301.5 268.41,-310.28 234.07,-323.21 211.91,-331.98"/>
<polygon fill="#63b8ff" stroke="#63b8ff" points="495.64,-260.28 504.84,-255.02 494.36,-253.4 495.64,-260.28"/>
</a>
</g>
</g>
<!-- Node8 -->
<g id="Node000008" class="node">
<title>Node8</title>
<g id="a_Node000008"><a xlink:href="muscle__activation_8c.html#a0dda352c79a3d0150ff314d8c63e0054" target="_top" xlink:title="Updates all active Fa values for each element.">
<polygon fill="white" stroke="#666666" points="603.5,-416 517.5,-416 517.5,-397 603.5,-397 603.5,-416"/>
<text text-anchor="middle" x="560.5" y="-404" font-family="Helvetica,sans-Serif" font-size="10.00">update_act_Fa</text>
</a>
</g>
</g>
<!-- Node7&#45;&gt;Node8 -->
<g id="edge9_Node000007_Node000008" class="edge">
<title>Node7&#45;&gt;Node8</title>
<g id="a_edge9_Node000007_Node000008"><a xlink:title=" ">
<path fill="none" stroke="#63b8ff" d="M678.38,-400.55C652.84,-401.85 625.55,-403.24 603.77,-404.35"/>
<polygon fill="#63b8ff" stroke="#63b8ff" points="678.64,-404.04 688.44,-400.04 678.28,-397.05 678.64,-404.04"/>
</a>
</g>
</g>
<!-- Node8&#45;&gt;Node4 -->
<g id="edge10_Node000008_Node000004" class="edge">
<title>Node8&#45;&gt;Node4</title>
<g id="a_edge10_Node000008_Node000004"><a xlink:title=" ">
<path fill="none" stroke="#63b8ff" d="M507.27,-399.58C454.54,-392.33 370.86,-380.13 299,-366.5 275.13,-361.97 248.58,-356 227.48,-351.02"/>
<polygon fill="#63b8ff" stroke="#63b8ff" points="507,-403.07 517.39,-400.96 507.95,-396.14 507,-403.07"/>
</a>
</g>
</g>
<!-- Node10 -->
<g id="Node000010" class="node">
<title>Node10</title>
<g id="a_Node000010"><a xlink:href="muscle__activation_8c.html#a5000e7a797094fd0e94879c0c765d853" target="_top" xlink:title="Update intermediate deformed basis vectors for all elements.">
<polygon fill="white" stroke="#666666" points="617.5,-378.5 503.5,-378.5 503.5,-348.5 617.5,-348.5 617.5,-378.5"/>
<text text-anchor="start" x="511.5" y="-366.5" font-family="Helvetica,sans-Serif" font-size="10.00">update_intmd_state</text>
<text text-anchor="middle" x="560.5" y="-355.5" font-family="Helvetica,sans-Serif" font-size="10.00">_cov_basis</text>
</a>
</g>
</g>
<!-- Node9&#45;&gt;Node10 -->
<g id="edge12_Node000009_Node000010" class="edge">
<title>Node9&#45;&gt;Node10</title>
<g id="a_edge12_Node000009_Node000010"><a xlink:title=" ">
<path fill="none" stroke="#63b8ff" d="M687.4,-351.33C664.43,-353.55 639.26,-355.98 617.51,-358.08"/>
<polygon fill="#63b8ff" stroke="#63b8ff" points="687.82,-354.8 697.44,-350.36 687.15,-347.83 687.82,-354.8"/>
</a>
</g>
</g>
<!-- Node10&#45;&gt;Node4 -->
<g id="edge13_Node000010_Node000004" class="edge">
<title>Node10&#45;&gt;Node4</title>
<g id="a_edge13_Node000010_Node000004"><a xlink:title=" ">
<path fill="none" stroke="#63b8ff" d="M492.79,-359.54C423.5,-355.44 316.02,-349.06 249.08,-345.09"/>
<polygon fill="#63b8ff" stroke="#63b8ff" points="492.96,-363.06 503.15,-360.16 493.38,-356.07 492.96,-363.06"/>
</a>
</g>
</g>
<!-- Node12 -->
<g id="Node000012" class="node">
<title>Node12</title>
<g id="a_Node000012"><a xlink:href="muscle__activation_8c.html#a3f9fadbc31e4872a8519e6bfdecf7b8f" target="_top" xlink:title=" ">
<polygon fill="white" stroke="#666666" points="628.5,-179.5 492.5,-179.5 492.5,-149.5 628.5,-149.5 628.5,-179.5"/>
<text text-anchor="start" x="500.5" y="-167.5" font-family="Helvetica,sans-Serif" font-size="10.00">update_mid_surf_elastic</text>
<text text-anchor="middle" x="560.5" y="-156.5" font-family="Helvetica,sans-Serif" font-size="10.00">_stress</text>
</a>
</g>
</g>
<!-- Node11&#45;&gt;Node12 -->
<g id="edge15_Node000011_Node000012" class="edge">
<title>Node11&#45;&gt;Node12</title>
<g id="a_edge15_Node000011_Node000012"><a xlink:title=" ">
<path fill="none" stroke="#63b8ff" d="M686.11,-164.5C667.35,-164.5 647.21,-164.5 628.71,-164.5"/>
<polygon fill="#63b8ff" stroke="#63b8ff" points="686.37,-168 696.37,-164.5 686.37,-161 686.37,-168"/>
</a>
</g>
</g>
<!-- Node13 -->
<g id="Node000013" class="node">
<title>Node13</title>
<g id="a_Node000013"><a xlink:href="muscle__activation_8c.html#a5794b91b41d38582fd698b653b53330e" target="_top" xlink:title=" ">
<polygon fill="white" stroke="#666666" points="434,-213 309,-213 309,-194 434,-194 434,-213"/>
<text text-anchor="middle" x="371.5" y="-201" font-family="Helvetica,sans-Serif" font-size="10.00">UpdateFInternalAftAct</text>
</a>
</g>
</g>
<!-- Node12&#45;&gt;Node13 -->
<g id="edge16_Node000012_Node000013" class="edge">
<title>Node12&#45;&gt;Node13</title>
<g id="a_edge16_Node000012_Node000013"><a xlink:title=" ">
<path fill="none" stroke="#63b8ff" d="M482.33,-180.59C460.5,-185.15 437.44,-189.96 418.12,-193.99"/>
<polygon fill="#63b8ff" stroke="#63b8ff" points="483.18,-183.99 492.25,-178.52 481.75,-177.14 483.18,-183.99"/>
</a>
</g>
</g>
<!-- Node16 -->
<g id="Node000016" class="node">
<title>Node16</title>
<g id="a_Node000016"><a xlink:href="active__strain_8c.html#ac93e65e44aa9af3d11c2165016210d87" target="_top" xlink:title="Update reference midsurface geometry cache for one element.">
<polygon fill="white" stroke="#666666" points="633,-72 488,-72 488,-53 633,-53 633,-72"/>
<text text-anchor="middle" x="560.5" y="-60" font-family="Helvetica,sans-Serif" font-size="10.00">ElemUpdateGeom0Subdiv</text>
</a>
</g>
</g>
<!-- Node15&#45;&gt;Node16 -->
<g id="edge19_Node000015_Node000016" class="edge">
<title>Node15&#45;&gt;Node16</title>
<g id="a_edge19_Node000015_Node000016"><a xlink:title=" ">
<path fill="none" stroke="#63b8ff" d="M666.69,-71.07C655.47,-70.15 644.13,-69.23 633.26,-68.34"/>
<polygon fill="#63b8ff" stroke="#63b8ff" points="666.69,-74.58 676.94,-71.9 667.26,-67.6 666.69,-74.58"/>
</a>
</g>
</g>
<!-- Node24 -->
<g id="Node000024" class="node">
<title>Node24</title>
<g id="a_Node000024"><a xlink:href="active__strain_8c.html#a04fa5da4f55d0663ad5ec7a3534de0af" target="_top" xlink:title="Update current midsurface geometry cache for one element.">
<polygon fill="white" stroke="#666666" points="630,-109 491,-109 491,-90 630,-90 630,-109"/>
<text text-anchor="middle" x="560.5" y="-97" font-family="Helvetica,sans-Serif" font-size="10.00">ElemUpdateGeomSubdiv</text>
</a>
</g>
</g>
<!-- Node15&#45;&gt;Node24 -->
<g id="edge30_Node000015_Node000024" class="edge">
<title>Node15&#45;&gt;Node24</title>
<g id="a_edge30_Node000015_Node000024"><a xlink:title=" ">
<path fill="none" stroke="#63b8ff" d="M666.67,-88.26C654.39,-89.57 641.96,-90.9 630.16,-92.16"/>
<polygon fill="#63b8ff" stroke="#63b8ff" points="667.37,-91.71 676.94,-87.16 666.63,-84.75 667.37,-91.71"/>
</a>
</g>
</g>
<!-- Node17 -->
<g id="Node000017" class="node">
<title>Node17</title>
<g id="a_Node000017"><a xlink:href="dmplex__geom_8c.html#aeca513213e67a07a712cc41e8c6412ea" target="_top" xlink:title="One&#45;time DMPlex geometry setup.">
<polygon fill="white" stroke="#666666" points="440,-19 303,-19 303,0 440,0 440,-19"/>
<text text-anchor="middle" x="371.5" y="-7" font-family="Helvetica,sans-Serif" font-size="10.00">FEM_DMPlexGeomSetup</text>
</a>
</g>
</g>
<!-- Node16&#45;&gt;Node17 -->
<g id="edge20_Node000016_Node000017" class="edge">
<title>Node16&#45;&gt;Node17</title>
<g id="a_edge20_Node000016_Node000017"><a xlink:title=" ">
<path fill="none" stroke="#63b8ff" d="M519.48,-49.86C497.31,-42.99 469.21,-34.49 444,-27.5 433.64,-24.63 422.38,-21.7 411.93,-19.07"/>
<polygon fill="#63b8ff" stroke="#63b8ff" points="518.63,-53.26 529.22,-52.89 520.71,-46.58 518.63,-53.26"/>
</a>
</g>
</g>
<!-- Node20 -->
<g id="Node000020" class="node">
<title>Node20</title>
<g id="a_Node000020"><a xlink:href="cuda__processes_8c.html#a627a27228923fbc3e63f0f4e1c5aa765" target="_top" xlink:title=" ">
<polygon fill="white" stroke="#666666" points="426,-93 317,-93 317,-74 426,-74 426,-93"/>
<text text-anchor="middle" x="371.5" y="-81" font-family="Helvetica,sans-Serif" font-size="10.00">RunCudaProcesses</text>
</a>
</g>
</g>
<!-- Node16&#45;&gt;Node20 -->
<g id="edge23_Node000016_Node000020" class="edge">
<title>Node16&#45;&gt;Node20</title>
<g id="a_edge23_Node000016_Node000020"><a xlink:title=" ">
<path fill="none" stroke="#63b8ff" d="M477.55,-71.7C460.1,-73.66 442.12,-75.68 426.06,-77.48"/>
<polygon fill="#63b8ff" stroke="#63b8ff" points="478.19,-75.15 487.74,-70.56 477.41,-68.2 478.19,-75.15"/>
</a>
</g>
</g>
<!-- Node21 -->
<g id="Node000021" class="node">
<title>Node21</title>
<g id="a_Node000021"><a xlink:href="kokkos__processes_8c.html#a3f18ca1bc94cfbc69753dccb70a43699" target="_top" xlink:title=" ">
<polygon fill="white" stroke="#666666" points="431,-56 312,-56 312,-37 431,-37 431,-56"/>
<text text-anchor="middle" x="371.5" y="-44" font-family="Helvetica,sans-Serif" font-size="10.00">RunKokkosProcesses</text>
</a>
</g>
</g>
<!-- Node16&#45;&gt;Node21 -->
<g id="edge25_Node000016_Node000021" class="edge">
<title>Node16&#45;&gt;Node21</title>
<g id="a_edge25_Node000016_Node000021"><a xlink:title=" ">
<path fill="none" stroke="#63b8ff" d="M477.53,-55.49C461.87,-54.15 445.78,-52.77 431.04,-51.51"/>
<polygon fill="#63b8ff" stroke="#63b8ff" points="477.47,-58.99 487.74,-56.36 478.07,-52.02 477.47,-58.99"/>
</a>
</g>
</g>
<!-- Node22 -->
<g id="Node000022" class="node">
<title>Node22</title>
<g id="a_Node000022"><a xlink:href="dmplex__geom_8c.html#aa2b24de348fff4079de659ff63ba9b85" target="_top" xlink:title="Synchronise remote coordinates and evaluate the geometry kernel for all local cells.">
<polygon fill="white" stroke="#666666" points="429,-130 314,-130 314,-111 429,-111 429,-130"/>
<text text-anchor="middle" x="371.5" y="-118" font-family="Helvetica,sans-Serif" font-size="10.00">RunLocalGeometry_</text>
</a>
</g>
</g>
<!-- Node16&#45;&gt;Node22 -->
<g id="edge27_Node000016_Node000022" class="edge">
<title>Node16&#45;&gt;Node22</title>
<g id="a_edge27_Node000016_Node000022"><a xlink:title=" ">
<path fill="none" stroke="#63b8ff" d="M496.89,-74.76C491.11,-76.47 485.4,-78.37 480,-80.5 462.77,-87.29 461.1,-94.39 444,-101.5 435.1,-105.2 425.28,-108.36 415.85,-110.98"/>
<polygon fill="#63b8ff" stroke="#63b8ff" points="497.92,-78.11 506.64,-72.08 496.07,-71.36 497.92,-78.11"/>
</a>
</g>
</g>
<!-- Node18 -->
<g id="Node000018" class="node">
<title>Node18</title>
<g id="a_Node000018"><a xlink:href="main_8c.html#a3c04138a5bfe5d72780bb7e82a18e627" target="_top" xlink:title=" ">
<polygon fill="white" stroke="#666666" points="58.5,-74 17.5,-74 17.5,-55 58.5,-55 58.5,-74"/>
<text text-anchor="middle" x="38" y="-62" font-family="Helvetica,sans-Serif" font-size="10.00">main</text>
</a>
</g>
</g>
<!-- Node17&#45;&gt;Node18 -->
<g id="edge21_Node000017_Node000018" class="edge">
<title>Node17&#45;&gt;Node18</title>
<g id="a_edge21_Node000017_Node000018"><a xlink:title=" ">
<path fill="none" stroke="#63b8ff" d="M292.82,-20.5C241.4,-28.04 172.55,-38.6 112,-49.5 93.92,-52.75 73.44,-57.01 58.78,-60.16"/>
<polygon fill="#63b8ff" stroke="#63b8ff" points="293.47,-23.95 302.86,-19.04 292.46,-17.02 293.47,-23.95"/>
</a>
</g>
</g>
<!-- Node19 -->
<g id="Node000019" class="node">
<title>Node19</title>
<g id="a_Node000019"><a xlink:href="dmplex__geom_8c.html#af897ef006be5d3cc2be53b272a4f5a61" target="_top" xlink:title="Drop&#45;in geometry call: setup + update + destroy in one shot.">
<polygon fill="white" stroke="#666666" points="255,-168 120,-168 120,-149 255,-149 255,-168"/>
<text text-anchor="middle" x="187.5" y="-156" font-family="Helvetica,sans-Serif" font-size="10.00">RunDMPlexGeomSubdiv</text>
</a>
</g>
</g>
<!-- Node17&#45;&gt;Node19 -->
<g id="edge22_Node000017_Node000019" class="edge">
<title>Node17&#45;&gt;Node19</title>
<g id="a_edge22_Node000017_Node000019"><a xlink:title=" ">
<path fill="none" stroke="#63b8ff" d="M302.57,-24.48C301.33,-25.43 300.14,-26.43 299,-27.5 260.86,-63.26 301.09,-103.68 263,-139.5 258.92,-143.34 254.17,-146.43 249.08,-148.92"/>
<polygon fill="#63b8ff" stroke="#63b8ff" points="304.69,-27.28 311.32,-19.01 300.99,-21.34 304.69,-27.28"/>
</a>
</g>
</g>
<!-- Node20&#45;&gt;Node18 -->
<g id="edge24_Node000020_Node000018" class="edge">
<title>Node20&#45;&gt;Node18</title>
<g id="a_edge24_Node000020_Node000018"><a xlink:title=" ">
<path fill="none" stroke="#63b8ff" d="M306.38,-80.28C254.06,-77.6 178.24,-73.56 112,-69.5 93.87,-68.39 73.22,-66.96 58.52,-65.91"/>
<polygon fill="#63b8ff" stroke="#63b8ff" points="306.36,-83.79 316.52,-80.8 306.71,-76.79 306.36,-83.79"/>
</a>
</g>
</g>
<!-- Node21&#45;&gt;Node18 -->
<g id="edge26_Node000021_Node000018" class="edge">
<title>Node21&#45;&gt;Node18</title>
<g id="a_edge26_Node000021_Node000018"><a xlink:title=" ">
<path fill="none" stroke="#63b8ff" d="M301.94,-50.22C225.28,-54.39 105.73,-60.88 58.83,-63.42"/>
<polygon fill="#63b8ff" stroke="#63b8ff" points="302.2,-53.71 312,-49.68 301.82,-46.72 302.2,-53.71"/>
</a>
</g>
</g>
<!-- Node23 -->
<g id="Node000023" class="node">
<title>Node23</title>
<g id="a_Node000023"><a xlink:href="dmplex__geom_8c.html#ac4ecb4d172bee5f7c59a9fdf2680bb51" target="_top" xlink:title="Benchmark: run the full distributed DMPlex geometry pipeline for all bodies.">
<polygon fill="white" stroke="#666666" points="263,-131 112,-131 112,-112 263,-112 263,-131"/>
<text text-anchor="middle" x="187.5" y="-119" font-family="Helvetica,sans-Serif" font-size="10.00">RunDMPlexGeomProcesses</text>
</a>
</g>
</g>
<!-- Node22&#45;&gt;Node23 -->
<g id="edge28_Node000022_Node000023" class="edge">
<title>Node22&#45;&gt;Node23</title>
<g id="a_edge28_Node000022_Node000023"><a xlink:title=" ">
<path fill="none" stroke="#63b8ff" d="M303.54,-120.87C290.39,-120.94 276.52,-121.02 263.13,-121.09"/>
<polygon fill="#63b8ff" stroke="#63b8ff" points="303.93,-124.37 313.91,-120.81 303.89,-117.37 303.93,-124.37"/>
</a>
</g>
</g>
<!-- Node23&#45;&gt;Node18 -->
<g id="edge29_Node000023_Node000018" class="edge">
<title>Node23&#45;&gt;Node18</title>
<g id="a_edge29_Node000023_Node000018"><a xlink:title=" ">
<path fill="none" stroke="#63b8ff" d="M144.41,-108.86C133.75,-105.41 122.39,-101.51 112,-97.5 93.57,-90.39 73.13,-81.02 58.57,-74.08"/>
<polygon fill="#63b8ff" stroke="#63b8ff" points="143.36,-112.2 153.95,-111.89 145.48,-105.52 143.36,-112.2"/>
</a>
</g>
</g>
<!-- Node24&#45;&gt;Node20 -->
<g id="edge35_Node000024_Node000020" class="edge">
<title>Node24&#45;&gt;Node20</title>
<g id="a_edge35_Node000024_Node000020"><a xlink:title=" ">
<path fill="none" stroke="#63b8ff" d="M480.79,-92.77C462.37,-91.19 443.16,-89.55 426.13,-88.09"/>
<polygon fill="#63b8ff" stroke="#63b8ff" points="480.67,-96.27 490.93,-93.63 481.26,-89.29 480.67,-96.27"/>
</a>
</g>
</g>
<!-- Node24&#45;&gt;Node21 -->
<g id="edge36_Node000024_Node000021" class="edge">
<title>Node24&#45;&gt;Node21</title>
<g id="a_edge36_Node000024_Node000021"><a xlink:title=" ">
<path fill="none" stroke="#63b8ff" d="M503.34,-87.44C495.44,-85.35 487.47,-83.03 480,-80.5 463.42,-74.89 460.55,-70.21 444,-64.5 434.93,-61.37 425.03,-58.52 415.58,-56.07"/>
<polygon fill="#63b8ff" stroke="#63b8ff" points="502.71,-90.9 513.27,-89.97 504.44,-84.11 502.71,-90.9"/>
</a>
</g>
</g>
<!-- Node24&#45;&gt;Node22 -->
<g id="edge37_Node000024_Node000022" class="edge">
<title>Node24&#45;&gt;Node22</title>
<g id="a_edge37_Node000024_Node000022"><a xlink:title=" ">
<path fill="none" stroke="#63b8ff" d="M480.81,-108.34C463.45,-110.29 445.39,-112.31 429.1,-114.14"/>
<polygon fill="#63b8ff" stroke="#63b8ff" points="481.38,-111.79 490.93,-107.2 480.6,-104.84 481.38,-111.79"/>
</a>
</g>
</g>
<!-- Node25 -->
<g id="Node000025" class="node">
<title>Node25</title>
<g id="a_Node000025"><a xlink:href="dmplex__geom_8c.html#af7fb8fc68c27b224f0458d0c42911fe6" target="_top" xlink:title="Per&#45;SNES&#45;iteration geometry update.">
<polygon fill="white" stroke="#666666" points="444,-168 299,-168 299,-149 444,-149 444,-168"/>
<text text-anchor="middle" x="371.5" y="-156" font-family="Helvetica,sans-Serif" font-size="10.00">FEM_DMPlexGeomUpdate</text>
</a>
</g>
</g>
<!-- Node24&#45;&gt;Node25 -->
<g id="edge31_Node000024_Node000025" class="edge">
<title>Node24&#45;&gt;Node25</title>
<g id="a_edge31_Node000024_Node000025"><a xlink:title=" ">
<path fill="none" stroke="#63b8ff" d="M523.01,-112.37C500.36,-120.23 470.6,-130.29 444,-138.5 432.42,-142.07 419.71,-145.72 408.25,-148.9"/>
<polygon fill="#63b8ff" stroke="#63b8ff" points="524.27,-115.64 532.56,-109.05 521.97,-109.03 524.27,-115.64"/>
</a>
</g>
</g>
<!-- Node25&#45;&gt;Node19 -->
<g id="edge34_Node000025_Node000019" class="edge">
<title>Node25&#45;&gt;Node19</title>
<g id="a_edge34_Node000025_Node000019"><a xlink:title=" ">
<path fill="none" stroke="#63b8ff" d="M288.6,-158.5C277.37,-158.5 265.97,-158.5 255.06,-158.5"/>
<polygon fill="#63b8ff" stroke="#63b8ff" points="288.83,-162 298.83,-158.5 288.83,-155 288.83,-162"/>
</a>
</g>
</g>
<!-- Node26 -->
<g id="Node000026" class="node">
<title>Node26</title>
<g id="a_Node000026"><a xlink:href="active__strain_8c.html#a693fb698122674ff7df6dd47ac75167c" target="_top" xlink:title="Run per&#45;element precomputations before global internal&#45;force assembly.">
<polygon fill="white" stroke="#666666" points="236,-205 139,-205 139,-186 236,-186 236,-205"/>
<text text-anchor="middle" x="187.5" y="-193" font-family="Helvetica,sans-Serif" font-size="10.00">FInternalPreCalc</text>
</a>
</g>
</g>
<!-- Node25&#45;&gt;Node26 -->
<g id="edge32_Node000025_Node000026" class="edge">
<title>Node25&#45;&gt;Node26</title>
<g id="a_edge32_Node000025_Node000026"><a xlink:title=" ">
<path fill="none" stroke="#63b8ff" d="M313.52,-170.08C288.44,-175.18 259.34,-181.1 235.53,-185.94"/>
<polygon fill="#63b8ff" stroke="#63b8ff" points="314.53,-173.45 323.63,-168.03 313.13,-166.59 314.53,-173.45"/>
</a>
</g>
</g>
<!-- Node27 -->
<g id="Node000027" class="node">
<title>Node27</title>
<g id="a_Node000027"><a xlink:href="active__strain_8c.html#a3bac899c10052c346d2afe9eccbac71d" target="_top" xlink:title="Assemble global internal force vector for active&#45;strain mechanics.">
<polygon fill="#fff0f0" stroke="red" points="76,-205 0,-205 0,-186 76,-186 76,-205"/>
<text text-anchor="middle" x="38" y="-193" font-family="Helvetica,sans-Serif" font-size="10.00">FInternalAct</text>
</a>
</g>
</g>
<!-- Node26&#45;&gt;Node27 -->
<g id="edge33_Node000026_Node000027" class="edge">
<title>Node26&#45;&gt;Node27</title>
<g id="a_edge33_Node000026_Node000027"><a xlink:title=" ">
<path fill="none" stroke="#63b8ff" d="M128.47,-195.5C110.94,-195.5 92.17,-195.5 76.38,-195.5"/>
<polygon fill="#63b8ff" stroke="#63b8ff" points="128.61,-199 138.61,-195.5 128.61,-192 128.61,-199"/>
</a>
</g>
</g>
<!-- Node29&#45;&gt;Node13 -->
<g id="edge39_Node000029_Node000013" class="edge">
<title>Node29&#45;&gt;Node13</title>
<g id="a_edge39_Node000029_Node000013"><a xlink:title=" ">
<path fill="none" stroke="#63b8ff" d="M699.77,-206.9C628.22,-206.15 507.34,-204.9 434.23,-204.14"/>
<polygon fill="#63b8ff" stroke="#63b8ff" points="699.92,-210.4 709.96,-207 699.99,-203.4 699.92,-210.4"/>
</a>
</g>
</g>
</g>
</svg>
