<?xml version="1.0" encoding="UTF-8" standalone="no"?>
<!DOCTYPE svg PUBLIC "-//W3C//DTD SVG 1.1//EN"
 "http://www.w3.org/Graphics/SVG/1.1/DTD/svg11.dtd">
<!-- Generated by graphviz version 2.43.0 (0)
 -->
<!-- Title: MATMULT Pages: 1 -->
<svg width="931pt" height="179pt"
 viewBox="0.00 0.00 931.00 179.00" xmlns="http://www.w3.org/2000/svg" xmlns:xlink="http://www.w3.org/1999/xlink">
<g id="graph0" class="graph" transform="scale(1 1) rotate(0) translate(4 175)">
<title>MATMULT</title>
<!-- Node1 -->
<g id="Node000001" class="node">
<title>Node1</title>
<g id="a_Node000001"><a xlink:title=" ">
<polygon fill="#999999" stroke="#666666" points="923,-133 858,-133 858,-114 923,-114 923,-133"/>
<text text-anchor="middle" x="890.5" y="-121" font-family="Helvetica,sans-Serif" font-size="10.00">MATMULT</text>
</a>
</g>
</g>
<!-- Node2 -->
<g id="Node000002" class="node">
<title>Node2</title>
<g id="a_Node000002"><a xlink:href="active__strain_8c.html#ade5fbd2ac288952d9b05edaa3cfab167" target="_top" xlink:title="Compute active deformation gradient for one element.">
<polygon fill="white" stroke="#666666" points="691.5,-171 593.5,-171 593.5,-152 691.5,-152 691.5,-171"/>
<text text-anchor="middle" x="642.5" y="-159" font-family="Helvetica,sans-Serif" font-size="10.00">ElemActDefGrad</text>
</a>
</g>
</g>
<!-- Node1&#45;&gt;Node2 -->
<g id="edge1_Node000001_Node000002" class="edge">
<title>Node1&#45;&gt;Node2</title>
<g id="a_edge1_Node000001_Node000002"><a xlink:title=" ">
<path fill="none" stroke="#63b8ff" d="M850.19,-135.77C841.01,-138.3 831.22,-140.73 822,-142.5 778.24,-150.93 727.67,-155.87 691.55,-158.59"/>
<polygon fill="#63b8ff" stroke="#63b8ff" points="851.2,-139.12 859.85,-133.01 849.28,-132.39 851.2,-139.12"/>
</a>
</g>
</g>
<!-- Node7 -->
<g id="Node000007" class="node">
<title>Node7</title>
<g id="a_Node000007"><a xlink:href="math_8c.html#a832ef37ebeba5c46cadc9c452be4141a" target="_top" xlink:title=" ">
<polygon fill="white" stroke="#666666" points="822,-76 736,-76 736,-57 822,-57 822,-76"/>
<text text-anchor="middle" x="779" y="-64" font-family="Helvetica,sans-Serif" font-size="10.00">LowerIndices2</text>
</a>
</g>
</g>
<!-- Node1&#45;&gt;Node7 -->
<g id="edge6_Node000001_Node000007" class="edge">
<title>Node1&#45;&gt;Node7</title>
<g id="a_edge6_Node000001_Node000007"><a xlink:title=" ">
<path fill="none" stroke="#63b8ff" d="M862.01,-109.19C842.08,-98.82 815.7,-85.08 798.3,-76.03"/>
<polygon fill="#63b8ff" stroke="#63b8ff" points="860.44,-112.32 870.92,-113.83 863.67,-106.11 860.44,-112.32"/>
</a>
</g>
</g>
<!-- Node11 -->
<g id="Node000011" class="node">
<title>Node11</title>
<g id="a_Node000011"><a xlink:href="math_8c.html#a48112c11cc4a642f67482882a3fdb324" target="_top" xlink:title=" ">
<polygon fill="white" stroke="#666666" points="821,-133 737,-133 737,-114 821,-114 821,-133"/>
<text text-anchor="middle" x="779" y="-121" font-family="Helvetica,sans-Serif" font-size="10.00">RaiseIndices2</text>
</a>
</g>
</g>
<!-- Node1&#45;&gt;Node11 -->
<g id="edge13_Node000001_Node000011" class="edge">
<title>Node1&#45;&gt;Node11</title>
<g id="a_edge13_Node000001_Node000011"><a xlink:title=" ">
<path fill="none" stroke="#63b8ff" d="M847.62,-123.5C839.02,-123.5 829.97,-123.5 821.39,-123.5"/>
<polygon fill="#63b8ff" stroke="#63b8ff" points="847.83,-127 857.83,-123.5 847.83,-120 847.83,-127"/>
</a>
</g>
</g>
<!-- Node3 -->
<g id="Node000003" class="node">
<title>Node3</title>
<g id="a_Node000003"><a xlink:href="active__strain_8c.html#a693fb698122674ff7df6dd47ac75167c" target="_top" xlink:title="Run per&#45;element precomputations before global internal&#45;force assembly.">
<polygon fill="white" stroke="#666666" points="426,-95 329,-95 329,-76 426,-76 426,-95"/>
<text text-anchor="middle" x="377.5" y="-83" font-family="Helvetica,sans-Serif" font-size="10.00">FInternalPreCalc</text>
</a>
</g>
</g>
<!-- Node2&#45;&gt;Node3 -->
<g id="edge2_Node000002_Node000003" class="edge">
<title>Node2&#45;&gt;Node3</title>
<g id="a_edge2_Node000002_Node000003"><a xlink:title=" ">
<path fill="none" stroke="#63b8ff" d="M598.81,-149.16C546.53,-134.06 459.09,-108.79 411.61,-95.07"/>
<polygon fill="#63b8ff" stroke="#63b8ff" points="597.88,-152.54 608.46,-151.95 599.82,-145.81 597.88,-152.54"/>
</a>
</g>
</g>
<!-- Node4 -->
<g id="Node000004" class="node">
<title>Node4</title>
<g id="a_Node000004"><a xlink:href="active__strain_8c.html#a3bac899c10052c346d2afe9eccbac71d" target="_top" xlink:title="Assemble global internal force vector for active&#45;strain mechanics.">
<polygon fill="white" stroke="#666666" points="293,-95 217,-95 217,-76 293,-76 293,-95"/>
<text text-anchor="middle" x="255" y="-83" font-family="Helvetica,sans-Serif" font-size="10.00">FInternalAct</text>
</a>
</g>
</g>
<!-- Node3&#45;&gt;Node4 -->
<g id="edge3_Node000003_Node000004" class="edge">
<title>Node3&#45;&gt;Node4</title>
<g id="a_edge3_Node000003_Node000004"><a xlink:title=" ">
<path fill="none" stroke="#63b8ff" d="M318.77,-85.5C310.09,-85.5 301.34,-85.5 293.25,-85.5"/>
<polygon fill="#63b8ff" stroke="#63b8ff" points="318.88,-89 328.88,-85.5 318.88,-82 318.88,-89"/>
</a>
</g>
</g>
<!-- Node5 -->
<g id="Node000005" class="node">
<title>Node5</title>
<g id="a_Node000005"><a xlink:href="main_8c.html#a9a070a6f408cadb404b0ee7fbc74c576" target="_top" xlink:title=" ">
<polygon fill="white" stroke="#666666" points="181,-95 77,-95 77,-76 181,-76 181,-95"/>
<text text-anchor="middle" x="129" y="-83" font-family="Helvetica,sans-Serif" font-size="10.00">FormFunctionFEM</text>
</a>
</g>
</g>
<!-- Node4&#45;&gt;Node5 -->
<g id="edge4_Node000004_Node000005" class="edge">
<title>Node4&#45;&gt;Node5</title>
<g id="a_edge4_Node000004_Node000005"><a xlink:title=" ">
<path fill="none" stroke="#63b8ff" d="M206.59,-85.5C198.35,-85.5 189.74,-85.5 181.39,-85.5"/>
<polygon fill="#63b8ff" stroke="#63b8ff" points="206.8,-89 216.8,-85.5 206.8,-82 206.8,-89"/>
</a>
</g>
</g>
<!-- Node6 -->
<g id="Node000006" class="node">
<title>Node6</title>
<g id="a_Node000006"><a xlink:href="main_8c.html#a3c04138a5bfe5d72780bb7e82a18e627" target="_top" xlink:title=" ">
<polygon fill="white" stroke="#666666" points="41,-95 0,-95 0,-76 41,-76 41,-95"/>
<text text-anchor="middle" x="20.5" y="-83" font-family="Helvetica,sans-Serif" font-size="10.00">main</text>
</a>
</g>
</g>
<!-- Node5&#45;&gt;Node6 -->
<g id="edge5_Node000005_Node000006" class="edge">
<title>Node5&#45;&gt;Node6</title>
<g id="a_edge5_Node000005_Node000006"><a xlink:title=" ">
<path fill="none" stroke="#63b8ff" d="M66.83,-85.5C57.58,-85.5 48.66,-85.5 41.22,-85.5"/>
<polygon fill="#63b8ff" stroke="#63b8ff" points="66.93,-89 76.93,-85.5 66.93,-82 66.93,-89"/>
</a>
</g>
</g>
<!-- Node8 -->
<g id="Node000008" class="node">
<title>Node8</title>
<g id="a_Node000008"><a xlink:href="active__strain_8c.html#a3017cdcf59a9d394ac18948cec6e94cf" target="_top" xlink:title="Solve local thickness equation (C33) for one element.">
<polygon fill="white" stroke="#666666" points="549,-57 462,-57 462,-38 549,-38 549,-57"/>
<text text-anchor="middle" x="505.5" y="-45" font-family="Helvetica,sans-Serif" font-size="10.00">ElemC33Solve</text>
</a>
</g>
</g>
<!-- Node7&#45;&gt;Node8 -->
<g id="edge7_Node000007_Node000008" class="edge">
<title>Node7&#45;&gt;Node8</title>
<g id="a_edge7_Node000007_Node000008"><a xlink:title=" ">
<path fill="none" stroke="#63b8ff" d="M725.65,-62.84C674.28,-59.24 596.91,-53.83 549.17,-50.49"/>
<polygon fill="#63b8ff" stroke="#63b8ff" points="725.66,-66.35 735.88,-63.55 726.14,-59.36 725.66,-66.35"/>
</a>
</g>
</g>
<!-- Node9 -->
<g id="Node000009" class="node">
<title>Node9</title>
<g id="a_Node000009"><a xlink:href="active__strain_8c.html#ab28c3cc7b872159806c167f8162346ea" target="_top" xlink:title="Compute right Cauchy&#45;Green tensor and its inverse for one element.">
<polygon fill="white" stroke="#666666" points="690,-95 595,-95 595,-76 690,-76 690,-95"/>
<text text-anchor="middle" x="642.5" y="-83" font-family="Helvetica,sans-Serif" font-size="10.00">ElemCGDefTens</text>
</a>
</g>
</g>
<!-- Node7&#45;&gt;Node9 -->
<g id="edge9_Node000007_Node000009" class="edge">
<title>Node7&#45;&gt;Node9</title>
<g id="a_edge9_Node000007_Node000009"><a xlink:title=" ">
<path fill="none" stroke="#63b8ff" d="M725.73,-73.88C714.02,-75.54 701.68,-77.28 690.21,-78.9"/>
<polygon fill="#63b8ff" stroke="#63b8ff" points="726.4,-77.32 735.81,-72.46 725.42,-70.39 726.4,-77.32"/>
</a>
</g>
</g>
<!-- Node10 -->
<g id="Node000010" class="node">
<title>Node10</title>
<g id="a_Node000010"><a xlink:href="active__strain_8c.html#adca02351c999668546fc922e1806d090" target="_top" xlink:title="Compute elastic right Cauchy&#45;Green tensor for one element.">
<polygon fill="white" stroke="#666666" points="700,-19 585,-19 585,0 700,0 700,-19"/>
<text text-anchor="middle" x="642.5" y="-7" font-family="Helvetica,sans-Serif" font-size="10.00">ElemElasCGDefTens</text>
</a>
</g>
</g>
<!-- Node7&#45;&gt;Node10 -->
<g id="edge11_Node000007_Node000010" class="edge">
<title>Node7&#45;&gt;Node10</title>
<g id="a_edge11_Node000007_Node000010"><a xlink:title=" ">
<path fill="none" stroke="#63b8ff" d="M746.19,-53.02C721.56,-42.58 688.03,-28.37 666.09,-19.07"/>
<polygon fill="#63b8ff" stroke="#63b8ff" points="744.91,-56.28 755.49,-56.96 747.65,-49.83 744.91,-56.28"/>
</a>
</g>
</g>
<!-- Node8&#45;&gt;Node3 -->
<g id="edge8_Node000008_Node000003" class="edge">
<title>Node8&#45;&gt;Node3</title>
<g id="a_edge8_Node000008_Node000003"><a xlink:title=" ">
<path fill="none" stroke="#63b8ff" d="M462.94,-60.04C445.79,-65.2 426.25,-71.1 410.28,-75.91"/>
<polygon fill="#63b8ff" stroke="#63b8ff" points="464.14,-63.33 472.7,-57.09 462.12,-56.63 464.14,-63.33"/>
</a>
</g>
</g>
<!-- Node9&#45;&gt;Node3 -->
<g id="edge10_Node000009_Node000003" class="edge">
<title>Node9&#45;&gt;Node3</title>
<g id="a_edge10_Node000009_Node000003"><a xlink:title=" ">
<path fill="none" stroke="#63b8ff" d="M584.69,-85.5C537.35,-85.5 470.69,-85.5 426.11,-85.5"/>
<polygon fill="#63b8ff" stroke="#63b8ff" points="584.78,-89 594.78,-85.5 584.78,-82 584.78,-89"/>
</a>
</g>
</g>
<!-- Node10&#45;&gt;Node8 -->
<g id="edge12_Node000010_Node000008" class="edge">
<title>Node10&#45;&gt;Node8</title>
<g id="a_edge12_Node000010_Node000008"><a xlink:title=" ">
<path fill="none" stroke="#63b8ff" d="M597.74,-21.82C579.19,-27.04 557.9,-33.03 540.56,-37.91"/>
<polygon fill="#63b8ff" stroke="#63b8ff" points="598.76,-25.17 607.43,-19.09 596.86,-18.43 598.76,-25.17"/>
</a>
</g>
</g>
<!-- Node11&#45;&gt;Node2 -->
<g id="edge14_Node000011_Node000002" class="edge">
<title>Node11&#45;&gt;Node2</title>
<g id="a_edge14_Node000011_Node000002"><a xlink:title=" ">
<path fill="none" stroke="#63b8ff" d="M734.4,-135.82C715.92,-141.04 694.71,-147.03 677.43,-151.91"/>
<polygon fill="#63b8ff" stroke="#63b8ff" points="735.39,-139.18 744.06,-133.09 733.49,-132.44 735.39,-139.18"/>
</a>
</g>
</g>
<!-- Node11&#45;&gt;Node8 -->
<g id="edge15_Node000011_Node000008" class="edge">
<title>Node11&#45;&gt;Node8</title>
<g id="a_edge15_Node000011_Node000008"><a xlink:title=" ">
<path fill="none" stroke="#63b8ff" d="M726.64,-125.66C686.76,-125.65 630.75,-121.88 585,-104.5 556.98,-93.85 529.97,-70.45 516.12,-57.18"/>
<polygon fill="#63b8ff" stroke="#63b8ff" points="726.69,-129.16 736.67,-125.58 726.64,-122.16 726.69,-129.16"/>
</a>
</g>
</g>
<!-- Node11&#45;&gt;Node9 -->
<g id="edge16_Node000011_Node000009" class="edge">
<title>Node11&#45;&gt;Node9</title>
<g id="a_edge16_Node000011_Node000009"><a xlink:title=" ">
<path fill="none" stroke="#63b8ff" d="M734.4,-111.18C715.92,-105.96 694.71,-99.97 677.43,-95.09"/>
<polygon fill="#63b8ff" stroke="#63b8ff" points="733.49,-114.56 744.06,-113.91 735.39,-107.82 733.49,-114.56"/>
</a>
</g>
</g>
</g>
</svg>
