<?xml version="1.0" encoding="UTF-8" standalone="no"?>
<!DOCTYPE svg PUBLIC "-//W3C//DTD SVG 1.1//EN"
 "http://www.w3.org/Graphics/SVG/1.1/DTD/svg11.dtd">
<!-- Generated by graphviz version 2.43.0 (0)
 -->
<!-- Title: AMULT Pages: 1 -->
<svg width="1200pt" height="696pt"
 viewBox="0.00 0.00 1200.00 696.46" xmlns="http://www.w3.org/2000/svg" xmlns:xlink="http://www.w3.org/1999/xlink">
<g id="graph0" class="graph" transform="scale(1 1) rotate(0) translate(4 692.46)">
<title>AMULT</title>
<!-- Node1 -->
<g id="Node000001" class="node">
<title>Node1</title>
<g id="a_Node000001"><a xlink:title=" ">
<polygon fill="#999999" stroke="#666666" points="1192,-398.46 1142,-398.46 1142,-379.46 1192,-379.46 1192,-398.46"/>
<text text-anchor="middle" x="1167" y="-386.46" font-family="Helvetica,sans-Serif" font-size="10.00">AMULT</text>
</a>
</g>
</g>
<!-- Node2 -->
<g id="Node000002" class="node">
<title>Node2</title>
<g id="a_Node000002"><a xlink:href="muscle__activation_8c.html#a19d89612f2544ef7f352badd7cf1f337" target="_top" xlink:title=" ">
<polygon fill="white" stroke="#666666" points="1086.5,-341.96 961.5,-341.96 961.5,-311.96 1086.5,-311.96 1086.5,-341.96"/>
<text text-anchor="start" x="969.5" y="-329.96" font-family="Helvetica,sans-Serif" font-size="10.00">compute_mid_surface</text>
<text text-anchor="middle" x="1024" y="-318.96" font-family="Helvetica,sans-Serif" font-size="10.00">_el_stress_after_act</text>
</a>
</g>
</g>
<!-- Node1&#45;&gt;Node2 -->
<g id="edge1_Node000001_Node000002" class="edge">
<title>Node1&#45;&gt;Node2</title>
<g id="a_edge1_Node000001_Node000002"><a xlink:title=" ">
<path fill="none" stroke="#63b8ff" d="M1141.52,-374.34C1130.82,-368.25 1117.99,-361.36 1106,-355.96 1094.83,-350.93 1082.51,-346.14 1070.92,-341.97"/>
<polygon fill="#63b8ff" stroke="#63b8ff" points="1139.9,-377.45 1150.31,-379.43 1143.41,-371.39 1139.9,-377.45"/>
</a>
</g>
</g>
<!-- Node5 -->
<g id="Node000005" class="node">
<title>Node5</title>
<g id="a_Node000005"><a xlink:href="lv__geometry_8c.html#aac85a6b370a9743adfb663de8acddbe1" target="_top" xlink:title=" ">
<polygon fill="white" stroke="#666666" points="195.5,-632.46 109.5,-632.46 109.5,-613.46 195.5,-613.46 195.5,-632.46"/>
<text text-anchor="middle" x="152.5" y="-620.46" font-family="Helvetica,sans-Serif" font-size="10.00">CreateLVMesh</text>
</a>
</g>
</g>
<!-- Node1&#45;&gt;Node5 -->
<g id="edge4_Node000001_Node000005" class="edge">
<title>Node1&#45;&gt;Node5</title>
<g id="a_edge4_Node000001_Node000005"><a xlink:title=" ">
<path fill="none" stroke="#63b8ff" d="M1161.86,-408.64C1154.93,-437.11 1138.43,-489.87 1106,-521.96 1012.34,-614.62 966.25,-640.96 834.5,-640.96 834.5,-640.96 834.5,-640.96 475.5,-640.96 375,-640.96 257.13,-632.11 195.65,-626.82"/>
<polygon fill="#63b8ff" stroke="#63b8ff" points="1165.31,-409.22 1164.13,-398.69 1158.49,-407.66 1165.31,-409.22"/>
</a>
</g>
</g>
<!-- Node7 -->
<g id="Node000007" class="node">
<title>Node7</title>
<g id="a_Node000007"><a xlink:href="active__strain_8c.html#a993ef27fda81bb402cba4aa14fa9b51a" target="_top" xlink:title="Build current covariant/contravariant basis vectors for one element.">
<polygon fill="white" stroke="#666666" points="875.5,-556.46 791.5,-556.46 791.5,-537.46 875.5,-537.46 875.5,-556.46"/>
<text text-anchor="middle" x="833.5" y="-544.46" font-family="Helvetica,sans-Serif" font-size="10.00">ElemUpdateG</text>
</a>
</g>
</g>
<!-- Node1&#45;&gt;Node7 -->
<g id="edge6_Node000001_Node000007" class="edge">
<title>Node1&#45;&gt;Node7</title>
<g id="a_edge6_Node000001_Node000007"><a xlink:title=" ">
<path fill="none" stroke="#63b8ff" d="M1158.2,-407.95C1148.82,-428.36 1131.16,-460.25 1106,-477.96 1035.4,-527.64 932.18,-541.6 875.52,-545.49"/>
<polygon fill="#63b8ff" stroke="#63b8ff" points="1161.44,-409.28 1162.23,-398.71 1155.02,-406.48 1161.44,-409.28"/>
</a>
</g>
</g>
<!-- Node14 -->
<g id="Node000014" class="node">
<title>Node14</title>
<g id="a_Node000014"><a xlink:href="active__strain_8c.html#a9ef026a24ded6fec7243fd82f49394c3" target="_top" xlink:title=" ">
<polygon fill="white" stroke="#666666" points="1106,-468.96 942,-468.96 942,-438.96 1106,-438.96 1106,-468.96"/>
<text text-anchor="start" x="950" y="-456.96" font-family="Helvetica,sans-Serif" font-size="10.00">ElemUpdateGeomSubdivFrom</text>
<text text-anchor="middle" x="1024" y="-445.96" font-family="Helvetica,sans-Serif" font-size="10.00">Coords_</text>
</a>
</g>
</g>
<!-- Node1&#45;&gt;Node14 -->
<g id="edge16_Node000001_Node000014" class="edge">
<title>Node1&#45;&gt;Node14</title>
<g id="a_edge16_Node000001_Node000014"><a xlink:title=" ">
<path fill="none" stroke="#63b8ff" d="M1143.64,-404.38C1132.63,-411.54 1118.96,-419.81 1106,-425.96 1095.92,-430.74 1084.79,-435.12 1074.09,-438.93"/>
<polygon fill="#63b8ff" stroke="#63b8ff" points="1145.8,-407.14 1152.19,-398.69 1141.92,-401.31 1145.8,-407.14"/>
</a>
</g>
</g>
<!-- Node21 -->
<g id="Node000021" class="node">
<title>Node21</title>
<g id="a_Node000021"><a xlink:href="active__strain_8c.html#ace13f65688712f8ea397a734d66954ad" target="_top" xlink:title="Assemble element internal force vector into Fb_out.">
<polygon fill="white" stroke="#666666" points="1063.5,-417.46 984.5,-417.46 984.5,-398.46 1063.5,-398.46 1063.5,-417.46"/>
<text text-anchor="middle" x="1024" y="-405.46" font-family="Helvetica,sans-Serif" font-size="10.00">ElemUpdFint</text>
</a>
</g>
</g>
<!-- Node1&#45;&gt;Node21 -->
<g id="edge32_Node000001_Node000021" class="edge">
<title>Node1&#45;&gt;Node21</title>
<g id="a_edge32_Node000001_Node000021"><a xlink:title=" ">
<path fill="none" stroke="#63b8ff" d="M1131.85,-393.56C1111.22,-396.34 1084.89,-399.89 1063.52,-402.77"/>
<polygon fill="#63b8ff" stroke="#63b8ff" points="1132.32,-397.03 1141.76,-392.22 1131.38,-390.09 1132.32,-397.03"/>
</a>
</g>
</g>
<!-- Node22 -->
<g id="Node000022" class="node">
<title>Node22</title>
<g id="a_Node000022"><a xlink:href="bending_8c.html#a2b66770553fce4724cfb65b0f79e83b1" target="_top" xlink:title=" ">
<polygon fill="white" stroke="#666666" points="1055,-214.46 993,-214.46 993,-195.46 1055,-195.46 1055,-214.46"/>
<text text-anchor="middle" x="1024" y="-202.46" font-family="Helvetica,sans-Serif" font-size="10.00">Fbending</text>
</a>
</g>
</g>
<!-- Node1&#45;&gt;Node22 -->
<g id="edge34_Node000001_Node000022" class="edge">
<title>Node1&#45;&gt;Node22</title>
<g id="a_edge34_Node000001_Node000022"><a xlink:title=" ">
<path fill="none" stroke="#63b8ff" d="M1164.31,-369.33C1160.34,-335.49 1147.36,-266.13 1106,-227.96 1092.25,-215.27 1072,-209.52 1055.19,-206.94"/>
<polygon fill="#63b8ff" stroke="#63b8ff" points="1160.84,-369.76 1165.34,-379.35 1167.8,-369.04 1160.84,-369.76"/>
</a>
</g>
</g>
<!-- Node34 -->
<g id="Node000034" class="node">
<title>Node34</title>
<g id="a_Node000034"><a xlink:href="muscle__activation_8c.html#a357b3bb1950e461f37dc728929d29486" target="_top" xlink:title=" ">
<polygon fill="white" stroke="#666666" points="882.5,-350.46 784.5,-350.46 784.5,-331.46 882.5,-331.46 882.5,-350.46"/>
<text text-anchor="middle" x="833.5" y="-338.46" font-family="Helvetica,sans-Serif" font-size="10.00">FInternalAftActEl</text>
</a>
</g>
</g>
<!-- Node1&#45;&gt;Node34 -->
<g id="edge53_Node000001_Node000034" class="edge">
<title>Node1&#45;&gt;Node34</title>
<g id="a_edge53_Node000001_Node000034"><a xlink:title=" ">
<path fill="none" stroke="#63b8ff" d="M1131.92,-384.02C1072.63,-375.44 950.37,-357.74 882.52,-347.91"/>
<polygon fill="#63b8ff" stroke="#63b8ff" points="1131.49,-387.5 1141.89,-385.47 1132.5,-380.57 1131.49,-387.5"/>
</a>
</g>
</g>
<!-- Node35 -->
<g id="Node000035" class="node">
<title>Node35</title>
<g id="a_Node000035"><a xlink:href="external_8c.html#a7a02ba548706ce1e1ab6a0215672d277" target="_top" xlink:title=" ">
<polygon fill="white" stroke="#666666" points="1053.5,-293.46 994.5,-293.46 994.5,-274.46 1053.5,-274.46 1053.5,-293.46"/>
<text text-anchor="middle" x="1024" y="-281.46" font-family="Helvetica,sans-Serif" font-size="10.00">GhostFix</text>
</a>
</g>
</g>
<!-- Node1&#45;&gt;Node35 -->
<g id="edge55_Node000001_Node000035" class="edge">
<title>Node1&#45;&gt;Node35</title>
<g id="a_edge55_Node000001_Node000035"><a xlink:title=" ">
<path fill="none" stroke="#63b8ff" d="M1157.81,-369.93C1148.28,-350.11 1130.63,-319.67 1106,-302.96 1090.58,-292.5 1070.13,-287.76 1053.64,-285.62"/>
<polygon fill="#63b8ff" stroke="#63b8ff" points="1154.71,-371.56 1162.05,-379.2 1161.07,-368.65 1154.71,-371.56"/>
</a>
</g>
</g>
<!-- Node36 -->
<g id="Node000036" class="node">
<title>Node36</title>
<g id="a_Node000036"><a xlink:href="external_8c.html#a8fbf0cfd3df23a9f35e4a68970730468" target="_top" xlink:title=" ">
<polygon fill="white" stroke="#666666" points="1057,-256.46 991,-256.46 991,-237.46 1057,-237.46 1057,-256.46"/>
<text text-anchor="middle" x="1024" y="-244.46" font-family="Helvetica,sans-Serif" font-size="10.00">GhostFree</text>
</a>
</g>
</g>
<!-- Node1&#45;&gt;Node36 -->
<g id="edge56_Node000001_Node000036" class="edge">
<title>Node1&#45;&gt;Node36</title>
<g id="a_edge56_Node000001_Node000036"><a xlink:title=" ">
<path fill="none" stroke="#63b8ff" d="M1162.12,-369.4C1155.58,-341.73 1139.63,-291.57 1106,-264.96 1092.22,-254.05 1073.18,-249.45 1057.02,-247.63"/>
<polygon fill="#63b8ff" stroke="#63b8ff" points="1158.76,-370.41 1164.31,-379.44 1165.6,-368.92 1158.76,-370.41"/>
</a>
</g>
</g>
<!-- Node37 -->
<g id="Node000037" class="node">
<title>Node37</title>
<g id="a_Node000037"><a xlink:href="bending_8c.html#a9f48607d5ce7f351c5960f63455779c4" target="_top" xlink:title=" ">
<polygon fill="white" stroke="#666666" points="1044.5,-688.46 1003.5,-688.46 1003.5,-669.46 1044.5,-669.46 1044.5,-688.46"/>
<text text-anchor="middle" x="1024" y="-676.46" font-family="Helvetica,sans-Serif" font-size="10.00">Kve0</text>
</a>
</g>
</g>
<!-- Node1&#45;&gt;Node37 -->
<g id="edge57_Node000001_Node000037" class="edge">
<title>Node1&#45;&gt;Node37</title>
<g id="a_edge57_Node000001_Node000037"><a xlink:title=" ">
<path fill="none" stroke="#63b8ff" d="M1164.1,-408.81C1158.43,-464.22 1139.82,-618.82 1106,-654.96 1090.17,-671.88 1063.02,-677.05 1044.56,-678.54"/>
<polygon fill="#63b8ff" stroke="#63b8ff" points="1167.62,-408.87 1165.12,-398.57 1160.65,-408.18 1167.62,-408.87"/>
</a>
</g>
</g>
<!-- Node3 -->
<g id="Node000003" class="node">
<title>Node3</title>
<g id="a_Node000003"><a xlink:href="muscle__activation_8c.html#a3f9fadbc31e4872a8519e6bfdecf7b8f" target="_top" xlink:title=" ">
<polygon fill="white" stroke="#666666" points="901.5,-312.96 765.5,-312.96 765.5,-282.96 901.5,-282.96 901.5,-312.96"/>
<text text-anchor="start" x="773.5" y="-300.96" font-family="Helvetica,sans-Serif" font-size="10.00">update_mid_surf_elastic</text>
<text text-anchor="middle" x="833.5" y="-289.96" font-family="Helvetica,sans-Serif" font-size="10.00">_stress</text>
</a>
</g>
</g>
<!-- Node2&#45;&gt;Node3 -->
<g id="edge2_Node000002_Node000003" class="edge">
<title>Node2&#45;&gt;Node3</title>
<g id="a_edge2_Node000002_Node000003"><a xlink:title=" ">
<path fill="none" stroke="#63b8ff" d="M951.26,-315.92C934.95,-313.41 917.68,-310.75 901.56,-308.28"/>
<polygon fill="#63b8ff" stroke="#63b8ff" points="950.86,-319.4 961.28,-317.46 951.93,-312.48 950.86,-319.4"/>
</a>
</g>
</g>
<!-- Node4 -->
<g id="Node000004" class="node">
<title>Node4</title>
<g id="a_Node000004"><a xlink:href="muscle__activation_8c.html#a5794b91b41d38582fd698b653b53330e" target="_top" xlink:title=" ">
<polygon fill="white" stroke="#666666" points="715,-328.46 590,-328.46 590,-309.46 715,-309.46 715,-328.46"/>
<text text-anchor="middle" x="652.5" y="-316.46" font-family="Helvetica,sans-Serif" font-size="10.00">UpdateFInternalAftAct</text>
</a>
</g>
</g>
<!-- Node3&#45;&gt;Node4 -->
<g id="edge3_Node000003_Node000004" class="edge">
<title>Node3&#45;&gt;Node4</title>
<g id="a_edge3_Node000003_Node000004"><a xlink:title=" ">
<path fill="none" stroke="#63b8ff" d="M755.19,-307.03C741.8,-308.6 728.04,-310.21 715.13,-311.73"/>
<polygon fill="#63b8ff" stroke="#63b8ff" points="755.81,-310.48 765.34,-305.84 755,-303.53 755.81,-310.48"/>
</a>
</g>
</g>
<!-- Node6 -->
<g id="Node000006" class="node">
<title>Node6</title>
<g id="a_Node000006"><a xlink:href="main_8c.html#a3c04138a5bfe5d72780bb7e82a18e627" target="_top" xlink:title=" ">
<polygon fill="white" stroke="#666666" points="41,-426.46 0,-426.46 0,-407.46 41,-407.46 41,-426.46"/>
<text text-anchor="middle" x="20.5" y="-414.46" font-family="Helvetica,sans-Serif" font-size="10.00">main</text>
</a>
</g>
</g>
<!-- Node5&#45;&gt;Node6 -->
<g id="edge5_Node000005_Node000006" class="edge">
<title>Node5&#45;&gt;Node6</title>
<g id="a_edge5_Node000005_Node000006"><a xlink:title=" ">
<path fill="none" stroke="#63b8ff" d="M113.92,-609.03C100.72,-602.54 86.75,-593.63 77,-581.96 36.5,-533.49 25.14,-454.18 22.33,-426.7"/>
<polygon fill="#63b8ff" stroke="#63b8ff" points="112.79,-612.36 123.34,-613.33 115.7,-605.99 112.79,-612.36"/>
</a>
</g>
</g>
<!-- Node8 -->
<g id="Node000008" class="node">
<title>Node8</title>
<g id="a_Node000008"><a xlink:href="active__strain_8c.html#a693fb698122674ff7df6dd47ac75167c" target="_top" xlink:title="Run per&#45;element precomputations before global internal&#45;force assembly.">
<polygon fill="white" stroke="#666666" points="525,-501.46 428,-501.46 428,-482.46 525,-482.46 525,-501.46"/>
<text text-anchor="middle" x="476.5" y="-489.46" font-family="Helvetica,sans-Serif" font-size="10.00">FInternalPreCalc</text>
</a>
</g>
</g>
<!-- Node7&#45;&gt;Node8 -->
<g id="edge7_Node000007_Node000008" class="edge">
<title>Node7&#45;&gt;Node8</title>
<g id="a_edge7_Node000007_Node000008"><a xlink:title=" ">
<path fill="none" stroke="#63b8ff" d="M802.86,-560.37C754.59,-580.21 656.68,-612.08 580,-582.96 536.18,-566.31 499.1,-521.4 484.34,-501.58"/>
<polygon fill="#63b8ff" stroke="#63b8ff" points="804.26,-563.57 812.11,-556.46 801.54,-557.13 804.26,-563.57"/>
</a>
</g>
</g>
<!-- Node11 -->
<g id="Node000011" class="node">
<title>Node11</title>
<g id="a_Node000011"><a xlink:href="cuda__processes_8c.html#a627a27228923fbc3e63f0f4e1c5aa765" target="_top" xlink:title=" ">
<polygon fill="white" stroke="#666666" points="707,-574.46 598,-574.46 598,-555.46 707,-555.46 707,-574.46"/>
<text text-anchor="middle" x="652.5" y="-562.46" font-family="Helvetica,sans-Serif" font-size="10.00">RunCudaProcesses</text>
</a>
</g>
</g>
<!-- Node7&#45;&gt;Node11 -->
<g id="edge11_Node000007_Node000011" class="edge">
<title>Node7&#45;&gt;Node11</title>
<g id="a_edge11_Node000007_Node000011"><a xlink:title=" ">
<path fill="none" stroke="#63b8ff" d="M781.44,-552.09C758.24,-554.43 730.79,-557.19 707.28,-559.55"/>
<polygon fill="#63b8ff" stroke="#63b8ff" points="781.83,-555.57 791.43,-551.09 781.13,-548.61 781.83,-555.57"/>
</a>
</g>
</g>
<!-- Node12 -->
<g id="Node000012" class="node">
<title>Node12</title>
<g id="a_Node000012"><a xlink:href="dmplex__geom_8c.html#aa2b24de348fff4079de659ff63ba9b85" target="_top" xlink:title="Synchronise remote coordinates and evaluate the geometry kernel for all local cells.">
<polygon fill="white" stroke="#666666" points="710,-537.46 595,-537.46 595,-518.46 710,-518.46 710,-537.46"/>
<text text-anchor="middle" x="652.5" y="-525.46" font-family="Helvetica,sans-Serif" font-size="10.00">RunLocalGeometry_</text>
</a>
</g>
</g>
<!-- Node7&#45;&gt;Node12 -->
<g id="edge13_Node000007_Node000012" class="edge">
<title>Node7&#45;&gt;Node12</title>
<g id="a_edge13_Node000007_Node000012"><a xlink:title=" ">
<path fill="none" stroke="#63b8ff" d="M781.22,-541.52C759.06,-539.16 733.06,-536.4 710.31,-533.99"/>
<polygon fill="#63b8ff" stroke="#63b8ff" points="781.12,-545.02 791.43,-542.6 781.86,-538.06 781.12,-545.02"/>
</a>
</g>
</g>
<!-- Node9 -->
<g id="Node000009" class="node">
<title>Node9</title>
<g id="a_Node000009"><a xlink:href="active__strain_8c.html#a3bac899c10052c346d2afe9eccbac71d" target="_top" xlink:title="Assemble global internal force vector for active&#45;strain mechanics.">
<polygon fill="white" stroke="#666666" points="356.5,-388.46 280.5,-388.46 280.5,-369.46 356.5,-369.46 356.5,-388.46"/>
<text text-anchor="middle" x="318.5" y="-376.46" font-family="Helvetica,sans-Serif" font-size="10.00">FInternalAct</text>
</a>
</g>
</g>
<!-- Node8&#45;&gt;Node9 -->
<g id="edge8_Node000008_Node000009" class="edge">
<title>Node8&#45;&gt;Node9</title>
<g id="a_edge8_Node000008_Node000009"><a xlink:title=" ">
<path fill="none" stroke="#63b8ff" d="M420.39,-478.77C416.42,-477.06 412.58,-475.13 409,-472.96 371.41,-450.21 339.15,-407.58 325.92,-388.55"/>
<polygon fill="#63b8ff" stroke="#63b8ff" points="419.2,-482.06 429.79,-482.4 421.72,-475.53 419.2,-482.06"/>
</a>
</g>
</g>
<!-- Node10 -->
<g id="Node000010" class="node">
<title>Node10</title>
<g id="a_Node000010"><a xlink:href="main_8c.html#a9a070a6f408cadb404b0ee7fbc74c576" target="_top" xlink:title=" ">
<polygon fill="white" stroke="#666666" points="204.5,-388.46 100.5,-388.46 100.5,-369.46 204.5,-369.46 204.5,-388.46"/>
<text text-anchor="middle" x="152.5" y="-376.46" font-family="Helvetica,sans-Serif" font-size="10.00">FormFunctionFEM</text>
</a>
</g>
</g>
<!-- Node9&#45;&gt;Node10 -->
<g id="edge9_Node000009_Node000010" class="edge">
<title>Node9&#45;&gt;Node10</title>
<g id="a_edge9_Node000009_Node000010"><a xlink:title=" ">
<path fill="none" stroke="#63b8ff" d="M270.2,-378.96C249.65,-378.96 225.52,-378.96 204.55,-378.96"/>
<polygon fill="#63b8ff" stroke="#63b8ff" points="270.29,-382.46 280.29,-378.96 270.29,-375.46 270.29,-382.46"/>
</a>
</g>
</g>
<!-- Node10&#45;&gt;Node6 -->
<g id="edge10_Node000010_Node000006" class="edge">
<title>Node10&#45;&gt;Node6</title>
<g id="a_edge10_Node000010_Node000006"><a xlink:title=" ">
<path fill="none" stroke="#63b8ff" d="M108.91,-391.41C86.16,-398.06 59.23,-405.93 41.33,-411.16"/>
<polygon fill="#63b8ff" stroke="#63b8ff" points="110.08,-394.71 118.7,-388.55 108.12,-387.99 110.08,-394.71"/>
</a>
</g>
</g>
<!-- Node11&#45;&gt;Node6 -->
<g id="edge12_Node000011_Node000006" class="edge">
<title>Node11&#45;&gt;Node6</title>
<g id="a_edge12_Node000011_Node000006"><a xlink:title=" ">
<path fill="none" stroke="#63b8ff" d="M590.93,-576.04C479.53,-593.03 238.78,-613.65 77,-510.96 45.64,-491.05 29.77,-446.53 24.05,-426.75"/>
<polygon fill="#63b8ff" stroke="#63b8ff" points="591.64,-579.47 600.98,-574.46 590.55,-572.56 591.64,-579.47"/>
</a>
</g>
</g>
<!-- Node13 -->
<g id="Node000013" class="node">
<title>Node13</title>
<g id="a_Node000013"><a xlink:href="dmplex__geom_8c.html#ac4ecb4d172bee5f7c59a9fdf2680bb51" target="_top" xlink:title="Benchmark: run the full distributed DMPlex geometry pipeline for all bodies.">
<polygon fill="white" stroke="#666666" points="228,-502.46 77,-502.46 77,-483.46 228,-483.46 228,-502.46"/>
<text text-anchor="middle" x="152.5" y="-490.46" font-family="Helvetica,sans-Serif" font-size="10.00">RunDMPlexGeomProcesses</text>
</a>
</g>
</g>
<!-- Node12&#45;&gt;Node13 -->
<g id="edge14_Node000012_Node000013" class="edge">
<title>Node12&#45;&gt;Node13</title>
<g id="a_edge14_Node000012_Node000013"><a xlink:title=" ">
<path fill="none" stroke="#63b8ff" d="M584.76,-523.27C492.11,-516.76 325.04,-505.01 228.29,-498.22"/>
<polygon fill="#63b8ff" stroke="#63b8ff" points="584.64,-526.77 594.86,-523.98 585.13,-519.79 584.64,-526.77"/>
</a>
</g>
</g>
<!-- Node13&#45;&gt;Node6 -->
<g id="edge15_Node000013_Node000006" class="edge">
<title>Node13&#45;&gt;Node6</title>
<g id="a_edge15_Node000013_Node000006"><a xlink:title=" ">
<path fill="none" stroke="#63b8ff" d="M126.09,-478.1C99.96,-462.82 60.03,-439.48 37.83,-426.51"/>
<polygon fill="#63b8ff" stroke="#63b8ff" points="124.64,-481.31 135.04,-483.33 128.17,-475.26 124.64,-481.31"/>
</a>
</g>
</g>
<!-- Node15 -->
<g id="Node000015" class="node">
<title>Node15</title>
<g id="a_Node000015"><a xlink:href="active__strain_8c.html#ac93e65e44aa9af3d11c2165016210d87" target="_top" xlink:title="Update reference midsurface geometry cache for one element.">
<polygon fill="white" stroke="#666666" points="906,-463.46 761,-463.46 761,-444.46 906,-444.46 906,-463.46"/>
<text text-anchor="middle" x="833.5" y="-451.46" font-family="Helvetica,sans-Serif" font-size="10.00">ElemUpdateGeom0Subdiv</text>
</a>
</g>
</g>
<!-- Node14&#45;&gt;Node15 -->
<g id="edge17_Node000014_Node000015" class="edge">
<title>Node14&#45;&gt;Node15</title>
<g id="a_edge17_Node000014_Node000015"><a xlink:title=" ">
<path fill="none" stroke="#63b8ff" d="M931.9,-453.96C923.29,-453.96 914.65,-453.96 906.26,-453.96"/>
<polygon fill="#63b8ff" stroke="#63b8ff" points="931.97,-457.46 941.97,-453.96 931.97,-450.46 931.97,-457.46"/>
</a>
</g>
</g>
<!-- Node19 -->
<g id="Node000019" class="node">
<title>Node19</title>
<g id="a_Node000019"><a xlink:href="active__strain_8c.html#a04fa5da4f55d0663ad5ec7a3534de0af" target="_top" xlink:title="Update current midsurface geometry cache for one element.">
<polygon fill="white" stroke="#666666" points="903,-500.46 764,-500.46 764,-481.46 903,-481.46 903,-500.46"/>
<text text-anchor="middle" x="833.5" y="-488.46" font-family="Helvetica,sans-Serif" font-size="10.00">ElemUpdateGeomSubdiv</text>
</a>
</g>
</g>
<!-- Node14&#45;&gt;Node19 -->
<g id="edge25_Node000014_Node000019" class="edge">
<title>Node14&#45;&gt;Node19</title>
<g id="a_edge25_Node000014_Node000019"><a xlink:title=" ">
<path fill="none" stroke="#63b8ff" d="M936.48,-470.94C918.1,-474.55 899.33,-478.23 882.98,-481.44"/>
<polygon fill="#63b8ff" stroke="#63b8ff" points="937.19,-474.37 946.33,-469.01 935.84,-467.5 937.19,-474.37"/>
</a>
</g>
</g>
<!-- Node15&#45;&gt;Node11 -->
<g id="edge21_Node000015_Node000011" class="edge">
<title>Node15&#45;&gt;Node11</title>
<g id="a_edge21_Node000015_Node000011"><a xlink:title=" ">
<path fill="none" stroke="#63b8ff" d="M765.91,-468.4C764.21,-469.5 762.56,-470.69 761,-471.96 732.61,-495.02 753.23,-522.71 725,-545.96 719.75,-550.29 713.6,-553.64 707.16,-556.23"/>
<polygon fill="#63b8ff" stroke="#63b8ff" points="767.75,-471.39 774.89,-463.56 764.43,-465.23 767.75,-471.39"/>
</a>
</g>
</g>
<!-- Node15&#45;&gt;Node12 -->
<g id="edge24_Node000015_Node000012" class="edge">
<title>Node15&#45;&gt;Node12</title>
<g id="a_edge24_Node000015_Node000012"><a xlink:title=" ">
<path fill="none" stroke="#63b8ff" d="M770.53,-467.21C767.23,-468.63 764.03,-470.21 761,-471.96 741.12,-483.42 744.8,-497.37 725,-508.96 718.35,-512.85 710.89,-515.96 703.36,-518.44"/>
<polygon fill="#63b8ff" stroke="#63b8ff" points="771.93,-470.42 780.01,-463.57 769.42,-463.88 771.93,-470.42"/>
</a>
</g>
</g>
<!-- Node16 -->
<g id="Node000016" class="node">
<title>Node16</title>
<g id="a_Node000016"><a xlink:href="dmplex__geom_8c.html#aeca513213e67a07a712cc41e8c6412ea" target="_top" xlink:title="One&#45;time DMPlex geometry setup.">
<polygon fill="white" stroke="#666666" points="721,-426.46 584,-426.46 584,-407.46 721,-407.46 721,-426.46"/>
<text text-anchor="middle" x="652.5" y="-414.46" font-family="Helvetica,sans-Serif" font-size="10.00">FEM_DMPlexGeomSetup</text>
</a>
</g>
</g>
<!-- Node15&#45;&gt;Node16 -->
<g id="edge18_Node000015_Node000016" class="edge">
<title>Node15&#45;&gt;Node16</title>
<g id="a_edge18_Node000015_Node000016"><a xlink:title=" ">
<path fill="none" stroke="#63b8ff" d="M776.46,-442.37C751.8,-437.28 723.17,-431.36 699.75,-426.52"/>
<polygon fill="#63b8ff" stroke="#63b8ff" points="775.9,-445.83 786.4,-444.43 777.32,-438.98 775.9,-445.83"/>
</a>
</g>
</g>
<!-- Node18 -->
<g id="Node000018" class="node">
<title>Node18</title>
<g id="a_Node000018"><a xlink:href="kokkos__processes_8c.html#a3f18ca1bc94cfbc69753dccb70a43699" target="_top" xlink:title=" ">
<polygon fill="white" stroke="#666666" points="712,-463.46 593,-463.46 593,-444.46 712,-444.46 712,-463.46"/>
<text text-anchor="middle" x="652.5" y="-451.46" font-family="Helvetica,sans-Serif" font-size="10.00">RunKokkosProcesses</text>
</a>
</g>
</g>
<!-- Node15&#45;&gt;Node18 -->
<g id="edge22_Node000015_Node000018" class="edge">
<title>Node15&#45;&gt;Node18</title>
<g id="a_edge22_Node000015_Node000018"><a xlink:title=" ">
<path fill="none" stroke="#63b8ff" d="M750.67,-453.96C737.72,-453.96 724.55,-453.96 712.27,-453.96"/>
<polygon fill="#63b8ff" stroke="#63b8ff" points="750.98,-457.46 760.98,-453.96 750.98,-450.46 750.98,-457.46"/>
</a>
</g>
</g>
<!-- Node16&#45;&gt;Node6 -->
<g id="edge19_Node000016_Node000006" class="edge">
<title>Node16&#45;&gt;Node6</title>
<g id="a_edge19_Node000016_Node000006"><a xlink:title=" ">
<path fill="none" stroke="#63b8ff" d="M619.93,-403.62C530.58,-367.97 269.92,-278.54 77,-359.96 54.09,-369.63 35.96,-393.88 27.21,-407.43"/>
<polygon fill="#63b8ff" stroke="#63b8ff" points="618.66,-406.88 629.24,-407.39 621.29,-400.4 618.66,-406.88"/>
</a>
</g>
</g>
<!-- Node17 -->
<g id="Node000017" class="node">
<title>Node17</title>
<g id="a_Node000017"><a xlink:href="dmplex__geom_8c.html#af897ef006be5d3cc2be53b272a4f5a61" target="_top" xlink:title="Drop&#45;in geometry call: setup + update + destroy in one shot.">
<polygon fill="white" stroke="#666666" points="544,-464.46 409,-464.46 409,-445.46 544,-445.46 544,-464.46"/>
<text text-anchor="middle" x="476.5" y="-452.46" font-family="Helvetica,sans-Serif" font-size="10.00">RunDMPlexGeomSubdiv</text>
</a>
</g>
</g>
<!-- Node16&#45;&gt;Node17 -->
<g id="edge20_Node000016_Node000017" class="edge">
<title>Node16&#45;&gt;Node17</title>
<g id="a_edge20_Node000016_Node000017"><a xlink:title=" ">
<path fill="none" stroke="#63b8ff" d="M597.69,-428.71C573.08,-434.08 544.31,-440.37 521.09,-445.44"/>
<polygon fill="#63b8ff" stroke="#63b8ff" points="598.57,-432.1 607.59,-426.55 597.08,-425.26 598.57,-432.1"/>
</a>
</g>
</g>
<!-- Node18&#45;&gt;Node6 -->
<g id="edge23_Node000018_Node000006" class="edge">
<title>Node18&#45;&gt;Node6</title>
<g id="a_edge23_Node000018_Node000006"><a xlink:title=" ">
<path fill="none" stroke="#63b8ff" d="M592.59,-442.68C576.86,-440.06 559.83,-437.56 544,-435.96 348.48,-416.12 109.97,-416.25 41.02,-416.76"/>
<polygon fill="#63b8ff" stroke="#63b8ff" points="592.27,-446.18 602.71,-444.42 593.45,-439.28 592.27,-446.18"/>
</a>
</g>
</g>
<!-- Node19&#45;&gt;Node11 -->
<g id="edge29_Node000019_Node000011" class="edge">
<title>Node19&#45;&gt;Node11</title>
<g id="a_edge29_Node000019_Node000011"><a xlink:title=" ">
<path fill="none" stroke="#63b8ff" d="M804.89,-505.27C774.42,-521.03 729.12,-544.38 725,-545.96 715.65,-549.55 705.35,-552.71 695.57,-555.38"/>
<polygon fill="#63b8ff" stroke="#63b8ff" points="806.53,-508.36 813.8,-500.65 803.31,-502.14 806.53,-508.36"/>
</a>
</g>
</g>
<!-- Node19&#45;&gt;Node12 -->
<g id="edge31_Node000019_Node000012" class="edge">
<title>Node19&#45;&gt;Node12</title>
<g id="a_edge31_Node000019_Node000012"><a xlink:title=" ">
<path fill="none" stroke="#63b8ff" d="M776.46,-502.54C751.8,-507.64 723.17,-513.56 699.75,-518.4"/>
<polygon fill="#63b8ff" stroke="#63b8ff" points="777.32,-505.94 786.4,-500.49 775.9,-499.08 777.32,-505.94"/>
</a>
</g>
</g>
<!-- Node19&#45;&gt;Node18 -->
<g id="edge30_Node000019_Node000018" class="edge">
<title>Node19&#45;&gt;Node18</title>
<g id="a_edge30_Node000019_Node000018"><a xlink:title=" ">
<path fill="none" stroke="#63b8ff" d="M776.46,-479.37C751.8,-474.28 723.17,-468.36 699.75,-463.52"/>
<polygon fill="#63b8ff" stroke="#63b8ff" points="775.9,-482.83 786.4,-481.43 777.32,-475.98 775.9,-482.83"/>
</a>
</g>
</g>
<!-- Node20 -->
<g id="Node000020" class="node">
<title>Node20</title>
<g id="a_Node000020"><a xlink:href="dmplex__geom_8c.html#af7fb8fc68c27b224f0458d0c42911fe6" target="_top" xlink:title="Per&#45;SNES&#45;iteration geometry update.">
<polygon fill="white" stroke="#666666" points="725,-500.46 580,-500.46 580,-481.46 725,-481.46 725,-500.46"/>
<text text-anchor="middle" x="652.5" y="-488.46" font-family="Helvetica,sans-Serif" font-size="10.00">FEM_DMPlexGeomUpdate</text>
</a>
</g>
</g>
<!-- Node19&#45;&gt;Node20 -->
<g id="edge26_Node000019_Node000020" class="edge">
<title>Node19&#45;&gt;Node20</title>
<g id="a_edge26_Node000019_Node000020"><a xlink:title=" ">
<path fill="none" stroke="#63b8ff" d="M753.65,-490.96C744.21,-490.96 734.61,-490.96 725.27,-490.96"/>
<polygon fill="#63b8ff" stroke="#63b8ff" points="753.81,-494.46 763.81,-490.96 753.81,-487.46 753.81,-494.46"/>
</a>
</g>
</g>
<!-- Node20&#45;&gt;Node8 -->
<g id="edge27_Node000020_Node000008" class="edge">
<title>Node20&#45;&gt;Node8</title>
<g id="a_edge27_Node000020_Node000008"><a xlink:title=" ">
<path fill="none" stroke="#63b8ff" d="M569.95,-491.43C554.61,-491.52 539.04,-491.6 525.17,-491.68"/>
<polygon fill="#63b8ff" stroke="#63b8ff" points="569.99,-494.93 579.97,-491.37 569.95,-487.93 569.99,-494.93"/>
</a>
</g>
</g>
<!-- Node20&#45;&gt;Node17 -->
<g id="edge28_Node000020_Node000017" class="edge">
<title>Node20&#45;&gt;Node17</title>
<g id="a_edge28_Node000020_Node000017"><a xlink:title=" ">
<path fill="none" stroke="#63b8ff" d="M595.28,-479.33C572.11,-474.53 545.59,-469.05 523.59,-464.49"/>
<polygon fill="#63b8ff" stroke="#63b8ff" points="594.83,-482.81 605.33,-481.41 596.24,-475.95 594.83,-482.81"/>
</a>
</g>
</g>
<!-- Node21&#45;&gt;Node9 -->
<g id="edge33_Node000021_Node000009" class="edge">
<title>Node21&#45;&gt;Node9</title>
<g id="a_edge33_Node000021_Node000009"><a xlink:title=" ">
<path fill="none" stroke="#63b8ff" d="M974.14,-405.94C841.09,-400.46 474.44,-385.35 356.54,-380.49"/>
<polygon fill="#63b8ff" stroke="#63b8ff" points="974.29,-409.45 984.43,-406.37 974.58,-402.46 974.29,-409.45"/>
</a>
</g>
</g>
<!-- Node23 -->
<g id="Node000023" class="node">
<title>Node23</title>
<g id="a_Node000023"><a xlink:href="main_8c.html#a59ccabe25c63661e6e66b44209b0f162" target="_top" xlink:title=" ">
<polygon fill="white" stroke="#666666" points="682.5,-200.46 622.5,-200.46 622.5,-181.46 682.5,-181.46 682.5,-200.46"/>
<text text-anchor="middle" x="652.5" y="-188.46" font-family="Helvetica,sans-Serif" font-size="10.00">FInternal</text>
</a>
</g>
</g>
<!-- Node22&#45;&gt;Node23 -->
<g id="edge35_Node000022_Node000023" class="edge">
<title>Node22&#45;&gt;Node23</title>
<g id="a_edge35_Node000022_Node000023"><a xlink:title=" ">
<path fill="none" stroke="#63b8ff" d="M982.76,-203.43C907.74,-200.59 748.22,-194.55 682.61,-192.06"/>
<polygon fill="#63b8ff" stroke="#63b8ff" points="982.64,-206.93 992.76,-203.81 982.9,-199.94 982.64,-206.93"/>
</a>
</g>
</g>
<!-- Node23&#45;&gt;Node10 -->
<g id="edge37_Node000023_Node000010" class="edge">
<title>Node23&#45;&gt;Node10</title>
<g id="a_edge37_Node000023_Node000010"><a xlink:title=" ">
<path fill="none" stroke="#63b8ff" d="M616.71,-204.09C522.01,-239.84 261.26,-338.28 178.83,-369.4"/>
<polygon fill="#63b8ff" stroke="#63b8ff" points="618,-207.35 626.12,-200.54 615.53,-200.8 618,-207.35"/>
</a>
</g>
</g>
<!-- Node24 -->
<g id="Node000024" class="node">
<title>Node24</title>
<g id="a_Node000024"><a xlink:href="main_8c.html#aac0575d69dba68d64a6c0f65c2d8f635" target="_top" xlink:title=" ">
<polygon fill="white" stroke="#666666" points="503.5,-126.46 449.5,-126.46 449.5,-107.46 503.5,-107.46 503.5,-126.46"/>
<text text-anchor="middle" x="476.5" y="-114.46" font-family="Helvetica,sans-Serif" font-size="10.00">Contact</text>
</a>
</g>
</g>
<!-- Node23&#45;&gt;Node24 -->
<g id="edge36_Node000023_Node000024" class="edge">
<title>Node23&#45;&gt;Node24</title>
<g id="a_edge36_Node000023_Node000024"><a xlink:title=" ">
<path fill="none" stroke="#63b8ff" d="M626.89,-176.18C605.55,-163.85 573.54,-146.49 544,-134.96 531.08,-129.91 516.21,-125.74 503.82,-122.69"/>
<polygon fill="#63b8ff" stroke="#63b8ff" points="625.22,-179.26 635.62,-181.29 628.76,-173.22 625.22,-179.26"/>
</a>
</g>
</g>
<!-- Node25 -->
<g id="Node000025" class="node">
<title>Node25</title>
<g id="a_Node000025"><a xlink:href="main_8c.html#ad3a8e8f5b2e1871122784b2cd3dc1c8c" target="_top" xlink:title=" ">
<polygon fill="white" stroke="#666666" points="504,-163.46 449,-163.46 449,-144.46 504,-144.46 504,-163.46"/>
<text text-anchor="middle" x="476.5" y="-151.46" font-family="Helvetica,sans-Serif" font-size="10.00">FormRK</text>
</a>
</g>
</g>
<!-- Node23&#45;&gt;Node25 -->
<g id="edge38_Node000023_Node000025" class="edge">
<title>Node23&#45;&gt;Node25</title>
<g id="a_edge38_Node000023_Node000025"><a xlink:title=" ">
<path fill="none" stroke="#63b8ff" d="M612.17,-182.59C579.18,-175.58 532.96,-165.75 504.15,-159.62"/>
<polygon fill="#63b8ff" stroke="#63b8ff" points="611.87,-186.11 622.38,-184.77 613.32,-179.26 611.87,-186.11"/>
</a>
</g>
</g>
<!-- Node26 -->
<g id="Node000026" class="node">
<title>Node26</title>
<g id="a_Node000026"><a xlink:href="inverse_8c.html#a8ccb34384a9c46d52bb413dcd177c67b" target="_top" xlink:title=" ">
<polygon fill="white" stroke="#666666" points="516.5,-200.46 436.5,-200.46 436.5,-181.46 516.5,-181.46 516.5,-200.46"/>
<text text-anchor="middle" x="476.5" y="-188.46" font-family="Helvetica,sans-Serif" font-size="10.00">ResidualCalc</text>
</a>
</g>
</g>
<!-- Node23&#45;&gt;Node26 -->
<g id="edge40_Node000023_Node000026" class="edge">
<title>Node23&#45;&gt;Node26</title>
<g id="a_edge40_Node000023_Node000026"><a xlink:title=" ">
<path fill="none" stroke="#63b8ff" d="M612.33,-190.96C583.72,-190.96 545.09,-190.96 516.52,-190.96"/>
<polygon fill="#63b8ff" stroke="#63b8ff" points="612.38,-194.46 622.38,-190.96 612.38,-187.46 612.38,-194.46"/>
</a>
</g>
</g>
<!-- Node25&#45;&gt;Node6 -->
<g id="edge39_Node000025_Node000006" class="edge">
<title>Node25&#45;&gt;Node6</title>
<g id="a_edge39_Node000025_Node000006"><a xlink:title=" ">
<path fill="none" stroke="#63b8ff" d="M438.86,-149.33C428.31,-146.54 417.4,-142.08 409,-134.96 380.49,-110.78 404.58,-78.95 373,-58.96 261.83,11.39 176.9,26.64 77,-58.96 22.32,-105.82 21.05,-355.31 21.4,-407.42"/>
<polygon fill="#63b8ff" stroke="#63b8ff" points="438.25,-152.77 448.77,-151.52 439.76,-145.94 438.25,-152.77"/>
</a>
</g>
</g>
<!-- Node27 -->
<g id="Node000027" class="node">
<title>Node27</title>
<g id="a_Node000027"><a xlink:href="mlp_8c.html#a95587eada79194109e216fe2d1536aa5" target="_top" xlink:title=" ">
<polygon fill="white" stroke="#666666" points="354,-87.46 283,-87.46 283,-68.46 354,-68.46 354,-87.46"/>
<text text-anchor="middle" x="318.5" y="-75.46" font-family="Helvetica,sans-Serif" font-size="10.00">compute_R</text>
</a>
</g>
</g>
<!-- Node26&#45;&gt;Node27 -->
<g id="edge41_Node000026_Node000027" class="edge">
<title>Node26&#45;&gt;Node27</title>
<g id="a_edge41_Node000026_Node000027"><a xlink:title=" ">
<path fill="none" stroke="#63b8ff" d="M426.82,-182.16C420.4,-179.58 414.24,-176.26 409,-171.96 381.95,-149.77 398.39,-126.03 373,-101.96 366.57,-95.87 358.34,-91.14 350.26,-87.56"/>
<polygon fill="#63b8ff" stroke="#63b8ff" points="425.75,-185.49 436.34,-185.42 428.01,-178.87 425.75,-185.49"/>
</a>
</g>
</g>
<!-- Node29 -->
<g id="Node000029" class="node">
<title>Node29</title>
<g id="a_Node000029"><a xlink:href="inverse_8c.html#a5a46d0c408c2a4905101ca00ed320825" target="_top" xlink:title=" ">
<polygon fill="white" stroke="#666666" points="359,-163.46 278,-163.46 278,-144.46 359,-144.46 359,-163.46"/>
<text text-anchor="middle" x="318.5" y="-151.46" font-family="Helvetica,sans-Serif" font-size="10.00">FungJacobian</text>
</a>
</g>
</g>
<!-- Node26&#45;&gt;Node29 -->
<g id="edge43_Node000026_Node000029" class="edge">
<title>Node26&#45;&gt;Node29</title>
<g id="a_edge43_Node000026_Node000029"><a xlink:title=" ">
<path fill="none" stroke="#63b8ff" d="M426.15,-179.25C404.53,-174.13 379.5,-168.19 359.12,-163.36"/>
<polygon fill="#63b8ff" stroke="#63b8ff" points="425.6,-182.72 436.13,-181.62 427.21,-175.91 425.6,-182.72"/>
</a>
</g>
</g>
<!-- Node30 -->
<g id="Node000030" class="node">
<title>Node30</title>
<g id="a_Node000030"><a xlink:href="inverse_8c.html#a63c0a7ac76584f0dab82764698b5d878" target="_top" xlink:title=" ">
<polygon fill="white" stroke="#666666" points="183.5,-218.46 121.5,-218.46 121.5,-199.46 183.5,-199.46 183.5,-218.46"/>
<text text-anchor="middle" x="152.5" y="-206.46" font-family="Helvetica,sans-Serif" font-size="10.00">InvSolver</text>
</a>
</g>
</g>
<!-- Node26&#45;&gt;Node30 -->
<g id="edge50_Node000026_Node000030" class="edge">
<title>Node26&#45;&gt;Node30</title>
<g id="a_edge50_Node000026_Node000030"><a xlink:title=" ">
<path fill="none" stroke="#63b8ff" d="M426.73,-180.24C420.55,-177.97 414.48,-175.23 409,-171.96 389.31,-160.19 394.14,-143.88 373,-134.96 328.37,-116.11 310.35,-120.87 264,-134.96 222.03,-147.71 181.49,-182.3 163.38,-199.28"/>
<polygon fill="#63b8ff" stroke="#63b8ff" points="425.87,-183.64 436.46,-183.46 428.06,-177 425.87,-183.64"/>
</a>
</g>
</g>
<!-- Node31 -->
<g id="Node000031" class="node">
<title>Node31</title>
<g id="a_Node000031"><a xlink:href="inverse_8c.html#a6dcb60291ae68ad8fa0ccea39658279a" target="_top" xlink:title=" ">
<polygon fill="white" stroke="#666666" points="367.5,-274.46 269.5,-274.46 269.5,-255.46 367.5,-255.46 367.5,-274.46"/>
<text text-anchor="middle" x="318.5" y="-262.46" font-family="Helvetica,sans-Serif" font-size="10.00">FungUniJacobian</text>
</a>
</g>
</g>
<!-- Node26&#45;&gt;Node31 -->
<g id="edge46_Node000026_Node000031" class="edge">
<title>Node26&#45;&gt;Node31</title>
<g id="a_edge46_Node000026_Node000031"><a xlink:title=" ">
<path fill="none" stroke="#63b8ff" d="M450.88,-205.54C430.43,-217.3 400.38,-233.83 373,-245.96 365.34,-249.35 356.87,-252.58 348.97,-255.39"/>
<polygon fill="#63b8ff" stroke="#63b8ff" points="452.66,-208.55 459.55,-200.5 449.14,-202.49 452.66,-208.55"/>
</a>
</g>
</g>
<!-- Node32 -->
<g id="Node000032" class="node">
<title>Node32</title>
<g id="a_Node000032"><a xlink:href="inverse_8c.html#ad779d411aa186efcdfb8e192c52d04b0" target="_top" xlink:title=" ">
<polygon fill="white" stroke="#666666" points="373,-237.46 264,-237.46 264,-218.46 373,-218.46 373,-237.46"/>
<text text-anchor="middle" x="318.5" y="-225.46" font-family="Helvetica,sans-Serif" font-size="10.00">grad_R_wrt_E_field</text>
</a>
</g>
</g>
<!-- Node26&#45;&gt;Node32 -->
<g id="edge48_Node000026_Node000032" class="edge">
<title>Node26&#45;&gt;Node32</title>
<g id="a_edge48_Node000026_Node000032"><a xlink:title=" ">
<path fill="none" stroke="#63b8ff" d="M426.23,-202.64C404.78,-207.73 379.97,-213.62 359.67,-218.43"/>
<polygon fill="#63b8ff" stroke="#63b8ff" points="427.21,-206.01 436.13,-200.3 425.6,-199.2 427.21,-206.01"/>
</a>
</g>
</g>
<!-- Node33 -->
<g id="Node000033" class="node">
<title>Node33</title>
<g id="a_Node000033"><a xlink:href="inverse_8c.html#a9c6b1db7cc8e3f7771140e7920429ab3" target="_top" xlink:title=" ">
<polygon fill="white" stroke="#666666" points="347.5,-200.46 289.5,-200.46 289.5,-181.46 347.5,-181.46 347.5,-200.46"/>
<text text-anchor="middle" x="318.5" y="-188.46" font-family="Helvetica,sans-Serif" font-size="10.00">Jacobian</text>
</a>
</g>
</g>
<!-- Node26&#45;&gt;Node33 -->
<g id="edge51_Node000026_Node000033" class="edge">
<title>Node26&#45;&gt;Node33</title>
<g id="a_edge51_Node000026_Node000033"><a xlink:title=" ">
<path fill="none" stroke="#63b8ff" d="M426.1,-190.96C400.17,-190.96 369.35,-190.96 347.54,-190.96"/>
<polygon fill="#63b8ff" stroke="#63b8ff" points="426.13,-194.46 436.13,-190.96 426.13,-187.46 426.13,-194.46"/>
</a>
</g>
</g>
<!-- Node28 -->
<g id="Node000028" class="node">
<title>Node28</title>
<g id="a_Node000028"><a xlink:href="mlp_8c.html#a2aeef94f6b174527c5b7983c25229818" target="_top" xlink:title=" ">
<polygon fill="white" stroke="#666666" points="198.5,-87.46 106.5,-87.46 106.5,-68.46 198.5,-68.46 198.5,-87.46"/>
<text text-anchor="middle" x="152.5" y="-75.46" font-family="Helvetica,sans-Serif" font-size="10.00">backward_pass</text>
</a>
</g>
</g>
<!-- Node27&#45;&gt;Node28 -->
<g id="edge42_Node000027_Node000028" class="edge">
<title>Node27&#45;&gt;Node28</title>
<g id="a_edge42_Node000027_Node000028"><a xlink:title=" ">
<path fill="none" stroke="#63b8ff" d="M272.52,-77.96C249.5,-77.96 221.55,-77.96 198.52,-77.96"/>
<polygon fill="#63b8ff" stroke="#63b8ff" points="272.72,-81.46 282.72,-77.96 272.72,-74.46 272.72,-81.46"/>
</a>
</g>
</g>
<!-- Node29&#45;&gt;Node30 -->
<g id="edge44_Node000029_Node000030" class="edge">
<title>Node29&#45;&gt;Node30</title>
<g id="a_edge44_Node000029_Node000030"><a xlink:title=" ">
<path fill="none" stroke="#63b8ff" d="M279.3,-166.77C249.57,-176.74 208.96,-190.36 182.01,-199.4"/>
<polygon fill="#63b8ff" stroke="#63b8ff" points="280.57,-170.04 288.93,-163.54 278.34,-163.4 280.57,-170.04"/>
</a>
</g>
</g>
<!-- Node30&#45;&gt;Node6 -->
<g id="edge45_Node000030_Node000006" class="edge">
<title>Node30&#45;&gt;Node6</title>
<g id="a_edge45_Node000030_Node000006"><a xlink:title=" ">
<path fill="none" stroke="#63b8ff" d="M139.89,-227.21C125.19,-250.36 99.09,-291.55 77,-326.96 58.83,-356.08 37.59,-390.68 27.46,-407.22"/>
<polygon fill="#63b8ff" stroke="#63b8ff" points="142.87,-229.04 145.28,-218.73 136.97,-225.29 142.87,-229.04"/>
</a>
</g>
</g>
<!-- Node31&#45;&gt;Node30 -->
<g id="edge47_Node000031_Node000030" class="edge">
<title>Node31&#45;&gt;Node30</title>
<g id="a_edge47_Node000031_Node000030"><a xlink:title=" ">
<path fill="none" stroke="#63b8ff" d="M279.6,-252.02C249.58,-241.77 208.35,-227.69 181.32,-218.46"/>
<polygon fill="#63b8ff" stroke="#63b8ff" points="278.71,-255.41 289.31,-255.33 280.97,-248.79 278.71,-255.41"/>
</a>
</g>
</g>
<!-- Node32&#45;&gt;Node30 -->
<g id="edge49_Node000032_Node000030" class="edge">
<title>Node32&#45;&gt;Node30</title>
<g id="a_edge49_Node000032_Node000030"><a xlink:title=" ">
<path fill="none" stroke="#63b8ff" d="M253.67,-220.56C229.65,-217.78 203.44,-214.74 183.85,-212.48"/>
<polygon fill="#63b8ff" stroke="#63b8ff" points="253.46,-224.06 263.8,-221.74 254.27,-217.11 253.46,-224.06"/>
</a>
</g>
</g>
<!-- Node33&#45;&gt;Node30 -->
<g id="edge52_Node000033_Node000030" class="edge">
<title>Node33&#45;&gt;Node30</title>
<g id="a_edge52_Node000033_Node000030"><a xlink:title=" ">
<path fill="none" stroke="#63b8ff" d="M279.08,-195.18C249.92,-198.38 210.41,-202.71 183.54,-205.66"/>
<polygon fill="#63b8ff" stroke="#63b8ff" points="279.75,-198.62 289.31,-194.05 278.99,-191.66 279.75,-198.62"/>
</a>
</g>
</g>
<!-- Node34&#45;&gt;Node4 -->
<g id="edge54_Node000034_Node000004" class="edge">
<title>Node34&#45;&gt;Node4</title>
<g id="a_edge54_Node000034_Node000004"><a xlink:title=" ">
<path fill="none" stroke="#63b8ff" d="M774.11,-333.78C755.23,-331.46 734.24,-328.88 715.14,-326.53"/>
<polygon fill="#63b8ff" stroke="#63b8ff" points="773.71,-337.26 784.06,-335 774.56,-330.31 773.71,-337.26"/>
</a>
</g>
</g>
<!-- Node38 -->
<g id="Node000038" class="node">
<title>Node38</title>
<g id="a_Node000038"><a xlink:href="bending_8c.html#a2cd7ef6a41a0e3d6757965f9336e457a" target="_top" xlink:title=" ">
<polygon fill="white" stroke="#666666" points="864,-688.46 803,-688.46 803,-669.46 864,-669.46 864,-688.46"/>
<text text-anchor="middle" x="833.5" y="-676.46" font-family="Helvetica,sans-Serif" font-size="10.00">InitGhost</text>
</a>
</g>
</g>
<!-- Node37&#45;&gt;Node38 -->
<g id="edge58_Node000037_Node000038" class="edge">
<title>Node37&#45;&gt;Node38</title>
<g id="a_edge58_Node000037_Node000038"><a xlink:title=" ">
<path fill="none" stroke="#63b8ff" d="M993.01,-678.96C957.7,-678.96 899.4,-678.96 864.21,-678.96"/>
<polygon fill="#63b8ff" stroke="#63b8ff" points="993.18,-682.46 1003.18,-678.96 993.18,-675.46 993.18,-682.46"/>
</a>
</g>
</g>
<!-- Node39 -->
<g id="Node000039" class="node">
<title>Node39</title>
<g id="a_Node000039"><a xlink:href="main_8c.html#a636a8f7f82b7bc4dabb749e9c7fe75a9" target="_top" xlink:title=" ">
<polygon fill="white" stroke="#666666" points="168.5,-678.46 136.5,-678.46 136.5,-659.46 168.5,-659.46 168.5,-678.46"/>
<text text-anchor="middle" x="152.5" y="-666.46" font-family="Helvetica,sans-Serif" font-size="10.00">Init</text>
</a>
</g>
</g>
<!-- Node38&#45;&gt;Node39 -->
<g id="edge59_Node000038_Node000039" class="edge">
<title>Node38&#45;&gt;Node39</title>
<g id="a_edge59_Node000038_Node000039"><a xlink:title=" ">
<path fill="none" stroke="#63b8ff" d="M792.57,-678.37C662.18,-676.45 252.5,-670.42 168.6,-669.18"/>
<polygon fill="#63b8ff" stroke="#63b8ff" points="792.84,-681.87 802.89,-678.52 792.94,-674.88 792.84,-681.87"/>
</a>
</g>
</g>
<!-- Node39&#45;&gt;Node6 -->
<g id="edge60_Node000039_Node000006" class="edge">
<title>Node39&#45;&gt;Node6</title>
<g id="a_edge60_Node000039_Node000006"><a xlink:title=" ">
<path fill="none" stroke="#63b8ff" d="M126.33,-665.6C110.03,-662.12 89.58,-655.1 77,-640.96 19.48,-576.3 19.51,-461.28 20.93,-426.92"/>
<polygon fill="#63b8ff" stroke="#63b8ff" points="125.84,-669.07 136.31,-667.41 127.09,-662.18 125.84,-669.07"/>
</a>
</g>
</g>
</g>
</svg>
