<?xml version="1.0" encoding="UTF-8" standalone="no"?>
<!DOCTYPE svg PUBLIC "-//W3C//DTD SVG 1.1//EN"
 "http://www.w3.org/Graphics/SVG/1.1/DTD/svg11.dtd">
<!-- Generated by graphviz version 2.43.0 (0)
 -->
<!-- Title: math.h Pages: 1 -->
<svg width="2685pt" height="269pt"
 viewBox="0.00 0.00 2685.00 269.45" xmlns="http://www.w3.org/2000/svg" xmlns:xlink="http://www.w3.org/1999/xlink">
<g id="graph0" class="graph" transform="scale(1 1) rotate(0) translate(4 265.45)">
<title>math.h</title>
<!-- Node1 -->
<g id="Node000001" class="node">
<title>Node1</title>
<g id="a_Node000001"><a xlink:title=" ">
<polygon fill="#999999" stroke="#666666" points="1411.5,-261 1360.5,-261 1360.5,-242 1411.5,-242 1411.5,-261"/>
<text text-anchor="middle" x="1386" y="-249" font-family="Helvetica,sans-Serif" font-size="10.00">math.h</text>
</a>
</g>
</g>
<!-- Node1&#45;&gt;Node1 -->
<g id="edge60_Node000001_Node000001" class="edge">
<title>Node1&#45;&gt;Node1</title>
<g id="a_edge60_Node000001_Node000001"><a xlink:title=" ">
<path fill="none" stroke="#63b8ff" d="M1416.67,-261.45C1424.04,-260.67 1429.5,-257.36 1429.5,-251.5 1429.5,-243.17 1418.45,-239.98 1406.59,-241.93"/>
<polygon fill="#63b8ff" stroke="#63b8ff" points="1416.71,-257.95 1406.59,-261.07 1416.45,-264.94 1416.71,-257.95"/>
</a>
</g>
</g>
<!-- Node2 -->
<g id="Node000002" class="node">
<title>Node2</title>
<g id="a_Node000002"><a xlink:href="act__variables_8h.html" target="_top" xlink:title="Data containers for active&#45;strain kinematics, stress, and material data.">
<polygon fill="white" stroke="#666666" points="1431.5,-206 1340.5,-206 1340.5,-187 1431.5,-187 1431.5,-206"/>
<text text-anchor="middle" x="1386" y="-194" font-family="Helvetica,sans-Serif" font-size="10.00">act_variables.h</text>
</a>
</g>
</g>
<!-- Node1&#45;&gt;Node2 -->
<g id="edge1_Node000001_Node000002" class="edge">
<title>Node1&#45;&gt;Node2</title>
<g id="a_edge1_Node000001_Node000002"><a xlink:title=" ">
<path fill="none" stroke="#63b8ff" d="M1386,-231.66C1386,-222.93 1386,-212.99 1386,-206.09"/>
<polygon fill="#63b8ff" stroke="#63b8ff" points="1382.5,-231.75 1386,-241.75 1389.5,-231.75 1382.5,-231.75"/>
</a>
</g>
</g>
<!-- Node3 -->
<g id="Node000003" class="node">
<title>Node3</title>
<g id="a_Node000003"><a xlink:href="variables_8h.html" target="_top" xlink:title=" ">
<polygon fill="white" stroke="#666666" points="1347.5,-151 1276.5,-151 1276.5,-132 1347.5,-132 1347.5,-151"/>
<text text-anchor="middle" x="1312" y="-139" font-family="Helvetica,sans-Serif" font-size="10.00">variables.h</text>
</a>
</g>
</g>
<!-- Node1&#45;&gt;Node3 -->
<g id="edge63_Node000001_Node000003" class="edge">
<title>Node1&#45;&gt;Node3</title>
<g id="a_edge63_Node000001_Node000003"><a xlink:title=" ">
<path fill="none" stroke="#63b8ff" d="M1362.42,-236.21C1351.46,-228.5 1339.1,-218.07 1331,-206 1319.47,-188.8 1314.76,-164.39 1312.98,-151.42"/>
<polygon fill="#63b8ff" stroke="#63b8ff" points="1360.54,-239.16 1370.8,-241.8 1364.42,-233.34 1360.54,-239.16"/>
</a>
</g>
</g>
<!-- Node5 -->
<g id="Node000005" class="node">
<title>Node5</title>
<g id="a_Node000005"><a xlink:href="active__strain_8c.html" target="_top" xlink:title="Implementation of muscle activation on shell elements using the active&#45;strain approach.">
<polygon fill="white" stroke="#666666" points="391,-24.5 303,-24.5 303,-5.5 391,-5.5 391,-24.5"/>
<text text-anchor="middle" x="347" y="-12.5" font-family="Helvetica,sans-Serif" font-size="10.00">active_strain.c</text>
</a>
</g>
</g>
<!-- Node1&#45;&gt;Node5 -->
<g id="edge53_Node000001_Node000005" class="edge">
<title>Node1&#45;&gt;Node5</title>
<g id="a_edge53_Node000001_Node000005"><a xlink:title=" ">
<path fill="none" stroke="#63b8ff" d="M1350.22,-250.77C1241.99,-251.09 908.87,-248.3 637,-206 441.23,-175.54 326.59,-252.43 205,-96 174.87,-57.24 250.81,-34.27 302.88,-23.49"/>
<polygon fill="#63b8ff" stroke="#63b8ff" points="1350.28,-254.27 1360.27,-250.73 1350.25,-247.27 1350.28,-254.27"/>
</a>
</g>
</g>
<!-- Node13 -->
<g id="Node000013" class="node">
<title>Node13</title>
<g id="a_Node000013"><a xlink:href="main_8c.html" target="_top" xlink:title=" ">
<polygon fill="white" stroke="#666666" points="2023,-24.5 1973,-24.5 1973,-5.5 2023,-5.5 2023,-24.5"/>
<text text-anchor="middle" x="1998" y="-12.5" font-family="Helvetica,sans-Serif" font-size="10.00">main.c</text>
</a>
</g>
</g>
<!-- Node1&#45;&gt;Node13 -->
<g id="edge55_Node000001_Node000013" class="edge">
<title>Node1&#45;&gt;Node13</title>
<g id="a_edge55_Node000001_Node000013"><a xlink:title=" ">
<path fill="none" stroke="#63b8ff" d="M1421.77,-247.66C1546.39,-236.97 1958.09,-194.6 2036,-96 2054.11,-73.08 2024.41,-40.11 2007.89,-24.64"/>
<polygon fill="#63b8ff" stroke="#63b8ff" points="1421.29,-244.19 1411.62,-248.52 1421.88,-251.17 1421.29,-244.19"/>
</a>
</g>
</g>
<!-- Node26 -->
<g id="Node000026" class="node">
<title>Node26</title>
<g id="a_Node000026"><a xlink:href="lv__geometry_8c.html" target="_top" xlink:title=" ">
<polygon fill="white" stroke="#666666" points="494.5,-24.5 409.5,-24.5 409.5,-5.5 494.5,-5.5 494.5,-24.5"/>
<text text-anchor="middle" x="452" y="-12.5" font-family="Helvetica,sans-Serif" font-size="10.00">lv_geometry.c</text>
</a>
</g>
</g>
<!-- Node1&#45;&gt;Node26 -->
<g id="edge54_Node000001_Node000026" class="edge">
<title>Node1&#45;&gt;Node26</title>
<g id="a_edge54_Node000001_Node000026"><a xlink:title=" ">
<path fill="none" stroke="#63b8ff" d="M1350.23,-250.51C1192.47,-249.72 561.36,-237.63 441,-96 423.57,-75.49 438.47,-40.74 447.01,-24.65"/>
<polygon fill="#63b8ff" stroke="#63b8ff" points="1350.33,-254.01 1360.34,-250.55 1350.36,-247.01 1350.33,-254.01"/>
</a>
</g>
</g>
<!-- Node28 -->
<g id="Node000028" class="node">
<title>Node28</title>
<g id="a_Node000028"><a xlink:href="manufactured__active__strain_8c.html" target="_top" xlink:title=" ">
<polygon fill="white" stroke="#666666" points="120,-30 0,-30 0,0 120,0 120,-30"/>
<text text-anchor="start" x="8" y="-18" font-family="Helvetica,sans-Serif" font-size="10.00">manufactured_active</text>
<text text-anchor="middle" x="60" y="-7" font-family="Helvetica,sans-Serif" font-size="10.00">_strain.c</text>
</a>
</g>
</g>
<!-- Node1&#45;&gt;Node28 -->
<g id="edge56_Node000001_Node000028" class="edge">
<title>Node1&#45;&gt;Node28</title>
<g id="a_edge56_Node000001_Node000028"><a xlink:title=" ">
<path fill="none" stroke="#63b8ff" d="M1350.2,-250.36C1170.64,-249.49 372.54,-243.53 269,-206 173.34,-171.32 95.44,-68.03 69.36,-30.14"/>
<polygon fill="#63b8ff" stroke="#63b8ff" points="1350.41,-253.86 1360.42,-250.41 1350.44,-246.86 1350.41,-253.86"/>
</a>
</g>
</g>
<!-- Node30 -->
<g id="Node000030" class="node">
<title>Node30</title>
<g id="a_Node000030"><a xlink:href="manufactured__active__strain__b_8c.html" target="_top" xlink:title=" ">
<polygon fill="white" stroke="#666666" points="258,-30 138,-30 138,0 258,0 258,-30"/>
<text text-anchor="start" x="146" y="-18" font-family="Helvetica,sans-Serif" font-size="10.00">manufactured_active</text>
<text text-anchor="middle" x="198" y="-7" font-family="Helvetica,sans-Serif" font-size="10.00">_strain_b.c</text>
</a>
</g>
</g>
<!-- Node1&#45;&gt;Node30 -->
<g id="edge57_Node000001_Node000030" class="edge">
<title>Node1&#45;&gt;Node30</title>
<g id="a_edge57_Node000001_Node000030"><a xlink:title=" ">
<path fill="none" stroke="#63b8ff" d="M1349.82,-250.06C1175.18,-247.79 423.76,-236.34 324,-206 251.91,-184.08 217.87,-167.79 195,-96 187.95,-73.88 191.38,-46.58 194.61,-30.27"/>
<polygon fill="#63b8ff" stroke="#63b8ff" points="1349.97,-253.56 1360.02,-250.19 1350.06,-246.56 1349.97,-253.56"/>
</a>
</g>
</g>
<!-- Node31 -->
<g id="Node000031" class="node">
<title>Node31</title>
<g id="a_Node000031"><a xlink:href="material_8c.html" target="_top" xlink:title=" ">
<polygon fill="white" stroke="#666666" points="2415,-90.5 2349,-90.5 2349,-71.5 2415,-71.5 2415,-90.5"/>
<text text-anchor="middle" x="2382" y="-78.5" font-family="Helvetica,sans-Serif" font-size="10.00">material.c</text>
</a>
</g>
</g>
<!-- Node1&#45;&gt;Node31 -->
<g id="edge58_Node000001_Node000031" class="edge">
<title>Node1&#45;&gt;Node31</title>
<g id="a_edge58_Node000001_Node000031"><a xlink:title=" ">
<path fill="none" stroke="#63b8ff" d="M1422,-249.83C1546.9,-247.24 1961.03,-236.52 2090,-206 2201.48,-179.62 2324.57,-114.25 2366.81,-90.66"/>
<polygon fill="#63b8ff" stroke="#63b8ff" points="1421.75,-246.33 1411.83,-250.03 1421.89,-253.33 1421.75,-246.33"/>
</a>
</g>
</g>
<!-- Node34 -->
<g id="Node000034" class="node">
<title>Node34</title>
<g id="a_Node000034"><a xlink:href="math_8c.html" target="_top" xlink:title=" ">
<polygon fill="white" stroke="#666666" points="2483,-90.5 2433,-90.5 2433,-71.5 2483,-71.5 2483,-90.5"/>
<text text-anchor="middle" x="2458" y="-78.5" font-family="Helvetica,sans-Serif" font-size="10.00">math.c</text>
</a>
</g>
</g>
<!-- Node1&#45;&gt;Node34 -->
<g id="edge59_Node000001_Node000034" class="edge">
<title>Node1&#45;&gt;Node34</title>
<g id="a_edge59_Node000001_Node000034"><a xlink:title=" ">
<path fill="none" stroke="#63b8ff" d="M1421.99,-249.79C1551.69,-247.01 1994.75,-235.53 2133,-206 2256.14,-179.7 2394.28,-113.99 2441.3,-90.51"/>
<polygon fill="#63b8ff" stroke="#63b8ff" points="1421.74,-246.3 1411.81,-250 1421.88,-253.29 1421.74,-246.3"/>
</a>
</g>
</g>
<!-- Node36 -->
<g id="Node000036" class="node">
<title>Node36</title>
<g id="a_Node000036"><a xlink:href="mlp_8c.html" target="_top" xlink:title=" ">
<polygon fill="white" stroke="#666666" points="2545,-90.5 2501,-90.5 2501,-71.5 2545,-71.5 2545,-90.5"/>
<text text-anchor="middle" x="2523" y="-78.5" font-family="Helvetica,sans-Serif" font-size="10.00">mlp.c</text>
</a>
</g>
</g>
<!-- Node1&#45;&gt;Node36 -->
<g id="edge61_Node000001_Node000036" class="edge">
<title>Node1&#45;&gt;Node36</title>
<g id="a_edge61_Node000001_Node000036"><a xlink:title=" ">
<path fill="none" stroke="#63b8ff" d="M1421.94,-249.78C1556.59,-246.9 2030.92,-234.88 2179,-206 2308.92,-180.66 2455.4,-114.34 2505.28,-90.61"/>
<polygon fill="#63b8ff" stroke="#63b8ff" points="1421.69,-246.29 1411.77,-250 1421.84,-253.29 1421.69,-246.29"/>
</a>
</g>
</g>
<!-- Node37 -->
<g id="Node000037" class="node">
<title>Node37</title>
<g id="a_Node000037"><a xlink:href="muscle__activation_8c.html" target="_top" xlink:title="Implementation of muscle activation on shell element using active&#45;strain, active stress approaches.">
<polygon fill="white" stroke="#666666" points="2677,-90.5 2563,-90.5 2563,-71.5 2677,-71.5 2677,-90.5"/>
<text text-anchor="middle" x="2620" y="-78.5" font-family="Helvetica,sans-Serif" font-size="10.00">muscle_activation.c</text>
</a>
</g>
</g>
<!-- Node1&#45;&gt;Node37 -->
<g id="edge62_Node000001_Node000037" class="edge">
<title>Node1&#45;&gt;Node37</title>
<g id="a_edge62_Node000001_Node000037"><a xlink:title=" ">
<path fill="none" stroke="#63b8ff" d="M1421.97,-249.83C1562.15,-247.03 2072.02,-235.03 2231,-206 2376.04,-179.52 2542.19,-114.21 2599.4,-90.65"/>
<polygon fill="#63b8ff" stroke="#63b8ff" points="1421.7,-246.33 1411.77,-250.03 1421.84,-253.33 1421.7,-246.33"/>
</a>
</g>
</g>
<!-- Node2&#45;&gt;Node3 -->
<g id="edge2_Node000002_Node000003" class="edge">
<title>Node2&#45;&gt;Node3</title>
<g id="a_edge2_Node000002_Node000003"><a xlink:title=" ">
<path fill="none" stroke="#63b8ff" d="M1365.97,-181.15C1352.59,-171.57 1335.44,-159.29 1324.11,-151.17"/>
<polygon fill="#63b8ff" stroke="#63b8ff" points="1363.94,-184.01 1374.11,-186.98 1368.02,-178.32 1363.94,-184.01"/>
</a>
</g>
</g>
<!-- Node4 -->
<g id="Node000004" class="node">
<title>Node4</title>
<g id="a_Node000004"><a xlink:href="PyCaller_8c.html" target="_top" xlink:title=" ">
<polygon fill="white" stroke="#666666" points="1567.5,-90.5 1502.5,-90.5 1502.5,-71.5 1567.5,-71.5 1567.5,-90.5"/>
<text text-anchor="middle" x="1535" y="-78.5" font-family="Helvetica,sans-Serif" font-size="10.00">PyCaller.c</text>
</a>
</g>
</g>
<!-- Node3&#45;&gt;Node4 -->
<g id="edge3_Node000003_Node000004" class="edge">
<title>Node3&#45;&gt;Node4</title>
<g id="a_edge3_Node000003_Node000004"><a xlink:title=" ">
<path fill="none" stroke="#63b8ff" d="M1357.52,-130.38C1394.29,-121.95 1447.25,-109.23 1493,-96 1498.61,-94.38 1504.59,-92.48 1510.23,-90.62"/>
<polygon fill="#63b8ff" stroke="#63b8ff" points="1356.57,-127.01 1347.6,-132.64 1358.13,-133.83 1356.57,-127.01"/>
</a>
</g>
</g>
<!-- Node3&#45;&gt;Node5 -->
<g id="edge4_Node000003_Node000005" class="edge">
<title>Node3&#45;&gt;Node5</title>
<g id="a_edge4_Node000003_Node000005"><a xlink:title=" ">
<path fill="none" stroke="#63b8ff" d="M1266.47,-139.88C1098.29,-137.37 517.89,-126.54 441,-96 401.96,-80.5 367.6,-41.84 353.64,-24.57"/>
<polygon fill="#63b8ff" stroke="#63b8ff" points="1266.43,-143.38 1276.48,-140.03 1266.53,-136.38 1266.43,-143.38"/>
</a>
</g>
</g>
<!-- Node6 -->
<g id="Node000006" class="node">
<title>Node6</title>
<g id="a_Node000006"><a xlink:href="bcs_8c.html" target="_top" xlink:title=" ">
<polygon fill="white" stroke="#666666" points="507.5,-90.5 466.5,-90.5 466.5,-71.5 507.5,-71.5 507.5,-90.5"/>
<text text-anchor="middle" x="487" y="-78.5" font-family="Helvetica,sans-Serif" font-size="10.00">bcs.c</text>
</a>
</g>
</g>
<!-- Node3&#45;&gt;Node6 -->
<g id="edge5_Node000003_Node000006" class="edge">
<title>Node3&#45;&gt;Node6</title>
<g id="a_edge5_Node000003_Node000006"><a xlink:title=" ">
<path fill="none" stroke="#63b8ff" d="M1266.14,-140.21C1119.04,-138.92 660.36,-132.04 517,-96 512.09,-94.77 507.02,-92.73 502.46,-90.58"/>
<polygon fill="#63b8ff" stroke="#63b8ff" points="1266.15,-143.71 1276.18,-140.29 1266.21,-136.71 1266.15,-143.71"/>
</a>
</g>
</g>
<!-- Node7 -->
<g id="Node000007" class="node">
<title>Node7</title>
<g id="a_Node000007"><a xlink:href="bending_8c.html" target="_top" xlink:title=" ">
<polygon fill="white" stroke="#666666" points="590,-90.5 526,-90.5 526,-71.5 590,-71.5 590,-90.5"/>
<text text-anchor="middle" x="558" y="-78.5" font-family="Helvetica,sans-Serif" font-size="10.00">bending.c</text>
</a>
</g>
</g>
<!-- Node3&#45;&gt;Node7 -->
<g id="edge6_Node000003_Node000007" class="edge">
<title>Node3&#45;&gt;Node7</title>
<g id="a_edge6_Node000003_Node000007"><a xlink:title=" ">
<path fill="none" stroke="#63b8ff" d="M1266.03,-139.23C1129.43,-135.21 727.5,-121.47 599,-96 592.51,-94.71 585.63,-92.66 579.41,-90.51"/>
<polygon fill="#63b8ff" stroke="#63b8ff" points="1266.06,-142.73 1276.16,-139.53 1266.26,-135.74 1266.06,-142.73"/>
</a>
</g>
</g>
<!-- Node8 -->
<g id="Node000008" class="node">
<title>Node8</title>
<g id="a_Node000008"><a xlink:href="contact_8c.html" target="_top" xlink:title=" ">
<polygon fill="white" stroke="#666666" points="669.5,-90.5 608.5,-90.5 608.5,-71.5 669.5,-71.5 669.5,-90.5"/>
<text text-anchor="middle" x="639" y="-78.5" font-family="Helvetica,sans-Serif" font-size="10.00">contact.c</text>
</a>
</g>
</g>
<!-- Node3&#45;&gt;Node8 -->
<g id="edge7_Node000003_Node000008" class="edge">
<title>Node3&#45;&gt;Node8</title>
<g id="a_edge7_Node000003_Node000008"><a xlink:title=" ">
<path fill="none" stroke="#63b8ff" d="M1266.05,-138.91C1139.96,-134.29 790.51,-119.67 678,-96 671.95,-94.73 665.56,-92.73 659.74,-90.64"/>
<polygon fill="#63b8ff" stroke="#63b8ff" points="1266.02,-142.41 1276.14,-139.28 1266.28,-135.42 1266.02,-142.41"/>
</a>
</g>
</g>
<!-- Node9 -->
<g id="Node000009" class="node">
<title>Node9</title>
<g id="a_Node000009"><a xlink:href="cuda__bridge_8h.html" target="_top" xlink:title=" ">
<polygon fill="white" stroke="#666666" points="1783.5,-90.5 1698.5,-90.5 1698.5,-71.5 1783.5,-71.5 1783.5,-90.5"/>
<text text-anchor="middle" x="1741" y="-78.5" font-family="Helvetica,sans-Serif" font-size="10.00">cuda_bridge.h</text>
</a>
</g>
</g>
<!-- Node3&#45;&gt;Node9 -->
<g id="edge8_Node000003_Node000009" class="edge">
<title>Node3&#45;&gt;Node9</title>
<g id="a_edge8_Node000003_Node000009"><a xlink:title=" ">
<path fill="none" stroke="#63b8ff" d="M1357.73,-137.35C1429.15,-131.94 1571.31,-119.14 1690,-96 1697.48,-94.54 1705.47,-92.56 1712.85,-90.54"/>
<polygon fill="#63b8ff" stroke="#63b8ff" points="1357.43,-133.87 1347.71,-138.1 1357.95,-140.85 1357.43,-133.87"/>
</a>
</g>
</g>
<!-- Node3&#45;&gt;Node13 -->
<g id="edge37_Node000003_Node000013" class="edge">
<title>Node3&#45;&gt;Node13</title>
<g id="a_edge37_Node000003_Node000013"><a xlink:title=" ">
<path fill="none" stroke="#63b8ff" d="M1357.68,-139.33C1510.62,-135.18 1996.32,-120.16 2019,-96 2037.87,-75.9 2016.62,-40.95 2004.82,-24.73"/>
<polygon fill="#63b8ff" stroke="#63b8ff" points="1357.58,-135.83 1347.68,-139.6 1357.77,-142.83 1357.58,-135.83"/>
</a>
</g>
</g>
<!-- Node14 -->
<g id="Node000014" class="node">
<title>Node14</title>
<g id="a_Node000014"><a xlink:href="cuda__processes_8h.html" target="_top" xlink:title=" ">
<polygon fill="white" stroke="#666666" points="2009.5,-90.5 1906.5,-90.5 1906.5,-71.5 2009.5,-71.5 2009.5,-90.5"/>
<text text-anchor="middle" x="1958" y="-78.5" font-family="Helvetica,sans-Serif" font-size="10.00">cuda_processes.h</text>
</a>
</g>
</g>
<!-- Node3&#45;&gt;Node14 -->
<g id="edge14_Node000003_Node000014" class="edge">
<title>Node3&#45;&gt;Node14</title>
<g id="a_edge14_Node000003_Node000014"><a xlink:title=" ">
<path fill="none" stroke="#63b8ff" d="M1358.09,-139.34C1457.21,-136.32 1697.82,-126.26 1897,-96 1906.13,-94.61 1915.92,-92.6 1924.93,-90.54"/>
<polygon fill="#63b8ff" stroke="#63b8ff" points="1357.72,-135.85 1347.82,-139.64 1357.92,-142.84 1357.72,-135.85"/>
</a>
</g>
</g>
<!-- Node15 -->
<g id="Node000015" class="node">
<title>Node15</title>
<g id="a_Node000015"><a xlink:href="dmplex__geom_8h.html" target="_top" xlink:title=" ">
<polygon fill="white" stroke="#666666" points="1680.5,-90.5 1585.5,-90.5 1585.5,-71.5 1680.5,-71.5 1680.5,-90.5"/>
<text text-anchor="middle" x="1633" y="-78.5" font-family="Helvetica,sans-Serif" font-size="10.00">dmplex_geom.h</text>
</a>
</g>
</g>
<!-- Node3&#45;&gt;Node15 -->
<g id="edge17_Node000003_Node000015" class="edge">
<title>Node3&#45;&gt;Node15</title>
<g id="a_edge17_Node000003_Node000015"><a xlink:title=" ">
<path fill="none" stroke="#63b8ff" d="M1357.84,-133.92C1410.83,-126.06 1500.58,-111.94 1577,-96 1584.75,-94.38 1593.05,-92.43 1600.82,-90.5"/>
<polygon fill="#63b8ff" stroke="#63b8ff" points="1357.13,-130.49 1347.74,-135.41 1358.15,-137.41 1357.13,-130.49"/>
</a>
</g>
</g>
<!-- Node17 -->
<g id="Node000017" class="node">
<title>Node17</title>
<g id="a_Node000017"><a xlink:href="external_8c.html" target="_top" xlink:title=" ">
<polygon fill="white" stroke="#666666" points="752.5,-90.5 687.5,-90.5 687.5,-71.5 752.5,-71.5 752.5,-90.5"/>
<text text-anchor="middle" x="720" y="-78.5" font-family="Helvetica,sans-Serif" font-size="10.00">external.c</text>
</a>
</g>
</g>
<!-- Node3&#45;&gt;Node17 -->
<g id="edge21_Node000003_Node000017" class="edge">
<title>Node3&#45;&gt;Node17</title>
<g id="a_edge21_Node000003_Node000017"><a xlink:title=" ">
<path fill="none" stroke="#63b8ff" d="M1266.3,-140.62C1171.21,-140.04 945.54,-134.33 761,-96 754.67,-94.68 747.96,-92.67 741.85,-90.58"/>
<polygon fill="#63b8ff" stroke="#63b8ff" points="1266.42,-144.12 1276.44,-140.67 1266.45,-137.12 1266.42,-144.12"/>
</a>
</g>
</g>
<!-- Node18 -->
<g id="Node000018" class="node">
<title>Node18</title>
<g id="a_Node000018"><a xlink:href="globals_8h.html" target="_top" xlink:title=" ">
<polygon fill="white" stroke="#666666" points="831.5,-90.5 770.5,-90.5 770.5,-71.5 831.5,-71.5 831.5,-90.5"/>
<text text-anchor="middle" x="801" y="-78.5" font-family="Helvetica,sans-Serif" font-size="10.00">globals.h</text>
</a>
</g>
</g>
<!-- Node3&#45;&gt;Node18 -->
<g id="edge22_Node000003_Node000018" class="edge">
<title>Node3&#45;&gt;Node18</title>
<g id="a_edge22_Node000003_Node000018"><a xlink:title=" ">
<path fill="none" stroke="#63b8ff" d="M1266.21,-139.97C1181.2,-138.16 993.66,-130.25 840,-96 833.96,-94.65 827.58,-92.63 821.76,-90.54"/>
<polygon fill="#63b8ff" stroke="#63b8ff" points="1266.23,-143.47 1276.3,-140.17 1266.37,-136.48 1266.23,-143.47"/>
</a>
</g>
</g>
<!-- Node19 -->
<g id="Node000019" class="node">
<title>Node19</title>
<g id="a_Node000019"><a xlink:href="inverse_8c.html" target="_top" xlink:title=" ">
<polygon fill="white" stroke="#666666" points="910.5,-90.5 849.5,-90.5 849.5,-71.5 910.5,-71.5 910.5,-90.5"/>
<text text-anchor="middle" x="880" y="-78.5" font-family="Helvetica,sans-Serif" font-size="10.00">inverse.c</text>
</a>
</g>
</g>
<!-- Node3&#45;&gt;Node19 -->
<g id="edge23_Node000003_Node000019" class="edge">
<title>Node3&#45;&gt;Node19</title>
<g id="a_edge23_Node000003_Node000019"><a xlink:title=" ">
<path fill="none" stroke="#63b8ff" d="M1266.09,-138.61C1192.31,-134.84 1043.14,-124.17 920,-96 913.98,-94.62 907.6,-92.64 901.75,-90.6"/>
<polygon fill="#63b8ff" stroke="#63b8ff" points="1266.26,-142.13 1276.42,-139.12 1266.6,-135.14 1266.26,-142.13"/>
</a>
</g>
</g>
<!-- Node20 -->
<g id="Node000020" class="node">
<title>Node20</title>
<g id="a_Node000020"><a xlink:href="io_8c.html" target="_top" xlink:title=" ">
<polygon fill="white" stroke="#666666" points="963,-90.5 929,-90.5 929,-71.5 963,-71.5 963,-90.5"/>
<text text-anchor="middle" x="946" y="-78.5" font-family="Helvetica,sans-Serif" font-size="10.00">io.c</text>
</a>
</g>
</g>
<!-- Node3&#45;&gt;Node20 -->
<g id="edge24_Node000003_Node000020" class="edge">
<title>Node3&#45;&gt;Node20</title>
<g id="a_edge24_Node000003_Node000020"><a xlink:title=" ">
<path fill="none" stroke="#63b8ff" d="M1266.2,-139.74C1199.8,-137.48 1073.64,-128.79 972,-96 967.8,-94.65 963.49,-92.62 959.62,-90.53"/>
<polygon fill="#63b8ff" stroke="#63b8ff" points="1266.22,-143.24 1276.33,-140.05 1266.44,-136.24 1266.22,-143.24"/>
</a>
</g>
</g>
<!-- Node21 -->
<g id="Node000021" class="node">
<title>Node21</title>
<g id="a_Node000021"><a xlink:href="kokkos__bridge_8h.html" target="_top" xlink:title=" ">
<polygon fill="white" stroke="#666666" points="2330.5,-90.5 2235.5,-90.5 2235.5,-71.5 2330.5,-71.5 2330.5,-90.5"/>
<text text-anchor="middle" x="2283" y="-78.5" font-family="Helvetica,sans-Serif" font-size="10.00">kokkos_bridge.h</text>
</a>
</g>
</g>
<!-- Node3&#45;&gt;Node21 -->
<g id="edge25_Node000003_Node000021" class="edge">
<title>Node3&#45;&gt;Node21</title>
<g id="a_edge25_Node000003_Node000021"><a xlink:title=" ">
<path fill="none" stroke="#63b8ff" d="M1357.93,-139.46C1518.83,-135.63 2056.5,-121.21 2227,-96 2235.72,-94.71 2245.07,-92.65 2253.57,-90.51"/>
<polygon fill="#63b8ff" stroke="#63b8ff" points="1357.8,-135.96 1347.88,-139.7 1357.96,-142.96 1357.8,-135.96"/>
</a>
</g>
</g>
<!-- Node25 -->
<g id="Node000025" class="node">
<title>Node25</title>
<g id="a_Node000025"><a xlink:href="kokkos__processes_8h.html" target="_top" xlink:title=" ">
<polygon fill="white" stroke="#666666" points="2217.5,-90.5 2104.5,-90.5 2104.5,-71.5 2217.5,-71.5 2217.5,-90.5"/>
<text text-anchor="middle" x="2161" y="-78.5" font-family="Helvetica,sans-Serif" font-size="10.00">kokkos_processes.h</text>
</a>
</g>
</g>
<!-- Node3&#45;&gt;Node25 -->
<g id="edge30_Node000003_Node000025" class="edge">
<title>Node3&#45;&gt;Node25</title>
<g id="a_edge30_Node000003_Node000025"><a xlink:title=" ">
<path fill="none" stroke="#63b8ff" d="M1358.2,-138.81C1474.76,-134.31 1790.13,-120.66 2052,-96 2069,-94.4 2087.44,-92.21 2104.23,-90.03"/>
<polygon fill="#63b8ff" stroke="#63b8ff" points="1357.73,-135.32 1347.88,-139.2 1358,-142.32 1357.73,-135.32"/>
</a>
</g>
</g>
<!-- Node3&#45;&gt;Node26 -->
<g id="edge33_Node000003_Node000026" class="edge">
<title>Node3&#45;&gt;Node26</title>
<g id="a_edge33_Node000003_Node000026"><a xlink:title=" ">
<path fill="none" stroke="#63b8ff" d="M1266.33,-139.79C1093.25,-136.88 485.97,-124.67 457,-96 437.91,-77.11 444.76,-41.23 449.29,-24.72"/>
<polygon fill="#63b8ff" stroke="#63b8ff" points="1266.33,-143.29 1276.38,-139.96 1266.44,-136.29 1266.33,-143.29"/>
</a>
</g>
</g>
<!-- Node27 -->
<g id="Node000027" class="node">
<title>Node27</title>
<g id="a_Node000027"><a xlink:href="lv__geometry_8h.html" target="_top" xlink:title=" ">
<polygon fill="white" stroke="#666666" points="1888,-90.5 1802,-90.5 1802,-71.5 1888,-71.5 1888,-90.5"/>
<text text-anchor="middle" x="1845" y="-78.5" font-family="Helvetica,sans-Serif" font-size="10.00">lv_geometry.h</text>
</a>
</g>
</g>
<!-- Node3&#45;&gt;Node27 -->
<g id="edge34_Node000003_Node000027" class="edge">
<title>Node3&#45;&gt;Node27</title>
<g id="a_edge34_Node000003_Node000027"><a xlink:title=" ">
<path fill="none" stroke="#63b8ff" d="M1357.77,-138.87C1443.69,-135.23 1634.72,-124.41 1793,-96 1800.82,-94.6 1809.18,-92.58 1816.86,-90.52"/>
<polygon fill="#63b8ff" stroke="#63b8ff" points="1357.43,-135.38 1347.58,-139.29 1357.72,-142.37 1357.43,-135.38"/>
</a>
</g>
</g>
<!-- Node3&#45;&gt;Node28 -->
<g id="edge38_Node000003_Node000028" class="edge">
<title>Node3&#45;&gt;Node28</title>
<g id="a_edge38_Node000003_Node000028"><a xlink:title=" ">
<path fill="none" stroke="#63b8ff" d="M1266.37,-140.06C1068.87,-138 293.07,-127.89 189,-96 144.4,-82.33 99.81,-49.32 76.53,-30.25"/>
<polygon fill="#63b8ff" stroke="#63b8ff" points="1266.37,-143.56 1276.4,-140.17 1266.44,-136.57 1266.37,-143.56"/>
</a>
</g>
</g>
<!-- Node29 -->
<g id="Node000029" class="node">
<title>Node29</title>
<g id="a_Node000029"><a xlink:href="manufactured__active__strain_8h.html" target="_top" xlink:title=" ">
<polygon fill="white" stroke="#666666" points="334,-96 214,-96 214,-66 334,-66 334,-96"/>
<text text-anchor="start" x="222" y="-84" font-family="Helvetica,sans-Serif" font-size="10.00">manufactured_active</text>
<text text-anchor="middle" x="274" y="-73" font-family="Helvetica,sans-Serif" font-size="10.00">_strain.h</text>
</a>
</g>
</g>
<!-- Node3&#45;&gt;Node29 -->
<g id="edge39_Node000003_Node000029" class="edge">
<title>Node3&#45;&gt;Node29</title>
<g id="a_edge39_Node000003_Node000029"><a xlink:title=" ">
<path fill="none" stroke="#63b8ff" d="M1266.15,-140.67C1127.32,-140.69 699.52,-137.16 348,-96 343.45,-95.47 338.77,-94.82 334.07,-94.1"/>
<polygon fill="#63b8ff" stroke="#63b8ff" points="1266.4,-144.17 1276.4,-140.66 1266.4,-137.17 1266.4,-144.17"/>
</a>
</g>
</g>
<!-- Node3&#45;&gt;Node30 -->
<g id="edge44_Node000003_Node000030" class="edge">
<title>Node3&#45;&gt;Node30</title>
<g id="a_edge44_Node000003_Node000030"><a xlink:title=" ">
<path fill="none" stroke="#63b8ff" d="M1266.21,-140.33C1062.15,-139.36 243.96,-133.17 205,-96 187.45,-79.25 190.52,-48.31 194.29,-30.21"/>
<polygon fill="#63b8ff" stroke="#63b8ff" points="1266.27,-143.83 1276.29,-140.38 1266.3,-136.83 1266.27,-143.83"/>
</a>
</g>
</g>
<!-- Node3&#45;&gt;Node31 -->
<g id="edge45_Node000003_Node000031" class="edge">
<title>Node3&#45;&gt;Node31</title>
<g id="a_edge45_Node000003_Node000031"><a xlink:title=" ">
<path fill="none" stroke="#63b8ff" d="M1357.81,-140.21C1531.24,-138.84 2147.51,-131.53 2340,-96 2346.65,-94.77 2353.69,-92.73 2360.07,-90.59"/>
<polygon fill="#63b8ff" stroke="#63b8ff" points="1357.71,-136.71 1347.74,-140.28 1357.77,-143.71 1357.71,-136.71"/>
</a>
</g>
</g>
<!-- Node32 -->
<g id="Node000032" class="node">
<title>Node32</title>
<g id="a_Node000032"><a xlink:href="material__NonlinearCantilever_8c.html" target="_top" xlink:title=" ">
<polygon fill="white" stroke="#666666" points="1149,-90.5 981,-90.5 981,-71.5 1149,-71.5 1149,-90.5"/>
<text text-anchor="middle" x="1065" y="-78.5" font-family="Helvetica,sans-Serif" font-size="10.00">material_NonlinearCantilever.c</text>
</a>
</g>
</g>
<!-- Node3&#45;&gt;Node32 -->
<g id="edge46_Node000003_Node000032" class="edge">
<title>Node3&#45;&gt;Node32</title>
<g id="a_edge46_Node000003_Node000032"><a xlink:title=" ">
<path fill="none" stroke="#63b8ff" d="M1266.59,-129.75C1218.9,-118.45 1144.88,-100.92 1101.04,-90.54"/>
<polygon fill="#63b8ff" stroke="#63b8ff" points="1265.81,-133.16 1276.35,-132.06 1267.42,-126.35 1265.81,-133.16"/>
</a>
</g>
</g>
<!-- Node33 -->
<g id="Node000033" class="node">
<title>Node33</title>
<g id="a_Node000033"><a xlink:href="material__org_8c.html" target="_top" xlink:title=" ">
<polygon fill="white" stroke="#666666" points="1254.5,-90.5 1167.5,-90.5 1167.5,-71.5 1254.5,-71.5 1254.5,-90.5"/>
<text text-anchor="middle" x="1211" y="-78.5" font-family="Helvetica,sans-Serif" font-size="10.00">material_org.c</text>
</a>
</g>
</g>
<!-- Node3&#45;&gt;Node33 -->
<g id="edge47_Node000003_Node000033" class="edge">
<title>Node3&#45;&gt;Node33</title>
<g id="a_edge47_Node000003_Node000033"><a xlink:title=" ">
<path fill="none" stroke="#63b8ff" d="M1288.3,-126.77C1269.02,-115.6 1242.4,-100.19 1225.96,-90.67"/>
<polygon fill="#63b8ff" stroke="#63b8ff" points="1286.69,-129.88 1297.1,-131.87 1290.2,-123.83 1286.69,-129.88"/>
</a>
</g>
</g>
<!-- Node3&#45;&gt;Node34 -->
<g id="edge48_Node000003_Node000034" class="edge">
<title>Node3&#45;&gt;Node34</title>
<g id="a_edge48_Node000003_Node000034"><a xlink:title=" ">
<path fill="none" stroke="#63b8ff" d="M1357.68,-140.79C1539.99,-141.64 2215.7,-141.55 2424,-96 2429.49,-94.8 2435.22,-92.77 2440.38,-90.62"/>
<polygon fill="#63b8ff" stroke="#63b8ff" points="1357.65,-137.29 1347.63,-140.74 1357.61,-144.29 1357.65,-137.29"/>
</a>
</g>
</g>
<!-- Node35 -->
<g id="Node000035" class="node">
<title>Node35</title>
<g id="a_Node000035"><a xlink:href="membrane_8c.html" target="_top" xlink:title=" ">
<polygon fill="white" stroke="#666666" points="1351,-90.5 1273,-90.5 1273,-71.5 1351,-71.5 1351,-90.5"/>
<text text-anchor="middle" x="1312" y="-78.5" font-family="Helvetica,sans-Serif" font-size="10.00">membrane.c</text>
</a>
</g>
</g>
<!-- Node3&#45;&gt;Node35 -->
<g id="edge49_Node000003_Node000035" class="edge">
<title>Node3&#45;&gt;Node35</title>
<g id="a_edge49_Node000003_Node000035"><a xlink:title=" ">
<path fill="none" stroke="#63b8ff" d="M1312,-121.66C1312,-111.24 1312,-98.8 1312,-90.67"/>
<polygon fill="#63b8ff" stroke="#63b8ff" points="1308.5,-121.87 1312,-131.87 1315.5,-121.87 1308.5,-121.87"/>
</a>
</g>
</g>
<!-- Node3&#45;&gt;Node36 -->
<g id="edge50_Node000003_Node000036" class="edge">
<title>Node3&#45;&gt;Node36</title>
<g id="a_edge50_Node000003_Node000036"><a xlink:title=" ">
<path fill="none" stroke="#63b8ff" d="M1357.85,-139.81C1561.66,-136.62 2380.32,-122.26 2492,-96 2497.06,-94.81 2502.3,-92.78 2507.01,-90.64"/>
<polygon fill="#63b8ff" stroke="#63b8ff" points="1357.73,-136.31 1347.79,-139.97 1357.84,-143.31 1357.73,-136.31"/>
</a>
</g>
</g>
<!-- Node3&#45;&gt;Node37 -->
<g id="edge51_Node000003_Node000037" class="edge">
<title>Node3&#45;&gt;Node37</title>
<g id="a_edge51_Node000003_Node000037"><a xlink:title=" ">
<path fill="none" stroke="#63b8ff" d="M1357.92,-139.92C1553.22,-137.29 2315.73,-125.32 2554,-96 2564.23,-94.74 2575.23,-92.69 2585.25,-90.55"/>
<polygon fill="#63b8ff" stroke="#63b8ff" points="1357.67,-136.42 1347.72,-140.06 1357.77,-143.42 1357.67,-136.42"/>
</a>
</g>
</g>
<!-- Node38 -->
<g id="Node000038" class="node">
<title>Node38</title>
<g id="a_Node000038"><a xlink:href="muscle__activation_8h.html" target="_top" xlink:title="Declarations for muscle activation module using active&#45;strain and active&#45;stress approaches.">
<polygon fill="white" stroke="#666666" points="1484.5,-90.5 1369.5,-90.5 1369.5,-71.5 1484.5,-71.5 1484.5,-90.5"/>
<text text-anchor="middle" x="1427" y="-78.5" font-family="Helvetica,sans-Serif" font-size="10.00">muscle_activation.h</text>
</a>
</g>
</g>
<!-- Node3&#45;&gt;Node38 -->
<g id="edge52_Node000003_Node000038" class="edge">
<title>Node3&#45;&gt;Node38</title>
<g id="a_edge52_Node000003_Node000038"><a xlink:title=" ">
<path fill="none" stroke="#63b8ff" d="M1338.09,-127.23C1360.11,-116.03 1390.99,-100.32 1409.96,-90.67"/>
<polygon fill="#63b8ff" stroke="#63b8ff" points="1336.29,-124.21 1328.97,-131.87 1339.47,-130.45 1336.29,-124.21"/>
</a>
</g>
</g>
<!-- Node9&#45;&gt;Node5 -->
<g id="edge9_Node000009_Node000005" class="edge">
<title>Node9&#45;&gt;Node5</title>
<g id="a_edge9_Node000009_Node000005"><a xlink:title=" ">
<path fill="none" stroke="#63b8ff" d="M1704.69,-68.89C1699.79,-67.73 1694.8,-66.72 1690,-66 1122.71,18.52 967.7,-111.78 400,-30 391.62,-28.79 382.66,-26.73 374.53,-24.56"/>
<polygon fill="#63b8ff" stroke="#63b8ff" points="1703.97,-72.32 1714.52,-71.44 1705.72,-65.55 1703.97,-72.32"/>
</a>
</g>
</g>
<!-- Node10 -->
<g id="Node000010" class="node">
<title>Node10</title>
<g id="a_Node000010"><a xlink:href="cuda__processes_8c.html" target="_top" xlink:title=" ">
<polygon fill="white" stroke="#666666" points="1955,-24.5 1853,-24.5 1853,-5.5 1955,-5.5 1955,-24.5"/>
<text text-anchor="middle" x="1904" y="-12.5" font-family="Helvetica,sans-Serif" font-size="10.00">cuda_processes.c</text>
</a>
</g>
</g>
<!-- Node9&#45;&gt;Node10 -->
<g id="edge10_Node000009_Node000010" class="edge">
<title>Node9&#45;&gt;Node10</title>
<g id="a_edge10_Node000009_Node000010"><a xlink:title=" ">
<path fill="none" stroke="#63b8ff" d="M1772.39,-67.68C1804.6,-55.03 1853.88,-35.68 1882.11,-24.6"/>
<polygon fill="#63b8ff" stroke="#63b8ff" points="1771.01,-64.46 1762.98,-71.37 1773.57,-70.97 1771.01,-64.46"/>
</a>
</g>
</g>
<!-- Node11 -->
<g id="Node000011" class="node">
<title>Node11</title>
<g id="a_Node000011"><a xlink:href="cuda__stub_8c.html" target="_top" xlink:title=" ">
<polygon fill="white" stroke="#666666" points="1713,-24.5 1639,-24.5 1639,-5.5 1713,-5.5 1713,-24.5"/>
<text text-anchor="middle" x="1676" y="-12.5" font-family="Helvetica,sans-Serif" font-size="10.00">cuda_stub.c</text>
</a>
</g>
</g>
<!-- Node9&#45;&gt;Node11 -->
<g id="edge11_Node000009_Node000011" class="edge">
<title>Node9&#45;&gt;Node11</title>
<g id="a_edge11_Node000009_Node000011"><a xlink:title=" ">
<path fill="none" stroke="#63b8ff" d="M1725.08,-64.33C1712.5,-51.94 1695.38,-35.09 1685.04,-24.91"/>
<polygon fill="#63b8ff" stroke="#63b8ff" points="1722.65,-66.85 1732.23,-71.37 1727.56,-61.86 1722.65,-66.85"/>
</a>
</g>
</g>
<!-- Node12 -->
<g id="Node000012" class="node">
<title>Node12</title>
<g id="a_Node000012"><a xlink:href="cuda__wrapper_8cpp.html" target="_top" xlink:title=" ">
<polygon fill="white" stroke="#666666" points="1835,-24.5 1731,-24.5 1731,-5.5 1835,-5.5 1835,-24.5"/>
<text text-anchor="middle" x="1783" y="-12.5" font-family="Helvetica,sans-Serif" font-size="10.00">cuda_wrapper.cpp</text>
</a>
</g>
</g>
<!-- Node9&#45;&gt;Node12 -->
<g id="edge12_Node000009_Node000012" class="edge">
<title>Node9&#45;&gt;Node12</title>
<g id="a_edge12_Node000009_Node000012"><a xlink:title=" ">
<path fill="none" stroke="#63b8ff" d="M1752.22,-62.91C1760.24,-50.68 1770.73,-34.7 1777.16,-24.91"/>
<polygon fill="#63b8ff" stroke="#63b8ff" points="1749.22,-61.09 1746.66,-71.37 1755.08,-64.93 1749.22,-61.09"/>
</a>
</g>
</g>
<!-- Node9&#45;&gt;Node13 -->
<g id="edge13_Node000009_Node000013" class="edge">
<title>Node9&#45;&gt;Node13</title>
<g id="a_edge13_Node000009_Node000013"><a xlink:title=" ">
<path fill="none" stroke="#63b8ff" d="M1781.22,-68.93C1785.2,-67.91 1789.17,-66.92 1793,-66 1868.53,-47.9 1889.78,-52.88 1964,-30 1968.88,-28.5 1974.03,-26.56 1978.81,-24.62"/>
<polygon fill="#63b8ff" stroke="#63b8ff" points="1780.23,-65.58 1771.45,-71.5 1782.01,-72.35 1780.23,-65.58"/>
</a>
</g>
</g>
<!-- Node14&#45;&gt;Node10 -->
<g id="edge15_Node000014_Node000010" class="edge">
<title>Node14&#45;&gt;Node10</title>
<g id="a_edge15_Node000014_Node000010"><a xlink:title=" ">
<path fill="none" stroke="#63b8ff" d="M1944.18,-63.62C1933.79,-51.31 1919.94,-34.89 1911.51,-24.91"/>
<polygon fill="#63b8ff" stroke="#63b8ff" points="1941.59,-65.98 1950.72,-71.37 1946.94,-61.47 1941.59,-65.98"/>
</a>
</g>
</g>
<!-- Node14&#45;&gt;Node13 -->
<g id="edge16_Node000014_Node000013" class="edge">
<title>Node14&#45;&gt;Node13</title>
<g id="a_edge16_Node000014_Node000013"><a xlink:title=" ">
<path fill="none" stroke="#63b8ff" d="M1968.91,-62.55C1976.52,-50.36 1986.37,-34.61 1992.43,-24.91"/>
<polygon fill="#63b8ff" stroke="#63b8ff" points="1965.73,-61.03 1963.39,-71.37 1971.66,-64.74 1965.73,-61.03"/>
</a>
</g>
</g>
<!-- Node15&#45;&gt;Node5 -->
<g id="edge18_Node000015_Node000005" class="edge">
<title>Node15&#45;&gt;Node5</title>
<g id="a_edge18_Node000015_Node000005"><a xlink:title=" ">
<path fill="none" stroke="#63b8ff" d="M1593.93,-69.1C1588.29,-67.86 1582.52,-66.77 1577,-66 1058.6,5.88 917.91,-105.32 400,-30 391.62,-28.78 382.66,-26.72 374.54,-24.54"/>
<polygon fill="#63b8ff" stroke="#63b8ff" points="1593.34,-72.56 1603.88,-71.46 1594.96,-65.75 1593.34,-72.56"/>
</a>
</g>
</g>
<!-- Node15&#45;&gt;Node13 -->
<g id="edge20_Node000015_Node000013" class="edge">
<title>Node15&#45;&gt;Node13</title>
<g id="a_edge20_Node000015_Node000013"><a xlink:title=" ">
<path fill="none" stroke="#63b8ff" d="M1675.19,-69.09C1680.17,-67.96 1685.18,-66.91 1690,-66 1810.71,-43.32 1845.32,-61.65 1964,-30 1969.18,-28.62 1974.62,-26.64 1979.6,-24.6"/>
<polygon fill="#63b8ff" stroke="#63b8ff" points="1674.05,-65.76 1665.12,-71.45 1675.66,-72.57 1674.05,-65.76"/>
</a>
</g>
</g>
<!-- Node16 -->
<g id="Node000016" class="node">
<title>Node16</title>
<g id="a_Node000016"><a xlink:href="dmplex__geom_8c.html" target="_top" xlink:title="Distributed geometry kernel for Loop subdivision surfaces using PETSc DMPlex.">
<polygon fill="white" stroke="#666666" points="1620.5,-24.5 1525.5,-24.5 1525.5,-5.5 1620.5,-5.5 1620.5,-24.5"/>
<text text-anchor="middle" x="1573" y="-12.5" font-family="Helvetica,sans-Serif" font-size="10.00">dmplex_geom.c</text>
</a>
</g>
</g>
<!-- Node15&#45;&gt;Node16 -->
<g id="edge19_Node000015_Node000016" class="edge">
<title>Node15&#45;&gt;Node16</title>
<g id="a_edge19_Node000015_Node000016"><a xlink:title=" ">
<path fill="none" stroke="#63b8ff" d="M1617.98,-63.98C1606.4,-51.62 1590.8,-34.99 1581.35,-24.91"/>
<polygon fill="#63b8ff" stroke="#63b8ff" points="1615.52,-66.47 1624.91,-71.37 1620.62,-61.68 1615.52,-66.47"/>
</a>
</g>
</g>
<!-- Node21&#45;&gt;Node13 -->
<g id="edge29_Node000021_Node000013" class="edge">
<title>Node21&#45;&gt;Node13</title>
<g id="a_edge29_Node000021_Node000013"><a xlink:title=" ">
<path fill="none" stroke="#63b8ff" d="M2239.68,-69.03C2235.4,-67.99 2231.12,-66.96 2227,-66 2153.1,-48.7 2065.34,-30.07 2023.13,-21.23"/>
<polygon fill="#63b8ff" stroke="#63b8ff" points="2239.03,-72.48 2249.58,-71.47 2240.7,-65.68 2239.03,-72.48"/>
</a>
</g>
</g>
<!-- Node22 -->
<g id="Node000022" class="node">
<title>Node22</title>
<g id="a_Node000022"><a xlink:href="kokkos__geom_8cpp.html" target="_top" xlink:title=" ">
<polygon fill="white" stroke="#666666" points="2337,-24.5 2233,-24.5 2233,-5.5 2337,-5.5 2337,-24.5"/>
<text text-anchor="middle" x="2285" y="-12.5" font-family="Helvetica,sans-Serif" font-size="10.00">kokkos_geom.cpp</text>
</a>
</g>
</g>
<!-- Node21&#45;&gt;Node22 -->
<g id="edge26_Node000021_Node000022" class="edge">
<title>Node21&#45;&gt;Node22</title>
<g id="a_edge26_Node000021_Node000022"><a xlink:title=" ">
<path fill="none" stroke="#63b8ff" d="M2283.59,-61.08C2283.96,-49.13 2284.43,-34.22 2284.72,-24.91"/>
<polygon fill="#63b8ff" stroke="#63b8ff" points="2280.08,-61.26 2283.27,-71.37 2287.08,-61.48 2280.08,-61.26"/>
</a>
</g>
</g>
<!-- Node23 -->
<g id="Node000023" class="node">
<title>Node23</title>
<g id="a_Node000023"><a xlink:href="kokkos__processes_8c.html" target="_top" xlink:title=" ">
<polygon fill="white" stroke="#666666" points="2214.5,-24.5 2101.5,-24.5 2101.5,-5.5 2214.5,-5.5 2214.5,-24.5"/>
<text text-anchor="middle" x="2158" y="-12.5" font-family="Helvetica,sans-Serif" font-size="10.00">kokkos_processes.c</text>
</a>
</g>
</g>
<!-- Node21&#45;&gt;Node23 -->
<g id="edge27_Node000021_Node000023" class="edge">
<title>Node21&#45;&gt;Node23</title>
<g id="a_edge27_Node000021_Node000023"><a xlink:title=" ">
<path fill="none" stroke="#63b8ff" d="M2257.01,-66.69C2232.39,-54.09 2196.11,-35.51 2174.99,-24.7"/>
<polygon fill="#63b8ff" stroke="#63b8ff" points="2255.65,-69.93 2266.14,-71.37 2258.84,-63.7 2255.65,-69.93"/>
</a>
</g>
</g>
<!-- Node24 -->
<g id="Node000024" class="node">
<title>Node24</title>
<g id="a_Node000024"><a xlink:href="kokkos__stub_8c.html" target="_top" xlink:title=" ">
<polygon fill="white" stroke="#666666" points="2440.5,-24.5 2355.5,-24.5 2355.5,-5.5 2440.5,-5.5 2440.5,-24.5"/>
<text text-anchor="middle" x="2398" y="-12.5" font-family="Helvetica,sans-Serif" font-size="10.00">kokkos_stub.c</text>
</a>
</g>
</g>
<!-- Node21&#45;&gt;Node24 -->
<g id="edge28_Node000021_Node000024" class="edge">
<title>Node21&#45;&gt;Node24</title>
<g id="a_edge28_Node000021_Node000024"><a xlink:title=" ">
<path fill="none" stroke="#63b8ff" d="M2307.51,-66.36C2330.15,-53.76 2363.11,-35.42 2382.37,-24.7"/>
<polygon fill="#63b8ff" stroke="#63b8ff" points="2305.55,-63.45 2298.51,-71.37 2308.95,-69.56 2305.55,-63.45"/>
</a>
</g>
</g>
<!-- Node25&#45;&gt;Node13 -->
<g id="edge32_Node000025_Node000013" class="edge">
<title>Node25&#45;&gt;Node13</title>
<g id="a_edge32_Node000025_Node000013"><a xlink:title=" ">
<path fill="none" stroke="#63b8ff" d="M2129.61,-67.68C2097.4,-55.03 2048.12,-35.68 2019.89,-24.6"/>
<polygon fill="#63b8ff" stroke="#63b8ff" points="2128.43,-70.97 2139.02,-71.37 2130.99,-64.46 2128.43,-70.97"/>
</a>
</g>
</g>
<!-- Node25&#45;&gt;Node23 -->
<g id="edge31_Node000025_Node000023" class="edge">
<title>Node25&#45;&gt;Node23</title>
<g id="a_edge31_Node000025_Node000023"><a xlink:title=" ">
<path fill="none" stroke="#63b8ff" d="M2160.11,-61.08C2159.55,-49.13 2158.85,-34.22 2158.42,-24.91"/>
<polygon fill="#63b8ff" stroke="#63b8ff" points="2156.63,-61.54 2160.6,-71.37 2163.62,-61.22 2156.63,-61.54"/>
</a>
</g>
</g>
<!-- Node27&#45;&gt;Node13 -->
<g id="edge36_Node000027_Node000013" class="edge">
<title>Node27&#45;&gt;Node13</title>
<g id="a_edge36_Node000027_Node000013"><a xlink:title=" ">
<path fill="none" stroke="#63b8ff" d="M1875.22,-67.36C1905.37,-54.75 1950.89,-35.71 1977.2,-24.7"/>
<polygon fill="#63b8ff" stroke="#63b8ff" points="1873.51,-64.28 1865.63,-71.37 1876.21,-70.74 1873.51,-64.28"/>
</a>
</g>
</g>
<!-- Node27&#45;&gt;Node26 -->
<g id="edge35_Node000027_Node000026" class="edge">
<title>Node27&#45;&gt;Node26</title>
<g id="a_edge35_Node000027_Node000026"><a xlink:title=" ">
<path fill="none" stroke="#63b8ff" d="M1807.96,-68.94C1802.97,-67.77 1797.88,-66.74 1793,-66 1533.85,-26.8 694.35,-17.88 494.83,-16.3"/>
<polygon fill="#63b8ff" stroke="#63b8ff" points="1807.43,-72.42 1817.99,-71.49 1809.16,-65.63 1807.43,-72.42"/>
</a>
</g>
</g>
<!-- Node29&#45;&gt;Node5 -->
<g id="edge40_Node000029_Node000005" class="edge">
<title>Node29&#45;&gt;Node5</title>
<g id="a_edge40_Node000029_Node000005"><a xlink:title=" ">
<path fill="none" stroke="#63b8ff" d="M298.03,-58.93C311.24,-47.35 326.92,-33.61 336.91,-24.84"/>
<polygon fill="#63b8ff" stroke="#63b8ff" points="295.41,-56.57 290.2,-65.8 300.03,-61.84 295.41,-56.57"/>
</a>
</g>
</g>
<!-- Node29&#45;&gt;Node13 -->
<g id="edge41_Node000029_Node000013" class="edge">
<title>Node29&#45;&gt;Node13</title>
<g id="a_edge41_Node000029_Node000013"><a xlink:title=" ">
<path fill="none" stroke="#63b8ff" d="M344.42,-73.75C378.41,-70.95 419.8,-67.87 457,-66 624.28,-57.61 1800.09,-64.46 1964,-30 1969.62,-28.82 1975.49,-26.74 1980.74,-24.53"/>
<polygon fill="#63b8ff" stroke="#63b8ff" points="343.79,-70.28 334.12,-74.6 344.37,-77.26 343.79,-70.28"/>
</a>
</g>
</g>
<!-- Node29&#45;&gt;Node28 -->
<g id="edge42_Node000029_Node000028" class="edge">
<title>Node29&#45;&gt;Node28</title>
<g id="a_edge42_Node000029_Node000028"><a xlink:title=" ">
<path fill="none" stroke="#63b8ff" d="M217.12,-62.99C182.69,-52.69 139.3,-39.72 106.85,-30.01"/>
<polygon fill="#63b8ff" stroke="#63b8ff" points="216.45,-66.44 227.04,-65.95 218.46,-59.74 216.45,-66.44"/>
</a>
</g>
</g>
<!-- Node29&#45;&gt;Node30 -->
<g id="edge43_Node000029_Node000030" class="edge">
<title>Node29&#45;&gt;Node30</title>
<g id="a_edge43_Node000029_Node000030"><a xlink:title=" ">
<path fill="none" stroke="#63b8ff" d="M249.3,-59.2C238.02,-49.7 224.95,-38.69 214.82,-30.16"/>
<polygon fill="#63b8ff" stroke="#63b8ff" points="247.23,-62.03 257.13,-65.8 251.74,-56.68 247.23,-62.03"/>
</a>
</g>
</g>
</g>
</svg>
