<?xml version="1.0" encoding="UTF-8" standalone="no"?>
<!DOCTYPE svg PUBLIC "-//W3C//DTD SVG 1.1//EN"
 "http://www.w3.org/Graphics/SVG/1.1/DTD/svg11.dtd">
<!-- Generated by graphviz version 2.43.0 (0)
 -->
<!-- Title: MINUS Pages: 1 -->
<svg width="1086pt" height="830pt"
 viewBox="0.00 0.00 1086.00 829.54" xmlns="http://www.w3.org/2000/svg" xmlns:xlink="http://www.w3.org/1999/xlink">
<g id="graph0" class="graph" transform="scale(1 1) rotate(0) translate(4 825.54)">
<title>MINUS</title>
<!-- Node1 -->
<g id="Node000001" class="node">
<title>Node1</title>
<g id="a_Node000001"><a xlink:title=" ">
<polygon fill="#999999" stroke="#666666" points="1078,-420.5 1028,-420.5 1028,-401.5 1078,-401.5 1078,-420.5"/>
<text text-anchor="middle" x="1053" y="-408.5" font-family="Helvetica,sans-Serif" font-size="10.00">MINUS</text>
</a>
</g>
</g>
<!-- Node2 -->
<g id="Node000002" class="node">
<title>Node2</title>
<g id="a_Node000002"><a xlink:href="io_8c.html#ac6a6fe57e1e391ebe52b1dbffde4ba5b" target="_top" xlink:title=" ">
<polygon fill="white" stroke="#666666" points="616.5,-578.5 541.5,-578.5 541.5,-559.5 616.5,-559.5 616.5,-578.5"/>
<text text-anchor="middle" x="579" y="-566.5" font-family="Helvetica,sans-Serif" font-size="10.00">AreaNormal</text>
</a>
</g>
</g>
<!-- Node1&#45;&gt;Node2 -->
<g id="edge1_Node000001_Node000002" class="edge">
<title>Node1&#45;&gt;Node2</title>
<g id="a_edge1_Node000001_Node000002"><a xlink:title=" ">
<path fill="none" stroke="#63b8ff" d="M1031.25,-426.57C1020.14,-434.16 1005.92,-442.77 992,-448 861.65,-497.01 806.34,-435.33 683,-500 662.68,-510.65 665.64,-523.63 647,-537 634.22,-546.17 618.41,-553.86 605.35,-559.41"/>
<polygon fill="#63b8ff" stroke="#63b8ff" points="1033.28,-429.42 1039.42,-420.78 1029.23,-423.71 1033.28,-429.42"/>
</a>
</g>
</g>
<!-- Node15 -->
<g id="Node000015" class="node">
<title>Node15</title>
<g id="a_Node000015"><a xlink:href="material_8c.html#af81ecf5fbfd52082e0abd3184f12c14f" target="_top" xlink:title=" ">
<polygon fill="white" stroke="#666666" points="971,-666.5 865,-666.5 865,-647.5 971,-647.5 971,-666.5"/>
<text text-anchor="middle" x="918" y="-654.5" font-family="Helvetica,sans-Serif" font-size="10.00">BendingNonLinear</text>
</a>
</g>
</g>
<!-- Node1&#45;&gt;Node15 -->
<g id="edge21_Node000001_Node000015" class="edge">
<title>Node1&#45;&gt;Node15</title>
<g id="a_edge21_Node000001_Node000015"><a xlink:title=" ">
<path fill="none" stroke="#63b8ff" d="M1049.38,-430.57C1042.37,-480.07 1021.67,-608.44 992,-638 986.25,-643.73 979,-647.8 971.32,-650.68"/>
<polygon fill="#63b8ff" stroke="#63b8ff" points="1052.87,-430.91 1050.77,-420.52 1045.93,-429.95 1052.87,-430.91"/>
</a>
</g>
</g>
<!-- Node19 -->
<g id="Node000019" class="node">
<title>Node19</title>
<g id="a_Node000019"><a xlink:href="bending_8c.html#a2b66770553fce4724cfb65b0f79e83b1" target="_top" xlink:title=" ">
<polygon fill="white" stroke="#666666" points="776.5,-652.5 714.5,-652.5 714.5,-633.5 776.5,-633.5 776.5,-652.5"/>
<text text-anchor="middle" x="745.5" y="-640.5" font-family="Helvetica,sans-Serif" font-size="10.00">Fbending</text>
</a>
</g>
</g>
<!-- Node1&#45;&gt;Node19 -->
<g id="edge46_Node000001_Node000019" class="edge">
<title>Node1&#45;&gt;Node19</title>
<g id="a_edge46_Node000001_Node000019"><a xlink:title=" ">
<path fill="none" stroke="#63b8ff" d="M1049.81,-430.86C1045.16,-463.21 1031.28,-527.19 992,-562 941.09,-607.11 908.3,-578.82 844,-601 816.47,-610.5 785.78,-624.27 766.32,-633.42"/>
<polygon fill="#63b8ff" stroke="#63b8ff" points="1053.29,-431.19 1051.09,-420.83 1046.35,-430.3 1053.29,-431.19"/>
</a>
</g>
</g>
<!-- Node22 -->
<g id="Node000022" class="node">
<title>Node22</title>
<g id="a_Node000022"><a xlink:href="material_8c.html#a5da7362ed34e0d7b99ef0e783198a72a" target="_top" xlink:title=" ">
<polygon fill="white" stroke="#666666" points="973.5,-363.5 862.5,-363.5 862.5,-344.5 973.5,-344.5 973.5,-363.5"/>
<text text-anchor="middle" x="918" y="-351.5" font-family="Helvetica,sans-Serif" font-size="10.00">BHVFiberDirUpdate</text>
</a>
</g>
</g>
<!-- Node1&#45;&gt;Node22 -->
<g id="edge31_Node000001_Node000022" class="edge">
<title>Node1&#45;&gt;Node22</title>
<g id="a_edge31_Node000001_Node000022"><a xlink:title=" ">
<path fill="none" stroke="#63b8ff" d="M1027.81,-396.36C1017.08,-390.21 1004.14,-383.28 992,-378 979.4,-372.52 965.12,-367.56 952.55,-363.6"/>
<polygon fill="#63b8ff" stroke="#63b8ff" points="1026.21,-399.48 1036.61,-401.5 1029.74,-393.43 1026.21,-399.48"/>
</a>
</g>
</g>
<!-- Node23 -->
<g id="Node000023" class="node">
<title>Node23</title>
<g id="a_Node000023"><a xlink:href="contact_8c.html#a6792e9026d762c1ea211d1b713da8d88" target="_top" xlink:title=" ">
<polygon fill="white" stroke="#666666" points="966,-439.5 870,-439.5 870,-420.5 966,-420.5 966,-439.5"/>
<text text-anchor="middle" x="918" y="-427.5" font-family="Helvetica,sans-Serif" font-size="10.00">BoundingSphere</text>
</a>
</g>
</g>
<!-- Node1&#45;&gt;Node23 -->
<g id="edge32_Node000001_Node000023" class="edge">
<title>Node1&#45;&gt;Node23</title>
<g id="a_edge32_Node000001_Node000023"><a xlink:title=" ">
<path fill="none" stroke="#63b8ff" d="M1017.6,-415.91C1001.9,-418.16 983.05,-420.85 966.06,-423.28"/>
<polygon fill="#63b8ff" stroke="#63b8ff" points="1018.51,-419.32 1027.91,-414.44 1017.52,-412.39 1018.51,-419.32"/>
</a>
</g>
</g>
<!-- Node24 -->
<g id="Node000024" class="node">
<title>Node24</title>
<g id="a_Node000024"><a xlink:href="contact_8c.html#a8c8e2f1cd589cf69a8dae9aa35f03ad9" target="_top" xlink:title=" ">
<polygon fill="white" stroke="#666666" points="791.5,-411.5 699.5,-411.5 699.5,-392.5 791.5,-392.5 791.5,-411.5"/>
<text text-anchor="middle" x="745.5" y="-399.5" font-family="Helvetica,sans-Serif" font-size="10.00">nearestcellFEM</text>
</a>
</g>
</g>
<!-- Node1&#45;&gt;Node24 -->
<g id="edge58_Node000001_Node000024" class="edge">
<title>Node1&#45;&gt;Node24</title>
<g id="a_edge58_Node000001_Node000024"><a xlink:title=" ">
<path fill="none" stroke="#63b8ff" d="M1017.77,-409.99C962.42,-408.36 853.26,-405.15 791.63,-403.33"/>
<polygon fill="#63b8ff" stroke="#63b8ff" points="1017.67,-413.49 1027.77,-410.29 1017.88,-406.49 1017.67,-413.49"/>
</a>
</g>
</g>
<!-- Node27 -->
<g id="Node000027" class="node">
<title>Node27</title>
<g id="a_Node000027"><a xlink:href="material_8c.html#a3243950933f3559f19edcb5421360526" target="_top" xlink:title=" ">
<polygon fill="white" stroke="#666666" points="986,-553.5 850,-553.5 850,-534.5 986,-534.5 986,-553.5"/>
<text text-anchor="middle" x="918" y="-541.5" font-family="Helvetica,sans-Serif" font-size="10.00">CalcCurvStressStrainxyz</text>
</a>
</g>
</g>
<!-- Node1&#45;&gt;Node27 -->
<g id="edge37_Node000001_Node000027" class="edge">
<title>Node1&#45;&gt;Node27</title>
<g id="a_edge37_Node000001_Node000027"><a xlink:title=" ">
<path fill="none" stroke="#63b8ff" d="M1046.29,-430.27C1038.12,-454.58 1020.82,-496.09 992,-520 984.4,-526.3 975.1,-530.97 965.71,-534.42"/>
<polygon fill="#63b8ff" stroke="#63b8ff" points="1049.63,-431.31 1049.32,-420.72 1042.96,-429.19 1049.63,-431.31"/>
</a>
</g>
</g>
<!-- Node28 -->
<g id="Node000028" class="node">
<title>Node28</title>
<g id="a_Node000028"><a xlink:href="bending_8c.html#a9f48607d5ce7f351c5960f63455779c4" target="_top" xlink:title=" ">
<polygon fill="white" stroke="#666666" points="766,-528.5 725,-528.5 725,-509.5 766,-509.5 766,-528.5"/>
<text text-anchor="middle" x="745.5" y="-516.5" font-family="Helvetica,sans-Serif" font-size="10.00">Kve0</text>
</a>
</g>
</g>
<!-- Node1&#45;&gt;Node28 -->
<g id="edge51_Node000001_Node000028" class="edge">
<title>Node1&#45;&gt;Node28</title>
<g id="a_edge51_Node000001_Node000028"><a xlink:title=" ">
<path fill="none" stroke="#63b8ff" d="M1041.65,-429.58C1031.34,-446.2 1013.91,-469.76 992,-482 916.93,-523.93 809.77,-522.98 766.13,-520.52"/>
<polygon fill="#63b8ff" stroke="#63b8ff" points="1044.8,-431.13 1046.87,-420.74 1038.77,-427.57 1044.8,-431.13"/>
</a>
</g>
</g>
<!-- Node30 -->
<g id="Node000030" class="node">
<title>Node30</title>
<g id="a_Node000030"><a xlink:href="material__NonlinearCantilever_8c.html#a5b99da62b0de397a913c1c424cea6f87" target="_top" xlink:title=" ">
<polygon fill="white" stroke="#666666" points="978,-326.5 858,-326.5 858,-307.5 978,-307.5 978,-326.5"/>
<text text-anchor="middle" x="918" y="-314.5" font-family="Helvetica,sans-Serif" font-size="10.00">CalcStressStrainBxyz</text>
</a>
</g>
</g>
<!-- Node1&#45;&gt;Node30 -->
<g id="edge42_Node000001_Node000030" class="edge">
<title>Node1&#45;&gt;Node30</title>
<g id="a_edge42_Node000001_Node000030"><a xlink:title=" ">
<path fill="none" stroke="#63b8ff" d="M1042.29,-392.64C1032.09,-375.16 1014.42,-349.44 992,-335 986.73,-331.61 980.87,-328.85 974.83,-326.62"/>
<polygon fill="#63b8ff" stroke="#63b8ff" points="1039.24,-394.36 1047.17,-401.38 1045.35,-390.95 1039.24,-394.36"/>
</a>
</g>
</g>
<!-- Node31 -->
<g id="Node000031" class="node">
<title>Node31</title>
<g id="a_Node000031"><a xlink:href="material__NonlinearCantilever_8c.html#ab38fdcdb1705e4b2bc3636edbb240c45" target="_top" xlink:title=" ">
<polygon fill="white" stroke="#666666" points="979,-289.5 857,-289.5 857,-270.5 979,-270.5 979,-289.5"/>
<text text-anchor="middle" x="918" y="-277.5" font-family="Helvetica,sans-Serif" font-size="10.00">CalcStressStrainMxyz</text>
</a>
</g>
</g>
<!-- Node1&#45;&gt;Node31 -->
<g id="edge43_Node000001_Node000031" class="edge">
<title>Node1&#45;&gt;Node31</title>
<g id="a_edge43_Node000001_Node000031"><a xlink:title=" ">
<path fill="none" stroke="#63b8ff" d="M1047,-391.44C1039.45,-365.97 1022.67,-321.91 992,-298 987.68,-294.63 982.81,-291.88 977.69,-289.64"/>
<polygon fill="#63b8ff" stroke="#63b8ff" points="1043.71,-392.69 1049.76,-401.39 1050.46,-390.82 1043.71,-392.69"/>
</a>
</g>
</g>
<!-- Node32 -->
<g id="Node000032" class="node">
<title>Node32</title>
<g id="a_Node000032"><a xlink:href="lv__geometry_8c.html#aac85a6b370a9743adfb663de8acddbe1" target="_top" xlink:title=" ">
<polygon fill="white" stroke="#666666" points="166,-789.5 80,-789.5 80,-770.5 166,-770.5 166,-789.5"/>
<text text-anchor="middle" x="123" y="-777.5" font-family="Helvetica,sans-Serif" font-size="10.00">CreateLVMesh</text>
</a>
</g>
</g>
<!-- Node1&#45;&gt;Node32 -->
<g id="edge44_Node000001_Node000032" class="edge">
<title>Node1&#45;&gt;Node32</title>
<g id="a_edge44_Node000001_Node000032"><a xlink:title=" ">
<path fill="none" stroke="#63b8ff" d="M1051.76,-431.09C1050.5,-500.66 1042.5,-729.7 992,-778 912.6,-853.94 856.37,-807 746.5,-807 746.5,-807 746.5,-807 411.5,-807 324.02,-807 222.22,-794.45 166.26,-786.47"/>
<polygon fill="#63b8ff" stroke="#63b8ff" points="1055.27,-430.73 1051.92,-420.68 1048.27,-430.63 1055.27,-430.73"/>
</a>
</g>
</g>
<!-- Node33 -->
<g id="Node000033" class="node">
<title>Node33</title>
<g id="a_Node000033"><a xlink:href="membrane_8c.html#a9fee56a81a4f404db4630a996f38013c" target="_top" xlink:title=" ">
<polygon fill="white" stroke="#666666" points="783.5,-746.5 707.5,-746.5 707.5,-727.5 783.5,-727.5 783.5,-746.5"/>
<text text-anchor="middle" x="745.5" y="-734.5" font-family="Helvetica,sans-Serif" font-size="10.00">Fmembrane</text>
</a>
</g>
</g>
<!-- Node1&#45;&gt;Node33 -->
<g id="edge47_Node000001_Node000033" class="edge">
<title>Node1&#45;&gt;Node33</title>
<g id="a_edge47_Node000001_Node000033"><a xlink:title=" ">
<path fill="none" stroke="#63b8ff" d="M1051.66,-430.99C1050.06,-497.25 1041.12,-707.83 992,-749 926.92,-803.55 814.67,-766.04 767.91,-746.63"/>
<polygon fill="#63b8ff" stroke="#63b8ff" points="1055.16,-430.75 1051.87,-420.68 1048.16,-430.6 1055.16,-430.75"/>
</a>
</g>
</g>
<!-- Node34 -->
<g id="Node000034" class="node">
<title>Node34</title>
<g id="a_Node000034"><a xlink:href="external_8c.html#a7a02ba548706ce1e1ab6a0215672d277" target="_top" xlink:title=" ">
<polygon fill="white" stroke="#666666" points="947.5,-252.5 888.5,-252.5 888.5,-233.5 947.5,-233.5 947.5,-252.5"/>
<text text-anchor="middle" x="918" y="-240.5" font-family="Helvetica,sans-Serif" font-size="10.00">GhostFix</text>
</a>
</g>
</g>
<!-- Node1&#45;&gt;Node34 -->
<g id="edge49_Node000001_Node000034" class="edge">
<title>Node1&#45;&gt;Node34</title>
<g id="a_edge49_Node000001_Node000034"><a xlink:title=" ">
<path fill="none" stroke="#63b8ff" d="M1049.83,-391.2C1045.21,-358.95 1031.37,-295.25 992,-261 979.89,-250.46 962.56,-245.89 947.83,-243.99"/>
<polygon fill="#63b8ff" stroke="#63b8ff" points="1046.37,-391.72 1051.1,-401.2 1053.31,-390.83 1046.37,-391.72"/>
</a>
</g>
</g>
<!-- Node35 -->
<g id="Node000035" class="node">
<title>Node35</title>
<g id="a_Node000035"><a xlink:href="external_8c.html#a8fbf0cfd3df23a9f35e4a68970730468" target="_top" xlink:title=" ">
<polygon fill="white" stroke="#666666" points="951,-215.5 885,-215.5 885,-196.5 951,-196.5 951,-215.5"/>
<text text-anchor="middle" x="918" y="-203.5" font-family="Helvetica,sans-Serif" font-size="10.00">GhostFree</text>
</a>
</g>
</g>
<!-- Node1&#45;&gt;Node35 -->
<g id="edge50_Node000001_Node000035" class="edge">
<title>Node1&#45;&gt;Node35</title>
<g id="a_edge50_Node000001_Node000035"><a xlink:title=" ">
<path fill="none" stroke="#63b8ff" d="M1051.63,-390.78C1049.78,-352.41 1040.11,-268.91 992,-224 981.03,-213.76 965.18,-209.08 951.06,-207.04"/>
<polygon fill="#63b8ff" stroke="#63b8ff" points="1048.14,-391.27 1051.98,-401.14 1055.14,-391.02 1048.14,-391.27"/>
</a>
</g>
</g>
<!-- Node36 -->
<g id="Node000036" class="node">
<title>Node36</title>
<g id="a_Node000036"><a xlink:href="material_8c.html#aa93862cca1fe83c736219df7d4a91374" target="_top" xlink:title=" ">
<polygon fill="white" stroke="#666666" points="977.5,-740.5 858.5,-740.5 858.5,-721.5 977.5,-721.5 977.5,-740.5"/>
<text text-anchor="middle" x="918" y="-728.5" font-family="Helvetica,sans-Serif" font-size="10.00">MembraneNonLinear</text>
</a>
</g>
</g>
<!-- Node1&#45;&gt;Node36 -->
<g id="edge52_Node000001_Node000036" class="edge">
<title>Node1&#45;&gt;Node36</title>
<g id="a_edge52_Node000001_Node000036"><a xlink:title=" ">
<path fill="none" stroke="#63b8ff" d="M1050.75,-430.71C1046.52,-490.92 1030.82,-670.86 992,-712 987.96,-716.29 983.08,-719.65 977.78,-722.29"/>
<polygon fill="#63b8ff" stroke="#63b8ff" points="1054.25,-430.84 1051.42,-420.63 1047.26,-430.37 1054.25,-430.84"/>
</a>
</g>
</g>
<!-- Node37 -->
<g id="Node000037" class="node">
<title>Node37</title>
<g id="a_Node000037"><a xlink:href="external_8c.html#a81e9d24daf1667886b192e1288fba09f" target="_top" xlink:title=" ">
<polygon fill="white" stroke="#666666" points="964,-178.5 872,-178.5 872,-159.5 964,-159.5 964,-178.5"/>
<text text-anchor="middle" x="918" y="-166.5" font-family="Helvetica,sans-Serif" font-size="10.00">ModifyGhostFix</text>
</a>
</g>
</g>
<!-- Node1&#45;&gt;Node37 -->
<g id="edge56_Node000001_Node000037" class="edge">
<title>Node1&#45;&gt;Node37</title>
<g id="a_edge56_Node000001_Node000037"><a xlink:title=" ">
<path fill="none" stroke="#63b8ff" d="M1052.91,-391.1C1053.74,-347.54 1049.27,-243.14 992,-187 984.45,-179.6 974.37,-175.08 964.11,-172.36"/>
<polygon fill="#63b8ff" stroke="#63b8ff" points="1049.4,-391.14 1052.59,-401.25 1056.4,-391.36 1049.4,-391.14"/>
</a>
</g>
</g>
<!-- Node38 -->
<g id="Node000038" class="node">
<title>Node38</title>
<g id="a_Node000038"><a xlink:href="external_8c.html#a0164a912d0353bac4b5793086ba42620" target="_top" xlink:title=" ">
<polygon fill="white" stroke="#666666" points="967.5,-141.5 868.5,-141.5 868.5,-122.5 967.5,-122.5 967.5,-141.5"/>
<text text-anchor="middle" x="918" y="-129.5" font-family="Helvetica,sans-Serif" font-size="10.00">ModifyGhostFree</text>
</a>
</g>
</g>
<!-- Node1&#45;&gt;Node38 -->
<g id="edge57_Node000001_Node000038" class="edge">
<title>Node1&#45;&gt;Node38</title>
<g id="a_edge57_Node000001_Node000038"><a xlink:title=" ">
<path fill="none" stroke="#63b8ff" d="M1050.09,-391.07C1044.45,-336.18 1026.03,-184.57 992,-150 985.41,-143.3 976.75,-138.95 967.71,-136.15"/>
<polygon fill="#63b8ff" stroke="#63b8ff" points="1046.63,-391.63 1051.11,-401.24 1053.6,-390.94 1046.63,-391.63"/>
</a>
</g>
</g>
<!-- Node39 -->
<g id="Node000039" class="node">
<title>Node39</title>
<g id="a_Node000039"><a xlink:href="material__NonlinearCantilever_8c.html#a9f1f713b70651e8142b65bd4da7573e2" target="_top" xlink:title=" ">
<polygon fill="white" stroke="#666666" points="956.5,-104.5 879.5,-104.5 879.5,-85.5 956.5,-85.5 956.5,-104.5"/>
<text text-anchor="middle" x="918" y="-92.5" font-family="Helvetica,sans-Serif" font-size="10.00">StressLinear</text>
</a>
</g>
</g>
<!-- Node1&#45;&gt;Node39 -->
<g id="edge59_Node000001_Node000039" class="edge">
<title>Node1&#45;&gt;Node39</title>
<g id="a_edge59_Node000001_Node000039"><a xlink:title=" ">
<path fill="none" stroke="#63b8ff" d="M1050.74,-391.46C1046.5,-331.78 1030.75,-153.46 992,-113 982.88,-103.48 969.59,-98.67 956.85,-96.33"/>
<polygon fill="#63b8ff" stroke="#63b8ff" points="1047.25,-391.72 1051.42,-401.46 1054.23,-391.24 1047.25,-391.72"/>
</a>
</g>
</g>
<!-- Node40 -->
<g id="Node000040" class="node">
<title>Node40</title>
<g id="a_Node000040"><a xlink:href="material_8c.html#a431e1e9b5ceabfa4edc2920b70296b35" target="_top" xlink:title=" ">
<polygon fill="white" stroke="#666666" points="956.5,-703.5 879.5,-703.5 879.5,-684.5 956.5,-684.5 956.5,-703.5"/>
<text text-anchor="middle" x="918" y="-691.5" font-family="Helvetica,sans-Serif" font-size="10.00">StressLinear</text>
</a>
</g>
</g>
<!-- Node1&#45;&gt;Node40 -->
<g id="edge60_Node000001_Node000040" class="edge">
<title>Node1&#45;&gt;Node40</title>
<g id="a_edge60_Node000001_Node000040"><a xlink:title=" ">
<path fill="none" stroke="#63b8ff" d="M1050.14,-430.76C1044.57,-485.91 1026.21,-639.71 992,-675 982.79,-684.5 969.49,-689.46 956.75,-691.98"/>
<polygon fill="#63b8ff" stroke="#63b8ff" points="1053.65,-430.87 1051.14,-420.57 1046.68,-430.18 1053.65,-430.87"/>
</a>
</g>
</g>
<!-- Node41 -->
<g id="Node000041" class="node">
<title>Node41</title>
<g id="a_Node000041"><a xlink:href="material_8c.html#aad0d0c11a159f8021feb99ddee475d31" target="_top" xlink:title=" ">
<polygon fill="white" stroke="#666666" points="975,-629.5 861,-629.5 861,-610.5 975,-610.5 975,-629.5"/>
<text text-anchor="middle" x="918" y="-617.5" font-family="Helvetica,sans-Serif" font-size="10.00">StressManufactured</text>
</a>
</g>
</g>
<!-- Node1&#45;&gt;Node41 -->
<g id="edge63_Node000001_Node000041" class="edge">
<title>Node1&#45;&gt;Node41</title>
<g id="a_edge63_Node000001_Node000041"><a xlink:title=" ">
<path fill="none" stroke="#63b8ff" d="M1051.24,-430.69C1048.74,-468.1 1037.99,-549.82 992,-596 985.69,-602.33 977.69,-607 969.3,-610.43"/>
<polygon fill="#63b8ff" stroke="#63b8ff" points="1054.74,-430.77 1051.79,-420.59 1047.75,-430.39 1054.74,-430.77"/>
</a>
</g>
</g>
<!-- Node42 -->
<g id="Node000042" class="node">
<title>Node42</title>
<g id="a_Node000042"><a xlink:href="material__NonlinearCantilever_8c.html#a514540fed999755d181cbe5b643c356f" target="_top" xlink:title=" ">
<polygon fill="white" stroke="#666666" points="966,-67.5 870,-67.5 870,-48.5 966,-48.5 966,-67.5"/>
<text text-anchor="middle" x="918" y="-55.5" font-family="Helvetica,sans-Serif" font-size="10.00">StressNonLinear</text>
</a>
</g>
</g>
<!-- Node1&#45;&gt;Node42 -->
<g id="edge65_Node000001_Node000042" class="edge">
<title>Node1&#45;&gt;Node42</title>
<g id="a_edge65_Node000001_Node000042"><a xlink:title=" ">
<path fill="none" stroke="#63b8ff" d="M1051.2,-391.19C1048.19,-326.4 1035.36,-122.26 992,-76 985.13,-68.67 975.78,-64.12 966.08,-61.34"/>
<polygon fill="#63b8ff" stroke="#63b8ff" points="1047.71,-391.45 1051.64,-401.29 1054.7,-391.15 1047.71,-391.45"/>
</a>
</g>
</g>
<!-- Node43 -->
<g id="Node000043" class="node">
<title>Node43</title>
<g id="a_Node000043"><a xlink:href="external_8c.html#ac500c8a702e14599bf1bbff4202a7a6a" target="_top" xlink:title=" ">
<polygon fill="white" stroke="#666666" points="992,-30 844,-30 844,0 992,0 992,-30"/>
<text text-anchor="start" x="852" y="-18" font-family="Helvetica,sans-Serif" font-size="10.00">SurfacePartialConstNormal</text>
<text text-anchor="middle" x="918" y="-7" font-family="Helvetica,sans-Serif" font-size="10.00">Pressure</text>
</a>
</g>
</g>
<!-- Node1&#45;&gt;Node43 -->
<g id="edge66_Node000001_Node000043" class="edge">
<title>Node1&#45;&gt;Node43</title>
<g id="a_edge66_Node000001_Node000043"><a xlink:title=" ">
<path fill="none" stroke="#63b8ff" d="M1051.44,-390.99C1049.1,-321.63 1037.97,-92.86 992,-39 989.06,-35.55 985.61,-32.59 981.84,-30.06"/>
<polygon fill="#63b8ff" stroke="#63b8ff" points="1047.95,-391.47 1051.76,-401.36 1054.95,-391.26 1047.95,-391.47"/>
</a>
</g>
</g>
<!-- Node3 -->
<g id="Node000003" class="node">
<title>Node3</title>
<g id="a_Node000003"><a xlink:href="main_8c.html#a9a070a6f408cadb404b0ee7fbc74c576" target="_top" xlink:title=" ">
<polygon fill="white" stroke="#666666" points="464.5,-652.5 360.5,-652.5 360.5,-633.5 464.5,-633.5 464.5,-652.5"/>
<text text-anchor="middle" x="412.5" y="-640.5" font-family="Helvetica,sans-Serif" font-size="10.00">FormFunctionFEM</text>
</a>
</g>
</g>
<!-- Node2&#45;&gt;Node3 -->
<g id="edge2_Node000002_Node000003" class="edge">
<title>Node2&#45;&gt;Node3</title>
<g id="a_edge2_Node000002_Node000003"><a xlink:title=" ">
<path fill="none" stroke="#63b8ff" d="M553.74,-583.66C533.26,-595.62 502.91,-612.36 475,-624 466.54,-627.53 457.19,-630.74 448.39,-633.49"/>
<polygon fill="#63b8ff" stroke="#63b8ff" points="555.57,-586.64 562.4,-578.54 552.01,-580.62 555.57,-586.64"/>
</a>
</g>
</g>
<!-- Node5 -->
<g id="Node000005" class="node">
<title>Node5</title>
<g id="a_Node000005"><a xlink:href="main_8c.html#ad3a8e8f5b2e1871122784b2cd3dc1c8c" target="_top" xlink:title=" ">
<polygon fill="white" stroke="#666666" points="440,-615.5 385,-615.5 385,-596.5 440,-596.5 440,-615.5"/>
<text text-anchor="middle" x="412.5" y="-603.5" font-family="Helvetica,sans-Serif" font-size="10.00">FormRK</text>
</a>
</g>
</g>
<!-- Node2&#45;&gt;Node5 -->
<g id="edge4_Node000002_Node000005" class="edge">
<title>Node2&#45;&gt;Node5</title>
<g id="a_edge4_Node000002_Node000005"><a xlink:title=" ">
<path fill="none" stroke="#63b8ff" d="M531.41,-579.48C501.9,-586.12 464.81,-594.46 440.19,-600"/>
<polygon fill="#63b8ff" stroke="#63b8ff" points="532.5,-582.82 541.49,-577.21 530.97,-575.99 532.5,-582.82"/>
</a>
</g>
</g>
<!-- Node6 -->
<g id="Node000006" class="node">
<title>Node6</title>
<g id="a_Node000006"><a xlink:href="main_8c.html#a636a8f7f82b7bc4dabb749e9c7fe75a9" target="_top" xlink:title=" ">
<polygon fill="white" stroke="#666666" points="428.5,-528.5 396.5,-528.5 396.5,-509.5 428.5,-509.5 428.5,-528.5"/>
<text text-anchor="middle" x="412.5" y="-516.5" font-family="Helvetica,sans-Serif" font-size="10.00">Init</text>
</a>
</g>
</g>
<!-- Node2&#45;&gt;Node6 -->
<g id="edge6_Node000002_Node000006" class="edge">
<title>Node2&#45;&gt;Node6</title>
<g id="a_edge6_Node000002_Node000006"><a xlink:title=" ">
<path fill="none" stroke="#63b8ff" d="M536.71,-556.45C501.64,-545.79 453.23,-531.08 428.85,-523.67"/>
<polygon fill="#63b8ff" stroke="#63b8ff" points="536.09,-559.92 546.67,-559.48 538.12,-553.22 536.09,-559.92"/>
</a>
</g>
</g>
<!-- Node7 -->
<g id="Node000007" class="node">
<title>Node7</title>
<g id="a_Node000007"><a xlink:href="inverse_8c.html#a8ccb34384a9c46d52bb413dcd177c67b" target="_top" xlink:title=" ">
<polygon fill="white" stroke="#666666" points="452.5,-578.5 372.5,-578.5 372.5,-559.5 452.5,-559.5 452.5,-578.5"/>
<text text-anchor="middle" x="412.5" y="-566.5" font-family="Helvetica,sans-Serif" font-size="10.00">ResidualCalc</text>
</a>
</g>
</g>
<!-- Node2&#45;&gt;Node7 -->
<g id="edge8_Node000002_Node000007" class="edge">
<title>Node2&#45;&gt;Node7</title>
<g id="a_edge8_Node000002_Node000007"><a xlink:title=" ">
<path fill="none" stroke="#63b8ff" d="M531.23,-569C506.44,-569 476.34,-569 452.78,-569"/>
<polygon fill="#63b8ff" stroke="#63b8ff" points="531.49,-572.5 541.49,-569 531.49,-565.5 531.49,-572.5"/>
</a>
</g>
</g>
<!-- Node4 -->
<g id="Node000004" class="node">
<title>Node4</title>
<g id="a_Node000004"><a xlink:href="main_8c.html#a3c04138a5bfe5d72780bb7e82a18e627" target="_top" xlink:title=" ">
<polygon fill="white" stroke="#666666" points="41,-674.5 0,-674.5 0,-655.5 41,-655.5 41,-674.5"/>
<text text-anchor="middle" x="20.5" y="-662.5" font-family="Helvetica,sans-Serif" font-size="10.00">main</text>
</a>
</g>
</g>
<!-- Node3&#45;&gt;Node4 -->
<g id="edge3_Node000003_Node000004" class="edge">
<title>Node3&#45;&gt;Node4</title>
<g id="a_edge3_Node000003_Node000004"><a xlink:title=" ">
<path fill="none" stroke="#63b8ff" d="M355.82,-657.17C353.8,-658.34 351.85,-659.62 350,-661 326.3,-678.72 339.97,-702.82 314,-717 221.55,-767.47 174.96,-755.72 77,-717 55.39,-708.46 37.26,-687.08 28.04,-674.56"/>
<polygon fill="#63b8ff" stroke="#63b8ff" points="357.66,-660.16 365.09,-652.6 354.57,-653.88 357.66,-660.16"/>
</a>
</g>
</g>
<!-- Node5&#45;&gt;Node4 -->
<g id="edge5_Node000005_Node000004" class="edge">
<title>Node5&#45;&gt;Node4</title>
<g id="a_edge5_Node000005_Node000004"><a xlink:title=" ">
<path fill="none" stroke="#63b8ff" d="M374.96,-611.94C366.18,-614.6 357.25,-618.44 350,-624 325.62,-642.68 340.79,-667.96 314,-683 223.27,-733.93 90.84,-692 41.23,-673.08"/>
<polygon fill="#63b8ff" stroke="#63b8ff" points="375.91,-615.31 384.71,-609.42 374.15,-608.54 375.91,-615.31"/>
</a>
</g>
</g>
<!-- Node6&#45;&gt;Node4 -->
<g id="edge7_Node000006_Node000004" class="edge">
<title>Node6&#45;&gt;Node4</title>
<g id="a_edge7_Node000006_Node000004"><a xlink:title=" ">
<path fill="none" stroke="#63b8ff" d="M392.55,-502.87C373.94,-488.17 344.05,-467.5 314,-459 212.65,-430.31 160.61,-394.93 77,-459 44.66,-483.78 26.92,-618.11 22.57,-655.39"/>
<polygon fill="#63b8ff" stroke="#63b8ff" points="390.53,-505.74 400.49,-509.33 394.94,-500.3 390.53,-505.74"/>
</a>
</g>
</g>
<!-- Node8 -->
<g id="Node000008" class="node">
<title>Node8</title>
<g id="a_Node000008"><a xlink:href="mlp_8c.html#a95587eada79194109e216fe2d1536aa5" target="_top" xlink:title=" ">
<polygon fill="white" stroke="#666666" points="295,-487.5 224,-487.5 224,-468.5 295,-468.5 295,-487.5"/>
<text text-anchor="middle" x="259.5" y="-475.5" font-family="Helvetica,sans-Serif" font-size="10.00">compute_R</text>
</a>
</g>
</g>
<!-- Node7&#45;&gt;Node8 -->
<g id="edge9_Node000007_Node000008" class="edge">
<title>Node7&#45;&gt;Node8</title>
<g id="a_edge9_Node000007_Node000008"><a xlink:title=" ">
<path fill="none" stroke="#63b8ff" d="M379.23,-555.04C369.38,-550.05 358.83,-543.92 350,-537 330.92,-522.04 334.19,-509.44 314,-496 308.29,-492.2 301.7,-489.13 295.14,-486.68"/>
<polygon fill="#63b8ff" stroke="#63b8ff" points="377.86,-558.26 388.38,-559.46 380.9,-551.96 377.86,-558.26"/>
</a>
</g>
</g>
<!-- Node10 -->
<g id="Node000010" class="node">
<title>Node10</title>
<g id="a_Node000010"><a xlink:href="inverse_8c.html#a5a46d0c408c2a4905101ca00ed320825" target="_top" xlink:title=" ">
<polygon fill="white" stroke="#666666" points="300,-561.5 219,-561.5 219,-542.5 300,-542.5 300,-561.5"/>
<text text-anchor="middle" x="259.5" y="-549.5" font-family="Helvetica,sans-Serif" font-size="10.00">FungJacobian</text>
</a>
</g>
</g>
<!-- Node7&#45;&gt;Node10 -->
<g id="edge11_Node000007_Node000010" class="edge">
<title>Node7&#45;&gt;Node10</title>
<g id="a_edge11_Node000007_Node000010"><a xlink:title=" ">
<path fill="none" stroke="#63b8ff" d="M362.01,-563.43C341.93,-561.17 319.05,-558.59 300.11,-556.46"/>
<polygon fill="#63b8ff" stroke="#63b8ff" points="361.89,-566.94 372.22,-564.58 362.68,-559.98 361.89,-566.94"/>
</a>
</g>
</g>
<!-- Node11 -->
<g id="Node000011" class="node">
<title>Node11</title>
<g id="a_Node000011"><a xlink:href="inverse_8c.html#a63c0a7ac76584f0dab82764698b5d878" target="_top" xlink:title=" ">
<polygon fill="white" stroke="#666666" points="154,-618.5 92,-618.5 92,-599.5 154,-599.5 154,-618.5"/>
<text text-anchor="middle" x="123" y="-606.5" font-family="Helvetica,sans-Serif" font-size="10.00">InvSolver</text>
</a>
</g>
</g>
<!-- Node7&#45;&gt;Node11 -->
<g id="edge18_Node000007_Node000011" class="edge">
<title>Node7&#45;&gt;Node11</title>
<g id="a_edge18_Node000007_Node000011"><a xlink:title=" ">
<path fill="none" stroke="#63b8ff" d="M362.48,-575.82C302.77,-584.13 203.78,-597.9 154.22,-604.8"/>
<polygon fill="#63b8ff" stroke="#63b8ff" points="363.01,-579.28 372.43,-574.44 362.04,-572.35 363.01,-579.28"/>
</a>
</g>
</g>
<!-- Node12 -->
<g id="Node000012" class="node">
<title>Node12</title>
<g id="a_Node000012"><a xlink:href="inverse_8c.html#a6dcb60291ae68ad8fa0ccea39658279a" target="_top" xlink:title=" ">
<polygon fill="white" stroke="#666666" points="308.5,-524.5 210.5,-524.5 210.5,-505.5 308.5,-505.5 308.5,-524.5"/>
<text text-anchor="middle" x="259.5" y="-512.5" font-family="Helvetica,sans-Serif" font-size="10.00">FungUniJacobian</text>
</a>
</g>
</g>
<!-- Node7&#45;&gt;Node12 -->
<g id="edge14_Node000007_Node000012" class="edge">
<title>Node7&#45;&gt;Node12</title>
<g id="a_edge14_Node000007_Node000012"><a xlink:title=" ">
<path fill="none" stroke="#63b8ff" d="M376.8,-555.91C358.22,-548.97 334.91,-540.38 314,-533 306.05,-530.2 297.41,-527.25 289.43,-524.56"/>
<polygon fill="#63b8ff" stroke="#63b8ff" points="375.73,-559.24 386.32,-559.47 378.18,-552.69 375.73,-559.24"/>
</a>
</g>
</g>
<!-- Node13 -->
<g id="Node000013" class="node">
<title>Node13</title>
<g id="a_Node000013"><a xlink:href="inverse_8c.html#ad779d411aa186efcdfb8e192c52d04b0" target="_top" xlink:title=" ">
<polygon fill="white" stroke="#666666" points="314,-674.5 205,-674.5 205,-655.5 314,-655.5 314,-674.5"/>
<text text-anchor="middle" x="259.5" y="-662.5" font-family="Helvetica,sans-Serif" font-size="10.00">grad_R_wrt_E_field</text>
</a>
</g>
</g>
<!-- Node7&#45;&gt;Node13 -->
<g id="edge16_Node000007_Node000013" class="edge">
<title>Node7&#45;&gt;Node13</title>
<g id="a_edge16_Node000007_Node000013"><a xlink:title=" ">
<path fill="none" stroke="#63b8ff" d="M362.8,-579.47C358.24,-581.54 353.88,-584.03 350,-587 325.62,-605.68 337.85,-626.63 314,-646 309.26,-649.85 303.67,-652.95 297.93,-655.44"/>
<polygon fill="#63b8ff" stroke="#63b8ff" points="364.3,-582.64 372.35,-575.76 361.76,-576.12 364.3,-582.64"/>
</a>
</g>
</g>
<!-- Node14 -->
<g id="Node000014" class="node">
<title>Node14</title>
<g id="a_Node000014"><a xlink:href="inverse_8c.html#a9c6b1db7cc8e3f7771140e7920429ab3" target="_top" xlink:title=" ">
<polygon fill="white" stroke="#666666" points="288.5,-637.5 230.5,-637.5 230.5,-618.5 288.5,-618.5 288.5,-637.5"/>
<text text-anchor="middle" x="259.5" y="-625.5" font-family="Helvetica,sans-Serif" font-size="10.00">Jacobian</text>
</a>
</g>
</g>
<!-- Node7&#45;&gt;Node14 -->
<g id="edge19_Node000007_Node000014" class="edge">
<title>Node7&#45;&gt;Node14</title>
<g id="a_edge19_Node000007_Node000014"><a xlink:title=" ">
<path fill="none" stroke="#63b8ff" d="M365.81,-581.5C360.44,-583.23 355.07,-585.07 350,-587 333.46,-593.28 330.07,-596.6 314,-604 303.55,-608.81 291.9,-614.05 282.15,-618.4"/>
<polygon fill="#63b8ff" stroke="#63b8ff" points="366.89,-584.83 375.41,-578.54 364.83,-578.14 366.89,-584.83"/>
</a>
</g>
</g>
<!-- Node9 -->
<g id="Node000009" class="node">
<title>Node9</title>
<g id="a_Node000009"><a xlink:href="mlp_8c.html#a2aeef94f6b174527c5b7983c25229818" target="_top" xlink:title=" ">
<polygon fill="white" stroke="#666666" points="169,-487.5 77,-487.5 77,-468.5 169,-468.5 169,-487.5"/>
<text text-anchor="middle" x="123" y="-475.5" font-family="Helvetica,sans-Serif" font-size="10.00">backward_pass</text>
</a>
</g>
</g>
<!-- Node8&#45;&gt;Node9 -->
<g id="edge10_Node000008_Node000009" class="edge">
<title>Node8&#45;&gt;Node9</title>
<g id="a_edge10_Node000008_Node000009"><a xlink:title=" ">
<path fill="none" stroke="#63b8ff" d="M213.74,-478C199.41,-478 183.54,-478 169.18,-478"/>
<polygon fill="#63b8ff" stroke="#63b8ff" points="213.86,-481.5 223.86,-478 213.86,-474.5 213.86,-481.5"/>
</a>
</g>
</g>
<!-- Node10&#45;&gt;Node11 -->
<g id="edge12_Node000010_Node000011" class="edge">
<title>Node10&#45;&gt;Node11</title>
<g id="a_edge12_Node000010_Node000011"><a xlink:title=" ">
<path fill="none" stroke="#63b8ff" d="M226.69,-565.48C202.06,-575.92 168.53,-590.13 146.59,-599.43"/>
<polygon fill="#63b8ff" stroke="#63b8ff" points="228.15,-568.67 235.99,-561.54 225.41,-562.22 228.15,-568.67"/>
</a>
</g>
</g>
<!-- Node11&#45;&gt;Node4 -->
<g id="edge13_Node000011_Node000004" class="edge">
<title>Node11&#45;&gt;Node4</title>
<g id="a_edge13_Node000011_Node000004"><a xlink:title=" ">
<path fill="none" stroke="#63b8ff" d="M95.66,-623.68C77.71,-633.68 54.45,-646.64 38.81,-655.36"/>
<polygon fill="#63b8ff" stroke="#63b8ff" points="97.46,-626.68 104.49,-618.75 94.06,-620.56 97.46,-626.68"/>
</a>
</g>
</g>
<!-- Node12&#45;&gt;Node11 -->
<g id="edge15_Node000012_Node000011" class="edge">
<title>Node12&#45;&gt;Node11</title>
<g id="a_edge15_Node000012_Node000011"><a xlink:title=" ">
<path fill="none" stroke="#63b8ff" d="M213.76,-528.4C210.72,-529.81 207.78,-531.34 205,-533 174.05,-551.51 145.1,-583.53 131.74,-599.45"/>
<polygon fill="#63b8ff" stroke="#63b8ff" points="215.13,-531.62 223.01,-524.54 212.43,-525.16 215.13,-531.62"/>
</a>
</g>
</g>
<!-- Node13&#45;&gt;Node11 -->
<g id="edge17_Node000013_Node000011" class="edge">
<title>Node13&#45;&gt;Node11</title>
<g id="a_edge17_Node000013_Node000011"><a xlink:title=" ">
<path fill="none" stroke="#63b8ff" d="M220.82,-652.08C215.48,-650.12 210.08,-648.06 205,-646 183.79,-637.41 160.03,-626.39 143.76,-618.61"/>
<polygon fill="#63b8ff" stroke="#63b8ff" points="219.69,-655.4 230.28,-655.5 222.06,-648.81 219.69,-655.4"/>
</a>
</g>
</g>
<!-- Node14&#45;&gt;Node11 -->
<g id="edge20_Node000014_Node000011" class="edge">
<title>Node14&#45;&gt;Node11</title>
<g id="a_edge20_Node000014_Node000011"><a xlink:title=" ">
<path fill="none" stroke="#63b8ff" d="M220.12,-622.58C199.14,-619.61 173.53,-616 154.03,-613.24"/>
<polygon fill="#63b8ff" stroke="#63b8ff" points="219.91,-626.08 230.3,-624.02 220.89,-619.15 219.91,-626.08"/>
</a>
</g>
</g>
<!-- Node16 -->
<g id="Node000016" class="node">
<title>Node16</title>
<g id="a_Node000016"><a xlink:href="muscle__activation_8c.html#a19d89612f2544ef7f352badd7cf1f337" target="_top" xlink:title=" ">
<polygon fill="white" stroke="#666666" points="808,-709 683,-709 683,-679 808,-679 808,-709"/>
<text text-anchor="start" x="691" y="-697" font-family="Helvetica,sans-Serif" font-size="10.00">compute_mid_surface</text>
<text text-anchor="middle" x="745.5" y="-686" font-family="Helvetica,sans-Serif" font-size="10.00">_el_stress_after_act</text>
</a>
</g>
</g>
<!-- Node15&#45;&gt;Node16 -->
<g id="edge22_Node000015_Node000016" class="edge">
<title>Node15&#45;&gt;Node16</title>
<g id="a_edge22_Node000015_Node000016"><a xlink:title=" ">
<path fill="none" stroke="#63b8ff" d="M863.09,-668.7C845.66,-672.48 826.2,-676.7 808.25,-680.6"/>
<polygon fill="#63b8ff" stroke="#63b8ff" points="864.06,-672.07 873.09,-666.53 862.58,-665.23 864.06,-672.07"/>
</a>
</g>
</g>
<!-- Node15&#45;&gt;Node19 -->
<g id="edge25_Node000015_Node000019" class="edge">
<title>Node15&#45;&gt;Node19</title>
<g id="a_edge25_Node000015_Node000019"><a xlink:title=" ">
<path fill="none" stroke="#63b8ff" d="M854.93,-651.9C828.38,-649.72 798.59,-647.28 776.96,-645.5"/>
<polygon fill="#63b8ff" stroke="#63b8ff" points="854.67,-655.39 864.92,-652.72 855.24,-648.42 854.67,-655.39"/>
</a>
</g>
</g>
<!-- Node17 -->
<g id="Node000017" class="node">
<title>Node17</title>
<g id="a_Node000017"><a xlink:href="muscle__activation_8c.html#a3f9fadbc31e4872a8519e6bfdecf7b8f" target="_top" xlink:title=" ">
<polygon fill="white" stroke="#666666" points="647,-717 511,-717 511,-687 647,-687 647,-717"/>
<text text-anchor="start" x="519" y="-705" font-family="Helvetica,sans-Serif" font-size="10.00">update_mid_surf_elastic</text>
<text text-anchor="middle" x="579" y="-694" font-family="Helvetica,sans-Serif" font-size="10.00">_stress</text>
</a>
</g>
</g>
<!-- Node16&#45;&gt;Node17 -->
<g id="edge23_Node000016_Node000017" class="edge">
<title>Node16&#45;&gt;Node17</title>
<g id="a_edge23_Node000016_Node000017"><a xlink:title=" ">
<path fill="none" stroke="#63b8ff" d="M672.54,-697.5C664.06,-697.91 655.43,-698.33 647.03,-698.74"/>
<polygon fill="#63b8ff" stroke="#63b8ff" points="672.96,-700.98 682.78,-697 672.62,-693.99 672.96,-700.98"/>
</a>
</g>
</g>
<!-- Node18 -->
<g id="Node000018" class="node">
<title>Node18</title>
<g id="a_Node000018"><a xlink:href="muscle__activation_8c.html#a5794b91b41d38582fd698b653b53330e" target="_top" xlink:title=" ">
<polygon fill="white" stroke="#666666" points="475,-726.5 350,-726.5 350,-707.5 475,-707.5 475,-726.5"/>
<text text-anchor="middle" x="412.5" y="-714.5" font-family="Helvetica,sans-Serif" font-size="10.00">UpdateFInternalAftAct</text>
</a>
</g>
</g>
<!-- Node17&#45;&gt;Node18 -->
<g id="edge24_Node000017_Node000018" class="edge">
<title>Node17&#45;&gt;Node18</title>
<g id="a_edge24_Node000017_Node000018"><a xlink:title=" ">
<path fill="none" stroke="#63b8ff" d="M500.66,-709.05C492.13,-709.83 483.53,-710.61 475.23,-711.37"/>
<polygon fill="#63b8ff" stroke="#63b8ff" points="500.98,-712.54 510.62,-708.14 500.34,-705.57 500.98,-712.54"/>
</a>
</g>
</g>
<!-- Node20 -->
<g id="Node000020" class="node">
<title>Node20</title>
<g id="a_Node000020"><a xlink:href="main_8c.html#a59ccabe25c63661e6e66b44209b0f162" target="_top" xlink:title=" ">
<polygon fill="white" stroke="#666666" points="609,-652.5 549,-652.5 549,-633.5 609,-633.5 609,-652.5"/>
<text text-anchor="middle" x="579" y="-640.5" font-family="Helvetica,sans-Serif" font-size="10.00">FInternal</text>
</a>
</g>
</g>
<!-- Node19&#45;&gt;Node20 -->
<g id="edge26_Node000019_Node000020" class="edge">
<title>Node19&#45;&gt;Node20</title>
<g id="a_edge26_Node000019_Node000020"><a xlink:title=" ">
<path fill="none" stroke="#63b8ff" d="M703.98,-643C674.58,-643 635.51,-643 609.15,-643"/>
<polygon fill="#63b8ff" stroke="#63b8ff" points="704.33,-646.5 714.33,-643 704.33,-639.5 704.33,-646.5"/>
</a>
</g>
</g>
<!-- Node20&#45;&gt;Node3 -->
<g id="edge28_Node000020_Node000003" class="edge">
<title>Node20&#45;&gt;Node3</title>
<g id="a_edge28_Node000020_Node000003"><a xlink:title=" ">
<path fill="none" stroke="#63b8ff" d="M538.88,-643C516.62,-643 488.49,-643 464.51,-643"/>
<polygon fill="#63b8ff" stroke="#63b8ff" points="538.97,-646.5 548.97,-643 538.97,-639.5 538.97,-646.5"/>
</a>
</g>
</g>
<!-- Node20&#45;&gt;Node5 -->
<g id="edge29_Node000020_Node000005" class="edge">
<title>Node20&#45;&gt;Node5</title>
<g id="a_edge29_Node000020_Node000005"><a xlink:title=" ">
<path fill="none" stroke="#63b8ff" d="M539.08,-634.25C508.55,-627.38 466.87,-618 440.07,-611.98"/>
<polygon fill="#63b8ff" stroke="#63b8ff" points="538.45,-637.69 548.97,-636.47 539.98,-630.86 538.45,-637.69"/>
</a>
</g>
</g>
<!-- Node20&#45;&gt;Node7 -->
<g id="edge30_Node000020_Node000007" class="edge">
<title>Node20&#45;&gt;Node7</title>
<g id="a_edge30_Node000020_Node000007"><a xlink:title=" ">
<path fill="none" stroke="#63b8ff" d="M554.17,-628.14C533.74,-615.88 503.23,-598.65 475,-587 467.39,-583.86 459.04,-581.03 451.02,-578.6"/>
<polygon fill="#63b8ff" stroke="#63b8ff" points="552.44,-631.19 562.8,-633.39 556.08,-625.21 552.44,-631.19"/>
</a>
</g>
</g>
<!-- Node21 -->
<g id="Node000021" class="node">
<title>Node21</title>
<g id="a_Node000021"><a xlink:href="main_8c.html#aac0575d69dba68d64a6c0f65c2d8f635" target="_top" xlink:title=" ">
<polygon fill="white" stroke="#666666" points="439.5,-689.5 385.5,-689.5 385.5,-670.5 439.5,-670.5 439.5,-689.5"/>
<text text-anchor="middle" x="412.5" y="-677.5" font-family="Helvetica,sans-Serif" font-size="10.00">Contact</text>
</a>
</g>
</g>
<!-- Node20&#45;&gt;Node21 -->
<g id="edge27_Node000020_Node000021" class="edge">
<title>Node20&#45;&gt;Node21</title>
<g id="a_edge27_Node000020_Node000021"><a xlink:title=" ">
<path fill="none" stroke="#63b8ff" d="M539.02,-651.77C508.29,-658.68 466.3,-668.12 439.53,-674.14"/>
<polygon fill="#63b8ff" stroke="#63b8ff" points="539.98,-655.14 548.97,-649.53 538.45,-648.31 539.98,-655.14"/>
</a>
</g>
</g>
<!-- Node23&#45;&gt;Node24 -->
<g id="edge33_Node000023_Node000024" class="edge">
<title>Node23&#45;&gt;Node24</title>
<g id="a_edge33_Node000023_Node000024"><a xlink:title=" ">
<path fill="none" stroke="#63b8ff" d="M859.96,-420.63C837.72,-416.98 812.58,-412.85 791.62,-409.41"/>
<polygon fill="#63b8ff" stroke="#63b8ff" points="859.52,-424.11 869.96,-422.27 860.66,-417.2 859.52,-424.11"/>
</a>
</g>
</g>
<!-- Node25 -->
<g id="Node000025" class="node">
<title>Node25</title>
<g id="a_Node000025"><a xlink:href="contact_8c.html#a0173ae94a0fbdb205657fab39e4ac283" target="_top" xlink:title=" ">
<polygon fill="white" stroke="#666666" points="611.5,-411.5 546.5,-411.5 546.5,-392.5 611.5,-392.5 611.5,-411.5"/>
<text text-anchor="middle" x="579" y="-399.5" font-family="Helvetica,sans-Serif" font-size="10.00">Fcontactij</text>
</a>
</g>
</g>
<!-- Node24&#45;&gt;Node25 -->
<g id="edge34_Node000024_Node000025" class="edge">
<title>Node24&#45;&gt;Node25</title>
<g id="a_edge34_Node000024_Node000025"><a xlink:title=" ">
<path fill="none" stroke="#63b8ff" d="M689.09,-402C663.32,-402 633.6,-402 611.7,-402"/>
<polygon fill="#63b8ff" stroke="#63b8ff" points="689.11,-405.5 699.11,-402 689.11,-398.5 689.11,-405.5"/>
</a>
</g>
</g>
<!-- Node26 -->
<g id="Node000026" class="node">
<title>Node26</title>
<g id="a_Node000026"><a xlink:href="contact_8c.html#a06edbb0f42476ba499bbf2fadb0881c0" target="_top" xlink:title=" ">
<polygon fill="white" stroke="#666666" points="152.5,-411.5 93.5,-411.5 93.5,-392.5 152.5,-392.5 152.5,-411.5"/>
<text text-anchor="middle" x="123" y="-399.5" font-family="Helvetica,sans-Serif" font-size="10.00">Fcontact</text>
</a>
</g>
</g>
<!-- Node25&#45;&gt;Node26 -->
<g id="edge35_Node000025_Node000026" class="edge">
<title>Node25&#45;&gt;Node26</title>
<g id="a_edge35_Node000025_Node000026"><a xlink:title=" ">
<path fill="none" stroke="#63b8ff" d="M536.21,-402C445.07,-402 230.39,-402 152.7,-402"/>
<polygon fill="#63b8ff" stroke="#63b8ff" points="536.44,-405.5 546.44,-402 536.44,-398.5 536.44,-405.5"/>
</a>
</g>
</g>
<!-- Node26&#45;&gt;Node4 -->
<g id="edge36_Node000026_Node000004" class="edge">
<title>Node26&#45;&gt;Node4</title>
<g id="a_edge36_Node000026_Node000004"><a xlink:title=" ">
<path fill="none" stroke="#63b8ff" d="M86.36,-417.05C82.84,-419.63 79.61,-422.6 77,-426 20.73,-499.33 19.98,-620.07 21.05,-655.16"/>
<polygon fill="#63b8ff" stroke="#63b8ff" points="88.31,-419.95 94.96,-411.7 84.62,-414.01 88.31,-419.95"/>
</a>
</g>
</g>
<!-- Node27&#45;&gt;Node19 -->
<g id="edge38_Node000027_Node000019" class="edge">
<title>Node27&#45;&gt;Node19</title>
<g id="a_edge38_Node000027_Node000019"><a xlink:title=" ">
<path fill="none" stroke="#63b8ff" d="M870.37,-556.71C861.39,-559.88 852.23,-563.65 844,-568 808.89,-586.58 773.33,-617.75 756.51,-633.41"/>
<polygon fill="#63b8ff" stroke="#63b8ff" points="871.61,-559.99 879.99,-553.5 869.4,-553.35 871.61,-559.99"/>
</a>
</g>
</g>
<!-- Node27&#45;&gt;Node28 -->
<g id="edge39_Node000027_Node000028" class="edge">
<title>Node27&#45;&gt;Node28</title>
<g id="a_edge39_Node000027_Node000028"><a xlink:title=" ">
<path fill="none" stroke="#63b8ff" d="M841.88,-532.98C814.01,-528.9 784.68,-524.6 766.02,-521.86"/>
<polygon fill="#63b8ff" stroke="#63b8ff" points="841.65,-536.49 852.05,-534.48 842.67,-529.56 841.65,-536.49"/>
</a>
</g>
</g>
<!-- Node29 -->
<g id="Node000029" class="node">
<title>Node29</title>
<g id="a_Node000029"><a xlink:href="bending_8c.html#a2cd7ef6a41a0e3d6757965f9336e457a" target="_top" xlink:title=" ">
<polygon fill="white" stroke="#666666" points="609.5,-528.5 548.5,-528.5 548.5,-509.5 609.5,-509.5 609.5,-528.5"/>
<text text-anchor="middle" x="579" y="-516.5" font-family="Helvetica,sans-Serif" font-size="10.00">InitGhost</text>
</a>
</g>
</g>
<!-- Node28&#45;&gt;Node29 -->
<g id="edge40_Node000028_Node000029" class="edge">
<title>Node28&#45;&gt;Node29</title>
<g id="a_edge40_Node000028_Node000029"><a xlink:title=" ">
<path fill="none" stroke="#63b8ff" d="M714.8,-519C685.06,-519 639.55,-519 609.78,-519"/>
<polygon fill="#63b8ff" stroke="#63b8ff" points="714.98,-522.5 724.98,-519 714.98,-515.5 714.98,-522.5"/>
</a>
</g>
</g>
<!-- Node29&#45;&gt;Node6 -->
<g id="edge41_Node000029_Node000006" class="edge">
<title>Node29&#45;&gt;Node6</title>
<g id="a_edge41_Node000029_Node000006"><a xlink:title=" ">
<path fill="none" stroke="#63b8ff" d="M537.78,-519C502.57,-519 453.32,-519 428.73,-519"/>
<polygon fill="#63b8ff" stroke="#63b8ff" points="538.21,-522.5 548.21,-519 538.21,-515.5 538.21,-522.5"/>
</a>
</g>
</g>
<!-- Node32&#45;&gt;Node4 -->
<g id="edge45_Node000032_Node000004" class="edge">
<title>Node32&#45;&gt;Node4</title>
<g id="a_edge45_Node000032_Node000004"><a xlink:title=" ">
<path fill="none" stroke="#63b8ff" d="M90.66,-765.36C85.79,-762.32 81.04,-758.86 77,-755 51.65,-730.78 33.23,-692.6 25.51,-674.78"/>
<polygon fill="#63b8ff" stroke="#63b8ff" points="89.01,-768.45 99.43,-770.34 92.47,-762.36 89.01,-768.45"/>
</a>
</g>
</g>
<!-- Node33&#45;&gt;Node20 -->
<g id="edge48_Node000033_Node000020" class="edge">
<title>Node33&#45;&gt;Node20</title>
<g id="a_edge48_Node000033_Node000020"><a xlink:title=" ">
<path fill="none" stroke="#63b8ff" d="M697.87,-725.57C692.66,-723.44 687.59,-720.93 683,-718 662.85,-705.12 665.9,-692.66 647,-678 633.62,-667.62 616.71,-658.82 603.23,-652.63"/>
<polygon fill="#63b8ff" stroke="#63b8ff" points="696.71,-728.88 707.3,-729.03 699.11,-722.3 696.71,-728.88"/>
</a>
</g>
</g>
<!-- Node36&#45;&gt;Node16 -->
<g id="edge53_Node000036_Node000016" class="edge">
<title>Node36&#45;&gt;Node16</title>
<g id="a_edge53_Node000036_Node000016"><a xlink:title=" ">
<path fill="none" stroke="#63b8ff" d="M863.09,-719.3C845.66,-715.52 826.2,-711.3 808.25,-707.4"/>
<polygon fill="#63b8ff" stroke="#63b8ff" points="862.58,-722.77 873.09,-721.47 864.06,-715.93 862.58,-722.77"/>
</a>
</g>
</g>
<!-- Node36&#45;&gt;Node19 -->
<g id="edge54_Node000036_Node000019" class="edge">
<title>Node36&#45;&gt;Node19</title>
<g id="a_edge54_Node000036_Node000019"><a xlink:title=" ">
<path fill="none" stroke="#63b8ff" d="M854.79,-717.69C851.03,-716.01 847.4,-714.12 844,-712 823.15,-698.97 827.75,-684.64 808,-670 798.26,-662.78 786.28,-656.97 775.49,-652.61"/>
<polygon fill="#63b8ff" stroke="#63b8ff" points="853.75,-721.04 864.34,-721.44 856.31,-714.53 853.75,-721.04"/>
</a>
</g>
</g>
<!-- Node36&#45;&gt;Node33 -->
<g id="edge55_Node000036_Node000033" class="edge">
<title>Node36&#45;&gt;Node33</title>
<g id="a_edge55_Node000036_Node000033"><a xlink:title=" ">
<path fill="none" stroke="#63b8ff" d="M848.31,-733.42C826.22,-734.19 802.59,-735.03 783.66,-735.69"/>
<polygon fill="#63b8ff" stroke="#63b8ff" points="848.45,-736.91 858.32,-733.06 848.21,-729.92 848.45,-736.91"/>
</a>
</g>
</g>
<!-- Node40&#45;&gt;Node16 -->
<g id="edge61_Node000040_Node000016" class="edge">
<title>Node40&#45;&gt;Node16</title>
<g id="a_edge61_Node000040_Node000016"><a xlink:title=" ">
<path fill="none" stroke="#63b8ff" d="M868.99,-694C850.06,-694 828.08,-694 808.01,-694"/>
<polygon fill="#63b8ff" stroke="#63b8ff" points="869.16,-697.5 879.16,-694 869.16,-690.5 869.16,-697.5"/>
</a>
</g>
</g>
<!-- Node40&#45;&gt;Node19 -->
<g id="edge62_Node000040_Node000019" class="edge">
<title>Node40&#45;&gt;Node19</title>
<g id="a_edge62_Node000040_Node000019"><a xlink:title=" ">
<path fill="none" stroke="#63b8ff" d="M869.53,-682.1C861,-679.84 852.22,-677.42 844,-675 820.24,-668.02 793.54,-659.18 774.09,-652.57"/>
<polygon fill="#63b8ff" stroke="#63b8ff" points="868.8,-685.53 879.36,-684.68 870.58,-678.76 868.8,-685.53"/>
</a>
</g>
</g>
<!-- Node41&#45;&gt;Node19 -->
<g id="edge64_Node000041_Node000019" class="edge">
<title>Node41&#45;&gt;Node19</title>
<g id="a_edge64_Node000041_Node000019"><a xlink:title=" ">
<path fill="none" stroke="#63b8ff" d="M850.71,-628.94C825.24,-632.38 797.4,-636.13 776.91,-638.9"/>
<polygon fill="#63b8ff" stroke="#63b8ff" points="851.26,-632.4 860.7,-627.59 850.32,-625.46 851.26,-632.4"/>
</a>
</g>
</g>
</g>
</svg>
