<?xml version="1.0" encoding="UTF-8" standalone="no"?>
<!DOCTYPE svg PUBLIC "-//W3C//DTD SVG 1.1//EN"
 "http://www.w3.org/Graphics/SVG/1.1/DTD/svg11.dtd">
<!-- Generated by graphviz version 2.43.0 (0)
 -->
<!-- Title: SIZE Pages: 1 -->
<svg width="1097pt" height="623pt"
 viewBox="0.00 0.00 1097.00 623.00" xmlns="http://www.w3.org/2000/svg" xmlns:xlink="http://www.w3.org/1999/xlink">
<g id="graph0" class="graph" transform="scale(1 1) rotate(0) translate(4 619)">
<title>SIZE</title>
<!-- Node1 -->
<g id="Node000001" class="node">
<title>Node1</title>
<g id="a_Node000001"><a xlink:title=" ">
<polygon fill="#999999" stroke="#666666" points="1089,-280 1051,-280 1051,-261 1089,-261 1089,-280"/>
<text text-anchor="middle" x="1070" y="-268" font-family="Helvetica,sans-Serif" font-size="10.00">SIZE</text>
</a>
</g>
</g>
<!-- Node2 -->
<g id="Node000002" class="node">
<title>Node2</title>
<g id="a_Node000002"><a xlink:href="io_8c.html#ac6a6fe57e1e391ebe52b1dbffde4ba5b" target="_top" xlink:title=" ">
<polygon fill="white" stroke="#666666" points="659.5,-425 584.5,-425 584.5,-406 659.5,-406 659.5,-425"/>
<text text-anchor="middle" x="622" y="-413" font-family="Helvetica,sans-Serif" font-size="10.00">AreaNormal</text>
</a>
</g>
</g>
<!-- Node1&#45;&gt;Node2 -->
<g id="edge1_Node000001_Node000002" class="edge">
<title>Node1&#45;&gt;Node2</title>
<g id="a_edge1_Node000001_Node000002"><a xlink:title=" ">
<path fill="none" stroke="#63b8ff" d="M1066.11,-290.33C1061.01,-317.34 1047.69,-364.9 1015,-387.5 905.14,-463.45 734.09,-439.62 659.66,-424.2"/>
<polygon fill="#63b8ff" stroke="#63b8ff" points="1069.61,-290.59 1067.82,-280.15 1062.71,-289.43 1069.61,-290.59"/>
</a>
</g>
</g>
<!-- Node15 -->
<g id="Node000015" class="node">
<title>Node15</title>
<g id="a_Node000015"><a xlink:href="material_8c.html#af81ecf5fbfd52082e0abd3184f12c14f" target="_top" xlink:title=" ">
<polygon fill="white" stroke="#666666" points="1004,-355 898,-355 898,-336 1004,-336 1004,-355"/>
<text text-anchor="middle" x="951" y="-343" font-family="Helvetica,sans-Serif" font-size="10.00">BendingNonLinear</text>
</a>
</g>
</g>
<!-- Node1&#45;&gt;Node15 -->
<g id="edge21_Node000001_Node000015" class="edge">
<title>Node1&#45;&gt;Node15</title>
<g id="a_edge21_Node000001_Node000015"><a xlink:title=" ">
<path fill="none" stroke="#63b8ff" d="M1055.73,-288.5C1045.78,-300.82 1031.14,-316.64 1015,-326.5 1008.76,-330.31 1001.7,-333.4 994.63,-335.9"/>
<polygon fill="#63b8ff" stroke="#63b8ff" points="1058.74,-290.33 1062.1,-280.29 1053.21,-286.04 1058.74,-290.33"/>
</a>
</g>
</g>
<!-- Node16 -->
<g id="Node000016" class="node">
<title>Node16</title>
<g id="a_Node000016"><a xlink:href="muscle__activation_8c.html#a19d89612f2544ef7f352badd7cf1f337" target="_top" xlink:title=" ">
<polygon fill="white" stroke="#666666" points="851,-285.5 726,-285.5 726,-255.5 851,-255.5 851,-285.5"/>
<text text-anchor="start" x="734" y="-273.5" font-family="Helvetica,sans-Serif" font-size="10.00">compute_mid_surface</text>
<text text-anchor="middle" x="788.5" y="-262.5" font-family="Helvetica,sans-Serif" font-size="10.00">_el_stress_after_act</text>
</a>
</g>
</g>
<!-- Node1&#45;&gt;Node16 -->
<g id="edge50_Node000001_Node000016" class="edge">
<title>Node1&#45;&gt;Node16</title>
<g id="a_edge50_Node000001_Node000016"><a xlink:title=" ">
<path fill="none" stroke="#63b8ff" d="M1040.62,-270.5C996.39,-270.5 909.99,-270.5 851.01,-270.5"/>
<polygon fill="#63b8ff" stroke="#63b8ff" points="1040.66,-274 1050.66,-270.5 1040.66,-267 1040.66,-274"/>
</a>
</g>
</g>
<!-- Node19 -->
<g id="Node000019" class="node">
<title>Node19</title>
<g id="a_Node000019"><a xlink:href="bending_8c.html#a2b66770553fce4724cfb65b0f79e83b1" target="_top" xlink:title=" ">
<polygon fill="white" stroke="#666666" points="819.5,-360 757.5,-360 757.5,-341 819.5,-341 819.5,-360"/>
<text text-anchor="middle" x="788.5" y="-348" font-family="Helvetica,sans-Serif" font-size="10.00">Fbending</text>
</a>
</g>
</g>
<!-- Node1&#45;&gt;Node19 -->
<g id="edge53_Node000001_Node000019" class="edge">
<title>Node1&#45;&gt;Node19</title>
<g id="a_edge53_Node000001_Node000019"><a xlink:title=" ">
<path fill="none" stroke="#63b8ff" d="M1064.1,-290.05C1057.3,-312.58 1042.58,-348.54 1015,-364.5 950.16,-402.03 856.55,-375.76 813.19,-360.01"/>
<polygon fill="#63b8ff" stroke="#63b8ff" points="1067.53,-290.79 1066.83,-280.22 1060.78,-288.92 1067.53,-290.79"/>
</a>
</g>
</g>
<!-- Node22 -->
<g id="Node000022" class="node">
<title>Node22</title>
<g id="a_Node000022"><a xlink:href="contact_8c.html#a6792e9026d762c1ea211d1b713da8d88" target="_top" xlink:title=" ">
<polygon fill="white" stroke="#666666" points="999,-615 903,-615 903,-596 999,-596 999,-615"/>
<text text-anchor="middle" x="951" y="-603" font-family="Helvetica,sans-Serif" font-size="10.00">BoundingSphere</text>
</a>
</g>
</g>
<!-- Node1&#45;&gt;Node22 -->
<g id="edge31_Node000001_Node000022" class="edge">
<title>Node1&#45;&gt;Node22</title>
<g id="a_edge31_Node000001_Node000022"><a xlink:title=" ">
<path fill="none" stroke="#63b8ff" d="M1068.07,-290.25C1064.83,-351.45 1052.08,-536.51 1015,-581.5 1009.79,-587.82 1002.72,-592.48 995.19,-595.91"/>
<polygon fill="#63b8ff" stroke="#63b8ff" points="1071.58,-290.19 1068.59,-280.03 1064.59,-289.84 1071.58,-290.19"/>
</a>
</g>
</g>
<!-- Node23 -->
<g id="Node000023" class="node">
<title>Node23</title>
<g id="a_Node000023"><a xlink:href="contact_8c.html#a8c8e2f1cd589cf69a8dae9aa35f03ad9" target="_top" xlink:title=" ">
<polygon fill="white" stroke="#666666" points="834.5,-577 742.5,-577 742.5,-558 834.5,-558 834.5,-577"/>
<text text-anchor="middle" x="788.5" y="-565" font-family="Helvetica,sans-Serif" font-size="10.00">nearestcellFEM</text>
</a>
</g>
</g>
<!-- Node1&#45;&gt;Node23 -->
<g id="edge62_Node000001_Node000023" class="edge">
<title>Node1&#45;&gt;Node23</title>
<g id="a_edge62_Node000001_Node000023"><a xlink:title=" ">
<path fill="none" stroke="#63b8ff" d="M1068.02,-290.44C1064.79,-347.44 1052.44,-509.26 1015,-543.5 966.48,-587.87 885.3,-584.56 834.72,-576.9"/>
<polygon fill="#63b8ff" stroke="#63b8ff" points="1071.53,-290.39 1068.57,-280.22 1064.54,-290.02 1071.53,-290.39"/>
</a>
</g>
</g>
<!-- Node26 -->
<g id="Node000026" class="node">
<title>Node26</title>
<g id="a_Node000026"><a xlink:href="material__NonlinearCantilever_8c.html#a5b99da62b0de397a913c1c424cea6f87" target="_top" xlink:title=" ">
<polygon fill="white" stroke="#666666" points="1011,-167 891,-167 891,-148 1011,-148 1011,-167"/>
<text text-anchor="middle" x="951" y="-155" font-family="Helvetica,sans-Serif" font-size="10.00">CalcStressStrainBxyz</text>
</a>
</g>
</g>
<!-- Node1&#45;&gt;Node26 -->
<g id="edge36_Node000001_Node000026" class="edge">
<title>Node1&#45;&gt;Node26</title>
<g id="a_edge36_Node000001_Node000026"><a xlink:title=" ">
<path fill="none" stroke="#63b8ff" d="M1062.96,-251.06C1055.27,-229.46 1039.88,-195.06 1015,-175.5 1010.62,-172.06 1005.6,-169.27 1000.36,-167.02"/>
<polygon fill="#63b8ff" stroke="#63b8ff" points="1059.72,-252.41 1066.22,-260.78 1066.36,-250.19 1059.72,-252.41"/>
</a>
</g>
</g>
<!-- Node27 -->
<g id="Node000027" class="node">
<title>Node27</title>
<g id="a_Node000027"><a xlink:href="material__NonlinearCantilever_8c.html#ab38fdcdb1705e4b2bc3636edbb240c45" target="_top" xlink:title=" ">
<polygon fill="white" stroke="#666666" points="1012,-130 890,-130 890,-111 1012,-111 1012,-130"/>
<text text-anchor="middle" x="951" y="-118" font-family="Helvetica,sans-Serif" font-size="10.00">CalcStressStrainMxyz</text>
</a>
</g>
</g>
<!-- Node1&#45;&gt;Node27 -->
<g id="edge37_Node000001_Node000027" class="edge">
<title>Node1&#45;&gt;Node27</title>
<g id="a_edge37_Node000001_Node000027"><a xlink:title=" ">
<path fill="none" stroke="#63b8ff" d="M1066.41,-250.84C1061.55,-221.99 1048.38,-168.4 1015,-138.5 1011.19,-135.08 1006.77,-132.31 1002.07,-130.07"/>
<polygon fill="#63b8ff" stroke="#63b8ff" points="1062.97,-251.54 1067.93,-260.9 1069.89,-250.49 1062.97,-251.54"/>
</a>
</g>
</g>
<!-- Node28 -->
<g id="Node000028" class="node">
<title>Node28</title>
<g id="a_Node000028"><a xlink:href="muscle__activation_8c.html#a93dfc79086ad3d8e7eb4a92d7c64565d" target="_top" xlink:title=" ">
<polygon fill="white" stroke="#666666" points="1015,-93 887,-93 887,-74 1015,-74 1015,-93"/>
<text text-anchor="middle" x="951" y="-81" font-family="Helvetica,sans-Serif" font-size="10.00">CompInitCovBasisVecs</text>
</a>
</g>
</g>
<!-- Node1&#45;&gt;Node28 -->
<g id="edge38_Node000001_Node000028" class="edge">
<title>Node1&#45;&gt;Node28</title>
<g id="a_edge38_Node000001_Node000028"><a xlink:title=" ">
<path fill="none" stroke="#63b8ff" d="M1068.45,-250.48C1066.37,-215.27 1056.92,-142.14 1015,-101.5 1011.49,-98.1 1007.38,-95.33 1002.97,-93.08"/>
<polygon fill="#63b8ff" stroke="#63b8ff" points="1064.97,-251.03 1068.91,-260.86 1071.96,-250.72 1064.97,-251.03"/>
</a>
</g>
</g>
<!-- Node30 -->
<g id="Node000030" class="node">
<title>Node30</title>
<g id="a_Node000030"><a xlink:href="active__strain_8c.html#a8ffbd5ab9cf4de7388a8a1b66bf48821" target="_top" xlink:title=" ">
<polygon fill="white" stroke="#666666" points="1009,-204 893,-204 893,-185 1009,-185 1009,-204"/>
<text text-anchor="middle" x="951" y="-192" font-family="Helvetica,sans-Serif" font-size="10.00">Compute_a3_alpha_</text>
</a>
</g>
</g>
<!-- Node1&#45;&gt;Node30 -->
<g id="edge40_Node000001_Node000030" class="edge">
<title>Node1&#45;&gt;Node30</title>
<g id="a_edge40_Node000001_Node000030"><a xlink:title=" ">
<path fill="none" stroke="#63b8ff" d="M1054.26,-253.05C1044.14,-241.95 1029.89,-227.94 1015,-218.5 1005.71,-212.61 994.75,-207.81 984.59,-204.09"/>
<polygon fill="#63b8ff" stroke="#63b8ff" points="1051.9,-255.67 1061.14,-260.85 1057.15,-251.03 1051.9,-255.67"/>
</a>
</g>
</g>
<!-- Node37 -->
<g id="Node000037" class="node">
<title>Node37</title>
<g id="a_Node000037"><a xlink:href="lv__geometry_8c.html#aac85a6b370a9743adfb663de8acddbe1" target="_top" xlink:title=" ">
<polygon fill="white" stroke="#666666" points="174.5,-538 88.5,-538 88.5,-519 174.5,-519 174.5,-538"/>
<text text-anchor="middle" x="131.5" y="-526" font-family="Helvetica,sans-Serif" font-size="10.00">CreateLVMesh</text>
</a>
</g>
</g>
<!-- Node1&#45;&gt;Node37 -->
<g id="edge51_Node000001_Node000037" class="edge">
<title>Node1&#45;&gt;Node37</title>
<g id="a_edge51_Node000001_Node000037"><a xlink:title=" ">
<path fill="none" stroke="#63b8ff" d="M1066.98,-290.37C1062.76,-322.36 1050.24,-385.6 1015,-424.5 940.77,-506.43 900.05,-529.5 789.5,-529.5 789.5,-529.5 789.5,-529.5 441.5,-529.5 346.14,-529.5 234.24,-529.02 174.73,-528.72"/>
<polygon fill="#63b8ff" stroke="#63b8ff" points="1070.5,-290.45 1068.19,-280.11 1063.54,-289.63 1070.5,-290.45"/>
</a>
</g>
</g>
<!-- Node38 -->
<g id="Node000038" class="node">
<title>Node38</title>
<g id="a_Node000038"><a xlink:href="muscle__activation_8c.html#a357b3bb1950e461f37dc728929d29486" target="_top" xlink:title=" ">
<polygon fill="white" stroke="#666666" points="837.5,-237 739.5,-237 739.5,-218 837.5,-218 837.5,-237"/>
<text text-anchor="middle" x="788.5" y="-225" font-family="Helvetica,sans-Serif" font-size="10.00">FInternalAftActEl</text>
</a>
</g>
</g>
<!-- Node1&#45;&gt;Node38 -->
<g id="edge54_Node000001_Node000038" class="edge">
<title>Node1&#45;&gt;Node38</title>
<g id="a_edge54_Node000001_Node000038"><a xlink:title=" ">
<path fill="none" stroke="#63b8ff" d="M1040.72,-266.15C993.03,-258.81 896.08,-243.9 837.55,-234.89"/>
<polygon fill="#63b8ff" stroke="#63b8ff" points="1040.25,-269.62 1050.66,-267.68 1041.31,-262.7 1040.25,-269.62"/>
</a>
</g>
</g>
<!-- Node39 -->
<g id="Node000039" class="node">
<title>Node39</title>
<g id="a_Node000039"><a xlink:href="material_8c.html#aa93862cca1fe83c736219df7d4a91374" target="_top" xlink:title=" ">
<polygon fill="white" stroke="#666666" points="1010.5,-318 891.5,-318 891.5,-299 1010.5,-299 1010.5,-318"/>
<text text-anchor="middle" x="951" y="-306" font-family="Helvetica,sans-Serif" font-size="10.00">MembraneNonLinear</text>
</a>
</g>
</g>
<!-- Node1&#45;&gt;Node39 -->
<g id="edge56_Node000001_Node000039" class="edge">
<title>Node1&#45;&gt;Node39</title>
<g id="a_edge56_Node000001_Node000039"><a xlink:title=" ">
<path fill="none" stroke="#63b8ff" d="M1041.37,-279.48C1023.41,-285.31 1000.01,-292.91 981.66,-298.87"/>
<polygon fill="#63b8ff" stroke="#63b8ff" points="1042.55,-282.77 1050.98,-276.35 1040.38,-276.11 1042.55,-282.77"/>
</a>
</g>
</g>
<!-- Node41 -->
<g id="Node000041" class="node">
<title>Node41</title>
<g id="a_Node000041"><a xlink:href="external_8c.html#a0164a912d0353bac4b5793086ba42620" target="_top" xlink:title=" ">
<polygon fill="white" stroke="#666666" points="1000.5,-56 901.5,-56 901.5,-37 1000.5,-37 1000.5,-56"/>
<text text-anchor="middle" x="951" y="-44" font-family="Helvetica,sans-Serif" font-size="10.00">ModifyGhostFree</text>
</a>
</g>
</g>
<!-- Node1&#45;&gt;Node41 -->
<g id="edge61_Node000001_Node000041" class="edge">
<title>Node1&#45;&gt;Node41</title>
<g id="a_edge61_Node000001_Node000041"><a xlink:title=" ">
<path fill="none" stroke="#63b8ff" d="M1069.84,-250.46C1070.41,-209.63 1065.7,-116.33 1015,-64.5 1010.94,-60.35 1006,-57.14 1000.69,-54.66"/>
<polygon fill="#63b8ff" stroke="#63b8ff" points="1066.34,-250.62 1069.57,-260.71 1073.33,-250.81 1066.34,-250.62"/>
</a>
</g>
</g>
<!-- Node42 -->
<g id="Node000042" class="node">
<title>Node42</title>
<g id="a_Node000042"><a xlink:href="material__NonlinearCantilever_8c.html#a514540fed999755d181cbe5b643c356f" target="_top" xlink:title=" ">
<polygon fill="white" stroke="#666666" points="999,-19 903,-19 903,0 999,0 999,-19"/>
<text text-anchor="middle" x="951" y="-7" font-family="Helvetica,sans-Serif" font-size="10.00">StressNonLinear</text>
</a>
</g>
</g>
<!-- Node1&#45;&gt;Node42 -->
<g id="edge63_Node000001_Node000042" class="edge">
<title>Node1&#45;&gt;Node42</title>
<g id="a_edge63_Node000001_Node000042"><a xlink:title=" ">
<path fill="none" stroke="#63b8ff" d="M1067.18,-250.67C1062.03,-198.65 1045.65,-60.03 1015,-27.5 1010.63,-22.86 1005.16,-19.39 999.28,-16.8"/>
<polygon fill="#63b8ff" stroke="#63b8ff" points="1063.73,-251.28 1068.16,-260.9 1070.69,-250.62 1063.73,-251.28"/>
</a>
</g>
</g>
<!-- Node3 -->
<g id="Node000003" class="node">
<title>Node3</title>
<g id="a_Node000003"><a xlink:href="main_8c.html#a9a070a6f408cadb404b0ee7fbc74c576" target="_top" xlink:title=" ">
<polygon fill="white" stroke="#666666" points="328.5,-200 224.5,-200 224.5,-181 328.5,-181 328.5,-200"/>
<text text-anchor="middle" x="276.5" y="-188" font-family="Helvetica,sans-Serif" font-size="10.00">FormFunctionFEM</text>
</a>
</g>
</g>
<!-- Node2&#45;&gt;Node3 -->
<g id="edge2_Node000002_Node000003" class="edge">
<title>Node2&#45;&gt;Node3</title>
<g id="a_edge2_Node000002_Node000003"><a xlink:title=" ">
<path fill="none" stroke="#63b8ff" d="M574.12,-407.56C505.01,-395.47 382.25,-372.4 367,-358.5 328.66,-323.57 357.38,-292.15 331,-247.5 319.82,-228.57 301.36,-210.77 289.32,-200.26"/>
<polygon fill="#63b8ff" stroke="#63b8ff" points="573.87,-411.07 584.32,-409.33 575.07,-404.17 573.87,-411.07"/>
</a>
</g>
</g>
<!-- Node5 -->
<g id="Node000005" class="node">
<title>Node5</title>
<g id="a_Node000005"><a xlink:href="main_8c.html#ad3a8e8f5b2e1871122784b2cd3dc1c8c" target="_top" xlink:title=" ">
<polygon fill="white" stroke="#666666" points="470,-349 415,-349 415,-330 470,-330 470,-349"/>
<text text-anchor="middle" x="442.5" y="-337" font-family="Helvetica,sans-Serif" font-size="10.00">FormRK</text>
</a>
</g>
</g>
<!-- Node2&#45;&gt;Node5 -->
<g id="edge4_Node000002_Node000005" class="edge">
<title>Node2&#45;&gt;Node5</title>
<g id="a_edge4_Node000002_Node000005"><a xlink:title=" ">
<path fill="none" stroke="#63b8ff" d="M594.87,-400.88C574.36,-389.76 544.88,-374.53 518,-363.5 502.41,-357.1 484.45,-351.27 470.06,-346.96"/>
<polygon fill="#63b8ff" stroke="#63b8ff" points="593.44,-404.09 603.89,-405.82 596.8,-397.95 593.44,-404.09"/>
</a>
</g>
</g>
<!-- Node6 -->
<g id="Node000006" class="node">
<title>Node6</title>
<g id="a_Node000006"><a xlink:href="main_8c.html#a636a8f7f82b7bc4dabb749e9c7fe75a9" target="_top" xlink:title=" ">
<polygon fill="white" stroke="#666666" points="147.5,-500 115.5,-500 115.5,-481 147.5,-481 147.5,-500"/>
<text text-anchor="middle" x="131.5" y="-488" font-family="Helvetica,sans-Serif" font-size="10.00">Init</text>
</a>
</g>
</g>
<!-- Node2&#45;&gt;Node6 -->
<g id="edge6_Node000002_Node000006" class="edge">
<title>Node2&#45;&gt;Node6</title>
<g id="a_edge6_Node000002_Node000006"><a xlink:title=" ">
<path fill="none" stroke="#63b8ff" d="M574.32,-426.23C517.22,-438.99 417.49,-460.11 331,-472.5 262.84,-482.26 180.7,-487.72 147.5,-489.67"/>
<polygon fill="#63b8ff" stroke="#63b8ff" points="575.14,-429.63 584.13,-424.02 573.61,-422.8 575.14,-429.63"/>
</a>
</g>
</g>
<!-- Node7 -->
<g id="Node000007" class="node">
<title>Node7</title>
<g id="a_Node000007"><a xlink:href="inverse_8c.html#a8ccb34384a9c46d52bb413dcd177c67b" target="_top" xlink:title=" ">
<polygon fill="white" stroke="#666666" points="482.5,-425 402.5,-425 402.5,-406 482.5,-406 482.5,-425"/>
<text text-anchor="middle" x="442.5" y="-413" font-family="Helvetica,sans-Serif" font-size="10.00">ResidualCalc</text>
</a>
</g>
</g>
<!-- Node2&#45;&gt;Node7 -->
<g id="edge8_Node000002_Node000007" class="edge">
<title>Node2&#45;&gt;Node7</title>
<g id="a_edge8_Node000002_Node000007"><a xlink:title=" ">
<path fill="none" stroke="#63b8ff" d="M574.09,-415.5C545.61,-415.5 509.66,-415.5 482.69,-415.5"/>
<polygon fill="#63b8ff" stroke="#63b8ff" points="574.22,-419 584.22,-415.5 574.22,-412 574.22,-419"/>
</a>
</g>
</g>
<!-- Node4 -->
<g id="Node000004" class="node">
<title>Node4</title>
<g id="a_Node000004"><a xlink:href="main_8c.html#a3c04138a5bfe5d72780bb7e82a18e627" target="_top" xlink:title=" ">
<polygon fill="white" stroke="#666666" points="41,-275 0,-275 0,-256 41,-256 41,-275"/>
<text text-anchor="middle" x="20.5" y="-263" font-family="Helvetica,sans-Serif" font-size="10.00">main</text>
</a>
</g>
</g>
<!-- Node3&#45;&gt;Node4 -->
<g id="edge3_Node000003_Node000004" class="edge">
<title>Node3&#45;&gt;Node4</title>
<g id="a_edge3_Node000003_Node000004"><a xlink:title=" ">
<path fill="none" stroke="#63b8ff" d="M214.2,-188.35C173.56,-189.17 120.02,-194.68 77,-214.5 56.56,-223.92 38.53,-243.7 28.9,-255.67"/>
<polygon fill="#63b8ff" stroke="#63b8ff" points="214.28,-191.85 224.24,-188.23 214.2,-184.85 214.28,-191.85"/>
</a>
</g>
</g>
<!-- Node5&#45;&gt;Node4 -->
<g id="edge5_Node000005_Node000004" class="edge">
<title>Node5&#45;&gt;Node4</title>
<g id="a_edge5_Node000005_Node000004"><a xlink:title=" ">
<path fill="none" stroke="#63b8ff" d="M404.76,-336.5C391.71,-333.89 377.64,-329.12 367,-320.5 338.9,-297.72 361.72,-266.6 331,-247.5 236.61,-188.81 93.12,-236.51 41.15,-257.16"/>
<polygon fill="#63b8ff" stroke="#63b8ff" points="404.48,-340 414.92,-338.16 405.62,-333.09 404.48,-340"/>
</a>
</g>
</g>
<!-- Node6&#45;&gt;Node4 -->
<g id="edge7_Node000006_Node000004" class="edge">
<title>Node6&#45;&gt;Node4</title>
<g id="a_edge7_Node000006_Node000004"><a xlink:title=" ">
<path fill="none" stroke="#63b8ff" d="M105.3,-487.27C95.26,-484.77 84.37,-480.35 77,-472.5 22.23,-414.19 20.31,-307.82 21.1,-275.24"/>
<polygon fill="#63b8ff" stroke="#63b8ff" points="104.78,-490.73 115.27,-489.24 106.14,-483.87 104.78,-490.73"/>
</a>
</g>
</g>
<!-- Node8 -->
<g id="Node000008" class="node">
<title>Node8</title>
<g id="a_Node000008"><a xlink:href="mlp_8c.html#a95587eada79194109e216fe2d1536aa5" target="_top" xlink:title=" ">
<polygon fill="white" stroke="#666666" points="312,-463 241,-463 241,-444 312,-444 312,-463"/>
<text text-anchor="middle" x="276.5" y="-451" font-family="Helvetica,sans-Serif" font-size="10.00">compute_R</text>
</a>
</g>
</g>
<!-- Node7&#45;&gt;Node8 -->
<g id="edge9_Node000007_Node000008" class="edge">
<title>Node7&#45;&gt;Node8</title>
<g id="a_edge9_Node000007_Node000008"><a xlink:title=" ">
<path fill="none" stroke="#63b8ff" d="M392.22,-426.92C366.35,-432.91 335.29,-440.11 312.01,-445.5"/>
<polygon fill="#63b8ff" stroke="#63b8ff" points="393.27,-430.27 402.22,-424.6 391.69,-423.45 393.27,-430.27"/>
</a>
</g>
</g>
<!-- Node10 -->
<g id="Node000010" class="node">
<title>Node10</title>
<g id="a_Node000010"><a xlink:href="inverse_8c.html#a5a46d0c408c2a4905101ca00ed320825" target="_top" xlink:title=" ">
<polygon fill="white" stroke="#666666" points="317,-313 236,-313 236,-294 317,-294 317,-313"/>
<text text-anchor="middle" x="276.5" y="-301" font-family="Helvetica,sans-Serif" font-size="10.00">FungJacobian</text>
</a>
</g>
</g>
<!-- Node7&#45;&gt;Node10 -->
<g id="edge11_Node000007_Node000010" class="edge">
<title>Node7&#45;&gt;Node10</title>
<g id="a_edge11_Node000007_Node000010"><a xlink:title=" ">
<path fill="none" stroke="#63b8ff" d="M392.82,-405.61C383.59,-402.2 374.5,-397.63 367,-391.5 341.73,-370.85 355.1,-349.51 331,-327.5 324.31,-321.39 315.8,-316.63 307.56,-313.01"/>
<polygon fill="#63b8ff" stroke="#63b8ff" points="391.82,-408.97 402.41,-408.77 394,-402.32 391.82,-408.97"/>
</a>
</g>
</g>
<!-- Node11 -->
<g id="Node000011" class="node">
<title>Node11</title>
<g id="a_Node000011"><a xlink:href="inverse_8c.html#a63c0a7ac76584f0dab82764698b5d878" target="_top" xlink:title=" ">
<polygon fill="white" stroke="#666666" points="162.5,-332 100.5,-332 100.5,-313 162.5,-313 162.5,-332"/>
<text text-anchor="middle" x="131.5" y="-320" font-family="Helvetica,sans-Serif" font-size="10.00">InvSolver</text>
</a>
</g>
</g>
<!-- Node7&#45;&gt;Node11 -->
<g id="edge18_Node000007_Node000011" class="edge">
<title>Node7&#45;&gt;Node11</title>
<g id="a_edge18_Node000007_Node000011"><a xlink:title=" ">
<path fill="none" stroke="#63b8ff" d="M392.9,-402.83C384.03,-399.69 375.04,-395.93 367,-391.5 348.75,-381.46 349.8,-370.45 331,-361.5 275.35,-335 202.71,-326.51 162.53,-323.78"/>
<polygon fill="#63b8ff" stroke="#63b8ff" points="391.84,-406.16 402.43,-405.99 394.05,-399.52 391.84,-406.16"/>
</a>
</g>
</g>
<!-- Node12 -->
<g id="Node000012" class="node">
<title>Node12</title>
<g id="a_Node000012"><a xlink:href="inverse_8c.html#a6dcb60291ae68ad8fa0ccea39658279a" target="_top" xlink:title=" ">
<polygon fill="white" stroke="#666666" points="325.5,-276 227.5,-276 227.5,-257 325.5,-257 325.5,-276"/>
<text text-anchor="middle" x="276.5" y="-264" font-family="Helvetica,sans-Serif" font-size="10.00">FungUniJacobian</text>
</a>
</g>
</g>
<!-- Node7&#45;&gt;Node12 -->
<g id="edge14_Node000007_Node000012" class="edge">
<title>Node7&#45;&gt;Node12</title>
<g id="a_edge14_Node000007_Node000012"><a xlink:title=" ">
<path fill="none" stroke="#63b8ff" d="M392.44,-406.89C383.08,-403.38 374.03,-398.44 367,-391.5 331.29,-356.25 366.48,-319.98 331,-284.5 327.6,-281.1 323.55,-278.35 319.21,-276.11"/>
<polygon fill="#63b8ff" stroke="#63b8ff" points="391.63,-410.3 402.22,-410.05 393.79,-403.64 391.63,-410.3"/>
</a>
</g>
</g>
<!-- Node13 -->
<g id="Node000013" class="node">
<title>Node13</title>
<g id="a_Node000013"><a xlink:href="inverse_8c.html#ad779d411aa186efcdfb8e192c52d04b0" target="_top" xlink:title=" ">
<polygon fill="white" stroke="#666666" points="331,-426 222,-426 222,-407 331,-407 331,-426"/>
<text text-anchor="middle" x="276.5" y="-414" font-family="Helvetica,sans-Serif" font-size="10.00">grad_R_wrt_E_field</text>
</a>
</g>
</g>
<!-- Node7&#45;&gt;Node13 -->
<g id="edge16_Node000007_Node000013" class="edge">
<title>Node7&#45;&gt;Node13</title>
<g id="a_edge16_Node000007_Node000013"><a xlink:title=" ">
<path fill="none" stroke="#63b8ff" d="M392.13,-415.8C372.85,-415.92 350.7,-416.05 331.03,-416.17"/>
<polygon fill="#63b8ff" stroke="#63b8ff" points="392.24,-419.3 402.22,-415.74 392.2,-412.3 392.24,-419.3"/>
</a>
</g>
</g>
<!-- Node14 -->
<g id="Node000014" class="node">
<title>Node14</title>
<g id="a_Node000014"><a xlink:href="inverse_8c.html#a9c6b1db7cc8e3f7771140e7920429ab3" target="_top" xlink:title=" ">
<polygon fill="white" stroke="#666666" points="305.5,-389 247.5,-389 247.5,-370 305.5,-370 305.5,-389"/>
<text text-anchor="middle" x="276.5" y="-377" font-family="Helvetica,sans-Serif" font-size="10.00">Jacobian</text>
</a>
</g>
</g>
<!-- Node7&#45;&gt;Node14 -->
<g id="edge19_Node000007_Node000014" class="edge">
<title>Node7&#45;&gt;Node14</title>
<g id="a_edge19_Node000007_Node000014"><a xlink:title=" ">
<path fill="none" stroke="#63b8ff" d="M392.11,-404.66C363.84,-398.45 329.38,-390.89 305.68,-385.69"/>
<polygon fill="#63b8ff" stroke="#63b8ff" points="391.7,-408.15 402.22,-406.88 393.2,-401.31 391.7,-408.15"/>
</a>
</g>
</g>
<!-- Node9 -->
<g id="Node000009" class="node">
<title>Node9</title>
<g id="a_Node000009"><a xlink:href="mlp_8c.html#a2aeef94f6b174527c5b7983c25229818" target="_top" xlink:title=" ">
<polygon fill="white" stroke="#666666" points="177.5,-463 85.5,-463 85.5,-444 177.5,-444 177.5,-463"/>
<text text-anchor="middle" x="131.5" y="-451" font-family="Helvetica,sans-Serif" font-size="10.00">backward_pass</text>
</a>
</g>
</g>
<!-- Node8&#45;&gt;Node9 -->
<g id="edge10_Node000008_Node000009" class="edge">
<title>Node8&#45;&gt;Node9</title>
<g id="a_edge10_Node000008_Node000009"><a xlink:title=" ">
<path fill="none" stroke="#63b8ff" d="M230.7,-453.5C213.79,-453.5 194.55,-453.5 177.62,-453.5"/>
<polygon fill="#63b8ff" stroke="#63b8ff" points="230.88,-457 240.88,-453.5 230.88,-450 230.88,-457"/>
</a>
</g>
</g>
<!-- Node10&#45;&gt;Node11 -->
<g id="edge12_Node000010_Node000011" class="edge">
<title>Node10&#45;&gt;Node11</title>
<g id="a_edge12_Node000010_Node000011"><a xlink:title=" ">
<path fill="none" stroke="#63b8ff" d="M225.61,-310.13C204.61,-312.92 180.85,-316.08 162.6,-318.5"/>
<polygon fill="#63b8ff" stroke="#63b8ff" points="226.21,-313.58 235.67,-308.79 225.29,-306.64 226.21,-313.58"/>
</a>
</g>
</g>
<!-- Node11&#45;&gt;Node4 -->
<g id="edge13_Node000011_Node000004" class="edge">
<title>Node11&#45;&gt;Node4</title>
<g id="a_edge13_Node000011_Node000004"><a xlink:title=" ">
<path fill="none" stroke="#63b8ff" d="M103.13,-308.19C83.3,-297.82 57.03,-284.08 39.72,-275.03"/>
<polygon fill="#63b8ff" stroke="#63b8ff" points="101.53,-311.3 112.01,-312.83 104.77,-305.1 101.53,-311.3"/>
</a>
</g>
</g>
<!-- Node12&#45;&gt;Node11 -->
<g id="edge15_Node000012_Node000011" class="edge">
<title>Node12&#45;&gt;Node11</title>
<g id="a_edge15_Node000012_Node000011"><a xlink:title=" ">
<path fill="none" stroke="#63b8ff" d="M236.02,-279.4C231.27,-281.06 226.51,-282.78 222,-284.5 198.33,-293.49 171.67,-304.99 153.65,-312.98"/>
<polygon fill="#63b8ff" stroke="#63b8ff" points="237.32,-282.65 245.64,-276.09 235.05,-276.03 237.32,-282.65"/>
</a>
</g>
</g>
<!-- Node13&#45;&gt;Node11 -->
<g id="edge17_Node000013_Node000011" class="edge">
<title>Node13&#45;&gt;Node11</title>
<g id="a_edge17_Node000013_Node000011"><a xlink:title=" ">
<path fill="none" stroke="#63b8ff" d="M231.42,-403.2C228.17,-401.76 224.99,-400.19 222,-398.5 188.81,-379.75 156.35,-347.84 141.27,-332"/>
<polygon fill="#63b8ff" stroke="#63b8ff" points="230.12,-406.45 240.71,-406.94 232.74,-399.95 230.12,-406.45"/>
</a>
</g>
</g>
<!-- Node14&#45;&gt;Node11 -->
<g id="edge20_Node000014_Node000011" class="edge">
<title>Node14&#45;&gt;Node11</title>
<g id="a_edge20_Node000014_Node000011"><a xlink:title=" ">
<path fill="none" stroke="#63b8ff" d="M242.03,-366.16C215.8,-355.7 179.95,-341.41 156.51,-332.07"/>
<polygon fill="#63b8ff" stroke="#63b8ff" points="240.98,-369.51 251.57,-369.96 243.57,-363.01 240.98,-369.51"/>
</a>
</g>
</g>
<!-- Node15&#45;&gt;Node16 -->
<g id="edge22_Node000015_Node000016" class="edge">
<title>Node15&#45;&gt;Node16</title>
<g id="a_edge22_Node000015_Node000016"><a xlink:title=" ">
<path fill="none" stroke="#63b8ff" d="M899.43,-332.42C895.12,-330.66 890.92,-328.69 887,-326.5 868.31,-316.05 869.26,-305.68 851,-294.5 845.62,-291.21 839.72,-288.22 833.76,-285.57"/>
<polygon fill="#63b8ff" stroke="#63b8ff" points="898.35,-335.75 908.94,-335.94 900.78,-329.19 898.35,-335.75"/>
</a>
</g>
</g>
<!-- Node15&#45;&gt;Node19 -->
<g id="edge25_Node000015_Node000019" class="edge">
<title>Node15&#45;&gt;Node19</title>
<g id="a_edge25_Node000015_Node000019"><a xlink:title=" ">
<path fill="none" stroke="#63b8ff" d="M887.71,-347.44C864.41,-348.17 838.99,-348.96 819.84,-349.55"/>
<polygon fill="#63b8ff" stroke="#63b8ff" points="888,-350.93 897.89,-347.12 887.79,-343.94 888,-350.93"/>
</a>
</g>
</g>
<!-- Node17 -->
<g id="Node000017" class="node">
<title>Node17</title>
<g id="a_Node000017"><a xlink:href="muscle__activation_8c.html#a3f9fadbc31e4872a8519e6bfdecf7b8f" target="_top" xlink:title=" ">
<polygon fill="white" stroke="#666666" points="690,-285.5 554,-285.5 554,-255.5 690,-255.5 690,-285.5"/>
<text text-anchor="start" x="562" y="-273.5" font-family="Helvetica,sans-Serif" font-size="10.00">update_mid_surf_elastic</text>
<text text-anchor="middle" x="622" y="-262.5" font-family="Helvetica,sans-Serif" font-size="10.00">_stress</text>
</a>
</g>
</g>
<!-- Node16&#45;&gt;Node17 -->
<g id="edge23_Node000016_Node000017" class="edge">
<title>Node16&#45;&gt;Node17</title>
<g id="a_edge23_Node000016_Node000017"><a xlink:title=" ">
<path fill="none" stroke="#63b8ff" d="M715.54,-270.5C707.06,-270.5 698.43,-270.5 690.03,-270.5"/>
<polygon fill="#63b8ff" stroke="#63b8ff" points="715.78,-274 725.78,-270.5 715.78,-267 715.78,-274"/>
</a>
</g>
</g>
<!-- Node18 -->
<g id="Node000018" class="node">
<title>Node18</title>
<g id="a_Node000018"><a xlink:href="muscle__activation_8c.html#a5794b91b41d38582fd698b653b53330e" target="_top" xlink:title=" ">
<polygon fill="white" stroke="#666666" points="505,-236 380,-236 380,-217 505,-217 505,-236"/>
<text text-anchor="middle" x="442.5" y="-224" font-family="Helvetica,sans-Serif" font-size="10.00">UpdateFInternalAftAct</text>
</a>
</g>
</g>
<!-- Node17&#45;&gt;Node18 -->
<g id="edge24_Node000017_Node000018" class="edge">
<title>Node17&#45;&gt;Node18</title>
<g id="a_edge24_Node000017_Node000018"><a xlink:title=" ">
<path fill="none" stroke="#63b8ff" d="M550.51,-253.03C527.1,-247.22 501.92,-240.98 481.87,-236.01"/>
<polygon fill="#63b8ff" stroke="#63b8ff" points="549.86,-256.47 560.41,-255.48 551.55,-249.68 549.86,-256.47"/>
</a>
</g>
</g>
<!-- Node20 -->
<g id="Node000020" class="node">
<title>Node20</title>
<g id="a_Node000020"><a xlink:href="main_8c.html#a59ccabe25c63661e6e66b44209b0f162" target="_top" xlink:title=" ">
<polygon fill="white" stroke="#666666" points="652,-336 592,-336 592,-317 652,-317 652,-336"/>
<text text-anchor="middle" x="622" y="-324" font-family="Helvetica,sans-Serif" font-size="10.00">FInternal</text>
</a>
</g>
</g>
<!-- Node19&#45;&gt;Node20 -->
<g id="edge26_Node000019_Node000020" class="edge">
<title>Node19&#45;&gt;Node20</title>
<g id="a_edge26_Node000019_Node000020"><a xlink:title=" ">
<path fill="none" stroke="#63b8ff" d="M747.36,-344.64C717.92,-340.35 678.63,-334.62 652.15,-330.75"/>
<polygon fill="#63b8ff" stroke="#63b8ff" points="746.93,-348.12 757.33,-346.1 747.94,-341.19 746.93,-348.12"/>
</a>
</g>
</g>
<!-- Node20&#45;&gt;Node3 -->
<g id="edge28_Node000020_Node000003" class="edge">
<title>Node20&#45;&gt;Node3</title>
<g id="a_edge28_Node000020_Node000003"><a xlink:title=" ">
<path fill="none" stroke="#63b8ff" d="M591.08,-312.67C570.75,-303.61 543.1,-291.93 518,-283.5 452.3,-261.43 428.68,-276.12 367,-244.5 348.47,-235 348.67,-225.53 331,-214.5 322.11,-208.95 311.71,-203.98 302.46,-200.02"/>
<polygon fill="#63b8ff" stroke="#63b8ff" points="589.87,-315.97 600.42,-316.88 592.74,-309.59 589.87,-315.97"/>
</a>
</g>
</g>
<!-- Node20&#45;&gt;Node5 -->
<g id="edge29_Node000020_Node000005" class="edge">
<title>Node20&#45;&gt;Node5</title>
<g id="a_edge29_Node000020_Node000005"><a xlink:title=" ">
<path fill="none" stroke="#63b8ff" d="M581.67,-329.38C547.79,-331.86 499.83,-335.37 470.24,-337.54"/>
<polygon fill="#63b8ff" stroke="#63b8ff" points="581.97,-332.87 591.69,-328.65 581.46,-325.89 581.97,-332.87"/>
</a>
</g>
</g>
<!-- Node20&#45;&gt;Node7 -->
<g id="edge30_Node000020_Node000007" class="edge">
<title>Node20&#45;&gt;Node7</title>
<g id="a_edge30_Node000020_Node000007"><a xlink:title=" ">
<path fill="none" stroke="#63b8ff" d="M592.91,-340.58C556.51,-358.84 493.99,-390.18 462.63,-405.91"/>
<polygon fill="#63b8ff" stroke="#63b8ff" points="594.63,-343.64 602,-336.02 591.5,-337.38 594.63,-343.64"/>
</a>
</g>
</g>
<!-- Node21 -->
<g id="Node000021" class="node">
<title>Node21</title>
<g id="a_Node000021"><a xlink:href="main_8c.html#aac0575d69dba68d64a6c0f65c2d8f635" target="_top" xlink:title=" ">
<polygon fill="white" stroke="#666666" points="469.5,-312 415.5,-312 415.5,-293 469.5,-293 469.5,-312"/>
<text text-anchor="middle" x="442.5" y="-300" font-family="Helvetica,sans-Serif" font-size="10.00">Contact</text>
</a>
</g>
</g>
<!-- Node20&#45;&gt;Node21 -->
<g id="edge27_Node000020_Node000021" class="edge">
<title>Node20&#45;&gt;Node21</title>
<g id="a_edge27_Node000020_Node000021"><a xlink:title=" ">
<path fill="none" stroke="#63b8ff" d="M581.6,-321.17C547.52,-316.56 499.19,-310.03 469.67,-306.04"/>
<polygon fill="#63b8ff" stroke="#63b8ff" points="581.31,-324.67 591.69,-322.54 582.25,-317.73 581.31,-324.67"/>
</a>
</g>
</g>
<!-- Node22&#45;&gt;Node23 -->
<g id="edge32_Node000022_Node000023" class="edge">
<title>Node22&#45;&gt;Node23</title>
<g id="a_edge32_Node000022_Node000023"><a xlink:title=" ">
<path fill="none" stroke="#63b8ff" d="M899.75,-593.6C877.19,-588.26 850.94,-582.05 829.71,-577.02"/>
<polygon fill="#63b8ff" stroke="#63b8ff" points="898.96,-597.01 909.5,-595.91 900.57,-590.2 898.96,-597.01"/>
</a>
</g>
</g>
<!-- Node24 -->
<g id="Node000024" class="node">
<title>Node24</title>
<g id="a_Node000024"><a xlink:href="contact_8c.html#a0173ae94a0fbdb205657fab39e4ac283" target="_top" xlink:title=" ">
<polygon fill="white" stroke="#666666" points="654.5,-577 589.5,-577 589.5,-558 654.5,-558 654.5,-577"/>
<text text-anchor="middle" x="622" y="-565" font-family="Helvetica,sans-Serif" font-size="10.00">Fcontactij</text>
</a>
</g>
</g>
<!-- Node23&#45;&gt;Node24 -->
<g id="edge33_Node000023_Node000024" class="edge">
<title>Node23&#45;&gt;Node24</title>
<g id="a_edge33_Node000023_Node000024"><a xlink:title=" ">
<path fill="none" stroke="#63b8ff" d="M732.09,-567.5C706.32,-567.5 676.6,-567.5 654.7,-567.5"/>
<polygon fill="#63b8ff" stroke="#63b8ff" points="732.11,-571 742.11,-567.5 732.11,-564 732.11,-571"/>
</a>
</g>
</g>
<!-- Node25 -->
<g id="Node000025" class="node">
<title>Node25</title>
<g id="a_Node000025"><a xlink:href="contact_8c.html#a06edbb0f42476ba499bbf2fadb0881c0" target="_top" xlink:title=" ">
<polygon fill="white" stroke="#666666" points="161,-576 102,-576 102,-557 161,-557 161,-576"/>
<text text-anchor="middle" x="131.5" y="-564" font-family="Helvetica,sans-Serif" font-size="10.00">Fcontact</text>
</a>
</g>
</g>
<!-- Node24&#45;&gt;Node25 -->
<g id="edge34_Node000024_Node000025" class="edge">
<title>Node24&#45;&gt;Node25</title>
<g id="a_edge34_Node000024_Node000025"><a xlink:title=" ">
<path fill="none" stroke="#63b8ff" d="M579.3,-567.41C482.28,-567.22 243.42,-566.73 161,-566.56"/>
<polygon fill="#63b8ff" stroke="#63b8ff" points="579.32,-570.91 589.32,-567.44 579.33,-563.91 579.32,-570.91"/>
</a>
</g>
</g>
<!-- Node25&#45;&gt;Node4 -->
<g id="edge35_Node000025_Node000004" class="edge">
<title>Node25&#45;&gt;Node4</title>
<g id="a_edge35_Node000025_Node000004"><a xlink:title=" ">
<path fill="none" stroke="#63b8ff" d="M91.98,-558.37C86.32,-555.71 81.04,-552.18 77,-547.5 40.33,-505 25.25,-319.37 22.13,-275.03"/>
<polygon fill="#63b8ff" stroke="#63b8ff" points="91.14,-561.8 101.73,-562.08 93.63,-555.25 91.14,-561.8"/>
</a>
</g>
</g>
<!-- Node29 -->
<g id="Node000029" class="node">
<title>Node29</title>
<g id="a_Node000029"><a xlink:href="muscle__activation_8c.html#aad998374ae4f3ca2c8f14b4c4b2aaafd" target="_top" xlink:title=" ">
<polygon fill="white" stroke="#666666" points="850,-93 727,-93 727,-74 850,-74 850,-93"/>
<text text-anchor="middle" x="788.5" y="-81" font-family="Helvetica,sans-Serif" font-size="10.00">InitMuscleActProblem</text>
</a>
</g>
</g>
<!-- Node28&#45;&gt;Node29 -->
<g id="edge39_Node000028_Node000029" class="edge">
<title>Node28&#45;&gt;Node29</title>
<g id="a_edge39_Node000028_Node000029"><a xlink:title=" ">
<path fill="none" stroke="#63b8ff" d="M876.34,-83.5C867.56,-83.5 858.68,-83.5 850.12,-83.5"/>
<polygon fill="#63b8ff" stroke="#63b8ff" points="876.57,-87 886.57,-83.5 876.57,-80 876.57,-87"/>
</a>
</g>
</g>
<!-- Node31 -->
<g id="Node000031" class="node">
<title>Node31</title>
<g id="a_Node000031"><a xlink:href="active__strain_8c.html#a993ef27fda81bb402cba4aa14fa9b51a" target="_top" xlink:title="Build current covariant/contravariant basis vectors for one element.">
<polygon fill="white" stroke="#666666" points="830.5,-180 746.5,-180 746.5,-161 830.5,-161 830.5,-180"/>
<text text-anchor="middle" x="788.5" y="-168" font-family="Helvetica,sans-Serif" font-size="10.00">ElemUpdateG</text>
</a>
</g>
</g>
<!-- Node30&#45;&gt;Node31 -->
<g id="edge41_Node000030_Node000031" class="edge">
<title>Node30&#45;&gt;Node31</title>
<g id="a_edge41_Node000030_Node000031"><a xlink:title=" ">
<path fill="none" stroke="#63b8ff" d="M882.7,-184.44C865.05,-181.8 846.55,-179.03 830.72,-176.66"/>
<polygon fill="#63b8ff" stroke="#63b8ff" points="882.55,-187.95 892.96,-185.97 883.59,-181.03 882.55,-187.95"/>
</a>
</g>
</g>
<!-- Node32 -->
<g id="Node000032" class="node">
<title>Node32</title>
<g id="a_Node000032"><a xlink:href="active__strain_8c.html#a693fb698122674ff7df6dd47ac75167c" target="_top" xlink:title="Run per&#45;element precomputations before global internal&#45;force assembly.">
<polygon fill="white" stroke="#666666" points="670.5,-199 573.5,-199 573.5,-180 670.5,-180 670.5,-199"/>
<text text-anchor="middle" x="622" y="-187" font-family="Helvetica,sans-Serif" font-size="10.00">FInternalPreCalc</text>
</a>
</g>
</g>
<!-- Node31&#45;&gt;Node32 -->
<g id="edge42_Node000031_Node000032" class="edge">
<title>Node31&#45;&gt;Node32</title>
<g id="a_edge42_Node000031_Node000032"><a xlink:title=" ">
<path fill="none" stroke="#63b8ff" d="M736.38,-176.4C715.37,-178.83 691.18,-181.63 670.55,-184.01"/>
<polygon fill="#63b8ff" stroke="#63b8ff" points="736.88,-179.87 746.41,-175.25 736.08,-172.92 736.88,-179.87"/>
</a>
</g>
</g>
<!-- Node34 -->
<g id="Node000034" class="node">
<title>Node34</title>
<g id="a_Node000034"><a xlink:href="cuda__processes_8c.html#a627a27228923fbc3e63f0f4e1c5aa765" target="_top" xlink:title=" ">
<polygon fill="white" stroke="#666666" points="186,-124 77,-124 77,-105 186,-105 186,-124"/>
<text text-anchor="middle" x="131.5" y="-112" font-family="Helvetica,sans-Serif" font-size="10.00">RunCudaProcesses</text>
</a>
</g>
</g>
<!-- Node31&#45;&gt;Node34 -->
<g id="edge45_Node000031_Node000034" class="edge">
<title>Node31&#45;&gt;Node34</title>
<g id="a_edge45_Node000031_Node000034"><a xlink:title=" ">
<path fill="none" stroke="#63b8ff" d="M758.61,-156.66C739.59,-148.28 713.88,-138.3 690,-133.5 508.18,-96.95 286.42,-104.45 186.21,-110.55"/>
<polygon fill="#63b8ff" stroke="#63b8ff" points="757.35,-159.93 767.9,-160.86 760.24,-153.55 757.35,-159.93"/>
</a>
</g>
</g>
<!-- Node35 -->
<g id="Node000035" class="node">
<title>Node35</title>
<g id="a_Node000035"><a xlink:href="dmplex__geom_8c.html#aa2b24de348fff4079de659ff63ba9b85" target="_top" xlink:title="Synchronise remote coordinates and evaluate the geometry kernel for all local cells.">
<polygon fill="white" stroke="#666666" points="679.5,-162 564.5,-162 564.5,-143 679.5,-143 679.5,-162"/>
<text text-anchor="middle" x="622" y="-150" font-family="Helvetica,sans-Serif" font-size="10.00">RunLocalGeometry_</text>
</a>
</g>
</g>
<!-- Node31&#45;&gt;Node35 -->
<g id="edge47_Node000031_Node000035" class="edge">
<title>Node31&#45;&gt;Node35</title>
<g id="a_edge47_Node000031_Node000035"><a xlink:title=" ">
<path fill="none" stroke="#63b8ff" d="M736.41,-164.91C718.42,-162.94 698.1,-160.72 679.68,-158.7"/>
<polygon fill="#63b8ff" stroke="#63b8ff" points="736.09,-168.4 746.41,-166 736.85,-161.44 736.09,-168.4"/>
</a>
</g>
</g>
<!-- Node33 -->
<g id="Node000033" class="node">
<title>Node33</title>
<g id="a_Node000033"><a xlink:href="active__strain_8c.html#a3bac899c10052c346d2afe9eccbac71d" target="_top" xlink:title="Assemble global internal force vector for active&#45;strain mechanics.">
<polygon fill="white" stroke="#666666" points="480.5,-199 404.5,-199 404.5,-180 480.5,-180 480.5,-199"/>
<text text-anchor="middle" x="442.5" y="-187" font-family="Helvetica,sans-Serif" font-size="10.00">FInternalAct</text>
</a>
</g>
</g>
<!-- Node32&#45;&gt;Node33 -->
<g id="edge43_Node000032_Node000033" class="edge">
<title>Node32&#45;&gt;Node33</title>
<g id="a_edge43_Node000032_Node000033"><a xlink:title=" ">
<path fill="none" stroke="#63b8ff" d="M563.25,-189.5C536.06,-189.5 504.42,-189.5 480.5,-189.5"/>
<polygon fill="#63b8ff" stroke="#63b8ff" points="563.43,-193 573.43,-189.5 563.43,-186 563.43,-193"/>
</a>
</g>
</g>
<!-- Node33&#45;&gt;Node3 -->
<g id="edge44_Node000033_Node000003" class="edge">
<title>Node33&#45;&gt;Node3</title>
<g id="a_edge44_Node000033_Node000003"><a xlink:title=" ">
<path fill="none" stroke="#63b8ff" d="M394.2,-189.79C373.65,-189.91 349.52,-190.06 328.55,-190.19"/>
<polygon fill="#63b8ff" stroke="#63b8ff" points="394.31,-193.29 404.29,-189.73 394.26,-186.29 394.31,-193.29"/>
</a>
</g>
</g>
<!-- Node34&#45;&gt;Node4 -->
<g id="edge46_Node000034_Node000004" class="edge">
<title>Node34&#45;&gt;Node4</title>
<g id="a_edge46_Node000034_Node000004"><a xlink:title=" ">
<path fill="none" stroke="#63b8ff" d="M89.77,-128.8C85.11,-131.54 80.71,-134.75 77,-138.5 42.63,-173.21 27.87,-232.73 23.23,-255.89"/>
<polygon fill="#63b8ff" stroke="#63b8ff" points="91.63,-131.77 98.93,-124.09 88.43,-125.55 91.63,-131.77"/>
</a>
</g>
</g>
<!-- Node36 -->
<g id="Node000036" class="node">
<title>Node36</title>
<g id="a_Node000036"><a xlink:href="dmplex__geom_8c.html#ac4ecb4d172bee5f7c59a9fdf2680bb51" target="_top" xlink:title="Benchmark: run the full distributed DMPlex geometry pipeline for all bodies.">
<polygon fill="white" stroke="#666666" points="518,-162 367,-162 367,-143 518,-143 518,-162"/>
<text text-anchor="middle" x="442.5" y="-150" font-family="Helvetica,sans-Serif" font-size="10.00">RunDMPlexGeomProcesses</text>
</a>
</g>
</g>
<!-- Node35&#45;&gt;Node36 -->
<g id="edge48_Node000035_Node000036" class="edge">
<title>Node35&#45;&gt;Node36</title>
<g id="a_edge48_Node000035_Node000036"><a xlink:title=" ">
<path fill="none" stroke="#63b8ff" d="M554.16,-152.5C542.39,-152.5 530.06,-152.5 518.09,-152.5"/>
<polygon fill="#63b8ff" stroke="#63b8ff" points="554.35,-156 564.35,-152.5 554.35,-149 554.35,-156"/>
</a>
</g>
</g>
<!-- Node36&#45;&gt;Node4 -->
<g id="edge49_Node000036_Node000004" class="edge">
<title>Node36&#45;&gt;Node4</title>
<g id="a_edge49_Node000036_Node000004"><a xlink:title=" ">
<path fill="none" stroke="#63b8ff" d="M367.76,-141.96C289.95,-134.62 166.44,-134.01 77,-186.5 49.39,-202.7 32.08,-238.7 25.08,-255.94"/>
<polygon fill="#63b8ff" stroke="#63b8ff" points="367.66,-145.47 377.96,-142.99 368.36,-138.51 367.66,-145.47"/>
</a>
</g>
</g>
<!-- Node37&#45;&gt;Node4 -->
<g id="edge52_Node000037_Node000004" class="edge">
<title>Node37&#45;&gt;Node4</title>
<g id="a_edge52_Node000037_Node000004"><a xlink:title=" ">
<path fill="none" stroke="#63b8ff" d="M80.86,-513.25C79.49,-512.09 78.19,-510.84 77,-509.5 44.89,-473.38 26.67,-315.73 22.45,-275.09"/>
<polygon fill="#63b8ff" stroke="#63b8ff" points="79.21,-516.35 89.48,-518.97 83.08,-510.52 79.21,-516.35"/>
</a>
</g>
</g>
<!-- Node38&#45;&gt;Node18 -->
<g id="edge55_Node000038_Node000018" class="edge">
<title>Node38&#45;&gt;Node18</title>
<g id="a_edge55_Node000038_Node000018"><a xlink:title=" ">
<path fill="none" stroke="#63b8ff" d="M729.25,-227.33C666.94,-227.15 568.55,-226.86 505.02,-226.68"/>
<polygon fill="#63b8ff" stroke="#63b8ff" points="729.3,-230.83 739.31,-227.36 729.32,-223.83 729.3,-230.83"/>
</a>
</g>
</g>
<!-- Node39&#45;&gt;Node16 -->
<g id="edge57_Node000039_Node000016" class="edge">
<title>Node39&#45;&gt;Node16</title>
<g id="a_edge57_Node000039_Node000016"><a xlink:title=" ">
<path fill="none" stroke="#63b8ff" d="M899.68,-296.59C884.33,-292.95 867.27,-288.91 851.25,-285.12"/>
<polygon fill="#63b8ff" stroke="#63b8ff" points="898.96,-300.01 909.5,-298.91 900.57,-293.2 898.96,-300.01"/>
</a>
</g>
</g>
<!-- Node39&#45;&gt;Node19 -->
<g id="edge58_Node000039_Node000019" class="edge">
<title>Node39&#45;&gt;Node19</title>
<g id="a_edge58_Node000039_Node000019"><a xlink:title=" ">
<path fill="none" stroke="#63b8ff" d="M903.56,-320.65C876.52,-327.73 843.21,-336.44 819.59,-342.63"/>
<polygon fill="#63b8ff" stroke="#63b8ff" points="904.79,-323.95 913.58,-318.03 903.02,-317.18 904.79,-323.95"/>
</a>
</g>
</g>
<!-- Node40 -->
<g id="Node000040" class="node">
<title>Node40</title>
<g id="a_Node000040"><a xlink:href="membrane_8c.html#a9fee56a81a4f404db4630a996f38013c" target="_top" xlink:title=" ">
<polygon fill="white" stroke="#666666" points="826.5,-323 750.5,-323 750.5,-304 826.5,-304 826.5,-323"/>
<text text-anchor="middle" x="788.5" y="-311" font-family="Helvetica,sans-Serif" font-size="10.00">Fmembrane</text>
</a>
</g>
</g>
<!-- Node39&#45;&gt;Node40 -->
<g id="edge59_Node000039_Node000040" class="edge">
<title>Node39&#45;&gt;Node40</title>
<g id="a_edge59_Node000039_Node000040"><a xlink:title=" ">
<path fill="none" stroke="#63b8ff" d="M880.95,-310.65C862.39,-311.23 843.01,-311.83 826.9,-312.33"/>
<polygon fill="#63b8ff" stroke="#63b8ff" points="881.26,-314.14 891.15,-310.33 881.04,-307.15 881.26,-314.14"/>
</a>
</g>
</g>
<!-- Node40&#45;&gt;Node20 -->
<g id="edge60_Node000040_Node000020" class="edge">
<title>Node40&#45;&gt;Node20</title>
<g id="a_edge60_Node000040_Node000020"><a xlink:title=" ">
<path fill="none" stroke="#63b8ff" d="M740.07,-317.25C711.71,-319.49 676.59,-322.26 652.25,-324.19"/>
<polygon fill="#63b8ff" stroke="#63b8ff" points="740.48,-320.73 750.17,-316.45 739.93,-313.75 740.48,-320.73"/>
</a>
</g>
</g>
</g>
</svg>
