<?xml version="1.0" encoding="UTF-8" standalone="no"?>
<!DOCTYPE svg PUBLIC "-//W3C//DTD SVG 1.1//EN"
 "http://www.w3.org/Graphics/SVG/1.1/DTD/svg11.dtd">
<!-- Generated by graphviz version 2.43.0 (0)
 -->
<!-- Title: CROSS Pages: 1 -->
<!--zoomable 413 -->

<svg id="main" version="1.1" xmlns="http://www.w3.org/2000/svg" xmlns:xlink="http://www.w3.org/1999/xlink" xml:space="preserve" onload="init(evt)">
<style type="text/css"><![CDATA[
.node, .edge {opacity: 0.7;}
.node.selected, .edge.selected {opacity: 1;}
.edge:hover path { stroke: red; }
.edge:hover polygon { stroke: red; fill: red; }
]]></style>

<defs>
  <circle id="rim" cx="0" cy="0" r="7"/>
  <circle id="rim2" cx="0" cy="0" r="3.5"/>
  <g id="zoomPlus">
    <use xlink:href="#rim" fill="#404040"><set attributeName="fill" to="#808080" begin="zoomplus.mouseover" end="zoomplus.mouseout"/></use>
    <path d="M-4,0h8M0,-4v8" fill="none" stroke="white" stroke-width="1.5" pointer-events="none"/>
  </g>
  <g id="zoomMin">
    <use xlink:href="#rim" fill="#404040"><set attributeName="fill" to="#808080" begin="zoomminus.mouseover" end="zoomminus.mouseout"/></use>
    <path d="M-4,0h8" fill="none" stroke="white" stroke-width="1.5" pointer-events="none"/>
  </g>
  <g id="arrowUp" transform="translate(30 24)">
    <use xlink:href="#rim"/>
    <path pointer-events="none" fill="none" stroke="white" stroke-width="1.5" d="M0,-3.0v7 M-2.5,-0.5L0,-3.0L2.5,-0.5"/>
  </g>
  <g id="arrowRight" transform="rotate(90) translate(36 -43)">
    <use xlink:href="#rim"/>
    <path pointer-events="none" fill="none" stroke="white" stroke-width="1.5" d="M0,-3.0v7 M-2.5,-0.5L0,-3.0L2.5,-0.5"/>
  </g>
  <g id="arrowDown" transform="rotate(180) translate(-30 -48)">
    <use xlink:href="#rim"/>
    <path pointer-events="none" fill="none" stroke="white" stroke-width="1.5" d="M0,-3.0v7 M-2.5,-0.5L0,-3.0L2.5,-0.5"/>
  </g>
  <g id="arrowLeft" transform="rotate(270) translate(-36 17)">
    <use xlink:href="#rim"/>
    <path pointer-events="none" fill="none" stroke="white" stroke-width="1.5" d="M0,-3.0v7 M-2.5,-0.5L0,-3.0L2.5,-0.5"/>
  </g>
  <g id="resetDef">
    <use xlink:href="#rim2" fill="#404040"><set attributeName="fill" to="#808080" begin="reset.mouseover" end="reset.mouseout"/></use>
  </g>
</defs>
<script type="application/ecmascript">
var viewWidth = 1211;
var viewHeight = 413;
var sectionId = 'dynsection-3';
</script>
<script type="application/ecmascript" xlink:href="svg.min.js"/>
<svg id="graph" class="graph">
<g id="viewport">
<title>CROSS</title>
<!-- Node1 -->
<g id="Node000001" class="node">
<title>Node1</title>
<g id="a_Node000001"><a xlink:title=" ">
<polygon fill="#999999" stroke="#666666" points="1203,-205 1153,-205 1153,-186 1203,-186 1203,-205"/>
<text text-anchor="middle" x="1178" y="-193" font-family="Helvetica,sans-Serif" font-size="10.00">CROSS</text>
</a>
</g>
</g>
<!-- Node2 -->
<g id="Node000002" class="node">
<title>Node2</title>
<g id="a_Node000002"><a xlink:href="muscle__activation_8c.html#a8de86acbd2114bdd44a3b7125602d0fe" target="_top" xlink:title=" ">
<polygon fill="white" stroke="#666666" points="1092,-318 978,-318 978,-299 1092,-299 1092,-318"/>
<text text-anchor="middle" x="1035" y="-306" font-family="Helvetica,sans-Serif" font-size="10.00">calculate_cov_basis</text>
</a>
</g>
</g>
<!-- Node1&#45;&gt;Node2 -->
<g id="edge1_Node000001_Node000002" class="edge">
<title>Node1&#45;&gt;Node2</title>
<g id="a_edge1_Node000001_Node000002"><a xlink:title=" ">
<path fill="none" stroke="#63b8ff" d="M1169.06,-214.31C1159.57,-234.56 1141.81,-266.3 1117,-284.5 1108.37,-290.83 1098.07,-295.5 1087.76,-298.95"/>
<polygon fill="#63b8ff" stroke="#63b8ff" points="1172.27,-215.71 1173.16,-205.15 1165.88,-212.85 1172.27,-215.71"/>
</a>
</g>
</g>
<!-- Node6 -->
<g id="Node000006" class="node">
<title>Node6</title>
<g id="a_Node000006"><a xlink:href="muscle__activation_8c.html#a93dfc79086ad3d8e7eb4a92d7c64565d" target="_top" xlink:title=" ">
<polygon fill="white" stroke="#666666" points="900.5,-280 772.5,-280 772.5,-261 900.5,-261 900.5,-280"/>
<text text-anchor="middle" x="836.5" y="-268" font-family="Helvetica,sans-Serif" font-size="10.00">CompInitCovBasisVecs</text>
</a>
</g>
</g>
<!-- Node1&#45;&gt;Node6 -->
<g id="edge6_Node000001_Node000006" class="edge">
<title>Node1&#45;&gt;Node6</title>
<g id="a_edge6_Node000001_Node000006"><a xlink:title=" ">
<path fill="none" stroke="#63b8ff" d="M1163.86,-213.04C1152.92,-226.17 1136.09,-243.22 1117,-251.5 1047.51,-281.65 959.12,-282.15 900.55,-277.91"/>
<polygon fill="#63b8ff" stroke="#63b8ff" points="1166.68,-215.12 1170.16,-205.12 1161.2,-210.76 1166.68,-215.12"/>
</a>
</g>
</g>
<!-- Node7 -->
<g id="Node000007" class="node">
<title>Node7</title>
<g id="a_Node000007"><a xlink:href="active__strain_8c.html#a8ffbd5ab9cf4de7388a8a1b66bf48821" target="_top" xlink:title=" ">
<polygon fill="white" stroke="#666666" points="1093,-205 977,-205 977,-186 1093,-186 1093,-205"/>
<text text-anchor="middle" x="1035" y="-193" font-family="Helvetica,sans-Serif" font-size="10.00">Compute_a3_alpha_</text>
</a>
</g>
</g>
<!-- Node1&#45;&gt;Node7 -->
<g id="edge8_Node000001_Node000007" class="edge">
<title>Node1&#45;&gt;Node7</title>
<g id="a_edge8_Node000001_Node000007"><a xlink:title=" ">
<path fill="none" stroke="#63b8ff" d="M1142.54,-195.5C1127.72,-195.5 1109.99,-195.5 1093.29,-195.5"/>
<polygon fill="#63b8ff" stroke="#63b8ff" points="1142.76,-199 1152.76,-195.5 1142.76,-192 1142.76,-199"/>
</a>
</g>
</g>
<!-- Node16 -->
<g id="Node000016" class="node">
<title>Node16</title>
<g id="a_Node000016"><a xlink:href="muscle__activation_8c.html#a5bcab0a432f4401f206e0366535f005e" target="_top" xlink:title="High&#45;Level Procedure for Muscle Activation Update.">
<polygon fill="white" stroke="#666666" points="1105.5,-242 964.5,-242 964.5,-223 1105.5,-223 1105.5,-242"/>
<text text-anchor="middle" x="1035" y="-230" font-family="Helvetica,sans-Serif" font-size="10.00">compute_act_Fa_element</text>
</a>
</g>
</g>
<!-- Node1&#45;&gt;Node16 -->
<g id="edge19_Node000001_Node000016" class="edge">
<title>Node1&#45;&gt;Node16</title>
<g id="a_edge19_Node000001_Node000016"><a xlink:title=" ">
<path fill="none" stroke="#63b8ff" d="M1143.27,-206.75C1134.74,-209.44 1125.57,-212.2 1117,-214.5 1105.87,-217.49 1093.79,-220.37 1082.43,-222.92"/>
<polygon fill="#63b8ff" stroke="#63b8ff" points="1144.46,-210.05 1152.91,-203.66 1142.32,-203.38 1144.46,-210.05"/>
</a>
</g>
</g>
<!-- Node18 -->
<g id="Node000018" class="node">
<title>Node18</title>
<g id="a_Node000018"><a xlink:href="muscle__activation_8c.html#a8bc18accda5d9acdf28357164879241e" target="_top" xlink:title="Compute intermediate deformed covariant basis vectors.">
<polygon fill="white" stroke="#666666" points="1096.5,-385.5 973.5,-385.5 973.5,-355.5 1096.5,-355.5 1096.5,-385.5"/>
<text text-anchor="start" x="981.5" y="-373.5" font-family="Helvetica,sans-Serif" font-size="10.00">compute_intmd_state</text>
<text text-anchor="middle" x="1035" y="-362.5" font-family="Helvetica,sans-Serif" font-size="10.00">_cov_basis_element</text>
</a>
</g>
</g>
<!-- Node1&#45;&gt;Node18 -->
<g id="edge22_Node000001_Node000018" class="edge">
<title>Node1&#45;&gt;Node18</title>
<g id="a_edge22_Node000001_Node000018"><a xlink:title=" ">
<path fill="none" stroke="#63b8ff" d="M1172.39,-215.13C1164.94,-243.1 1147.91,-294.64 1117,-327.5 1105.87,-339.33 1090.76,-348.56 1076.59,-355.38"/>
<polygon fill="#63b8ff" stroke="#63b8ff" points="1175.8,-215.9 1174.85,-205.34 1169.01,-214.19 1175.8,-215.9"/>
</a>
</g>
</g>
<!-- Node20 -->
<g id="Node000020" class="node">
<title>Node20</title>
<g id="a_Node000020"><a xlink:href="muscle__activation_8c.html#a19d89612f2544ef7f352badd7cf1f337" target="_top" xlink:title=" ">
<polygon fill="white" stroke="#666666" points="1097.5,-119.5 972.5,-119.5 972.5,-89.5 1097.5,-89.5 1097.5,-119.5"/>
<text text-anchor="start" x="980.5" y="-107.5" font-family="Helvetica,sans-Serif" font-size="10.00">compute_mid_surface</text>
<text text-anchor="middle" x="1035" y="-96.5" font-family="Helvetica,sans-Serif" font-size="10.00">_el_stress_after_act</text>
</a>
</g>
</g>
<!-- Node1&#45;&gt;Node20 -->
<g id="edge25_Node000001_Node000020" class="edge">
<title>Node1&#45;&gt;Node20</title>
<g id="a_edge25_Node000001_Node000020"><a xlink:title=" ">
<path fill="none" stroke="#63b8ff" d="M1164.99,-177.21C1154.15,-162.08 1136.89,-141.09 1117,-128.5 1111.05,-124.74 1104.49,-121.54 1097.74,-118.83"/>
<polygon fill="#63b8ff" stroke="#63b8ff" points="1162.32,-179.5 1170.88,-185.75 1168.09,-175.53 1162.32,-179.5"/>
</a>
</g>
</g>
<!-- Node23 -->
<g id="Node000023" class="node">
<title>Node23</title>
<g id="a_Node000023"><a xlink:href="active__strain_8c.html#ae4a3af9fcd986a9bf95c7d223d058909" target="_top" xlink:title="Build reference covariant/contravariant basis vectors for one element.">
<polygon fill="white" stroke="#666666" points="1080,-34 990,-34 990,-15 1080,-15 1080,-34"/>
<text text-anchor="middle" x="1035" y="-22" font-family="Helvetica,sans-Serif" font-size="10.00">ElemUpdateG0</text>
</a>
</g>
</g>
<!-- Node1&#45;&gt;Node23 -->
<g id="edge28_Node000001_Node000023" class="edge">
<title>Node1&#45;&gt;Node23</title>
<g id="a_edge28_Node000001_Node000023"><a xlink:title=" ">
<path fill="none" stroke="#63b8ff" d="M1175.1,-175.68C1170.86,-142.81 1157.53,-77.18 1117,-42.5 1106.82,-33.79 1093.35,-29.03 1080.32,-26.5"/>
<polygon fill="#63b8ff" stroke="#63b8ff" points="1171.65,-176.3 1176.26,-185.84 1178.61,-175.51 1171.65,-176.3"/>
</a>
</g>
</g>
<!-- Node24 -->
<g id="Node000024" class="node">
<title>Node24</title>
<g id="a_Node000024"><a xlink:href="active__strain_8c.html#a9ef026a24ded6fec7243fd82f49394c3" target="_top" xlink:title=" ">
<polygon fill="white" stroke="#666666" points="1117,-167.5 953,-167.5 953,-137.5 1117,-137.5 1117,-167.5"/>
<text text-anchor="start" x="961" y="-155.5" font-family="Helvetica,sans-Serif" font-size="10.00">ElemUpdateGeomSubdivFrom</text>
<text text-anchor="middle" x="1035" y="-144.5" font-family="Helvetica,sans-Serif" font-size="10.00">Coords_</text>
</a>
</g>
</g>
<!-- Node1&#45;&gt;Node24 -->
<g id="edge29_Node000001_Node000024" class="edge">
<title>Node1&#45;&gt;Node24</title>
<g id="a_edge29_Node000001_Node000024"><a xlink:title=" ">
<path fill="none" stroke="#63b8ff" d="M1143.09,-185.16C1125.78,-179.88 1104.39,-173.36 1085.3,-167.53"/>
<polygon fill="#63b8ff" stroke="#63b8ff" points="1142.18,-188.54 1152.76,-188.11 1144.22,-181.84 1142.18,-188.54"/>
</a>
</g>
</g>
<!-- Node31 -->
<g id="Node000031" class="node">
<title>Node31</title>
<g id="a_Node000031"><a xlink:href="muscle__activation_8c.html#a357b3bb1950e461f37dc728929d29486" target="_top" xlink:title=" ">
<polygon fill="white" stroke="#666666" points="1084,-71 986,-71 986,-52 1084,-52 1084,-71"/>
<text text-anchor="middle" x="1035" y="-59" font-family="Helvetica,sans-Serif" font-size="10.00">FInternalAftActEl</text>
</a>
</g>
</g>
<!-- Node1&#45;&gt;Node31 -->
<g id="edge45_Node000001_Node000031" class="edge">
<title>Node1&#45;&gt;Node31</title>
<g id="a_edge45_Node000001_Node000031"><a xlink:title=" ">
<path fill="none" stroke="#63b8ff" d="M1172.24,-175.89C1164.9,-149.98 1148.28,-104.79 1117,-80.5 1107.53,-73.15 1095.69,-68.57 1084,-65.73"/>
<polygon fill="#63b8ff" stroke="#63b8ff" points="1168.89,-176.93 1174.83,-185.7 1175.66,-175.14 1168.89,-176.93"/>
</a>
</g>
</g>
<!-- Node3 -->
<g id="Node000003" class="node">
<title>Node3</title>
<g id="a_Node000003"><a xlink:href="muscle__activation_8c.html#a98fd1f2632f8a9dafbcd477adbf354a0" target="_top" xlink:title=" ">
<polygon fill="white" stroke="#666666" points="700.5,-356 594.5,-356 594.5,-337 700.5,-337 700.5,-356"/>
<text text-anchor="middle" x="647.5" y="-344" font-family="Helvetica,sans-Serif" font-size="10.00">find_intmd_coords</text>
</a>
</g>
</g>
<!-- Node2&#45;&gt;Node3 -->
<g id="edge2_Node000002_Node000003" class="edge">
<title>Node2&#45;&gt;Node3</title>
<g id="a_edge2_Node000002_Node000003"><a xlink:title=" ">
<path fill="none" stroke="#63b8ff" d="M967.73,-311.51C911.3,-314.49 828.14,-319.88 756,-328.5 737.49,-330.71 717.31,-333.88 699.49,-336.95"/>
<polygon fill="#63b8ff" stroke="#63b8ff" points="968.14,-314.99 977.94,-310.98 967.78,-308 968.14,-314.99"/>
</a>
</g>
</g>
<!-- Node5 -->
<g id="Node000005" class="node">
<title>Node5</title>
<g id="a_Node000005"><a xlink:href="muscle__activation_8c.html#a6775d705d7242ce0339ce632abbfa4b4" target="_top" xlink:title=" ">
<polygon fill="white" stroke="#666666" points="917,-356 756,-356 756,-337 917,-337 917,-356"/>
<text text-anchor="middle" x="836.5" y="-344" font-family="Helvetica,sans-Serif" font-size="10.00">form_interm_state_func_grad</text>
</a>
</g>
</g>
<!-- Node2&#45;&gt;Node5 -->
<g id="edge4_Node000002_Node000005" class="edge">
<title>Node2&#45;&gt;Node5</title>
<g id="a_edge4_Node000002_Node000005"><a xlink:title=" ">
<path fill="none" stroke="#63b8ff" d="M974.59,-319.99C946.55,-325.41 913.48,-331.81 886.85,-336.96"/>
<polygon fill="#63b8ff" stroke="#63b8ff" points="975.51,-323.38 984.67,-318.04 974.19,-316.5 975.51,-323.38"/>
</a>
</g>
</g>
<!-- Node4 -->
<g id="Node000004" class="node">
<title>Node4</title>
<g id="a_Node000004"><a xlink:href="muscle__activation_8c.html#aad998374ae4f3ca2c8f14b4c4b2aaafd" target="_top" xlink:title=" ">
<polygon fill="white" stroke="#666666" points="533,-337 410,-337 410,-318 533,-318 533,-337"/>
<text text-anchor="middle" x="471.5" y="-325" font-family="Helvetica,sans-Serif" font-size="10.00">InitMuscleActProblem</text>
</a>
</g>
</g>
<!-- Node3&#45;&gt;Node4 -->
<g id="edge3_Node000003_Node000004" class="edge">
<title>Node3&#45;&gt;Node4</title>
<g id="a_edge3_Node000003_Node000004"><a xlink:title=" ">
<path fill="none" stroke="#63b8ff" d="M584.17,-339.69C567.6,-337.88 549.72,-335.93 533.23,-334.13"/>
<polygon fill="#63b8ff" stroke="#63b8ff" points="583.97,-343.19 594.29,-340.8 584.73,-336.23 583.97,-343.19"/>
</a>
</g>
</g>
<!-- Node5&#45;&gt;Node3 -->
<g id="edge5_Node000005_Node000003" class="edge">
<title>Node5&#45;&gt;Node3</title>
<g id="a_edge5_Node000005_Node000003"><a xlink:title=" ">
<path fill="none" stroke="#63b8ff" d="M745.79,-346.5C730.32,-346.5 714.71,-346.5 700.66,-346.5"/>
<polygon fill="#63b8ff" stroke="#63b8ff" points="745.92,-350 755.92,-346.5 745.92,-343 745.92,-350"/>
</a>
</g>
</g>
<!-- Node6&#45;&gt;Node4 -->
<g id="edge7_Node000006_Node000004" class="edge">
<title>Node6&#45;&gt;Node4</title>
<g id="a_edge7_Node000006_Node000004"><a xlink:title=" ">
<path fill="none" stroke="#63b8ff" d="M768.04,-281.72C752.28,-284.31 735.56,-287.03 720,-289.5 656.24,-299.64 583.17,-310.8 533.05,-318.39"/>
<polygon fill="#63b8ff" stroke="#63b8ff" points="768.94,-285.12 778.24,-280.04 767.8,-278.21 768.94,-285.12"/>
</a>
</g>
</g>
<!-- Node8 -->
<g id="Node000008" class="node">
<title>Node8</title>
<g id="a_Node000008"><a xlink:href="active__strain_8c.html#a993ef27fda81bb402cba4aa14fa9b51a" target="_top" xlink:title="Build current covariant/contravariant basis vectors for one element.">
<polygon fill="white" stroke="#666666" points="878.5,-204 794.5,-204 794.5,-185 878.5,-185 878.5,-204"/>
<text text-anchor="middle" x="836.5" y="-192" font-family="Helvetica,sans-Serif" font-size="10.00">ElemUpdateG</text>
</a>
</g>
</g>
<!-- Node7&#45;&gt;Node8 -->
<g id="edge9_Node000007_Node000008" class="edge">
<title>Node7&#45;&gt;Node8</title>
<g id="a_edge9_Node000007_Node000008"><a xlink:title=" ">
<path fill="none" stroke="#63b8ff" d="M966.76,-195.16C937.56,-195.01 904.28,-194.84 878.81,-194.71"/>
<polygon fill="#63b8ff" stroke="#63b8ff" points="966.88,-198.66 976.9,-195.21 966.92,-191.66 966.88,-198.66"/>
</a>
</g>
</g>
<!-- Node9 -->
<g id="Node000009" class="node">
<title>Node9</title>
<g id="a_Node000009"><a xlink:href="active__strain_8c.html#a693fb698122674ff7df6dd47ac75167c" target="_top" xlink:title="Run per&#45;element precomputations before global internal&#45;force assembly.">
<polygon fill="white" stroke="#666666" points="520,-188 423,-188 423,-169 520,-169 520,-188"/>
<text text-anchor="middle" x="471.5" y="-176" font-family="Helvetica,sans-Serif" font-size="10.00">FInternalPreCalc</text>
</a>
</g>
</g>
<!-- Node8&#45;&gt;Node9 -->
<g id="edge10_Node000008_Node000009" class="edge">
<title>Node8&#45;&gt;Node9</title>
<g id="a_edge10_Node000008_Node000009"><a xlink:title=" ">
<path fill="none" stroke="#63b8ff" d="M784.04,-205.39C731.26,-214.89 646.92,-225.44 575,-213.5 546.06,-208.7 514.33,-196.75 493.96,-188.15"/>
<polygon fill="#63b8ff" stroke="#63b8ff" points="784.97,-208.77 794.17,-203.51 783.7,-201.89 784.97,-208.77"/>
</a>
</g>
</g>
<!-- Node13 -->
<g id="Node000013" class="node">
<title>Node13</title>
<g id="a_Node000013"><a xlink:href="cuda__processes_8c.html#a627a27228923fbc3e63f0f4e1c5aa765" target="_top" xlink:title=" ">
<polygon fill="white" stroke="#666666" points="702,-167 593,-167 593,-148 702,-148 702,-167"/>
<text text-anchor="middle" x="647.5" y="-155" font-family="Helvetica,sans-Serif" font-size="10.00">RunCudaProcesses</text>
</a>
</g>
</g>
<!-- Node8&#45;&gt;Node13 -->
<g id="edge14_Node000008_Node000013" class="edge">
<title>Node8&#45;&gt;Node13</title>
<g id="a_edge14_Node000008_Node000013"><a xlink:title=" ">
<path fill="none" stroke="#63b8ff" d="M784.32,-184.37C757,-178.97 723.58,-172.35 696.72,-167.04"/>
<polygon fill="#63b8ff" stroke="#63b8ff" points="783.97,-187.87 794.46,-186.38 785.33,-181.01 783.97,-187.87"/>
</a>
</g>
</g>
<!-- Node14 -->
<g id="Node000014" class="node">
<title>Node14</title>
<g id="a_Node000014"><a xlink:href="dmplex__geom_8c.html#aa2b24de348fff4079de659ff63ba9b85" target="_top" xlink:title="Synchronise remote coordinates and evaluate the geometry kernel for all local cells.">
<polygon fill="white" stroke="#666666" points="705,-204 590,-204 590,-185 705,-185 705,-204"/>
<text text-anchor="middle" x="647.5" y="-192" font-family="Helvetica,sans-Serif" font-size="10.00">RunLocalGeometry_</text>
</a>
</g>
</g>
<!-- Node8&#45;&gt;Node14 -->
<g id="edge16_Node000008_Node000014" class="edge">
<title>Node8&#45;&gt;Node14</title>
<g id="a_edge16_Node000008_Node000014"><a xlink:title=" ">
<path fill="none" stroke="#63b8ff" d="M784.27,-194.5C759.72,-194.5 730.25,-194.5 705.05,-194.5"/>
<polygon fill="#63b8ff" stroke="#63b8ff" points="784.46,-198 794.46,-194.5 784.46,-191 784.46,-198"/>
</a>
</g>
</g>
<!-- Node10 -->
<g id="Node000010" class="node">
<title>Node10</title>
<g id="a_Node000010"><a xlink:href="active__strain_8c.html#a3bac899c10052c346d2afe9eccbac71d" target="_top" xlink:title="Assemble global internal force vector for active&#45;strain mechanics.">
<polygon fill="white" stroke="#666666" points="330.5,-188 254.5,-188 254.5,-169 330.5,-169 330.5,-188"/>
<text text-anchor="middle" x="292.5" y="-176" font-family="Helvetica,sans-Serif" font-size="10.00">FInternalAct</text>
</a>
</g>
</g>
<!-- Node9&#45;&gt;Node10 -->
<g id="edge11_Node000009_Node000010" class="edge">
<title>Node9&#45;&gt;Node10</title>
<g id="a_edge11_Node000009_Node000010"><a xlink:title=" ">
<path fill="none" stroke="#63b8ff" d="M412.53,-178.5C385.64,-178.5 354.47,-178.5 330.77,-178.5"/>
<polygon fill="#63b8ff" stroke="#63b8ff" points="412.6,-182 422.6,-178.5 412.6,-175 412.6,-182"/>
</a>
</g>
</g>
<!-- Node11 -->
<g id="Node000011" class="node">
<title>Node11</title>
<g id="a_Node000011"><a xlink:href="main_8c.html#a9a070a6f408cadb404b0ee7fbc74c576" target="_top" xlink:title=" ">
<polygon fill="white" stroke="#666666" points="181,-188 77,-188 77,-169 181,-169 181,-188"/>
<text text-anchor="middle" x="129" y="-176" font-family="Helvetica,sans-Serif" font-size="10.00">FormFunctionFEM</text>
</a>
</g>
</g>
<!-- Node10&#45;&gt;Node11 -->
<g id="edge12_Node000010_Node000011" class="edge">
<title>Node10&#45;&gt;Node11</title>
<g id="a_edge12_Node000010_Node000011"><a xlink:title=" ">
<path fill="none" stroke="#63b8ff" d="M244.42,-178.5C224.61,-178.5 201.5,-178.5 181.26,-178.5"/>
<polygon fill="#63b8ff" stroke="#63b8ff" points="244.45,-182 254.45,-178.5 244.45,-175 244.45,-182"/>
</a>
</g>
</g>
<!-- Node12 -->
<g id="Node000012" class="node">
<title>Node12</title>
<g id="a_Node000012"><a xlink:href="main_8c.html#a3c04138a5bfe5d72780bb7e82a18e627" target="_top" xlink:title=" ">
<polygon fill="white" stroke="#666666" points="41,-150 0,-150 0,-131 41,-131 41,-150"/>
<text text-anchor="middle" x="20.5" y="-138" font-family="Helvetica,sans-Serif" font-size="10.00">main</text>
</a>
</g>
</g>
<!-- Node11&#45;&gt;Node12 -->
<g id="edge13_Node000011_Node000012" class="edge">
<title>Node11&#45;&gt;Node12</title>
<g id="a_edge13_Node000011_Node000012"><a xlink:title=" ">
<path fill="none" stroke="#63b8ff" d="M91.56,-165.5C74.73,-159.49 55.39,-152.59 41.31,-147.57"/>
<polygon fill="#63b8ff" stroke="#63b8ff" points="90.53,-168.85 101.13,-168.91 92.88,-162.25 90.53,-168.85"/>
</a>
</g>
</g>
<!-- Node13&#45;&gt;Node12 -->
<g id="edge15_Node000013_Node000012" class="edge">
<title>Node13&#45;&gt;Node12</title>
<g id="a_edge15_Node000013_Node000012"><a xlink:title=" ">
<path fill="none" stroke="#63b8ff" d="M582.94,-155.77C445.02,-152.02 124.02,-143.29 41.25,-141.04"/>
<polygon fill="#63b8ff" stroke="#63b8ff" points="582.85,-159.27 592.94,-156.04 583.04,-152.27 582.85,-159.27"/>
</a>
</g>
</g>
<!-- Node15 -->
<g id="Node000015" class="node">
<title>Node15</title>
<g id="a_Node000015"><a xlink:href="dmplex__geom_8c.html#ac4ecb4d172bee5f7c59a9fdf2680bb51" target="_top" xlink:title="Benchmark: run the full distributed DMPlex geometry pipeline for all bodies.">
<polygon fill="white" stroke="#666666" points="368,-226 217,-226 217,-207 368,-207 368,-226"/>
<text text-anchor="middle" x="292.5" y="-214" font-family="Helvetica,sans-Serif" font-size="10.00">RunDMPlexGeomProcesses</text>
</a>
</g>
</g>
<!-- Node14&#45;&gt;Node15 -->
<g id="edge17_Node000014_Node000015" class="edge">
<title>Node14&#45;&gt;Node15</title>
<g id="a_edge17_Node000014_Node000015"><a xlink:title=" ">
<path fill="none" stroke="#63b8ff" d="M579.62,-198.67C519.33,-202.43 430.8,-207.94 368.22,-211.84"/>
<polygon fill="#63b8ff" stroke="#63b8ff" points="580.02,-202.15 589.78,-198.03 579.59,-195.16 580.02,-202.15"/>
</a>
</g>
</g>
<!-- Node15&#45;&gt;Node12 -->
<g id="edge18_Node000015_Node000012" class="edge">
<title>Node15&#45;&gt;Node12</title>
<g id="a_edge18_Node000015_Node000012"><a xlink:title=" ">
<path fill="none" stroke="#63b8ff" d="M206.68,-222.4C165.72,-221.97 116.92,-216.47 77,-197.5 54.79,-186.95 36.64,-163.51 27.63,-150.21"/>
<polygon fill="#63b8ff" stroke="#63b8ff" points="206.92,-225.9 216.92,-222.4 206.92,-218.9 206.92,-225.9"/>
</a>
</g>
</g>
<!-- Node17 -->
<g id="Node000017" class="node">
<title>Node17</title>
<g id="a_Node000017"><a xlink:href="muscle__activation_8c.html#a0dda352c79a3d0150ff314d8c63e0054" target="_top" xlink:title="Updates all active Fa values for each element.">
<polygon fill="white" stroke="#666666" points="690.5,-280 604.5,-280 604.5,-261 690.5,-261 690.5,-280"/>
<text text-anchor="middle" x="647.5" y="-268" font-family="Helvetica,sans-Serif" font-size="10.00">update_act_Fa</text>
</a>
</g>
</g>
<!-- Node16&#45;&gt;Node17 -->
<g id="edge20_Node000016_Node000017" class="edge">
<title>Node16&#45;&gt;Node17</title>
<g id="a_edge20_Node000016_Node000017"><a xlink:title=" ">
<path fill="none" stroke="#63b8ff" d="M954.27,-236.24C898.59,-239.34 822.6,-244.55 756,-252.5 734.39,-255.08 710.5,-258.97 690.75,-262.48"/>
<polygon fill="#63b8ff" stroke="#63b8ff" points="954.63,-239.73 964.42,-235.69 954.25,-232.74 954.63,-239.73"/>
</a>
</g>
</g>
<!-- Node17&#45;&gt;Node4 -->
<g id="edge21_Node000017_Node000004" class="edge">
<title>Node17&#45;&gt;Node4</title>
<g id="a_edge21_Node000017_Node000004"><a xlink:title=" ">
<path fill="none" stroke="#63b8ff" d="M607.87,-283.16C575.79,-293.66 530.86,-308.38 501.72,-317.93"/>
<polygon fill="#63b8ff" stroke="#63b8ff" points="608.96,-286.48 617.38,-280.04 606.78,-279.83 608.96,-286.48"/>
</a>
</g>
</g>
<!-- Node19 -->
<g id="Node000019" class="node">
<title>Node19</title>
<g id="a_Node000019"><a xlink:href="muscle__activation_8c.html#a5000e7a797094fd0e94879c0c765d853" target="_top" xlink:title="Update intermediate deformed basis vectors for all elements.">
<polygon fill="white" stroke="#666666" points="893.5,-404.5 779.5,-404.5 779.5,-374.5 893.5,-374.5 893.5,-404.5"/>
<text text-anchor="start" x="787.5" y="-392.5" font-family="Helvetica,sans-Serif" font-size="10.00">update_intmd_state</text>
<text text-anchor="middle" x="836.5" y="-381.5" font-family="Helvetica,sans-Serif" font-size="10.00">_cov_basis</text>
</a>
</g>
</g>
<!-- Node18&#45;&gt;Node19 -->
<g id="edge23_Node000018_Node000019" class="edge">
<title>Node18&#45;&gt;Node19</title>
<g id="a_edge23_Node000018_Node000019"><a xlink:title=" ">
<path fill="none" stroke="#63b8ff" d="M963.4,-377.33C940.43,-379.55 915.26,-381.98 893.51,-384.08"/>
<polygon fill="#63b8ff" stroke="#63b8ff" points="963.82,-380.8 973.44,-376.36 963.15,-373.83 963.82,-380.8"/>
</a>
</g>
</g>
<!-- Node19&#45;&gt;Node4 -->
<g id="edge24_Node000019_Node000004" class="edge">
<title>Node19&#45;&gt;Node4</title>
<g id="a_edge24_Node000019_Node000004"><a xlink:title=" ">
<path fill="none" stroke="#63b8ff" d="M769.14,-388.19C716.04,-385.99 639.98,-380.27 575,-365.5 545.76,-358.86 513.57,-345.94 493.21,-337.02"/>
<polygon fill="#63b8ff" stroke="#63b8ff" points="769.32,-391.7 779.44,-388.58 769.59,-384.7 769.32,-391.7"/>
</a>
</g>
</g>
<!-- Node21 -->
<g id="Node000021" class="node">
<title>Node21</title>
<g id="a_Node000021"><a xlink:href="muscle__activation_8c.html#a3f9fadbc31e4872a8519e6bfdecf7b8f" target="_top" xlink:title=" ">
<polygon fill="white" stroke="#666666" points="904.5,-84.5 768.5,-84.5 768.5,-54.5 904.5,-54.5 904.5,-84.5"/>
<text text-anchor="start" x="776.5" y="-72.5" font-family="Helvetica,sans-Serif" font-size="10.00">update_mid_surf_elastic</text>
<text text-anchor="middle" x="836.5" y="-61.5" font-family="Helvetica,sans-Serif" font-size="10.00">_stress</text>
</a>
</g>
</g>
<!-- Node20&#45;&gt;Node21 -->
<g id="edge26_Node000020_Node000021" class="edge">
<title>Node20&#45;&gt;Node21</title>
<g id="a_edge26_Node000020_Node000021"><a xlink:title=" ">
<path fill="none" stroke="#63b8ff" d="M962.37,-91.74C943.54,-88.39 923.3,-84.78 904.71,-81.47"/>
<polygon fill="#63b8ff" stroke="#63b8ff" points="961.91,-95.21 972.37,-93.52 963.13,-88.32 961.91,-95.21"/>
</a>
</g>
</g>
<!-- Node22 -->
<g id="Node000022" class="node">
<title>Node22</title>
<g id="a_Node000022"><a xlink:href="muscle__activation_8c.html#a5794b91b41d38582fd698b653b53330e" target="_top" xlink:title=" ">
<polygon fill="white" stroke="#666666" points="710,-19 585,-19 585,0 710,0 710,-19"/>
<text text-anchor="middle" x="647.5" y="-7" font-family="Helvetica,sans-Serif" font-size="10.00">UpdateFInternalAftAct</text>
</a>
</g>
</g>
<!-- Node21&#45;&gt;Node22 -->
<g id="edge27_Node000021_Node000022" class="edge">
<title>Node21&#45;&gt;Node22</title>
<g id="a_edge27_Node000021_Node000022"><a xlink:title=" ">
<path fill="none" stroke="#63b8ff" d="M787.58,-50.83C766.95,-43.12 742.45,-34.39 720,-27.5 710.21,-24.5 699.56,-21.61 689.53,-19.07"/>
<polygon fill="#63b8ff" stroke="#63b8ff" points="786.48,-54.16 797.07,-54.41 788.95,-47.61 786.48,-54.16"/>
</a>
</g>
</g>
<!-- Node25 -->
<g id="Node000025" class="node">
<title>Node25</title>
<g id="a_Node000025"><a xlink:href="active__strain_8c.html#ac93e65e44aa9af3d11c2165016210d87" target="_top" xlink:title="Update reference midsurface geometry cache for one element.">
<polygon fill="white" stroke="#666666" points="909,-128 764,-128 764,-109 909,-109 909,-128"/>
<text text-anchor="middle" x="836.5" y="-116" font-family="Helvetica,sans-Serif" font-size="10.00">ElemUpdateGeom0Subdiv</text>
</a>
</g>
</g>
<!-- Node24&#45;&gt;Node25 -->
<g id="edge30_Node000024_Node000025" class="edge">
<title>Node24&#45;&gt;Node25</title>
<g id="a_edge30_Node000024_Node000025"><a xlink:title=" ">
<path fill="none" stroke="#63b8ff" d="M942.89,-136.73C925.72,-133.76 908.27,-130.74 892.63,-128.04"/>
<polygon fill="#63b8ff" stroke="#63b8ff" points="942.49,-140.22 952.94,-138.47 943.68,-133.32 942.49,-140.22"/>
</a>
</g>
</g>
<!-- Node29 -->
<g id="Node000029" class="node">
<title>Node29</title>
<g id="a_Node000029"><a xlink:href="active__strain_8c.html#a04fa5da4f55d0663ad5ec7a3534de0af" target="_top" xlink:title="Update current midsurface geometry cache for one element.">
<polygon fill="white" stroke="#666666" points="906,-165 767,-165 767,-146 906,-146 906,-165"/>
<text text-anchor="middle" x="836.5" y="-153" font-family="Helvetica,sans-Serif" font-size="10.00">ElemUpdateGeomSubdiv</text>
</a>
</g>
</g>
<!-- Node24&#45;&gt;Node29 -->
<g id="edge38_Node000024_Node000029" class="edge">
<title>Node24&#45;&gt;Node29</title>
<g id="a_edge38_Node000024_Node000029"><a xlink:title=" ">
<path fill="none" stroke="#63b8ff" d="M942.67,-153.89C930.39,-154.08 917.96,-154.27 906.16,-154.45"/>
<polygon fill="#63b8ff" stroke="#63b8ff" points="943,-157.39 952.94,-153.74 942.89,-150.39 943,-157.39"/>
</a>
</g>
</g>
<!-- Node25&#45;&gt;Node13 -->
<g id="edge34_Node000025_Node000013" class="edge">
<title>Node25&#45;&gt;Node13</title>
<g id="a_edge34_Node000025_Node000013"><a xlink:title=" ">
<path fill="none" stroke="#63b8ff" d="M779.93,-130.09C752.56,-135.8 719.98,-142.59 694.1,-147.99"/>
<polygon fill="#63b8ff" stroke="#63b8ff" points="780.68,-133.51 789.75,-128.04 779.25,-126.66 780.68,-133.51"/>
</a>
</g>
</g>
<!-- Node25&#45;&gt;Node14 -->
<g id="edge37_Node000025_Node000014" class="edge">
<title>Node25&#45;&gt;Node14</title>
<g id="a_edge37_Node000025_Node000014"><a xlink:title=" ">
<path fill="none" stroke="#63b8ff" d="M767.76,-131.68C763.67,-133.39 759.72,-135.32 756,-137.5 735.65,-149.42 740.28,-164.45 720,-176.5 714.28,-179.9 707.93,-182.66 701.45,-184.9"/>
<polygon fill="#63b8ff" stroke="#63b8ff" points="769.31,-134.84 777.47,-128.08 766.88,-128.28 769.31,-134.84"/>
</a>
</g>
</g>
<!-- Node26 -->
<g id="Node000026" class="node">
<title>Node26</title>
<g id="a_Node000026"><a xlink:href="dmplex__geom_8c.html#aeca513213e67a07a712cc41e8c6412ea" target="_top" xlink:title="One&#45;time DMPlex geometry setup.">
<polygon fill="white" stroke="#666666" points="716,-56 579,-56 579,-37 716,-37 716,-56"/>
<text text-anchor="middle" x="647.5" y="-44" font-family="Helvetica,sans-Serif" font-size="10.00">FEM_DMPlexGeomSetup</text>
</a>
</g>
</g>
<!-- Node25&#45;&gt;Node26 -->
<g id="edge31_Node000025_Node000026" class="edge">
<title>Node25&#45;&gt;Node26</title>
<g id="a_edge31_Node000025_Node000026"><a xlink:title=" ">
<path fill="none" stroke="#63b8ff" d="M785.94,-105.92C775.77,-102.52 765.32,-98.39 756,-93.5 738.05,-84.09 738.16,-74.51 720,-65.5 712.29,-61.68 703.72,-58.55 695.26,-56.03"/>
<polygon fill="#63b8ff" stroke="#63b8ff" points="784.98,-109.29 795.57,-108.97 787.09,-102.61 784.98,-109.29"/>
</a>
</g>
</g>
<!-- Node28 -->
<g id="Node000028" class="node">
<title>Node28</title>
<g id="a_Node000028"><a xlink:href="kokkos__processes_8c.html#a3f18ca1bc94cfbc69753dccb70a43699" target="_top" xlink:title=" ">
<polygon fill="white" stroke="#666666" points="707,-93 588,-93 588,-74 707,-74 707,-93"/>
<text text-anchor="middle" x="647.5" y="-81" font-family="Helvetica,sans-Serif" font-size="10.00">RunKokkosProcesses</text>
</a>
</g>
</g>
<!-- Node25&#45;&gt;Node28 -->
<g id="edge35_Node000025_Node000028" class="edge">
<title>Node25&#45;&gt;Node28</title>
<g id="a_edge35_Node000025_Node000028"><a xlink:title=" ">
<path fill="none" stroke="#63b8ff" d="M774.26,-107.04C750.08,-102.51 722.62,-97.37 699.54,-93.05"/>
<polygon fill="#63b8ff" stroke="#63b8ff" points="773.93,-110.54 784.4,-108.94 775.22,-103.66 773.93,-110.54"/>
</a>
</g>
</g>
<!-- Node26&#45;&gt;Node12 -->
<g id="edge32_Node000026_Node000012" class="edge">
<title>Node26&#45;&gt;Node12</title>
<g id="a_edge32_Node000026_Node000012"><a xlink:title=" ">
<path fill="none" stroke="#63b8ff" d="M568.53,-45.69C558.59,-45.61 548.56,-45.54 539,-45.5 479,-45.22 463.6,-38.58 404,-45.5 255.69,-62.73 220.8,-82.32 77,-122.5 65,-125.85 51.72,-130.14 41.16,-133.69"/>
<polygon fill="#63b8ff" stroke="#63b8ff" points="568.8,-49.19 578.83,-45.77 568.86,-42.19 568.8,-49.19"/>
</a>
</g>
</g>
<!-- Node27 -->
<g id="Node000027" class="node">
<title>Node27</title>
<g id="a_Node000027"><a xlink:href="dmplex__geom_8c.html#af897ef006be5d3cc2be53b272a4f5a61" target="_top" xlink:title="Drop&#45;in geometry call: setup + update + destroy in one shot.">
<polygon fill="white" stroke="#666666" points="539,-74 404,-74 404,-55 539,-55 539,-74"/>
<text text-anchor="middle" x="471.5" y="-62" font-family="Helvetica,sans-Serif" font-size="10.00">RunDMPlexGeomSubdiv</text>
</a>
</g>
</g>
<!-- Node26&#45;&gt;Node27 -->
<g id="edge33_Node000026_Node000027" class="edge">
<title>Node26&#45;&gt;Node27</title>
<g id="a_edge33_Node000026_Node000027"><a xlink:title=" ">
<path fill="none" stroke="#63b8ff" d="M568.59,-54.56C558.79,-55.57 548.84,-56.6 539.23,-57.6"/>
<polygon fill="#63b8ff" stroke="#63b8ff" points="569.14,-58.02 578.73,-53.51 568.42,-51.06 569.14,-58.02"/>
</a>
</g>
</g>
<!-- Node28&#45;&gt;Node12 -->
<g id="edge36_Node000028_Node000012" class="edge">
<title>Node28&#45;&gt;Node12</title>
<g id="a_edge36_Node000028_Node000012"><a xlink:title=" ">
<path fill="none" stroke="#63b8ff" d="M577.75,-89.77C437.06,-102.6 122.68,-131.27 41.13,-138.71"/>
<polygon fill="#63b8ff" stroke="#63b8ff" points="578.34,-93.23 587.98,-88.84 577.71,-86.26 578.34,-93.23"/>
</a>
</g>
</g>
<!-- Node29&#45;&gt;Node13 -->
<g id="edge42_Node000029_Node000013" class="edge">
<title>Node29&#45;&gt;Node13</title>
<g id="a_edge42_Node000029_Node000013"><a xlink:title=" ">
<path fill="none" stroke="#63b8ff" d="M756.79,-156.34C738.37,-156.54 719.16,-156.74 702.13,-156.93"/>
<polygon fill="#63b8ff" stroke="#63b8ff" points="756.97,-159.84 766.93,-156.23 756.89,-152.84 756.97,-159.84"/>
</a>
</g>
</g>
<!-- Node29&#45;&gt;Node14 -->
<g id="edge44_Node000029_Node000014" class="edge">
<title>Node29&#45;&gt;Node14</title>
<g id="a_edge44_Node000029_Node000014"><a xlink:title=" ">
<path fill="none" stroke="#63b8ff" d="M779.93,-167.09C752.56,-172.8 719.98,-179.59 694.1,-184.99"/>
<polygon fill="#63b8ff" stroke="#63b8ff" points="780.68,-170.51 789.75,-165.04 779.25,-163.66 780.68,-170.51"/>
</a>
</g>
</g>
<!-- Node29&#45;&gt;Node28 -->
<g id="edge43_Node000029_Node000028" class="edge">
<title>Node29&#45;&gt;Node28</title>
<g id="a_edge43_Node000029_Node000028"><a xlink:title=" ">
<path fill="none" stroke="#63b8ff" d="M766.89,-142.58C763.13,-141.07 759.47,-139.38 756,-137.5 736.38,-126.86 739.42,-113.5 720,-102.5 713.18,-98.64 705.56,-95.54 697.89,-93.05"/>
<polygon fill="#63b8ff" stroke="#63b8ff" points="765.82,-145.91 776.41,-145.98 768.17,-139.32 765.82,-145.91"/>
</a>
</g>
</g>
<!-- Node30 -->
<g id="Node000030" class="node">
<title>Node30</title>
<g id="a_Node000030"><a xlink:href="dmplex__geom_8c.html#af7fb8fc68c27b224f0458d0c42911fe6" target="_top" xlink:title="Per&#45;SNES&#45;iteration geometry update.">
<polygon fill="white" stroke="#666666" points="720,-130 575,-130 575,-111 720,-111 720,-130"/>
<text text-anchor="middle" x="647.5" y="-118" font-family="Helvetica,sans-Serif" font-size="10.00">FEM_DMPlexGeomUpdate</text>
</a>
</g>
</g>
<!-- Node29&#45;&gt;Node30 -->
<g id="edge39_Node000029_Node000030" class="edge">
<title>Node29&#45;&gt;Node30</title>
<g id="a_edge39_Node000029_Node000030"><a xlink:title=" ">
<path fill="none" stroke="#63b8ff" d="M774.26,-144.04C750.08,-139.51 722.62,-134.37 699.54,-130.05"/>
<polygon fill="#63b8ff" stroke="#63b8ff" points="773.93,-147.54 784.4,-145.94 775.22,-140.66 773.93,-147.54"/>
</a>
</g>
</g>
<!-- Node30&#45;&gt;Node9 -->
<g id="edge40_Node000030_Node000009" class="edge">
<title>Node30&#45;&gt;Node9</title>
<g id="a_edge40_Node000030_Node000009"><a xlink:title=" ">
<path fill="none" stroke="#63b8ff" d="M598.02,-132.65C590.28,-134.8 582.39,-137.12 575,-139.5 547.27,-148.43 516.08,-160.62 495.46,-168.98"/>
<polygon fill="#63b8ff" stroke="#63b8ff" points="598.96,-136.02 607.69,-130.03 597.13,-129.27 598.96,-136.02"/>
</a>
</g>
</g>
<!-- Node30&#45;&gt;Node27 -->
<g id="edge41_Node000030_Node000027" class="edge">
<title>Node30&#45;&gt;Node27</title>
<g id="a_edge41_Node000030_Node000027"><a xlink:title=" ">
<path fill="none" stroke="#63b8ff" d="M595.44,-108.36C588.54,-106.51 581.57,-104.54 575,-102.5 547.63,-94.01 516.89,-82.31 496.27,-74.15"/>
<polygon fill="#63b8ff" stroke="#63b8ff" points="594.89,-111.84 605.45,-110.98 596.66,-105.07 594.89,-111.84"/>
</a>
</g>
</g>
<!-- Node31&#45;&gt;Node22 -->
<g id="edge46_Node000031_Node000022" class="edge">
<title>Node31&#45;&gt;Node22</title>
<g id="a_edge46_Node000031_Node000022"><a xlink:title=" ">
<path fill="none" stroke="#63b8ff" d="M975.99,-53.54C957.17,-50.96 936.2,-48.1 917,-45.5 846.04,-35.89 764.52,-24.98 710.09,-17.71"/>
<polygon fill="#63b8ff" stroke="#63b8ff" points="975.52,-57 985.9,-54.89 976.47,-50.07 975.52,-57"/>
</a>
</g>
</g>
</g>
</svg>

<g id="navigator" transform="translate(0 0)" fill="#404254">
  <rect fill="#f2f5e9" fill-opacity="0.5" stroke="#606060" stroke-width=".5" x="0" y="0" width="60" height="60"/>
  <use id="zoomplus" xlink:href="#zoomPlus" x="17" y="9" onmousedown="handleZoom(evt,'in')"/>
  <use id="zoomminus" xlink:href="#zoomMin" x="42" y="9" onmousedown="handleZoom(evt,'out')"/>
  <use id="reset" xlink:href="#resetDef" x="30" y="36" onmousedown="handleReset()"/>
   <use id="arrowup" xlink:href="#arrowUp" x="0" y="0" onmousedown="handlePan(0,-1)"/>
  <use id="arrowright" xlink:href="#arrowRight" x="0" y="0" onmousedown="handlePan(1,0)"/>
  <use id="arrowdown" xlink:href="#arrowDown" x="0" y="0" onmousedown="handlePan(0,1)"/>
  <use id="arrowleft" xlink:href="#arrowLeft" x="0" y="0" onmousedown="handlePan(-1,0)"/>
</g>
<svg viewBox="0 0 15 15" width="100%" height="30px" preserveAspectRatio="xMaxYMin meet">
 <g id="arrow_out" transform="scale(0.3 0.3)">
  <a xlink:href="math_8h_a9d60990d26296194c921d537ea26f3c7_icgraph_org.svg" target="_base">
   <rect id="button" ry="5" rx="5" y="6" x="6" height="38" width="38"
        fill="#f2f5e9" fill-opacity="0.5" stroke="#606060" stroke-width="1.0"/>
   <path id="arrow"
     d="M 11.500037,31.436501 C 11.940474,20.09759 22.043105,11.32322 32.158766,21.979434 L 37.068811,17.246167 C 37.068811,17.246167 37.088388,32 37.088388,32 L 22.160133,31.978069 C 22.160133,31.978069 26.997745,27.140456 26.997745,27.140456 C 18.528582,18.264221 13.291696,25.230495 11.500037,31.436501 z"
     style="fill:#404040;"/>
  </a>
 </g>
</svg>

<style type='text/css'>
<![CDATA[
[data-mouse-over-selected='false'] { opacity: 0.7; }
[data-mouse-over-selected='true']  { opacity: 1.0; }
]]>
</style>
<script type="application/ecmascript"><![CDATA[
document.addEventListener('DOMContentLoaded', (event) => {
  highlightEdges();
  highlightAdjacentNodes();
});
]]></script>
</svg>
