<?xml version="1.0" encoding="UTF-8" standalone="no"?>
<!DOCTYPE svg PUBLIC "-//W3C//DTD SVG 1.1//EN"
 "http://www.w3.org/Graphics/SVG/1.1/DTD/svg11.dtd">
<!-- Generated by graphviz version 2.43.0 (0)
 -->
<!-- Title: PLUS Pages: 1 -->
<svg width="934pt" height="178pt"
 viewBox="0.00 0.00 934.00 178.00" xmlns="http://www.w3.org/2000/svg" xmlns:xlink="http://www.w3.org/1999/xlink">
<g id="graph0" class="graph" transform="scale(1 1) rotate(0) translate(4 174)">
<title>PLUS</title>
<!-- Node1 -->
<g id="Node000001" class="node">
<title>Node1</title>
<g id="a_Node000001"><a xlink:title=" ">
<polygon fill="#999999" stroke="#666666" points="926,-95 885,-95 885,-76 926,-76 926,-95"/>
<text text-anchor="middle" x="905.5" y="-83" font-family="Helvetica,sans-Serif" font-size="10.00">PLUS</text>
</a>
</g>
</g>
<!-- Node2 -->
<g id="Node000002" class="node">
<title>Node2</title>
<g id="a_Node000002"><a xlink:href="muscle__activation_8c.html#a93dfc79086ad3d8e7eb4a92d7c64565d" target="_top" xlink:title=" ">
<polygon fill="white" stroke="#666666" points="849,-170 721,-170 721,-151 849,-151 849,-170"/>
<text text-anchor="middle" x="785" y="-158" font-family="Helvetica,sans-Serif" font-size="10.00">CompInitCovBasisVecs</text>
</a>
</g>
</g>
<!-- Node1&#45;&gt;Node2 -->
<g id="edge1_Node000001_Node000002" class="edge">
<title>Node1&#45;&gt;Node2</title>
<g id="a_edge1_Node000001_Node000002"><a xlink:title=" ">
<path fill="none" stroke="#63b8ff" d="M891.52,-103.09C881.29,-115.77 865.96,-132.37 849,-142.5 843.34,-145.88 837,-148.66 830.6,-150.93"/>
<polygon fill="#63b8ff" stroke="#63b8ff" points="894.38,-105.11 897.74,-95.07 888.85,-100.82 894.38,-105.11"/>
</a>
</g>
</g>
<!-- Node4 -->
<g id="Node000004" class="node">
<title>Node4</title>
<g id="a_Node000004"><a xlink:href="active__strain_8c.html#a8ffbd5ab9cf4de7388a8a1b66bf48821" target="_top" xlink:title=" ">
<polygon fill="white" stroke="#666666" points="843,-133 727,-133 727,-114 843,-114 843,-133"/>
<text text-anchor="middle" x="785" y="-121" font-family="Helvetica,sans-Serif" font-size="10.00">Compute_a3_alpha_</text>
</a>
</g>
</g>
<!-- Node1&#45;&gt;Node4 -->
<g id="edge3_Node000001_Node000004" class="edge">
<title>Node1&#45;&gt;Node4</title>
<g id="a_edge3_Node000001_Node000004"><a xlink:title=" ">
<path fill="none" stroke="#63b8ff" d="M875.21,-94.89C857.13,-100.69 834,-108.11 815.82,-113.94"/>
<polygon fill="#63b8ff" stroke="#63b8ff" points="876.48,-98.16 884.93,-91.77 874.34,-91.5 876.48,-98.16"/>
</a>
</g>
</g>
<!-- Node5 -->
<g id="Node000005" class="node">
<title>Node5</title>
<g id="a_Node000005"><a xlink:href="active__strain_8c.html#a993ef27fda81bb402cba4aa14fa9b51a" target="_top" xlink:title="Build current covariant/contravariant basis vectors for one element.">
<polygon fill="white" stroke="#666666" points="664.5,-132 580.5,-132 580.5,-113 664.5,-113 664.5,-132"/>
<text text-anchor="middle" x="622.5" y="-120" font-family="Helvetica,sans-Serif" font-size="10.00">ElemUpdateG</text>
</a>
</g>
</g>
<!-- Node1&#45;&gt;Node5 -->
<g id="edge14_Node000001_Node000005" class="edge">
<title>Node1&#45;&gt;Node5</title>
<g id="a_edge14_Node000001_Node000005"><a xlink:title=" ">
<path fill="none" stroke="#63b8ff" d="M874.5,-88.17C838.1,-91.56 774.92,-97.87 721,-105.5 702.46,-108.12 682.03,-111.6 664.68,-114.72"/>
<polygon fill="#63b8ff" stroke="#63b8ff" points="875.26,-91.62 884.9,-87.22 874.62,-84.65 875.26,-91.62"/>
</a>
</g>
</g>
<!-- Node13 -->
<g id="Node000013" class="node">
<title>Node13</title>
<g id="a_Node000013"><a xlink:href="active__strain_8c.html#ace13f65688712f8ea397a734d66954ad" target="_top" xlink:title="Assemble element internal force vector into Fb_out.">
<polygon fill="white" stroke="#666666" points="662,-57 583,-57 583,-38 662,-38 662,-57"/>
<text text-anchor="middle" x="622.5" y="-45" font-family="Helvetica,sans-Serif" font-size="10.00">ElemUpdFint</text>
</a>
</g>
</g>
<!-- Node1&#45;&gt;Node13 -->
<g id="edge15_Node000001_Node000013" class="edge">
<title>Node1&#45;&gt;Node13</title>
<g id="a_edge15_Node000001_Node000013"><a xlink:title=" ">
<path fill="none" stroke="#63b8ff" d="M874.68,-81.47C823.56,-74.55 719.26,-60.45 662.46,-52.77"/>
<polygon fill="#63b8ff" stroke="#63b8ff" points="874.36,-84.96 884.74,-82.83 875.3,-78.02 874.36,-84.96"/>
</a>
</g>
</g>
<!-- Node14 -->
<g id="Node000014" class="node">
<title>Node14</title>
<g id="a_Node000014"><a xlink:href="muscle__activation_8c.html#a357b3bb1950e461f37dc728929d29486" target="_top" xlink:title=" ">
<polygon fill="white" stroke="#666666" points="834,-19 736,-19 736,0 834,0 834,-19"/>
<text text-anchor="middle" x="785" y="-7" font-family="Helvetica,sans-Serif" font-size="10.00">FInternalAftActEl</text>
</a>
</g>
</g>
<!-- Node1&#45;&gt;Node14 -->
<g id="edge17_Node000001_Node000014" class="edge">
<title>Node1&#45;&gt;Node14</title>
<g id="a_edge17_Node000001_Node000014"><a xlink:title=" ">
<path fill="none" stroke="#63b8ff" d="M889.57,-68.4C879.11,-57.26 864.32,-43.07 849,-33.5 839.57,-27.61 828.46,-22.78 818.22,-19.05"/>
<polygon fill="#63b8ff" stroke="#63b8ff" points="887.04,-70.82 896.36,-75.86 892.22,-66.11 887.04,-70.82"/>
</a>
</g>
</g>
<!-- Node3 -->
<g id="Node000003" class="node">
<title>Node3</title>
<g id="a_Node000003"><a xlink:href="muscle__activation_8c.html#aad998374ae4f3ca2c8f14b4c4b2aaafd" target="_top" xlink:title=" ">
<polygon fill="white" stroke="#666666" points="684,-170 561,-170 561,-151 684,-151 684,-170"/>
<text text-anchor="middle" x="622.5" y="-158" font-family="Helvetica,sans-Serif" font-size="10.00">InitMuscleActProblem</text>
</a>
</g>
</g>
<!-- Node2&#45;&gt;Node3 -->
<g id="edge2_Node000002_Node000003" class="edge">
<title>Node2&#45;&gt;Node3</title>
<g id="a_edge2_Node000002_Node000003"><a xlink:title=" ">
<path fill="none" stroke="#63b8ff" d="M710.34,-160.5C701.56,-160.5 692.68,-160.5 684.12,-160.5"/>
<polygon fill="#63b8ff" stroke="#63b8ff" points="710.57,-164 720.57,-160.5 710.57,-157 710.57,-164"/>
</a>
</g>
</g>
<!-- Node4&#45;&gt;Node5 -->
<g id="edge4_Node000004_Node000005" class="edge">
<title>Node4&#45;&gt;Node5</title>
<g id="a_edge4_Node000004_Node000005"><a xlink:title=" ">
<path fill="none" stroke="#63b8ff" d="M716.7,-123.08C699.05,-122.97 680.55,-122.86 664.72,-122.76"/>
<polygon fill="#63b8ff" stroke="#63b8ff" points="716.94,-126.58 726.96,-123.14 716.98,-119.58 716.94,-126.58"/>
</a>
</g>
</g>
<!-- Node6 -->
<g id="Node000006" class="node">
<title>Node6</title>
<g id="a_Node000006"><a xlink:href="active__strain_8c.html#a693fb698122674ff7df6dd47ac75167c" target="_top" xlink:title="Run per&#45;element precomputations before global internal&#45;force assembly.">
<polygon fill="white" stroke="#666666" points="515,-95 418,-95 418,-76 515,-76 515,-95"/>
<text text-anchor="middle" x="466.5" y="-83" font-family="Helvetica,sans-Serif" font-size="10.00">FInternalPreCalc</text>
</a>
</g>
</g>
<!-- Node5&#45;&gt;Node6 -->
<g id="edge5_Node000005_Node000006" class="edge">
<title>Node5&#45;&gt;Node6</title>
<g id="a_edge5_Node000005_Node000006"><a xlink:title=" ">
<path fill="none" stroke="#63b8ff" d="M571.87,-110.57C550.97,-105.56 526.99,-99.79 507.29,-95.06"/>
<polygon fill="#63b8ff" stroke="#63b8ff" points="571.3,-114.04 581.84,-112.97 572.94,-107.23 571.3,-114.04"/>
</a>
</g>
</g>
<!-- Node10 -->
<g id="Node000010" class="node">
<title>Node10</title>
<g id="a_Node000010"><a xlink:href="cuda__processes_8c.html#a627a27228923fbc3e63f0f4e1c5aa765" target="_top" xlink:title=" ">
<polygon fill="white" stroke="#666666" points="186,-170 77,-170 77,-151 186,-151 186,-170"/>
<text text-anchor="middle" x="131.5" y="-158" font-family="Helvetica,sans-Serif" font-size="10.00">RunCudaProcesses</text>
</a>
</g>
</g>
<!-- Node5&#45;&gt;Node10 -->
<g id="edge9_Node000005_Node000010" class="edge">
<title>Node5&#45;&gt;Node10</title>
<g id="a_edge9_Node000005_Node000010"><a xlink:title=" ">
<path fill="none" stroke="#63b8ff" d="M570.39,-133.9C555.5,-136.82 539.16,-139.66 524,-141.5 403.92,-156.04 261.85,-159.55 186.22,-160.33"/>
<polygon fill="#63b8ff" stroke="#63b8ff" points="571.33,-137.28 580.43,-131.86 569.94,-130.42 571.33,-137.28"/>
</a>
</g>
</g>
<!-- Node11 -->
<g id="Node000011" class="node">
<title>Node11</title>
<g id="a_Node000011"><a xlink:href="dmplex__geom_8c.html#aa2b24de348fff4079de659ff63ba9b85" target="_top" xlink:title="Synchronise remote coordinates and evaluate the geometry kernel for all local cells.">
<polygon fill="white" stroke="#666666" points="524,-132 409,-132 409,-113 524,-113 524,-132"/>
<text text-anchor="middle" x="466.5" y="-120" font-family="Helvetica,sans-Serif" font-size="10.00">RunLocalGeometry_</text>
</a>
</g>
</g>
<!-- Node5&#45;&gt;Node11 -->
<g id="edge11_Node000005_Node000011" class="edge">
<title>Node5&#45;&gt;Node11</title>
<g id="a_edge11_Node000005_Node000011"><a xlink:title=" ">
<path fill="none" stroke="#63b8ff" d="M569.84,-122.5C555.19,-122.5 539.16,-122.5 524.23,-122.5"/>
<polygon fill="#63b8ff" stroke="#63b8ff" points="570.23,-126 580.23,-122.5 570.23,-119 570.23,-126"/>
</a>
</g>
</g>
<!-- Node7 -->
<g id="Node000007" class="node">
<title>Node7</title>
<g id="a_Node000007"><a xlink:href="active__strain_8c.html#a3bac899c10052c346d2afe9eccbac71d" target="_top" xlink:title="Assemble global internal force vector for active&#45;strain mechanics.">
<polygon fill="white" stroke="#666666" points="335.5,-94 259.5,-94 259.5,-75 335.5,-75 335.5,-94"/>
<text text-anchor="middle" x="297.5" y="-82" font-family="Helvetica,sans-Serif" font-size="10.00">FInternalAct</text>
</a>
</g>
</g>
<!-- Node6&#45;&gt;Node7 -->
<g id="edge6_Node000006_Node000007" class="edge">
<title>Node6&#45;&gt;Node7</title>
<g id="a_edge6_Node000006_Node000007"><a xlink:title=" ">
<path fill="none" stroke="#63b8ff" d="M407.33,-85.15C383.57,-85.01 356.8,-84.85 335.75,-84.72"/>
<polygon fill="#63b8ff" stroke="#63b8ff" points="407.62,-88.65 417.64,-85.21 407.67,-81.65 407.62,-88.65"/>
</a>
</g>
</g>
<!-- Node8 -->
<g id="Node000008" class="node">
<title>Node8</title>
<g id="a_Node000008"><a xlink:href="main_8c.html#a9a070a6f408cadb404b0ee7fbc74c576" target="_top" xlink:title=" ">
<polygon fill="white" stroke="#666666" points="183.5,-94 79.5,-94 79.5,-75 183.5,-75 183.5,-94"/>
<text text-anchor="middle" x="131.5" y="-82" font-family="Helvetica,sans-Serif" font-size="10.00">FormFunctionFEM</text>
</a>
</g>
</g>
<!-- Node7&#45;&gt;Node8 -->
<g id="edge7_Node000007_Node000008" class="edge">
<title>Node7&#45;&gt;Node8</title>
<g id="a_edge7_Node000007_Node000008"><a xlink:title=" ">
<path fill="none" stroke="#63b8ff" d="M249.2,-84.5C228.65,-84.5 204.52,-84.5 183.55,-84.5"/>
<polygon fill="#63b8ff" stroke="#63b8ff" points="249.29,-88 259.29,-84.5 249.29,-81 249.29,-88"/>
</a>
</g>
</g>
<!-- Node9 -->
<g id="Node000009" class="node">
<title>Node9</title>
<g id="a_Node000009"><a xlink:href="main_8c.html#a3c04138a5bfe5d72780bb7e82a18e627" target="_top" xlink:title=" ">
<polygon fill="white" stroke="#666666" points="41,-132 0,-132 0,-113 41,-113 41,-132"/>
<text text-anchor="middle" x="20.5" y="-120" font-family="Helvetica,sans-Serif" font-size="10.00">main</text>
</a>
</g>
</g>
<!-- Node8&#45;&gt;Node9 -->
<g id="edge8_Node000008_Node000009" class="edge">
<title>Node8&#45;&gt;Node9</title>
<g id="a_edge8_Node000008_Node000009"><a xlink:title=" ">
<path fill="none" stroke="#63b8ff" d="M93.07,-97.55C75.6,-103.64 55.52,-110.64 41.09,-115.67"/>
<polygon fill="#63b8ff" stroke="#63b8ff" points="94.7,-100.69 102.99,-94.09 92.4,-94.08 94.7,-100.69"/>
</a>
</g>
</g>
<!-- Node10&#45;&gt;Node9 -->
<g id="edge10_Node000010_Node000009" class="edge">
<title>Node10&#45;&gt;Node9</title>
<g id="a_edge10_Node000010_Node000009"><a xlink:title=" ">
<path fill="none" stroke="#63b8ff" d="M93.07,-147.45C75.6,-141.36 55.52,-134.36 41.09,-129.33"/>
<polygon fill="#63b8ff" stroke="#63b8ff" points="92.4,-150.92 102.99,-150.91 94.7,-144.31 92.4,-150.92"/>
</a>
</g>
</g>
<!-- Node12 -->
<g id="Node000012" class="node">
<title>Node12</title>
<g id="a_Node000012"><a xlink:href="dmplex__geom_8c.html#ac4ecb4d172bee5f7c59a9fdf2680bb51" target="_top" xlink:title="Benchmark: run the full distributed DMPlex geometry pipeline for all bodies.">
<polygon fill="white" stroke="#666666" points="373,-132 222,-132 222,-113 373,-113 373,-132"/>
<text text-anchor="middle" x="297.5" y="-120" font-family="Helvetica,sans-Serif" font-size="10.00">RunDMPlexGeomProcesses</text>
</a>
</g>
</g>
<!-- Node11&#45;&gt;Node12 -->
<g id="edge12_Node000011_Node000012" class="edge">
<title>Node11&#45;&gt;Node12</title>
<g id="a_edge12_Node000011_Node000012"><a xlink:title=" ">
<path fill="none" stroke="#63b8ff" d="M398.78,-122.5C390.32,-122.5 381.62,-122.5 373.04,-122.5"/>
<polygon fill="#63b8ff" stroke="#63b8ff" points="398.96,-126 408.96,-122.5 398.96,-119 398.96,-126"/>
</a>
</g>
</g>
<!-- Node12&#45;&gt;Node9 -->
<g id="edge13_Node000012_Node000009" class="edge">
<title>Node12&#45;&gt;Node9</title>
<g id="a_edge13_Node000012_Node000009"><a xlink:title=" ">
<path fill="none" stroke="#63b8ff" d="M211.49,-122.5C151.61,-122.5 76.1,-122.5 41.04,-122.5"/>
<polygon fill="#63b8ff" stroke="#63b8ff" points="211.72,-126 221.72,-122.5 211.72,-119 211.72,-126"/>
</a>
</g>
</g>
<!-- Node13&#45;&gt;Node7 -->
<g id="edge16_Node000013_Node000007" class="edge">
<title>Node13&#45;&gt;Node7</title>
<g id="a_edge16_Node000013_Node000007"><a xlink:title=" ">
<path fill="none" stroke="#63b8ff" d="M572.41,-50.88C529.27,-54.09 464.85,-59.46 409,-66.5 384.51,-69.59 357.12,-74.04 335.74,-77.75"/>
<polygon fill="#63b8ff" stroke="#63b8ff" points="572.92,-54.35 582.63,-50.13 572.4,-47.37 572.92,-54.35"/>
</a>
</g>
</g>
<!-- Node15 -->
<g id="Node000015" class="node">
<title>Node15</title>
<g id="a_Node000015"><a xlink:href="muscle__activation_8c.html#a5794b91b41d38582fd698b653b53330e" target="_top" xlink:title=" ">
<polygon fill="white" stroke="#666666" points="685,-19 560,-19 560,0 685,0 685,-19"/>
<text text-anchor="middle" x="622.5" y="-7" font-family="Helvetica,sans-Serif" font-size="10.00">UpdateFInternalAftAct</text>
</a>
</g>
</g>
<!-- Node14&#45;&gt;Node15 -->
<g id="edge18_Node000014_Node000015" class="edge">
<title>Node14&#45;&gt;Node15</title>
<g id="a_edge18_Node000014_Node000015"><a xlink:title=" ">
<path fill="none" stroke="#63b8ff" d="M725.49,-9.5C712.33,-9.5 698.31,-9.5 685.02,-9.5"/>
<polygon fill="#63b8ff" stroke="#63b8ff" points="725.84,-13 735.84,-9.5 725.84,-6 725.84,-13"/>
</a>
</g>
</g>
</g>
</svg>
