<?xml version="1.0" encoding="UTF-8" standalone="no"?>
<!DOCTYPE svg PUBLIC "-//W3C//DTD SVG 1.1//EN"
 "http://www.w3.org/Graphics/SVG/1.1/DTD/svg11.dtd">
<!-- Generated by graphviz version 2.43.0 (0)
 -->
<!-- Title: LowerIndices2 Pages: 1 -->
<svg width="838pt" height="78pt"
 viewBox="0.00 0.00 838.00 77.99" xmlns="http://www.w3.org/2000/svg" xmlns:xlink="http://www.w3.org/1999/xlink">
<g id="graph0" class="graph" transform="scale(1 1) rotate(0) translate(4 73.99)">
<title>LowerIndices2</title>
<!-- Node1 -->
<g id="Node000001" class="node">
<title>Node1</title>
<g id="a_Node000001"><a xlink:title=" ">
<polygon fill="#999999" stroke="#666666" points="830,-56 744,-56 744,-37 830,-37 830,-56"/>
<text text-anchor="middle" x="787" y="-44" font-family="Helvetica,sans-Serif" font-size="10.00">LowerIndices2</text>
</a>
</g>
</g>
<!-- Node2 -->
<g id="Node000002" class="node">
<title>Node2</title>
<g id="a_Node000002"><a xlink:href="active__strain_8c.html#a3017cdcf59a9d394ac18948cec6e94cf" target="_top" xlink:title="Solve local thickness equation (C33) for one element.">
<polygon fill="white" stroke="#666666" points="553,-56 466,-56 466,-37 553,-37 553,-56"/>
<text text-anchor="middle" x="509.5" y="-44" font-family="Helvetica,sans-Serif" font-size="10.00">ElemC33Solve</text>
</a>
</g>
</g>
<!-- Node1&#45;&gt;Node2 -->
<g id="edge1_Node000001_Node000002" class="edge">
<title>Node1&#45;&gt;Node2</title>
<g id="a_edge1_Node000001_Node000002"><a xlink:title=" ">
<path fill="none" stroke="#63b8ff" d="M744.49,-58.56C732.79,-61.42 719.99,-64.06 708,-65.5 657.25,-71.59 643.78,-71.27 593,-65.5 576.64,-63.64 558.81,-59.77 543.92,-56.01"/>
<polygon fill="#63b8ff" stroke="#63b8ff" points="745.62,-61.88 754.44,-56.01 743.88,-55.1 745.62,-61.88"/>
</a>
</g>
</g>
<!-- Node7 -->
<g id="Node000007" class="node">
<title>Node7</title>
<g id="a_Node000007"><a xlink:href="active__strain_8c.html#ab28c3cc7b872159806c167f8162346ea" target="_top" xlink:title="Compute right Cauchy&#45;Green tensor and its inverse for one element.">
<polygon fill="white" stroke="#666666" points="557,-19 462,-19 462,0 557,0 557,-19"/>
<text text-anchor="middle" x="509.5" y="-7" font-family="Helvetica,sans-Serif" font-size="10.00">ElemCGDefTens</text>
</a>
</g>
</g>
<!-- Node1&#45;&gt;Node7 -->
<g id="edge6_Node000001_Node000007" class="edge">
<title>Node1&#45;&gt;Node7</title>
<g id="a_edge6_Node000001_Node000007"><a xlink:title=" ">
<path fill="none" stroke="#63b8ff" d="M739.28,-34.67C729.02,-32.37 718.18,-30.16 708,-28.5 656.66,-20.14 597.17,-15.03 557.01,-12.25"/>
<polygon fill="#63b8ff" stroke="#63b8ff" points="738.76,-38.14 749.3,-36.99 740.34,-31.32 738.76,-38.14"/>
</a>
</g>
</g>
<!-- Node8 -->
<g id="Node000008" class="node">
<title>Node8</title>
<g id="a_Node000008"><a xlink:href="active__strain_8c.html#adca02351c999668546fc922e1806d090" target="_top" xlink:title="Compute elastic right Cauchy&#45;Green tensor for one element.">
<polygon fill="white" stroke="#666666" points="708,-56 593,-56 593,-37 708,-37 708,-56"/>
<text text-anchor="middle" x="650.5" y="-44" font-family="Helvetica,sans-Serif" font-size="10.00">ElemElasCGDefTens</text>
</a>
</g>
</g>
<!-- Node1&#45;&gt;Node8 -->
<g id="edge8_Node000001_Node000008" class="edge">
<title>Node1&#45;&gt;Node8</title>
<g id="a_edge8_Node000001_Node000008"><a xlink:title=" ">
<path fill="none" stroke="#63b8ff" d="M733.55,-46.5C725.28,-46.5 716.69,-46.5 708.33,-46.5"/>
<polygon fill="#63b8ff" stroke="#63b8ff" points="733.81,-50 743.81,-46.5 733.81,-43 733.81,-50"/>
</a>
</g>
</g>
<!-- Node3 -->
<g id="Node000003" class="node">
<title>Node3</title>
<g id="a_Node000003"><a xlink:href="active__strain_8c.html#a693fb698122674ff7df6dd47ac75167c" target="_top" xlink:title="Run per&#45;element precomputations before global internal&#45;force assembly.">
<polygon fill="white" stroke="#666666" points="426,-37 329,-37 329,-18 426,-18 426,-37"/>
<text text-anchor="middle" x="377.5" y="-25" font-family="Helvetica,sans-Serif" font-size="10.00">FInternalPreCalc</text>
</a>
</g>
</g>
<!-- Node2&#45;&gt;Node3 -->
<g id="edge2_Node000002_Node000003" class="edge">
<title>Node2&#45;&gt;Node3</title>
<g id="a_edge2_Node000002_Node000003"><a xlink:title=" ">
<path fill="none" stroke="#63b8ff" d="M455.86,-38.81C446.02,-37.37 435.79,-35.87 426.11,-34.46"/>
<polygon fill="#63b8ff" stroke="#63b8ff" points="455.53,-42.3 465.93,-40.28 456.54,-35.37 455.53,-42.3"/>
</a>
</g>
</g>
<!-- Node4 -->
<g id="Node000004" class="node">
<title>Node4</title>
<g id="a_Node000004"><a xlink:href="active__strain_8c.html#a3bac899c10052c346d2afe9eccbac71d" target="_top" xlink:title="Assemble global internal force vector for active&#45;strain mechanics.">
<polygon fill="white" stroke="#666666" points="293,-37 217,-37 217,-18 293,-18 293,-37"/>
<text text-anchor="middle" x="255" y="-25" font-family="Helvetica,sans-Serif" font-size="10.00">FInternalAct</text>
</a>
</g>
</g>
<!-- Node3&#45;&gt;Node4 -->
<g id="edge3_Node000003_Node000004" class="edge">
<title>Node3&#45;&gt;Node4</title>
<g id="a_edge3_Node000003_Node000004"><a xlink:title=" ">
<path fill="none" stroke="#63b8ff" d="M318.77,-27.5C310.09,-27.5 301.34,-27.5 293.25,-27.5"/>
<polygon fill="#63b8ff" stroke="#63b8ff" points="318.88,-31 328.88,-27.5 318.88,-24 318.88,-31"/>
</a>
</g>
</g>
<!-- Node5 -->
<g id="Node000005" class="node">
<title>Node5</title>
<g id="a_Node000005"><a xlink:href="main_8c.html#a9a070a6f408cadb404b0ee7fbc74c576" target="_top" xlink:title=" ">
<polygon fill="white" stroke="#666666" points="181,-37 77,-37 77,-18 181,-18 181,-37"/>
<text text-anchor="middle" x="129" y="-25" font-family="Helvetica,sans-Serif" font-size="10.00">FormFunctionFEM</text>
</a>
</g>
</g>
<!-- Node4&#45;&gt;Node5 -->
<g id="edge4_Node000004_Node000005" class="edge">
<title>Node4&#45;&gt;Node5</title>
<g id="a_edge4_Node000004_Node000005"><a xlink:title=" ">
<path fill="none" stroke="#63b8ff" d="M206.59,-27.5C198.35,-27.5 189.74,-27.5 181.39,-27.5"/>
<polygon fill="#63b8ff" stroke="#63b8ff" points="206.8,-31 216.8,-27.5 206.8,-24 206.8,-31"/>
</a>
</g>
</g>
<!-- Node6 -->
<g id="Node000006" class="node">
<title>Node6</title>
<g id="a_Node000006"><a xlink:href="main_8c.html#a3c04138a5bfe5d72780bb7e82a18e627" target="_top" xlink:title=" ">
<polygon fill="white" stroke="#666666" points="41,-37 0,-37 0,-18 41,-18 41,-37"/>
<text text-anchor="middle" x="20.5" y="-25" font-family="Helvetica,sans-Serif" font-size="10.00">main</text>
</a>
</g>
</g>
<!-- Node5&#45;&gt;Node6 -->
<g id="edge5_Node000005_Node000006" class="edge">
<title>Node5&#45;&gt;Node6</title>
<g id="a_edge5_Node000005_Node000006"><a xlink:title=" ">
<path fill="none" stroke="#63b8ff" d="M66.83,-27.5C57.58,-27.5 48.66,-27.5 41.22,-27.5"/>
<polygon fill="#63b8ff" stroke="#63b8ff" points="66.93,-31 76.93,-27.5 66.93,-24 66.93,-31"/>
</a>
</g>
</g>
<!-- Node7&#45;&gt;Node3 -->
<g id="edge7_Node000007_Node000003" class="edge">
<title>Node7&#45;&gt;Node3</title>
<g id="a_edge7_Node000007_Node000003"><a xlink:title=" ">
<path fill="none" stroke="#63b8ff" d="M451.93,-17.33C443.3,-18.53 434.47,-19.75 426.05,-20.92"/>
<polygon fill="#63b8ff" stroke="#63b8ff" points="452.51,-20.79 461.93,-15.95 451.55,-13.85 452.51,-20.79"/>
</a>
</g>
</g>
<!-- Node8&#45;&gt;Node2 -->
<g id="edge9_Node000008_Node000002" class="edge">
<title>Node8&#45;&gt;Node2</title>
<g id="a_edge9_Node000008_Node000002"><a xlink:title=" ">
<path fill="none" stroke="#63b8ff" d="M582.95,-46.5C572.88,-46.5 562.73,-46.5 553.34,-46.5"/>
<polygon fill="#63b8ff" stroke="#63b8ff" points="582.96,-50 592.96,-46.5 582.96,-43 582.96,-50"/>
</a>
</g>
</g>
</g>
</svg>
