<?xml version="1.0" encoding="UTF-8" standalone="no"?>
<!DOCTYPE svg PUBLIC "-//W3C//DTD SVG 1.1//EN"
 "http://www.w3.org/Graphics/SVG/1.1/DTD/svg11.dtd">
<!-- Generated by graphviz version 2.43.0 (0)
 -->
<!-- Title: INV Pages: 1 -->
<svg width="1122pt" height="563pt"
 viewBox="0.00 0.00 1122.00 563.10" xmlns="http://www.w3.org/2000/svg" xmlns:xlink="http://www.w3.org/1999/xlink">
<g id="graph0" class="graph" transform="scale(1 1) rotate(0) translate(4 559.1)">
<title>INV</title>
<!-- Node1 -->
<g id="Node000001" class="node">
<title>Node1</title>
<g id="a_Node000001"><a xlink:title=" ">
<polygon fill="#999999" stroke="#666666" points="1114,-283 1080,-283 1080,-264 1114,-264 1114,-283"/>
<text text-anchor="middle" x="1097" y="-271" font-family="Helvetica,sans-Serif" font-size="10.00">INV</text>
</a>
</g>
</g>
<!-- Node2 -->
<g id="Node000002" class="node">
<title>Node2</title>
<g id="a_Node000002"><a xlink:href="material_8c.html#af81ecf5fbfd52082e0abd3184f12c14f" target="_top" xlink:title=" ">
<polygon fill="white" stroke="#666666" points="1026.5,-434 920.5,-434 920.5,-415 1026.5,-415 1026.5,-434"/>
<text text-anchor="middle" x="973.5" y="-422" font-family="Helvetica,sans-Serif" font-size="10.00">BendingNonLinear</text>
</a>
</g>
</g>
<!-- Node1&#45;&gt;Node2 -->
<g id="edge1_Node000001_Node000002" class="edge">
<title>Node1&#45;&gt;Node2</title>
<g id="a_edge1_Node000001_Node000002"><a xlink:title=" ">
<path fill="none" stroke="#63b8ff" d="M1093.87,-293.4C1089.66,-322.58 1077.56,-376.72 1044,-406.5 1038.97,-410.97 1032.96,-414.35 1026.62,-416.91"/>
<polygon fill="#63b8ff" stroke="#63b8ff" points="1097.37,-293.58 1095.16,-283.22 1090.43,-292.7 1097.37,-293.58"/>
</a>
</g>
</g>
<!-- Node6 -->
<g id="Node000006" class="node">
<title>Node6</title>
<g id="a_Node000006"><a xlink:href="bending_8c.html#a2b66770553fce4724cfb65b0f79e83b1" target="_top" xlink:title=" ">
<polygon fill="white" stroke="#666666" points="835.5,-402 773.5,-402 773.5,-383 835.5,-383 835.5,-402"/>
<text text-anchor="middle" x="804.5" y="-390" font-family="Helvetica,sans-Serif" font-size="10.00">Fbending</text>
</a>
</g>
</g>
<!-- Node1&#45;&gt;Node6 -->
<g id="edge54_Node000001_Node000006" class="edge">
<title>Node1&#45;&gt;Node6</title>
<g id="a_edge54_Node000001_Node000006"><a xlink:title=" ">
<path fill="none" stroke="#63b8ff" d="M1077.21,-289.9C1067.74,-297.55 1055.78,-306.31 1044,-312.5 973.43,-349.56 882.27,-374.44 835.74,-385.67"/>
<polygon fill="#63b8ff" stroke="#63b8ff" points="1079.7,-292.38 1085.14,-283.29 1075.22,-287.01 1079.7,-292.38"/>
</a>
</g>
</g>
<!-- Node20 -->
<g id="Node000020" class="node">
<title>Node20</title>
<g id="a_Node000020"><a xlink:href="muscle__activation_8c.html#a13c6cf542d26fb36178553818485eda9" target="_top" xlink:title=" ">
<polygon fill="white" stroke="#666666" points="1037.5,-545 909.5,-545 909.5,-526 1037.5,-526 1037.5,-545"/>
<text text-anchor="middle" x="973.5" y="-533" font-family="Helvetica,sans-Serif" font-size="10.00">cal_total_stress_act_el</text>
</a>
</g>
</g>
<!-- Node1&#45;&gt;Node20 -->
<g id="edge24_Node000001_Node000020" class="edge">
<title>Node1&#45;&gt;Node20</title>
<g id="a_edge24_Node000001_Node000020"><a xlink:title=" ">
<path fill="none" stroke="#63b8ff" d="M1094.41,-293.45C1089.85,-345.77 1074.98,-485.14 1044,-517.5 1040.81,-520.83 1037.09,-523.58 1033.06,-525.83"/>
<polygon fill="#63b8ff" stroke="#63b8ff" points="1097.93,-293.41 1095.27,-283.15 1090.95,-292.83 1097.93,-293.41"/>
</a>
</g>
</g>
<!-- Node22 -->
<g id="Node000022" class="node">
<title>Node22</title>
<g id="a_Node000022"><a xlink:href="material_8c.html#a3243950933f3559f19edcb5421360526" target="_top" xlink:title=" ">
<polygon fill="white" stroke="#666666" points="1041.5,-207 905.5,-207 905.5,-188 1041.5,-188 1041.5,-207"/>
<text text-anchor="middle" x="973.5" y="-195" font-family="Helvetica,sans-Serif" font-size="10.00">CalcCurvStressStrainxyz</text>
</a>
</g>
</g>
<!-- Node1&#45;&gt;Node22 -->
<g id="edge27_Node000001_Node000022" class="edge">
<title>Node1&#45;&gt;Node22</title>
<g id="a_edge27_Node000001_Node000022"><a xlink:title=" ">
<path fill="none" stroke="#63b8ff" d="M1082.02,-255.87C1072.37,-244.7 1058.66,-230.67 1044,-221.5 1034.26,-215.41 1022.78,-210.63 1011.98,-207"/>
<polygon fill="#63b8ff" stroke="#63b8ff" points="1079.48,-258.29 1088.57,-263.73 1084.86,-253.81 1079.48,-258.29"/>
</a>
</g>
</g>
<!-- Node23 -->
<g id="Node000023" class="node">
<title>Node23</title>
<g id="a_Node000023"><a xlink:href="bending_8c.html#a9f48607d5ce7f351c5960f63455779c4" target="_top" xlink:title=" ">
<polygon fill="white" stroke="#666666" points="825,-207 784,-207 784,-188 825,-188 825,-207"/>
<text text-anchor="middle" x="804.5" y="-195" font-family="Helvetica,sans-Serif" font-size="10.00">Kve0</text>
</a>
</g>
</g>
<!-- Node1&#45;&gt;Node23 -->
<g id="edge55_Node000001_Node000023" class="edge">
<title>Node1&#45;&gt;Node23</title>
<g id="a_edge55_Node000001_Node000023"><a xlink:title=" ">
<path fill="none" stroke="#63b8ff" d="M1091.51,-253.97C1085.16,-231.47 1071.2,-195.54 1044,-179.5 1007.16,-157.78 875.17,-182.67 825.02,-193.22"/>
<polygon fill="#63b8ff" stroke="#63b8ff" points="1088.15,-254.98 1094.03,-263.8 1094.93,-253.24 1088.15,-254.98"/>
</a>
</g>
</g>
<!-- Node26 -->
<g id="Node000026" class="node">
<title>Node26</title>
<g id="a_Node000026"><a xlink:href="muscle__activation_8c.html#a5bcab0a432f4401f206e0366535f005e" target="_top" xlink:title="High&#45;Level Procedure for Muscle Activation Update.">
<polygon fill="white" stroke="#666666" points="1044,-93 903,-93 903,-74 1044,-74 1044,-93"/>
<text text-anchor="middle" x="973.5" y="-81" font-family="Helvetica,sans-Serif" font-size="10.00">compute_act_Fa_element</text>
</a>
</g>
</g>
<!-- Node1&#45;&gt;Node26 -->
<g id="edge33_Node000001_Node000026" class="edge">
<title>Node1&#45;&gt;Node26</title>
<g id="a_edge33_Node000001_Node000026"><a xlink:title=" ">
<path fill="none" stroke="#63b8ff" d="M1095.34,-253.57C1093.13,-219.16 1083.7,-148.37 1044,-107.5 1037.86,-101.18 1029.98,-96.53 1021.75,-93.1"/>
<polygon fill="#63b8ff" stroke="#63b8ff" points="1091.85,-253.94 1095.85,-263.75 1098.85,-253.59 1091.85,-253.94"/>
</a>
</g>
</g>
<!-- Node29 -->
<g id="Node000029" class="node">
<title>Node29</title>
<g id="a_Node000029"><a xlink:href="muscle__activation_8c.html#a4c5d08ae67f23baed5c8a45656a64f84" target="_top" xlink:title=" ">
<polygon fill="white" stroke="#666666" points="1024,-56 923,-56 923,-37 1024,-37 1024,-56"/>
<text text-anchor="middle" x="973.5" y="-44" font-family="Helvetica,sans-Serif" font-size="10.00">compute_Fbar_el</text>
</a>
</g>
</g>
<!-- Node1&#45;&gt;Node29 -->
<g id="edge36_Node000001_Node000029" class="edge">
<title>Node1&#45;&gt;Node29</title>
<g id="a_edge36_Node000001_Node000029"><a xlink:title=" ">
<path fill="none" stroke="#63b8ff" d="M1093.69,-253.97C1087.8,-207.36 1070.74,-91.5 1044,-64.5 1038.47,-58.92 1031.46,-55 1024.02,-52.25"/>
<polygon fill="#63b8ff" stroke="#63b8ff" points="1090.23,-254.5 1094.92,-264 1097.18,-253.65 1090.23,-254.5"/>
</a>
</g>
</g>
<!-- Node31 -->
<g id="Node000031" class="node">
<title>Node31</title>
<g id="a_Node000031"><a xlink:href="active__strain_8c.html#ade5fbd2ac288952d9b05edaa3cfab167" target="_top" xlink:title="Compute active deformation gradient for one element.">
<polygon fill="white" stroke="#666666" points="853.5,-311 755.5,-311 755.5,-292 853.5,-292 853.5,-311"/>
<text text-anchor="middle" x="804.5" y="-299" font-family="Helvetica,sans-Serif" font-size="10.00">ElemActDefGrad</text>
</a>
</g>
</g>
<!-- Node1&#45;&gt;Node31 -->
<g id="edge39_Node000001_Node000031" class="edge">
<title>Node1&#45;&gt;Node31</title>
<g id="a_edge39_Node000001_Node000031"><a xlink:title=" ">
<path fill="none" stroke="#63b8ff" d="M1070.49,-284.62C1062.2,-287.74 1052.85,-290.76 1044,-292.5 978.95,-305.28 902.05,-305.6 853.52,-304.04"/>
<polygon fill="#63b8ff" stroke="#63b8ff" points="1071.99,-287.79 1079.98,-280.83 1069.4,-281.29 1071.99,-287.79"/>
</a>
</g>
</g>
<!-- Node34 -->
<g id="Node000034" class="node">
<title>Node34</title>
<g id="a_Node000034"><a xlink:href="active__strain_8c.html#a3017cdcf59a9d394ac18948cec6e94cf" target="_top" xlink:title="Solve local thickness equation (C33) for one element.">
<polygon fill="white" stroke="#666666" points="848,-269 761,-269 761,-250 848,-250 848,-269"/>
<text text-anchor="middle" x="804.5" y="-257" font-family="Helvetica,sans-Serif" font-size="10.00">ElemC33Solve</text>
</a>
</g>
</g>
<!-- Node1&#45;&gt;Node34 -->
<g id="edge43_Node000001_Node000034" class="edge">
<title>Node1&#45;&gt;Node34</title>
<g id="a_edge43_Node000001_Node000034"><a xlink:title=" ">
<path fill="none" stroke="#63b8ff" d="M1070.48,-262.77C1062.19,-259.8 1052.84,-256.99 1044,-255.5 976.21,-244.1 896.05,-249.17 848.07,-254.14"/>
<polygon fill="#63b8ff" stroke="#63b8ff" points="1069.38,-266.1 1079.97,-266.39 1071.88,-259.56 1069.38,-266.1"/>
</a>
</g>
</g>
<!-- Node35 -->
<g id="Node000035" class="node">
<title>Node35</title>
<g id="a_Node000035"><a xlink:href="active__strain_8c.html#adca02351c999668546fc922e1806d090" target="_top" xlink:title="Compute elastic right Cauchy&#45;Green tensor for one element.">
<polygon fill="white" stroke="#666666" points="1031,-283 916,-283 916,-264 1031,-264 1031,-283"/>
<text text-anchor="middle" x="973.5" y="-271" font-family="Helvetica,sans-Serif" font-size="10.00">ElemElasCGDefTens</text>
</a>
</g>
</g>
<!-- Node1&#45;&gt;Node35 -->
<g id="edge45_Node000001_Node000035" class="edge">
<title>Node1&#45;&gt;Node35</title>
<g id="a_edge45_Node000001_Node000035"><a xlink:title=" ">
<path fill="none" stroke="#63b8ff" d="M1069.81,-273.5C1058.45,-273.5 1044.68,-273.5 1031.18,-273.5"/>
<polygon fill="#63b8ff" stroke="#63b8ff" points="1069.87,-277 1079.87,-273.5 1069.87,-270 1069.87,-277"/>
</a>
</g>
</g>
<!-- Node36 -->
<g id="Node000036" class="node">
<title>Node36</title>
<g id="a_Node000036"><a xlink:href="active__strain_8c.html#a993ef27fda81bb402cba4aa14fa9b51a" target="_top" xlink:title="Build current covariant/contravariant basis vectors for one element.">
<polygon fill="white" stroke="#666666" points="846.5,-165 762.5,-165 762.5,-146 846.5,-146 846.5,-165"/>
<text text-anchor="middle" x="804.5" y="-153" font-family="Helvetica,sans-Serif" font-size="10.00">ElemUpdateG</text>
</a>
</g>
</g>
<!-- Node1&#45;&gt;Node36 -->
<g id="edge47_Node000001_Node000036" class="edge">
<title>Node1&#45;&gt;Node36</title>
<g id="a_edge47_Node000001_Node000036"><a xlink:title=" ">
<path fill="none" stroke="#63b8ff" d="M1092.68,-253.81C1087.3,-228.74 1074.07,-186.3 1044,-166.5 983.76,-126.84 895.23,-136.01 844.69,-145.95"/>
<polygon fill="#63b8ff" stroke="#63b8ff" points="1089.31,-254.81 1094.63,-263.97 1096.18,-253.49 1089.31,-254.81"/>
</a>
</g>
</g>
<!-- Node40 -->
<g id="Node000040" class="node">
<title>Node40</title>
<g id="a_Node000040"><a xlink:href="material_8c.html#aa93862cca1fe83c736219df7d4a91374" target="_top" xlink:title=" ">
<polygon fill="white" stroke="#666666" points="1033,-508 914,-508 914,-489 1033,-489 1033,-508"/>
<text text-anchor="middle" x="973.5" y="-496" font-family="Helvetica,sans-Serif" font-size="10.00">MembraneNonLinear</text>
</a>
</g>
</g>
<!-- Node1&#45;&gt;Node40 -->
<g id="edge56_Node000001_Node000040" class="edge">
<title>Node1&#45;&gt;Node40</title>
<g id="a_edge56_Node000001_Node000040"><a xlink:title=" ">
<path fill="none" stroke="#63b8ff" d="M1093.62,-293.16C1087.63,-339.53 1070.47,-453.84 1044,-480.5 1040.66,-483.86 1036.79,-486.62 1032.6,-488.88"/>
<polygon fill="#63b8ff" stroke="#63b8ff" points="1097.11,-293.52 1094.88,-283.16 1090.16,-292.65 1097.11,-293.52"/>
</a>
</g>
</g>
<!-- Node42 -->
<g id="Node000042" class="node">
<title>Node42</title>
<g id="a_Node000042"><a xlink:href="material_8c.html#a431e1e9b5ceabfa4edc2920b70296b35" target="_top" xlink:title=" ">
<polygon fill="white" stroke="#666666" points="1012,-471 935,-471 935,-452 1012,-452 1012,-471"/>
<text text-anchor="middle" x="973.5" y="-459" font-family="Helvetica,sans-Serif" font-size="10.00">StressLinear</text>
</a>
</g>
</g>
<!-- Node1&#45;&gt;Node42 -->
<g id="edge61_Node000001_Node000042" class="edge">
<title>Node1&#45;&gt;Node42</title>
<g id="a_edge61_Node000001_Node000042"><a xlink:title=" ">
<path fill="none" stroke="#63b8ff" d="M1095.87,-293.26C1094.52,-328.64 1086.44,-402.86 1044,-443.5 1035.45,-451.69 1023.67,-456.28 1012.24,-458.81"/>
<polygon fill="#63b8ff" stroke="#63b8ff" points="1099.37,-293.32 1096.1,-283.24 1092.37,-293.15 1099.37,-293.32"/>
</a>
</g>
</g>
<!-- Node43 -->
<g id="Node000043" class="node">
<title>Node43</title>
<g id="a_Node000043"><a xlink:href="material_8c.html#aad0d0c11a159f8021feb99ddee475d31" target="_top" xlink:title=" ">
<polygon fill="white" stroke="#666666" points="1030.5,-397 916.5,-397 916.5,-378 1030.5,-378 1030.5,-397"/>
<text text-anchor="middle" x="973.5" y="-385" font-family="Helvetica,sans-Serif" font-size="10.00">StressManufactured</text>
</a>
</g>
</g>
<!-- Node1&#45;&gt;Node43 -->
<g id="edge64_Node000001_Node000043" class="edge">
<title>Node1&#45;&gt;Node43</title>
<g id="a_edge64_Node000001_Node000043"><a xlink:title=" ">
<path fill="none" stroke="#63b8ff" d="M1089.58,-292.59C1081.81,-312.89 1066.88,-344.63 1044,-363.5 1036.42,-369.75 1027.11,-374.42 1017.8,-377.88"/>
<polygon fill="#63b8ff" stroke="#63b8ff" points="1092.88,-293.74 1092.98,-283.14 1086.3,-291.36 1092.88,-293.74"/>
</a>
</g>
</g>
<!-- Node44 -->
<g id="Node000044" class="node">
<title>Node44</title>
<g id="a_Node000044"><a xlink:href="material__NonlinearCantilever_8c.html#a514540fed999755d181cbe5b643c356f" target="_top" xlink:title=" ">
<polygon fill="white" stroke="#666666" points="1021.5,-19 925.5,-19 925.5,0 1021.5,0 1021.5,-19"/>
<text text-anchor="middle" x="973.5" y="-7" font-family="Helvetica,sans-Serif" font-size="10.00">StressNonLinear</text>
</a>
</g>
</g>
<!-- Node1&#45;&gt;Node44 -->
<g id="edge66_Node000001_Node000044" class="edge">
<title>Node1&#45;&gt;Node44</title>
<g id="a_edge66_Node000001_Node000044"><a xlink:title=" ">
<path fill="none" stroke="#63b8ff" d="M1094.46,-253.72C1089.99,-201.24 1075.26,-60.21 1044,-27.5 1037.97,-21.19 1030.04,-16.99 1021.71,-14.21"/>
<polygon fill="#63b8ff" stroke="#63b8ff" points="1090.98,-254.09 1095.29,-263.77 1097.96,-253.52 1090.98,-254.09"/>
</a>
</g>
</g>
<!-- Node3 -->
<g id="Node000003" class="node">
<title>Node3</title>
<g id="a_Node000003"><a xlink:href="muscle__activation_8c.html#a19d89612f2544ef7f352badd7cf1f337" target="_top" xlink:title=" ">
<polygon fill="white" stroke="#666666" points="867,-469.5 742,-469.5 742,-439.5 867,-439.5 867,-469.5"/>
<text text-anchor="start" x="750" y="-457.5" font-family="Helvetica,sans-Serif" font-size="10.00">compute_mid_surface</text>
<text text-anchor="middle" x="804.5" y="-446.5" font-family="Helvetica,sans-Serif" font-size="10.00">_el_stress_after_act</text>
</a>
</g>
</g>
<!-- Node2&#45;&gt;Node3 -->
<g id="edge2_Node000002_Node000003" class="edge">
<title>Node2&#45;&gt;Node3</title>
<g id="a_edge2_Node000002_Node000003"><a xlink:title=" ">
<path fill="none" stroke="#63b8ff" d="M910.05,-435.72C895.99,-438.24 881.07,-440.92 867.05,-443.44"/>
<polygon fill="#63b8ff" stroke="#63b8ff" points="910.89,-439.12 920.12,-433.91 909.66,-432.23 910.89,-439.12"/>
</a>
</g>
</g>
<!-- Node2&#45;&gt;Node6 -->
<g id="edge5_Node000002_Node000006" class="edge">
<title>Node2&#45;&gt;Node6</title>
<g id="a_edge5_Node000002_Node000006"><a xlink:title=" ">
<path fill="none" stroke="#63b8ff" d="M913.02,-413.1C886.9,-408.1 857.34,-402.43 835.83,-398.31"/>
<polygon fill="#63b8ff" stroke="#63b8ff" points="912.37,-416.54 922.85,-414.99 913.68,-409.67 912.37,-416.54"/>
</a>
</g>
</g>
<!-- Node4 -->
<g id="Node000004" class="node">
<title>Node4</title>
<g id="a_Node000004"><a xlink:href="muscle__activation_8c.html#a3f9fadbc31e4872a8519e6bfdecf7b8f" target="_top" xlink:title=" ">
<polygon fill="white" stroke="#666666" points="706,-478.5 570,-478.5 570,-448.5 706,-448.5 706,-478.5"/>
<text text-anchor="start" x="578" y="-466.5" font-family="Helvetica,sans-Serif" font-size="10.00">update_mid_surf_elastic</text>
<text text-anchor="middle" x="638" y="-455.5" font-family="Helvetica,sans-Serif" font-size="10.00">_stress</text>
</a>
</g>
</g>
<!-- Node3&#45;&gt;Node4 -->
<g id="edge3_Node000003_Node000004" class="edge">
<title>Node3&#45;&gt;Node4</title>
<g id="a_edge3_Node000003_Node000004"><a xlink:title=" ">
<path fill="none" stroke="#63b8ff" d="M731.54,-458.44C723.06,-458.9 714.43,-459.37 706.03,-459.83"/>
<polygon fill="#63b8ff" stroke="#63b8ff" points="731.98,-461.92 741.78,-457.88 731.6,-454.93 731.98,-461.92"/>
</a>
</g>
</g>
<!-- Node5 -->
<g id="Node000005" class="node">
<title>Node5</title>
<g id="a_Node000005"><a xlink:href="muscle__activation_8c.html#a5794b91b41d38582fd698b653b53330e" target="_top" xlink:title=" ">
<polygon fill="white" stroke="#666666" points="534,-512 409,-512 409,-493 534,-493 534,-512"/>
<text text-anchor="middle" x="471.5" y="-500" font-family="Helvetica,sans-Serif" font-size="10.00">UpdateFInternalAftAct</text>
</a>
</g>
</g>
<!-- Node4&#45;&gt;Node5 -->
<g id="edge4_Node000004_Node000005" class="edge">
<title>Node4&#45;&gt;Node5</title>
<g id="a_edge4_Node000004_Node000005"><a xlink:title=" ">
<path fill="none" stroke="#63b8ff" d="M563.24,-480.99C545.83,-485.11 527.92,-489.36 512.65,-492.98"/>
<polygon fill="#63b8ff" stroke="#63b8ff" points="564.48,-484.29 573.4,-478.58 562.86,-477.48 564.48,-484.29"/>
</a>
</g>
</g>
<!-- Node7 -->
<g id="Node000007" class="node">
<title>Node7</title>
<g id="a_Node000007"><a xlink:href="main_8c.html#a59ccabe25c63661e6e66b44209b0f162" target="_top" xlink:title=" ">
<polygon fill="white" stroke="#666666" points="668,-402 608,-402 608,-383 668,-383 668,-402"/>
<text text-anchor="middle" x="638" y="-390" font-family="Helvetica,sans-Serif" font-size="10.00">FInternal</text>
</a>
</g>
</g>
<!-- Node6&#45;&gt;Node7 -->
<g id="edge6_Node000006_Node000007" class="edge">
<title>Node6&#45;&gt;Node7</title>
<g id="a_edge6_Node000006_Node000007"><a xlink:title=" ">
<path fill="none" stroke="#63b8ff" d="M762.98,-392.5C733.58,-392.5 694.51,-392.5 668.15,-392.5"/>
<polygon fill="#63b8ff" stroke="#63b8ff" points="763.33,-396 773.33,-392.5 763.33,-389 763.33,-396"/>
</a>
</g>
</g>
<!-- Node8 -->
<g id="Node000008" class="node">
<title>Node8</title>
<g id="a_Node000008"><a xlink:href="main_8c.html#aac0575d69dba68d64a6c0f65c2d8f635" target="_top" xlink:title=" ">
<polygon fill="white" stroke="#666666" points="498.5,-402 444.5,-402 444.5,-383 498.5,-383 498.5,-402"/>
<text text-anchor="middle" x="471.5" y="-390" font-family="Helvetica,sans-Serif" font-size="10.00">Contact</text>
</a>
</g>
</g>
<!-- Node7&#45;&gt;Node8 -->
<g id="edge7_Node000007_Node000008" class="edge">
<title>Node7&#45;&gt;Node8</title>
<g id="a_edge7_Node000007_Node000008"><a xlink:title=" ">
<path fill="none" stroke="#63b8ff" d="M597.62,-392.5C566.92,-392.5 525.18,-392.5 498.53,-392.5"/>
<polygon fill="#63b8ff" stroke="#63b8ff" points="597.97,-396 607.97,-392.5 597.97,-389 597.97,-396"/>
</a>
</g>
</g>
<!-- Node9 -->
<g id="Node000009" class="node">
<title>Node9</title>
<g id="a_Node000009"><a xlink:href="main_8c.html#a9a070a6f408cadb404b0ee7fbc74c576" target="_top" xlink:title=" ">
<polygon fill="white" stroke="#666666" points="370.5,-269 266.5,-269 266.5,-250 370.5,-250 370.5,-269"/>
<text text-anchor="middle" x="318.5" y="-257" font-family="Helvetica,sans-Serif" font-size="10.00">FormFunctionFEM</text>
</a>
</g>
</g>
<!-- Node7&#45;&gt;Node9 -->
<g id="edge8_Node000007_Node000009" class="edge">
<title>Node7&#45;&gt;Node9</title>
<g id="a_edge8_Node000007_Node000009"><a xlink:title=" ">
<path fill="none" stroke="#63b8ff" d="M617.76,-376.4C597.9,-360.48 565.46,-336.4 534,-321.5 480.05,-295.94 413.39,-278.7 368.83,-269.01"/>
<polygon fill="#63b8ff" stroke="#63b8ff" points="615.75,-379.27 625.71,-382.87 620.17,-373.84 615.75,-379.27"/>
</a>
</g>
</g>
<!-- Node11 -->
<g id="Node000011" class="node">
<title>Node11</title>
<g id="a_Node000011"><a xlink:href="main_8c.html#ad3a8e8f5b2e1871122784b2cd3dc1c8c" target="_top" xlink:title=" ">
<polygon fill="white" stroke="#666666" points="180,-326 125,-326 125,-307 180,-307 180,-326"/>
<text text-anchor="middle" x="152.5" y="-314" font-family="Helvetica,sans-Serif" font-size="10.00">FormRK</text>
</a>
</g>
</g>
<!-- Node7&#45;&gt;Node11 -->
<g id="edge10_Node000007_Node000011" class="edge">
<title>Node7&#45;&gt;Node11</title>
<g id="a_edge10_Node000007_Node000011"><a xlink:title=" ">
<path fill="none" stroke="#63b8ff" d="M597.82,-385.45C578.6,-382.04 555.11,-377.95 534,-374.5 401.45,-352.82 242.48,-329.43 180.29,-320.38"/>
<polygon fill="#63b8ff" stroke="#63b8ff" points="597.27,-388.9 607.73,-387.21 598.49,-382.01 597.27,-388.9"/>
</a>
</g>
</g>
<!-- Node12 -->
<g id="Node000012" class="node">
<title>Node12</title>
<g id="a_Node000012"><a xlink:href="inverse_8c.html#a8ccb34384a9c46d52bb413dcd177c67b" target="_top" xlink:title=" ">
<polygon fill="white" stroke="#666666" points="511.5,-457 431.5,-457 431.5,-438 511.5,-438 511.5,-457"/>
<text text-anchor="middle" x="471.5" y="-445" font-family="Helvetica,sans-Serif" font-size="10.00">ResidualCalc</text>
</a>
</g>
</g>
<!-- Node7&#45;&gt;Node12 -->
<g id="edge12_Node000007_Node000012" class="edge">
<title>Node7&#45;&gt;Node12</title>
<g id="a_edge12_Node000007_Node000012"><a xlink:title=" ">
<path fill="none" stroke="#63b8ff" d="M598.69,-405.31C568.86,-415.28 528.13,-428.9 501.1,-437.94"/>
<polygon fill="#63b8ff" stroke="#63b8ff" points="599.97,-408.57 608.35,-402.08 597.75,-401.93 599.97,-408.57"/>
</a>
</g>
</g>
<!-- Node10 -->
<g id="Node000010" class="node">
<title>Node10</title>
<g id="a_Node000010"><a xlink:href="main_8c.html#a3c04138a5bfe5d72780bb7e82a18e627" target="_top" xlink:title=" ">
<polygon fill="white" stroke="#666666" points="41,-250 0,-250 0,-231 41,-231 41,-250"/>
<text text-anchor="middle" x="20.5" y="-238" font-family="Helvetica,sans-Serif" font-size="10.00">main</text>
</a>
</g>
</g>
<!-- Node9&#45;&gt;Node10 -->
<g id="edge9_Node000009_Node000010" class="edge">
<title>Node9&#45;&gt;Node10</title>
<g id="a_edge9_Node000009_Node000010"><a xlink:title=" ">
<path fill="none" stroke="#63b8ff" d="M256.22,-255.57C188.89,-251.24 84.58,-244.55 41.33,-241.77"/>
<polygon fill="#63b8ff" stroke="#63b8ff" points="256.07,-259.06 266.28,-256.21 256.52,-252.08 256.07,-259.06"/>
</a>
</g>
</g>
<!-- Node11&#45;&gt;Node10 -->
<g id="edge11_Node000011_Node000010" class="edge">
<title>Node11&#45;&gt;Node10</title>
<g id="a_edge11_Node000011_Node000010"><a xlink:title=" ">
<path fill="none" stroke="#63b8ff" d="M126.05,-301.92C111.63,-293.63 93.28,-283.04 77,-273.5 63.65,-265.68 48.57,-256.7 37.5,-250.09"/>
<polygon fill="#63b8ff" stroke="#63b8ff" points="124.48,-305.05 134.89,-307 127.96,-298.98 124.48,-305.05"/>
</a>
</g>
</g>
<!-- Node13 -->
<g id="Node000013" class="node">
<title>Node13</title>
<g id="a_Node000013"><a xlink:href="mlp_8c.html#a95587eada79194109e216fe2d1536aa5" target="_top" xlink:title=" ">
<polygon fill="#fff0f0" stroke="red" points="354,-420 283,-420 283,-401 354,-401 354,-420"/>
<text text-anchor="middle" x="318.5" y="-408" font-family="Helvetica,sans-Serif" font-size="10.00">compute_R</text>
</a>
</g>
</g>
<!-- Node12&#45;&gt;Node13 -->
<g id="edge13_Node000012_Node000013" class="edge">
<title>Node12&#45;&gt;Node13</title>
<g id="a_edge13_Node000012_Node000013"><a xlink:title=" ">
<path fill="none" stroke="#63b8ff" d="M421.76,-435.56C399.72,-430.16 374.18,-423.9 354.13,-418.99"/>
<polygon fill="#63b8ff" stroke="#63b8ff" points="421.07,-438.99 431.61,-437.97 422.73,-432.19 421.07,-438.99"/>
</a>
</g>
</g>
<!-- Node15 -->
<g id="Node000015" class="node">
<title>Node15</title>
<g id="a_Node000015"><a xlink:href="inverse_8c.html#a5a46d0c408c2a4905101ca00ed320825" target="_top" xlink:title=" ">
<polygon fill="white" stroke="#666666" points="359,-531 278,-531 278,-512 359,-512 359,-531"/>
<text text-anchor="middle" x="318.5" y="-519" font-family="Helvetica,sans-Serif" font-size="10.00">FungJacobian</text>
</a>
</g>
</g>
<!-- Node12&#45;&gt;Node15 -->
<g id="edge14_Node000012_Node000015" class="edge">
<title>Node12&#45;&gt;Node15</title>
<g id="a_edge14_Node000012_Node000015"><a xlink:title=" ">
<path fill="none" stroke="#63b8ff" d="M445.96,-462.33C422.06,-476.65 387.3,-497.06 373,-503.5 366.12,-506.6 358.54,-509.46 351.3,-511.95"/>
<polygon fill="#63b8ff" stroke="#63b8ff" points="448.06,-465.15 454.83,-457 444.46,-459.15 448.06,-465.15"/>
</a>
</g>
</g>
<!-- Node16 -->
<g id="Node000016" class="node">
<title>Node16</title>
<g id="a_Node000016"><a xlink:href="inverse_8c.html#a63c0a7ac76584f0dab82764698b5d878" target="_top" xlink:title=" ">
<polygon fill="white" stroke="#666666" points="183.5,-475 121.5,-475 121.5,-456 183.5,-456 183.5,-475"/>
<text text-anchor="middle" x="152.5" y="-463" font-family="Helvetica,sans-Serif" font-size="10.00">InvSolver</text>
</a>
</g>
</g>
<!-- Node12&#45;&gt;Node16 -->
<g id="edge21_Node000012_Node000016" class="edge">
<title>Node12&#45;&gt;Node16</title>
<g id="a_edge21_Node000012_Node000016"><a xlink:title=" ">
<path fill="none" stroke="#63b8ff" d="M440.44,-461.93C429.76,-467.96 418.13,-475.64 409,-484.5 387.77,-505.11 398.97,-526.32 373,-540.5 330.48,-563.71 310.31,-554.73 264,-540.5 221.67,-527.49 180.99,-492.14 163.07,-475.03"/>
<polygon fill="#63b8ff" stroke="#63b8ff" points="442.34,-464.88 449.5,-457.07 439.03,-458.72 442.34,-464.88"/>
</a>
</g>
</g>
<!-- Node17 -->
<g id="Node000017" class="node">
<title>Node17</title>
<g id="a_Node000017"><a xlink:href="inverse_8c.html#a6dcb60291ae68ad8fa0ccea39658279a" target="_top" xlink:title=" ">
<polygon fill="white" stroke="#666666" points="367.5,-494 269.5,-494 269.5,-475 367.5,-475 367.5,-494"/>
<text text-anchor="middle" x="318.5" y="-482" font-family="Helvetica,sans-Serif" font-size="10.00">FungUniJacobian</text>
</a>
</g>
</g>
<!-- Node12&#45;&gt;Node17 -->
<g id="edge17_Node000012_Node000017" class="edge">
<title>Node12&#45;&gt;Node17</title>
<g id="a_edge17_Node000012_Node000017"><a xlink:title=" ">
<path fill="none" stroke="#63b8ff" d="M421.83,-459.43C401.35,-464.44 377.83,-470.21 358.52,-474.94"/>
<polygon fill="#63b8ff" stroke="#63b8ff" points="422.73,-462.81 431.61,-457.03 421.07,-456.01 422.73,-462.81"/>
</a>
</g>
</g>
<!-- Node18 -->
<g id="Node000018" class="node">
<title>Node18</title>
<g id="a_Node000018"><a xlink:href="inverse_8c.html#ad779d411aa186efcdfb8e192c52d04b0" target="_top" xlink:title=" ">
<polygon fill="white" stroke="#666666" points="373,-457 264,-457 264,-438 373,-438 373,-457"/>
<text text-anchor="middle" x="318.5" y="-445" font-family="Helvetica,sans-Serif" font-size="10.00">grad_R_wrt_E_field</text>
</a>
</g>
</g>
<!-- Node12&#45;&gt;Node18 -->
<g id="edge19_Node000012_Node000018" class="edge">
<title>Node12&#45;&gt;Node18</title>
<g id="a_edge19_Node000012_Node000018"><a xlink:title=" ">
<path fill="none" stroke="#63b8ff" d="M420.91,-447.5C405.59,-447.5 388.65,-447.5 373.08,-447.5"/>
<polygon fill="#63b8ff" stroke="#63b8ff" points="421.22,-451 431.22,-447.5 421.22,-444 421.22,-451"/>
</a>
</g>
</g>
<!-- Node19 -->
<g id="Node000019" class="node">
<title>Node19</title>
<g id="a_Node000019"><a xlink:href="inverse_8c.html#a9c6b1db7cc8e3f7771140e7920429ab3" target="_top" xlink:title=" ">
<polygon fill="white" stroke="#666666" points="347.5,-383 289.5,-383 289.5,-364 347.5,-364 347.5,-383"/>
<text text-anchor="middle" x="318.5" y="-371" font-family="Helvetica,sans-Serif" font-size="10.00">Jacobian</text>
</a>
</g>
</g>
<!-- Node12&#45;&gt;Node19 -->
<g id="edge22_Node000012_Node000019" class="edge">
<title>Node12&#45;&gt;Node19</title>
<g id="a_edge22_Node000012_Node000019"><a xlink:title=" ">
<path fill="none" stroke="#63b8ff" d="M445.52,-432.76C421.61,-418.77 387.13,-398.94 373,-392.5 364.93,-388.82 355.92,-385.38 347.63,-382.47"/>
<polygon fill="#63b8ff" stroke="#63b8ff" points="444.02,-435.94 454.42,-437.98 447.57,-429.9 444.02,-435.94"/>
</a>
</g>
</g>
<!-- Node15&#45;&gt;Node16 -->
<g id="edge15_Node000015_Node000016" class="edge">
<title>Node15&#45;&gt;Node16</title>
<g id="a_edge15_Node000015_Node000016"><a xlink:title=" ">
<path fill="none" stroke="#63b8ff" d="M279.21,-508.65C274.09,-506.93 268.92,-505.17 264,-503.5 235.77,-493.9 203.52,-482.79 181.18,-475.08"/>
<polygon fill="#63b8ff" stroke="#63b8ff" points="278.3,-512.04 288.89,-511.91 280.53,-505.4 278.3,-512.04"/>
</a>
</g>
</g>
<!-- Node16&#45;&gt;Node10 -->
<g id="edge16_Node000016_Node000010" class="edge">
<title>Node16&#45;&gt;Node10</title>
<g id="a_edge16_Node000016_Node000010"><a xlink:title=" ">
<path fill="none" stroke="#63b8ff" d="M140.8,-446.99C114.42,-401.32 46.91,-284.48 27.07,-250.13"/>
<polygon fill="#63b8ff" stroke="#63b8ff" points="137.88,-448.92 145.91,-455.83 143.94,-445.42 137.88,-448.92"/>
</a>
</g>
</g>
<!-- Node17&#45;&gt;Node16 -->
<g id="edge18_Node000017_Node000016" class="edge">
<title>Node17&#45;&gt;Node16</title>
<g id="a_edge18_Node000017_Node000016"><a xlink:title=" ">
<path fill="none" stroke="#63b8ff" d="M258.92,-477.71C233.56,-474.78 204.95,-471.46 183.94,-469.03"/>
<polygon fill="#63b8ff" stroke="#63b8ff" points="258.85,-481.23 269.18,-478.9 259.65,-474.27 258.85,-481.23"/>
</a>
</g>
</g>
<!-- Node18&#45;&gt;Node16 -->
<g id="edge20_Node000018_Node000016" class="edge">
<title>Node18&#45;&gt;Node16</title>
<g id="a_edge20_Node000018_Node000016"><a xlink:title=" ">
<path fill="none" stroke="#63b8ff" d="M253.67,-454.51C229.65,-457.14 203.44,-460.02 183.85,-462.17"/>
<polygon fill="#63b8ff" stroke="#63b8ff" points="254.24,-457.96 263.8,-453.39 253.48,-451.01 254.24,-457.96"/>
</a>
</g>
</g>
<!-- Node19&#45;&gt;Node16 -->
<g id="edge23_Node000019_Node000016" class="edge">
<title>Node19&#45;&gt;Node16</title>
<g id="a_edge23_Node000019_Node000016"><a xlink:title=" ">
<path fill="none" stroke="#63b8ff" d="M279.85,-385.56C274.45,-387.67 269.02,-390 264,-392.5 226.14,-411.38 185.62,-440.83 165.82,-455.9"/>
<polygon fill="#63b8ff" stroke="#63b8ff" points="281.31,-388.76 289.48,-382.02 278.88,-382.19 281.31,-388.76"/>
</a>
</g>
</g>
<!-- Node21 -->
<g id="Node000021" class="node">
<title>Node21</title>
<g id="a_Node000021"><a xlink:href="muscle__activation_8c.html#ac3ca4cc4ba5200069bc54f7f7b131b46" target="_top" xlink:title=" ">
<polygon fill="white" stroke="#666666" points="705,-535 571,-535 571,-516 705,-516 705,-535"/>
<text text-anchor="middle" x="638" y="-523" font-family="Helvetica,sans-Serif" font-size="10.00">UpdateTotalStressAftAct</text>
</a>
</g>
</g>
<!-- Node20&#45;&gt;Node21 -->
<g id="edge25_Node000020_Node000021" class="edge">
<title>Node20&#45;&gt;Node21</title>
<g id="a_edge25_Node000020_Node000021"><a xlink:title=" ">
<path fill="none" stroke="#63b8ff" d="M899.19,-533.3C841.21,-531.56 760.99,-529.16 705,-527.48"/>
<polygon fill="#63b8ff" stroke="#63b8ff" points="899.28,-536.81 909.38,-533.61 899.49,-529.81 899.28,-536.81"/>
</a>
</g>
</g>
<!-- Node21&#45;&gt;Node5 -->
<g id="edge26_Node000021_Node000005" class="edge">
<title>Node21&#45;&gt;Node5</title>
<g id="a_edge26_Node000021_Node000005"><a xlink:title=" ">
<path fill="none" stroke="#63b8ff" d="M560.61,-514.82C551.73,-513.58 542.77,-512.32 534.13,-511.12"/>
<polygon fill="#63b8ff" stroke="#63b8ff" points="560.18,-518.29 570.57,-516.21 561.15,-511.36 560.18,-518.29"/>
</a>
</g>
</g>
<!-- Node22&#45;&gt;Node6 -->
<g id="edge28_Node000022_Node000006" class="edge">
<title>Node22&#45;&gt;Node6</title>
<g id="a_edge28_Node000022_Node000006"><a xlink:title=" ">
<path fill="none" stroke="#63b8ff" d="M949.65,-213.17C935.1,-223.91 916.51,-239.15 903,-255.5 881.96,-280.96 885.82,-293.36 867,-320.5 850.51,-344.28 827.63,-369.39 814.93,-382.77"/>
<polygon fill="#63b8ff" stroke="#63b8ff" points="952.03,-215.76 958.11,-207.08 947.95,-210.08 952.03,-215.76"/>
</a>
</g>
</g>
<!-- Node22&#45;&gt;Node23 -->
<g id="edge29_Node000022_Node000023" class="edge">
<title>Node22&#45;&gt;Node23</title>
<g id="a_edge29_Node000022_Node000023"><a xlink:title=" ">
<path fill="none" stroke="#63b8ff" d="M894.85,-197.5C869.06,-197.5 842.53,-197.5 825.15,-197.5"/>
<polygon fill="#63b8ff" stroke="#63b8ff" points="895.06,-201 905.06,-197.5 895.06,-194 895.06,-201"/>
</a>
</g>
</g>
<!-- Node24 -->
<g id="Node000024" class="node">
<title>Node24</title>
<g id="a_Node000024"><a xlink:href="bending_8c.html#a2cd7ef6a41a0e3d6757965f9336e457a" target="_top" xlink:title=" ">
<polygon fill="white" stroke="#666666" points="668.5,-231 607.5,-231 607.5,-212 668.5,-212 668.5,-231"/>
<text text-anchor="middle" x="638" y="-219" font-family="Helvetica,sans-Serif" font-size="10.00">InitGhost</text>
</a>
</g>
</g>
<!-- Node23&#45;&gt;Node24 -->
<g id="edge30_Node000023_Node000024" class="edge">
<title>Node23&#45;&gt;Node24</title>
<g id="a_edge30_Node000023_Node000024"><a xlink:title=" ">
<path fill="none" stroke="#63b8ff" d="M773.8,-201.83C744.06,-206.17 698.55,-212.81 668.78,-217.16"/>
<polygon fill="#63b8ff" stroke="#63b8ff" points="774.59,-205.25 783.98,-200.35 773.58,-198.33 774.59,-205.25"/>
</a>
</g>
</g>
<!-- Node25 -->
<g id="Node000025" class="node">
<title>Node25</title>
<g id="a_Node000025"><a xlink:href="main_8c.html#a636a8f7f82b7bc4dabb749e9c7fe75a9" target="_top" xlink:title=" ">
<polygon fill="white" stroke="#666666" points="168.5,-231 136.5,-231 136.5,-212 168.5,-212 168.5,-231"/>
<text text-anchor="middle" x="152.5" y="-219" font-family="Helvetica,sans-Serif" font-size="10.00">Init</text>
</a>
</g>
</g>
<!-- Node24&#45;&gt;Node25 -->
<g id="edge31_Node000024_Node000025" class="edge">
<title>Node24&#45;&gt;Node25</title>
<g id="a_edge31_Node000024_Node000025"><a xlink:title=" ">
<path fill="none" stroke="#63b8ff" d="M597.43,-221.5C496.82,-221.5 234.61,-221.5 168.7,-221.5"/>
<polygon fill="#63b8ff" stroke="#63b8ff" points="597.48,-225 607.48,-221.5 597.48,-218 597.48,-225"/>
</a>
</g>
</g>
<!-- Node25&#45;&gt;Node10 -->
<g id="edge32_Node000025_Node000010" class="edge">
<title>Node25&#45;&gt;Node10</title>
<g id="a_edge32_Node000025_Node000010"><a xlink:title=" ">
<path fill="none" stroke="#63b8ff" d="M126.21,-225.2C101.36,-228.83 63.96,-234.29 41.23,-237.62"/>
<polygon fill="#63b8ff" stroke="#63b8ff" points="126.94,-228.63 136.33,-223.72 125.93,-221.7 126.94,-228.63"/>
</a>
</g>
</g>
<!-- Node27 -->
<g id="Node000027" class="node">
<title>Node27</title>
<g id="a_Node000027"><a xlink:href="muscle__activation_8c.html#a0dda352c79a3d0150ff314d8c63e0054" target="_top" xlink:title="Updates all active Fa values for each element.">
<polygon fill="white" stroke="#666666" points="847.5,-93 761.5,-93 761.5,-74 847.5,-74 847.5,-93"/>
<text text-anchor="middle" x="804.5" y="-81" font-family="Helvetica,sans-Serif" font-size="10.00">update_act_Fa</text>
</a>
</g>
</g>
<!-- Node26&#45;&gt;Node27 -->
<g id="edge34_Node000026_Node000027" class="edge">
<title>Node26&#45;&gt;Node27</title>
<g id="a_edge34_Node000026_Node000027"><a xlink:title=" ">
<path fill="none" stroke="#63b8ff" d="M892.56,-83.5C877.13,-83.5 861.55,-83.5 847.91,-83.5"/>
<polygon fill="#63b8ff" stroke="#63b8ff" points="892.64,-87 902.64,-83.5 892.64,-80 892.64,-87"/>
</a>
</g>
</g>
<!-- Node28 -->
<g id="Node000028" class="node">
<title>Node28</title>
<g id="a_Node000028"><a xlink:href="muscle__activation_8c.html#aad998374ae4f3ca2c8f14b4c4b2aaafd" target="_top" xlink:title=" ">
<polygon fill="white" stroke="#666666" points="699.5,-75 576.5,-75 576.5,-56 699.5,-56 699.5,-75"/>
<text text-anchor="middle" x="638" y="-63" font-family="Helvetica,sans-Serif" font-size="10.00">InitMuscleActProblem</text>
</a>
</g>
</g>
<!-- Node27&#45;&gt;Node28 -->
<g id="edge35_Node000027_Node000028" class="edge">
<title>Node27&#45;&gt;Node28</title>
<g id="a_edge35_Node000027_Node000028"><a xlink:title=" ">
<path fill="none" stroke="#63b8ff" d="M751.17,-77.77C734.74,-75.98 716.46,-73.98 699.51,-72.12"/>
<polygon fill="#63b8ff" stroke="#63b8ff" points="750.82,-81.26 761.14,-78.86 751.58,-74.3 750.82,-81.26"/>
</a>
</g>
</g>
<!-- Node30 -->
<g id="Node000030" class="node">
<title>Node30</title>
<g id="a_Node000030"><a xlink:href="muscle__activation_8c.html#ac332e445f79d1bdc2c6cd1e00514021e" target="_top" xlink:title=" ">
<polygon fill="white" stroke="#666666" points="841.5,-56 767.5,-56 767.5,-37 841.5,-37 841.5,-56"/>
<text text-anchor="middle" x="804.5" y="-44" font-family="Helvetica,sans-Serif" font-size="10.00">UpdateFbar</text>
</a>
</g>
</g>
<!-- Node29&#45;&gt;Node30 -->
<g id="edge37_Node000029_Node000030" class="edge">
<title>Node29&#45;&gt;Node30</title>
<g id="a_edge37_Node000029_Node000030"><a xlink:title=" ">
<path fill="none" stroke="#63b8ff" d="M912.53,-46.5C888.84,-46.5 862.38,-46.5 841.7,-46.5"/>
<polygon fill="#63b8ff" stroke="#63b8ff" points="912.85,-50 922.85,-46.5 912.85,-43 912.85,-50"/>
</a>
</g>
</g>
<!-- Node30&#45;&gt;Node28 -->
<g id="edge38_Node000030_Node000028" class="edge">
<title>Node30&#45;&gt;Node28</title>
<g id="a_edge38_Node000030_Node000028"><a xlink:title=" ">
<path fill="none" stroke="#63b8ff" d="M757.23,-51.84C739.34,-53.91 718.63,-56.3 699.59,-58.5"/>
<polygon fill="#63b8ff" stroke="#63b8ff" points="757.87,-55.29 767.4,-50.67 757.06,-48.34 757.87,-55.29"/>
</a>
</g>
</g>
<!-- Node32 -->
<g id="Node000032" class="node">
<title>Node32</title>
<g id="a_Node000032"><a xlink:href="active__strain_8c.html#a693fb698122674ff7df6dd47ac75167c" target="_top" xlink:title="Run per&#45;element precomputations before global internal&#45;force assembly.">
<polygon fill="white" stroke="#666666" points="686.5,-269 589.5,-269 589.5,-250 686.5,-250 686.5,-269"/>
<text text-anchor="middle" x="638" y="-257" font-family="Helvetica,sans-Serif" font-size="10.00">FInternalPreCalc</text>
</a>
</g>
</g>
<!-- Node31&#45;&gt;Node32 -->
<g id="edge40_Node000031_Node000032" class="edge">
<title>Node31&#45;&gt;Node32</title>
<g id="a_edge40_Node000031_Node000032"><a xlink:title=" ">
<path fill="none" stroke="#63b8ff" d="M756.39,-289.47C731.03,-283 700.17,-275.12 676.46,-269.07"/>
<polygon fill="#63b8ff" stroke="#63b8ff" points="755.62,-292.89 766.17,-291.97 757.35,-286.1 755.62,-292.89"/>
</a>
</g>
</g>
<!-- Node33 -->
<g id="Node000033" class="node">
<title>Node33</title>
<g id="a_Node000033"><a xlink:href="active__strain_8c.html#a3bac899c10052c346d2afe9eccbac71d" target="_top" xlink:title="Assemble global internal force vector for active&#45;strain mechanics.">
<polygon fill="white" stroke="#666666" points="509.5,-269 433.5,-269 433.5,-250 509.5,-250 509.5,-269"/>
<text text-anchor="middle" x="471.5" y="-257" font-family="Helvetica,sans-Serif" font-size="10.00">FInternalAct</text>
</a>
</g>
</g>
<!-- Node32&#45;&gt;Node33 -->
<g id="edge41_Node000032_Node000033" class="edge">
<title>Node32&#45;&gt;Node33</title>
<g id="a_edge41_Node000032_Node000033"><a xlink:title=" ">
<path fill="none" stroke="#63b8ff" d="M579.34,-259.5C556.16,-259.5 530.1,-259.5 509.53,-259.5"/>
<polygon fill="#63b8ff" stroke="#63b8ff" points="579.42,-263 589.42,-259.5 579.42,-256 579.42,-263"/>
</a>
</g>
</g>
<!-- Node33&#45;&gt;Node9 -->
<g id="edge42_Node000033_Node000009" class="edge">
<title>Node33&#45;&gt;Node9</title>
<g id="a_edge42_Node000033_Node000009"><a xlink:title=" ">
<path fill="none" stroke="#63b8ff" d="M423.1,-259.5C406.42,-259.5 387.61,-259.5 370.63,-259.5"/>
<polygon fill="#63b8ff" stroke="#63b8ff" points="423.17,-263 433.17,-259.5 423.17,-256 423.17,-263"/>
</a>
</g>
</g>
<!-- Node34&#45;&gt;Node32 -->
<g id="edge44_Node000034_Node000032" class="edge">
<title>Node34&#45;&gt;Node32</title>
<g id="a_edge44_Node000034_Node000032"><a xlink:title=" ">
<path fill="none" stroke="#63b8ff" d="M750.54,-259.5C729.95,-259.5 706.54,-259.5 686.5,-259.5"/>
<polygon fill="#63b8ff" stroke="#63b8ff" points="750.71,-263 760.71,-259.5 750.71,-256 750.71,-263"/>
</a>
</g>
</g>
<!-- Node35&#45;&gt;Node34 -->
<g id="edge46_Node000035_Node000034" class="edge">
<title>Node35&#45;&gt;Node34</title>
<g id="a_edge46_Node000035_Node000034"><a xlink:title=" ">
<path fill="none" stroke="#63b8ff" d="M905.94,-267.92C886.5,-266.29 865.79,-264.55 848.25,-263.08"/>
<polygon fill="#63b8ff" stroke="#63b8ff" points="905.7,-271.41 915.96,-268.76 906.29,-264.44 905.7,-271.41"/>
</a>
</g>
</g>
<!-- Node36&#45;&gt;Node32 -->
<g id="edge48_Node000036_Node000032" class="edge">
<title>Node36&#45;&gt;Node32</title>
<g id="a_edge48_Node000036_Node000032"><a xlink:title=" ">
<path fill="none" stroke="#63b8ff" d="M757.6,-169.39C752.01,-172.21 746.64,-175.55 742,-179.5 718.02,-199.9 730.93,-221.27 706,-240.5 700.26,-244.93 693.52,-248.33 686.58,-250.93"/>
<polygon fill="#63b8ff" stroke="#63b8ff" points="759.43,-172.4 767.13,-165.12 756.57,-166.01 759.43,-172.4"/>
</a>
</g>
</g>
<!-- Node37 -->
<g id="Node000037" class="node">
<title>Node37</title>
<g id="a_Node000037"><a xlink:href="cuda__processes_8c.html#a627a27228923fbc3e63f0f4e1c5aa765" target="_top" xlink:title=" ">
<polygon fill="white" stroke="#666666" points="207,-194 98,-194 98,-175 207,-175 207,-194"/>
<text text-anchor="middle" x="152.5" y="-182" font-family="Helvetica,sans-Serif" font-size="10.00">RunCudaProcesses</text>
</a>
</g>
</g>
<!-- Node36&#45;&gt;Node37 -->
<g id="edge49_Node000036_Node000037" class="edge">
<title>Node36&#45;&gt;Node37</title>
<g id="a_edge49_Node000036_Node000037"><a xlink:title=" ">
<path fill="none" stroke="#63b8ff" d="M752.21,-160.78C737.32,-162.16 721.02,-163.54 706,-164.5 523.29,-176.23 306.11,-181.58 207.27,-183.55"/>
<polygon fill="#63b8ff" stroke="#63b8ff" points="752.64,-164.25 762.27,-159.82 751.98,-157.28 752.64,-164.25"/>
</a>
</g>
</g>
<!-- Node38 -->
<g id="Node000038" class="node">
<title>Node38</title>
<g id="a_Node000038"><a xlink:href="dmplex__geom_8c.html#aa2b24de348fff4079de659ff63ba9b85" target="_top" xlink:title="Synchronise remote coordinates and evaluate the geometry kernel for all local cells.">
<polygon fill="white" stroke="#666666" points="695.5,-155 580.5,-155 580.5,-136 695.5,-136 695.5,-155"/>
<text text-anchor="middle" x="638" y="-143" font-family="Helvetica,sans-Serif" font-size="10.00">RunLocalGeometry_</text>
</a>
</g>
</g>
<!-- Node36&#45;&gt;Node38 -->
<g id="edge51_Node000036_Node000038" class="edge">
<title>Node36&#45;&gt;Node38</title>
<g id="a_edge51_Node000036_Node000038"><a xlink:title=" ">
<path fill="none" stroke="#63b8ff" d="M752.41,-152.39C734.42,-151.3 714.1,-150.07 695.68,-148.95"/>
<polygon fill="#63b8ff" stroke="#63b8ff" points="752.22,-155.89 762.41,-153 752.64,-148.9 752.22,-155.89"/>
</a>
</g>
</g>
<!-- Node37&#45;&gt;Node10 -->
<g id="edge50_Node000037_Node000010" class="edge">
<title>Node37&#45;&gt;Node10</title>
<g id="a_edge50_Node000037_Node000010"><a xlink:title=" ">
<path fill="none" stroke="#63b8ff" d="M93.96,-197.07C88.14,-198.96 82.39,-201.1 77,-203.5 60.92,-210.66 44.37,-222.36 33.58,-230.69"/>
<polygon fill="#63b8ff" stroke="#63b8ff" points="95.22,-200.34 103.79,-194.11 93.2,-193.64 95.22,-200.34"/>
</a>
</g>
</g>
<!-- Node39 -->
<g id="Node000039" class="node">
<title>Node39</title>
<g id="a_Node000039"><a xlink:href="dmplex__geom_8c.html#ac4ecb4d172bee5f7c59a9fdf2680bb51" target="_top" xlink:title="Benchmark: run the full distributed DMPlex geometry pipeline for all bodies.">
<polygon fill="white" stroke="#666666" points="228,-156 77,-156 77,-137 228,-137 228,-156"/>
<text text-anchor="middle" x="152.5" y="-144" font-family="Helvetica,sans-Serif" font-size="10.00">RunDMPlexGeomProcesses</text>
</a>
</g>
</g>
<!-- Node38&#45;&gt;Node39 -->
<g id="edge52_Node000038_Node000039" class="edge">
<title>Node38&#45;&gt;Node39</title>
<g id="a_edge52_Node000038_Node000039"><a xlink:title=" ">
<path fill="none" stroke="#63b8ff" d="M570.07,-145.64C480.43,-145.82 321.87,-146.15 228.36,-146.35"/>
<polygon fill="#63b8ff" stroke="#63b8ff" points="570.12,-149.14 580.11,-145.62 570.11,-142.14 570.12,-149.14"/>
</a>
</g>
</g>
<!-- Node39&#45;&gt;Node10 -->
<g id="edge53_Node000039_Node000010" class="edge">
<title>Node39&#45;&gt;Node10</title>
<g id="a_edge53_Node000039_Node000010"><a xlink:title=" ">
<path fill="none" stroke="#63b8ff" d="M88.93,-159.86C84.74,-161.78 80.72,-163.98 77,-166.5 52.13,-183.33 33.98,-215.06 26,-230.94"/>
<polygon fill="#63b8ff" stroke="#63b8ff" points="90.33,-163.07 98.29,-156.07 87.7,-156.58 90.33,-163.07"/>
</a>
</g>
</g>
<!-- Node40&#45;&gt;Node3 -->
<g id="edge57_Node000040_Node000003" class="edge">
<title>Node40&#45;&gt;Node3</title>
<g id="a_edge57_Node000040_Node000003"><a xlink:title=" ">
<path fill="none" stroke="#63b8ff" d="M925.57,-486.39C918.02,-484.43 910.29,-482.42 903,-480.5 889.61,-476.98 875.21,-473.16 861.68,-469.55"/>
<polygon fill="#63b8ff" stroke="#63b8ff" points="924.78,-489.8 935.34,-488.93 926.54,-483.03 924.78,-489.8"/>
</a>
</g>
</g>
<!-- Node40&#45;&gt;Node6 -->
<g id="edge58_Node000040_Node000006" class="edge">
<title>Node40&#45;&gt;Node6</title>
<g id="a_edge58_Node000040_Node000006"><a xlink:title=" ">
<path fill="none" stroke="#63b8ff" d="M910.19,-484.79C907.69,-483.49 905.28,-482.06 903,-480.5 880.4,-465.04 887.03,-449.17 867,-430.5 854.51,-418.86 837.94,-408.87 825.14,-402.05"/>
<polygon fill="#63b8ff" stroke="#63b8ff" points="908.99,-488.09 919.55,-488.99 911.86,-481.7 908.99,-488.09"/>
</a>
</g>
</g>
<!-- Node41 -->
<g id="Node000041" class="node">
<title>Node41</title>
<g id="a_Node000041"><a xlink:href="membrane_8c.html#a9fee56a81a4f404db4630a996f38013c" target="_top" xlink:title=" ">
<polygon fill="white" stroke="#666666" points="842.5,-507 766.5,-507 766.5,-488 842.5,-488 842.5,-507"/>
<text text-anchor="middle" x="804.5" y="-495" font-family="Helvetica,sans-Serif" font-size="10.00">Fmembrane</text>
</a>
</g>
</g>
<!-- Node40&#45;&gt;Node41 -->
<g id="edge59_Node000040_Node000041" class="edge">
<title>Node40&#45;&gt;Node41</title>
<g id="a_edge59_Node000040_Node000041"><a xlink:title=" ">
<path fill="none" stroke="#63b8ff" d="M903.49,-498.09C882.6,-497.96 860.46,-497.83 842.52,-497.72"/>
<polygon fill="#63b8ff" stroke="#63b8ff" points="903.6,-501.59 913.62,-498.15 903.64,-494.59 903.6,-501.59"/>
</a>
</g>
</g>
<!-- Node41&#45;&gt;Node7 -->
<g id="edge60_Node000041_Node000007" class="edge">
<title>Node41&#45;&gt;Node7</title>
<g id="a_edge60_Node000041_Node000007"><a xlink:title=" ">
<path fill="none" stroke="#63b8ff" d="M756.9,-486.02C751.69,-483.89 746.61,-481.41 742,-478.5 722.05,-465.92 723.76,-455.03 706,-439.5 689.53,-425.1 668.63,-411.01 654.59,-402.08"/>
<polygon fill="#63b8ff" stroke="#63b8ff" points="755.75,-489.32 766.34,-489.46 758.15,-482.75 755.75,-489.32"/>
</a>
</g>
</g>
<!-- Node42&#45;&gt;Node3 -->
<g id="edge62_Node000042_Node000003" class="edge">
<title>Node42&#45;&gt;Node3</title>
<g id="a_edge62_Node000042_Node000003"><a xlink:title=" ">
<path fill="none" stroke="#63b8ff" d="M924.43,-459.49C906.57,-458.74 886.06,-457.88 867.15,-457.08"/>
<polygon fill="#63b8ff" stroke="#63b8ff" points="924.47,-462.99 934.61,-459.91 924.76,-456 924.47,-462.99"/>
</a>
</g>
</g>
<!-- Node42&#45;&gt;Node6 -->
<g id="edge63_Node000042_Node000006" class="edge">
<title>Node42&#45;&gt;Node6</title>
<g id="a_edge63_Node000042_Node000006"><a xlink:title=" ">
<path fill="none" stroke="#63b8ff" d="M925.12,-450.78C917.63,-448.64 910.04,-446.21 903,-443.5 872.87,-431.9 840.03,-413.39 821.19,-402.15"/>
<polygon fill="#63b8ff" stroke="#63b8ff" points="924.29,-454.18 934.85,-453.42 926.12,-447.43 924.29,-454.18"/>
</a>
</g>
</g>
<!-- Node43&#45;&gt;Node6 -->
<g id="edge65_Node000043_Node000006" class="edge">
<title>Node43&#45;&gt;Node6</title>
<g id="a_edge65_Node000043_Node000006"><a xlink:title=" ">
<path fill="none" stroke="#63b8ff" d="M906.16,-389.49C881.86,-390.21 855.52,-391 835.89,-391.59"/>
<polygon fill="#63b8ff" stroke="#63b8ff" points="906.54,-392.98 916.43,-389.18 906.33,-385.98 906.54,-392.98"/>
</a>
</g>
</g>
</g>
</svg>
