<?xml version="1.0" encoding="UTF-8" standalone="no"?>
<!DOCTYPE svg PUBLIC "-//W3C//DTD SVG 1.1//EN"
 "http://www.w3.org/Graphics/SVG/1.1/DTD/svg11.dtd">
<!-- Generated by graphviz version 2.43.0 (0)
 -->
<!-- Title: SIZE Pages: 1 -->
<svg width="952pt" height="151pt"
 viewBox="0.00 0.00 952.00 151.00" xmlns="http://www.w3.org/2000/svg" xmlns:xlink="http://www.w3.org/1999/xlink">
<g id="graph0" class="graph" transform="scale(1 1) rotate(0) translate(4 147)">
<title>SIZE</title>
<!-- Node1 -->
<g id="Node000001" class="node">
<title>Node1</title>
<g id="a_Node000001"><a xlink:title=" ">
<polygon fill="#999999" stroke="#666666" points="944,-83 906,-83 906,-64 944,-64 944,-83"/>
<text text-anchor="middle" x="925" y="-71" font-family="Helvetica,sans-Serif" font-size="10.00">SIZE</text>
</a>
</g>
</g>
<!-- Node2 -->
<g id="Node000002" class="node">
<title>Node2</title>
<g id="a_Node000002"><a xlink:href="muscle__activation_8c.html#a93dfc79086ad3d8e7eb4a92d7c64565d" target="_top" xlink:title=" ">
<polygon fill="white" stroke="#666666" points="870,-142 742,-142 742,-123 870,-123 870,-142"/>
<text text-anchor="middle" x="806" y="-130" font-family="Helvetica,sans-Serif" font-size="10.00">CompInitCovBasisVecs</text>
</a>
</g>
</g>
<!-- Node1&#45;&gt;Node2 -->
<g id="edge1_Node000001_Node000002" class="edge">
<title>Node1&#45;&gt;Node2</title>
<g id="a_edge1_Node000001_Node000002"><a xlink:title=" ">
<path fill="none" stroke="#63b8ff" d="M906.01,-89.87C896.01,-98.24 882.99,-108 870,-114.5 863.39,-117.81 856.07,-120.6 848.84,-122.92"/>
<polygon fill="#63b8ff" stroke="#63b8ff" points="908.36,-92.46 913.63,-83.27 903.78,-87.17 908.36,-92.46"/>
</a>
</g>
</g>
<!-- Node4 -->
<g id="Node000004" class="node">
<title>Node4</title>
<g id="a_Node000004"><a xlink:href="active__strain_8c.html#a8ffbd5ab9cf4de7388a8a1b66bf48821" target="_top" xlink:title=" ">
<polygon fill="white" stroke="#666666" points="864,-105 748,-105 748,-86 864,-86 864,-105"/>
<text text-anchor="middle" x="806" y="-93" font-family="Helvetica,sans-Serif" font-size="10.00">Compute_a3_alpha_</text>
</a>
</g>
</g>
<!-- Node1&#45;&gt;Node4 -->
<g id="edge3_Node000001_Node000004" class="edge">
<title>Node1&#45;&gt;Node4</title>
<g id="a_edge3_Node000001_Node000004"><a xlink:title=" ">
<path fill="none" stroke="#63b8ff" d="M896.09,-78.75C884.58,-80.91 870.85,-83.49 857.67,-85.97"/>
<polygon fill="#63b8ff" stroke="#63b8ff" points="896.79,-82.18 905.98,-76.89 895.5,-75.3 896.79,-82.18"/>
</a>
</g>
</g>
<!-- Node13 -->
<g id="Node000013" class="node">
<title>Node13</title>
<g id="a_Node000013"><a xlink:href="muscle__activation_8c.html#a19d89612f2544ef7f352badd7cf1f337" target="_top" xlink:title=" ">
<polygon fill="white" stroke="#666666" points="868.5,-67.5 743.5,-67.5 743.5,-37.5 868.5,-37.5 868.5,-67.5"/>
<text text-anchor="start" x="751.5" y="-55.5" font-family="Helvetica,sans-Serif" font-size="10.00">compute_mid_surface</text>
<text text-anchor="middle" x="806" y="-44.5" font-family="Helvetica,sans-Serif" font-size="10.00">_el_stress_after_act</text>
</a>
</g>
</g>
<!-- Node1&#45;&gt;Node13 -->
<g id="edge14_Node000001_Node000013" class="edge">
<title>Node1&#45;&gt;Node13</title>
<g id="a_edge14_Node000001_Node000013"><a xlink:title=" ">
<path fill="none" stroke="#63b8ff" d="M896.13,-68.5C887.8,-67 878.33,-65.3 868.73,-63.58"/>
<polygon fill="#63b8ff" stroke="#63b8ff" points="895.51,-71.94 905.98,-70.26 896.75,-65.05 895.51,-71.94"/>
</a>
</g>
</g>
<!-- Node16 -->
<g id="Node000016" class="node">
<title>Node16</title>
<g id="a_Node000016"><a xlink:href="muscle__activation_8c.html#a357b3bb1950e461f37dc728929d29486" target="_top" xlink:title=" ">
<polygon fill="white" stroke="#666666" points="687,-19 589,-19 589,0 687,0 687,-19"/>
<text text-anchor="middle" x="638" y="-7" font-family="Helvetica,sans-Serif" font-size="10.00">FInternalAftActEl</text>
</a>
</g>
</g>
<!-- Node1&#45;&gt;Node16 -->
<g id="edge17_Node000001_Node000016" class="edge">
<title>Node1&#45;&gt;Node16</title>
<g id="a_edge17_Node000001_Node000016"><a xlink:title=" ">
<path fill="none" stroke="#63b8ff" d="M908.89,-56.48C898.92,-46.47 884.97,-34.63 870,-28.5 810.6,-4.19 735.55,-2.8 687.4,-5.2"/>
<polygon fill="#63b8ff" stroke="#63b8ff" points="906.55,-59.1 915.97,-63.96 911.64,-54.29 906.55,-59.1"/>
</a>
</g>
</g>
<!-- Node3 -->
<g id="Node000003" class="node">
<title>Node3</title>
<g id="a_Node000003"><a xlink:href="muscle__activation_8c.html#aad998374ae4f3ca2c8f14b4c4b2aaafd" target="_top" xlink:title=" ">
<polygon fill="white" stroke="#666666" points="699.5,-142 576.5,-142 576.5,-123 699.5,-123 699.5,-142"/>
<text text-anchor="middle" x="638" y="-130" font-family="Helvetica,sans-Serif" font-size="10.00">InitMuscleActProblem</text>
</a>
</g>
</g>
<!-- Node2&#45;&gt;Node3 -->
<g id="edge2_Node000002_Node000003" class="edge">
<title>Node2&#45;&gt;Node3</title>
<g id="a_edge2_Node000002_Node000003"><a xlink:title=" ">
<path fill="none" stroke="#63b8ff" d="M731.6,-132.5C720.91,-132.5 710,-132.5 699.59,-132.5"/>
<polygon fill="#63b8ff" stroke="#63b8ff" points="731.77,-136 741.77,-132.5 731.77,-129 731.77,-136"/>
</a>
</g>
</g>
<!-- Node5 -->
<g id="Node000005" class="node">
<title>Node5</title>
<g id="a_Node000005"><a xlink:href="active__strain_8c.html#a993ef27fda81bb402cba4aa14fa9b51a" target="_top" xlink:title="Build current covariant/contravariant basis vectors for one element.">
<polygon fill="white" stroke="#666666" points="680,-105 596,-105 596,-86 680,-86 680,-105"/>
<text text-anchor="middle" x="638" y="-93" font-family="Helvetica,sans-Serif" font-size="10.00">ElemUpdateG</text>
</a>
</g>
</g>
<!-- Node4&#45;&gt;Node5 -->
<g id="edge4_Node000004_Node000005" class="edge">
<title>Node4&#45;&gt;Node5</title>
<g id="a_edge4_Node000004_Node000005"><a xlink:title=" ">
<path fill="none" stroke="#63b8ff" d="M737.82,-95.5C718.33,-95.5 697.64,-95.5 680.25,-95.5"/>
<polygon fill="#63b8ff" stroke="#63b8ff" points="737.87,-99 747.87,-95.5 737.87,-92 737.87,-99"/>
</a>
</g>
</g>
<!-- Node6 -->
<g id="Node000006" class="node">
<title>Node6</title>
<g id="a_Node000006"><a xlink:href="active__strain_8c.html#a693fb698122674ff7df6dd47ac75167c" target="_top" xlink:title="Run per&#45;element precomputations before global internal&#45;force assembly.">
<polygon fill="white" stroke="#666666" points="520,-143 423,-143 423,-124 520,-124 520,-143"/>
<text text-anchor="middle" x="471.5" y="-131" font-family="Helvetica,sans-Serif" font-size="10.00">FInternalPreCalc</text>
</a>
</g>
</g>
<!-- Node5&#45;&gt;Node6 -->
<g id="edge5_Node000005_Node000006" class="edge">
<title>Node5&#45;&gt;Node6</title>
<g id="a_edge5_Node000005_Node000006"><a xlink:title=" ">
<path fill="none" stroke="#63b8ff" d="M585.88,-107.31C562.65,-112.68 535.52,-118.94 513.63,-124"/>
<polygon fill="#63b8ff" stroke="#63b8ff" points="586.96,-110.65 595.91,-104.99 585.38,-103.83 586.96,-110.65"/>
</a>
</g>
</g>
<!-- Node10 -->
<g id="Node000010" class="node">
<title>Node10</title>
<g id="a_Node000010"><a xlink:href="cuda__processes_8c.html#a627a27228923fbc3e63f0f4e1c5aa765" target="_top" xlink:title=" ">
<polygon fill="white" stroke="#666666" points="186,-105 77,-105 77,-86 186,-86 186,-105"/>
<text text-anchor="middle" x="131.5" y="-93" font-family="Helvetica,sans-Serif" font-size="10.00">RunCudaProcesses</text>
</a>
</g>
</g>
<!-- Node5&#45;&gt;Node10 -->
<g id="edge9_Node000005_Node000010" class="edge">
<title>Node5&#45;&gt;Node10</title>
<g id="a_edge9_Node000005_Node000010"><a xlink:title=" ">
<path fill="none" stroke="#63b8ff" d="M585.68,-95.5C489.75,-95.5 284.16,-95.5 186.35,-95.5"/>
<polygon fill="#63b8ff" stroke="#63b8ff" points="585.71,-99 595.71,-95.5 585.71,-92 585.71,-99"/>
</a>
</g>
</g>
<!-- Node11 -->
<g id="Node000011" class="node">
<title>Node11</title>
<g id="a_Node000011"><a xlink:href="dmplex__geom_8c.html#aa2b24de348fff4079de659ff63ba9b85" target="_top" xlink:title="Synchronise remote coordinates and evaluate the geometry kernel for all local cells.">
<polygon fill="white" stroke="#666666" points="529,-67 414,-67 414,-48 529,-48 529,-67"/>
<text text-anchor="middle" x="471.5" y="-55" font-family="Helvetica,sans-Serif" font-size="10.00">RunLocalGeometry_</text>
</a>
</g>
</g>
<!-- Node5&#45;&gt;Node11 -->
<g id="edge11_Node000005_Node000011" class="edge">
<title>Node5&#45;&gt;Node11</title>
<g id="a_edge11_Node000005_Node000011"><a xlink:title=" ">
<path fill="none" stroke="#63b8ff" d="M585.88,-83.69C562.65,-78.32 535.52,-72.06 513.63,-67"/>
<polygon fill="#63b8ff" stroke="#63b8ff" points="585.38,-87.17 595.91,-86.01 586.96,-80.35 585.38,-87.17"/>
</a>
</g>
</g>
<!-- Node7 -->
<g id="Node000007" class="node">
<title>Node7</title>
<g id="a_Node000007"><a xlink:href="active__strain_8c.html#a3bac899c10052c346d2afe9eccbac71d" target="_top" xlink:title="Assemble global internal force vector for active&#45;strain mechanics.">
<polygon fill="white" stroke="#666666" points="335.5,-143 259.5,-143 259.5,-124 335.5,-124 335.5,-143"/>
<text text-anchor="middle" x="297.5" y="-131" font-family="Helvetica,sans-Serif" font-size="10.00">FInternalAct</text>
</a>
</g>
</g>
<!-- Node6&#45;&gt;Node7 -->
<g id="edge6_Node000006_Node000007" class="edge">
<title>Node6&#45;&gt;Node7</title>
<g id="a_edge6_Node000006_Node000007"><a xlink:title=" ">
<path fill="none" stroke="#63b8ff" d="M412.33,-133.5C386.93,-133.5 357.91,-133.5 335.53,-133.5"/>
<polygon fill="#63b8ff" stroke="#63b8ff" points="412.59,-137 422.59,-133.5 412.59,-130 412.59,-137"/>
</a>
</g>
</g>
<!-- Node8 -->
<g id="Node000008" class="node">
<title>Node8</title>
<g id="a_Node000008"><a xlink:href="main_8c.html#a9a070a6f408cadb404b0ee7fbc74c576" target="_top" xlink:title=" ">
<polygon fill="white" stroke="#666666" points="183.5,-142 79.5,-142 79.5,-123 183.5,-123 183.5,-142"/>
<text text-anchor="middle" x="131.5" y="-130" font-family="Helvetica,sans-Serif" font-size="10.00">FormFunctionFEM</text>
</a>
</g>
</g>
<!-- Node7&#45;&gt;Node8 -->
<g id="edge7_Node000007_Node000008" class="edge">
<title>Node7&#45;&gt;Node8</title>
<g id="a_edge7_Node000007_Node000008"><a xlink:title=" ">
<path fill="none" stroke="#63b8ff" d="M249.2,-133.21C228.65,-133.09 204.52,-132.94 183.55,-132.81"/>
<polygon fill="#63b8ff" stroke="#63b8ff" points="249.26,-136.71 259.29,-133.27 249.31,-129.71 249.26,-136.71"/>
</a>
</g>
</g>
<!-- Node9 -->
<g id="Node000009" class="node">
<title>Node9</title>
<g id="a_Node000009"><a xlink:href="main_8c.html#a3c04138a5bfe5d72780bb7e82a18e627" target="_top" xlink:title=" ">
<polygon fill="white" stroke="#666666" points="41,-105 0,-105 0,-86 41,-86 41,-105"/>
<text text-anchor="middle" x="20.5" y="-93" font-family="Helvetica,sans-Serif" font-size="10.00">main</text>
</a>
</g>
</g>
<!-- Node8&#45;&gt;Node9 -->
<g id="edge8_Node000008_Node000009" class="edge">
<title>Node8&#45;&gt;Node9</title>
<g id="a_edge8_Node000008_Node000009"><a xlink:title=" ">
<path fill="none" stroke="#63b8ff" d="M92.39,-119.7C87.22,-117.96 81.98,-116.19 77,-114.5 65.04,-110.44 51.65,-105.86 41.01,-102.21"/>
<polygon fill="#63b8ff" stroke="#63b8ff" points="91.58,-123.12 102.17,-123 93.81,-116.49 91.58,-123.12"/>
</a>
</g>
</g>
<!-- Node10&#45;&gt;Node9 -->
<g id="edge10_Node000010_Node000009" class="edge">
<title>Node10&#45;&gt;Node9</title>
<g id="a_edge10_Node000010_Node000009"><a xlink:title=" ">
<path fill="none" stroke="#63b8ff" d="M66.79,-95.5C57.49,-95.5 48.57,-95.5 41.14,-95.5"/>
<polygon fill="#63b8ff" stroke="#63b8ff" points="66.96,-99 76.96,-95.5 66.96,-92 66.96,-99"/>
</a>
</g>
</g>
<!-- Node12 -->
<g id="Node000012" class="node">
<title>Node12</title>
<g id="a_Node000012"><a xlink:href="dmplex__geom_8c.html#ac4ecb4d172bee5f7c59a9fdf2680bb51" target="_top" xlink:title="Benchmark: run the full distributed DMPlex geometry pipeline for all bodies.">
<polygon fill="white" stroke="#666666" points="373,-67 222,-67 222,-48 373,-48 373,-67"/>
<text text-anchor="middle" x="297.5" y="-55" font-family="Helvetica,sans-Serif" font-size="10.00">RunDMPlexGeomProcesses</text>
</a>
</g>
</g>
<!-- Node11&#45;&gt;Node12 -->
<g id="edge12_Node000011_Node000012" class="edge">
<title>Node11&#45;&gt;Node12</title>
<g id="a_edge12_Node000011_Node000012"><a xlink:title=" ">
<path fill="none" stroke="#63b8ff" d="M403.46,-57.5C393.48,-57.5 383.15,-57.5 373.03,-57.5"/>
<polygon fill="#63b8ff" stroke="#63b8ff" points="403.7,-61 413.7,-57.5 403.7,-54 403.7,-61"/>
</a>
</g>
</g>
<!-- Node12&#45;&gt;Node9 -->
<g id="edge13_Node000012_Node000009" class="edge">
<title>Node12&#45;&gt;Node9</title>
<g id="a_edge13_Node000012_Node000009"><a xlink:title=" ">
<path fill="none" stroke="#63b8ff" d="M211.75,-60.81C170.74,-63.53 120.97,-68.48 77,-77.5 64.89,-79.98 51.72,-84.19 41.25,-87.91"/>
<polygon fill="#63b8ff" stroke="#63b8ff" points="212.22,-64.29 221.98,-60.17 211.78,-57.3 212.22,-64.29"/>
</a>
</g>
</g>
<!-- Node14 -->
<g id="Node000014" class="node">
<title>Node14</title>
<g id="a_Node000014"><a xlink:href="muscle__activation_8c.html#a3f9fadbc31e4872a8519e6bfdecf7b8f" target="_top" xlink:title=" ">
<polygon fill="white" stroke="#666666" points="706,-67.5 570,-67.5 570,-37.5 706,-37.5 706,-67.5"/>
<text text-anchor="start" x="578" y="-55.5" font-family="Helvetica,sans-Serif" font-size="10.00">update_mid_surf_elastic</text>
<text text-anchor="middle" x="638" y="-44.5" font-family="Helvetica,sans-Serif" font-size="10.00">_stress</text>
</a>
</g>
</g>
<!-- Node13&#45;&gt;Node14 -->
<g id="edge15_Node000013_Node000014" class="edge">
<title>Node13&#45;&gt;Node14</title>
<g id="a_edge15_Node000013_Node000014"><a xlink:title=" ">
<path fill="none" stroke="#63b8ff" d="M733.16,-52.5C724.19,-52.5 715.05,-52.5 706.16,-52.5"/>
<polygon fill="#63b8ff" stroke="#63b8ff" points="733.19,-56 743.19,-52.5 733.19,-49 733.19,-56"/>
</a>
</g>
</g>
<!-- Node15 -->
<g id="Node000015" class="node">
<title>Node15</title>
<g id="a_Node000015"><a xlink:href="muscle__activation_8c.html#a5794b91b41d38582fd698b653b53330e" target="_top" xlink:title=" ">
<polygon fill="white" stroke="#666666" points="534,-25 409,-25 409,-6 534,-6 534,-25"/>
<text text-anchor="middle" x="471.5" y="-13" font-family="Helvetica,sans-Serif" font-size="10.00">UpdateFInternalAftAct</text>
</a>
</g>
</g>
<!-- Node14&#45;&gt;Node15 -->
<g id="edge16_Node000014_Node000015" class="edge">
<title>Node14&#45;&gt;Node15</title>
<g id="a_edge16_Node000014_Node000015"><a xlink:title=" ">
<path fill="none" stroke="#63b8ff" d="M559.94,-35.17C544.4,-31.67 528.61,-28.12 514.81,-25.02"/>
<polygon fill="#63b8ff" stroke="#63b8ff" points="559.57,-38.67 570.09,-37.45 561.1,-31.84 559.57,-38.67"/>
</a>
</g>
</g>
<!-- Node16&#45;&gt;Node15 -->
<g id="edge18_Node000016_Node000015" class="edge">
<title>Node16&#45;&gt;Node15</title>
<g id="a_edge18_Node000016_Node000015"><a xlink:title=" ">
<path fill="none" stroke="#63b8ff" d="M578.67,-11.63C564.22,-12.15 548.68,-12.72 534.08,-13.25"/>
<polygon fill="#63b8ff" stroke="#63b8ff" points="579.11,-15.11 588.98,-11.25 578.86,-8.12 579.11,-15.11"/>
</a>
</g>
</g>
</g>
</svg>
