<?xml version="1.0" encoding="UTF-8" standalone="no"?>
<!DOCTYPE svg PUBLIC "-//W3C//DTD SVG 1.1//EN"
 "http://www.w3.org/Graphics/SVG/1.1/DTD/svg11.dtd">
<!-- Generated by graphviz version 2.43.0 (0)
 -->
<!-- Title: INV Pages: 1 -->
<!--zoomable 267 -->

<svg id="main" version="1.1" xmlns="http://www.w3.org/2000/svg" xmlns:xlink="http://www.w3.org/1999/xlink" xml:space="preserve" onload="init(evt)">
<style type="text/css"><![CDATA[
.node, .edge {opacity: 0.7;}
.node.selected, .edge.selected {opacity: 1;}
.edge:hover path { stroke: red; }
.edge:hover polygon { stroke: red; fill: red; }
]]></style>

<defs>
  <circle id="rim" cx="0" cy="0" r="7"/>
  <circle id="rim2" cx="0" cy="0" r="3.5"/>
  <g id="zoomPlus">
    <use xlink:href="#rim" fill="#404040"><set attributeName="fill" to="#808080" begin="zoomplus.mouseover" end="zoomplus.mouseout"/></use>
    <path d="M-4,0h8M0,-4v8" fill="none" stroke="white" stroke-width="1.5" pointer-events="none"/>
  </g>
  <g id="zoomMin">
    <use xlink:href="#rim" fill="#404040"><set attributeName="fill" to="#808080" begin="zoomminus.mouseover" end="zoomminus.mouseout"/></use>
    <path d="M-4,0h8" fill="none" stroke="white" stroke-width="1.5" pointer-events="none"/>
  </g>
  <g id="arrowUp" transform="translate(30 24)">
    <use xlink:href="#rim"/>
    <path pointer-events="none" fill="none" stroke="white" stroke-width="1.5" d="M0,-3.0v7 M-2.5,-0.5L0,-3.0L2.5,-0.5"/>
  </g>
  <g id="arrowRight" transform="rotate(90) translate(36 -43)">
    <use xlink:href="#rim"/>
    <path pointer-events="none" fill="none" stroke="white" stroke-width="1.5" d="M0,-3.0v7 M-2.5,-0.5L0,-3.0L2.5,-0.5"/>
  </g>
  <g id="arrowDown" transform="rotate(180) translate(-30 -48)">
    <use xlink:href="#rim"/>
    <path pointer-events="none" fill="none" stroke="white" stroke-width="1.5" d="M0,-3.0v7 M-2.5,-0.5L0,-3.0L2.5,-0.5"/>
  </g>
  <g id="arrowLeft" transform="rotate(270) translate(-36 17)">
    <use xlink:href="#rim"/>
    <path pointer-events="none" fill="none" stroke="white" stroke-width="1.5" d="M0,-3.0v7 M-2.5,-0.5L0,-3.0L2.5,-0.5"/>
  </g>
  <g id="resetDef">
    <use xlink:href="#rim2" fill="#404040"><set attributeName="fill" to="#808080" begin="reset.mouseover" end="reset.mouseout"/></use>
  </g>
</defs>
<script type="application/ecmascript">
var viewWidth = 959;
var viewHeight = 267;
var sectionId = 'dynsection-8';
</script>
<script type="application/ecmascript" xlink:href="svg.min.js"/>
<svg id="graph" class="graph">
<g id="viewport">
<title>INV</title>
<!-- Node1 -->
<g id="Node000001" class="node">
<title>Node1</title>
<g id="a_Node000001"><a xlink:title=" ">
<polygon fill="#999999" stroke="#666666" points="951,-148 917,-148 917,-129 951,-129 951,-148"/>
<text text-anchor="middle" x="934" y="-136" font-family="Helvetica,sans-Serif" font-size="10.00">INV</text>
</a>
</g>
</g>
<!-- Node2 -->
<g id="Node000002" class="node">
<title>Node2</title>
<g id="a_Node000002"><a xlink:href="muscle__activation_8c.html#a13c6cf542d26fb36178553818485eda9" target="_top" xlink:title=" ">
<polygon fill="white" stroke="#666666" points="874.5,-259 746.5,-259 746.5,-240 874.5,-240 874.5,-259"/>
<text text-anchor="middle" x="810.5" y="-247" font-family="Helvetica,sans-Serif" font-size="10.00">cal_total_stress_act_el</text>
</a>
</g>
</g>
<!-- Node1&#45;&gt;Node2 -->
<g id="edge1_Node000001_Node000002" class="edge">
<title>Node1&#45;&gt;Node2</title>
<g id="a_edge1_Node000001_Node000002"><a xlink:title=" ">
<path fill="none" stroke="#63b8ff" d="M927.36,-157.63C920.1,-178.88 905.43,-212.65 881,-231.5 876.56,-234.93 871.53,-237.7 866.26,-239.96"/>
<polygon fill="#63b8ff" stroke="#63b8ff" points="930.7,-158.66 930.41,-148.07 924.04,-156.53 930.7,-158.66"/>
</a>
</g>
</g>
<!-- Node5 -->
<g id="Node000005" class="node">
<title>Node5</title>
<g id="a_Node000005"><a xlink:href="muscle__activation_8c.html#a5bcab0a432f4401f206e0366535f005e" target="_top" xlink:title="High&#45;Level Procedure for Muscle Activation Update.">
<polygon fill="white" stroke="#666666" points="881,-222 740,-222 740,-203 881,-203 881,-222"/>
<text text-anchor="middle" x="810.5" y="-210" font-family="Helvetica,sans-Serif" font-size="10.00">compute_act_Fa_element</text>
</a>
</g>
</g>
<!-- Node1&#45;&gt;Node5 -->
<g id="edge4_Node000001_Node000005" class="edge">
<title>Node1&#45;&gt;Node5</title>
<g id="a_edge4_Node000001_Node000005"><a xlink:title=" ">
<path fill="none" stroke="#63b8ff" d="M920.47,-156.71C911.01,-169.12 896.95,-184.98 881,-194.5 875.33,-197.88 869.02,-200.64 862.6,-202.88"/>
<polygon fill="#63b8ff" stroke="#63b8ff" points="923.46,-158.56 926.51,-148.42 917.8,-154.44 923.46,-158.56"/>
</a>
</g>
</g>
<!-- Node8 -->
<g id="Node000008" class="node">
<title>Node8</title>
<g id="a_Node000008"><a xlink:href="muscle__activation_8c.html#a4c5d08ae67f23baed5c8a45656a64f84" target="_top" xlink:title=" ">
<polygon fill="white" stroke="#666666" points="861,-185 760,-185 760,-166 861,-166 861,-185"/>
<text text-anchor="middle" x="810.5" y="-173" font-family="Helvetica,sans-Serif" font-size="10.00">compute_Fbar_el</text>
</a>
</g>
</g>
<!-- Node1&#45;&gt;Node8 -->
<g id="edge7_Node000001_Node000008" class="edge">
<title>Node1&#45;&gt;Node8</title>
<g id="a_edge7_Node000001_Node000008"><a xlink:title=" ">
<path fill="none" stroke="#63b8ff" d="M907.21,-148.48C898.9,-151.55 889.61,-154.82 881,-157.5 871.36,-160.5 860.86,-163.41 851.02,-165.97"/>
<polygon fill="#63b8ff" stroke="#63b8ff" points="908.61,-151.69 916.74,-144.9 906.15,-145.14 908.61,-151.69"/>
</a>
</g>
</g>
<!-- Node10 -->
<g id="Node000010" class="node">
<title>Node10</title>
<g id="a_Node000010"><a xlink:href="active__strain_8c.html#ade5fbd2ac288952d9b05edaa3cfab167" target="_top" xlink:title="Compute active deformation gradient for one element.">
<polygon fill="white" stroke="#666666" points="859.5,-148 761.5,-148 761.5,-129 859.5,-129 859.5,-148"/>
<text text-anchor="middle" x="810.5" y="-136" font-family="Helvetica,sans-Serif" font-size="10.00">ElemActDefGrad</text>
</a>
</g>
</g>
<!-- Node1&#45;&gt;Node10 -->
<g id="edge10_Node000001_Node000010" class="edge">
<title>Node1&#45;&gt;Node10</title>
<g id="a_edge10_Node000001_Node000010"><a xlink:title=" ">
<path fill="none" stroke="#63b8ff" d="M906.7,-138.5C892.98,-138.5 875.76,-138.5 859.74,-138.5"/>
<polygon fill="#63b8ff" stroke="#63b8ff" points="906.87,-142 916.87,-138.5 906.87,-135 906.87,-142"/>
</a>
</g>
</g>
<!-- Node15 -->
<g id="Node000015" class="node">
<title>Node15</title>
<g id="a_Node000015"><a xlink:href="active__strain_8c.html#a3017cdcf59a9d394ac18948cec6e94cf" target="_top" xlink:title="Solve local thickness equation (C33) for one element.">
<polygon fill="white" stroke="#666666" points="680.5,-95 593.5,-95 593.5,-76 680.5,-76 680.5,-95"/>
<text text-anchor="middle" x="637" y="-83" font-family="Helvetica,sans-Serif" font-size="10.00">ElemC33Solve</text>
</a>
</g>
</g>
<!-- Node1&#45;&gt;Node15 -->
<g id="edge15_Node000001_Node000015" class="edge">
<title>Node1&#45;&gt;Node15</title>
<g id="a_edge15_Node000001_Node000015"><a xlink:title=" ">
<path fill="none" stroke="#63b8ff" d="M907.33,-128.53C899.02,-125.6 889.71,-122.61 881,-120.5 811.83,-103.71 729.5,-93.93 680.61,-89.16"/>
<polygon fill="#63b8ff" stroke="#63b8ff" points="906.25,-131.86 916.84,-132.02 908.66,-125.29 906.25,-131.86"/>
</a>
</g>
</g>
<!-- Node16 -->
<g id="Node000016" class="node">
<title>Node16</title>
<g id="a_Node000016"><a xlink:href="active__strain_8c.html#adca02351c999668546fc922e1806d090" target="_top" xlink:title="Compute elastic right Cauchy&#45;Green tensor for one element.">
<polygon fill="white" stroke="#666666" points="868,-72 753,-72 753,-53 868,-53 868,-72"/>
<text text-anchor="middle" x="810.5" y="-60" font-family="Helvetica,sans-Serif" font-size="10.00">ElemElasCGDefTens</text>
</a>
</g>
</g>
<!-- Node1&#45;&gt;Node16 -->
<g id="edge17_Node000001_Node000016" class="edge">
<title>Node1&#45;&gt;Node16</title>
<g id="a_edge17_Node000001_Node000016"><a xlink:title=" ">
<path fill="none" stroke="#63b8ff" d="M919.02,-120.87C909.37,-109.7 895.66,-95.67 881,-86.5 871.26,-80.41 859.78,-75.63 848.98,-72"/>
<polygon fill="#63b8ff" stroke="#63b8ff" points="916.48,-123.29 925.57,-128.73 921.86,-118.81 916.48,-123.29"/>
</a>
</g>
</g>
<!-- Node17 -->
<g id="Node000017" class="node">
<title>Node17</title>
<g id="a_Node000017"><a xlink:href="active__strain_8c.html#a993ef27fda81bb402cba4aa14fa9b51a" target="_top" xlink:title="Build current covariant/contravariant basis vectors for one element.">
<polygon fill="white" stroke="#666666" points="679,-52 595,-52 595,-33 679,-33 679,-52"/>
<text text-anchor="middle" x="637" y="-40" font-family="Helvetica,sans-Serif" font-size="10.00">ElemUpdateG</text>
</a>
</g>
</g>
<!-- Node1&#45;&gt;Node17 -->
<g id="edge19_Node000001_Node000017" class="edge">
<title>Node1&#45;&gt;Node17</title>
<g id="a_edge19_Node000001_Node000017"><a xlink:title=" ">
<path fill="none" stroke="#63b8ff" d="M928.56,-118.79C922.27,-96.08 908.35,-59.78 881,-43.5 814.85,-4.11 719.52,-20.37 670.23,-32.96"/>
<polygon fill="#63b8ff" stroke="#63b8ff" points="925.22,-119.87 931.06,-128.71 932.01,-118.16 925.22,-119.87"/>
</a>
</g>
</g>
<!-- Node3 -->
<g id="Node000003" class="node">
<title>Node3</title>
<g id="a_Node000003"><a xlink:href="muscle__activation_8c.html#ac3ca4cc4ba5200069bc54f7f7b131b46" target="_top" xlink:title=" ">
<polygon fill="white" stroke="#666666" points="704,-259 570,-259 570,-240 704,-240 704,-259"/>
<text text-anchor="middle" x="637" y="-247" font-family="Helvetica,sans-Serif" font-size="10.00">UpdateTotalStressAftAct</text>
</a>
</g>
</g>
<!-- Node2&#45;&gt;Node3 -->
<g id="edge2_Node000002_Node000003" class="edge">
<title>Node2&#45;&gt;Node3</title>
<g id="a_edge2_Node000002_Node000003"><a xlink:title=" ">
<path fill="none" stroke="#63b8ff" d="M736.09,-249.5C725.52,-249.5 714.69,-249.5 704.27,-249.5"/>
<polygon fill="#63b8ff" stroke="#63b8ff" points="736.13,-253 746.13,-249.5 736.13,-246 736.13,-253"/>
</a>
</g>
</g>
<!-- Node4 -->
<g id="Node000004" class="node">
<title>Node4</title>
<g id="a_Node000004"><a xlink:href="muscle__activation_8c.html#a5794b91b41d38582fd698b653b53330e" target="_top" xlink:title=" ">
<polygon fill="white" stroke="#666666" points="534,-259 409,-259 409,-240 534,-240 534,-259"/>
<text text-anchor="middle" x="471.5" y="-247" font-family="Helvetica,sans-Serif" font-size="10.00">UpdateFInternalAftAct</text>
</a>
</g>
</g>
<!-- Node3&#45;&gt;Node4 -->
<g id="edge3_Node000003_Node000004" class="edge">
<title>Node3&#45;&gt;Node4</title>
<g id="a_edge3_Node000003_Node000004"><a xlink:title=" ">
<path fill="none" stroke="#63b8ff" d="M559.86,-249.5C551.2,-249.5 542.46,-249.5 534.02,-249.5"/>
<polygon fill="#63b8ff" stroke="#63b8ff" points="559.97,-253 569.97,-249.5 559.97,-246 559.97,-253"/>
</a>
</g>
</g>
<!-- Node6 -->
<g id="Node000006" class="node">
<title>Node6</title>
<g id="a_Node000006"><a xlink:href="muscle__activation_8c.html#a0dda352c79a3d0150ff314d8c63e0054" target="_top" xlink:title="Updates all active Fa values for each element.">
<polygon fill="white" stroke="#666666" points="680,-222 594,-222 594,-203 680,-203 680,-222"/>
<text text-anchor="middle" x="637" y="-210" font-family="Helvetica,sans-Serif" font-size="10.00">update_act_Fa</text>
</a>
</g>
</g>
<!-- Node5&#45;&gt;Node6 -->
<g id="edge5_Node000005_Node000006" class="edge">
<title>Node5&#45;&gt;Node6</title>
<g id="a_edge5_Node000005_Node000006"><a xlink:title=" ">
<path fill="none" stroke="#63b8ff" d="M729.72,-212.5C712.58,-212.5 695.13,-212.5 680.12,-212.5"/>
<polygon fill="#63b8ff" stroke="#63b8ff" points="729.74,-216 739.74,-212.5 729.74,-209 729.74,-216"/>
</a>
</g>
</g>
<!-- Node7 -->
<g id="Node000007" class="node">
<title>Node7</title>
<g id="a_Node000007"><a xlink:href="muscle__activation_8c.html#aad998374ae4f3ca2c8f14b4c4b2aaafd" target="_top" xlink:title=" ">
<polygon fill="white" stroke="#666666" points="533,-203 410,-203 410,-184 533,-184 533,-203"/>
<text text-anchor="middle" x="471.5" y="-191" font-family="Helvetica,sans-Serif" font-size="10.00">InitMuscleActProblem</text>
</a>
</g>
</g>
<!-- Node6&#45;&gt;Node7 -->
<g id="edge6_Node000006_Node000007" class="edge">
<title>Node6&#45;&gt;Node7</title>
<g id="a_edge6_Node000006_Node000007"><a xlink:title=" ">
<path fill="none" stroke="#63b8ff" d="M583.64,-206.41C567.6,-204.55 549.81,-202.48 533.26,-200.56"/>
<polygon fill="#63b8ff" stroke="#63b8ff" points="583.56,-209.93 593.89,-207.61 584.37,-202.98 583.56,-209.93"/>
</a>
</g>
</g>
<!-- Node9 -->
<g id="Node000009" class="node">
<title>Node9</title>
<g id="a_Node000009"><a xlink:href="muscle__activation_8c.html#ac332e445f79d1bdc2c6cd1e00514021e" target="_top" xlink:title=" ">
<polygon fill="white" stroke="#666666" points="674,-185 600,-185 600,-166 674,-166 674,-185"/>
<text text-anchor="middle" x="637" y="-173" font-family="Helvetica,sans-Serif" font-size="10.00">UpdateFbar</text>
</a>
</g>
</g>
<!-- Node8&#45;&gt;Node9 -->
<g id="edge8_Node000008_Node000009" class="edge">
<title>Node8&#45;&gt;Node9</title>
<g id="a_edge8_Node000008_Node000009"><a xlink:title=" ">
<path fill="none" stroke="#63b8ff" d="M749.7,-175.5C724.52,-175.5 696.04,-175.5 674.15,-175.5"/>
<polygon fill="#63b8ff" stroke="#63b8ff" points="749.9,-179 759.9,-175.5 749.9,-172 749.9,-179"/>
</a>
</g>
</g>
<!-- Node9&#45;&gt;Node7 -->
<g id="edge9_Node000009_Node000007" class="edge">
<title>Node9&#45;&gt;Node7</title>
<g id="a_edge9_Node000009_Node000007"><a xlink:title=" ">
<path fill="none" stroke="#63b8ff" d="M589.7,-180.6C572.11,-182.53 551.81,-184.77 533.09,-186.83"/>
<polygon fill="#63b8ff" stroke="#63b8ff" points="590.16,-184.07 599.71,-179.49 589.39,-177.11 590.16,-184.07"/>
</a>
</g>
</g>
<!-- Node11 -->
<g id="Node000011" class="node">
<title>Node11</title>
<g id="a_Node000011"><a xlink:href="active__strain_8c.html#a693fb698122674ff7df6dd47ac75167c" target="_top" xlink:title="Run per&#45;element precomputations before global internal&#45;force assembly.">
<polygon fill="white" stroke="#666666" points="520,-95 423,-95 423,-76 520,-76 520,-95"/>
<text text-anchor="middle" x="471.5" y="-83" font-family="Helvetica,sans-Serif" font-size="10.00">FInternalPreCalc</text>
</a>
</g>
</g>
<!-- Node10&#45;&gt;Node11 -->
<g id="edge11_Node000010_Node000011" class="edge">
<title>Node10&#45;&gt;Node11</title>
<g id="a_edge11_Node000010_Node000011"><a xlink:title=" ">
<path fill="none" stroke="#63b8ff" d="M751.21,-131.08C702.63,-124.69 631.67,-114.88 570,-104.5 553.33,-101.7 535.14,-98.25 519.03,-95.07"/>
<polygon fill="#63b8ff" stroke="#63b8ff" points="750.85,-134.56 761.22,-132.39 751.76,-127.62 750.85,-134.56"/>
</a>
</g>
</g>
<!-- Node12 -->
<g id="Node000012" class="node">
<title>Node12</title>
<g id="a_Node000012"><a xlink:href="active__strain_8c.html#a3bac899c10052c346d2afe9eccbac71d" target="_top" xlink:title="Assemble global internal force vector for active&#45;strain mechanics.">
<polygon fill="white" stroke="#666666" points="335.5,-95 259.5,-95 259.5,-76 335.5,-76 335.5,-95"/>
<text text-anchor="middle" x="297.5" y="-83" font-family="Helvetica,sans-Serif" font-size="10.00">FInternalAct</text>
</a>
</g>
</g>
<!-- Node11&#45;&gt;Node12 -->
<g id="edge12_Node000011_Node000012" class="edge">
<title>Node11&#45;&gt;Node12</title>
<g id="a_edge12_Node000011_Node000012"><a xlink:title=" ">
<path fill="none" stroke="#63b8ff" d="M412.33,-85.5C386.93,-85.5 357.91,-85.5 335.53,-85.5"/>
<polygon fill="#63b8ff" stroke="#63b8ff" points="412.59,-89 422.59,-85.5 412.59,-82 412.59,-89"/>
</a>
</g>
</g>
<!-- Node13 -->
<g id="Node000013" class="node">
<title>Node13</title>
<g id="a_Node000013"><a xlink:href="main_8c.html#a9a070a6f408cadb404b0ee7fbc74c576" target="_top" xlink:title=" ">
<polygon fill="white" stroke="#666666" points="183.5,-94 79.5,-94 79.5,-75 183.5,-75 183.5,-94"/>
<text text-anchor="middle" x="131.5" y="-82" font-family="Helvetica,sans-Serif" font-size="10.00">FormFunctionFEM</text>
</a>
</g>
</g>
<!-- Node12&#45;&gt;Node13 -->
<g id="edge13_Node000012_Node000013" class="edge">
<title>Node12&#45;&gt;Node13</title>
<g id="a_edge13_Node000012_Node000013"><a xlink:title=" ">
<path fill="none" stroke="#63b8ff" d="M249.2,-85.21C228.65,-85.09 204.52,-84.94 183.55,-84.81"/>
<polygon fill="#63b8ff" stroke="#63b8ff" points="249.26,-88.71 259.29,-85.27 249.31,-81.71 249.26,-88.71"/>
</a>
</g>
</g>
<!-- Node14 -->
<g id="Node000014" class="node">
<title>Node14</title>
<g id="a_Node000014"><a xlink:href="main_8c.html#a3c04138a5bfe5d72780bb7e82a18e627" target="_top" xlink:title=" ">
<polygon fill="white" stroke="#666666" points="41,-57 0,-57 0,-38 41,-38 41,-57"/>
<text text-anchor="middle" x="20.5" y="-45" font-family="Helvetica,sans-Serif" font-size="10.00">main</text>
</a>
</g>
</g>
<!-- Node13&#45;&gt;Node14 -->
<g id="edge14_Node000013_Node000014" class="edge">
<title>Node13&#45;&gt;Node14</title>
<g id="a_edge14_Node000013_Node000014"><a xlink:title=" ">
<path fill="none" stroke="#63b8ff" d="M92.39,-71.7C87.22,-69.96 81.98,-68.19 77,-66.5 65.04,-62.44 51.65,-57.86 41.01,-54.21"/>
<polygon fill="#63b8ff" stroke="#63b8ff" points="91.58,-75.12 102.17,-75 93.81,-68.49 91.58,-75.12"/>
</a>
</g>
</g>
<!-- Node15&#45;&gt;Node11 -->
<g id="edge16_Node000015_Node000011" class="edge">
<title>Node15&#45;&gt;Node11</title>
<g id="a_edge16_Node000015_Node000011"><a xlink:title=" ">
<path fill="none" stroke="#63b8ff" d="M583.41,-85.5C563.03,-85.5 539.87,-85.5 520.01,-85.5"/>
<polygon fill="#63b8ff" stroke="#63b8ff" points="583.47,-89 593.47,-85.5 583.47,-82 583.47,-89"/>
</a>
</g>
</g>
<!-- Node16&#45;&gt;Node15 -->
<g id="edge18_Node000016_Node000015" class="edge">
<title>Node16&#45;&gt;Node15</title>
<g id="a_edge18_Node000016_Node000015"><a xlink:title=" ">
<path fill="none" stroke="#63b8ff" d="M742.78,-71.45C721.91,-74.25 699.46,-77.26 680.71,-79.77"/>
<polygon fill="#63b8ff" stroke="#63b8ff" points="743.42,-74.89 752.87,-70.09 742.49,-67.96 743.42,-74.89"/>
</a>
</g>
</g>
<!-- Node17&#45;&gt;Node11 -->
<g id="edge20_Node000017_Node000011" class="edge">
<title>Node17&#45;&gt;Node11</title>
<g id="a_edge20_Node000017_Node000011"><a xlink:title=" ">
<path fill="none" stroke="#63b8ff" d="M589.82,-54.65C564.11,-61.41 532.58,-69.7 508.68,-75.98"/>
<polygon fill="#63b8ff" stroke="#63b8ff" points="590.93,-57.97 599.71,-52.04 589.15,-51.2 590.93,-57.97"/>
</a>
</g>
</g>
<!-- Node18 -->
<g id="Node000018" class="node">
<title>Node18</title>
<g id="a_Node000018"><a xlink:href="cuda__processes_8c.html#a627a27228923fbc3e63f0f4e1c5aa765" target="_top" xlink:title=" ">
<polygon fill="white" stroke="#666666" points="186,-57 77,-57 77,-38 186,-38 186,-57"/>
<text text-anchor="middle" x="131.5" y="-45" font-family="Helvetica,sans-Serif" font-size="10.00">RunCudaProcesses</text>
</a>
</g>
</g>
<!-- Node17&#45;&gt;Node18 -->
<g id="edge21_Node000017_Node000018" class="edge">
<title>Node17&#45;&gt;Node18</title>
<g id="a_edge21_Node000017_Node000018"><a xlink:title=" ">
<path fill="none" stroke="#63b8ff" d="M584.78,-43.01C489.04,-43.96 283.86,-46 186.24,-46.97"/>
<polygon fill="#63b8ff" stroke="#63b8ff" points="584.83,-46.51 594.8,-42.91 584.76,-39.51 584.83,-46.51"/>
</a>
</g>
</g>
<!-- Node19 -->
<g id="Node000019" class="node">
<title>Node19</title>
<g id="a_Node000019"><a xlink:href="dmplex__geom_8c.html#aa2b24de348fff4079de659ff63ba9b85" target="_top" xlink:title="Synchronise remote coordinates and evaluate the geometry kernel for all local cells.">
<polygon fill="white" stroke="#666666" points="529,-19 414,-19 414,0 529,0 529,-19"/>
<text text-anchor="middle" x="471.5" y="-7" font-family="Helvetica,sans-Serif" font-size="10.00">RunLocalGeometry_</text>
</a>
</g>
</g>
<!-- Node17&#45;&gt;Node19 -->
<g id="edge23_Node000017_Node000019" class="edge">
<title>Node17&#45;&gt;Node19</title>
<g id="a_edge23_Node000017_Node000019"><a xlink:title=" ">
<path fill="none" stroke="#63b8ff" d="M584.82,-32.17C564.04,-27.98 540.19,-23.16 519.83,-19.05"/>
<polygon fill="#63b8ff" stroke="#63b8ff" points="584.25,-35.62 594.74,-34.17 585.63,-28.76 584.25,-35.62"/>
</a>
</g>
</g>
<!-- Node18&#45;&gt;Node14 -->
<g id="edge22_Node000018_Node000014" class="edge">
<title>Node18&#45;&gt;Node14</title>
<g id="a_edge22_Node000018_Node000014"><a xlink:title=" ">
<path fill="none" stroke="#63b8ff" d="M66.79,-47.5C57.49,-47.5 48.57,-47.5 41.14,-47.5"/>
<polygon fill="#63b8ff" stroke="#63b8ff" points="66.96,-51 76.96,-47.5 66.96,-44 66.96,-51"/>
</a>
</g>
</g>
<!-- Node20 -->
<g id="Node000020" class="node">
<title>Node20</title>
<g id="a_Node000020"><a xlink:href="dmplex__geom_8c.html#ac4ecb4d172bee5f7c59a9fdf2680bb51" target="_top" xlink:title="Benchmark: run the full distributed DMPlex geometry pipeline for all bodies.">
<polygon fill="white" stroke="#666666" points="373,-19 222,-19 222,0 373,0 373,-19"/>
<text text-anchor="middle" x="297.5" y="-7" font-family="Helvetica,sans-Serif" font-size="10.00">RunDMPlexGeomProcesses</text>
</a>
</g>
</g>
<!-- Node19&#45;&gt;Node20 -->
<g id="edge24_Node000019_Node000020" class="edge">
<title>Node19&#45;&gt;Node20</title>
<g id="a_edge24_Node000019_Node000020"><a xlink:title=" ">
<path fill="none" stroke="#63b8ff" d="M403.46,-9.5C393.48,-9.5 383.15,-9.5 373.03,-9.5"/>
<polygon fill="#63b8ff" stroke="#63b8ff" points="403.7,-13 413.7,-9.5 403.7,-6 403.7,-13"/>
</a>
</g>
</g>
<!-- Node20&#45;&gt;Node14 -->
<g id="edge25_Node000020_Node000014" class="edge">
<title>Node20&#45;&gt;Node14</title>
<g id="a_edge25_Node000020_Node000014"><a xlink:title=" ">
<path fill="none" stroke="#63b8ff" d="M211.69,-12.03C170.66,-14.47 120.9,-19.23 77,-28.5 64.84,-31.07 51.67,-35.5 41.21,-39.44"/>
<polygon fill="#63b8ff" stroke="#63b8ff" points="212.13,-15.51 221.92,-11.45 211.74,-8.52 212.13,-15.51"/>
</a>
</g>
</g>
</g>
</svg>

<g id="navigator" transform="translate(0 0)" fill="#404254">
  <rect fill="#f2f5e9" fill-opacity="0.5" stroke="#606060" stroke-width=".5" x="0" y="0" width="60" height="60"/>
  <use id="zoomplus" xlink:href="#zoomPlus" x="17" y="9" onmousedown="handleZoom(evt,'in')"/>
  <use id="zoomminus" xlink:href="#zoomMin" x="42" y="9" onmousedown="handleZoom(evt,'out')"/>
  <use id="reset" xlink:href="#resetDef" x="30" y="36" onmousedown="handleReset()"/>
   <use id="arrowup" xlink:href="#arrowUp" x="0" y="0" onmousedown="handlePan(0,-1)"/>
  <use id="arrowright" xlink:href="#arrowRight" x="0" y="0" onmousedown="handlePan(1,0)"/>
  <use id="arrowdown" xlink:href="#arrowDown" x="0" y="0" onmousedown="handlePan(0,1)"/>
  <use id="arrowleft" xlink:href="#arrowLeft" x="0" y="0" onmousedown="handlePan(-1,0)"/>
</g>
<svg viewBox="0 0 15 15" width="100%" height="30px" preserveAspectRatio="xMaxYMin meet">
 <g id="arrow_out" transform="scale(0.3 0.3)">
  <a xlink:href="math_8h_a3f73e4cd9eab76eeee084eabf2b98ec9_icgraph_org.svg" target="_base">
   <rect id="button" ry="5" rx="5" y="6" x="6" height="38" width="38"
        fill="#f2f5e9" fill-opacity="0.5" stroke="#606060" stroke-width="1.0"/>
   <path id="arrow"
     d="M 11.500037,31.436501 C 11.940474,20.09759 22.043105,11.32322 32.158766,21.979434 L 37.068811,17.246167 C 37.068811,17.246167 37.088388,32 37.088388,32 L 22.160133,31.978069 C 22.160133,31.978069 26.997745,27.140456 26.997745,27.140456 C 18.528582,18.264221 13.291696,25.230495 11.500037,31.436501 z"
     style="fill:#404040;"/>
  </a>
 </g>
</svg>

<style type='text/css'>
<![CDATA[
[data-mouse-over-selected='false'] { opacity: 0.7; }
[data-mouse-over-selected='true']  { opacity: 1.0; }
]]>
</style>
<script type="application/ecmascript"><![CDATA[
document.addEventListener('DOMContentLoaded', (event) => {
  highlightEdges();
  highlightAdjacentNodes();
});
]]></script>
</svg>
