<?xml version="1.0" encoding="UTF-8" standalone="no"?>
<!DOCTYPE svg PUBLIC "-//W3C//DTD SVG 1.1//EN"
 "http://www.w3.org/Graphics/SVG/1.1/DTD/svg11.dtd">
<!-- Generated by graphviz version 2.43.0 (0)
 -->
<!-- Title: AMULT Pages: 1 -->
<!--zoomable 338 -->

<svg id="main" version="1.1" xmlns="http://www.w3.org/2000/svg" xmlns:xlink="http://www.w3.org/1999/xlink" xml:space="preserve" onload="init(evt)">
<style type="text/css"><![CDATA[
.node, .edge {opacity: 0.7;}
.node.selected, .edge.selected {opacity: 1;}
.edge:hover path { stroke: red; }
.edge:hover polygon { stroke: red; fill: red; }
]]></style>

<defs>
  <circle id="rim" cx="0" cy="0" r="7"/>
  <circle id="rim2" cx="0" cy="0" r="3.5"/>
  <g id="zoomPlus">
    <use xlink:href="#rim" fill="#404040"><set attributeName="fill" to="#808080" begin="zoomplus.mouseover" end="zoomplus.mouseout"/></use>
    <path d="M-4,0h8M0,-4v8" fill="none" stroke="white" stroke-width="1.5" pointer-events="none"/>
  </g>
  <g id="zoomMin">
    <use xlink:href="#rim" fill="#404040"><set attributeName="fill" to="#808080" begin="zoomminus.mouseover" end="zoomminus.mouseout"/></use>
    <path d="M-4,0h8" fill="none" stroke="white" stroke-width="1.5" pointer-events="none"/>
  </g>
  <g id="arrowUp" transform="translate(30 24)">
    <use xlink:href="#rim"/>
    <path pointer-events="none" fill="none" stroke="white" stroke-width="1.5" d="M0,-3.0v7 M-2.5,-0.5L0,-3.0L2.5,-0.5"/>
  </g>
  <g id="arrowRight" transform="rotate(90) translate(36 -43)">
    <use xlink:href="#rim"/>
    <path pointer-events="none" fill="none" stroke="white" stroke-width="1.5" d="M0,-3.0v7 M-2.5,-0.5L0,-3.0L2.5,-0.5"/>
  </g>
  <g id="arrowDown" transform="rotate(180) translate(-30 -48)">
    <use xlink:href="#rim"/>
    <path pointer-events="none" fill="none" stroke="white" stroke-width="1.5" d="M0,-3.0v7 M-2.5,-0.5L0,-3.0L2.5,-0.5"/>
  </g>
  <g id="arrowLeft" transform="rotate(270) translate(-36 17)">
    <use xlink:href="#rim"/>
    <path pointer-events="none" fill="none" stroke="white" stroke-width="1.5" d="M0,-3.0v7 M-2.5,-0.5L0,-3.0L2.5,-0.5"/>
  </g>
  <g id="resetDef">
    <use xlink:href="#rim2" fill="#404040"><set attributeName="fill" to="#808080" begin="reset.mouseover" end="reset.mouseout"/></use>
  </g>
</defs>
<script type="application/ecmascript">
var viewWidth = 1195;
var viewHeight = 338;
var sectionId = 'dynsection-7';
</script>
<script type="application/ecmascript" xlink:href="svg.min.js"/>
<svg id="graph" class="graph">
<g id="viewport">
<title>AMULT</title>
<!-- Node1 -->
<g id="Node000001" class="node">
<title>Node1</title>
<g id="a_Node000001"><a xlink:title=" ">
<polygon fill="#999999" stroke="#666666" points="1187,-243 1137,-243 1137,-224 1187,-224 1187,-243"/>
<text text-anchor="middle" x="1162" y="-231" font-family="Helvetica,sans-Serif" font-size="10.00">AMULT</text>
</a>
</g>
</g>
<!-- Node2 -->
<g id="Node000002" class="node">
<title>Node2</title>
<g id="a_Node000002"><a xlink:href="muscle__activation_8c.html#a19d89612f2544ef7f352badd7cf1f337" target="_top" xlink:title=" ">
<polygon fill="white" stroke="#666666" points="1081.5,-329.5 956.5,-329.5 956.5,-299.5 1081.5,-299.5 1081.5,-329.5"/>
<text text-anchor="start" x="964.5" y="-317.5" font-family="Helvetica,sans-Serif" font-size="10.00">compute_mid_surface</text>
<text text-anchor="middle" x="1019" y="-306.5" font-family="Helvetica,sans-Serif" font-size="10.00">_el_stress_after_act</text>
</a>
</g>
</g>
<!-- Node1&#45;&gt;Node2 -->
<g id="edge1_Node000001_Node000002" class="edge">
<title>Node1&#45;&gt;Node2</title>
<g id="a_edge1_Node000001_Node000002"><a xlink:title=" ">
<path fill="none" stroke="#63b8ff" d="M1146.97,-250.64C1135.75,-263.32 1118.96,-280.12 1101,-290.5 1095.03,-293.95 1088.52,-296.94 1081.88,-299.53"/>
<polygon fill="#63b8ff" stroke="#63b8ff" points="1149.66,-252.89 1153.5,-243.01 1144.34,-248.34 1149.66,-252.89"/>
</a>
</g>
</g>
<!-- Node5 -->
<g id="Node000005" class="node">
<title>Node5</title>
<g id="a_Node000005"><a xlink:href="active__strain_8c.html#a993ef27fda81bb402cba4aa14fa9b51a" target="_top" xlink:title="Build current covariant/contravariant basis vectors for one element.">
<polygon fill="white" stroke="#666666" points="870.5,-178 786.5,-178 786.5,-159 870.5,-159 870.5,-178"/>
<text text-anchor="middle" x="828.5" y="-166" font-family="Helvetica,sans-Serif" font-size="10.00">ElemUpdateG</text>
</a>
</g>
</g>
<!-- Node1&#45;&gt;Node5 -->
<g id="edge4_Node000001_Node000005" class="edge">
<title>Node1&#45;&gt;Node5</title>
<g id="a_edge4_Node000001_Node000005"><a xlink:title=" ">
<path fill="none" stroke="#63b8ff" d="M1126.9,-225.27C1118.45,-223.31 1109.41,-221.27 1101,-219.5 1019.57,-202.36 923.81,-185.03 870.55,-175.64"/>
<polygon fill="#63b8ff" stroke="#63b8ff" points="1126.29,-228.72 1136.82,-227.61 1127.89,-221.91 1126.29,-228.72"/>
</a>
</g>
</g>
<!-- Node13 -->
<g id="Node000013" class="node">
<title>Node13</title>
<g id="a_Node000013"><a xlink:href="active__strain_8c.html#a9ef026a24ded6fec7243fd82f49394c3" target="_top" xlink:title=" ">
<polygon fill="white" stroke="#666666" points="1101,-135.5 937,-135.5 937,-105.5 1101,-105.5 1101,-135.5"/>
<text text-anchor="start" x="945" y="-123.5" font-family="Helvetica,sans-Serif" font-size="10.00">ElemUpdateGeomSubdivFrom</text>
<text text-anchor="middle" x="1019" y="-112.5" font-family="Helvetica,sans-Serif" font-size="10.00">Coords_</text>
</a>
</g>
</g>
<!-- Node1&#45;&gt;Node13 -->
<g id="edge14_Node000001_Node000013" class="edge">
<title>Node1&#45;&gt;Node13</title>
<g id="a_edge14_Node000001_Node000013"><a xlink:title=" ">
<path fill="none" stroke="#63b8ff" d="M1147.91,-215.52C1136.62,-200.84 1119.29,-180.21 1101,-165.5 1086.46,-153.8 1068.47,-143.47 1053.13,-135.66"/>
<polygon fill="#63b8ff" stroke="#63b8ff" points="1145.31,-217.88 1154.11,-223.78 1150.91,-213.68 1145.31,-217.88"/>
</a>
</g>
</g>
<!-- Node20 -->
<g id="Node000020" class="node">
<title>Node20</title>
<g id="a_Node000020"><a xlink:href="active__strain_8c.html#ace13f65688712f8ea397a734d66954ad" target="_top" xlink:title="Assemble element internal force vector into Fb_out.">
<polygon fill="white" stroke="#666666" points="511,-243 432,-243 432,-224 511,-224 511,-243"/>
<text text-anchor="middle" x="471.5" y="-231" font-family="Helvetica,sans-Serif" font-size="10.00">ElemUpdFint</text>
</a>
</g>
</g>
<!-- Node1&#45;&gt;Node20 -->
<g id="edge30_Node000001_Node000020" class="edge">
<title>Node1&#45;&gt;Node20</title>
<g id="a_edge30_Node000001_Node000020"><a xlink:title=" ">
<path fill="none" stroke="#63b8ff" d="M1126.83,-233.5C1010.98,-233.5 633.53,-233.5 511.17,-233.5"/>
<polygon fill="#63b8ff" stroke="#63b8ff" points="1126.9,-237 1136.9,-233.5 1126.9,-230 1126.9,-237"/>
</a>
</g>
</g>
<!-- Node21 -->
<g id="Node000021" class="node">
<title>Node21</title>
<g id="a_Node000021"><a xlink:href="muscle__activation_8c.html#a357b3bb1950e461f37dc728929d29486" target="_top" xlink:title=" ">
<polygon fill="white" stroke="#666666" points="1068,-281 970,-281 970,-262 1068,-262 1068,-281"/>
<text text-anchor="middle" x="1019" y="-269" font-family="Helvetica,sans-Serif" font-size="10.00">FInternalAftActEl</text>
</a>
</g>
</g>
<!-- Node1&#45;&gt;Node21 -->
<g id="edge32_Node000001_Node000021" class="edge">
<title>Node1&#45;&gt;Node21</title>
<g id="a_edge32_Node000001_Node000021"><a xlink:title=" ">
<path fill="none" stroke="#63b8ff" d="M1126.98,-242.67C1105.28,-248.52 1077.21,-256.08 1055.27,-261.99"/>
<polygon fill="#63b8ff" stroke="#63b8ff" points="1128.02,-246.01 1136.76,-240.03 1126.19,-239.26 1128.02,-246.01"/>
</a>
</g>
</g>
<!-- Node3 -->
<g id="Node000003" class="node">
<title>Node3</title>
<g id="a_Node000003"><a xlink:href="muscle__activation_8c.html#a3f9fadbc31e4872a8519e6bfdecf7b8f" target="_top" xlink:title=" ">
<polygon fill="white" stroke="#666666" points="896.5,-329.5 760.5,-329.5 760.5,-299.5 896.5,-299.5 896.5,-329.5"/>
<text text-anchor="start" x="768.5" y="-317.5" font-family="Helvetica,sans-Serif" font-size="10.00">update_mid_surf_elastic</text>
<text text-anchor="middle" x="828.5" y="-306.5" font-family="Helvetica,sans-Serif" font-size="10.00">_stress</text>
</a>
</g>
</g>
<!-- Node2&#45;&gt;Node3 -->
<g id="edge2_Node000002_Node000003" class="edge">
<title>Node2&#45;&gt;Node3</title>
<g id="a_edge2_Node000002_Node000003"><a xlink:title=" ">
<path fill="none" stroke="#63b8ff" d="M946.26,-314.5C929.95,-314.5 912.68,-314.5 896.56,-314.5"/>
<polygon fill="#63b8ff" stroke="#63b8ff" points="946.28,-318 956.28,-314.5 946.28,-311 946.28,-318"/>
</a>
</g>
</g>
<!-- Node4 -->
<g id="Node000004" class="node">
<title>Node4</title>
<g id="a_Node000004"><a xlink:href="muscle__activation_8c.html#a5794b91b41d38582fd698b653b53330e" target="_top" xlink:title=" ">
<polygon fill="white" stroke="#666666" points="710,-303 585,-303 585,-284 710,-284 710,-303"/>
<text text-anchor="middle" x="647.5" y="-291" font-family="Helvetica,sans-Serif" font-size="10.00">UpdateFInternalAftAct</text>
</a>
</g>
</g>
<!-- Node3&#45;&gt;Node4 -->
<g id="edge3_Node000003_Node000004" class="edge">
<title>Node3&#45;&gt;Node4</title>
<g id="a_edge3_Node000003_Node000004"><a xlink:title=" ">
<path fill="none" stroke="#63b8ff" d="M750.19,-305.43C736.8,-303.86 723.04,-302.24 710.13,-300.73"/>
<polygon fill="#63b8ff" stroke="#63b8ff" points="750,-308.93 760.34,-306.62 750.81,-301.98 750,-308.93"/>
</a>
</g>
</g>
<!-- Node6 -->
<g id="Node000006" class="node">
<title>Node6</title>
<g id="a_Node000006"><a xlink:href="active__strain_8c.html#a693fb698122674ff7df6dd47ac75167c" target="_top" xlink:title="Run per&#45;element precomputations before global internal&#45;force assembly.">
<polygon fill="white" stroke="#666666" points="520,-205 423,-205 423,-186 520,-186 520,-205"/>
<text text-anchor="middle" x="471.5" y="-193" font-family="Helvetica,sans-Serif" font-size="10.00">FInternalPreCalc</text>
</a>
</g>
</g>
<!-- Node5&#45;&gt;Node6 -->
<g id="edge5_Node000005_Node000006" class="edge">
<title>Node5&#45;&gt;Node6</title>
<g id="a_edge5_Node000005_Node000006"><a xlink:title=" ">
<path fill="none" stroke="#63b8ff" d="M776.3,-172.39C707.73,-177.61 587,-186.79 520.24,-191.87"/>
<polygon fill="#63b8ff" stroke="#63b8ff" points="776.72,-175.87 786.43,-171.62 776.19,-168.89 776.72,-175.87"/>
</a>
</g>
</g>
<!-- Node10 -->
<g id="Node000010" class="node">
<title>Node10</title>
<g id="a_Node000010"><a xlink:href="cuda__processes_8c.html#a627a27228923fbc3e63f0f4e1c5aa765" target="_top" xlink:title=" ">
<polygon fill="white" stroke="#666666" points="702,-130 593,-130 593,-111 702,-111 702,-130"/>
<text text-anchor="middle" x="647.5" y="-118" font-family="Helvetica,sans-Serif" font-size="10.00">RunCudaProcesses</text>
</a>
</g>
</g>
<!-- Node5&#45;&gt;Node10 -->
<g id="edge9_Node000005_Node000010" class="edge">
<title>Node5&#45;&gt;Node10</title>
<g id="a_edge9_Node000005_Node000010"><a xlink:title=" ">
<path fill="none" stroke="#63b8ff" d="M784.29,-156.17C764.69,-150.65 741.21,-144.13 720,-138.5 709.36,-135.68 697.8,-132.72 687.14,-130.04"/>
<polygon fill="#63b8ff" stroke="#63b8ff" points="783.57,-159.6 794.15,-158.96 785.48,-152.87 783.57,-159.6"/>
</a>
</g>
</g>
<!-- Node11 -->
<g id="Node000011" class="node">
<title>Node11</title>
<g id="a_Node000011"><a xlink:href="dmplex__geom_8c.html#aa2b24de348fff4079de659ff63ba9b85" target="_top" xlink:title="Synchronise remote coordinates and evaluate the geometry kernel for all local cells.">
<polygon fill="white" stroke="#666666" points="705,-167 590,-167 590,-148 705,-148 705,-167"/>
<text text-anchor="middle" x="647.5" y="-155" font-family="Helvetica,sans-Serif" font-size="10.00">RunLocalGeometry_</text>
</a>
</g>
</g>
<!-- Node5&#45;&gt;Node11 -->
<g id="edge11_Node000005_Node000011" class="edge">
<title>Node5&#45;&gt;Node11</title>
<g id="a_edge11_Node000005_Node000011"><a xlink:title=" ">
<path fill="none" stroke="#63b8ff" d="M776.22,-165.35C754.06,-163.99 728.06,-162.39 705.31,-160.99"/>
<polygon fill="#63b8ff" stroke="#63b8ff" points="776.24,-168.86 786.43,-165.98 776.67,-161.87 776.24,-168.86"/>
</a>
</g>
</g>
<!-- Node7 -->
<g id="Node000007" class="node">
<title>Node7</title>
<g id="a_Node000007"><a xlink:href="active__strain_8c.html#a3bac899c10052c346d2afe9eccbac71d" target="_top" xlink:title="Assemble global internal force vector for active&#45;strain mechanics.">
<polygon fill="white" stroke="#666666" points="330.5,-205 254.5,-205 254.5,-186 330.5,-186 330.5,-205"/>
<text text-anchor="middle" x="292.5" y="-193" font-family="Helvetica,sans-Serif" font-size="10.00">FInternalAct</text>
</a>
</g>
</g>
<!-- Node6&#45;&gt;Node7 -->
<g id="edge6_Node000006_Node000007" class="edge">
<title>Node6&#45;&gt;Node7</title>
<g id="a_edge6_Node000006_Node000007"><a xlink:title=" ">
<path fill="none" stroke="#63b8ff" d="M412.53,-195.5C385.64,-195.5 354.47,-195.5 330.77,-195.5"/>
<polygon fill="#63b8ff" stroke="#63b8ff" points="412.6,-199 422.6,-195.5 412.6,-192 412.6,-199"/>
</a>
</g>
</g>
<!-- Node8 -->
<g id="Node000008" class="node">
<title>Node8</title>
<g id="a_Node000008"><a xlink:href="main_8c.html#a9a070a6f408cadb404b0ee7fbc74c576" target="_top" xlink:title=" ">
<polygon fill="white" stroke="#666666" points="181,-205 77,-205 77,-186 181,-186 181,-205"/>
<text text-anchor="middle" x="129" y="-193" font-family="Helvetica,sans-Serif" font-size="10.00">FormFunctionFEM</text>
</a>
</g>
</g>
<!-- Node7&#45;&gt;Node8 -->
<g id="edge7_Node000007_Node000008" class="edge">
<title>Node7&#45;&gt;Node8</title>
<g id="a_edge7_Node000007_Node000008"><a xlink:title=" ">
<path fill="none" stroke="#63b8ff" d="M244.42,-195.5C224.61,-195.5 201.5,-195.5 181.26,-195.5"/>
<polygon fill="#63b8ff" stroke="#63b8ff" points="244.45,-199 254.45,-195.5 244.45,-192 244.45,-199"/>
</a>
</g>
</g>
<!-- Node9 -->
<g id="Node000009" class="node">
<title>Node9</title>
<g id="a_Node000009"><a xlink:href="main_8c.html#a3c04138a5bfe5d72780bb7e82a18e627" target="_top" xlink:title=" ">
<polygon fill="white" stroke="#666666" points="41,-129 0,-129 0,-110 41,-110 41,-129"/>
<text text-anchor="middle" x="20.5" y="-117" font-family="Helvetica,sans-Serif" font-size="10.00">main</text>
</a>
</g>
</g>
<!-- Node8&#45;&gt;Node9 -->
<g id="edge8_Node000008_Node000009" class="edge">
<title>Node8&#45;&gt;Node9</title>
<g id="a_edge8_Node000008_Node000009"><a xlink:title=" ">
<path fill="none" stroke="#63b8ff" d="M94.5,-181.58C88.49,-178.57 82.42,-175.18 77,-171.5 58.65,-159.04 40.48,-140.54 30.16,-129.29"/>
<polygon fill="#63b8ff" stroke="#63b8ff" points="93.27,-184.87 103.8,-185.98 96.26,-178.54 93.27,-184.87"/>
</a>
</g>
</g>
<!-- Node10&#45;&gt;Node9 -->
<g id="edge10_Node000010_Node000009" class="edge">
<title>Node10&#45;&gt;Node9</title>
<g id="a_edge10_Node000010_Node000009"><a xlink:title=" ">
<path fill="none" stroke="#63b8ff" d="M582.94,-120.4C445.02,-120.18 124.02,-119.66 41.25,-119.53"/>
<polygon fill="#63b8ff" stroke="#63b8ff" points="582.94,-123.9 592.94,-120.41 582.95,-116.9 582.94,-123.9"/>
</a>
</g>
</g>
<!-- Node12 -->
<g id="Node000012" class="node">
<title>Node12</title>
<g id="a_Node000012"><a xlink:href="dmplex__geom_8c.html#ac4ecb4d172bee5f7c59a9fdf2680bb51" target="_top" xlink:title="Benchmark: run the full distributed DMPlex geometry pipeline for all bodies.">
<polygon fill="white" stroke="#666666" points="368,-167 217,-167 217,-148 368,-148 368,-167"/>
<text text-anchor="middle" x="292.5" y="-155" font-family="Helvetica,sans-Serif" font-size="10.00">RunDMPlexGeomProcesses</text>
</a>
</g>
</g>
<!-- Node11&#45;&gt;Node12 -->
<g id="edge12_Node000011_Node000012" class="edge">
<title>Node11&#45;&gt;Node12</title>
<g id="a_edge12_Node000011_Node000012"><a xlink:title=" ">
<path fill="none" stroke="#63b8ff" d="M579.62,-157.5C519.33,-157.5 430.8,-157.5 368.22,-157.5"/>
<polygon fill="#63b8ff" stroke="#63b8ff" points="579.78,-161 589.78,-157.5 579.78,-154 579.78,-161"/>
</a>
</g>
</g>
<!-- Node12&#45;&gt;Node9 -->
<g id="edge13_Node000012_Node000009" class="edge">
<title>Node12&#45;&gt;Node9</title>
<g id="a_edge13_Node000012_Node000009"><a xlink:title=" ">
<path fill="none" stroke="#63b8ff" d="M206.55,-150.67C166.99,-146.81 119.4,-141.18 77,-133.5 64.97,-131.32 51.69,-128 41.14,-125.15"/>
<polygon fill="#63b8ff" stroke="#63b8ff" points="206.4,-154.17 216.69,-151.64 207.06,-147.2 206.4,-154.17"/>
</a>
</g>
</g>
<!-- Node14 -->
<g id="Node000014" class="node">
<title>Node14</title>
<g id="a_Node000014"><a xlink:href="active__strain_8c.html#ac93e65e44aa9af3d11c2165016210d87" target="_top" xlink:title="Update reference midsurface geometry cache for one element.">
<polygon fill="white" stroke="#666666" points="901,-93 756,-93 756,-74 901,-74 901,-93"/>
<text text-anchor="middle" x="828.5" y="-81" font-family="Helvetica,sans-Serif" font-size="10.00">ElemUpdateGeom0Subdiv</text>
</a>
</g>
</g>
<!-- Node13&#45;&gt;Node14 -->
<g id="edge15_Node000013_Node000014" class="edge">
<title>Node13&#45;&gt;Node14</title>
<g id="a_edge15_Node000013_Node000014"><a xlink:title=" ">
<path fill="none" stroke="#63b8ff" d="M931.48,-103.52C913.1,-99.91 894.33,-96.22 877.98,-93.02"/>
<polygon fill="#63b8ff" stroke="#63b8ff" points="930.84,-106.96 941.33,-105.45 932.19,-100.09 930.84,-106.96"/>
</a>
</g>
</g>
<!-- Node18 -->
<g id="Node000018" class="node">
<title>Node18</title>
<g id="a_Node000018"><a xlink:href="active__strain_8c.html#a04fa5da4f55d0663ad5ec7a3534de0af" target="_top" xlink:title="Update current midsurface geometry cache for one element.">
<polygon fill="white" stroke="#666666" points="898,-130 759,-130 759,-111 898,-111 898,-130"/>
<text text-anchor="middle" x="828.5" y="-118" font-family="Helvetica,sans-Serif" font-size="10.00">ElemUpdateGeomSubdiv</text>
</a>
</g>
</g>
<!-- Node13&#45;&gt;Node18 -->
<g id="edge23_Node000013_Node000018" class="edge">
<title>Node13&#45;&gt;Node18</title>
<g id="a_edge23_Node000013_Node000018"><a xlink:title=" ">
<path fill="none" stroke="#63b8ff" d="M926.88,-120.5C917.17,-120.5 907.42,-120.5 898.04,-120.5"/>
<polygon fill="#63b8ff" stroke="#63b8ff" points="926.97,-124 936.97,-120.5 926.97,-117 926.97,-124"/>
</a>
</g>
</g>
<!-- Node14&#45;&gt;Node10 -->
<g id="edge19_Node000014_Node000010" class="edge">
<title>Node14&#45;&gt;Node10</title>
<g id="a_edge19_Node000014_Node000010"><a xlink:title=" ">
<path fill="none" stroke="#63b8ff" d="M771.46,-95.08C746.8,-100.18 718.17,-106.1 694.75,-110.94"/>
<polygon fill="#63b8ff" stroke="#63b8ff" points="772.32,-98.48 781.4,-93.03 770.9,-91.63 772.32,-98.48"/>
</a>
</g>
</g>
<!-- Node14&#45;&gt;Node11 -->
<g id="edge22_Node000014_Node000011" class="edge">
<title>Node14&#45;&gt;Node11</title>
<g id="a_edge22_Node000014_Node000011"><a xlink:title=" ">
<path fill="none" stroke="#63b8ff" d="M765.53,-96.75C762.23,-98.17 759.03,-99.75 756,-101.5 736.12,-112.96 739.8,-126.91 720,-138.5 713.35,-142.39 705.89,-145.5 698.36,-147.99"/>
<polygon fill="#63b8ff" stroke="#63b8ff" points="766.93,-99.96 775.01,-93.11 764.42,-93.42 766.93,-99.96"/>
</a>
</g>
</g>
<!-- Node15 -->
<g id="Node000015" class="node">
<title>Node15</title>
<g id="a_Node000015"><a xlink:href="dmplex__geom_8c.html#aeca513213e67a07a712cc41e8c6412ea" target="_top" xlink:title="One&#45;time DMPlex geometry setup.">
<polygon fill="white" stroke="#666666" points="716,-19 579,-19 579,0 716,0 716,-19"/>
<text text-anchor="middle" x="647.5" y="-7" font-family="Helvetica,sans-Serif" font-size="10.00">FEM_DMPlexGeomSetup</text>
</a>
</g>
</g>
<!-- Node14&#45;&gt;Node15 -->
<g id="edge16_Node000014_Node000015" class="edge">
<title>Node14&#45;&gt;Node15</title>
<g id="a_edge16_Node000014_Node000015"><a xlink:title=" ">
<path fill="none" stroke="#63b8ff" d="M803.31,-68.81C782.01,-56.38 749.81,-38.84 720,-27.5 711.51,-24.27 702.22,-21.45 693.24,-19.05"/>
<polygon fill="#63b8ff" stroke="#63b8ff" points="801.62,-71.87 812.01,-73.95 805.18,-65.85 801.62,-71.87"/>
</a>
</g>
</g>
<!-- Node17 -->
<g id="Node000017" class="node">
<title>Node17</title>
<g id="a_Node000017"><a xlink:href="kokkos__processes_8c.html#a3f18ca1bc94cfbc69753dccb70a43699" target="_top" xlink:title=" ">
<polygon fill="white" stroke="#666666" points="707,-56 588,-56 588,-37 707,-37 707,-56"/>
<text text-anchor="middle" x="647.5" y="-44" font-family="Helvetica,sans-Serif" font-size="10.00">RunKokkosProcesses</text>
</a>
</g>
</g>
<!-- Node14&#45;&gt;Node17 -->
<g id="edge20_Node000014_Node000017" class="edge">
<title>Node14&#45;&gt;Node17</title>
<g id="a_edge20_Node000014_Node000017"><a xlink:title=" ">
<path fill="none" stroke="#63b8ff" d="M771.46,-71.92C746.8,-66.82 718.17,-60.9 694.75,-56.06"/>
<polygon fill="#63b8ff" stroke="#63b8ff" points="770.9,-75.37 781.4,-73.97 772.32,-68.52 770.9,-75.37"/>
</a>
</g>
</g>
<!-- Node15&#45;&gt;Node9 -->
<g id="edge17_Node000015_Node000009" class="edge">
<title>Node15&#45;&gt;Node9</title>
<g id="a_edge17_Node000015_Node000009"><a xlink:title=" ">
<path fill="none" stroke="#63b8ff" d="M568.51,-11.08C520.81,-12.85 458.64,-16.6 404,-24.5 256.43,-45.84 220.06,-57.48 77,-99.5 64.91,-103.05 51.63,-107.81 41.09,-111.79"/>
<polygon fill="#63b8ff" stroke="#63b8ff" points="568.9,-14.57 578.77,-10.73 568.66,-7.58 568.9,-14.57"/>
</a>
</g>
</g>
<!-- Node16 -->
<g id="Node000016" class="node">
<title>Node16</title>
<g id="a_Node000016"><a xlink:href="dmplex__geom_8c.html#af897ef006be5d3cc2be53b272a4f5a61" target="_top" xlink:title="Drop&#45;in geometry call: setup + update + destroy in one shot.">
<polygon fill="white" stroke="#666666" points="539,-53 404,-53 404,-34 539,-34 539,-53"/>
<text text-anchor="middle" x="471.5" y="-41" font-family="Helvetica,sans-Serif" font-size="10.00">RunDMPlexGeomSubdiv</text>
</a>
</g>
</g>
<!-- Node15&#45;&gt;Node16 -->
<g id="edge18_Node000015_Node000016" class="edge">
<title>Node15&#45;&gt;Node16</title>
<g id="a_edge18_Node000015_Node000016"><a xlink:title=" ">
<path fill="none" stroke="#63b8ff" d="M587.56,-21.02C566.02,-25.23 541.92,-29.93 521.37,-33.95"/>
<polygon fill="#63b8ff" stroke="#63b8ff" points="588.43,-24.41 597.57,-19.06 587.08,-17.54 588.43,-24.41"/>
</a>
</g>
</g>
<!-- Node17&#45;&gt;Node9 -->
<g id="edge21_Node000017_Node000009" class="edge">
<title>Node17&#45;&gt;Node9</title>
<g id="a_edge21_Node000017_Node000009"><a xlink:title=" ">
<path fill="none" stroke="#63b8ff" d="M577.76,-56.37C564.89,-58.14 551.54,-59.92 539,-61.5 345.25,-85.87 110.04,-110.41 41.26,-117.48"/>
<polygon fill="#63b8ff" stroke="#63b8ff" points="578.53,-59.8 587.96,-54.96 577.57,-52.87 578.53,-59.8"/>
</a>
</g>
</g>
<!-- Node18&#45;&gt;Node10 -->
<g id="edge27_Node000018_Node000010" class="edge">
<title>Node18&#45;&gt;Node10</title>
<g id="a_edge27_Node000018_Node000010"><a xlink:title=" ">
<path fill="none" stroke="#63b8ff" d="M748.55,-120.5C732.81,-120.5 716.64,-120.5 702,-120.5"/>
<polygon fill="#63b8ff" stroke="#63b8ff" points="748.81,-124 758.81,-120.5 748.81,-117 748.81,-124"/>
</a>
</g>
</g>
<!-- Node18&#45;&gt;Node11 -->
<g id="edge29_Node000018_Node000011" class="edge">
<title>Node18&#45;&gt;Node11</title>
<g id="a_edge29_Node000018_Node000011"><a xlink:title=" ">
<path fill="none" stroke="#63b8ff" d="M771.46,-132.08C746.8,-137.18 718.17,-143.1 694.75,-147.94"/>
<polygon fill="#63b8ff" stroke="#63b8ff" points="772.32,-135.48 781.4,-130.03 770.9,-128.63 772.32,-135.48"/>
</a>
</g>
</g>
<!-- Node18&#45;&gt;Node17 -->
<g id="edge28_Node000018_Node000017" class="edge">
<title>Node18&#45;&gt;Node17</title>
<g id="a_edge28_Node000018_Node000017"><a xlink:title=" ">
<path fill="none" stroke="#63b8ff" d="M768.2,-107.5C763.96,-105.74 759.85,-103.75 756,-101.5 736.2,-89.91 739.88,-75.96 720,-64.5 714.12,-61.11 707.61,-58.36 700.99,-56.11"/>
<polygon fill="#63b8ff" stroke="#63b8ff" points="767.05,-110.8 777.64,-110.99 769.47,-104.23 767.05,-110.8"/>
</a>
</g>
</g>
<!-- Node19 -->
<g id="Node000019" class="node">
<title>Node19</title>
<g id="a_Node000019"><a xlink:href="dmplex__geom_8c.html#af7fb8fc68c27b224f0458d0c42911fe6" target="_top" xlink:title="Per&#45;SNES&#45;iteration geometry update.">
<polygon fill="white" stroke="#666666" points="720,-93 575,-93 575,-74 720,-74 720,-93"/>
<text text-anchor="middle" x="647.5" y="-81" font-family="Helvetica,sans-Serif" font-size="10.00">FEM_DMPlexGeomUpdate</text>
</a>
</g>
</g>
<!-- Node18&#45;&gt;Node19 -->
<g id="edge24_Node000018_Node000019" class="edge">
<title>Node18&#45;&gt;Node19</title>
<g id="a_edge24_Node000018_Node000019"><a xlink:title=" ">
<path fill="none" stroke="#63b8ff" d="M771.46,-108.92C746.8,-103.82 718.17,-97.9 694.75,-93.06"/>
<polygon fill="#63b8ff" stroke="#63b8ff" points="770.9,-112.37 781.4,-110.97 772.32,-105.52 770.9,-112.37"/>
</a>
</g>
</g>
<!-- Node19&#45;&gt;Node6 -->
<g id="edge25_Node000019_Node000006" class="edge">
<title>Node19&#45;&gt;Node6</title>
<g id="a_edge25_Node000019_Node000006"><a xlink:title=" ">
<path fill="none" stroke="#63b8ff" d="M585.85,-96.46C582.1,-97.97 578.45,-99.64 575,-101.5 533.55,-123.84 495.78,-166.69 480.13,-185.84"/>
<polygon fill="#63b8ff" stroke="#63b8ff" points="587.09,-99.74 595.32,-93.06 584.73,-93.15 587.09,-99.74"/>
</a>
</g>
</g>
<!-- Node19&#45;&gt;Node16 -->
<g id="edge26_Node000019_Node000016" class="edge">
<title>Node19&#45;&gt;Node16</title>
<g id="a_edge26_Node000019_Node000016"><a xlink:title=" ">
<path fill="none" stroke="#63b8ff" d="M594.82,-71.62C568.96,-65.68 538.1,-58.58 513.84,-53"/>
<polygon fill="#63b8ff" stroke="#63b8ff" points="594.29,-75.09 604.82,-73.92 595.86,-68.27 594.29,-75.09"/>
</a>
</g>
</g>
<!-- Node20&#45;&gt;Node7 -->
<g id="edge31_Node000020_Node000007" class="edge">
<title>Node20&#45;&gt;Node7</title>
<g id="a_edge31_Node000020_Node000007"><a xlink:title=" ">
<path fill="none" stroke="#63b8ff" d="M421.81,-223.05C393.06,-216.87 357.22,-209.18 330.74,-203.49"/>
<polygon fill="#63b8ff" stroke="#63b8ff" points="421.14,-226.48 431.66,-225.16 422.61,-219.64 421.14,-226.48"/>
</a>
</g>
</g>
<!-- Node21&#45;&gt;Node4 -->
<g id="edge33_Node000021_Node000004" class="edge">
<title>Node21&#45;&gt;Node4</title>
<g id="a_edge33_Node000021_Node000004"><a xlink:title=" ">
<path fill="none" stroke="#63b8ff" d="M959.57,-274.98C891.47,-279.03 779.45,-285.7 710.05,-289.84"/>
<polygon fill="#63b8ff" stroke="#63b8ff" points="959.92,-278.46 969.69,-274.38 959.5,-271.48 959.92,-278.46"/>
</a>
</g>
</g>
</g>
</svg>

<g id="navigator" transform="translate(0 0)" fill="#404254">
  <rect fill="#f2f5e9" fill-opacity="0.5" stroke="#606060" stroke-width=".5" x="0" y="0" width="60" height="60"/>
  <use id="zoomplus" xlink:href="#zoomPlus" x="17" y="9" onmousedown="handleZoom(evt,'in')"/>
  <use id="zoomminus" xlink:href="#zoomMin" x="42" y="9" onmousedown="handleZoom(evt,'out')"/>
  <use id="reset" xlink:href="#resetDef" x="30" y="36" onmousedown="handleReset()"/>
   <use id="arrowup" xlink:href="#arrowUp" x="0" y="0" onmousedown="handlePan(0,-1)"/>
  <use id="arrowright" xlink:href="#arrowRight" x="0" y="0" onmousedown="handlePan(1,0)"/>
  <use id="arrowdown" xlink:href="#arrowDown" x="0" y="0" onmousedown="handlePan(0,1)"/>
  <use id="arrowleft" xlink:href="#arrowLeft" x="0" y="0" onmousedown="handlePan(-1,0)"/>
</g>
<svg viewBox="0 0 15 15" width="100%" height="30px" preserveAspectRatio="xMaxYMin meet">
 <g id="arrow_out" transform="scale(0.3 0.3)">
  <a xlink:href="math_8h_a7ef9263b0a3a10c2cd00bb4dc0059d70_icgraph_org.svg" target="_base">
   <rect id="button" ry="5" rx="5" y="6" x="6" height="38" width="38"
        fill="#f2f5e9" fill-opacity="0.5" stroke="#606060" stroke-width="1.0"/>
   <path id="arrow"
     d="M 11.500037,31.436501 C 11.940474,20.09759 22.043105,11.32322 32.158766,21.979434 L 37.068811,17.246167 C 37.068811,17.246167 37.088388,32 37.088388,32 L 22.160133,31.978069 C 22.160133,31.978069 26.997745,27.140456 26.997745,27.140456 C 18.528582,18.264221 13.291696,25.230495 11.500037,31.436501 z"
     style="fill:#404040;"/>
  </a>
 </g>
</svg>

<style type='text/css'>
<![CDATA[
[data-mouse-over-selected='false'] { opacity: 0.7; }
[data-mouse-over-selected='true']  { opacity: 1.0; }
]]>
</style>
<script type="application/ecmascript"><![CDATA[
document.addEventListener('DOMContentLoaded', (event) => {
  highlightEdges();
  highlightAdjacentNodes();
});
]]></script>
</svg>
