<?xml version="1.0" encoding="UTF-8" standalone="no"?>
<!DOCTYPE svg PUBLIC "-//W3C//DTD SVG 1.1//EN"
 "http://www.w3.org/Graphics/SVG/1.1/DTD/svg11.dtd">
<!-- Generated by graphviz version 2.43.0 (0)
 -->
<!-- Title: DET3x3 Pages: 1 -->
<svg width="725pt" height="101pt"
 viewBox="0.00 0.00 725.00 101.00" xmlns="http://www.w3.org/2000/svg" xmlns:xlink="http://www.w3.org/1999/xlink">
<g id="graph0" class="graph" transform="scale(1 1) rotate(0) translate(4 97)">
<title>DET3x3</title>
<!-- Node1 -->
<g id="Node000001" class="node">
<title>Node1</title>
<g id="a_Node000001"><a xlink:title=" ">
<polygon fill="#999999" stroke="#666666" points="717,-56 663,-56 663,-37 717,-37 717,-56"/>
<text text-anchor="middle" x="690" y="-44" font-family="Helvetica,sans-Serif" font-size="10.00">DET3x3</text>
</a>
</g>
</g>
<!-- Node2 -->
<g id="Node000002" class="node">
<title>Node2</title>
<g id="a_Node000002"><a xlink:href="active__strain_8c.html#a4456f61d7effcb0451f1890e5bab63c6" target="_top" xlink:title="Compute elastic second Piola&#45;Kirchhoff stress for one element.">
<polygon fill="white" stroke="#666666" points="613.5,-93 521.5,-93 521.5,-74 613.5,-74 613.5,-93"/>
<text text-anchor="middle" x="567.5" y="-81" font-family="Helvetica,sans-Serif" font-size="10.00">ElemElasStress</text>
</a>
</g>
</g>
<!-- Node1&#45;&gt;Node2 -->
<g id="edge1_Node000001_Node000002" class="edge">
<title>Node1&#45;&gt;Node2</title>
<g id="a_edge1_Node000001_Node000002"><a xlink:title=" ">
<path fill="none" stroke="#63b8ff" d="M653.26,-57.48C636.25,-62.7 616.11,-68.88 599.72,-73.91"/>
<polygon fill="#63b8ff" stroke="#63b8ff" points="654.32,-60.81 662.85,-54.53 652.27,-54.12 654.32,-60.81"/>
</a>
</g>
</g>
<!-- Node8 -->
<g id="Node000008" class="node">
<title>Node8</title>
<g id="a_Node000008"><a xlink:href="active__strain_8c.html#af11cd9885b42c34a06fcbb8c5f4b21b1" target="_top" xlink:title="Compute elastic tangent tensor for one element.">
<polygon fill="white" stroke="#666666" points="627,-56 508,-56 508,-37 627,-37 627,-56"/>
<text text-anchor="middle" x="567.5" y="-44" font-family="Helvetica,sans-Serif" font-size="10.00">ElemElsTangMatTens</text>
</a>
</g>
</g>
<!-- Node1&#45;&gt;Node8 -->
<g id="edge6_Node000001_Node000008" class="edge">
<title>Node1&#45;&gt;Node8</title>
<g id="a_edge6_Node000001_Node000008"><a xlink:title=" ">
<path fill="none" stroke="#63b8ff" d="M652.72,-46.5C644.67,-46.5 635.93,-46.5 627.24,-46.5"/>
<polygon fill="#63b8ff" stroke="#63b8ff" points="652.85,-50 662.85,-46.5 652.85,-43 652.85,-50"/>
</a>
</g>
</g>
<!-- Node9 -->
<g id="Node000009" class="node">
<title>Node9</title>
<g id="a_Node000009"><a xlink:href="active__strain_8c.html#a9e8e9e018293087ec6b0ce58ce922403" target="_top" xlink:title="Update through&#45;thickness C33 contribution for one element.">
<polygon fill="white" stroke="#666666" points="608,-19 527,-19 527,0 608,0 608,-19"/>
<text text-anchor="middle" x="567.5" y="-7" font-family="Helvetica,sans-Serif" font-size="10.00">ModElemC33</text>
</a>
</g>
</g>
<!-- Node1&#45;&gt;Node9 -->
<g id="edge8_Node000001_Node000009" class="edge">
<title>Node1&#45;&gt;Node9</title>
<g id="a_edge8_Node000001_Node000009"><a xlink:title=" ">
<path fill="none" stroke="#63b8ff" d="M653.26,-35.52C636.25,-30.3 616.11,-24.12 599.72,-19.09"/>
<polygon fill="#63b8ff" stroke="#63b8ff" points="652.27,-38.88 662.85,-38.47 654.32,-32.19 652.27,-38.88"/>
</a>
</g>
</g>
<!-- Node3 -->
<g id="Node000003" class="node">
<title>Node3</title>
<g id="a_Node000003"><a xlink:href="active__strain_8c.html#a3017cdcf59a9d394ac18948cec6e94cf" target="_top" xlink:title="Solve local thickness equation (C33) for one element.">
<polygon fill="white" stroke="#666666" points="472,-56 385,-56 385,-37 472,-37 472,-56"/>
<text text-anchor="middle" x="428.5" y="-44" font-family="Helvetica,sans-Serif" font-size="10.00">ElemC33Solve</text>
</a>
</g>
</g>
<!-- Node2&#45;&gt;Node3 -->
<g id="edge2_Node000002_Node000003" class="edge">
<title>Node2&#45;&gt;Node3</title>
<g id="a_edge2_Node000002_Node000003"><a xlink:title=" ">
<path fill="none" stroke="#63b8ff" d="M521.37,-71.31C503.1,-66.38 482.31,-60.76 465.14,-56.12"/>
<polygon fill="#63b8ff" stroke="#63b8ff" points="520.65,-74.74 531.22,-73.97 522.48,-67.99 520.65,-74.74"/>
</a>
</g>
</g>
<!-- Node4 -->
<g id="Node000004" class="node">
<title>Node4</title>
<g id="a_Node000004"><a xlink:href="active__strain_8c.html#a693fb698122674ff7df6dd47ac75167c" target="_top" xlink:title="Run per&#45;element precomputations before global internal&#45;force assembly.">
<polygon fill="white" stroke="#666666" points="349,-56 252,-56 252,-37 349,-37 349,-56"/>
<text text-anchor="middle" x="300.5" y="-44" font-family="Helvetica,sans-Serif" font-size="10.00">FInternalPreCalc</text>
</a>
</g>
</g>
<!-- Node3&#45;&gt;Node4 -->
<g id="edge3_Node000003_Node000004" class="edge">
<title>Node3&#45;&gt;Node4</title>
<g id="a_edge3_Node000003_Node000004"><a xlink:title=" ">
<path fill="none" stroke="#63b8ff" d="M374.73,-46.5C366.3,-46.5 357.62,-46.5 349.31,-46.5"/>
<polygon fill="#63b8ff" stroke="#63b8ff" points="374.84,-50 384.84,-46.5 374.84,-43 374.84,-50"/>
</a>
</g>
</g>
<!-- Node5 -->
<g id="Node000005" class="node">
<title>Node5</title>
<g id="a_Node000005"><a xlink:href="active__strain_8c.html#a3bac899c10052c346d2afe9eccbac71d" target="_top" xlink:title="Assemble global internal force vector for active&#45;strain mechanics.">
<polygon fill="white" stroke="#666666" points="216,-56 140,-56 140,-37 216,-37 216,-56"/>
<text text-anchor="middle" x="178" y="-44" font-family="Helvetica,sans-Serif" font-size="10.00">FInternalAct</text>
</a>
</g>
</g>
<!-- Node4&#45;&gt;Node5 -->
<g id="edge4_Node000004_Node000005" class="edge">
<title>Node4&#45;&gt;Node5</title>
<g id="a_edge4_Node000004_Node000005"><a xlink:title=" ">
<path fill="none" stroke="#63b8ff" d="M241.77,-46.5C233.09,-46.5 224.34,-46.5 216.25,-46.5"/>
<polygon fill="#63b8ff" stroke="#63b8ff" points="241.88,-50 251.88,-46.5 241.88,-43 241.88,-50"/>
</a>
</g>
</g>
<!-- Node6 -->
<g id="Node000006" class="node">
<title>Node6</title>
<g id="a_Node000006"><a xlink:href="main_8c.html#a9a070a6f408cadb404b0ee7fbc74c576" target="_top" xlink:title=" ">
<polygon fill="#fff0f0" stroke="red" points="104,-56 0,-56 0,-37 104,-37 104,-56"/>
<text text-anchor="middle" x="52" y="-44" font-family="Helvetica,sans-Serif" font-size="10.00">FormFunctionFEM</text>
</a>
</g>
</g>
<!-- Node5&#45;&gt;Node6 -->
<g id="edge5_Node000005_Node000006" class="edge">
<title>Node5&#45;&gt;Node6</title>
<g id="a_edge5_Node000005_Node000006"><a xlink:title=" ">
<path fill="none" stroke="#63b8ff" d="M129.59,-46.5C121.35,-46.5 112.74,-46.5 104.39,-46.5"/>
<polygon fill="#63b8ff" stroke="#63b8ff" points="129.8,-50 139.8,-46.5 129.8,-43 129.8,-50"/>
</a>
</g>
</g>
<!-- Node8&#45;&gt;Node3 -->
<g id="edge7_Node000008_Node000003" class="edge">
<title>Node8&#45;&gt;Node3</title>
<g id="a_edge7_Node000008_Node000003"><a xlink:title=" ">
<path fill="none" stroke="#63b8ff" d="M497.51,-46.5C488.88,-46.5 480.27,-46.5 472.21,-46.5"/>
<polygon fill="#63b8ff" stroke="#63b8ff" points="497.6,-50 507.6,-46.5 497.6,-43 497.6,-50"/>
</a>
</g>
</g>
<!-- Node9&#45;&gt;Node3 -->
<g id="edge9_Node000009_Node000003" class="edge">
<title>Node9&#45;&gt;Node3</title>
<g id="a_edge9_Node000009_Node000003"><a xlink:title=" ">
<path fill="none" stroke="#63b8ff" d="M521.37,-21.69C503.1,-26.62 482.31,-32.24 465.14,-36.88"/>
<polygon fill="#63b8ff" stroke="#63b8ff" points="522.48,-25.01 531.22,-19.03 520.65,-18.26 522.48,-25.01"/>
</a>
</g>
</g>
</g>
</svg>
