<?xml version="1.0" encoding="UTF-8" standalone="no"?>
<!DOCTYPE svg PUBLIC "-//W3C//DTD SVG 1.1//EN"
 "http://www.w3.org/Graphics/SVG/1.1/DTD/svg11.dtd">
<!-- Generated by graphviz version 2.43.0 (0)
 -->
<!-- Title: PLUS Pages: 1 -->
<svg width="934pt" height="465pt"
 viewBox="0.00 0.00 934.00 464.69" xmlns="http://www.w3.org/2000/svg" xmlns:xlink="http://www.w3.org/1999/xlink">
<g id="graph0" class="graph" transform="scale(1 1) rotate(0) translate(4 460.69)">
<title>PLUS</title>
<!-- Node1 -->
<g id="Node000001" class="node">
<title>Node1</title>
<g id="a_Node000001"><a xlink:title=" ">
<polygon fill="#999999" stroke="#666666" points="926,-305.69 885,-305.69 885,-286.69 926,-286.69 926,-305.69"/>
<text text-anchor="middle" x="905.5" y="-293.69" font-family="Helvetica,sans-Serif" font-size="10.00">PLUS</text>
</a>
</g>
</g>
<!-- Node2 -->
<g id="Node000002" class="node">
<title>Node2</title>
<g id="a_Node000002"><a xlink:href="muscle__activation_8c.html#a93dfc79086ad3d8e7eb4a92d7c64565d" target="_top" xlink:title=" ">
<polygon fill="white" stroke="#666666" points="849,-456.69 721,-456.69 721,-437.69 849,-437.69 849,-456.69"/>
<text text-anchor="middle" x="785" y="-444.69" font-family="Helvetica,sans-Serif" font-size="10.00">CompInitCovBasisVecs</text>
</a>
</g>
</g>
<!-- Node1&#45;&gt;Node2 -->
<g id="edge1_Node000001_Node000002" class="edge">
<title>Node1&#45;&gt;Node2</title>
<g id="a_edge1_Node000001_Node000002"><a xlink:title=" ">
<path fill="none" stroke="#63b8ff" d="M901.71,-316.01C896.57,-345.08 882.84,-399.1 849,-429.19 845.17,-432.59 840.75,-435.35 836.05,-437.6"/>
<polygon fill="#63b8ff" stroke="#63b8ff" points="905.21,-316.29 903.33,-305.86 898.3,-315.19 905.21,-316.29"/>
</a>
</g>
</g>
<!-- Node4 -->
<g id="Node000004" class="node">
<title>Node4</title>
<g id="a_Node000004"><a xlink:href="active__strain_8c.html#a8ffbd5ab9cf4de7388a8a1b66bf48821" target="_top" xlink:title=" ">
<polygon fill="white" stroke="#666666" points="843,-419.69 727,-419.69 727,-400.69 843,-400.69 843,-419.69"/>
<text text-anchor="middle" x="785" y="-407.69" font-family="Helvetica,sans-Serif" font-size="10.00">Compute_a3_alpha_</text>
</a>
</g>
</g>
<!-- Node1&#45;&gt;Node4 -->
<g id="edge3_Node000001_Node000004" class="edge">
<title>Node1&#45;&gt;Node4</title>
<g id="a_edge3_Node000001_Node000004"><a xlink:title=" ">
<path fill="none" stroke="#63b8ff" d="M897.19,-315.14C888.52,-335.33 872.25,-366.96 849,-386.19 841.51,-392.38 832.26,-397.08 823.17,-400.61"/>
<polygon fill="#63b8ff" stroke="#63b8ff" points="900.48,-316.34 901.03,-305.76 894.01,-313.69 900.48,-316.34"/>
</a>
</g>
</g>
<!-- Node5 -->
<g id="Node000005" class="node">
<title>Node5</title>
<g id="a_Node000005"><a xlink:href="active__strain_8c.html#a993ef27fda81bb402cba4aa14fa9b51a" target="_top" xlink:title="Build current covariant/contravariant basis vectors for one element.">
<polygon fill="white" stroke="#666666" points="664.5,-418.69 580.5,-418.69 580.5,-399.69 664.5,-399.69 664.5,-418.69"/>
<text text-anchor="middle" x="622.5" y="-406.69" font-family="Helvetica,sans-Serif" font-size="10.00">ElemUpdateG</text>
</a>
</g>
</g>
<!-- Node1&#45;&gt;Node5 -->
<g id="edge16_Node000001_Node000005" class="edge">
<title>Node1&#45;&gt;Node5</title>
<g id="a_edge16_Node000001_Node000005"><a xlink:title=" ">
<path fill="none" stroke="#63b8ff" d="M890.23,-313.39C879.89,-324.82 864.96,-339.29 849,-348.19 817.47,-365.76 720.77,-388.39 664.77,-400.55"/>
<polygon fill="#63b8ff" stroke="#63b8ff" points="892.97,-315.58 896.9,-305.74 887.69,-310.98 892.97,-315.58"/>
</a>
</g>
</g>
<!-- Node13 -->
<g id="Node000013" class="node">
<title>Node13</title>
<g id="a_Node000013"><a xlink:href="lv__geometry_8c.html#aac85a6b370a9743adfb663de8acddbe1" target="_top" xlink:title=" ">
<polygon fill="white" stroke="#666666" points="195.5,-342.69 109.5,-342.69 109.5,-323.69 195.5,-323.69 195.5,-342.69"/>
<text text-anchor="middle" x="152.5" y="-330.69" font-family="Helvetica,sans-Serif" font-size="10.00">CreateLVMesh</text>
</a>
</g>
</g>
<!-- Node1&#45;&gt;Node13 -->
<g id="edge14_Node000001_Node000013" class="edge">
<title>Node1&#45;&gt;Node13</title>
<g id="a_edge14_Node000001_Node000013"><a xlink:title=" ">
<path fill="none" stroke="#63b8ff" d="M875.13,-304.42C866.74,-306.55 857.55,-308.66 849,-310.19 749.78,-327.89 724.29,-334.19 623.5,-334.19 623.5,-334.19 623.5,-334.19 465.5,-334.19 368.95,-334.19 255.59,-333.7 195.64,-333.41"/>
<polygon fill="#63b8ff" stroke="#63b8ff" points="876.09,-307.79 884.87,-301.86 874.31,-301.02 876.09,-307.79"/>
</a>
</g>
</g>
<!-- Node14 -->
<g id="Node000014" class="node">
<title>Node14</title>
<g id="a_Node000014"><a xlink:href="active__strain_8c.html#ace13f65688712f8ea397a734d66954ad" target="_top" xlink:title="Assemble element internal force vector into Fb_out.">
<polygon fill="white" stroke="#666666" points="662,-305.69 583,-305.69 583,-286.69 662,-286.69 662,-305.69"/>
<text text-anchor="middle" x="622.5" y="-293.69" font-family="Helvetica,sans-Serif" font-size="10.00">ElemUpdFint</text>
</a>
</g>
</g>
<!-- Node1&#45;&gt;Node14 -->
<g id="edge17_Node000001_Node000014" class="edge">
<title>Node1&#45;&gt;Node14</title>
<g id="a_edge17_Node000001_Node000014"><a xlink:title=" ">
<path fill="none" stroke="#63b8ff" d="M874.68,-296.19C823.56,-296.19 719.26,-296.19 662.46,-296.19"/>
<polygon fill="#63b8ff" stroke="#63b8ff" points="874.74,-299.69 884.74,-296.19 874.74,-292.69 874.74,-299.69"/>
</a>
</g>
</g>
<!-- Node15 -->
<g id="Node000015" class="node">
<title>Node15</title>
<g id="a_Node000015"><a xlink:href="bending_8c.html#a2b66770553fce4724cfb65b0f79e83b1" target="_top" xlink:title=" ">
<polygon fill="white" stroke="#666666" points="816,-267.69 754,-267.69 754,-248.69 816,-248.69 816,-267.69"/>
<text text-anchor="middle" x="785" y="-255.69" font-family="Helvetica,sans-Serif" font-size="10.00">Fbending</text>
</a>
</g>
</g>
<!-- Node1&#45;&gt;Node15 -->
<g id="edge19_Node000001_Node000015" class="edge">
<title>Node1&#45;&gt;Node15</title>
<g id="a_edge19_Node000001_Node000015"><a xlink:title=" ">
<path fill="none" stroke="#63b8ff" d="M875.21,-286.8C857.13,-281 834,-273.58 815.82,-267.75"/>
<polygon fill="#63b8ff" stroke="#63b8ff" points="874.34,-290.19 884.93,-289.91 876.48,-283.53 874.34,-290.19"/>
</a>
</g>
</g>
<!-- Node27 -->
<g id="Node000027" class="node">
<title>Node27</title>
<g id="a_Node000027"><a xlink:href="muscle__activation_8c.html#a357b3bb1950e461f37dc728929d29486" target="_top" xlink:title=" ">
<polygon fill="white" stroke="#666666" points="834,-230.69 736,-230.69 736,-211.69 834,-211.69 834,-230.69"/>
<text text-anchor="middle" x="785" y="-218.69" font-family="Helvetica,sans-Serif" font-size="10.00">FInternalAftActEl</text>
</a>
</g>
</g>
<!-- Node1&#45;&gt;Node27 -->
<g id="edge38_Node000001_Node000027" class="edge">
<title>Node1&#45;&gt;Node27</title>
<g id="a_edge38_Node000001_Node000027"><a xlink:title=" ">
<path fill="none" stroke="#63b8ff" d="M891.52,-278.6C881.29,-265.92 865.96,-249.32 849,-239.19 843.34,-235.81 837,-233.03 830.6,-230.76"/>
<polygon fill="#63b8ff" stroke="#63b8ff" points="888.85,-280.87 897.74,-286.62 894.38,-276.58 888.85,-280.87"/>
</a>
</g>
</g>
<!-- Node29 -->
<g id="Node000029" class="node">
<title>Node29</title>
<g id="a_Node000029"><a xlink:href="external_8c.html#a7a02ba548706ce1e1ab6a0215672d277" target="_top" xlink:title=" ">
<polygon fill="white" stroke="#666666" points="814.5,-193.69 755.5,-193.69 755.5,-174.69 814.5,-174.69 814.5,-193.69"/>
<text text-anchor="middle" x="785" y="-181.69" font-family="Helvetica,sans-Serif" font-size="10.00">GhostFix</text>
</a>
</g>
</g>
<!-- Node1&#45;&gt;Node29 -->
<g id="edge40_Node000001_Node000029" class="edge">
<title>Node1&#45;&gt;Node29</title>
<g id="a_edge40_Node000001_Node000029"><a xlink:title=" ">
<path fill="none" stroke="#63b8ff" d="M898.09,-276.95C890,-255.57 874.02,-221.52 849,-202.19 839.19,-194.61 826.31,-190.22 814.76,-187.68"/>
<polygon fill="#63b8ff" stroke="#63b8ff" points="894.87,-278.33 901.53,-286.57 901.46,-275.98 894.87,-278.33"/>
</a>
</g>
</g>
<!-- Node30 -->
<g id="Node000030" class="node">
<title>Node30</title>
<g id="a_Node000030"><a xlink:href="external_8c.html#a8fbf0cfd3df23a9f35e4a68970730468" target="_top" xlink:title=" ">
<polygon fill="white" stroke="#666666" points="818,-156.69 752,-156.69 752,-137.69 818,-137.69 818,-156.69"/>
<text text-anchor="middle" x="785" y="-144.69" font-family="Helvetica,sans-Serif" font-size="10.00">GhostFree</text>
</a>
</g>
</g>
<!-- Node1&#45;&gt;Node30 -->
<g id="edge41_Node000001_Node000030" class="edge">
<title>Node1&#45;&gt;Node30</title>
<g id="a_edge41_Node000001_Node000030"><a xlink:title=" ">
<path fill="none" stroke="#63b8ff" d="M901.62,-276.66C896.36,-248.02 882.48,-194.8 849,-165.19 840.48,-157.65 829,-153.26 818.18,-150.7"/>
<polygon fill="#63b8ff" stroke="#63b8ff" points="898.19,-277.37 903.29,-286.66 905.1,-276.22 898.19,-277.37"/>
</a>
</g>
</g>
<!-- Node3 -->
<g id="Node000003" class="node">
<title>Node3</title>
<g id="a_Node000003"><a xlink:href="muscle__activation_8c.html#aad998374ae4f3ca2c8f14b4c4b2aaafd" target="_top" xlink:title=" ">
<polygon fill="white" stroke="#666666" points="684,-456.69 561,-456.69 561,-437.69 684,-437.69 684,-456.69"/>
<text text-anchor="middle" x="622.5" y="-444.69" font-family="Helvetica,sans-Serif" font-size="10.00">InitMuscleActProblem</text>
</a>
</g>
</g>
<!-- Node2&#45;&gt;Node3 -->
<g id="edge2_Node000002_Node000003" class="edge">
<title>Node2&#45;&gt;Node3</title>
<g id="a_edge2_Node000002_Node000003"><a xlink:title=" ">
<path fill="none" stroke="#63b8ff" d="M710.34,-447.19C701.56,-447.19 692.68,-447.19 684.12,-447.19"/>
<polygon fill="#63b8ff" stroke="#63b8ff" points="710.57,-450.69 720.57,-447.19 710.57,-443.69 710.57,-450.69"/>
</a>
</g>
</g>
<!-- Node4&#45;&gt;Node5 -->
<g id="edge4_Node000004_Node000005" class="edge">
<title>Node4&#45;&gt;Node5</title>
<g id="a_edge4_Node000004_Node000005"><a xlink:title=" ">
<path fill="none" stroke="#63b8ff" d="M716.7,-409.77C699.05,-409.66 680.55,-409.54 664.72,-409.45"/>
<polygon fill="#63b8ff" stroke="#63b8ff" points="716.94,-413.27 726.96,-409.83 716.98,-406.27 716.94,-413.27"/>
</a>
</g>
</g>
<!-- Node6 -->
<g id="Node000006" class="node">
<title>Node6</title>
<g id="a_Node000006"><a xlink:href="active__strain_8c.html#a693fb698122674ff7df6dd47ac75167c" target="_top" xlink:title="Run per&#45;element precomputations before global internal&#45;force assembly.">
<polygon fill="white" stroke="#666666" points="515,-381.69 418,-381.69 418,-362.69 515,-362.69 515,-381.69"/>
<text text-anchor="middle" x="466.5" y="-369.69" font-family="Helvetica,sans-Serif" font-size="10.00">FInternalPreCalc</text>
</a>
</g>
</g>
<!-- Node5&#45;&gt;Node6 -->
<g id="edge5_Node000005_Node000006" class="edge">
<title>Node5&#45;&gt;Node6</title>
<g id="a_edge5_Node000005_Node000006"><a xlink:title=" ">
<path fill="none" stroke="#63b8ff" d="M571.87,-397.26C550.97,-392.25 526.99,-386.48 507.29,-381.75"/>
<polygon fill="#63b8ff" stroke="#63b8ff" points="571.3,-400.73 581.84,-399.66 572.94,-393.92 571.3,-400.73"/>
</a>
</g>
</g>
<!-- Node10 -->
<g id="Node000010" class="node">
<title>Node10</title>
<g id="a_Node000010"><a xlink:href="cuda__processes_8c.html#a627a27228923fbc3e63f0f4e1c5aa765" target="_top" xlink:title=" ">
<polygon fill="white" stroke="#666666" points="207,-441.69 98,-441.69 98,-422.69 207,-422.69 207,-441.69"/>
<text text-anchor="middle" x="152.5" y="-429.69" font-family="Helvetica,sans-Serif" font-size="10.00">RunCudaProcesses</text>
</a>
</g>
</g>
<!-- Node5&#45;&gt;Node10 -->
<g id="edge9_Node000005_Node000010" class="edge">
<title>Node5&#45;&gt;Node10</title>
<g id="a_edge9_Node000005_Node000010"><a xlink:title=" ">
<path fill="none" stroke="#63b8ff" d="M571.25,-420.79C556.14,-423.79 539.47,-426.61 524,-428.19 411.69,-439.64 279.24,-437.27 207.05,-434.65"/>
<polygon fill="#63b8ff" stroke="#63b8ff" points="572.33,-424.14 581.42,-418.7 570.92,-417.28 572.33,-424.14"/>
</a>
</g>
</g>
<!-- Node11 -->
<g id="Node000011" class="node">
<title>Node11</title>
<g id="a_Node000011"><a xlink:href="dmplex__geom_8c.html#aa2b24de348fff4079de659ff63ba9b85" target="_top" xlink:title="Synchronise remote coordinates and evaluate the geometry kernel for all local cells.">
<polygon fill="white" stroke="#666666" points="524,-418.69 409,-418.69 409,-399.69 524,-399.69 524,-418.69"/>
<text text-anchor="middle" x="466.5" y="-406.69" font-family="Helvetica,sans-Serif" font-size="10.00">RunLocalGeometry_</text>
</a>
</g>
</g>
<!-- Node5&#45;&gt;Node11 -->
<g id="edge11_Node000005_Node000011" class="edge">
<title>Node5&#45;&gt;Node11</title>
<g id="a_edge11_Node000005_Node000011"><a xlink:title=" ">
<path fill="none" stroke="#63b8ff" d="M569.84,-409.19C555.19,-409.19 539.16,-409.19 524.23,-409.19"/>
<polygon fill="#63b8ff" stroke="#63b8ff" points="570.23,-412.69 580.23,-409.19 570.23,-405.69 570.23,-412.69"/>
</a>
</g>
</g>
<!-- Node7 -->
<g id="Node000007" class="node">
<title>Node7</title>
<g id="a_Node000007"><a xlink:href="active__strain_8c.html#a3bac899c10052c346d2afe9eccbac71d" target="_top" xlink:title="Assemble global internal force vector for active&#45;strain mechanics.">
<polygon fill="white" stroke="#666666" points="356.5,-305.69 280.5,-305.69 280.5,-286.69 356.5,-286.69 356.5,-305.69"/>
<text text-anchor="middle" x="318.5" y="-293.69" font-family="Helvetica,sans-Serif" font-size="10.00">FInternalAct</text>
</a>
</g>
</g>
<!-- Node6&#45;&gt;Node7 -->
<g id="edge6_Node000006_Node000007" class="edge">
<title>Node6&#45;&gt;Node7</title>
<g id="a_edge6_Node000006_Node000007"><a xlink:title=" ">
<path fill="none" stroke="#63b8ff" d="M438.11,-357.93C408.8,-342.67 363.1,-318.89 337.84,-305.74"/>
<polygon fill="#63b8ff" stroke="#63b8ff" points="436.52,-361.05 447.01,-362.56 439.75,-354.84 436.52,-361.05"/>
</a>
</g>
</g>
<!-- Node8 -->
<g id="Node000008" class="node">
<title>Node8</title>
<g id="a_Node000008"><a xlink:href="main_8c.html#a9a070a6f408cadb404b0ee7fbc74c576" target="_top" xlink:title=" ">
<polygon fill="white" stroke="#666666" points="204.5,-305.69 100.5,-305.69 100.5,-286.69 204.5,-286.69 204.5,-305.69"/>
<text text-anchor="middle" x="152.5" y="-293.69" font-family="Helvetica,sans-Serif" font-size="10.00">FormFunctionFEM</text>
</a>
</g>
</g>
<!-- Node7&#45;&gt;Node8 -->
<g id="edge7_Node000007_Node000008" class="edge">
<title>Node7&#45;&gt;Node8</title>
<g id="a_edge7_Node000007_Node000008"><a xlink:title=" ">
<path fill="none" stroke="#63b8ff" d="M270.2,-296.19C249.65,-296.19 225.52,-296.19 204.55,-296.19"/>
<polygon fill="#63b8ff" stroke="#63b8ff" points="270.29,-299.69 280.29,-296.19 270.29,-292.69 270.29,-299.69"/>
</a>
</g>
</g>
<!-- Node9 -->
<g id="Node000009" class="node">
<title>Node9</title>
<g id="a_Node000009"><a xlink:href="main_8c.html#a3c04138a5bfe5d72780bb7e82a18e627" target="_top" xlink:title=" ">
<polygon fill="white" stroke="#666666" points="41,-323.69 0,-323.69 0,-304.69 41,-304.69 41,-323.69"/>
<text text-anchor="middle" x="20.5" y="-311.69" font-family="Helvetica,sans-Serif" font-size="10.00">main</text>
</a>
</g>
</g>
<!-- Node8&#45;&gt;Node9 -->
<g id="edge8_Node000008_Node000009" class="edge">
<title>Node8&#45;&gt;Node9</title>
<g id="a_edge8_Node000008_Node000009"><a xlink:title=" ">
<path fill="none" stroke="#63b8ff" d="M90.15,-304.68C72.44,-307.14 54.37,-309.64 41.22,-311.46"/>
<polygon fill="#63b8ff" stroke="#63b8ff" points="91.07,-308.09 100.49,-303.25 90.11,-301.16 91.07,-308.09"/>
</a>
</g>
</g>
<!-- Node10&#45;&gt;Node9 -->
<g id="edge10_Node000010_Node000009" class="edge">
<title>Node10&#45;&gt;Node9</title>
<g id="a_edge10_Node000010_Node000009"><a xlink:title=" ">
<path fill="none" stroke="#63b8ff" d="M110.02,-418.8C98.54,-413.83 86.6,-407.35 77,-399.19 51.49,-377.5 33.27,-341.18 25.58,-323.9"/>
<polygon fill="#63b8ff" stroke="#63b8ff" points="108.92,-422.13 119.5,-422.64 111.54,-415.64 108.92,-422.13"/>
</a>
</g>
</g>
<!-- Node12 -->
<g id="Node000012" class="node">
<title>Node12</title>
<g id="a_Node000012"><a xlink:href="dmplex__geom_8c.html#ac4ecb4d172bee5f7c59a9fdf2680bb51" target="_top" xlink:title="Benchmark: run the full distributed DMPlex geometry pipeline for all bodies.">
<polygon fill="white" stroke="#666666" points="228,-389.69 77,-389.69 77,-370.69 228,-370.69 228,-389.69"/>
<text text-anchor="middle" x="152.5" y="-377.69" font-family="Helvetica,sans-Serif" font-size="10.00">RunDMPlexGeomProcesses</text>
</a>
</g>
</g>
<!-- Node11&#45;&gt;Node12 -->
<g id="edge12_Node000011_Node000012" class="edge">
<title>Node11&#45;&gt;Node12</title>
<g id="a_edge12_Node000011_Node000012"><a xlink:title=" ">
<path fill="none" stroke="#63b8ff" d="M398.92,-403C348.79,-398.34 280.07,-391.95 228.09,-387.12"/>
<polygon fill="#63b8ff" stroke="#63b8ff" points="398.72,-406.5 409,-403.94 399.37,-399.53 398.72,-406.5"/>
</a>
</g>
</g>
<!-- Node12&#45;&gt;Node9 -->
<g id="edge13_Node000012_Node000009" class="edge">
<title>Node12&#45;&gt;Node9</title>
<g id="a_edge13_Node000012_Node000009"><a xlink:title=" ">
<path fill="none" stroke="#63b8ff" d="M111.36,-367.12C100.01,-362.89 87.81,-357.81 77,-352.19 61.26,-343.99 44.64,-332.13 33.74,-323.85"/>
<polygon fill="#63b8ff" stroke="#63b8ff" points="110.47,-370.52 121.06,-370.61 112.84,-363.93 110.47,-370.52"/>
</a>
</g>
</g>
<!-- Node13&#45;&gt;Node9 -->
<g id="edge15_Node000013_Node000009" class="edge">
<title>Node13&#45;&gt;Node9</title>
<g id="a_edge15_Node000013_Node000009"><a xlink:title=" ">
<path fill="none" stroke="#63b8ff" d="M99.16,-325.54C78.81,-322.56 56.73,-319.34 41.33,-317.09"/>
<polygon fill="#63b8ff" stroke="#63b8ff" points="98.89,-329.04 109.29,-327.02 99.9,-322.11 98.89,-329.04"/>
</a>
</g>
</g>
<!-- Node14&#45;&gt;Node7 -->
<g id="edge18_Node000014_Node000007" class="edge">
<title>Node14&#45;&gt;Node7</title>
<g id="a_edge18_Node000014_Node000007"><a xlink:title=" ">
<path fill="none" stroke="#63b8ff" d="M572.92,-296.19C512.71,-296.19 411.38,-296.19 356.88,-296.19"/>
<polygon fill="#63b8ff" stroke="#63b8ff" points="572.94,-299.69 582.94,-296.19 572.94,-292.69 572.94,-299.69"/>
</a>
</g>
</g>
<!-- Node16 -->
<g id="Node000016" class="node">
<title>Node16</title>
<g id="a_Node000016"><a xlink:href="main_8c.html#a59ccabe25c63661e6e66b44209b0f162" target="_top" xlink:title=" ">
<polygon fill="white" stroke="#666666" points="652.5,-248.69 592.5,-248.69 592.5,-229.69 652.5,-229.69 652.5,-248.69"/>
<text text-anchor="middle" x="622.5" y="-236.69" font-family="Helvetica,sans-Serif" font-size="10.00">FInternal</text>
</a>
</g>
</g>
<!-- Node15&#45;&gt;Node16 -->
<g id="edge20_Node000015_Node000016" class="edge">
<title>Node15&#45;&gt;Node16</title>
<g id="a_edge20_Node000015_Node000016"><a xlink:title=" ">
<path fill="none" stroke="#63b8ff" d="M743.82,-253.43C715.51,-250.08 678.25,-245.67 652.74,-242.65"/>
<polygon fill="#63b8ff" stroke="#63b8ff" points="743.47,-256.92 753.81,-254.62 744.29,-249.96 743.47,-256.92"/>
</a>
</g>
</g>
<!-- Node16&#45;&gt;Node8 -->
<g id="edge22_Node000016_Node000008" class="edge">
<title>Node16&#45;&gt;Node8</title>
<g id="a_edge22_Node000016_Node000008"><a xlink:title=" ">
<path fill="none" stroke="#63b8ff" d="M581.87,-242.56C515.81,-248.37 379.07,-261.2 264,-277.19 244.53,-279.9 223.22,-283.42 204.56,-286.7"/>
<polygon fill="#63b8ff" stroke="#63b8ff" points="582.57,-246.01 592.23,-241.66 581.96,-239.04 582.57,-246.01"/>
</a>
</g>
</g>
<!-- Node17 -->
<g id="Node000017" class="node">
<title>Node17</title>
<g id="a_Node000017"><a xlink:href="main_8c.html#aac0575d69dba68d64a6c0f65c2d8f635" target="_top" xlink:title=" ">
<polygon fill="white" stroke="#666666" points="493.5,-99.69 439.5,-99.69 439.5,-80.69 493.5,-80.69 493.5,-99.69"/>
<text text-anchor="middle" x="466.5" y="-87.69" font-family="Helvetica,sans-Serif" font-size="10.00">Contact</text>
</a>
</g>
</g>
<!-- Node16&#45;&gt;Node17 -->
<g id="edge21_Node000016_Node000017" class="edge">
<title>Node16&#45;&gt;Node17</title>
<g id="a_edge21_Node000016_Node000017"><a xlink:title=" ">
<path fill="none" stroke="#63b8ff" d="M582.52,-233.25C574.25,-230.44 566.17,-226.29 560,-220.19 522.82,-183.43 561.02,-145.11 524,-108.19 515.91,-100.12 504.21,-95.66 493.56,-93.21"/>
<polygon fill="#63b8ff" stroke="#63b8ff" points="581.63,-236.64 592.21,-235.99 583.53,-229.9 581.63,-236.64"/>
</a>
</g>
</g>
<!-- Node18 -->
<g id="Node000018" class="node">
<title>Node18</title>
<g id="a_Node000018"><a xlink:href="main_8c.html#ad3a8e8f5b2e1871122784b2cd3dc1c8c" target="_top" xlink:title=" ">
<polygon fill="white" stroke="#666666" points="494,-229.69 439,-229.69 439,-210.69 494,-210.69 494,-229.69"/>
<text text-anchor="middle" x="466.5" y="-217.69" font-family="Helvetica,sans-Serif" font-size="10.00">FormRK</text>
</a>
</g>
</g>
<!-- Node16&#45;&gt;Node18 -->
<g id="edge23_Node000016_Node000018" class="edge">
<title>Node16&#45;&gt;Node18</title>
<g id="a_edge23_Node000016_Node000018"><a xlink:title=" ">
<path fill="none" stroke="#63b8ff" d="M582.06,-234.32C554.48,-230.92 518.39,-226.47 494.15,-223.48"/>
<polygon fill="#63b8ff" stroke="#63b8ff" points="581.82,-237.82 592.17,-235.57 582.68,-230.87 581.82,-237.82"/>
</a>
</g>
</g>
<!-- Node19 -->
<g id="Node000019" class="node">
<title>Node19</title>
<g id="a_Node000019"><a xlink:href="inverse_8c.html#a8ccb34384a9c46d52bb413dcd177c67b" target="_top" xlink:title=" ">
<polygon fill="white" stroke="#666666" points="506.5,-136.69 426.5,-136.69 426.5,-117.69 506.5,-117.69 506.5,-136.69"/>
<text text-anchor="middle" x="466.5" y="-124.69" font-family="Helvetica,sans-Serif" font-size="10.00">ResidualCalc</text>
</a>
</g>
</g>
<!-- Node16&#45;&gt;Node19 -->
<g id="edge25_Node000016_Node000019" class="edge">
<title>Node16&#45;&gt;Node19</title>
<g id="a_edge25_Node000016_Node000019"><a xlink:title=" ">
<path fill="none" stroke="#63b8ff" d="M582.66,-230.35C574.85,-227.72 566.93,-224.38 560,-220.19 522.2,-197.33 488.57,-155.71 474.5,-136.89"/>
<polygon fill="#63b8ff" stroke="#63b8ff" points="581.82,-233.75 592.41,-233.32 583.87,-227.06 581.82,-233.75"/>
</a>
</g>
</g>
<!-- Node18&#45;&gt;Node9 -->
<g id="edge24_Node000018_Node000009" class="edge">
<title>Node18&#45;&gt;Node9</title>
<g id="a_edge24_Node000018_Node000009"><a xlink:title=" ">
<path fill="none" stroke="#63b8ff" d="M428.38,-220.28C357.62,-221.6 199.57,-230.09 77,-277.19 60.14,-283.67 43.22,-295.99 32.57,-304.63"/>
<polygon fill="#63b8ff" stroke="#63b8ff" points="428.63,-223.78 438.57,-220.13 428.52,-216.78 428.63,-223.78"/>
</a>
</g>
</g>
<!-- Node20 -->
<g id="Node000020" class="node">
<title>Node20</title>
<g id="a_Node000020"><a xlink:href="mlp_8c.html#a95587eada79194109e216fe2d1536aa5" target="_top" xlink:title=" ">
<polygon fill="white" stroke="#666666" points="354,-191.69 283,-191.69 283,-172.69 354,-172.69 354,-191.69"/>
<text text-anchor="middle" x="318.5" y="-179.69" font-family="Helvetica,sans-Serif" font-size="10.00">compute_R</text>
</a>
</g>
</g>
<!-- Node19&#45;&gt;Node20 -->
<g id="edge26_Node000019_Node000020" class="edge">
<title>Node19&#45;&gt;Node20</title>
<g id="a_edge26_Node000019_Node000020"><a xlink:title=" ">
<path fill="none" stroke="#63b8ff" d="M431.85,-140.56C414.35,-147.45 392.58,-155.91 373,-163.19 364.5,-166.35 355.2,-169.69 346.77,-172.68"/>
<polygon fill="#63b8ff" stroke="#63b8ff" points="433.6,-143.64 441.62,-136.71 431.03,-137.12 433.6,-143.64"/>
</a>
</g>
</g>
<!-- Node22 -->
<g id="Node000022" class="node">
<title>Node22</title>
<g id="a_Node000022"><a xlink:href="inverse_8c.html#a5a46d0c408c2a4905101ca00ed320825" target="_top" xlink:title=" ">
<polygon fill="white" stroke="#666666" points="359,-154.69 278,-154.69 278,-135.69 359,-135.69 359,-154.69"/>
<text text-anchor="middle" x="318.5" y="-142.69" font-family="Helvetica,sans-Serif" font-size="10.00">FungJacobian</text>
</a>
</g>
</g>
<!-- Node19&#45;&gt;Node22 -->
<g id="edge28_Node000019_Node000022" class="edge">
<title>Node19&#45;&gt;Node22</title>
<g id="a_edge28_Node000019_Node000022"><a xlink:title=" ">
<path fill="none" stroke="#63b8ff" d="M416.33,-133.25C397.74,-135.54 376.85,-138.12 359.24,-140.29"/>
<polygon fill="#63b8ff" stroke="#63b8ff" points="416.88,-136.71 426.37,-132.01 416.02,-129.76 416.88,-136.71"/>
</a>
</g>
</g>
<!-- Node23 -->
<g id="Node000023" class="node">
<title>Node23</title>
<g id="a_Node000023"><a xlink:href="inverse_8c.html#a63c0a7ac76584f0dab82764698b5d878" target="_top" xlink:title=" ">
<polygon fill="white" stroke="#666666" points="183.5,-99.69 121.5,-99.69 121.5,-80.69 183.5,-80.69 183.5,-99.69"/>
<text text-anchor="middle" x="152.5" y="-87.69" font-family="Helvetica,sans-Serif" font-size="10.00">InvSolver</text>
</a>
</g>
</g>
<!-- Node19&#45;&gt;Node23 -->
<g id="edge35_Node000019_Node000023" class="edge">
<title>Node19&#45;&gt;Node23</title>
<g id="a_edge35_Node000019_Node000023"><a xlink:title=" ">
<path fill="none" stroke="#63b8ff" d="M417.47,-114.6C414.41,-112.75 411.55,-110.62 409,-108.19 376.96,-77.56 409.56,-40.24 373,-15.19 302.24,33.3 197.27,-50.82 164.01,-80.45"/>
<polygon fill="#63b8ff" stroke="#63b8ff" points="415.98,-117.76 426.49,-119.13 419.12,-111.51 415.98,-117.76"/>
</a>
</g>
</g>
<!-- Node24 -->
<g id="Node000024" class="node">
<title>Node24</title>
<g id="a_Node000024"><a xlink:href="inverse_8c.html#a6dcb60291ae68ad8fa0ccea39658279a" target="_top" xlink:title=" ">
<polygon fill="white" stroke="#666666" points="367.5,-117.69 269.5,-117.69 269.5,-98.69 367.5,-98.69 367.5,-117.69"/>
<text text-anchor="middle" x="318.5" y="-105.69" font-family="Helvetica,sans-Serif" font-size="10.00">FungUniJacobian</text>
</a>
</g>
</g>
<!-- Node19&#45;&gt;Node24 -->
<g id="edge31_Node000019_Node000024" class="edge">
<title>Node19&#45;&gt;Node24</title>
<g id="a_edge31_Node000019_Node000024"><a xlink:title=" ">
<path fill="none" stroke="#63b8ff" d="M416.32,-120.79C400.61,-118.74 383.24,-116.48 367.6,-114.45"/>
<polygon fill="#63b8ff" stroke="#63b8ff" points="416.01,-124.28 426.37,-122.1 416.91,-117.34 416.01,-124.28"/>
</a>
</g>
</g>
<!-- Node25 -->
<g id="Node000025" class="node">
<title>Node25</title>
<g id="a_Node000025"><a xlink:href="inverse_8c.html#ad779d411aa186efcdfb8e192c52d04b0" target="_top" xlink:title=" ">
<polygon fill="white" stroke="#666666" points="373,-80.69 264,-80.69 264,-61.69 373,-61.69 373,-80.69"/>
<text text-anchor="middle" x="318.5" y="-68.69" font-family="Helvetica,sans-Serif" font-size="10.00">grad_R_wrt_E_field</text>
</a>
</g>
</g>
<!-- Node19&#45;&gt;Node25 -->
<g id="edge33_Node000019_Node000025" class="edge">
<title>Node19&#45;&gt;Node25</title>
<g id="a_edge33_Node000019_Node000025"><a xlink:title=" ">
<path fill="none" stroke="#63b8ff" d="M424.62,-114.32C419.32,-112.39 413.99,-110.33 409,-108.19 392.37,-101.06 389.63,-96.32 373,-89.19 365.88,-86.14 358.07,-83.26 350.66,-80.73"/>
<polygon fill="#63b8ff" stroke="#63b8ff" points="423.48,-117.63 434.08,-117.62 425.79,-111.02 423.48,-117.63"/>
</a>
</g>
</g>
<!-- Node26 -->
<g id="Node000026" class="node">
<title>Node26</title>
<g id="a_Node000026"><a xlink:href="inverse_8c.html#a9c6b1db7cc8e3f7771140e7920429ab3" target="_top" xlink:title=" ">
<polygon fill="white" stroke="#666666" points="347.5,-43.69 289.5,-43.69 289.5,-24.69 347.5,-24.69 347.5,-43.69"/>
<text text-anchor="middle" x="318.5" y="-31.69" font-family="Helvetica,sans-Serif" font-size="10.00">Jacobian</text>
</a>
</g>
</g>
<!-- Node19&#45;&gt;Node26 -->
<g id="edge36_Node000019_Node000026" class="edge">
<title>Node19&#45;&gt;Node26</title>
<g id="a_edge36_Node000019_Node000026"><a xlink:title=" ">
<path fill="none" stroke="#63b8ff" d="M417.29,-113.6C414.37,-111.99 411.57,-110.19 409,-108.19 385.66,-90 396.34,-70.38 373,-52.19 365.66,-46.47 356.4,-42.51 347.65,-39.8"/>
<polygon fill="#63b8ff" stroke="#63b8ff" points="415.82,-116.78 426.35,-117.91 418.82,-110.46 415.82,-116.78"/>
</a>
</g>
</g>
<!-- Node21 -->
<g id="Node000021" class="node">
<title>Node21</title>
<g id="a_Node000021"><a xlink:href="mlp_8c.html#a2aeef94f6b174527c5b7983c25229818" target="_top" xlink:title=" ">
<polygon fill="white" stroke="#666666" points="198.5,-191.69 106.5,-191.69 106.5,-172.69 198.5,-172.69 198.5,-191.69"/>
<text text-anchor="middle" x="152.5" y="-179.69" font-family="Helvetica,sans-Serif" font-size="10.00">backward_pass</text>
</a>
</g>
</g>
<!-- Node20&#45;&gt;Node21 -->
<g id="edge27_Node000020_Node000021" class="edge">
<title>Node20&#45;&gt;Node21</title>
<g id="a_edge27_Node000020_Node000021"><a xlink:title=" ">
<path fill="none" stroke="#63b8ff" d="M272.52,-182.19C249.5,-182.19 221.55,-182.19 198.52,-182.19"/>
<polygon fill="#63b8ff" stroke="#63b8ff" points="272.72,-185.69 282.72,-182.19 272.72,-178.69 272.72,-185.69"/>
</a>
</g>
</g>
<!-- Node22&#45;&gt;Node23 -->
<g id="edge29_Node000022_Node000023" class="edge">
<title>Node22&#45;&gt;Node23</title>
<g id="a_edge29_Node000022_Node000023"><a xlink:title=" ">
<path fill="none" stroke="#63b8ff" d="M279.3,-132.38C249.57,-122.41 208.96,-108.79 182.01,-99.75"/>
<polygon fill="#63b8ff" stroke="#63b8ff" points="278.34,-135.75 288.93,-135.61 280.57,-129.11 278.34,-135.75"/>
</a>
</g>
</g>
<!-- Node23&#45;&gt;Node9 -->
<g id="edge30_Node000023_Node000009" class="edge">
<title>Node23&#45;&gt;Node9</title>
<g id="a_edge30_Node000023_Node000009"><a xlink:title=" ">
<path fill="none" stroke="#63b8ff" d="M130.74,-106.14C114.23,-119.75 91.57,-140.66 77,-163.19 45.76,-211.51 28.86,-279.84 23.45,-304.69"/>
<polygon fill="#63b8ff" stroke="#63b8ff" points="133.13,-108.71 138.73,-99.72 128.74,-103.25 133.13,-108.71"/>
</a>
</g>
</g>
<!-- Node24&#45;&gt;Node23 -->
<g id="edge32_Node000024_Node000023" class="edge">
<title>Node24&#45;&gt;Node23</title>
<g id="a_edge32_Node000024_Node000023"><a xlink:title=" ">
<path fill="none" stroke="#63b8ff" d="M258.92,-101.76C233.56,-98.98 204.95,-95.84 183.94,-93.53"/>
<polygon fill="#63b8ff" stroke="#63b8ff" points="258.86,-105.27 269.18,-102.89 259.62,-98.32 258.86,-105.27"/>
</a>
</g>
</g>
<!-- Node25&#45;&gt;Node23 -->
<g id="edge34_Node000025_Node000023" class="edge">
<title>Node25&#45;&gt;Node23</title>
<g id="a_edge34_Node000025_Node000023"><a xlink:title=" ">
<path fill="none" stroke="#63b8ff" d="M253.67,-78.58C229.65,-81.37 203.44,-84.4 183.85,-86.67"/>
<polygon fill="#63b8ff" stroke="#63b8ff" points="254.27,-82.04 263.8,-77.41 253.46,-75.08 254.27,-82.04"/>
</a>
</g>
</g>
<!-- Node26&#45;&gt;Node23 -->
<g id="edge37_Node000026_Node000023" class="edge">
<title>Node26&#45;&gt;Node23</title>
<g id="a_edge37_Node000026_Node000023"><a xlink:title=" ">
<path fill="none" stroke="#63b8ff" d="M279.97,-46.78C274.6,-48.59 269.16,-50.43 264,-52.19 235.77,-61.79 203.52,-72.9 181.18,-80.61"/>
<polygon fill="#63b8ff" stroke="#63b8ff" points="281.08,-50.1 289.44,-43.59 278.85,-43.47 281.08,-50.1"/>
</a>
</g>
</g>
<!-- Node28 -->
<g id="Node000028" class="node">
<title>Node28</title>
<g id="a_Node000028"><a xlink:href="muscle__activation_8c.html#a5794b91b41d38582fd698b653b53330e" target="_top" xlink:title=" ">
<polygon fill="white" stroke="#666666" points="685,-211.69 560,-211.69 560,-192.69 685,-192.69 685,-211.69"/>
<text text-anchor="middle" x="622.5" y="-199.69" font-family="Helvetica,sans-Serif" font-size="10.00">UpdateFInternalAftAct</text>
</a>
</g>
</g>
<!-- Node27&#45;&gt;Node28 -->
<g id="edge39_Node000027_Node000028" class="edge">
<title>Node27&#45;&gt;Node28</title>
<g id="a_edge39_Node000027_Node000028"><a xlink:title=" ">
<path fill="none" stroke="#63b8ff" d="M725.89,-214.31C712.6,-212.74 698.44,-211.06 685.02,-209.47"/>
<polygon fill="#63b8ff" stroke="#63b8ff" points="725.5,-217.79 735.84,-215.49 726.33,-210.84 725.5,-217.79"/>
</a>
</g>
</g>
</g>
</svg>
