<?xml version="1.0" encoding="UTF-8" standalone="no"?>
<!DOCTYPE svg PUBLIC "-//W3C//DTD SVG 1.1//EN"
 "http://www.w3.org/Graphics/SVG/1.1/DTD/svg11.dtd">
<!-- Generated by graphviz version 2.43.0 (0)
 -->
<!-- Title: StressLinear Pages: 1 -->
<svg width="771pt" height="328pt"
 viewBox="0.00 0.00 771.00 328.00" xmlns="http://www.w3.org/2000/svg" xmlns:xlink="http://www.w3.org/1999/xlink">
<g id="graph0" class="graph" transform="scale(1 1) rotate(0) translate(4 324)">
<title>StressLinear</title>
<!-- Node1 -->
<g id="Node000001" class="node">
<title>Node1</title>
<g id="a_Node000001"><a xlink:title=" ">
<polygon fill="#999999" stroke="#666666" points="763,-263 686,-263 686,-244 763,-244 763,-263"/>
<text text-anchor="middle" x="724.5" y="-251" font-family="Helvetica,sans-Serif" font-size="10.00">StressLinear</text>
</a>
</g>
</g>
<!-- Node2 -->
<g id="Node000002" class="node">
<title>Node2</title>
<g id="a_Node000002"><a xlink:href="membrane_8c.html#a9fee56a81a4f404db4630a996f38013c" target="_top" xlink:title=" ">
<polygon fill="white" stroke="#666666" points="650,-263 574,-263 574,-244 650,-244 650,-263"/>
<text text-anchor="middle" x="612" y="-251" font-family="Helvetica,sans-Serif" font-size="10.00">Fmembrane</text>
</a>
</g>
</g>
<!-- Node1&#45;&gt;Node2 -->
<g id="edge1_Node000001_Node000002" class="edge">
<title>Node1&#45;&gt;Node2</title>
<g id="a_edge1_Node000001_Node000002"><a xlink:title=" ">
<path fill="none" stroke="#63b8ff" d="M675.58,-253.5C667.07,-253.5 658.33,-253.5 650.17,-253.5"/>
<polygon fill="#63b8ff" stroke="#63b8ff" points="675.78,-257 685.78,-253.5 675.78,-250 675.78,-257"/>
</a>
</g>
</g>
<!-- Node3 -->
<g id="Node000003" class="node">
<title>Node3</title>
<g id="a_Node000003"><a xlink:href="main_8c.html#a59ccabe25c63661e6e66b44209b0f162" target="_top" xlink:title=" ">
<polygon fill="white" stroke="#666666" points="538,-263 478,-263 478,-244 538,-244 538,-263"/>
<text text-anchor="middle" x="508" y="-251" font-family="Helvetica,sans-Serif" font-size="10.00">FInternal</text>
</a>
</g>
</g>
<!-- Node2&#45;&gt;Node3 -->
<g id="edge2_Node000002_Node000003" class="edge">
<title>Node2&#45;&gt;Node3</title>
<g id="a_edge2_Node000002_Node000003"><a xlink:title=" ">
<path fill="none" stroke="#63b8ff" d="M563.8,-253.5C555.09,-253.5 546.23,-253.5 538.25,-253.5"/>
<polygon fill="#63b8ff" stroke="#63b8ff" points="563.89,-257 573.89,-253.5 563.89,-250 563.89,-257"/>
</a>
</g>
</g>
<!-- Node4 -->
<g id="Node000004" class="node">
<title>Node4</title>
<g id="a_Node000004"><a xlink:href="main_8c.html#aac0575d69dba68d64a6c0f65c2d8f635" target="_top" xlink:title=" ">
<polygon fill="white" stroke="#666666" points="429,-320 375,-320 375,-301 429,-301 429,-320"/>
<text text-anchor="middle" x="402" y="-308" font-family="Helvetica,sans-Serif" font-size="10.00">Contact</text>
</a>
</g>
</g>
<!-- Node3&#45;&gt;Node4 -->
<g id="edge3_Node000003_Node000004" class="edge">
<title>Node3&#45;&gt;Node4</title>
<g id="a_edge3_Node000003_Node000004"><a xlink:title=" ">
<path fill="none" stroke="#63b8ff" d="M480.37,-268.09C461.51,-278.43 436.75,-292 420.38,-300.97"/>
<polygon fill="#63b8ff" stroke="#63b8ff" points="482.27,-271.04 489.36,-263.17 478.91,-264.91 482.27,-271.04"/>
</a>
</g>
</g>
<!-- Node5 -->
<g id="Node000005" class="node">
<title>Node5</title>
<g id="a_Node000005"><a xlink:href="main_8c.html#a9a070a6f408cadb404b0ee7fbc74c576" target="_top" xlink:title=" ">
<polygon fill="white" stroke="#666666" points="181,-282 77,-282 77,-263 181,-263 181,-282"/>
<text text-anchor="middle" x="129" y="-270" font-family="Helvetica,sans-Serif" font-size="10.00">FormFunctionFEM</text>
</a>
</g>
</g>
<!-- Node3&#45;&gt;Node5 -->
<g id="edge4_Node000003_Node000005" class="edge">
<title>Node3&#45;&gt;Node5</title>
<g id="a_edge4_Node000003_Node000005"><a xlink:title=" ">
<path fill="none" stroke="#63b8ff" d="M467.34,-255.5C398.6,-258.96 257.38,-266.08 181.28,-269.92"/>
<polygon fill="#63b8ff" stroke="#63b8ff" points="467.92,-258.97 477.73,-254.98 467.57,-251.98 467.92,-258.97"/>
</a>
</g>
</g>
<!-- Node7 -->
<g id="Node000007" class="node">
<title>Node7</title>
<g id="a_Node000007"><a xlink:href="main_8c.html#ad3a8e8f5b2e1871122784b2cd3dc1c8c" target="_top" xlink:title=" ">
<polygon fill="white" stroke="#666666" points="429.5,-244 374.5,-244 374.5,-225 429.5,-225 429.5,-244"/>
<text text-anchor="middle" x="402" y="-232" font-family="Helvetica,sans-Serif" font-size="10.00">FormRK</text>
</a>
</g>
</g>
<!-- Node3&#45;&gt;Node7 -->
<g id="edge6_Node000003_Node000007" class="edge">
<title>Node3&#45;&gt;Node7</title>
<g id="a_edge6_Node000003_Node000007"><a xlink:title=" ">
<path fill="none" stroke="#63b8ff" d="M467.81,-246.34C455.03,-244.01 441.16,-241.47 429.54,-239.35"/>
<polygon fill="#63b8ff" stroke="#63b8ff" points="467.29,-249.8 477.75,-248.16 468.55,-242.92 467.29,-249.8"/>
</a>
</g>
</g>
<!-- Node8 -->
<g id="Node000008" class="node">
<title>Node8</title>
<g id="a_Node000008"><a xlink:href="inverse_8c.html#a8ccb34384a9c46d52bb413dcd177c67b" target="_top" xlink:title=" ">
<polygon fill="white" stroke="#666666" points="442,-131 362,-131 362,-112 442,-112 442,-131"/>
<text text-anchor="middle" x="402" y="-119" font-family="Helvetica,sans-Serif" font-size="10.00">ResidualCalc</text>
</a>
</g>
</g>
<!-- Node3&#45;&gt;Node8 -->
<g id="edge8_Node000003_Node000008" class="edge">
<title>Node3&#45;&gt;Node8</title>
<g id="a_edge8_Node000003_Node000008"><a xlink:title=" ">
<path fill="none" stroke="#63b8ff" d="M492.98,-235.7C470.71,-207.44 427.99,-153.22 410.62,-131.18"/>
<polygon fill="#63b8ff" stroke="#63b8ff" points="490.25,-237.89 499.18,-243.58 495.74,-233.56 490.25,-237.89"/>
</a>
</g>
</g>
<!-- Node6 -->
<g id="Node000006" class="node">
<title>Node6</title>
<g id="a_Node000006"><a xlink:href="main_8c.html#a3c04138a5bfe5d72780bb7e82a18e627" target="_top" xlink:title=" ">
<polygon fill="white" stroke="#666666" points="41,-244 0,-244 0,-225 41,-225 41,-244"/>
<text text-anchor="middle" x="20.5" y="-232" font-family="Helvetica,sans-Serif" font-size="10.00">main</text>
</a>
</g>
</g>
<!-- Node5&#45;&gt;Node6 -->
<g id="edge5_Node000005_Node000006" class="edge">
<title>Node5&#45;&gt;Node6</title>
<g id="a_edge5_Node000005_Node000006"><a xlink:title=" ">
<path fill="none" stroke="#63b8ff" d="M91.56,-259.5C74.73,-253.49 55.39,-246.59 41.31,-241.57"/>
<polygon fill="#63b8ff" stroke="#63b8ff" points="90.53,-262.85 101.13,-262.91 92.88,-256.25 90.53,-262.85"/>
</a>
</g>
</g>
<!-- Node7&#45;&gt;Node6 -->
<g id="edge7_Node000007_Node000006" class="edge">
<title>Node7&#45;&gt;Node6</title>
<g id="a_edge7_Node000007_Node000006"><a xlink:title=" ">
<path fill="none" stroke="#63b8ff" d="M363.84,-234.5C284.59,-234.5 101.25,-234.5 41.04,-234.5"/>
<polygon fill="#63b8ff" stroke="#63b8ff" points="364.31,-238 374.31,-234.5 364.31,-231 364.31,-238"/>
</a>
</g>
</g>
<!-- Node9 -->
<g id="Node000009" class="node">
<title>Node9</title>
<g id="a_Node000009"><a xlink:href="mlp_8c.html#a95587eada79194109e216fe2d1536aa5" target="_top" xlink:title=" ">
<polygon fill="white" stroke="#666666" points="307,-206 236,-206 236,-187 307,-187 307,-206"/>
<text text-anchor="middle" x="271.5" y="-194" font-family="Helvetica,sans-Serif" font-size="10.00">compute_R</text>
</a>
</g>
</g>
<!-- Node8&#45;&gt;Node9 -->
<g id="edge9_Node000008_Node000009" class="edge">
<title>Node8&#45;&gt;Node9</title>
<g id="a_edge9_Node000008_Node000009"><a xlink:title=" ">
<path fill="none" stroke="#63b8ff" d="M382.88,-137.98C368.37,-150.48 347.02,-167.36 326,-178.5 319.85,-181.76 313,-184.59 306.3,-186.99"/>
<polygon fill="#63b8ff" stroke="#63b8ff" points="385.39,-140.43 390.58,-131.2 380.77,-135.18 385.39,-140.43"/>
</a>
</g>
</g>
<!-- Node11 -->
<g id="Node000011" class="node">
<title>Node11</title>
<g id="a_Node000011"><a xlink:href="inverse_8c.html#a5a46d0c408c2a4905101ca00ed320825" target="_top" xlink:title=" ">
<polygon fill="white" stroke="#666666" points="312,-169 231,-169 231,-150 312,-150 312,-169"/>
<text text-anchor="middle" x="271.5" y="-157" font-family="Helvetica,sans-Serif" font-size="10.00">FungJacobian</text>
</a>
</g>
</g>
<!-- Node8&#45;&gt;Node11 -->
<g id="edge11_Node000008_Node000011" class="edge">
<title>Node8&#45;&gt;Node11</title>
<g id="a_edge11_Node000008_Node000011"><a xlink:title=" ">
<path fill="none" stroke="#63b8ff" d="M358.61,-134.04C341.13,-139.2 321.2,-145.1 304.92,-149.91"/>
<polygon fill="#63b8ff" stroke="#63b8ff" points="359.98,-137.28 368.57,-131.09 357.99,-130.57 359.98,-137.28"/>
</a>
</g>
</g>
<!-- Node12 -->
<g id="Node000012" class="node">
<title>Node12</title>
<g id="a_Node000012"><a xlink:href="inverse_8c.html#a63c0a7ac76584f0dab82764698b5d878" target="_top" xlink:title=" ">
<polygon fill="white" stroke="#666666" points="160,-112 98,-112 98,-93 160,-93 160,-112"/>
<text text-anchor="middle" x="129" y="-100" font-family="Helvetica,sans-Serif" font-size="10.00">InvSolver</text>
</a>
</g>
</g>
<!-- Node8&#45;&gt;Node12 -->
<g id="edge18_Node000008_Node000012" class="edge">
<title>Node8&#45;&gt;Node12</title>
<g id="a_edge18_Node000008_Node000012"><a xlink:title=" ">
<path fill="none" stroke="#63b8ff" d="M351.87,-118.06C296.07,-114.14 206.76,-107.88 160.3,-104.62"/>
<polygon fill="#63b8ff" stroke="#63b8ff" points="351.66,-121.55 361.88,-118.76 352.15,-114.57 351.66,-121.55"/>
</a>
</g>
</g>
<!-- Node13 -->
<g id="Node000013" class="node">
<title>Node13</title>
<g id="a_Node000013"><a xlink:href="inverse_8c.html#a6dcb60291ae68ad8fa0ccea39658279a" target="_top" xlink:title=" ">
<polygon fill="white" stroke="#666666" points="320.5,-93 222.5,-93 222.5,-74 320.5,-74 320.5,-93"/>
<text text-anchor="middle" x="271.5" y="-81" font-family="Helvetica,sans-Serif" font-size="10.00">FungUniJacobian</text>
</a>
</g>
</g>
<!-- Node8&#45;&gt;Node13 -->
<g id="edge14_Node000008_Node000013" class="edge">
<title>Node8&#45;&gt;Node13</title>
<g id="a_edge14_Node000008_Node000013"><a xlink:title=" ">
<path fill="none" stroke="#63b8ff" d="M358.61,-108.96C341.13,-103.8 321.2,-97.9 304.92,-93.09"/>
<polygon fill="#63b8ff" stroke="#63b8ff" points="357.99,-112.43 368.57,-111.91 359.98,-105.72 357.99,-112.43"/>
</a>
</g>
</g>
<!-- Node14 -->
<g id="Node000014" class="node">
<title>Node14</title>
<g id="a_Node000014"><a xlink:href="inverse_8c.html#ad779d411aa186efcdfb8e192c52d04b0" target="_top" xlink:title=" ">
<polygon fill="white" stroke="#666666" points="326,-56 217,-56 217,-37 326,-37 326,-56"/>
<text text-anchor="middle" x="271.5" y="-44" font-family="Helvetica,sans-Serif" font-size="10.00">grad_R_wrt_E_field</text>
</a>
</g>
</g>
<!-- Node8&#45;&gt;Node14 -->
<g id="edge16_Node000008_Node000014" class="edge">
<title>Node8&#45;&gt;Node14</title>
<g id="a_edge16_Node000008_Node000014"><a xlink:title=" ">
<path fill="none" stroke="#63b8ff" d="M382.28,-105.01C367.72,-92.83 346.6,-76.52 326,-65.5 319.22,-61.87 311.61,-58.69 304.29,-56.02"/>
<polygon fill="#63b8ff" stroke="#63b8ff" points="380.16,-107.8 390.03,-111.63 384.7,-102.47 380.16,-107.8"/>
</a>
</g>
</g>
<!-- Node15 -->
<g id="Node000015" class="node">
<title>Node15</title>
<g id="a_Node000015"><a xlink:href="inverse_8c.html#a9c6b1db7cc8e3f7771140e7920429ab3" target="_top" xlink:title=" ">
<polygon fill="white" stroke="#666666" points="300.5,-19 242.5,-19 242.5,0 300.5,0 300.5,-19"/>
<text text-anchor="middle" x="271.5" y="-7" font-family="Helvetica,sans-Serif" font-size="10.00">Jacobian</text>
</a>
</g>
</g>
<!-- Node8&#45;&gt;Node15 -->
<g id="edge19_Node000008_Node000015" class="edge">
<title>Node8&#45;&gt;Node15</title>
<g id="a_edge19_Node000008_Node000015"><a xlink:title=" ">
<path fill="none" stroke="#63b8ff" d="M390.74,-103.03C378.12,-81.91 354.77,-47.65 326,-27.5 318.45,-22.22 309.24,-18.39 300.59,-15.65"/>
<polygon fill="#63b8ff" stroke="#63b8ff" points="387.73,-104.82 395.77,-111.72 393.79,-101.31 387.73,-104.82"/>
</a>
</g>
</g>
<!-- Node10 -->
<g id="Node000010" class="node">
<title>Node10</title>
<g id="a_Node000010"><a xlink:href="mlp_8c.html#a2aeef94f6b174527c5b7983c25229818" target="_top" xlink:title=" ">
<polygon fill="white" stroke="#666666" points="175,-206 83,-206 83,-187 175,-187 175,-206"/>
<text text-anchor="middle" x="129" y="-194" font-family="Helvetica,sans-Serif" font-size="10.00">backward_pass</text>
</a>
</g>
</g>
<!-- Node9&#45;&gt;Node10 -->
<g id="edge10_Node000009_Node000010" class="edge">
<title>Node9&#45;&gt;Node10</title>
<g id="a_edge10_Node000009_Node000010"><a xlink:title=" ">
<path fill="none" stroke="#63b8ff" d="M225.53,-196.5C209.45,-196.5 191.32,-196.5 175.21,-196.5"/>
<polygon fill="#63b8ff" stroke="#63b8ff" points="225.77,-200 235.77,-196.5 225.77,-193 225.77,-200"/>
</a>
</g>
</g>
<!-- Node11&#45;&gt;Node12 -->
<g id="edge12_Node000011_Node000012" class="edge">
<title>Node11&#45;&gt;Node12</title>
<g id="a_edge12_Node000011_Node000012"><a xlink:title=" ">
<path fill="none" stroke="#63b8ff" d="M237.62,-146.16C211.85,-135.7 176.62,-121.41 153.59,-112.07"/>
<polygon fill="#63b8ff" stroke="#63b8ff" points="236.4,-149.44 246.98,-149.96 239.03,-142.96 236.4,-149.44"/>
</a>
</g>
</g>
<!-- Node12&#45;&gt;Node6 -->
<g id="edge13_Node000012_Node000006" class="edge">
<title>Node12&#45;&gt;Node6</title>
<g id="a_edge13_Node000012_Node000006"><a xlink:title=" ">
<path fill="none" stroke="#63b8ff" d="M113.64,-120.3C90.83,-148.56 47.09,-202.78 29.31,-224.82"/>
<polygon fill="#63b8ff" stroke="#63b8ff" points="116.44,-122.4 120,-112.42 110.99,-118.01 116.44,-122.4"/>
</a>
</g>
</g>
<!-- Node13&#45;&gt;Node12 -->
<g id="edge15_Node000013_Node000012" class="edge">
<title>Node13&#45;&gt;Node12</title>
<g id="a_edge15_Node000013_Node000012"><a xlink:title=" ">
<path fill="none" stroke="#63b8ff" d="M211.88,-91.43C194.18,-93.82 175.47,-96.35 160.41,-98.39"/>
<polygon fill="#63b8ff" stroke="#63b8ff" points="212.71,-94.85 222.15,-90.04 211.77,-87.91 212.71,-94.85"/>
</a>
</g>
</g>
<!-- Node14&#45;&gt;Node12 -->
<g id="edge17_Node000014_Node000012" class="edge">
<title>Node14&#45;&gt;Node12</title>
<g id="a_edge17_Node000014_Node000012"><a xlink:title=" ">
<path fill="none" stroke="#63b8ff" d="M233.05,-59.47C227.64,-61.44 222.17,-63.49 217,-65.5 194.52,-74.26 169.17,-85.16 151.66,-92.85"/>
<polygon fill="#63b8ff" stroke="#63b8ff" points="234.38,-62.71 242.61,-56.04 232.02,-56.12 234.38,-62.71"/>
</a>
</g>
</g>
<!-- Node15&#45;&gt;Node12 -->
<g id="edge20_Node000015_Node000012" class="edge">
<title>Node15&#45;&gt;Node12</title>
<g id="a_edge20_Node000015_Node000012"><a xlink:title=" ">
<path fill="none" stroke="#63b8ff" d="M232.71,-20.15C227.29,-22.27 221.9,-24.71 217,-27.5 184.77,-45.87 153.45,-77.14 138.73,-92.86"/>
<polygon fill="#63b8ff" stroke="#63b8ff" points="234.16,-23.35 242.41,-16.7 231.81,-16.76 234.16,-23.35"/>
</a>
</g>
</g>
</g>
</svg>
