<?xml version="1.0" encoding="UTF-8" standalone="no"?>
<!DOCTYPE svg PUBLIC "-//W3C//DTD SVG 1.1//EN"
 "http://www.w3.org/Graphics/SVG/1.1/DTD/svg11.dtd">
<!-- Generated by graphviz version 2.43.0 (0)
 -->
<!-- Title: Fmembrane Pages: 1 -->
<svg width="342pt" height="212pt"
 viewBox="0.00 0.00 342.00 212.00" xmlns="http://www.w3.org/2000/svg" xmlns:xlink="http://www.w3.org/1999/xlink">

<svg id="main" version="1.1" xmlns="http://www.w3.org/2000/svg" xmlns:xlink="http://www.w3.org/1999/xlink" xml:space="preserve" onload="init(evt)">
<style type="text/css"><![CDATA[
.node, .edge {opacity: 0.7;}
.node.selected, .edge.selected {opacity: 1;}
.edge:hover path { stroke: red; }
.edge:hover polygon { stroke: red; fill: red; }
]]></style>
<script type="application/ecmascript" xlink:href="svg.min.js"/>
<svg id="graph" class="graph">
<g id="graph0" class="graph" transform="scale(1 1) rotate(0) translate(4 208)">
<title>Fmembrane</title>
<!-- Node1 -->
<g id="Node000001" class="node">
<title>Node1</title>
<g id="a_Node000001"><a xlink:title=" ">
<polygon fill="#999999" stroke="#666666" points="76,-111 0,-111 0,-92 76,-92 76,-111"/>
<text text-anchor="middle" x="38" y="-99" font-family="Helvetica,sans-Serif" font-size="10.00">Fmembrane</text>
</a>
</g>
</g>
<!-- Node2 -->
<g id="Node000002" class="node">
<title>Node2</title>
<g id="a_Node000002"><a xlink:href="material_8c.html#a3243950933f3559f19edcb5421360526" target="_top" xlink:title=" ">
<polygon fill="white" stroke="#666666" points="248,-187 112,-187 112,-168 248,-168 248,-187"/>
<text text-anchor="middle" x="180" y="-175" font-family="Helvetica,sans-Serif" font-size="10.00">CalcCurvStressStrainxyz</text>
</a>
</g>
</g>
<!-- Node1&#45;&gt;Node2 -->
<g id="edge1_Node000001_Node000002" class="edge">
<title>Node1&#45;&gt;Node2</title>
<g id="a_edge1_Node000001_Node000002"><a xlink:title=" ">
<path fill="none" stroke="#63b8ff" d="M50.24,-111.02C64.06,-122.34 88.55,-141.25 112,-153.5 119.96,-157.66 128.79,-161.39 137.37,-164.6"/>
<polygon fill="#63b8ff" stroke="#63b8ff" points="136.29,-167.93 146.88,-168 138.64,-161.34 136.29,-167.93"/>
</a>
</g>
</g>
<!-- Node3 -->
<g id="Node000003" class="node">
<title>Node3</title>
<g id="a_Node000003"><a xlink:href="math_8c.html#a870a70f4845a041458d9bdb0dd7aabd3" target="_top" xlink:title=" ">
<polygon fill="white" stroke="#666666" points="328,-204 290,-204 290,-185 328,-185 328,-204"/>
<text text-anchor="middle" x="309" y="-192" font-family="Helvetica,sans-Serif" font-size="10.00">DOT</text>
</a>
</g>
</g>
<!-- Node1&#45;&gt;Node3 -->
<g id="edge2_Node000001_Node000003" class="edge">
<title>Node1&#45;&gt;Node3</title>
<g id="a_edge2_Node000001_Node000003"><a xlink:title=" ">
<path fill="none" stroke="#63b8ff" d="M75.51,-111.08C131.05,-125.75 232.04,-152.76 248,-159.5 260.85,-164.92 274.33,-172.59 285.25,-179.36"/>
<polygon fill="#63b8ff" stroke="#63b8ff" points="283.44,-182.36 293.75,-184.77 287.2,-176.45 283.44,-182.36"/>
</a>
</g>
</g>
<!-- Node4 -->
<g id="Node000004" class="node">
<title>Node4</title>
<g id="a_Node000004"><a xlink:href="material_8c.html#aa93862cca1fe83c736219df7d4a91374" target="_top" xlink:title=" ">
<polygon fill="white" stroke="#666666" points="239.5,-111 120.5,-111 120.5,-92 239.5,-92 239.5,-111"/>
<text text-anchor="middle" x="180" y="-99" font-family="Helvetica,sans-Serif" font-size="10.00">MembraneNonLinear</text>
</a>
</g>
</g>
<!-- Node1&#45;&gt;Node4 -->
<g id="edge3_Node000001_Node000004" class="edge">
<title>Node1&#45;&gt;Node4</title>
<g id="a_edge3_Node000001_Node000004"><a xlink:title=" ">
<path fill="none" stroke="#63b8ff" d="M76.15,-101.5C86.61,-101.5 98.34,-101.5 110.03,-101.5"/>
<polygon fill="#63b8ff" stroke="#63b8ff" points="110.27,-105 120.27,-101.5 110.27,-98 110.27,-105"/>
</a>
</g>
</g>
<!-- Node7 -->
<g id="Node000007" class="node">
<title>Node7</title>
<g id="a_Node000007"><a xlink:href="math_8c.html#a9d08a9d2fd8e8932e92b8ab054b19269" target="_top" xlink:title=" ">
<polygon fill="white" stroke="#666666" points="334,-19 284,-19 284,0 334,0 334,-19"/>
<text text-anchor="middle" x="309" y="-7" font-family="Helvetica,sans-Serif" font-size="10.00">MINUS</text>
</a>
</g>
</g>
<!-- Node1&#45;&gt;Node7 -->
<g id="edge10_Node000001_Node000007" class="edge">
<title>Node1&#45;&gt;Node7</title>
<g id="a_edge10_Node000001_Node000007"><a xlink:title=" ">
<path fill="none" stroke="#63b8ff" d="M76.33,-92.31C127.59,-79.49 216.96,-56.37 248,-43.5 260.49,-38.32 273.63,-31.1 284.43,-24.64"/>
<polygon fill="#63b8ff" stroke="#63b8ff" points="286.54,-27.45 293.23,-19.23 282.88,-21.48 286.54,-27.45"/>
</a>
</g>
</g>
<!-- Node10 -->
<g id="Node000010" class="node">
<title>Node10</title>
<g id="a_Node000010"><a xlink:href="material_8c.html#a431e1e9b5ceabfa4edc2920b70296b35" target="_top" xlink:title=" ">
<polygon fill="white" stroke="#666666" points="218.5,-35 141.5,-35 141.5,-16 218.5,-16 218.5,-35"/>
<text text-anchor="middle" x="180" y="-23" font-family="Helvetica,sans-Serif" font-size="10.00">StressLinear</text>
</a>
</g>
</g>
<!-- Node1&#45;&gt;Node10 -->
<g id="edge11_Node000001_Node000010" class="edge">
<title>Node1&#45;&gt;Node10</title>
<g id="a_edge11_Node000001_Node000010"><a xlink:title=" ">
<path fill="none" stroke="#63b8ff" d="M50.24,-91.98C64.06,-80.66 88.55,-61.75 112,-49.5 119.96,-45.34 128.79,-41.61 137.37,-38.4"/>
<polygon fill="#63b8ff" stroke="#63b8ff" points="138.64,-41.66 146.88,-35 136.29,-35.07 138.64,-41.66"/>
</a>
</g>
</g>
<!-- Node4&#45;&gt;Node3 -->
<g id="edge5_Node000004_Node000003" class="edge">
<title>Node4&#45;&gt;Node3</title>
<g id="a_edge5_Node000004_Node000003"><a xlink:title=" ">
<path fill="none" stroke="#63b8ff" d="M220.25,-111.06C229.92,-114.59 239.84,-119.29 248,-125.5 270.09,-142.29 264.67,-156.6 284,-176.5 284.64,-177.15 285.3,-177.8 285.97,-178.44"/>
<polygon fill="#63b8ff" stroke="#63b8ff" points="283.77,-181.16 293.68,-184.91 288.27,-175.8 283.77,-181.16"/>
</a>
</g>
</g>
<!-- Node5 -->
<g id="Node000005" class="node">
<title>Node5</title>
<g id="a_Node000005"><a xlink:href="math_8c.html#a9d60990d26296194c921d537ea26f3c7" target="_top" xlink:title=" ">
<polygon fill="white" stroke="#666666" points="334,-167 284,-167 284,-148 334,-148 334,-167"/>
<text text-anchor="middle" x="309" y="-155" font-family="Helvetica,sans-Serif" font-size="10.00">CROSS</text>
</a>
</g>
</g>
<!-- Node4&#45;&gt;Node5 -->
<g id="edge4_Node000004_Node000005" class="edge">
<title>Node4&#45;&gt;Node5</title>
<g id="a_edge4_Node000004_Node000005"><a xlink:title=" ">
<path fill="none" stroke="#63b8ff" d="M210.72,-111.1C222.48,-115.17 236.03,-120.2 248,-125.5 259.57,-130.62 271.97,-137.07 282.48,-142.83"/>
<polygon fill="#63b8ff" stroke="#63b8ff" points="281.08,-146.05 291.51,-147.87 284.48,-139.94 281.08,-146.05"/>
</a>
</g>
</g>
<!-- Node6 -->
<g id="Node000006" class="node">
<title>Node6</title>
<g id="a_Node000006"><a xlink:href="math_8c.html#a3f73e4cd9eab76eeee084eabf2b98ec9" target="_top" xlink:title=" ">
<polygon fill="white" stroke="#666666" points="326,-130 292,-130 292,-111 326,-111 326,-130"/>
<text text-anchor="middle" x="309" y="-118" font-family="Helvetica,sans-Serif" font-size="10.00">INV</text>
</a>
</g>
</g>
<!-- Node4&#45;&gt;Node6 -->
<g id="edge6_Node000004_Node000006" class="edge">
<title>Node4&#45;&gt;Node6</title>
<g id="a_edge6_Node000004_Node000006"><a xlink:title=" ">
<path fill="none" stroke="#63b8ff" d="M239.67,-110.28C254.45,-112.49 269.58,-114.75 281.83,-116.58"/>
<polygon fill="#63b8ff" stroke="#63b8ff" points="281.37,-120.05 291.78,-118.07 282.41,-113.13 281.37,-120.05"/>
</a>
</g>
</g>
<!-- Node4&#45;&gt;Node7 -->
<g id="edge7_Node000004_Node000007" class="edge">
<title>Node4&#45;&gt;Node7</title>
<g id="a_edge7_Node000004_Node000007"><a xlink:title=" ">
<path fill="none" stroke="#63b8ff" d="M220.21,-91.88C229.88,-88.36 239.81,-83.67 248,-77.5 269.88,-61.03 264.83,-47.05 284,-27.5 284.64,-26.85 285.3,-26.2 285.98,-25.56"/>
<polygon fill="#63b8ff" stroke="#63b8ff" points="288.28,-28.21 293.7,-19.11 283.79,-22.84 288.28,-28.21"/>
</a>
</g>
</g>
<!-- Node8 -->
<g id="Node000008" class="node">
<title>Node8</title>
<g id="a_Node000008"><a xlink:href="math_8c.html#aa52f6593cf3e5453c8c6c94343d3fb37" target="_top" xlink:title=" ">
<polygon fill="white" stroke="#666666" points="328,-93 290,-93 290,-74 328,-74 328,-93"/>
<text text-anchor="middle" x="309" y="-81" font-family="Helvetica,sans-Serif" font-size="10.00">SIZE</text>
</a>
</g>
</g>
<!-- Node4&#45;&gt;Node8 -->
<g id="edge8_Node000004_Node000008" class="edge">
<title>Node4&#45;&gt;Node8</title>
<g id="a_edge8_Node000004_Node000008"><a xlink:title=" ">
<path fill="none" stroke="#63b8ff" d="M239.67,-93.18C253.6,-91.21 267.84,-89.19 279.7,-87.51"/>
<polygon fill="#63b8ff" stroke="#63b8ff" points="280.42,-90.94 289.83,-86.07 279.44,-84.01 280.42,-90.94"/>
</a>
</g>
</g>
<!-- Node9 -->
<g id="Node000009" class="node">
<title>Node9</title>
<g id="a_Node000009"><a xlink:href="math_8c.html#ac616709995f2ae60c4308ffa328337d7" target="_top" xlink:title=" ">
<polygon fill="white" stroke="#666666" points="329.5,-56 288.5,-56 288.5,-37 329.5,-37 329.5,-56"/>
<text text-anchor="middle" x="309" y="-44" font-family="Helvetica,sans-Serif" font-size="10.00">UNIT</text>
</a>
</g>
</g>
<!-- Node4&#45;&gt;Node9 -->
<g id="edge9_Node000004_Node000009" class="edge">
<title>Node4&#45;&gt;Node9</title>
<g id="a_edge9_Node000004_Node000009"><a xlink:title=" ">
<path fill="none" stroke="#63b8ff" d="M210.35,-91.93C222.18,-87.83 235.88,-82.78 248,-77.5 259.36,-72.56 271.56,-66.41 281.98,-60.9"/>
<polygon fill="#63b8ff" stroke="#63b8ff" points="283.81,-63.89 290.97,-56.07 280.5,-57.72 283.81,-63.89"/>
</a>
</g>
</g>
</g>
</svg>
</svg>

<style type='text/css'>
<![CDATA[
[data-mouse-over-selected='false'] { opacity: 0.7; }
[data-mouse-over-selected='true']  { opacity: 1.0; }
]]>
</style>
<script type="application/ecmascript"><![CDATA[
document.addEventListener('DOMContentLoaded', (event) => {
  highlightEdges();
  highlightAdjacentNodes();
});
]]></script>
</svg>
