<?xml version="1.0" encoding="UTF-8" standalone="no"?>
<!DOCTYPE svg PUBLIC "-//W3C//DTD SVG 1.1//EN"
 "http://www.w3.org/Graphics/SVG/1.1/DTD/svg11.dtd">
<!-- Generated by graphviz version 2.43.0 (0)
 -->
<!-- Title: compute_R Pages: 1 -->
<!--zoomable 569 -->

<svg id="main" version="1.1" xmlns="http://www.w3.org/2000/svg" xmlns:xlink="http://www.w3.org/1999/xlink" xml:space="preserve" onload="init(evt)">
<style type="text/css"><![CDATA[
.node, .edge {opacity: 0.7;}
.node.selected, .edge.selected {opacity: 1;}
.edge:hover path { stroke: red; }
.edge:hover polygon { stroke: red; fill: red; }
]]></style>

<defs>
  <circle id="rim" cx="0" cy="0" r="7"/>
  <circle id="rim2" cx="0" cy="0" r="3.5"/>
  <g id="zoomPlus">
    <use xlink:href="#rim" fill="#404040"><set attributeName="fill" to="#808080" begin="zoomplus.mouseover" end="zoomplus.mouseout"/></use>
    <path d="M-4,0h8M0,-4v8" fill="none" stroke="white" stroke-width="1.5" pointer-events="none"/>
  </g>
  <g id="zoomMin">
    <use xlink:href="#rim" fill="#404040"><set attributeName="fill" to="#808080" begin="zoomminus.mouseover" end="zoomminus.mouseout"/></use>
    <path d="M-4,0h8" fill="none" stroke="white" stroke-width="1.5" pointer-events="none"/>
  </g>
  <g id="arrowUp" transform="translate(30 24)">
    <use xlink:href="#rim"/>
    <path pointer-events="none" fill="none" stroke="white" stroke-width="1.5" d="M0,-3.0v7 M-2.5,-0.5L0,-3.0L2.5,-0.5"/>
  </g>
  <g id="arrowRight" transform="rotate(90) translate(36 -43)">
    <use xlink:href="#rim"/>
    <path pointer-events="none" fill="none" stroke="white" stroke-width="1.5" d="M0,-3.0v7 M-2.5,-0.5L0,-3.0L2.5,-0.5"/>
  </g>
  <g id="arrowDown" transform="rotate(180) translate(-30 -48)">
    <use xlink:href="#rim"/>
    <path pointer-events="none" fill="none" stroke="white" stroke-width="1.5" d="M0,-3.0v7 M-2.5,-0.5L0,-3.0L2.5,-0.5"/>
  </g>
  <g id="arrowLeft" transform="rotate(270) translate(-36 17)">
    <use xlink:href="#rim"/>
    <path pointer-events="none" fill="none" stroke="white" stroke-width="1.5" d="M0,-3.0v7 M-2.5,-0.5L0,-3.0L2.5,-0.5"/>
  </g>
  <g id="resetDef">
    <use xlink:href="#rim2" fill="#404040"><set attributeName="fill" to="#808080" begin="reset.mouseover" end="reset.mouseout"/></use>
  </g>
</defs>
<script type="application/ecmascript">
var viewWidth = 742;
var viewHeight = 569;
var sectionId = 'dynsection-3';
</script>
<script type="application/ecmascript" xlink:href="svg.min.js"/>
<svg id="graph" class="graph">
<g id="viewport">
<title>compute_R</title>
<!-- Node1 -->
<g id="Node000001" class="node">
<title>Node1</title>
<g id="a_Node000001"><a xlink:title=" ">
<polygon fill="#999999" stroke="#666666" points="71,-339.09 0,-339.09 0,-320.09 71,-320.09 71,-339.09"/>
<text text-anchor="middle" x="35.5" y="-327.09" font-family="Helvetica,sans-Serif" font-size="10.00">compute_R</text>
</a>
</g>
</g>
<!-- Node2 -->
<g id="Node000002" class="node">
<title>Node2</title>
<g id="a_Node000002"><a xlink:href="inverse_8c.html#a8ccb34384a9c46d52bb413dcd177c67b" target="_top" xlink:title=" ">
<polygon fill="white" stroke="#666666" points="187,-339.09 107,-339.09 107,-320.09 187,-320.09 187,-339.09"/>
<text text-anchor="middle" x="147" y="-327.09" font-family="Helvetica,sans-Serif" font-size="10.00">ResidualCalc</text>
</a>
</g>
</g>
<!-- Node1&#45;&gt;Node2 -->
<g id="edge1_Node000001_Node000002" class="edge">
<title>Node1&#45;&gt;Node2</title>
<g id="a_edge1_Node000001_Node000002"><a xlink:title=" ">
<path fill="none" stroke="#63b8ff" d="M71.15,-329.59C79.16,-329.59 87.85,-329.59 96.37,-329.59"/>
<polygon fill="#63b8ff" stroke="#63b8ff" points="96.62,-333.1 106.62,-329.59 96.62,-326.1 96.62,-333.1"/>
</a>
</g>
</g>
<!-- Node3 -->
<g id="Node000003" class="node">
<title>Node3</title>
<g id="a_Node000003"><a xlink:href="io_8c.html#ac6a6fe57e1e391ebe52b1dbffde4ba5b" target="_top" xlink:title=" ">
<polygon fill="white" stroke="#666666" points="617.5,-498.09 542.5,-498.09 542.5,-479.09 617.5,-479.09 617.5,-498.09"/>
<text text-anchor="middle" x="580" y="-486.09" font-family="Helvetica,sans-Serif" font-size="10.00">AreaNormal</text>
</a>
</g>
</g>
<!-- Node2&#45;&gt;Node3 -->
<g id="edge2_Node000002_Node000003" class="edge">
<title>Node2&#45;&gt;Node3</title>
<g id="a_edge2_Node000002_Node000003"><a xlink:title=" ">
<path fill="none" stroke="#63b8ff" d="M152.5,-339.4C162.34,-359.78 187.76,-406.96 223,-432.59 315.95,-500.21 458.83,-499.62 532.11,-493.9"/>
<polygon fill="#63b8ff" stroke="#63b8ff" points="532.73,-497.35 542.4,-493.02 532.14,-490.38 532.73,-497.35"/>
</a>
</g>
</g>
<!-- Node8 -->
<g id="Node000008" class="node">
<title>Node8</title>
<g id="a_Node000008"><a xlink:href="main_8c.html#a406cf6152471e0614dca5a045fdfd99f" target="_top" xlink:title=" ">
<polygon fill="white" stroke="#666666" points="294.5,-423.09 228.5,-423.09 228.5,-404.09 294.5,-404.09 294.5,-423.09"/>
<text text-anchor="middle" x="261.5" y="-411.09" font-family="Helvetica,sans-Serif" font-size="10.00">FDynamic</text>
</a>
</g>
</g>
<!-- Node2&#45;&gt;Node8 -->
<g id="edge7_Node000002_Node000008" class="edge">
<title>Node2&#45;&gt;Node8</title>
<g id="a_edge7_Node000002_Node000008"><a xlink:title=" ">
<path fill="none" stroke="#63b8ff" d="M160.06,-339.24C174.76,-350.91 200.43,-371.06 223,-387.59 227.71,-391.05 232.82,-394.67 237.71,-398.07"/>
<polygon fill="#63b8ff" stroke="#63b8ff" points="235.91,-401.09 246.13,-403.89 239.89,-395.33 235.91,-401.09"/>
</a>
</g>
</g>
<!-- Node11 -->
<g id="Node000011" class="node">
<title>Node11</title>
<g id="a_Node000011"><a xlink:href="bcs_8c.html#aef1719332b4828ce07ba0c7a6bba7bcd" target="_top" xlink:title=" ">
<polygon fill="white" stroke="#666666" points="293,-379.09 230,-379.09 230,-360.09 293,-360.09 293,-379.09"/>
<text text-anchor="middle" x="261.5" y="-367.09" font-family="Helvetica,sans-Serif" font-size="10.00">FExternal</text>
</a>
</g>
</g>
<!-- Node2&#45;&gt;Node11 -->
<g id="edge10_Node000002_Node000011" class="edge">
<title>Node2&#45;&gt;Node11</title>
<g id="a_edge10_Node000002_Node000011"><a xlink:title=" ">
<path fill="none" stroke="#63b8ff" d="M174.95,-339.18C189.7,-344.42 208.18,-350.99 224.18,-356.68"/>
<polygon fill="#63b8ff" stroke="#63b8ff" points="223.18,-360.04 233.77,-360.09 225.52,-353.44 223.18,-360.04"/>
</a>
</g>
</g>
<!-- Node13 -->
<g id="Node000013" class="node">
<title>Node13</title>
<g id="a_Node000013"><a xlink:href="main_8c.html#a59ccabe25c63661e6e66b44209b0f162" target="_top" xlink:title=" ">
<polygon fill="white" stroke="#666666" points="291.5,-339.09 231.5,-339.09 231.5,-320.09 291.5,-320.09 291.5,-339.09"/>
<text text-anchor="middle" x="261.5" y="-327.09" font-family="Helvetica,sans-Serif" font-size="10.00">FInternal</text>
</a>
</g>
</g>
<!-- Node2&#45;&gt;Node13 -->
<g id="edge12_Node000002_Node000013" class="edge">
<title>Node2&#45;&gt;Node13</title>
<g id="a_edge12_Node000002_Node000013"><a xlink:title=" ">
<path fill="none" stroke="#63b8ff" d="M187.03,-329.59C198.09,-329.59 210.14,-329.59 221.21,-329.59"/>
<polygon fill="#63b8ff" stroke="#63b8ff" points="221.47,-333.1 231.47,-329.59 221.47,-326.1 221.47,-333.1"/>
</a>
</g>
</g>
<!-- Node27 -->
<g id="Node000027" class="node">
<title>Node27</title>
<g id="a_Node000027"><a xlink:href="bcs_8c.html#a66bea6d23d803ebc455e934629a0c7be" target="_top" xlink:title=" ">
<polygon fill="white" stroke="#666666" points="292.5,-302.09 230.5,-302.09 230.5,-283.09 292.5,-283.09 292.5,-302.09"/>
<text text-anchor="middle" x="261.5" y="-290.09" font-family="Helvetica,sans-Serif" font-size="10.00">GhostLoc</text>
</a>
</g>
</g>
<!-- Node2&#45;&gt;Node27 -->
<g id="edge59_Node000002_Node000027" class="edge">
<title>Node2&#45;&gt;Node27</title>
<g id="a_edge59_Node000002_Node000027"><a xlink:title=" ">
<path fill="none" stroke="#63b8ff" d="M176.97,-320.07C190.51,-315.61 206.84,-310.24 221.45,-305.44"/>
<polygon fill="#63b8ff" stroke="#63b8ff" points="222.83,-308.67 231.24,-302.22 220.64,-302.02 222.83,-308.67"/>
</a>
</g>
</g>
<!-- Node28 -->
<g id="Node000028" class="node">
<title>Node28</title>
<g id="a_Node000028"><a xlink:href="bending_8c.html#a4a1f5973a55922b27065f712220d8152" target="_top" xlink:title=" ">
<polygon fill="white" stroke="#666666" points="300,-265.09 223,-265.09 223,-246.09 300,-246.09 300,-265.09"/>
<text text-anchor="middle" x="261.5" y="-253.09" font-family="Helvetica,sans-Serif" font-size="10.00">GlobalGhost</text>
</a>
</g>
</g>
<!-- Node2&#45;&gt;Node28 -->
<g id="edge60_Node000002_Node000028" class="edge">
<title>Node2&#45;&gt;Node28</title>
<g id="a_edge60_Node000002_Node000028"><a xlink:title=" ">
<path fill="none" stroke="#63b8ff" d="M159.45,-319.93C173.75,-308.14 199.23,-287.99 223,-273.59 225.16,-272.29 227.43,-271 229.75,-269.75"/>
<polygon fill="#63b8ff" stroke="#63b8ff" points="231.39,-272.84 238.71,-265.18 228.21,-266.61 231.39,-272.84"/>
</a>
</g>
</g>
<!-- Node29 -->
<g id="Node000029" class="node">
<title>Node29</title>
<g id="a_Node000029"><a xlink:href="bending_8c.html#a907be03803f4a1d456a7a1650461f7eb" target="_top" xlink:title=" ">
<polygon fill="white" stroke="#666666" points="291,-228.09 232,-228.09 232,-209.09 291,-209.09 291,-228.09"/>
<text text-anchor="middle" x="261.5" y="-216.09" font-family="Helvetica,sans-Serif" font-size="10.00">PatchLoc</text>
</a>
</g>
</g>
<!-- Node2&#45;&gt;Node29 -->
<g id="edge61_Node000002_Node000029" class="edge">
<title>Node2&#45;&gt;Node29</title>
<g id="a_edge61_Node000002_Node000029"><a xlink:title=" ">
<path fill="none" stroke="#63b8ff" d="M153.69,-319.99C164.93,-301.69 191.62,-261.45 223,-236.59 224.53,-235.38 226.15,-234.23 227.83,-233.13"/>
<polygon fill="#63b8ff" stroke="#63b8ff" points="229.62,-236.14 236.55,-228.12 226.13,-230.07 229.62,-236.14"/>
</a>
</g>
</g>
<!-- Node4 -->
<g id="Node000004" class="node">
<title>Node4</title>
<g id="a_Node000004"><a xlink:href="math_8c.html#a9d60990d26296194c921d537ea26f3c7" target="_top" xlink:title=" ">
<polygon fill="white" stroke="#666666" points="734,-348.09 684,-348.09 684,-329.09 734,-329.09 734,-348.09"/>
<text text-anchor="middle" x="709" y="-336.09" font-family="Helvetica,sans-Serif" font-size="10.00">CROSS</text>
</a>
</g>
</g>
<!-- Node3&#45;&gt;Node4 -->
<g id="edge3_Node000003_Node000004" class="edge">
<title>Node3&#45;&gt;Node4</title>
<g id="a_edge3_Node000003_Node000004"><a xlink:title=" ">
<path fill="none" stroke="#63b8ff" d="M617.71,-485.5C628.62,-482.93 639.82,-478.42 648,-470.59 686.38,-433.85 653.28,-399.94 684,-356.59 684.27,-356.21 684.55,-355.83 684.84,-355.46"/>
<polygon fill="#63b8ff" stroke="#63b8ff" points="687.35,-357.91 691.99,-348.38 682.42,-352.94 687.35,-357.91"/>
</a>
</g>
</g>
<!-- Node5 -->
<g id="Node000005" class="node">
<title>Node5</title>
<g id="a_Node000005"><a xlink:href="math_8c.html#a9d08a9d2fd8e8932e92b8ab054b19269" target="_top" xlink:title=" ">
<polygon fill="white" stroke="#666666" points="734,-272.09 684,-272.09 684,-253.09 734,-253.09 734,-272.09"/>
<text text-anchor="middle" x="709" y="-260.09" font-family="Helvetica,sans-Serif" font-size="10.00">MINUS</text>
</a>
</g>
</g>
<!-- Node3&#45;&gt;Node5 -->
<g id="edge4_Node000003_Node000005" class="edge">
<title>Node3&#45;&gt;Node5</title>
<g id="a_edge4_Node000003_Node000005"><a xlink:title=" ">
<path fill="none" stroke="#63b8ff" d="M617.58,-486.22C628.74,-483.72 640.13,-479.07 648,-470.59 706.18,-407.93 639.69,-354.73 684,-281.59 684.39,-280.95 684.82,-280.31 685.26,-279.69"/>
<polygon fill="#63b8ff" stroke="#63b8ff" points="687.81,-282.09 692.19,-272.44 682.75,-277.25 687.81,-282.09"/>
</a>
</g>
</g>
<!-- Node6 -->
<g id="Node000006" class="node">
<title>Node6</title>
<g id="a_Node000006"><a xlink:href="math_8c.html#aa52f6593cf3e5453c8c6c94343d3fb37" target="_top" xlink:title=" ">
<polygon fill="white" stroke="#666666" points="728,-460.09 690,-460.09 690,-441.09 728,-441.09 728,-460.09"/>
<text text-anchor="middle" x="709" y="-448.09" font-family="Helvetica,sans-Serif" font-size="10.00">SIZE</text>
</a>
</g>
</g>
<!-- Node3&#45;&gt;Node6 -->
<g id="edge5_Node000003_Node000006" class="edge">
<title>Node3&#45;&gt;Node6</title>
<g id="a_edge5_Node000003_Node000006"><a xlink:title=" ">
<path fill="none" stroke="#63b8ff" d="M617.62,-479.18C627.52,-476.52 638.2,-473.54 648,-470.59 658.65,-467.39 670.26,-463.6 680.4,-460.17"/>
<polygon fill="#63b8ff" stroke="#63b8ff" points="681.64,-463.45 689.97,-456.91 679.38,-456.83 681.64,-463.45"/>
</a>
</g>
</g>
<!-- Node7 -->
<g id="Node000007" class="node">
<title>Node7</title>
<g id="a_Node000007"><a xlink:href="math_8c.html#ac616709995f2ae60c4308ffa328337d7" target="_top" xlink:title=" ">
<polygon fill="white" stroke="#666666" points="729.5,-310.09 688.5,-310.09 688.5,-291.09 729.5,-291.09 729.5,-310.09"/>
<text text-anchor="middle" x="709" y="-298.09" font-family="Helvetica,sans-Serif" font-size="10.00">UNIT</text>
</a>
</g>
</g>
<!-- Node3&#45;&gt;Node7 -->
<g id="edge6_Node000003_Node000007" class="edge">
<title>Node3&#45;&gt;Node7</title>
<g id="a_edge6_Node000003_Node000007"><a xlink:title=" ">
<path fill="none" stroke="#63b8ff" d="M617.71,-485.93C628.74,-483.39 640.02,-478.8 648,-470.59 696.09,-421.12 646.91,-377.77 684,-319.59 684.5,-318.81 685.04,-318.05 685.62,-317.3"/>
<polygon fill="#63b8ff" stroke="#63b8ff" points="688.22,-319.65 692.81,-310.11 683.26,-314.71 688.22,-319.65"/>
</a>
</g>
</g>
<!-- Node9 -->
<g id="Node000009" class="node">
<title>Node9</title>
<g id="a_Node000009"><a xlink:href="material_8c.html#a39aa444d5f3c2ebbec2bb3d9aedb3b87" target="_top" xlink:title=" ">
<polygon fill="white" stroke="#666666" points="429,-460.09 383,-460.09 383,-441.09 429,-441.09 429,-460.09"/>
<text text-anchor="middle" x="406" y="-448.09" font-family="Helvetica,sans-Serif" font-size="10.00">Damp</text>
</a>
</g>
</g>
<!-- Node8&#45;&gt;Node9 -->
<g id="edge8_Node000008_Node000009" class="edge">
<title>Node8&#45;&gt;Node9</title>
<g id="a_edge8_Node000008_Node000009"><a xlink:title=" ">
<path fill="none" stroke="#63b8ff" d="M294.84,-421.99C318.3,-428.08 349.88,-436.28 373.21,-442.34"/>
<polygon fill="#63b8ff" stroke="#63b8ff" points="372.42,-445.75 382.98,-444.88 374.18,-438.98 372.42,-445.75"/>
</a>
</g>
</g>
<!-- Node10 -->
<g id="Node000010" class="node">
<title>Node10</title>
<g id="a_Node000010"><a xlink:href="material_8c.html#a2d561c42d0809a56d3abe1d1c9c24588" target="_top" xlink:title=" ">
<polygon fill="white" stroke="#666666" points="427,-423.09 385,-423.09 385,-404.09 427,-404.09 427,-423.09"/>
<text text-anchor="middle" x="406" y="-411.09" font-family="Helvetica,sans-Serif" font-size="10.00">Mass</text>
</a>
</g>
</g>
<!-- Node8&#45;&gt;Node10 -->
<g id="edge9_Node000008_Node000010" class="edge">
<title>Node8&#45;&gt;Node10</title>
<g id="a_edge9_Node000008_Node000010"><a xlink:title=" ">
<path fill="none" stroke="#63b8ff" d="M294.84,-413.59C318.76,-413.59 351.13,-413.59 374.59,-413.59"/>
<polygon fill="#63b8ff" stroke="#63b8ff" points="374.68,-417.1 384.68,-413.59 374.68,-410.1 374.68,-417.1"/>
</a>
</g>
</g>
<!-- Node12 -->
<g id="Node000012" class="node">
<title>Node12</title>
<g id="a_Node000012"><a xlink:href="external_8c.html#a93115e0e971ccd05cacd122af8636e18" target="_top" xlink:title=" ">
<polygon fill="white" stroke="#666666" points="476,-385.59 336,-385.59 336,-355.59 476,-355.59 476,-385.59"/>
<text text-anchor="start" x="344" y="-373.59" font-family="Helvetica,sans-Serif" font-size="10.00">FExternalPrescribedForce</text>
<text text-anchor="middle" x="406" y="-362.59" font-family="Helvetica,sans-Serif" font-size="10.00">FieldIn</text>
</a>
</g>
</g>
<!-- Node11&#45;&gt;Node12 -->
<g id="edge11_Node000011_Node000012" class="edge">
<title>Node11&#45;&gt;Node12</title>
<g id="a_edge11_Node000011_Node000012"><a xlink:title=" ">
<path fill="none" stroke="#63b8ff" d="M293.07,-369.81C302.81,-369.88 314.08,-369.96 325.63,-370.04"/>
<polygon fill="#63b8ff" stroke="#63b8ff" points="325.8,-373.54 335.83,-370.11 325.85,-366.54 325.8,-373.54"/>
</a>
</g>
</g>
<!-- Node14 -->
<g id="Node000014" class="node">
<title>Node14</title>
<g id="a_Node000014"><a xlink:href="bending_8c.html#a2b66770553fce4724cfb65b0f79e83b1" target="_top" xlink:title=" ">
<polygon fill="white" stroke="#666666" points="437,-300.09 375,-300.09 375,-281.09 437,-281.09 437,-300.09"/>
<text text-anchor="middle" x="406" y="-288.09" font-family="Helvetica,sans-Serif" font-size="10.00">Fbending</text>
</a>
</g>
</g>
<!-- Node13&#45;&gt;Node14 -->
<g id="edge13_Node000013_Node000014" class="edge">
<title>Node13&#45;&gt;Node14</title>
<g id="a_edge13_Node000013_Node000014"><a xlink:title=" ">
<path fill="none" stroke="#63b8ff" d="M291.78,-321.06C305.23,-317.18 321.41,-312.58 336,-308.59 345.3,-306.05 355.32,-303.4 364.77,-300.92"/>
<polygon fill="#63b8ff" stroke="#63b8ff" points="365.94,-304.24 374.73,-298.33 364.17,-297.46 365.94,-304.24"/>
</a>
</g>
</g>
<!-- Node25 -->
<g id="Node000025" class="node">
<title>Node25</title>
<g id="a_Node000025"><a xlink:href="membrane_8c.html#a9fee56a81a4f404db4630a996f38013c" target="_top" xlink:title=" ">
<polygon fill="white" stroke="#666666" points="444,-180.09 368,-180.09 368,-161.09 444,-161.09 444,-180.09"/>
<text text-anchor="middle" x="406" y="-168.09" font-family="Helvetica,sans-Serif" font-size="10.00">Fmembrane</text>
</a>
</g>
</g>
<!-- Node13&#45;&gt;Node25 -->
<g id="edge52_Node000013_Node000025" class="edge">
<title>Node13&#45;&gt;Node25</title>
<g id="a_edge52_Node000013_Node000025"><a xlink:title=" ">
<path fill="none" stroke="#63b8ff" d="M285.75,-319.91C290.72,-317.28 295.75,-314.16 300,-310.59 322.44,-291.76 370.67,-221.84 393.09,-188.5"/>
<polygon fill="#63b8ff" stroke="#63b8ff" points="396.03,-190.4 398.68,-180.14 390.21,-186.51 396.03,-190.4"/>
</a>
</g>
</g>
<!-- Node26 -->
<g id="Node000026" class="node">
<title>Node26</title>
<g id="a_Node000026"><a xlink:href="bcs_8c.html#a679ccb265fdae6027920ac949da40b91" target="_top" xlink:title=" ">
<polygon fill="white" stroke="#666666" points="453.5,-337.09 358.5,-337.09 358.5,-318.09 453.5,-318.09 453.5,-337.09"/>
<text text-anchor="middle" x="406" y="-325.09" font-family="Helvetica,sans-Serif" font-size="10.00">ModifyFbending</text>
</a>
</g>
</g>
<!-- Node13&#45;&gt;Node26 -->
<g id="edge58_Node000013_Node000026" class="edge">
<title>Node13&#45;&gt;Node26</title>
<g id="a_edge58_Node000013_Node000026"><a xlink:title=" ">
<path fill="none" stroke="#63b8ff" d="M291.68,-329.19C307.97,-328.96 328.83,-328.66 348.2,-328.39"/>
<polygon fill="#63b8ff" stroke="#63b8ff" points="348.52,-331.89 358.47,-328.25 348.42,-324.89 348.52,-331.89"/>
</a>
</g>
</g>
<!-- Node14&#45;&gt;Node4 -->
<g id="edge26_Node000014_Node000004" class="edge">
<title>Node14&#45;&gt;Node4</title>
<g id="a_edge26_Node000014_Node000004"><a xlink:title=" ">
<path fill="none" stroke="#63b8ff" d="M437.23,-291.36C450.9,-293.3 466.16,-297.97 476,-308.59 537.09,-374.52 443.02,-449.97 512,-507.59 558.39,-546.35 600.56,-545.05 648,-507.59 702.15,-464.84 646.15,-414.28 684,-356.59 684.26,-356.2 684.53,-355.82 684.81,-355.44"/>
<polygon fill="#63b8ff" stroke="#63b8ff" points="687.33,-357.86 691.82,-348.27 682.32,-352.97 687.33,-357.86"/>
</a>
</g>
</g>
<!-- Node14&#45;&gt;Node5 -->
<g id="edge36_Node000014_Node000005" class="edge">
<title>Node14&#45;&gt;Node5</title>
<g id="a_edge36_Node000014_Node000005"><a xlink:title=" ">
<path fill="none" stroke="#63b8ff" d="M437.31,-291.75C483.23,-292.95 573.05,-293.19 648,-280.59 656.63,-279.14 665.77,-276.83 674.24,-274.33"/>
<polygon fill="#63b8ff" stroke="#63b8ff" points="675.29,-277.67 683.81,-271.36 673.22,-270.98 675.29,-277.67"/>
</a>
</g>
</g>
<!-- Node14&#45;&gt;Node6 -->
<g id="edge38_Node000014_Node000006" class="edge">
<title>Node14&#45;&gt;Node6</title>
<g id="a_edge38_Node000014_Node000006"><a xlink:title=" ">
<path fill="none" stroke="#63b8ff" d="M437.33,-291.26C451.02,-293.18 466.27,-297.86 476,-308.59 544.61,-384.27 434.32,-469.26 512,-535.59 557.97,-574.85 594.33,-563.4 648,-535.59 674.62,-521.8 691.94,-490.17 700.83,-469.62"/>
<polygon fill="#63b8ff" stroke="#63b8ff" points="704.1,-470.88 704.62,-460.3 697.61,-468.25 704.1,-470.88"/>
</a>
</g>
</g>
<!-- Node14&#45;&gt;Node7 -->
<g id="edge51_Node000014_Node000007" class="edge">
<title>Node14&#45;&gt;Node7</title>
<g id="a_edge51_Node000014_Node000007"><a xlink:title=" ">
<path fill="none" stroke="#63b8ff" d="M437.28,-292.55C450.47,-294.79 465.32,-299.37 476,-308.59 507.04,-335.42 477.8,-370.94 512,-393.59 562.39,-426.98 596.76,-425.65 648,-393.59 679.01,-374.2 661.09,-348.1 684,-319.59 684.58,-318.87 685.2,-318.16 685.84,-317.45"/>
<polygon fill="#63b8ff" stroke="#63b8ff" points="688.39,-319.86 693.34,-310.49 683.63,-314.73 688.39,-319.86"/>
</a>
</g>
</g>
<!-- Node15 -->
<g id="Node000015" class="node">
<title>Node15</title>
<g id="a_Node000015"><a xlink:href="math_8c.html#a7ef9263b0a3a10c2cd00bb4dc0059d70" target="_top" xlink:title=" ">
<polygon fill="white" stroke="#666666" points="605,-348.09 555,-348.09 555,-329.09 605,-329.09 605,-348.09"/>
<text text-anchor="middle" x="580" y="-336.09" font-family="Helvetica,sans-Serif" font-size="10.00">AMULT</text>
</a>
</g>
</g>
<!-- Node14&#45;&gt;Node15 -->
<g id="edge14_Node000014_Node000015" class="edge">
<title>Node14&#45;&gt;Node15</title>
<g id="a_edge14_Node000014_Node000015"><a xlink:title=" ">
<path fill="none" stroke="#63b8ff" d="M437.28,-298.3C449.35,-301.42 463.35,-305.1 476,-308.59 499.19,-315 525.2,-322.58 545.29,-328.51"/>
<polygon fill="#63b8ff" stroke="#63b8ff" points="544.33,-331.88 554.91,-331.37 546.32,-325.17 544.33,-331.88"/>
</a>
</g>
</g>
<!-- Node16 -->
<g id="Node000016" class="node">
<title>Node16</title>
<g id="a_Node000016"><a xlink:href="material_8c.html#af81ecf5fbfd52082e0abd3184f12c14f" target="_top" xlink:title=" ">
<polygon fill="white" stroke="#666666" points="633,-385.09 527,-385.09 527,-366.09 633,-366.09 633,-385.09"/>
<text text-anchor="middle" x="580" y="-373.09" font-family="Helvetica,sans-Serif" font-size="10.00">BendingNonLinear</text>
</a>
</g>
</g>
<!-- Node14&#45;&gt;Node16 -->
<g id="edge15_Node000014_Node000016" class="edge">
<title>Node14&#45;&gt;Node16</title>
<g id="a_edge15_Node000014_Node000016"><a xlink:title=" ">
<path fill="none" stroke="#63b8ff" d="M437.01,-293.94C449.84,-296.46 464.49,-300.87 476,-308.59 498.14,-323.46 490.02,-341.5 512,-356.59 514.93,-358.61 518.07,-360.41 521.33,-362.02"/>
<polygon fill="#63b8ff" stroke="#63b8ff" points="520.21,-365.35 530.78,-366.07 522.97,-358.91 520.21,-365.35"/>
</a>
</g>
</g>
<!-- Node17 -->
<g id="Node000017" class="node">
<title>Node17</title>
<g id="a_Node000017"><a xlink:href="math_8c.html#a870a70f4845a041458d9bdb0dd7aabd3" target="_top" xlink:title=" ">
<polygon fill="white" stroke="#666666" points="728,-198.09 690,-198.09 690,-179.09 728,-179.09 728,-198.09"/>
<text text-anchor="middle" x="709" y="-186.09" font-family="Helvetica,sans-Serif" font-size="10.00">DOT</text>
</a>
</g>
</g>
<!-- Node14&#45;&gt;Node17 -->
<g id="edge27_Node000014_Node000017" class="edge">
<title>Node14&#45;&gt;Node17</title>
<g id="a_edge27_Node000014_Node000017"><a xlink:title=" ">
<path fill="none" stroke="#63b8ff" d="M414.48,-280.84C427.87,-263.12 456.37,-224.16 476,-188.59 495.23,-153.75 478.68,-128.36 512,-106.59 562.61,-73.54 594.1,-79.24 648,-106.59 673.85,-119.71 691.24,-149.79 700.38,-169.64"/>
<polygon fill="#63b8ff" stroke="#63b8ff" points="697.22,-171.15 704.4,-178.94 703.64,-168.37 697.22,-171.15"/>
</a>
</g>
</g>
<!-- Node18 -->
<g id="Node000018" class="node">
<title>Node18</title>
<g id="a_Node000018"><a xlink:href="math_8c.html#a3f73e4cd9eab76eeee084eabf2b98ec9" target="_top" xlink:title=" ">
<polygon fill="white" stroke="#666666" points="726,-235.09 692,-235.09 692,-216.09 726,-216.09 726,-235.09"/>
<text text-anchor="middle" x="709" y="-223.09" font-family="Helvetica,sans-Serif" font-size="10.00">INV</text>
</a>
</g>
</g>
<!-- Node14&#45;&gt;Node18 -->
<g id="edge28_Node000014_Node000018" class="edge">
<title>Node14&#45;&gt;Node18</title>
<g id="a_edge28_Node000014_Node000018"><a xlink:title=" ">
<path fill="none" stroke="#63b8ff" d="M413.54,-281.08C425.89,-263.1 453.4,-222.86 476,-188.59 492.29,-163.9 486.03,-146.77 512,-132.59 565.05,-103.63 596.76,-100.54 648,-132.59 679.01,-151.99 661.09,-178.09 684,-206.59 684.58,-207.32 685.2,-208.03 685.84,-208.74"/>
<polygon fill="#63b8ff" stroke="#63b8ff" points="683.63,-211.46 693.34,-215.7 688.39,-206.33 683.63,-211.46"/>
</a>
</g>
</g>
<!-- Node20 -->
<g id="Node000020" class="node">
<title>Node20</title>
<g id="a_Node000020"><a xlink:href="material_8c.html#a3243950933f3559f19edcb5421360526" target="_top" xlink:title=" ">
<polygon fill="white" stroke="#666666" points="648,-161.09 512,-161.09 512,-142.09 648,-142.09 648,-161.09"/>
<text text-anchor="middle" x="580" y="-149.09" font-family="Helvetica,sans-Serif" font-size="10.00">CalcCurvStressStrainxyz</text>
</a>
</g>
</g>
<!-- Node14&#45;&gt;Node20 -->
<g id="edge23_Node000014_Node000020" class="edge">
<title>Node14&#45;&gt;Node20</title>
<g id="a_edge23_Node000014_Node000020"><a xlink:title=" ">
<path fill="none" stroke="#63b8ff" d="M412.48,-281.04C426.16,-258.08 464.14,-199.55 512,-169.59 514.62,-167.95 517.39,-166.46 520.25,-165.1"/>
<polygon fill="#63b8ff" stroke="#63b8ff" points="521.74,-168.28 529.63,-161.21 519.06,-161.81 521.74,-168.28"/>
</a>
</g>
</g>
<!-- Node21 -->
<g id="Node000021" class="node">
<title>Node21</title>
<g id="a_Node000021"><a xlink:href="material_8c.html#aa93862cca1fe83c736219df7d4a91374" target="_top" xlink:title=" ">
<polygon fill="white" stroke="#666666" points="639.5,-272.09 520.5,-272.09 520.5,-253.09 639.5,-253.09 639.5,-272.09"/>
<text text-anchor="middle" x="580" y="-260.09" font-family="Helvetica,sans-Serif" font-size="10.00">MembraneNonLinear</text>
</a>
</g>
</g>
<!-- Node14&#45;&gt;Node21 -->
<g id="edge29_Node000014_Node000021" class="edge">
<title>Node14&#45;&gt;Node21</title>
<g id="a_edge29_Node000014_Node000021"><a xlink:title=" ">
<path fill="none" stroke="#63b8ff" d="M437.35,-285.65C457.62,-282.35 485.1,-277.88 510.47,-273.75"/>
<polygon fill="#63b8ff" stroke="#63b8ff" points="511.13,-277.19 520.44,-272.13 510.01,-270.28 511.13,-277.19"/>
</a>
</g>
</g>
<!-- Node22 -->
<g id="Node000022" class="node">
<title>Node22</title>
<g id="a_Node000022"><a xlink:href="math_8c.html#ae18926821a703a2c5b281bd890b7e6a0" target="_top" xlink:title=" ">
<polygon fill="white" stroke="#666666" points="600.5,-461.09 559.5,-461.09 559.5,-442.09 600.5,-442.09 600.5,-461.09"/>
<text text-anchor="middle" x="580" y="-449.09" font-family="Helvetica,sans-Serif" font-size="10.00">PLUS</text>
</a>
</g>
</g>
<!-- Node14&#45;&gt;Node22 -->
<g id="edge37_Node000014_Node000022" class="edge">
<title>Node14&#45;&gt;Node22</title>
<g id="a_edge37_Node000014_Node000022"><a xlink:title=" ">
<path fill="none" stroke="#63b8ff" d="M437.05,-291.92C450.51,-294.01 465.65,-298.64 476,-308.59 515.82,-346.91 473.92,-387.55 512,-427.59 521.81,-437.91 536.36,-443.8 549.39,-447.16"/>
<polygon fill="#63b8ff" stroke="#63b8ff" points="548.89,-450.63 559.41,-449.35 550.38,-443.79 548.89,-450.63"/>
</a>
</g>
</g>
<!-- Node23 -->
<g id="Node000023" class="node">
<title>Node23</title>
<g id="a_Node000023"><a xlink:href="material_8c.html#a431e1e9b5ceabfa4edc2920b70296b35" target="_top" xlink:title=" ">
<polygon fill="white" stroke="#666666" points="618.5,-198.09 541.5,-198.09 541.5,-179.09 618.5,-179.09 618.5,-198.09"/>
<text text-anchor="middle" x="580" y="-186.09" font-family="Helvetica,sans-Serif" font-size="10.00">StressLinear</text>
</a>
</g>
</g>
<!-- Node14&#45;&gt;Node23 -->
<g id="edge39_Node000014_Node000023" class="edge">
<title>Node14&#45;&gt;Node23</title>
<g id="a_edge39_Node000014_Node000023"><a xlink:title=" ">
<path fill="none" stroke="#63b8ff" d="M416.18,-280.99C433.35,-263.58 472.22,-226.73 512,-206.59 518.14,-203.49 524.87,-200.87 531.63,-198.68"/>
<polygon fill="#63b8ff" stroke="#63b8ff" points="532.88,-201.96 541.48,-195.77 530.9,-195.25 532.88,-201.96"/>
</a>
</g>
</g>
<!-- Node24 -->
<g id="Node000024" class="node">
<title>Node24</title>
<g id="a_Node000024"><a xlink:href="material_8c.html#aad0d0c11a159f8021feb99ddee475d31" target="_top" xlink:title=" ">
<polygon fill="white" stroke="#666666" points="637,-235.09 523,-235.09 523,-216.09 637,-216.09 637,-235.09"/>
<text text-anchor="middle" x="580" y="-223.09" font-family="Helvetica,sans-Serif" font-size="10.00">StressManufactured</text>
</a>
</g>
</g>
<!-- Node14&#45;&gt;Node24 -->
<g id="edge45_Node000014_Node000024" class="edge">
<title>Node14&#45;&gt;Node24</title>
<g id="a_edge45_Node000014_Node000024"><a xlink:title=" ">
<path fill="none" stroke="#63b8ff" d="M425.98,-281C446.73,-270.77 481.14,-254.57 512,-243.59 517.6,-241.6 523.53,-239.71 529.45,-237.96"/>
<polygon fill="#63b8ff" stroke="#63b8ff" points="530.7,-241.24 539.35,-235.13 528.78,-234.51 530.7,-241.24"/>
</a>
</g>
</g>
<!-- Node16&#45;&gt;Node4 -->
<g id="edge16_Node000016_Node000004" class="edge">
<title>Node16&#45;&gt;Node4</title>
<g id="a_edge16_Node000016_Node000004"><a xlink:title=" ">
<path fill="none" stroke="#63b8ff" d="M615.11,-366.03C625.67,-363.04 637.32,-359.71 648,-356.59 656.48,-354.12 665.62,-351.4 674.14,-348.85"/>
<polygon fill="#63b8ff" stroke="#63b8ff" points="675.23,-352.18 683.79,-345.95 673.21,-345.48 675.23,-352.18"/>
</a>
</g>
</g>
<!-- Node16&#45;&gt;Node5 -->
<g id="edge19_Node000016_Node000005" class="edge">
<title>Node16&#45;&gt;Node5</title>
<g id="a_edge19_Node000016_Node000005"><a xlink:title=" ">
<path fill="none" stroke="#63b8ff" d="M632.35,-366.05C638,-363.59 643.38,-360.49 648,-356.59 676.28,-332.78 660.91,-310.48 684,-281.59 684.58,-280.87 685.19,-280.15 685.83,-279.45"/>
<polygon fill="#63b8ff" stroke="#63b8ff" points="688.39,-281.85 693.33,-272.48 683.62,-276.72 688.39,-281.85"/>
</a>
</g>
</g>
<!-- Node16&#45;&gt;Node6 -->
<g id="edge21_Node000016_Node000006" class="edge">
<title>Node16&#45;&gt;Node6</title>
<g id="a_edge21_Node000016_Node000006"><a xlink:title=" ">
<path fill="none" stroke="#63b8ff" d="M597.34,-385.25C619.06,-398.07 657.64,-420.86 683.02,-435.84"/>
<polygon fill="#63b8ff" stroke="#63b8ff" points="681.33,-438.91 691.72,-440.98 684.89,-432.88 681.33,-438.91"/>
</a>
</g>
</g>
<!-- Node16&#45;&gt;Node7 -->
<g id="edge22_Node000016_Node000007" class="edge">
<title>Node16&#45;&gt;Node7</title>
<g id="a_edge22_Node000016_Node000007"><a xlink:title=" ">
<path fill="none" stroke="#63b8ff" d="M627.02,-366.01C634.31,-363.53 641.56,-360.43 648,-356.59 667.71,-344.84 666.97,-334.97 684,-319.59 684.98,-318.71 685.99,-317.83 687.02,-316.94"/>
<polygon fill="#63b8ff" stroke="#63b8ff" points="689.53,-319.4 695.04,-310.35 685.09,-313.99 689.53,-319.4"/>
</a>
</g>
</g>
<!-- Node16&#45;&gt;Node17 -->
<g id="edge17_Node000016_Node000017" class="edge">
<title>Node16&#45;&gt;Node17</title>
<g id="a_edge17_Node000016_Node000017"><a xlink:title=" ">
<path fill="none" stroke="#63b8ff" d="M633.2,-366.96C638.71,-364.34 643.81,-360.96 648,-356.59 695.48,-307.14 646.35,-263.89 684,-206.59 684.26,-206.2 684.53,-205.82 684.81,-205.44"/>
<polygon fill="#63b8ff" stroke="#63b8ff" points="687.33,-207.86 691.82,-198.27 682.32,-202.97 687.33,-207.86"/>
</a>
</g>
</g>
<!-- Node16&#45;&gt;Node18 -->
<g id="edge18_Node000016_Node000018" class="edge">
<title>Node16&#45;&gt;Node18</title>
<g id="a_edge18_Node000016_Node000018"><a xlink:title=" ">
<path fill="none" stroke="#63b8ff" d="M633.23,-366.5C638.66,-363.96 643.74,-360.72 648,-356.59 685.86,-319.93 653.47,-286.56 684,-243.59 684.27,-243.21 684.55,-242.84 684.85,-242.46"/>
<polygon fill="#63b8ff" stroke="#63b8ff" points="687.35,-244.91 691.99,-235.39 682.42,-239.93 687.35,-244.91"/>
</a>
</g>
</g>
<!-- Node19 -->
<g id="Node000019" class="node">
<title>Node19</title>
<g id="a_Node000019"><a xlink:href="math_8c.html#ae6a53927765c25c58815e47fea096a67" target="_top" xlink:title=" ">
<polygon fill="white" stroke="#666666" points="729.5,-385.09 688.5,-385.09 688.5,-366.09 729.5,-366.09 729.5,-385.09"/>
<text text-anchor="middle" x="709" y="-373.09" font-family="Helvetica,sans-Serif" font-size="10.00">SIGN</text>
</a>
</g>
</g>
<!-- Node16&#45;&gt;Node19 -->
<g id="edge20_Node000016_Node000019" class="edge">
<title>Node16&#45;&gt;Node19</title>
<g id="a_edge20_Node000016_Node000019"><a xlink:title=" ">
<path fill="none" stroke="#63b8ff" d="M633.02,-375.59C648.37,-375.59 664.65,-375.59 678.1,-375.59"/>
<polygon fill="#63b8ff" stroke="#63b8ff" points="678.21,-379.1 688.21,-375.59 678.21,-372.1 678.21,-379.1"/>
</a>
</g>
</g>
<!-- Node20&#45;&gt;Node5 -->
<g id="edge25_Node000020_Node000005" class="edge">
<title>Node20&#45;&gt;Node5</title>
<g id="a_edge25_Node000020_Node000005"><a xlink:title=" ">
<path fill="none" stroke="#63b8ff" d="M634.34,-161.24C639.25,-163.47 643.91,-166.22 648,-169.59 676.2,-192.88 661.09,-215.09 684,-243.59 684.58,-244.32 685.2,-245.03 685.84,-245.74"/>
<polygon fill="#63b8ff" stroke="#63b8ff" points="683.63,-248.46 693.34,-252.7 688.39,-243.33 683.63,-248.46"/>
</a>
</g>
</g>
<!-- Node20&#45;&gt;Node18 -->
<g id="edge24_Node000020_Node000018" class="edge">
<title>Node20&#45;&gt;Node18</title>
<g id="a_edge24_Node000020_Node000018"><a xlink:title=" ">
<path fill="none" stroke="#63b8ff" d="M629.13,-161.14C635.71,-163.4 642.18,-166.18 648,-169.59 667.79,-181.21 666.97,-191.22 684,-206.59 684.98,-207.48 685.99,-208.36 687.02,-209.25"/>
<polygon fill="#63b8ff" stroke="#63b8ff" points="685.09,-212.2 695.04,-215.84 689.53,-206.79 685.09,-212.2"/>
</a>
</g>
</g>
<!-- Node21&#45;&gt;Node4 -->
<g id="edge30_Node000021_Node000004" class="edge">
<title>Node21&#45;&gt;Node4</title>
<g id="a_edge30_Node000021_Node000004"><a xlink:title=" ">
<path fill="none" stroke="#63b8ff" d="M597.08,-272.22C618.84,-285.24 657.85,-308.59 683.33,-323.83"/>
<polygon fill="#63b8ff" stroke="#63b8ff" points="681.67,-326.92 692.05,-329.05 685.26,-320.91 681.67,-326.92"/>
</a>
</g>
</g>
<!-- Node21&#45;&gt;Node5 -->
<g id="edge33_Node000021_Node000005" class="edge">
<title>Node21&#45;&gt;Node5</title>
<g id="a_edge33_Node000021_Node000005"><a xlink:title=" ">
<path fill="none" stroke="#63b8ff" d="M639.67,-262.59C651.37,-262.59 663.28,-262.59 673.82,-262.59"/>
<polygon fill="#63b8ff" stroke="#63b8ff" points="673.84,-266.1 683.84,-262.59 673.84,-259.1 673.84,-266.1"/>
</a>
</g>
</g>
<!-- Node21&#45;&gt;Node6 -->
<g id="edge34_Node000021_Node000006" class="edge">
<title>Node21&#45;&gt;Node6</title>
<g id="a_edge34_Node000021_Node000006"><a xlink:title=" ">
<path fill="none" stroke="#63b8ff" d="M595.7,-272.22C610.49,-282.5 633.17,-299.99 648,-319.59 655.21,-329.13 685.13,-397.51 699.8,-431.51"/>
<polygon fill="#63b8ff" stroke="#63b8ff" points="696.66,-433.05 703.83,-440.85 703.09,-430.28 696.66,-433.05"/>
</a>
</g>
</g>
<!-- Node21&#45;&gt;Node7 -->
<g id="edge35_Node000021_Node000007" class="edge">
<title>Node21&#45;&gt;Node7</title>
<g id="a_edge35_Node000021_Node000007"><a xlink:title=" ">
<path fill="none" stroke="#63b8ff" d="M613.05,-272.18C633.2,-278.21 659,-285.93 678.62,-291.8"/>
<polygon fill="#63b8ff" stroke="#63b8ff" points="677.67,-295.17 688.25,-294.69 679.68,-288.47 677.67,-295.17"/>
</a>
</g>
</g>
<!-- Node21&#45;&gt;Node17 -->
<g id="edge31_Node000021_Node000017" class="edge">
<title>Node21&#45;&gt;Node17</title>
<g id="a_edge31_Node000021_Node000017"><a xlink:title=" ">
<path fill="none" stroke="#63b8ff" d="M627.02,-253.01C634.31,-250.53 641.56,-247.43 648,-243.59 667.71,-231.84 666.77,-221.75 684,-206.59 684.82,-205.87 685.67,-205.15 686.53,-204.43"/>
<polygon fill="#63b8ff" stroke="#63b8ff" points="688.82,-207.08 694.51,-198.14 684.49,-201.58 688.82,-207.08"/>
</a>
</g>
</g>
<!-- Node21&#45;&gt;Node18 -->
<g id="edge32_Node000021_Node000018" class="edge">
<title>Node21&#45;&gt;Node18</title>
<g id="a_edge32_Node000021_Node000018"><a xlink:title=" ">
<path fill="none" stroke="#63b8ff" d="M615.11,-253.03C625.67,-250.04 637.32,-246.71 648,-243.59 659.2,-240.33 671.54,-236.64 682.11,-233.46"/>
<polygon fill="#63b8ff" stroke="#63b8ff" points="683.42,-236.72 691.98,-230.47 681.39,-230.02 683.42,-236.72"/>
</a>
</g>
</g>
<!-- Node23&#45;&gt;Node4 -->
<g id="edge40_Node000023_Node000004" class="edge">
<title>Node23&#45;&gt;Node4</title>
<g id="a_edge40_Node000023_Node000004"><a xlink:title=" ">
<path fill="none" stroke="#63b8ff" d="M618.73,-191.97C629.3,-194.58 640.06,-199.04 648,-206.59 685.86,-242.66 654.76,-275.25 684,-318.59 684.73,-319.68 685.54,-320.74 686.41,-321.77"/>
<polygon fill="#63b8ff" stroke="#63b8ff" points="684.16,-324.47 693.76,-328.97 689.06,-319.47 684.16,-324.47"/>
</a>
</g>
</g>
<!-- Node23&#45;&gt;Node5 -->
<g id="edge43_Node000023_Node000005" class="edge">
<title>Node23&#45;&gt;Node5</title>
<g id="a_edge43_Node000023_Node000005"><a xlink:title=" ">
<path fill="none" stroke="#63b8ff" d="M618.58,-194.93C628.57,-197.6 639.07,-201.35 648,-206.59 667.79,-218.21 666.97,-228.22 684,-243.59 684.98,-244.48 685.99,-245.36 687.02,-246.25"/>
<polygon fill="#63b8ff" stroke="#63b8ff" points="685.09,-249.2 695.04,-252.84 689.53,-243.79 685.09,-249.2"/>
</a>
</g>
</g>
<!-- Node23&#45;&gt;Node7 -->
<g id="edge44_Node000023_Node000007" class="edge">
<title>Node23&#45;&gt;Node7</title>
<g id="a_edge44_Node000023_Node000007"><a xlink:title=" ">
<path fill="none" stroke="#63b8ff" d="M618.78,-192.87C629.12,-195.51 639.73,-199.77 648,-206.59 676.2,-229.88 661.45,-251.8 684,-280.59 684.92,-281.77 685.92,-282.92 686.97,-284.04"/>
<polygon fill="#63b8ff" stroke="#63b8ff" points="684.65,-286.67 694.36,-290.91 689.42,-281.54 684.65,-286.67"/>
</a>
</g>
</g>
<!-- Node23&#45;&gt;Node17 -->
<g id="edge41_Node000023_Node000017" class="edge">
<title>Node23&#45;&gt;Node17</title>
<g id="a_edge41_Node000023_Node000017"><a xlink:title=" ">
<path fill="none" stroke="#63b8ff" d="M618.76,-188.59C638.35,-188.59 661.87,-188.59 679.85,-188.59"/>
<polygon fill="#63b8ff" stroke="#63b8ff" points="679.98,-192.1 689.98,-188.59 679.98,-185.1 679.98,-192.1"/>
</a>
</g>
</g>
<!-- Node23&#45;&gt;Node18 -->
<g id="edge42_Node000023_Node000018" class="edge">
<title>Node23&#45;&gt;Node18</title>
<g id="a_edge42_Node000023_Node000018"><a xlink:title=" ">
<path fill="none" stroke="#63b8ff" d="M617.59,-198.11C627.49,-200.77 638.17,-203.72 648,-206.59 659.17,-209.86 671.43,-213.7 681.94,-217.07"/>
<polygon fill="#63b8ff" stroke="#63b8ff" points="681.17,-220.5 691.76,-220.24 683.32,-213.83 681.17,-220.5"/>
</a>
</g>
</g>
<!-- Node24&#45;&gt;Node4 -->
<g id="edge46_Node000024_Node000004" class="edge">
<title>Node24&#45;&gt;Node4</title>
<g id="a_edge46_Node000024_Node000004"><a xlink:title=" ">
<path fill="none" stroke="#63b8ff" d="M634.35,-235.22C639.27,-237.46 643.92,-240.21 648,-243.59 676.45,-267.21 661.28,-289.43 684,-318.59 684.92,-319.77 685.91,-320.93 686.96,-322.05"/>
<polygon fill="#63b8ff" stroke="#63b8ff" points="684.64,-324.67 694.35,-328.92 689.41,-319.55 684.64,-324.67"/>
</a>
</g>
</g>
<!-- Node24&#45;&gt;Node5 -->
<g id="edge49_Node000024_Node000005" class="edge">
<title>Node24&#45;&gt;Node5</title>
<g id="a_edge49_Node000024_Node000005"><a xlink:title=" ">
<path fill="none" stroke="#63b8ff" d="M617.59,-235.11C627.49,-237.77 638.17,-240.72 648,-243.59 656.52,-246.09 665.67,-248.91 674.2,-251.6"/>
<polygon fill="#63b8ff" stroke="#63b8ff" points="673.25,-254.98 683.84,-254.68 675.38,-248.31 673.25,-254.98"/>
</a>
</g>
</g>
<!-- Node24&#45;&gt;Node7 -->
<g id="edge50_Node000024_Node000007" class="edge">
<title>Node24&#45;&gt;Node7</title>
<g id="a_edge50_Node000024_Node000007"><a xlink:title=" ">
<path fill="none" stroke="#63b8ff" d="M629.13,-235.14C635.71,-237.4 642.18,-240.18 648,-243.59 667.79,-255.21 667.16,-265.01 684,-280.59 685.31,-281.81 686.69,-283.05 688.08,-284.27"/>
<polygon fill="#63b8ff" stroke="#63b8ff" points="686.19,-287.26 696.07,-291.07 690.72,-281.92 686.19,-287.26"/>
</a>
</g>
</g>
<!-- Node24&#45;&gt;Node17 -->
<g id="edge47_Node000024_Node000017" class="edge">
<title>Node24&#45;&gt;Node17</title>
<g id="a_edge47_Node000024_Node000017"><a xlink:title=" ">
<path fill="none" stroke="#63b8ff" d="M615.11,-216.03C625.67,-213.04 637.32,-209.71 648,-206.59 658.57,-203.51 670.17,-200.05 680.32,-196.99"/>
<polygon fill="#63b8ff" stroke="#63b8ff" points="681.34,-200.34 689.9,-194.1 679.32,-193.64 681.34,-200.34"/>
</a>
</g>
</g>
<!-- Node24&#45;&gt;Node18 -->
<g id="edge48_Node000024_Node000018" class="edge">
<title>Node24&#45;&gt;Node18</title>
<g id="a_edge48_Node000024_Node000018"><a xlink:title=" ">
<path fill="none" stroke="#63b8ff" d="M637.07,-225.59C652.65,-225.59 668.83,-225.59 681.79,-225.59"/>
<polygon fill="#63b8ff" stroke="#63b8ff" points="681.84,-229.1 691.84,-225.59 681.84,-222.1 681.84,-229.1"/>
</a>
</g>
</g>
<!-- Node25&#45;&gt;Node5 -->
<g id="edge56_Node000025_Node000005" class="edge">
<title>Node25&#45;&gt;Node5</title>
<g id="a_edge56_Node000025_Node000005"><a xlink:title=" ">
<path fill="none" stroke="#63b8ff" d="M422.91,-160.94C464.38,-137.16 577.42,-81.29 648,-132.59 689.95,-163.09 654.4,-201.01 684,-243.59 684.53,-244.36 685.1,-245.11 685.7,-245.84"/>
<polygon fill="#63b8ff" stroke="#63b8ff" points="683.4,-248.48 693.01,-252.95 688.29,-243.47 683.4,-248.48"/>
</a>
</g>
</g>
<!-- Node25&#45;&gt;Node17 -->
<g id="edge54_Node000025_Node000017" class="edge">
<title>Node25&#45;&gt;Node17</title>
<g id="a_edge54_Node000025_Node000017"><a xlink:title=" ">
<path fill="none" stroke="#63b8ff" d="M410.28,-160.98C420.3,-133.34 453.44,-53.73 512,-23.59 565.75,4.06 598.49,11.08 648,-23.59 695.76,-57.05 705.65,-132.64 707.59,-168.71"/>
<polygon fill="#63b8ff" stroke="#63b8ff" points="704.1,-169.07 707.98,-178.93 711.1,-168.81 704.1,-169.07"/>
</a>
</g>
</g>
<!-- Node25&#45;&gt;Node20 -->
<g id="edge53_Node000025_Node000020" class="edge">
<title>Node25&#45;&gt;Node20</title>
<g id="a_edge53_Node000025_Node000020"><a xlink:title=" ">
<path fill="none" stroke="#63b8ff" d="M444.32,-166.47C461.23,-164.6 481.87,-162.32 501.87,-160.12"/>
<polygon fill="#63b8ff" stroke="#63b8ff" points="502.38,-163.58 511.93,-159 501.61,-156.62 502.38,-163.58"/>
</a>
</g>
</g>
<!-- Node25&#45;&gt;Node21 -->
<g id="edge55_Node000025_Node000021" class="edge">
<title>Node25&#45;&gt;Node21</title>
<g id="a_edge55_Node000025_Node000021"><a xlink:title=" ">
<path fill="none" stroke="#63b8ff" d="M418.18,-180.27C436.57,-195.73 474.87,-226.03 512,-243.59 516.92,-245.92 522.18,-248.02 527.51,-249.89"/>
<polygon fill="#63b8ff" stroke="#63b8ff" points="526.52,-253.25 537.11,-253.03 528.69,-246.6 526.52,-253.25"/>
</a>
</g>
</g>
<!-- Node25&#45;&gt;Node23 -->
<g id="edge57_Node000025_Node000023" class="edge">
<title>Node25&#45;&gt;Node23</title>
<g id="a_edge57_Node000025_Node000023"><a xlink:title=" ">
<path fill="none" stroke="#63b8ff" d="M444.32,-174.5C469.82,-177.17 503.82,-180.73 531.28,-183.6"/>
<polygon fill="#63b8ff" stroke="#63b8ff" points="531.14,-187.11 541.45,-184.67 531.87,-180.14 531.14,-187.11"/>
</a>
</g>
</g>
</g>
</svg>

<g id="navigator" transform="translate(0 0)" fill="#404254">
  <rect fill="#f2f5e9" fill-opacity="0.5" stroke="#606060" stroke-width=".5" x="0" y="0" width="60" height="60"/>
  <use id="zoomplus" xlink:href="#zoomPlus" x="17" y="9" onmousedown="handleZoom(evt,'in')"/>
  <use id="zoomminus" xlink:href="#zoomMin" x="42" y="9" onmousedown="handleZoom(evt,'out')"/>
  <use id="reset" xlink:href="#resetDef" x="30" y="36" onmousedown="handleReset()"/>
   <use id="arrowup" xlink:href="#arrowUp" x="0" y="0" onmousedown="handlePan(0,-1)"/>
  <use id="arrowright" xlink:href="#arrowRight" x="0" y="0" onmousedown="handlePan(1,0)"/>
  <use id="arrowdown" xlink:href="#arrowDown" x="0" y="0" onmousedown="handlePan(0,1)"/>
  <use id="arrowleft" xlink:href="#arrowLeft" x="0" y="0" onmousedown="handlePan(-1,0)"/>
</g>
<svg viewBox="0 0 15 15" width="100%" height="30px" preserveAspectRatio="xMaxYMin meet">
 <g id="arrow_out" transform="scale(0.3 0.3)">
  <a xlink:href="mlp_8c_a95587eada79194109e216fe2d1536aa5_cgraph_org.svg" target="_base">
   <rect id="button" ry="5" rx="5" y="6" x="6" height="38" width="38"
        fill="#f2f5e9" fill-opacity="0.5" stroke="#606060" stroke-width="1.0"/>
   <path id="arrow"
     d="M 11.500037,31.436501 C 11.940474,20.09759 22.043105,11.32322 32.158766,21.979434 L 37.068811,17.246167 C 37.068811,17.246167 37.088388,32 37.088388,32 L 22.160133,31.978069 C 22.160133,31.978069 26.997745,27.140456 26.997745,27.140456 C 18.528582,18.264221 13.291696,25.230495 11.500037,31.436501 z"
     style="fill:#404040;"/>
  </a>
 </g>
</svg>

<style type='text/css'>
<![CDATA[
[data-mouse-over-selected='false'] { opacity: 0.7; }
[data-mouse-over-selected='true']  { opacity: 1.0; }
]]>
</style>
<script type="application/ecmascript"><![CDATA[
document.addEventListener('DOMContentLoaded', (event) => {
  highlightEdges();
  highlightAdjacentNodes();
});
]]></script>
</svg>
