<?xml version="1.0" encoding="UTF-8" standalone="no"?>
<!DOCTYPE svg PUBLIC "-//W3C//DTD SVG 1.1//EN"
 "http://www.w3.org/Graphics/SVG/1.1/DTD/svg11.dtd">
<!-- Generated by graphviz version 2.43.0 (0)
 -->
<!-- Title: backward_pass Pages: 1 -->
<svg width="870pt" height="571pt"
 viewBox="0.00 0.00 870.00 571.02" xmlns="http://www.w3.org/2000/svg" xmlns:xlink="http://www.w3.org/1999/xlink">
<g id="graph0" class="graph" transform="scale(1 1) rotate(0) translate(4 567.02)">
<title>backward_pass</title>
<!-- Node1 -->
<g id="Node000001" class="node">
<title>Node1</title>
<g id="a_Node000001"><a xlink:title=" ">
<polygon fill="#999999" stroke="#666666" points="92,-339.09 0,-339.09 0,-320.09 92,-320.09 92,-339.09"/>
<text text-anchor="middle" x="46" y="-327.09" font-family="Helvetica,sans-Serif" font-size="10.00">backward_pass</text>
</a>
</g>
</g>
<!-- Node2 -->
<g id="Node000002" class="node">
<title>Node2</title>
<g id="a_Node000002"><a xlink:href="mlp_8c.html#a95587eada79194109e216fe2d1536aa5" target="_top" xlink:title=" ">
<polygon fill="white" stroke="#666666" points="199,-339.09 128,-339.09 128,-320.09 199,-320.09 199,-339.09"/>
<text text-anchor="middle" x="163.5" y="-327.09" font-family="Helvetica,sans-Serif" font-size="10.00">compute_R</text>
</a>
</g>
</g>
<!-- Node1&#45;&gt;Node2 -->
<g id="edge1_Node000001_Node000002" class="edge">
<title>Node1&#45;&gt;Node2</title>
<g id="a_edge1_Node000001_Node000002"><a xlink:title=" ">
<path fill="none" stroke="#63b8ff" d="M92.32,-329.59C100.58,-329.59 109.2,-329.59 117.46,-329.59"/>
<polygon fill="#63b8ff" stroke="#63b8ff" points="117.67,-333.1 127.67,-329.59 117.67,-326.1 117.67,-333.1"/>
</a>
</g>
</g>
<!-- Node3 -->
<g id="Node000003" class="node">
<title>Node3</title>
<g id="a_Node000003"><a xlink:href="inverse_8c.html#a8ccb34384a9c46d52bb413dcd177c67b" target="_top" xlink:title=" ">
<polygon fill="white" stroke="#666666" points="315,-339.09 235,-339.09 235,-320.09 315,-320.09 315,-339.09"/>
<text text-anchor="middle" x="275" y="-327.09" font-family="Helvetica,sans-Serif" font-size="10.00">ResidualCalc</text>
</a>
</g>
</g>
<!-- Node2&#45;&gt;Node3 -->
<g id="edge2_Node000002_Node000003" class="edge">
<title>Node2&#45;&gt;Node3</title>
<g id="a_edge2_Node000002_Node000003"><a xlink:title=" ">
<path fill="none" stroke="#63b8ff" d="M199.15,-329.59C207.16,-329.59 215.85,-329.59 224.37,-329.59"/>
<polygon fill="#63b8ff" stroke="#63b8ff" points="224.62,-333.1 234.62,-329.59 224.62,-326.1 224.62,-333.1"/>
</a>
</g>
</g>
<!-- Node4 -->
<g id="Node000004" class="node">
<title>Node4</title>
<g id="a_Node000004"><a xlink:href="io_8c.html#ac6a6fe57e1e391ebe52b1dbffde4ba5b" target="_top" xlink:title=" ">
<polygon fill="white" stroke="#666666" points="745.5,-498.09 670.5,-498.09 670.5,-479.09 745.5,-479.09 745.5,-498.09"/>
<text text-anchor="middle" x="708" y="-486.09" font-family="Helvetica,sans-Serif" font-size="10.00">AreaNormal</text>
</a>
</g>
</g>
<!-- Node3&#45;&gt;Node4 -->
<g id="edge3_Node000003_Node000004" class="edge">
<title>Node3&#45;&gt;Node4</title>
<g id="a_edge3_Node000003_Node000004"><a xlink:title=" ">
<path fill="none" stroke="#63b8ff" d="M280.5,-339.4C290.34,-359.78 315.76,-406.96 351,-432.59 443.95,-500.21 586.83,-499.62 660.11,-493.9"/>
<polygon fill="#63b8ff" stroke="#63b8ff" points="660.73,-497.35 670.4,-493.02 660.14,-490.38 660.73,-497.35"/>
</a>
</g>
</g>
<!-- Node9 -->
<g id="Node000009" class="node">
<title>Node9</title>
<g id="a_Node000009"><a xlink:href="main_8c.html#a406cf6152471e0614dca5a045fdfd99f" target="_top" xlink:title=" ">
<polygon fill="white" stroke="#666666" points="422.5,-423.09 356.5,-423.09 356.5,-404.09 422.5,-404.09 422.5,-423.09"/>
<text text-anchor="middle" x="389.5" y="-411.09" font-family="Helvetica,sans-Serif" font-size="10.00">FDynamic</text>
</a>
</g>
</g>
<!-- Node3&#45;&gt;Node9 -->
<g id="edge8_Node000003_Node000009" class="edge">
<title>Node3&#45;&gt;Node9</title>
<g id="a_edge8_Node000003_Node000009"><a xlink:title=" ">
<path fill="none" stroke="#63b8ff" d="M288.06,-339.24C302.76,-350.91 328.43,-371.06 351,-387.59 355.71,-391.05 360.82,-394.67 365.71,-398.07"/>
<polygon fill="#63b8ff" stroke="#63b8ff" points="363.91,-401.09 374.13,-403.89 367.89,-395.33 363.91,-401.09"/>
</a>
</g>
</g>
<!-- Node12 -->
<g id="Node000012" class="node">
<title>Node12</title>
<g id="a_Node000012"><a xlink:href="bcs_8c.html#aef1719332b4828ce07ba0c7a6bba7bcd" target="_top" xlink:title=" ">
<polygon fill="white" stroke="#666666" points="421,-379.09 358,-379.09 358,-360.09 421,-360.09 421,-379.09"/>
<text text-anchor="middle" x="389.5" y="-367.09" font-family="Helvetica,sans-Serif" font-size="10.00">FExternal</text>
</a>
</g>
</g>
<!-- Node3&#45;&gt;Node12 -->
<g id="edge11_Node000003_Node000012" class="edge">
<title>Node3&#45;&gt;Node12</title>
<g id="a_edge11_Node000003_Node000012"><a xlink:title=" ">
<path fill="none" stroke="#63b8ff" d="M302.95,-339.18C317.7,-344.42 336.18,-350.99 352.18,-356.68"/>
<polygon fill="#63b8ff" stroke="#63b8ff" points="351.18,-360.04 361.77,-360.09 353.52,-353.44 351.18,-360.04"/>
</a>
</g>
</g>
<!-- Node14 -->
<g id="Node000014" class="node">
<title>Node14</title>
<g id="a_Node000014"><a xlink:href="main_8c.html#a59ccabe25c63661e6e66b44209b0f162" target="_top" xlink:title=" ">
<polygon fill="white" stroke="#666666" points="419.5,-339.09 359.5,-339.09 359.5,-320.09 419.5,-320.09 419.5,-339.09"/>
<text text-anchor="middle" x="389.5" y="-327.09" font-family="Helvetica,sans-Serif" font-size="10.00">FInternal</text>
</a>
</g>
</g>
<!-- Node3&#45;&gt;Node14 -->
<g id="edge13_Node000003_Node000014" class="edge">
<title>Node3&#45;&gt;Node14</title>
<g id="a_edge13_Node000003_Node000014"><a xlink:title=" ">
<path fill="none" stroke="#63b8ff" d="M315.03,-329.59C326.09,-329.59 338.14,-329.59 349.21,-329.59"/>
<polygon fill="#63b8ff" stroke="#63b8ff" points="349.47,-333.1 359.47,-329.59 349.47,-326.1 349.47,-333.1"/>
</a>
</g>
</g>
<!-- Node28 -->
<g id="Node000028" class="node">
<title>Node28</title>
<g id="a_Node000028"><a xlink:href="bcs_8c.html#a66bea6d23d803ebc455e934629a0c7be" target="_top" xlink:title=" ">
<polygon fill="white" stroke="#666666" points="420.5,-302.09 358.5,-302.09 358.5,-283.09 420.5,-283.09 420.5,-302.09"/>
<text text-anchor="middle" x="389.5" y="-290.09" font-family="Helvetica,sans-Serif" font-size="10.00">GhostLoc</text>
</a>
</g>
</g>
<!-- Node3&#45;&gt;Node28 -->
<g id="edge59_Node000003_Node000028" class="edge">
<title>Node3&#45;&gt;Node28</title>
<g id="a_edge59_Node000003_Node000028"><a xlink:title=" ">
<path fill="none" stroke="#63b8ff" d="M304.97,-320.07C318.51,-315.61 334.84,-310.24 349.45,-305.44"/>
<polygon fill="#63b8ff" stroke="#63b8ff" points="350.83,-308.67 359.24,-302.22 348.64,-302.02 350.83,-308.67"/>
</a>
</g>
</g>
<!-- Node29 -->
<g id="Node000029" class="node">
<title>Node29</title>
<g id="a_Node000029"><a xlink:href="bending_8c.html#a4a1f5973a55922b27065f712220d8152" target="_top" xlink:title=" ">
<polygon fill="white" stroke="#666666" points="428,-265.09 351,-265.09 351,-246.09 428,-246.09 428,-265.09"/>
<text text-anchor="middle" x="389.5" y="-253.09" font-family="Helvetica,sans-Serif" font-size="10.00">GlobalGhost</text>
</a>
</g>
</g>
<!-- Node3&#45;&gt;Node29 -->
<g id="edge60_Node000003_Node000029" class="edge">
<title>Node3&#45;&gt;Node29</title>
<g id="a_edge60_Node000003_Node000029"><a xlink:title=" ">
<path fill="none" stroke="#63b8ff" d="M287.45,-319.93C301.75,-308.14 327.23,-287.99 351,-273.59 353.16,-272.29 355.43,-271 357.75,-269.75"/>
<polygon fill="#63b8ff" stroke="#63b8ff" points="359.39,-272.84 366.71,-265.18 356.21,-266.61 359.39,-272.84"/>
</a>
</g>
</g>
<!-- Node30 -->
<g id="Node000030" class="node">
<title>Node30</title>
<g id="a_Node000030"><a xlink:href="bending_8c.html#a907be03803f4a1d456a7a1650461f7eb" target="_top" xlink:title=" ">
<polygon fill="white" stroke="#666666" points="419,-228.09 360,-228.09 360,-209.09 419,-209.09 419,-228.09"/>
<text text-anchor="middle" x="389.5" y="-216.09" font-family="Helvetica,sans-Serif" font-size="10.00">PatchLoc</text>
</a>
</g>
</g>
<!-- Node3&#45;&gt;Node30 -->
<g id="edge61_Node000003_Node000030" class="edge">
<title>Node3&#45;&gt;Node30</title>
<g id="a_edge61_Node000003_Node000030"><a xlink:title=" ">
<path fill="none" stroke="#63b8ff" d="M281.69,-319.99C292.93,-301.69 319.62,-261.45 351,-236.59 352.53,-235.38 354.15,-234.23 355.83,-233.13"/>
<polygon fill="#63b8ff" stroke="#63b8ff" points="357.62,-236.14 364.55,-228.12 354.13,-230.07 357.62,-236.14"/>
</a>
</g>
</g>
<!-- Node5 -->
<g id="Node000005" class="node">
<title>Node5</title>
<g id="a_Node000005"><a xlink:href="math_8c.html#a9d60990d26296194c921d537ea26f3c7" target="_top" xlink:title=" ">
<polygon fill="white" stroke="#666666" points="862,-366.09 812,-366.09 812,-347.09 862,-347.09 862,-366.09"/>
<text text-anchor="middle" x="837" y="-354.09" font-family="Helvetica,sans-Serif" font-size="10.00">CROSS</text>
</a>
</g>
</g>
<!-- Node4&#45;&gt;Node5 -->
<g id="edge4_Node000004_Node000005" class="edge">
<title>Node4&#45;&gt;Node5</title>
<g id="a_edge4_Node000004_Node000005"><a xlink:title=" ">
<path fill="none" stroke="#63b8ff" d="M745.81,-485.15C756.6,-482.56 767.71,-478.13 776,-470.59 809.74,-439.96 784.68,-411.06 812,-374.59 812.28,-374.22 812.57,-373.85 812.87,-373.48"/>
<polygon fill="#63b8ff" stroke="#63b8ff" points="815.36,-375.94 820.11,-366.47 810.49,-370.91 815.36,-375.94"/>
</a>
</g>
</g>
<!-- Node6 -->
<g id="Node000006" class="node">
<title>Node6</title>
<g id="a_Node000006"><a xlink:href="math_8c.html#a9d08a9d2fd8e8932e92b8ab054b19269" target="_top" xlink:title=" ">
<polygon fill="white" stroke="#666666" points="862,-272.09 812,-272.09 812,-253.09 862,-253.09 862,-272.09"/>
<text text-anchor="middle" x="837" y="-260.09" font-family="Helvetica,sans-Serif" font-size="10.00">MINUS</text>
</a>
</g>
</g>
<!-- Node4&#45;&gt;Node6 -->
<g id="edge5_Node000004_Node000006" class="edge">
<title>Node4&#45;&gt;Node6</title>
<g id="a_edge5_Node000004_Node000006"><a xlink:title=" ">
<path fill="none" stroke="#63b8ff" d="M745.84,-486.05C756.88,-483.53 768.13,-478.91 776,-470.59 829.39,-414.19 782.37,-371.39 812,-299.59 814.68,-293.09 818.53,-286.49 822.36,-280.7"/>
<polygon fill="#63b8ff" stroke="#63b8ff" points="825.31,-282.59 828.2,-272.4 819.59,-278.57 825.31,-282.59"/>
</a>
</g>
</g>
<!-- Node7 -->
<g id="Node000007" class="node">
<title>Node7</title>
<g id="a_Node000007"><a xlink:href="math_8c.html#aa52f6593cf3e5453c8c6c94343d3fb37" target="_top" xlink:title=" ">
<polygon fill="white" stroke="#666666" points="856,-403.09 818,-403.09 818,-384.09 856,-384.09 856,-403.09"/>
<text text-anchor="middle" x="837" y="-391.09" font-family="Helvetica,sans-Serif" font-size="10.00">SIZE</text>
</a>
</g>
</g>
<!-- Node4&#45;&gt;Node7 -->
<g id="edge6_Node000004_Node000007" class="edge">
<title>Node4&#45;&gt;Node7</title>
<g id="a_edge6_Node000004_Node000007"><a xlink:title=" ">
<path fill="none" stroke="#63b8ff" d="M745.58,-483.26C756,-480.59 766.97,-476.59 776,-470.59 798.4,-455.74 816.08,-429.73 826.28,-412.09"/>
<polygon fill="#63b8ff" stroke="#63b8ff" points="829.38,-413.72 831.17,-403.28 823.26,-410.33 829.38,-413.72"/>
</a>
</g>
</g>
<!-- Node8 -->
<g id="Node000008" class="node">
<title>Node8</title>
<g id="a_Node000008"><a xlink:href="math_8c.html#ac616709995f2ae60c4308ffa328337d7" target="_top" xlink:title=" ">
<polygon fill="white" stroke="#666666" points="857.5,-328.09 816.5,-328.09 816.5,-309.09 857.5,-309.09 857.5,-328.09"/>
<text text-anchor="middle" x="837" y="-316.09" font-family="Helvetica,sans-Serif" font-size="10.00">UNIT</text>
</a>
</g>
</g>
<!-- Node4&#45;&gt;Node8 -->
<g id="edge7_Node000004_Node000008" class="edge">
<title>Node4&#45;&gt;Node8</title>
<g id="a_edge7_Node000004_Node000008"><a xlink:title=" ">
<path fill="none" stroke="#63b8ff" d="M745.56,-485.78C756.59,-483.24 767.9,-478.68 776,-470.59 819.34,-427.33 778.3,-388.73 812,-337.59 812.51,-336.82 813.07,-336.06 813.65,-335.32"/>
<polygon fill="#63b8ff" stroke="#63b8ff" points="816.24,-337.68 820.88,-328.15 811.32,-332.71 816.24,-337.68"/>
</a>
</g>
</g>
<!-- Node10 -->
<g id="Node000010" class="node">
<title>Node10</title>
<g id="a_Node000010"><a xlink:href="material_8c.html#a39aa444d5f3c2ebbec2bb3d9aedb3b87" target="_top" xlink:title=" ">
<polygon fill="white" stroke="#666666" points="557,-460.09 511,-460.09 511,-441.09 557,-441.09 557,-460.09"/>
<text text-anchor="middle" x="534" y="-448.09" font-family="Helvetica,sans-Serif" font-size="10.00">Damp</text>
</a>
</g>
</g>
<!-- Node9&#45;&gt;Node10 -->
<g id="edge9_Node000009_Node000010" class="edge">
<title>Node9&#45;&gt;Node10</title>
<g id="a_edge9_Node000009_Node000010"><a xlink:title=" ">
<path fill="none" stroke="#63b8ff" d="M422.84,-421.99C446.3,-428.08 477.88,-436.28 501.21,-442.34"/>
<polygon fill="#63b8ff" stroke="#63b8ff" points="500.42,-445.75 510.98,-444.88 502.18,-438.98 500.42,-445.75"/>
</a>
</g>
</g>
<!-- Node11 -->
<g id="Node000011" class="node">
<title>Node11</title>
<g id="a_Node000011"><a xlink:href="material_8c.html#a2d561c42d0809a56d3abe1d1c9c24588" target="_top" xlink:title=" ">
<polygon fill="white" stroke="#666666" points="555,-423.09 513,-423.09 513,-404.09 555,-404.09 555,-423.09"/>
<text text-anchor="middle" x="534" y="-411.09" font-family="Helvetica,sans-Serif" font-size="10.00">Mass</text>
</a>
</g>
</g>
<!-- Node9&#45;&gt;Node11 -->
<g id="edge10_Node000009_Node000011" class="edge">
<title>Node9&#45;&gt;Node11</title>
<g id="a_edge10_Node000009_Node000011"><a xlink:title=" ">
<path fill="none" stroke="#63b8ff" d="M422.84,-413.59C446.76,-413.59 479.13,-413.59 502.59,-413.59"/>
<polygon fill="#63b8ff" stroke="#63b8ff" points="502.68,-417.1 512.68,-413.59 502.68,-410.1 502.68,-417.1"/>
</a>
</g>
</g>
<!-- Node13 -->
<g id="Node000013" class="node">
<title>Node13</title>
<g id="a_Node000013"><a xlink:href="external_8c.html#a93115e0e971ccd05cacd122af8636e18" target="_top" xlink:title=" ">
<polygon fill="white" stroke="#666666" points="604,-385.59 464,-385.59 464,-355.59 604,-355.59 604,-385.59"/>
<text text-anchor="start" x="472" y="-373.59" font-family="Helvetica,sans-Serif" font-size="10.00">FExternalPrescribedForce</text>
<text text-anchor="middle" x="534" y="-362.59" font-family="Helvetica,sans-Serif" font-size="10.00">FieldIn</text>
</a>
</g>
</g>
<!-- Node12&#45;&gt;Node13 -->
<g id="edge12_Node000012_Node000013" class="edge">
<title>Node12&#45;&gt;Node13</title>
<g id="a_edge12_Node000012_Node000013"><a xlink:title=" ">
<path fill="none" stroke="#63b8ff" d="M421.07,-369.81C430.81,-369.88 442.08,-369.96 453.63,-370.04"/>
<polygon fill="#63b8ff" stroke="#63b8ff" points="453.8,-373.54 463.83,-370.11 453.85,-366.54 453.8,-373.54"/>
</a>
</g>
</g>
<!-- Node15 -->
<g id="Node000015" class="node">
<title>Node15</title>
<g id="a_Node000015"><a xlink:href="bending_8c.html#a2b66770553fce4724cfb65b0f79e83b1" target="_top" xlink:title=" ">
<polygon fill="white" stroke="#666666" points="565,-300.09 503,-300.09 503,-281.09 565,-281.09 565,-300.09"/>
<text text-anchor="middle" x="534" y="-288.09" font-family="Helvetica,sans-Serif" font-size="10.00">Fbending</text>
</a>
</g>
</g>
<!-- Node14&#45;&gt;Node15 -->
<g id="edge14_Node000014_Node000015" class="edge">
<title>Node14&#45;&gt;Node15</title>
<g id="a_edge14_Node000014_Node000015"><a xlink:title=" ">
<path fill="none" stroke="#63b8ff" d="M419.78,-321.06C433.23,-317.18 449.41,-312.58 464,-308.59 473.3,-306.05 483.32,-303.4 492.77,-300.92"/>
<polygon fill="#63b8ff" stroke="#63b8ff" points="493.94,-304.24 502.73,-298.33 492.17,-297.46 493.94,-304.24"/>
</a>
</g>
</g>
<!-- Node26 -->
<g id="Node000026" class="node">
<title>Node26</title>
<g id="a_Node000026"><a xlink:href="membrane_8c.html#a9fee56a81a4f404db4630a996f38013c" target="_top" xlink:title=" ">
<polygon fill="white" stroke="#666666" points="572,-180.09 496,-180.09 496,-161.09 572,-161.09 572,-180.09"/>
<text text-anchor="middle" x="534" y="-168.09" font-family="Helvetica,sans-Serif" font-size="10.00">Fmembrane</text>
</a>
</g>
</g>
<!-- Node14&#45;&gt;Node26 -->
<g id="edge52_Node000014_Node000026" class="edge">
<title>Node14&#45;&gt;Node26</title>
<g id="a_edge52_Node000014_Node000026"><a xlink:title=" ">
<path fill="none" stroke="#63b8ff" d="M413.75,-319.91C418.72,-317.28 423.75,-314.16 428,-310.59 450.44,-291.76 498.67,-221.84 521.09,-188.5"/>
<polygon fill="#63b8ff" stroke="#63b8ff" points="524.03,-190.4 526.68,-180.14 518.21,-186.51 524.03,-190.4"/>
</a>
</g>
</g>
<!-- Node27 -->
<g id="Node000027" class="node">
<title>Node27</title>
<g id="a_Node000027"><a xlink:href="bcs_8c.html#a679ccb265fdae6027920ac949da40b91" target="_top" xlink:title=" ">
<polygon fill="white" stroke="#666666" points="581.5,-337.09 486.5,-337.09 486.5,-318.09 581.5,-318.09 581.5,-337.09"/>
<text text-anchor="middle" x="534" y="-325.09" font-family="Helvetica,sans-Serif" font-size="10.00">ModifyFbending</text>
</a>
</g>
</g>
<!-- Node14&#45;&gt;Node27 -->
<g id="edge58_Node000014_Node000027" class="edge">
<title>Node14&#45;&gt;Node27</title>
<g id="a_edge58_Node000014_Node000027"><a xlink:title=" ">
<path fill="none" stroke="#63b8ff" d="M419.68,-329.19C435.97,-328.96 456.83,-328.66 476.2,-328.39"/>
<polygon fill="#63b8ff" stroke="#63b8ff" points="476.52,-331.89 486.47,-328.25 476.42,-324.89 476.52,-331.89"/>
</a>
</g>
</g>
<!-- Node15&#45;&gt;Node5 -->
<g id="edge26_Node000015_Node000005" class="edge">
<title>Node15&#45;&gt;Node5</title>
<g id="a_edge26_Node000015_Node000005"><a xlink:title=" ">
<path fill="none" stroke="#63b8ff" d="M565.23,-291.36C578.9,-293.3 594.16,-297.97 604,-308.59 665.09,-374.52 571.02,-449.97 640,-507.59 686.39,-546.35 728,-544.33 776,-507.59 824.63,-470.38 777.63,-425.28 812,-374.59 812.26,-374.21 812.54,-373.82 812.82,-373.45"/>
<polygon fill="#63b8ff" stroke="#63b8ff" points="815.34,-375.88 819.89,-366.31 810.36,-370.95 815.34,-375.88"/>
</a>
</g>
</g>
<!-- Node15&#45;&gt;Node6 -->
<g id="edge36_Node000015_Node000006" class="edge">
<title>Node15&#45;&gt;Node6</title>
<g id="a_edge36_Node000015_Node000006"><a xlink:title=" ">
<path fill="none" stroke="#63b8ff" d="M565.31,-291.75C611.23,-292.95 701.05,-293.19 776,-280.59 784.63,-279.14 793.77,-276.83 802.24,-274.33"/>
<polygon fill="#63b8ff" stroke="#63b8ff" points="803.29,-277.67 811.81,-271.36 801.22,-270.98 803.29,-277.67"/>
</a>
</g>
</g>
<!-- Node15&#45;&gt;Node7 -->
<g id="edge38_Node000015_Node000007" class="edge">
<title>Node15&#45;&gt;Node7</title>
<g id="a_edge38_Node000015_Node000007"><a xlink:title=" ">
<path fill="none" stroke="#63b8ff" d="M565.33,-291.26C579.02,-293.18 594.27,-297.86 604,-308.59 672.61,-384.27 562.32,-469.26 640,-535.59 685.97,-574.85 725.62,-569 776,-535.59 817.5,-508.08 830.37,-445.55 834.3,-413.44"/>
<polygon fill="#63b8ff" stroke="#63b8ff" points="837.79,-413.77 835.36,-403.45 830.83,-413.03 837.79,-413.77"/>
</a>
</g>
</g>
<!-- Node15&#45;&gt;Node8 -->
<g id="edge51_Node000015_Node000008" class="edge">
<title>Node15&#45;&gt;Node8</title>
<g id="a_edge51_Node000015_Node000008"><a xlink:title=" ">
<path fill="none" stroke="#63b8ff" d="M565.28,-292.55C578.47,-294.79 593.32,-299.37 604,-308.59 635.04,-335.42 605.8,-370.94 640,-393.59 690.39,-426.98 722.95,-422.56 776,-393.59 801.97,-379.42 792.13,-359.52 812,-337.59 812.75,-336.77 813.54,-335.95 814.35,-335.14"/>
<polygon fill="#63b8ff" stroke="#63b8ff" points="816.91,-337.55 822.12,-328.32 812.29,-332.29 816.91,-337.55"/>
</a>
</g>
</g>
<!-- Node16 -->
<g id="Node000016" class="node">
<title>Node16</title>
<g id="a_Node000016"><a xlink:href="math_8c.html#a7ef9263b0a3a10c2cd00bb4dc0059d70" target="_top" xlink:title=" ">
<polygon fill="white" stroke="#666666" points="733,-348.09 683,-348.09 683,-329.09 733,-329.09 733,-348.09"/>
<text text-anchor="middle" x="708" y="-336.09" font-family="Helvetica,sans-Serif" font-size="10.00">AMULT</text>
</a>
</g>
</g>
<!-- Node15&#45;&gt;Node16 -->
<g id="edge15_Node000015_Node000016" class="edge">
<title>Node15&#45;&gt;Node16</title>
<g id="a_edge15_Node000015_Node000016"><a xlink:title=" ">
<path fill="none" stroke="#63b8ff" d="M565.28,-298.3C577.35,-301.42 591.35,-305.1 604,-308.59 627.19,-315 653.2,-322.58 673.29,-328.51"/>
<polygon fill="#63b8ff" stroke="#63b8ff" points="672.33,-331.88 682.91,-331.37 674.32,-325.17 672.33,-331.88"/>
</a>
</g>
</g>
<!-- Node17 -->
<g id="Node000017" class="node">
<title>Node17</title>
<g id="a_Node000017"><a xlink:href="material_8c.html#af81ecf5fbfd52082e0abd3184f12c14f" target="_top" xlink:title=" ">
<polygon fill="#fff0f0" stroke="red" points="761,-385.09 655,-385.09 655,-366.09 761,-366.09 761,-385.09"/>
<text text-anchor="middle" x="708" y="-373.09" font-family="Helvetica,sans-Serif" font-size="10.00">BendingNonLinear</text>
</a>
</g>
</g>
<!-- Node15&#45;&gt;Node17 -->
<g id="edge16_Node000015_Node000017" class="edge">
<title>Node15&#45;&gt;Node17</title>
<g id="a_edge16_Node000015_Node000017"><a xlink:title=" ">
<path fill="none" stroke="#63b8ff" d="M565.01,-293.94C577.84,-296.46 592.49,-300.87 604,-308.59 626.14,-323.46 618.02,-341.5 640,-356.59 642.93,-358.61 646.07,-360.41 649.33,-362.02"/>
<polygon fill="#63b8ff" stroke="#63b8ff" points="648.21,-365.35 658.78,-366.07 650.97,-358.91 648.21,-365.35"/>
</a>
</g>
</g>
<!-- Node18 -->
<g id="Node000018" class="node">
<title>Node18</title>
<g id="a_Node000018"><a xlink:href="math_8c.html#a870a70f4845a041458d9bdb0dd7aabd3" target="_top" xlink:title=" ">
<polygon fill="white" stroke="#666666" points="856,-198.09 818,-198.09 818,-179.09 856,-179.09 856,-198.09"/>
<text text-anchor="middle" x="837" y="-186.09" font-family="Helvetica,sans-Serif" font-size="10.00">DOT</text>
</a>
</g>
</g>
<!-- Node15&#45;&gt;Node18 -->
<g id="edge27_Node000015_Node000018" class="edge">
<title>Node15&#45;&gt;Node18</title>
<g id="a_edge27_Node000015_Node000018"><a xlink:title=" ">
<path fill="none" stroke="#63b8ff" d="M542.48,-280.84C555.87,-263.12 584.37,-224.16 604,-188.59 623.23,-153.75 606.68,-128.36 640,-106.59 690.61,-73.54 722.1,-79.24 776,-106.59 801.85,-119.71 819.24,-149.79 828.38,-169.64"/>
<polygon fill="#63b8ff" stroke="#63b8ff" points="825.22,-171.15 832.4,-178.94 831.64,-168.37 825.22,-171.15"/>
</a>
</g>
</g>
<!-- Node19 -->
<g id="Node000019" class="node">
<title>Node19</title>
<g id="a_Node000019"><a xlink:href="math_8c.html#a3f73e4cd9eab76eeee084eabf2b98ec9" target="_top" xlink:title=" ">
<polygon fill="white" stroke="#666666" points="854,-235.09 820,-235.09 820,-216.09 854,-216.09 854,-235.09"/>
<text text-anchor="middle" x="837" y="-223.09" font-family="Helvetica,sans-Serif" font-size="10.00">INV</text>
</a>
</g>
</g>
<!-- Node15&#45;&gt;Node19 -->
<g id="edge28_Node000015_Node000019" class="edge">
<title>Node15&#45;&gt;Node19</title>
<g id="a_edge28_Node000015_Node000019"><a xlink:title=" ">
<path fill="none" stroke="#63b8ff" d="M541.54,-281.08C553.89,-263.1 581.4,-222.86 604,-188.59 620.29,-163.9 614.03,-146.77 640,-132.59 693.05,-103.63 724.76,-100.54 776,-132.59 807.01,-151.99 789.09,-178.09 812,-206.59 812.58,-207.32 813.2,-208.03 813.84,-208.74"/>
<polygon fill="#63b8ff" stroke="#63b8ff" points="811.63,-211.46 821.34,-215.7 816.39,-206.33 811.63,-211.46"/>
</a>
</g>
</g>
<!-- Node21 -->
<g id="Node000021" class="node">
<title>Node21</title>
<g id="a_Node000021"><a xlink:href="material_8c.html#a3243950933f3559f19edcb5421360526" target="_top" xlink:title=" ">
<polygon fill="white" stroke="#666666" points="776,-161.09 640,-161.09 640,-142.09 776,-142.09 776,-161.09"/>
<text text-anchor="middle" x="708" y="-149.09" font-family="Helvetica,sans-Serif" font-size="10.00">CalcCurvStressStrainxyz</text>
</a>
</g>
</g>
<!-- Node15&#45;&gt;Node21 -->
<g id="edge23_Node000015_Node000021" class="edge">
<title>Node15&#45;&gt;Node21</title>
<g id="a_edge23_Node000015_Node000021"><a xlink:title=" ">
<path fill="none" stroke="#63b8ff" d="M540.48,-281.04C554.16,-258.08 592.14,-199.55 640,-169.59 642.62,-167.95 645.39,-166.46 648.25,-165.1"/>
<polygon fill="#63b8ff" stroke="#63b8ff" points="649.74,-168.28 657.63,-161.21 647.06,-161.81 649.74,-168.28"/>
</a>
</g>
</g>
<!-- Node22 -->
<g id="Node000022" class="node">
<title>Node22</title>
<g id="a_Node000022"><a xlink:href="material_8c.html#aa93862cca1fe83c736219df7d4a91374" target="_top" xlink:title=" ">
<polygon fill="white" stroke="#666666" points="767.5,-272.09 648.5,-272.09 648.5,-253.09 767.5,-253.09 767.5,-272.09"/>
<text text-anchor="middle" x="708" y="-260.09" font-family="Helvetica,sans-Serif" font-size="10.00">MembraneNonLinear</text>
</a>
</g>
</g>
<!-- Node15&#45;&gt;Node22 -->
<g id="edge29_Node000015_Node000022" class="edge">
<title>Node15&#45;&gt;Node22</title>
<g id="a_edge29_Node000015_Node000022"><a xlink:title=" ">
<path fill="none" stroke="#63b8ff" d="M565.35,-285.65C585.62,-282.35 613.1,-277.88 638.47,-273.75"/>
<polygon fill="#63b8ff" stroke="#63b8ff" points="639.13,-277.19 648.44,-272.13 638.01,-270.28 639.13,-277.19"/>
</a>
</g>
</g>
<!-- Node23 -->
<g id="Node000023" class="node">
<title>Node23</title>
<g id="a_Node000023"><a xlink:href="math_8c.html#ae18926821a703a2c5b281bd890b7e6a0" target="_top" xlink:title=" ">
<polygon fill="white" stroke="#666666" points="728.5,-461.09 687.5,-461.09 687.5,-442.09 728.5,-442.09 728.5,-461.09"/>
<text text-anchor="middle" x="708" y="-449.09" font-family="Helvetica,sans-Serif" font-size="10.00">PLUS</text>
</a>
</g>
</g>
<!-- Node15&#45;&gt;Node23 -->
<g id="edge37_Node000015_Node000023" class="edge">
<title>Node15&#45;&gt;Node23</title>
<g id="a_edge37_Node000015_Node000023"><a xlink:title=" ">
<path fill="none" stroke="#63b8ff" d="M565.05,-291.92C578.51,-294.01 593.65,-298.64 604,-308.59 643.82,-346.91 601.92,-387.55 640,-427.59 649.81,-437.91 664.36,-443.8 677.39,-447.16"/>
<polygon fill="#63b8ff" stroke="#63b8ff" points="676.89,-450.63 687.41,-449.35 678.38,-443.79 676.89,-450.63"/>
</a>
</g>
</g>
<!-- Node24 -->
<g id="Node000024" class="node">
<title>Node24</title>
<g id="a_Node000024"><a xlink:href="material_8c.html#a431e1e9b5ceabfa4edc2920b70296b35" target="_top" xlink:title=" ">
<polygon fill="white" stroke="#666666" points="746.5,-198.09 669.5,-198.09 669.5,-179.09 746.5,-179.09 746.5,-198.09"/>
<text text-anchor="middle" x="708" y="-186.09" font-family="Helvetica,sans-Serif" font-size="10.00">StressLinear</text>
</a>
</g>
</g>
<!-- Node15&#45;&gt;Node24 -->
<g id="edge39_Node000015_Node000024" class="edge">
<title>Node15&#45;&gt;Node24</title>
<g id="a_edge39_Node000015_Node000024"><a xlink:title=" ">
<path fill="none" stroke="#63b8ff" d="M544.18,-280.99C561.35,-263.58 600.22,-226.73 640,-206.59 646.14,-203.49 652.87,-200.87 659.63,-198.68"/>
<polygon fill="#63b8ff" stroke="#63b8ff" points="660.88,-201.96 669.48,-195.77 658.9,-195.25 660.88,-201.96"/>
</a>
</g>
</g>
<!-- Node25 -->
<g id="Node000025" class="node">
<title>Node25</title>
<g id="a_Node000025"><a xlink:href="material_8c.html#aad0d0c11a159f8021feb99ddee475d31" target="_top" xlink:title=" ">
<polygon fill="white" stroke="#666666" points="765,-235.09 651,-235.09 651,-216.09 765,-216.09 765,-235.09"/>
<text text-anchor="middle" x="708" y="-223.09" font-family="Helvetica,sans-Serif" font-size="10.00">StressManufactured</text>
</a>
</g>
</g>
<!-- Node15&#45;&gt;Node25 -->
<g id="edge45_Node000015_Node000025" class="edge">
<title>Node15&#45;&gt;Node25</title>
<g id="a_edge45_Node000015_Node000025"><a xlink:title=" ">
<path fill="none" stroke="#63b8ff" d="M553.98,-281C574.73,-270.77 609.14,-254.57 640,-243.59 645.6,-241.6 651.53,-239.71 657.45,-237.96"/>
<polygon fill="#63b8ff" stroke="#63b8ff" points="658.7,-241.24 667.35,-235.13 656.78,-234.51 658.7,-241.24"/>
</a>
</g>
</g>
<!-- Node17&#45;&gt;Node5 -->
<g id="edge17_Node000017_Node000005" class="edge">
<title>Node17&#45;&gt;Node5</title>
<g id="a_edge17_Node000017_Node000005"><a xlink:title=" ">
<path fill="none" stroke="#63b8ff" d="M761.02,-367.81C774.83,-365.75 789.39,-363.57 801.96,-361.69"/>
<polygon fill="#63b8ff" stroke="#63b8ff" points="802.63,-365.13 812,-360.19 801.59,-358.2 802.63,-365.13"/>
</a>
</g>
</g>
<!-- Node17&#45;&gt;Node6 -->
<g id="edge20_Node000017_Node000006" class="edge">
<title>Node17&#45;&gt;Node6</title>
<g id="a_edge20_Node000017_Node000006"><a xlink:title=" ">
<path fill="none" stroke="#63b8ff" d="M758.55,-366.08C764.77,-363.61 770.77,-360.5 776,-356.59 800,-338.66 795.85,-324.83 812,-299.59 815.9,-293.5 820.19,-286.86 824.05,-280.92"/>
<polygon fill="#63b8ff" stroke="#63b8ff" points="827.13,-282.6 829.65,-272.31 821.26,-278.79 827.13,-282.6"/>
</a>
</g>
</g>
<!-- Node17&#45;&gt;Node7 -->
<g id="edge21_Node000017_Node000007" class="edge">
<title>Node17&#45;&gt;Node7</title>
<g id="a_edge21_Node000017_Node000007"><a xlink:title=" ">
<path fill="none" stroke="#63b8ff" d="M761.02,-382.97C776.91,-385.22 793.8,-387.61 807.51,-389.56"/>
<polygon fill="#63b8ff" stroke="#63b8ff" points="807.36,-393.07 817.75,-391.01 808.34,-386.14 807.36,-393.07"/>
</a>
</g>
</g>
<!-- Node17&#45;&gt;Node8 -->
<g id="edge22_Node000017_Node000008" class="edge">
<title>Node17&#45;&gt;Node8</title>
<g id="a_edge22_Node000017_Node000008"><a xlink:title=" ">
<path fill="none" stroke="#63b8ff" d="M749.7,-366.08C758.54,-363.46 767.72,-360.3 776,-356.59 789.68,-350.48 803.89,-341.61 815.05,-333.97"/>
<polygon fill="#63b8ff" stroke="#63b8ff" points="817.1,-336.81 823.27,-328.19 813.08,-331.08 817.1,-336.81"/>
</a>
</g>
</g>
<!-- Node17&#45;&gt;Node18 -->
<g id="edge18_Node000017_Node000018" class="edge">
<title>Node17&#45;&gt;Node18</title>
<g id="a_edge18_Node000017_Node000018"><a xlink:title=" ">
<path fill="none" stroke="#63b8ff" d="M761.2,-366.96C766.71,-364.34 771.81,-360.96 776,-356.59 823.48,-307.14 774.35,-263.89 812,-206.59 812.26,-206.2 812.53,-205.82 812.81,-205.44"/>
<polygon fill="#63b8ff" stroke="#63b8ff" points="815.33,-207.86 819.82,-198.27 810.32,-202.97 815.33,-207.86"/>
</a>
</g>
</g>
<!-- Node17&#45;&gt;Node19 -->
<g id="edge19_Node000017_Node000019" class="edge">
<title>Node17&#45;&gt;Node19</title>
<g id="a_edge19_Node000017_Node000019"><a xlink:title=" ">
<path fill="none" stroke="#63b8ff" d="M761.23,-366.5C766.66,-363.96 771.74,-360.72 776,-356.59 813.86,-319.93 781.47,-286.56 812,-243.59 812.27,-243.21 812.55,-242.84 812.85,-242.46"/>
<polygon fill="#63b8ff" stroke="#63b8ff" points="815.35,-244.91 819.99,-235.39 810.42,-239.93 815.35,-244.91"/>
</a>
</g>
</g>
<!-- Node21&#45;&gt;Node6 -->
<g id="edge25_Node000021_Node000006" class="edge">
<title>Node21&#45;&gt;Node6</title>
<g id="a_edge25_Node000021_Node000006"><a xlink:title=" ">
<path fill="none" stroke="#63b8ff" d="M762.34,-161.24C767.25,-163.47 771.91,-166.22 776,-169.59 804.2,-192.88 789.09,-215.09 812,-243.59 812.58,-244.32 813.2,-245.03 813.84,-245.74"/>
<polygon fill="#63b8ff" stroke="#63b8ff" points="811.63,-248.46 821.34,-252.7 816.39,-243.33 811.63,-248.46"/>
</a>
</g>
</g>
<!-- Node21&#45;&gt;Node19 -->
<g id="edge24_Node000021_Node000019" class="edge">
<title>Node21&#45;&gt;Node19</title>
<g id="a_edge24_Node000021_Node000019"><a xlink:title=" ">
<path fill="none" stroke="#63b8ff" d="M757.13,-161.14C763.71,-163.4 770.18,-166.18 776,-169.59 795.79,-181.21 794.97,-191.22 812,-206.59 812.98,-207.48 813.99,-208.36 815.02,-209.25"/>
<polygon fill="#63b8ff" stroke="#63b8ff" points="813.09,-212.2 823.04,-215.84 817.53,-206.79 813.09,-212.2"/>
</a>
</g>
</g>
<!-- Node22&#45;&gt;Node5 -->
<g id="edge30_Node000022_Node000005" class="edge">
<title>Node22&#45;&gt;Node5</title>
<g id="a_edge30_Node000022_Node000005"><a xlink:title=" ">
<path fill="none" stroke="#63b8ff" d="M722.11,-272.3C744.09,-288.57 788.55,-321.47 814.95,-341.01"/>
<polygon fill="#63b8ff" stroke="#63b8ff" points="813.03,-343.95 823.15,-347.08 817.19,-338.32 813.03,-343.95"/>
</a>
</g>
</g>
<!-- Node22&#45;&gt;Node6 -->
<g id="edge33_Node000022_Node000006" class="edge">
<title>Node22&#45;&gt;Node6</title>
<g id="a_edge33_Node000022_Node000006"><a xlink:title=" ">
<path fill="none" stroke="#63b8ff" d="M767.67,-262.59C779.37,-262.59 791.28,-262.59 801.82,-262.59"/>
<polygon fill="#63b8ff" stroke="#63b8ff" points="801.84,-266.1 811.84,-262.59 801.84,-259.1 801.84,-266.1"/>
</a>
</g>
</g>
<!-- Node22&#45;&gt;Node7 -->
<g id="edge34_Node000022_Node000007" class="edge">
<title>Node22&#45;&gt;Node7</title>
<g id="a_edge34_Node000022_Node000007"><a xlink:title=" ">
<path fill="none" stroke="#63b8ff" d="M722.32,-272.11C736.6,-282.7 759.43,-300.81 776,-319.59 795.32,-341.51 792.29,-353.03 812,-374.59 812.75,-375.42 813.54,-376.24 814.36,-377.04"/>
<polygon fill="#63b8ff" stroke="#63b8ff" points="812.31,-379.89 822.13,-383.85 816.92,-374.63 812.31,-379.89"/>
</a>
</g>
</g>
<!-- Node22&#45;&gt;Node8 -->
<g id="edge35_Node000022_Node000008" class="edge">
<title>Node22&#45;&gt;Node8</title>
<g id="a_edge35_Node000022_Node000008"><a xlink:title=" ">
<path fill="none" stroke="#63b8ff" d="M730.83,-272.22C751.81,-281.47 783.64,-295.51 806.79,-305.71"/>
<polygon fill="#63b8ff" stroke="#63b8ff" points="805.56,-309 816.12,-309.83 808.38,-302.59 805.56,-309"/>
</a>
</g>
</g>
<!-- Node22&#45;&gt;Node18 -->
<g id="edge31_Node000022_Node000018" class="edge">
<title>Node22&#45;&gt;Node18</title>
<g id="a_edge31_Node000022_Node000018"><a xlink:title=" ">
<path fill="none" stroke="#63b8ff" d="M755.02,-253.01C762.31,-250.53 769.56,-247.43 776,-243.59 795.71,-231.84 794.77,-221.75 812,-206.59 812.82,-205.87 813.67,-205.15 814.53,-204.43"/>
<polygon fill="#63b8ff" stroke="#63b8ff" points="816.82,-207.08 822.51,-198.14 812.49,-201.58 816.82,-207.08"/>
</a>
</g>
</g>
<!-- Node22&#45;&gt;Node19 -->
<g id="edge32_Node000022_Node000019" class="edge">
<title>Node22&#45;&gt;Node19</title>
<g id="a_edge32_Node000022_Node000019"><a xlink:title=" ">
<path fill="none" stroke="#63b8ff" d="M743.11,-253.03C753.67,-250.04 765.32,-246.71 776,-243.59 787.2,-240.33 799.54,-236.64 810.11,-233.46"/>
<polygon fill="#63b8ff" stroke="#63b8ff" points="811.42,-236.72 819.98,-230.47 809.39,-230.02 811.42,-236.72"/>
</a>
</g>
</g>
<!-- Node24&#45;&gt;Node5 -->
<g id="edge40_Node000024_Node000005" class="edge">
<title>Node24&#45;&gt;Node5</title>
<g id="a_edge40_Node000024_Node000005"><a xlink:title=" ">
<path fill="none" stroke="#63b8ff" d="M746.58,-191.68C757.27,-194.27 768.13,-198.79 776,-206.59 818.56,-248.82 779.49,-286.22 812,-336.59 812.71,-337.7 813.5,-338.77 814.35,-339.81"/>
<polygon fill="#63b8ff" stroke="#63b8ff" points="812.08,-342.49 821.65,-347.03 817.01,-337.51 812.08,-342.49"/>
</a>
</g>
</g>
<!-- Node24&#45;&gt;Node6 -->
<g id="edge43_Node000024_Node000006" class="edge">
<title>Node24&#45;&gt;Node6</title>
<g id="a_edge43_Node000024_Node000006"><a xlink:title=" ">
<path fill="none" stroke="#63b8ff" d="M746.58,-194.93C756.57,-197.6 767.07,-201.35 776,-206.59 795.79,-218.21 794.97,-228.22 812,-243.59 812.98,-244.48 813.99,-245.36 815.02,-246.25"/>
<polygon fill="#63b8ff" stroke="#63b8ff" points="813.09,-249.2 823.04,-252.84 817.53,-243.79 813.09,-249.2"/>
</a>
</g>
</g>
<!-- Node24&#45;&gt;Node8 -->
<g id="edge44_Node000024_Node000008" class="edge">
<title>Node24&#45;&gt;Node8</title>
<g id="a_edge44_Node000024_Node000008"><a xlink:title=" ">
<path fill="none" stroke="#63b8ff" d="M746.78,-192.87C757.12,-195.51 767.73,-199.77 776,-206.59 804.2,-229.88 794.21,-248.64 812,-280.59 815.72,-287.28 820.12,-294.42 824.12,-300.69"/>
<polygon fill="#63b8ff" stroke="#63b8ff" points="821.2,-302.62 829.58,-309.09 827.07,-298.8 821.2,-302.62"/>
</a>
</g>
</g>
<!-- Node24&#45;&gt;Node18 -->
<g id="edge41_Node000024_Node000018" class="edge">
<title>Node24&#45;&gt;Node18</title>
<g id="a_edge41_Node000024_Node000018"><a xlink:title=" ">
<path fill="none" stroke="#63b8ff" d="M746.76,-188.59C766.35,-188.59 789.87,-188.59 807.85,-188.59"/>
<polygon fill="#63b8ff" stroke="#63b8ff" points="807.98,-192.1 817.98,-188.59 807.98,-185.1 807.98,-192.1"/>
</a>
</g>
</g>
<!-- Node24&#45;&gt;Node19 -->
<g id="edge42_Node000024_Node000019" class="edge">
<title>Node24&#45;&gt;Node19</title>
<g id="a_edge42_Node000024_Node000019"><a xlink:title=" ">
<path fill="none" stroke="#63b8ff" d="M745.59,-198.11C755.49,-200.77 766.17,-203.72 776,-206.59 787.17,-209.86 799.43,-213.7 809.94,-217.07"/>
<polygon fill="#63b8ff" stroke="#63b8ff" points="809.17,-220.5 819.76,-220.24 811.32,-213.83 809.17,-220.5"/>
</a>
</g>
</g>
<!-- Node25&#45;&gt;Node5 -->
<g id="edge46_Node000025_Node000005" class="edge">
<title>Node25&#45;&gt;Node5</title>
<g id="a_edge46_Node000025_Node000005"><a xlink:title=" ">
<path fill="none" stroke="#63b8ff" d="M763.29,-235.21C767.91,-237.46 772.24,-240.21 776,-243.59 808.97,-273.22 786.15,-300.59 812,-336.59 812.87,-337.81 813.83,-338.99 814.85,-340.13"/>
<polygon fill="#63b8ff" stroke="#63b8ff" points="812.49,-342.72 822.15,-347.07 817.31,-337.65 812.49,-342.72"/>
</a>
</g>
</g>
<!-- Node25&#45;&gt;Node6 -->
<g id="edge49_Node000025_Node000006" class="edge">
<title>Node25&#45;&gt;Node6</title>
<g id="a_edge49_Node000025_Node000006"><a xlink:title=" ">
<path fill="none" stroke="#63b8ff" d="M745.59,-235.11C755.49,-237.77 766.17,-240.72 776,-243.59 784.52,-246.09 793.67,-248.91 802.2,-251.6"/>
<polygon fill="#63b8ff" stroke="#63b8ff" points="801.25,-254.98 811.84,-254.68 803.38,-248.31 801.25,-254.98"/>
</a>
</g>
</g>
<!-- Node25&#45;&gt;Node8 -->
<g id="edge50_Node000025_Node000008" class="edge">
<title>Node25&#45;&gt;Node8</title>
<g id="a_edge50_Node000025_Node000008"><a xlink:title=" ">
<path fill="none" stroke="#63b8ff" d="M758.84,-235.14C764.88,-237.39 770.76,-240.17 776,-243.59 787.69,-251.24 809.76,-280.98 823.63,-300.63"/>
<polygon fill="#63b8ff" stroke="#63b8ff" points="820.94,-302.89 829.53,-309.09 826.68,-298.88 820.94,-302.89"/>
</a>
</g>
</g>
<!-- Node25&#45;&gt;Node18 -->
<g id="edge47_Node000025_Node000018" class="edge">
<title>Node25&#45;&gt;Node18</title>
<g id="a_edge47_Node000025_Node000018"><a xlink:title=" ">
<path fill="none" stroke="#63b8ff" d="M743.11,-216.03C753.67,-213.04 765.32,-209.71 776,-206.59 786.57,-203.51 798.17,-200.05 808.32,-196.99"/>
<polygon fill="#63b8ff" stroke="#63b8ff" points="809.34,-200.34 817.9,-194.1 807.32,-193.64 809.34,-200.34"/>
</a>
</g>
</g>
<!-- Node25&#45;&gt;Node19 -->
<g id="edge48_Node000025_Node000019" class="edge">
<title>Node25&#45;&gt;Node19</title>
<g id="a_edge48_Node000025_Node000019"><a xlink:title=" ">
<path fill="none" stroke="#63b8ff" d="M765.07,-225.59C780.65,-225.59 796.83,-225.59 809.79,-225.59"/>
<polygon fill="#63b8ff" stroke="#63b8ff" points="809.84,-229.1 819.84,-225.59 809.84,-222.1 809.84,-229.1"/>
</a>
</g>
</g>
<!-- Node26&#45;&gt;Node6 -->
<g id="edge56_Node000026_Node000006" class="edge">
<title>Node26&#45;&gt;Node6</title>
<g id="a_edge56_Node000026_Node000006"><a xlink:title=" ">
<path fill="none" stroke="#63b8ff" d="M550.91,-160.94C592.38,-137.16 705.42,-81.29 776,-132.59 817.95,-163.09 782.4,-201.01 812,-243.59 812.53,-244.36 813.1,-245.11 813.7,-245.84"/>
<polygon fill="#63b8ff" stroke="#63b8ff" points="811.4,-248.48 821.01,-252.95 816.29,-243.47 811.4,-248.48"/>
</a>
</g>
</g>
<!-- Node26&#45;&gt;Node18 -->
<g id="edge54_Node000026_Node000018" class="edge">
<title>Node26&#45;&gt;Node18</title>
<g id="a_edge54_Node000026_Node000018"><a xlink:title=" ">
<path fill="none" stroke="#63b8ff" d="M538.28,-160.98C548.3,-133.34 581.44,-53.73 640,-23.59 693.75,4.06 726.49,11.08 776,-23.59 823.76,-57.05 833.65,-132.64 835.59,-168.71"/>
<polygon fill="#63b8ff" stroke="#63b8ff" points="832.1,-169.07 835.98,-178.93 839.1,-168.81 832.1,-169.07"/>
</a>
</g>
</g>
<!-- Node26&#45;&gt;Node21 -->
<g id="edge53_Node000026_Node000021" class="edge">
<title>Node26&#45;&gt;Node21</title>
<g id="a_edge53_Node000026_Node000021"><a xlink:title=" ">
<path fill="none" stroke="#63b8ff" d="M572.32,-166.47C589.23,-164.6 609.87,-162.32 629.87,-160.12"/>
<polygon fill="#63b8ff" stroke="#63b8ff" points="630.38,-163.58 639.93,-159 629.61,-156.62 630.38,-163.58"/>
</a>
</g>
</g>
<!-- Node26&#45;&gt;Node22 -->
<g id="edge55_Node000026_Node000022" class="edge">
<title>Node26&#45;&gt;Node22</title>
<g id="a_edge55_Node000026_Node000022"><a xlink:title=" ">
<path fill="none" stroke="#63b8ff" d="M546.18,-180.27C564.57,-195.73 602.87,-226.03 640,-243.59 644.92,-245.92 650.18,-248.02 655.51,-249.89"/>
<polygon fill="#63b8ff" stroke="#63b8ff" points="654.52,-253.25 665.11,-253.03 656.69,-246.6 654.52,-253.25"/>
</a>
</g>
</g>
<!-- Node26&#45;&gt;Node24 -->
<g id="edge57_Node000026_Node000024" class="edge">
<title>Node26&#45;&gt;Node24</title>
<g id="a_edge57_Node000026_Node000024"><a xlink:title=" ">
<path fill="none" stroke="#63b8ff" d="M572.32,-174.5C597.82,-177.17 631.82,-180.73 659.28,-183.6"/>
<polygon fill="#63b8ff" stroke="#63b8ff" points="659.14,-187.11 669.45,-184.67 659.87,-180.14 659.14,-187.11"/>
</a>
</g>
</g>
</g>
</svg>
