<?xml version="1.0" encoding="UTF-8" standalone="no"?>
<!DOCTYPE svg PUBLIC "-//W3C//DTD SVG 1.1//EN"
 "http://www.w3.org/Graphics/SVG/1.1/DTD/svg11.dtd">
<!-- Generated by graphviz version 2.43.0 (0)
 -->
<!-- Title: muscle_activation.c Pages: 1 -->
<svg width="436pt" height="247pt"
 viewBox="0.00 0.00 435.73 247.00" xmlns="http://www.w3.org/2000/svg" xmlns:xlink="http://www.w3.org/1999/xlink">

<svg id="main" version="1.1" xmlns="http://www.w3.org/2000/svg" xmlns:xlink="http://www.w3.org/1999/xlink" xml:space="preserve" onload="init(evt)">
<style type="text/css"><![CDATA[
.node, .edge {opacity: 0.7;}
.node.selected, .edge.selected {opacity: 1;}
.edge:hover path { stroke: red; }
.edge:hover polygon { stroke: red; fill: red; }
]]></style>
<script type="application/ecmascript" xlink:href="svg.min.js"/>
<svg id="graph" class="graph">
<g id="graph0" class="graph" transform="scale(1 1) rotate(0) translate(4 243)">
<title>muscle_activation.c</title>
<!-- Node1 -->
<g id="Node000001" class="node">
<title>Node1</title>
<g id="a_Node000001"><a xlink:title="Implementation of muscle activation on shell element using active&#45;strain, active stress approaches.">
<polygon fill="#999999" stroke="#666666" points="201.73,-239 87.73,-239 87.73,-220 201.73,-220 201.73,-239"/>
<text text-anchor="middle" x="144.73" y="-227" font-family="Helvetica,sans-Serif" font-size="10.00">muscle_activation.c</text>
</a>
</g>
</g>
<!-- Node2 -->
<g id="Node000002" class="node">
<title>Node2</title>
<g id="a_Node000002"><a xlink:href="math_8h.html" target="_top" xlink:title=" ">
<polygon fill="white" stroke="#666666" points="91.23,-74 40.23,-74 40.23,-55 91.23,-55 91.23,-74"/>
<text text-anchor="middle" x="65.73" y="-62" font-family="Helvetica,sans-Serif" font-size="10.00">math.h</text>
</a>
</g>
</g>
<!-- Node1&#45;&gt;Node2 -->
<g id="edge1_Node000001_Node000002" class="edge">
<title>Node1&#45;&gt;Node2</title>
<g id="a_edge1_Node000001_Node000002"><a xlink:title=" ">
<path fill="none" stroke="#63b8ff" d="M117.9,-219.93C82.58,-206.9 22.61,-178.27 2.73,-129 -0.43,-121.17 -1.15,-117.5 2.73,-110 9.77,-96.41 23.08,-86.09 35.65,-78.82"/>
<polygon fill="#63b8ff" stroke="#63b8ff" points="37.4,-81.86 44.58,-74.07 34.11,-75.68 37.4,-81.86"/>
</a>
</g>
</g>
<!-- Node4 -->
<g id="Node000004" class="node">
<title>Node4</title>
<g id="a_Node000004"><a xlink:href="variables_8h.html" target="_top" xlink:title=" ">
<polygon fill="white" stroke="#666666" points="136.23,-184 65.23,-184 65.23,-165 136.23,-165 136.23,-184"/>
<text text-anchor="middle" x="100.73" y="-172" font-family="Helvetica,sans-Serif" font-size="10.00">variables.h</text>
</a>
</g>
</g>
<!-- Node1&#45;&gt;Node4 -->
<g id="edge4_Node000001_Node000004" class="edge">
<title>Node1&#45;&gt;Node4</title>
<g id="a_edge4_Node000001_Node000004"><a xlink:title=" ">
<path fill="none" stroke="#63b8ff" d="M137.47,-219.75C131.19,-212.18 121.94,-201.05 114.3,-191.84"/>
<polygon fill="#63b8ff" stroke="#63b8ff" points="116.94,-189.55 107.86,-184.09 111.56,-194.02 116.94,-189.55"/>
</a>
</g>
</g>
<!-- Node11 -->
<g id="Node000011" class="node">
<title>Node11</title>
<g id="a_Node000011"><a xlink:title=" ">
<polygon fill="#e0e0e0" stroke="#999999" points="222.73,-184 154.73,-184 154.73,-165 222.73,-165 222.73,-184"/>
<text text-anchor="middle" x="188.73" y="-172" font-family="Helvetica,sans-Serif" font-size="10.00">petsctao.h</text>
</a>
</g>
</g>
<!-- Node1&#45;&gt;Node11 -->
<g id="edge14_Node000001_Node000011" class="edge">
<title>Node1&#45;&gt;Node11</title>
<g id="a_edge14_Node000001_Node000011"><a xlink:title=" ">
<path fill="none" stroke="#63b8ff" d="M152,-219.75C158.28,-212.18 167.52,-201.05 175.16,-191.84"/>
<polygon fill="#63b8ff" stroke="#63b8ff" points="177.91,-194.02 181.6,-184.09 172.52,-189.55 177.91,-194.02"/>
</a>
</g>
</g>
<!-- Node12 -->
<g id="Node000012" class="node">
<title>Node12</title>
<g id="a_Node000012"><a xlink:title=" ">
<polygon fill="#e0e0e0" stroke="#999999" points="324.73,-184 240.73,-184 240.73,-165 324.73,-165 324.73,-184"/>
<text text-anchor="middle" x="282.73" y="-172" font-family="Helvetica,sans-Serif" font-size="10.00">petscviewer.h</text>
</a>
</g>
</g>
<!-- Node1&#45;&gt;Node12 -->
<g id="edge15_Node000001_Node000012" class="edge">
<title>Node1&#45;&gt;Node12</title>
<g id="a_edge15_Node000001_Node000012"><a xlink:title=" ">
<path fill="none" stroke="#63b8ff" d="M166.9,-219.98C189.5,-211.3 224.79,-197.75 250.48,-187.88"/>
<polygon fill="#63b8ff" stroke="#63b8ff" points="252.08,-191.02 260.16,-184.17 249.57,-184.49 252.08,-191.02"/>
</a>
</g>
</g>
<!-- Node2&#45;&gt;Node2 -->
<g id="edge2_Node000002_Node000002" class="edge">
<title>Node2&#45;&gt;Node2</title>
<g id="a_edge2_Node000002_Node000002"><a xlink:title=" ">
<path fill="none" stroke="#63b8ff" d="M86.32,-74.07C98.19,-76.02 109.23,-72.83 109.23,-64.5 109.23,-58.64 103.77,-55.33 96.4,-54.55"/>
<polygon fill="#63b8ff" stroke="#63b8ff" points="96.18,-51.06 86.32,-54.93 96.44,-58.05 96.18,-51.06"/>
</a>
</g>
</g>
<!-- Node3 -->
<g id="Node000003" class="node">
<title>Node3</title>
<g id="a_Node000003"><a xlink:title=" ">
<polygon fill="#e0e0e0" stroke="#999999" points="135.73,-19 67.73,-19 67.73,0 135.73,0 135.73,-19"/>
<text text-anchor="middle" x="101.73" y="-7" font-family="Helvetica,sans-Serif" font-size="10.00">petscsys.h</text>
</a>
</g>
</g>
<!-- Node2&#45;&gt;Node3 -->
<g id="edge3_Node000002_Node000003" class="edge">
<title>Node2&#45;&gt;Node3</title>
<g id="a_edge3_Node000002_Node000003"><a xlink:title=" ">
<path fill="none" stroke="#63b8ff" d="M71.68,-54.75C76.71,-47.34 84.07,-36.5 90.25,-27.41"/>
<polygon fill="#63b8ff" stroke="#63b8ff" points="93.17,-29.33 95.9,-19.09 87.38,-25.39 93.17,-29.33"/>
</a>
</g>
</g>
<!-- Node4&#45;&gt;Node2 -->
<g id="edge6_Node000004_Node000002" class="edge">
<title>Node4&#45;&gt;Node2</title>
<g id="a_edge6_Node000004_Node000002"><a xlink:title=" ">
<path fill="none" stroke="#63b8ff" d="M65.1,-165.87C45.11,-159.57 21.84,-148.39 9.73,-129 -2.01,-110.18 19.54,-91.49 39.22,-79.31"/>
<polygon fill="#63b8ff" stroke="#63b8ff" points="41.13,-82.25 48.01,-74.19 37.6,-76.2 41.13,-82.25"/>
</a>
</g>
</g>
<!-- Node5 -->
<g id="Node000005" class="node">
<title>Node5</title>
<g id="a_Node000005"><a xlink:title=" ">
<polygon fill="#e0e0e0" stroke="#999999" points="92.73,-129 18.73,-129 18.73,-110 92.73,-110 92.73,-129"/>
<text text-anchor="middle" x="55.73" y="-117" font-family="Helvetica,sans-Serif" font-size="10.00">petscsnes.h</text>
</a>
</g>
</g>
<!-- Node4&#45;&gt;Node5 -->
<g id="edge5_Node000004_Node000005" class="edge">
<title>Node4&#45;&gt;Node5</title>
<g id="a_edge5_Node000004_Node000005"><a xlink:title=" ">
<path fill="none" stroke="#63b8ff" d="M93.3,-164.75C86.88,-157.18 77.43,-146.05 69.61,-136.84"/>
<polygon fill="#63b8ff" stroke="#63b8ff" points="72.16,-134.45 63.02,-129.09 66.83,-138.98 72.16,-134.45"/>
</a>
</g>
</g>
<!-- Node6 -->
<g id="Node000006" class="node">
<title>Node6</title>
<g id="a_Node000006"><a xlink:title=" ">
<polygon fill="#e0e0e0" stroke="#999999" points="180.23,-129 111.23,-129 111.23,-110 180.23,-110 180.23,-129"/>
<text text-anchor="middle" x="145.73" y="-117" font-family="Helvetica,sans-Serif" font-size="10.00">petscvec.h</text>
</a>
</g>
</g>
<!-- Node4&#45;&gt;Node6 -->
<g id="edge7_Node000004_Node000006" class="edge">
<title>Node4&#45;&gt;Node6</title>
<g id="a_edge7_Node000004_Node000006"><a xlink:title=" ">
<path fill="none" stroke="#63b8ff" d="M108.16,-164.75C114.58,-157.18 124.04,-146.05 131.85,-136.84"/>
<polygon fill="#63b8ff" stroke="#63b8ff" points="134.63,-138.98 138.44,-129.09 129.3,-134.45 134.63,-138.98"/>
</a>
</g>
</g>
<!-- Node7 -->
<g id="Node000007" class="node">
<title>Node7</title>
<g id="a_Node000007"><a xlink:href="act__variables_8h.html" target="_top" xlink:title="Data containers for active&#45;strain kinematics, stress, and material data.">
<polygon fill="white" stroke="#666666" points="289.23,-129 198.23,-129 198.23,-110 289.23,-110 289.23,-129"/>
<text text-anchor="middle" x="243.73" y="-117" font-family="Helvetica,sans-Serif" font-size="10.00">act_variables.h</text>
</a>
</g>
</g>
<!-- Node4&#45;&gt;Node7 -->
<g id="edge8_Node000004_Node000007" class="edge">
<title>Node4&#45;&gt;Node7</title>
<g id="a_edge8_Node000004_Node000007"><a xlink:title=" ">
<path fill="none" stroke="#63b8ff" d="M123.71,-164.98C147.23,-156.27 184.02,-142.63 210.67,-132.75"/>
<polygon fill="#63b8ff" stroke="#63b8ff" points="212.18,-135.93 220.34,-129.17 209.75,-129.36 212.18,-135.93"/>
</a>
</g>
</g>
<!-- Node8 -->
<g id="Node000008" class="node">
<title>Node8</title>
<g id="a_Node000008"><a xlink:href="dmplex__types_8h.html" target="_top" xlink:title="Persistent DMPlex geometry context for Loop subdivision surfaces.">
<polygon fill="white" stroke="#666666" points="402.23,-129 307.23,-129 307.23,-110 402.23,-110 402.23,-129"/>
<text text-anchor="middle" x="354.73" y="-117" font-family="Helvetica,sans-Serif" font-size="10.00">dmplex_types.h</text>
</a>
</g>
</g>
<!-- Node4&#45;&gt;Node8 -->
<g id="edge11_Node000004_Node000008" class="edge">
<title>Node4&#45;&gt;Node8</title>
<g id="a_edge11_Node000004_Node000008"><a xlink:title=" ">
<path fill="none" stroke="#63b8ff" d="M136.32,-166.07C180,-156.96 254.38,-141.44 304.04,-131.08"/>
<polygon fill="#63b8ff" stroke="#63b8ff" points="304.85,-134.48 313.93,-129.01 303.42,-127.63 304.85,-134.48"/>
</a>
</g>
</g>
<!-- Node7&#45;&gt;Node2 -->
<g id="edge10_Node000007_Node000002" class="edge">
<title>Node7&#45;&gt;Node2</title>
<g id="a_edge10_Node000007_Node000002"><a xlink:title=" ">
<path fill="none" stroke="#63b8ff" d="M215.13,-109.98C184.14,-100.76 134.64,-86.02 101.2,-76.06"/>
<polygon fill="#63b8ff" stroke="#63b8ff" points="101.95,-72.63 91.37,-73.13 99.96,-79.34 101.95,-72.63"/>
</a>
</g>
</g>
<!-- Node7&#45;&gt;Node3 -->
<g id="edge9_Node000007_Node000003" class="edge">
<title>Node7&#45;&gt;Node3</title>
<g id="a_edge9_Node000007_Node000003"><a xlink:title=" ">
<path fill="none" stroke="#63b8ff" d="M232.11,-109.66C207.76,-91.14 151.14,-48.08 121.16,-25.28"/>
<polygon fill="#63b8ff" stroke="#63b8ff" points="123.19,-22.43 113.12,-19.16 118.96,-28 123.19,-22.43"/>
</a>
</g>
</g>
<!-- Node9 -->
<g id="Node000009" class="node">
<title>Node9</title>
<g id="a_Node000009"><a xlink:title=" ">
<polygon fill="#e0e0e0" stroke="#999999" points="350.23,-74 261.23,-74 261.23,-55 350.23,-55 350.23,-74"/>
<text text-anchor="middle" x="305.73" y="-62" font-family="Helvetica,sans-Serif" font-size="10.00">petscdmplex.h</text>
</a>
</g>
</g>
<!-- Node8&#45;&gt;Node9 -->
<g id="edge12_Node000008_Node000009" class="edge">
<title>Node8&#45;&gt;Node9</title>
<g id="a_edge12_Node000008_Node000009"><a xlink:title=" ">
<path fill="none" stroke="#63b8ff" d="M346.64,-109.75C339.58,-102.11 329.14,-90.82 320.58,-81.56"/>
<polygon fill="#63b8ff" stroke="#63b8ff" points="323.03,-79.06 313.67,-74.09 317.89,-83.81 323.03,-79.06"/>
</a>
</g>
</g>
<!-- Node10 -->
<g id="Node000010" class="node">
<title>Node10</title>
<g id="a_Node000010"><a xlink:title=" ">
<polygon fill="#e0e0e0" stroke="#999999" points="427.73,-74 367.73,-74 367.73,-55 427.73,-55 427.73,-74"/>
<text text-anchor="middle" x="397.73" y="-62" font-family="Helvetica,sans-Serif" font-size="10.00">petscsf.h</text>
</a>
</g>
</g>
<!-- Node8&#45;&gt;Node10 -->
<g id="edge13_Node000008_Node000010" class="edge">
<title>Node8&#45;&gt;Node10</title>
<g id="a_edge13_Node000008_Node000010"><a xlink:title=" ">
<path fill="none" stroke="#63b8ff" d="M361.83,-109.75C367.91,-102.26 376.82,-91.28 384.24,-82.13"/>
<polygon fill="#63b8ff" stroke="#63b8ff" points="387.18,-84.06 390.76,-74.09 381.74,-79.65 387.18,-84.06"/>
</a>
</g>
</g>
</g>
</svg>
</svg>

<style type='text/css'>
<![CDATA[
[data-mouse-over-selected='false'] { opacity: 0.7; }
[data-mouse-over-selected='true']  { opacity: 1.0; }
]]>
</style>
<script type="application/ecmascript"><![CDATA[
document.addEventListener('DOMContentLoaded', (event) => {
  highlightEdges();
  highlightAdjacentNodes();
});
]]></script>
</svg>
