<?xml version="1.0" encoding="UTF-8" standalone="no"?>
<!DOCTYPE svg PUBLIC "-//W3C//DTD SVG 1.1//EN"
 "http://www.w3.org/Graphics/SVG/1.1/DTD/svg11.dtd">
<!-- Generated by graphviz version 2.43.0 (0)
 -->
<!-- Title: update_intmd_state_cov_basis Pages: 1 -->
<svg width="367pt" height="101pt"
 viewBox="0.00 0.00 367.00 101.00" xmlns="http://www.w3.org/2000/svg" xmlns:xlink="http://www.w3.org/1999/xlink">
<g id="graph0" class="graph" transform="scale(1 1) rotate(0) translate(4 97)">
<title>update_intmd_state_cov_basis</title>
<!-- Node1 -->
<g id="Node000001" class="node">
<title>Node1</title>
<g id="a_Node000001"><a xlink:title="Update intermediate deformed basis vectors for all elements.">
<polygon fill="#999999" stroke="#666666" points="114,-61.5 0,-61.5 0,-31.5 114,-31.5 114,-61.5"/>
<text text-anchor="start" x="8" y="-49.5" font-family="Helvetica,sans-Serif" font-size="10.00">update_intmd_state</text>
<text text-anchor="middle" x="57" y="-38.5" font-family="Helvetica,sans-Serif" font-size="10.00">_cov_basis</text>
</a>
</g>
</g>
<!-- Node2 -->
<g id="Node000002" class="node">
<title>Node2</title>
<g id="a_Node000002"><a xlink:href="muscle__activation_8c.html#a8bc18accda5d9acdf28357164879241e" target="_top" xlink:title="Compute intermediate deformed covariant basis vectors.">
<polygon fill="white" stroke="#666666" points="273,-61.5 150,-61.5 150,-31.5 273,-31.5 273,-61.5"/>
<text text-anchor="start" x="158" y="-49.5" font-family="Helvetica,sans-Serif" font-size="10.00">compute_intmd_state</text>
<text text-anchor="middle" x="211.5" y="-38.5" font-family="Helvetica,sans-Serif" font-size="10.00">_cov_basis_element</text>
</a>
</g>
</g>
<!-- Node1&#45;&gt;Node2 -->
<g id="edge1_Node000001_Node000002" class="edge">
<title>Node1&#45;&gt;Node2</title>
<g id="a_edge1_Node000001_Node000002"><a xlink:title=" ">
<path fill="none" stroke="#63b8ff" d="M114.35,-46.5C122.56,-46.5 131.09,-46.5 139.54,-46.5"/>
<polygon fill="#63b8ff" stroke="#63b8ff" points="139.77,-50 149.77,-46.5 139.77,-43 139.77,-50"/>
</a>
</g>
</g>
<!-- Node3 -->
<g id="Node000003" class="node">
<title>Node3</title>
<g id="a_Node000003"><a xlink:href="math_8c.html#a9d60990d26296194c921d537ea26f3c7" target="_top" xlink:title=" ">
<polygon fill="white" stroke="#666666" points="359,-93 309,-93 309,-74 359,-74 359,-93"/>
<text text-anchor="middle" x="334" y="-81" font-family="Helvetica,sans-Serif" font-size="10.00">CROSS</text>
</a>
</g>
</g>
<!-- Node2&#45;&gt;Node3 -->
<g id="edge2_Node000002_Node000003" class="edge">
<title>Node2&#45;&gt;Node3</title>
<g id="a_edge2_Node000002_Node000003"><a xlink:title=" ">
<path fill="none" stroke="#63b8ff" d="M261.51,-61.55C274.11,-65.42 287.39,-69.5 299.04,-73.07"/>
<polygon fill="#63b8ff" stroke="#63b8ff" points="298.21,-76.48 308.8,-76.07 300.26,-69.79 298.21,-76.48"/>
</a>
</g>
</g>
<!-- Node4 -->
<g id="Node000004" class="node">
<title>Node4</title>
<g id="a_Node000004"><a xlink:href="math_8c.html#a870a70f4845a041458d9bdb0dd7aabd3" target="_top" xlink:title=" ">
<polygon fill="white" stroke="#666666" points="353,-56 315,-56 315,-37 353,-37 353,-56"/>
<text text-anchor="middle" x="334" y="-44" font-family="Helvetica,sans-Serif" font-size="10.00">DOT</text>
</a>
</g>
</g>
<!-- Node2&#45;&gt;Node4 -->
<g id="edge3_Node000002_Node000004" class="edge">
<title>Node2&#45;&gt;Node4</title>
<g id="a_edge3_Node000002_Node000004"><a xlink:title=" ">
<path fill="none" stroke="#63b8ff" d="M273.1,-46.5C284.17,-46.5 295.23,-46.5 304.77,-46.5"/>
<polygon fill="#63b8ff" stroke="#63b8ff" points="304.83,-50 314.83,-46.5 304.83,-43 304.83,-50"/>
</a>
</g>
</g>
<!-- Node5 -->
<g id="Node000005" class="node">
<title>Node5</title>
<g id="a_Node000005"><a xlink:href="math_8c.html#ac616709995f2ae60c4308ffa328337d7" target="_top" xlink:title=" ">
<polygon fill="white" stroke="#666666" points="354.5,-19 313.5,-19 313.5,0 354.5,0 354.5,-19"/>
<text text-anchor="middle" x="334" y="-7" font-family="Helvetica,sans-Serif" font-size="10.00">UNIT</text>
</a>
</g>
</g>
<!-- Node2&#45;&gt;Node5 -->
<g id="edge4_Node000002_Node000005" class="edge">
<title>Node2&#45;&gt;Node5</title>
<g id="a_edge4_Node000002_Node000005"><a xlink:title=" ">
<path fill="none" stroke="#63b8ff" d="M261.51,-31.45C275.81,-27.06 290.97,-22.4 303.64,-18.51"/>
<polygon fill="#63b8ff" stroke="#63b8ff" points="304.67,-21.86 313.2,-15.58 302.62,-15.17 304.67,-21.86"/>
</a>
</g>
</g>
</g>
</svg>
