<?xml version="1.0" encoding="UTF-8" standalone="no"?>
<!DOCTYPE svg PUBLIC "-//W3C//DTD SVG 1.1//EN"
 "http://www.w3.org/Graphics/SVG/1.1/DTD/svg11.dtd">
<!-- Generated by graphviz version 2.43.0 (0)
 -->
<!-- Title: update_mid_surf_elastic_stress Pages: 1 -->
<!--zoomable 308 -->

<svg id="main" version="1.1" xmlns="http://www.w3.org/2000/svg" xmlns:xlink="http://www.w3.org/1999/xlink" xml:space="preserve" onload="init(evt)">
<style type="text/css"><![CDATA[
.node, .edge {opacity: 0.7;}
.node.selected, .edge.selected {opacity: 1;}
.edge:hover path { stroke: red; }
.edge:hover polygon { stroke: red; fill: red; }
]]></style>

<defs>
  <circle id="rim" cx="0" cy="0" r="7"/>
  <circle id="rim2" cx="0" cy="0" r="3.5"/>
  <g id="zoomPlus">
    <use xlink:href="#rim" fill="#404040"><set attributeName="fill" to="#808080" begin="zoomplus.mouseover" end="zoomplus.mouseout"/></use>
    <path d="M-4,0h8M0,-4v8" fill="none" stroke="white" stroke-width="1.5" pointer-events="none"/>
  </g>
  <g id="zoomMin">
    <use xlink:href="#rim" fill="#404040"><set attributeName="fill" to="#808080" begin="zoomminus.mouseover" end="zoomminus.mouseout"/></use>
    <path d="M-4,0h8" fill="none" stroke="white" stroke-width="1.5" pointer-events="none"/>
  </g>
  <g id="arrowUp" transform="translate(30 24)">
    <use xlink:href="#rim"/>
    <path pointer-events="none" fill="none" stroke="white" stroke-width="1.5" d="M0,-3.0v7 M-2.5,-0.5L0,-3.0L2.5,-0.5"/>
  </g>
  <g id="arrowRight" transform="rotate(90) translate(36 -43)">
    <use xlink:href="#rim"/>
    <path pointer-events="none" fill="none" stroke="white" stroke-width="1.5" d="M0,-3.0v7 M-2.5,-0.5L0,-3.0L2.5,-0.5"/>
  </g>
  <g id="arrowDown" transform="rotate(180) translate(-30 -48)">
    <use xlink:href="#rim"/>
    <path pointer-events="none" fill="none" stroke="white" stroke-width="1.5" d="M0,-3.0v7 M-2.5,-0.5L0,-3.0L2.5,-0.5"/>
  </g>
  <g id="arrowLeft" transform="rotate(270) translate(-36 17)">
    <use xlink:href="#rim"/>
    <path pointer-events="none" fill="none" stroke="white" stroke-width="1.5" d="M0,-3.0v7 M-2.5,-0.5L0,-3.0L2.5,-0.5"/>
  </g>
  <g id="resetDef">
    <use xlink:href="#rim2" fill="#404040"><set attributeName="fill" to="#808080" begin="reset.mouseover" end="reset.mouseout"/></use>
  </g>
</defs>
<script type="application/ecmascript">
var viewWidth = 546;
var viewHeight = 308;
var sectionId = 'dynsection-22';
</script>
<script type="application/ecmascript" xlink:href="svg.min.js"/>
<svg id="graph" class="graph">
<g id="viewport">
<title>update_mid_surf_elastic_stress</title>
<!-- Node1 -->
<g id="Node000001" class="node">
<title>Node1</title>
<g id="a_Node000001"><a xlink:title=" ">
<polygon fill="#999999" stroke="#666666" points="136,-172.5 0,-172.5 0,-142.5 136,-142.5 136,-172.5"/>
<text text-anchor="start" x="8" y="-160.5" font-family="Helvetica,sans-Serif" font-size="10.00">update_mid_surf_elastic</text>
<text text-anchor="middle" x="68" y="-149.5" font-family="Helvetica,sans-Serif" font-size="10.00">_stress</text>
</a>
</g>
</g>
<!-- Node2 -->
<g id="Node000002" class="node">
<title>Node2</title>
<g id="a_Node000002"><a xlink:href="muscle__activation_8c.html#a19d89612f2544ef7f352badd7cf1f337" target="_top" xlink:title=" ">
<polygon fill="white" stroke="#666666" points="297,-172.5 172,-172.5 172,-142.5 297,-142.5 297,-172.5"/>
<text text-anchor="start" x="180" y="-160.5" font-family="Helvetica,sans-Serif" font-size="10.00">compute_mid_surface</text>
<text text-anchor="middle" x="234.5" y="-149.5" font-family="Helvetica,sans-Serif" font-size="10.00">_el_stress_after_act</text>
</a>
</g>
</g>
<!-- Node1&#45;&gt;Node2 -->
<g id="edge1_Node000001_Node000002" class="edge">
<title>Node1&#45;&gt;Node2</title>
<g id="a_edge1_Node000001_Node000002"><a xlink:title=" ">
<path fill="none" stroke="#63b8ff" d="M136.38,-157.5C144.71,-157.5 153.25,-157.5 161.64,-157.5"/>
<polygon fill="#63b8ff" stroke="#63b8ff" points="161.77,-161 171.77,-157.5 161.77,-154 161.77,-161"/>
</a>
</g>
</g>
<!-- Node3 -->
<g id="Node000003" class="node">
<title>Node3</title>
<g id="a_Node000003"><a xlink:href="math_8c.html#a7ef9263b0a3a10c2cd00bb4dc0059d70" target="_top" xlink:title=" ">
<polygon fill="white" stroke="#666666" points="417.5,-300 367.5,-300 367.5,-281 417.5,-281 417.5,-300"/>
<text text-anchor="middle" x="392.5" y="-288" font-family="Helvetica,sans-Serif" font-size="10.00">AMULT</text>
</a>
</g>
</g>
<!-- Node2&#45;&gt;Node3 -->
<g id="edge2_Node000002_Node000003" class="edge">
<title>Node2&#45;&gt;Node3</title>
<g id="a_edge2_Node000002_Node000003"><a xlink:title=" ">
<path fill="none" stroke="#63b8ff" d="M245.77,-172.87C261.9,-195.99 295.26,-239.83 333,-266.5 340.56,-271.84 349.48,-276.26 358.05,-279.8"/>
<polygon fill="#63b8ff" stroke="#63b8ff" points="356.89,-283.1 367.48,-283.41 359.39,-276.57 356.89,-283.1"/>
</a>
</g>
</g>
<!-- Node4 -->
<g id="Node000004" class="node">
<title>Node4</title>
<g id="a_Node000004"><a xlink:href="material_8c.html#af81ecf5fbfd52082e0abd3184f12c14f" target="_top" xlink:title=" ">
<polygon fill="white" stroke="#666666" points="445.5,-112 339.5,-112 339.5,-93 445.5,-93 445.5,-112"/>
<text text-anchor="middle" x="392.5" y="-100" font-family="Helvetica,sans-Serif" font-size="10.00">BendingNonLinear</text>
</a>
</g>
</g>
<!-- Node2&#45;&gt;Node4 -->
<g id="edge3_Node000002_Node000004" class="edge">
<title>Node2&#45;&gt;Node4</title>
<g id="a_edge3_Node000002_Node000004"><a xlink:title=" ">
<path fill="none" stroke="#63b8ff" d="M275.22,-142.43C292.86,-135.84 313.91,-128.12 333,-121.5 339.02,-119.41 345.42,-117.26 351.69,-115.2"/>
<polygon fill="#63b8ff" stroke="#63b8ff" points="352.94,-118.47 361.36,-112.04 350.77,-111.81 352.94,-118.47"/>
</a>
</g>
</g>
<!-- Node5 -->
<g id="Node000005" class="node">
<title>Node5</title>
<g id="a_Node000005"><a xlink:href="math_8c.html#a9d60990d26296194c921d537ea26f3c7" target="_top" xlink:title=" ">
<polygon fill="white" stroke="#666666" points="538,-241 488,-241 488,-222 538,-222 538,-241"/>
<text text-anchor="middle" x="513" y="-229" font-family="Helvetica,sans-Serif" font-size="10.00">CROSS</text>
</a>
</g>
</g>
<!-- Node2&#45;&gt;Node5 -->
<g id="edge11_Node000002_Node000005" class="edge">
<title>Node2&#45;&gt;Node5</title>
<g id="a_edge11_Node000002_Node000005"><a xlink:title=" ">
<path fill="none" stroke="#63b8ff" d="M256.4,-172.65C275.38,-185.56 304.68,-203.44 333,-212.5 381.63,-228.06 441.09,-231.5 477.75,-231.95"/>
<polygon fill="#63b8ff" stroke="#63b8ff" points="477.89,-235.45 487.91,-232 477.93,-228.45 477.89,-235.45"/>
</a>
</g>
</g>
<!-- Node6 -->
<g id="Node000006" class="node">
<title>Node6</title>
<g id="a_Node000006"><a xlink:href="math_8c.html#a870a70f4845a041458d9bdb0dd7aabd3" target="_top" xlink:title=" ">
<polygon fill="white" stroke="#666666" points="532,-204 494,-204 494,-185 532,-185 532,-204"/>
<text text-anchor="middle" x="513" y="-192" font-family="Helvetica,sans-Serif" font-size="10.00">DOT</text>
</a>
</g>
</g>
<!-- Node2&#45;&gt;Node6 -->
<g id="edge12_Node000002_Node000006" class="edge">
<title>Node2&#45;&gt;Node6</title>
<g id="a_edge12_Node000002_Node000006"><a xlink:title=" ">
<path fill="none" stroke="#63b8ff" d="M265.81,-172.69C284.63,-181.26 309.61,-191.1 333,-195.5 385.45,-205.36 448.08,-201.54 483.63,-197.96"/>
<polygon fill="#63b8ff" stroke="#63b8ff" points="484.19,-201.42 493.76,-196.87 483.44,-194.46 484.19,-201.42"/>
</a>
</g>
</g>
<!-- Node10 -->
<g id="Node000010" class="node">
<title>Node10</title>
<g id="a_Node000010"><a xlink:href="math_8c.html#aa52f6593cf3e5453c8c6c94343d3fb37" target="_top" xlink:title=" ">
<polygon fill="white" stroke="#666666" points="532,-56 494,-56 494,-37 532,-37 532,-56"/>
<text text-anchor="middle" x="513" y="-44" font-family="Helvetica,sans-Serif" font-size="10.00">SIZE</text>
</a>
</g>
</g>
<!-- Node2&#45;&gt;Node10 -->
<g id="edge20_Node000002_Node000010" class="edge">
<title>Node2&#45;&gt;Node10</title>
<g id="a_edge20_Node000002_Node000010"><a xlink:title=" ">
<path fill="none" stroke="#63b8ff" d="M246.82,-142.5C263.28,-121.92 295.94,-85.55 333,-68.5 382.24,-45.85 446.73,-43.77 483.33,-44.8"/>
<polygon fill="#63b8ff" stroke="#63b8ff" points="483.62,-48.32 493.75,-45.2 483.89,-41.32 483.62,-48.32"/>
</a>
</g>
</g>
<!-- Node11 -->
<g id="Node000011" class="node">
<title>Node11</title>
<g id="a_Node000011"><a xlink:href="math_8c.html#ac616709995f2ae60c4308ffa328337d7" target="_top" xlink:title=" ">
<polygon fill="white" stroke="#666666" points="533.5,-93 492.5,-93 492.5,-74 533.5,-74 533.5,-93"/>
<text text-anchor="middle" x="513" y="-81" font-family="Helvetica,sans-Serif" font-size="10.00">UNIT</text>
</a>
</g>
</g>
<!-- Node2&#45;&gt;Node11 -->
<g id="edge27_Node000002_Node000011" class="edge">
<title>Node2&#45;&gt;Node11</title>
<g id="a_edge27_Node000002_Node000011"><a xlink:title=" ">
<path fill="none" stroke="#63b8ff" d="M249.58,-142.2C267.11,-124.38 298.92,-95.95 333,-84.5 383.27,-67.61 446.06,-72.79 482.34,-78.13"/>
<polygon fill="#63b8ff" stroke="#63b8ff" points="481.85,-81.59 492.27,-79.69 482.94,-74.68 481.85,-81.59"/>
</a>
</g>
</g>
<!-- Node12 -->
<g id="Node000012" class="node">
<title>Node12</title>
<g id="a_Node000012"><a xlink:href="material_8c.html#aa93862cca1fe83c736219df7d4a91374" target="_top" xlink:title=" ">
<polygon fill="white" stroke="#666666" points="452,-149 333,-149 333,-130 452,-130 452,-149"/>
<text text-anchor="middle" x="392.5" y="-137" font-family="Helvetica,sans-Serif" font-size="10.00">MembraneNonLinear</text>
</a>
</g>
</g>
<!-- Node2&#45;&gt;Node12 -->
<g id="edge13_Node000002_Node000012" class="edge">
<title>Node2&#45;&gt;Node12</title>
<g id="a_edge13_Node000002_Node000012"><a xlink:title=" ">
<path fill="none" stroke="#63b8ff" d="M297.16,-150.39C305.6,-149.41 314.32,-148.41 322.88,-147.42"/>
<polygon fill="#63b8ff" stroke="#63b8ff" points="323.3,-150.89 332.84,-146.27 322.5,-143.94 323.3,-150.89"/>
</a>
</g>
</g>
<!-- Node13 -->
<g id="Node000013" class="node">
<title>Node13</title>
<g id="a_Node000013"><a xlink:href="material_8c.html#a431e1e9b5ceabfa4edc2920b70296b35" target="_top" xlink:title=" ">
<polygon fill="white" stroke="#666666" points="431,-186 354,-186 354,-167 431,-167 431,-186"/>
<text text-anchor="middle" x="392.5" y="-174" font-family="Helvetica,sans-Serif" font-size="10.00">StressLinear</text>
</a>
</g>
</g>
<!-- Node2&#45;&gt;Node13 -->
<g id="edge21_Node000002_Node000013" class="edge">
<title>Node2&#45;&gt;Node13</title>
<g id="a_edge21_Node000002_Node000013"><a xlink:title=" ">
<path fill="none" stroke="#63b8ff" d="M297.16,-165.01C312.51,-166.88 328.74,-168.86 343.34,-170.63"/>
<polygon fill="#63b8ff" stroke="#63b8ff" points="343.29,-174.15 353.64,-171.89 344.13,-167.21 343.29,-174.15"/>
</a>
</g>
</g>
<!-- Node4&#45;&gt;Node5 -->
<g id="edge4_Node000004_Node000005" class="edge">
<title>Node4&#45;&gt;Node5</title>
<g id="a_edge4_Node000004_Node000005"><a xlink:title=" ">
<path fill="none" stroke="#63b8ff" d="M437.75,-112.07C442.96,-114.53 447.88,-117.62 452,-121.5 483.95,-151.62 461.42,-178.55 488,-213.5 488.37,-213.99 488.77,-214.48 489.17,-214.96"/>
<polygon fill="#63b8ff" stroke="#63b8ff" points="486.96,-217.68 496.64,-221.99 491.76,-212.59 486.96,-217.68"/>
</a>
</g>
</g>
<!-- Node4&#45;&gt;Node6 -->
<g id="edge5_Node000004_Node000006" class="edge">
<title>Node4&#45;&gt;Node6</title>
<g id="a_edge5_Node000004_Node000006"><a xlink:title=" ">
<path fill="none" stroke="#63b8ff" d="M434.91,-112.02C440.99,-114.5 446.91,-117.61 452,-121.5 475.21,-139.24 468.01,-155.19 488,-176.5 488.62,-177.16 489.27,-177.82 489.94,-178.47"/>
<polygon fill="#63b8ff" stroke="#63b8ff" points="487.72,-181.18 497.61,-184.98 492.25,-175.84 487.72,-181.18"/>
</a>
</g>
</g>
<!-- Node7 -->
<g id="Node000007" class="node">
<title>Node7</title>
<g id="a_Node000007"><a xlink:href="math_8c.html#a3f73e4cd9eab76eeee084eabf2b98ec9" target="_top" xlink:title=" ">
<polygon fill="white" stroke="#666666" points="530,-130 496,-130 496,-111 530,-111 530,-130"/>
<text text-anchor="middle" x="513" y="-118" font-family="Helvetica,sans-Serif" font-size="10.00">INV</text>
</a>
</g>
</g>
<!-- Node4&#45;&gt;Node7 -->
<g id="edge6_Node000004_Node000007" class="edge">
<title>Node4&#45;&gt;Node7</title>
<g id="a_edge6_Node000004_Node000007"><a xlink:title=" ">
<path fill="none" stroke="#63b8ff" d="M445.82,-110.45C459.68,-112.55 474.06,-114.74 485.85,-116.53"/>
<polygon fill="#63b8ff" stroke="#63b8ff" points="485.46,-120.01 495.87,-118.05 486.51,-113.09 485.46,-120.01"/>
</a>
</g>
</g>
<!-- Node8 -->
<g id="Node000008" class="node">
<title>Node8</title>
<g id="a_Node000008"><a xlink:href="math_8c.html#a9d08a9d2fd8e8932e92b8ab054b19269" target="_top" xlink:title=" ">
<polygon fill="white" stroke="#666666" points="538,-167 488,-167 488,-148 538,-148 538,-167"/>
<text text-anchor="middle" x="513" y="-155" font-family="Helvetica,sans-Serif" font-size="10.00">MINUS</text>
</a>
</g>
</g>
<!-- Node4&#45;&gt;Node8 -->
<g id="edge7_Node000004_Node000008" class="edge">
<title>Node4&#45;&gt;Node8</title>
<g id="a_edge7_Node000004_Node000008"><a xlink:title=" ">
<path fill="none" stroke="#63b8ff" d="M427.41,-112.07C435.6,-114.78 444.23,-117.96 452,-121.5 464.96,-127.4 478.62,-135.44 489.64,-142.43"/>
<polygon fill="#63b8ff" stroke="#63b8ff" points="487.89,-145.47 498.19,-147.98 491.71,-139.6 487.89,-145.47"/>
</a>
</g>
</g>
<!-- Node9 -->
<g id="Node000009" class="node">
<title>Node9</title>
<g id="a_Node000009"><a xlink:href="math_8c.html#ae6a53927765c25c58815e47fea096a67" target="_top" xlink:title=" ">
<polygon fill="white" stroke="#666666" points="533.5,-19 492.5,-19 492.5,0 533.5,0 533.5,-19"/>
<text text-anchor="middle" x="513" y="-7" font-family="Helvetica,sans-Serif" font-size="10.00">SIGN</text>
</a>
</g>
</g>
<!-- Node4&#45;&gt;Node9 -->
<g id="edge8_Node000004_Node000009" class="edge">
<title>Node4&#45;&gt;Node9</title>
<g id="a_edge8_Node000004_Node000009"><a xlink:title=" ">
<path fill="none" stroke="#63b8ff" d="M405.35,-92.92C423.17,-78.56 457.99,-50.66 488,-27.5 488.87,-26.83 489.75,-26.15 490.65,-25.47"/>
<polygon fill="#63b8ff" stroke="#63b8ff" points="492.88,-28.16 498.75,-19.34 488.66,-22.58 492.88,-28.16"/>
</a>
</g>
</g>
<!-- Node4&#45;&gt;Node10 -->
<g id="edge9_Node000004_Node000010" class="edge">
<title>Node4&#45;&gt;Node10</title>
<g id="a_edge9_Node000004_Node000010"><a xlink:title=" ">
<path fill="none" stroke="#63b8ff" d="M413.87,-92.87C433.38,-83.65 462.96,-69.67 484.55,-59.47"/>
<polygon fill="#63b8ff" stroke="#63b8ff" points="486.29,-62.52 493.84,-55.08 483.3,-56.19 486.29,-62.52"/>
</a>
</g>
</g>
<!-- Node4&#45;&gt;Node11 -->
<g id="edge10_Node000004_Node000011" class="edge">
<title>Node4&#45;&gt;Node11</title>
<g id="a_edge10_Node000004_Node000011"><a xlink:title=" ">
<path fill="none" stroke="#63b8ff" d="M445.82,-94.11C458.32,-92.11 471.23,-90.04 482.3,-88.26"/>
<polygon fill="#63b8ff" stroke="#63b8ff" points="482.95,-91.7 492.27,-86.66 481.84,-84.79 482.95,-91.7"/>
</a>
</g>
</g>
<!-- Node12&#45;&gt;Node5 -->
<g id="edge14_Node000012_Node000005" class="edge">
<title>Node12&#45;&gt;Node5</title>
<g id="a_edge14_Node000012_Node000005"><a xlink:title=" ">
<path fill="none" stroke="#63b8ff" d="M434.91,-149.02C440.99,-151.5 446.91,-154.61 452,-158.5 475.21,-176.24 468.01,-192.19 488,-213.5 488.62,-214.16 489.27,-214.82 489.94,-215.47"/>
<polygon fill="#63b8ff" stroke="#63b8ff" points="487.72,-218.18 497.61,-221.98 492.25,-212.84 487.72,-218.18"/>
</a>
</g>
</g>
<!-- Node12&#45;&gt;Node6 -->
<g id="edge15_Node000012_Node000006" class="edge">
<title>Node12&#45;&gt;Node6</title>
<g id="a_edge15_Node000012_Node000006"><a xlink:title=" ">
<path fill="none" stroke="#63b8ff" d="M427.41,-149.07C435.6,-151.78 444.23,-154.96 452,-158.5 464.96,-164.4 478.62,-172.44 489.64,-179.43"/>
<polygon fill="#63b8ff" stroke="#63b8ff" points="487.89,-182.47 498.19,-184.98 491.71,-176.6 487.89,-182.47"/>
</a>
</g>
</g>
<!-- Node12&#45;&gt;Node7 -->
<g id="edge16_Node000012_Node000007" class="edge">
<title>Node12&#45;&gt;Node7</title>
<g id="a_edge16_Node000012_Node000007"><a xlink:title=" ">
<path fill="none" stroke="#63b8ff" d="M452.06,-130.11C463.87,-128.22 475.73,-126.32 485.74,-124.71"/>
<polygon fill="#63b8ff" stroke="#63b8ff" points="486.47,-128.14 495.79,-123.1 485.36,-121.23 486.47,-128.14"/>
</a>
</g>
</g>
<!-- Node12&#45;&gt;Node8 -->
<g id="edge17_Node000012_Node000008" class="edge">
<title>Node12&#45;&gt;Node8</title>
<g id="a_edge17_Node000012_Node000008"><a xlink:title=" ">
<path fill="none" stroke="#63b8ff" d="M452.06,-148.39C460.89,-149.74 469.75,-151.08 477.85,-152.31"/>
<polygon fill="#63b8ff" stroke="#63b8ff" points="477.57,-155.81 487.98,-153.85 478.62,-148.89 477.57,-155.81"/>
</a>
</g>
</g>
<!-- Node12&#45;&gt;Node10 -->
<g id="edge18_Node000012_Node000010" class="edge">
<title>Node12&#45;&gt;Node10</title>
<g id="a_edge18_Node000012_Node000010"><a xlink:title=" ">
<path fill="none" stroke="#63b8ff" d="M437.05,-129.92C442.38,-127.67 447.51,-124.9 452,-121.5 475.57,-103.62 468.13,-87.42 488,-65.5 488.75,-64.67 489.54,-63.85 490.35,-63.05"/>
<polygon fill="#63b8ff" stroke="#63b8ff" points="492.91,-65.46 498.12,-56.23 488.29,-60.2 492.91,-65.46"/>
</a>
</g>
</g>
<!-- Node12&#45;&gt;Node11 -->
<g id="edge19_Node000012_Node000011" class="edge">
<title>Node12&#45;&gt;Node11</title>
<g id="a_edge19_Node000012_Node000011"><a xlink:title=" ">
<path fill="none" stroke="#63b8ff" d="M429.95,-129.93C437.38,-127.52 445.05,-124.7 452,-121.5 465.61,-115.23 479.82,-106.35 490.99,-98.75"/>
<polygon fill="#63b8ff" stroke="#63b8ff" points="493.03,-101.6 499.23,-93.01 489.02,-95.86 493.03,-101.6"/>
</a>
</g>
</g>
<!-- Node13&#45;&gt;Node5 -->
<g id="edge22_Node000013_Node000005" class="edge">
<title>Node13&#45;&gt;Node5</title>
<g id="a_edge22_Node000013_Node000005"><a xlink:title=" ">
<path fill="none" stroke="#63b8ff" d="M414.14,-186.08C432.89,-194.78 460.77,-207.72 481.98,-217.57"/>
<polygon fill="#63b8ff" stroke="#63b8ff" points="480.65,-220.81 491.2,-221.84 483.6,-214.46 480.65,-220.81"/>
</a>
</g>
</g>
<!-- Node13&#45;&gt;Node6 -->
<g id="edge23_Node000013_Node000006" class="edge">
<title>Node13&#45;&gt;Node6</title>
<g id="a_edge23_Node000013_Node000006"><a xlink:title=" ">
<path fill="none" stroke="#63b8ff" d="M431.32,-182.24C448.27,-184.82 467.93,-187.81 483.59,-190.18"/>
<polygon fill="#63b8ff" stroke="#63b8ff" points="483.31,-193.68 493.72,-191.72 484.36,-186.76 483.31,-193.68"/>
</a>
</g>
</g>
<!-- Node13&#45;&gt;Node7 -->
<g id="edge24_Node000013_Node000007" class="edge">
<title>Node13&#45;&gt;Node7</title>
<g id="a_edge24_Node000013_Node000007"><a xlink:title=" ">
<path fill="none" stroke="#63b8ff" d="M429.95,-166.93C437.38,-164.52 445.05,-161.7 452,-158.5 465.61,-152.23 479.82,-143.35 490.99,-135.75"/>
<polygon fill="#63b8ff" stroke="#63b8ff" points="493.03,-138.6 499.23,-130.01 489.02,-132.86 493.03,-138.6"/>
</a>
</g>
</g>
<!-- Node13&#45;&gt;Node8 -->
<g id="edge25_Node000013_Node000008" class="edge">
<title>Node13&#45;&gt;Node8</title>
<g id="a_edge25_Node000013_Node000008"><a xlink:title=" ">
<path fill="none" stroke="#63b8ff" d="M431.32,-170.44C446.25,-168.04 463.29,-165.31 477.84,-162.98"/>
<polygon fill="#63b8ff" stroke="#63b8ff" points="478.62,-166.4 487.94,-161.36 477.51,-159.49 478.62,-166.4"/>
</a>
</g>
</g>
<!-- Node13&#45;&gt;Node11 -->
<g id="edge26_Node000013_Node000011" class="edge">
<title>Node13&#45;&gt;Node11</title>
<g id="a_edge26_Node000013_Node000011"><a xlink:title=" ">
<path fill="none" stroke="#63b8ff" d="M431.27,-169.14C438.61,-166.57 445.9,-163.12 452,-158.5 475.57,-140.62 468.13,-124.42 488,-102.5 488.75,-101.67 489.54,-100.85 490.35,-100.05"/>
<polygon fill="#63b8ff" stroke="#63b8ff" points="492.91,-102.46 498.12,-93.23 488.29,-97.2 492.91,-102.46"/>
</a>
</g>
</g>
</g>
</svg>

<g id="navigator" transform="translate(0 0)" fill="#404254">
  <rect fill="#f2f5e9" fill-opacity="0.5" stroke="#606060" stroke-width=".5" x="0" y="0" width="60" height="60"/>
  <use id="zoomplus" xlink:href="#zoomPlus" x="17" y="9" onmousedown="handleZoom(evt,'in')"/>
  <use id="zoomminus" xlink:href="#zoomMin" x="42" y="9" onmousedown="handleZoom(evt,'out')"/>
  <use id="reset" xlink:href="#resetDef" x="30" y="36" onmousedown="handleReset()"/>
   <use id="arrowup" xlink:href="#arrowUp" x="0" y="0" onmousedown="handlePan(0,-1)"/>
  <use id="arrowright" xlink:href="#arrowRight" x="0" y="0" onmousedown="handlePan(1,0)"/>
  <use id="arrowdown" xlink:href="#arrowDown" x="0" y="0" onmousedown="handlePan(0,1)"/>
  <use id="arrowleft" xlink:href="#arrowLeft" x="0" y="0" onmousedown="handlePan(-1,0)"/>
</g>
<svg viewBox="0 0 15 15" width="100%" height="30px" preserveAspectRatio="xMaxYMin meet">
 <g id="arrow_out" transform="scale(0.3 0.3)">
  <a xlink:href="muscle__activation_8c_a3f9fadbc31e4872a8519e6bfdecf7b8f_cgraph_org.svg" target="_base">
   <rect id="button" ry="5" rx="5" y="6" x="6" height="38" width="38"
        fill="#f2f5e9" fill-opacity="0.5" stroke="#606060" stroke-width="1.0"/>
   <path id="arrow"
     d="M 11.500037,31.436501 C 11.940474,20.09759 22.043105,11.32322 32.158766,21.979434 L 37.068811,17.246167 C 37.068811,17.246167 37.088388,32 37.088388,32 L 22.160133,31.978069 C 22.160133,31.978069 26.997745,27.140456 26.997745,27.140456 C 18.528582,18.264221 13.291696,25.230495 11.500037,31.436501 z"
     style="fill:#404040;"/>
  </a>
 </g>
</svg>

<style type='text/css'>
<![CDATA[
[data-mouse-over-selected='false'] { opacity: 0.7; }
[data-mouse-over-selected='true']  { opacity: 1.0; }
]]>
</style>
<script type="application/ecmascript"><![CDATA[
document.addEventListener('DOMContentLoaded', (event) => {
  highlightEdges();
  highlightAdjacentNodes();
});
]]></script>
</svg>
