<?xml version="1.0" encoding="UTF-8" standalone="no"?>
<!DOCTYPE svg PUBLIC "-//W3C//DTD SVG 1.1//EN"
 "http://www.w3.org/Graphics/SVG/1.1/DTD/svg11.dtd">
<!-- Generated by graphviz version 2.43.0 (0)
 -->
<!-- Title: calculate_cov_basis Pages: 1 -->
<svg width="620pt" height="46pt"
 viewBox="0.00 0.00 620.00 46.00" xmlns="http://www.w3.org/2000/svg" xmlns:xlink="http://www.w3.org/1999/xlink">
<g id="graph0" class="graph" transform="scale(1 1) rotate(0) translate(4 42)">
<title>calculate_cov_basis</title>
<!-- Node1 -->
<g id="Node000001" class="node">
<title>Node1</title>
<g id="a_Node000001"><a xlink:title=" ">
<polygon fill="#999999" stroke="#666666" points="612,-38 498,-38 498,-19 612,-19 612,-38"/>
<text text-anchor="middle" x="555" y="-26" font-family="Helvetica,sans-Serif" font-size="10.00">calculate_cov_basis</text>
</a>
</g>
</g>
<!-- Node2 -->
<g id="Node000002" class="node">
<title>Node2</title>
<g id="a_Node000002"><a xlink:href="muscle__activation_8c.html#a98fd1f2632f8a9dafbcd477adbf354a0" target="_top" xlink:title=" ">
<polygon fill="white" stroke="#666666" points="265,-38 159,-38 159,-19 265,-19 265,-38"/>
<text text-anchor="middle" x="212" y="-26" font-family="Helvetica,sans-Serif" font-size="10.00">find_intmd_coords</text>
</a>
</g>
</g>
<!-- Node1&#45;&gt;Node2 -->
<g id="edge1_Node000001_Node000002" class="edge">
<title>Node1&#45;&gt;Node2</title>
<g id="a_edge1_Node000001_Node000002"><a xlink:title=" ">
<path fill="none" stroke="#63b8ff" d="M487.55,-28.5C422.53,-28.5 324.82,-28.5 265.19,-28.5"/>
<polygon fill="#63b8ff" stroke="#63b8ff" points="487.69,-32 497.69,-28.5 487.69,-25 487.69,-32"/>
</a>
</g>
</g>
<!-- Node4 -->
<g id="Node000004" class="node">
<title>Node4</title>
<g id="a_Node000004"><a xlink:href="muscle__activation_8c.html#a6775d705d7242ce0339ce632abbfa4b4" target="_top" xlink:title=" ">
<polygon fill="white" stroke="#666666" points="462,-19 301,-19 301,0 462,0 462,-19"/>
<text text-anchor="middle" x="381.5" y="-7" font-family="Helvetica,sans-Serif" font-size="10.00">form_interm_state_func_grad</text>
</a>
</g>
</g>
<!-- Node1&#45;&gt;Node4 -->
<g id="edge3_Node000001_Node000004" class="edge">
<title>Node1&#45;&gt;Node4</title>
<g id="a_edge3_Node000001_Node000004"><a xlink:title=" ">
<path fill="none" stroke="#63b8ff" d="M487.76,-21.16C479.36,-20.23 470.7,-19.27 462.12,-18.32"/>
<polygon fill="#63b8ff" stroke="#63b8ff" points="487.52,-24.66 497.84,-22.28 488.29,-17.7 487.52,-24.66"/>
</a>
</g>
</g>
<!-- Node3 -->
<g id="Node000003" class="node">
<title>Node3</title>
<g id="a_Node000003"><a xlink:href="muscle__activation_8c.html#aad998374ae4f3ca2c8f14b4c4b2aaafd" target="_top" xlink:title=" ">
<polygon fill="white" stroke="#666666" points="123,-38 0,-38 0,-19 123,-19 123,-38"/>
<text text-anchor="middle" x="61.5" y="-26" font-family="Helvetica,sans-Serif" font-size="10.00">InitMuscleActProblem</text>
</a>
</g>
</g>
<!-- Node2&#45;&gt;Node3 -->
<g id="edge2_Node000002_Node000003" class="edge">
<title>Node2&#45;&gt;Node3</title>
<g id="a_edge2_Node000002_Node000003"><a xlink:title=" ">
<path fill="none" stroke="#63b8ff" d="M148.49,-28.5C140.05,-28.5 131.41,-28.5 123.01,-28.5"/>
<polygon fill="#63b8ff" stroke="#63b8ff" points="148.64,-32 158.64,-28.5 148.64,-25 148.64,-32"/>
</a>
</g>
</g>
<!-- Node4&#45;&gt;Node2 -->
<g id="edge4_Node000004_Node000002" class="edge">
<title>Node4&#45;&gt;Node2</title>
<g id="a_edge4_Node000004_Node000002"><a xlink:title=" ">
<path fill="none" stroke="#63b8ff" d="M290.58,-19.7C281.99,-20.67 273.49,-21.64 265.44,-22.55"/>
<polygon fill="#63b8ff" stroke="#63b8ff" points="291.13,-23.16 300.67,-18.55 290.34,-16.2 291.13,-23.16"/>
</a>
</g>
</g>
</g>
</svg>
