<?xml version="1.0" encoding="UTF-8" standalone="no"?>
<!DOCTYPE svg PUBLIC "-//W3C//DTD SVG 1.1//EN"
 "http://www.w3.org/Graphics/SVG/1.1/DTD/svg11.dtd">
<!-- Generated by graphviz version 2.43.0 (0)
 -->
<!-- Title: find_intmd_coords Pages: 1 -->
<svg width="547pt" height="139pt"
 viewBox="0.00 0.00 547.00 139.00" xmlns="http://www.w3.org/2000/svg" xmlns:xlink="http://www.w3.org/1999/xlink">
<g id="graph0" class="graph" transform="scale(1 1) rotate(0) translate(4 135)">
<title>find_intmd_coords</title>
<!-- Node1 -->
<g id="Node000001" class="node">
<title>Node1</title>
<g id="a_Node000001"><a xlink:title=" ">
<polygon fill="#999999" stroke="#666666" points="106,-56 0,-56 0,-37 106,-37 106,-56"/>
<text text-anchor="middle" x="53" y="-44" font-family="Helvetica,sans-Serif" font-size="10.00">find_intmd_coords</text>
</a>
</g>
</g>
<!-- Node2 -->
<g id="Node000002" class="node">
<title>Node2</title>
<g id="a_Node000002"><a xlink:href="muscle__activation_8c.html#a8de86acbd2114bdd44a3b7125602d0fe" target="_top" xlink:title=" ">
<polygon fill="white" stroke="#666666" points="453,-94 339,-94 339,-75 453,-75 453,-94"/>
<text text-anchor="middle" x="396" y="-82" font-family="Helvetica,sans-Serif" font-size="10.00">calculate_cov_basis</text>
</a>
</g>
</g>
<!-- Node1&#45;&gt;Node2 -->
<g id="edge1_Node000001_Node000002" class="edge">
<title>Node1&#45;&gt;Node2</title>
<g id="a_edge1_Node000001_Node000002"><a xlink:title=" ">
<path fill="none" stroke="#63b8ff" d="M92.78,-56.08C108.04,-59.53 125.76,-63.15 142,-65.5 205.01,-74.62 277.52,-79.5 328.72,-82.02"/>
<polygon fill="#63b8ff" stroke="#63b8ff" points="328.83,-85.53 338.99,-82.51 329.16,-78.54 328.83,-85.53"/>
</a>
</g>
</g>
<!-- Node6 -->
<g id="Node000006" class="node">
<title>Node6</title>
<g id="a_Node000006"><a xlink:href="muscle__activation_8c.html#a6775d705d7242ce0339ce632abbfa4b4" target="_top" xlink:title=" ">
<polygon fill="white" stroke="#666666" points="303,-56 142,-56 142,-37 303,-37 303,-56"/>
<text text-anchor="middle" x="222.5" y="-44" font-family="Helvetica,sans-Serif" font-size="10.00">form_interm_state_func_grad</text>
</a>
</g>
</g>
<!-- Node1&#45;&gt;Node6 -->
<g id="edge5_Node000001_Node000006" class="edge">
<title>Node1&#45;&gt;Node6</title>
<g id="a_edge5_Node000001_Node000006"><a xlink:title=" ">
<path fill="none" stroke="#63b8ff" d="M106.08,-46.5C114.22,-46.5 122.84,-46.5 131.54,-46.5"/>
<polygon fill="#63b8ff" stroke="#63b8ff" points="131.78,-50 141.78,-46.5 131.78,-43 131.78,-50"/>
</a>
</g>
</g>
<!-- Node9 -->
<g id="Node000009" class="node">
<title>Node9</title>
<g id="a_Node000009"><a xlink:href="muscle__activation_8c.html#a3fb102b3c4e265791888d9f87d4201c7" target="_top" xlink:title=" ">
<polygon fill="white" stroke="#666666" points="265.5,-19 179.5,-19 179.5,0 265.5,0 265.5,-19"/>
<text text-anchor="middle" x="222.5" y="-7" font-family="Helvetica,sans-Serif" font-size="10.00">MyTaoMonitor</text>
</a>
</g>
</g>
<!-- Node1&#45;&gt;Node9 -->
<g id="edge9_Node000001_Node000009" class="edge">
<title>Node1&#45;&gt;Node9</title>
<g id="a_edge9_Node000001_Node000009"><a xlink:title=" ">
<path fill="none" stroke="#63b8ff" d="M97.14,-36.97C119.17,-32.1 146.16,-26.14 169.36,-21.02"/>
<polygon fill="#63b8ff" stroke="#63b8ff" points="170.37,-24.38 179.38,-18.8 168.86,-17.54 170.37,-24.38"/>
</a>
</g>
</g>
<!-- Node3 -->
<g id="Node000003" class="node">
<title>Node3</title>
<g id="a_Node000003"><a xlink:href="math_8c.html#a9d60990d26296194c921d537ea26f3c7" target="_top" xlink:title=" ">
<polygon fill="white" stroke="#666666" points="539,-131 489,-131 489,-112 539,-112 539,-131"/>
<text text-anchor="middle" x="514" y="-119" font-family="Helvetica,sans-Serif" font-size="10.00">CROSS</text>
</a>
</g>
</g>
<!-- Node2&#45;&gt;Node3 -->
<g id="edge2_Node000002_Node000003" class="edge">
<title>Node2&#45;&gt;Node3</title>
<g id="a_edge2_Node000002_Node000003"><a xlink:title=" ">
<path fill="none" stroke="#63b8ff" d="M426.87,-94.03C442.77,-99.1 462.39,-105.36 478.89,-110.62"/>
<polygon fill="#63b8ff" stroke="#63b8ff" points="478.1,-114.04 488.69,-113.75 480.23,-107.37 478.1,-114.04"/>
</a>
</g>
</g>
<!-- Node4 -->
<g id="Node000004" class="node">
<title>Node4</title>
<g id="a_Node000004"><a xlink:href="math_8c.html#a870a70f4845a041458d9bdb0dd7aabd3" target="_top" xlink:title=" ">
<polygon fill="white" stroke="#666666" points="533,-94 495,-94 495,-75 533,-75 533,-94"/>
<text text-anchor="middle" x="514" y="-82" font-family="Helvetica,sans-Serif" font-size="10.00">DOT</text>
</a>
</g>
</g>
<!-- Node2&#45;&gt;Node4 -->
<g id="edge3_Node000002_Node000004" class="edge">
<title>Node2&#45;&gt;Node4</title>
<g id="a_edge3_Node000002_Node000004"><a xlink:title=" ">
<path fill="none" stroke="#63b8ff" d="M453.3,-84.5C464.21,-84.5 475.19,-84.5 484.71,-84.5"/>
<polygon fill="#63b8ff" stroke="#63b8ff" points="484.76,-88 494.76,-84.5 484.76,-81 484.76,-88"/>
</a>
</g>
</g>
<!-- Node5 -->
<g id="Node000005" class="node">
<title>Node5</title>
<g id="a_Node000005"><a xlink:href="math_8c.html#ac616709995f2ae60c4308ffa328337d7" target="_top" xlink:title=" ">
<polygon fill="white" stroke="#666666" points="534.5,-57 493.5,-57 493.5,-38 534.5,-38 534.5,-57"/>
<text text-anchor="middle" x="514" y="-45" font-family="Helvetica,sans-Serif" font-size="10.00">UNIT</text>
</a>
</g>
</g>
<!-- Node2&#45;&gt;Node5 -->
<g id="edge4_Node000002_Node000005" class="edge">
<title>Node2&#45;&gt;Node5</title>
<g id="a_edge4_Node000002_Node000005"><a xlink:title=" ">
<path fill="none" stroke="#63b8ff" d="M426.87,-74.97C444.38,-69.39 466.4,-62.36 483.79,-56.82"/>
<polygon fill="#63b8ff" stroke="#63b8ff" points="484.97,-60.12 493.43,-53.74 482.84,-53.45 484.97,-60.12"/>
</a>
</g>
</g>
<!-- Node6&#45;&gt;Node2 -->
<g id="edge7_Node000006_Node000002" class="edge">
<title>Node6&#45;&gt;Node2</title>
<g id="a_edge7_Node000006_Node000002"><a xlink:title=" ">
<path fill="none" stroke="#63b8ff" d="M266.78,-56.09C289.61,-61.15 317.82,-67.4 341.96,-72.75"/>
<polygon fill="#63b8ff" stroke="#63b8ff" points="341.51,-76.23 352.03,-74.98 343.03,-69.4 341.51,-76.23"/>
</a>
</g>
</g>
<!-- Node7 -->
<g id="Node000007" class="node">
<title>Node7</title>
<g id="a_Node000007"><a xlink:href="muscle__activation_8c.html#a36f02749f1f9ff32ed836a7bab6c719d" target="_top" xlink:title=" ">
<polygon fill="white" stroke="#666666" points="439,-57 353,-57 353,-38 439,-38 439,-57"/>
<text text-anchor="middle" x="396" y="-45" font-family="Helvetica,sans-Serif" font-size="10.00">apply_act_bcs</text>
</a>
</g>
</g>
<!-- Node6&#45;&gt;Node7 -->
<g id="edge6_Node000006_Node000007" class="edge">
<title>Node6&#45;&gt;Node7</title>
<g id="a_edge6_Node000006_Node000007"><a xlink:title=" ">
<path fill="none" stroke="#63b8ff" d="M303.23,-46.96C316.62,-47.04 330.21,-47.12 342.68,-47.19"/>
<polygon fill="#63b8ff" stroke="#63b8ff" points="342.85,-50.7 352.87,-47.25 342.89,-43.7 342.85,-50.7"/>
</a>
</g>
</g>
<!-- Node8 -->
<g id="Node000008" class="node">
<title>Node8</title>
<g id="a_Node000008"><a xlink:href="bending_8c.html#a4a1f5973a55922b27065f712220d8152" target="_top" xlink:title=" ">
<polygon fill="white" stroke="#666666" points="434.5,-20 357.5,-20 357.5,-1 434.5,-1 434.5,-20"/>
<text text-anchor="middle" x="396" y="-8" font-family="Helvetica,sans-Serif" font-size="10.00">GlobalGhost</text>
</a>
</g>
</g>
<!-- Node6&#45;&gt;Node8 -->
<g id="edge8_Node000006_Node000008" class="edge">
<title>Node6&#45;&gt;Node8</title>
<g id="a_edge8_Node000006_Node000008"><a xlink:title=" ">
<path fill="none" stroke="#63b8ff" d="M269.01,-36.95C293.25,-31.86 323.05,-25.6 347.58,-20.45"/>
<polygon fill="#63b8ff" stroke="#63b8ff" points="348.32,-23.87 357.39,-18.39 346.89,-17.02 348.32,-23.87"/>
</a>
</g>
</g>
</g>
</svg>
