<?xml version="1.0" encoding="UTF-8" standalone="no"?>
<!DOCTYPE svg PUBLIC "-//W3C//DTD SVG 1.1//EN"
 "http://www.w3.org/Graphics/SVG/1.1/DTD/svg11.dtd">
<!-- Generated by graphviz version 2.43.0 (0)
 -->
<!-- Title: compute_mid_surface_el_stress_after_act Pages: 1 -->
<svg width="374pt" height="308pt"
 viewBox="0.00 0.00 374.00 308.00" xmlns="http://www.w3.org/2000/svg" xmlns:xlink="http://www.w3.org/1999/xlink">
<g id="graph0" class="graph" transform="scale(1 1) rotate(0) translate(4 304)">
<title>compute_mid_surface_el_stress_after_act</title>
<!-- Node1 -->
<g id="Node000001" class="node">
<title>Node1</title>
<g id="a_Node000001"><a xlink:title=" ">
<polygon fill="#999999" stroke="#666666" points="125,-172.5 0,-172.5 0,-142.5 125,-142.5 125,-172.5"/>
<text text-anchor="start" x="8" y="-160.5" font-family="Helvetica,sans-Serif" font-size="10.00">compute_mid_surface</text>
<text text-anchor="middle" x="62.5" y="-149.5" font-family="Helvetica,sans-Serif" font-size="10.00">_el_stress_after_act</text>
</a>
</g>
</g>
<!-- Node2 -->
<g id="Node000002" class="node">
<title>Node2</title>
<g id="a_Node000002"><a xlink:href="math_8c.html#a7ef9263b0a3a10c2cd00bb4dc0059d70" target="_top" xlink:title=" ">
<polygon fill="white" stroke="#666666" points="245.5,-300 195.5,-300 195.5,-281 245.5,-281 245.5,-300"/>
<text text-anchor="middle" x="220.5" y="-288" font-family="Helvetica,sans-Serif" font-size="10.00">AMULT</text>
</a>
</g>
</g>
<!-- Node1&#45;&gt;Node2 -->
<g id="edge1_Node000001_Node000002" class="edge">
<title>Node1&#45;&gt;Node2</title>
<g id="a_edge1_Node000001_Node000002"><a xlink:title=" ">
<path fill="none" stroke="#63b8ff" d="M73.77,-172.87C89.9,-195.99 123.26,-239.83 161,-266.5 168.56,-271.84 177.48,-276.26 186.05,-279.8"/>
<polygon fill="#63b8ff" stroke="#63b8ff" points="184.89,-283.1 195.48,-283.41 187.39,-276.57 184.89,-283.1"/>
</a>
</g>
</g>
<!-- Node3 -->
<g id="Node000003" class="node">
<title>Node3</title>
<g id="a_Node000003"><a xlink:href="material_8c.html#af81ecf5fbfd52082e0abd3184f12c14f" target="_top" xlink:title=" ">
<polygon fill="white" stroke="#666666" points="273.5,-112 167.5,-112 167.5,-93 273.5,-93 273.5,-112"/>
<text text-anchor="middle" x="220.5" y="-100" font-family="Helvetica,sans-Serif" font-size="10.00">BendingNonLinear</text>
</a>
</g>
</g>
<!-- Node1&#45;&gt;Node3 -->
<g id="edge2_Node000001_Node000003" class="edge">
<title>Node1&#45;&gt;Node3</title>
<g id="a_edge2_Node000001_Node000003"><a xlink:title=" ">
<path fill="none" stroke="#63b8ff" d="M103.22,-142.43C120.86,-135.84 141.91,-128.12 161,-121.5 167.02,-119.41 173.42,-117.26 179.69,-115.2"/>
<polygon fill="#63b8ff" stroke="#63b8ff" points="180.94,-118.47 189.36,-112.04 178.77,-111.81 180.94,-118.47"/>
</a>
</g>
</g>
<!-- Node4 -->
<g id="Node000004" class="node">
<title>Node4</title>
<g id="a_Node000004"><a xlink:href="math_8c.html#a9d60990d26296194c921d537ea26f3c7" target="_top" xlink:title=" ">
<polygon fill="white" stroke="#666666" points="366,-241 316,-241 316,-222 366,-222 366,-241"/>
<text text-anchor="middle" x="341" y="-229" font-family="Helvetica,sans-Serif" font-size="10.00">CROSS</text>
</a>
</g>
</g>
<!-- Node1&#45;&gt;Node4 -->
<g id="edge10_Node000001_Node000004" class="edge">
<title>Node1&#45;&gt;Node4</title>
<g id="a_edge10_Node000001_Node000004"><a xlink:title=" ">
<path fill="none" stroke="#63b8ff" d="M84.4,-172.65C103.38,-185.56 132.68,-203.44 161,-212.5 209.63,-228.06 269.09,-231.5 305.75,-231.95"/>
<polygon fill="#63b8ff" stroke="#63b8ff" points="305.89,-235.45 315.91,-232 305.93,-228.45 305.89,-235.45"/>
</a>
</g>
</g>
<!-- Node5 -->
<g id="Node000005" class="node">
<title>Node5</title>
<g id="a_Node000005"><a xlink:href="math_8c.html#a870a70f4845a041458d9bdb0dd7aabd3" target="_top" xlink:title=" ">
<polygon fill="white" stroke="#666666" points="360,-204 322,-204 322,-185 360,-185 360,-204"/>
<text text-anchor="middle" x="341" y="-192" font-family="Helvetica,sans-Serif" font-size="10.00">DOT</text>
</a>
</g>
</g>
<!-- Node1&#45;&gt;Node5 -->
<g id="edge11_Node000001_Node000005" class="edge">
<title>Node1&#45;&gt;Node5</title>
<g id="a_edge11_Node000001_Node000005"><a xlink:title=" ">
<path fill="none" stroke="#63b8ff" d="M93.81,-172.69C112.63,-181.26 137.61,-191.1 161,-195.5 213.45,-205.36 276.08,-201.54 311.63,-197.96"/>
<polygon fill="#63b8ff" stroke="#63b8ff" points="312.19,-201.42 321.76,-196.87 311.44,-194.46 312.19,-201.42"/>
</a>
</g>
</g>
<!-- Node9 -->
<g id="Node000009" class="node">
<title>Node9</title>
<g id="a_Node000009"><a xlink:href="math_8c.html#aa52f6593cf3e5453c8c6c94343d3fb37" target="_top" xlink:title=" ">
<polygon fill="white" stroke="#666666" points="360,-56 322,-56 322,-37 360,-37 360,-56"/>
<text text-anchor="middle" x="341" y="-44" font-family="Helvetica,sans-Serif" font-size="10.00">SIZE</text>
</a>
</g>
</g>
<!-- Node1&#45;&gt;Node9 -->
<g id="edge19_Node000001_Node000009" class="edge">
<title>Node1&#45;&gt;Node9</title>
<g id="a_edge19_Node000001_Node000009"><a xlink:title=" ">
<path fill="none" stroke="#63b8ff" d="M74.82,-142.5C91.28,-121.92 123.94,-85.55 161,-68.5 210.24,-45.85 274.73,-43.77 311.33,-44.8"/>
<polygon fill="#63b8ff" stroke="#63b8ff" points="311.62,-48.32 321.75,-45.2 311.89,-41.32 311.62,-48.32"/>
</a>
</g>
</g>
<!-- Node10 -->
<g id="Node000010" class="node">
<title>Node10</title>
<g id="a_Node000010"><a xlink:href="math_8c.html#ac616709995f2ae60c4308ffa328337d7" target="_top" xlink:title=" ">
<polygon fill="white" stroke="#666666" points="361.5,-93 320.5,-93 320.5,-74 361.5,-74 361.5,-93"/>
<text text-anchor="middle" x="341" y="-81" font-family="Helvetica,sans-Serif" font-size="10.00">UNIT</text>
</a>
</g>
</g>
<!-- Node1&#45;&gt;Node10 -->
<g id="edge26_Node000001_Node000010" class="edge">
<title>Node1&#45;&gt;Node10</title>
<g id="a_edge26_Node000001_Node000010"><a xlink:title=" ">
<path fill="none" stroke="#63b8ff" d="M77.58,-142.2C95.11,-124.38 126.92,-95.95 161,-84.5 211.27,-67.61 274.06,-72.79 310.34,-78.13"/>
<polygon fill="#63b8ff" stroke="#63b8ff" points="309.85,-81.59 320.27,-79.69 310.94,-74.68 309.85,-81.59"/>
</a>
</g>
</g>
<!-- Node11 -->
<g id="Node000011" class="node">
<title>Node11</title>
<g id="a_Node000011"><a xlink:href="material_8c.html#aa93862cca1fe83c736219df7d4a91374" target="_top" xlink:title=" ">
<polygon fill="white" stroke="#666666" points="280,-149 161,-149 161,-130 280,-130 280,-149"/>
<text text-anchor="middle" x="220.5" y="-137" font-family="Helvetica,sans-Serif" font-size="10.00">MembraneNonLinear</text>
</a>
</g>
</g>
<!-- Node1&#45;&gt;Node11 -->
<g id="edge12_Node000001_Node000011" class="edge">
<title>Node1&#45;&gt;Node11</title>
<g id="a_edge12_Node000001_Node000011"><a xlink:title=" ">
<path fill="none" stroke="#63b8ff" d="M125.16,-150.39C133.6,-149.41 142.32,-148.41 150.88,-147.42"/>
<polygon fill="#63b8ff" stroke="#63b8ff" points="151.3,-150.89 160.84,-146.27 150.5,-143.94 151.3,-150.89"/>
</a>
</g>
</g>
<!-- Node12 -->
<g id="Node000012" class="node">
<title>Node12</title>
<g id="a_Node000012"><a xlink:href="material_8c.html#a431e1e9b5ceabfa4edc2920b70296b35" target="_top" xlink:title=" ">
<polygon fill="white" stroke="#666666" points="259,-186 182,-186 182,-167 259,-167 259,-186"/>
<text text-anchor="middle" x="220.5" y="-174" font-family="Helvetica,sans-Serif" font-size="10.00">StressLinear</text>
</a>
</g>
</g>
<!-- Node1&#45;&gt;Node12 -->
<g id="edge20_Node000001_Node000012" class="edge">
<title>Node1&#45;&gt;Node12</title>
<g id="a_edge20_Node000001_Node000012"><a xlink:title=" ">
<path fill="none" stroke="#63b8ff" d="M125.16,-165.01C140.51,-166.88 156.74,-168.86 171.34,-170.63"/>
<polygon fill="#63b8ff" stroke="#63b8ff" points="171.29,-174.15 181.64,-171.89 172.13,-167.21 171.29,-174.15"/>
</a>
</g>
</g>
<!-- Node3&#45;&gt;Node4 -->
<g id="edge3_Node000003_Node000004" class="edge">
<title>Node3&#45;&gt;Node4</title>
<g id="a_edge3_Node000003_Node000004"><a xlink:title=" ">
<path fill="none" stroke="#63b8ff" d="M265.75,-112.07C270.96,-114.53 275.88,-117.62 280,-121.5 311.95,-151.62 289.42,-178.55 316,-213.5 316.37,-213.99 316.77,-214.48 317.17,-214.96"/>
<polygon fill="#63b8ff" stroke="#63b8ff" points="314.96,-217.68 324.64,-221.99 319.76,-212.59 314.96,-217.68"/>
</a>
</g>
</g>
<!-- Node3&#45;&gt;Node5 -->
<g id="edge4_Node000003_Node000005" class="edge">
<title>Node3&#45;&gt;Node5</title>
<g id="a_edge4_Node000003_Node000005"><a xlink:title=" ">
<path fill="none" stroke="#63b8ff" d="M262.91,-112.02C268.99,-114.5 274.91,-117.61 280,-121.5 303.21,-139.24 296.01,-155.19 316,-176.5 316.62,-177.16 317.27,-177.82 317.94,-178.47"/>
<polygon fill="#63b8ff" stroke="#63b8ff" points="315.72,-181.18 325.61,-184.98 320.25,-175.84 315.72,-181.18"/>
</a>
</g>
</g>
<!-- Node6 -->
<g id="Node000006" class="node">
<title>Node6</title>
<g id="a_Node000006"><a xlink:href="math_8c.html#a3f73e4cd9eab76eeee084eabf2b98ec9" target="_top" xlink:title=" ">
<polygon fill="white" stroke="#666666" points="358,-130 324,-130 324,-111 358,-111 358,-130"/>
<text text-anchor="middle" x="341" y="-118" font-family="Helvetica,sans-Serif" font-size="10.00">INV</text>
</a>
</g>
</g>
<!-- Node3&#45;&gt;Node6 -->
<g id="edge5_Node000003_Node000006" class="edge">
<title>Node3&#45;&gt;Node6</title>
<g id="a_edge5_Node000003_Node000006"><a xlink:title=" ">
<path fill="none" stroke="#63b8ff" d="M273.82,-110.45C287.68,-112.55 302.06,-114.74 313.85,-116.53"/>
<polygon fill="#63b8ff" stroke="#63b8ff" points="313.46,-120.01 323.87,-118.05 314.51,-113.09 313.46,-120.01"/>
</a>
</g>
</g>
<!-- Node7 -->
<g id="Node000007" class="node">
<title>Node7</title>
<g id="a_Node000007"><a xlink:href="math_8c.html#a9d08a9d2fd8e8932e92b8ab054b19269" target="_top" xlink:title=" ">
<polygon fill="white" stroke="#666666" points="366,-167 316,-167 316,-148 366,-148 366,-167"/>
<text text-anchor="middle" x="341" y="-155" font-family="Helvetica,sans-Serif" font-size="10.00">MINUS</text>
</a>
</g>
</g>
<!-- Node3&#45;&gt;Node7 -->
<g id="edge6_Node000003_Node000007" class="edge">
<title>Node3&#45;&gt;Node7</title>
<g id="a_edge6_Node000003_Node000007"><a xlink:title=" ">
<path fill="none" stroke="#63b8ff" d="M255.41,-112.07C263.6,-114.78 272.23,-117.96 280,-121.5 292.96,-127.4 306.62,-135.44 317.64,-142.43"/>
<polygon fill="#63b8ff" stroke="#63b8ff" points="315.89,-145.47 326.19,-147.98 319.71,-139.6 315.89,-145.47"/>
</a>
</g>
</g>
<!-- Node8 -->
<g id="Node000008" class="node">
<title>Node8</title>
<g id="a_Node000008"><a xlink:href="math_8c.html#ae6a53927765c25c58815e47fea096a67" target="_top" xlink:title=" ">
<polygon fill="white" stroke="#666666" points="361.5,-19 320.5,-19 320.5,0 361.5,0 361.5,-19"/>
<text text-anchor="middle" x="341" y="-7" font-family="Helvetica,sans-Serif" font-size="10.00">SIGN</text>
</a>
</g>
</g>
<!-- Node3&#45;&gt;Node8 -->
<g id="edge7_Node000003_Node000008" class="edge">
<title>Node3&#45;&gt;Node8</title>
<g id="a_edge7_Node000003_Node000008"><a xlink:title=" ">
<path fill="none" stroke="#63b8ff" d="M233.35,-92.92C251.17,-78.56 285.99,-50.66 316,-27.5 316.87,-26.83 317.75,-26.15 318.65,-25.47"/>
<polygon fill="#63b8ff" stroke="#63b8ff" points="320.88,-28.16 326.75,-19.34 316.66,-22.58 320.88,-28.16"/>
</a>
</g>
</g>
<!-- Node3&#45;&gt;Node9 -->
<g id="edge8_Node000003_Node000009" class="edge">
<title>Node3&#45;&gt;Node9</title>
<g id="a_edge8_Node000003_Node000009"><a xlink:title=" ">
<path fill="none" stroke="#63b8ff" d="M241.87,-92.87C261.38,-83.65 290.96,-69.67 312.55,-59.47"/>
<polygon fill="#63b8ff" stroke="#63b8ff" points="314.29,-62.52 321.84,-55.08 311.3,-56.19 314.29,-62.52"/>
</a>
</g>
</g>
<!-- Node3&#45;&gt;Node10 -->
<g id="edge9_Node000003_Node000010" class="edge">
<title>Node3&#45;&gt;Node10</title>
<g id="a_edge9_Node000003_Node000010"><a xlink:title=" ">
<path fill="none" stroke="#63b8ff" d="M273.82,-94.11C286.32,-92.11 299.23,-90.04 310.3,-88.26"/>
<polygon fill="#63b8ff" stroke="#63b8ff" points="310.95,-91.7 320.27,-86.66 309.84,-84.79 310.95,-91.7"/>
</a>
</g>
</g>
<!-- Node11&#45;&gt;Node4 -->
<g id="edge13_Node000011_Node000004" class="edge">
<title>Node11&#45;&gt;Node4</title>
<g id="a_edge13_Node000011_Node000004"><a xlink:title=" ">
<path fill="none" stroke="#63b8ff" d="M262.91,-149.02C268.99,-151.5 274.91,-154.61 280,-158.5 303.21,-176.24 296.01,-192.19 316,-213.5 316.62,-214.16 317.27,-214.82 317.94,-215.47"/>
<polygon fill="#63b8ff" stroke="#63b8ff" points="315.72,-218.18 325.61,-221.98 320.25,-212.84 315.72,-218.18"/>
</a>
</g>
</g>
<!-- Node11&#45;&gt;Node5 -->
<g id="edge14_Node000011_Node000005" class="edge">
<title>Node11&#45;&gt;Node5</title>
<g id="a_edge14_Node000011_Node000005"><a xlink:title=" ">
<path fill="none" stroke="#63b8ff" d="M255.41,-149.07C263.6,-151.78 272.23,-154.96 280,-158.5 292.96,-164.4 306.62,-172.44 317.64,-179.43"/>
<polygon fill="#63b8ff" stroke="#63b8ff" points="315.89,-182.47 326.19,-184.98 319.71,-176.6 315.89,-182.47"/>
</a>
</g>
</g>
<!-- Node11&#45;&gt;Node6 -->
<g id="edge15_Node000011_Node000006" class="edge">
<title>Node11&#45;&gt;Node6</title>
<g id="a_edge15_Node000011_Node000006"><a xlink:title=" ">
<path fill="none" stroke="#63b8ff" d="M280.06,-130.11C291.87,-128.22 303.73,-126.32 313.74,-124.71"/>
<polygon fill="#63b8ff" stroke="#63b8ff" points="314.47,-128.14 323.79,-123.1 313.36,-121.23 314.47,-128.14"/>
</a>
</g>
</g>
<!-- Node11&#45;&gt;Node7 -->
<g id="edge16_Node000011_Node000007" class="edge">
<title>Node11&#45;&gt;Node7</title>
<g id="a_edge16_Node000011_Node000007"><a xlink:title=" ">
<path fill="none" stroke="#63b8ff" d="M280.06,-148.39C288.89,-149.74 297.75,-151.08 305.85,-152.31"/>
<polygon fill="#63b8ff" stroke="#63b8ff" points="305.57,-155.81 315.98,-153.85 306.62,-148.89 305.57,-155.81"/>
</a>
</g>
</g>
<!-- Node11&#45;&gt;Node9 -->
<g id="edge17_Node000011_Node000009" class="edge">
<title>Node11&#45;&gt;Node9</title>
<g id="a_edge17_Node000011_Node000009"><a xlink:title=" ">
<path fill="none" stroke="#63b8ff" d="M265.05,-129.92C270.38,-127.67 275.51,-124.9 280,-121.5 303.57,-103.62 296.13,-87.42 316,-65.5 316.75,-64.67 317.54,-63.85 318.35,-63.05"/>
<polygon fill="#63b8ff" stroke="#63b8ff" points="320.91,-65.46 326.12,-56.23 316.29,-60.2 320.91,-65.46"/>
</a>
</g>
</g>
<!-- Node11&#45;&gt;Node10 -->
<g id="edge18_Node000011_Node000010" class="edge">
<title>Node11&#45;&gt;Node10</title>
<g id="a_edge18_Node000011_Node000010"><a xlink:title=" ">
<path fill="none" stroke="#63b8ff" d="M257.95,-129.93C265.38,-127.52 273.05,-124.7 280,-121.5 293.61,-115.23 307.82,-106.35 318.99,-98.75"/>
<polygon fill="#63b8ff" stroke="#63b8ff" points="321.03,-101.6 327.23,-93.01 317.02,-95.86 321.03,-101.6"/>
</a>
</g>
</g>
<!-- Node12&#45;&gt;Node4 -->
<g id="edge21_Node000012_Node000004" class="edge">
<title>Node12&#45;&gt;Node4</title>
<g id="a_edge21_Node000012_Node000004"><a xlink:title=" ">
<path fill="none" stroke="#63b8ff" d="M242.14,-186.08C260.89,-194.78 288.77,-207.72 309.98,-217.57"/>
<polygon fill="#63b8ff" stroke="#63b8ff" points="308.65,-220.81 319.2,-221.84 311.6,-214.46 308.65,-220.81"/>
</a>
</g>
</g>
<!-- Node12&#45;&gt;Node5 -->
<g id="edge22_Node000012_Node000005" class="edge">
<title>Node12&#45;&gt;Node5</title>
<g id="a_edge22_Node000012_Node000005"><a xlink:title=" ">
<path fill="none" stroke="#63b8ff" d="M259.32,-182.24C276.27,-184.82 295.93,-187.81 311.59,-190.18"/>
<polygon fill="#63b8ff" stroke="#63b8ff" points="311.31,-193.68 321.72,-191.72 312.36,-186.76 311.31,-193.68"/>
</a>
</g>
</g>
<!-- Node12&#45;&gt;Node6 -->
<g id="edge23_Node000012_Node000006" class="edge">
<title>Node12&#45;&gt;Node6</title>
<g id="a_edge23_Node000012_Node000006"><a xlink:title=" ">
<path fill="none" stroke="#63b8ff" d="M257.95,-166.93C265.38,-164.52 273.05,-161.7 280,-158.5 293.61,-152.23 307.82,-143.35 318.99,-135.75"/>
<polygon fill="#63b8ff" stroke="#63b8ff" points="321.03,-138.6 327.23,-130.01 317.02,-132.86 321.03,-138.6"/>
</a>
</g>
</g>
<!-- Node12&#45;&gt;Node7 -->
<g id="edge24_Node000012_Node000007" class="edge">
<title>Node12&#45;&gt;Node7</title>
<g id="a_edge24_Node000012_Node000007"><a xlink:title=" ">
<path fill="none" stroke="#63b8ff" d="M259.32,-170.44C274.25,-168.04 291.29,-165.31 305.84,-162.98"/>
<polygon fill="#63b8ff" stroke="#63b8ff" points="306.62,-166.4 315.94,-161.36 305.51,-159.49 306.62,-166.4"/>
</a>
</g>
</g>
<!-- Node12&#45;&gt;Node10 -->
<g id="edge25_Node000012_Node000010" class="edge">
<title>Node12&#45;&gt;Node10</title>
<g id="a_edge25_Node000012_Node000010"><a xlink:title=" ">
<path fill="none" stroke="#63b8ff" d="M259.27,-169.14C266.61,-166.57 273.9,-163.12 280,-158.5 303.57,-140.62 296.13,-124.42 316,-102.5 316.75,-101.67 317.54,-100.85 318.35,-100.05"/>
<polygon fill="#63b8ff" stroke="#63b8ff" points="320.91,-102.46 326.12,-93.23 316.29,-97.2 320.91,-102.46"/>
</a>
</g>
</g>
</g>
</svg>
