<?xml version="1.0" encoding="UTF-8" standalone="no"?>
<!DOCTYPE svg PUBLIC "-//W3C//DTD SVG 1.1//EN"
 "http://www.w3.org/Graphics/SVG/1.1/DTD/svg11.dtd">
<!-- Generated by graphviz version 2.43.0 (0)
 -->
<!-- Title: apply_act_bcs Pages: 1 -->
<svg width="592pt" height="27pt"
 viewBox="0.00 0.00 592.00 27.00" xmlns="http://www.w3.org/2000/svg" xmlns:xlink="http://www.w3.org/1999/xlink">
<g id="graph0" class="graph" transform="scale(1 1) rotate(0) translate(4 23)">
<title>apply_act_bcs</title>
<!-- Node1 -->
<g id="Node000001" class="node">
<title>Node1</title>
<g id="a_Node000001"><a xlink:title=" ">
<polygon fill="#999999" stroke="#666666" points="584,-19 498,-19 498,0 584,0 584,-19"/>
<text text-anchor="middle" x="541" y="-7" font-family="Helvetica,sans-Serif" font-size="10.00">apply_act_bcs</text>
</a>
</g>
</g>
<!-- Node2 -->
<g id="Node000002" class="node">
<title>Node2</title>
<g id="a_Node000002"><a xlink:href="muscle__activation_8c.html#a6775d705d7242ce0339ce632abbfa4b4" target="_top" xlink:title=" ">
<polygon fill="white" stroke="#666666" points="462,-19 301,-19 301,0 462,0 462,-19"/>
<text text-anchor="middle" x="381.5" y="-7" font-family="Helvetica,sans-Serif" font-size="10.00">form_interm_state_func_grad</text>
</a>
</g>
</g>
<!-- Node1&#45;&gt;Node2 -->
<g id="edge1_Node000001_Node000002" class="edge">
<title>Node1&#45;&gt;Node2</title>
<g id="a_edge1_Node000001_Node000002"><a xlink:title=" ">
<path fill="none" stroke="#63b8ff" d="M487.68,-9.5C479.49,-9.5 470.87,-9.5 462.23,-9.5"/>
<polygon fill="#63b8ff" stroke="#63b8ff" points="487.79,-13 497.79,-9.5 487.79,-6 487.79,-13"/>
</a>
</g>
</g>
<!-- Node3 -->
<g id="Node000003" class="node">
<title>Node3</title>
<g id="a_Node000003"><a xlink:href="muscle__activation_8c.html#a98fd1f2632f8a9dafbcd477adbf354a0" target="_top" xlink:title=" ">
<polygon fill="white" stroke="#666666" points="265,-19 159,-19 159,0 265,0 265,-19"/>
<text text-anchor="middle" x="212" y="-7" font-family="Helvetica,sans-Serif" font-size="10.00">find_intmd_coords</text>
</a>
</g>
</g>
<!-- Node2&#45;&gt;Node3 -->
<g id="edge2_Node000002_Node000003" class="edge">
<title>Node2&#45;&gt;Node3</title>
<g id="a_edge2_Node000002_Node000003"><a xlink:title=" ">
<path fill="none" stroke="#63b8ff" d="M290.58,-9.5C281.99,-9.5 273.49,-9.5 265.44,-9.5"/>
<polygon fill="#63b8ff" stroke="#63b8ff" points="290.67,-13 300.67,-9.5 290.67,-6 290.67,-13"/>
</a>
</g>
</g>
<!-- Node4 -->
<g id="Node000004" class="node">
<title>Node4</title>
<g id="a_Node000004"><a xlink:href="muscle__activation_8c.html#aad998374ae4f3ca2c8f14b4c4b2aaafd" target="_top" xlink:title=" ">
<polygon fill="white" stroke="#666666" points="123,-19 0,-19 0,0 123,0 123,-19"/>
<text text-anchor="middle" x="61.5" y="-7" font-family="Helvetica,sans-Serif" font-size="10.00">InitMuscleActProblem</text>
</a>
</g>
</g>
<!-- Node3&#45;&gt;Node4 -->
<g id="edge3_Node000003_Node000004" class="edge">
<title>Node3&#45;&gt;Node4</title>
<g id="a_edge3_Node000003_Node000004"><a xlink:title=" ">
<path fill="none" stroke="#63b8ff" d="M148.49,-9.5C140.05,-9.5 131.41,-9.5 123.01,-9.5"/>
<polygon fill="#63b8ff" stroke="#63b8ff" points="148.64,-13 158.64,-9.5 148.64,-6 148.64,-13"/>
</a>
</g>
</g>
</g>
</svg>
