<?xml version="1.0" encoding="UTF-8" standalone="no"?>
<!DOCTYPE svg PUBLIC "-//W3C//DTD SVG 1.1//EN"
 "http://www.w3.org/Graphics/SVG/1.1/DTD/svg11.dtd">
<!-- Generated by graphviz version 2.43.0 (0)
 -->
<!-- Title: compute_intmd_state_cov_basis_element Pages: 1 -->
<svg width="217pt" height="101pt"
 viewBox="0.00 0.00 217.00 101.00" xmlns="http://www.w3.org/2000/svg" xmlns:xlink="http://www.w3.org/1999/xlink">
<g id="graph0" class="graph" transform="scale(1 1) rotate(0) translate(4 97)">
<title>compute_intmd_state_cov_basis_element</title>
<!-- Node1 -->
<g id="Node000001" class="node">
<title>Node1</title>
<g id="a_Node000001"><a xlink:title="Compute intermediate deformed covariant basis vectors.">
<polygon fill="#999999" stroke="#666666" points="123,-61.5 0,-61.5 0,-31.5 123,-31.5 123,-61.5"/>
<text text-anchor="start" x="8" y="-49.5" font-family="Helvetica,sans-Serif" font-size="10.00">compute_intmd_state</text>
<text text-anchor="middle" x="61.5" y="-38.5" font-family="Helvetica,sans-Serif" font-size="10.00">_cov_basis_element</text>
</a>
</g>
</g>
<!-- Node2 -->
<g id="Node000002" class="node">
<title>Node2</title>
<g id="a_Node000002"><a xlink:href="math_8c.html#a9d60990d26296194c921d537ea26f3c7" target="_top" xlink:title=" ">
<polygon fill="white" stroke="#666666" points="209,-93 159,-93 159,-74 209,-74 209,-93"/>
<text text-anchor="middle" x="184" y="-81" font-family="Helvetica,sans-Serif" font-size="10.00">CROSS</text>
</a>
</g>
</g>
<!-- Node1&#45;&gt;Node2 -->
<g id="edge1_Node000001_Node000002" class="edge">
<title>Node1&#45;&gt;Node2</title>
<g id="a_edge1_Node000001_Node000002"><a xlink:title=" ">
<path fill="none" stroke="#63b8ff" d="M111.51,-61.55C124.11,-65.42 137.39,-69.5 149.04,-73.07"/>
<polygon fill="#63b8ff" stroke="#63b8ff" points="148.21,-76.48 158.8,-76.07 150.26,-69.79 148.21,-76.48"/>
</a>
</g>
</g>
<!-- Node3 -->
<g id="Node000003" class="node">
<title>Node3</title>
<g id="a_Node000003"><a xlink:href="math_8c.html#a870a70f4845a041458d9bdb0dd7aabd3" target="_top" xlink:title=" ">
<polygon fill="white" stroke="#666666" points="203,-56 165,-56 165,-37 203,-37 203,-56"/>
<text text-anchor="middle" x="184" y="-44" font-family="Helvetica,sans-Serif" font-size="10.00">DOT</text>
</a>
</g>
</g>
<!-- Node1&#45;&gt;Node3 -->
<g id="edge2_Node000001_Node000003" class="edge">
<title>Node1&#45;&gt;Node3</title>
<g id="a_edge2_Node000001_Node000003"><a xlink:title=" ">
<path fill="none" stroke="#63b8ff" d="M123.1,-46.5C134.17,-46.5 145.23,-46.5 154.77,-46.5"/>
<polygon fill="#63b8ff" stroke="#63b8ff" points="154.83,-50 164.83,-46.5 154.83,-43 154.83,-50"/>
</a>
</g>
</g>
<!-- Node4 -->
<g id="Node000004" class="node">
<title>Node4</title>
<g id="a_Node000004"><a xlink:href="math_8c.html#ac616709995f2ae60c4308ffa328337d7" target="_top" xlink:title=" ">
<polygon fill="white" stroke="#666666" points="204.5,-19 163.5,-19 163.5,0 204.5,0 204.5,-19"/>
<text text-anchor="middle" x="184" y="-7" font-family="Helvetica,sans-Serif" font-size="10.00">UNIT</text>
</a>
</g>
</g>
<!-- Node1&#45;&gt;Node4 -->
<g id="edge3_Node000001_Node000004" class="edge">
<title>Node1&#45;&gt;Node4</title>
<g id="a_edge3_Node000001_Node000004"><a xlink:title=" ">
<path fill="none" stroke="#63b8ff" d="M111.51,-31.45C125.81,-27.06 140.97,-22.4 153.64,-18.51"/>
<polygon fill="#63b8ff" stroke="#63b8ff" points="154.67,-21.86 163.2,-15.58 152.62,-15.17 154.67,-21.86"/>
</a>
</g>
</g>
</g>
</svg>
