<?xml version="1.0" encoding="UTF-8" standalone="no"?>
<!DOCTYPE svg PUBLIC "-//W3C//DTD SVG 1.1//EN"
 "http://www.w3.org/Graphics/SVG/1.1/DTD/svg11.dtd">
<!-- Generated by graphviz version 2.43.0 (0)
 -->
<!-- Title: UpdateFInternalAftAct Pages: 1 -->
<svg width="716pt" height="366pt"
 viewBox="0.00 0.00 716.00 366.00" xmlns="http://www.w3.org/2000/svg" xmlns:xlink="http://www.w3.org/1999/xlink">
<g id="graph0" class="graph" transform="scale(1 1) rotate(0) translate(4 362)">
<title>UpdateFInternalAftAct</title>
<!-- Node1 -->
<g id="Node000001" class="node">
<title>Node1</title>
<g id="a_Node000001"><a xlink:title=" ">
<polygon fill="#999999" stroke="#666666" points="125,-188 0,-188 0,-169 125,-169 125,-188"/>
<text text-anchor="middle" x="62.5" y="-176" font-family="Helvetica,sans-Serif" font-size="10.00">UpdateFInternalAftAct</text>
</a>
</g>
</g>
<!-- Node2 -->
<g id="Node000002" class="node">
<title>Node2</title>
<g id="a_Node000002"><a xlink:href="muscle__activation_8c.html#a357b3bb1950e461f37dc728929d29486" target="_top" xlink:title=" ">
<polygon fill="white" stroke="#666666" points="607,-321 509,-321 509,-302 607,-302 607,-321"/>
<text text-anchor="middle" x="558" y="-309" font-family="Helvetica,sans-Serif" font-size="10.00">FInternalAftActEl</text>
</a>
</g>
</g>
<!-- Node1&#45;&gt;Node2 -->
<g id="edge1_Node000001_Node000002" class="edge">
<title>Node1&#45;&gt;Node2</title>
<g id="a_edge1_Node000001_Node000002"><a xlink:title=" ">
<path fill="none" stroke="#63b8ff" d="M98.99,-188.07C186.83,-211.74 414.27,-273.03 511.66,-299.28"/>
<polygon fill="#63b8ff" stroke="#63b8ff" points="510.93,-302.71 521.5,-301.93 512.75,-295.95 510.93,-302.71"/>
</a>
</g>
</g>
<!-- Node9 -->
<g id="Node000009" class="node">
<title>Node9</title>
<g id="a_Node000009"><a xlink:href="muscle__activation_8c.html#a3f9fadbc31e4872a8519e6bfdecf7b8f" target="_top" xlink:title=" ">
<polygon fill="white" stroke="#666666" points="297,-193.5 161,-193.5 161,-163.5 297,-163.5 297,-193.5"/>
<text text-anchor="start" x="169" y="-181.5" font-family="Helvetica,sans-Serif" font-size="10.00">update_mid_surf_elastic</text>
<text text-anchor="middle" x="229" y="-170.5" font-family="Helvetica,sans-Serif" font-size="10.00">_stress</text>
</a>
</g>
</g>
<!-- Node1&#45;&gt;Node9 -->
<g id="edge8_Node000001_Node000009" class="edge">
<title>Node1&#45;&gt;Node9</title>
<g id="a_edge8_Node000001_Node000009"><a xlink:title=" ">
<path fill="none" stroke="#63b8ff" d="M125.22,-178.5C133.61,-178.5 142.3,-178.5 150.92,-178.5"/>
<polygon fill="#63b8ff" stroke="#63b8ff" points="150.97,-182 160.97,-178.5 150.97,-175 150.97,-182"/>
</a>
</g>
</g>
<!-- Node17 -->
<g id="Node000017" class="node">
<title>Node17</title>
<g id="a_Node000017"><a xlink:href="muscle__activation_8c.html#ac3ca4cc4ba5200069bc54f7f7b131b46" target="_top" xlink:title=" ">
<polygon fill="white" stroke="#666666" points="296,-145 162,-145 162,-126 296,-126 296,-145"/>
<text text-anchor="middle" x="229" y="-133" font-family="Helvetica,sans-Serif" font-size="10.00">UpdateTotalStressAftAct</text>
</a>
</g>
</g>
<!-- Node1&#45;&gt;Node17 -->
<g id="edge36_Node000001_Node000017" class="edge">
<title>Node1&#45;&gt;Node17</title>
<g id="a_edge36_Node000001_Node000017"><a xlink:title=" ">
<path fill="none" stroke="#63b8ff" d="M100.01,-168.96C124.07,-162.67 155.8,-154.37 181.64,-147.62"/>
<polygon fill="#63b8ff" stroke="#63b8ff" points="182.8,-150.93 191.59,-145.02 181.03,-144.16 182.8,-150.93"/>
</a>
</g>
</g>
<!-- Node3 -->
<g id="Node000003" class="node">
<title>Node3</title>
<g id="a_Node000003"><a xlink:href="math_8c.html#a7ef9263b0a3a10c2cd00bb4dc0059d70" target="_top" xlink:title=" ">
<polygon fill="white" stroke="#666666" points="708,-358 658,-358 658,-339 708,-339 708,-358"/>
<text text-anchor="middle" x="683" y="-346" font-family="Helvetica,sans-Serif" font-size="10.00">AMULT</text>
</a>
</g>
</g>
<!-- Node2&#45;&gt;Node3 -->
<g id="edge2_Node000002_Node000003" class="edge">
<title>Node2&#45;&gt;Node3</title>
<g id="a_edge2_Node000002_Node000003"><a xlink:title=" ">
<path fill="none" stroke="#63b8ff" d="M590.68,-321.03C608.25,-326.32 630.11,-332.89 648.04,-338.28"/>
<polygon fill="#63b8ff" stroke="#63b8ff" points="647.23,-341.69 657.81,-341.22 649.24,-334.99 647.23,-341.69"/>
</a>
</g>
</g>
<!-- Node4 -->
<g id="Node000004" class="node">
<title>Node4</title>
<g id="a_Node000004"><a xlink:href="math_8c.html#a9d60990d26296194c921d537ea26f3c7" target="_top" xlink:title=" ">
<polygon fill="white" stroke="#666666" points="708,-206 658,-206 658,-187 708,-187 708,-206"/>
<text text-anchor="middle" x="683" y="-194" font-family="Helvetica,sans-Serif" font-size="10.00">CROSS</text>
</a>
</g>
</g>
<!-- Node2&#45;&gt;Node4 -->
<g id="edge3_Node000002_Node000004" class="edge">
<title>Node2&#45;&gt;Node4</title>
<g id="a_edge3_Node000002_Node000004"><a xlink:title=" ">
<path fill="none" stroke="#63b8ff" d="M568.26,-301.91C585.43,-284.25 623.62,-245.65 658,-215.5 658.99,-214.63 660.01,-213.76 661.05,-212.88"/>
<polygon fill="#63b8ff" stroke="#63b8ff" points="663.56,-215.35 669.1,-206.32 659.14,-209.92 663.56,-215.35"/>
</a>
</g>
</g>
<!-- Node5 -->
<g id="Node000005" class="node">
<title>Node5</title>
<g id="a_Node000005"><a xlink:href="math_8c.html#a870a70f4845a041458d9bdb0dd7aabd3" target="_top" xlink:title=" ">
<polygon fill="white" stroke="#666666" points="702,-95 664,-95 664,-76 702,-76 702,-95"/>
<text text-anchor="middle" x="683" y="-83" font-family="Helvetica,sans-Serif" font-size="10.00">DOT</text>
</a>
</g>
</g>
<!-- Node2&#45;&gt;Node5 -->
<g id="edge4_Node000002_Node000005" class="edge">
<title>Node2&#45;&gt;Node5</title>
<g id="a_edge4_Node000002_Node000005"><a xlink:title=" ">
<path fill="none" stroke="#63b8ff" d="M563.6,-301.8C582.98,-260.91 657.12,-104.58 658,-103.5 658.39,-103.02 658.8,-102.55 659.22,-102.08"/>
<polygon fill="#63b8ff" stroke="#63b8ff" points="661.79,-104.47 666.81,-95.14 657.07,-99.31 661.79,-104.47"/>
</a>
</g>
</g>
<!-- Node6 -->
<g id="Node000006" class="node">
<title>Node6</title>
<g id="a_Node000006"><a xlink:href="math_8c.html#ae18926821a703a2c5b281bd890b7e6a0" target="_top" xlink:title=" ">
<polygon fill="white" stroke="#666666" points="703.5,-321 662.5,-321 662.5,-302 703.5,-302 703.5,-321"/>
<text text-anchor="middle" x="683" y="-309" font-family="Helvetica,sans-Serif" font-size="10.00">PLUS</text>
</a>
</g>
</g>
<!-- Node2&#45;&gt;Node6 -->
<g id="edge5_Node000002_Node000006" class="edge">
<title>Node2&#45;&gt;Node6</title>
<g id="a_edge5_Node000002_Node000006"><a xlink:title=" ">
<path fill="none" stroke="#63b8ff" d="M607.26,-311.5C622.45,-311.5 638.77,-311.5 652.27,-311.5"/>
<polygon fill="#63b8ff" stroke="#63b8ff" points="652.42,-315 662.42,-311.5 652.42,-308 652.42,-315"/>
</a>
</g>
</g>
<!-- Node7 -->
<g id="Node000007" class="node">
<title>Node7</title>
<g id="a_Node000007"><a xlink:href="math_8c.html#aa52f6593cf3e5453c8c6c94343d3fb37" target="_top" xlink:title=" ">
<polygon fill="white" stroke="#666666" points="702,-282 664,-282 664,-263 702,-263 702,-282"/>
<text text-anchor="middle" x="683" y="-270" font-family="Helvetica,sans-Serif" font-size="10.00">SIZE</text>
</a>
</g>
</g>
<!-- Node2&#45;&gt;Node7 -->
<g id="edge6_Node000002_Node000007" class="edge">
<title>Node2&#45;&gt;Node7</title>
<g id="a_edge6_Node000002_Node000007"><a xlink:title=" ">
<path fill="none" stroke="#63b8ff" d="M589.09,-301.96C608.86,-295.69 634.56,-287.54 653.91,-281.41"/>
<polygon fill="#63b8ff" stroke="#63b8ff" points="655.19,-284.67 663.66,-278.31 653.07,-278 655.19,-284.67"/>
</a>
</g>
</g>
<!-- Node8 -->
<g id="Node000008" class="node">
<title>Node8</title>
<g id="a_Node000008"><a xlink:href="math_8c.html#ac616709995f2ae60c4308ffa328337d7" target="_top" xlink:title=" ">
<polygon fill="white" stroke="#666666" points="703.5,-243 662.5,-243 662.5,-224 703.5,-224 703.5,-243"/>
<text text-anchor="middle" x="683" y="-231" font-family="Helvetica,sans-Serif" font-size="10.00">UNIT</text>
</a>
</g>
</g>
<!-- Node2&#45;&gt;Node8 -->
<g id="edge7_Node000002_Node000008" class="edge">
<title>Node2&#45;&gt;Node8</title>
<g id="a_edge7_Node000002_Node000008"><a xlink:title=" ">
<path fill="none" stroke="#63b8ff" d="M574.08,-301.94C595.11,-288.6 633.44,-264.3 658.3,-248.53"/>
<polygon fill="#63b8ff" stroke="#63b8ff" points="660.22,-251.45 666.79,-243.14 656.47,-245.54 660.22,-251.45"/>
</a>
</g>
</g>
<!-- Node10 -->
<g id="Node000010" class="node">
<title>Node10</title>
<g id="a_Node000010"><a xlink:href="muscle__activation_8c.html#a19d89612f2544ef7f352badd7cf1f337" target="_top" xlink:title=" ">
<polygon fill="white" stroke="#666666" points="458,-193.5 333,-193.5 333,-163.5 458,-163.5 458,-193.5"/>
<text text-anchor="start" x="341" y="-181.5" font-family="Helvetica,sans-Serif" font-size="10.00">compute_mid_surface</text>
<text text-anchor="middle" x="395.5" y="-170.5" font-family="Helvetica,sans-Serif" font-size="10.00">_el_stress_after_act</text>
</a>
</g>
</g>
<!-- Node9&#45;&gt;Node10 -->
<g id="edge9_Node000009_Node000010" class="edge">
<title>Node9&#45;&gt;Node10</title>
<g id="a_edge9_Node000009_Node000010"><a xlink:title=" ">
<path fill="none" stroke="#63b8ff" d="M297.38,-178.5C305.71,-178.5 314.25,-178.5 322.64,-178.5"/>
<polygon fill="#63b8ff" stroke="#63b8ff" points="322.77,-182 332.77,-178.5 322.77,-175 322.77,-182"/>
</a>
</g>
</g>
<!-- Node10&#45;&gt;Node3 -->
<g id="edge10_Node000010_Node000003" class="edge">
<title>Node10&#45;&gt;Node3</title>
<g id="a_edge10_Node000010_Node000003"><a xlink:title=" ">
<path fill="none" stroke="#63b8ff" d="M401.25,-193.87C411.96,-225.66 441.28,-298.33 494,-330.5 541.27,-359.35 608.01,-357.97 647.94,-353.69"/>
<polygon fill="#63b8ff" stroke="#63b8ff" points="648.46,-357.15 657.97,-352.49 647.63,-350.2 648.46,-357.15"/>
</a>
</g>
</g>
<!-- Node10&#45;&gt;Node4 -->
<g id="edge19_Node000010_Node000004" class="edge">
<title>Node10&#45;&gt;Node4</title>
<g id="a_edge19_Node000010_Node000004"><a xlink:title=" ">
<path fill="none" stroke="#63b8ff" d="M458.1,-182.38C516.04,-186.04 600.69,-191.37 647.56,-194.33"/>
<polygon fill="#63b8ff" stroke="#63b8ff" points="647.59,-197.84 657.79,-194.97 648.03,-190.85 647.59,-197.84"/>
</a>
</g>
</g>
<!-- Node10&#45;&gt;Node5 -->
<g id="edge20_Node000010_Node000005" class="edge">
<title>Node10&#45;&gt;Node5</title>
<g id="a_edge20_Node000010_Node000005"><a xlink:title=" ">
<path fill="none" stroke="#63b8ff" d="M407.19,-163.36C427.44,-135.23 471.36,-76.81 494,-66.5 546.9,-42.42 616.62,-60.77 654.55,-74.35"/>
<polygon fill="#63b8ff" stroke="#63b8ff" points="653.32,-77.63 663.92,-77.85 655.77,-71.07 653.32,-77.63"/>
</a>
</g>
</g>
<!-- Node10&#45;&gt;Node7 -->
<g id="edge28_Node000010_Node000007" class="edge">
<title>Node10&#45;&gt;Node7</title>
<g id="a_edge28_Node000010_Node000007"><a xlink:title=" ">
<path fill="none" stroke="#63b8ff" d="M423.12,-193.58C442.34,-203.97 469.18,-217.47 494,-226.5 549.18,-246.56 616.63,-260.67 653.88,-267.6"/>
<polygon fill="#63b8ff" stroke="#63b8ff" points="653.53,-271.1 663.99,-269.45 654.78,-264.21 653.53,-271.1"/>
</a>
</g>
</g>
<!-- Node10&#45;&gt;Node8 -->
<g id="edge35_Node000010_Node000008" class="edge">
<title>Node10&#45;&gt;Node8</title>
<g id="a_edge35_Node000010_Node000008"><a xlink:title=" ">
<path fill="none" stroke="#63b8ff" d="M454.33,-193.52C467.34,-196.68 481.11,-199.85 494,-202.5 549.59,-213.91 615.11,-223.95 652.28,-229.33"/>
<polygon fill="#63b8ff" stroke="#63b8ff" points="652.03,-232.83 662.42,-230.79 653.02,-225.9 652.03,-232.83"/>
</a>
</g>
</g>
<!-- Node11 -->
<g id="Node000011" class="node">
<title>Node11</title>
<g id="a_Node000011"><a xlink:href="material_8c.html#af81ecf5fbfd52082e0abd3184f12c14f" target="_top" xlink:title=" ">
<polygon fill="white" stroke="#666666" points="611,-169 505,-169 505,-150 611,-150 611,-169"/>
<text text-anchor="middle" x="558" y="-157" font-family="Helvetica,sans-Serif" font-size="10.00">BendingNonLinear</text>
</a>
</g>
</g>
<!-- Node10&#45;&gt;Node11 -->
<g id="edge11_Node000010_Node000011" class="edge">
<title>Node10&#45;&gt;Node11</title>
<g id="a_edge11_Node000010_Node000011"><a xlink:title=" ">
<path fill="none" stroke="#63b8ff" d="M458.09,-171.21C470.18,-169.78 482.86,-168.28 494.97,-166.84"/>
<polygon fill="#63b8ff" stroke="#63b8ff" points="495.45,-170.31 504.97,-165.66 494.62,-163.36 495.45,-170.31"/>
</a>
</g>
</g>
<!-- Node15 -->
<g id="Node000015" class="node">
<title>Node15</title>
<g id="a_Node000015"><a xlink:href="material_8c.html#aa93862cca1fe83c736219df7d4a91374" target="_top" xlink:title=" ">
<polygon fill="white" stroke="#666666" points="617.5,-132 498.5,-132 498.5,-113 617.5,-113 617.5,-132"/>
<text text-anchor="middle" x="558" y="-120" font-family="Helvetica,sans-Serif" font-size="10.00">MembraneNonLinear</text>
</a>
</g>
</g>
<!-- Node10&#45;&gt;Node15 -->
<g id="edge21_Node000010_Node000015" class="edge">
<title>Node10&#45;&gt;Node15</title>
<g id="a_edge21_Node000010_Node000015"><a xlink:title=" ">
<path fill="none" stroke="#63b8ff" d="M434.25,-163.47C452.23,-156.49 474.12,-148.26 494,-141.5 500.47,-139.3 507.35,-137.09 514.1,-135"/>
<polygon fill="#63b8ff" stroke="#63b8ff" points="515.29,-138.29 523.84,-132.03 513.25,-131.6 515.29,-138.29"/>
</a>
</g>
</g>
<!-- Node16 -->
<g id="Node000016" class="node">
<title>Node16</title>
<g id="a_Node000016"><a xlink:href="material_8c.html#a431e1e9b5ceabfa4edc2920b70296b35" target="_top" xlink:title=" ">
<polygon fill="white" stroke="#666666" points="596.5,-95 519.5,-95 519.5,-76 596.5,-76 596.5,-95"/>
<text text-anchor="middle" x="558" y="-83" font-family="Helvetica,sans-Serif" font-size="10.00">StressLinear</text>
</a>
</g>
</g>
<!-- Node10&#45;&gt;Node16 -->
<g id="edge29_Node000010_Node000016" class="edge">
<title>Node10&#45;&gt;Node16</title>
<g id="a_edge29_Node000010_Node000016"><a xlink:title=" ">
<path fill="none" stroke="#63b8ff" d="M412.11,-163.43C430.37,-146.58 462.15,-119.56 494,-103.5 498.95,-101 504.3,-98.8 509.72,-96.88"/>
<polygon fill="#63b8ff" stroke="#63b8ff" points="511.04,-100.13 519.47,-93.71 508.88,-93.47 511.04,-100.13"/>
</a>
</g>
</g>
<!-- Node11&#45;&gt;Node4 -->
<g id="edge12_Node000011_Node000004" class="edge">
<title>Node11&#45;&gt;Node4</title>
<g id="a_edge12_Node000011_Node000004"><a xlink:title=" ">
<path fill="none" stroke="#63b8ff" d="M590.68,-169.03C608.25,-174.32 630.11,-180.89 648.04,-186.28"/>
<polygon fill="#63b8ff" stroke="#63b8ff" points="647.23,-189.69 657.81,-189.22 649.24,-182.99 647.23,-189.69"/>
</a>
</g>
</g>
<!-- Node11&#45;&gt;Node5 -->
<g id="edge13_Node000011_Node000005" class="edge">
<title>Node11&#45;&gt;Node5</title>
<g id="a_edge13_Node000011_Node000005"><a xlink:title=" ">
<path fill="none" stroke="#63b8ff" d="M603.64,-149.99C610.04,-147.72 616.36,-144.92 622,-141.5 641.89,-129.43 640.63,-118.98 658,-103.5 658.82,-102.77 659.66,-102.04 660.52,-101.32"/>
<polygon fill="#63b8ff" stroke="#63b8ff" points="662.81,-103.97 668.48,-95.02 658.47,-98.48 662.81,-103.97"/>
</a>
</g>
</g>
<!-- Node11&#45;&gt;Node7 -->
<g id="edge17_Node000011_Node000007" class="edge">
<title>Node11&#45;&gt;Node7</title>
<g id="a_edge17_Node000011_Node000007"><a xlink:title=" ">
<path fill="none" stroke="#63b8ff" d="M568.94,-169.21C586.57,-186.35 624.62,-222.96 658,-252.5 659.34,-253.69 660.73,-254.9 662.14,-256.11"/>
<polygon fill="#63b8ff" stroke="#63b8ff" points="660.26,-259.1 670.16,-262.87 664.77,-253.75 660.26,-259.1"/>
</a>
</g>
</g>
<!-- Node11&#45;&gt;Node8 -->
<g id="edge18_Node000011_Node000008" class="edge">
<title>Node11&#45;&gt;Node8</title>
<g id="a_edge18_Node000011_Node000008"><a xlink:title=" ">
<path fill="none" stroke="#63b8ff" d="M574.83,-169.02C595.66,-181.55 632.49,-203.71 657.08,-218.51"/>
<polygon fill="#63b8ff" stroke="#63b8ff" points="655.47,-221.62 665.84,-223.78 659.08,-215.62 655.47,-221.62"/>
</a>
</g>
</g>
<!-- Node12 -->
<g id="Node000012" class="node">
<title>Node12</title>
<g id="a_Node000012"><a xlink:href="math_8c.html#a3f73e4cd9eab76eeee084eabf2b98ec9" target="_top" xlink:title=" ">
<polygon fill="white" stroke="#666666" points="700,-58 666,-58 666,-39 700,-39 700,-58"/>
<text text-anchor="middle" x="683" y="-46" font-family="Helvetica,sans-Serif" font-size="10.00">INV</text>
</a>
</g>
</g>
<!-- Node11&#45;&gt;Node12 -->
<g id="edge14_Node000011_Node000012" class="edge">
<title>Node11&#45;&gt;Node12</title>
<g id="a_edge14_Node000011_Node000012"><a xlink:title=" ">
<path fill="none" stroke="#63b8ff" d="M608.24,-149.99C613.2,-147.74 617.91,-144.95 622,-141.5 650.26,-117.66 634.54,-95.08 658,-66.5 658.39,-66.02 658.8,-65.55 659.22,-65.08"/>
<polygon fill="#63b8ff" stroke="#63b8ff" points="661.79,-67.47 666.82,-58.15 657.07,-62.31 661.79,-67.47"/>
</a>
</g>
</g>
<!-- Node13 -->
<g id="Node000013" class="node">
<title>Node13</title>
<g id="a_Node000013"><a xlink:href="math_8c.html#a9d08a9d2fd8e8932e92b8ab054b19269" target="_top" xlink:title=" ">
<polygon fill="white" stroke="#666666" points="708,-132 658,-132 658,-113 708,-113 708,-132"/>
<text text-anchor="middle" x="683" y="-120" font-family="Helvetica,sans-Serif" font-size="10.00">MINUS</text>
</a>
</g>
</g>
<!-- Node11&#45;&gt;Node13 -->
<g id="edge15_Node000011_Node000013" class="edge">
<title>Node11&#45;&gt;Node13</title>
<g id="a_edge15_Node000011_Node000013"><a xlink:title=" ">
<path fill="none" stroke="#63b8ff" d="M593.06,-149.96C602.45,-147.28 612.63,-144.32 622,-141.5 630.5,-138.94 639.64,-136.09 648.17,-133.4"/>
<polygon fill="#63b8ff" stroke="#63b8ff" points="649.35,-136.7 657.82,-130.33 647.23,-130.02 649.35,-136.7"/>
</a>
</g>
</g>
<!-- Node14 -->
<g id="Node000014" class="node">
<title>Node14</title>
<g id="a_Node000014"><a xlink:href="math_8c.html#ae6a53927765c25c58815e47fea096a67" target="_top" xlink:title=" ">
<polygon fill="white" stroke="#666666" points="703.5,-169 662.5,-169 662.5,-150 703.5,-150 703.5,-169"/>
<text text-anchor="middle" x="683" y="-157" font-family="Helvetica,sans-Serif" font-size="10.00">SIGN</text>
</a>
</g>
</g>
<!-- Node11&#45;&gt;Node14 -->
<g id="edge16_Node000011_Node000014" class="edge">
<title>Node11&#45;&gt;Node14</title>
<g id="a_edge16_Node000011_Node000014"><a xlink:title=" ">
<path fill="none" stroke="#63b8ff" d="M611.16,-159.5C625.14,-159.5 639.78,-159.5 652.09,-159.5"/>
<polygon fill="#63b8ff" stroke="#63b8ff" points="652.24,-163 662.24,-159.5 652.24,-156 652.24,-163"/>
</a>
</g>
</g>
<!-- Node15&#45;&gt;Node4 -->
<g id="edge22_Node000015_Node000004" class="edge">
<title>Node15&#45;&gt;Node4</title>
<g id="a_edge22_Node000015_Node000004"><a xlink:title=" ">
<path fill="none" stroke="#63b8ff" d="M601.28,-132.01C608.47,-134.52 615.65,-137.64 622,-141.5 641.61,-153.41 640.77,-163.35 658,-178.5 658.82,-179.22 659.67,-179.95 660.53,-180.67"/>
<polygon fill="#63b8ff" stroke="#63b8ff" points="658.49,-183.51 668.51,-186.95 662.82,-178.01 658.49,-183.51"/>
</a>
</g>
</g>
<!-- Node15&#45;&gt;Node5 -->
<g id="edge23_Node000015_Node000005" class="edge">
<title>Node15&#45;&gt;Node5</title>
<g id="a_edge23_Node000015_Node000005"><a xlink:title=" ">
<path fill="none" stroke="#63b8ff" d="M590.68,-112.97C610.25,-107.08 635.15,-99.59 654.01,-93.92"/>
<polygon fill="#63b8ff" stroke="#63b8ff" points="655.22,-97.21 663.79,-90.98 653.2,-90.51 655.22,-97.21"/>
</a>
</g>
</g>
<!-- Node15&#45;&gt;Node7 -->
<g id="edge26_Node000015_Node000007" class="edge">
<title>Node15&#45;&gt;Node7</title>
<g id="a_edge26_Node000015_Node000007"><a xlink:title=" ">
<path fill="none" stroke="#63b8ff" d="M608.43,-132.15C613.42,-134.6 618.08,-137.66 622,-141.5 659.05,-177.79 628.94,-209.55 658,-252.5 658.74,-253.59 659.55,-254.65 660.41,-255.67"/>
<polygon fill="#63b8ff" stroke="#63b8ff" points="658.17,-258.38 667.76,-262.87 663.06,-253.37 658.17,-258.38"/>
</a>
</g>
</g>
<!-- Node15&#45;&gt;Node8 -->
<g id="edge27_Node000015_Node000008" class="edge">
<title>Node15&#45;&gt;Node8</title>
<g id="a_edge27_Node000015_Node000008"><a xlink:title=" ">
<path fill="none" stroke="#63b8ff" d="M606.64,-132.13C612.19,-134.58 617.48,-137.65 622,-141.5 649.84,-165.21 634.72,-187.29 658,-215.5 658.39,-215.98 658.8,-216.45 659.22,-216.91"/>
<polygon fill="#63b8ff" stroke="#63b8ff" points="657.08,-219.69 666.83,-223.85 661.8,-214.52 657.08,-219.69"/>
</a>
</g>
</g>
<!-- Node15&#45;&gt;Node12 -->
<g id="edge24_Node000015_Node000012" class="edge">
<title>Node15&#45;&gt;Node12</title>
<g id="a_edge24_Node000015_Node000012"><a xlink:title=" ">
<path fill="none" stroke="#63b8ff" d="M601.28,-112.99C608.47,-110.48 615.65,-107.36 622,-103.5 641.61,-91.59 640.77,-81.65 658,-66.5 658.82,-65.78 659.67,-65.05 660.53,-64.33"/>
<polygon fill="#63b8ff" stroke="#63b8ff" points="662.82,-66.99 668.51,-58.05 658.49,-61.49 662.82,-66.99"/>
</a>
</g>
</g>
<!-- Node15&#45;&gt;Node13 -->
<g id="edge25_Node000015_Node000013" class="edge">
<title>Node15&#45;&gt;Node13</title>
<g id="a_edge25_Node000015_Node000013"><a xlink:title=" ">
<path fill="none" stroke="#63b8ff" d="M617.62,-122.5C627.96,-122.5 638.41,-122.5 647.79,-122.5"/>
<polygon fill="#63b8ff" stroke="#63b8ff" points="647.87,-126 657.87,-122.5 647.87,-119 647.87,-126"/>
</a>
</g>
</g>
<!-- Node16&#45;&gt;Node4 -->
<g id="edge30_Node000016_Node000004" class="edge">
<title>Node16&#45;&gt;Node4</title>
<g id="a_edge30_Node000016_Node000004"><a xlink:title=" ">
<path fill="none" stroke="#63b8ff" d="M596.54,-90.71C605.62,-93.38 614.78,-97.41 622,-103.5 650.26,-127.34 634.54,-149.92 658,-178.5 658.39,-178.98 658.8,-179.45 659.22,-179.92"/>
<polygon fill="#63b8ff" stroke="#63b8ff" points="657.07,-182.69 666.82,-186.85 661.79,-177.53 657.07,-182.69"/>
</a>
</g>
</g>
<!-- Node16&#45;&gt;Node5 -->
<g id="edge31_Node000016_Node000005" class="edge">
<title>Node16&#45;&gt;Node5</title>
<g id="a_edge31_Node000016_Node000005"><a xlink:title=" ">
<path fill="none" stroke="#63b8ff" d="M596.57,-85.5C614.89,-85.5 636.55,-85.5 653.48,-85.5"/>
<polygon fill="#63b8ff" stroke="#63b8ff" points="653.84,-89 663.84,-85.5 653.84,-82 653.84,-89"/>
</a>
</g>
</g>
<!-- Node16&#45;&gt;Node8 -->
<g id="edge34_Node000016_Node000008" class="edge">
<title>Node16&#45;&gt;Node8</title>
<g id="a_edge34_Node000016_Node000008"><a xlink:title=" ">
<path fill="none" stroke="#63b8ff" d="M596.8,-89.96C605.99,-92.63 615.13,-96.85 622,-103.5 659.57,-139.86 627.66,-172.92 658,-215.5 658.27,-215.88 658.55,-216.26 658.85,-216.63"/>
<polygon fill="#63b8ff" stroke="#63b8ff" points="656.43,-219.16 666,-223.7 661.35,-214.18 656.43,-219.16"/>
</a>
</g>
</g>
<!-- Node16&#45;&gt;Node12 -->
<g id="edge32_Node000016_Node000012" class="edge">
<title>Node16&#45;&gt;Node12</title>
<g id="a_edge32_Node000016_Node000012"><a xlink:title=" ">
<path fill="none" stroke="#63b8ff" d="M590.68,-75.97C610.98,-69.87 636.99,-62.04 656.06,-56.3"/>
<polygon fill="#63b8ff" stroke="#63b8ff" points="657.29,-59.59 665.86,-53.35 655.28,-52.88 657.29,-59.59"/>
</a>
</g>
</g>
<!-- Node16&#45;&gt;Node13 -->
<g id="edge33_Node000016_Node000013" class="edge">
<title>Node16&#45;&gt;Node13</title>
<g id="a_edge33_Node000016_Node000013"><a xlink:title=" ">
<path fill="none" stroke="#63b8ff" d="M593.06,-95.04C602.45,-97.72 612.63,-100.68 622,-103.5 630.5,-106.06 639.64,-108.91 648.17,-111.6"/>
<polygon fill="#63b8ff" stroke="#63b8ff" points="647.23,-114.98 657.82,-114.67 649.35,-108.3 647.23,-114.98"/>
</a>
</g>
</g>
<!-- Node18 -->
<g id="Node000018" class="node">
<title>Node18</title>
<g id="a_Node000018"><a xlink:href="muscle__activation_8c.html#a13c6cf542d26fb36178553818485eda9" target="_top" xlink:title=" ">
<polygon fill="white" stroke="#666666" points="622,-19 494,-19 494,0 622,0 622,-19"/>
<text text-anchor="middle" x="558" y="-7" font-family="Helvetica,sans-Serif" font-size="10.00">cal_total_stress_act_el</text>
</a>
</g>
</g>
<!-- Node17&#45;&gt;Node18 -->
<g id="edge37_Node000017_Node000018" class="edge">
<title>Node17&#45;&gt;Node18</title>
<g id="a_edge37_Node000017_Node000018"><a xlink:title=" ">
<path fill="none" stroke="#63b8ff" d="M254.85,-125.93C312.69,-103.64 456.44,-48.25 522.63,-22.74"/>
<polygon fill="#63b8ff" stroke="#63b8ff" points="524.12,-25.92 532.19,-19.06 521.6,-19.39 524.12,-25.92"/>
</a>
</g>
</g>
<!-- Node18&#45;&gt;Node5 -->
<g id="edge38_Node000018_Node000005" class="edge">
<title>Node18&#45;&gt;Node5</title>
<g id="a_edge38_Node000018_Node000005"><a xlink:title=" ">
<path fill="none" stroke="#63b8ff" d="M591.18,-19.11C601.42,-22.85 612.54,-27.66 622,-33.5 640.47,-44.9 641.48,-52.42 658,-66.5 659,-67.35 660.03,-68.22 661.08,-69.09"/>
<polygon fill="#63b8ff" stroke="#63b8ff" points="659.18,-72.05 669.16,-75.61 663.58,-66.6 659.18,-72.05"/>
</a>
</g>
</g>
<!-- Node18&#45;&gt;Node12 -->
<g id="edge39_Node000018_Node000012" class="edge">
<title>Node18&#45;&gt;Node12</title>
<g id="a_edge39_Node000018_Node000012"><a xlink:title=" ">
<path fill="none" stroke="#63b8ff" d="M589.09,-19.04C609.59,-25.54 636.45,-34.06 656.01,-40.26"/>
<polygon fill="#63b8ff" stroke="#63b8ff" points="655.19,-43.67 665.78,-43.36 657.3,-37 655.19,-43.67"/>
</a>
</g>
</g>
</g>
</svg>
