<?xml version="1.0" encoding="UTF-8" standalone="no"?>
<!DOCTYPE svg PUBLIC "-//W3C//DTD SVG 1.1//EN"
 "http://www.w3.org/Graphics/SVG/1.1/DTD/svg11.dtd">
<!-- Generated by graphviz version 2.43.0 (0)
 -->
<!-- Title: InitMuscleActProblem Pages: 1 -->
<!--zoomable 428 -->

<svg id="main" version="1.1" xmlns="http://www.w3.org/2000/svg" xmlns:xlink="http://www.w3.org/1999/xlink" xml:space="preserve" onload="init(evt)">
<style type="text/css"><![CDATA[
.node, .edge {opacity: 0.7;}
.node.selected, .edge.selected {opacity: 1;}
.edge:hover path { stroke: red; }
.edge:hover polygon { stroke: red; fill: red; }
]]></style>

<defs>
  <circle id="rim" cx="0" cy="0" r="7"/>
  <circle id="rim2" cx="0" cy="0" r="3.5"/>
  <g id="zoomPlus">
    <use xlink:href="#rim" fill="#404040"><set attributeName="fill" to="#808080" begin="zoomplus.mouseover" end="zoomplus.mouseout"/></use>
    <path d="M-4,0h8M0,-4v8" fill="none" stroke="white" stroke-width="1.5" pointer-events="none"/>
  </g>
  <g id="zoomMin">
    <use xlink:href="#rim" fill="#404040"><set attributeName="fill" to="#808080" begin="zoomminus.mouseover" end="zoomminus.mouseout"/></use>
    <path d="M-4,0h8" fill="none" stroke="white" stroke-width="1.5" pointer-events="none"/>
  </g>
  <g id="arrowUp" transform="translate(30 24)">
    <use xlink:href="#rim"/>
    <path pointer-events="none" fill="none" stroke="white" stroke-width="1.5" d="M0,-3.0v7 M-2.5,-0.5L0,-3.0L2.5,-0.5"/>
  </g>
  <g id="arrowRight" transform="rotate(90) translate(36 -43)">
    <use xlink:href="#rim"/>
    <path pointer-events="none" fill="none" stroke="white" stroke-width="1.5" d="M0,-3.0v7 M-2.5,-0.5L0,-3.0L2.5,-0.5"/>
  </g>
  <g id="arrowDown" transform="rotate(180) translate(-30 -48)">
    <use xlink:href="#rim"/>
    <path pointer-events="none" fill="none" stroke="white" stroke-width="1.5" d="M0,-3.0v7 M-2.5,-0.5L0,-3.0L2.5,-0.5"/>
  </g>
  <g id="arrowLeft" transform="rotate(270) translate(-36 17)">
    <use xlink:href="#rim"/>
    <path pointer-events="none" fill="none" stroke="white" stroke-width="1.5" d="M0,-3.0v7 M-2.5,-0.5L0,-3.0L2.5,-0.5"/>
  </g>
  <g id="resetDef">
    <use xlink:href="#rim2" fill="#404040"><set attributeName="fill" to="#808080" begin="reset.mouseover" end="reset.mouseout"/></use>
  </g>
</defs>
<script type="application/ecmascript">
var viewWidth = 773;
var viewHeight = 428;
var sectionId = 'dynsection-37';
</script>
<script type="application/ecmascript" xlink:href="svg.min.js"/>
<svg id="graph" class="graph">
<g id="viewport">
<title>InitMuscleActProblem</title>
<!-- Node1 -->
<g id="Node000001" class="node">
<title>Node1</title>
<g id="a_Node000001"><a xlink:title=" ">
<polygon fill="#999999" stroke="#666666" points="123,-168 0,-168 0,-149 123,-149 123,-168"/>
<text text-anchor="middle" x="61.5" y="-156" font-family="Helvetica,sans-Serif" font-size="10.00">InitMuscleActProblem</text>
</a>
</g>
</g>
<!-- Node2 -->
<g id="Node000002" class="node">
<title>Node2</title>
<g id="a_Node000002"><a xlink:href="muscle__activation_8c.html#a93dfc79086ad3d8e7eb4a92d7c64565d" target="_top" xlink:title=" ">
<polygon fill="white" stroke="#666666" points="672.5,-402 544.5,-402 544.5,-383 672.5,-383 672.5,-402"/>
<text text-anchor="middle" x="608.5" y="-390" font-family="Helvetica,sans-Serif" font-size="10.00">CompInitCovBasisVecs</text>
</a>
</g>
</g>
<!-- Node1&#45;&gt;Node2 -->
<g id="edge1_Node000001_Node000002" class="edge">
<title>Node1&#45;&gt;Node2</title>
<g id="a_edge1_Node000001_Node000002"><a xlink:title=" ">
<path fill="none" stroke="#63b8ff" d="M65.36,-168.31C74.13,-196.62 103.54,-278.94 159,-318.5 271.05,-398.42 438.57,-403.79 533.99,-399.1"/>
<polygon fill="#63b8ff" stroke="#63b8ff" points="534.33,-402.59 544.13,-398.55 533.95,-395.6 534.33,-402.59"/>
</a>
</g>
</g>
<!-- Node7 -->
<g id="Node000007" class="node">
<title>Node7</title>
<g id="a_Node000007"><a xlink:href="muscle__activation_8c.html#a98fd1f2632f8a9dafbcd477adbf354a0" target="_top" xlink:title=" ">
<polygon fill="white" stroke="#666666" points="285,-309 179,-309 179,-290 285,-290 285,-309"/>
<text text-anchor="middle" x="232" y="-297" font-family="Helvetica,sans-Serif" font-size="10.00">find_intmd_coords</text>
</a>
</g>
</g>
<!-- Node1&#45;&gt;Node7 -->
<g id="edge6_Node000001_Node000007" class="edge">
<title>Node1&#45;&gt;Node7</title>
<g id="a_edge6_Node000001_Node000007"><a xlink:title=" ">
<path fill="none" stroke="#63b8ff" d="M69.53,-168.29C84.26,-188.26 120.24,-234.3 159,-263.5 170.56,-272.21 184.56,-279.77 197.12,-285.68"/>
<polygon fill="#63b8ff" stroke="#63b8ff" points="195.84,-288.94 206.39,-289.87 198.72,-282.56 195.84,-288.94"/>
</a>
</g>
</g>
<!-- Node14 -->
<g id="Node000014" class="node">
<title>Node14</title>
<g id="a_Node000014"><a xlink:href="material_8c.html#af082115528079a9bd1bf12f348ad6e36" target="_top" xlink:title=" ">
<polygon fill="white" stroke="#666666" points="286.5,-130 177.5,-130 177.5,-111 286.5,-111 286.5,-130"/>
<text text-anchor="middle" x="232" y="-118" font-family="Helvetica,sans-Serif" font-size="10.00">initialize_elasticity</text>
</a>
</g>
</g>
<!-- Node1&#45;&gt;Node14 -->
<g id="edge16_Node000001_Node000014" class="edge">
<title>Node1&#45;&gt;Node14</title>
<g id="a_edge16_Node000001_Node000014"><a xlink:title=" ">
<path fill="none" stroke="#63b8ff" d="M105.02,-148.91C127.46,-143.85 155.17,-137.6 178.89,-132.25"/>
<polygon fill="#63b8ff" stroke="#63b8ff" points="179.8,-135.63 188.79,-130.02 178.26,-128.81 179.8,-135.63"/>
</a>
</g>
</g>
<!-- Node15 -->
<g id="Node000015" class="node">
<title>Node15</title>
<g id="a_Node000015"><a xlink:href="muscle__activation_8c.html#ad2627bc8964201d5d67458f310898629" target="_top" xlink:title="Set 1D Gauss&#45;Legendre points and weights for active&#45;strain integration.">
<polygon fill="white" stroke="#666666" points="298,-93 166,-93 166,-74 298,-74 298,-93"/>
<text text-anchor="middle" x="232" y="-81" font-family="Helvetica,sans-Serif" font-size="10.00">SetGaussianQuadrature</text>
</a>
</g>
</g>
<!-- Node1&#45;&gt;Node15 -->
<g id="edge17_Node000001_Node000015" class="edge">
<title>Node1&#45;&gt;Node15</title>
<g id="a_edge17_Node000001_Node000015"><a xlink:title=" ">
<path fill="none" stroke="#63b8ff" d="M75.91,-148.87C93.97,-136.31 127.5,-114.42 159,-101.5 163.99,-99.45 169.28,-97.59 174.63,-95.92"/>
<polygon fill="#63b8ff" stroke="#63b8ff" points="175.66,-99.26 184.27,-93.09 173.69,-92.54 175.66,-99.26"/>
</a>
</g>
</g>
<!-- Node16 -->
<g id="Node000016" class="node">
<title>Node16</title>
<g id="a_Node000016"><a xlink:href="muscle__activation_8c.html#a0dda352c79a3d0150ff314d8c63e0054" target="_top" xlink:title="Updates all active Fa values for each element.">
<polygon fill="white" stroke="#666666" points="464.5,-205 378.5,-205 378.5,-186 464.5,-186 464.5,-205"/>
<text text-anchor="middle" x="421.5" y="-193" font-family="Helvetica,sans-Serif" font-size="10.00">update_act_Fa</text>
</a>
</g>
</g>
<!-- Node1&#45;&gt;Node16 -->
<g id="edge18_Node000001_Node000016" class="edge">
<title>Node1&#45;&gt;Node16</title>
<g id="a_edge18_Node000001_Node000016"><a xlink:title=" ">
<path fill="none" stroke="#63b8ff" d="M123.17,-167.83C135.04,-169.51 147.4,-171.15 159,-172.5 231.36,-180.92 315.31,-187.8 368.16,-191.77"/>
<polygon fill="#63b8ff" stroke="#63b8ff" points="368.07,-195.27 378.3,-192.52 368.59,-188.29 368.07,-195.27"/>
</a>
</g>
</g>
<!-- Node19 -->
<g id="Node000019" class="node">
<title>Node19</title>
<g id="a_Node000019"><a xlink:href="muscle__activation_8c.html#ae2bd9d71724eb75b13615a6961268fba" target="_top" xlink:title=" ">
<polygon fill="white" stroke="#666666" points="305,-56 159,-56 159,-37 305,-37 305,-56"/>
<text text-anchor="middle" x="232" y="-44" font-family="Helvetica,sans-Serif" font-size="10.00">update_intmd_ibm_coords</text>
</a>
</g>
</g>
<!-- Node1&#45;&gt;Node19 -->
<g id="edge24_Node000001_Node000019" class="edge">
<title>Node1&#45;&gt;Node19</title>
<g id="a_edge24_Node000001_Node000019"><a xlink:title=" ">
<path fill="none" stroke="#63b8ff" d="M69.54,-148.82C84.03,-129.62 119.17,-86.71 159,-64.5 162.23,-62.7 165.64,-61.08 169.15,-59.61"/>
<polygon fill="#63b8ff" stroke="#63b8ff" points="170.45,-62.86 178.61,-56.11 168.02,-56.3 170.45,-62.86"/>
</a>
</g>
</g>
<!-- Node20 -->
<g id="Node000020" class="node">
<title>Node20</title>
<g id="a_Node000020"><a xlink:href="muscle__activation_8c.html#a5000e7a797094fd0e94879c0c765d853" target="_top" xlink:title="Update intermediate deformed basis vectors for all elements.">
<polygon fill="white" stroke="#666666" points="289,-254.5 175,-254.5 175,-224.5 289,-224.5 289,-254.5"/>
<text text-anchor="start" x="183" y="-242.5" font-family="Helvetica,sans-Serif" font-size="10.00">update_intmd_state</text>
<text text-anchor="middle" x="232" y="-231.5" font-family="Helvetica,sans-Serif" font-size="10.00">_cov_basis</text>
</a>
</g>
</g>
<!-- Node1&#45;&gt;Node20 -->
<g id="edge25_Node000001_Node000020" class="edge">
<title>Node1&#45;&gt;Node20</title>
<g id="a_edge25_Node000001_Node000020"><a xlink:title=" ">
<path fill="none" stroke="#63b8ff" d="M78.95,-168.09C97.93,-178.99 130.23,-197 159,-210.5 166.37,-213.96 174.28,-217.4 182.05,-220.64"/>
<polygon fill="#63b8ff" stroke="#63b8ff" points="180.84,-223.93 191.42,-224.48 183.5,-217.45 180.84,-223.93"/>
</a>
</g>
</g>
<!-- Node22 -->
<g id="Node000022" class="node">
<title>Node22</title>
<g id="a_Node000022"><a xlink:href="muscle__activation_8c.html#a498ba76f9cfd7d543c79104b83b894ab" target="_top" xlink:title="Update muscle activation parameters from command&#45;line options.">
<polygon fill="white" stroke="#666666" points="301.5,-19 162.5,-19 162.5,0 301.5,0 301.5,-19"/>
<text text-anchor="middle" x="232" y="-7" font-family="Helvetica,sans-Serif" font-size="10.00">update_user_act_params</text>
</a>
</g>
</g>
<!-- Node1&#45;&gt;Node22 -->
<g id="edge30_Node000001_Node000022" class="edge">
<title>Node1&#45;&gt;Node22</title>
<g id="a_edge30_Node000001_Node000022"><a xlink:title=" ">
<path fill="none" stroke="#63b8ff" d="M66.74,-148.81C77.95,-124.35 110.9,-59.74 159,-27.5 161.41,-25.89 163.95,-24.42 166.58,-23.08"/>
<polygon fill="#63b8ff" stroke="#63b8ff" points="168.07,-26.25 175.82,-19.02 165.26,-19.84 168.07,-26.25"/>
</a>
</g>
</g>
<!-- Node23 -->
<g id="Node000023" class="node">
<title>Node23</title>
<g id="a_Node000023"><a xlink:href="muscle__activation_8c.html#ac332e445f79d1bdc2c6cd1e00514021e" target="_top" xlink:title=" ">
<polygon fill="white" stroke="#666666" points="458.5,-168 384.5,-168 384.5,-149 458.5,-149 458.5,-168"/>
<text text-anchor="middle" x="421.5" y="-156" font-family="Helvetica,sans-Serif" font-size="10.00">UpdateFbar</text>
</a>
</g>
</g>
<!-- Node1&#45;&gt;Node23 -->
<g id="edge31_Node000001_Node000023" class="edge">
<title>Node1&#45;&gt;Node23</title>
<g id="a_edge31_Node000001_Node000023"><a xlink:title=" ">
<path fill="none" stroke="#63b8ff" d="M123.23,-158.5C194.09,-158.5 309.72,-158.5 373.89,-158.5"/>
<polygon fill="#63b8ff" stroke="#63b8ff" points="374.11,-162 384.11,-158.5 374.11,-155 374.11,-162"/>
</a>
</g>
</g>
<!-- Node3 -->
<g id="Node000003" class="node">
<title>Node3</title>
<g id="a_Node000003"><a xlink:href="math_8c.html#a9d60990d26296194c921d537ea26f3c7" target="_top" xlink:title=" ">
<polygon fill="white" stroke="#666666" points="765,-305 715,-305 715,-286 765,-286 765,-305"/>
<text text-anchor="middle" x="740" y="-293" font-family="Helvetica,sans-Serif" font-size="10.00">CROSS</text>
</a>
</g>
</g>
<!-- Node2&#45;&gt;Node3 -->
<g id="edge2_Node000002_Node000003" class="edge">
<title>Node2&#45;&gt;Node3</title>
<g id="a_edge2_Node000002_Node000003"><a xlink:title=" ">
<path fill="none" stroke="#63b8ff" d="M663.73,-382.86C669.16,-380.63 674.37,-377.88 679,-374.5 703.2,-356.84 695.79,-340.49 715,-317.5 716.47,-315.74 718.08,-313.98 719.75,-312.27"/>
<polygon fill="#63b8ff" stroke="#63b8ff" points="722.33,-314.65 727.16,-305.22 717.5,-309.58 722.33,-314.65"/>
</a>
</g>
</g>
<!-- Node4 -->
<g id="Node000004" class="node">
<title>Node4</title>
<g id="a_Node000004"><a xlink:href="math_8c.html#ae18926821a703a2c5b281bd890b7e6a0" target="_top" xlink:title=" ">
<polygon fill="white" stroke="#666666" points="760.5,-383 719.5,-383 719.5,-364 760.5,-364 760.5,-383"/>
<text text-anchor="middle" x="740" y="-371" font-family="Helvetica,sans-Serif" font-size="10.00">PLUS</text>
</a>
</g>
</g>
<!-- Node2&#45;&gt;Node4 -->
<g id="edge3_Node000002_Node000004" class="edge">
<title>Node2&#45;&gt;Node4</title>
<g id="a_edge3_Node000002_Node000004"><a xlink:title=" ">
<path fill="none" stroke="#63b8ff" d="M672.73,-383.22C685.45,-381.36 698.24,-379.48 709.14,-377.88"/>
<polygon fill="#63b8ff" stroke="#63b8ff" points="709.96,-381.3 719.35,-376.38 708.95,-374.37 709.96,-381.3"/>
</a>
</g>
</g>
<!-- Node5 -->
<g id="Node000005" class="node">
<title>Node5</title>
<g id="a_Node000005"><a xlink:href="math_8c.html#aa52f6593cf3e5453c8c6c94343d3fb37" target="_top" xlink:title=" ">
<polygon fill="white" stroke="#666666" points="759,-420 721,-420 721,-401 759,-401 759,-420"/>
<text text-anchor="middle" x="740" y="-408" font-family="Helvetica,sans-Serif" font-size="10.00">SIZE</text>
</a>
</g>
</g>
<!-- Node2&#45;&gt;Node5 -->
<g id="edge4_Node000002_Node000005" class="edge">
<title>Node2&#45;&gt;Node5</title>
<g id="a_edge4_Node000002_Node000005"><a xlink:title=" ">
<path fill="none" stroke="#63b8ff" d="M672.73,-401.29C686.06,-403.14 699.48,-405.01 710.72,-406.57"/>
<polygon fill="#63b8ff" stroke="#63b8ff" points="710.37,-410.05 720.76,-407.96 711.34,-403.12 710.37,-410.05"/>
</a>
</g>
</g>
<!-- Node6 -->
<g id="Node000006" class="node">
<title>Node6</title>
<g id="a_Node000006"><a xlink:href="math_8c.html#ac616709995f2ae60c4308ffa328337d7" target="_top" xlink:title=" ">
<polygon fill="white" stroke="#666666" points="760.5,-345 719.5,-345 719.5,-326 760.5,-326 760.5,-345"/>
<text text-anchor="middle" x="740" y="-333" font-family="Helvetica,sans-Serif" font-size="10.00">UNIT</text>
</a>
</g>
</g>
<!-- Node2&#45;&gt;Node6 -->
<g id="edge5_Node000002_Node000006" class="edge">
<title>Node2&#45;&gt;Node6</title>
<g id="a_edge5_Node000002_Node000006"><a xlink:title=" ">
<path fill="none" stroke="#63b8ff" d="M655.08,-382.95C663.21,-380.62 671.47,-377.82 679,-374.5 693,-368.34 707.4,-359.08 718.59,-351.14"/>
<polygon fill="#63b8ff" stroke="#63b8ff" points="720.8,-353.86 726.81,-345.13 716.67,-348.21 720.8,-353.86"/>
</a>
</g>
</g>
<!-- Node8 -->
<g id="Node000008" class="node">
<title>Node8</title>
<g id="a_Node000008"><a xlink:href="muscle__activation_8c.html#a8de86acbd2114bdd44a3b7125602d0fe" target="_top" xlink:title=" ">
<polygon fill="white" stroke="#666666" points="665.5,-365 551.5,-365 551.5,-346 665.5,-346 665.5,-365"/>
<text text-anchor="middle" x="608.5" y="-353" font-family="Helvetica,sans-Serif" font-size="10.00">calculate_cov_basis</text>
</a>
</g>
</g>
<!-- Node7&#45;&gt;Node8 -->
<g id="edge7_Node000007_Node000008" class="edge">
<title>Node7&#45;&gt;Node8</title>
<g id="a_edge7_Node000007_Node000008"><a xlink:title=" ">
<path fill="none" stroke="#63b8ff" d="M256.14,-309.07C277.71,-317.54 310.97,-329.46 341,-335.5 408.31,-349.03 486.84,-353.6 541.13,-355.05"/>
<polygon fill="#63b8ff" stroke="#63b8ff" points="541.24,-358.55 551.32,-355.29 541.4,-351.55 541.24,-358.55"/>
</a>
</g>
</g>
<!-- Node10 -->
<g id="Node000010" class="node">
<title>Node10</title>
<g id="a_Node000010"><a xlink:href="muscle__activation_8c.html#a6775d705d7242ce0339ce632abbfa4b4" target="_top" xlink:title=" ">
<polygon fill="white" stroke="#666666" points="502,-326 341,-326 341,-307 502,-307 502,-326"/>
<text text-anchor="middle" x="421.5" y="-314" font-family="Helvetica,sans-Serif" font-size="10.00">form_interm_state_func_grad</text>
</a>
</g>
</g>
<!-- Node7&#45;&gt;Node10 -->
<g id="edge11_Node000007_Node000010" class="edge">
<title>Node7&#45;&gt;Node10</title>
<g id="a_edge11_Node000007_Node000010"><a xlink:title=" ">
<path fill="none" stroke="#63b8ff" d="M285.23,-304.24C299.36,-305.52 315.07,-306.94 330.64,-308.35"/>
<polygon fill="#63b8ff" stroke="#63b8ff" points="330.56,-311.86 340.83,-309.28 331.19,-304.89 330.56,-311.86"/>
</a>
</g>
</g>
<!-- Node13 -->
<g id="Node000013" class="node">
<title>Node13</title>
<g id="a_Node000013"><a xlink:href="muscle__activation_8c.html#a3fb102b3c4e265791888d9f87d4201c7" target="_top" xlink:title=" ">
<polygon fill="white" stroke="#666666" points="464.5,-289 378.5,-289 378.5,-270 464.5,-270 464.5,-289"/>
<text text-anchor="middle" x="421.5" y="-277" font-family="Helvetica,sans-Serif" font-size="10.00">MyTaoMonitor</text>
</a>
</g>
</g>
<!-- Node7&#45;&gt;Node13 -->
<g id="edge15_Node000007_Node000013" class="edge">
<title>Node7&#45;&gt;Node13</title>
<g id="a_edge15_Node000007_Node000013"><a xlink:title=" ">
<path fill="none" stroke="#63b8ff" d="M285.23,-293.93C311.15,-291.16 342.39,-287.83 368.3,-285.07"/>
<polygon fill="#63b8ff" stroke="#63b8ff" points="368.75,-288.54 378.32,-284 368.01,-281.58 368.75,-288.54"/>
</a>
</g>
</g>
<!-- Node8&#45;&gt;Node3 -->
<g id="edge8_Node000008_Node000003" class="edge">
<title>Node8&#45;&gt;Node3</title>
<g id="a_edge8_Node000008_Node000003"><a xlink:title=" ">
<path fill="none" stroke="#63b8ff" d="M655.92,-345.95C663.79,-343.64 671.76,-340.84 679,-337.5 693.72,-330.71 708.66,-320.27 719.95,-311.49"/>
<polygon fill="#63b8ff" stroke="#63b8ff" points="722.19,-314.18 727.81,-305.19 717.82,-308.72 722.19,-314.18"/>
</a>
</g>
</g>
<!-- Node8&#45;&gt;Node6 -->
<g id="edge10_Node000008_Node000006" class="edge">
<title>Node8&#45;&gt;Node6</title>
<g id="a_edge10_Node000008_Node000006"><a xlink:title=" ">
<path fill="none" stroke="#63b8ff" d="M665.55,-346.84C680.5,-344.53 696.08,-342.13 709.03,-340.13"/>
<polygon fill="#63b8ff" stroke="#63b8ff" points="709.86,-343.54 719.21,-338.56 708.8,-336.62 709.86,-343.54"/>
</a>
</g>
</g>
<!-- Node9 -->
<g id="Node000009" class="node">
<title>Node9</title>
<g id="a_Node000009"><a xlink:href="math_8c.html#a870a70f4845a041458d9bdb0dd7aabd3" target="_top" xlink:title=" ">
<polygon fill="white" stroke="#666666" points="759,-248 721,-248 721,-229 759,-229 759,-248"/>
<text text-anchor="middle" x="740" y="-236" font-family="Helvetica,sans-Serif" font-size="10.00">DOT</text>
</a>
</g>
</g>
<!-- Node8&#45;&gt;Node9 -->
<g id="edge9_Node000008_Node000009" class="edge">
<title>Node8&#45;&gt;Node9</title>
<g id="a_edge9_Node000008_Node000009"><a xlink:title=" ">
<path fill="none" stroke="#63b8ff" d="M663.83,-346C669.24,-343.74 674.42,-340.95 679,-337.5 704.15,-318.56 698.59,-303.37 715,-276.5 718.99,-269.97 723.45,-262.86 727.42,-256.58"/>
<polygon fill="#63b8ff" stroke="#63b8ff" points="730.38,-258.45 732.8,-248.13 724.48,-254.69 730.38,-258.45"/>
</a>
</g>
</g>
<!-- Node10&#45;&gt;Node8 -->
<g id="edge13_Node000010_Node000008" class="edge">
<title>Node10&#45;&gt;Node8</title>
<g id="a_edge13_Node000010_Node000008"><a xlink:title=" ">
<path fill="none" stroke="#63b8ff" d="M467.76,-326.04C493.27,-331.42 525.34,-338.18 552.32,-343.87"/>
<polygon fill="#63b8ff" stroke="#63b8ff" points="551.88,-347.35 562.39,-345.99 553.33,-340.5 551.88,-347.35"/>
</a>
</g>
</g>
<!-- Node11 -->
<g id="Node000011" class="node">
<title>Node11</title>
<g id="a_Node000011"><a xlink:href="muscle__activation_8c.html#a36f02749f1f9ff32ed836a7bab6c719d" target="_top" xlink:title=" ">
<polygon fill="white" stroke="#666666" points="651.5,-328 565.5,-328 565.5,-309 651.5,-309 651.5,-328"/>
<text text-anchor="middle" x="608.5" y="-316" font-family="Helvetica,sans-Serif" font-size="10.00">apply_act_bcs</text>
</a>
</g>
</g>
<!-- Node10&#45;&gt;Node11 -->
<g id="edge12_Node000010_Node000011" class="edge">
<title>Node10&#45;&gt;Node11</title>
<g id="a_edge12_Node000010_Node000011"><a xlink:title=" ">
<path fill="none" stroke="#63b8ff" d="M502.03,-317.36C520.12,-317.56 538.88,-317.76 555.47,-317.94"/>
<polygon fill="#63b8ff" stroke="#63b8ff" points="555.46,-321.44 565.5,-318.05 555.54,-314.44 555.46,-321.44"/>
</a>
</g>
</g>
<!-- Node12 -->
<g id="Node000012" class="node">
<title>Node12</title>
<g id="a_Node000012"><a xlink:href="bending_8c.html#a4a1f5973a55922b27065f712220d8152" target="_top" xlink:title=" ">
<polygon fill="white" stroke="#666666" points="647,-291 570,-291 570,-272 647,-272 647,-291"/>
<text text-anchor="middle" x="608.5" y="-279" font-family="Helvetica,sans-Serif" font-size="10.00">GlobalGhost</text>
</a>
</g>
</g>
<!-- Node10&#45;&gt;Node12 -->
<g id="edge14_Node000010_Node000012" class="edge">
<title>Node10&#45;&gt;Node12</title>
<g id="a_edge14_Node000010_Node000012"><a xlink:title=" ">
<path fill="none" stroke="#63b8ff" d="M473.05,-306.94C500.18,-301.8 533.42,-295.51 560.06,-290.47"/>
<polygon fill="#63b8ff" stroke="#63b8ff" points="560.75,-293.91 569.92,-288.61 559.45,-287.03 560.75,-293.91"/>
</a>
</g>
</g>
<!-- Node17 -->
<g id="Node000017" class="node">
<title>Node17</title>
<g id="a_Node000017"><a xlink:href="muscle__activation_8c.html#a5bcab0a432f4401f206e0366535f005e" target="_top" xlink:title="High&#45;Level Procedure for Muscle Activation Update.">
<polygon fill="white" stroke="#666666" points="679,-205 538,-205 538,-186 679,-186 679,-205"/>
<text text-anchor="middle" x="608.5" y="-193" font-family="Helvetica,sans-Serif" font-size="10.00">compute_act_Fa_element</text>
</a>
</g>
</g>
<!-- Node16&#45;&gt;Node17 -->
<g id="edge19_Node000016_Node000017" class="edge">
<title>Node16&#45;&gt;Node17</title>
<g id="a_edge19_Node000016_Node000017"><a xlink:title=" ">
<path fill="none" stroke="#63b8ff" d="M464.94,-195.5C483.55,-195.5 506.01,-195.5 527.56,-195.5"/>
<polygon fill="#63b8ff" stroke="#63b8ff" points="527.7,-199 537.7,-195.5 527.7,-192 527.7,-199"/>
</a>
</g>
</g>
<!-- Node17&#45;&gt;Node3 -->
<g id="edge20_Node000017_Node000003" class="edge">
<title>Node17&#45;&gt;Node3</title>
<g id="a_edge20_Node000017_Node000003"><a xlink:title=" ">
<path fill="none" stroke="#63b8ff" d="M660.25,-205.06C666.88,-207.52 673.32,-210.62 679,-214.5 691.33,-222.94 713.9,-256.15 727.57,-277.34"/>
<polygon fill="#63b8ff" stroke="#63b8ff" points="724.66,-279.29 732.99,-285.83 730.56,-275.52 724.66,-279.29"/>
</a>
</g>
</g>
<!-- Node17&#45;&gt;Node6 -->
<g id="edge23_Node000017_Node000006" class="edge">
<title>Node17&#45;&gt;Node6</title>
<g id="a_edge23_Node000017_Node000006"><a xlink:title=" ">
<path fill="none" stroke="#63b8ff" d="M664.89,-205.16C670.04,-207.61 674.87,-210.68 679,-214.5 713.69,-246.56 688.38,-275.48 715,-314.5 715.99,-315.95 717.1,-317.36 718.28,-318.72"/>
<polygon fill="#63b8ff" stroke="#63b8ff" points="716.01,-321.38 725.61,-325.87 720.9,-316.38 716.01,-321.38"/>
</a>
</g>
</g>
<!-- Node17&#45;&gt;Node9 -->
<g id="edge21_Node000017_Node000009" class="edge">
<title>Node17&#45;&gt;Node9</title>
<g id="a_edge21_Node000017_Node000009"><a xlink:title=" ">
<path fill="none" stroke="#63b8ff" d="M647.61,-205.08C657.87,-207.89 668.92,-211.12 679,-214.5 689.69,-218.09 701.23,-222.56 711.31,-226.66"/>
<polygon fill="#63b8ff" stroke="#63b8ff" points="710.24,-230.01 720.82,-230.6 712.92,-223.54 710.24,-230.01"/>
</a>
</g>
</g>
<!-- Node18 -->
<g id="Node000018" class="node">
<title>Node18</title>
<g id="a_Node000018"><a xlink:href="math_8c.html#a3f73e4cd9eab76eeee084eabf2b98ec9" target="_top" xlink:title=" ">
<polygon fill="white" stroke="#666666" points="757,-205 723,-205 723,-186 757,-186 757,-205"/>
<text text-anchor="middle" x="740" y="-193" font-family="Helvetica,sans-Serif" font-size="10.00">INV</text>
</a>
</g>
</g>
<!-- Node17&#45;&gt;Node18 -->
<g id="edge22_Node000017_Node000018" class="edge">
<title>Node17&#45;&gt;Node18</title>
<g id="a_edge22_Node000017_Node000018"><a xlink:title=" ">
<path fill="none" stroke="#63b8ff" d="M679.18,-195.5C691.01,-195.5 702.62,-195.5 712.42,-195.5"/>
<polygon fill="#63b8ff" stroke="#63b8ff" points="712.62,-199 722.62,-195.5 712.62,-192 712.62,-199"/>
</a>
</g>
</g>
<!-- Node21 -->
<g id="Node000021" class="node">
<title>Node21</title>
<g id="a_Node000021"><a xlink:href="muscle__activation_8c.html#a8bc18accda5d9acdf28357164879241e" target="_top" xlink:title="Compute intermediate deformed covariant basis vectors.">
<polygon fill="white" stroke="#666666" points="670,-253.5 547,-253.5 547,-223.5 670,-223.5 670,-253.5"/>
<text text-anchor="start" x="555" y="-241.5" font-family="Helvetica,sans-Serif" font-size="10.00">compute_intmd_state</text>
<text text-anchor="middle" x="608.5" y="-230.5" font-family="Helvetica,sans-Serif" font-size="10.00">_cov_basis_element</text>
</a>
</g>
</g>
<!-- Node20&#45;&gt;Node21 -->
<g id="edge26_Node000020_Node000021" class="edge">
<title>Node20&#45;&gt;Node21</title>
<g id="a_edge26_Node000020_Node000021"><a xlink:title=" ">
<path fill="none" stroke="#63b8ff" d="M289.07,-239.35C355,-239.17 464.53,-238.88 536.38,-238.69"/>
<polygon fill="#63b8ff" stroke="#63b8ff" points="536.7,-242.19 546.69,-238.66 536.68,-235.19 536.7,-242.19"/>
</a>
</g>
</g>
<!-- Node21&#45;&gt;Node3 -->
<g id="edge27_Node000021_Node000003" class="edge">
<title>Node21&#45;&gt;Node3</title>
<g id="a_edge27_Node000021_Node000003"><a xlink:title=" ">
<path fill="none" stroke="#63b8ff" d="M656.65,-253.56C664.21,-256.33 671.88,-259.34 679,-262.5 691.02,-267.83 703.85,-274.72 714.55,-280.82"/>
<polygon fill="#63b8ff" stroke="#63b8ff" points="712.93,-283.92 723.33,-285.92 716.44,-277.87 712.93,-283.92"/>
</a>
</g>
</g>
<!-- Node21&#45;&gt;Node6 -->
<g id="edge29_Node000021_Node000006" class="edge">
<title>Node21&#45;&gt;Node6</title>
<g id="a_edge29_Node000021_Node000006"><a xlink:title=" ">
<path fill="none" stroke="#63b8ff" d="M664.34,-253.63C669.53,-256.17 674.52,-259.11 679,-262.5 701.4,-279.49 696.28,-293.53 715,-314.5 716.33,-315.99 717.76,-317.47 719.23,-318.92"/>
<polygon fill="#63b8ff" stroke="#63b8ff" points="717,-321.63 726.74,-325.79 721.72,-316.46 717,-321.63"/>
</a>
</g>
</g>
<!-- Node21&#45;&gt;Node9 -->
<g id="edge28_Node000021_Node000009" class="edge">
<title>Node21&#45;&gt;Node9</title>
<g id="a_edge28_Node000021_Node000009"><a xlink:title=" ">
<path fill="none" stroke="#63b8ff" d="M670.08,-238.5C684.19,-238.5 698.57,-238.5 710.51,-238.5"/>
<polygon fill="#63b8ff" stroke="#63b8ff" points="710.72,-242 720.72,-238.5 710.72,-235 710.72,-242"/>
</a>
</g>
</g>
<!-- Node24 -->
<g id="Node000024" class="node">
<title>Node24</title>
<g id="a_Node000024"><a xlink:href="muscle__activation_8c.html#a4c5d08ae67f23baed5c8a45656a64f84" target="_top" xlink:title=" ">
<polygon fill="white" stroke="#666666" points="659,-168 558,-168 558,-149 659,-149 659,-168"/>
<text text-anchor="middle" x="608.5" y="-156" font-family="Helvetica,sans-Serif" font-size="10.00">compute_Fbar_el</text>
</a>
</g>
</g>
<!-- Node23&#45;&gt;Node24 -->
<g id="edge32_Node000023_Node000024" class="edge">
<title>Node23&#45;&gt;Node24</title>
<g id="a_edge32_Node000023_Node000024"><a xlink:title=" ">
<path fill="none" stroke="#63b8ff" d="M458.61,-158.5C483.91,-158.5 518.32,-158.5 547.68,-158.5"/>
<polygon fill="#63b8ff" stroke="#63b8ff" points="547.84,-162 557.84,-158.5 547.83,-155 547.84,-162"/>
</a>
</g>
</g>
<!-- Node24&#45;&gt;Node18 -->
<g id="edge33_Node000024_Node000018" class="edge">
<title>Node24&#45;&gt;Node18</title>
<g id="a_edge33_Node000024_Node000018"><a xlink:title=" ">
<path fill="none" stroke="#63b8ff" d="M647.84,-168.04C658,-170.67 668.94,-173.61 679,-176.5 690.18,-179.72 702.45,-183.54 712.95,-186.92"/>
<polygon fill="#63b8ff" stroke="#63b8ff" points="712.18,-190.35 722.77,-190.1 714.34,-183.69 712.18,-190.35"/>
</a>
</g>
</g>
<!-- Node25 -->
<g id="Node000025" class="node">
<title>Node25</title>
<g id="a_Node000025"><a xlink:href="math_8c.html#af0179b195a2871aea7107cba32d42211" target="_top" xlink:title=" ">
<polygon fill="white" stroke="#666666" points="765,-168 715,-168 715,-149 765,-149 765,-168"/>
<text text-anchor="middle" x="740" y="-156" font-family="Helvetica,sans-Serif" font-size="10.00">TRANS</text>
</a>
</g>
</g>
<!-- Node24&#45;&gt;Node25 -->
<g id="edge34_Node000024_Node000025" class="edge">
<title>Node24&#45;&gt;Node25</title>
<g id="a_edge34_Node000024_Node000025"><a xlink:title=" ">
<path fill="none" stroke="#63b8ff" d="M659.2,-158.5C674.43,-158.5 690.84,-158.5 704.79,-158.5"/>
<polygon fill="#63b8ff" stroke="#63b8ff" points="704.93,-162 714.93,-158.5 704.93,-155 704.93,-162"/>
</a>
</g>
</g>
</g>
</svg>

<g id="navigator" transform="translate(0 0)" fill="#404254">
  <rect fill="#f2f5e9" fill-opacity="0.5" stroke="#606060" stroke-width=".5" x="0" y="0" width="60" height="60"/>
  <use id="zoomplus" xlink:href="#zoomPlus" x="17" y="9" onmousedown="handleZoom(evt,'in')"/>
  <use id="zoomminus" xlink:href="#zoomMin" x="42" y="9" onmousedown="handleZoom(evt,'out')"/>
  <use id="reset" xlink:href="#resetDef" x="30" y="36" onmousedown="handleReset()"/>
   <use id="arrowup" xlink:href="#arrowUp" x="0" y="0" onmousedown="handlePan(0,-1)"/>
  <use id="arrowright" xlink:href="#arrowRight" x="0" y="0" onmousedown="handlePan(1,0)"/>
  <use id="arrowdown" xlink:href="#arrowDown" x="0" y="0" onmousedown="handlePan(0,1)"/>
  <use id="arrowleft" xlink:href="#arrowLeft" x="0" y="0" onmousedown="handlePan(-1,0)"/>
</g>
<svg viewBox="0 0 15 15" width="100%" height="30px" preserveAspectRatio="xMaxYMin meet">
 <g id="arrow_out" transform="scale(0.3 0.3)">
  <a xlink:href="muscle__activation_8c_aad998374ae4f3ca2c8f14b4c4b2aaafd_cgraph_org.svg" target="_base">
   <rect id="button" ry="5" rx="5" y="6" x="6" height="38" width="38"
        fill="#f2f5e9" fill-opacity="0.5" stroke="#606060" stroke-width="1.0"/>
   <path id="arrow"
     d="M 11.500037,31.436501 C 11.940474,20.09759 22.043105,11.32322 32.158766,21.979434 L 37.068811,17.246167 C 37.068811,17.246167 37.088388,32 37.088388,32 L 22.160133,31.978069 C 22.160133,31.978069 26.997745,27.140456 26.997745,27.140456 C 18.528582,18.264221 13.291696,25.230495 11.500037,31.436501 z"
     style="fill:#404040;"/>
  </a>
 </g>
</svg>

<style type='text/css'>
<![CDATA[
[data-mouse-over-selected='false'] { opacity: 0.7; }
[data-mouse-over-selected='true']  { opacity: 1.0; }
]]>
</style>
<script type="application/ecmascript"><![CDATA[
document.addEventListener('DOMContentLoaded', (event) => {
  highlightEdges();
  highlightAdjacentNodes();
});
]]></script>
</svg>
