<?xml version="1.0" encoding="UTF-8" standalone="no"?>
<!DOCTYPE svg PUBLIC "-//W3C//DTD SVG 1.1//EN"
 "http://www.w3.org/Graphics/SVG/1.1/DTD/svg11.dtd">
<!-- Generated by graphviz version 2.43.0 (0)
 -->
<!-- Title: PyCaller.c Pages: 1 -->
<svg width="579pt" height="247pt"
 viewBox="0.00 0.00 578.50 247.00" xmlns="http://www.w3.org/2000/svg" xmlns:xlink="http://www.w3.org/1999/xlink">
<g id="graph0" class="graph" transform="scale(1 1) rotate(0) translate(4 243)">
<title>PyCaller.c</title>
<!-- Node1 -->
<g id="Node000001" class="node">
<title>Node1</title>
<g id="a_Node000001"><a xlink:title=" ">
<polygon fill="#999999" stroke="#666666" points="146,-239 81,-239 81,-220 146,-220 146,-239"/>
<text text-anchor="middle" x="113.5" y="-227" font-family="Helvetica,sans-Serif" font-size="10.00">PyCaller.c</text>
</a>
</g>
</g>
<!-- Node2 -->
<g id="Node000002" class="node">
<title>Node2</title>
<g id="a_Node000002"><a xlink:title=" ">
<polygon fill="#e0e0e0" stroke="#999999" points="59,-129 0,-129 0,-110 59,-110 59,-129"/>
<text text-anchor="middle" x="29.5" y="-117" font-family="Helvetica,sans-Serif" font-size="10.00">Python.h</text>
</a>
</g>
</g>
<!-- Node1&#45;&gt;Node2 -->
<g id="edge1_Node000001_Node000002" class="edge">
<title>Node1&#45;&gt;Node2</title>
<g id="a_edge1_Node000001_Node000002"><a xlink:title=" ">
<path fill="none" stroke="#63b8ff" d="M90.07,-219.97C73.88,-212.84 53.23,-201.08 41.5,-184 32.47,-170.85 29.77,-152.72 29.15,-139.2"/>
<polygon fill="#63b8ff" stroke="#63b8ff" points="32.65,-139.09 29.03,-129.13 25.65,-139.17 32.65,-139.09"/>
</a>
</g>
</g>
<!-- Node3 -->
<g id="Node000003" class="node">
<title>Node3</title>
<g id="a_Node000003"><a xlink:title=" ">
<polygon fill="#e0e0e0" stroke="#999999" points="162,-129 93,-129 93,-110 162,-110 162,-129"/>
<text text-anchor="middle" x="127.5" y="-117" font-family="Helvetica,sans-Serif" font-size="10.00">petscvec.h</text>
</a>
</g>
</g>
<!-- Node1&#45;&gt;Node3 -->
<g id="edge2_Node000001_Node000003" class="edge">
<title>Node1&#45;&gt;Node3</title>
<g id="a_edge2_Node000001_Node000003"><a xlink:title=" ">
<path fill="none" stroke="#63b8ff" d="M116.21,-219.74C118.83,-210.83 122.66,-196.6 124.5,-184 126.67,-169.12 127.38,-152.08 127.57,-139.41"/>
<polygon fill="#63b8ff" stroke="#63b8ff" points="131.07,-139.2 127.62,-129.18 124.07,-139.16 131.07,-139.2"/>
</a>
</g>
</g>
<!-- Node4 -->
<g id="Node000004" class="node">
<title>Node4</title>
<g id="a_Node000004"><a xlink:href="variables_8h.html" target="_top" xlink:title=" ">
<polygon fill="white" stroke="#666666" points="273,-184 202,-184 202,-165 273,-165 273,-184"/>
<text text-anchor="middle" x="237.5" y="-172" font-family="Helvetica,sans-Serif" font-size="10.00">variables.h</text>
</a>
</g>
</g>
<!-- Node1&#45;&gt;Node4 -->
<g id="edge3_Node000001_Node000004" class="edge">
<title>Node1&#45;&gt;Node4</title>
<g id="a_edge3_Node000001_Node000004"><a xlink:title=" ">
<path fill="none" stroke="#63b8ff" d="M133.42,-219.98C153.55,-211.38 184.88,-197.99 207.91,-188.15"/>
<polygon fill="#63b8ff" stroke="#63b8ff" points="209.4,-191.32 217.21,-184.17 206.64,-184.88 209.4,-191.32"/>
</a>
</g>
</g>
<!-- Node12 -->
<g id="Node000012" class="node">
<title>Node12</title>
<g id="a_Node000012"><a xlink:href="PyCaller_8h.html" target="_top" xlink:title=" ">
<polygon fill="white" stroke="#666666" points="116,-184 51,-184 51,-165 116,-165 116,-184"/>
<text text-anchor="middle" x="83.5" y="-172" font-family="Helvetica,sans-Serif" font-size="10.00">PyCaller.h</text>
</a>
</g>
</g>
<!-- Node1&#45;&gt;Node12 -->
<g id="edge15_Node000001_Node000012" class="edge">
<title>Node1&#45;&gt;Node12</title>
<g id="a_edge15_Node000001_Node000012"><a xlink:title=" ">
<path fill="none" stroke="#63b8ff" d="M108.55,-219.75C104.44,-212.49 98.47,-201.95 93.4,-192.98"/>
<polygon fill="#63b8ff" stroke="#63b8ff" points="96.33,-191.07 88.36,-184.09 90.24,-194.52 96.33,-191.07"/>
</a>
</g>
</g>
<!-- Node4&#45;&gt;Node3 -->
<g id="edge8_Node000004_Node000003" class="edge">
<title>Node4&#45;&gt;Node3</title>
<g id="a_edge8_Node000004_Node000003"><a xlink:title=" ">
<path fill="none" stroke="#63b8ff" d="M219.83,-164.98C202.21,-156.5 174.92,-143.35 154.57,-133.54"/>
<polygon fill="#63b8ff" stroke="#63b8ff" points="156.02,-130.36 145.49,-129.17 152.98,-136.66 156.02,-130.36"/>
</a>
</g>
</g>
<!-- Node5 -->
<g id="Node000005" class="node">
<title>Node5</title>
<g id="a_Node000005"><a xlink:title=" ">
<polygon fill="#e0e0e0" stroke="#999999" points="254.5,-129 180.5,-129 180.5,-110 254.5,-110 254.5,-129"/>
<text text-anchor="middle" x="217.5" y="-117" font-family="Helvetica,sans-Serif" font-size="10.00">petscsnes.h</text>
</a>
</g>
</g>
<!-- Node4&#45;&gt;Node5 -->
<g id="edge4_Node000004_Node000005" class="edge">
<title>Node4&#45;&gt;Node5</title>
<g id="a_edge4_Node000004_Node000005"><a xlink:title=" ">
<path fill="none" stroke="#63b8ff" d="M234.2,-164.75C231.52,-157.65 227.65,-147.4 224.31,-138.56"/>
<polygon fill="#63b8ff" stroke="#63b8ff" points="227.55,-137.21 220.74,-129.09 221,-139.68 227.55,-137.21"/>
</a>
</g>
</g>
<!-- Node6 -->
<g id="Node000006" class="node">
<title>Node6</title>
<g id="a_Node000006"><a xlink:href="math_8h.html" target="_top" xlink:title=" ">
<polygon fill="white" stroke="#666666" points="310,-74 259,-74 259,-55 310,-55 310,-74"/>
<text text-anchor="middle" x="284.5" y="-62" font-family="Helvetica,sans-Serif" font-size="10.00">math.h</text>
</a>
</g>
</g>
<!-- Node4&#45;&gt;Node6 -->
<g id="edge5_Node000004_Node000006" class="edge">
<title>Node4&#45;&gt;Node6</title>
<g id="a_edge5_Node000004_Node000006"><a xlink:title=" ">
<path fill="none" stroke="#63b8ff" d="M243.24,-164.92C248.93,-156.17 257.61,-142.05 263.5,-129 270.08,-114.43 275.65,-97.17 279.4,-84.32"/>
<polygon fill="#63b8ff" stroke="#63b8ff" points="282.87,-84.92 282.21,-74.35 276.13,-83.03 282.87,-84.92"/>
</a>
</g>
</g>
<!-- Node8 -->
<g id="Node000008" class="node">
<title>Node8</title>
<g id="a_Node000008"><a xlink:href="act__variables_8h.html" target="_top" xlink:title="Data containers for active&#45;strain kinematics, stress, and material data.">
<polygon fill="white" stroke="#666666" points="402,-129 311,-129 311,-110 402,-110 402,-129"/>
<text text-anchor="middle" x="356.5" y="-117" font-family="Helvetica,sans-Serif" font-size="10.00">act_variables.h</text>
</a>
</g>
</g>
<!-- Node4&#45;&gt;Node8 -->
<g id="edge9_Node000004_Node000008" class="edge">
<title>Node4&#45;&gt;Node8</title>
<g id="a_edge9_Node000004_Node000008"><a xlink:title=" ">
<path fill="none" stroke="#63b8ff" d="M256.62,-164.98C275.85,-156.42 305.73,-143.11 327.81,-133.28"/>
<polygon fill="#63b8ff" stroke="#63b8ff" points="329.32,-136.44 337.03,-129.17 326.47,-130.04 329.32,-136.44"/>
</a>
</g>
</g>
<!-- Node9 -->
<g id="Node000009" class="node">
<title>Node9</title>
<g id="a_Node000009"><a xlink:href="dmplex__types_8h.html" target="_top" xlink:title="Persistent DMPlex geometry context for Loop subdivision surfaces.">
<polygon fill="white" stroke="#666666" points="515,-129 420,-129 420,-110 515,-110 515,-129"/>
<text text-anchor="middle" x="467.5" y="-117" font-family="Helvetica,sans-Serif" font-size="10.00">dmplex_types.h</text>
</a>
</g>
</g>
<!-- Node4&#45;&gt;Node9 -->
<g id="edge12_Node000004_Node000009" class="edge">
<title>Node4&#45;&gt;Node9</title>
<g id="a_edge12_Node000004_Node000009"><a xlink:title=" ">
<path fill="none" stroke="#63b8ff" d="M273.19,-165.28C312.87,-156.13 377.12,-141.33 420.78,-131.27"/>
<polygon fill="#63b8ff" stroke="#63b8ff" points="421.63,-134.66 430.59,-129.01 420.06,-127.84 421.63,-134.66"/>
</a>
</g>
</g>
<!-- Node6&#45;&gt;Node6 -->
<g id="edge6_Node000006_Node000006" class="edge">
<title>Node6&#45;&gt;Node6</title>
<g id="a_edge6_Node000006_Node000006"><a xlink:title=" ">
<path fill="none" stroke="#63b8ff" d="M305.09,-74.07C316.95,-76.02 328,-72.83 328,-64.5 328,-58.64 322.54,-55.33 315.17,-54.55"/>
<polygon fill="#63b8ff" stroke="#63b8ff" points="314.95,-51.06 305.09,-54.93 315.21,-58.05 314.95,-51.06"/>
</a>
</g>
</g>
<!-- Node7 -->
<g id="Node000007" class="node">
<title>Node7</title>
<g id="a_Node000007"><a xlink:title=" ">
<polygon fill="#e0e0e0" stroke="#999999" points="354.5,-19 286.5,-19 286.5,0 354.5,0 354.5,-19"/>
<text text-anchor="middle" x="320.5" y="-7" font-family="Helvetica,sans-Serif" font-size="10.00">petscsys.h</text>
</a>
</g>
</g>
<!-- Node6&#45;&gt;Node7 -->
<g id="edge7_Node000006_Node000007" class="edge">
<title>Node6&#45;&gt;Node7</title>
<g id="a_edge7_Node000006_Node000007"><a xlink:title=" ">
<path fill="none" stroke="#63b8ff" d="M290.44,-54.75C295.48,-47.34 302.84,-36.5 309.01,-27.41"/>
<polygon fill="#63b8ff" stroke="#63b8ff" points="311.94,-29.33 314.67,-19.09 306.15,-25.39 311.94,-29.33"/>
</a>
</g>
</g>
<!-- Node8&#45;&gt;Node6 -->
<g id="edge11_Node000008_Node000006" class="edge">
<title>Node8&#45;&gt;Node6</title>
<g id="a_edge11_Node000008_Node000006"><a xlink:title=" ">
<path fill="none" stroke="#63b8ff" d="M344.93,-109.98C334.08,-102 317.62,-89.88 304.62,-80.31"/>
<polygon fill="#63b8ff" stroke="#63b8ff" points="306.41,-77.28 296.28,-74.17 302.26,-82.92 306.41,-77.28"/>
</a>
</g>
</g>
<!-- Node8&#45;&gt;Node7 -->
<g id="edge10_Node000008_Node000007" class="edge">
<title>Node8&#45;&gt;Node7</title>
<g id="a_edge10_Node000008_Node000007"><a xlink:title=" ">
<path fill="none" stroke="#63b8ff" d="M353.89,-109.84C350.17,-97.58 343.07,-74.5 336.5,-55 333.58,-46.35 330.18,-36.81 327.26,-28.79"/>
<polygon fill="#63b8ff" stroke="#63b8ff" points="330.52,-27.51 323.79,-19.33 323.95,-29.92 330.52,-27.51"/>
</a>
</g>
</g>
<!-- Node10 -->
<g id="Node000010" class="node">
<title>Node10</title>
<g id="a_Node000010"><a xlink:title=" ">
<polygon fill="#e0e0e0" stroke="#999999" points="493,-74 404,-74 404,-55 493,-55 493,-74"/>
<text text-anchor="middle" x="448.5" y="-62" font-family="Helvetica,sans-Serif" font-size="10.00">petscdmplex.h</text>
</a>
</g>
</g>
<!-- Node9&#45;&gt;Node10 -->
<g id="edge13_Node000009_Node000010" class="edge">
<title>Node9&#45;&gt;Node10</title>
<g id="a_edge13_Node000009_Node000010"><a xlink:title=" ">
<path fill="none" stroke="#63b8ff" d="M464.36,-109.75C461.82,-102.65 458.14,-92.4 454.97,-83.56"/>
<polygon fill="#63b8ff" stroke="#63b8ff" points="458.25,-82.32 451.58,-74.09 451.66,-84.68 458.25,-82.32"/>
</a>
</g>
</g>
<!-- Node11 -->
<g id="Node000011" class="node">
<title>Node11</title>
<g id="a_Node000011"><a xlink:title=" ">
<polygon fill="#e0e0e0" stroke="#999999" points="570.5,-74 510.5,-74 510.5,-55 570.5,-55 570.5,-74"/>
<text text-anchor="middle" x="540.5" y="-62" font-family="Helvetica,sans-Serif" font-size="10.00">petscsf.h</text>
</a>
</g>
</g>
<!-- Node9&#45;&gt;Node11 -->
<g id="edge14_Node000009_Node000011" class="edge">
<title>Node9&#45;&gt;Node11</title>
<g id="a_edge14_Node000009_Node000011"><a xlink:title=" ">
<path fill="none" stroke="#63b8ff" d="M479.23,-109.98C490.23,-102 506.92,-89.88 520.1,-80.31"/>
<polygon fill="#63b8ff" stroke="#63b8ff" points="522.52,-82.88 528.56,-74.17 518.41,-77.21 522.52,-82.88"/>
</a>
</g>
</g>
<!-- Node12&#45;&gt;Node2 -->
<g id="edge16_Node000012_Node000002" class="edge">
<title>Node12&#45;&gt;Node2</title>
<g id="a_edge16_Node000012_Node000002"><a xlink:title=" ">
<path fill="none" stroke="#63b8ff" d="M74.58,-164.75C66.72,-157.03 55.07,-145.6 45.58,-136.28"/>
<polygon fill="#63b8ff" stroke="#63b8ff" points="47.84,-133.6 38.25,-129.09 42.94,-138.59 47.84,-133.6"/>
</a>
</g>
</g>
</g>
</svg>
