<?xml version="1.0" encoding="UTF-8" standalone="no"?>
<!DOCTYPE svg PUBLIC "-//W3C//DTD SVG 1.1//EN"
 "http://www.w3.org/Graphics/SVG/1.1/DTD/svg11.dtd">
<!-- Generated by graphviz version 2.43.0 (0)
 -->
<!-- Title: KokkosGeomWorkspace_ Pages: 1 -->
<svg width="527pt" height="544pt"
 viewBox="0.00 0.00 526.50 544.00" xmlns="http://www.w3.org/2000/svg" xmlns:xlink="http://www.w3.org/1999/xlink">
<g id="graph0" class="graph" transform="scale(1 1) rotate(0) translate(4 540)">
<title>KokkosGeomWorkspace_</title>
<!-- Node1 -->
<g id="Node000001" class="node">
<title>Node1</title>
<g id="a_Node000001"><a xlink:title=" ">
<polygon fill="#999999" stroke="#666666" points="498,-19 359,-19 359,0 498,0 498,-19"/>
<text text-anchor="middle" x="428.5" y="-7" font-family="Helvetica,sans-Serif" font-size="10.00">KokkosGeomWorkspace_</text>
</a>
</g>
</g>
<!-- Node2 -->
<g id="Node000002" class="node">
<title>Node2</title>
<g id="a_Node000002"><a xlink:href="structFE.html" target="_top" xlink:title=" ">
<polygon fill="white" stroke="#666666" points="388,-85 359,-85 359,-66 388,-66 388,-85"/>
<text text-anchor="middle" x="373.5" y="-73" font-family="Helvetica,sans-Serif" font-size="10.00">FE</text>
</a>
</g>
</g>
<!-- Node2&#45;&gt;Node1 -->
<g id="edge1_Node000001_Node000002" class="edge">
<title>Node2&#45;&gt;Node1</title>
<g id="a_edge1_Node000001_Node000002"><a xlink:title=" ">
<path fill="none" stroke="#9a32cd" stroke-dasharray="5,2" d="M387.57,-58.12C398.16,-45.81 412.26,-29.39 420.85,-19.41"/>
<polygon fill="#9a32cd" stroke="#9a32cd" points="384.78,-56 380.92,-65.87 390.09,-60.57 384.78,-56"/>
</a>
</g>
<text text-anchor="middle" x="420.5" y="-40" font-family="Helvetica,sans-Serif" font-size="10.00" fill="grey"> owner</text>
</g>
<!-- Node3 -->
<g id="Node000003" class="node">
<title>Node3</title>
<g id="a_Node000003"><a xlink:href="structActData.html" target="_top" xlink:title="Global active&#45;strain data stored in FE context.">
<polygon fill="white" stroke="#666666" points="203.5,-151 147.5,-151 147.5,-132 203.5,-132 203.5,-151"/>
<text text-anchor="middle" x="175.5" y="-139" font-family="Helvetica,sans-Serif" font-size="10.00">ActData</text>
</a>
</g>
</g>
<!-- Node3&#45;&gt;Node2 -->
<g id="edge2_Node000002_Node000003" class="edge">
<title>Node3&#45;&gt;Node2</title>
<g id="a_edge2_Node000002_Node000003"><a xlink:title=" ">
<path fill="none" stroke="#9a32cd" stroke-dasharray="5,2" d="M211.08,-128.83C233.79,-121.4 263.86,-111.59 290.5,-103 314.4,-95.29 342.2,-86.44 358.8,-81.16"/>
<polygon fill="#9a32cd" stroke="#9a32cd" points="209.93,-125.53 201.52,-131.96 212.11,-132.18 209.93,-125.53"/>
</a>
</g>
<text text-anchor="middle" x="313.5" y="-106" font-family="Helvetica,sans-Serif" font-size="10.00" fill="grey"> act_data</text>
</g>
<!-- Node4 -->
<g id="Node000004" class="node">
<title>Node4</title>
<g id="a_Node000004"><a xlink:href="structMuscleActParams.html" target="_top" xlink:title="Active&#45;muscle model parameters.">
<polygon fill="white" stroke="#666666" points="103,-217 0,-217 0,-198 103,-198 103,-217"/>
<text text-anchor="middle" x="51.5" y="-205" font-family="Helvetica,sans-Serif" font-size="10.00">MuscleActParams</text>
</a>
</g>
</g>
<!-- Node4&#45;&gt;Node3 -->
<g id="edge3_Node000003_Node000004" class="edge">
<title>Node4&#45;&gt;Node3</title>
<g id="a_edge3_Node000003_Node000004"><a xlink:title=" ">
<path fill="none" stroke="#9a32cd" stroke-dasharray="5,2" d="M55.72,-187.77C58.13,-180.98 61.84,-173.81 67.5,-169 89.72,-150.13 123.3,-144.3 147.11,-142.69"/>
<polygon fill="#9a32cd" stroke="#9a32cd" points="52.26,-187.15 52.92,-197.73 59,-189.05 52.26,-187.15"/>
</a>
</g>
<text text-anchor="middle" x="118" y="-172" font-family="Helvetica,sans-Serif" font-size="10.00" fill="grey"> muscle_act_params</text>
</g>
<!-- Node5 -->
<g id="Node000005" class="node">
<title>Node5</title>
<g id="a_Node000005"><a xlink:href="structElemActData.html" target="_top" xlink:title="Element&#45;level active&#45;strain tensors, stresses, and cached basis/geometry.">
<polygon fill="white" stroke="#666666" points="208.5,-217 128.5,-217 128.5,-198 208.5,-198 208.5,-217"/>
<text text-anchor="middle" x="168.5" y="-205" font-family="Helvetica,sans-Serif" font-size="10.00">ElemActData</text>
</a>
</g>
</g>
<!-- Node5&#45;&gt;Node3 -->
<g id="edge4_Node000003_Node000005" class="edge">
<title>Node5&#45;&gt;Node3</title>
<g id="a_edge4_Node000003_Node000005"><a xlink:title=" ">
<path fill="none" stroke="#9a32cd" stroke-dasharray="5,2" d="M170.57,-187.58C171.88,-175.63 173.51,-160.72 174.53,-151.41"/>
<polygon fill="#9a32cd" stroke="#9a32cd" points="167.05,-187.55 169.44,-197.87 174.01,-188.31 167.05,-187.55"/>
</a>
</g>
<text text-anchor="middle" x="210.5" y="-172" font-family="Helvetica,sans-Serif" font-size="10.00" fill="grey"> elem_act_data</text>
</g>
<!-- Node6 -->
<g id="Node000006" class="node">
<title>Node6</title>
<g id="a_Node000006"><a xlink:href="structElem2DTens.html" target="_top" xlink:title="Second&#45;order tensor in covariant and contravariant forms.">
<polygon fill="white" stroke="#666666" points="112,-393 35,-393 35,-374 112,-374 112,-393"/>
<text text-anchor="middle" x="73.5" y="-381" font-family="Helvetica,sans-Serif" font-size="10.00">Elem2DTens</text>
</a>
</g>
</g>
<!-- Node6&#45;&gt;Node5 -->
<g id="edge5_Node000005_Node000006" class="edge">
<title>Node6&#45;&gt;Node5</title>
<g id="a_edge5_Node000005_Node000006"><a xlink:title=" ">
<path fill="none" stroke="#9a32cd" stroke-dasharray="5,2" d="M76.95,-364.13C83.29,-334.4 99.09,-275.03 130.5,-235 136.26,-227.66 144.6,-221.53 152,-217.02"/>
<polygon fill="#9a32cd" stroke="#9a32cd" points="73.51,-363.48 74.98,-373.97 80.38,-364.86 73.51,-363.48"/>
</a>
</g>
<text text-anchor="middle" x="147.5" y="-348" font-family="Helvetica,sans-Serif" font-size="10.00" fill="grey"> C</text>
<text text-anchor="middle" x="147.5" y="-337" font-family="Helvetica,sans-Serif" font-size="10.00" fill="grey">C_inv</text>
<text text-anchor="middle" x="147.5" y="-326" font-family="Helvetica,sans-Serif" font-size="10.00" fill="grey">Ce</text>
<text text-anchor="middle" x="147.5" y="-315" font-family="Helvetica,sans-Serif" font-size="10.00" fill="grey">Ce_inv</text>
<text text-anchor="middle" x="147.5" y="-304" font-family="Helvetica,sans-Serif" font-size="10.00" fill="grey">Fa</text>
<text text-anchor="middle" x="147.5" y="-293" font-family="Helvetica,sans-Serif" font-size="10.00" fill="grey">Fa_inv</text>
<text text-anchor="middle" x="147.5" y="-282" font-family="Helvetica,sans-Serif" font-size="10.00" fill="grey">S</text>
<text text-anchor="middle" x="147.5" y="-271" font-family="Helvetica,sans-Serif" font-size="10.00" fill="grey">Se</text>
<text text-anchor="middle" x="147.5" y="-260" font-family="Helvetica,sans-Serif" font-size="10.00" fill="grey">gm</text>
<text text-anchor="middle" x="147.5" y="-249" font-family="Helvetica,sans-Serif" font-size="10.00" fill="grey">gm0</text>
<text text-anchor="middle" x="147.5" y="-238" font-family="Helvetica,sans-Serif" font-size="10.00" fill="grey">...</text>
</g>
<!-- Node7 -->
<g id="Node000007" class="node">
<title>Node7</title>
<g id="a_Node000007"><a xlink:href="structElem4DTens.html" target="_top" xlink:title="Fourth&#45;order tensor (for example, material tangent).">
<polygon fill="white" stroke="#666666" points="207,-393 130,-393 130,-374 207,-374 207,-393"/>
<text text-anchor="middle" x="168.5" y="-381" font-family="Helvetica,sans-Serif" font-size="10.00">Elem4DTens</text>
</a>
</g>
</g>
<!-- Node7&#45;&gt;Node5 -->
<g id="edge6_Node000005_Node000007" class="edge">
<title>Node7&#45;&gt;Node5</title>
<g id="a_edge6_Node000005_Node000007"><a xlink:title=" ">
<path fill="none" stroke="#9a32cd" stroke-dasharray="5,2" d="M168.5,-363.56C168.5,-326.12 168.5,-243.95 168.5,-217.14"/>
<polygon fill="#9a32cd" stroke="#9a32cd" points="165,-363.63 168.5,-373.63 172,-363.63 165,-363.63"/>
</a>
</g>
<text text-anchor="middle" x="178.5" y="-298.5" font-family="Helvetica,sans-Serif" font-size="10.00" fill="grey"> CC</text>
<text text-anchor="middle" x="178.5" y="-287.5" font-family="Helvetica,sans-Serif" font-size="10.00" fill="grey">CCe</text>
</g>
<!-- Node8 -->
<g id="Node000008" class="node">
<title>Node8</title>
<g id="a_Node000008"><a xlink:href="structElemVec.html" target="_top" xlink:title="Vector in covariant and contravariant forms.">
<polygon fill="white" stroke="#666666" points="284,-393 225,-393 225,-374 284,-374 284,-393"/>
<text text-anchor="middle" x="254.5" y="-381" font-family="Helvetica,sans-Serif" font-size="10.00">ElemVec</text>
</a>
</g>
</g>
<!-- Node8&#45;&gt;Node5 -->
<g id="edge7_Node000005_Node000008" class="edge">
<title>Node8&#45;&gt;Node5</title>
<g id="a_edge7_Node000005_Node000008"><a xlink:title=" ">
<path fill="none" stroke="#9a32cd" stroke-dasharray="5,2" d="M248.99,-364.08C239.87,-335.17 219.88,-278.01 192.5,-235 188.37,-228.51 182.61,-222.09 177.77,-217.19"/>
<polygon fill="#9a32cd" stroke="#9a32cd" points="245.66,-365.16 251.95,-373.69 252.35,-363.1 245.66,-365.16"/>
</a>
</g>
<text text-anchor="middle" x="252" y="-298.5" font-family="Helvetica,sans-Serif" font-size="10.00" fill="grey"> g</text>
<text text-anchor="middle" x="252" y="-287.5" font-family="Helvetica,sans-Serif" font-size="10.00" fill="grey">g0</text>
</g>
<!-- Node9 -->
<g id="Node000009" class="node">
<title>Node9</title>
<g id="a_Node000009"><a xlink:href="structCmpnts.html" target="_top" xlink:title=" ">
<polygon fill="white" stroke="#666666" points="375.5,-536 321.5,-536 321.5,-517 375.5,-517 375.5,-536"/>
<text text-anchor="middle" x="348.5" y="-524" font-family="Helvetica,sans-Serif" font-size="10.00">Cmpnts</text>
</a>
</g>
</g>
<!-- Node9&#45;&gt;Node8 -->
<g id="edge8_Node000008_Node000009" class="edge">
<title>Node9&#45;&gt;Node8</title>
<g id="a_edge8_Node000008_Node000009"><a xlink:title=" ">
<path fill="none" stroke="#9a32cd" stroke-dasharray="5,2" d="M329.41,-510.38C325.56,-506.87 321.71,-502.98 318.5,-499 289.77,-463.36 266.7,-413.1 258.11,-393.15"/>
<polygon fill="#9a32cd" stroke="#9a32cd" points="327.24,-513.13 337.11,-516.98 331.79,-507.82 327.24,-513.13"/>
</a>
</g>
<text text-anchor="middle" x="331.5" y="-458" font-family="Helvetica,sans-Serif" font-size="10.00" fill="grey"> Cont</text>
<text text-anchor="middle" x="331.5" y="-447" font-family="Helvetica,sans-Serif" font-size="10.00" fill="grey">Cov</text>
</g>
<!-- Node10 -->
<g id="Node000010" class="node">
<title>Node10</title>
<g id="a_Node000010"><a xlink:href="structSubdivGeomQP.html" target="_top" xlink:title="Cached subdivision&#45;surface geometry quantities at one quadrature point.">
<polygon fill="white" stroke="#666666" points="394.5,-393 302.5,-393 302.5,-374 394.5,-374 394.5,-393"/>
<text text-anchor="middle" x="348.5" y="-381" font-family="Helvetica,sans-Serif" font-size="10.00">SubdivGeomQP</text>
</a>
</g>
</g>
<!-- Node9&#45;&gt;Node10 -->
<g id="edge10_Node000010_Node000009" class="edge">
<title>Node9&#45;&gt;Node10</title>
<g id="a_edge10_Node000010_Node000009"><a xlink:title=" ">
<path fill="none" stroke="#9a32cd" stroke-dasharray="5,2" d="M348.5,-506.39C348.5,-475.49 348.5,-415.77 348.5,-393.32"/>
<polygon fill="#9a32cd" stroke="#9a32cd" points="345,-506.68 348.5,-516.68 352,-506.68 345,-506.68"/>
</a>
</g>
<text text-anchor="middle" x="364" y="-491" font-family="Helvetica,sans-Serif" font-size="10.00" fill="grey"> Aaa</text>
<text text-anchor="middle" x="364" y="-480" font-family="Helvetica,sans-Serif" font-size="10.00" fill="grey">Aab</text>
<text text-anchor="middle" x="364" y="-469" font-family="Helvetica,sans-Serif" font-size="10.00" fill="grey">Abb</text>
<text text-anchor="middle" x="364" y="-458" font-family="Helvetica,sans-Serif" font-size="10.00" fill="grey">gc1</text>
<text text-anchor="middle" x="364" y="-447" font-family="Helvetica,sans-Serif" font-size="10.00" fill="grey">gc2</text>
<text text-anchor="middle" x="364" y="-436" font-family="Helvetica,sans-Serif" font-size="10.00" fill="grey">ndx21</text>
<text text-anchor="middle" x="364" y="-425" font-family="Helvetica,sans-Serif" font-size="10.00" fill="grey">ndx31</text>
<text text-anchor="middle" x="364" y="-414" font-family="Helvetica,sans-Serif" font-size="10.00" fill="grey">nn</text>
</g>
<!-- Node14 -->
<g id="Node000014" class="node">
<title>Node14</title>
<g id="a_Node000014"><a xlink:href="structIBMNodes.html" target="_top" xlink:title=" ">
<polygon fill="white" stroke="#666666" points="487.5,-151 421.5,-151 421.5,-132 487.5,-132 487.5,-151"/>
<text text-anchor="middle" x="454.5" y="-139" font-family="Helvetica,sans-Serif" font-size="10.00">IBMNodes</text>
</a>
</g>
</g>
<!-- Node9&#45;&gt;Node14 -->
<g id="edge15_Node000014_Node000009" class="edge">
<title>Node9&#45;&gt;Node14</title>
<g id="a_edge15_Node000014_Node000009"><a xlink:title=" ">
<path fill="none" stroke="#9a32cd" stroke-dasharray="5,2" d="M371.62,-510.86C375.97,-507.36 380.18,-503.36 383.5,-499 465.16,-391.68 470.16,-349.45 495.5,-217 497.09,-208.71 498.14,-206.02 495.5,-198 489.28,-179.11 473.89,-161.38 463.83,-151.25"/>
<polygon fill="#9a32cd" stroke="#9a32cd" points="369.31,-508.22 363.3,-516.94 373.44,-513.87 369.31,-508.22"/>
</a>
</g>
<text text-anchor="middle" x="505" y="-298.5" font-family="Helvetica,sans-Serif" font-size="10.00" fill="grey"> n_fib</text>
<text text-anchor="middle" x="505" y="-287.5" font-family="Helvetica,sans-Serif" font-size="10.00" fill="grey">qvec</text>
</g>
<!-- Node10&#45;&gt;Node5 -->
<g id="edge9_Node000005_Node000010" class="edge">
<title>Node10&#45;&gt;Node5</title>
<g id="a_edge9_Node000005_Node000010"><a xlink:title=" ">
<path fill="none" stroke="#9a32cd" stroke-dasharray="5,2" d="M342.97,-364.4C332.49,-333.18 306.74,-269.25 262.5,-235 253.85,-228.3 230.05,-221.63 208.56,-216.65"/>
<polygon fill="#9a32cd" stroke="#9a32cd" points="339.66,-365.53 346.05,-373.98 346.32,-363.39 339.66,-365.53"/>
</a>
</g>
<text text-anchor="middle" x="355.5" y="-298.5" font-family="Helvetica,sans-Serif" font-size="10.00" fill="grey"> geom</text>
<text text-anchor="middle" x="355.5" y="-287.5" font-family="Helvetica,sans-Serif" font-size="10.00" fill="grey">geom0</text>
</g>
<!-- Node11 -->
<g id="Node000011" class="node">
<title>Node11</title>
<g id="a_Node000011"><a xlink:href="structDMPlexGeomCtx.html" target="_top" xlink:title="Persistent DMPlex geometry context stored in FE.">
<polygon fill="white" stroke="#666666" points="392.5,-151 292.5,-151 292.5,-132 392.5,-132 392.5,-151"/>
<text text-anchor="middle" x="342.5" y="-139" font-family="Helvetica,sans-Serif" font-size="10.00">DMPlexGeomCtx</text>
</a>
</g>
</g>
<!-- Node11&#45;&gt;Node2 -->
<g id="edge11_Node000002_Node000011" class="edge">
<title>Node11&#45;&gt;Node2</title>
<g id="a_edge11_Node000002_Node000011"><a xlink:title=" ">
<path fill="none" stroke="#9a32cd" stroke-dasharray="5,2" d="M340.08,-121.55C340.05,-115.39 340.85,-108.68 343.5,-103 346.91,-95.7 353.39,-89.57 359.46,-85.05"/>
<polygon fill="#9a32cd" stroke="#9a32cd" points="336.61,-121.99 340.83,-131.71 343.59,-121.48 336.61,-121.99"/>
</a>
</g>
<text text-anchor="middle" x="369.5" y="-106" font-family="Helvetica,sans-Serif" font-size="10.00" fill="grey"> geom_ctx</text>
</g>
<!-- Node12 -->
<g id="Node000012" class="node">
<title>Node12</title>
<g id="a_Node000012"><a xlink:href="structDMPlexPatchLayout.html" target="_top" xlink:title="Per&#45;rank local copy of Loop subdivision patch stencil data.">
<polygon fill="white" stroke="#666666" points="340,-217 227,-217 227,-198 340,-198 340,-217"/>
<text text-anchor="middle" x="283.5" y="-205" font-family="Helvetica,sans-Serif" font-size="10.00">DMPlexPatchLayout</text>
</a>
</g>
</g>
<!-- Node12&#45;&gt;Node11 -->
<g id="edge12_Node000011_Node000012" class="edge">
<title>Node12&#45;&gt;Node11</title>
<g id="a_edge12_Node000011_Node000012"><a xlink:title=" ">
<path fill="none" stroke="#9a32cd" stroke-dasharray="5,2" d="M298.27,-190.48C309.66,-178.12 324.99,-161.49 334.29,-151.41"/>
<polygon fill="#9a32cd" stroke="#9a32cd" points="295.66,-188.14 291.46,-197.87 300.81,-192.89 295.66,-188.14"/>
</a>
</g>
<text text-anchor="middle" x="333.5" y="-172" font-family="Helvetica,sans-Serif" font-size="10.00" fill="grey"> layout</text>
</g>
<!-- Node13 -->
<g id="Node000013" class="node">
<title>Node13</title>
<g id="a_Node000013"><a xlink:href="structDMPlexPatchExchange.html" target="_top" xlink:title="MPI coordinate exchange for cross&#45;rank patch stencil nodes.">
<polygon fill="white" stroke="#666666" points="486.5,-217 358.5,-217 358.5,-198 486.5,-198 486.5,-217"/>
<text text-anchor="middle" x="422.5" y="-205" font-family="Helvetica,sans-Serif" font-size="10.00">DMPlexPatchExchange</text>
</a>
</g>
</g>
<!-- Node13&#45;&gt;Node11 -->
<g id="edge13_Node000011_Node000013" class="edge">
<title>Node13&#45;&gt;Node11</title>
<g id="a_edge13_Node000011_Node000013"><a xlink:title=" ">
<path fill="none" stroke="#9a32cd" stroke-dasharray="5,2" d="M403.73,-191.49C388.07,-178.96 366.3,-161.54 353.37,-151.2"/>
<polygon fill="#9a32cd" stroke="#9a32cd" points="401.72,-194.35 411.71,-197.87 406.09,-188.89 401.72,-194.35"/>
</a>
</g>
<text text-anchor="middle" x="412" y="-172" font-family="Helvetica,sans-Serif" font-size="10.00" fill="grey"> exchange</text>
</g>
<!-- Node14&#45;&gt;Node1 -->
<g id="edge16_Node000001_Node000014" class="edge">
<title>Node14&#45;&gt;Node1</title>
<g id="a_edge16_Node000001_Node000014"><a xlink:title=" ">
<path fill="none" stroke="#9a32cd" stroke-dasharray="5,2" d="M453.59,-121.61C452.21,-100.6 448.78,-65.82 440.5,-37 438.71,-30.79 435.71,-24.16 433.16,-19.09"/>
<polygon fill="#9a32cd" stroke="#9a32cd" points="450.11,-121.95 454.17,-131.74 457.1,-121.55 450.11,-121.95"/>
</a>
</g>
<text text-anchor="middle" x="460.5" y="-73" font-family="Helvetica,sans-Serif" font-size="10.00" fill="grey"> ibm</text>
</g>
<!-- Node14&#45;&gt;Node2 -->
<g id="edge14_Node000002_Node000014" class="edge">
<title>Node14&#45;&gt;Node2</title>
<g id="a_edge14_Node000002_Node000014"><a xlink:title=" ">
<path fill="none" stroke="#9a32cd" stroke-dasharray="5,2" d="M434.16,-125.85C429,-122.05 423.51,-117.93 418.5,-114 406.17,-104.34 392.39,-92.73 383.37,-85.02"/>
<polygon fill="#9a32cd" stroke="#9a32cd" points="432.22,-128.78 442.36,-131.85 436.35,-123.12 432.22,-128.78"/>
</a>
</g>
<text text-anchor="middle" x="429.5" y="-106" font-family="Helvetica,sans-Serif" font-size="10.00" fill="grey"> ibm</text>
</g>
</g>
</svg>
