<?xml version="1.0" encoding="UTF-8" standalone="no"?>
<!DOCTYPE svg PUBLIC "-//W3C//DTD SVG 1.1//EN"
 "http://www.w3.org/Graphics/SVG/1.1/DTD/svg11.dtd">
<!-- Generated by graphviz version 2.43.0 (0)
 -->
<!-- Title: ActData Pages: 1 -->
<svg width="378pt" height="412pt"
 viewBox="0.00 0.00 377.50 412.00" xmlns="http://www.w3.org/2000/svg" xmlns:xlink="http://www.w3.org/1999/xlink">

<svg id="main" version="1.1" xmlns="http://www.w3.org/2000/svg" xmlns:xlink="http://www.w3.org/1999/xlink" xml:space="preserve" onload="init(evt)">
<style type="text/css"><![CDATA[
.node, .edge {opacity: 0.7;}
.node.selected, .edge.selected {opacity: 1;}
.edge:hover path { stroke: red; }
.edge:hover polygon { stroke: red; fill: red; }
]]></style>
<script type="application/ecmascript" xlink:href="svg.min.js"/>
<svg id="graph" class="graph">
<g id="graph0" class="graph" transform="scale(1 1) rotate(0) translate(4 408)">
<title>ActData</title>
<!-- Node1 -->
<g id="Node000001" class="node">
<title>Node1</title>
<g id="a_Node000001"><a xlink:title="Global active&#45;strain data stored in FE context.">
<polygon fill="#999999" stroke="#666666" points="141.5,-19 85.5,-19 85.5,0 141.5,0 141.5,-19"/>
<text text-anchor="middle" x="113.5" y="-7" font-family="Helvetica,sans-Serif" font-size="10.00">ActData</text>
</a>
</g>
</g>
<!-- Node2 -->
<g id="Node000002" class="node">
<title>Node2</title>
<g id="a_Node000002"><a xlink:href="structMuscleActParams.html" target="_top" xlink:title="Active&#45;muscle model parameters.">
<polygon fill="white" stroke="#666666" points="103,-85 0,-85 0,-66 103,-66 103,-85"/>
<text text-anchor="middle" x="51.5" y="-73" font-family="Helvetica,sans-Serif" font-size="10.00">MuscleActParams</text>
</a>
</g>
</g>
<!-- Node2&#45;&gt;Node1 -->
<g id="edge1_Node000001_Node000002" class="edge">
<title>Node2&#45;&gt;Node1</title>
<g id="a_edge1_Node000001_Node000002"><a xlink:title=" ">
<path fill="none" stroke="#9a32cd" stroke-dasharray="5,2" d="M48.11,-55.94C47.88,-49.47 48.81,-42.46 52.5,-37 59.99,-25.9 73.22,-19.42 85.45,-15.65"/>
<polygon fill="#9a32cd" stroke="#9a32cd" points="44.65,-56.45 49.3,-65.97 51.6,-55.63 44.65,-56.45"/>
</a>
</g>
<text text-anchor="middle" x="103" y="-40" font-family="Helvetica,sans-Serif" font-size="10.00" fill="grey"> muscle_act_params</text>
</g>
<!-- Node3 -->
<g id="Node000003" class="node">
<title>Node3</title>
<g id="a_Node000003"><a xlink:href="structElemActData.html" target="_top" xlink:title="Element&#45;level active&#45;strain tensors, stresses, and cached basis/geometry.">
<polygon fill="white" stroke="#666666" points="215.5,-85 135.5,-85 135.5,-66 215.5,-66 215.5,-85"/>
<text text-anchor="middle" x="175.5" y="-73" font-family="Helvetica,sans-Serif" font-size="10.00">ElemActData</text>
</a>
</g>
</g>
<!-- Node3&#45;&gt;Node1 -->
<g id="edge2_Node000001_Node000003" class="edge">
<title>Node3&#45;&gt;Node1</title>
<g id="a_edge2_Node000001_Node000003"><a xlink:title=" ">
<path fill="none" stroke="#9a32cd" stroke-dasharray="5,2" d="M167.24,-56.72C163.61,-50.07 158.94,-42.74 153.5,-37 146.74,-29.86 137.72,-23.67 129.95,-19.08"/>
<polygon fill="#9a32cd" stroke="#9a32cd" points="164.14,-58.36 171.76,-65.72 170.39,-55.21 164.14,-58.36"/>
</a>
</g>
<text text-anchor="middle" x="200.5" y="-40" font-family="Helvetica,sans-Serif" font-size="10.00" fill="grey"> elem_act_data</text>
</g>
<!-- Node4 -->
<g id="Node000004" class="node">
<title>Node4</title>
<g id="a_Node000004"><a xlink:href="structElem2DTens.html" target="_top" xlink:title="Second&#45;order tensor in covariant and contravariant forms.">
<polygon fill="white" stroke="#666666" points="87,-261 10,-261 10,-242 87,-242 87,-261"/>
<text text-anchor="middle" x="48.5" y="-249" font-family="Helvetica,sans-Serif" font-size="10.00">Elem2DTens</text>
</a>
</g>
</g>
<!-- Node4&#45;&gt;Node3 -->
<g id="edge3_Node000003_Node000004" class="edge">
<title>Node4&#45;&gt;Node3</title>
<g id="a_edge3_Node000003_Node000004"><a xlink:title=" ">
<path fill="none" stroke="#9a32cd" stroke-dasharray="5,2" d="M51.29,-231.67C56.81,-200.79 71.92,-139.22 108.5,-103 116.77,-94.81 127.87,-89.08 138.66,-85.09"/>
<polygon fill="#9a32cd" stroke="#9a32cd" points="47.78,-231.45 49.62,-241.88 54.69,-232.58 47.78,-231.45"/>
</a>
</g>
<text text-anchor="middle" x="125.5" y="-216" font-family="Helvetica,sans-Serif" font-size="10.00" fill="grey"> C</text>
<text text-anchor="middle" x="125.5" y="-205" font-family="Helvetica,sans-Serif" font-size="10.00" fill="grey">C_inv</text>
<text text-anchor="middle" x="125.5" y="-194" font-family="Helvetica,sans-Serif" font-size="10.00" fill="grey">Ce</text>
<text text-anchor="middle" x="125.5" y="-183" font-family="Helvetica,sans-Serif" font-size="10.00" fill="grey">Ce_inv</text>
<text text-anchor="middle" x="125.5" y="-172" font-family="Helvetica,sans-Serif" font-size="10.00" fill="grey">Fa</text>
<text text-anchor="middle" x="125.5" y="-161" font-family="Helvetica,sans-Serif" font-size="10.00" fill="grey">Fa_inv</text>
<text text-anchor="middle" x="125.5" y="-150" font-family="Helvetica,sans-Serif" font-size="10.00" fill="grey">S</text>
<text text-anchor="middle" x="125.5" y="-139" font-family="Helvetica,sans-Serif" font-size="10.00" fill="grey">Se</text>
<text text-anchor="middle" x="125.5" y="-128" font-family="Helvetica,sans-Serif" font-size="10.00" fill="grey">gm</text>
<text text-anchor="middle" x="125.5" y="-117" font-family="Helvetica,sans-Serif" font-size="10.00" fill="grey">gm0</text>
<text text-anchor="middle" x="125.5" y="-106" font-family="Helvetica,sans-Serif" font-size="10.00" fill="grey">...</text>
</g>
<!-- Node5 -->
<g id="Node000005" class="node">
<title>Node5</title>
<g id="a_Node000005"><a xlink:href="structElem4DTens.html" target="_top" xlink:title="Fourth&#45;order tensor (for example, material tangent).">
<polygon fill="white" stroke="#666666" points="182,-261 105,-261 105,-242 182,-242 182,-261"/>
<text text-anchor="middle" x="143.5" y="-249" font-family="Helvetica,sans-Serif" font-size="10.00">Elem4DTens</text>
</a>
</g>
</g>
<!-- Node5&#45;&gt;Node3 -->
<g id="edge4_Node000003_Node000005" class="edge">
<title>Node5&#45;&gt;Node3</title>
<g id="a_edge4_Node000003_Node000005"><a xlink:title=" ">
<path fill="none" stroke="#9a32cd" stroke-dasharray="5,2" d="M145.02,-231.64C147.59,-203.34 153.7,-148.37 165.5,-103 167.08,-96.91 169.58,-90.28 171.69,-85.18"/>
<polygon fill="#9a32cd" stroke="#9a32cd" points="141.52,-231.46 144.15,-241.73 148.5,-232.06 141.52,-231.46"/>
</a>
</g>
<text text-anchor="middle" x="175.5" y="-166.5" font-family="Helvetica,sans-Serif" font-size="10.00" fill="grey"> CC</text>
<text text-anchor="middle" x="175.5" y="-155.5" font-family="Helvetica,sans-Serif" font-size="10.00" fill="grey">CCe</text>
</g>
<!-- Node6 -->
<g id="Node000006" class="node">
<title>Node6</title>
<g id="a_Node000006"><a xlink:href="structElemVec.html" target="_top" xlink:title="Vector in covariant and contravariant forms.">
<polygon fill="white" stroke="#666666" points="259,-261 200,-261 200,-242 259,-242 259,-261"/>
<text text-anchor="middle" x="229.5" y="-249" font-family="Helvetica,sans-Serif" font-size="10.00">ElemVec</text>
</a>
</g>
</g>
<!-- Node6&#45;&gt;Node3 -->
<g id="edge5_Node000003_Node000006" class="edge">
<title>Node6&#45;&gt;Node3</title>
<g id="a_edge5_Node000003_Node000006"><a xlink:title=" ">
<path fill="none" stroke="#9a32cd" stroke-dasharray="5,2" d="M224.48,-232.14C216.7,-204.11 201.03,-149.05 185.5,-103 183.49,-97.04 180.99,-90.41 178.99,-85.28"/>
<polygon fill="#9a32cd" stroke="#9a32cd" points="221.1,-233.08 227.13,-241.79 227.85,-231.22 221.1,-233.08"/>
</a>
</g>
<text text-anchor="middle" x="228" y="-166.5" font-family="Helvetica,sans-Serif" font-size="10.00" fill="grey"> g</text>
<text text-anchor="middle" x="228" y="-155.5" font-family="Helvetica,sans-Serif" font-size="10.00" fill="grey">g0</text>
</g>
<!-- Node7 -->
<g id="Node000007" class="node">
<title>Node7</title>
<g id="a_Node000007"><a xlink:href="structCmpnts.html" target="_top" xlink:title=" ">
<polygon fill="white" stroke="#666666" points="302.5,-404 248.5,-404 248.5,-385 302.5,-385 302.5,-404"/>
<text text-anchor="middle" x="275.5" y="-392" font-family="Helvetica,sans-Serif" font-size="10.00">Cmpnts</text>
</a>
</g>
</g>
<!-- Node7&#45;&gt;Node6 -->
<g id="edge6_Node000006_Node000007" class="edge">
<title>Node7&#45;&gt;Node6</title>
<g id="a_edge6_Node000006_Node000007"><a xlink:title=" ">
<path fill="none" stroke="#9a32cd" stroke-dasharray="5,2" d="M267.03,-375.68C265.78,-372.8 264.56,-369.84 263.5,-367 249.08,-328.34 236.53,-280.59 231.66,-261.25"/>
<polygon fill="#9a32cd" stroke="#9a32cd" points="263.86,-377.15 271.19,-384.79 270.22,-374.24 263.86,-377.15"/>
</a>
</g>
<text text-anchor="middle" x="276.5" y="-326" font-family="Helvetica,sans-Serif" font-size="10.00" fill="grey"> Cont</text>
<text text-anchor="middle" x="276.5" y="-315" font-family="Helvetica,sans-Serif" font-size="10.00" fill="grey">Cov</text>
</g>
<!-- Node8 -->
<g id="Node000008" class="node">
<title>Node8</title>
<g id="a_Node000008"><a xlink:href="structSubdivGeomQP.html" target="_top" xlink:title="Cached subdivision&#45;surface geometry quantities at one quadrature point.">
<polygon fill="white" stroke="#666666" points="369.5,-261 277.5,-261 277.5,-242 369.5,-242 369.5,-261"/>
<text text-anchor="middle" x="323.5" y="-249" font-family="Helvetica,sans-Serif" font-size="10.00">SubdivGeomQP</text>
</a>
</g>
</g>
<!-- Node7&#45;&gt;Node8 -->
<g id="edge8_Node000008_Node000007" class="edge">
<title>Node7&#45;&gt;Node8</title>
<g id="a_edge8_Node000008_Node000007"><a xlink:title=" ">
<path fill="none" stroke="#9a32cd" stroke-dasharray="5,2" d="M285.33,-376.06C286.83,-373.08 288.28,-369.99 289.5,-367 305.17,-328.6 317.11,-280.31 321.58,-261.03"/>
<polygon fill="#9a32cd" stroke="#9a32cd" points="282.25,-374.41 280.61,-384.88 288.42,-377.71 282.25,-374.41"/>
</a>
</g>
<text text-anchor="middle" x="332" y="-359" font-family="Helvetica,sans-Serif" font-size="10.00" fill="grey"> Aaa</text>
<text text-anchor="middle" x="332" y="-348" font-family="Helvetica,sans-Serif" font-size="10.00" fill="grey">Aab</text>
<text text-anchor="middle" x="332" y="-337" font-family="Helvetica,sans-Serif" font-size="10.00" fill="grey">Abb</text>
<text text-anchor="middle" x="332" y="-326" font-family="Helvetica,sans-Serif" font-size="10.00" fill="grey">gc1</text>
<text text-anchor="middle" x="332" y="-315" font-family="Helvetica,sans-Serif" font-size="10.00" fill="grey">gc2</text>
<text text-anchor="middle" x="332" y="-304" font-family="Helvetica,sans-Serif" font-size="10.00" fill="grey">ndx21</text>
<text text-anchor="middle" x="332" y="-293" font-family="Helvetica,sans-Serif" font-size="10.00" fill="grey">ndx31</text>
<text text-anchor="middle" x="332" y="-282" font-family="Helvetica,sans-Serif" font-size="10.00" fill="grey">nn</text>
</g>
<!-- Node8&#45;&gt;Node3 -->
<g id="edge7_Node000003_Node000008" class="edge">
<title>Node8&#45;&gt;Node3</title>
<g id="a_edge7_Node000003_Node000008"><a xlink:title=" ">
<path fill="none" stroke="#9a32cd" stroke-dasharray="5,2" d="M317.34,-232.12C306.2,-201.44 279.95,-139.58 238.5,-103 229.43,-94.99 217.58,-89.16 206.61,-85.04"/>
<polygon fill="#9a32cd" stroke="#9a32cd" points="314.16,-233.62 320.76,-241.9 320.77,-231.31 314.16,-233.62"/>
</a>
</g>
<text text-anchor="middle" x="330.5" y="-166.5" font-family="Helvetica,sans-Serif" font-size="10.00" fill="grey"> geom</text>
<text text-anchor="middle" x="330.5" y="-155.5" font-family="Helvetica,sans-Serif" font-size="10.00" fill="grey">geom0</text>
</g>
</g>
</svg>
</svg>

<style type='text/css'>
<![CDATA[
[data-mouse-over-selected='false'] { opacity: 0.7; }
[data-mouse-over-selected='true']  { opacity: 1.0; }
]]>
</style>
<script type="application/ecmascript"><![CDATA[
document.addEventListener('DOMContentLoaded', (event) => {
  highlightEdges();
  highlightAdjacentNodes();
});
]]></script>
</svg>
