<?xml version="1.0" encoding="UTF-8" standalone="no"?>
<!DOCTYPE svg PUBLIC "-//W3C//DTD SVG 1.1//EN"
 "http://www.w3.org/Graphics/SVG/1.1/DTD/svg11.dtd">
<!-- Generated by graphviz version 2.43.0 (0)
 -->
<!-- Title: FE Pages: 1 -->
<!--zoomable 478 -->

<svg id="main" version="1.1" xmlns="http://www.w3.org/2000/svg" xmlns:xlink="http://www.w3.org/1999/xlink" xml:space="preserve" onload="init(evt)">
<style type="text/css"><![CDATA[
.node, .edge {opacity: 0.7;}
.node.selected, .edge.selected {opacity: 1;}
.edge:hover path { stroke: red; }
.edge:hover polygon { stroke: red; fill: red; }
]]></style>

<defs>
  <circle id="rim" cx="0" cy="0" r="7"/>
  <circle id="rim2" cx="0" cy="0" r="3.5"/>
  <g id="zoomPlus">
    <use xlink:href="#rim" fill="#404040"><set attributeName="fill" to="#808080" begin="zoomplus.mouseover" end="zoomplus.mouseout"/></use>
    <path d="M-4,0h8M0,-4v8" fill="none" stroke="white" stroke-width="1.5" pointer-events="none"/>
  </g>
  <g id="zoomMin">
    <use xlink:href="#rim" fill="#404040"><set attributeName="fill" to="#808080" begin="zoomminus.mouseover" end="zoomminus.mouseout"/></use>
    <path d="M-4,0h8" fill="none" stroke="white" stroke-width="1.5" pointer-events="none"/>
  </g>
  <g id="arrowUp" transform="translate(30 24)">
    <use xlink:href="#rim"/>
    <path pointer-events="none" fill="none" stroke="white" stroke-width="1.5" d="M0,-3.0v7 M-2.5,-0.5L0,-3.0L2.5,-0.5"/>
  </g>
  <g id="arrowRight" transform="rotate(90) translate(36 -43)">
    <use xlink:href="#rim"/>
    <path pointer-events="none" fill="none" stroke="white" stroke-width="1.5" d="M0,-3.0v7 M-2.5,-0.5L0,-3.0L2.5,-0.5"/>
  </g>
  <g id="arrowDown" transform="rotate(180) translate(-30 -48)">
    <use xlink:href="#rim"/>
    <path pointer-events="none" fill="none" stroke="white" stroke-width="1.5" d="M0,-3.0v7 M-2.5,-0.5L0,-3.0L2.5,-0.5"/>
  </g>
  <g id="arrowLeft" transform="rotate(270) translate(-36 17)">
    <use xlink:href="#rim"/>
    <path pointer-events="none" fill="none" stroke="white" stroke-width="1.5" d="M0,-3.0v7 M-2.5,-0.5L0,-3.0L2.5,-0.5"/>
  </g>
  <g id="resetDef">
    <use xlink:href="#rim2" fill="#404040"><set attributeName="fill" to="#808080" begin="reset.mouseover" end="reset.mouseout"/></use>
  </g>
</defs>
<script type="application/ecmascript">
var viewWidth = 625;
var viewHeight = 478;
var sectionId = 'dynsection-0';
</script>
<script type="application/ecmascript" xlink:href="svg.min.js"/>
<svg id="graph" class="graph">
<g id="viewport">
<title>FE</title>
<!-- Node1 -->
<g id="Node000001" class="node">
<title>Node1</title>
<g id="a_Node000001"><a xlink:title=" ">
<polygon fill="#999999" stroke="#666666" points="343,-19 314,-19 314,0 343,0 343,-19"/>
<text text-anchor="middle" x="328.5" y="-7" font-family="Helvetica,sans-Serif" font-size="10.00">FE</text>
</a>
</g>
</g>
<!-- Node2 -->
<g id="Node000002" class="node">
<title>Node2</title>
<g id="a_Node000002"><a xlink:href="structActData.html" target="_top" xlink:title="Global active&#45;strain data stored in FE context.">
<polygon fill="white" stroke="#666666" points="253.5,-85 197.5,-85 197.5,-66 253.5,-66 253.5,-85"/>
<text text-anchor="middle" x="225.5" y="-73" font-family="Helvetica,sans-Serif" font-size="10.00">ActData</text>
</a>
</g>
</g>
<!-- Node2&#45;&gt;Node1 -->
<g id="edge1_Node000001_Node000002" class="edge">
<title>Node2&#45;&gt;Node1</title>
<g id="a_edge1_Node000001_Node000002"><a xlink:title=" ">
<path fill="none" stroke="#9a32cd" stroke-dasharray="5,2" d="M241.31,-58.66C249.06,-51.45 258.8,-43.17 268.5,-37 283.01,-27.77 301.28,-20.21 313.82,-15.56"/>
<polygon fill="#9a32cd" stroke="#9a32cd" points="238.55,-56.46 233.77,-65.91 243.41,-61.5 238.55,-56.46"/>
</a>
</g>
<text text-anchor="middle" x="291.5" y="-40" font-family="Helvetica,sans-Serif" font-size="10.00" fill="grey"> act_data</text>
</g>
<!-- Node3 -->
<g id="Node000003" class="node">
<title>Node3</title>
<g id="a_Node000003"><a xlink:href="structMuscleActParams.html" target="_top" xlink:title="Active&#45;muscle model parameters.">
<polygon fill="white" stroke="#666666" points="153,-151 50,-151 50,-132 153,-132 153,-151"/>
<text text-anchor="middle" x="101.5" y="-139" font-family="Helvetica,sans-Serif" font-size="10.00">MuscleActParams</text>
</a>
</g>
</g>
<!-- Node3&#45;&gt;Node2 -->
<g id="edge2_Node000002_Node000003" class="edge">
<title>Node3&#45;&gt;Node2</title>
<g id="a_edge2_Node000002_Node000003"><a xlink:title=" ">
<path fill="none" stroke="#9a32cd" stroke-dasharray="5,2" d="M105.72,-121.77C108.13,-114.98 111.84,-107.81 117.5,-103 139.72,-84.13 173.3,-78.3 197.11,-76.69"/>
<polygon fill="#9a32cd" stroke="#9a32cd" points="102.26,-121.15 102.92,-131.73 109,-123.05 102.26,-121.15"/>
</a>
</g>
<text text-anchor="middle" x="168" y="-106" font-family="Helvetica,sans-Serif" font-size="10.00" fill="grey"> muscle_act_params</text>
</g>
<!-- Node4 -->
<g id="Node000004" class="node">
<title>Node4</title>
<g id="a_Node000004"><a xlink:href="structElemActData.html" target="_top" xlink:title="Element&#45;level active&#45;strain tensors, stresses, and cached basis/geometry.">
<polygon fill="white" stroke="#666666" points="259.5,-151 179.5,-151 179.5,-132 259.5,-132 259.5,-151"/>
<text text-anchor="middle" x="219.5" y="-139" font-family="Helvetica,sans-Serif" font-size="10.00">ElemActData</text>
</a>
</g>
</g>
<!-- Node4&#45;&gt;Node2 -->
<g id="edge3_Node000002_Node000004" class="edge">
<title>Node4&#45;&gt;Node2</title>
<g id="a_edge3_Node000002_Node000004"><a xlink:title=" ">
<path fill="none" stroke="#9a32cd" stroke-dasharray="5,2" d="M221.27,-121.58C222.39,-109.63 223.79,-94.72 224.67,-85.41"/>
<polygon fill="#9a32cd" stroke="#9a32cd" points="217.76,-121.59 220.31,-131.87 224.73,-122.24 217.76,-121.59"/>
</a>
</g>
<text text-anchor="middle" x="261.5" y="-106" font-family="Helvetica,sans-Serif" font-size="10.00" fill="grey"> elem_act_data</text>
</g>
<!-- Node5 -->
<g id="Node000005" class="node">
<title>Node5</title>
<g id="a_Node000005"><a xlink:href="structElem2DTens.html" target="_top" xlink:title="Second&#45;order tensor in covariant and contravariant forms.">
<polygon fill="white" stroke="#666666" points="77,-327 0,-327 0,-308 77,-308 77,-327"/>
<text text-anchor="middle" x="38.5" y="-315" font-family="Helvetica,sans-Serif" font-size="10.00">Elem2DTens</text>
</a>
</g>
</g>
<!-- Node5&#45;&gt;Node4 -->
<g id="edge4_Node000004_Node000005" class="edge">
<title>Node5&#45;&gt;Node4</title>
<g id="a_edge4_Node000004_Node000005"><a xlink:title=" ">
<path fill="none" stroke="#9a32cd" stroke-dasharray="5,2" d="M41.38,-297.86C47.28,-266.29 63.78,-202.49 104.5,-169 110.41,-164.14 148.64,-155.92 179.42,-149.92"/>
<polygon fill="#9a32cd" stroke="#9a32cd" points="37.9,-297.47 39.66,-307.91 44.8,-298.65 37.9,-297.47"/>
</a>
</g>
<text text-anchor="middle" x="121.5" y="-282" font-family="Helvetica,sans-Serif" font-size="10.00" fill="grey"> C</text>
<text text-anchor="middle" x="121.5" y="-271" font-family="Helvetica,sans-Serif" font-size="10.00" fill="grey">C_inv</text>
<text text-anchor="middle" x="121.5" y="-260" font-family="Helvetica,sans-Serif" font-size="10.00" fill="grey">Ce</text>
<text text-anchor="middle" x="121.5" y="-249" font-family="Helvetica,sans-Serif" font-size="10.00" fill="grey">Ce_inv</text>
<text text-anchor="middle" x="121.5" y="-238" font-family="Helvetica,sans-Serif" font-size="10.00" fill="grey">Fa</text>
<text text-anchor="middle" x="121.5" y="-227" font-family="Helvetica,sans-Serif" font-size="10.00" fill="grey">Fa_inv</text>
<text text-anchor="middle" x="121.5" y="-216" font-family="Helvetica,sans-Serif" font-size="10.00" fill="grey">S</text>
<text text-anchor="middle" x="121.5" y="-205" font-family="Helvetica,sans-Serif" font-size="10.00" fill="grey">Se</text>
<text text-anchor="middle" x="121.5" y="-194" font-family="Helvetica,sans-Serif" font-size="10.00" fill="grey">gm</text>
<text text-anchor="middle" x="121.5" y="-183" font-family="Helvetica,sans-Serif" font-size="10.00" fill="grey">gm0</text>
<text text-anchor="middle" x="121.5" y="-172" font-family="Helvetica,sans-Serif" font-size="10.00" fill="grey">...</text>
</g>
<!-- Node6 -->
<g id="Node000006" class="node">
<title>Node6</title>
<g id="a_Node000006"><a xlink:href="structElem4DTens.html" target="_top" xlink:title="Fourth&#45;order tensor (for example, material tangent).">
<polygon fill="white" stroke="#666666" points="172,-327 95,-327 95,-308 172,-308 172,-327"/>
<text text-anchor="middle" x="133.5" y="-315" font-family="Helvetica,sans-Serif" font-size="10.00">Elem4DTens</text>
</a>
</g>
</g>
<!-- Node6&#45;&gt;Node4 -->
<g id="edge5_Node000004_Node000006" class="edge">
<title>Node6&#45;&gt;Node4</title>
<g id="a_edge5_Node000004_Node000006"><a xlink:title=" ">
<path fill="none" stroke="#9a32cd" stroke-dasharray="5,2" d="M139.01,-298.08C148.13,-269.17 168.12,-212.01 195.5,-169 199.63,-162.51 205.39,-156.09 210.23,-151.19"/>
<polygon fill="#9a32cd" stroke="#9a32cd" points="135.65,-297.1 136.05,-307.69 142.34,-299.16 135.65,-297.1"/>
</a>
</g>
<text text-anchor="middle" x="205.5" y="-232.5" font-family="Helvetica,sans-Serif" font-size="10.00" fill="grey"> CC</text>
<text text-anchor="middle" x="205.5" y="-221.5" font-family="Helvetica,sans-Serif" font-size="10.00" fill="grey">CCe</text>
</g>
<!-- Node7 -->
<g id="Node000007" class="node">
<title>Node7</title>
<g id="a_Node000007"><a xlink:href="structElemVec.html" target="_top" xlink:title="Vector in covariant and contravariant forms.">
<polygon fill="white" stroke="#666666" points="249,-327 190,-327 190,-308 249,-308 249,-327"/>
<text text-anchor="middle" x="219.5" y="-315" font-family="Helvetica,sans-Serif" font-size="10.00">ElemVec</text>
</a>
</g>
</g>
<!-- Node7&#45;&gt;Node4 -->
<g id="edge6_Node000004_Node000007" class="edge">
<title>Node7&#45;&gt;Node4</title>
<g id="a_edge6_Node000004_Node000007"><a xlink:title=" ">
<path fill="none" stroke="#9a32cd" stroke-dasharray="5,2" d="M219.5,-297.56C219.5,-260.12 219.5,-177.95 219.5,-151.14"/>
<polygon fill="#9a32cd" stroke="#9a32cd" points="216,-297.63 219.5,-307.63 223,-297.63 216,-297.63"/>
</a>
</g>
<text text-anchor="middle" x="226" y="-232.5" font-family="Helvetica,sans-Serif" font-size="10.00" fill="grey"> g</text>
<text text-anchor="middle" x="226" y="-221.5" font-family="Helvetica,sans-Serif" font-size="10.00" fill="grey">g0</text>
</g>
<!-- Node8 -->
<g id="Node000008" class="node">
<title>Node8</title>
<g id="a_Node000008"><a xlink:href="structCmpnts.html" target="_top" xlink:title=" ">
<polygon fill="white" stroke="#666666" points="340.5,-470 286.5,-470 286.5,-451 340.5,-451 340.5,-470"/>
<text text-anchor="middle" x="313.5" y="-458" font-family="Helvetica,sans-Serif" font-size="10.00">Cmpnts</text>
</a>
</g>
</g>
<!-- Node8&#45;&gt;Node7 -->
<g id="edge7_Node000007_Node000008" class="edge">
<title>Node8&#45;&gt;Node7</title>
<g id="a_edge7_Node000007_Node000008"><a xlink:title=" ">
<path fill="none" stroke="#9a32cd" stroke-dasharray="5,2" d="M294.41,-444.38C290.56,-440.87 286.71,-436.98 283.5,-433 254.77,-397.36 231.7,-347.1 223.11,-327.15"/>
<polygon fill="#9a32cd" stroke="#9a32cd" points="292.24,-447.13 302.11,-450.98 296.79,-441.82 292.24,-447.13"/>
</a>
</g>
<text text-anchor="middle" x="296.5" y="-392" font-family="Helvetica,sans-Serif" font-size="10.00" fill="grey"> Cont</text>
<text text-anchor="middle" x="296.5" y="-381" font-family="Helvetica,sans-Serif" font-size="10.00" fill="grey">Cov</text>
</g>
<!-- Node9 -->
<g id="Node000009" class="node">
<title>Node9</title>
<g id="a_Node000009"><a xlink:href="structSubdivGeomQP.html" target="_top" xlink:title="Cached subdivision&#45;surface geometry quantities at one quadrature point.">
<polygon fill="white" stroke="#666666" points="359.5,-327 267.5,-327 267.5,-308 359.5,-308 359.5,-327"/>
<text text-anchor="middle" x="313.5" y="-315" font-family="Helvetica,sans-Serif" font-size="10.00">SubdivGeomQP</text>
</a>
</g>
</g>
<!-- Node8&#45;&gt;Node9 -->
<g id="edge9_Node000009_Node000008" class="edge">
<title>Node8&#45;&gt;Node9</title>
<g id="a_edge9_Node000009_Node000008"><a xlink:title=" ">
<path fill="none" stroke="#9a32cd" stroke-dasharray="5,2" d="M313.5,-440.39C313.5,-409.49 313.5,-349.77 313.5,-327.32"/>
<polygon fill="#9a32cd" stroke="#9a32cd" points="310,-440.68 313.5,-450.68 317,-440.68 310,-440.68"/>
</a>
</g>
<text text-anchor="middle" x="329" y="-425" font-family="Helvetica,sans-Serif" font-size="10.00" fill="grey"> Aaa</text>
<text text-anchor="middle" x="329" y="-414" font-family="Helvetica,sans-Serif" font-size="10.00" fill="grey">Aab</text>
<text text-anchor="middle" x="329" y="-403" font-family="Helvetica,sans-Serif" font-size="10.00" fill="grey">Abb</text>
<text text-anchor="middle" x="329" y="-392" font-family="Helvetica,sans-Serif" font-size="10.00" fill="grey">gc1</text>
<text text-anchor="middle" x="329" y="-381" font-family="Helvetica,sans-Serif" font-size="10.00" fill="grey">gc2</text>
<text text-anchor="middle" x="329" y="-370" font-family="Helvetica,sans-Serif" font-size="10.00" fill="grey">ndx21</text>
<text text-anchor="middle" x="329" y="-359" font-family="Helvetica,sans-Serif" font-size="10.00" fill="grey">ndx31</text>
<text text-anchor="middle" x="329" y="-348" font-family="Helvetica,sans-Serif" font-size="10.00" fill="grey">nn</text>
</g>
<!-- Node13 -->
<g id="Node000013" class="node">
<title>Node13</title>
<g id="a_Node000013"><a xlink:href="structIBMNodes.html" target="_top" xlink:title=" ">
<polygon fill="white" stroke="#666666" points="366.5,-239 300.5,-239 300.5,-220 366.5,-220 366.5,-239"/>
<text text-anchor="middle" x="333.5" y="-227" font-family="Helvetica,sans-Serif" font-size="10.00">IBMNodes</text>
</a>
</g>
</g>
<!-- Node8&#45;&gt;Node13 -->
<g id="edge14_Node000013_Node000008" class="edge">
<title>Node8&#45;&gt;Node13</title>
<g id="a_edge14_Node000013_Node000008"><a xlink:title=" ">
<path fill="none" stroke="#9a32cd" stroke-dasharray="5,2" d="M337.73,-444.96C341.86,-441.51 345.71,-437.5 348.5,-433 373.75,-392.24 364.04,-374.73 368.5,-327 369.29,-318.59 370.28,-316.26 368.5,-308 362.78,-281.44 347.2,-253.03 338.89,-239.14"/>
<polygon fill="#9a32cd" stroke="#9a32cd" points="335.63,-442.16 329.64,-450.9 339.77,-447.81 335.63,-442.16"/>
</a>
</g>
<text text-anchor="middle" x="380" y="-392" font-family="Helvetica,sans-Serif" font-size="10.00" fill="grey"> n_fib</text>
<text text-anchor="middle" x="380" y="-381" font-family="Helvetica,sans-Serif" font-size="10.00" fill="grey">qvec</text>
</g>
<!-- Node9&#45;&gt;Node4 -->
<g id="edge8_Node000004_Node000009" class="edge">
<title>Node9&#45;&gt;Node4</title>
<g id="a_edge8_Node000004_Node000009"><a xlink:title=" ">
<path fill="none" stroke="#9a32cd" stroke-dasharray="5,2" d="M273.23,-303.36C267.22,-299.85 261.66,-295.46 257.5,-290 224.45,-246.56 256.29,-219.87 236.5,-169 234.04,-162.68 229.98,-156.27 226.44,-151.33"/>
<polygon fill="#9a32cd" stroke="#9a32cd" points="271.75,-306.53 282.25,-307.89 274.89,-300.27 271.75,-306.53"/>
</a>
</g>
<text text-anchor="middle" x="274.5" y="-232.5" font-family="Helvetica,sans-Serif" font-size="10.00" fill="grey"> geom</text>
<text text-anchor="middle" x="274.5" y="-221.5" font-family="Helvetica,sans-Serif" font-size="10.00" fill="grey">geom0</text>
</g>
<!-- Node10 -->
<g id="Node000010" class="node">
<title>Node10</title>
<g id="a_Node000010"><a xlink:href="structDMPlexGeomCtx.html" target="_top" xlink:title="Persistent DMPlex geometry context stored in FE.">
<polygon fill="white" stroke="#666666" points="463.5,-85 363.5,-85 363.5,-66 463.5,-66 463.5,-85"/>
<text text-anchor="middle" x="413.5" y="-73" font-family="Helvetica,sans-Serif" font-size="10.00">DMPlexGeomCtx</text>
</a>
</g>
</g>
<!-- Node10&#45;&gt;Node1 -->
<g id="edge10_Node000001_Node000010" class="edge">
<title>Node10&#45;&gt;Node1</title>
<g id="a_edge10_Node000001_Node000010"><a xlink:title=" ">
<path fill="none" stroke="#9a32cd" stroke-dasharray="5,2" d="M394.02,-59.83C377.35,-47.28 353.91,-29.63 340.05,-19.2"/>
<polygon fill="#9a32cd" stroke="#9a32cd" points="391.94,-62.65 402.04,-65.87 396.15,-57.06 391.94,-62.65"/>
</a>
</g>
<text text-anchor="middle" x="401.5" y="-40" font-family="Helvetica,sans-Serif" font-size="10.00" fill="grey"> geom_ctx</text>
</g>
<!-- Node11 -->
<g id="Node000011" class="node">
<title>Node11</title>
<g id="a_Node000011"><a xlink:href="structDMPlexPatchLayout.html" target="_top" xlink:title="Per&#45;rank local copy of Loop subdivision patch stencil data.">
<polygon fill="white" stroke="#666666" points="470,-151 357,-151 357,-132 470,-132 470,-151"/>
<text text-anchor="middle" x="413.5" y="-139" font-family="Helvetica,sans-Serif" font-size="10.00">DMPlexPatchLayout</text>
</a>
</g>
</g>
<!-- Node11&#45;&gt;Node10 -->
<g id="edge11_Node000010_Node000011" class="edge">
<title>Node11&#45;&gt;Node10</title>
<g id="a_edge11_Node000010_Node000011"><a xlink:title=" ">
<path fill="none" stroke="#9a32cd" stroke-dasharray="5,2" d="M413.5,-121.58C413.5,-109.63 413.5,-94.72 413.5,-85.41"/>
<polygon fill="#9a32cd" stroke="#9a32cd" points="410,-121.87 413.5,-131.87 417,-121.87 410,-121.87"/>
</a>
</g>
<text text-anchor="middle" x="430.5" y="-106" font-family="Helvetica,sans-Serif" font-size="10.00" fill="grey"> layout</text>
</g>
<!-- Node12 -->
<g id="Node000012" class="node">
<title>Node12</title>
<g id="a_Node000012"><a xlink:href="structDMPlexPatchExchange.html" target="_top" xlink:title="MPI coordinate exchange for cross&#45;rank patch stencil nodes.">
<polygon fill="white" stroke="#666666" points="616.5,-151 488.5,-151 488.5,-132 616.5,-132 616.5,-151"/>
<text text-anchor="middle" x="552.5" y="-139" font-family="Helvetica,sans-Serif" font-size="10.00">DMPlexPatchExchange</text>
</a>
</g>
</g>
<!-- Node12&#45;&gt;Node10 -->
<g id="edge12_Node000010_Node000012" class="edge">
<title>Node12&#45;&gt;Node10</title>
<g id="a_edge12_Node000010_Node000012"><a xlink:title=" ">
<path fill="none" stroke="#9a32cd" stroke-dasharray="5,2" d="M524.33,-127.53C496.93,-114.92 456.09,-96.11 432.39,-85.2"/>
<polygon fill="#9a32cd" stroke="#9a32cd" points="523.21,-130.87 533.75,-131.87 526.13,-124.51 523.21,-130.87"/>
</a>
</g>
<text text-anchor="middle" x="516" y="-106" font-family="Helvetica,sans-Serif" font-size="10.00" fill="grey"> exchange</text>
</g>
<!-- Node13&#45;&gt;Node1 -->
<g id="edge13_Node000001_Node000013" class="edge">
<title>Node13&#45;&gt;Node1</title>
<g id="a_edge13_Node000001_Node000013"><a xlink:title=" ">
<path fill="none" stroke="#9a32cd" stroke-dasharray="5,2" d="M333.07,-209.85C332.04,-164.82 329.44,-51.53 328.7,-19.22"/>
<polygon fill="#9a32cd" stroke="#9a32cd" points="329.58,-210.04 333.3,-219.95 336.57,-209.88 329.58,-210.04"/>
</a>
</g>
<text text-anchor="middle" x="342.5" y="-106" font-family="Helvetica,sans-Serif" font-size="10.00" fill="grey"> ibm</text>
</g>
</g>
</svg>

<g id="navigator" transform="translate(0 0)" fill="#404254">
  <rect fill="#f2f5e9" fill-opacity="0.5" stroke="#606060" stroke-width=".5" x="0" y="0" width="60" height="60"/>
  <use id="zoomplus" xlink:href="#zoomPlus" x="17" y="9" onmousedown="handleZoom(evt,'in')"/>
  <use id="zoomminus" xlink:href="#zoomMin" x="42" y="9" onmousedown="handleZoom(evt,'out')"/>
  <use id="reset" xlink:href="#resetDef" x="30" y="36" onmousedown="handleReset()"/>
   <use id="arrowup" xlink:href="#arrowUp" x="0" y="0" onmousedown="handlePan(0,-1)"/>
  <use id="arrowright" xlink:href="#arrowRight" x="0" y="0" onmousedown="handlePan(1,0)"/>
  <use id="arrowdown" xlink:href="#arrowDown" x="0" y="0" onmousedown="handlePan(0,1)"/>
  <use id="arrowleft" xlink:href="#arrowLeft" x="0" y="0" onmousedown="handlePan(-1,0)"/>
</g>
<svg viewBox="0 0 15 15" width="100%" height="30px" preserveAspectRatio="xMaxYMin meet">
 <g id="arrow_out" transform="scale(0.3 0.3)">
  <a xlink:href="structFE__coll__graph_org.svg" target="_base">
   <rect id="button" ry="5" rx="5" y="6" x="6" height="38" width="38"
        fill="#f2f5e9" fill-opacity="0.5" stroke="#606060" stroke-width="1.0"/>
   <path id="arrow"
     d="M 11.500037,31.436501 C 11.940474,20.09759 22.043105,11.32322 32.158766,21.979434 L 37.068811,17.246167 C 37.068811,17.246167 37.088388,32 37.088388,32 L 22.160133,31.978069 C 22.160133,31.978069 26.997745,27.140456 26.997745,27.140456 C 18.528582,18.264221 13.291696,25.230495 11.500037,31.436501 z"
     style="fill:#404040;"/>
  </a>
 </g>
</svg>

<style type='text/css'>
<![CDATA[
[data-mouse-over-selected='false'] { opacity: 0.7; }
[data-mouse-over-selected='true']  { opacity: 1.0; }
]]>
</style>
<script type="application/ecmascript"><![CDATA[
document.addEventListener('DOMContentLoaded', (event) => {
  highlightEdges();
  highlightAdjacentNodes();
});
]]></script>
</svg>
