<?xml version="1.0" encoding="UTF-8" standalone="no"?>
<!DOCTYPE svg PUBLIC "-//W3C//DTD SVG 1.1//EN"
 "http://www.w3.org/Graphics/SVG/1.1/DTD/svg11.dtd">
<!-- Generated by graphviz version 2.43.0 (0)
 -->
<!-- Title: ElemActData Pages: 1 -->
<svg width="368pt" height="346pt"
 viewBox="0.00 0.00 367.50 346.00" xmlns="http://www.w3.org/2000/svg" xmlns:xlink="http://www.w3.org/1999/xlink">
<g id="graph0" class="graph" transform="scale(1 1) rotate(0) translate(4 342)">
<title>ElemActData</title>
<!-- Node1 -->
<g id="Node000001" class="node">
<title>Node1</title>
<g id="a_Node000001"><a xlink:title="Element&#45;level active&#45;strain tensors, stresses, and cached basis/geometry.">
<polygon fill="#999999" stroke="#666666" points="205.5,-19 125.5,-19 125.5,0 205.5,0 205.5,-19"/>
<text text-anchor="middle" x="165.5" y="-7" font-family="Helvetica,sans-Serif" font-size="10.00">ElemActData</text>
</a>
</g>
</g>
<!-- Node2 -->
<g id="Node000002" class="node">
<title>Node2</title>
<g id="a_Node000002"><a xlink:href="structElem2DTens.html" target="_top" xlink:title="Second&#45;order tensor in covariant and contravariant forms.">
<polygon fill="white" stroke="#666666" points="77,-195 0,-195 0,-176 77,-176 77,-195"/>
<text text-anchor="middle" x="38.5" y="-183" font-family="Helvetica,sans-Serif" font-size="10.00">Elem2DTens</text>
</a>
</g>
</g>
<!-- Node2&#45;&gt;Node1 -->
<g id="edge1_Node000001_Node000002" class="edge">
<title>Node2&#45;&gt;Node1</title>
<g id="a_edge1_Node000001_Node000002"><a xlink:title=" ">
<path fill="none" stroke="#9a32cd" stroke-dasharray="5,2" d="M41.29,-165.67C46.81,-134.79 61.92,-73.22 98.5,-37 106.77,-28.81 117.87,-23.08 128.66,-19.09"/>
<polygon fill="#9a32cd" stroke="#9a32cd" points="37.78,-165.45 39.62,-175.88 44.69,-166.58 37.78,-165.45"/>
</a>
</g>
<text text-anchor="middle" x="115.5" y="-150" font-family="Helvetica,sans-Serif" font-size="10.00" fill="grey"> C</text>
<text text-anchor="middle" x="115.5" y="-139" font-family="Helvetica,sans-Serif" font-size="10.00" fill="grey">C_inv</text>
<text text-anchor="middle" x="115.5" y="-128" font-family="Helvetica,sans-Serif" font-size="10.00" fill="grey">Ce</text>
<text text-anchor="middle" x="115.5" y="-117" font-family="Helvetica,sans-Serif" font-size="10.00" fill="grey">Ce_inv</text>
<text text-anchor="middle" x="115.5" y="-106" font-family="Helvetica,sans-Serif" font-size="10.00" fill="grey">Fa</text>
<text text-anchor="middle" x="115.5" y="-95" font-family="Helvetica,sans-Serif" font-size="10.00" fill="grey">Fa_inv</text>
<text text-anchor="middle" x="115.5" y="-84" font-family="Helvetica,sans-Serif" font-size="10.00" fill="grey">S</text>
<text text-anchor="middle" x="115.5" y="-73" font-family="Helvetica,sans-Serif" font-size="10.00" fill="grey">Se</text>
<text text-anchor="middle" x="115.5" y="-62" font-family="Helvetica,sans-Serif" font-size="10.00" fill="grey">gm</text>
<text text-anchor="middle" x="115.5" y="-51" font-family="Helvetica,sans-Serif" font-size="10.00" fill="grey">gm0</text>
<text text-anchor="middle" x="115.5" y="-40" font-family="Helvetica,sans-Serif" font-size="10.00" fill="grey">...</text>
</g>
<!-- Node3 -->
<g id="Node000003" class="node">
<title>Node3</title>
<g id="a_Node000003"><a xlink:href="structElem4DTens.html" target="_top" xlink:title="Fourth&#45;order tensor (for example, material tangent).">
<polygon fill="white" stroke="#666666" points="172,-195 95,-195 95,-176 172,-176 172,-195"/>
<text text-anchor="middle" x="133.5" y="-183" font-family="Helvetica,sans-Serif" font-size="10.00">Elem4DTens</text>
</a>
</g>
</g>
<!-- Node3&#45;&gt;Node1 -->
<g id="edge2_Node000001_Node000003" class="edge">
<title>Node3&#45;&gt;Node1</title>
<g id="a_edge2_Node000001_Node000003"><a xlink:title=" ">
<path fill="none" stroke="#9a32cd" stroke-dasharray="5,2" d="M135.02,-165.64C137.59,-137.34 143.7,-82.37 155.5,-37 157.08,-30.91 159.58,-24.28 161.69,-19.18"/>
<polygon fill="#9a32cd" stroke="#9a32cd" points="131.52,-165.46 134.15,-175.73 138.5,-166.06 131.52,-165.46"/>
</a>
</g>
<text text-anchor="middle" x="165.5" y="-100.5" font-family="Helvetica,sans-Serif" font-size="10.00" fill="grey"> CC</text>
<text text-anchor="middle" x="165.5" y="-89.5" font-family="Helvetica,sans-Serif" font-size="10.00" fill="grey">CCe</text>
</g>
<!-- Node4 -->
<g id="Node000004" class="node">
<title>Node4</title>
<g id="a_Node000004"><a xlink:href="structElemVec.html" target="_top" xlink:title="Vector in covariant and contravariant forms.">
<polygon fill="white" stroke="#666666" points="249,-195 190,-195 190,-176 249,-176 249,-195"/>
<text text-anchor="middle" x="219.5" y="-183" font-family="Helvetica,sans-Serif" font-size="10.00">ElemVec</text>
</a>
</g>
</g>
<!-- Node4&#45;&gt;Node1 -->
<g id="edge3_Node000001_Node000004" class="edge">
<title>Node4&#45;&gt;Node1</title>
<g id="a_edge3_Node000001_Node000004"><a xlink:title=" ">
<path fill="none" stroke="#9a32cd" stroke-dasharray="5,2" d="M214.48,-166.14C206.7,-138.11 191.03,-83.05 175.5,-37 173.49,-31.04 170.99,-24.41 168.99,-19.28"/>
<polygon fill="#9a32cd" stroke="#9a32cd" points="211.1,-167.08 217.13,-175.79 217.85,-165.22 211.1,-167.08"/>
</a>
</g>
<text text-anchor="middle" x="219" y="-100.5" font-family="Helvetica,sans-Serif" font-size="10.00" fill="grey"> g</text>
<text text-anchor="middle" x="219" y="-89.5" font-family="Helvetica,sans-Serif" font-size="10.00" fill="grey">g0</text>
</g>
<!-- Node5 -->
<g id="Node000005" class="node">
<title>Node5</title>
<g id="a_Node000005"><a xlink:href="structCmpnts.html" target="_top" xlink:title=" ">
<polygon fill="white" stroke="#666666" points="292.5,-338 238.5,-338 238.5,-319 292.5,-319 292.5,-338"/>
<text text-anchor="middle" x="265.5" y="-326" font-family="Helvetica,sans-Serif" font-size="10.00">Cmpnts</text>
</a>
</g>
</g>
<!-- Node5&#45;&gt;Node4 -->
<g id="edge4_Node000004_Node000005" class="edge">
<title>Node5&#45;&gt;Node4</title>
<g id="a_edge4_Node000004_Node000005"><a xlink:title=" ">
<path fill="none" stroke="#9a32cd" stroke-dasharray="5,2" d="M257.03,-309.68C255.78,-306.8 254.56,-303.84 253.5,-301 239.08,-262.34 226.53,-214.59 221.66,-195.25"/>
<polygon fill="#9a32cd" stroke="#9a32cd" points="253.86,-311.15 261.19,-318.79 260.22,-308.24 253.86,-311.15"/>
</a>
</g>
<text text-anchor="middle" x="266.5" y="-260" font-family="Helvetica,sans-Serif" font-size="10.00" fill="grey"> Cont</text>
<text text-anchor="middle" x="266.5" y="-249" font-family="Helvetica,sans-Serif" font-size="10.00" fill="grey">Cov</text>
</g>
<!-- Node6 -->
<g id="Node000006" class="node">
<title>Node6</title>
<g id="a_Node000006"><a xlink:href="structSubdivGeomQP.html" target="_top" xlink:title="Cached subdivision&#45;surface geometry quantities at one quadrature point.">
<polygon fill="white" stroke="#666666" points="359.5,-195 267.5,-195 267.5,-176 359.5,-176 359.5,-195"/>
<text text-anchor="middle" x="313.5" y="-183" font-family="Helvetica,sans-Serif" font-size="10.00">SubdivGeomQP</text>
</a>
</g>
</g>
<!-- Node5&#45;&gt;Node6 -->
<g id="edge6_Node000006_Node000005" class="edge">
<title>Node5&#45;&gt;Node6</title>
<g id="a_edge6_Node000006_Node000005"><a xlink:title=" ">
<path fill="none" stroke="#9a32cd" stroke-dasharray="5,2" d="M275.33,-310.06C276.83,-307.08 278.28,-303.99 279.5,-301 295.17,-262.6 307.11,-214.31 311.58,-195.03"/>
<polygon fill="#9a32cd" stroke="#9a32cd" points="272.25,-308.41 270.61,-318.88 278.42,-311.71 272.25,-308.41"/>
</a>
</g>
<text text-anchor="middle" x="322" y="-293" font-family="Helvetica,sans-Serif" font-size="10.00" fill="grey"> Aaa</text>
<text text-anchor="middle" x="322" y="-282" font-family="Helvetica,sans-Serif" font-size="10.00" fill="grey">Aab</text>
<text text-anchor="middle" x="322" y="-271" font-family="Helvetica,sans-Serif" font-size="10.00" fill="grey">Abb</text>
<text text-anchor="middle" x="322" y="-260" font-family="Helvetica,sans-Serif" font-size="10.00" fill="grey">gc1</text>
<text text-anchor="middle" x="322" y="-249" font-family="Helvetica,sans-Serif" font-size="10.00" fill="grey">gc2</text>
<text text-anchor="middle" x="322" y="-238" font-family="Helvetica,sans-Serif" font-size="10.00" fill="grey">ndx21</text>
<text text-anchor="middle" x="322" y="-227" font-family="Helvetica,sans-Serif" font-size="10.00" fill="grey">ndx31</text>
<text text-anchor="middle" x="322" y="-216" font-family="Helvetica,sans-Serif" font-size="10.00" fill="grey">nn</text>
</g>
<!-- Node6&#45;&gt;Node1 -->
<g id="edge5_Node000001_Node000006" class="edge">
<title>Node6&#45;&gt;Node1</title>
<g id="a_edge5_Node000001_Node000006"><a xlink:title=" ">
<path fill="none" stroke="#9a32cd" stroke-dasharray="5,2" d="M307.49,-166.09C296.61,-135.38 270.83,-73.46 229.5,-37 220.39,-28.97 208.51,-23.15 197.46,-19.04"/>
<polygon fill="#9a32cd" stroke="#9a32cd" points="304.3,-167.55 310.83,-175.89 310.92,-165.3 304.3,-167.55"/>
</a>
</g>
<text text-anchor="middle" x="320.5" y="-100.5" font-family="Helvetica,sans-Serif" font-size="10.00" fill="grey"> geom</text>
<text text-anchor="middle" x="320.5" y="-89.5" font-family="Helvetica,sans-Serif" font-size="10.00" fill="grey">geom0</text>
</g>
</g>
</svg>
