<?xml version="1.0" encoding="UTF-8" standalone="no"?>
<!DOCTYPE svg PUBLIC "-//W3C//DTD SVG 1.1//EN"
 "http://www.w3.org/Graphics/SVG/1.1/DTD/svg11.dtd">
<!-- Generated by graphviz version 2.43.0 (0)
 -->
<!-- Title: variables.h Pages: 1 -->
<!--zoomable 159 -->

<svg id="main" version="1.1" xmlns="http://www.w3.org/2000/svg" xmlns:xlink="http://www.w3.org/1999/xlink" xml:space="preserve" onload="init(evt)">
<style type="text/css"><![CDATA[
.node, .edge {opacity: 0.7;}
.node.selected, .edge.selected {opacity: 1;}
.edge:hover path { stroke: red; }
.edge:hover polygon { stroke: red; fill: red; }
]]></style>

<defs>
  <circle id="rim" cx="0" cy="0" r="7"/>
  <circle id="rim2" cx="0" cy="0" r="3.5"/>
  <g id="zoomPlus">
    <use xlink:href="#rim" fill="#404040"><set attributeName="fill" to="#808080" begin="zoomplus.mouseover" end="zoomplus.mouseout"/></use>
    <path d="M-4,0h8M0,-4v8" fill="none" stroke="white" stroke-width="1.5" pointer-events="none"/>
  </g>
  <g id="zoomMin">
    <use xlink:href="#rim" fill="#404040"><set attributeName="fill" to="#808080" begin="zoomminus.mouseover" end="zoomminus.mouseout"/></use>
    <path d="M-4,0h8" fill="none" stroke="white" stroke-width="1.5" pointer-events="none"/>
  </g>
  <g id="arrowUp" transform="translate(30 24)">
    <use xlink:href="#rim"/>
    <path pointer-events="none" fill="none" stroke="white" stroke-width="1.5" d="M0,-3.0v7 M-2.5,-0.5L0,-3.0L2.5,-0.5"/>
  </g>
  <g id="arrowRight" transform="rotate(90) translate(36 -43)">
    <use xlink:href="#rim"/>
    <path pointer-events="none" fill="none" stroke="white" stroke-width="1.5" d="M0,-3.0v7 M-2.5,-0.5L0,-3.0L2.5,-0.5"/>
  </g>
  <g id="arrowDown" transform="rotate(180) translate(-30 -48)">
    <use xlink:href="#rim"/>
    <path pointer-events="none" fill="none" stroke="white" stroke-width="1.5" d="M0,-3.0v7 M-2.5,-0.5L0,-3.0L2.5,-0.5"/>
  </g>
  <g id="arrowLeft" transform="rotate(270) translate(-36 17)">
    <use xlink:href="#rim"/>
    <path pointer-events="none" fill="none" stroke="white" stroke-width="1.5" d="M0,-3.0v7 M-2.5,-0.5L0,-3.0L2.5,-0.5"/>
  </g>
  <g id="resetDef">
    <use xlink:href="#rim2" fill="#404040"><set attributeName="fill" to="#808080" begin="reset.mouseover" end="reset.mouseout"/></use>
  </g>
</defs>
<script type="application/ecmascript">
var viewWidth = 2567;
var viewHeight = 159;
var sectionId = 'dynsection-1';
</script>
<script type="application/ecmascript" xlink:href="svg.min.js"/>
<svg id="graph" class="graph">
<g id="viewport">
<title>variables.h</title>
<!-- Node1 -->
<g id="Node000001" class="node">
<title>Node1</title>
<g id="a_Node000001"><a xlink:title=" ">
<polygon fill="#999999" stroke="#666666" points="1286,-151 1215,-151 1215,-132 1286,-132 1286,-151"/>
<text text-anchor="middle" x="1250.5" y="-139" font-family="Helvetica,sans-Serif" font-size="10.00">variables.h</text>
</a>
</g>
</g>
<!-- Node2 -->
<g id="Node000002" class="node">
<title>Node2</title>
<g id="a_Node000002"><a xlink:href="PyCaller_8c.html" target="_top" xlink:title=" ">
<polygon fill="white" stroke="#666666" points="160,-90.5 95,-90.5 95,-71.5 160,-71.5 160,-90.5"/>
<text text-anchor="middle" x="127.5" y="-78.5" font-family="Helvetica,sans-Serif" font-size="10.00">PyCaller.c</text>
</a>
</g>
</g>
<!-- Node1&#45;&gt;Node2 -->
<g id="edge1_Node000001_Node000002" class="edge">
<title>Node1&#45;&gt;Node2</title>
<g id="a_edge1_Node000001_Node000002"><a xlink:title=" ">
<path fill="none" stroke="#63b8ff" d="M1204.67,-140.12C1026.16,-138.39 377.35,-129.86 174.5,-96 167.11,-94.77 159.25,-92.73 152.11,-90.58"/>
<polygon fill="#63b8ff" stroke="#63b8ff" points="1204.73,-143.62 1214.77,-140.21 1204.8,-136.62 1204.73,-143.62"/>
</a>
</g>
</g>
<!-- Node3 -->
<g id="Node000003" class="node">
<title>Node3</title>
<g id="a_Node000003"><a xlink:href="active__strain_8c.html" target="_top" xlink:title="Implementation of muscle activation on shell elements using the active&#45;strain approach.">
<polygon fill="white" stroke="#666666" points="201.5,-24.5 113.5,-24.5 113.5,-5.5 201.5,-5.5 201.5,-24.5"/>
<text text-anchor="middle" x="157.5" y="-12.5" font-family="Helvetica,sans-Serif" font-size="10.00">active_strain.c</text>
</a>
</g>
</g>
<!-- Node1&#45;&gt;Node3 -->
<g id="edge2_Node000001_Node000003" class="edge">
<title>Node1&#45;&gt;Node3</title>
<g id="a_edge2_Node000001_Node000003"><a xlink:title=" ">
<path fill="none" stroke="#63b8ff" d="M1204.56,-139.73C1008.66,-136.29 251.11,-121.4 207.5,-96 179.9,-79.93 165.34,-41.92 159.96,-24.72"/>
<polygon fill="#63b8ff" stroke="#63b8ff" points="1204.74,-143.23 1214.8,-139.91 1204.86,-136.23 1204.74,-143.23"/>
</a>
</g>
</g>
<!-- Node4 -->
<g id="Node000004" class="node">
<title>Node4</title>
<g id="a_Node000004"><a xlink:href="bcs_8c.html" target="_top" xlink:title=" ">
<polygon fill="white" stroke="#666666" points="1236,-90.5 1195,-90.5 1195,-71.5 1236,-71.5 1236,-90.5"/>
<text text-anchor="middle" x="1215.5" y="-78.5" font-family="Helvetica,sans-Serif" font-size="10.00">bcs.c</text>
</a>
</g>
</g>
<!-- Node1&#45;&gt;Node4 -->
<g id="edge3_Node000001_Node000004" class="edge">
<title>Node1&#45;&gt;Node4</title>
<g id="a_edge3_Node000001_Node000004"><a xlink:title=" ">
<path fill="none" stroke="#63b8ff" d="M1240.02,-122.98C1233.63,-112.31 1225.76,-99.15 1220.69,-90.67"/>
<polygon fill="#63b8ff" stroke="#63b8ff" points="1237.2,-125.08 1245.34,-131.87 1243.2,-121.49 1237.2,-125.08"/>
</a>
</g>
</g>
<!-- Node5 -->
<g id="Node000005" class="node">
<title>Node5</title>
<g id="a_Node000005"><a xlink:href="bending_8c.html" target="_top" xlink:title=" ">
<polygon fill="white" stroke="#666666" points="1318.5,-90.5 1254.5,-90.5 1254.5,-71.5 1318.5,-71.5 1318.5,-90.5"/>
<text text-anchor="middle" x="1286.5" y="-78.5" font-family="Helvetica,sans-Serif" font-size="10.00">bending.c</text>
</a>
</g>
</g>
<!-- Node1&#45;&gt;Node5 -->
<g id="edge4_Node000001_Node000005" class="edge">
<title>Node1&#45;&gt;Node5</title>
<g id="a_edge4_Node000001_Node000005"><a xlink:title=" ">
<path fill="none" stroke="#63b8ff" d="M1261.08,-123.3C1267.68,-112.58 1275.89,-99.23 1281.17,-90.67"/>
<polygon fill="#63b8ff" stroke="#63b8ff" points="1258.07,-121.52 1255.81,-131.87 1264.03,-125.19 1258.07,-121.52"/>
</a>
</g>
</g>
<!-- Node6 -->
<g id="Node000006" class="node">
<title>Node6</title>
<g id="a_Node000006"><a xlink:href="contact_8c.html" target="_top" xlink:title=" ">
<polygon fill="white" stroke="#666666" points="1398,-90.5 1337,-90.5 1337,-71.5 1398,-71.5 1398,-90.5"/>
<text text-anchor="middle" x="1367.5" y="-78.5" font-family="Helvetica,sans-Serif" font-size="10.00">contact.c</text>
</a>
</g>
</g>
<!-- Node1&#45;&gt;Node6 -->
<g id="edge5_Node000001_Node000006" class="edge">
<title>Node1&#45;&gt;Node6</title>
<g id="a_edge5_Node000001_Node000006"><a xlink:title=" ">
<path fill="none" stroke="#63b8ff" d="M1276.54,-127.48C1299.08,-116.21 1331.05,-100.23 1350.47,-90.52"/>
<polygon fill="#63b8ff" stroke="#63b8ff" points="1274.89,-124.39 1267.51,-131.99 1278.02,-130.65 1274.89,-124.39"/>
</a>
</g>
</g>
<!-- Node7 -->
<g id="Node000007" class="node">
<title>Node7</title>
<g id="a_Node000007"><a xlink:href="cuda__bridge_8h.html" target="_top" xlink:title=" ">
<polygon fill="white" stroke="#666666" points="415,-90.5 330,-90.5 330,-71.5 415,-71.5 415,-90.5"/>
<text text-anchor="middle" x="372.5" y="-78.5" font-family="Helvetica,sans-Serif" font-size="10.00">cuda_bridge.h</text>
</a>
</g>
</g>
<!-- Node1&#45;&gt;Node7 -->
<g id="edge6_Node000001_Node000007" class="edge">
<title>Node1&#45;&gt;Node7</title>
<g id="a_edge6_Node000001_Node000007"><a xlink:title=" ">
<path fill="none" stroke="#63b8ff" d="M1204.56,-139.32C1053.9,-135.26 575.79,-120.71 423.5,-96 415.52,-94.71 407.01,-92.65 399.26,-90.5"/>
<polygon fill="#63b8ff" stroke="#63b8ff" points="1204.74,-142.83 1214.83,-139.6 1204.93,-135.83 1204.74,-142.83"/>
</a>
</g>
</g>
<!-- Node11 -->
<g id="Node000011" class="node">
<title>Node11</title>
<g id="a_Node000011"><a xlink:href="main_8c.html" target="_top" xlink:title=" ">
<polygon fill="white" stroke="#666666" points="603.5,-24.5 553.5,-24.5 553.5,-5.5 603.5,-5.5 603.5,-24.5"/>
<text text-anchor="middle" x="578.5" y="-12.5" font-family="Helvetica,sans-Serif" font-size="10.00">main.c</text>
</a>
</g>
</g>
<!-- Node1&#45;&gt;Node11 -->
<g id="edge35_Node000001_Node000011" class="edge">
<title>Node1&#45;&gt;Node11</title>
<g id="a_edge35_Node000001_Node000011"><a xlink:title=" ">
<path fill="none" stroke="#63b8ff" d="M1204.39,-140.86C1060.57,-141.52 627.14,-139.82 583.5,-96 564.65,-77.07 571.26,-41.53 575.75,-24.95"/>
<polygon fill="#63b8ff" stroke="#63b8ff" points="1204.65,-144.36 1214.64,-140.81 1204.62,-137.36 1204.65,-144.36"/>
</a>
</g>
</g>
<!-- Node12 -->
<g id="Node000012" class="node">
<title>Node12</title>
<g id="a_Node000012"><a xlink:href="cuda__processes_8h.html" target="_top" xlink:title=" ">
<polygon fill="white" stroke="#666666" points="536,-90.5 433,-90.5 433,-71.5 536,-71.5 536,-90.5"/>
<text text-anchor="middle" x="484.5" y="-78.5" font-family="Helvetica,sans-Serif" font-size="10.00">cuda_processes.h</text>
</a>
</g>
</g>
<!-- Node1&#45;&gt;Node12 -->
<g id="edge12_Node000001_Node000012" class="edge">
<title>Node1&#45;&gt;Node12</title>
<g id="a_edge12_Node000001_Node000012"><a xlink:title=" ">
<path fill="none" stroke="#63b8ff" d="M1204.73,-139.89C1092.64,-137.9 795.64,-129.61 550.5,-96 540.52,-94.63 529.8,-92.6 519.96,-90.51"/>
<polygon fill="#63b8ff" stroke="#63b8ff" points="1204.93,-143.39 1214.99,-140.06 1205.05,-136.4 1204.93,-143.39"/>
</a>
</g>
</g>
<!-- Node13 -->
<g id="Node000013" class="node">
<title>Node13</title>
<g id="a_Node000013"><a xlink:href="dmplex__geom_8h.html" target="_top" xlink:title=" ">
<polygon fill="white" stroke="#666666" points="312,-90.5 217,-90.5 217,-71.5 312,-71.5 312,-90.5"/>
<text text-anchor="middle" x="264.5" y="-78.5" font-family="Helvetica,sans-Serif" font-size="10.00">dmplex_geom.h</text>
</a>
</g>
</g>
<!-- Node1&#45;&gt;Node13 -->
<g id="edge15_Node000001_Node000013" class="edge">
<title>Node1&#45;&gt;Node13</title>
<g id="a_edge15_Node000001_Node000013"><a xlink:title=" ">
<path fill="none" stroke="#63b8ff" d="M1204.65,-139.5C1042.14,-135.78 494.09,-121.6 320.5,-96 311.78,-94.71 302.43,-92.66 293.93,-90.51"/>
<polygon fill="#63b8ff" stroke="#63b8ff" points="1204.71,-143.01 1214.79,-139.73 1204.87,-136.01 1204.71,-143.01"/>
</a>
</g>
</g>
<!-- Node15 -->
<g id="Node000015" class="node">
<title>Node15</title>
<g id="a_Node000015"><a xlink:href="external_8c.html" target="_top" xlink:title=" ">
<polygon fill="white" stroke="#666666" points="1481,-90.5 1416,-90.5 1416,-71.5 1481,-71.5 1481,-90.5"/>
<text text-anchor="middle" x="1448.5" y="-78.5" font-family="Helvetica,sans-Serif" font-size="10.00">external.c</text>
</a>
</g>
</g>
<!-- Node1&#45;&gt;Node15 -->
<g id="edge19_Node000001_Node000015" class="edge">
<title>Node1&#45;&gt;Node15</title>
<g id="a_edge19_Node000001_Node000015"><a xlink:title=" ">
<path fill="none" stroke="#63b8ff" d="M1292.35,-129.29C1324.08,-120.63 1368.7,-108.11 1407.5,-96 1412.96,-94.3 1418.79,-92.37 1424.29,-90.5"/>
<polygon fill="#63b8ff" stroke="#63b8ff" points="1291.25,-125.96 1282.52,-131.96 1293.09,-132.71 1291.25,-125.96"/>
</a>
</g>
</g>
<!-- Node16 -->
<g id="Node000016" class="node">
<title>Node16</title>
<g id="a_Node000016"><a xlink:href="globals_8h.html" target="_top" xlink:title=" ">
<polygon fill="white" stroke="#666666" points="1560,-90.5 1499,-90.5 1499,-71.5 1560,-71.5 1560,-90.5"/>
<text text-anchor="middle" x="1529.5" y="-78.5" font-family="Helvetica,sans-Serif" font-size="10.00">globals.h</text>
</a>
</g>
</g>
<!-- Node1&#45;&gt;Node16 -->
<g id="edge20_Node000001_Node000016" class="edge">
<title>Node1&#45;&gt;Node16</title>
<g id="a_edge20_Node000001_Node000016"><a xlink:title=" ">
<path fill="none" stroke="#63b8ff" d="M1296.19,-134.27C1344.84,-127.12 1423.85,-114.01 1490.5,-96 1496.06,-94.5 1501.95,-92.57 1507.42,-90.62"/>
<polygon fill="#63b8ff" stroke="#63b8ff" points="1295.68,-130.81 1286.28,-135.71 1296.68,-137.74 1295.68,-130.81"/>
</a>
</g>
</g>
<!-- Node17 -->
<g id="Node000017" class="node">
<title>Node17</title>
<g id="a_Node000017"><a xlink:href="inverse_8c.html" target="_top" xlink:title=" ">
<polygon fill="white" stroke="#666666" points="1639,-90.5 1578,-90.5 1578,-71.5 1639,-71.5 1639,-90.5"/>
<text text-anchor="middle" x="1608.5" y="-78.5" font-family="Helvetica,sans-Serif" font-size="10.00">inverse.c</text>
</a>
</g>
</g>
<!-- Node1&#45;&gt;Node17 -->
<g id="edge21_Node000001_Node000017" class="edge">
<title>Node1&#45;&gt;Node17</title>
<g id="a_edge21_Node000001_Node000017"><a xlink:title=" ">
<path fill="none" stroke="#63b8ff" d="M1296.67,-137.06C1359.22,-131.73 1474.04,-119.53 1569.5,-96 1575.37,-94.55 1581.58,-92.55 1587.29,-90.51"/>
<polygon fill="#63b8ff" stroke="#63b8ff" points="1296.03,-133.6 1286.36,-137.92 1296.61,-140.58 1296.03,-133.6"/>
</a>
</g>
</g>
<!-- Node18 -->
<g id="Node000018" class="node">
<title>Node18</title>
<g id="a_Node000018"><a xlink:href="io_8c.html" target="_top" xlink:title=" ">
<polygon fill="white" stroke="#666666" points="1691.5,-90.5 1657.5,-90.5 1657.5,-71.5 1691.5,-71.5 1691.5,-90.5"/>
<text text-anchor="middle" x="1674.5" y="-78.5" font-family="Helvetica,sans-Serif" font-size="10.00">io.c</text>
</a>
</g>
</g>
<!-- Node1&#45;&gt;Node18 -->
<g id="edge22_Node000001_Node000018" class="edge">
<title>Node1&#45;&gt;Node18</title>
<g id="a_edge22_Node000001_Node000018"><a xlink:title=" ">
<path fill="none" stroke="#63b8ff" d="M1296.1,-140.98C1371.28,-140.55 1525.21,-134.49 1648.5,-96 1652.71,-94.69 1657.02,-92.67 1660.9,-90.58"/>
<polygon fill="#63b8ff" stroke="#63b8ff" points="1296.01,-137.48 1286.02,-141.01 1296.03,-144.48 1296.01,-137.48"/>
</a>
</g>
</g>
<!-- Node19 -->
<g id="Node000019" class="node">
<title>Node19</title>
<g id="a_Node000019"><a xlink:href="kokkos__bridge_8h.html" target="_top" xlink:title=" ">
<polygon fill="white" stroke="#666666" points="1034,-90.5 939,-90.5 939,-71.5 1034,-71.5 1034,-90.5"/>
<text text-anchor="middle" x="986.5" y="-78.5" font-family="Helvetica,sans-Serif" font-size="10.00">kokkos_bridge.h</text>
</a>
</g>
</g>
<!-- Node1&#45;&gt;Node19 -->
<g id="edge23_Node000001_Node000019" class="edge">
<title>Node1&#45;&gt;Node19</title>
<g id="a_edge23_Node000001_Node000019"><a xlink:title=" ">
<path fill="none" stroke="#63b8ff" d="M1204.98,-131.11C1162.98,-122.36 1098.93,-108.76 1043.5,-96 1036.05,-94.29 1028.08,-92.37 1020.52,-90.53"/>
<polygon fill="#63b8ff" stroke="#63b8ff" points="1204.4,-134.57 1214.9,-133.18 1205.82,-127.71 1204.4,-134.57"/>
</a>
</g>
</g>
<!-- Node23 -->
<g id="Node000023" class="node">
<title>Node23</title>
<g id="a_Node000023"><a xlink:href="kokkos__processes_8h.html" target="_top" xlink:title=" ">
<polygon fill="white" stroke="#666666" points="844,-90.5 731,-90.5 731,-71.5 844,-71.5 844,-90.5"/>
<text text-anchor="middle" x="787.5" y="-78.5" font-family="Helvetica,sans-Serif" font-size="10.00">kokkos_processes.h</text>
</a>
</g>
</g>
<!-- Node1&#45;&gt;Node23 -->
<g id="edge28_Node000001_Node000023" class="edge">
<title>Node1&#45;&gt;Node23</title>
<g id="a_edge28_Node000001_Node000023"><a xlink:title=" ">
<path fill="none" stroke="#63b8ff" d="M1204.7,-136.52C1131.37,-129.88 983.17,-115.33 858.5,-96 848.57,-94.46 837.91,-92.51 827.95,-90.57"/>
<polygon fill="#63b8ff" stroke="#63b8ff" points="1204.69,-140.04 1214.97,-137.45 1205.32,-133.07 1204.69,-140.04"/>
</a>
</g>
</g>
<!-- Node24 -->
<g id="Node000024" class="node">
<title>Node24</title>
<g id="a_Node000024"><a xlink:href="lv__geometry_8c.html" target="_top" xlink:title=" ">
<polygon fill="white" stroke="#666666" points="1340,-24.5 1255,-24.5 1255,-5.5 1340,-5.5 1340,-24.5"/>
<text text-anchor="middle" x="1297.5" y="-12.5" font-family="Helvetica,sans-Serif" font-size="10.00">lv_geometry.c</text>
</a>
</g>
</g>
<!-- Node1&#45;&gt;Node24 -->
<g id="edge31_Node000001_Node000024" class="edge">
<title>Node1&#45;&gt;Node24</title>
<g id="a_edge31_Node000001_Node000024"><a xlink:title=" ">
<path fill="none" stroke="#63b8ff" d="M1219.69,-127.13C1206.99,-119.9 1193.61,-109.61 1186.5,-96 1180.32,-84.18 1179.26,-77.2 1186.5,-66 1196.08,-51.18 1240.4,-34.42 1270.05,-24.55"/>
<polygon fill="#63b8ff" stroke="#63b8ff" points="1218.23,-130.32 1228.71,-131.87 1221.48,-124.12 1218.23,-130.32"/>
</a>
</g>
</g>
<!-- Node25 -->
<g id="Node000025" class="node">
<title>Node25</title>
<g id="a_Node000025"><a xlink:href="lv__geometry_8h.html" target="_top" xlink:title=" ">
<polygon fill="white" stroke="#666666" points="1138.5,-90.5 1052.5,-90.5 1052.5,-71.5 1138.5,-71.5 1138.5,-90.5"/>
<text text-anchor="middle" x="1095.5" y="-78.5" font-family="Helvetica,sans-Serif" font-size="10.00">lv_geometry.h</text>
</a>
</g>
</g>
<!-- Node1&#45;&gt;Node25 -->
<g id="edge32_Node000001_Node000025" class="edge">
<title>Node1&#45;&gt;Node25</title>
<g id="a_edge32_Node000001_Node000025"><a xlink:title=" ">
<path fill="none" stroke="#63b8ff" d="M1218.38,-128.38C1188.42,-117.07 1144.48,-100.49 1118.07,-90.52"/>
<polygon fill="#63b8ff" stroke="#63b8ff" points="1217.37,-131.74 1227.96,-131.99 1219.84,-125.19 1217.37,-131.74"/>
</a>
</g>
</g>
<!-- Node26 -->
<g id="Node000026" class="node">
<title>Node26</title>
<g id="a_Node000026"><a xlink:href="manufactured__active__strain_8c.html" target="_top" xlink:title=" ">
<polygon fill="white" stroke="#666666" points="741.5,-30 621.5,-30 621.5,0 741.5,0 741.5,-30"/>
<text text-anchor="start" x="629.5" y="-18" font-family="Helvetica,sans-Serif" font-size="10.00">manufactured_active</text>
<text text-anchor="middle" x="681.5" y="-7" font-family="Helvetica,sans-Serif" font-size="10.00">_strain.c</text>
</a>
</g>
</g>
<!-- Node1&#45;&gt;Node26 -->
<g id="edge36_Node000001_Node000026" class="edge">
<title>Node1&#45;&gt;Node26</title>
<g id="a_edge36_Node000001_Node000026"><a xlink:title=" ">
<path fill="none" stroke="#63b8ff" d="M1204.67,-138.35C1119.9,-133.82 942.2,-121.53 886.5,-96 868.48,-87.74 870.8,-75.68 853.5,-66 833.96,-55.06 781.98,-40.61 740.24,-30.06"/>
<polygon fill="#63b8ff" stroke="#63b8ff" points="1204.61,-141.86 1214.77,-138.88 1204.97,-134.87 1204.61,-141.86"/>
</a>
</g>
</g>
<!-- Node27 -->
<g id="Node000027" class="node">
<title>Node27</title>
<g id="a_Node000027"><a xlink:href="manufactured__active__strain_8h.html" target="_top" xlink:title=" ">
<polygon fill="white" stroke="#666666" points="712.5,-96 592.5,-96 592.5,-66 712.5,-66 712.5,-96"/>
<text text-anchor="start" x="600.5" y="-84" font-family="Helvetica,sans-Serif" font-size="10.00">manufactured_active</text>
<text text-anchor="middle" x="652.5" y="-73" font-family="Helvetica,sans-Serif" font-size="10.00">_strain.h</text>
</a>
</g>
</g>
<!-- Node1&#45;&gt;Node27 -->
<g id="edge37_Node000001_Node000027" class="edge">
<title>Node1&#45;&gt;Node27</title>
<g id="a_edge37_Node000001_Node000027"><a xlink:title=" ">
<path fill="none" stroke="#63b8ff" d="M1204.74,-138.39C1112.94,-133.78 899.88,-121.13 722.5,-96 719.31,-95.55 716.05,-95.04 712.75,-94.5"/>
<polygon fill="#63b8ff" stroke="#63b8ff" points="1204.65,-141.89 1214.81,-138.89 1204.99,-134.9 1204.65,-141.89"/>
</a>
</g>
</g>
<!-- Node28 -->
<g id="Node000028" class="node">
<title>Node28</title>
<g id="a_Node000028"><a xlink:href="manufactured__active__strain__b_8c.html" target="_top" xlink:title=" ">
<polygon fill="white" stroke="#666666" points="879.5,-30 759.5,-30 759.5,0 879.5,0 879.5,-30"/>
<text text-anchor="start" x="767.5" y="-18" font-family="Helvetica,sans-Serif" font-size="10.00">manufactured_active</text>
<text text-anchor="middle" x="819.5" y="-7" font-family="Helvetica,sans-Serif" font-size="10.00">_strain_b.c</text>
</a>
</g>
</g>
<!-- Node1&#45;&gt;Node28 -->
<g id="edge42_Node000001_Node000028" class="edge">
<title>Node1&#45;&gt;Node28</title>
<g id="a_edge42_Node000001_Node000028"><a xlink:title=" ">
<path fill="none" stroke="#63b8ff" d="M1204.87,-140.97C1141.16,-140.13 1022.97,-133.08 930.5,-96 925.37,-93.94 869.1,-52.64 838.71,-30.21"/>
<polygon fill="#63b8ff" stroke="#63b8ff" points="1204.96,-144.47 1214.99,-141.05 1205.02,-137.47 1204.96,-144.47"/>
</a>
</g>
</g>
<!-- Node29 -->
<g id="Node000029" class="node">
<title>Node29</title>
<g id="a_Node000029"><a xlink:href="material_8c.html" target="_top" xlink:title=" ">
<polygon fill="white" stroke="#666666" points="1775.5,-90.5 1709.5,-90.5 1709.5,-71.5 1775.5,-71.5 1775.5,-90.5"/>
<text text-anchor="middle" x="1742.5" y="-78.5" font-family="Helvetica,sans-Serif" font-size="10.00">material.c</text>
</a>
</g>
</g>
<!-- Node1&#45;&gt;Node29 -->
<g id="edge43_Node000001_Node000029" class="edge">
<title>Node1&#45;&gt;Node29</title>
<g id="a_edge43_Node000001_Node000029"><a xlink:title=" ">
<path fill="none" stroke="#63b8ff" d="M1296.44,-139.33C1378.43,-136.5 1555.05,-127.03 1700.5,-96 1706.81,-94.65 1713.51,-92.68 1719.65,-90.64"/>
<polygon fill="#63b8ff" stroke="#63b8ff" points="1296.09,-135.84 1286.21,-139.67 1296.32,-142.84 1296.09,-135.84"/>
</a>
</g>
</g>
<!-- Node30 -->
<g id="Node000030" class="node">
<title>Node30</title>
<g id="a_Node000030"><a xlink:href="material__NonlinearCantilever_8c.html" target="_top" xlink:title=" ">
<polygon fill="white" stroke="#666666" points="1961.5,-90.5 1793.5,-90.5 1793.5,-71.5 1961.5,-71.5 1961.5,-90.5"/>
<text text-anchor="middle" x="1877.5" y="-78.5" font-family="Helvetica,sans-Serif" font-size="10.00">material_NonlinearCantilever.c</text>
</a>
</g>
</g>
<!-- Node1&#45;&gt;Node30 -->
<g id="edge44_Node000001_Node000030" class="edge">
<title>Node1&#45;&gt;Node30</title>
<g id="a_edge44_Node000001_Node000030"><a xlink:title=" ">
<path fill="none" stroke="#63b8ff" d="M1296.34,-137.71C1388.83,-131.85 1604.33,-117.04 1784.5,-96 1797.64,-94.47 1811.77,-92.5 1824.96,-90.53"/>
<polygon fill="#63b8ff" stroke="#63b8ff" points="1295.96,-134.22 1286.2,-138.35 1296.4,-141.21 1295.96,-134.22"/>
</a>
</g>
</g>
<!-- Node31 -->
<g id="Node000031" class="node">
<title>Node31</title>
<g id="a_Node000031"><a xlink:href="material__org_8c.html" target="_top" xlink:title=" ">
<polygon fill="white" stroke="#666666" points="2067,-90.5 1980,-90.5 1980,-71.5 2067,-71.5 2067,-90.5"/>
<text text-anchor="middle" x="2023.5" y="-78.5" font-family="Helvetica,sans-Serif" font-size="10.00">material_org.c</text>
</a>
</g>
</g>
<!-- Node1&#45;&gt;Node31 -->
<g id="edge45_Node000001_Node000031" class="edge">
<title>Node1&#45;&gt;Node31</title>
<g id="a_edge45_Node000001_Node000031"><a xlink:title=" ">
<path fill="none" stroke="#63b8ff" d="M1296.53,-140.78C1411.17,-140.79 1718.42,-136.68 1970.5,-96 1978.67,-94.68 1987.41,-92.64 1995.39,-90.52"/>
<polygon fill="#63b8ff" stroke="#63b8ff" points="1296.36,-137.28 1286.36,-140.76 1296.36,-144.28 1296.36,-137.28"/>
</a>
</g>
</g>
<!-- Node32 -->
<g id="Node000032" class="node">
<title>Node32</title>
<g id="a_Node000032"><a xlink:href="math_8c.html" target="_top" xlink:title=" ">
<polygon fill="white" stroke="#666666" points="2135.5,-90.5 2085.5,-90.5 2085.5,-71.5 2135.5,-71.5 2135.5,-90.5"/>
<text text-anchor="middle" x="2110.5" y="-78.5" font-family="Helvetica,sans-Serif" font-size="10.00">math.c</text>
</a>
</g>
</g>
<!-- Node1&#45;&gt;Node32 -->
<g id="edge46_Node000001_Node000032" class="edge">
<title>Node1&#45;&gt;Node32</title>
<g id="a_edge46_Node000001_Node000032"><a xlink:title=" ">
<path fill="none" stroke="#63b8ff" d="M1296.53,-140.05C1447.44,-138.26 1926.19,-129.96 2076.5,-96 2081.98,-94.76 2087.71,-92.72 2092.87,-90.57"/>
<polygon fill="#63b8ff" stroke="#63b8ff" points="1296.2,-136.55 1286.24,-140.17 1296.28,-143.55 1296.2,-136.55"/>
</a>
</g>
</g>
<!-- Node33 -->
<g id="Node000033" class="node">
<title>Node33</title>
<g id="a_Node000033"><a xlink:href="membrane_8c.html" target="_top" xlink:title=" ">
<polygon fill="white" stroke="#666666" points="2231.5,-90.5 2153.5,-90.5 2153.5,-71.5 2231.5,-71.5 2231.5,-90.5"/>
<text text-anchor="middle" x="2192.5" y="-78.5" font-family="Helvetica,sans-Serif" font-size="10.00">membrane.c</text>
</a>
</g>
</g>
<!-- Node1&#45;&gt;Node33 -->
<g id="edge47_Node000001_Node000033" class="edge">
<title>Node1&#45;&gt;Node33</title>
<g id="a_edge47_Node000001_Node000033"><a xlink:title=" ">
<path fill="none" stroke="#63b8ff" d="M1296.42,-139.63C1454.97,-136.42 1978.78,-123.9 2144.5,-96 2152.03,-94.73 2160.06,-92.68 2167.35,-90.54"/>
<polygon fill="#63b8ff" stroke="#63b8ff" points="1296,-136.14 1286.08,-139.84 1296.14,-143.14 1296,-136.14"/>
</a>
</g>
</g>
<!-- Node34 -->
<g id="Node000034" class="node">
<title>Node34</title>
<g id="a_Node000034"><a xlink:href="mlp_8c.html" target="_top" xlink:title=" ">
<polygon fill="white" stroke="#666666" points="2293.5,-90.5 2249.5,-90.5 2249.5,-71.5 2293.5,-71.5 2293.5,-90.5"/>
<text text-anchor="middle" x="2271.5" y="-78.5" font-family="Helvetica,sans-Serif" font-size="10.00">mlp.c</text>
</a>
</g>
</g>
<!-- Node1&#45;&gt;Node34 -->
<g id="edge48_Node000001_Node000034" class="edge">
<title>Node1&#45;&gt;Node34</title>
<g id="a_edge48_Node000001_Node000034"><a xlink:title=" ">
<path fill="none" stroke="#63b8ff" d="M1296.12,-140.73C1465.47,-141.22 2057.64,-139.69 2240.5,-96 2245.55,-94.79 2250.8,-92.76 2255.5,-90.61"/>
<polygon fill="#63b8ff" stroke="#63b8ff" points="1296.06,-137.23 1286.05,-140.69 1296.04,-144.23 1296.06,-137.23"/>
</a>
</g>
</g>
<!-- Node35 -->
<g id="Node000035" class="node">
<title>Node35</title>
<g id="a_Node000035"><a xlink:href="muscle__activation_8c.html" target="_top" xlink:title="Implementation of muscle activation on shell element using active&#45;strain, active stress approaches.">
<polygon fill="white" stroke="#666666" points="2425.5,-90.5 2311.5,-90.5 2311.5,-71.5 2425.5,-71.5 2425.5,-90.5"/>
<text text-anchor="middle" x="2368.5" y="-78.5" font-family="Helvetica,sans-Serif" font-size="10.00">muscle_activation.c</text>
</a>
</g>
</g>
<!-- Node1&#45;&gt;Node35 -->
<g id="edge49_Node000001_Node000035" class="edge">
<title>Node1&#45;&gt;Node35</title>
<g id="a_edge49_Node000001_Node000035"><a xlink:title=" ">
<path fill="none" stroke="#63b8ff" d="M1296.38,-139.58C1472.25,-135.89 2103.44,-121.14 2302.5,-96 2312.73,-94.71 2323.72,-92.65 2333.75,-90.51"/>
<polygon fill="#63b8ff" stroke="#63b8ff" points="1296.11,-136.08 1286.18,-139.79 1296.25,-143.08 1296.11,-136.08"/>
</a>
</g>
</g>
<!-- Node36 -->
<g id="Node000036" class="node">
<title>Node36</title>
<g id="a_Node000036"><a xlink:href="muscle__activation_8h.html" target="_top" xlink:title="Declarations for muscle activation module using active&#45;strain and active&#45;stress approaches.">
<polygon fill="white" stroke="#666666" points="2559,-90.5 2444,-90.5 2444,-71.5 2559,-71.5 2559,-90.5"/>
<text text-anchor="middle" x="2501.5" y="-78.5" font-family="Helvetica,sans-Serif" font-size="10.00">muscle_activation.h</text>
</a>
</g>
</g>
<!-- Node1&#45;&gt;Node36 -->
<g id="edge50_Node000001_Node000036" class="edge">
<title>Node1&#45;&gt;Node36</title>
<g id="a_edge50_Node000001_Node000036"><a xlink:title=" ">
<path fill="none" stroke="#63b8ff" d="M1296.42,-139.81C1485.98,-136.79 2208.19,-123.7 2434.5,-96 2444.88,-94.73 2456.04,-92.68 2466.22,-90.53"/>
<polygon fill="#63b8ff" stroke="#63b8ff" points="1296.19,-136.31 1286.25,-139.97 1296.3,-143.31 1296.19,-136.31"/>
</a>
</g>
</g>
<!-- Node7&#45;&gt;Node3 -->
<g id="edge7_Node000007_Node000003" class="edge">
<title>Node7&#45;&gt;Node3</title>
<g id="a_edge7_Node000007_Node000003"><a xlink:title=" ">
<path fill="none" stroke="#63b8ff" d="M333.81,-68.48C291.42,-55.87 224.41,-35.92 186.38,-24.6"/>
<polygon fill="#63b8ff" stroke="#63b8ff" points="332.92,-71.87 343.5,-71.37 334.92,-65.16 332.92,-71.87"/>
</a>
</g>
</g>
<!-- Node8 -->
<g id="Node000008" class="node">
<title>Node8</title>
<g id="a_Node000008"><a xlink:href="cuda__processes_8c.html" target="_top" xlink:title=" ">
<polygon fill="white" stroke="#666666" points="535.5,-24.5 433.5,-24.5 433.5,-5.5 535.5,-5.5 535.5,-24.5"/>
<text text-anchor="middle" x="484.5" y="-12.5" font-family="Helvetica,sans-Serif" font-size="10.00">cuda_processes.c</text>
</a>
</g>
</g>
<!-- Node7&#45;&gt;Node8 -->
<g id="edge8_Node000007_Node000008" class="edge">
<title>Node7&#45;&gt;Node8</title>
<g id="a_edge8_Node000007_Node000008"><a xlink:title=" ">
<path fill="none" stroke="#63b8ff" d="M396.37,-66.36C418.42,-53.76 450.52,-35.42 469.28,-24.7"/>
<polygon fill="#63b8ff" stroke="#63b8ff" points="394.55,-63.37 387.6,-71.37 398.02,-69.45 394.55,-63.37"/>
</a>
</g>
</g>
<!-- Node9 -->
<g id="Node000009" class="node">
<title>Node9</title>
<g id="a_Node000009"><a xlink:href="cuda__stub_8c.html" target="_top" xlink:title=" ">
<polygon fill="white" stroke="#666666" points="415.5,-24.5 341.5,-24.5 341.5,-5.5 415.5,-5.5 415.5,-24.5"/>
<text text-anchor="middle" x="378.5" y="-12.5" font-family="Helvetica,sans-Serif" font-size="10.00">cuda_stub.c</text>
</a>
</g>
</g>
<!-- Node7&#45;&gt;Node9 -->
<g id="edge9_Node000007_Node000009" class="edge">
<title>Node7&#45;&gt;Node9</title>
<g id="a_edge9_Node000007_Node000009"><a xlink:title=" ">
<path fill="none" stroke="#63b8ff" d="M374.27,-61.08C375.39,-49.13 376.79,-34.22 377.67,-24.91"/>
<polygon fill="#63b8ff" stroke="#63b8ff" points="370.76,-61.09 373.31,-71.37 377.73,-61.74 370.76,-61.09"/>
</a>
</g>
</g>
<!-- Node10 -->
<g id="Node000010" class="node">
<title>Node10</title>
<g id="a_Node000010"><a xlink:href="cuda__wrapper_8cpp.html" target="_top" xlink:title=" ">
<polygon fill="white" stroke="#666666" points="323.5,-24.5 219.5,-24.5 219.5,-5.5 323.5,-5.5 323.5,-24.5"/>
<text text-anchor="middle" x="271.5" y="-12.5" font-family="Helvetica,sans-Serif" font-size="10.00">cuda_wrapper.cpp</text>
</a>
</g>
</g>
<!-- Node7&#45;&gt;Node10 -->
<g id="edge10_Node000007_Node000010" class="edge">
<title>Node7&#45;&gt;Node10</title>
<g id="a_edge10_Node000007_Node000010"><a xlink:title=" ">
<path fill="none" stroke="#63b8ff" d="M350.17,-65.85C330.31,-53.27 301.92,-35.28 285.23,-24.7"/>
<polygon fill="#63b8ff" stroke="#63b8ff" points="348.56,-68.97 358.88,-71.37 352.31,-63.06 348.56,-68.97"/>
</a>
</g>
</g>
<!-- Node7&#45;&gt;Node11 -->
<g id="edge11_Node000007_Node000011" class="edge">
<title>Node7&#45;&gt;Node11</title>
<g id="a_edge11_Node000007_Node000011"><a xlink:title=" ">
<path fill="none" stroke="#63b8ff" d="M413.23,-68.71C456,-56.75 520.32,-38.47 544.5,-30 549.2,-28.35 554.19,-26.41 558.86,-24.51"/>
<polygon fill="#63b8ff" stroke="#63b8ff" points="412.09,-65.39 403.4,-71.45 413.97,-72.13 412.09,-65.39"/>
</a>
</g>
</g>
<!-- Node12&#45;&gt;Node8 -->
<g id="edge13_Node000012_Node000008" class="edge">
<title>Node12&#45;&gt;Node8</title>
<g id="a_edge13_Node000012_Node000008"><a xlink:title=" ">
<path fill="none" stroke="#63b8ff" d="M484.5,-61.08C484.5,-49.13 484.5,-34.22 484.5,-24.91"/>
<polygon fill="#63b8ff" stroke="#63b8ff" points="481,-61.37 484.5,-71.37 488,-61.37 481,-61.37"/>
</a>
</g>
</g>
<!-- Node12&#45;&gt;Node11 -->
<g id="edge14_Node000012_Node000011" class="edge">
<title>Node12&#45;&gt;Node11</title>
<g id="a_edge14_Node000012_Node000011"><a xlink:title=" ">
<path fill="none" stroke="#63b8ff" d="M505.53,-65.68C524,-53.11 550.26,-35.23 565.72,-24.7"/>
<polygon fill="#63b8ff" stroke="#63b8ff" points="503.47,-62.85 497.18,-71.37 507.41,-68.63 503.47,-62.85"/>
</a>
</g>
</g>
<!-- Node13&#45;&gt;Node3 -->
<g id="edge16_Node000013_Node000003" class="edge">
<title>Node13&#45;&gt;Node3</title>
<g id="a_edge16_Node000013_Node000003"><a xlink:title=" ">
<path fill="none" stroke="#63b8ff" d="M241.41,-66.19C220.35,-53.59 189.89,-35.37 172.04,-24.7"/>
<polygon fill="#63b8ff" stroke="#63b8ff" points="239.69,-69.24 250.07,-71.37 243.28,-63.23 239.69,-69.24"/>
</a>
</g>
</g>
<!-- Node13&#45;&gt;Node11 -->
<g id="edge18_Node000013_Node000011" class="edge">
<title>Node13&#45;&gt;Node11</title>
<g id="a_edge18_Node000013_Node000011"><a xlink:title=" ">
<path fill="none" stroke="#63b8ff" d="M306.71,-69.04C311.35,-67.96 316.02,-66.92 320.5,-66 419.28,-45.75 447.46,-57.38 544.5,-30 549.54,-28.58 554.84,-26.63 559.71,-24.64"/>
<polygon fill="#63b8ff" stroke="#63b8ff" points="305.57,-65.71 296.67,-71.46 307.21,-72.52 305.57,-65.71"/>
</a>
</g>
</g>
<!-- Node14 -->
<g id="Node000014" class="node">
<title>Node14</title>
<g id="a_Node000014"><a xlink:href="dmplex__geom_8c.html" target="_top" xlink:title="Distributed geometry kernel for Loop subdivision surfaces using PETSc DMPlex.">
<polygon fill="white" stroke="#666666" points="95,-24.5 0,-24.5 0,-5.5 95,-5.5 95,-24.5"/>
<text text-anchor="middle" x="47.5" y="-12.5" font-family="Helvetica,sans-Serif" font-size="10.00">dmplex_geom.c</text>
</a>
</g>
</g>
<!-- Node13&#45;&gt;Node14 -->
<g id="edge17_Node000013_Node000014" class="edge">
<title>Node13&#45;&gt;Node14</title>
<g id="a_edge17_Node000013_Node000014"><a xlink:title=" ">
<path fill="none" stroke="#63b8ff" d="M225.45,-68.48C182.67,-55.87 115.04,-35.92 76.65,-24.6"/>
<polygon fill="#63b8ff" stroke="#63b8ff" points="224.65,-71.9 235.23,-71.37 226.63,-65.18 224.65,-71.9"/>
</a>
</g>
</g>
<!-- Node19&#45;&gt;Node11 -->
<g id="edge27_Node000019_Node000011" class="edge">
<title>Node19&#45;&gt;Node11</title>
<g id="a_edge27_Node000019_Node000011"><a xlink:title=" ">
<path fill="none" stroke="#63b8ff" d="M928.78,-74.12C839.17,-64.68 670.84,-45.63 612.5,-30 607.32,-28.61 601.88,-26.63 596.91,-24.59"/>
<polygon fill="#63b8ff" stroke="#63b8ff" points="928.47,-77.61 938.78,-75.17 929.2,-70.65 928.47,-77.61"/>
</a>
</g>
</g>
<!-- Node20 -->
<g id="Node000020" class="node">
<title>Node20</title>
<g id="a_Node000020"><a xlink:href="kokkos__geom_8cpp.html" target="_top" xlink:title=" ">
<polygon fill="white" stroke="#666666" points="1236.5,-24.5 1132.5,-24.5 1132.5,-5.5 1236.5,-5.5 1236.5,-24.5"/>
<text text-anchor="middle" x="1184.5" y="-12.5" font-family="Helvetica,sans-Serif" font-size="10.00">kokkos_geom.cpp</text>
</a>
</g>
</g>
<!-- Node19&#45;&gt;Node20 -->
<g id="edge24_Node000019_Node000020" class="edge">
<title>Node19&#45;&gt;Node20</title>
<g id="a_edge24_Node000019_Node000020"><a xlink:title=" ">
<path fill="none" stroke="#63b8ff" d="M1022.87,-68.24C1061.94,-55.61 1123.1,-35.85 1157.9,-24.6"/>
<polygon fill="#63b8ff" stroke="#63b8ff" points="1021.64,-64.96 1013.2,-71.37 1023.79,-71.62 1021.64,-64.96"/>
</a>
</g>
</g>
<!-- Node21 -->
<g id="Node000021" class="node">
<title>Node21</title>
<g id="a_Node000021"><a xlink:href="kokkos__processes_8c.html" target="_top" xlink:title=" ">
<polygon fill="white" stroke="#666666" points="1011,-24.5 898,-24.5 898,-5.5 1011,-5.5 1011,-24.5"/>
<text text-anchor="middle" x="954.5" y="-12.5" font-family="Helvetica,sans-Serif" font-size="10.00">kokkos_processes.c</text>
</a>
</g>
</g>
<!-- Node19&#45;&gt;Node21 -->
<g id="edge25_Node000019_Node000021" class="edge">
<title>Node19&#45;&gt;Node21</title>
<g id="a_edge25_Node000019_Node000021"><a xlink:title=" ">
<path fill="none" stroke="#63b8ff" d="M977.59,-62.18C971.53,-50.05 963.75,-34.51 958.95,-24.91"/>
<polygon fill="#63b8ff" stroke="#63b8ff" points="974.58,-63.99 982.18,-71.37 980.84,-60.86 974.58,-63.99"/>
</a>
</g>
</g>
<!-- Node22 -->
<g id="Node000022" class="node">
<title>Node22</title>
<g id="a_Node000022"><a xlink:href="kokkos__stub_8c.html" target="_top" xlink:title=" ">
<polygon fill="white" stroke="#666666" points="1114,-24.5 1029,-24.5 1029,-5.5 1114,-5.5 1114,-24.5"/>
<text text-anchor="middle" x="1071.5" y="-12.5" font-family="Helvetica,sans-Serif" font-size="10.00">kokkos_stub.c</text>
</a>
</g>
</g>
<!-- Node19&#45;&gt;Node22 -->
<g id="edge26_Node000019_Node000022" class="edge">
<title>Node19&#45;&gt;Node22</title>
<g id="a_edge26_Node000019_Node000022"><a xlink:title=" ">
<path fill="none" stroke="#63b8ff" d="M1005.98,-65.33C1022.65,-52.78 1046.09,-35.13 1059.95,-24.7"/>
<polygon fill="#63b8ff" stroke="#63b8ff" points="1003.85,-62.56 997.96,-71.37 1008.06,-68.15 1003.85,-62.56"/>
</a>
</g>
</g>
<!-- Node23&#45;&gt;Node11 -->
<g id="edge30_Node000023_Node000011" class="edge">
<title>Node23&#45;&gt;Node11</title>
<g id="a_edge30_Node000023_Node000011"><a xlink:title=" ">
<path fill="none" stroke="#63b8ff" d="M743.19,-68.82C707.56,-59.47 656.37,-45.25 612.5,-30 607.8,-28.37 602.8,-26.43 598.13,-24.52"/>
<polygon fill="#63b8ff" stroke="#63b8ff" points="742.71,-72.31 753.27,-71.44 744.47,-65.53 742.71,-72.31"/>
</a>
</g>
</g>
<!-- Node23&#45;&gt;Node21 -->
<g id="edge29_Node000023_Node000021" class="edge">
<title>Node23&#45;&gt;Node21</title>
<g id="a_edge29_Node000023_Node000021"><a xlink:title=" ">
<path fill="none" stroke="#63b8ff" d="M819.66,-67.68C852.66,-55.03 903.15,-35.68 932.07,-24.6"/>
<polygon fill="#63b8ff" stroke="#63b8ff" points="818.11,-64.52 810.02,-71.37 820.61,-71.06 818.11,-64.52"/>
</a>
</g>
</g>
<!-- Node25&#45;&gt;Node11 -->
<g id="edge34_Node000025_Node000011" class="edge">
<title>Node25&#45;&gt;Node11</title>
<g id="a_edge34_Node000025_Node000011"><a xlink:title=" ">
<path fill="none" stroke="#63b8ff" d="M1057.38,-68.9C1052.73,-67.8 1048.03,-66.79 1043.5,-66 854.15,-32.88 799.35,-75.13 612.5,-30 607.16,-28.71 601.58,-26.71 596.51,-24.62"/>
<polygon fill="#63b8ff" stroke="#63b8ff" points="1056.82,-72.37 1067.37,-71.44 1058.54,-65.58 1056.82,-72.37"/>
</a>
</g>
</g>
<!-- Node25&#45;&gt;Node24 -->
<g id="edge33_Node000025_Node000024" class="edge">
<title>Node25&#45;&gt;Node24</title>
<g id="a_edge33_Node000025_Node000024"><a xlink:title=" ">
<path fill="none" stroke="#63b8ff" d="M1132.35,-68.32C1172.2,-55.7 1234.78,-35.87 1270.37,-24.6"/>
<polygon fill="#63b8ff" stroke="#63b8ff" points="1131.22,-65.01 1122.74,-71.37 1133.33,-71.68 1131.22,-65.01"/>
</a>
</g>
</g>
<!-- Node27&#45;&gt;Node3 -->
<g id="edge38_Node000027_Node000003" class="edge">
<title>Node27&#45;&gt;Node3</title>
<g id="a_edge38_Node000027_Node000003"><a xlink:title=" ">
<path fill="none" stroke="#63b8ff" d="M582.29,-70.68C569.71,-69.07 556.72,-67.45 544.5,-66 396.24,-48.4 357.32,-57.14 210.5,-30 202.73,-28.56 194.43,-26.59 186.76,-24.57"/>
<polygon fill="#63b8ff" stroke="#63b8ff" points="581.9,-74.15 592.26,-71.96 582.79,-67.21 581.9,-74.15"/>
</a>
</g>
</g>
<!-- Node27&#45;&gt;Node11 -->
<g id="edge39_Node000027_Node000011" class="edge">
<title>Node27&#45;&gt;Node11</title>
<g id="a_edge39_Node000027_Node000011"><a xlink:title=" ">
<path fill="none" stroke="#63b8ff" d="M628.14,-58.93C614.75,-47.35 598.86,-33.61 588.73,-24.84"/>
<polygon fill="#63b8ff" stroke="#63b8ff" points="626.22,-61.9 636.08,-65.8 630.8,-56.61 626.22,-61.9"/>
</a>
</g>
</g>
<!-- Node27&#45;&gt;Node26 -->
<g id="edge40_Node000027_Node000026" class="edge">
<title>Node27&#45;&gt;Node26</title>
<g id="a_edge40_Node000027_Node000026"><a xlink:title=" ">
<path fill="none" stroke="#63b8ff" d="M663.07,-56.68C667.09,-47.79 671.56,-37.95 675.08,-30.16"/>
<polygon fill="#63b8ff" stroke="#63b8ff" points="659.88,-55.24 658.94,-65.8 666.25,-58.13 659.88,-55.24"/>
</a>
</g>
</g>
<!-- Node27&#45;&gt;Node28 -->
<g id="edge41_Node000027_Node000028" class="edge">
<title>Node27&#45;&gt;Node28</title>
<g id="a_edge41_Node000027_Node000028"><a xlink:title=" ">
<path fill="none" stroke="#63b8ff" d="M698.63,-62.32C725.21,-52.14 758.16,-39.51 782.94,-30.01"/>
<polygon fill="#63b8ff" stroke="#63b8ff" points="697.23,-59.11 689.15,-65.95 699.74,-65.64 697.23,-59.11"/>
</a>
</g>
</g>
</g>
</svg>

<g id="navigator" transform="translate(0 0)" fill="#404254">
  <rect fill="#f2f5e9" fill-opacity="0.5" stroke="#606060" stroke-width=".5" x="0" y="0" width="60" height="60"/>
  <use id="zoomplus" xlink:href="#zoomPlus" x="17" y="9" onmousedown="handleZoom(evt,'in')"/>
  <use id="zoomminus" xlink:href="#zoomMin" x="42" y="9" onmousedown="handleZoom(evt,'out')"/>
  <use id="reset" xlink:href="#resetDef" x="30" y="36" onmousedown="handleReset()"/>
   <use id="arrowup" xlink:href="#arrowUp" x="0" y="0" onmousedown="handlePan(0,-1)"/>
  <use id="arrowright" xlink:href="#arrowRight" x="0" y="0" onmousedown="handlePan(1,0)"/>
  <use id="arrowdown" xlink:href="#arrowDown" x="0" y="0" onmousedown="handlePan(0,1)"/>
  <use id="arrowleft" xlink:href="#arrowLeft" x="0" y="0" onmousedown="handlePan(-1,0)"/>
</g>
<svg viewBox="0 0 15 15" width="100%" height="30px" preserveAspectRatio="xMaxYMin meet">
 <g id="arrow_out" transform="scale(0.3 0.3)">
  <a xlink:href="variables_8h__dep__incl_org.svg" target="_base">
   <rect id="button" ry="5" rx="5" y="6" x="6" height="38" width="38"
        fill="#f2f5e9" fill-opacity="0.5" stroke="#606060" stroke-width="1.0"/>
   <path id="arrow"
     d="M 11.500037,31.436501 C 11.940474,20.09759 22.043105,11.32322 32.158766,21.979434 L 37.068811,17.246167 C 37.068811,17.246167 37.088388,32 37.088388,32 L 22.160133,31.978069 C 22.160133,31.978069 26.997745,27.140456 26.997745,27.140456 C 18.528582,18.264221 13.291696,25.230495 11.500037,31.436501 z"
     style="fill:#404040;"/>
  </a>
 </g>
</svg>

<style type='text/css'>
<![CDATA[
[data-mouse-over-selected='false'] { opacity: 0.7; }
[data-mouse-over-selected='true']  { opacity: 1.0; }
]]>
</style>
<script type="application/ecmascript"><![CDATA[
document.addEventListener('DOMContentLoaded', (event) => {
  highlightEdges();
  highlightAdjacentNodes();
});
]]></script>
</svg>
