<svg xmlns="http://www.w3.org/2000/svg" width="980" height="620" viewBox="0 0 980 620">
<rect width="100%" height="100%" fill="white"/>
<text x="95" y="30" font-family="Arial, sans-serif" font-size="20" font-weight="700">Backend wall-clock comparison across meshes</text>
<line x1="95" y1="50" x2="95" y2="530" stroke="#111827" stroke-width="1.2"/>
<line x1="95" y1="530" x2="720" y2="530" stroke="#111827" stroke-width="1.2"/>
<line x1="95.0" y1="530" x2="95.0" y2="536" stroke="#111827"/>
<text x="95.0" y="554" text-anchor="middle" font-family="Arial, sans-serif" font-size="11">13496</text>
<line x1="368.0" y1="530" x2="368.0" y2="536" stroke="#111827"/>
<text x="368.0" y="554" text-anchor="middle" font-family="Arial, sans-serif" font-size="11">24132</text>
<line x1="720.0" y1="530" x2="720.0" y2="536" stroke="#111827"/>
<text x="720.0" y="554" text-anchor="middle" font-family="Arial, sans-serif" font-size="11">37846</text>
<line x1="95" y1="530.0" x2="720" y2="530.0" stroke="#e5e7eb"/>
<text x="85" y="534.0" text-anchor="end" font-family="Arial, sans-serif" font-size="12">45.5</text>
<line x1="95" y1="434.0" x2="720" y2="434.0" stroke="#e5e7eb"/>
<text x="85" y="438.0" text-anchor="end" font-family="Arial, sans-serif" font-size="12">101</text>
<line x1="95" y1="338.0" x2="720" y2="338.0" stroke="#e5e7eb"/>
<text x="85" y="342.0" text-anchor="end" font-family="Arial, sans-serif" font-size="12">157</text>
<line x1="95" y1="242.0" x2="720" y2="242.0" stroke="#e5e7eb"/>
<text x="85" y="246.0" text-anchor="end" font-family="Arial, sans-serif" font-size="12">212</text>
<line x1="95" y1="146.0" x2="720" y2="146.0" stroke="#e5e7eb"/>
<text x="85" y="150.0" text-anchor="end" font-family="Arial, sans-serif" font-size="12">268</text>
<line x1="95" y1="50.0" x2="720" y2="50.0" stroke="#e5e7eb"/>
<text x="85" y="54.0" text-anchor="end" font-family="Arial, sans-serif" font-size="12">323</text>
<polyline points="95.0,496.9 368.0,387.9 720.0,83.1" fill="none" stroke="#2563eb" stroke-width="2"/>
<circle cx="95.0" cy="496.9" r="4" fill="#2563eb"/>
<circle cx="368.0" cy="387.9" r="4" fill="#2563eb"/>
<circle cx="720.0" cy="83.1" r="4" fill="#2563eb"/>
<circle cx="755.0" cy="66.0" r="4" fill="#2563eb"/>
<line x1="740" y1="66.0" x2="770" y2="66.0" stroke="#2563eb" stroke-width="2"/>
<text x="780" y="70.0" font-family="Arial, sans-serif" font-size="12">Kokkos openmp (c12)</text>
<text x="407.5" y="590" text-anchor="middle" font-family="Arial, sans-serif" font-size="14">Mesh elements</text>
<text x="22" y="290.0" transform="rotate(-90 22 290.0)" text-anchor="middle" font-family="Arial, sans-serif" font-size="14">Seconds</text>
</svg>
